<?xml version="1.0" encoding="utf-8"?>
<svg xmlns="http://www.w3.org/2000/svg" xmlns:xlink="http://www.w3.org/1999/xlink" width="600" height="400" viewBox="0 0 2400 1600">
<defs>
  <clipPath id="clip480">
    <rect x="0" y="0" width="2400" height="1600"/>
  </clipPath>
</defs>
<path clip-path="url(#clip480)" d="M0 1600 L2400 1600 L2400 0 L0 0  Z" fill="#ffffff" fill-rule="evenodd" fill-opacity="1"/>
<defs>
  <clipPath id="clip481">
    <rect x="480" y="0" width="1681" height="1600"/>
  </clipPath>
</defs>
<path clip-path="url(#clip480)" d="M255.607 1423.18 L2352.76 1423.18 L2352.76 47.2441 L255.607 47.2441  Z" fill="#ffffff" fill-rule="evenodd" fill-opacity="1"/>
<defs>
  <clipPath id="clip482">
    <rect x="255" y="47" width="2098" height="1377"/>
  </clipPath>
</defs>
<polyline clip-path="url(#clip482)" style="stroke:#000000; stroke-linecap:round; stroke-linejoin:round; stroke-width:2; stroke-opacity:0.1; fill:none" points="314.96,1423.18 314.96,47.2441 "/>
<polyline clip-path="url(#clip482)" style="stroke:#000000; stroke-linecap:round; stroke-linejoin:round; stroke-width:2; stroke-opacity:0.1; fill:none" points="809.571,1423.18 809.571,47.2441 "/>
<polyline clip-path="url(#clip482)" style="stroke:#000000; stroke-linecap:round; stroke-linejoin:round; stroke-width:2; stroke-opacity:0.1; fill:none" points="1304.18,1423.18 1304.18,47.2441 "/>
<polyline clip-path="url(#clip482)" style="stroke:#000000; stroke-linecap:round; stroke-linejoin:round; stroke-width:2; stroke-opacity:0.1; fill:none" points="1798.79,1423.18 1798.79,47.2441 "/>
<polyline clip-path="url(#clip482)" style="stroke:#000000; stroke-linecap:round; stroke-linejoin:round; stroke-width:2; stroke-opacity:0.1; fill:none" points="2293.4,1423.18 2293.4,47.2441 "/>
<polyline clip-path="url(#clip482)" style="stroke:#000000; stroke-linecap:round; stroke-linejoin:round; stroke-width:2; stroke-opacity:0.1; fill:none" points="255.607,1185.03 2352.76,1185.03 "/>
<polyline clip-path="url(#clip482)" style="stroke:#000000; stroke-linecap:round; stroke-linejoin:round; stroke-width:2; stroke-opacity:0.1; fill:none" points="255.607,827.091 2352.76,827.091 "/>
<polyline clip-path="url(#clip482)" style="stroke:#000000; stroke-linecap:round; stroke-linejoin:round; stroke-width:2; stroke-opacity:0.1; fill:none" points="255.607,469.149 2352.76,469.149 "/>
<polyline clip-path="url(#clip482)" style="stroke:#000000; stroke-linecap:round; stroke-linejoin:round; stroke-width:2; stroke-opacity:0.1; fill:none" points="255.607,111.208 2352.76,111.208 "/>
<polyline clip-path="url(#clip480)" style="stroke:#000000; stroke-linecap:round; stroke-linejoin:round; stroke-width:4; stroke-opacity:1; fill:none" points="255.607,1423.18 2352.76,1423.18 "/>
<polyline clip-path="url(#clip480)" style="stroke:#000000; stroke-linecap:round; stroke-linejoin:round; stroke-width:4; stroke-opacity:1; fill:none" points="314.96,1423.18 314.96,1404.28 "/>
<polyline clip-path="url(#clip480)" style="stroke:#000000; stroke-linecap:round; stroke-linejoin:round; stroke-width:4; stroke-opacity:1; fill:none" points="809.571,1423.18 809.571,1404.28 "/>
<polyline clip-path="url(#clip480)" style="stroke:#000000; stroke-linecap:round; stroke-linejoin:round; stroke-width:4; stroke-opacity:1; fill:none" points="1304.18,1423.18 1304.18,1404.28 "/>
<polyline clip-path="url(#clip480)" style="stroke:#000000; stroke-linecap:round; stroke-linejoin:round; stroke-width:4; stroke-opacity:1; fill:none" points="1798.79,1423.18 1798.79,1404.28 "/>
<polyline clip-path="url(#clip480)" style="stroke:#000000; stroke-linecap:round; stroke-linejoin:round; stroke-width:4; stroke-opacity:1; fill:none" points="2293.4,1423.18 2293.4,1404.28 "/>
<path clip-path="url(#clip480)" d="M277.264 1454.1 Q273.652 1454.1 271.824 1457.66 Q270.018 1461.2 270.018 1468.33 Q270.018 1475.44 271.824 1479.01 Q273.652 1482.55 277.264 1482.55 Q280.898 1482.55 282.703 1479.01 Q284.532 1475.44 284.532 1468.33 Q284.532 1461.2 282.703 1457.66 Q280.898 1454.1 277.264 1454.1 M277.264 1450.39 Q283.074 1450.39 286.129 1455 Q289.208 1459.58 289.208 1468.33 Q289.208 1477.06 286.129 1481.67 Q283.074 1486.25 277.264 1486.25 Q271.453 1486.25 268.375 1481.67 Q265.319 1477.06 265.319 1468.33 Q265.319 1459.58 268.375 1455 Q271.453 1450.39 277.264 1450.39 Z" fill="#000000" fill-rule="nonzero" fill-opacity="1" /><path clip-path="url(#clip480)" d="M297.425 1479.7 L302.31 1479.7 L302.31 1485.58 L297.425 1485.58 L297.425 1479.7 Z" fill="#000000" fill-rule="nonzero" fill-opacity="1" /><path clip-path="url(#clip480)" d="M322.495 1454.1 Q318.884 1454.1 317.055 1457.66 Q315.249 1461.2 315.249 1468.33 Q315.249 1475.44 317.055 1479.01 Q318.884 1482.55 322.495 1482.55 Q326.129 1482.55 327.935 1479.01 Q329.763 1475.44 329.763 1468.33 Q329.763 1461.2 327.935 1457.66 Q326.129 1454.1 322.495 1454.1 M322.495 1450.39 Q328.305 1450.39 331.36 1455 Q334.439 1459.58 334.439 1468.33 Q334.439 1477.06 331.36 1481.67 Q328.305 1486.25 322.495 1486.25 Q316.685 1486.25 313.606 1481.67 Q310.55 1477.06 310.55 1468.33 Q310.55 1459.58 313.606 1455 Q316.685 1450.39 322.495 1450.39 Z" fill="#000000" fill-rule="nonzero" fill-opacity="1" /><path clip-path="url(#clip480)" d="M352.657 1454.1 Q349.046 1454.1 347.217 1457.66 Q345.411 1461.2 345.411 1468.33 Q345.411 1475.44 347.217 1479.01 Q349.046 1482.55 352.657 1482.55 Q356.291 1482.55 358.096 1479.01 Q359.925 1475.44 359.925 1468.33 Q359.925 1461.2 358.096 1457.66 Q356.291 1454.1 352.657 1454.1 M352.657 1450.39 Q358.467 1450.39 361.522 1455 Q364.601 1459.58 364.601 1468.33 Q364.601 1477.06 361.522 1481.67 Q358.467 1486.25 352.657 1486.25 Q346.846 1486.25 343.768 1481.67 Q340.712 1477.06 340.712 1468.33 Q340.712 1459.58 343.768 1455 Q346.846 1450.39 352.657 1450.39 Z" fill="#000000" fill-rule="nonzero" fill-opacity="1" /><path clip-path="url(#clip480)" d="M772.372 1454.1 Q768.761 1454.1 766.932 1457.66 Q765.127 1461.2 765.127 1468.33 Q765.127 1475.44 766.932 1479.01 Q768.761 1482.55 772.372 1482.55 Q776.006 1482.55 777.812 1479.01 Q779.64 1475.44 779.64 1468.33 Q779.64 1461.2 777.812 1457.66 Q776.006 1454.1 772.372 1454.1 M772.372 1450.39 Q778.182 1450.39 781.238 1455 Q784.316 1459.58 784.316 1468.33 Q784.316 1477.06 781.238 1481.67 Q778.182 1486.25 772.372 1486.25 Q766.562 1486.25 763.483 1481.67 Q760.427 1477.06 760.427 1468.33 Q760.427 1459.58 763.483 1455 Q766.562 1450.39 772.372 1450.39 Z" fill="#000000" fill-rule="nonzero" fill-opacity="1" /><path clip-path="url(#clip480)" d="M792.534 1479.7 L797.418 1479.7 L797.418 1485.58 L792.534 1485.58 L792.534 1479.7 Z" fill="#000000" fill-rule="nonzero" fill-opacity="1" /><path clip-path="url(#clip480)" d="M811.631 1481.64 L827.95 1481.64 L827.95 1485.58 L806.006 1485.58 L806.006 1481.64 Q808.668 1478.89 813.251 1474.26 Q817.858 1469.61 819.038 1468.27 Q821.284 1465.74 822.163 1464.01 Q823.066 1462.25 823.066 1460.56 Q823.066 1457.8 821.122 1456.07 Q819.2 1454.33 816.098 1454.33 Q813.899 1454.33 811.446 1455.09 Q809.015 1455.86 806.237 1457.41 L806.237 1452.69 Q809.061 1451.55 811.515 1450.97 Q813.969 1450.39 816.006 1450.39 Q821.376 1450.39 824.571 1453.08 Q827.765 1455.77 827.765 1460.26 Q827.765 1462.39 826.955 1464.31 Q826.168 1466.2 824.061 1468.8 Q823.483 1469.47 820.381 1472.69 Q817.279 1475.88 811.631 1481.64 Z" fill="#000000" fill-rule="nonzero" fill-opacity="1" /><path clip-path="url(#clip480)" d="M837.811 1451.02 L856.168 1451.02 L856.168 1454.96 L842.094 1454.96 L842.094 1463.43 Q843.112 1463.08 844.131 1462.92 Q845.149 1462.73 846.168 1462.73 Q851.955 1462.73 855.334 1465.9 Q858.714 1469.08 858.714 1474.49 Q858.714 1480.07 855.242 1483.17 Q851.77 1486.25 845.45 1486.25 Q843.274 1486.25 841.006 1485.88 Q838.76 1485.51 836.353 1484.77 L836.353 1480.07 Q838.436 1481.2 840.659 1481.76 Q842.881 1482.32 845.358 1482.32 Q849.362 1482.32 851.7 1480.21 Q854.038 1478.1 854.038 1474.49 Q854.038 1470.88 851.7 1468.77 Q849.362 1466.67 845.358 1466.67 Q843.483 1466.67 841.608 1467.08 Q839.756 1467.5 837.811 1468.38 L837.811 1451.02 Z" fill="#000000" fill-rule="nonzero" fill-opacity="1" /><path clip-path="url(#clip480)" d="M1266.48 1454.1 Q1262.87 1454.1 1261.05 1457.66 Q1259.24 1461.2 1259.24 1468.33 Q1259.24 1475.44 1261.05 1479.01 Q1262.87 1482.55 1266.48 1482.55 Q1270.12 1482.55 1271.92 1479.01 Q1273.75 1475.44 1273.75 1468.33 Q1273.75 1461.2 1271.92 1457.66 Q1270.12 1454.1 1266.48 1454.1 M1266.48 1450.39 Q1272.29 1450.39 1275.35 1455 Q1278.43 1459.58 1278.43 1468.33 Q1278.43 1477.06 1275.35 1481.67 Q1272.29 1486.25 1266.48 1486.25 Q1260.67 1486.25 1257.6 1481.67 Q1254.54 1477.06 1254.54 1468.33 Q1254.54 1459.58 1257.6 1455 Q1260.67 1450.39 1266.48 1450.39 Z" fill="#000000" fill-rule="nonzero" fill-opacity="1" /><path clip-path="url(#clip480)" d="M1286.65 1479.7 L1291.53 1479.7 L1291.53 1485.58 L1286.65 1485.58 L1286.65 1479.7 Z" fill="#000000" fill-rule="nonzero" fill-opacity="1" /><path clip-path="url(#clip480)" d="M1301.76 1451.02 L1320.12 1451.02 L1320.12 1454.96 L1306.04 1454.96 L1306.04 1463.43 Q1307.06 1463.08 1308.08 1462.92 Q1309.1 1462.73 1310.12 1462.73 Q1315.91 1462.73 1319.29 1465.9 Q1322.67 1469.08 1322.67 1474.49 Q1322.67 1480.07 1319.19 1483.17 Q1315.72 1486.25 1309.4 1486.25 Q1307.23 1486.25 1304.96 1485.88 Q1302.71 1485.51 1300.3 1484.77 L1300.3 1480.07 Q1302.39 1481.2 1304.61 1481.76 Q1306.83 1482.32 1309.31 1482.32 Q1313.31 1482.32 1315.65 1480.21 Q1317.99 1478.1 1317.99 1474.49 Q1317.99 1470.88 1315.65 1468.77 Q1313.31 1466.67 1309.31 1466.67 Q1307.43 1466.67 1305.56 1467.08 Q1303.71 1467.5 1301.76 1468.38 L1301.76 1451.02 Z" fill="#000000" fill-rule="nonzero" fill-opacity="1" /><path clip-path="url(#clip480)" d="M1341.88 1454.1 Q1338.27 1454.1 1336.44 1457.66 Q1334.63 1461.2 1334.63 1468.33 Q1334.63 1475.44 1336.44 1479.01 Q1338.27 1482.55 1341.88 1482.55 Q1345.51 1482.55 1347.32 1479.01 Q1349.15 1475.44 1349.15 1468.33 Q1349.15 1461.2 1347.32 1457.66 Q1345.51 1454.1 1341.88 1454.1 M1341.88 1450.39 Q1347.69 1450.39 1350.74 1455 Q1353.82 1459.58 1353.82 1468.33 Q1353.82 1477.06 1350.74 1481.67 Q1347.69 1486.25 1341.88 1486.25 Q1336.07 1486.25 1332.99 1481.67 Q1329.93 1477.06 1329.93 1468.33 Q1329.93 1459.58 1332.99 1455 Q1336.07 1450.39 1341.88 1450.39 Z" fill="#000000" fill-rule="nonzero" fill-opacity="1" /><path clip-path="url(#clip480)" d="M1761.59 1454.1 Q1757.98 1454.1 1756.15 1457.66 Q1754.35 1461.2 1754.35 1468.33 Q1754.35 1475.44 1756.15 1479.01 Q1757.98 1482.55 1761.59 1482.55 Q1765.23 1482.55 1767.03 1479.01 Q1768.86 1475.44 1768.86 1468.33 Q1768.86 1461.2 1767.03 1457.66 Q1765.23 1454.1 1761.59 1454.1 M1761.59 1450.39 Q1767.4 1450.39 1770.46 1455 Q1773.54 1459.58 1773.54 1468.33 Q1773.54 1477.06 1770.46 1481.67 Q1767.4 1486.25 1761.59 1486.25 Q1755.78 1486.25 1752.7 1481.67 Q1749.65 1477.06 1749.65 1468.33 Q1749.65 1459.58 1752.7 1455 Q1755.78 1450.39 1761.59 1450.39 Z" fill="#000000" fill-rule="nonzero" fill-opacity="1" /><path clip-path="url(#clip480)" d="M1781.76 1479.7 L1786.64 1479.7 L1786.64 1485.58 L1781.76 1485.58 L1781.76 1479.7 Z" fill="#000000" fill-rule="nonzero" fill-opacity="1" /><path clip-path="url(#clip480)" d="M1795.64 1451.02 L1817.87 1451.02 L1817.87 1453.01 L1805.32 1485.58 L1800.44 1485.58 L1812.24 1454.96 L1795.64 1454.96 L1795.64 1451.02 Z" fill="#000000" fill-rule="nonzero" fill-opacity="1" /><path clip-path="url(#clip480)" d="M1827.03 1451.02 L1845.39 1451.02 L1845.39 1454.96 L1831.31 1454.96 L1831.31 1463.43 Q1832.33 1463.08 1833.35 1462.92 Q1834.37 1462.73 1835.39 1462.73 Q1841.18 1462.73 1844.56 1465.9 Q1847.94 1469.08 1847.94 1474.49 Q1847.94 1480.07 1844.46 1483.17 Q1840.99 1486.25 1834.67 1486.25 Q1832.5 1486.25 1830.23 1485.88 Q1827.98 1485.51 1825.57 1484.77 L1825.57 1480.07 Q1827.66 1481.2 1829.88 1481.76 Q1832.1 1482.32 1834.58 1482.32 Q1838.58 1482.32 1840.92 1480.21 Q1843.26 1478.1 1843.26 1474.49 Q1843.26 1470.88 1840.92 1468.77 Q1838.58 1466.67 1834.58 1466.67 Q1832.7 1466.67 1830.83 1467.08 Q1828.98 1467.5 1827.03 1468.38 L1827.03 1451.02 Z" fill="#000000" fill-rule="nonzero" fill-opacity="1" /><path clip-path="url(#clip480)" d="M2245.47 1481.64 L2253.11 1481.64 L2253.11 1455.28 L2244.8 1456.95 L2244.8 1452.69 L2253.07 1451.02 L2257.74 1451.02 L2257.74 1481.64 L2265.38 1481.64 L2265.38 1485.58 L2245.47 1485.58 L2245.47 1481.64 Z" fill="#000000" fill-rule="nonzero" fill-opacity="1" /><path clip-path="url(#clip480)" d="M2274.83 1479.7 L2279.71 1479.7 L2279.71 1485.58 L2274.83 1485.58 L2274.83 1479.7 Z" fill="#000000" fill-rule="nonzero" fill-opacity="1" /><path clip-path="url(#clip480)" d="M2299.9 1454.1 Q2296.28 1454.1 2294.46 1457.66 Q2292.65 1461.2 2292.65 1468.33 Q2292.65 1475.44 2294.46 1479.01 Q2296.28 1482.55 2299.9 1482.55 Q2303.53 1482.55 2305.34 1479.01 Q2307.16 1475.44 2307.16 1468.33 Q2307.16 1461.2 2305.34 1457.66 Q2303.53 1454.1 2299.9 1454.1 M2299.9 1450.39 Q2305.71 1450.39 2308.76 1455 Q2311.84 1459.58 2311.84 1468.33 Q2311.84 1477.06 2308.76 1481.67 Q2305.71 1486.25 2299.9 1486.25 Q2294.09 1486.25 2291.01 1481.67 Q2287.95 1477.06 2287.95 1468.33 Q2287.95 1459.58 2291.01 1455 Q2294.09 1450.39 2299.9 1450.39 Z" fill="#000000" fill-rule="nonzero" fill-opacity="1" /><path clip-path="url(#clip480)" d="M2330.06 1454.1 Q2326.45 1454.1 2324.62 1457.66 Q2322.81 1461.2 2322.81 1468.33 Q2322.81 1475.44 2324.62 1479.01 Q2326.45 1482.55 2330.06 1482.55 Q2333.69 1482.55 2335.5 1479.01 Q2337.33 1475.44 2337.33 1468.33 Q2337.33 1461.2 2335.5 1457.66 Q2333.69 1454.1 2330.06 1454.1 M2330.06 1450.39 Q2335.87 1450.39 2338.92 1455 Q2342 1459.58 2342 1468.33 Q2342 1477.06 2338.92 1481.67 Q2335.87 1486.25 2330.06 1486.25 Q2324.25 1486.25 2321.17 1481.67 Q2318.11 1477.06 2318.11 1468.33 Q2318.11 1459.58 2321.17 1455 Q2324.25 1450.39 2330.06 1450.39 Z" fill="#000000" fill-rule="nonzero" fill-opacity="1" /><path clip-path="url(#clip480)" d="M1312.65 1531.91 Q1312.65 1532.81 1312.23 1533.04 Q1311.82 1533.23 1310.66 1533.23 L1304.47 1533.23 L1299.58 1552.69 Q1299.19 1554.39 1299.19 1555.84 Q1299.19 1557.45 1299.67 1558.16 Q1300.19 1558.87 1301.25 1558.87 Q1303.34 1558.87 1305.6 1556.97 Q1307.89 1555.07 1309.82 1550.43 Q1310.08 1549.82 1310.2 1549.69 Q1310.37 1549.53 1310.78 1549.53 Q1311.59 1549.53 1311.59 1550.17 Q1311.59 1550.4 1311.14 1551.43 Q1310.72 1552.46 1309.79 1553.97 Q1308.88 1555.49 1307.69 1556.9 Q1306.53 1558.32 1304.76 1559.35 Q1302.99 1560.35 1301.09 1560.35 Q1298.42 1560.35 1296.71 1558.64 Q1295.04 1556.94 1295.04 1554.26 Q1295.04 1553.39 1295.71 1550.62 Q1296.39 1547.82 1300.06 1533.23 L1294.23 1533.23 Q1293.43 1533.23 1293.1 1533.2 Q1292.81 1533.17 1292.59 1533.01 Q1292.39 1532.81 1292.39 1532.43 Q1292.39 1531.82 1292.65 1531.56 Q1292.91 1531.27 1293.23 1531.24 Q1293.59 1531.17 1294.39 1531.17 L1300.58 1531.17 L1303.15 1520.71 Q1303.41 1519.67 1304.05 1519.09 Q1304.73 1518.48 1305.12 1518.42 Q1305.5 1518.32 1305.79 1518.32 Q1306.66 1518.32 1307.18 1518.81 Q1307.69 1519.26 1307.69 1520.09 Q1307.69 1520.54 1304.99 1531.17 L1310.78 1531.17 Q1311.53 1531.17 1311.82 1531.2 Q1312.14 1531.24 1312.39 1531.4 Q1312.65 1531.56 1312.65 1531.91 Z" fill="#000000" fill-rule="nonzero" fill-opacity="1" /><polyline clip-path="url(#clip480)" style="stroke:#000000; stroke-linecap:round; stroke-linejoin:round; stroke-width:4; stroke-opacity:1; fill:none" points="255.607,1423.18 255.607,47.2441 "/>
<polyline clip-path="url(#clip480)" style="stroke:#000000; stroke-linecap:round; stroke-linejoin:round; stroke-width:4; stroke-opacity:1; fill:none" points="255.607,1185.03 274.504,1185.03 "/>
<polyline clip-path="url(#clip480)" style="stroke:#000000; stroke-linecap:round; stroke-linejoin:round; stroke-width:4; stroke-opacity:1; fill:none" points="255.607,827.091 274.504,827.091 "/>
<polyline clip-path="url(#clip480)" style="stroke:#000000; stroke-linecap:round; stroke-linejoin:round; stroke-width:4; stroke-opacity:1; fill:none" points="255.607,469.149 274.504,469.149 "/>
<polyline clip-path="url(#clip480)" style="stroke:#000000; stroke-linecap:round; stroke-linejoin:round; stroke-width:4; stroke-opacity:1; fill:none" points="255.607,111.208 274.504,111.208 "/>
<path clip-path="url(#clip480)" d="M114.26 1185.48 L143.936 1185.48 L143.936 1189.42 L114.26 1189.42 L114.26 1185.48 Z" fill="#000000" fill-rule="nonzero" fill-opacity="1" /><path clip-path="url(#clip480)" d="M164.028 1170.83 Q160.417 1170.83 158.589 1174.4 Q156.783 1177.94 156.783 1185.07 Q156.783 1192.17 158.589 1195.74 Q160.417 1199.28 164.028 1199.28 Q167.663 1199.28 169.468 1195.74 Q171.297 1192.17 171.297 1185.07 Q171.297 1177.94 169.468 1174.4 Q167.663 1170.83 164.028 1170.83 M164.028 1167.13 Q169.839 1167.13 172.894 1171.73 Q175.973 1176.32 175.973 1185.07 Q175.973 1193.79 172.894 1198.4 Q169.839 1202.98 164.028 1202.98 Q158.218 1202.98 155.14 1198.4 Q152.084 1193.79 152.084 1185.07 Q152.084 1176.32 155.14 1171.73 Q158.218 1167.13 164.028 1167.13 Z" fill="#000000" fill-rule="nonzero" fill-opacity="1" /><path clip-path="url(#clip480)" d="M184.19 1196.43 L189.075 1196.43 L189.075 1202.31 L184.19 1202.31 L184.19 1196.43 Z" fill="#000000" fill-rule="nonzero" fill-opacity="1" /><path clip-path="url(#clip480)" d="M203.287 1198.38 L219.607 1198.38 L219.607 1202.31 L197.662 1202.31 L197.662 1198.38 Q200.325 1195.62 204.908 1190.99 Q209.514 1186.34 210.695 1185 Q212.94 1182.47 213.82 1180.74 Q214.723 1178.98 214.723 1177.29 Q214.723 1174.53 212.778 1172.8 Q210.857 1171.06 207.755 1171.06 Q205.556 1171.06 203.102 1171.83 Q200.672 1172.59 197.894 1174.14 L197.894 1169.42 Q200.718 1168.28 203.172 1167.71 Q205.625 1167.13 207.662 1167.13 Q213.033 1167.13 216.227 1169.81 Q219.422 1172.5 219.422 1176.99 Q219.422 1179.12 218.611 1181.04 Q217.824 1182.94 215.718 1185.53 Q215.139 1186.2 212.037 1189.42 Q208.936 1192.61 203.287 1198.38 Z" fill="#000000" fill-rule="nonzero" fill-opacity="1" /><path clip-path="url(#clip480)" d="M162.431 812.889 Q158.82 812.889 156.991 816.454 Q155.186 819.996 155.186 827.125 Q155.186 834.232 156.991 837.797 Q158.82 841.338 162.431 841.338 Q166.065 841.338 167.871 837.797 Q169.7 834.232 169.7 827.125 Q169.7 819.996 167.871 816.454 Q166.065 812.889 162.431 812.889 M162.431 809.186 Q168.241 809.186 171.297 813.792 Q174.376 818.375 174.376 827.125 Q174.376 835.852 171.297 840.459 Q168.241 845.042 162.431 845.042 Q156.621 845.042 153.542 840.459 Q150.487 835.852 150.487 827.125 Q150.487 818.375 153.542 813.792 Q156.621 809.186 162.431 809.186 Z" fill="#000000" fill-rule="nonzero" fill-opacity="1" /><path clip-path="url(#clip480)" d="M182.593 838.491 L187.477 838.491 L187.477 844.371 L182.593 844.371 L182.593 838.491 Z" fill="#000000" fill-rule="nonzero" fill-opacity="1" /><path clip-path="url(#clip480)" d="M207.662 812.889 Q204.051 812.889 202.223 816.454 Q200.417 819.996 200.417 827.125 Q200.417 834.232 202.223 837.797 Q204.051 841.338 207.662 841.338 Q211.297 841.338 213.102 837.797 Q214.931 834.232 214.931 827.125 Q214.931 819.996 213.102 816.454 Q211.297 812.889 207.662 812.889 M207.662 809.186 Q213.473 809.186 216.528 813.792 Q219.607 818.375 219.607 827.125 Q219.607 835.852 216.528 840.459 Q213.473 845.042 207.662 845.042 Q201.852 845.042 198.774 840.459 Q195.718 835.852 195.718 827.125 Q195.718 818.375 198.774 813.792 Q201.852 809.186 207.662 809.186 Z" fill="#000000" fill-rule="nonzero" fill-opacity="1" /><path clip-path="url(#clip480)" d="M164.028 454.948 Q160.417 454.948 158.589 458.513 Q156.783 462.054 156.783 469.184 Q156.783 476.29 158.589 479.855 Q160.417 483.397 164.028 483.397 Q167.663 483.397 169.468 479.855 Q171.297 476.29 171.297 469.184 Q171.297 462.054 169.468 458.513 Q167.663 454.948 164.028 454.948 M164.028 451.244 Q169.839 451.244 172.894 455.851 Q175.973 460.434 175.973 469.184 Q175.973 477.911 172.894 482.517 Q169.839 487.1 164.028 487.1 Q158.218 487.1 155.14 482.517 Q152.084 477.911 152.084 469.184 Q152.084 460.434 155.14 455.851 Q158.218 451.244 164.028 451.244 Z" fill="#000000" fill-rule="nonzero" fill-opacity="1" /><path clip-path="url(#clip480)" d="M184.19 480.55 L189.075 480.55 L189.075 486.429 L184.19 486.429 L184.19 480.55 Z" fill="#000000" fill-rule="nonzero" fill-opacity="1" /><path clip-path="url(#clip480)" d="M203.287 482.494 L219.607 482.494 L219.607 486.429 L197.662 486.429 L197.662 482.494 Q200.325 479.739 204.908 475.11 Q209.514 470.457 210.695 469.114 Q212.94 466.591 213.82 464.855 Q214.723 463.096 214.723 461.406 Q214.723 458.652 212.778 456.915 Q210.857 455.179 207.755 455.179 Q205.556 455.179 203.102 455.943 Q200.672 456.707 197.894 458.258 L197.894 453.536 Q200.718 452.402 203.172 451.823 Q205.625 451.244 207.662 451.244 Q213.033 451.244 216.227 453.929 Q219.422 456.615 219.422 461.105 Q219.422 463.235 218.611 465.156 Q217.824 467.054 215.718 469.647 Q215.139 470.318 212.037 473.536 Q208.936 476.73 203.287 482.494 Z" fill="#000000" fill-rule="nonzero" fill-opacity="1" /><path clip-path="url(#clip480)" d="M161.945 97.0064 Q158.334 97.0064 156.505 100.571 Q154.7 104.113 154.7 111.242 Q154.7 118.349 156.505 121.914 Q158.334 125.455 161.945 125.455 Q165.579 125.455 167.385 121.914 Q169.214 118.349 169.214 111.242 Q169.214 104.113 167.385 100.571 Q165.579 97.0064 161.945 97.0064 M161.945 93.3027 Q167.755 93.3027 170.811 97.9092 Q173.889 102.493 173.889 111.242 Q173.889 119.969 170.811 124.576 Q167.755 129.159 161.945 129.159 Q156.135 129.159 153.056 124.576 Q150.001 119.969 150.001 111.242 Q150.001 102.493 153.056 97.9092 Q156.135 93.3027 161.945 93.3027 Z" fill="#000000" fill-rule="nonzero" fill-opacity="1" /><path clip-path="url(#clip480)" d="M182.107 122.608 L186.991 122.608 L186.991 128.488 L182.107 128.488 L182.107 122.608 Z" fill="#000000" fill-rule="nonzero" fill-opacity="1" /><path clip-path="url(#clip480)" d="M210.024 98.0018 L198.218 116.451 L210.024 116.451 L210.024 98.0018 M208.797 93.9277 L214.676 93.9277 L214.676 116.451 L219.607 116.451 L219.607 120.34 L214.676 120.34 L214.676 128.488 L210.024 128.488 L210.024 120.34 L194.422 120.34 L194.422 115.826 L208.797 93.9277 Z" fill="#000000" fill-rule="nonzero" fill-opacity="1" /><path clip-path="url(#clip480)" d="M30.8561 720.775 Q31.307 720.775 32.3698 721.064 L57.5548 727.377 Q63.1586 728.762 67.0877 733.27 Q71.0168 737.747 71.0168 742.836 Q71.0168 745.895 69.3743 747.86 Q67.764 749.824 65.2842 749.824 Q63.0942 749.824 62.0314 748.665 Q61.0008 747.505 61.0008 746.121 Q61.0008 745.67 61.1296 745.187 Q61.2584 744.703 61.8059 744.188 Q62.3534 743.673 63.2874 743.673 Q64.8011 743.673 65.9927 744.993 Q66.5402 745.637 66.669 746.249 Q66.7978 746.829 66.7978 747.827 Q67.6996 747.441 68.3115 746.732 Q68.9234 746.024 69.1489 745.219 Q69.4065 744.414 69.4709 743.898 Q69.5675 743.351 69.5675 742.836 Q69.5675 738.713 65.413 735.557 Q64.157 734.623 62.9009 733.947 Q61.6771 733.238 60.1634 732.723 Q58.682 732.208 57.8768 731.982 Q57.0717 731.725 55.2359 731.274 Q58.2311 734.269 58.2311 737.94 Q58.2311 739.486 57.8124 740.871 Q57.3937 742.224 56.5242 743.415 Q55.6224 744.607 54.0443 745.315 Q52.4662 745.992 50.3728 745.992 Q48.1506 745.992 45.1233 745.122 Q42.0959 744.253 36.5243 742.159 Q33.4004 741.032 31.8867 741.032 Q31.146 741.032 30.6951 741.193 Q30.212 741.354 30.051 741.676 Q29.8577 741.998 29.8255 742.191 Q29.7933 742.352 29.7933 742.675 Q29.7933 744.575 31.7257 746.346 Q33.658 748.117 37.9736 749.341 Q38.7787 749.599 38.972 749.76 Q39.1652 749.921 39.1652 750.404 Q39.133 751.209 38.4889 751.209 Q38.2312 751.209 37.2329 750.919 Q36.2023 750.629 34.6886 749.953 Q33.1427 749.245 31.7579 748.278 Q30.3408 747.312 29.3424 745.798 Q28.344 744.253 28.344 742.481 Q28.344 740.066 29.9221 738.584 Q31.468 737.071 33.7546 737.071 Q34.6886 737.071 35.5259 737.328 Q36.3311 737.554 38.4889 738.391 Q47.1845 741.773 51.4356 741.773 Q52.4662 741.773 53.3358 741.612 Q54.1731 741.418 55.0105 741 Q55.8156 740.581 56.2987 739.744 Q56.7496 738.874 56.7496 737.683 Q56.7496 736.169 56.0411 734.752 Q55.3003 733.303 54.302 732.401 Q53.3036 731.467 52.4662 730.919 Q51.5967 730.34 51.1458 730.211 L39.294 727.248 L34.0123 725.927 Q31.146 725.316 30.4374 725.026 Q29.7611 724.639 29.4068 723.963 Q29.0526 723.287 29.0526 722.707 Q29.0526 721.902 29.5357 721.354 Q30.0187 720.775 30.8561 720.775 Z" fill="#000000" fill-rule="nonzero" fill-opacity="1" /><polyline clip-path="url(#clip482)" style="stroke:#ff7e0d; stroke-linecap:round; stroke-linejoin:round; stroke-width:8; stroke-opacity:1; fill:none" stroke-dasharray="32, 20" points="314.96,827.091 318.824,772.747 322.688,757.415 326.553,880.492 330.417,901.206 334.281,755.019 338.145,596.472 342.009,569.091 345.873,515.776 349.737,531.21 353.602,620.871 357.466,720.67 361.33,690.534 365.194,665.923 369.058,958.174 372.922,906.94 376.786,947.979 380.651,868.61 384.515,973.483 388.379,899.404 392.243,871.947 396.107,877.213 399.971,887.81 403.835,822.047 407.7,838.708 411.564,741.744 415.428,743.152 419.292,631.677 423.156,532.472 427.02,650.718 430.884,735.843 434.749,749.271 438.613,763.491 442.477,747.855 446.341,674.191 450.205,720.348 454.069,591.067 457.933,667.874 461.798,630.583 465.662,706.129 469.526,673.858 473.39,708.106 477.254,748.552 481.118,732.305 484.982,628.199 488.847,814.393 492.711,783.97 496.575,772.627 500.439,716.104 504.303,760.852 508.167,629.079 512.032,477.812 515.896,576.994 519.76,628.628 523.624,546.288 527.488,654.509 531.352,683.365 535.216,719.15 539.081,669.246 542.945,785.624 546.809,743.242 550.673,740.527 554.537,645.161 558.401,753.568 562.265,704.236 566.13,718.825 569.994,568.1 573.858,540.518 577.722,503.987 581.586,473.725 585.45,394.843 589.314,499.399 593.179,473.134 597.043,437.17 600.907,544.739 604.771,576.166 608.635,684.563 612.499,707.193 616.363,710.944 620.228,573.403 624.092,640.753 627.956,672.101 631.82,596.374 635.684,642.278 639.548,658.758 643.412,637.429 647.277,707.764 651.141,763.64 655.005,731.275 658.869,677.051 662.733,665.431 666.597,587.941 670.461,645.224 674.326,483.358 678.19,550.606 682.054,566.354 685.918,569.471 689.782,520.442 693.646,664.839 697.511,719.095 701.375,920.052 705.239,906.505 709.103,940.515 712.967,978.273 716.831,1052.47 720.695,1074.51 724.56,1104.11 728.424,1041.76 732.288,1140.72 736.152,1110.01 740.016,983.542 743.88,1001.22 747.744,957.585 751.609,1005.68 755.473,1008.97 759.337,1017.14 763.201,929.289 767.065,882.356 770.929,938.587 774.793,938.444 778.658,873.609 782.522,808.103 786.386,762.573 790.25,734.148 794.114,775.062 797.978,751.04 801.842,732.521 805.707,636.301 809.571,712.967 813.435,763.887 817.299,763.38 821.163,750.059 825.027,678.822 828.891,614.335 832.756,555.095 836.62,441.303 840.484,428.398 844.348,442.399 848.212,412.724 852.076,602.726 855.94,591.63 859.805,588.494 863.669,612.16 867.533,570.763 871.397,534.021 875.261,530.375 879.125,604.529 882.989,637.021 886.854,512.895 890.718,385.719 894.582,276.093 898.446,342.067 902.31,373.14 906.174,428.664 910.039,414.141 913.903,404.937 917.767,452.931 921.631,460.188 925.495,502.917 929.359,468.825 933.223,468.74 937.088,444.094 940.952,499.36 944.816,599.383 948.68,542.963 952.544,650.714 956.408,660.463 960.272,708.858 964.137,640.283 968.001,758.425 971.865,774.467 975.729,824.438 979.593,716.925 983.457,714.894 987.321,556.055 991.186,503.063 995.05,456.572 998.914,398.772 1002.78,514.926 1006.64,532.759 1010.51,580.199 1014.37,708.041 1018.23,700.416 1022.1,746.845 1025.96,821.144 1029.83,862.268 1033.69,888.366 1037.56,975.482 1041.42,904.852 1045.28,688.373 1049.15,770.504 1053.01,795.152 1056.88,626.714 1060.74,655.9 1064.6,623.952 1068.47,549.551 1072.33,683.552 1076.2,700.256 1080.06,677.219 1083.93,693.937 1087.79,730.049 1091.65,586.766 1095.52,634.595 1099.38,673.455 1103.25,783.169 1107.11,620.086 1110.97,654.786 1114.84,709.065 1118.7,633.406 1122.57,679.032 1126.43,708.355 1130.29,674.985 1134.16,804.491 1138.02,806.35 1141.89,772.89 1145.75,810.993 1149.62,793.071 1153.48,703.947 1157.34,670.116 1161.21,760.947 1165.07,805.303 1168.94,800.258 1172.8,796.909 1176.66,850.282 1180.53,707.104 1184.39,757.322 1188.26,538.286 1192.12,546.61 1195.99,660.192 1199.85,765.585 1203.71,617.634 1207.58,546.275 1211.44,494.779 1215.31,425.523 1219.17,475.807 1223.03,443.209 1226.9,426.671 1230.76,186.784 1234.63,114.261 1238.49,140.774 1242.36,171.856 1246.22,105.46 1250.08,176.735 1253.95,168.104 1257.81,155.274 1261.68,129.5 1265.54,229.689 1269.4,358.678 1273.27,308.746 1277.13,325.71 1281,339.361 1284.86,238.331 1288.72,221.927 1292.59,230.498 1296.45,308.896 1300.32,333.772 1304.18,410.881 1308.05,442.587 1311.91,493.68 1315.77,532.995 1319.64,494.881 1323.5,417.984 1327.37,389.923 1331.23,333.05 1335.09,383.868 1338.96,423.75 1342.82,584.618 1346.69,552.064 1350.55,539.6 1354.42,469.135 1358.28,501.109 1362.14,486.023 1366.01,568.054 1369.87,524.637 1373.74,435.019 1377.6,519.78 1381.46,524.885 1385.33,403.022 1389.19,460.465 1393.06,437.285 1396.92,525.835 1400.78,520.089 1404.65,680.887 1408.51,655.128 1412.38,712.188 1416.24,848.274 1420.11,895.591 1423.97,885.256 1427.83,989.522 1431.7,754.366 1435.56,601.291 1439.43,615.196 1443.29,609.491 1447.15,687.233 1451.02,734.395 1454.88,608.949 1458.75,502.84 1462.61,370.212 1466.48,421.075 1470.34,277.057 1474.2,362.388 1478.07,318.663 1481.93,249.77 1485.8,256.569 1489.66,248.551 1493.52,201.906 1497.39,318.651 1501.25,411.906 1505.12,417.248 1508.98,449.691 1512.85,555.749 1516.71,456.773 1520.57,299.072 1524.44,323.622 1528.3,286.99 1532.17,433.874 1536.03,372.108 1539.89,320.688 1543.76,402.333 1547.62,322.646 1551.49,354.549 1555.35,449.203 1559.21,457.662 1563.08,469.471 1566.94,567.418 1570.81,431.796 1574.67,407.434 1578.54,384.199 1582.4,307.232 1586.26,380.578 1590.13,412.714 1593.99,478.74 1597.86,381.215 1601.72,298.612 1605.58,363.614 1609.45,395.685 1613.31,395.211 1617.18,390.719 1621.04,462.696 1624.91,365.384 1628.77,292.145 1632.63,173.287 1636.5,86.1857 1640.36,239.651 1644.23,246.559 1648.09,284.531 1651.95,376.469 1655.82,423.459 1659.68,301.543 1663.55,438.293 1667.41,434.956 1671.28,412.343 1675.14,548.282 1679,564.601 1682.87,427.584 1686.73,461.638 1690.6,465.162 1694.46,483.575 1698.32,405.789 1702.19,366.099 1706.05,569.425 1709.92,667.469 1713.78,497.645 1717.64,555.915 1721.51,663.798 1725.37,686.669 1729.24,695.841 1733.1,680.489 1736.97,832.849 1740.83,906.744 1744.69,983.031 1748.56,1031.43 1752.42,965.353 1756.29,972.899 1760.15,870.839 1764.01,957.359 1767.88,1000.88 1771.74,1106.91 1775.61,1051.37 1779.47,1027.15 1783.34,1084.69 1787.2,1134.22 1791.06,1054.43 1794.93,1060.21 1798.79,1096.27 1802.66,1097.14 1806.52,1030.91 1810.38,1094.9 1814.25,1032.56 1818.11,1012.44 1821.98,905.442 1825.84,1030.05 1829.71,1035.53 1833.57,1016.5 1837.43,1008.49 1841.3,977.31 1845.16,1105.74 1849.03,969.027 1852.89,913.095 1856.75,891.79 1860.62,847.403 1864.48,917.572 1868.35,807.034 1872.21,896.429 1876.07,823.138 1879.94,1029.41 1883.8,1087.96 1887.67,1193.03 1891.53,1170.75 1895.4,1211.73 1899.26,1267.18 1903.12,1240.88 1906.99,1229.98 1910.85,1313.9 1914.72,1384.24 1918.58,1369.97 1922.44,1318.76 1926.31,1236.75 1930.17,1225.24 1934.04,1210.56 1937.9,1231.11 1941.77,1290.53 1945.63,1211.57 1949.49,1175.9 1953.36,1159.31 1957.22,1006.45 1961.09,1014.02 1964.95,1012.53 1968.81,944.772 1972.68,917.039 1976.54,931.474 1980.41,803.722 1984.27,712.318 1988.14,705.941 1992,667.569 1995.86,703.809 1999.73,763.708 2003.59,977.417 2007.46,973.078 2011.32,1011.3 2015.18,966.153 2019.05,976.879 2022.91,936.168 2026.78,992.982 2030.64,866.794 2034.5,730.724 2038.37,777.798 2042.23,619.617 2046.1,506.674 2049.96,654.016 2053.83,668.213 2057.69,746.108 2061.55,785.567 2065.42,688.186 2069.28,683.959 2073.15,675.894 2077.01,734.824 2080.87,843.516 2084.74,861.908 2088.6,884.705 2092.47,774.826 2096.33,830.242 2100.2,754.123 2104.06,822.044 2107.92,813.795 2111.79,810.416 2115.65,724.922 2119.52,691.548 2123.38,758.605 2127.24,688.207 2131.11,680.159 2134.97,513.154 2138.84,759.851 2142.7,786.164 2146.57,801.438 2150.43,702.076 2154.29,581.363 2158.16,485.823 2162.02,479.457 2165.89,373.689 2169.75,398.572 2173.61,466.78 2177.48,551.868 2181.34,530.879 2185.21,612.796 2189.07,705.323 2192.93,754.544 2196.8,666.298 2200.66,733.307 2204.53,708.597 2208.39,903.601 2212.26,891.659 2216.12,788.646 2219.98,636.186 2223.85,660.714 2227.71,676.139 2231.58,647.423 2235.44,669.857 2239.3,673.506 2243.17,704.362 2247.03,708.592 2250.9,748.864 2254.76,688.468 2258.63,644.154 2262.49,615.071 2266.35,681.061 2270.22,662.454 2274.08,744.942 2277.95,647.647 2281.81,622.818 2285.67,616.353 2289.54,627.564 2293.4,590.7 "/>
<path clip-path="url(#clip480)" d="M325.512 196.789 L839.16 196.789 L839.16 93.1086 L325.512 93.1086  Z" fill="#ffffff" fill-rule="evenodd" fill-opacity="1"/>
<polyline clip-path="url(#clip480)" style="stroke:#000000; stroke-linecap:round; stroke-linejoin:round; stroke-width:4; stroke-opacity:1; fill:none" points="325.512,196.789 839.16,196.789 839.16,93.1086 325.512,93.1086 325.512,196.789 "/>
<polyline clip-path="url(#clip480)" style="stroke:#ff7e0d; stroke-linecap:round; stroke-linejoin:round; stroke-width:8; stroke-opacity:1; fill:none" stroke-dasharray="32, 20" points="348.813,144.949 488.623,144.949 "/>
<path clip-path="url(#clip480)" d="M511.925 127.669 L516.647 127.669 L523.916 156.881 L531.161 127.669 L536.416 127.669 L543.684 156.881 L550.929 127.669 L555.675 127.669 L546.994 162.229 L541.115 162.229 L533.823 132.229 L526.462 162.229 L520.582 162.229 L511.925 127.669 Z" fill="#000000" fill-rule="nonzero" fill-opacity="1" /><path clip-path="url(#clip480)" d="M560.652 136.303 L564.911 136.303 L564.911 162.229 L560.652 162.229 L560.652 136.303 M560.652 126.21 L564.911 126.21 L564.911 131.604 L560.652 131.604 L560.652 126.21 Z" fill="#000000" fill-rule="nonzero" fill-opacity="1" /><path clip-path="url(#clip480)" d="M595.999 148.201 L595.999 150.284 L576.415 150.284 Q576.693 154.682 579.054 156.997 Q581.439 159.289 585.675 159.289 Q588.128 159.289 590.42 158.687 Q592.735 158.085 595.003 156.881 L595.003 160.909 Q592.712 161.881 590.304 162.391 Q587.897 162.9 585.42 162.9 Q579.216 162.9 575.582 159.289 Q571.971 155.678 571.971 149.52 Q571.971 143.155 575.397 139.428 Q578.846 135.678 584.679 135.678 Q589.911 135.678 592.943 139.057 Q595.999 142.414 595.999 148.201 M591.739 146.951 Q591.693 143.456 589.772 141.372 Q587.874 139.289 584.726 139.289 Q581.161 139.289 579.008 141.303 Q576.878 143.317 576.554 146.974 L591.739 146.951 Z" fill="#000000" fill-rule="nonzero" fill-opacity="1" /><path clip-path="url(#clip480)" d="M624.54 146.581 L624.54 162.229 L620.281 162.229 L620.281 146.719 Q620.281 143.039 618.846 141.21 Q617.411 139.382 614.54 139.382 Q611.091 139.382 609.1 141.581 Q607.11 143.78 607.11 147.576 L607.11 162.229 L602.827 162.229 L602.827 136.303 L607.11 136.303 L607.11 140.331 Q608.637 137.993 610.698 136.835 Q612.781 135.678 615.489 135.678 Q619.957 135.678 622.249 138.456 Q624.54 141.21 624.54 146.581 Z" fill="#000000" fill-rule="nonzero" fill-opacity="1" /><path clip-path="url(#clip480)" d="M655.211 148.201 L655.211 150.284 L635.628 150.284 Q635.906 154.682 638.267 156.997 Q640.651 159.289 644.887 159.289 Q647.341 159.289 649.633 158.687 Q651.947 158.085 654.216 156.881 L654.216 160.909 Q651.924 161.881 649.517 162.391 Q647.109 162.9 644.633 162.9 Q638.429 162.9 634.795 159.289 Q631.184 155.678 631.184 149.52 Q631.184 143.155 634.61 139.428 Q638.059 135.678 643.892 135.678 Q649.123 135.678 652.156 139.057 Q655.211 142.414 655.211 148.201 M650.952 146.951 Q650.906 143.456 648.984 141.372 Q647.086 139.289 643.938 139.289 Q640.373 139.289 638.221 141.303 Q636.091 143.317 635.767 146.974 L650.952 146.951 Z" fill="#000000" fill-rule="nonzero" fill-opacity="1" /><path clip-path="url(#clip480)" d="M677.225 140.284 Q676.507 139.868 675.651 139.682 Q674.818 139.474 673.799 139.474 Q670.188 139.474 668.244 141.835 Q666.322 144.173 666.322 148.571 L666.322 162.229 L662.04 162.229 L662.04 136.303 L666.322 136.303 L666.322 140.331 Q667.665 137.969 669.818 136.835 Q671.97 135.678 675.049 135.678 Q675.489 135.678 676.021 135.747 Q676.554 135.794 677.202 135.909 L677.225 140.284 Z" fill="#000000" fill-rule="nonzero" fill-opacity="1" /><path clip-path="url(#clip480)" d="M718.313 146.581 L718.313 162.229 L714.054 162.229 L714.054 146.719 Q714.054 143.039 712.618 141.21 Q711.183 139.382 708.313 139.382 Q704.864 139.382 702.873 141.581 Q700.882 143.78 700.882 147.576 L700.882 162.229 L696.6 162.229 L696.6 136.303 L700.882 136.303 L700.882 140.331 Q702.41 137.993 704.47 136.835 Q706.554 135.678 709.262 135.678 Q713.73 135.678 716.021 138.456 Q718.313 141.21 718.313 146.581 Z" fill="#000000" fill-rule="nonzero" fill-opacity="1" /><path clip-path="url(#clip480)" d="M736.854 139.289 Q733.428 139.289 731.438 141.974 Q729.447 144.636 729.447 149.289 Q729.447 153.942 731.415 156.627 Q733.405 159.289 736.854 159.289 Q740.257 159.289 742.248 156.604 Q744.239 153.918 744.239 149.289 Q744.239 144.682 742.248 141.997 Q740.257 139.289 736.854 139.289 M736.854 135.678 Q742.41 135.678 745.581 139.289 Q748.752 142.9 748.752 149.289 Q748.752 155.655 745.581 159.289 Q742.41 162.9 736.854 162.9 Q731.276 162.9 728.104 159.289 Q724.956 155.655 724.956 149.289 Q724.956 142.9 728.104 139.289 Q731.276 135.678 736.854 135.678 Z" fill="#000000" fill-rule="nonzero" fill-opacity="1" /><path clip-path="url(#clip480)" d="M755.813 136.303 L760.072 136.303 L760.072 162.229 L755.813 162.229 L755.813 136.303 M755.813 126.21 L760.072 126.21 L760.072 131.604 L755.813 131.604 L755.813 126.21 Z" fill="#000000" fill-rule="nonzero" fill-opacity="1" /><path clip-path="url(#clip480)" d="M785.512 137.067 L785.512 141.094 Q783.706 140.169 781.762 139.706 Q779.817 139.243 777.734 139.243 Q774.563 139.243 772.965 140.215 Q771.391 141.187 771.391 143.131 Q771.391 144.613 772.525 145.469 Q773.66 146.303 777.086 147.067 L778.544 147.391 Q783.081 148.363 784.979 150.145 Q786.9 151.905 786.9 155.076 Q786.9 158.687 784.03 160.793 Q781.183 162.9 776.183 162.9 Q774.1 162.9 771.831 162.483 Q769.586 162.09 767.086 161.28 L767.086 156.881 Q769.447 158.108 771.738 158.733 Q774.03 159.335 776.275 159.335 Q779.285 159.335 780.905 158.317 Q782.525 157.275 782.525 155.4 Q782.525 153.664 781.345 152.738 Q780.187 151.812 776.229 150.956 L774.748 150.608 Q770.789 149.775 769.03 148.062 Q767.271 146.326 767.271 143.317 Q767.271 139.659 769.863 137.669 Q772.456 135.678 777.225 135.678 Q779.586 135.678 781.669 136.025 Q783.752 136.372 785.512 137.067 Z" fill="#000000" fill-rule="nonzero" fill-opacity="1" /><path clip-path="url(#clip480)" d="M815.859 148.201 L815.859 150.284 L796.275 150.284 Q796.553 154.682 798.914 156.997 Q801.298 159.289 805.535 159.289 Q807.988 159.289 810.28 158.687 Q812.595 158.085 814.863 156.881 L814.863 160.909 Q812.572 161.881 810.164 162.391 Q807.757 162.9 805.28 162.9 Q799.076 162.9 795.442 159.289 Q791.831 155.678 791.831 149.52 Q791.831 143.155 795.257 139.428 Q798.706 135.678 804.539 135.678 Q809.771 135.678 812.803 139.057 Q815.859 142.414 815.859 148.201 M811.599 146.951 Q811.553 143.456 809.632 141.372 Q807.734 139.289 804.586 139.289 Q801.021 139.289 798.868 141.303 Q796.738 143.317 796.414 146.974 L811.599 146.951 Z" fill="#000000" fill-rule="nonzero" fill-opacity="1" /></svg>
