<?xml version="1.0" encoding="utf-8"?>
<svg xmlns="http://www.w3.org/2000/svg" xmlns:xlink="http://www.w3.org/1999/xlink" width="600" height="400" viewBox="0 0 2400 1600">
<defs>
  <clipPath id="clip600">
    <rect x="0" y="0" width="2400" height="1600"/>
  </clipPath>
</defs>
<path clip-path="url(#clip600)" d="M0 1600 L2400 1600 L2400 0 L0 0  Z" fill="#ffffff" fill-rule="evenodd" fill-opacity="1"/>
<defs>
  <clipPath id="clip601">
    <rect x="480" y="0" width="1681" height="1600"/>
  </clipPath>
</defs>
<path clip-path="url(#clip600)" d="M287.366 1423.18 L2352.76 1423.18 L2352.76 47.2441 L287.366 47.2441  Z" fill="#ffffff" fill-rule="evenodd" fill-opacity="1"/>
<defs>
  <clipPath id="clip602">
    <rect x="287" y="47" width="2066" height="1377"/>
  </clipPath>
</defs>
<polyline clip-path="url(#clip602)" style="stroke:#000000; stroke-linecap:round; stroke-linejoin:round; stroke-width:2; stroke-opacity:0.1; fill:none" points="345.82,1423.18 345.82,47.2441 "/>
<polyline clip-path="url(#clip602)" style="stroke:#000000; stroke-linecap:round; stroke-linejoin:round; stroke-width:2; stroke-opacity:0.1; fill:none" points="832.941,1423.18 832.941,47.2441 "/>
<polyline clip-path="url(#clip602)" style="stroke:#000000; stroke-linecap:round; stroke-linejoin:round; stroke-width:2; stroke-opacity:0.1; fill:none" points="1320.06,1423.18 1320.06,47.2441 "/>
<polyline clip-path="url(#clip602)" style="stroke:#000000; stroke-linecap:round; stroke-linejoin:round; stroke-width:2; stroke-opacity:0.1; fill:none" points="1807.18,1423.18 1807.18,47.2441 "/>
<polyline clip-path="url(#clip602)" style="stroke:#000000; stroke-linecap:round; stroke-linejoin:round; stroke-width:2; stroke-opacity:0.1; fill:none" points="2294.3,1423.18 2294.3,47.2441 "/>
<polyline clip-path="url(#clip600)" style="stroke:#000000; stroke-linecap:round; stroke-linejoin:round; stroke-width:4; stroke-opacity:1; fill:none" points="287.366,1423.18 2352.76,1423.18 "/>
<polyline clip-path="url(#clip600)" style="stroke:#000000; stroke-linecap:round; stroke-linejoin:round; stroke-width:4; stroke-opacity:1; fill:none" points="345.82,1423.18 345.82,1404.28 "/>
<polyline clip-path="url(#clip600)" style="stroke:#000000; stroke-linecap:round; stroke-linejoin:round; stroke-width:4; stroke-opacity:1; fill:none" points="832.941,1423.18 832.941,1404.28 "/>
<polyline clip-path="url(#clip600)" style="stroke:#000000; stroke-linecap:round; stroke-linejoin:round; stroke-width:4; stroke-opacity:1; fill:none" points="1320.06,1423.18 1320.06,1404.28 "/>
<polyline clip-path="url(#clip600)" style="stroke:#000000; stroke-linecap:round; stroke-linejoin:round; stroke-width:4; stroke-opacity:1; fill:none" points="1807.18,1423.18 1807.18,1404.28 "/>
<polyline clip-path="url(#clip600)" style="stroke:#000000; stroke-linecap:round; stroke-linejoin:round; stroke-width:4; stroke-opacity:1; fill:none" points="2294.3,1423.18 2294.3,1404.28 "/>
<path clip-path="url(#clip600)" d="M308.124 1454.1 Q304.513 1454.1 302.684 1457.66 Q300.878 1461.2 300.878 1468.33 Q300.878 1475.44 302.684 1479.01 Q304.513 1482.55 308.124 1482.55 Q311.758 1482.55 313.564 1479.01 Q315.392 1475.44 315.392 1468.33 Q315.392 1461.2 313.564 1457.66 Q311.758 1454.1 308.124 1454.1 M308.124 1450.39 Q313.934 1450.39 316.989 1455 Q320.068 1459.58 320.068 1468.33 Q320.068 1477.06 316.989 1481.67 Q313.934 1486.25 308.124 1486.25 Q302.314 1486.25 299.235 1481.67 Q296.179 1477.06 296.179 1468.33 Q296.179 1459.58 299.235 1455 Q302.314 1450.39 308.124 1450.39 Z" fill="#000000" fill-rule="nonzero" fill-opacity="1" /><path clip-path="url(#clip600)" d="M328.286 1479.7 L333.17 1479.7 L333.17 1485.58 L328.286 1485.58 L328.286 1479.7 Z" fill="#000000" fill-rule="nonzero" fill-opacity="1" /><path clip-path="url(#clip600)" d="M353.355 1454.1 Q349.744 1454.1 347.915 1457.66 Q346.11 1461.2 346.11 1468.33 Q346.11 1475.44 347.915 1479.01 Q349.744 1482.55 353.355 1482.55 Q356.989 1482.55 358.795 1479.01 Q360.623 1475.44 360.623 1468.33 Q360.623 1461.2 358.795 1457.66 Q356.989 1454.1 353.355 1454.1 M353.355 1450.39 Q359.165 1450.39 362.221 1455 Q365.299 1459.58 365.299 1468.33 Q365.299 1477.06 362.221 1481.67 Q359.165 1486.25 353.355 1486.25 Q347.545 1486.25 344.466 1481.67 Q341.411 1477.06 341.411 1468.33 Q341.411 1459.58 344.466 1455 Q347.545 1450.39 353.355 1450.39 Z" fill="#000000" fill-rule="nonzero" fill-opacity="1" /><path clip-path="url(#clip600)" d="M383.517 1454.1 Q379.906 1454.1 378.077 1457.66 Q376.272 1461.2 376.272 1468.33 Q376.272 1475.44 378.077 1479.01 Q379.906 1482.55 383.517 1482.55 Q387.151 1482.55 388.957 1479.01 Q390.785 1475.44 390.785 1468.33 Q390.785 1461.2 388.957 1457.66 Q387.151 1454.1 383.517 1454.1 M383.517 1450.39 Q389.327 1450.39 392.383 1455 Q395.461 1459.58 395.461 1468.33 Q395.461 1477.06 392.383 1481.67 Q389.327 1486.25 383.517 1486.25 Q377.707 1486.25 374.628 1481.67 Q371.573 1477.06 371.573 1468.33 Q371.573 1459.58 374.628 1455 Q377.707 1450.39 383.517 1450.39 Z" fill="#000000" fill-rule="nonzero" fill-opacity="1" /><path clip-path="url(#clip600)" d="M795.742 1454.1 Q792.131 1454.1 790.302 1457.66 Q788.496 1461.2 788.496 1468.33 Q788.496 1475.44 790.302 1479.01 Q792.131 1482.55 795.742 1482.55 Q799.376 1482.55 801.182 1479.01 Q803.01 1475.44 803.01 1468.33 Q803.01 1461.2 801.182 1457.66 Q799.376 1454.1 795.742 1454.1 M795.742 1450.39 Q801.552 1450.39 804.607 1455 Q807.686 1459.58 807.686 1468.33 Q807.686 1477.06 804.607 1481.67 Q801.552 1486.25 795.742 1486.25 Q789.932 1486.25 786.853 1481.67 Q783.797 1477.06 783.797 1468.33 Q783.797 1459.58 786.853 1455 Q789.932 1450.39 795.742 1450.39 Z" fill="#000000" fill-rule="nonzero" fill-opacity="1" /><path clip-path="url(#clip600)" d="M815.904 1479.7 L820.788 1479.7 L820.788 1485.58 L815.904 1485.58 L815.904 1479.7 Z" fill="#000000" fill-rule="nonzero" fill-opacity="1" /><path clip-path="url(#clip600)" d="M835.001 1481.64 L851.32 1481.64 L851.32 1485.58 L829.376 1485.58 L829.376 1481.64 Q832.038 1478.89 836.621 1474.26 Q841.228 1469.61 842.408 1468.27 Q844.654 1465.74 845.533 1464.01 Q846.436 1462.25 846.436 1460.56 Q846.436 1457.8 844.491 1456.07 Q842.57 1454.33 839.468 1454.33 Q837.269 1454.33 834.816 1455.09 Q832.385 1455.86 829.607 1457.41 L829.607 1452.69 Q832.431 1451.55 834.885 1450.97 Q837.339 1450.39 839.376 1450.39 Q844.746 1450.39 847.941 1453.08 Q851.135 1455.77 851.135 1460.26 Q851.135 1462.39 850.325 1464.31 Q849.538 1466.2 847.431 1468.8 Q846.853 1469.47 843.751 1472.69 Q840.649 1475.88 835.001 1481.64 Z" fill="#000000" fill-rule="nonzero" fill-opacity="1" /><path clip-path="url(#clip600)" d="M861.181 1451.02 L879.538 1451.02 L879.538 1454.96 L865.464 1454.96 L865.464 1463.43 Q866.482 1463.08 867.501 1462.92 Q868.519 1462.73 869.538 1462.73 Q875.325 1462.73 878.704 1465.9 Q882.084 1469.08 882.084 1474.49 Q882.084 1480.07 878.612 1483.17 Q875.139 1486.25 868.82 1486.25 Q866.644 1486.25 864.376 1485.88 Q862.13 1485.51 859.723 1484.77 L859.723 1480.07 Q861.806 1481.2 864.028 1481.76 Q866.251 1482.32 868.727 1482.32 Q872.732 1482.32 875.07 1480.21 Q877.408 1478.1 877.408 1474.49 Q877.408 1470.88 875.07 1468.77 Q872.732 1466.67 868.727 1466.67 Q866.852 1466.67 864.977 1467.08 Q863.126 1467.5 861.181 1468.38 L861.181 1451.02 Z" fill="#000000" fill-rule="nonzero" fill-opacity="1" /><path clip-path="url(#clip600)" d="M1282.36 1454.1 Q1278.75 1454.1 1276.92 1457.66 Q1275.12 1461.2 1275.12 1468.33 Q1275.12 1475.44 1276.92 1479.01 Q1278.75 1482.55 1282.36 1482.55 Q1286 1482.55 1287.8 1479.01 Q1289.63 1475.44 1289.63 1468.33 Q1289.63 1461.2 1287.8 1457.66 Q1286 1454.1 1282.36 1454.1 M1282.36 1450.39 Q1288.17 1450.39 1291.23 1455 Q1294.31 1459.58 1294.31 1468.33 Q1294.31 1477.06 1291.23 1481.67 Q1288.17 1486.25 1282.36 1486.25 Q1276.55 1486.25 1273.48 1481.67 Q1270.42 1477.06 1270.42 1468.33 Q1270.42 1459.58 1273.48 1455 Q1276.55 1450.39 1282.36 1450.39 Z" fill="#000000" fill-rule="nonzero" fill-opacity="1" /><path clip-path="url(#clip600)" d="M1302.53 1479.7 L1307.41 1479.7 L1307.41 1485.58 L1302.53 1485.58 L1302.53 1479.7 Z" fill="#000000" fill-rule="nonzero" fill-opacity="1" /><path clip-path="url(#clip600)" d="M1317.64 1451.02 L1336 1451.02 L1336 1454.96 L1321.92 1454.96 L1321.92 1463.43 Q1322.94 1463.08 1323.96 1462.92 Q1324.98 1462.73 1326 1462.73 Q1331.79 1462.73 1335.16 1465.9 Q1338.54 1469.08 1338.54 1474.49 Q1338.54 1480.07 1335.07 1483.17 Q1331.6 1486.25 1325.28 1486.25 Q1323.1 1486.25 1320.84 1485.88 Q1318.59 1485.51 1316.18 1484.77 L1316.18 1480.07 Q1318.27 1481.2 1320.49 1481.76 Q1322.71 1482.32 1325.19 1482.32 Q1329.19 1482.32 1331.53 1480.21 Q1333.87 1478.1 1333.87 1474.49 Q1333.87 1470.88 1331.53 1468.77 Q1329.19 1466.67 1325.19 1466.67 Q1323.31 1466.67 1321.44 1467.08 Q1319.59 1467.5 1317.64 1468.38 L1317.64 1451.02 Z" fill="#000000" fill-rule="nonzero" fill-opacity="1" /><path clip-path="url(#clip600)" d="M1357.76 1454.1 Q1354.15 1454.1 1352.32 1457.66 Q1350.51 1461.2 1350.51 1468.33 Q1350.51 1475.44 1352.32 1479.01 Q1354.15 1482.55 1357.76 1482.55 Q1361.39 1482.55 1363.2 1479.01 Q1365.03 1475.44 1365.03 1468.33 Q1365.03 1461.2 1363.2 1457.66 Q1361.39 1454.1 1357.76 1454.1 M1357.76 1450.39 Q1363.57 1450.39 1366.62 1455 Q1369.7 1459.58 1369.7 1468.33 Q1369.7 1477.06 1366.62 1481.67 Q1363.57 1486.25 1357.76 1486.25 Q1351.95 1486.25 1348.87 1481.67 Q1345.81 1477.06 1345.81 1468.33 Q1345.81 1459.58 1348.87 1455 Q1351.95 1450.39 1357.76 1450.39 Z" fill="#000000" fill-rule="nonzero" fill-opacity="1" /><path clip-path="url(#clip600)" d="M1769.98 1454.1 Q1766.37 1454.1 1764.54 1457.66 Q1762.74 1461.2 1762.74 1468.33 Q1762.74 1475.44 1764.54 1479.01 Q1766.37 1482.55 1769.98 1482.55 Q1773.62 1482.55 1775.42 1479.01 Q1777.25 1475.44 1777.25 1468.33 Q1777.25 1461.2 1775.42 1457.66 Q1773.62 1454.1 1769.98 1454.1 M1769.98 1450.39 Q1775.79 1450.39 1778.85 1455 Q1781.93 1459.58 1781.93 1468.33 Q1781.93 1477.06 1778.85 1481.67 Q1775.79 1486.25 1769.98 1486.25 Q1764.17 1486.25 1761.09 1481.67 Q1758.04 1477.06 1758.04 1468.33 Q1758.04 1459.58 1761.09 1455 Q1764.17 1450.39 1769.98 1450.39 Z" fill="#000000" fill-rule="nonzero" fill-opacity="1" /><path clip-path="url(#clip600)" d="M1790.14 1479.7 L1795.03 1479.7 L1795.03 1485.58 L1790.14 1485.58 L1790.14 1479.7 Z" fill="#000000" fill-rule="nonzero" fill-opacity="1" /><path clip-path="url(#clip600)" d="M1804.03 1451.02 L1826.26 1451.02 L1826.26 1453.01 L1813.71 1485.58 L1808.82 1485.58 L1820.63 1454.96 L1804.03 1454.96 L1804.03 1451.02 Z" fill="#000000" fill-rule="nonzero" fill-opacity="1" /><path clip-path="url(#clip600)" d="M1835.42 1451.02 L1853.78 1451.02 L1853.78 1454.96 L1839.7 1454.96 L1839.7 1463.43 Q1840.72 1463.08 1841.74 1462.92 Q1842.76 1462.73 1843.78 1462.73 Q1849.57 1462.73 1852.94 1465.9 Q1856.32 1469.08 1856.32 1474.49 Q1856.32 1480.07 1852.85 1483.17 Q1849.38 1486.25 1843.06 1486.25 Q1840.88 1486.25 1838.62 1485.88 Q1836.37 1485.51 1833.96 1484.77 L1833.96 1480.07 Q1836.05 1481.2 1838.27 1481.76 Q1840.49 1482.32 1842.97 1482.32 Q1846.97 1482.32 1849.31 1480.21 Q1851.65 1478.1 1851.65 1474.49 Q1851.65 1470.88 1849.31 1468.77 Q1846.97 1466.67 1842.97 1466.67 Q1841.09 1466.67 1839.22 1467.08 Q1837.37 1467.5 1835.42 1468.38 L1835.42 1451.02 Z" fill="#000000" fill-rule="nonzero" fill-opacity="1" /><path clip-path="url(#clip600)" d="M2246.37 1481.64 L2254.01 1481.64 L2254.01 1455.28 L2245.7 1456.95 L2245.7 1452.69 L2253.97 1451.02 L2258.64 1451.02 L2258.64 1481.64 L2266.28 1481.64 L2266.28 1485.58 L2246.37 1485.58 L2246.37 1481.64 Z" fill="#000000" fill-rule="nonzero" fill-opacity="1" /><path clip-path="url(#clip600)" d="M2275.73 1479.7 L2280.61 1479.7 L2280.61 1485.58 L2275.73 1485.58 L2275.73 1479.7 Z" fill="#000000" fill-rule="nonzero" fill-opacity="1" /><path clip-path="url(#clip600)" d="M2300.79 1454.1 Q2297.18 1454.1 2295.35 1457.66 Q2293.55 1461.2 2293.55 1468.33 Q2293.55 1475.44 2295.35 1479.01 Q2297.18 1482.55 2300.79 1482.55 Q2304.43 1482.55 2306.23 1479.01 Q2308.06 1475.44 2308.06 1468.33 Q2308.06 1461.2 2306.23 1457.66 Q2304.43 1454.1 2300.79 1454.1 M2300.79 1450.39 Q2306.6 1450.39 2309.66 1455 Q2312.74 1459.58 2312.74 1468.33 Q2312.74 1477.06 2309.66 1481.67 Q2306.6 1486.25 2300.79 1486.25 Q2294.98 1486.25 2291.91 1481.67 Q2288.85 1477.06 2288.85 1468.33 Q2288.85 1459.58 2291.91 1455 Q2294.98 1450.39 2300.79 1450.39 Z" fill="#000000" fill-rule="nonzero" fill-opacity="1" /><path clip-path="url(#clip600)" d="M2330.96 1454.1 Q2327.35 1454.1 2325.52 1457.66 Q2323.71 1461.2 2323.71 1468.33 Q2323.71 1475.44 2325.52 1479.01 Q2327.35 1482.55 2330.96 1482.55 Q2334.59 1482.55 2336.4 1479.01 Q2338.22 1475.44 2338.22 1468.33 Q2338.22 1461.2 2336.4 1457.66 Q2334.59 1454.1 2330.96 1454.1 M2330.96 1450.39 Q2336.77 1450.39 2339.82 1455 Q2342.9 1459.58 2342.9 1468.33 Q2342.9 1477.06 2339.82 1481.67 Q2336.77 1486.25 2330.96 1486.25 Q2325.15 1486.25 2322.07 1481.67 Q2319.01 1477.06 2319.01 1468.33 Q2319.01 1459.58 2322.07 1455 Q2325.15 1450.39 2330.96 1450.39 Z" fill="#000000" fill-rule="nonzero" fill-opacity="1" /><path clip-path="url(#clip600)" d="M1328.53 1531.91 Q1328.53 1532.81 1328.11 1533.04 Q1327.69 1533.23 1326.54 1533.23 L1320.35 1533.23 L1315.46 1552.69 Q1315.07 1554.39 1315.07 1555.84 Q1315.07 1557.45 1315.55 1558.16 Q1316.07 1558.87 1317.13 1558.87 Q1319.22 1558.87 1321.48 1556.97 Q1323.77 1555.07 1325.7 1550.43 Q1325.96 1549.82 1326.08 1549.69 Q1326.25 1549.53 1326.66 1549.53 Q1327.47 1549.53 1327.47 1550.17 Q1327.47 1550.4 1327.02 1551.43 Q1326.6 1552.46 1325.67 1553.97 Q1324.76 1555.49 1323.57 1556.9 Q1322.41 1558.32 1320.64 1559.35 Q1318.87 1560.35 1316.97 1560.35 Q1314.3 1560.35 1312.59 1558.64 Q1310.92 1556.94 1310.92 1554.26 Q1310.92 1553.39 1311.59 1550.62 Q1312.27 1547.82 1315.94 1533.23 L1310.11 1533.23 Q1309.31 1533.23 1308.98 1533.2 Q1308.69 1533.17 1308.47 1533.01 Q1308.27 1532.81 1308.27 1532.43 Q1308.27 1531.82 1308.53 1531.56 Q1308.79 1531.27 1309.11 1531.24 Q1309.47 1531.17 1310.27 1531.17 L1316.45 1531.17 L1319.03 1520.71 Q1319.29 1519.67 1319.93 1519.09 Q1320.61 1518.48 1321 1518.42 Q1321.38 1518.32 1321.67 1518.32 Q1322.54 1518.32 1323.06 1518.81 Q1323.57 1519.26 1323.57 1520.09 Q1323.57 1520.54 1320.87 1531.17 L1326.66 1531.17 Q1327.4 1531.17 1327.69 1531.2 Q1328.02 1531.24 1328.27 1531.4 Q1328.53 1531.56 1328.53 1531.91 Z" fill="#000000" fill-rule="nonzero" fill-opacity="1" /><polyline clip-path="url(#clip602)" style="stroke:#000000; stroke-linecap:round; stroke-linejoin:round; stroke-width:2; stroke-opacity:0.1; fill:none" points="287.366,1350.33 2352.76,1350.33 "/>
<polyline clip-path="url(#clip602)" style="stroke:#000000; stroke-linecap:round; stroke-linejoin:round; stroke-width:2; stroke-opacity:0.1; fill:none" points="287.366,1072.79 2352.76,1072.79 "/>
<polyline clip-path="url(#clip602)" style="stroke:#000000; stroke-linecap:round; stroke-linejoin:round; stroke-width:2; stroke-opacity:0.1; fill:none" points="287.366,795.26 2352.76,795.26 "/>
<polyline clip-path="url(#clip602)" style="stroke:#000000; stroke-linecap:round; stroke-linejoin:round; stroke-width:2; stroke-opacity:0.1; fill:none" points="287.366,517.728 2352.76,517.728 "/>
<polyline clip-path="url(#clip602)" style="stroke:#000000; stroke-linecap:round; stroke-linejoin:round; stroke-width:2; stroke-opacity:0.1; fill:none" points="287.366,240.195 2352.76,240.195 "/>
<polyline clip-path="url(#clip600)" style="stroke:#000000; stroke-linecap:round; stroke-linejoin:round; stroke-width:4; stroke-opacity:1; fill:none" points="287.366,1423.18 287.366,47.2441 "/>
<polyline clip-path="url(#clip600)" style="stroke:#000000; stroke-linecap:round; stroke-linejoin:round; stroke-width:4; stroke-opacity:1; fill:none" points="287.366,1350.33 306.264,1350.33 "/>
<polyline clip-path="url(#clip600)" style="stroke:#000000; stroke-linecap:round; stroke-linejoin:round; stroke-width:4; stroke-opacity:1; fill:none" points="287.366,1072.79 306.264,1072.79 "/>
<polyline clip-path="url(#clip600)" style="stroke:#000000; stroke-linecap:round; stroke-linejoin:round; stroke-width:4; stroke-opacity:1; fill:none" points="287.366,795.26 306.264,795.26 "/>
<polyline clip-path="url(#clip600)" style="stroke:#000000; stroke-linecap:round; stroke-linejoin:round; stroke-width:4; stroke-opacity:1; fill:none" points="287.366,517.728 306.264,517.728 "/>
<polyline clip-path="url(#clip600)" style="stroke:#000000; stroke-linecap:round; stroke-linejoin:round; stroke-width:4; stroke-opacity:1; fill:none" points="287.366,240.195 306.264,240.195 "/>
<path clip-path="url(#clip600)" d="M114.26 1350.78 L143.936 1350.78 L143.936 1354.71 L114.26 1354.71 L114.26 1350.78 Z" fill="#000000" fill-rule="nonzero" fill-opacity="1" /><path clip-path="url(#clip600)" d="M164.028 1336.12 Q160.417 1336.12 158.589 1339.69 Q156.783 1343.23 156.783 1350.36 Q156.783 1357.47 158.589 1361.03 Q160.417 1364.57 164.028 1364.57 Q167.663 1364.57 169.468 1361.03 Q171.297 1357.47 171.297 1350.36 Q171.297 1343.23 169.468 1339.69 Q167.663 1336.12 164.028 1336.12 M164.028 1332.42 Q169.839 1332.42 172.894 1337.03 Q175.973 1341.61 175.973 1350.36 Q175.973 1359.09 172.894 1363.69 Q169.839 1368.28 164.028 1368.28 Q158.218 1368.28 155.14 1363.69 Q152.084 1359.09 152.084 1350.36 Q152.084 1341.61 155.14 1337.03 Q158.218 1332.42 164.028 1332.42 Z" fill="#000000" fill-rule="nonzero" fill-opacity="1" /><path clip-path="url(#clip600)" d="M184.19 1361.73 L189.075 1361.73 L189.075 1367.61 L184.19 1367.61 L184.19 1361.73 Z" fill="#000000" fill-rule="nonzero" fill-opacity="1" /><path clip-path="url(#clip600)" d="M199.306 1333.05 L217.662 1333.05 L217.662 1336.98 L203.588 1336.98 L203.588 1345.45 Q204.607 1345.11 205.625 1344.94 Q206.644 1344.76 207.662 1344.76 Q213.449 1344.76 216.829 1347.93 Q220.209 1351.1 220.209 1356.52 Q220.209 1362.1 216.736 1365.2 Q213.264 1368.28 206.945 1368.28 Q204.769 1368.28 202.5 1367.91 Q200.255 1367.54 197.848 1366.8 L197.848 1362.1 Q199.931 1363.23 202.153 1363.79 Q204.375 1364.34 206.852 1364.34 Q210.857 1364.34 213.195 1362.24 Q215.533 1360.13 215.533 1356.52 Q215.533 1352.91 213.195 1350.8 Q210.857 1348.69 206.852 1348.69 Q204.977 1348.69 203.102 1349.11 Q201.25 1349.53 199.306 1350.41 L199.306 1333.05 Z" fill="#000000" fill-rule="nonzero" fill-opacity="1" /><path clip-path="url(#clip600)" d="M239.422 1336.12 Q235.81 1336.12 233.982 1339.69 Q232.176 1343.23 232.176 1350.36 Q232.176 1357.47 233.982 1361.03 Q235.81 1364.57 239.422 1364.57 Q243.056 1364.57 244.861 1361.03 Q246.69 1357.47 246.69 1350.36 Q246.69 1343.23 244.861 1339.69 Q243.056 1336.12 239.422 1336.12 M239.422 1332.42 Q245.232 1332.42 248.287 1337.03 Q251.366 1341.61 251.366 1350.36 Q251.366 1359.09 248.287 1363.69 Q245.232 1368.28 239.422 1368.28 Q233.611 1368.28 230.533 1363.69 Q227.477 1359.09 227.477 1350.36 Q227.477 1341.61 230.533 1337.03 Q233.611 1332.42 239.422 1332.42 Z" fill="#000000" fill-rule="nonzero" fill-opacity="1" /><path clip-path="url(#clip600)" d="M115.256 1073.24 L144.931 1073.24 L144.931 1077.18 L115.256 1077.18 L115.256 1073.24 Z" fill="#000000" fill-rule="nonzero" fill-opacity="1" /><path clip-path="url(#clip600)" d="M165.024 1058.59 Q161.413 1058.59 159.584 1062.16 Q157.778 1065.7 157.778 1072.83 Q157.778 1079.93 159.584 1083.5 Q161.413 1087.04 165.024 1087.04 Q168.658 1087.04 170.464 1083.5 Q172.292 1079.93 172.292 1072.83 Q172.292 1065.7 170.464 1062.16 Q168.658 1058.59 165.024 1058.59 M165.024 1054.89 Q170.834 1054.89 173.889 1059.49 Q176.968 1064.08 176.968 1072.83 Q176.968 1081.55 173.889 1086.16 Q170.834 1090.74 165.024 1090.74 Q159.214 1090.74 156.135 1086.16 Q153.079 1081.55 153.079 1072.83 Q153.079 1064.08 156.135 1059.49 Q159.214 1054.89 165.024 1054.89 Z" fill="#000000" fill-rule="nonzero" fill-opacity="1" /><path clip-path="url(#clip600)" d="M185.186 1084.19 L190.07 1084.19 L190.07 1090.07 L185.186 1090.07 L185.186 1084.19 Z" fill="#000000" fill-rule="nonzero" fill-opacity="1" /><path clip-path="url(#clip600)" d="M204.283 1086.14 L220.602 1086.14 L220.602 1090.07 L198.658 1090.07 L198.658 1086.14 Q201.32 1083.38 205.903 1078.75 Q210.51 1074.1 211.69 1072.76 Q213.936 1070.24 214.815 1068.5 Q215.718 1066.74 215.718 1065.05 Q215.718 1062.3 213.774 1060.56 Q211.852 1058.82 208.75 1058.82 Q206.551 1058.82 204.098 1059.59 Q201.667 1060.35 198.889 1061.9 L198.889 1057.18 Q201.713 1056.05 204.167 1055.47 Q206.621 1054.89 208.658 1054.89 Q214.028 1054.89 217.223 1057.57 Q220.417 1060.26 220.417 1064.75 Q220.417 1066.88 219.607 1068.8 Q218.82 1070.7 216.713 1073.29 Q216.135 1073.96 213.033 1077.18 Q209.931 1080.37 204.283 1086.14 Z" fill="#000000" fill-rule="nonzero" fill-opacity="1" /><path clip-path="url(#clip600)" d="M230.463 1055.51 L248.82 1055.51 L248.82 1059.45 L234.746 1059.45 L234.746 1067.92 Q235.764 1067.57 236.783 1067.41 Q237.801 1067.23 238.82 1067.23 Q244.607 1067.23 247.986 1070.4 Q251.366 1073.57 251.366 1078.99 Q251.366 1084.56 247.894 1087.67 Q244.421 1090.74 238.102 1090.74 Q235.926 1090.74 233.658 1090.37 Q231.412 1090 229.005 1089.26 L229.005 1084.56 Q231.088 1085.7 233.31 1086.25 Q235.533 1086.81 238.009 1086.81 Q242.014 1086.81 244.352 1084.7 Q246.69 1082.6 246.69 1078.99 Q246.69 1075.37 244.352 1073.27 Q242.014 1071.16 238.009 1071.16 Q236.135 1071.16 234.26 1071.58 Q232.408 1071.99 230.463 1072.87 L230.463 1055.51 Z" fill="#000000" fill-rule="nonzero" fill-opacity="1" /><path clip-path="url(#clip600)" d="M164.028 781.059 Q160.417 781.059 158.589 784.624 Q156.783 788.166 156.783 795.295 Q156.783 802.402 158.589 805.966 Q160.417 809.508 164.028 809.508 Q167.663 809.508 169.468 805.966 Q171.297 802.402 171.297 795.295 Q171.297 788.166 169.468 784.624 Q167.663 781.059 164.028 781.059 M164.028 777.355 Q169.839 777.355 172.894 781.962 Q175.973 786.545 175.973 795.295 Q175.973 804.022 172.894 808.628 Q169.839 813.212 164.028 813.212 Q158.218 813.212 155.14 808.628 Q152.084 804.022 152.084 795.295 Q152.084 786.545 155.14 781.962 Q158.218 777.355 164.028 777.355 Z" fill="#000000" fill-rule="nonzero" fill-opacity="1" /><path clip-path="url(#clip600)" d="M184.19 806.661 L189.075 806.661 L189.075 812.54 L184.19 812.54 L184.19 806.661 Z" fill="#000000" fill-rule="nonzero" fill-opacity="1" /><path clip-path="url(#clip600)" d="M209.26 781.059 Q205.649 781.059 203.82 784.624 Q202.014 788.166 202.014 795.295 Q202.014 802.402 203.82 805.966 Q205.649 809.508 209.26 809.508 Q212.894 809.508 214.699 805.966 Q216.528 802.402 216.528 795.295 Q216.528 788.166 214.699 784.624 Q212.894 781.059 209.26 781.059 M209.26 777.355 Q215.07 777.355 218.125 781.962 Q221.204 786.545 221.204 795.295 Q221.204 804.022 218.125 808.628 Q215.07 813.212 209.26 813.212 Q203.449 813.212 200.371 808.628 Q197.315 804.022 197.315 795.295 Q197.315 786.545 200.371 781.962 Q203.449 777.355 209.26 777.355 Z" fill="#000000" fill-rule="nonzero" fill-opacity="1" /><path clip-path="url(#clip600)" d="M239.422 781.059 Q235.81 781.059 233.982 784.624 Q232.176 788.166 232.176 795.295 Q232.176 802.402 233.982 805.966 Q235.81 809.508 239.422 809.508 Q243.056 809.508 244.861 805.966 Q246.69 802.402 246.69 795.295 Q246.69 788.166 244.861 784.624 Q243.056 781.059 239.422 781.059 M239.422 777.355 Q245.232 777.355 248.287 781.962 Q251.366 786.545 251.366 795.295 Q251.366 804.022 248.287 808.628 Q245.232 813.212 239.422 813.212 Q233.611 813.212 230.533 808.628 Q227.477 804.022 227.477 795.295 Q227.477 786.545 230.533 781.962 Q233.611 777.355 239.422 777.355 Z" fill="#000000" fill-rule="nonzero" fill-opacity="1" /><path clip-path="url(#clip600)" d="M165.024 503.526 Q161.413 503.526 159.584 507.091 Q157.778 510.633 157.778 517.762 Q157.778 524.869 159.584 528.434 Q161.413 531.975 165.024 531.975 Q168.658 531.975 170.464 528.434 Q172.292 524.869 172.292 517.762 Q172.292 510.633 170.464 507.091 Q168.658 503.526 165.024 503.526 M165.024 499.823 Q170.834 499.823 173.889 504.429 Q176.968 509.012 176.968 517.762 Q176.968 526.489 173.889 531.096 Q170.834 535.679 165.024 535.679 Q159.214 535.679 156.135 531.096 Q153.079 526.489 153.079 517.762 Q153.079 509.012 156.135 504.429 Q159.214 499.823 165.024 499.823 Z" fill="#000000" fill-rule="nonzero" fill-opacity="1" /><path clip-path="url(#clip600)" d="M185.186 529.128 L190.07 529.128 L190.07 535.008 L185.186 535.008 L185.186 529.128 Z" fill="#000000" fill-rule="nonzero" fill-opacity="1" /><path clip-path="url(#clip600)" d="M204.283 531.073 L220.602 531.073 L220.602 535.008 L198.658 535.008 L198.658 531.073 Q201.32 528.318 205.903 523.688 Q210.51 519.036 211.69 517.693 Q213.936 515.17 214.815 513.434 Q215.718 511.675 215.718 509.985 Q215.718 507.23 213.774 505.494 Q211.852 503.758 208.75 503.758 Q206.551 503.758 204.098 504.522 Q201.667 505.286 198.889 506.837 L198.889 502.114 Q201.713 500.98 204.167 500.401 Q206.621 499.823 208.658 499.823 Q214.028 499.823 217.223 502.508 Q220.417 505.193 220.417 509.684 Q220.417 511.813 219.607 513.735 Q218.82 515.633 216.713 518.225 Q216.135 518.897 213.033 522.114 Q209.931 525.309 204.283 531.073 Z" fill="#000000" fill-rule="nonzero" fill-opacity="1" /><path clip-path="url(#clip600)" d="M230.463 500.448 L248.82 500.448 L248.82 504.383 L234.746 504.383 L234.746 512.855 Q235.764 512.508 236.783 512.346 Q237.801 512.161 238.82 512.161 Q244.607 512.161 247.986 515.332 Q251.366 518.503 251.366 523.92 Q251.366 529.498 247.894 532.6 Q244.421 535.679 238.102 535.679 Q235.926 535.679 233.658 535.309 Q231.412 534.938 229.005 534.198 L229.005 529.498 Q231.088 530.633 233.31 531.188 Q235.533 531.744 238.009 531.744 Q242.014 531.744 244.352 529.637 Q246.69 527.531 246.69 523.92 Q246.69 520.309 244.352 518.202 Q242.014 516.096 238.009 516.096 Q236.135 516.096 234.26 516.512 Q232.408 516.929 230.463 517.809 L230.463 500.448 Z" fill="#000000" fill-rule="nonzero" fill-opacity="1" /><path clip-path="url(#clip600)" d="M164.028 225.994 Q160.417 225.994 158.589 229.558 Q156.783 233.1 156.783 240.23 Q156.783 247.336 158.589 250.901 Q160.417 254.443 164.028 254.443 Q167.663 254.443 169.468 250.901 Q171.297 247.336 171.297 240.23 Q171.297 233.1 169.468 229.558 Q167.663 225.994 164.028 225.994 M164.028 222.29 Q169.839 222.29 172.894 226.896 Q175.973 231.48 175.973 240.23 Q175.973 248.957 172.894 253.563 Q169.839 258.146 164.028 258.146 Q158.218 258.146 155.14 253.563 Q152.084 248.957 152.084 240.23 Q152.084 231.48 155.14 226.896 Q158.218 222.29 164.028 222.29 Z" fill="#000000" fill-rule="nonzero" fill-opacity="1" /><path clip-path="url(#clip600)" d="M184.19 251.595 L189.075 251.595 L189.075 257.475 L184.19 257.475 L184.19 251.595 Z" fill="#000000" fill-rule="nonzero" fill-opacity="1" /><path clip-path="url(#clip600)" d="M199.306 222.915 L217.662 222.915 L217.662 226.85 L203.588 226.85 L203.588 235.322 Q204.607 234.975 205.625 234.813 Q206.644 234.628 207.662 234.628 Q213.449 234.628 216.829 237.799 Q220.209 240.97 220.209 246.387 Q220.209 251.966 216.736 255.068 Q213.264 258.146 206.945 258.146 Q204.769 258.146 202.5 257.776 Q200.255 257.406 197.848 256.665 L197.848 251.966 Q199.931 253.1 202.153 253.656 Q204.375 254.211 206.852 254.211 Q210.857 254.211 213.195 252.105 Q215.533 249.998 215.533 246.387 Q215.533 242.776 213.195 240.67 Q210.857 238.563 206.852 238.563 Q204.977 238.563 203.102 238.98 Q201.25 239.396 199.306 240.276 L199.306 222.915 Z" fill="#000000" fill-rule="nonzero" fill-opacity="1" /><path clip-path="url(#clip600)" d="M239.422 225.994 Q235.81 225.994 233.982 229.558 Q232.176 233.1 232.176 240.23 Q232.176 247.336 233.982 250.901 Q235.81 254.443 239.422 254.443 Q243.056 254.443 244.861 250.901 Q246.69 247.336 246.69 240.23 Q246.69 233.1 244.861 229.558 Q243.056 225.994 239.422 225.994 M239.422 222.29 Q245.232 222.29 248.287 226.896 Q251.366 231.48 251.366 240.23 Q251.366 248.957 248.287 253.563 Q245.232 258.146 239.422 258.146 Q233.611 258.146 230.533 253.563 Q227.477 248.957 227.477 240.23 Q227.477 231.48 230.533 226.896 Q233.611 222.29 239.422 222.29 Z" fill="#000000" fill-rule="nonzero" fill-opacity="1" /><path clip-path="url(#clip600)" d="M30.8561 720.775 Q31.307 720.775 32.3698 721.064 L57.5548 727.377 Q63.1586 728.762 67.0877 733.27 Q71.0168 737.747 71.0168 742.836 Q71.0168 745.895 69.3743 747.86 Q67.764 749.824 65.2842 749.824 Q63.0942 749.824 62.0314 748.665 Q61.0008 747.505 61.0008 746.121 Q61.0008 745.67 61.1296 745.187 Q61.2584 744.703 61.8059 744.188 Q62.3534 743.673 63.2874 743.673 Q64.8011 743.673 65.9927 744.993 Q66.5402 745.637 66.669 746.249 Q66.7978 746.829 66.7978 747.827 Q67.6996 747.441 68.3115 746.732 Q68.9234 746.024 69.1489 745.219 Q69.4065 744.414 69.4709 743.898 Q69.5675 743.351 69.5675 742.836 Q69.5675 738.713 65.413 735.557 Q64.157 734.623 62.9009 733.947 Q61.6771 733.238 60.1634 732.723 Q58.682 732.208 57.8768 731.982 Q57.0717 731.725 55.2359 731.274 Q58.2311 734.269 58.2311 737.94 Q58.2311 739.486 57.8124 740.871 Q57.3937 742.224 56.5242 743.415 Q55.6224 744.607 54.0443 745.315 Q52.4662 745.992 50.3728 745.992 Q48.1506 745.992 45.1233 745.122 Q42.0959 744.253 36.5243 742.159 Q33.4004 741.032 31.8867 741.032 Q31.146 741.032 30.6951 741.193 Q30.212 741.354 30.051 741.676 Q29.8577 741.998 29.8255 742.191 Q29.7933 742.352 29.7933 742.675 Q29.7933 744.575 31.7257 746.346 Q33.658 748.117 37.9736 749.341 Q38.7787 749.599 38.972 749.76 Q39.1652 749.921 39.1652 750.404 Q39.133 751.209 38.4889 751.209 Q38.2312 751.209 37.2329 750.919 Q36.2023 750.629 34.6886 749.953 Q33.1427 749.245 31.7579 748.278 Q30.3408 747.312 29.3424 745.798 Q28.344 744.253 28.344 742.481 Q28.344 740.066 29.9221 738.584 Q31.468 737.071 33.7546 737.071 Q34.6886 737.071 35.5259 737.328 Q36.3311 737.554 38.4889 738.391 Q47.1845 741.773 51.4356 741.773 Q52.4662 741.773 53.3358 741.612 Q54.1731 741.418 55.0105 741 Q55.8156 740.581 56.2987 739.744 Q56.7496 738.874 56.7496 737.683 Q56.7496 736.169 56.0411 734.752 Q55.3003 733.303 54.302 732.401 Q53.3036 731.467 52.4662 730.919 Q51.5967 730.34 51.1458 730.211 L39.294 727.248 L34.0123 725.927 Q31.146 725.316 30.4374 725.026 Q29.7611 724.639 29.4068 723.963 Q29.0526 723.287 29.0526 722.707 Q29.0526 721.902 29.5357 721.354 Q30.0187 720.775 30.8561 720.775 Z" fill="#000000" fill-rule="nonzero" fill-opacity="1" /><polyline clip-path="url(#clip602)" style="stroke:#e26f46; stroke-linecap:round; stroke-linejoin:round; stroke-width:8; stroke-opacity:1; fill:none" stroke-dasharray="32, 20" points="345.82,795.26 349.626,840.116 353.432,719.492 357.237,774.063 361.043,685.929 364.848,591.765 368.654,579.4 372.46,665.089 376.265,751.399 380.071,720.147 383.877,730.822 387.682,776.06 391.488,790.905 395.293,713.383 399.099,623.052 402.905,635.244 406.71,734.233 410.516,761.192 414.322,779.602 418.127,829.044 421.933,775.093 425.739,759.531 429.544,713.302 433.35,791.629 437.155,663.208 440.961,597.601 444.767,632.992 448.572,626.064 452.378,668.277 456.184,636.79 459.989,739.977 463.795,831.353 467.6,823.756 471.406,815.438 475.212,806.472 479.017,754.623 482.823,794.147 486.629,783.028 490.434,710.75 494.24,734.253 498.045,754.946 501.851,715.659 505.657,779.096 509.462,765.703 513.268,723.758 517.074,812.426 520.879,811.06 524.685,866.743 528.49,897.927 532.296,918.63 536.102,859.596 539.907,784.289 543.713,859.086 547.519,869.169 551.324,836.337 555.13,859.307 558.935,907.582 562.741,906.076 566.547,819.587 570.352,750.521 574.158,783.365 577.964,750.632 581.769,690.782 585.575,717.48 589.38,718.96 593.186,745.855 596.992,755.005 600.797,819.608 604.603,781.3 608.409,832.867 612.214,887.53 616.02,907.169 619.825,894.014 623.631,906.244 627.437,819.636 631.242,867.016 635.048,830.723 638.854,888.229 642.659,895.845 646.465,969.073 650.271,962.249 654.076,1022.05 657.882,1052.07 661.687,981.05 665.493,981.135 669.299,953.575 673.104,1086.81 676.91,1113.54 680.716,1166.32 684.521,1096.35 688.327,1026.31 692.132,1029.16 695.938,1011.15 699.744,944.513 703.549,966.073 707.355,1008.64 711.161,1010.58 714.966,1047.85 718.772,1096.01 722.577,988.498 726.383,977.183 730.189,975.628 733.994,1025.69 737.8,1009.67 741.606,957.928 745.411,901.337 749.217,871.75 753.022,932.028 756.828,944.771 760.634,894.634 764.439,937.569 768.245,985.974 772.051,874.375 775.856,835.017 779.662,776.021 783.467,818.376 787.273,839.162 791.079,829.713 794.884,945.05 798.69,919.981 802.496,966.824 806.301,912.259 810.107,885.8 813.912,838.024 817.718,828.43 821.524,711.531 825.329,691.438 829.135,691.049 832.941,674.381 836.746,668.612 840.552,726.702 844.358,737.16 848.163,663.87 851.969,692.888 855.774,718.334 859.58,777.04 863.386,828.616 867.191,900.264 870.997,840.893 874.803,775.124 878.608,893.149 882.414,959.04 886.219,987.039 890.025,967.167 893.831,1048.99 897.636,1118.49 901.442,1084.27 905.248,1118.73 909.053,1099.44 912.859,1121.53 916.664,1111.48 920.47,1132.23 924.276,1037.99 928.081,1044.16 931.887,1038.3 935.693,1013.6 939.498,979.688 943.304,929.323 947.109,945.302 950.915,843.53 954.721,939.598 958.526,1016.43 962.332,938.365 966.138,937.28 969.943,913.132 973.749,921.015 977.554,979.954 981.36,1064.79 985.166,1163.07 988.971,1225.97 992.777,1280.27 996.583,1321.48 1000.39,1384.24 1004.19,1302.64 1008,1333.15 1011.81,1304.64 1015.61,1302.11 1019.42,1323.34 1023.22,1242.77 1027.03,1202.97 1030.83,1234.2 1034.64,1223.55 1038.44,1178.6 1042.25,1225.33 1046.06,1204.37 1049.86,1140.1 1053.67,1088.86 1057.47,1040.39 1061.28,1013.6 1065.08,993.491 1068.89,950.779 1072.7,898.441 1076.5,995.164 1080.31,976.908 1084.11,918.966 1087.92,946.428 1091.72,931.308 1095.53,933.547 1099.33,852.73 1103.14,845.86 1106.95,799.208 1110.75,792.867 1114.56,745.839 1118.36,822.982 1122.17,910.72 1125.97,921.675 1129.78,807.506 1133.59,825.465 1137.39,817.758 1141.2,762.499 1145,777.391 1148.81,768.729 1152.61,622.981 1156.42,510.645 1160.22,464.837 1164.03,453.339 1167.84,428.979 1171.64,445.405 1175.45,452.973 1179.25,422.51 1183.06,387.87 1186.86,402.619 1190.67,415.212 1194.48,353.032 1198.28,398.173 1202.09,412.991 1205.89,389.164 1209.7,409.407 1213.5,395.429 1217.31,448.136 1221.11,451.272 1224.92,431.034 1228.73,426.025 1232.53,482.414 1236.34,327.416 1240.14,359.312 1243.95,341.294 1247.75,255.625 1251.56,215.479 1255.37,228.09 1259.17,173.551 1262.98,138.293 1266.78,156.06 1270.59,109.648 1274.39,156.893 1278.2,165.297 1282,261 1285.81,331.427 1289.62,385.539 1293.42,396.728 1297.23,395.885 1301.03,432.729 1304.84,415.877 1308.64,448.596 1312.45,455.235 1316.26,434.034 1320.06,486.215 1323.87,438.93 1327.67,478.93 1331.48,492.786 1335.28,559.259 1339.09,507.454 1342.89,455.671 1346.7,435.183 1350.51,384.046 1354.31,399.749 1358.12,397.501 1361.92,422.678 1365.73,477.737 1369.53,501.143 1373.34,562.461 1377.15,601.399 1380.95,579.008 1384.76,535.416 1388.56,558.526 1392.37,564.479 1396.17,597.421 1399.98,619.034 1403.78,586.711 1407.59,657.245 1411.4,701.509 1415.2,766.795 1419.01,748.438 1422.81,659.423 1426.62,719.986 1430.42,675.313 1434.23,731.564 1438.04,658.923 1441.84,678.823 1445.65,604.411 1449.45,596.771 1453.26,589.18 1457.06,592.652 1460.87,619.035 1464.67,621.066 1468.48,627.056 1472.29,650.057 1476.09,629.369 1479.9,583.159 1483.7,544.925 1487.51,546.397 1491.31,577.309 1495.12,623.8 1498.93,628.441 1502.73,655.554 1506.54,628.227 1510.34,678.78 1514.15,651.047 1517.95,616.28 1521.76,711.426 1525.56,699.534 1529.37,778.331 1533.18,828.052 1536.98,810.342 1540.79,846.661 1544.59,762.644 1548.4,688.463 1552.2,650.07 1556.01,684.369 1559.82,689.348 1563.62,775.725 1567.43,792.043 1571.23,887.929 1575.04,885.979 1578.84,932.645 1582.65,912.209 1586.45,974.726 1590.26,1028.99 1594.07,952.627 1597.87,1020.09 1601.68,950.488 1605.48,1075.83 1609.29,1106.62 1613.09,1117.22 1616.9,1126.47 1620.71,1165.51 1624.51,1185.86 1628.32,1289.47 1632.12,1338.44 1635.93,1302.66 1639.73,1216.28 1643.54,1165.64 1647.34,1172.24 1651.15,1178.26 1654.96,1240.55 1658.76,1215.9 1662.57,1304.18 1666.37,1318.31 1670.18,1327.5 1673.98,1349.54 1677.79,1345.86 1681.6,1338.74 1685.4,1326.74 1689.21,1326.45 1693.01,1289.12 1696.82,1276.34 1700.62,1207.67 1704.43,1198.27 1708.23,1186.17 1712.04,1199.73 1715.85,1086.27 1719.65,957.401 1723.46,975.37 1727.26,849.702 1731.07,833.553 1734.87,949.639 1738.68,880.722 1742.49,885.376 1746.29,851.71 1750.1,887.795 1753.9,884.521 1757.71,898.537 1761.51,964.909 1765.32,910.929 1769.12,933.921 1772.93,888.657 1776.74,874.496 1780.54,896.324 1784.35,1009.88 1788.15,922.848 1791.96,868.708 1795.76,920.155 1799.57,908.176 1803.38,879.705 1807.18,811.757 1810.99,717.43 1814.79,704.339 1818.6,728.006 1822.4,719.283 1826.21,654.143 1830.01,609.128 1833.82,550.634 1837.63,545.382 1841.43,529.298 1845.24,544.314 1849.04,532.12 1852.85,565.542 1856.65,577.317 1860.46,534.652 1864.27,523.325 1868.07,599.976 1871.88,560.023 1875.68,549.926 1879.49,607.164 1883.29,564.892 1887.1,563.899 1890.9,532.939 1894.71,543.415 1898.52,499.798 1902.32,482.752 1906.13,521.104 1909.93,504.076 1913.74,481.914 1917.54,473.01 1921.35,449.373 1925.16,434.148 1928.96,437.953 1932.77,412.456 1936.57,391.342 1940.38,310.406 1944.18,302.969 1947.99,261.416 1951.8,210.587 1955.6,229.613 1959.41,188.685 1963.21,196.253 1967.02,146.715 1970.82,113.022 1974.63,161.496 1978.43,204.928 1982.24,111.042 1986.05,118.595 1989.85,108.962 1993.66,254.622 1997.46,303.869 2001.27,386.235 2005.07,355.997 2008.88,329.708 2012.69,396.721 2016.49,478.001 2020.3,451.666 2024.1,413.216 2027.91,385.451 2031.71,416.021 2035.52,421.527 2039.32,422.282 2043.13,399.549 2046.94,418.086 2050.74,382.932 2054.55,375.928 2058.35,322.265 2062.16,316.317 2065.96,263.234 2069.77,291.039 2073.58,300.54 2077.38,302.55 2081.19,238.499 2084.99,222.701 2088.8,203.078 2092.6,114.566 2096.41,146.054 2100.21,149.296 2104.02,186.973 2107.83,233.967 2111.63,164.446 2115.44,120.136 2119.24,174.572 2123.05,117.649 2126.85,86.1857 2130.66,150.782 2134.47,248.674 2138.27,227.753 2142.08,181.714 2145.88,149.442 2149.69,135.649 2153.49,93.7408 2157.3,142.791 2161.1,94.8558 2164.91,183.18 2168.72,191.84 2172.52,275.223 2176.33,251.89 2180.13,295.069 2183.94,340.581 2187.74,368.952 2191.55,341.866 2195.36,374.593 2199.16,342.953 2202.97,320.411 2206.77,444.44 2210.58,431.581 2214.38,468.528 2218.19,443.661 2221.99,479.133 2225.8,455.572 2229.61,460.594 2233.41,457.561 2237.22,474.108 2241.02,459.717 2244.83,475.298 2248.63,474.881 2252.44,483.799 2256.25,470.066 2260.05,400.536 2263.86,295.404 2267.66,351.327 2271.47,363.578 2275.27,291.822 2279.08,278.498 2282.88,261.573 2286.69,288.459 2290.5,266.565 2294.3,273.523 "/>
<path clip-path="url(#clip600)" d="M356.212 196.789 L866.685 196.789 L866.685 93.1086 L356.212 93.1086  Z" fill="#ffffff" fill-rule="evenodd" fill-opacity="1"/>
<polyline clip-path="url(#clip600)" style="stroke:#000000; stroke-linecap:round; stroke-linejoin:round; stroke-width:4; stroke-opacity:1; fill:none" points="356.212,196.789 866.685,196.789 866.685,93.1086 356.212,93.1086 356.212,196.789 "/>
<polyline clip-path="url(#clip600)" style="stroke:#e26f46; stroke-linecap:round; stroke-linejoin:round; stroke-width:8; stroke-opacity:1; fill:none" stroke-dasharray="32, 20" points="379.161,144.949 516.854,144.949 "/>
<path clip-path="url(#clip600)" d="M539.802 127.669 L544.525 127.669 L551.793 156.881 L559.038 127.669 L564.293 127.669 L571.562 156.881 L578.807 127.669 L583.552 127.669 L574.872 162.229 L568.992 162.229 L561.7 132.229 L554.339 162.229 L548.46 162.229 L539.802 127.669 Z" fill="#000000" fill-rule="nonzero" fill-opacity="1" /><path clip-path="url(#clip600)" d="M588.529 136.303 L592.788 136.303 L592.788 162.229 L588.529 162.229 L588.529 136.303 M588.529 126.21 L592.788 126.21 L592.788 131.604 L588.529 131.604 L588.529 126.21 Z" fill="#000000" fill-rule="nonzero" fill-opacity="1" /><path clip-path="url(#clip600)" d="M623.876 148.201 L623.876 150.284 L604.293 150.284 Q604.571 154.682 606.932 156.997 Q609.316 159.289 613.552 159.289 Q616.006 159.289 618.297 158.687 Q620.612 158.085 622.881 156.881 L622.881 160.909 Q620.589 161.881 618.182 162.391 Q615.774 162.9 613.297 162.9 Q607.094 162.9 603.46 159.289 Q599.848 155.678 599.848 149.52 Q599.848 143.155 603.274 139.428 Q606.723 135.678 612.557 135.678 Q617.788 135.678 620.821 139.057 Q623.876 142.414 623.876 148.201 M619.617 146.951 Q619.571 143.456 617.649 141.372 Q615.751 139.289 612.603 139.289 Q609.038 139.289 606.885 141.303 Q604.756 143.317 604.432 146.974 L619.617 146.951 Z" fill="#000000" fill-rule="nonzero" fill-opacity="1" /><path clip-path="url(#clip600)" d="M652.418 146.581 L652.418 162.229 L648.158 162.229 L648.158 146.719 Q648.158 143.039 646.723 141.21 Q645.288 139.382 642.418 139.382 Q638.969 139.382 636.978 141.581 Q634.987 143.78 634.987 147.576 L634.987 162.229 L630.705 162.229 L630.705 136.303 L634.987 136.303 L634.987 140.331 Q636.515 137.993 638.575 136.835 Q640.658 135.678 643.367 135.678 Q647.834 135.678 650.126 138.456 Q652.418 141.21 652.418 146.581 Z" fill="#000000" fill-rule="nonzero" fill-opacity="1" /><path clip-path="url(#clip600)" d="M683.089 148.201 L683.089 150.284 L663.506 150.284 Q663.783 154.682 666.144 156.997 Q668.529 159.289 672.765 159.289 Q675.218 159.289 677.51 158.687 Q679.825 158.085 682.093 156.881 L682.093 160.909 Q679.802 161.881 677.394 162.391 Q674.987 162.9 672.51 162.9 Q666.306 162.9 662.672 159.289 Q659.061 155.678 659.061 149.52 Q659.061 143.155 662.487 139.428 Q665.936 135.678 671.769 135.678 Q677.001 135.678 680.033 139.057 Q683.089 142.414 683.089 148.201 M678.829 146.951 Q678.783 143.456 676.862 141.372 Q674.964 139.289 671.816 139.289 Q668.251 139.289 666.098 141.303 Q663.968 143.317 663.644 146.974 L678.829 146.951 Z" fill="#000000" fill-rule="nonzero" fill-opacity="1" /><path clip-path="url(#clip600)" d="M705.103 140.284 Q704.385 139.868 703.528 139.682 Q702.695 139.474 701.677 139.474 Q698.066 139.474 696.121 141.835 Q694.2 144.173 694.2 148.571 L694.2 162.229 L689.917 162.229 L689.917 136.303 L694.2 136.303 L694.2 140.331 Q695.542 137.969 697.695 136.835 Q699.848 135.678 702.927 135.678 Q703.366 135.678 703.899 135.747 Q704.431 135.794 705.079 135.909 L705.103 140.284 Z" fill="#000000" fill-rule="nonzero" fill-opacity="1" /><path clip-path="url(#clip600)" d="M746.19 146.581 L746.19 162.229 L741.931 162.229 L741.931 146.719 Q741.931 143.039 740.496 141.21 Q739.061 139.382 736.19 139.382 Q732.741 139.382 730.751 141.581 Q728.76 143.78 728.76 147.576 L728.76 162.229 L724.477 162.229 L724.477 136.303 L728.76 136.303 L728.76 140.331 Q730.288 137.993 732.348 136.835 Q734.431 135.678 737.139 135.678 Q741.607 135.678 743.899 138.456 Q746.19 141.21 746.19 146.581 Z" fill="#000000" fill-rule="nonzero" fill-opacity="1" /><path clip-path="url(#clip600)" d="M764.732 139.289 Q761.306 139.289 759.315 141.974 Q757.324 144.636 757.324 149.289 Q757.324 153.942 759.292 156.627 Q761.283 159.289 764.732 159.289 Q768.135 159.289 770.125 156.604 Q772.116 153.918 772.116 149.289 Q772.116 144.682 770.125 141.997 Q768.135 139.289 764.732 139.289 M764.732 135.678 Q770.287 135.678 773.459 139.289 Q776.63 142.9 776.63 149.289 Q776.63 155.655 773.459 159.289 Q770.287 162.9 764.732 162.9 Q759.153 162.9 755.982 159.289 Q752.834 155.655 752.834 149.289 Q752.834 142.9 755.982 139.289 Q759.153 135.678 764.732 135.678 Z" fill="#000000" fill-rule="nonzero" fill-opacity="1" /><path clip-path="url(#clip600)" d="M783.69 136.303 L787.949 136.303 L787.949 162.229 L783.69 162.229 L783.69 136.303 M783.69 126.21 L787.949 126.21 L787.949 131.604 L783.69 131.604 L783.69 126.21 Z" fill="#000000" fill-rule="nonzero" fill-opacity="1" /><path clip-path="url(#clip600)" d="M813.389 137.067 L813.389 141.094 Q811.583 140.169 809.639 139.706 Q807.695 139.243 805.611 139.243 Q802.44 139.243 800.843 140.215 Q799.269 141.187 799.269 143.131 Q799.269 144.613 800.403 145.469 Q801.537 146.303 804.963 147.067 L806.421 147.391 Q810.958 148.363 812.857 150.145 Q814.778 151.905 814.778 155.076 Q814.778 158.687 811.907 160.793 Q809.06 162.9 804.06 162.9 Q801.977 162.9 799.708 162.483 Q797.463 162.09 794.963 161.28 L794.963 156.881 Q797.324 158.108 799.616 158.733 Q801.908 159.335 804.153 159.335 Q807.162 159.335 808.783 158.317 Q810.403 157.275 810.403 155.4 Q810.403 153.664 809.222 152.738 Q808.065 151.812 804.107 150.956 L802.625 150.608 Q798.667 149.775 796.908 148.062 Q795.148 146.326 795.148 143.317 Q795.148 139.659 797.741 137.669 Q800.333 135.678 805.102 135.678 Q807.463 135.678 809.546 136.025 Q811.63 136.372 813.389 137.067 Z" fill="#000000" fill-rule="nonzero" fill-opacity="1" /><path clip-path="url(#clip600)" d="M843.736 148.201 L843.736 150.284 L824.153 150.284 Q824.431 154.682 826.792 156.997 Q829.176 159.289 833.412 159.289 Q835.866 159.289 838.157 158.687 Q840.472 158.085 842.741 156.881 L842.741 160.909 Q840.449 161.881 838.042 162.391 Q835.634 162.9 833.157 162.9 Q826.954 162.9 823.319 159.289 Q819.708 155.678 819.708 149.52 Q819.708 143.155 823.134 139.428 Q826.583 135.678 832.417 135.678 Q837.648 135.678 840.68 139.057 Q843.736 142.414 843.736 148.201 M839.477 146.951 Q839.43 143.456 837.509 141.372 Q835.611 139.289 832.463 139.289 Q828.898 139.289 826.745 141.303 Q824.616 143.317 824.292 146.974 L839.477 146.951 Z" fill="#000000" fill-rule="nonzero" fill-opacity="1" /></svg>
