<?xml version="1.0" encoding="utf-8"?>
<svg xmlns="http://www.w3.org/2000/svg" xmlns:xlink="http://www.w3.org/1999/xlink" width="600" height="400" viewBox="0 0 2400 1600">
<defs>
  <clipPath id="clip080">
    <rect x="0" y="0" width="2400" height="1600"/>
  </clipPath>
</defs>
<path clip-path="url(#clip080)" d="M0 1600 L2400 1600 L2400 0 L0 0  Z" fill="#ffffff" fill-rule="evenodd" fill-opacity="1"/>
<defs>
  <clipPath id="clip081">
    <rect x="480" y="0" width="1681" height="1600"/>
  </clipPath>
</defs>
<path clip-path="url(#clip080)" d="M289.119 1410.9 L2352.76 1410.9 L2352.76 47.2441 L289.119 47.2441  Z" fill="#ffffff" fill-rule="evenodd" fill-opacity="1"/>
<defs>
  <clipPath id="clip082">
    <rect x="289" y="47" width="2065" height="1365"/>
  </clipPath>
</defs>
<polyline clip-path="url(#clip082)" style="stroke:#000000; stroke-linecap:round; stroke-linejoin:round; stroke-width:2; stroke-opacity:0.1; fill:none" points="798.656,1410.9 798.656,47.2441 "/>
<polyline clip-path="url(#clip082)" style="stroke:#000000; stroke-linecap:round; stroke-linejoin:round; stroke-width:2; stroke-opacity:0.1; fill:none" points="1337.59,1410.9 1337.59,47.2441 "/>
<polyline clip-path="url(#clip082)" style="stroke:#000000; stroke-linecap:round; stroke-linejoin:round; stroke-width:2; stroke-opacity:0.1; fill:none" points="1876.53,1410.9 1876.53,47.2441 "/>
<polyline clip-path="url(#clip080)" style="stroke:#000000; stroke-linecap:round; stroke-linejoin:round; stroke-width:4; stroke-opacity:1; fill:none" points="289.119,1410.9 2352.76,1410.9 "/>
<polyline clip-path="url(#clip080)" style="stroke:#000000; stroke-linecap:round; stroke-linejoin:round; stroke-width:4; stroke-opacity:1; fill:none" points="798.656,1410.9 798.656,1392 "/>
<polyline clip-path="url(#clip080)" style="stroke:#000000; stroke-linecap:round; stroke-linejoin:round; stroke-width:4; stroke-opacity:1; fill:none" points="1337.59,1410.9 1337.59,1392 "/>
<polyline clip-path="url(#clip080)" style="stroke:#000000; stroke-linecap:round; stroke-linejoin:round; stroke-width:4; stroke-opacity:1; fill:none" points="1876.53,1410.9 1876.53,1392 "/>
<path clip-path="url(#clip080)" d="M717.644 1485.02 L725.283 1485.02 L725.283 1458.66 L716.973 1460.32 L716.973 1456.06 L725.237 1454.4 L729.913 1454.4 L729.913 1485.02 L737.551 1485.02 L737.551 1488.96 L717.644 1488.96 L717.644 1485.02 Z" fill="#000000" fill-rule="nonzero" fill-opacity="1" /><path clip-path="url(#clip080)" d="M756.996 1457.48 Q753.385 1457.48 751.556 1461.04 Q749.75 1464.58 749.75 1471.71 Q749.75 1478.82 751.556 1482.38 Q753.385 1485.92 756.996 1485.92 Q760.63 1485.92 762.436 1482.38 Q764.264 1478.82 764.264 1471.71 Q764.264 1464.58 762.436 1461.04 Q760.63 1457.48 756.996 1457.48 M756.996 1453.77 Q762.806 1453.77 765.861 1458.38 Q768.94 1462.96 768.94 1471.71 Q768.94 1480.44 765.861 1485.04 Q762.806 1489.63 756.996 1489.63 Q751.186 1489.63 748.107 1485.04 Q745.051 1480.44 745.051 1471.71 Q745.051 1462.96 748.107 1458.38 Q751.186 1453.77 756.996 1453.77 Z" fill="#000000" fill-rule="nonzero" fill-opacity="1" /><path clip-path="url(#clip080)" d="M768.94 1447.87 L793.052 1447.87 L793.052 1451.07 L768.94 1451.07 L768.94 1447.87 Z" fill="#000000" fill-rule="nonzero" fill-opacity="1" /><path clip-path="url(#clip080)" d="M804.524 1458.35 L817.784 1458.35 L817.784 1461.55 L799.954 1461.55 L799.954 1458.35 Q802.117 1456.11 805.841 1452.35 Q809.584 1448.57 810.543 1447.48 Q812.367 1445.43 813.082 1444.02 Q813.816 1442.59 813.816 1441.22 Q813.816 1438.98 812.236 1437.57 Q810.675 1436.16 808.154 1436.16 Q806.368 1436.16 804.374 1436.78 Q802.399 1437.4 800.142 1438.66 L800.142 1434.82 Q802.437 1433.9 804.43 1433.43 Q806.424 1432.96 808.079 1432.96 Q812.443 1432.96 815.038 1435.14 Q817.633 1437.32 817.633 1440.97 Q817.633 1442.7 816.975 1444.26 Q816.336 1445.8 814.624 1447.91 Q814.154 1448.46 811.634 1451.07 Q809.114 1453.67 804.524 1458.35 Z" fill="#000000" fill-rule="nonzero" fill-opacity="1" /><path clip-path="url(#clip080)" d="M825.758 1456.77 L829.727 1456.77 L829.727 1461.55 L825.758 1461.55 L825.758 1456.77 Z" fill="#000000" fill-rule="nonzero" fill-opacity="1" /><path clip-path="url(#clip080)" d="M838.04 1433.47 L852.954 1433.47 L852.954 1436.66 L841.519 1436.66 L841.519 1443.55 Q842.347 1443.27 843.174 1443.13 Q844.002 1442.98 844.83 1442.98 Q849.531 1442.98 852.277 1445.56 Q855.023 1448.14 855.023 1452.54 Q855.023 1457.07 852.202 1459.59 Q849.381 1462.09 844.246 1462.09 Q842.479 1462.09 840.635 1461.79 Q838.811 1461.49 836.855 1460.89 L836.855 1457.07 Q838.548 1457.99 840.353 1458.44 Q842.159 1458.89 844.171 1458.89 Q847.425 1458.89 849.325 1457.18 Q851.224 1455.47 851.224 1452.54 Q851.224 1449.6 849.325 1447.89 Q847.425 1446.18 844.171 1446.18 Q842.648 1446.18 841.124 1446.52 Q839.62 1446.86 838.04 1447.57 L838.04 1433.47 Z" fill="#000000" fill-rule="nonzero" fill-opacity="1" /><path clip-path="url(#clip080)" d="M870.634 1435.97 Q867.7 1435.97 866.214 1438.86 Q864.747 1441.74 864.747 1447.53 Q864.747 1453.31 866.214 1456.2 Q867.7 1459.08 870.634 1459.08 Q873.587 1459.08 875.054 1456.2 Q876.539 1453.31 876.539 1447.53 Q876.539 1441.74 875.054 1438.86 Q873.587 1435.97 870.634 1435.97 M870.634 1432.96 Q875.355 1432.96 877.837 1436.7 Q880.339 1440.43 880.339 1447.53 Q880.339 1454.62 877.837 1458.37 Q875.355 1462.09 870.634 1462.09 Q865.913 1462.09 863.412 1458.37 Q860.929 1454.62 860.929 1447.53 Q860.929 1440.43 863.412 1436.7 Q865.913 1432.96 870.634 1432.96 Z" fill="#000000" fill-rule="nonzero" fill-opacity="1" /><path clip-path="url(#clip080)" d="M1256.98 1485.02 L1264.62 1485.02 L1264.62 1458.66 L1256.31 1460.32 L1256.31 1456.06 L1264.58 1454.4 L1269.25 1454.4 L1269.25 1485.02 L1276.89 1485.02 L1276.89 1488.96 L1256.98 1488.96 L1256.98 1485.02 Z" fill="#000000" fill-rule="nonzero" fill-opacity="1" /><path clip-path="url(#clip080)" d="M1296.34 1457.48 Q1292.72 1457.48 1290.9 1461.04 Q1289.09 1464.58 1289.09 1471.71 Q1289.09 1478.82 1290.9 1482.38 Q1292.72 1485.92 1296.34 1485.92 Q1299.97 1485.92 1301.77 1482.38 Q1303.6 1478.82 1303.6 1471.71 Q1303.6 1464.58 1301.77 1461.04 Q1299.97 1457.48 1296.34 1457.48 M1296.34 1453.77 Q1302.15 1453.77 1305.2 1458.38 Q1308.28 1462.96 1308.28 1471.71 Q1308.28 1480.44 1305.2 1485.04 Q1302.15 1489.63 1296.34 1489.63 Q1290.52 1489.63 1287.45 1485.04 Q1284.39 1480.44 1284.39 1471.71 Q1284.39 1462.96 1287.45 1458.38 Q1290.52 1453.77 1296.34 1453.77 Z" fill="#000000" fill-rule="nonzero" fill-opacity="1" /><path clip-path="url(#clip080)" d="M1308.28 1447.87 L1332.39 1447.87 L1332.39 1451.07 L1308.28 1451.07 L1308.28 1447.87 Z" fill="#000000" fill-rule="nonzero" fill-opacity="1" /><path clip-path="url(#clip080)" d="M1343.86 1458.35 L1357.12 1458.35 L1357.12 1461.55 L1339.29 1461.55 L1339.29 1458.35 Q1341.46 1456.11 1345.18 1452.35 Q1348.92 1448.57 1349.88 1447.48 Q1351.71 1445.43 1352.42 1444.02 Q1353.15 1442.59 1353.15 1441.22 Q1353.15 1438.98 1351.57 1437.57 Q1350.01 1436.16 1347.49 1436.16 Q1345.71 1436.16 1343.71 1436.78 Q1341.74 1437.4 1339.48 1438.66 L1339.48 1434.82 Q1341.78 1433.9 1343.77 1433.43 Q1345.76 1432.96 1347.42 1432.96 Q1351.78 1432.96 1354.38 1435.14 Q1356.97 1437.32 1356.97 1440.97 Q1356.97 1442.7 1356.31 1444.26 Q1355.68 1445.8 1353.96 1447.91 Q1353.49 1448.46 1350.97 1451.07 Q1348.45 1453.67 1343.86 1458.35 Z" fill="#000000" fill-rule="nonzero" fill-opacity="1" /><path clip-path="url(#clip080)" d="M1365.1 1456.77 L1369.07 1456.77 L1369.07 1461.55 L1365.1 1461.55 L1365.1 1456.77 Z" fill="#000000" fill-rule="nonzero" fill-opacity="1" /><path clip-path="url(#clip080)" d="M1380.61 1458.35 L1393.87 1458.35 L1393.87 1461.55 L1376.04 1461.55 L1376.04 1458.35 Q1378.21 1456.11 1381.93 1452.35 Q1385.67 1448.57 1386.63 1447.48 Q1388.46 1445.43 1389.17 1444.02 Q1389.91 1442.59 1389.91 1441.22 Q1389.91 1438.98 1388.33 1437.57 Q1386.76 1436.16 1384.24 1436.16 Q1382.46 1436.16 1380.46 1436.78 Q1378.49 1437.4 1376.23 1438.66 L1376.23 1434.82 Q1378.53 1433.9 1380.52 1433.43 Q1382.51 1432.96 1384.17 1432.96 Q1388.53 1432.96 1391.13 1435.14 Q1393.72 1437.32 1393.72 1440.97 Q1393.72 1442.7 1393.06 1444.26 Q1392.43 1445.8 1390.71 1447.91 Q1390.24 1448.46 1387.72 1451.07 Q1385.2 1453.67 1380.61 1458.35 Z" fill="#000000" fill-rule="nonzero" fill-opacity="1" /><path clip-path="url(#clip080)" d="M1401.89 1433.47 L1416.8 1433.47 L1416.8 1436.66 L1405.37 1436.66 L1405.37 1443.55 Q1406.19 1443.27 1407.02 1443.13 Q1407.85 1442.98 1408.68 1442.98 Q1413.38 1442.98 1416.12 1445.56 Q1418.87 1448.14 1418.87 1452.54 Q1418.87 1457.07 1416.05 1459.59 Q1413.23 1462.09 1408.09 1462.09 Q1406.32 1462.09 1404.48 1461.79 Q1402.66 1461.49 1400.7 1460.89 L1400.7 1457.07 Q1402.39 1457.99 1404.2 1458.44 Q1406 1458.89 1408.02 1458.89 Q1411.27 1458.89 1413.17 1457.18 Q1415.07 1455.47 1415.07 1452.54 Q1415.07 1449.6 1413.17 1447.89 Q1411.27 1446.18 1408.02 1446.18 Q1406.49 1446.18 1404.97 1446.52 Q1403.47 1446.86 1401.89 1447.57 L1401.89 1433.47 Z" fill="#000000" fill-rule="nonzero" fill-opacity="1" /><path clip-path="url(#clip080)" d="M1795.51 1485.02 L1803.15 1485.02 L1803.15 1458.66 L1794.84 1460.32 L1794.84 1456.06 L1803.11 1454.4 L1807.78 1454.4 L1807.78 1485.02 L1815.42 1485.02 L1815.42 1488.96 L1795.51 1488.96 L1795.51 1485.02 Z" fill="#000000" fill-rule="nonzero" fill-opacity="1" /><path clip-path="url(#clip080)" d="M1834.87 1457.48 Q1831.25 1457.48 1829.43 1461.04 Q1827.62 1464.58 1827.62 1471.71 Q1827.62 1478.82 1829.43 1482.38 Q1831.25 1485.92 1834.87 1485.92 Q1838.5 1485.92 1840.31 1482.38 Q1842.13 1478.82 1842.13 1471.71 Q1842.13 1464.58 1840.31 1461.04 Q1838.5 1457.48 1834.87 1457.48 M1834.87 1453.77 Q1840.68 1453.77 1843.73 1458.38 Q1846.81 1462.96 1846.81 1471.71 Q1846.81 1480.44 1843.73 1485.04 Q1840.68 1489.63 1834.87 1489.63 Q1829.06 1489.63 1825.98 1485.04 Q1822.92 1480.44 1822.92 1471.71 Q1822.92 1462.96 1825.98 1458.38 Q1829.06 1453.77 1834.87 1453.77 Z" fill="#000000" fill-rule="nonzero" fill-opacity="1" /><path clip-path="url(#clip080)" d="M1846.81 1447.87 L1870.92 1447.87 L1870.92 1451.07 L1846.81 1451.07 L1846.81 1447.87 Z" fill="#000000" fill-rule="nonzero" fill-opacity="1" /><path clip-path="url(#clip080)" d="M1882.39 1458.35 L1895.65 1458.35 L1895.65 1461.55 L1877.82 1461.55 L1877.82 1458.35 Q1879.99 1456.11 1883.71 1452.35 Q1887.45 1448.57 1888.41 1447.48 Q1890.24 1445.43 1890.95 1444.02 Q1891.69 1442.59 1891.69 1441.22 Q1891.69 1438.98 1890.11 1437.57 Q1888.54 1436.16 1886.02 1436.16 Q1884.24 1436.16 1882.24 1436.78 Q1880.27 1437.4 1878.01 1438.66 L1878.01 1434.82 Q1880.31 1433.9 1882.3 1433.43 Q1884.29 1432.96 1885.95 1432.96 Q1890.31 1432.96 1892.91 1435.14 Q1895.5 1437.32 1895.5 1440.97 Q1895.5 1442.7 1894.85 1444.26 Q1894.21 1445.8 1892.49 1447.91 Q1892.02 1448.46 1889.5 1451.07 Q1886.98 1453.67 1882.39 1458.35 Z" fill="#000000" fill-rule="nonzero" fill-opacity="1" /><path clip-path="url(#clip080)" d="M1903.63 1456.77 L1907.6 1456.77 L1907.6 1461.55 L1903.63 1461.55 L1903.63 1456.77 Z" fill="#000000" fill-rule="nonzero" fill-opacity="1" /><path clip-path="url(#clip080)" d="M1924 1435.97 Q1921.06 1435.97 1919.58 1438.86 Q1918.11 1441.74 1918.11 1447.53 Q1918.11 1453.31 1919.58 1456.2 Q1921.06 1459.08 1924 1459.08 Q1926.95 1459.08 1928.42 1456.2 Q1929.9 1453.31 1929.9 1447.53 Q1929.9 1441.74 1928.42 1438.86 Q1926.95 1435.97 1924 1435.97 M1924 1432.96 Q1928.72 1432.96 1931.2 1436.7 Q1933.7 1440.43 1933.7 1447.53 Q1933.7 1454.62 1931.2 1458.37 Q1928.72 1462.09 1924 1462.09 Q1919.28 1462.09 1916.77 1458.37 Q1914.29 1454.62 1914.29 1447.53 Q1914.29 1440.43 1916.77 1436.7 Q1919.28 1432.96 1924 1432.96 Z" fill="#000000" fill-rule="nonzero" fill-opacity="1" /><path clip-path="url(#clip080)" d="M1948.5 1435.97 Q1945.57 1435.97 1944.08 1438.86 Q1942.62 1441.74 1942.62 1447.53 Q1942.62 1453.31 1944.08 1456.2 Q1945.57 1459.08 1948.5 1459.08 Q1951.46 1459.08 1952.92 1456.2 Q1954.41 1453.31 1954.41 1447.53 Q1954.41 1441.74 1952.92 1438.86 Q1951.46 1435.97 1948.5 1435.97 M1948.5 1432.96 Q1953.22 1432.96 1955.71 1436.7 Q1958.21 1440.43 1958.21 1447.53 Q1958.21 1454.62 1955.71 1458.37 Q1953.22 1462.09 1948.5 1462.09 Q1943.78 1462.09 1941.28 1458.37 Q1938.8 1454.62 1938.8 1447.53 Q1938.8 1440.43 1941.28 1436.7 Q1943.78 1432.96 1948.5 1432.96 Z" fill="#000000" fill-rule="nonzero" fill-opacity="1" /><path clip-path="url(#clip080)" d="M1282.49 1568.04 Q1282.49 1567.79 1283.36 1566.11 Q1284.22 1564.41 1287.28 1558.32 Q1290.34 1552.2 1293.5 1545.79 L1304.87 1522.92 Q1305.67 1521.48 1306.7 1521.48 Q1307.64 1521.48 1308.06 1522.05 Q1308.48 1522.63 1310.41 1526.53 Q1311.41 1528.43 1311.99 1529.66 L1330.63 1566.98 Q1330.96 1567.79 1330.99 1568.04 Q1330.99 1568.69 1329.86 1568.69 L1284.22 1568.69 Q1282.49 1568.69 1282.49 1568.04 M1286.83 1563.66 L1322.32 1563.66 L1304.58 1528.05 L1286.83 1563.66 Z" fill="#000000" fill-rule="nonzero" fill-opacity="1" /><path clip-path="url(#clip080)" d="M1356.07 1540.99 Q1356.07 1541.89 1355.66 1542.12 Q1355.24 1542.31 1354.08 1542.31 L1347.89 1542.31 L1343 1561.76 Q1342.61 1563.47 1342.61 1564.92 Q1342.61 1566.53 1343.1 1567.24 Q1343.61 1567.95 1344.67 1567.95 Q1346.77 1567.95 1349.02 1566.05 Q1351.31 1564.15 1353.24 1559.51 Q1353.5 1558.9 1353.63 1558.77 Q1353.79 1558.61 1354.21 1558.61 Q1355.01 1558.61 1355.01 1559.25 Q1355.01 1559.48 1354.56 1560.51 Q1354.14 1561.54 1353.21 1563.05 Q1352.31 1564.57 1351.11 1565.98 Q1349.95 1567.4 1348.18 1568.43 Q1346.41 1569.43 1344.51 1569.43 Q1341.84 1569.43 1340.13 1567.72 Q1338.46 1566.02 1338.46 1563.34 Q1338.46 1562.47 1339.13 1559.7 Q1339.81 1556.9 1343.48 1542.31 L1337.65 1542.31 Q1336.85 1542.31 1336.53 1542.28 Q1336.24 1542.25 1336.01 1542.09 Q1335.82 1541.89 1335.82 1541.51 Q1335.82 1540.9 1336.07 1540.64 Q1336.33 1540.35 1336.65 1540.32 Q1337.01 1540.25 1337.81 1540.25 L1344 1540.25 L1346.57 1529.78 Q1346.83 1528.75 1347.48 1528.17 Q1348.15 1527.56 1348.54 1527.5 Q1348.92 1527.4 1349.21 1527.4 Q1350.08 1527.4 1350.6 1527.88 Q1351.11 1528.34 1351.11 1529.17 Q1351.11 1529.62 1348.41 1540.25 L1354.21 1540.25 Q1354.95 1540.25 1355.24 1540.28 Q1355.56 1540.32 1355.82 1540.48 Q1356.07 1540.64 1356.07 1540.99 Z" fill="#000000" fill-rule="nonzero" fill-opacity="1" /><polyline clip-path="url(#clip082)" style="stroke:#000000; stroke-linecap:round; stroke-linejoin:round; stroke-width:2; stroke-opacity:0.1; fill:none" points="289.119,1108.78 2352.76,1108.78 "/>
<polyline clip-path="url(#clip082)" style="stroke:#000000; stroke-linecap:round; stroke-linejoin:round; stroke-width:2; stroke-opacity:0.1; fill:none" points="289.119,523.427 2352.76,523.427 "/>
<polyline clip-path="url(#clip080)" style="stroke:#000000; stroke-linecap:round; stroke-linejoin:round; stroke-width:4; stroke-opacity:1; fill:none" points="289.119,1410.9 289.119,47.2441 "/>
<polyline clip-path="url(#clip080)" style="stroke:#000000; stroke-linecap:round; stroke-linejoin:round; stroke-width:4; stroke-opacity:1; fill:none" points="289.119,1108.78 308.017,1108.78 "/>
<polyline clip-path="url(#clip080)" style="stroke:#000000; stroke-linecap:round; stroke-linejoin:round; stroke-width:4; stroke-opacity:1; fill:none" points="289.119,523.427 308.017,523.427 "/>
<path clip-path="url(#clip080)" d="M115.74 1128.57 L123.379 1128.57 L123.379 1102.21 L115.069 1103.87 L115.069 1099.61 L123.333 1097.95 L128.009 1097.95 L128.009 1128.57 L135.647 1128.57 L135.647 1132.51 L115.74 1132.51 L115.74 1128.57 Z" fill="#000000" fill-rule="nonzero" fill-opacity="1" /><path clip-path="url(#clip080)" d="M155.092 1101.03 Q151.481 1101.03 149.652 1104.59 Q147.846 1108.13 147.846 1115.26 Q147.846 1122.37 149.652 1125.93 Q151.481 1129.48 155.092 1129.48 Q158.726 1129.48 160.532 1125.93 Q162.36 1122.37 162.36 1115.26 Q162.36 1108.13 160.532 1104.59 Q158.726 1101.03 155.092 1101.03 M155.092 1097.32 Q160.902 1097.32 163.958 1101.93 Q167.036 1106.51 167.036 1115.26 Q167.036 1123.99 163.958 1128.6 Q160.902 1133.18 155.092 1133.18 Q149.282 1133.18 146.203 1128.6 Q143.147 1123.99 143.147 1115.26 Q143.147 1106.51 146.203 1101.93 Q149.282 1097.32 155.092 1097.32 Z" fill="#000000" fill-rule="nonzero" fill-opacity="1" /><path clip-path="url(#clip080)" d="M167.036 1091.42 L191.148 1091.42 L191.148 1094.62 L167.036 1094.62 L167.036 1091.42 Z" fill="#000000" fill-rule="nonzero" fill-opacity="1" /><path clip-path="url(#clip080)" d="M200.006 1101.9 L206.213 1101.9 L206.213 1080.48 L199.461 1081.83 L199.461 1078.37 L206.175 1077.02 L209.974 1077.02 L209.974 1101.9 L216.181 1101.9 L216.181 1105.1 L200.006 1105.1 L200.006 1101.9 Z" fill="#000000" fill-rule="nonzero" fill-opacity="1" /><path clip-path="url(#clip080)" d="M223.854 1100.32 L227.823 1100.32 L227.823 1105.1 L223.854 1105.1 L223.854 1100.32 Z" fill="#000000" fill-rule="nonzero" fill-opacity="1" /><path clip-path="url(#clip080)" d="M236.136 1077.02 L251.051 1077.02 L251.051 1080.21 L239.615 1080.21 L239.615 1087.1 Q240.443 1086.82 241.27 1086.68 Q242.098 1086.53 242.926 1086.53 Q247.627 1086.53 250.373 1089.11 Q253.119 1091.69 253.119 1096.09 Q253.119 1100.62 250.298 1103.14 Q247.477 1105.64 242.343 1105.64 Q240.575 1105.64 238.731 1105.34 Q236.907 1105.04 234.951 1104.44 L234.951 1100.62 Q236.644 1101.54 238.449 1101.99 Q240.255 1102.45 242.267 1102.45 Q245.521 1102.45 247.421 1100.73 Q249.32 1099.02 249.32 1096.09 Q249.32 1093.15 247.421 1091.44 Q245.521 1089.73 242.267 1089.73 Q240.744 1089.73 239.22 1090.07 Q237.716 1090.41 236.136 1091.12 L236.136 1077.02 Z" fill="#000000" fill-rule="nonzero" fill-opacity="1" /><path clip-path="url(#clip080)" d="M114.931 543.219 L122.57 543.219 L122.57 516.854 L114.26 518.52 L114.26 514.261 L122.524 512.595 L127.2 512.595 L127.2 543.219 L134.839 543.219 L134.839 547.155 L114.931 547.155 L114.931 543.219 Z" fill="#000000" fill-rule="nonzero" fill-opacity="1" /><path clip-path="url(#clip080)" d="M154.283 515.673 Q150.672 515.673 148.843 519.238 Q147.038 522.78 147.038 529.909 Q147.038 537.016 148.843 540.581 Q150.672 544.122 154.283 544.122 Q157.917 544.122 159.723 540.581 Q161.552 537.016 161.552 529.909 Q161.552 522.78 159.723 519.238 Q157.917 515.673 154.283 515.673 M154.283 511.97 Q160.093 511.97 163.149 516.576 Q166.227 521.159 166.227 529.909 Q166.227 538.636 163.149 543.243 Q160.093 547.826 154.283 547.826 Q148.473 547.826 145.394 543.243 Q142.339 538.636 142.339 529.909 Q142.339 521.159 145.394 516.576 Q148.473 511.97 154.283 511.97 Z" fill="#000000" fill-rule="nonzero" fill-opacity="1" /><path clip-path="url(#clip080)" d="M166.227 506.071 L190.339 506.071 L190.339 509.268 L166.227 509.268 L166.227 506.071 Z" fill="#000000" fill-rule="nonzero" fill-opacity="1" /><path clip-path="url(#clip080)" d="M199.197 516.547 L205.404 516.547 L205.404 495.125 L198.652 496.479 L198.652 493.018 L205.366 491.664 L209.166 491.664 L209.166 516.547 L215.372 516.547 L215.372 519.744 L199.197 519.744 L199.197 516.547 Z" fill="#000000" fill-rule="nonzero" fill-opacity="1" /><path clip-path="url(#clip080)" d="M223.046 514.967 L227.014 514.967 L227.014 519.744 L223.046 519.744 L223.046 514.967 Z" fill="#000000" fill-rule="nonzero" fill-opacity="1" /><path clip-path="url(#clip080)" d="M243.415 494.166 Q240.481 494.166 238.995 497.062 Q237.528 499.94 237.528 505.732 Q237.528 511.506 238.995 514.403 Q240.481 517.28 243.415 517.28 Q246.367 517.28 247.834 514.403 Q249.32 511.506 249.32 505.732 Q249.32 499.94 247.834 497.062 Q246.367 494.166 243.415 494.166 M243.415 491.156 Q248.135 491.156 250.618 494.899 Q253.119 498.623 253.119 505.732 Q253.119 512.823 250.618 516.566 Q248.135 520.29 243.415 520.29 Q238.694 520.29 236.192 516.566 Q233.71 512.823 233.71 505.732 Q233.71 498.623 236.192 494.899 Q238.694 491.156 243.415 491.156 Z" fill="#000000" fill-rule="nonzero" fill-opacity="1" /><path clip-path="url(#clip080)" d="M49.4968 798.693 Q43.281 798.693 38.8688 794.699 Q34.4566 790.706 34.4566 784.973 Q34.4566 779.176 38.2247 776.181 Q41.9928 773.154 47.4034 773.154 Q48.4018 773.154 48.595 773.411 Q48.7882 773.669 48.7882 774.796 L48.7882 793.218 Q55.5192 793.218 58.6754 791.221 Q63.0876 788.451 63.0876 783.782 Q63.0876 783.138 62.9588 782.365 Q62.83 781.592 62.2825 780.014 Q61.7028 778.435 60.1891 777.051 Q58.6754 775.666 56.2922 774.861 Q55.3582 774.667 55.3904 774.023 Q55.3904 773.154 56.1634 773.154 Q56.7431 773.154 58.0635 773.798 Q59.3517 774.41 60.8976 775.601 Q62.4435 776.793 63.6029 779.112 Q64.7623 781.398 64.7623 784.168 Q64.7623 789.965 60.3823 794.345 Q55.9701 798.693 49.4968 798.693 M47.4034 793.154 L47.4034 777.502 Q46.0185 777.502 44.4726 777.759 Q42.9268 777.985 40.8012 778.693 Q38.6434 779.369 37.2907 780.98 Q35.9381 782.59 35.9381 784.973 Q35.9381 786.036 36.389 787.195 Q36.8398 788.323 37.9348 789.708 Q39.0298 791.092 41.5097 792.059 Q43.9895 793.025 47.4034 793.154 Z" fill="#000000" fill-rule="nonzero" fill-opacity="1" /><path clip-path="url(#clip080)" d="M64.0216 771.017 L61.9926 771.017 Q61.9926 767.507 61.5739 766.702 Q61.1231 765.864 58.9975 765.864 L41.3165 765.864 Q38.8688 765.864 38.2569 766.734 Q37.645 767.571 37.645 771.017 L35.5838 771.017 L34.8753 761.839 L42.1216 761.839 Q39.2875 760.905 37.0975 758.94 Q34.8753 756.943 34.8753 753.723 Q34.8753 751.597 36.0669 750.244 Q37.2585 748.86 38.901 748.86 Q40.3503 748.86 41.091 749.761 Q41.7996 750.631 41.7996 751.694 Q41.7996 752.885 41.0588 753.723 Q40.2859 754.528 38.9654 754.528 Q38.1603 754.528 37.5484 754.174 Q36.9043 753.787 36.6788 753.497 Q36.4534 753.207 36.389 753.014 Q36.3246 753.143 36.3246 753.723 Q36.3246 757.362 39.9638 759.455 Q43.5709 761.517 48.7238 761.517 L58.8687 761.517 Q60.7688 761.517 61.3807 760.744 Q61.9926 759.938 61.9926 756.492 L61.9926 755.108 L64.0216 755.108 Q63.8284 757.748 63.8284 763.481 Q63.8284 764.286 63.8606 765.542 Q63.8928 766.798 63.9572 768.441 Q64.0216 770.083 64.0216 771.017 Z" fill="#000000" fill-rule="nonzero" fill-opacity="1" /><path clip-path="url(#clip080)" d="M64.0216 744.136 L61.9926 744.136 Q61.9926 740.626 61.5739 739.821 Q61.1231 738.983 58.9975 738.983 L41.3165 738.983 Q38.8688 738.983 38.2569 739.853 Q37.645 740.69 37.645 744.136 L35.5838 744.136 L34.8753 734.958 L42.1216 734.958 Q39.2875 734.024 37.0975 732.059 Q34.8753 730.062 34.8753 726.842 Q34.8753 724.716 36.0669 723.364 Q37.2585 721.979 38.901 721.979 Q40.3503 721.979 41.091 722.881 Q41.7996 723.75 41.7996 724.813 Q41.7996 726.005 41.0588 726.842 Q40.2859 727.647 38.9654 727.647 Q38.1603 727.647 37.5484 727.293 Q36.9043 726.906 36.6788 726.616 Q36.4534 726.327 36.389 726.133 Q36.3246 726.262 36.3246 726.842 Q36.3246 730.481 39.9638 732.575 Q43.5709 734.636 48.7238 734.636 L58.8687 734.636 Q60.7688 734.636 61.3807 733.863 Q61.9926 733.058 61.9926 729.612 L61.9926 728.227 L64.0216 728.227 Q63.8284 730.868 63.8284 736.6 Q63.8284 737.405 63.8606 738.661 Q63.8928 739.917 63.9572 741.56 Q64.0216 743.202 64.0216 744.136 Z" fill="#000000" fill-rule="nonzero" fill-opacity="1" /><path clip-path="url(#clip080)" d="M60.479 711.963 Q56.1634 716.311 49.9154 716.311 Q43.6353 716.311 39.0621 712.059 Q34.4566 707.776 34.4566 701.657 Q34.4566 695.667 39.0298 691.383 Q43.5709 687.068 49.9154 687.068 Q56.1312 687.068 60.4467 691.416 Q64.7623 695.731 64.7623 701.721 Q64.7623 707.583 60.479 711.963 M49.3679 710.836 Q55.7769 710.836 58.6754 709.161 Q63.0876 706.584 63.0876 701.657 Q63.0876 699.209 61.7672 697.18 Q60.4467 695.119 58.2245 693.992 Q55.326 692.543 49.3679 692.543 Q43.0234 692.543 40.2215 694.282 Q35.9381 696.858 35.9381 701.721 Q35.9381 703.847 37.0653 705.94 Q38.1603 708.002 40.3503 709.258 Q43.2488 710.836 49.3679 710.836 Z" fill="#000000" fill-rule="nonzero" fill-opacity="1" /><path clip-path="url(#clip080)" d="M64.0216 684.967 L61.9926 684.967 Q61.9926 681.456 61.5739 680.651 Q61.1231 679.814 58.9975 679.814 L41.3165 679.814 Q38.8688 679.814 38.2569 680.683 Q37.645 681.521 37.645 684.967 L35.5838 684.967 L34.8753 675.788 L42.1216 675.788 Q39.2875 674.854 37.0975 672.889 Q34.8753 670.893 34.8753 667.672 Q34.8753 665.546 36.0669 664.194 Q37.2585 662.809 38.901 662.809 Q40.3503 662.809 41.091 663.711 Q41.7996 664.58 41.7996 665.643 Q41.7996 666.835 41.0588 667.672 Q40.2859 668.477 38.9654 668.477 Q38.1603 668.477 37.5484 668.123 Q36.9043 667.736 36.6788 667.447 Q36.4534 667.157 36.389 666.963 Q36.3246 667.092 36.3246 667.672 Q36.3246 671.311 39.9638 673.405 Q43.5709 675.466 48.7238 675.466 L58.8687 675.466 Q60.7688 675.466 61.3807 674.693 Q61.9926 673.888 61.9926 670.442 L61.9926 669.057 L64.0216 669.057 Q63.8284 671.698 63.8284 677.43 Q63.8284 678.236 63.8606 679.492 Q63.8928 680.748 63.9572 682.39 Q64.0216 684.033 64.0216 684.967 Z" fill="#000000" fill-rule="nonzero" fill-opacity="1" /><polyline clip-path="url(#clip082)" style="stroke:#009af9; stroke-linecap:round; stroke-linejoin:round; stroke-width:4; stroke-opacity:1; fill:none" points="2294.35,184.989 1645.41,543.229 996.466,901.469 347.524,1259.71 "/>
<polyline clip-path="url(#clip082)" style="stroke:#000000; stroke-linecap:round; stroke-linejoin:round; stroke-width:4; stroke-opacity:1; fill:none" points="2294.35,296.532 2294.35,85.838 "/>
<polyline clip-path="url(#clip082)" style="stroke:#000000; stroke-linecap:round; stroke-linejoin:round; stroke-width:4; stroke-opacity:1; fill:none" points="1645.41,664.927 1645.41,454.224 "/>
<polyline clip-path="url(#clip082)" style="stroke:#000000; stroke-linecap:round; stroke-linejoin:round; stroke-width:4; stroke-opacity:1; fill:none" points="996.466,1020.67 996.466,809.786 "/>
<polyline clip-path="url(#clip082)" style="stroke:#000000; stroke-linecap:round; stroke-linejoin:round; stroke-width:4; stroke-opacity:1; fill:none" points="347.524,1372.3 347.524,1161.31 "/>
<line clip-path="url(#clip082)" x1="2310.35" y1="296.532" x2="2278.35" y2="296.532" style="stroke:#000000; stroke-width:4; stroke-opacity:1"/>
<line clip-path="url(#clip082)" x1="2310.35" y1="85.838" x2="2278.35" y2="85.838" style="stroke:#000000; stroke-width:4; stroke-opacity:1"/>
<line clip-path="url(#clip082)" x1="1661.41" y1="664.927" x2="1629.41" y2="664.927" style="stroke:#000000; stroke-width:4; stroke-opacity:1"/>
<line clip-path="url(#clip082)" x1="1661.41" y1="454.224" x2="1629.41" y2="454.224" style="stroke:#000000; stroke-width:4; stroke-opacity:1"/>
<line clip-path="url(#clip082)" x1="1012.47" y1="1020.67" x2="980.466" y2="1020.67" style="stroke:#000000; stroke-width:4; stroke-opacity:1"/>
<line clip-path="url(#clip082)" x1="1012.47" y1="809.786" x2="980.466" y2="809.786" style="stroke:#000000; stroke-width:4; stroke-opacity:1"/>
<line clip-path="url(#clip082)" x1="363.524" y1="1372.3" x2="331.524" y2="1372.3" style="stroke:#000000; stroke-width:4; stroke-opacity:1"/>
<line clip-path="url(#clip082)" x1="363.524" y1="1161.31" x2="331.524" y2="1161.31" style="stroke:#000000; stroke-width:4; stroke-opacity:1"/>
<circle clip-path="url(#clip082)" cx="2294.35" cy="180.348" r="14.4" fill="#e26f46" fill-rule="evenodd" fill-opacity="1" stroke="#000000" stroke-opacity="1" stroke-width="3.2"/>
<circle clip-path="url(#clip082)" cx="1645.41" cy="548.738" r="14.4" fill="#e26f46" fill-rule="evenodd" fill-opacity="1" stroke="#000000" stroke-opacity="1" stroke-width="3.2"/>
<circle clip-path="url(#clip082)" cx="996.466" cy="904.372" r="14.4" fill="#e26f46" fill-rule="evenodd" fill-opacity="1" stroke="#000000" stroke-opacity="1" stroke-width="3.2"/>
<circle clip-path="url(#clip082)" cx="347.524" cy="1255.94" r="14.4" fill="#e26f46" fill-rule="evenodd" fill-opacity="1" stroke="#000000" stroke-opacity="1" stroke-width="3.2"/>
<path clip-path="url(#clip080)" d="M357.907 248.219 L1541.18 248.219 L1541.18 92.6992 L357.907 92.6992  Z" fill="#ffffff" fill-rule="evenodd" fill-opacity="1"/>
<polyline clip-path="url(#clip080)" style="stroke:#000000; stroke-linecap:round; stroke-linejoin:round; stroke-width:4; stroke-opacity:1; fill:none" points="357.907,248.219 1541.18,248.219 1541.18,92.6992 357.907,92.6992 357.907,248.219 "/>
<polyline clip-path="url(#clip080)" style="stroke:#009af9; stroke-linecap:round; stroke-linejoin:round; stroke-width:4; stroke-opacity:1; fill:none" points="380.837,144.539 518.412,144.539 "/>
<path clip-path="url(#clip080)" d="M575.398 133.915 L572.376 146.142 Q572.166 146.915 572.025 147.008 Q571.908 147.102 571.533 147.102 Q570.807 147.102 570.807 146.61 Q570.807 146.563 570.877 145.954 Q570.948 145.322 570.948 144.174 Q570.948 139.935 568.886 137.428 Q566.849 134.922 563.218 134.922 Q560.08 134.922 556.918 136.515 Q553.779 138.108 551.53 140.708 Q549.844 142.675 548.603 145.158 Q547.385 147.641 546.799 149.913 Q546.237 152.185 545.979 153.894 Q545.722 155.604 545.722 156.846 Q545.722 158.649 546.096 160.172 Q546.495 161.694 547.197 162.772 Q547.9 163.826 548.79 164.645 Q549.703 165.442 550.757 165.91 Q551.835 166.379 552.912 166.613 Q553.99 166.824 555.114 166.824 Q559.635 166.824 563.944 163.31 Q567.364 160.429 568.793 155.721 Q568.91 155.253 569.402 155.253 Q569.987 155.253 569.987 155.721 Q569.987 155.815 569.87 156.283 Q569.753 156.729 569.402 157.642 Q569.05 158.532 568.512 159.539 Q567.973 160.546 566.966 161.811 Q565.959 163.076 564.717 164.177 Q562.609 166.004 559.939 167.152 Q557.269 168.299 554.341 168.299 Q550.687 168.299 547.736 166.683 Q544.785 165.067 543.051 162.045 Q541.342 159.024 541.342 155.159 Q541.342 151.084 543.215 147.078 Q545.089 143.073 548.064 140.099 Q551.039 137.124 554.973 135.274 Q558.908 133.423 562.843 133.423 Q564.342 133.423 565.678 133.821 Q567.013 134.22 567.809 134.711 Q568.629 135.203 569.355 135.929 Q570.081 136.632 570.315 136.96 Q570.573 137.288 570.807 137.686 L574.156 134.009 Q574.742 133.423 574.883 133.423 Q575.164 133.423 575.281 133.587 Q575.398 133.751 575.398 133.915 Z" fill="#000000" fill-rule="nonzero" fill-opacity="1" /><path clip-path="url(#clip080)" d="M579.137 166.777 Q579.137 166.589 579.769 165.371 Q580.402 164.13 582.627 159.703 Q584.852 155.253 587.147 150.592 L595.415 133.962 Q596.001 132.908 596.75 132.908 Q597.43 132.908 597.734 133.329 Q598.039 133.751 599.444 136.585 Q600.17 137.967 600.592 138.857 L614.153 166.004 Q614.387 166.589 614.411 166.777 Q614.411 167.245 613.591 167.245 L580.402 167.245 Q579.137 167.245 579.137 166.777 M582.299 163.591 L608.11 163.591 L595.204 137.686 L582.299 163.591 Z" fill="#000000" fill-rule="nonzero" fill-opacity="1" /><path clip-path="url(#clip080)" d="M633.414 147.102 Q633.414 147.758 633.11 147.922 Q632.805 148.062 631.962 148.062 L627.465 148.062 L623.905 162.209 Q623.624 163.451 623.624 164.505 Q623.624 165.676 623.975 166.191 Q624.35 166.706 625.123 166.706 Q626.645 166.706 628.285 165.325 Q629.948 163.943 631.353 160.57 Q631.54 160.125 631.634 160.031 Q631.751 159.914 632.056 159.914 Q632.641 159.914 632.641 160.382 Q632.641 160.546 632.313 161.296 Q632.009 162.045 631.329 163.146 Q630.674 164.247 629.807 165.278 Q628.964 166.308 627.676 167.058 Q626.387 167.784 625.005 167.784 Q623.061 167.784 621.82 166.543 Q620.602 165.301 620.602 163.357 Q620.602 162.725 621.094 160.71 Q621.586 158.673 624.256 148.062 L620.016 148.062 Q619.431 148.062 619.197 148.039 Q618.986 148.015 618.822 147.898 Q618.681 147.758 618.681 147.477 Q618.681 147.032 618.869 146.844 Q619.056 146.633 619.29 146.61 Q619.548 146.563 620.134 146.563 L624.631 146.563 L626.504 138.951 Q626.692 138.201 627.16 137.78 Q627.652 137.335 627.933 137.288 Q628.214 137.218 628.425 137.218 Q629.058 137.218 629.432 137.569 Q629.807 137.897 629.807 138.506 Q629.807 138.834 627.84 146.563 L632.056 146.563 Q632.594 146.563 632.805 146.587 Q633.039 146.61 633.227 146.727 Q633.414 146.844 633.414 147.102 Z" fill="#000000" fill-rule="nonzero" fill-opacity="1" /><path clip-path="url(#clip080)" d="M655.923 125.999 Q655.923 128.392 654.71 130.704 Q653.513 133.016 651.627 134.442 Q649.742 135.852 647.823 135.852 Q646.676 135.852 645.905 135.229 Q645.151 134.59 644.741 133.688 Q644.43 134.803 643.757 137.476 Q643.085 140.148 643.085 140.41 Q643.085 140.558 643.118 140.624 Q643.151 140.689 643.298 140.771 Q643.446 140.87 643.806 140.902 Q644.167 140.952 644.774 140.952 Q645.085 140.952 645.2 140.952 Q645.331 140.968 645.446 141.05 Q645.577 141.132 645.577 141.312 Q645.577 141.984 644.971 141.984 Q644.43 141.984 643.315 141.935 Q642.2 141.886 641.642 141.886 Q641.167 141.886 640.216 141.935 Q639.265 141.984 638.822 141.984 Q638.379 141.984 638.379 141.591 Q638.379 141.361 638.445 141.214 Q638.494 141.083 638.625 141.017 Q638.757 140.968 638.871 140.952 Q638.97 140.952 639.166 140.952 Q639.921 140.952 640.249 140.82 Q640.577 140.706 640.691 140.46 Q640.822 140.23 640.97 139.574 L644.741 124.621 Q644.971 123.621 644.971 122.916 Q644.971 122.031 644.692 121.703 Q644.413 121.375 643.921 121.375 Q643.069 121.375 642.511 122.392 Q641.954 123.408 641.478 125.376 Q641.331 125.917 641.232 126.031 Q641.15 126.146 640.904 126.146 Q640.495 126.13 640.495 125.802 Q640.495 125.72 640.626 125.195 Q640.757 124.654 641.003 123.867 Q641.265 123.064 641.544 122.556 Q641.708 122.211 641.855 121.982 Q642.003 121.752 642.298 121.391 Q642.61 121.031 643.052 120.834 Q643.495 120.637 644.036 120.637 Q645.085 120.637 645.954 121.26 Q646.823 121.883 647.053 123.146 Q647.987 122.047 649.135 121.342 Q650.283 120.637 651.447 120.637 Q653.382 120.637 654.644 122.146 Q655.923 123.638 655.923 125.999 M653.496 124.523 Q653.496 123.031 652.922 122.211 Q652.365 121.375 651.348 121.375 Q650.086 121.375 648.627 122.654 Q647.184 123.867 646.889 124.998 L645.233 131.573 L645.135 132.114 Q645.135 132.213 645.184 132.508 Q645.249 132.786 645.43 133.246 Q645.626 133.705 645.889 134.115 Q646.167 134.508 646.659 134.803 Q647.168 135.098 647.791 135.098 Q648.791 135.098 649.873 134.213 Q650.971 133.328 651.791 131.655 Q652.299 130.573 652.89 128.245 Q653.496 125.9 653.496 124.523 Z" fill="#000000" fill-rule="nonzero" fill-opacity="1" /><path clip-path="url(#clip080)" d="M693.53 131.227 L693.53 134.769 L689.456 134.769 Q687.164 134.769 686.262 135.694 Q685.382 136.62 685.382 139.028 L685.382 141.319 L692.396 141.319 L692.396 144.63 L685.382 144.63 L685.382 167.245 L681.1 167.245 L681.1 144.63 L677.026 144.63 L677.026 141.319 L681.1 141.319 L681.1 139.514 Q681.1 135.185 683.113 133.218 Q685.127 131.227 689.502 131.227 L693.53 131.227 Z" fill="#000000" fill-rule="nonzero" fill-opacity="1" /><path clip-path="url(#clip080)" d="M697.095 141.319 L701.354 141.319 L701.354 167.245 L697.095 167.245 L697.095 141.319 M697.095 131.227 L701.354 131.227 L701.354 136.62 L697.095 136.62 L697.095 131.227 Z" fill="#000000" fill-rule="nonzero" fill-opacity="1" /><path clip-path="url(#clip080)" d="M714.479 133.958 L714.479 141.319 L723.252 141.319 L723.252 144.63 L714.479 144.63 L714.479 158.704 Q714.479 161.875 715.336 162.778 Q716.215 163.68 718.877 163.68 L723.252 163.68 L723.252 167.245 L718.877 167.245 Q713.947 167.245 712.072 165.417 Q710.197 163.565 710.197 158.704 L710.197 144.63 L707.072 144.63 L707.072 141.319 L710.197 141.319 L710.197 133.958 L714.479 133.958 Z" fill="#000000" fill-rule="nonzero" fill-opacity="1" /><path clip-path="url(#clip080)" d="M741.447 141.319 L745.706 141.319 L751.03 161.551 L756.331 141.319 L761.354 141.319 L766.678 161.551 L771.979 141.319 L776.238 141.319 L769.456 167.245 L764.433 167.245 L758.854 145.995 L753.252 167.245 L748.229 167.245 L741.447 141.319 Z" fill="#000000" fill-rule="nonzero" fill-opacity="1" /><path clip-path="url(#clip080)" d="M782.696 141.319 L786.956 141.319 L786.956 167.245 L782.696 167.245 L782.696 141.319 M782.696 131.227 L786.956 131.227 L786.956 136.62 L782.696 136.62 L782.696 131.227 Z" fill="#000000" fill-rule="nonzero" fill-opacity="1" /><path clip-path="url(#clip080)" d="M800.08 133.958 L800.08 141.319 L808.854 141.319 L808.854 144.63 L800.08 144.63 L800.08 158.704 Q800.08 161.875 800.937 162.778 Q801.817 163.68 804.479 163.68 L808.854 163.68 L808.854 167.245 L804.479 167.245 Q799.548 167.245 797.673 165.417 Q795.798 163.565 795.798 158.704 L795.798 144.63 L792.673 144.63 L792.673 141.319 L795.798 141.319 L795.798 133.958 L800.08 133.958 Z" fill="#000000" fill-rule="nonzero" fill-opacity="1" /><path clip-path="url(#clip080)" d="M836.006 151.597 L836.006 167.245 L831.747 167.245 L831.747 151.736 Q831.747 148.055 830.312 146.227 Q828.877 144.398 826.006 144.398 Q822.557 144.398 820.566 146.597 Q818.576 148.796 818.576 152.592 L818.576 167.245 L814.293 167.245 L814.293 131.227 L818.576 131.227 L818.576 145.347 Q820.104 143.009 822.164 141.852 Q824.247 140.694 826.955 140.694 Q831.423 140.694 833.715 143.472 Q836.006 146.227 836.006 151.597 Z" fill="#000000" fill-rule="nonzero" fill-opacity="1" /><path clip-path="url(#clip080)" d="M863.691 163.356 L863.691 177.106 L859.409 177.106 L859.409 141.319 L863.691 141.319 L863.691 145.255 Q865.034 142.94 867.071 141.829 Q869.131 140.694 871.978 140.694 Q876.7 140.694 879.64 144.444 Q882.603 148.194 882.603 154.305 Q882.603 160.417 879.64 164.167 Q876.7 167.916 871.978 167.916 Q869.131 167.916 867.071 166.805 Q865.034 165.671 863.691 163.356 M878.182 154.305 Q878.182 149.606 876.237 146.944 Q874.316 144.259 870.937 144.259 Q867.557 144.259 865.613 146.944 Q863.691 149.606 863.691 154.305 Q863.691 159.004 865.613 161.69 Q867.557 164.352 870.937 164.352 Q874.316 164.352 876.237 161.69 Q878.182 159.004 878.182 154.305 Z" fill="#000000" fill-rule="nonzero" fill-opacity="1" /><path clip-path="url(#clip080)" d="M905.288 145.718 L934.964 145.718 L934.964 149.606 L905.288 149.606 L905.288 145.718 M905.288 155.162 L934.964 155.162 L934.964 159.097 L905.288 159.097 L905.288 155.162 Z" fill="#000000" fill-rule="nonzero" fill-opacity="1" /><path clip-path="url(#clip080)" d="M960.936 163.31 L968.575 163.31 L968.575 136.944 L960.265 138.611 L960.265 134.352 L968.529 132.685 L973.205 132.685 L973.205 163.31 L980.843 163.31 L980.843 167.245 L960.936 167.245 L960.936 163.31 Z" fill="#000000" fill-rule="nonzero" fill-opacity="1" /><path clip-path="url(#clip080)" d="M990.288 161.366 L995.172 161.366 L995.172 167.245 L990.288 167.245 L990.288 161.366 Z" fill="#000000" fill-rule="nonzero" fill-opacity="1" /><path clip-path="url(#clip080)" d="M1015.36 135.764 Q1011.75 135.764 1009.92 139.329 Q1008.11 142.87 1008.11 150 Q1008.11 157.106 1009.92 160.671 Q1011.75 164.213 1015.36 164.213 Q1018.99 164.213 1020.8 160.671 Q1022.63 157.106 1022.63 150 Q1022.63 142.87 1020.8 139.329 Q1018.99 135.764 1015.36 135.764 M1015.36 132.06 Q1021.17 132.06 1024.22 136.667 Q1027.3 141.25 1027.3 150 Q1027.3 158.727 1024.22 163.333 Q1021.17 167.916 1015.36 167.916 Q1009.55 167.916 1006.47 163.333 Q1003.41 158.727 1003.41 150 Q1003.41 141.25 1006.47 136.667 Q1009.55 132.06 1015.36 132.06 Z" fill="#000000" fill-rule="nonzero" fill-opacity="1" /><path clip-path="url(#clip080)" d="M1039.55 163.31 L1055.87 163.31 L1055.87 167.245 L1033.92 167.245 L1033.92 163.31 Q1036.58 160.555 1041.17 155.926 Q1045.77 151.273 1046.95 149.93 Q1049.2 147.407 1050.08 145.671 Q1050.98 143.912 1050.98 142.222 Q1050.98 139.468 1049.04 137.731 Q1047.12 135.995 1044.01 135.995 Q1041.82 135.995 1039.36 136.759 Q1036.93 137.523 1034.15 139.074 L1034.15 134.352 Q1036.98 133.218 1039.43 132.639 Q1041.88 132.06 1043.92 132.06 Q1049.29 132.06 1052.49 134.745 Q1055.68 137.431 1055.68 141.921 Q1055.68 144.051 1054.87 145.972 Q1054.08 147.87 1051.98 150.463 Q1051.4 151.134 1048.3 154.352 Q1045.19 157.546 1039.55 163.31 Z" fill="#000000" fill-rule="nonzero" fill-opacity="1" /><path clip-path="url(#clip080)" d="M1066.17 142.731 L1071.05 142.731 L1071.05 148.611 L1066.17 148.611 L1066.17 142.731 M1066.17 161.366 L1071.05 161.366 L1071.05 165.347 L1067.25 172.754 L1064.27 172.754 L1066.17 165.347 L1066.17 161.366 Z" fill="#000000" fill-rule="nonzero" fill-opacity="1" /><path clip-path="url(#clip080)" d="M1096.86 166.528 L1096.86 162.268 Q1098.62 163.102 1100.43 163.542 Q1102.23 163.981 1103.97 163.981 Q1108.6 163.981 1111.03 160.879 Q1113.48 157.755 1113.83 151.412 Q1112.49 153.403 1110.43 154.467 Q1108.37 155.532 1105.87 155.532 Q1100.68 155.532 1097.65 152.407 Q1094.64 149.259 1094.64 143.819 Q1094.64 138.495 1097.79 135.278 Q1100.94 132.06 1106.17 132.06 Q1112.16 132.06 1115.31 136.667 Q1118.48 141.25 1118.48 150 Q1118.48 158.171 1114.59 163.055 Q1110.73 167.916 1104.18 167.916 Q1102.42 167.916 1100.61 167.569 Q1098.81 167.222 1096.86 166.528 M1106.17 151.875 Q1109.31 151.875 1111.14 149.722 Q1113 147.569 1113 143.819 Q1113 140.093 1111.14 137.94 Q1109.31 135.764 1106.17 135.764 Q1103.02 135.764 1101.17 137.94 Q1099.34 140.093 1099.34 143.819 Q1099.34 147.569 1101.17 149.722 Q1103.02 151.875 1106.17 151.875 Z" fill="#000000" fill-rule="nonzero" fill-opacity="1" /><path clip-path="url(#clip080)" d="M1126.93 132.685 L1145.29 132.685 L1145.29 136.62 L1131.21 136.62 L1131.21 145.093 Q1132.23 144.745 1133.25 144.583 Q1134.27 144.398 1135.29 144.398 Q1141.07 144.398 1144.45 147.569 Q1147.83 150.741 1147.83 156.157 Q1147.83 161.736 1144.36 164.838 Q1140.89 167.916 1134.57 167.916 Q1132.39 167.916 1130.12 167.546 Q1127.88 167.176 1125.47 166.435 L1125.47 161.736 Q1127.56 162.87 1129.78 163.426 Q1132 163.981 1134.48 163.981 Q1138.48 163.981 1140.82 161.875 Q1143.16 159.768 1143.16 156.157 Q1143.16 152.546 1140.82 150.44 Q1138.48 148.333 1134.48 148.333 Q1132.6 148.333 1130.73 148.75 Q1128.87 149.167 1126.93 150.046 L1126.93 132.685 Z" fill="#000000" fill-rule="nonzero" fill-opacity="1" /><path clip-path="url(#clip080)" d="M1186.44 152.037 Q1184.43 152.037 1183.27 153.75 Q1182.14 155.463 1182.14 158.518 Q1182.14 161.528 1183.27 163.264 Q1184.43 164.977 1186.44 164.977 Q1188.41 164.977 1189.55 163.264 Q1190.7 161.528 1190.7 158.518 Q1190.7 155.486 1189.55 153.773 Q1188.41 152.037 1186.44 152.037 M1186.44 149.097 Q1190.1 149.097 1192.25 151.643 Q1194.41 154.19 1194.41 158.518 Q1194.41 162.847 1192.23 165.393 Q1190.08 167.916 1186.44 167.916 Q1182.74 167.916 1180.59 165.393 Q1178.43 162.847 1178.43 158.518 Q1178.43 154.167 1180.59 151.643 Q1182.76 149.097 1186.44 149.097 M1162.56 135 Q1160.56 135 1159.41 136.736 Q1158.27 138.449 1158.27 141.458 Q1158.27 144.514 1159.41 146.227 Q1160.54 147.94 1162.56 147.94 Q1164.57 147.94 1165.7 146.227 Q1166.86 144.514 1166.86 141.458 Q1166.86 138.472 1165.7 136.736 Q1164.55 135 1162.56 135 M1183.46 132.06 L1187.16 132.06 L1165.54 167.916 L1161.84 167.916 L1183.46 132.06 M1162.56 132.06 Q1166.21 132.06 1168.39 134.606 Q1170.56 137.13 1170.56 141.458 Q1170.56 145.833 1168.39 148.356 Q1166.24 150.88 1162.56 150.88 Q1158.87 150.88 1156.72 148.356 Q1154.59 145.81 1154.59 141.458 Q1154.59 137.153 1156.75 134.606 Q1158.9 132.06 1162.56 132.06 Z" fill="#000000" fill-rule="nonzero" fill-opacity="1" /><path clip-path="url(#clip080)" d="M1242.62 135.347 L1242.62 140.278 Q1240.26 138.079 1237.58 136.991 Q1234.92 135.903 1231.91 135.903 Q1225.98 135.903 1222.83 139.537 Q1219.68 143.148 1219.68 150 Q1219.68 156.829 1222.83 160.463 Q1225.98 164.074 1231.91 164.074 Q1234.92 164.074 1237.58 162.986 Q1240.26 161.898 1242.62 159.699 L1242.62 164.583 Q1240.17 166.25 1237.42 167.083 Q1234.68 167.916 1231.63 167.916 Q1223.78 167.916 1219.27 163.125 Q1214.75 158.31 1214.75 150 Q1214.75 141.667 1219.27 136.875 Q1223.78 132.06 1231.63 132.06 Q1234.73 132.06 1237.46 132.894 Q1240.22 133.704 1242.62 135.347 Z" fill="#000000" fill-rule="nonzero" fill-opacity="1" /><path clip-path="url(#clip080)" d="M1249.85 132.685 L1254.52 132.685 L1254.52 167.245 L1249.85 167.245 L1249.85 132.685 Z" fill="#000000" fill-rule="nonzero" fill-opacity="1" /><path clip-path="url(#clip080)" d="M1278.32 131.227 L1288.13 131.227 L1288.13 134.537 L1282.58 134.537 L1282.58 170.185 L1288.13 170.185 L1288.13 173.495 L1278.32 173.495 L1278.32 131.227 Z" fill="#000000" fill-rule="nonzero" fill-opacity="1" /><path clip-path="url(#clip080)" d="M1307.81 135.764 Q1304.2 135.764 1302.37 139.329 Q1300.56 142.87 1300.56 150 Q1300.56 157.106 1302.37 160.671 Q1304.2 164.213 1307.81 164.213 Q1311.44 164.213 1313.25 160.671 Q1315.08 157.106 1315.08 150 Q1315.08 142.87 1313.25 139.329 Q1311.44 135.764 1307.81 135.764 M1307.81 132.06 Q1313.62 132.06 1316.67 136.667 Q1319.75 141.25 1319.75 150 Q1319.75 158.727 1316.67 163.333 Q1313.62 167.916 1307.81 167.916 Q1302 167.916 1298.92 163.333 Q1295.86 158.727 1295.86 150 Q1295.86 141.25 1298.92 136.667 Q1302 132.06 1307.81 132.06 Z" fill="#000000" fill-rule="nonzero" fill-opacity="1" /><path clip-path="url(#clip080)" d="M1327.97 161.366 L1332.86 161.366 L1332.86 167.245 L1327.97 167.245 L1327.97 161.366 Z" fill="#000000" fill-rule="nonzero" fill-opacity="1" /><path clip-path="url(#clip080)" d="M1343.18 166.528 L1343.18 162.268 Q1344.94 163.102 1346.74 163.542 Q1348.55 163.981 1350.29 163.981 Q1354.92 163.981 1357.35 160.879 Q1359.8 157.755 1360.15 151.412 Q1358.8 153.403 1356.74 154.467 Q1354.68 155.532 1352.18 155.532 Q1347 155.532 1343.97 152.407 Q1340.96 149.259 1340.96 143.819 Q1340.96 138.495 1344.11 135.278 Q1347.25 132.06 1352.48 132.06 Q1358.48 132.06 1361.63 136.667 Q1364.8 141.25 1364.8 150 Q1364.8 158.171 1360.91 163.055 Q1357.05 167.916 1350.49 167.916 Q1348.73 167.916 1346.93 167.569 Q1345.12 167.222 1343.18 166.528 M1352.48 151.875 Q1355.63 151.875 1357.46 149.722 Q1359.31 147.569 1359.31 143.819 Q1359.31 140.093 1357.46 137.94 Q1355.63 135.764 1352.48 135.764 Q1349.34 135.764 1347.48 137.94 Q1345.66 140.093 1345.66 143.819 Q1345.66 147.569 1347.48 149.722 Q1349.34 151.875 1352.48 151.875 Z" fill="#000000" fill-rule="nonzero" fill-opacity="1" /><path clip-path="url(#clip080)" d="M1373.69 161.366 L1378.57 161.366 L1378.57 165.347 L1374.78 172.754 L1371.79 172.754 L1373.69 165.347 L1373.69 161.366 Z" fill="#000000" fill-rule="nonzero" fill-opacity="1" /><path clip-path="url(#clip080)" d="M1404.15 163.31 L1411.79 163.31 L1411.79 136.944 L1403.48 138.611 L1403.48 134.352 L1411.74 132.685 L1416.42 132.685 L1416.42 163.31 L1424.06 163.31 L1424.06 167.245 L1404.15 167.245 L1404.15 163.31 Z" fill="#000000" fill-rule="nonzero" fill-opacity="1" /><path clip-path="url(#clip080)" d="M1433.5 161.366 L1438.39 161.366 L1438.39 167.245 L1433.5 167.245 L1433.5 161.366 Z" fill="#000000" fill-rule="nonzero" fill-opacity="1" /><path clip-path="url(#clip080)" d="M1449.38 163.31 L1457.02 163.31 L1457.02 136.944 L1448.71 138.611 L1448.71 134.352 L1456.98 132.685 L1461.65 132.685 L1461.65 163.31 L1469.29 163.31 L1469.29 167.245 L1449.38 167.245 L1449.38 163.31 Z" fill="#000000" fill-rule="nonzero" fill-opacity="1" /><path clip-path="url(#clip080)" d="M1492.9 148.611 Q1496.26 149.329 1498.13 151.597 Q1500.03 153.866 1500.03 157.199 Q1500.03 162.315 1496.51 165.116 Q1492.99 167.916 1486.51 167.916 Q1484.34 167.916 1482.02 167.477 Q1479.73 167.06 1477.28 166.204 L1477.28 161.69 Q1479.22 162.824 1481.54 163.403 Q1483.85 163.981 1486.37 163.981 Q1490.77 163.981 1493.06 162.245 Q1495.38 160.509 1495.38 157.199 Q1495.38 154.143 1493.22 152.43 Q1491.1 150.694 1487.28 150.694 L1483.25 150.694 L1483.25 146.852 L1487.46 146.852 Q1490.91 146.852 1492.74 145.486 Q1494.57 144.097 1494.57 141.505 Q1494.57 138.843 1492.67 137.431 Q1490.79 135.995 1487.28 135.995 Q1485.35 135.995 1483.16 136.412 Q1480.96 136.829 1478.32 137.708 L1478.32 133.542 Q1480.98 132.801 1483.29 132.431 Q1485.63 132.06 1487.69 132.06 Q1493.02 132.06 1496.12 134.491 Q1499.22 136.898 1499.22 141.018 Q1499.22 143.889 1497.58 145.88 Q1495.93 147.847 1492.9 148.611 Z" fill="#000000" fill-rule="nonzero" fill-opacity="1" /><path clip-path="url(#clip080)" d="M1518.25 131.227 L1518.25 173.495 L1508.43 173.495 L1508.43 170.185 L1513.97 170.185 L1513.97 134.537 L1508.43 134.537 L1508.43 131.227 L1518.25 131.227 Z" fill="#000000" fill-rule="nonzero" fill-opacity="1" /><circle clip-path="url(#clip080)" cx="449.624" cy="196.379" r="20.48" fill="#e26f46" fill-rule="evenodd" fill-opacity="1" stroke="#000000" stroke-opacity="1" stroke-width="4.55111"/>
<path clip-path="url(#clip080)" d="M559.767 188.497 L559.767 192.525 Q557.962 191.599 556.017 191.136 Q554.073 190.673 551.99 190.673 Q548.818 190.673 547.221 191.645 Q545.647 192.618 545.647 194.562 Q545.647 196.044 546.781 196.9 Q547.916 197.733 551.342 198.497 L552.8 198.821 Q557.337 199.794 559.235 201.576 Q561.156 203.335 561.156 206.506 Q561.156 210.118 558.286 212.224 Q555.439 214.33 550.439 214.33 Q548.355 214.33 546.087 213.914 Q543.842 213.52 541.342 212.71 L541.342 208.312 Q543.703 209.539 545.994 210.164 Q548.286 210.766 550.531 210.766 Q553.541 210.766 555.161 209.747 Q556.781 208.706 556.781 206.831 Q556.781 205.094 555.601 204.168 Q554.443 203.243 550.485 202.386 L549.004 202.039 Q545.045 201.206 543.286 199.493 Q541.527 197.756 541.527 194.747 Q541.527 191.09 544.119 189.099 Q546.712 187.108 551.48 187.108 Q553.842 187.108 555.925 187.456 Q558.008 187.803 559.767 188.497 Z" fill="#000000" fill-rule="nonzero" fill-opacity="1" /><path clip-path="url(#clip080)" d="M572.152 180.372 L572.152 187.733 L580.925 187.733 L580.925 191.044 L572.152 191.044 L572.152 205.118 Q572.152 208.289 573.008 209.192 Q573.888 210.094 576.55 210.094 L580.925 210.094 L580.925 213.659 L576.55 213.659 Q571.619 213.659 569.744 211.83 Q567.869 209.979 567.869 205.118 L567.869 191.044 L564.744 191.044 L564.744 187.733 L567.869 187.733 L567.869 180.372 L572.152 180.372 Z" fill="#000000" fill-rule="nonzero" fill-opacity="1" /><path clip-path="url(#clip080)" d="M601.55 191.715 Q600.832 191.298 599.976 191.113 Q599.142 190.905 598.124 190.905 Q594.513 190.905 592.568 193.266 Q590.647 195.604 590.647 200.002 L590.647 213.659 L586.365 213.659 L586.365 187.733 L590.647 187.733 L590.647 191.761 Q591.989 189.4 594.142 188.266 Q596.295 187.108 599.374 187.108 Q599.814 187.108 600.346 187.178 Q600.878 187.224 601.526 187.34 L601.55 191.715 Z" fill="#000000" fill-rule="nonzero" fill-opacity="1" /><path clip-path="url(#clip080)" d="M615.022 190.719 Q611.596 190.719 609.605 193.405 Q607.614 196.067 607.614 200.719 Q607.614 205.372 609.582 208.057 Q611.573 210.719 615.022 210.719 Q618.425 210.719 620.415 208.034 Q622.406 205.349 622.406 200.719 Q622.406 196.113 620.415 193.428 Q618.425 190.719 615.022 190.719 M615.022 187.108 Q620.577 187.108 623.749 190.719 Q626.92 194.331 626.92 200.719 Q626.92 207.085 623.749 210.719 Q620.577 214.33 615.022 214.33 Q609.443 214.33 606.272 210.719 Q603.124 207.085 603.124 200.719 Q603.124 194.331 606.272 190.719 Q609.443 187.108 615.022 187.108 Z" fill="#000000" fill-rule="nonzero" fill-opacity="1" /><path clip-path="url(#clip080)" d="M655.531 198.011 L655.531 213.659 L651.272 213.659 L651.272 198.15 Q651.272 194.469 649.836 192.641 Q648.401 190.812 645.531 190.812 Q642.082 190.812 640.091 193.011 Q638.1 195.21 638.1 199.006 L638.1 213.659 L633.818 213.659 L633.818 187.733 L638.1 187.733 L638.1 191.761 Q639.628 189.423 641.688 188.266 Q643.772 187.108 646.48 187.108 Q650.948 187.108 653.239 189.886 Q655.531 192.641 655.531 198.011 Z" fill="#000000" fill-rule="nonzero" fill-opacity="1" /><path clip-path="url(#clip080)" d="M681.086 200.395 Q681.086 195.766 679.165 193.219 Q677.267 190.673 673.818 190.673 Q670.392 190.673 668.471 193.219 Q666.572 195.766 666.572 200.395 Q666.572 205.002 668.471 207.548 Q670.392 210.094 673.818 210.094 Q677.267 210.094 679.165 207.548 Q681.086 205.002 681.086 200.395 M685.345 210.442 Q685.345 217.062 682.406 220.28 Q679.466 223.52 673.401 223.52 Q671.156 223.52 669.165 223.173 Q667.174 222.849 665.299 222.155 L665.299 218.011 Q667.174 219.03 669.003 219.516 Q670.832 220.002 672.73 220.002 Q676.92 220.002 679.003 217.803 Q681.086 215.627 681.086 211.205 L681.086 209.099 Q679.767 211.391 677.707 212.525 Q675.646 213.659 672.776 213.659 Q668.008 213.659 665.091 210.025 Q662.174 206.391 662.174 200.395 Q662.174 194.377 665.091 190.743 Q668.008 187.108 672.776 187.108 Q675.646 187.108 677.707 188.243 Q679.767 189.377 681.086 191.669 L681.086 187.733 L685.345 187.733 L685.345 210.442 Z" fill="#000000" fill-rule="nonzero" fill-opacity="1" /><path clip-path="url(#clip080)" d="M731.364 199.631 L731.364 201.715 L711.781 201.715 Q712.058 206.113 714.419 208.428 Q716.804 210.719 721.04 210.719 Q723.493 210.719 725.785 210.118 Q728.1 209.516 730.368 208.312 L730.368 212.34 Q728.077 213.312 725.669 213.821 Q723.262 214.33 720.785 214.33 Q714.581 214.33 710.947 210.719 Q707.336 207.108 707.336 200.951 Q707.336 194.585 710.762 190.858 Q714.211 187.108 720.044 187.108 Q725.276 187.108 728.308 190.488 Q731.364 193.844 731.364 199.631 M727.105 198.381 Q727.058 194.886 725.137 192.803 Q723.239 190.719 720.091 190.719 Q716.526 190.719 714.373 192.733 Q712.243 194.747 711.919 198.405 L727.105 198.381 Z" fill="#000000" fill-rule="nonzero" fill-opacity="1" /><path clip-path="url(#clip080)" d="M753.378 191.715 Q752.66 191.298 751.803 191.113 Q750.97 190.905 749.952 190.905 Q746.341 190.905 744.396 193.266 Q742.475 195.604 742.475 200.002 L742.475 213.659 L738.192 213.659 L738.192 187.733 L742.475 187.733 L742.475 191.761 Q743.817 189.4 745.97 188.266 Q748.123 187.108 751.202 187.108 Q751.641 187.108 752.174 187.178 Q752.706 187.224 753.354 187.34 L753.378 191.715 Z" fill="#000000" fill-rule="nonzero" fill-opacity="1" /><path clip-path="url(#clip080)" d="M772.035 191.715 Q771.317 191.298 770.461 191.113 Q769.627 190.905 768.609 190.905 Q764.998 190.905 763.053 193.266 Q761.132 195.604 761.132 200.002 L761.132 213.659 L756.85 213.659 L756.85 187.733 L761.132 187.733 L761.132 191.761 Q762.475 189.4 764.627 188.266 Q766.78 187.108 769.859 187.108 Q770.299 187.108 770.831 187.178 Q771.364 187.224 772.012 187.34 L772.035 191.715 Z" fill="#000000" fill-rule="nonzero" fill-opacity="1" /><path clip-path="url(#clip080)" d="M785.507 190.719 Q782.081 190.719 780.09 193.405 Q778.1 196.067 778.1 200.719 Q778.1 205.372 780.067 208.057 Q782.058 210.719 785.507 210.719 Q788.91 210.719 790.9 208.034 Q792.891 205.349 792.891 200.719 Q792.891 196.113 790.9 193.428 Q788.91 190.719 785.507 190.719 M785.507 187.108 Q791.062 187.108 794.234 190.719 Q797.405 194.331 797.405 200.719 Q797.405 207.085 794.234 210.719 Q791.062 214.33 785.507 214.33 Q779.928 214.33 776.757 210.719 Q773.609 207.085 773.609 200.719 Q773.609 194.331 776.757 190.719 Q779.928 187.108 785.507 187.108 Z" fill="#000000" fill-rule="nonzero" fill-opacity="1" /><path clip-path="url(#clip080)" d="M819.488 191.715 Q818.771 191.298 817.914 191.113 Q817.081 190.905 816.062 190.905 Q812.451 190.905 810.507 193.266 Q808.586 195.604 808.586 200.002 L808.586 213.659 L804.303 213.659 L804.303 187.733 L808.586 187.733 L808.586 191.761 Q809.928 189.4 812.081 188.266 Q814.234 187.108 817.312 187.108 Q817.752 187.108 818.285 187.178 Q818.817 187.224 819.465 187.34 L819.488 191.715 Z" fill="#000000" fill-rule="nonzero" fill-opacity="1" /><path clip-path="url(#clip080)" d="M840.484 188.497 L840.484 192.525 Q838.678 191.599 836.734 191.136 Q834.789 190.673 832.706 190.673 Q829.535 190.673 827.937 191.645 Q826.363 192.618 826.363 194.562 Q826.363 196.044 827.497 196.9 Q828.632 197.733 832.058 198.497 L833.516 198.821 Q838.053 199.794 839.951 201.576 Q841.872 203.335 841.872 206.506 Q841.872 210.118 839.002 212.224 Q836.155 214.33 831.155 214.33 Q829.072 214.33 826.803 213.914 Q824.558 213.52 822.058 212.71 L822.058 208.312 Q824.419 209.539 826.71 210.164 Q829.002 210.766 831.247 210.766 Q834.257 210.766 835.877 209.747 Q837.497 208.706 837.497 206.831 Q837.497 205.094 836.317 204.168 Q835.159 203.243 831.201 202.386 L829.72 202.039 Q825.761 201.206 824.002 199.493 Q822.243 197.756 822.243 194.747 Q822.243 191.09 824.835 189.099 Q827.428 187.108 832.197 187.108 Q834.558 187.108 836.641 187.456 Q838.724 187.803 840.484 188.497 Z" fill="#000000" fill-rule="nonzero" fill-opacity="1" /></svg>
