<?xml version="1.0" encoding="utf-8"?>
<svg xmlns="http://www.w3.org/2000/svg" xmlns:xlink="http://www.w3.org/1999/xlink" width="600" height="400" viewBox="0 0 2400 1600">
<defs>
  <clipPath id="clip260">
    <rect x="0" y="0" width="2400" height="1600"/>
  </clipPath>
</defs>
<path clip-path="url(#clip260)" d="M0 1600 L2400 1600 L2400 0 L0 0  Z" fill="#ffffff" fill-rule="evenodd" fill-opacity="1"/>
<defs>
  <clipPath id="clip261">
    <rect x="480" y="0" width="1681" height="1600"/>
  </clipPath>
</defs>
<path clip-path="url(#clip260)" d="M202.227 1423.18 L2352.76 1423.18 L2352.76 47.2441 L202.227 47.2441  Z" fill="#ffffff" fill-rule="evenodd" fill-opacity="1"/>
<defs>
  <clipPath id="clip262">
    <rect x="202" y="47" width="2152" height="1377"/>
  </clipPath>
</defs>
<polyline clip-path="url(#clip262)" style="stroke:#000000; stroke-linecap:round; stroke-linejoin:round; stroke-width:2; stroke-opacity:0.1; fill:none" points="263.091,1423.18 263.091,47.2441 "/>
<polyline clip-path="url(#clip262)" style="stroke:#000000; stroke-linecap:round; stroke-linejoin:round; stroke-width:2; stroke-opacity:0.1; fill:none" points="770.292,1423.18 770.292,47.2441 "/>
<polyline clip-path="url(#clip262)" style="stroke:#000000; stroke-linecap:round; stroke-linejoin:round; stroke-width:2; stroke-opacity:0.1; fill:none" points="1277.49,1423.18 1277.49,47.2441 "/>
<polyline clip-path="url(#clip262)" style="stroke:#000000; stroke-linecap:round; stroke-linejoin:round; stroke-width:2; stroke-opacity:0.1; fill:none" points="1784.69,1423.18 1784.69,47.2441 "/>
<polyline clip-path="url(#clip262)" style="stroke:#000000; stroke-linecap:round; stroke-linejoin:round; stroke-width:2; stroke-opacity:0.1; fill:none" points="2291.89,1423.18 2291.89,47.2441 "/>
<polyline clip-path="url(#clip260)" style="stroke:#000000; stroke-linecap:round; stroke-linejoin:round; stroke-width:4; stroke-opacity:1; fill:none" points="202.227,1423.18 2352.76,1423.18 "/>
<polyline clip-path="url(#clip260)" style="stroke:#000000; stroke-linecap:round; stroke-linejoin:round; stroke-width:4; stroke-opacity:1; fill:none" points="263.091,1423.18 263.091,1404.28 "/>
<polyline clip-path="url(#clip260)" style="stroke:#000000; stroke-linecap:round; stroke-linejoin:round; stroke-width:4; stroke-opacity:1; fill:none" points="770.292,1423.18 770.292,1404.28 "/>
<polyline clip-path="url(#clip260)" style="stroke:#000000; stroke-linecap:round; stroke-linejoin:round; stroke-width:4; stroke-opacity:1; fill:none" points="1277.49,1423.18 1277.49,1404.28 "/>
<polyline clip-path="url(#clip260)" style="stroke:#000000; stroke-linecap:round; stroke-linejoin:round; stroke-width:4; stroke-opacity:1; fill:none" points="1784.69,1423.18 1784.69,1404.28 "/>
<polyline clip-path="url(#clip260)" style="stroke:#000000; stroke-linecap:round; stroke-linejoin:round; stroke-width:4; stroke-opacity:1; fill:none" points="2291.89,1423.18 2291.89,1404.28 "/>
<path clip-path="url(#clip260)" d="M225.395 1454.1 Q221.784 1454.1 219.955 1457.66 Q218.15 1461.2 218.15 1468.33 Q218.15 1475.44 219.955 1479.01 Q221.784 1482.55 225.395 1482.55 Q229.029 1482.55 230.835 1479.01 Q232.663 1475.44 232.663 1468.33 Q232.663 1461.2 230.835 1457.66 Q229.029 1454.1 225.395 1454.1 M225.395 1450.39 Q231.205 1450.39 234.261 1455 Q237.339 1459.58 237.339 1468.33 Q237.339 1477.06 234.261 1481.67 Q231.205 1486.25 225.395 1486.25 Q219.585 1486.25 216.506 1481.67 Q213.451 1477.06 213.451 1468.33 Q213.451 1459.58 216.506 1455 Q219.585 1450.39 225.395 1450.39 Z" fill="#000000" fill-rule="nonzero" fill-opacity="1" /><path clip-path="url(#clip260)" d="M245.557 1479.7 L250.441 1479.7 L250.441 1485.58 L245.557 1485.58 L245.557 1479.7 Z" fill="#000000" fill-rule="nonzero" fill-opacity="1" /><path clip-path="url(#clip260)" d="M270.626 1454.1 Q267.015 1454.1 265.186 1457.66 Q263.381 1461.2 263.381 1468.33 Q263.381 1475.44 265.186 1479.01 Q267.015 1482.55 270.626 1482.55 Q274.26 1482.55 276.066 1479.01 Q277.895 1475.44 277.895 1468.33 Q277.895 1461.2 276.066 1457.66 Q274.26 1454.1 270.626 1454.1 M270.626 1450.39 Q276.436 1450.39 279.492 1455 Q282.571 1459.58 282.571 1468.33 Q282.571 1477.06 279.492 1481.67 Q276.436 1486.25 270.626 1486.25 Q264.816 1486.25 261.737 1481.67 Q258.682 1477.06 258.682 1468.33 Q258.682 1459.58 261.737 1455 Q264.816 1450.39 270.626 1450.39 Z" fill="#000000" fill-rule="nonzero" fill-opacity="1" /><path clip-path="url(#clip260)" d="M300.788 1454.1 Q297.177 1454.1 295.348 1457.66 Q293.543 1461.2 293.543 1468.33 Q293.543 1475.44 295.348 1479.01 Q297.177 1482.55 300.788 1482.55 Q304.422 1482.55 306.228 1479.01 Q308.057 1475.44 308.057 1468.33 Q308.057 1461.2 306.228 1457.66 Q304.422 1454.1 300.788 1454.1 M300.788 1450.39 Q306.598 1450.39 309.654 1455 Q312.732 1459.58 312.732 1468.33 Q312.732 1477.06 309.654 1481.67 Q306.598 1486.25 300.788 1486.25 Q294.978 1486.25 291.899 1481.67 Q288.844 1477.06 288.844 1468.33 Q288.844 1459.58 291.899 1455 Q294.978 1450.39 300.788 1450.39 Z" fill="#000000" fill-rule="nonzero" fill-opacity="1" /><path clip-path="url(#clip260)" d="M733.093 1454.1 Q729.482 1454.1 727.653 1457.66 Q725.847 1461.2 725.847 1468.33 Q725.847 1475.44 727.653 1479.01 Q729.482 1482.55 733.093 1482.55 Q736.727 1482.55 738.532 1479.01 Q740.361 1475.44 740.361 1468.33 Q740.361 1461.2 738.532 1457.66 Q736.727 1454.1 733.093 1454.1 M733.093 1450.39 Q738.903 1450.39 741.958 1455 Q745.037 1459.58 745.037 1468.33 Q745.037 1477.06 741.958 1481.67 Q738.903 1486.25 733.093 1486.25 Q727.283 1486.25 724.204 1481.67 Q721.148 1477.06 721.148 1468.33 Q721.148 1459.58 724.204 1455 Q727.283 1450.39 733.093 1450.39 Z" fill="#000000" fill-rule="nonzero" fill-opacity="1" /><path clip-path="url(#clip260)" d="M753.255 1479.7 L758.139 1479.7 L758.139 1485.58 L753.255 1485.58 L753.255 1479.7 Z" fill="#000000" fill-rule="nonzero" fill-opacity="1" /><path clip-path="url(#clip260)" d="M772.352 1481.64 L788.671 1481.64 L788.671 1485.58 L766.727 1485.58 L766.727 1481.64 Q769.389 1478.89 773.972 1474.26 Q778.579 1469.61 779.759 1468.27 Q782.004 1465.74 782.884 1464.01 Q783.787 1462.25 783.787 1460.56 Q783.787 1457.8 781.842 1456.07 Q779.921 1454.33 776.819 1454.33 Q774.62 1454.33 772.167 1455.09 Q769.736 1455.86 766.958 1457.41 L766.958 1452.69 Q769.782 1451.55 772.236 1450.97 Q774.69 1450.39 776.727 1450.39 Q782.097 1450.39 785.292 1453.08 Q788.486 1455.77 788.486 1460.26 Q788.486 1462.39 787.676 1464.31 Q786.889 1466.2 784.782 1468.8 Q784.204 1469.47 781.102 1472.69 Q778 1475.88 772.352 1481.64 Z" fill="#000000" fill-rule="nonzero" fill-opacity="1" /><path clip-path="url(#clip260)" d="M798.532 1451.02 L816.889 1451.02 L816.889 1454.96 L802.815 1454.96 L802.815 1463.43 Q803.833 1463.08 804.852 1462.92 Q805.87 1462.73 806.889 1462.73 Q812.676 1462.73 816.055 1465.9 Q819.435 1469.08 819.435 1474.49 Q819.435 1480.07 815.963 1483.17 Q812.49 1486.25 806.171 1486.25 Q803.995 1486.25 801.727 1485.88 Q799.481 1485.51 797.074 1484.77 L797.074 1480.07 Q799.157 1481.2 801.379 1481.76 Q803.602 1482.32 806.078 1482.32 Q810.083 1482.32 812.421 1480.21 Q814.759 1478.1 814.759 1474.49 Q814.759 1470.88 812.421 1468.77 Q810.083 1466.67 806.078 1466.67 Q804.203 1466.67 802.328 1467.08 Q800.477 1467.5 798.532 1468.38 L798.532 1451.02 Z" fill="#000000" fill-rule="nonzero" fill-opacity="1" /><path clip-path="url(#clip260)" d="M1239.8 1454.1 Q1236.18 1454.1 1234.36 1457.66 Q1232.55 1461.2 1232.55 1468.33 Q1232.55 1475.44 1234.36 1479.01 Q1236.18 1482.55 1239.8 1482.55 Q1243.43 1482.55 1245.23 1479.01 Q1247.06 1475.44 1247.06 1468.33 Q1247.06 1461.2 1245.23 1457.66 Q1243.43 1454.1 1239.8 1454.1 M1239.8 1450.39 Q1245.61 1450.39 1248.66 1455 Q1251.74 1459.58 1251.74 1468.33 Q1251.74 1477.06 1248.66 1481.67 Q1245.61 1486.25 1239.8 1486.25 Q1233.98 1486.25 1230.91 1481.67 Q1227.85 1477.06 1227.85 1468.33 Q1227.85 1459.58 1230.91 1455 Q1233.98 1450.39 1239.8 1450.39 Z" fill="#000000" fill-rule="nonzero" fill-opacity="1" /><path clip-path="url(#clip260)" d="M1259.96 1479.7 L1264.84 1479.7 L1264.84 1485.58 L1259.96 1485.58 L1259.96 1479.7 Z" fill="#000000" fill-rule="nonzero" fill-opacity="1" /><path clip-path="url(#clip260)" d="M1275.07 1451.02 L1293.43 1451.02 L1293.43 1454.96 L1279.36 1454.96 L1279.36 1463.43 Q1280.37 1463.08 1281.39 1462.92 Q1282.41 1462.73 1283.43 1462.73 Q1289.22 1462.73 1292.6 1465.9 Q1295.98 1469.08 1295.98 1474.49 Q1295.98 1480.07 1292.5 1483.17 Q1289.03 1486.25 1282.71 1486.25 Q1280.54 1486.25 1278.27 1485.88 Q1276.02 1485.51 1273.61 1484.77 L1273.61 1480.07 Q1275.7 1481.2 1277.92 1481.76 Q1280.14 1482.32 1282.62 1482.32 Q1286.62 1482.32 1288.96 1480.21 Q1291.3 1478.1 1291.3 1474.49 Q1291.3 1470.88 1288.96 1468.77 Q1286.62 1466.67 1282.62 1466.67 Q1280.74 1466.67 1278.87 1467.08 Q1277.02 1467.5 1275.07 1468.38 L1275.07 1451.02 Z" fill="#000000" fill-rule="nonzero" fill-opacity="1" /><path clip-path="url(#clip260)" d="M1315.19 1454.1 Q1311.58 1454.1 1309.75 1457.66 Q1307.94 1461.2 1307.94 1468.33 Q1307.94 1475.44 1309.75 1479.01 Q1311.58 1482.55 1315.19 1482.55 Q1318.82 1482.55 1320.63 1479.01 Q1322.46 1475.44 1322.46 1468.33 Q1322.46 1461.2 1320.63 1457.66 Q1318.82 1454.1 1315.19 1454.1 M1315.19 1450.39 Q1321 1450.39 1324.05 1455 Q1327.13 1459.58 1327.13 1468.33 Q1327.13 1477.06 1324.05 1481.67 Q1321 1486.25 1315.19 1486.25 Q1309.38 1486.25 1306.3 1481.67 Q1303.24 1477.06 1303.24 1468.33 Q1303.24 1459.58 1306.3 1455 Q1309.38 1450.39 1315.19 1450.39 Z" fill="#000000" fill-rule="nonzero" fill-opacity="1" /><path clip-path="url(#clip260)" d="M1747.49 1454.1 Q1743.88 1454.1 1742.05 1457.66 Q1740.25 1461.2 1740.25 1468.33 Q1740.25 1475.44 1742.05 1479.01 Q1743.88 1482.55 1747.49 1482.55 Q1751.13 1482.55 1752.93 1479.01 Q1754.76 1475.44 1754.76 1468.33 Q1754.76 1461.2 1752.93 1457.66 Q1751.13 1454.1 1747.49 1454.1 M1747.49 1450.39 Q1753.3 1450.39 1756.36 1455 Q1759.44 1459.58 1759.44 1468.33 Q1759.44 1477.06 1756.36 1481.67 Q1753.3 1486.25 1747.49 1486.25 Q1741.68 1486.25 1738.6 1481.67 Q1735.55 1477.06 1735.55 1468.33 Q1735.55 1459.58 1738.6 1455 Q1741.68 1450.39 1747.49 1450.39 Z" fill="#000000" fill-rule="nonzero" fill-opacity="1" /><path clip-path="url(#clip260)" d="M1767.65 1479.7 L1772.54 1479.7 L1772.54 1485.58 L1767.65 1485.58 L1767.65 1479.7 Z" fill="#000000" fill-rule="nonzero" fill-opacity="1" /><path clip-path="url(#clip260)" d="M1781.54 1451.02 L1803.77 1451.02 L1803.77 1453.01 L1791.22 1485.58 L1786.34 1485.58 L1798.14 1454.96 L1781.54 1454.96 L1781.54 1451.02 Z" fill="#000000" fill-rule="nonzero" fill-opacity="1" /><path clip-path="url(#clip260)" d="M1812.93 1451.02 L1831.29 1451.02 L1831.29 1454.96 L1817.21 1454.96 L1817.21 1463.43 Q1818.23 1463.08 1819.25 1462.92 Q1820.27 1462.73 1821.29 1462.73 Q1827.08 1462.73 1830.46 1465.9 Q1833.84 1469.08 1833.84 1474.49 Q1833.84 1480.07 1830.36 1483.17 Q1826.89 1486.25 1820.57 1486.25 Q1818.4 1486.25 1816.13 1485.88 Q1813.88 1485.51 1811.47 1484.77 L1811.47 1480.07 Q1813.56 1481.2 1815.78 1481.76 Q1818 1482.32 1820.48 1482.32 Q1824.48 1482.32 1826.82 1480.21 Q1829.16 1478.1 1829.16 1474.49 Q1829.16 1470.88 1826.82 1468.77 Q1824.48 1466.67 1820.48 1466.67 Q1818.6 1466.67 1816.73 1467.08 Q1814.88 1467.5 1812.93 1468.38 L1812.93 1451.02 Z" fill="#000000" fill-rule="nonzero" fill-opacity="1" /><path clip-path="url(#clip260)" d="M2243.96 1481.64 L2251.6 1481.64 L2251.6 1455.28 L2243.29 1456.95 L2243.29 1452.69 L2251.56 1451.02 L2256.23 1451.02 L2256.23 1481.64 L2263.87 1481.64 L2263.87 1485.58 L2243.96 1485.58 L2243.96 1481.64 Z" fill="#000000" fill-rule="nonzero" fill-opacity="1" /><path clip-path="url(#clip260)" d="M2273.32 1479.7 L2278.2 1479.7 L2278.2 1485.58 L2273.32 1485.58 L2273.32 1479.7 Z" fill="#000000" fill-rule="nonzero" fill-opacity="1" /><path clip-path="url(#clip260)" d="M2298.38 1454.1 Q2294.77 1454.1 2292.95 1457.66 Q2291.14 1461.2 2291.14 1468.33 Q2291.14 1475.44 2292.95 1479.01 Q2294.77 1482.55 2298.38 1482.55 Q2302.02 1482.55 2303.82 1479.01 Q2305.65 1475.44 2305.65 1468.33 Q2305.65 1461.2 2303.82 1457.66 Q2302.02 1454.1 2298.38 1454.1 M2298.38 1450.39 Q2304.2 1450.39 2307.25 1455 Q2310.33 1459.58 2310.33 1468.33 Q2310.33 1477.06 2307.25 1481.67 Q2304.2 1486.25 2298.38 1486.25 Q2292.57 1486.25 2289.5 1481.67 Q2286.44 1477.06 2286.44 1468.33 Q2286.44 1459.58 2289.5 1455 Q2292.57 1450.39 2298.38 1450.39 Z" fill="#000000" fill-rule="nonzero" fill-opacity="1" /><path clip-path="url(#clip260)" d="M2328.55 1454.1 Q2324.94 1454.1 2323.11 1457.66 Q2321.3 1461.2 2321.3 1468.33 Q2321.3 1475.44 2323.11 1479.01 Q2324.94 1482.55 2328.55 1482.55 Q2332.18 1482.55 2333.99 1479.01 Q2335.82 1475.44 2335.82 1468.33 Q2335.82 1461.2 2333.99 1457.66 Q2332.18 1454.1 2328.55 1454.1 M2328.55 1450.39 Q2334.36 1450.39 2337.41 1455 Q2340.49 1459.58 2340.49 1468.33 Q2340.49 1477.06 2337.41 1481.67 Q2334.36 1486.25 2328.55 1486.25 Q2322.74 1486.25 2319.66 1481.67 Q2316.6 1477.06 2316.6 1468.33 Q2316.6 1459.58 2319.66 1455 Q2322.74 1450.39 2328.55 1450.39 Z" fill="#000000" fill-rule="nonzero" fill-opacity="1" /><path clip-path="url(#clip260)" d="M1285.96 1531.91 Q1285.96 1532.81 1285.54 1533.04 Q1285.13 1533.23 1283.97 1533.23 L1277.78 1533.23 L1272.89 1552.69 Q1272.5 1554.39 1272.5 1555.84 Q1272.5 1557.45 1272.98 1558.16 Q1273.5 1558.87 1274.56 1558.87 Q1276.66 1558.87 1278.91 1556.97 Q1281.2 1555.07 1283.13 1550.43 Q1283.39 1549.82 1283.52 1549.69 Q1283.68 1549.53 1284.09 1549.53 Q1284.9 1549.53 1284.9 1550.17 Q1284.9 1550.4 1284.45 1551.43 Q1284.03 1552.46 1283.1 1553.97 Q1282.19 1555.49 1281 1556.9 Q1279.84 1558.32 1278.07 1559.35 Q1276.3 1560.35 1274.4 1560.35 Q1271.73 1560.35 1270.02 1558.64 Q1268.35 1556.94 1268.35 1554.26 Q1268.35 1553.39 1269.02 1550.62 Q1269.7 1547.82 1273.37 1533.23 L1267.54 1533.23 Q1266.74 1533.23 1266.41 1533.2 Q1266.12 1533.17 1265.9 1533.01 Q1265.71 1532.81 1265.71 1532.43 Q1265.71 1531.82 1265.96 1531.56 Q1266.22 1531.27 1266.54 1531.24 Q1266.9 1531.17 1267.7 1531.17 L1273.89 1531.17 L1276.46 1520.71 Q1276.72 1519.67 1277.36 1519.09 Q1278.04 1518.48 1278.43 1518.42 Q1278.81 1518.32 1279.1 1518.32 Q1279.97 1518.32 1280.49 1518.81 Q1281 1519.26 1281 1520.09 Q1281 1520.54 1278.3 1531.17 L1284.09 1531.17 Q1284.84 1531.17 1285.13 1531.2 Q1285.45 1531.24 1285.71 1531.4 Q1285.96 1531.56 1285.96 1531.91 Z" fill="#000000" fill-rule="nonzero" fill-opacity="1" /><polyline clip-path="url(#clip262)" style="stroke:#000000; stroke-linecap:round; stroke-linejoin:round; stroke-width:2; stroke-opacity:0.1; fill:none" points="202.227,1279.73 2352.76,1279.73 "/>
<polyline clip-path="url(#clip262)" style="stroke:#000000; stroke-linecap:round; stroke-linejoin:round; stroke-width:2; stroke-opacity:0.1; fill:none" points="202.227,1102.2 2352.76,1102.2 "/>
<polyline clip-path="url(#clip262)" style="stroke:#000000; stroke-linecap:round; stroke-linejoin:round; stroke-width:2; stroke-opacity:0.1; fill:none" points="202.227,924.666 2352.76,924.666 "/>
<polyline clip-path="url(#clip262)" style="stroke:#000000; stroke-linecap:round; stroke-linejoin:round; stroke-width:2; stroke-opacity:0.1; fill:none" points="202.227,747.135 2352.76,747.135 "/>
<polyline clip-path="url(#clip262)" style="stroke:#000000; stroke-linecap:round; stroke-linejoin:round; stroke-width:2; stroke-opacity:0.1; fill:none" points="202.227,569.604 2352.76,569.604 "/>
<polyline clip-path="url(#clip262)" style="stroke:#000000; stroke-linecap:round; stroke-linejoin:round; stroke-width:2; stroke-opacity:0.1; fill:none" points="202.227,392.074 2352.76,392.074 "/>
<polyline clip-path="url(#clip262)" style="stroke:#000000; stroke-linecap:round; stroke-linejoin:round; stroke-width:2; stroke-opacity:0.1; fill:none" points="202.227,214.543 2352.76,214.543 "/>
<polyline clip-path="url(#clip260)" style="stroke:#000000; stroke-linecap:round; stroke-linejoin:round; stroke-width:4; stroke-opacity:1; fill:none" points="202.227,1423.18 202.227,47.2441 "/>
<polyline clip-path="url(#clip260)" style="stroke:#000000; stroke-linecap:round; stroke-linejoin:round; stroke-width:4; stroke-opacity:1; fill:none" points="202.227,1279.73 221.125,1279.73 "/>
<polyline clip-path="url(#clip260)" style="stroke:#000000; stroke-linecap:round; stroke-linejoin:round; stroke-width:4; stroke-opacity:1; fill:none" points="202.227,1102.2 221.125,1102.2 "/>
<polyline clip-path="url(#clip260)" style="stroke:#000000; stroke-linecap:round; stroke-linejoin:round; stroke-width:4; stroke-opacity:1; fill:none" points="202.227,924.666 221.125,924.666 "/>
<polyline clip-path="url(#clip260)" style="stroke:#000000; stroke-linecap:round; stroke-linejoin:round; stroke-width:4; stroke-opacity:1; fill:none" points="202.227,747.135 221.125,747.135 "/>
<polyline clip-path="url(#clip260)" style="stroke:#000000; stroke-linecap:round; stroke-linejoin:round; stroke-width:4; stroke-opacity:1; fill:none" points="202.227,569.604 221.125,569.604 "/>
<polyline clip-path="url(#clip260)" style="stroke:#000000; stroke-linecap:round; stroke-linejoin:round; stroke-width:4; stroke-opacity:1; fill:none" points="202.227,392.074 221.125,392.074 "/>
<polyline clip-path="url(#clip260)" style="stroke:#000000; stroke-linecap:round; stroke-linejoin:round; stroke-width:4; stroke-opacity:1; fill:none" points="202.227,214.543 221.125,214.543 "/>
<path clip-path="url(#clip260)" d="M144.005 1262.45 L166.227 1262.45 L166.227 1264.44 L153.681 1297.01 L148.797 1297.01 L160.603 1266.38 L144.005 1266.38 L144.005 1262.45 Z" fill="#000000" fill-rule="nonzero" fill-opacity="1" /><path clip-path="url(#clip260)" d="M154.376 1103.06 Q151.042 1103.06 149.121 1104.85 Q147.223 1106.63 147.223 1109.75 Q147.223 1112.88 149.121 1114.66 Q151.042 1116.44 154.376 1116.44 Q157.709 1116.44 159.63 1114.66 Q161.552 1112.86 161.552 1109.75 Q161.552 1106.63 159.63 1104.85 Q157.732 1103.06 154.376 1103.06 M149.7 1101.07 Q146.691 1100.33 145.001 1098.27 Q143.334 1096.21 143.334 1093.25 Q143.334 1089.11 146.274 1086.7 Q149.237 1084.29 154.376 1084.29 Q159.538 1084.29 162.477 1086.7 Q165.417 1089.11 165.417 1093.25 Q165.417 1096.21 163.727 1098.27 Q162.061 1100.33 159.075 1101.07 Q162.454 1101.86 164.329 1104.15 Q166.227 1106.44 166.227 1109.75 Q166.227 1114.78 163.149 1117.46 Q160.093 1120.15 154.376 1120.15 Q148.658 1120.15 145.579 1117.46 Q142.524 1114.78 142.524 1109.75 Q142.524 1106.44 144.422 1104.15 Q146.32 1101.86 149.7 1101.07 M147.987 1093.69 Q147.987 1096.38 149.653 1097.88 Q151.343 1099.38 154.376 1099.38 Q157.385 1099.38 159.075 1097.88 Q160.788 1096.38 160.788 1093.69 Q160.788 1091 159.075 1089.5 Q157.385 1088 154.376 1088 Q151.343 1088 149.653 1089.5 Q147.987 1091 147.987 1093.69 Z" fill="#000000" fill-rule="nonzero" fill-opacity="1" /><path clip-path="url(#clip260)" d="M144.607 941.229 L144.607 936.969 Q146.366 937.803 148.172 938.242 Q149.978 938.682 151.714 938.682 Q156.343 938.682 158.774 935.58 Q161.227 932.455 161.575 926.113 Q160.232 928.104 158.172 929.168 Q156.112 930.233 153.612 930.233 Q148.427 930.233 145.394 927.108 Q142.385 923.96 142.385 918.52 Q142.385 913.196 145.533 909.979 Q148.681 906.761 153.913 906.761 Q159.908 906.761 163.056 911.368 Q166.227 915.951 166.227 924.701 Q166.227 932.872 162.339 937.756 Q158.473 942.617 151.922 942.617 Q150.163 942.617 148.357 942.27 Q146.552 941.923 144.607 941.229 M153.913 926.576 Q157.061 926.576 158.89 924.423 Q160.741 922.27 160.741 918.52 Q160.741 914.793 158.89 912.641 Q157.061 910.465 153.913 910.465 Q150.765 910.465 148.913 912.641 Q147.084 914.793 147.084 918.52 Q147.084 922.27 148.913 924.423 Q150.765 926.576 153.913 926.576 Z" fill="#000000" fill-rule="nonzero" fill-opacity="1" /><path clip-path="url(#clip260)" d="M114.931 760.48 L122.57 760.48 L122.57 734.115 L114.26 735.781 L114.26 731.522 L122.524 729.855 L127.2 729.855 L127.2 760.48 L134.839 760.48 L134.839 764.415 L114.931 764.415 L114.931 760.48 Z" fill="#000000" fill-rule="nonzero" fill-opacity="1" /><path clip-path="url(#clip260)" d="M154.283 732.934 Q150.672 732.934 148.843 736.499 Q147.038 740.04 147.038 747.17 Q147.038 754.276 148.843 757.841 Q150.672 761.383 154.283 761.383 Q157.917 761.383 159.723 757.841 Q161.552 754.276 161.552 747.17 Q161.552 740.04 159.723 736.499 Q157.917 732.934 154.283 732.934 M154.283 729.23 Q160.093 729.23 163.149 733.837 Q166.227 738.42 166.227 747.17 Q166.227 755.897 163.149 760.503 Q160.093 765.087 154.283 765.087 Q148.473 765.087 145.394 760.503 Q142.339 755.897 142.339 747.17 Q142.339 738.42 145.394 733.837 Q148.473 729.23 154.283 729.23 Z" fill="#000000" fill-rule="nonzero" fill-opacity="1" /><path clip-path="url(#clip260)" d="M116.158 582.949 L123.797 582.949 L123.797 556.584 L115.487 558.25 L115.487 553.991 L123.751 552.324 L128.427 552.324 L128.427 582.949 L136.066 582.949 L136.066 586.884 L116.158 586.884 L116.158 582.949 Z" fill="#000000" fill-rule="nonzero" fill-opacity="1" /><path clip-path="url(#clip260)" d="M146.32 582.949 L153.959 582.949 L153.959 556.584 L145.649 558.25 L145.649 553.991 L153.913 552.324 L158.589 552.324 L158.589 582.949 L166.227 582.949 L166.227 586.884 L146.32 586.884 L146.32 582.949 Z" fill="#000000" fill-rule="nonzero" fill-opacity="1" /><path clip-path="url(#clip260)" d="M116.529 405.418 L124.168 405.418 L124.168 379.053 L115.857 380.719 L115.857 376.46 L124.121 374.794 L128.797 374.794 L128.797 405.418 L136.436 405.418 L136.436 409.354 L116.529 409.354 L116.529 405.418 Z" fill="#000000" fill-rule="nonzero" fill-opacity="1" /><path clip-path="url(#clip260)" d="M149.908 405.418 L166.227 405.418 L166.227 409.354 L144.283 409.354 L144.283 405.418 Q146.945 402.664 151.528 398.034 Q156.135 393.381 157.315 392.039 Q159.561 389.516 160.44 387.78 Q161.343 386.02 161.343 384.331 Q161.343 381.576 159.399 379.84 Q157.478 378.104 154.376 378.104 Q152.177 378.104 149.723 378.868 Q147.292 379.632 144.515 381.182 L144.515 376.46 Q147.339 375.326 149.792 374.747 Q152.246 374.169 154.283 374.169 Q159.653 374.169 162.848 376.854 Q166.042 379.539 166.042 384.03 Q166.042 386.159 165.232 388.081 Q164.445 389.979 162.339 392.571 Q161.76 393.243 158.658 396.46 Q155.556 399.655 149.908 405.418 Z" fill="#000000" fill-rule="nonzero" fill-opacity="1" /><path clip-path="url(#clip260)" d="M115.58 227.888 L123.218 227.888 L123.218 201.522 L114.908 203.189 L114.908 198.929 L123.172 197.263 L127.848 197.263 L127.848 227.888 L135.487 227.888 L135.487 231.823 L115.58 231.823 L115.58 227.888 Z" fill="#000000" fill-rule="nonzero" fill-opacity="1" /><path clip-path="url(#clip260)" d="M159.098 213.189 Q162.454 213.906 164.329 216.175 Q166.227 218.443 166.227 221.777 Q166.227 226.892 162.709 229.693 Q159.19 232.494 152.709 232.494 Q150.533 232.494 148.218 232.054 Q145.927 231.638 143.473 230.781 L143.473 226.267 Q145.417 227.401 147.732 227.98 Q150.047 228.559 152.57 228.559 Q156.968 228.559 159.26 226.823 Q161.575 225.087 161.575 221.777 Q161.575 218.721 159.422 217.008 Q157.292 215.272 153.473 215.272 L149.445 215.272 L149.445 211.429 L153.658 211.429 Q157.107 211.429 158.936 210.064 Q160.765 208.675 160.765 206.082 Q160.765 203.42 158.866 202.008 Q156.991 200.573 153.473 200.573 Q151.552 200.573 149.353 200.99 Q147.153 201.406 144.515 202.286 L144.515 198.119 Q147.177 197.378 149.491 197.008 Q151.829 196.638 153.89 196.638 Q159.214 196.638 162.315 199.068 Q165.417 201.476 165.417 205.596 Q165.417 208.466 163.774 210.457 Q162.13 212.425 159.098 213.189 Z" fill="#000000" fill-rule="nonzero" fill-opacity="1" /><path clip-path="url(#clip260)" d="M30.8561 720.775 Q31.307 720.775 32.3698 721.064 L57.5548 727.377 Q63.1586 728.762 67.0877 733.27 Q71.0168 737.747 71.0168 742.836 Q71.0168 745.895 69.3743 747.86 Q67.764 749.824 65.2842 749.824 Q63.0942 749.824 62.0314 748.665 Q61.0008 747.505 61.0008 746.121 Q61.0008 745.67 61.1296 745.187 Q61.2584 744.703 61.8059 744.188 Q62.3534 743.673 63.2874 743.673 Q64.8011 743.673 65.9927 744.993 Q66.5402 745.637 66.669 746.249 Q66.7978 746.829 66.7978 747.827 Q67.6996 747.441 68.3115 746.732 Q68.9234 746.024 69.1489 745.219 Q69.4065 744.414 69.4709 743.898 Q69.5675 743.351 69.5675 742.836 Q69.5675 738.713 65.413 735.557 Q64.157 734.623 62.9009 733.947 Q61.6771 733.238 60.1634 732.723 Q58.682 732.208 57.8768 731.982 Q57.0717 731.725 55.2359 731.274 Q58.2311 734.269 58.2311 737.94 Q58.2311 739.486 57.8124 740.871 Q57.3937 742.224 56.5242 743.415 Q55.6224 744.607 54.0443 745.315 Q52.4662 745.992 50.3728 745.992 Q48.1506 745.992 45.1233 745.122 Q42.0959 744.253 36.5243 742.159 Q33.4004 741.032 31.8867 741.032 Q31.146 741.032 30.6951 741.193 Q30.212 741.354 30.051 741.676 Q29.8577 741.998 29.8255 742.191 Q29.7933 742.352 29.7933 742.675 Q29.7933 744.575 31.7257 746.346 Q33.658 748.117 37.9736 749.341 Q38.7787 749.599 38.972 749.76 Q39.1652 749.921 39.1652 750.404 Q39.133 751.209 38.4889 751.209 Q38.2312 751.209 37.2329 750.919 Q36.2023 750.629 34.6886 749.953 Q33.1427 749.245 31.7579 748.278 Q30.3408 747.312 29.3424 745.798 Q28.344 744.253 28.344 742.481 Q28.344 740.066 29.9221 738.584 Q31.468 737.071 33.7546 737.071 Q34.6886 737.071 35.5259 737.328 Q36.3311 737.554 38.4889 738.391 Q47.1845 741.773 51.4356 741.773 Q52.4662 741.773 53.3358 741.612 Q54.1731 741.418 55.0105 741 Q55.8156 740.581 56.2987 739.744 Q56.7496 738.874 56.7496 737.683 Q56.7496 736.169 56.0411 734.752 Q55.3003 733.303 54.302 732.401 Q53.3036 731.467 52.4662 730.919 Q51.5967 730.34 51.1458 730.211 L39.294 727.248 L34.0123 725.927 Q31.146 725.316 30.4374 725.026 Q29.7611 724.639 29.4068 723.963 Q29.0526 723.287 29.0526 722.707 Q29.0526 721.902 29.5357 721.354 Q30.0187 720.775 30.8561 720.775 Z" fill="#000000" fill-rule="nonzero" fill-opacity="1" /><polyline clip-path="url(#clip262)" style="stroke:#e26f46; stroke-linecap:round; stroke-linejoin:round; stroke-width:8; stroke-opacity:1; fill:none" stroke-dasharray="32, 20" points="263.091,896.261 267.054,880.113 271.016,867.908 274.979,865.771 278.941,863.13 282.904,864.633 286.866,862.899 290.829,865.99 294.791,863.547 298.754,867.056 302.716,866.995 306.679,861.563 310.641,858.549 314.604,861.52 318.566,865.493 322.529,865.335 326.491,865.754 330.454,869.495 334.416,870.175 338.379,874.141 342.341,875.094 346.304,875.522 350.267,884.063 354.229,883.895 358.192,892.323 362.154,892.05 366.117,893.618 370.079,901.116 374.042,905.317 378.004,910.052 381.967,911.705 385.929,915.257 389.892,912.802 393.854,910.337 397.817,916.73 401.779,919.577 405.742,923.384 409.704,928.56 413.667,894.435 417.629,902.342 421.592,907.617 425.554,912.502 429.517,919.698 433.479,920.824 437.442,920.778 441.404,925.518 445.367,928.324 449.329,938.192 453.292,943.25 457.254,947.16 461.217,951.353 465.179,956.438 469.142,961.089 473.104,963.163 477.067,968.978 481.029,977.854 484.992,980.047 488.954,987.426 492.917,993.699 496.879,1000.76 500.842,1004.61 504.804,1032.43 508.767,1050.6 512.729,1065.53 516.692,1078.07 520.654,1088.6 524.617,1072.27 528.579,1060.77 532.542,1072.57 536.504,1073.87 540.467,1071.74 544.429,1088.5 548.392,1093.81 552.354,1106.21 556.317,1106.49 560.279,1118.39 564.242,1131.63 568.204,1148.82 572.167,1141.75 576.129,1136.53 580.092,1131.59 584.054,1132.46 588.017,1140.63 591.979,1137.31 595.942,1135.62 599.904,1148.11 603.867,1151.65 607.829,1161.22 611.792,1139.14 615.754,1130.25 619.717,1130.81 623.679,1089.41 627.642,1093.99 631.604,1106.74 635.567,1084.63 639.529,1115.29 643.492,1121.98 647.454,1118.5 651.417,1116.58 655.379,1125.89 659.342,1145.82 663.304,1171.93 667.267,1172.39 671.229,1171.11 675.192,1168.05 679.154,1162.25 683.117,1179.25 687.079,1171.16 691.042,1171.93 695.004,1175.96 698.967,1179.08 702.929,1169.51 706.892,1174.08 710.854,1199.82 714.817,1191.9 718.779,1191.11 722.742,1173.37 726.704,1169.96 730.667,1157.52 734.629,1168.16 738.592,1157.11 742.554,1148.88 746.517,1157.79 750.479,1135.62 754.442,1147.61 758.404,1156.9 762.367,1160.12 766.329,1165.67 770.292,1144.14 774.254,1116.92 778.217,1141.48 782.179,1132.73 786.142,1118.22 790.104,1092.15 794.067,1096.89 798.029,1078.4 801.992,1070.28 805.954,1029.84 809.917,969.728 813.879,114.189 817.842,104.804 821.804,128.143 825.767,86.1857 829.729,105.77 833.692,165.536 837.654,197.156 841.617,209.205 845.579,211.377 849.542,233.38 853.504,225.674 857.467,222.765 861.429,220.205 865.392,256.441 869.354,285.43 873.317,333.959 877.279,366.061 881.242,379.146 885.204,358.967 889.167,361.616 893.129,356.995 897.092,344.894 901.054,340.078 905.017,348.71 908.979,368.006 912.942,377.456 916.904,398.488 920.867,364.705 924.829,391.997 928.792,393.254 932.754,374.249 936.717,394.395 940.679,421.3 944.642,444.31 948.604,462.808 952.567,465.866 956.529,469.251 960.492,457.84 964.454,450.527 968.417,461.131 972.379,487.034 976.342,515.313 980.304,560.264 984.267,572.943 988.229,571.753 992.192,593.237 996.154,606.705 1000.12,626.673 1004.08,647.749 1008.04,620.324 1012,616.153 1015.97,638.235 1019.93,656.532 1023.89,682.358 1027.85,701.294 1031.82,707.811 1035.78,753.44 1039.74,772.619 1043.7,806.427 1047.67,816.493 1051.63,809.321 1055.59,810.321 1059.55,786.214 1063.52,783.128 1067.48,802.679 1071.44,804.714 1075.4,801.919 1079.37,800.295 1083.33,808.131 1087.29,825.837 1091.25,826.809 1095.22,835.018 1099.18,852.803 1103.14,861.252 1107.1,858.88 1111.07,871.854 1115.03,816.14 1118.99,842.193 1122.95,854.066 1126.92,854.576 1130.88,863.926 1134.84,868.202 1138.8,875.549 1142.77,881.085 1146.73,873.723 1150.69,875.667 1154.65,877.536 1158.62,877.704 1162.58,898.636 1166.54,903.151 1170.5,888.74 1174.47,874.8 1178.43,857.148 1182.39,860.474 1186.35,865.613 1190.32,843.118 1194.28,841.52 1198.24,883.311 1202.2,888.838 1206.17,892.771 1210.13,887.164 1214.09,894.488 1218.05,882.259 1222.02,893.818 1225.98,902.339 1229.94,914.015 1233.9,918.529 1237.87,934.039 1241.83,953.735 1245.79,958.17 1249.75,949.551 1253.72,948.327 1257.68,953.622 1261.64,979.053 1265.6,965.455 1269.57,966.382 1273.53,991.684 1277.49,1009.48 1281.45,1004.36 1285.42,975.868 1289.38,1015.8 1293.34,995.403 1297.3,1002.5 1301.27,1007.84 1305.23,997.512 1309.19,988.359 1313.15,978.847 1317.12,995.333 1321.08,994.485 1325.04,984.178 1329,992.084 1332.97,923.173 1336.93,933.192 1340.89,953.151 1344.85,960.84 1348.82,945.847 1352.78,954.27 1356.74,982.504 1360.7,978.529 1364.67,976.852 1368.63,988.878 1372.59,1008.53 1376.55,1034.88 1380.52,1038.59 1384.48,1047.71 1388.44,1050.85 1392.4,1035.86 1396.37,1020.84 1400.33,1023.9 1404.29,1042.24 1408.25,1025.56 1412.22,1022.62 1416.18,1025.34 1420.14,1031.56 1424.1,1045.47 1428.07,1022.73 1432.03,1005.8 1435.99,1036.3 1439.95,1052.12 1443.92,1076.58 1447.88,1113.46 1451.84,1122.68 1455.8,1126.13 1459.77,1111.08 1463.73,1111.24 1467.69,1116.93 1471.65,1130.89 1475.62,1129.01 1479.58,1108.6 1483.54,1106.73 1487.5,1102.69 1491.47,1097.29 1495.43,1109.69 1499.39,1099.89 1503.35,1095.74 1507.32,1111.4 1511.28,1101.26 1515.24,1121.81 1519.2,1133.12 1523.17,1133.05 1527.13,1150.72 1531.09,1141.71 1535.05,1150.2 1539.02,1195.8 1542.98,1187.92 1546.94,1183.08 1550.9,1185.32 1554.87,1179.51 1558.83,1198.55 1562.79,1188.22 1566.75,1204.45 1570.72,1204.37 1574.68,1216.87 1578.64,1206.82 1582.6,1214.73 1586.57,1214.25 1590.53,1218.18 1594.49,1226.28 1598.45,1209.52 1602.42,1216.85 1606.38,1238.93 1610.34,1243.43 1614.3,1249.85 1618.27,1249.6 1622.23,1256.91 1626.19,1253.8 1630.15,1251.06 1634.12,1243.57 1638.08,1239.75 1642.04,1220.68 1646,1204.76 1649.97,1239.85 1653.93,1284.87 1657.89,1279.55 1661.85,1292.7 1665.82,1299.54 1669.78,1316.8 1673.74,1320.81 1677.7,1318.7 1681.67,1327.16 1685.63,1351.47 1689.59,1345 1693.55,1371.8 1697.52,1364.94 1701.48,1364.44 1705.44,1353.68 1709.4,1335.53 1713.37,1314.17 1717.33,1294.73 1721.29,1318.37 1725.25,1315.4 1729.22,1300.52 1733.18,1304.01 1737.14,1317.66 1741.1,1321.21 1745.07,1333.93 1749.03,1343.55 1752.99,1339.76 1756.95,1335.91 1760.92,1334.24 1764.88,1343.81 1768.84,1347.43 1772.8,1355.07 1776.77,1334.68 1780.73,1315.22 1784.69,1309.66 1788.65,1301.17 1792.62,1321.26 1796.58,1319.68 1800.54,1329.76 1804.5,1330.78 1808.47,1334.49 1812.43,1330.29 1816.39,1329.53 1820.35,1355.77 1824.32,1337.73 1828.28,1349.85 1832.24,1345.16 1836.2,1357.19 1840.17,1364.59 1844.13,1365.47 1848.09,1364.75 1852.05,1384.24 1856.02,1383.14 1859.98,1372.4 1863.94,1377.14 1867.9,1370.45 1871.87,1365.44 1875.83,1346.92 1879.79,1346.94 1883.75,1352.88 1887.72,1352.41 1891.68,896.076 1895.64,882.662 1899.6,866.233 1903.57,864.428 1907.53,870.142 1911.49,862.903 1915.45,852.069 1919.42,865.816 1923.38,865.027 1927.34,867.513 1931.3,897.198 1935.27,905.42 1939.23,902.293 1943.19,431.253 1947.15,437.741 1951.12,365.43 1955.08,354.538 1959.04,348.575 1963,381.436 1966.97,513.271 1970.93,506.462 1974.89,504.78 1978.85,520.677 1982.82,513.874 1986.78,500.777 1990.74,515.791 1994.7,521.392 1998.67,527.449 2002.63,526.327 2006.59,513.752 2010.55,518.838 2014.52,527.599 2018.48,536.008 2022.44,533.265 2026.4,540.373 2030.37,551.1 2034.33,554.065 2038.29,563.629 2042.25,569.658 2046.22,568.62 2050.18,578.615 2054.14,574.743 2058.1,579.126 2062.07,575.754 2066.03,575.947 2069.99,575.968 2073.95,587.837 2077.92,591.827 2081.88,584.574 2085.84,586.035 2089.8,581.269 2093.77,579.259 2097.73,582.426 2101.69,578.268 2105.65,579.258 2109.62,581.355 2113.58,578.986 2117.54,571.874 2121.5,554.399 2125.47,571.517 2129.43,572.035 2133.39,581.547 2137.35,583.61 2141.32,575.418 2145.28,585.947 2149.24,587.593 2153.2,588.685 2157.17,587.442 2161.13,586.226 2165.09,565.84 2169.05,560.63 2173.02,552.736 2176.98,553.341 2180.94,546.797 2184.9,539.709 2188.87,555.033 2192.83,541.339 2196.79,542.613 2200.75,531.886 2204.72,527.509 2208.68,526.059 2212.64,513.157 2216.6,496.8 2220.57,499.885 2224.53,523.004 2228.49,543.392 2232.45,522.165 2236.42,532.117 2240.38,532.602 2244.34,534.375 2248.3,533.922 2252.27,542.243 2256.23,526.899 2260.19,518.155 2264.15,505.402 2268.12,510.081 2272.08,522.22 2276.04,538.56 2280,528.78 2283.97,533.539 2287.93,525.949 2291.89,513.549 "/>
<path clip-path="url(#clip260)" d="M273.912 231.757 L668.756 231.757 L668.756 93.1086 L273.912 93.1086  Z" fill="#ffffff" fill-rule="evenodd" fill-opacity="1"/>
<polyline clip-path="url(#clip260)" style="stroke:#000000; stroke-linecap:round; stroke-linejoin:round; stroke-width:4; stroke-opacity:1; fill:none" points="273.912,231.757 668.756,231.757 668.756,93.1086 273.912,93.1086 273.912,231.757 "/>
<polyline clip-path="url(#clip260)" style="stroke:#e26f46; stroke-linecap:round; stroke-linejoin:round; stroke-width:8; stroke-opacity:1; fill:none" stroke-dasharray="32, 20" points="297.807,162.433 441.175,162.433 "/>
<path clip-path="url(#clip260)" d="M465.07 195.835 L465.07 153.008 Q465.07 151.301 465.991 151.301 Q466.911 151.301 466.911 152.671 L466.911 195.498 Q466.911 197.205 465.991 197.205 Q465.07 197.205 465.07 195.835 Z" fill="#000000" fill-rule="nonzero" fill-opacity="1" /><path clip-path="url(#clip260)" d="M489.171 195.835 L489.171 153.008 Q489.171 151.301 490.092 151.301 Q491.013 151.301 491.013 152.671 L491.013 195.498 Q491.013 197.205 490.092 197.205 Q489.171 197.205 489.171 195.835 Z" fill="#000000" fill-rule="nonzero" fill-opacity="1" /><path clip-path="url(#clip260)" d="M553.091 153.575 L552.084 153.575 Q550.819 153.575 549.578 153.715 Q548.383 153.879 548.102 154.067 Q547.891 154.23 547.704 154.535 L536.438 171.095 L536.438 181.986 L541.661 181.986 L541.661 184.235 Q539.834 184.094 533.182 184.094 Q526.46 184.094 524.727 184.235 L524.727 181.986 L529.926 181.986 L529.926 171.095 L517.981 153.575 L513.273 153.575 L513.273 151.326 Q514.959 151.467 521.19 151.467 Q528.006 151.467 529.973 151.326 L529.973 153.575 L525.898 153.575 L535.618 167.839 L544.589 154.629 Q544.753 154.418 544.94 154.067 Q543.628 153.575 541.286 153.575 L541.286 151.326 Q543.066 151.467 547.61 151.467 L553.091 151.326 L553.091 153.575 Z" fill="#000000" fill-rule="nonzero" fill-opacity="1" /><path clip-path="url(#clip260)" d="M568.128 182.623 Q568.128 183.082 567.915 183.197 Q567.701 183.295 567.111 183.295 L563.963 183.295 L561.471 193.198 Q561.274 194.067 561.274 194.805 Q561.274 195.625 561.52 195.985 Q561.783 196.346 562.324 196.346 Q563.389 196.346 564.537 195.379 Q565.701 194.411 566.685 192.05 Q566.816 191.739 566.882 191.673 Q566.964 191.591 567.177 191.591 Q567.587 191.591 567.587 191.919 Q567.587 192.034 567.357 192.559 Q567.144 193.083 566.669 193.854 Q566.209 194.624 565.603 195.346 Q565.013 196.067 564.111 196.592 Q563.209 197.1 562.242 197.1 Q560.881 197.1 560.012 196.231 Q559.159 195.362 559.159 194.001 Q559.159 193.559 559.504 192.149 Q559.848 190.722 561.717 183.295 L558.749 183.295 Q558.339 183.295 558.176 183.279 Q558.028 183.262 557.913 183.18 Q557.815 183.082 557.815 182.885 Q557.815 182.574 557.946 182.442 Q558.077 182.295 558.241 182.278 Q558.421 182.246 558.831 182.246 L561.979 182.246 L563.291 176.917 Q563.422 176.392 563.75 176.097 Q564.094 175.786 564.291 175.753 Q564.488 175.704 564.635 175.704 Q565.078 175.704 565.34 175.95 Q565.603 176.179 565.603 176.606 Q565.603 176.835 564.226 182.246 L567.177 182.246 Q567.554 182.246 567.701 182.262 Q567.865 182.278 567.997 182.36 Q568.128 182.442 568.128 182.623 Z" fill="#000000" fill-rule="nonzero" fill-opacity="1" /><path clip-path="url(#clip260)" d="M578.26 195.835 L578.26 153.008 Q578.26 151.301 579.18 151.301 Q580.101 151.301 580.101 152.671 L580.101 195.498 Q580.101 197.205 579.18 197.205 Q578.26 197.205 578.26 195.835 Z" fill="#000000" fill-rule="nonzero" fill-opacity="1" /><path clip-path="url(#clip260)" d="M602.361 195.835 L602.361 153.008 Q602.361 151.301 603.282 151.301 Q604.203 151.301 604.203 152.671 L604.203 195.498 Q604.203 197.205 603.282 197.205 Q602.361 197.205 602.361 195.835 Z" fill="#000000" fill-rule="nonzero" fill-opacity="1" /><path clip-path="url(#clip260)" d="M626.463 149.919 Q626.463 149.313 626.512 149.132 Q626.577 148.952 626.84 148.673 L633.283 141.492 Q636.808 137.524 636.808 134.065 Q636.808 131.818 635.628 130.212 Q634.464 128.605 632.316 128.605 Q630.84 128.605 629.594 129.507 Q628.348 130.408 627.774 132.015 Q627.873 131.982 628.217 131.982 Q629.053 131.982 629.512 132.507 Q629.988 133.032 629.988 133.737 Q629.988 134.638 629.397 135.081 Q628.824 135.507 628.25 135.507 Q628.02 135.507 627.709 135.458 Q627.414 135.409 626.938 134.95 Q626.463 134.474 626.463 133.638 Q626.463 131.294 628.233 129.425 Q630.021 127.555 632.742 127.555 Q635.825 127.555 637.841 129.392 Q639.874 131.212 639.874 134.065 Q639.874 135.065 639.563 135.983 Q639.268 136.885 638.858 137.59 Q638.464 138.295 637.382 139.426 Q636.3 140.557 635.431 141.361 Q634.562 142.164 632.611 143.869 L629.053 147.329 L635.103 147.329 Q638.054 147.329 638.284 147.066 Q638.612 146.591 639.022 144.082 L639.874 144.082 L638.923 149.919 L626.463 149.919 Z" fill="#000000" fill-rule="nonzero" fill-opacity="1" /></svg>
