<?xml version="1.0" encoding="utf-8"?>
<svg xmlns="http://www.w3.org/2000/svg" xmlns:xlink="http://www.w3.org/1999/xlink" width="600" height="400" viewBox="0 0 2400 1600">
<defs>
  <clipPath id="clip920">
    <rect x="0" y="0" width="2400" height="1600"/>
  </clipPath>
</defs>
<path clip-path="url(#clip920)" d="M0 1600 L2400 1600 L2400 0 L0 0  Z" fill="#ffffff" fill-rule="evenodd" fill-opacity="1"/>
<defs>
  <clipPath id="clip921">
    <rect x="480" y="0" width="1681" height="1600"/>
  </clipPath>
</defs>
<path clip-path="url(#clip920)" d="M210.746 1423.18 L2352.76 1423.18 L2352.76 47.2441 L210.746 47.2441  Z" fill="#ffffff" fill-rule="evenodd" fill-opacity="1"/>
<defs>
  <clipPath id="clip922">
    <rect x="210" y="47" width="2143" height="1377"/>
  </clipPath>
</defs>
<polyline clip-path="url(#clip922)" style="stroke:#000000; stroke-linecap:round; stroke-linejoin:round; stroke-width:2; stroke-opacity:0.1; fill:none" points="271.369,1423.18 271.369,47.2441 "/>
<polyline clip-path="url(#clip922)" style="stroke:#000000; stroke-linecap:round; stroke-linejoin:round; stroke-width:2; stroke-opacity:0.1; fill:none" points="776.56,1423.18 776.56,47.2441 "/>
<polyline clip-path="url(#clip922)" style="stroke:#000000; stroke-linecap:round; stroke-linejoin:round; stroke-width:2; stroke-opacity:0.1; fill:none" points="1281.75,1423.18 1281.75,47.2441 "/>
<polyline clip-path="url(#clip922)" style="stroke:#000000; stroke-linecap:round; stroke-linejoin:round; stroke-width:2; stroke-opacity:0.1; fill:none" points="1786.94,1423.18 1786.94,47.2441 "/>
<polyline clip-path="url(#clip922)" style="stroke:#000000; stroke-linecap:round; stroke-linejoin:round; stroke-width:2; stroke-opacity:0.1; fill:none" points="2292.13,1423.18 2292.13,47.2441 "/>
<polyline clip-path="url(#clip922)" style="stroke:#000000; stroke-linecap:round; stroke-linejoin:round; stroke-width:2; stroke-opacity:0.1; fill:none" points="210.746,1392.19 2352.76,1392.19 "/>
<polyline clip-path="url(#clip922)" style="stroke:#000000; stroke-linecap:round; stroke-linejoin:round; stroke-width:2; stroke-opacity:0.1; fill:none" points="210.746,1174.52 2352.76,1174.52 "/>
<polyline clip-path="url(#clip922)" style="stroke:#000000; stroke-linecap:round; stroke-linejoin:round; stroke-width:2; stroke-opacity:0.1; fill:none" points="210.746,956.857 2352.76,956.857 "/>
<polyline clip-path="url(#clip922)" style="stroke:#000000; stroke-linecap:round; stroke-linejoin:round; stroke-width:2; stroke-opacity:0.1; fill:none" points="210.746,739.189 2352.76,739.189 "/>
<polyline clip-path="url(#clip922)" style="stroke:#000000; stroke-linecap:round; stroke-linejoin:round; stroke-width:2; stroke-opacity:0.1; fill:none" points="210.746,521.521 2352.76,521.521 "/>
<polyline clip-path="url(#clip922)" style="stroke:#000000; stroke-linecap:round; stroke-linejoin:round; stroke-width:2; stroke-opacity:0.1; fill:none" points="210.746,303.853 2352.76,303.853 "/>
<polyline clip-path="url(#clip922)" style="stroke:#000000; stroke-linecap:round; stroke-linejoin:round; stroke-width:2; stroke-opacity:0.1; fill:none" points="210.746,86.1857 2352.76,86.1857 "/>
<polyline clip-path="url(#clip920)" style="stroke:#000000; stroke-linecap:round; stroke-linejoin:round; stroke-width:4; stroke-opacity:1; fill:none" points="210.746,1423.18 2352.76,1423.18 "/>
<polyline clip-path="url(#clip920)" style="stroke:#000000; stroke-linecap:round; stroke-linejoin:round; stroke-width:4; stroke-opacity:1; fill:none" points="271.369,1423.18 271.369,1404.28 "/>
<polyline clip-path="url(#clip920)" style="stroke:#000000; stroke-linecap:round; stroke-linejoin:round; stroke-width:4; stroke-opacity:1; fill:none" points="776.56,1423.18 776.56,1404.28 "/>
<polyline clip-path="url(#clip920)" style="stroke:#000000; stroke-linecap:round; stroke-linejoin:round; stroke-width:4; stroke-opacity:1; fill:none" points="1281.75,1423.18 1281.75,1404.28 "/>
<polyline clip-path="url(#clip920)" style="stroke:#000000; stroke-linecap:round; stroke-linejoin:round; stroke-width:4; stroke-opacity:1; fill:none" points="1786.94,1423.18 1786.94,1404.28 "/>
<polyline clip-path="url(#clip920)" style="stroke:#000000; stroke-linecap:round; stroke-linejoin:round; stroke-width:4; stroke-opacity:1; fill:none" points="2292.13,1423.18 2292.13,1404.28 "/>
<path clip-path="url(#clip920)" d="M248.753 1454.1 Q245.142 1454.1 243.313 1457.66 Q241.508 1461.2 241.508 1468.33 Q241.508 1475.44 243.313 1479.01 Q245.142 1482.55 248.753 1482.55 Q252.387 1482.55 254.193 1479.01 Q256.022 1475.44 256.022 1468.33 Q256.022 1461.2 254.193 1457.66 Q252.387 1454.1 248.753 1454.1 M248.753 1450.39 Q254.563 1450.39 257.619 1455 Q260.698 1459.58 260.698 1468.33 Q260.698 1477.06 257.619 1481.67 Q254.563 1486.25 248.753 1486.25 Q242.943 1486.25 239.864 1481.67 Q236.809 1477.06 236.809 1468.33 Q236.809 1459.58 239.864 1455 Q242.943 1450.39 248.753 1450.39 Z" fill="#000000" fill-rule="nonzero" fill-opacity="1" /><path clip-path="url(#clip920)" d="M268.915 1479.7 L273.799 1479.7 L273.799 1485.58 L268.915 1485.58 L268.915 1479.7 Z" fill="#000000" fill-rule="nonzero" fill-opacity="1" /><path clip-path="url(#clip920)" d="M293.984 1454.1 Q290.373 1454.1 288.545 1457.66 Q286.739 1461.2 286.739 1468.33 Q286.739 1475.44 288.545 1479.01 Q290.373 1482.55 293.984 1482.55 Q297.619 1482.55 299.424 1479.01 Q301.253 1475.44 301.253 1468.33 Q301.253 1461.2 299.424 1457.66 Q297.619 1454.1 293.984 1454.1 M293.984 1450.39 Q299.795 1450.39 302.85 1455 Q305.929 1459.58 305.929 1468.33 Q305.929 1477.06 302.85 1481.67 Q299.795 1486.25 293.984 1486.25 Q288.174 1486.25 285.096 1481.67 Q282.04 1477.06 282.04 1468.33 Q282.04 1459.58 285.096 1455 Q288.174 1450.39 293.984 1450.39 Z" fill="#000000" fill-rule="nonzero" fill-opacity="1" /><path clip-path="url(#clip920)" d="M748.296 1481.64 L764.616 1481.64 L764.616 1485.58 L742.671 1485.58 L742.671 1481.64 Q745.333 1478.89 749.917 1474.26 Q754.523 1469.61 755.704 1468.27 Q757.949 1465.74 758.829 1464.01 Q759.731 1462.25 759.731 1460.56 Q759.731 1457.8 757.787 1456.07 Q755.866 1454.33 752.764 1454.33 Q750.565 1454.33 748.111 1455.09 Q745.68 1455.86 742.903 1457.41 L742.903 1452.69 Q745.727 1451.55 748.18 1450.97 Q750.634 1450.39 752.671 1450.39 Q758.041 1450.39 761.236 1453.08 Q764.43 1455.77 764.43 1460.26 Q764.43 1462.39 763.62 1464.31 Q762.833 1466.2 760.727 1468.8 Q760.148 1469.47 757.046 1472.69 Q753.944 1475.88 748.296 1481.64 Z" fill="#000000" fill-rule="nonzero" fill-opacity="1" /><path clip-path="url(#clip920)" d="M774.43 1479.7 L779.315 1479.7 L779.315 1485.58 L774.43 1485.58 L774.43 1479.7 Z" fill="#000000" fill-rule="nonzero" fill-opacity="1" /><path clip-path="url(#clip920)" d="M789.546 1451.02 L807.902 1451.02 L807.902 1454.96 L793.828 1454.96 L793.828 1463.43 Q794.847 1463.08 795.865 1462.92 Q796.884 1462.73 797.902 1462.73 Q803.689 1462.73 807.069 1465.9 Q810.449 1469.08 810.449 1474.49 Q810.449 1480.07 806.976 1483.17 Q803.504 1486.25 797.185 1486.25 Q795.009 1486.25 792.74 1485.88 Q790.495 1485.51 788.088 1484.77 L788.088 1480.07 Q790.171 1481.2 792.393 1481.76 Q794.615 1482.32 797.092 1482.32 Q801.097 1482.32 803.435 1480.21 Q805.773 1478.1 805.773 1474.49 Q805.773 1470.88 803.435 1468.77 Q801.097 1466.67 797.092 1466.67 Q795.217 1466.67 793.342 1467.08 Q791.49 1467.5 789.546 1468.38 L789.546 1451.02 Z" fill="#000000" fill-rule="nonzero" fill-opacity="1" /><path clip-path="url(#clip920)" d="M1248.92 1451.02 L1267.27 1451.02 L1267.27 1454.96 L1253.2 1454.96 L1253.2 1463.43 Q1254.22 1463.08 1255.23 1462.92 Q1256.25 1462.73 1257.27 1462.73 Q1263.06 1462.73 1266.44 1465.9 Q1269.82 1469.08 1269.82 1474.49 Q1269.82 1480.07 1266.35 1483.17 Q1262.87 1486.25 1256.55 1486.25 Q1254.38 1486.25 1252.11 1485.88 Q1249.86 1485.51 1247.46 1484.77 L1247.46 1480.07 Q1249.54 1481.2 1251.76 1481.76 Q1253.98 1482.32 1256.46 1482.32 Q1260.47 1482.32 1262.8 1480.21 Q1265.14 1478.1 1265.14 1474.49 Q1265.14 1470.88 1262.8 1468.77 Q1260.47 1466.67 1256.46 1466.67 Q1254.59 1466.67 1252.71 1467.08 Q1250.86 1467.5 1248.92 1468.38 L1248.92 1451.02 Z" fill="#000000" fill-rule="nonzero" fill-opacity="1" /><path clip-path="url(#clip920)" d="M1279.03 1479.7 L1283.92 1479.7 L1283.92 1485.58 L1279.03 1485.58 L1279.03 1479.7 Z" fill="#000000" fill-rule="nonzero" fill-opacity="1" /><path clip-path="url(#clip920)" d="M1304.1 1454.1 Q1300.49 1454.1 1298.66 1457.66 Q1296.86 1461.2 1296.86 1468.33 Q1296.86 1475.44 1298.66 1479.01 Q1300.49 1482.55 1304.1 1482.55 Q1307.73 1482.55 1309.54 1479.01 Q1311.37 1475.44 1311.37 1468.33 Q1311.37 1461.2 1309.54 1457.66 Q1307.73 1454.1 1304.1 1454.1 M1304.1 1450.39 Q1309.91 1450.39 1312.97 1455 Q1316.04 1459.58 1316.04 1468.33 Q1316.04 1477.06 1312.97 1481.67 Q1309.91 1486.25 1304.1 1486.25 Q1298.29 1486.25 1295.21 1481.67 Q1292.16 1477.06 1292.16 1468.33 Q1292.16 1459.58 1295.21 1455 Q1298.29 1450.39 1304.1 1450.39 Z" fill="#000000" fill-rule="nonzero" fill-opacity="1" /><path clip-path="url(#clip920)" d="M1753.26 1451.02 L1775.48 1451.02 L1775.48 1453.01 L1762.94 1485.58 L1758.05 1485.58 L1769.86 1454.96 L1753.26 1454.96 L1753.26 1451.02 Z" fill="#000000" fill-rule="nonzero" fill-opacity="1" /><path clip-path="url(#clip920)" d="M1784.6 1479.7 L1789.49 1479.7 L1789.49 1485.58 L1784.6 1485.58 L1784.6 1479.7 Z" fill="#000000" fill-rule="nonzero" fill-opacity="1" /><path clip-path="url(#clip920)" d="M1799.72 1451.02 L1818.08 1451.02 L1818.08 1454.96 L1804 1454.96 L1804 1463.43 Q1805.02 1463.08 1806.04 1462.92 Q1807.06 1462.73 1808.08 1462.73 Q1813.86 1462.73 1817.24 1465.9 Q1820.62 1469.08 1820.62 1474.49 Q1820.62 1480.07 1817.15 1483.17 Q1813.68 1486.25 1807.36 1486.25 Q1805.18 1486.25 1802.91 1485.88 Q1800.67 1485.51 1798.26 1484.77 L1798.26 1480.07 Q1800.34 1481.2 1802.57 1481.76 Q1804.79 1482.32 1807.27 1482.32 Q1811.27 1482.32 1813.61 1480.21 Q1815.95 1478.1 1815.95 1474.49 Q1815.95 1470.88 1813.61 1468.77 Q1811.27 1466.67 1807.27 1466.67 Q1805.39 1466.67 1803.52 1467.08 Q1801.66 1467.5 1799.72 1468.38 L1799.72 1451.02 Z" fill="#000000" fill-rule="nonzero" fill-opacity="1" /><path clip-path="url(#clip920)" d="M2244.2 1481.64 L2251.84 1481.64 L2251.84 1455.28 L2243.53 1456.95 L2243.53 1452.69 L2251.8 1451.02 L2256.47 1451.02 L2256.47 1481.64 L2264.11 1481.64 L2264.11 1485.58 L2244.2 1485.58 L2244.2 1481.64 Z" fill="#000000" fill-rule="nonzero" fill-opacity="1" /><path clip-path="url(#clip920)" d="M2283.56 1454.1 Q2279.95 1454.1 2278.12 1457.66 Q2276.31 1461.2 2276.31 1468.33 Q2276.31 1475.44 2278.12 1479.01 Q2279.95 1482.55 2283.56 1482.55 Q2287.19 1482.55 2289 1479.01 Q2290.83 1475.44 2290.83 1468.33 Q2290.83 1461.2 2289 1457.66 Q2287.19 1454.1 2283.56 1454.1 M2283.56 1450.39 Q2289.37 1450.39 2292.42 1455 Q2295.5 1459.58 2295.5 1468.33 Q2295.5 1477.06 2292.42 1481.67 Q2289.37 1486.25 2283.56 1486.25 Q2277.75 1486.25 2274.67 1481.67 Q2271.61 1477.06 2271.61 1468.33 Q2271.61 1459.58 2274.67 1455 Q2277.75 1450.39 2283.56 1450.39 Z" fill="#000000" fill-rule="nonzero" fill-opacity="1" /><path clip-path="url(#clip920)" d="M2303.72 1479.7 L2308.6 1479.7 L2308.6 1485.58 L2303.72 1485.58 L2303.72 1479.7 Z" fill="#000000" fill-rule="nonzero" fill-opacity="1" /><path clip-path="url(#clip920)" d="M2328.79 1454.1 Q2325.18 1454.1 2323.35 1457.66 Q2321.54 1461.2 2321.54 1468.33 Q2321.54 1475.44 2323.35 1479.01 Q2325.18 1482.55 2328.79 1482.55 Q2332.42 1482.55 2334.23 1479.01 Q2336.06 1475.44 2336.06 1468.33 Q2336.06 1461.2 2334.23 1457.66 Q2332.42 1454.1 2328.79 1454.1 M2328.79 1450.39 Q2334.6 1450.39 2337.65 1455 Q2340.73 1459.58 2340.73 1468.33 Q2340.73 1477.06 2337.65 1481.67 Q2334.6 1486.25 2328.79 1486.25 Q2322.98 1486.25 2319.9 1481.67 Q2316.84 1477.06 2316.84 1468.33 Q2316.84 1459.58 2319.9 1455 Q2322.98 1450.39 2328.79 1450.39 Z" fill="#000000" fill-rule="nonzero" fill-opacity="1" /><path clip-path="url(#clip920)" d="M1290.22 1531.91 Q1290.22 1532.81 1289.8 1533.04 Q1289.38 1533.23 1288.23 1533.23 L1282.04 1533.23 L1277.15 1552.69 Q1276.76 1554.39 1276.76 1555.84 Q1276.76 1557.45 1277.24 1558.16 Q1277.76 1558.87 1278.82 1558.87 Q1280.91 1558.87 1283.17 1556.97 Q1285.46 1555.07 1287.39 1550.43 Q1287.65 1549.82 1287.77 1549.69 Q1287.94 1549.53 1288.35 1549.53 Q1289.16 1549.53 1289.16 1550.17 Q1289.16 1550.4 1288.71 1551.43 Q1288.29 1552.46 1287.36 1553.97 Q1286.45 1555.49 1285.26 1556.9 Q1284.1 1558.32 1282.33 1559.35 Q1280.56 1560.35 1278.66 1560.35 Q1275.99 1560.35 1274.28 1558.64 Q1272.61 1556.94 1272.61 1554.26 Q1272.61 1553.39 1273.28 1550.62 Q1273.96 1547.82 1277.63 1533.23 L1271.8 1533.23 Q1271 1533.23 1270.67 1533.2 Q1270.38 1533.17 1270.16 1533.01 Q1269.96 1532.81 1269.96 1532.43 Q1269.96 1531.82 1270.22 1531.56 Q1270.48 1531.27 1270.8 1531.24 Q1271.16 1531.17 1271.96 1531.17 L1278.14 1531.17 L1280.72 1520.71 Q1280.98 1519.67 1281.62 1519.09 Q1282.3 1518.48 1282.69 1518.42 Q1283.07 1518.32 1283.36 1518.32 Q1284.23 1518.32 1284.75 1518.81 Q1285.26 1519.26 1285.26 1520.09 Q1285.26 1520.54 1282.56 1531.17 L1288.35 1531.17 Q1289.09 1531.17 1289.38 1531.2 Q1289.71 1531.24 1289.96 1531.4 Q1290.22 1531.56 1290.22 1531.91 Z" fill="#000000" fill-rule="nonzero" fill-opacity="1" /><polyline clip-path="url(#clip920)" style="stroke:#000000; stroke-linecap:round; stroke-linejoin:round; stroke-width:4; stroke-opacity:1; fill:none" points="210.746,1423.18 210.746,47.2441 "/>
<polyline clip-path="url(#clip920)" style="stroke:#000000; stroke-linecap:round; stroke-linejoin:round; stroke-width:4; stroke-opacity:1; fill:none" points="210.746,1392.19 229.644,1392.19 "/>
<polyline clip-path="url(#clip920)" style="stroke:#000000; stroke-linecap:round; stroke-linejoin:round; stroke-width:4; stroke-opacity:1; fill:none" points="210.746,1174.52 229.644,1174.52 "/>
<polyline clip-path="url(#clip920)" style="stroke:#000000; stroke-linecap:round; stroke-linejoin:round; stroke-width:4; stroke-opacity:1; fill:none" points="210.746,956.857 229.644,956.857 "/>
<polyline clip-path="url(#clip920)" style="stroke:#000000; stroke-linecap:round; stroke-linejoin:round; stroke-width:4; stroke-opacity:1; fill:none" points="210.746,739.189 229.644,739.189 "/>
<polyline clip-path="url(#clip920)" style="stroke:#000000; stroke-linecap:round; stroke-linejoin:round; stroke-width:4; stroke-opacity:1; fill:none" points="210.746,521.521 229.644,521.521 "/>
<polyline clip-path="url(#clip920)" style="stroke:#000000; stroke-linecap:round; stroke-linejoin:round; stroke-width:4; stroke-opacity:1; fill:none" points="210.746,303.853 229.644,303.853 "/>
<polyline clip-path="url(#clip920)" style="stroke:#000000; stroke-linecap:round; stroke-linejoin:round; stroke-width:4; stroke-opacity:1; fill:none" points="210.746,86.1857 229.644,86.1857 "/>
<path clip-path="url(#clip920)" d="M114.631 1392.64 L144.306 1392.64 L144.306 1396.58 L114.631 1396.58 L114.631 1392.64 Z" fill="#000000" fill-rule="nonzero" fill-opacity="1" /><path clip-path="url(#clip920)" d="M158.427 1405.54 L174.746 1405.54 L174.746 1409.47 L152.802 1409.47 L152.802 1405.54 Q155.464 1402.78 160.047 1398.15 Q164.653 1393.5 165.834 1392.16 Q168.079 1389.63 168.959 1387.9 Q169.862 1386.14 169.862 1384.45 Q169.862 1381.69 167.917 1379.96 Q165.996 1378.22 162.894 1378.22 Q160.695 1378.22 158.241 1378.99 Q155.811 1379.75 153.033 1381.3 L153.033 1376.58 Q155.857 1375.44 158.311 1374.87 Q160.765 1374.29 162.802 1374.29 Q168.172 1374.29 171.366 1376.97 Q174.561 1379.66 174.561 1384.15 Q174.561 1386.28 173.751 1388.2 Q172.964 1390.1 170.857 1392.69 Q170.278 1393.36 167.177 1396.58 Q164.075 1399.77 158.427 1405.54 Z" fill="#000000" fill-rule="nonzero" fill-opacity="1" /><path clip-path="url(#clip920)" d="M114.26 1174.98 L143.936 1174.98 L143.936 1178.91 L114.26 1178.91 L114.26 1174.98 Z" fill="#000000" fill-rule="nonzero" fill-opacity="1" /><path clip-path="url(#clip920)" d="M154.839 1187.87 L162.477 1187.87 L162.477 1161.5 L154.167 1163.17 L154.167 1158.91 L162.431 1157.24 L167.107 1157.24 L167.107 1187.87 L174.746 1187.87 L174.746 1191.8 L154.839 1191.8 L154.839 1187.87 Z" fill="#000000" fill-rule="nonzero" fill-opacity="1" /><path clip-path="url(#clip920)" d="M162.802 942.655 Q159.19 942.655 157.362 946.22 Q155.556 949.762 155.556 956.891 Q155.556 963.998 157.362 967.563 Q159.19 971.104 162.802 971.104 Q166.436 971.104 168.241 967.563 Q170.07 963.998 170.07 956.891 Q170.07 949.762 168.241 946.22 Q166.436 942.655 162.802 942.655 M162.802 938.952 Q168.612 938.952 171.667 943.558 Q174.746 948.141 174.746 956.891 Q174.746 965.618 171.667 970.225 Q168.612 974.808 162.802 974.808 Q156.991 974.808 153.913 970.225 Q150.857 965.618 150.857 956.891 Q150.857 948.141 153.913 943.558 Q156.991 938.952 162.802 938.952 Z" fill="#000000" fill-rule="nonzero" fill-opacity="1" /><path clip-path="url(#clip920)" d="M154.839 752.534 L162.477 752.534 L162.477 726.168 L154.167 727.835 L154.167 723.576 L162.431 721.909 L167.107 721.909 L167.107 752.534 L174.746 752.534 L174.746 756.469 L154.839 756.469 L154.839 752.534 Z" fill="#000000" fill-rule="nonzero" fill-opacity="1" /><path clip-path="url(#clip920)" d="M158.427 534.866 L174.746 534.866 L174.746 538.801 L152.802 538.801 L152.802 534.866 Q155.464 532.111 160.047 527.482 Q164.653 522.829 165.834 521.486 Q168.079 518.963 168.959 517.227 Q169.862 515.468 169.862 513.778 Q169.862 511.024 167.917 509.287 Q165.996 507.551 162.894 507.551 Q160.695 507.551 158.241 508.315 Q155.811 509.079 153.033 510.63 L153.033 505.908 Q155.857 504.774 158.311 504.195 Q160.765 503.616 162.802 503.616 Q168.172 503.616 171.366 506.301 Q174.561 508.986 174.561 513.477 Q174.561 515.607 173.751 517.528 Q172.964 519.426 170.857 522.019 Q170.278 522.69 167.177 525.908 Q164.075 529.102 158.427 534.866 Z" fill="#000000" fill-rule="nonzero" fill-opacity="1" /><path clip-path="url(#clip920)" d="M167.616 302.499 Q170.973 303.217 172.848 305.485 Q174.746 307.754 174.746 311.087 Q174.746 316.203 171.227 319.004 Q167.709 321.805 161.227 321.805 Q159.052 321.805 156.737 321.365 Q154.445 320.948 151.991 320.092 L151.991 315.578 Q153.936 316.712 156.251 317.291 Q158.565 317.87 161.089 317.87 Q165.487 317.87 167.778 316.133 Q170.093 314.397 170.093 311.087 Q170.093 308.032 167.94 306.319 Q165.811 304.583 161.991 304.583 L157.964 304.583 L157.964 300.74 L162.177 300.74 Q165.626 300.74 167.454 299.374 Q169.283 297.985 169.283 295.393 Q169.283 292.731 167.385 291.319 Q165.51 289.884 161.991 289.884 Q160.07 289.884 157.871 290.3 Q155.672 290.717 153.033 291.597 L153.033 287.43 Q155.695 286.689 158.01 286.319 Q160.348 285.948 162.408 285.948 Q167.732 285.948 170.834 288.379 Q173.936 290.786 173.936 294.907 Q173.936 297.777 172.292 299.768 Q170.649 301.735 167.616 302.499 Z" fill="#000000" fill-rule="nonzero" fill-opacity="1" /><path clip-path="url(#clip920)" d="M165.163 72.9797 L153.357 91.4287 L165.163 91.4287 L165.163 72.9797 M163.936 68.9057 L169.815 68.9057 L169.815 91.4287 L174.746 91.4287 L174.746 95.3176 L169.815 95.3176 L169.815 103.466 L165.163 103.466 L165.163 95.3176 L149.561 95.3176 L149.561 90.8037 L163.936 68.9057 Z" fill="#000000" fill-rule="nonzero" fill-opacity="1" /><path clip-path="url(#clip920)" d="M67.6255 924.041 Q63.2455 928.228 56.9975 928.228 Q50.7174 928.228 46.2086 924.106 Q41.6676 919.984 41.6676 913.929 Q41.6676 909.903 43.5999 906.876 Q45.5 903.848 48.7528 903.848 Q50.2021 903.848 51.0395 904.718 Q51.8446 905.555 51.8446 906.876 Q51.8446 908.261 51.0073 909.098 Q50.1377 909.903 48.8173 909.903 Q48.2375 909.903 47.6578 909.71 Q47.0781 909.517 46.4662 908.808 Q45.8543 908.067 45.7577 906.811 Q43.3423 909.162 43.3423 913.736 Q43.3423 913.8 43.3423 913.864 Q43.3423 917.214 46.4984 919.984 Q49.6546 922.753 56.8687 922.753 Q60.6368 922.753 63.4065 921.851 Q66.144 920.917 67.5611 919.404 Q68.9781 917.89 69.6544 916.409 Q70.2986 914.927 70.2986 913.478 Q70.2986 907.005 63.3743 904.815 Q62.7302 904.621 62.7302 903.977 Q62.7302 903.108 63.3743 903.108 Q63.6964 903.108 64.5337 903.365 Q65.3711 903.623 66.6915 904.428 Q68.0119 905.233 69.1714 906.393 Q70.2986 907.52 71.1359 909.549 Q71.9733 911.546 71.9733 914.058 Q71.9733 919.855 67.6255 924.041 Z" fill="#000000" fill-rule="nonzero" fill-opacity="1" /><path clip-path="url(#clip920)" d="M67.6899 895.413 Q63.3743 899.76 57.1264 899.76 Q50.8462 899.76 46.273 895.509 Q41.6676 891.226 41.6676 885.107 Q41.6676 879.117 46.2408 874.833 Q50.7818 870.518 57.1264 870.518 Q63.3421 870.518 67.6577 874.865 Q71.9733 879.181 71.9733 885.171 Q71.9733 891.033 67.6899 895.413 M56.5789 894.285 Q62.9878 894.285 65.8864 892.611 Q70.2986 890.034 70.2986 885.107 Q70.2986 882.659 68.9781 880.63 Q67.6577 878.569 65.4355 877.442 Q62.5369 875.993 56.5789 875.993 Q50.2343 875.993 47.4324 877.732 Q43.149 880.308 43.149 885.171 Q43.149 887.297 44.2762 889.39 Q45.3712 891.451 47.5612 892.707 Q50.4598 894.285 56.5789 894.285 Z" fill="#000000" fill-rule="nonzero" fill-opacity="1" /><path clip-path="url(#clip920)" d="M71.2325 868.416 L69.2036 868.416 Q69.2036 864.906 68.7849 864.101 Q68.334 863.296 66.2084 863.296 L48.5274 863.296 Q46.0798 863.296 45.4678 864.165 Q44.8559 865.003 44.8559 868.416 L42.7948 868.416 L42.0862 859.141 L49.0105 859.141 Q42.0862 856.049 42.0862 849.383 Q42.0862 844.423 44.5339 842.459 Q46.1764 841.009 48.0121 840.719 Q49.8478 840.397 54.6143 840.397 L67.2068 840.397 Q68.5917 840.333 68.9137 839.27 Q69.2036 838.207 69.2036 835.244 L71.2325 835.244 Q71.0393 841.975 71.0393 842.652 Q71.0393 843.167 71.2325 850.091 L69.2036 850.091 Q69.2036 846.581 68.7849 845.776 Q68.334 844.938 66.2084 844.938 L50.8462 844.938 Q47.4968 844.938 45.5323 845.969 Q43.5355 847 43.5355 849.834 Q43.5355 853.247 46.4018 855.985 Q49.2681 858.722 54.099 858.722 L66.2084 858.722 Q68.334 858.722 68.7849 857.917 Q69.2036 857.08 69.2036 853.602 L71.2325 853.602 Q71.0393 860.333 71.0393 860.977 Q71.0393 861.492 71.2325 868.416 Z" fill="#000000" fill-rule="nonzero" fill-opacity="1" /><path clip-path="url(#clip920)" d="M67.6255 826.409 Q63.2455 830.596 56.9975 830.596 Q50.7174 830.596 46.2086 826.473 Q41.6676 822.351 41.6676 816.296 Q41.6676 812.271 43.5999 809.243 Q45.5 806.216 48.7528 806.216 Q50.2021 806.216 51.0395 807.085 Q51.8446 807.923 51.8446 809.243 Q51.8446 810.628 51.0073 811.465 Q50.1377 812.271 48.8173 812.271 Q48.2375 812.271 47.6578 812.077 Q47.0781 811.884 46.4662 811.176 Q45.8543 810.435 45.7577 809.179 Q43.3423 811.53 43.3423 816.103 Q43.3423 816.168 43.3423 816.232 Q43.3423 819.581 46.4984 822.351 Q49.6546 825.121 56.8687 825.121 Q60.6368 825.121 63.4065 824.219 Q66.144 823.285 67.5611 821.771 Q68.9781 820.258 69.6544 818.776 Q70.2986 817.295 70.2986 815.845 Q70.2986 809.372 63.3743 807.182 Q62.7302 806.989 62.7302 806.345 Q62.7302 805.475 63.3743 805.475 Q63.6964 805.475 64.5337 805.733 Q65.3711 805.99 66.6915 806.796 Q68.0119 807.601 69.1714 808.76 Q70.2986 809.887 71.1359 811.916 Q71.9733 813.913 71.9733 816.425 Q71.9733 822.222 67.6255 826.409 Z" fill="#000000" fill-rule="nonzero" fill-opacity="1" /><path clip-path="url(#clip920)" d="M56.7077 801.864 Q50.492 801.864 46.0798 797.87 Q41.6676 793.877 41.6676 788.144 Q41.6676 782.347 45.4356 779.352 Q49.2037 776.325 54.6143 776.325 Q55.6127 776.325 55.8059 776.582 Q55.9992 776.84 55.9992 777.967 L55.9992 796.389 Q62.7302 796.389 65.8864 794.392 Q70.2986 791.623 70.2986 786.953 Q70.2986 786.309 70.1697 785.536 Q70.0409 784.763 69.4934 783.185 Q68.9137 781.607 67.4 780.222 Q65.8864 778.837 63.5031 778.032 Q62.5692 777.838 62.6014 777.194 Q62.6014 776.325 63.3743 776.325 Q63.954 776.325 65.2744 776.969 Q66.5627 777.581 68.1086 778.772 Q69.6544 779.964 70.8139 782.283 Q71.9733 784.569 71.9733 787.339 Q71.9733 793.136 67.5933 797.516 Q63.1811 801.864 56.7077 801.864 M54.6143 796.325 L54.6143 780.673 Q53.2295 780.673 51.6836 780.93 Q50.1377 781.156 48.0121 781.864 Q45.8543 782.54 44.5017 784.151 Q43.149 785.761 43.149 788.144 Q43.149 789.207 43.5999 790.367 Q44.0508 791.494 45.1458 792.879 Q46.2408 794.263 48.7206 795.23 Q51.2005 796.196 54.6143 796.325 Z" fill="#000000" fill-rule="nonzero" fill-opacity="1" /><path clip-path="url(#clip920)" d="M71.2325 774.188 L69.2036 774.188 Q69.2036 770.678 68.7849 769.873 Q68.334 769.068 66.2084 769.068 L48.5274 769.068 Q46.0798 769.068 45.4678 769.937 Q44.8559 770.774 44.8559 774.188 L42.7948 774.188 L42.0862 764.913 L49.0105 764.913 Q42.0862 761.821 42.0862 755.155 Q42.0862 750.195 44.5339 748.23 Q46.1764 746.781 48.0121 746.491 Q49.8478 746.169 54.6143 746.169 L67.2068 746.169 Q68.5917 746.105 68.9137 745.042 Q69.2036 743.979 69.2036 741.016 L71.2325 741.016 Q71.0393 747.747 71.0393 748.424 Q71.0393 748.939 71.2325 755.863 L69.2036 755.863 Q69.2036 752.353 68.7849 751.548 Q68.334 750.71 66.2084 750.71 L50.8462 750.71 Q47.4968 750.71 45.5323 751.741 Q43.5355 752.771 43.5355 755.606 Q43.5355 759.019 46.4018 761.757 Q49.2681 764.494 54.099 764.494 L66.2084 764.494 Q68.334 764.494 68.7849 763.689 Q69.2036 762.852 69.2036 759.374 L71.2325 759.374 Q71.0393 766.105 71.0393 766.749 Q71.0393 767.264 71.2325 774.188 Z" fill="#000000" fill-rule="nonzero" fill-opacity="1" /><path clip-path="url(#clip920)" d="M44.8559 737.688 L43.4067 737.688 Q43.2778 734.66 41.1523 732.663 Q38.9945 730.635 36.3536 729.958 Q33.7127 729.25 30.6531 729.185 L30.6531 727.543 L42.7948 727.543 L42.7948 718.106 L44.8559 718.106 L44.8559 727.543 L63.1811 727.543 Q70.2986 727.543 70.2986 723.098 Q70.2986 721.198 68.3662 719.942 Q66.4017 718.686 62.9234 718.686 L59.2842 718.686 L59.2842 717.044 L63.0522 717.044 Q66.6271 717.044 69.3002 718.686 Q71.9733 720.329 71.9733 723.581 Q71.9733 724.773 71.6512 725.965 Q71.3614 727.124 70.5884 728.67 Q69.7833 730.184 67.8509 731.15 Q65.8864 732.084 63.0522 732.084 L44.8559 732.084 L44.8559 737.688 Z" fill="#000000" fill-rule="nonzero" fill-opacity="1" /><path clip-path="url(#clip920)" d="M71.2325 713.152 L69.2036 713.152 Q69.2036 709.642 68.7849 708.837 Q68.334 707.999 66.2084 707.999 L48.5274 707.999 Q46.0798 707.999 45.4678 708.869 Q44.8559 709.706 44.8559 713.152 L42.7948 713.152 L42.0862 703.974 L49.3325 703.974 Q46.4984 703.04 44.3084 701.075 Q42.0862 699.078 42.0862 695.858 Q42.0862 693.732 43.2778 692.379 Q44.4695 690.995 46.112 690.995 Q47.5612 690.995 48.302 691.896 Q49.0105 692.766 49.0105 693.829 Q49.0105 695.02 48.2698 695.858 Q47.4968 696.663 46.1764 696.663 Q45.3712 696.663 44.7593 696.309 Q44.1152 695.922 43.8898 695.632 Q43.6643 695.342 43.5999 695.149 Q43.5355 695.278 43.5355 695.858 Q43.5355 699.497 47.1748 701.59 Q50.7818 703.651 55.9347 703.651 L66.0796 703.651 Q67.9797 703.651 68.5917 702.879 Q69.2036 702.073 69.2036 698.627 L69.2036 697.242 L71.2325 697.242 Q71.0393 699.883 71.0393 705.616 Q71.0393 706.421 71.0715 707.677 Q71.1037 708.933 71.1681 710.576 Q71.2325 712.218 71.2325 713.152 Z" fill="#000000" fill-rule="nonzero" fill-opacity="1" /><path clip-path="url(#clip920)" d="M64.9524 685.59 Q59.3486 685.59 56.3856 678.988 Q54.4855 675.027 54.0024 666.847 L51.587 666.847 Q47.4968 666.847 45.339 669.004 Q43.149 671.13 43.149 673.835 Q43.149 678.666 46.1764 680.985 Q46.2408 679.02 47.2392 678.312 Q48.2053 677.603 49.2037 677.603 Q50.5242 677.603 51.3937 678.441 Q52.2311 679.246 52.2311 680.631 Q52.2311 681.951 51.4259 682.821 Q50.5886 683.69 49.1393 683.69 Q45.9187 683.69 43.7931 680.792 Q41.6676 677.861 41.6676 673.706 Q41.6676 668.296 45.3068 664.689 Q46.434 663.562 47.8833 663.014 Q49.3325 662.434 50.2987 662.37 Q51.2327 662.306 53.1006 662.306 L66.2728 662.306 Q66.6593 662.306 67.3034 662.177 Q67.9475 662.048 68.7849 661.468 Q69.59 660.856 69.59 659.858 Q69.59 657.475 65.3711 657.507 L61.6674 657.507 L61.6674 655.832 L65.3711 655.832 Q68.8815 655.832 70.2664 657.7 Q71.619 659.536 71.619 661.243 Q71.619 663.433 70.0087 664.818 Q68.3984 666.202 66.2084 666.396 Q68.7205 667.394 70.363 669.681 Q71.9733 671.935 71.9733 675.027 Q71.9733 677.41 71.3614 679.665 Q70.7817 681.887 69.1392 683.755 Q67.4644 685.59 64.9524 685.59 M64.888 680.502 Q67.3356 680.502 68.9137 678.763 Q70.4918 677.024 70.4918 674.576 Q70.4918 671.806 68.3662 669.326 Q66.2084 666.847 61.9895 666.847 L55.3872 666.847 Q55.6449 674.157 58.5756 677.346 Q61.4742 680.502 64.888 680.502 Z" fill="#000000" fill-rule="nonzero" fill-opacity="1" /><path clip-path="url(#clip920)" d="M44.8559 654.246 L43.4067 654.246 Q43.2778 651.219 41.1523 649.222 Q38.9945 647.193 36.3536 646.517 Q33.7127 645.808 30.6531 645.744 L30.6531 644.101 L42.7948 644.101 L42.7948 634.665 L44.8559 634.665 L44.8559 644.101 L63.1811 644.101 Q70.2986 644.101 70.2986 639.657 Q70.2986 637.757 68.3662 636.501 Q66.4017 635.245 62.9234 635.245 L59.2842 635.245 L59.2842 633.602 L63.0522 633.602 Q66.6271 633.602 69.3002 635.245 Q71.9733 636.887 71.9733 640.14 Q71.9733 641.332 71.6512 642.523 Q71.3614 643.683 70.5884 645.229 Q69.7833 646.742 67.8509 647.709 Q65.8864 648.643 63.0522 648.643 L44.8559 648.643 L44.8559 654.246 Z" fill="#000000" fill-rule="nonzero" fill-opacity="1" /><path clip-path="url(#clip920)" d="M71.2325 629.711 L69.2036 629.711 Q69.2036 626.2 68.7849 625.395 Q68.334 624.59 66.2084 624.59 L48.463 624.59 Q46.0153 624.59 45.4356 625.428 Q44.8559 626.233 44.8559 629.453 L42.7948 629.453 L42.0862 620.242 L66.2728 620.242 Q68.2374 620.242 68.7205 619.534 Q69.2036 618.825 69.2036 615.605 L71.2325 615.605 Q71.0393 622.336 71.0393 622.465 Q71.0393 623.366 71.2325 629.711 M30.5887 626.941 Q29.2683 626.941 28.2055 625.943 Q27.1105 624.912 27.1105 623.463 Q27.1105 622.014 28.1089 620.983 Q29.0751 619.953 30.6209 619.953 Q32.1346 619.953 33.133 620.983 Q34.0992 622.014 34.0992 623.463 Q34.0992 624.977 33.0364 625.975 Q31.9736 626.941 30.5887 626.941 Z" fill="#000000" fill-rule="nonzero" fill-opacity="1" /><path clip-path="url(#clip920)" d="M67.6899 605.429 Q63.3743 609.776 57.1264 609.776 Q50.8462 609.776 46.273 605.525 Q41.6676 601.242 41.6676 595.123 Q41.6676 589.133 46.2408 584.849 Q50.7818 580.534 57.1264 580.534 Q63.3421 580.534 67.6577 584.881 Q71.9733 589.197 71.9733 595.187 Q71.9733 601.049 67.6899 605.429 M56.5789 604.301 Q62.9878 604.301 65.8864 602.627 Q70.2986 600.05 70.2986 595.123 Q70.2986 592.675 68.9781 590.646 Q67.6577 588.585 65.4355 587.458 Q62.5369 586.009 56.5789 586.009 Q50.2343 586.009 47.4324 587.748 Q43.149 590.324 43.149 595.187 Q43.149 597.313 44.2762 599.406 Q45.3712 601.467 47.5612 602.723 Q50.4598 604.301 56.5789 604.301 Z" fill="#000000" fill-rule="nonzero" fill-opacity="1" /><path clip-path="url(#clip920)" d="M71.2325 578.432 L69.2036 578.432 Q69.2036 574.922 68.7849 574.117 Q68.334 573.312 66.2084 573.312 L48.5274 573.312 Q46.0798 573.312 45.4678 574.181 Q44.8559 575.019 44.8559 578.432 L42.7948 578.432 L42.0862 569.157 L49.0105 569.157 Q42.0862 566.065 42.0862 559.399 Q42.0862 554.439 44.5339 552.474 Q46.1764 551.025 48.0121 550.735 Q49.8478 550.413 54.6143 550.413 L67.2068 550.413 Q68.5917 550.349 68.9137 549.286 Q69.2036 548.223 69.2036 545.26 L71.2325 545.26 Q71.0393 551.991 71.0393 552.668 Q71.0393 553.183 71.2325 560.107 L69.2036 560.107 Q69.2036 556.597 68.7849 555.792 Q68.334 554.954 66.2084 554.954 L50.8462 554.954 Q47.4968 554.954 45.5323 555.985 Q43.5355 557.016 43.5355 559.85 Q43.5355 563.263 46.4018 566.001 Q49.2681 568.738 54.099 568.738 L66.2084 568.738 Q68.334 568.738 68.7849 567.933 Q69.2036 567.096 69.2036 563.618 L71.2325 563.618 Q71.0393 570.349 71.0393 570.993 Q71.0393 571.508 71.2325 578.432 Z" fill="#000000" fill-rule="nonzero" fill-opacity="1" /><polyline clip-path="url(#clip922)" style="stroke:#1f77b4; stroke-linecap:round; stroke-linejoin:round; stroke-width:8; stroke-opacity:1; fill:none" points="271.369,86.1857 275.316,98.8464 279.262,111.323 283.209,123.618 287.156,135.735 291.103,147.675 295.05,159.441 298.997,171.036 302.943,182.463 306.89,193.723 310.837,204.82 314.784,215.755 318.731,226.532 322.677,237.151 326.624,247.616 330.571,257.929 334.518,268.091 338.465,278.106 342.411,287.975 346.358,297.701 350.305,307.285 354.252,316.729 358.199,326.037 362.145,335.208 366.092,344.247 370.039,353.153 373.986,361.93 377.933,370.58 381.879,379.103 385.826,387.503 389.773,395.779 393.72,403.936 397.667,411.973 401.613,419.894 405.56,427.698 409.507,435.388 413.454,442.966 417.401,450.434 421.347,457.793 425.294,465.044 429.241,472.189 433.188,479.231 437.135,486.169 441.081,493.006 445.028,499.743 448.975,506.382 452.922,512.924 456.869,519.37 460.816,525.722 464.762,531.981 468.709,538.148 472.656,544.224 476.603,550.212 480.55,556.112 484.496,561.925 488.443,567.653 492.39,573.296 496.337,578.857 500.284,584.336 504.23,589.734 508.177,595.052 512.124,600.291 516.071,605.453 520.018,610.533 523.964,615.536 527.911,620.465 531.858,625.319 535.805,630.102 539.752,634.812 543.698,639.451 547.645,644.02 551.592,648.516 555.539,652.941 559.486,657.299 563.432,661.589 567.379,665.813 571.326,669.958 575.273,674.036 579.22,678.047 583.166,681.978 587.113,685.846 591.06,689.649 595.007,693.389 598.954,697.066 602.9,700.681 606.847,704.233 610.794,707.724 614.741,711.153 618.688,714.521 622.635,717.829 626.581,721.076 630.528,724.262 634.475,727.388 638.422,730.454 642.369,733.461 646.315,736.407 650.262,739.293 654.209,742.119 658.156,744.886 662.103,747.592 666.049,750.238 669.996,752.824 673.943,755.349 677.89,757.814 681.837,760.217 685.783,762.559 689.73,764.839 693.677,767.057 697.624,769.213 701.571,771.305 705.517,773.334 709.464,775.299 713.411,777.2 717.358,779.036 721.305,780.806 725.251,782.509 729.198,784.146 733.145,785.716 737.092,787.216 741.039,788.648 744.985,790.009 748.932,791.3 752.879,792.517 756.826,793.662 760.773,794.733 764.719,795.728 768.666,796.647 772.613,797.488 776.56,798.25 780.507,798.932 784.454,799.533 788.4,800.051 792.347,800.484 796.294,800.83 800.241,801.088 804.188,801.254 808.134,801.326 812.081,801.302 816.028,801.178 819.975,800.951 823.922,800.616 827.868,800.17 831.815,799.607 835.762,798.737 839.709,797.697 843.656,796.513 847.602,795.178 851.549,793.683 855.496,792.018 859.443,790.171 863.39,787.995 867.336,785.589 871.283,782.955 875.23,780.077 879.177,776.936 883.124,773.514 887.07,769.791 891.017,765.748 894.964,761.363 898.911,756.616 902.858,751.486 906.804,745.954 910.751,740.007 914.698,733.636 918.645,726.837 922.592,719.615 926.538,711.983 930.485,703.967 934.432,695.6 938.379,686.929 942.326,678.007 946.273,668.893 950.219,659.649 954.166,650.336 958.113,641.011 962.06,631.722 966.007,622.506 969.953,613.392 973.9,604.397 977.847,595.529 981.794,586.789 985.741,578.176 989.687,569.691 993.634,561.342 997.581,553.153 1001.53,545.168 1005.47,537.464 1009.42,530.148 1013.37,523.364 1017.31,517.28 1021.26,512.069 1025.21,507.882 1029.16,504.825 1033.1,502.936 1037.05,502.19 1041,502.505 1044.94,503.765 1048.89,505.84 1052.84,508.595 1056.78,511.91 1060.73,515.665 1064.68,519.779 1068.62,524.177 1072.57,528.796 1076.52,533.583 1080.46,538.496 1084.41,543.501 1088.36,548.57 1092.3,553.681 1096.25,558.815 1100.2,563.957 1104.14,569.096 1108.09,574.221 1112.04,579.299 1115.99,584.32 1119.93,589.313 1123.88,594.273 1127.83,599.194 1131.77,604.075 1135.72,608.91 1139.67,613.7 1143.61,618.44 1147.56,623.131 1151.51,627.77 1155.45,632.338 1159.4,636.837 1163.35,641.281 1167.29,645.669 1171.24,650.005 1175.19,654.29 1179.13,658.523 1183.08,662.704 1187.03,666.833 1190.97,670.911 1194.92,674.936 1198.87,678.909 1202.81,682.831 1206.76,686.702 1210.71,690.522 1214.66,694.291 1218.6,698.01 1222.55,701.68 1226.5,705.3 1230.44,708.871 1234.39,712.393 1238.34,715.868 1242.28,719.295 1246.23,722.669 1250.18,725.997 1254.12,729.279 1258.07,732.517 1262.02,735.709 1265.96,738.858 1269.91,741.962 1273.86,745.024 1277.8,748.043 1281.75,751.02 1285.7,753.955 1289.64,756.849 1293.59,759.703 1297.54,762.516 1301.48,765.29 1305.43,768.024 1309.38,770.721 1313.33,773.379 1317.27,775.999 1321.22,778.582 1325.17,781.129 1329.11,783.639 1333.06,786.114 1337.01,788.554 1340.95,790.959 1344.9,793.33 1348.85,795.666 1352.79,797.97 1356.74,800.24 1360.69,802.478 1364.63,804.684 1368.58,806.859 1372.53,809.002 1376.47,811.114 1380.42,813.196 1384.37,815.248 1388.31,817.27 1392.26,819.263 1396.21,821.227 1400.16,823.163 1404.1,825.071 1408.05,826.951 1412,828.804 1415.94,830.629 1419.89,832.428 1423.84,834.201 1427.78,835.948 1431.73,837.669 1435.68,839.365 1439.62,841.036 1443.57,842.682 1447.52,844.304 1451.46,845.902 1455.41,847.476 1459.36,849.026 1463.3,850.553 1467.25,852.058 1471.2,853.539 1475.14,854.995 1479.09,856.428 1483.04,857.838 1486.98,859.227 1490.93,860.593 1494.88,861.938 1498.83,863.262 1502.77,864.564 1506.72,865.845 1510.67,867.104 1514.61,868.342 1518.56,869.558 1522.51,870.753 1526.45,871.927 1530.4,873.079 1534.35,874.204 1538.29,875.308 1542.24,876.388 1546.19,877.445 1550.13,878.477 1554.08,879.485 1558.03,880.466 1561.97,881.419 1565.92,882.344 1569.87,883.236 1573.81,884.095 1577.76,884.917 1581.71,885.689 1585.65,886.41 1589.6,887.077 1593.55,887.686 1597.5,888.223 1601.44,888.68 1605.39,889.042 1609.34,889.291 1613.28,889.348 1617.23,889.224 1621.18,888.886 1625.12,888.284 1629.07,887.357 1633.02,886.027 1636.96,884.2 1640.91,881.766 1644.86,878.612 1648.8,874.626 1652.75,869.734 1656.7,863.94 1660.64,857.318 1664.59,850 1668.54,842.149 1672.48,833.413 1676.43,824.45 1680.38,815.481 1684.33,806.664 1688.27,798.132 1692.22,789.995 1696.17,782.332 1700.11,775.195 1704.06,768.615 1708.01,762.608 1711.95,757.176 1715.9,752.314 1719.85,748.009 1723.79,744.242 1727.74,740.988 1731.69,738.22 1735.63,735.905 1739.58,734.012 1743.53,732.511 1747.47,731.37 1751.42,730.559 1755.37,730.051 1759.31,729.817 1763.26,729.834 1767.21,730.078 1771.15,730.526 1775.1,731.159 1779.05,731.959 1783,732.909 1786.94,733.993 1790.89,735.197 1794.84,736.41 1798.78,737.687 1802.73,739.056 1806.68,740.509 1810.62,742.034 1814.57,743.625 1818.52,745.272 1822.46,746.969 1826.41,748.71 1830.36,750.488 1834.3,752.299 1838.25,754.138 1842.2,755.999 1846.14,757.88 1850.09,759.775 1854.04,761.682 1857.98,763.597 1861.93,765.519 1865.88,767.443 1869.82,769.369 1873.77,771.293 1877.72,773.213 1881.67,775.129 1885.61,777.037 1889.56,778.937 1893.51,780.827 1897.45,782.705 1901.4,784.571 1905.35,786.423 1909.29,788.26 1913.24,790.077 1917.19,791.858 1921.13,793.622 1925.08,795.369 1929.03,797.097 1932.97,798.805 1936.92,800.492 1940.87,802.157 1944.81,803.8 1948.76,805.421 1952.71,807.018 1956.65,808.59 1960.6,810.136 1964.55,811.655 1968.49,813.148 1972.44,814.613 1976.39,816.048 1980.34,817.452 1984.28,818.822 1988.23,820.156 1992.18,821.445 1996.12,822.693 2000.07,823.895 2004.02,825.05 2007.96,826.153 2011.91,827.201 2015.86,828.189 2019.8,829.112 2023.75,829.965 2027.7,830.74 2031.64,831.431 2035.59,832.03 2039.54,832.527 2043.48,832.91 2047.43,833.165 2051.38,833.281 2055.32,833.172 2059.27,832.882 2063.22,832.394 2067.17,831.687 2071.11,830.738 2075.06,829.533 2079.01,828.055 2082.95,826.301 2086.9,824.28 2090.85,822.013 2094.79,819.52 2098.74,816.814 2102.69,813.898 2106.63,810.758 2110.58,807.467 2114.53,804.065 2118.47,800.591 2122.42,797.046 2126.37,793.445 2130.31,789.885 2134.26,786.393 2138.21,782.995 2142.15,779.716 2146.1,776.58 2150.05,773.609 2153.99,770.819 2157.94,768.194 2161.89,765.77 2165.84,763.55 2169.78,761.537 2173.73,759.729 2177.68,758.125 2181.62,756.721 2185.57,755.511 2189.52,754.489 2193.46,753.645 2197.41,752.972 2201.36,752.461 2205.3,752.044 2209.25,751.699 2213.2,751.497 2217.14,751.432 2221.09,751.495 2225.04,751.679 2228.98,751.976 2232.93,752.377 2236.88,752.876 2240.82,753.467 2244.77,754.143 2248.72,754.898 2252.66,755.726 2256.61,756.62 2260.56,757.575 2264.51,758.584 2268.45,759.642 2272.4,760.743 2276.35,761.882 2280.29,763.056 2284.24,764.259 2288.19,765.487 2292.13,766.738 "/>
<polyline clip-path="url(#clip922)" style="stroke:#ff7e0d; stroke-linecap:round; stroke-linejoin:round; stroke-width:8; stroke-opacity:1; fill:none" points="271.369,86.1857 275.316,98.8463 279.262,111.323 283.209,123.618 287.156,135.734 291.103,147.674 295.05,159.44 298.997,171.036 302.943,182.462 306.89,193.722 310.837,204.819 314.784,215.754 318.731,226.53 322.677,237.149 326.624,247.614 330.571,257.926 334.518,268.089 338.465,278.103 342.411,287.972 346.358,297.698 350.305,307.281 354.252,316.726 358.199,326.032 362.145,335.204 366.092,344.242 370.039,353.148 373.986,361.925 377.933,370.574 381.879,379.096 385.826,387.495 389.773,395.772 393.72,403.928 397.667,411.965 401.613,419.885 405.56,427.689 409.507,435.38 413.454,442.959 417.401,450.428 421.347,457.787 425.294,465.039 429.241,472.186 433.188,479.228 437.135,486.167 441.081,493.005 445.028,499.743 448.975,506.383 452.922,512.926 456.869,519.373 460.816,525.726 464.762,531.986 468.709,538.154 472.656,544.232 476.603,550.221 480.55,556.122 484.496,561.936 488.443,567.666 492.39,573.311 496.337,578.873 500.284,584.354 504.23,589.753 508.177,595.073 512.124,600.315 516.071,605.48 520.018,610.568 523.964,615.581 527.911,620.52 531.858,625.386 535.805,630.18 539.752,634.902 543.698,639.554 547.645,644.137 551.592,648.651 555.539,653.098 559.486,657.478 563.432,661.792 567.379,666.042 571.326,670.227 575.273,674.349 579.22,678.409 583.166,682.407 587.113,686.345 591.06,690.223 595.007,694.041 598.954,697.802 602.9,701.504 606.847,705.15 610.794,708.738 614.741,712.271 618.688,715.748 622.635,719.17 626.581,722.539 630.528,725.853 634.475,729.113 638.422,732.32 642.369,735.475 646.315,738.577 650.262,741.629 654.209,744.629 658.156,747.579 662.103,750.478 666.049,753.328 669.996,756.13 673.943,758.884 677.89,761.59 681.837,764.249 685.783,766.86 689.73,769.425 693.677,771.945 697.624,774.421 701.571,776.851 705.517,779.237 709.464,781.577 713.411,783.874 717.358,786.13 721.305,788.344 725.251,790.513 729.198,792.641 733.145,794.737 737.092,796.804 741.039,798.834 744.985,800.836 748.932,802.811 752.879,804.749 756.826,806.658 760.773,808.539 764.719,810.391 768.666,812.215 772.613,814.008 776.56,815.774 780.507,817.515 784.454,819.24 788.4,820.949 792.347,822.641 796.294,824.32 800.241,825.989 804.188,827.653 808.134,829.312 812.081,830.97 816.028,832.629 819.975,834.293 823.922,835.966 827.868,837.649 831.815,839.346 835.762,841.061 839.709,842.804 843.656,844.584 847.602,846.395 851.549,848.24 855.496,850.123 859.443,852.05 863.39,854.027 867.336,856.057 871.283,858.145 875.23,860.3 879.177,862.522 883.124,864.816 887.07,867.184 891.017,869.631 894.964,872.172 898.911,874.804 902.858,877.541 906.804,880.384 910.751,883.331 914.698,886.39 918.645,889.568 922.592,892.868 926.538,896.295 930.485,899.852 934.432,903.544 938.379,907.372 942.326,911.34 946.273,915.448 950.219,919.699 954.166,924.092 958.113,928.625 962.06,933.299 966.007,938.11 969.953,943.058 973.9,948.14 977.847,953.354 981.794,958.699 985.741,964.171 989.687,969.77 993.634,975.492 997.581,981.337 1001.53,987.3 1005.47,993.379 1009.42,999.568 1013.37,1005.86 1017.31,1012.25 1021.26,1018.71 1025.21,1025.25 1029.16,1031.84 1033.1,1038.47 1037.05,1045.12 1041,1051.76 1044.94,1058.4 1048.89,1065.01 1052.84,1071.59 1056.78,1078.12 1060.73,1084.6 1064.68,1091.02 1068.62,1097.37 1072.57,1103.66 1076.52,1109.89 1080.46,1116.03 1084.41,1122.11 1088.36,1128.11 1092.3,1134.03 1096.25,1139.88 1100.2,1145.66 1104.14,1151.35 1108.09,1156.97 1112.04,1162.51 1115.99,1167.98 1119.93,1173.37 1123.88,1178.69 1127.83,1183.94 1131.77,1189.11 1135.72,1194.2 1139.67,1199.22 1143.61,1204.17 1147.56,1209.05 1151.51,1213.86 1155.45,1218.6 1159.4,1223.26 1163.35,1227.86 1167.29,1232.39 1171.24,1236.86 1175.19,1241.26 1179.13,1245.59 1183.08,1249.85 1187.03,1254.06 1190.97,1258.19 1194.92,1262.26 1198.87,1266.27 1202.81,1270.21 1206.76,1274.09 1210.71,1277.91 1214.66,1281.66 1218.6,1285.35 1222.55,1288.98 1226.5,1292.55 1230.44,1296.06 1234.39,1299.5 1238.34,1302.88 1242.28,1306.21 1246.23,1309.47 1250.18,1312.67 1254.12,1315.82 1258.07,1318.9 1262.02,1321.93 1265.96,1324.9 1269.91,1327.81 1273.86,1330.65 1277.8,1333.42 1281.75,1336.15 1285.7,1338.81 1289.64,1341.39 1293.59,1343.91 1297.54,1346.36 1301.48,1348.76 1305.43,1351.09 1309.38,1353.36 1313.33,1355.57 1317.27,1357.71 1321.22,1359.79 1325.17,1361.81 1329.11,1363.75 1333.06,1365.62 1337.01,1367.41 1340.95,1369.13 1344.9,1370.78 1348.85,1372.34 1352.79,1373.83 1356.74,1375.23 1360.69,1376.54 1364.63,1377.77 1368.58,1378.9 1372.53,1379.92 1376.47,1380.83 1380.42,1381.65 1384.37,1382.37 1388.31,1383.02 1392.26,1383.56 1396.21,1383.94 1400.16,1384.16 1404.1,1384.24 1408.05,1384.23 1412,1384.1 1415.94,1383.85 1419.89,1383.51 1423.84,1383.04 1427.78,1382.42 1431.73,1381.63 1435.68,1380.74 1439.62,1379.68 1443.57,1378.52 1447.52,1377.2 1451.46,1375.74 1455.41,1374.15 1459.36,1372.39 1463.3,1370.44 1467.25,1368.34 1471.2,1366.05 1475.14,1363.56 1479.09,1360.87 1483.04,1357.99 1486.98,1354.92 1490.93,1351.66 1494.88,1348.18 1498.83,1344.46 1502.77,1340.53 1506.72,1336.36 1510.67,1332 1514.61,1327.49 1518.56,1322.79 1522.51,1317.89 1526.45,1312.76 1530.4,1307.49 1534.35,1302.04 1538.29,1296.37 1542.24,1290.32 1546.19,1283.97 1550.13,1277.6 1554.08,1270.98 1558.03,1264.07 1561.97,1257.04 1565.92,1249.82 1569.87,1242.26 1573.81,1234.45 1577.76,1226.54 1581.71,1218.43 1585.65,1210.28 1589.6,1202.11 1593.55,1193.82 1597.5,1185.5 1601.44,1177.04 1605.39,1168.46 1609.34,1159.86 1613.28,1151.25 1617.23,1142.61 1621.18,1133.96 1625.12,1125.37 1629.07,1116.87 1633.02,1108.51 1636.96,1100.34 1640.91,1092.52 1644.86,1085.09 1648.8,1078.25 1652.75,1072.23 1656.7,1067.23 1660.64,1063.21 1664.59,1060.14 1668.54,1057.92 1672.48,1056.44 1676.43,1055.67 1680.38,1055.51 1684.33,1055.87 1688.27,1056.7 1692.22,1057.91 1696.17,1059.43 1700.11,1061.19 1704.06,1063.15 1708.01,1065.29 1711.95,1067.57 1715.9,1069.98 1719.85,1072.51 1723.79,1075.15 1727.74,1077.85 1731.69,1080.63 1735.63,1083.45 1739.58,1086.31 1743.53,1089.21 1747.47,1092.13 1751.42,1095.07 1755.37,1098.02 1759.31,1100.98 1763.26,1103.93 1767.21,1106.88 1771.15,1109.82 1775.1,1112.76 1779.05,1115.67 1783,1118.58 1786.94,1121.46 1790.89,1124.31 1794.84,1127.12 1798.78,1129.88 1802.73,1132.61 1806.68,1135.3 1810.62,1137.95 1814.57,1140.56 1818.52,1143.13 1822.46,1145.64 1826.41,1148.12 1830.36,1150.55 1834.3,1152.94 1838.25,1155.27 1842.2,1157.54 1846.14,1159.75 1850.09,1161.9 1854.04,1163.98 1857.98,1166.02 1861.93,1167.99 1865.88,1169.89 1869.82,1171.72 1873.77,1173.49 1877.72,1175.18 1881.67,1176.79 1885.61,1178.33 1889.56,1179.79 1893.51,1181.17 1897.45,1182.47 1901.4,1183.67 1905.35,1184.8 1909.29,1185.8 1913.24,1186.72 1917.19,1187.58 1921.13,1188.38 1925.08,1189.09 1929.03,1189.65 1932.97,1190.1 1936.92,1190.43 1940.87,1190.68 1944.81,1190.87 1948.76,1190.91 1952.71,1190.81 1956.65,1190.59 1960.6,1190.23 1964.55,1189.78 1968.49,1189.27 1972.44,1188.56 1976.39,1187.7 1980.34,1186.65 1984.28,1185.41 1988.23,1183.9 1992.18,1182.17 1996.12,1180.2 2000.07,1178.01 2004.02,1175.67 2007.96,1173.11 2011.91,1170.41 2015.86,1167.52 2019.8,1164.45 2023.75,1161.23 2027.7,1157.86 2031.64,1154.37 2035.59,1150.75 2039.54,1146.96 2043.48,1143.02 2047.43,1138.98 2051.38,1134.95 2055.32,1130.85 2059.27,1126.63 2063.22,1122.48 2067.17,1118.24 2071.11,1114.16 2075.06,1110.21 2079.01,1106.49 2082.95,1103.09 2086.9,1100.13 2090.85,1097.57 2094.79,1095.28 2098.74,1093.22 2102.69,1091.32 2106.63,1089.7 2110.58,1088.42 2114.53,1087.44 2118.47,1086.74 2122.42,1086.36 2126.37,1086.2 2130.31,1086.23 2134.26,1086.43 2138.21,1086.8 2142.15,1087.37 2146.1,1088.11 2150.05,1089.02 2153.99,1090.07 2157.94,1091.24 2161.89,1092.51 2165.84,1093.89 2169.78,1095.35 2173.73,1096.88 2177.68,1098.47 2181.62,1100.13 2185.57,1101.85 2189.52,1103.58 2193.46,1105.33 2197.41,1107.12 2201.36,1108.93 2205.3,1110.73 2209.25,1112.53 2213.2,1114.35 2217.14,1116.2 2221.09,1118.05 2225.04,1119.93 2228.98,1121.77 2232.93,1123.6 2236.88,1125.45 2240.82,1127.28 2244.77,1129.11 2248.72,1130.92 2252.66,1132.7 2256.61,1134.45 2260.56,1136.16 2264.51,1137.81 2268.45,1139.41 2272.4,1140.95 2276.35,1142.43 2280.29,1143.85 2284.24,1145.22 2288.19,1146.51 2292.13,1147.74 "/>
<path clip-path="url(#clip920)" d="M2007.57 248.629 L2281.36 248.629 L2281.36 93.1086 L2007.57 93.1086  Z" fill="#ffffff" fill-rule="evenodd" fill-opacity="1"/>
<polyline clip-path="url(#clip920)" style="stroke:#000000; stroke-linecap:round; stroke-linejoin:round; stroke-width:4; stroke-opacity:1; fill:none" points="2007.57,248.629 2281.36,248.629 2281.36,93.1086 2007.57,93.1086 2007.57,248.629 "/>
<polyline clip-path="url(#clip920)" style="stroke:#1f77b4; stroke-linecap:round; stroke-linejoin:round; stroke-width:8; stroke-opacity:1; fill:none" points="2031.37,144.949 2174.17,144.949 "/>
<path clip-path="url(#clip920)" d="M2237.51 122.516 Q2237.51 122.937 2237.34 123.172 Q2237.2 123.382 2237.04 123.429 Q2236.87 123.453 2236.45 123.476 Q2233.1 123.64 2230.36 125.912 Q2229.68 126.498 2227.97 128.325 Q2226.29 130.151 2224.04 132.587 Q2221.81 135.023 2220.53 136.335 L2226.71 151.138 Q2226.97 151.724 2227.06 151.981 Q2227.18 152.215 2227.41 152.52 Q2227.67 152.824 2227.86 152.918 Q2228.07 153.012 2228.51 153.129 Q2228.98 153.223 2229.45 153.246 Q2229.94 153.246 2230.83 153.269 Q2231.11 153.269 2231.23 153.293 Q2231.37 153.293 2231.53 153.433 Q2231.7 153.55 2231.7 153.832 Q2231.7 154.253 2231.51 154.487 Q2231.35 154.698 2231.18 154.722 Q2231.04 154.745 2230.78 154.745 Q2230.18 154.745 2228.11 154.675 Q2226.05 154.604 2225.47 154.604 L2219.43 154.745 Q2218.7 154.745 2218.7 154.159 Q2218.7 153.855 2218.75 153.691 Q2218.82 153.504 2218.98 153.433 Q2219.14 153.34 2219.26 153.316 Q2219.38 153.293 2219.66 153.269 Q2220.53 153.176 2221.18 152.918 Q2221.86 152.637 2222.14 152.356 Q2222.45 152.075 2222.45 151.864 L2222.21 151.185 L2217.36 139.731 L2213.03 144.439 L2208.14 149.616 Q2206.85 150.997 2206.85 151.77 Q2206.85 153.059 2208.77 153.269 Q2209.35 153.316 2209.35 153.785 Q2209.35 154.23 2209.17 154.464 Q2209 154.675 2208.84 154.722 Q2208.7 154.745 2208.49 154.745 Q2207.62 154.745 2205.79 154.675 Q2203.99 154.604 2203.1 154.604 Q2202.35 154.604 2200.83 154.675 Q2199.31 154.745 2198.6 154.745 Q2198.32 154.745 2198.16 154.604 Q2197.99 154.464 2197.99 154.323 L2197.97 154.206 Q2197.97 153.878 2198.02 153.691 Q2198.09 153.504 2198.27 153.41 Q2198.49 153.316 2198.58 153.316 Q2198.67 153.293 2199.02 153.269 Q2201.02 153.152 2202.7 152.379 Q2204.41 151.606 2206.07 149.803 Q2206.21 149.686 2206.38 149.545 Q2206.57 149.405 2206.71 149.288 L2216.83 138.396 L2211.16 124.999 Q2210.9 124.39 2210.67 124.132 Q2210.43 123.851 2209.7 123.663 Q2208.98 123.476 2207.57 123.476 Q2207.18 123.476 2206.99 123.453 Q2206.8 123.429 2206.64 123.312 Q2206.47 123.195 2206.47 122.937 Q2206.47 122.492 2206.64 122.282 Q2206.82 122.047 2206.96 122.024 Q2207.13 121.977 2207.34 121.977 Q2207.92 121.977 2210.01 122.047 Q2212.09 122.118 2212.7 122.118 Q2213.71 122.118 2215.72 122.047 Q2217.76 121.977 2218.75 121.977 Q2219.47 121.977 2219.47 122.563 Q2219.47 122.937 2219.31 123.148 Q2219.14 123.359 2218.98 123.406 Q2218.82 123.453 2218.51 123.476 Q2217.6 123.57 2216.9 123.874 Q2216.22 124.155 2215.94 124.436 Q2215.68 124.694 2215.68 124.858 L2215.91 125.49 L2219.94 135.023 L2227.72 126.685 Q2228.63 125.654 2228.63 124.952 Q2228.63 123.687 2226.71 123.476 Q2226.12 123.382 2226.12 122.937 Q2226.12 122.492 2226.31 122.282 Q2226.5 122.047 2226.64 122.024 Q2226.8 121.977 2227.04 121.977 Q2227.9 121.977 2229.68 122.047 Q2231.49 122.118 2232.38 122.118 Q2233.13 122.118 2234.65 122.047 Q2236.17 121.977 2236.87 121.977 Q2237.16 121.977 2237.32 122.118 Q2237.48 122.235 2237.48 122.375 L2237.51 122.516 Z" fill="#000000" fill-rule="nonzero" fill-opacity="1" /><path clip-path="url(#clip920)" d="M2252.54 153.133 Q2252.54 153.592 2252.33 153.707 Q2252.12 153.805 2251.53 153.805 L2248.38 153.805 L2245.89 163.708 Q2245.69 164.577 2245.69 165.315 Q2245.69 166.135 2245.94 166.496 Q2246.2 166.856 2246.74 166.856 Q2247.81 166.856 2248.95 165.889 Q2250.12 164.922 2251.1 162.561 Q2251.23 162.249 2251.3 162.184 Q2251.38 162.102 2251.59 162.102 Q2252 162.102 2252 162.43 Q2252 162.544 2251.77 163.069 Q2251.56 163.594 2251.08 164.364 Q2250.63 165.135 2250.02 165.856 Q2249.43 166.578 2248.53 167.102 Q2247.62 167.611 2246.66 167.611 Q2245.3 167.611 2244.43 166.742 Q2243.58 165.873 2243.58 164.512 Q2243.58 164.069 2243.92 162.659 Q2244.26 161.233 2246.13 153.805 L2243.17 153.805 Q2242.76 153.805 2242.59 153.789 Q2242.44 153.773 2242.33 153.691 Q2242.23 153.592 2242.23 153.395 Q2242.23 153.084 2242.36 152.953 Q2242.49 152.805 2242.66 152.789 Q2242.84 152.756 2243.25 152.756 L2246.4 152.756 L2247.71 147.427 Q2247.84 146.903 2248.17 146.608 Q2248.51 146.296 2248.71 146.263 Q2248.9 146.214 2249.05 146.214 Q2249.49 146.214 2249.76 146.46 Q2250.02 146.69 2250.02 147.116 Q2250.02 147.345 2248.64 152.756 L2251.59 152.756 Q2251.97 152.756 2252.12 152.772 Q2252.28 152.789 2252.41 152.871 Q2252.54 152.953 2252.54 153.133 Z" fill="#000000" fill-rule="nonzero" fill-opacity="1" /><polyline clip-path="url(#clip920)" style="stroke:#ff7e0d; stroke-linecap:round; stroke-linejoin:round; stroke-width:8; stroke-opacity:1; fill:none" points="2031.37,196.789 2174.17,196.789 "/>
<path clip-path="url(#clip920)" d="M2232.85 174.403 Q2232.85 174.707 2232.78 174.894 Q2232.73 175.082 2232.54 175.176 Q2232.38 175.246 2232.26 175.269 Q2232.17 175.293 2231.89 175.316 Q2230.74 175.41 2229.78 175.714 Q2228.82 175.995 2228 176.557 Q2227.2 177.12 2226.76 177.494 Q2226.33 177.869 2225.59 178.619 L2224.93 179.298 L2213.03 192.953 Q2212.61 193.422 2212.35 194.452 L2210.67 201.221 Q2210.01 204.032 2210.01 204.243 Q2210.01 204.664 2210.24 204.805 Q2210.5 204.922 2211.3 204.992 L2213.12 205.109 Q2214.2 205.109 2214.37 205.297 Q2214.46 205.414 2214.46 205.625 Q2214.46 206.07 2214.27 206.304 Q2214.11 206.515 2213.94 206.562 Q2213.8 206.585 2213.55 206.585 L2207.41 206.444 L2201.37 206.585 Q2200.69 206.585 2200.69 206.046 Q2200.69 205.695 2200.73 205.508 Q2200.8 205.297 2201.02 205.227 Q2201.23 205.133 2201.39 205.133 Q2201.55 205.109 2202 205.109 Q2203.08 205.086 2203.61 205.086 Q2204.18 205.063 2204.72 204.922 Q2205.25 204.781 2205.44 204.688 Q2205.65 204.571 2205.89 204.173 Q2206.14 203.751 2206.21 203.423 Q2206.31 203.095 2206.5 202.275 Q2206.68 201.549 2207.67 197.591 Q2208.65 193.632 2208.65 193.539 Q2208.65 193.281 2208.46 192.719 L2202.56 176.932 Q2202.3 176.23 2202.09 175.948 Q2201.88 175.667 2201.18 175.503 Q2200.48 175.316 2199.07 175.316 Q2198.67 175.316 2198.49 175.293 Q2198.3 175.269 2198.13 175.152 Q2197.97 175.035 2197.97 174.777 Q2197.97 174.332 2198.16 174.122 Q2198.34 173.887 2198.49 173.864 Q2198.65 173.817 2198.88 173.817 Q2199.47 173.817 2201.55 173.887 Q2203.64 173.958 2204.25 173.958 L2210.29 173.817 Q2211.02 173.817 2211.02 174.356 Q2211.02 175.012 2210.76 175.176 Q2210.5 175.316 2209.87 175.316 Q2207.03 175.316 2207.03 176.464 Q2207.03 176.604 2207.32 177.284 L2212.59 191.524 L2223.71 178.712 L2223.88 178.525 Q2224.02 178.338 2224.13 178.197 Q2224.25 178.056 2224.44 177.799 Q2224.62 177.541 2224.72 177.33 Q2224.84 177.12 2224.93 176.862 Q2225.02 176.604 2225.02 176.417 Q2225.02 176.066 2224.81 175.831 Q2224.6 175.574 2224.27 175.48 Q2223.95 175.386 2223.71 175.363 Q2223.48 175.316 2223.29 175.316 Q2222.56 175.316 2222.56 174.731 Q2222.56 174.309 2222.75 174.098 Q2222.94 173.864 2223.08 173.84 Q2223.24 173.817 2223.48 173.817 Q2224.25 173.817 2225.87 173.887 Q2227.48 173.958 2228.28 173.958 Q2228.93 173.958 2230.27 173.887 Q2231.6 173.817 2232.21 173.817 Q2232.85 173.817 2232.85 174.403 Z" fill="#000000" fill-rule="nonzero" fill-opacity="1" /><path clip-path="url(#clip920)" d="M2247.93 204.973 Q2247.93 205.432 2247.72 205.547 Q2247.51 205.645 2246.92 205.645 L2243.77 205.645 L2241.28 215.548 Q2241.08 216.417 2241.08 217.155 Q2241.08 217.975 2241.33 218.336 Q2241.59 218.696 2242.13 218.696 Q2243.2 218.696 2244.34 217.729 Q2245.51 216.762 2246.49 214.401 Q2246.62 214.089 2246.69 214.024 Q2246.77 213.942 2246.98 213.942 Q2247.39 213.942 2247.39 214.27 Q2247.39 214.384 2247.16 214.909 Q2246.95 215.434 2246.48 216.204 Q2246.02 216.975 2245.41 217.696 Q2244.82 218.418 2243.92 218.942 Q2243.02 219.451 2242.05 219.451 Q2240.69 219.451 2239.82 218.582 Q2238.97 217.713 2238.97 216.352 Q2238.97 215.909 2239.31 214.499 Q2239.65 213.073 2241.52 205.645 L2238.56 205.645 Q2238.15 205.645 2237.98 205.629 Q2237.83 205.613 2237.72 205.531 Q2237.62 205.432 2237.62 205.235 Q2237.62 204.924 2237.75 204.793 Q2237.88 204.645 2238.05 204.629 Q2238.23 204.596 2238.64 204.596 L2241.79 204.596 L2243.1 199.267 Q2243.23 198.743 2243.56 198.448 Q2243.9 198.136 2244.1 198.103 Q2244.29 198.054 2244.44 198.054 Q2244.88 198.054 2245.15 198.3 Q2245.41 198.53 2245.41 198.956 Q2245.41 199.185 2244.03 204.596 L2246.98 204.596 Q2247.36 204.596 2247.51 204.612 Q2247.67 204.629 2247.8 204.711 Q2247.93 204.793 2247.93 204.973 Z" fill="#000000" fill-rule="nonzero" fill-opacity="1" /></svg>
