<?xml version="1.0" encoding="utf-8"?>
<svg xmlns="http://www.w3.org/2000/svg" xmlns:xlink="http://www.w3.org/1999/xlink" width="600" height="400" viewBox="0 0 2400 1600">
<defs>
  <clipPath id="clip040">
    <rect x="0" y="0" width="2400" height="1600"/>
  </clipPath>
</defs>
<path clip-path="url(#clip040)" d="M0 1600 L2400 1600 L2400 0 L0 0  Z" fill="#ffffff" fill-rule="evenodd" fill-opacity="1"/>
<defs>
  <clipPath id="clip041">
    <rect x="480" y="0" width="1681" height="1600"/>
  </clipPath>
</defs>
<path clip-path="url(#clip040)" d="M175.445 1423.18 L2352.76 1423.18 L2352.76 47.2441 L175.445 47.2441  Z" fill="#ffffff" fill-rule="evenodd" fill-opacity="1"/>
<defs>
  <clipPath id="clip042">
    <rect x="175" y="47" width="2178" height="1377"/>
  </clipPath>
</defs>
<polyline clip-path="url(#clip042)" style="stroke:#000000; stroke-linecap:round; stroke-linejoin:round; stroke-width:2; stroke-opacity:0.1; fill:none" points="237.067,1423.18 237.067,47.2441 "/>
<polyline clip-path="url(#clip042)" style="stroke:#000000; stroke-linecap:round; stroke-linejoin:round; stroke-width:2; stroke-opacity:0.1; fill:none" points="750.584,1423.18 750.584,47.2441 "/>
<polyline clip-path="url(#clip042)" style="stroke:#000000; stroke-linecap:round; stroke-linejoin:round; stroke-width:2; stroke-opacity:0.1; fill:none" points="1264.1,1423.18 1264.1,47.2441 "/>
<polyline clip-path="url(#clip042)" style="stroke:#000000; stroke-linecap:round; stroke-linejoin:round; stroke-width:2; stroke-opacity:0.1; fill:none" points="1777.62,1423.18 1777.62,47.2441 "/>
<polyline clip-path="url(#clip042)" style="stroke:#000000; stroke-linecap:round; stroke-linejoin:round; stroke-width:2; stroke-opacity:0.1; fill:none" points="2291.13,1423.18 2291.13,47.2441 "/>
<polyline clip-path="url(#clip042)" style="stroke:#000000; stroke-linecap:round; stroke-linejoin:round; stroke-width:2; stroke-opacity:0.1; fill:none" points="175.445,1384.24 2352.76,1384.24 "/>
<polyline clip-path="url(#clip042)" style="stroke:#000000; stroke-linecap:round; stroke-linejoin:round; stroke-width:2; stroke-opacity:0.1; fill:none" points="175.445,1061.84 2352.76,1061.84 "/>
<polyline clip-path="url(#clip042)" style="stroke:#000000; stroke-linecap:round; stroke-linejoin:round; stroke-width:2; stroke-opacity:0.1; fill:none" points="175.445,739.448 2352.76,739.448 "/>
<polyline clip-path="url(#clip042)" style="stroke:#000000; stroke-linecap:round; stroke-linejoin:round; stroke-width:2; stroke-opacity:0.1; fill:none" points="175.445,417.053 2352.76,417.053 "/>
<polyline clip-path="url(#clip042)" style="stroke:#000000; stroke-linecap:round; stroke-linejoin:round; stroke-width:2; stroke-opacity:0.1; fill:none" points="175.445,94.6585 2352.76,94.6585 "/>
<polyline clip-path="url(#clip040)" style="stroke:#000000; stroke-linecap:round; stroke-linejoin:round; stroke-width:4; stroke-opacity:1; fill:none" points="175.445,1423.18 2352.76,1423.18 "/>
<polyline clip-path="url(#clip040)" style="stroke:#000000; stroke-linecap:round; stroke-linejoin:round; stroke-width:4; stroke-opacity:1; fill:none" points="237.067,1423.18 237.067,1404.28 "/>
<polyline clip-path="url(#clip040)" style="stroke:#000000; stroke-linecap:round; stroke-linejoin:round; stroke-width:4; stroke-opacity:1; fill:none" points="750.584,1423.18 750.584,1404.28 "/>
<polyline clip-path="url(#clip040)" style="stroke:#000000; stroke-linecap:round; stroke-linejoin:round; stroke-width:4; stroke-opacity:1; fill:none" points="1264.1,1423.18 1264.1,1404.28 "/>
<polyline clip-path="url(#clip040)" style="stroke:#000000; stroke-linecap:round; stroke-linejoin:round; stroke-width:4; stroke-opacity:1; fill:none" points="1777.62,1423.18 1777.62,1404.28 "/>
<polyline clip-path="url(#clip040)" style="stroke:#000000; stroke-linecap:round; stroke-linejoin:round; stroke-width:4; stroke-opacity:1; fill:none" points="2291.13,1423.18 2291.13,1404.28 "/>
<path clip-path="url(#clip040)" d="M214.452 1454.1 Q210.84 1454.1 209.012 1457.66 Q207.206 1461.2 207.206 1468.33 Q207.206 1475.44 209.012 1479.01 Q210.84 1482.55 214.452 1482.55 Q218.086 1482.55 219.891 1479.01 Q221.72 1475.44 221.72 1468.33 Q221.72 1461.2 219.891 1457.66 Q218.086 1454.1 214.452 1454.1 M214.452 1450.39 Q220.262 1450.39 223.317 1455 Q226.396 1459.58 226.396 1468.33 Q226.396 1477.06 223.317 1481.67 Q220.262 1486.25 214.452 1486.25 Q208.641 1486.25 205.563 1481.67 Q202.507 1477.06 202.507 1468.33 Q202.507 1459.58 205.563 1455 Q208.641 1450.39 214.452 1450.39 Z" fill="#000000" fill-rule="nonzero" fill-opacity="1" /><path clip-path="url(#clip040)" d="M234.614 1479.7 L239.498 1479.7 L239.498 1485.58 L234.614 1485.58 L234.614 1479.7 Z" fill="#000000" fill-rule="nonzero" fill-opacity="1" /><path clip-path="url(#clip040)" d="M259.683 1454.1 Q256.072 1454.1 254.243 1457.66 Q252.437 1461.2 252.437 1468.33 Q252.437 1475.44 254.243 1479.01 Q256.072 1482.55 259.683 1482.55 Q263.317 1482.55 265.123 1479.01 Q266.951 1475.44 266.951 1468.33 Q266.951 1461.2 265.123 1457.66 Q263.317 1454.1 259.683 1454.1 M259.683 1450.39 Q265.493 1450.39 268.549 1455 Q271.627 1459.58 271.627 1468.33 Q271.627 1477.06 268.549 1481.67 Q265.493 1486.25 259.683 1486.25 Q253.873 1486.25 250.794 1481.67 Q247.738 1477.06 247.738 1468.33 Q247.738 1459.58 250.794 1455 Q253.873 1450.39 259.683 1450.39 Z" fill="#000000" fill-rule="nonzero" fill-opacity="1" /><path clip-path="url(#clip040)" d="M722.32 1481.64 L738.64 1481.64 L738.64 1485.58 L716.695 1485.58 L716.695 1481.64 Q719.357 1478.89 723.941 1474.26 Q728.547 1469.61 729.728 1468.27 Q731.973 1465.74 732.852 1464.01 Q733.755 1462.25 733.755 1460.56 Q733.755 1457.8 731.811 1456.07 Q729.89 1454.33 726.788 1454.33 Q724.589 1454.33 722.135 1455.09 Q719.704 1455.86 716.927 1457.41 L716.927 1452.69 Q719.751 1451.55 722.204 1450.97 Q724.658 1450.39 726.695 1450.39 Q732.065 1450.39 735.26 1453.08 Q738.454 1455.77 738.454 1460.26 Q738.454 1462.39 737.644 1464.31 Q736.857 1466.2 734.751 1468.8 Q734.172 1469.47 731.07 1472.69 Q727.968 1475.88 722.32 1481.64 Z" fill="#000000" fill-rule="nonzero" fill-opacity="1" /><path clip-path="url(#clip040)" d="M748.454 1479.7 L753.338 1479.7 L753.338 1485.58 L748.454 1485.58 L748.454 1479.7 Z" fill="#000000" fill-rule="nonzero" fill-opacity="1" /><path clip-path="url(#clip040)" d="M763.57 1451.02 L781.926 1451.02 L781.926 1454.96 L767.852 1454.96 L767.852 1463.43 Q768.871 1463.08 769.889 1462.92 Q770.908 1462.73 771.926 1462.73 Q777.713 1462.73 781.093 1465.9 Q784.473 1469.08 784.473 1474.49 Q784.473 1480.07 781 1483.17 Q777.528 1486.25 771.209 1486.25 Q769.033 1486.25 766.764 1485.88 Q764.519 1485.51 762.112 1484.77 L762.112 1480.07 Q764.195 1481.2 766.417 1481.76 Q768.639 1482.32 771.116 1482.32 Q775.121 1482.32 777.459 1480.21 Q779.797 1478.1 779.797 1474.49 Q779.797 1470.88 777.459 1468.77 Q775.121 1466.67 771.116 1466.67 Q769.241 1466.67 767.366 1467.08 Q765.514 1467.5 763.57 1468.38 L763.57 1451.02 Z" fill="#000000" fill-rule="nonzero" fill-opacity="1" /><path clip-path="url(#clip040)" d="M1231.27 1451.02 L1249.62 1451.02 L1249.62 1454.96 L1235.55 1454.96 L1235.55 1463.43 Q1236.57 1463.08 1237.58 1462.92 Q1238.6 1462.73 1239.62 1462.73 Q1245.41 1462.73 1248.79 1465.9 Q1252.17 1469.08 1252.17 1474.49 Q1252.17 1480.07 1248.7 1483.17 Q1245.22 1486.25 1238.9 1486.25 Q1236.73 1486.25 1234.46 1485.88 Q1232.21 1485.51 1229.81 1484.77 L1229.81 1480.07 Q1231.89 1481.2 1234.11 1481.76 Q1236.33 1482.32 1238.81 1482.32 Q1242.82 1482.32 1245.15 1480.21 Q1247.49 1478.1 1247.49 1474.49 Q1247.49 1470.88 1245.15 1468.77 Q1242.82 1466.67 1238.81 1466.67 Q1236.94 1466.67 1235.06 1467.08 Q1233.21 1467.5 1231.27 1468.38 L1231.27 1451.02 Z" fill="#000000" fill-rule="nonzero" fill-opacity="1" /><path clip-path="url(#clip040)" d="M1261.38 1479.7 L1266.26 1479.7 L1266.26 1485.58 L1261.38 1485.58 L1261.38 1479.7 Z" fill="#000000" fill-rule="nonzero" fill-opacity="1" /><path clip-path="url(#clip040)" d="M1286.45 1454.1 Q1282.84 1454.1 1281.01 1457.66 Q1279.2 1461.2 1279.2 1468.33 Q1279.2 1475.44 1281.01 1479.01 Q1282.84 1482.55 1286.45 1482.55 Q1290.08 1482.55 1291.89 1479.01 Q1293.72 1475.44 1293.72 1468.33 Q1293.72 1461.2 1291.89 1457.66 Q1290.08 1454.1 1286.45 1454.1 M1286.45 1450.39 Q1292.26 1450.39 1295.32 1455 Q1298.39 1459.58 1298.39 1468.33 Q1298.39 1477.06 1295.32 1481.67 Q1292.26 1486.25 1286.45 1486.25 Q1280.64 1486.25 1277.56 1481.67 Q1274.51 1477.06 1274.51 1468.33 Q1274.51 1459.58 1277.56 1455 Q1280.64 1450.39 1286.45 1450.39 Z" fill="#000000" fill-rule="nonzero" fill-opacity="1" /><path clip-path="url(#clip040)" d="M1743.94 1451.02 L1766.16 1451.02 L1766.16 1453.01 L1753.61 1485.58 L1748.73 1485.58 L1760.53 1454.96 L1743.94 1454.96 L1743.94 1451.02 Z" fill="#000000" fill-rule="nonzero" fill-opacity="1" /><path clip-path="url(#clip040)" d="M1775.28 1479.7 L1780.16 1479.7 L1780.16 1485.58 L1775.28 1485.58 L1775.28 1479.7 Z" fill="#000000" fill-rule="nonzero" fill-opacity="1" /><path clip-path="url(#clip040)" d="M1790.39 1451.02 L1808.75 1451.02 L1808.75 1454.96 L1794.68 1454.96 L1794.68 1463.43 Q1795.7 1463.08 1796.71 1462.92 Q1797.73 1462.73 1798.75 1462.73 Q1804.54 1462.73 1807.92 1465.9 Q1811.3 1469.08 1811.3 1474.49 Q1811.3 1480.07 1807.83 1483.17 Q1804.35 1486.25 1798.03 1486.25 Q1795.86 1486.25 1793.59 1485.88 Q1791.34 1485.51 1788.94 1484.77 L1788.94 1480.07 Q1791.02 1481.2 1793.24 1481.76 Q1795.46 1482.32 1797.94 1482.32 Q1801.95 1482.32 1804.28 1480.21 Q1806.62 1478.1 1806.62 1474.49 Q1806.62 1470.88 1804.28 1468.77 Q1801.95 1466.67 1797.94 1466.67 Q1796.07 1466.67 1794.19 1467.08 Q1792.34 1467.5 1790.39 1468.38 L1790.39 1451.02 Z" fill="#000000" fill-rule="nonzero" fill-opacity="1" /><path clip-path="url(#clip040)" d="M2243.21 1481.64 L2250.84 1481.64 L2250.84 1455.28 L2242.53 1456.95 L2242.53 1452.69 L2250.8 1451.02 L2255.47 1451.02 L2255.47 1481.64 L2263.11 1481.64 L2263.11 1485.58 L2243.21 1485.58 L2243.21 1481.64 Z" fill="#000000" fill-rule="nonzero" fill-opacity="1" /><path clip-path="url(#clip040)" d="M2282.56 1454.1 Q2278.95 1454.1 2277.12 1457.66 Q2275.31 1461.2 2275.31 1468.33 Q2275.31 1475.44 2277.12 1479.01 Q2278.95 1482.55 2282.56 1482.55 Q2286.19 1482.55 2288 1479.01 Q2289.83 1475.44 2289.83 1468.33 Q2289.83 1461.2 2288 1457.66 Q2286.19 1454.1 2282.56 1454.1 M2282.56 1450.39 Q2288.37 1450.39 2291.42 1455 Q2294.5 1459.58 2294.5 1468.33 Q2294.5 1477.06 2291.42 1481.67 Q2288.37 1486.25 2282.56 1486.25 Q2276.75 1486.25 2273.67 1481.67 Q2270.61 1477.06 2270.61 1468.33 Q2270.61 1459.58 2273.67 1455 Q2276.75 1450.39 2282.56 1450.39 Z" fill="#000000" fill-rule="nonzero" fill-opacity="1" /><path clip-path="url(#clip040)" d="M2302.72 1479.7 L2307.6 1479.7 L2307.6 1485.58 L2302.72 1485.58 L2302.72 1479.7 Z" fill="#000000" fill-rule="nonzero" fill-opacity="1" /><path clip-path="url(#clip040)" d="M2327.79 1454.1 Q2324.18 1454.1 2322.35 1457.66 Q2320.54 1461.2 2320.54 1468.33 Q2320.54 1475.44 2322.35 1479.01 Q2324.18 1482.55 2327.79 1482.55 Q2331.42 1482.55 2333.23 1479.01 Q2335.06 1475.44 2335.06 1468.33 Q2335.06 1461.2 2333.23 1457.66 Q2331.42 1454.1 2327.79 1454.1 M2327.79 1450.39 Q2333.6 1450.39 2336.65 1455 Q2339.73 1459.58 2339.73 1468.33 Q2339.73 1477.06 2336.65 1481.67 Q2333.6 1486.25 2327.79 1486.25 Q2321.98 1486.25 2318.9 1481.67 Q2315.84 1477.06 2315.84 1468.33 Q2315.84 1459.58 2318.9 1455 Q2321.98 1450.39 2327.79 1450.39 Z" fill="#000000" fill-rule="nonzero" fill-opacity="1" /><path clip-path="url(#clip040)" d="M1272.57 1531.91 Q1272.57 1532.81 1272.15 1533.04 Q1271.73 1533.23 1270.57 1533.23 L1264.39 1533.23 L1259.5 1552.69 Q1259.11 1554.39 1259.11 1555.84 Q1259.11 1557.45 1259.59 1558.16 Q1260.11 1558.87 1261.17 1558.87 Q1263.26 1558.87 1265.52 1556.97 Q1267.81 1555.07 1269.74 1550.43 Q1270 1549.82 1270.12 1549.69 Q1270.28 1549.53 1270.7 1549.53 Q1271.51 1549.53 1271.51 1550.17 Q1271.51 1550.4 1271.06 1551.43 Q1270.64 1552.46 1269.71 1553.97 Q1268.8 1555.49 1267.61 1556.9 Q1266.45 1558.32 1264.68 1559.35 Q1262.91 1560.35 1261.01 1560.35 Q1258.34 1560.35 1256.63 1558.64 Q1254.95 1556.94 1254.95 1554.26 Q1254.95 1553.39 1255.63 1550.62 Q1256.31 1547.82 1259.98 1533.23 L1254.15 1533.23 Q1253.34 1533.23 1253.02 1533.2 Q1252.73 1533.17 1252.51 1533.01 Q1252.31 1532.81 1252.31 1532.43 Q1252.31 1531.82 1252.57 1531.56 Q1252.83 1531.27 1253.15 1531.24 Q1253.51 1531.17 1254.31 1531.17 L1260.49 1531.17 L1263.07 1520.71 Q1263.33 1519.67 1263.97 1519.09 Q1264.65 1518.48 1265.04 1518.42 Q1265.42 1518.32 1265.71 1518.32 Q1266.58 1518.32 1267.1 1518.81 Q1267.61 1519.26 1267.61 1520.09 Q1267.61 1520.54 1264.91 1531.17 L1270.7 1531.17 Q1271.44 1531.17 1271.73 1531.2 Q1272.06 1531.24 1272.31 1531.4 Q1272.57 1531.56 1272.57 1531.91 Z" fill="#000000" fill-rule="nonzero" fill-opacity="1" /><polyline clip-path="url(#clip040)" style="stroke:#000000; stroke-linecap:round; stroke-linejoin:round; stroke-width:4; stroke-opacity:1; fill:none" points="175.445,1423.18 175.445,47.2441 "/>
<polyline clip-path="url(#clip040)" style="stroke:#000000; stroke-linecap:round; stroke-linejoin:round; stroke-width:4; stroke-opacity:1; fill:none" points="175.445,1384.24 194.343,1384.24 "/>
<polyline clip-path="url(#clip040)" style="stroke:#000000; stroke-linecap:round; stroke-linejoin:round; stroke-width:4; stroke-opacity:1; fill:none" points="175.445,1061.84 194.343,1061.84 "/>
<polyline clip-path="url(#clip040)" style="stroke:#000000; stroke-linecap:round; stroke-linejoin:round; stroke-width:4; stroke-opacity:1; fill:none" points="175.445,739.448 194.343,739.448 "/>
<polyline clip-path="url(#clip040)" style="stroke:#000000; stroke-linecap:round; stroke-linejoin:round; stroke-width:4; stroke-opacity:1; fill:none" points="175.445,417.053 194.343,417.053 "/>
<polyline clip-path="url(#clip040)" style="stroke:#000000; stroke-linecap:round; stroke-linejoin:round; stroke-width:4; stroke-opacity:1; fill:none" points="175.445,94.6585 194.343,94.6585 "/>
<path clip-path="url(#clip040)" d="M127.501 1370.04 Q123.89 1370.04 122.061 1373.6 Q120.255 1377.14 120.255 1384.27 Q120.255 1391.38 122.061 1394.94 Q123.89 1398.49 127.501 1398.49 Q131.135 1398.49 132.941 1394.94 Q134.769 1391.38 134.769 1384.27 Q134.769 1377.14 132.941 1373.6 Q131.135 1370.04 127.501 1370.04 M127.501 1366.33 Q133.311 1366.33 136.367 1370.94 Q139.445 1375.52 139.445 1384.27 Q139.445 1393 136.367 1397.61 Q133.311 1402.19 127.501 1402.19 Q121.691 1402.19 118.612 1397.61 Q115.556 1393 115.556 1384.27 Q115.556 1375.52 118.612 1370.94 Q121.691 1366.33 127.501 1366.33 Z" fill="#000000" fill-rule="nonzero" fill-opacity="1" /><path clip-path="url(#clip040)" d="M123.126 1075.19 L139.445 1075.19 L139.445 1079.12 L117.501 1079.12 L117.501 1075.19 Q120.163 1072.43 124.746 1067.8 Q129.353 1063.15 130.533 1061.81 Q132.779 1059.29 133.658 1057.55 Q134.561 1055.79 134.561 1054.1 Q134.561 1051.35 132.617 1049.61 Q130.695 1047.87 127.593 1047.87 Q125.394 1047.87 122.941 1048.64 Q120.51 1049.4 117.732 1050.95 L117.732 1046.23 Q120.556 1045.1 123.01 1044.52 Q125.464 1043.94 127.501 1043.94 Q132.871 1043.94 136.066 1046.62 Q139.26 1049.31 139.26 1053.8 Q139.26 1055.93 138.45 1057.85 Q137.663 1059.75 135.556 1062.34 Q134.978 1063.01 131.876 1066.23 Q128.774 1069.42 123.126 1075.19 Z" fill="#000000" fill-rule="nonzero" fill-opacity="1" /><path clip-path="url(#clip040)" d="M129.862 726.242 L118.056 744.691 L129.862 744.691 L129.862 726.242 M128.635 722.168 L134.515 722.168 L134.515 744.691 L139.445 744.691 L139.445 748.58 L134.515 748.58 L134.515 756.728 L129.862 756.728 L129.862 748.58 L114.26 748.58 L114.26 744.066 L128.635 722.168 Z" fill="#000000" fill-rule="nonzero" fill-opacity="1" /><path clip-path="url(#clip040)" d="M127.917 415.19 Q124.769 415.19 122.918 417.343 Q121.089 419.496 121.089 423.246 Q121.089 426.972 122.918 429.148 Q124.769 431.301 127.917 431.301 Q131.066 431.301 132.894 429.148 Q134.746 426.972 134.746 423.246 Q134.746 419.496 132.894 417.343 Q131.066 415.19 127.917 415.19 M137.2 400.537 L137.2 404.797 Q135.441 403.963 133.635 403.523 Q131.853 403.084 130.093 403.084 Q125.464 403.084 123.01 406.209 Q120.58 409.334 120.232 415.653 Q121.598 413.639 123.658 412.574 Q125.718 411.486 128.195 411.486 Q133.404 411.486 136.413 414.658 Q139.445 417.806 139.445 423.246 Q139.445 428.57 136.297 431.787 Q133.149 435.005 127.917 435.005 Q121.922 435.005 118.751 430.421 Q115.58 425.815 115.58 417.088 Q115.58 408.894 119.468 404.033 Q123.357 399.148 129.908 399.148 Q131.667 399.148 133.45 399.496 Q135.255 399.843 137.2 400.537 Z" fill="#000000" fill-rule="nonzero" fill-opacity="1" /><path clip-path="url(#clip040)" d="M127.593 95.5265 Q124.26 95.5265 122.339 97.3089 Q120.441 99.0913 120.441 102.216 Q120.441 105.341 122.339 107.124 Q124.26 108.906 127.593 108.906 Q130.927 108.906 132.848 107.124 Q134.769 105.318 134.769 102.216 Q134.769 99.0913 132.848 97.3089 Q130.95 95.5265 127.593 95.5265 M122.918 93.5358 Q119.908 92.7951 118.218 90.7349 Q116.552 88.6747 116.552 85.7118 Q116.552 81.5683 119.492 79.1609 Q122.455 76.7535 127.593 76.7535 Q132.755 76.7535 135.695 79.1609 Q138.635 81.5683 138.635 85.7118 Q138.635 88.6747 136.945 90.7349 Q135.279 92.7951 132.292 93.5358 Q135.672 94.3228 137.547 96.6145 Q139.445 98.9061 139.445 102.216 Q139.445 107.239 136.367 109.925 Q133.311 112.61 127.593 112.61 Q121.876 112.61 118.797 109.925 Q115.742 107.239 115.742 102.216 Q115.742 98.9061 117.64 96.6145 Q119.538 94.3228 122.918 93.5358 M121.205 86.1516 Q121.205 88.8367 122.871 90.3414 Q124.561 91.846 127.593 91.846 Q130.603 91.846 132.292 90.3414 Q134.005 88.8367 134.005 86.1516 Q134.005 83.4664 132.292 81.9618 Q130.603 80.4572 127.593 80.4572 Q124.561 80.4572 122.871 81.9618 Q121.205 83.4664 121.205 86.1516 Z" fill="#000000" fill-rule="nonzero" fill-opacity="1" /><path clip-path="url(#clip040)" d="M30.8561 720.775 Q31.307 720.775 32.3698 721.064 L57.5548 727.377 Q63.1586 728.762 67.0877 733.27 Q71.0168 737.747 71.0168 742.836 Q71.0168 745.895 69.3743 747.86 Q67.764 749.824 65.2842 749.824 Q63.0942 749.824 62.0314 748.665 Q61.0008 747.505 61.0008 746.121 Q61.0008 745.67 61.1296 745.187 Q61.2584 744.703 61.8059 744.188 Q62.3534 743.673 63.2874 743.673 Q64.8011 743.673 65.9927 744.993 Q66.5402 745.637 66.669 746.249 Q66.7978 746.829 66.7978 747.827 Q67.6996 747.441 68.3115 746.732 Q68.9234 746.024 69.1489 745.219 Q69.4065 744.414 69.4709 743.898 Q69.5675 743.351 69.5675 742.836 Q69.5675 738.713 65.413 735.557 Q64.157 734.623 62.9009 733.947 Q61.6771 733.238 60.1634 732.723 Q58.682 732.208 57.8768 731.982 Q57.0717 731.725 55.2359 731.274 Q58.2311 734.269 58.2311 737.94 Q58.2311 739.486 57.8124 740.871 Q57.3937 742.224 56.5242 743.415 Q55.6224 744.607 54.0443 745.315 Q52.4662 745.992 50.3728 745.992 Q48.1506 745.992 45.1233 745.122 Q42.0959 744.253 36.5243 742.159 Q33.4004 741.032 31.8867 741.032 Q31.146 741.032 30.6951 741.193 Q30.212 741.354 30.051 741.676 Q29.8577 741.998 29.8255 742.191 Q29.7933 742.352 29.7933 742.675 Q29.7933 744.575 31.7257 746.346 Q33.658 748.117 37.9736 749.341 Q38.7787 749.599 38.972 749.76 Q39.1652 749.921 39.1652 750.404 Q39.133 751.209 38.4889 751.209 Q38.2312 751.209 37.2329 750.919 Q36.2023 750.629 34.6886 749.953 Q33.1427 749.245 31.7579 748.278 Q30.3408 747.312 29.3424 745.798 Q28.344 744.253 28.344 742.481 Q28.344 740.066 29.9221 738.584 Q31.468 737.071 33.7546 737.071 Q34.6886 737.071 35.5259 737.328 Q36.3311 737.554 38.4889 738.391 Q47.1845 741.773 51.4356 741.773 Q52.4662 741.773 53.3358 741.612 Q54.1731 741.418 55.0105 741 Q55.8156 740.581 56.2987 739.744 Q56.7496 738.874 56.7496 737.683 Q56.7496 736.169 56.0411 734.752 Q55.3003 733.303 54.302 732.401 Q53.3036 731.467 52.4662 730.919 Q51.5967 730.34 51.1458 730.211 L39.294 727.248 L34.0123 725.927 Q31.146 725.316 30.4374 725.026 Q29.7611 724.639 29.4068 723.963 Q29.0526 723.287 29.0526 722.707 Q29.0526 721.902 29.5357 721.354 Q30.0187 720.775 30.8561 720.775 Z" fill="#000000" fill-rule="nonzero" fill-opacity="1" /><polyline clip-path="url(#clip042)" style="stroke:#1f77b4; stroke-linecap:round; stroke-linejoin:round; stroke-width:8; stroke-opacity:1; fill:none" stroke-dasharray="32, 20" points="237.067,1384.24 241.079,1384.24 245.091,1384.24 249.103,1384.24 253.115,1384.24 257.126,1384.24 261.138,1384.24 265.15,1384.24 269.162,1384.24 273.174,1384.24 277.186,1384.24 281.198,1384.24 285.209,1384.24 289.221,1384.24 293.233,1384.24 297.245,1384.24 301.257,1384.24 305.269,1384.24 309.28,1384.24 313.292,1384.24 317.304,1384.24 321.316,1384.24 325.328,1384.24 329.34,1384.24 333.352,1384.24 337.363,1384.24 341.375,1384.24 345.387,1384.24 349.399,1384.24 353.411,1365.32 357.423,1365.32 361.435,1365.32 365.446,1365.32 369.458,1365.32 373.47,1305.36 377.482,1305.36 381.494,1305.36 385.506,1305.36 389.517,1305.36 393.529,1305.36 397.541,1305.36 401.553,1305.36 405.565,1305.36 409.577,1305.36 413.589,1305.36 417.6,1305.36 421.612,1305.36 425.624,1305.36 429.636,1305.36 433.648,1305.36 437.66,1305.36 441.672,1305.36 445.683,1305.36 449.695,1305.36 453.707,1305.36 457.719,1305.36 461.731,1305.36 465.743,1305.36 469.754,1305.36 473.766,1305.36 477.778,1305.36 481.79,1305.36 485.802,1245.18 489.814,1239.37 493.826,1239.37 497.837,1239.37 501.849,1239.37 505.861,1239.37 509.873,1239.37 513.885,1239.37 517.897,1239.37 521.908,1202.68 525.92,1202.68 529.932,1202.68 533.944,1202.68 537.956,1202.68 541.968,1131.17 545.98,1131.17 549.991,1064.07 554.003,1064.07 558.015,1064.07 562.027,1064.07 566.039,1064.07 570.051,1064.07 574.063,1064.07 578.074,1064.07 582.086,1064.07 586.098,1064.07 590.11,1064.07 594.122,1064.07 598.134,1064.07 602.145,1064.07 606.157,1064.07 610.169,1064.07 614.181,1064.07 618.193,1064.07 622.205,1064.07 626.217,1064.07 630.228,1064.07 634.24,1064.07 638.252,1064.07 642.264,1064.07 646.276,1064.07 650.288,1064.07 654.3,1064.07 658.311,1064.07 662.323,1064.07 666.335,1064.07 670.347,1064.07 674.359,1064.07 678.371,1064.07 682.382,1064.07 686.394,1064.07 690.406,1064.07 694.418,1064.07 698.43,1064.07 702.442,1064.07 706.454,1064.07 710.465,1064.07 714.477,1064.07 718.489,1064.07 722.501,1064.07 726.513,1064.07 730.525,1064.07 734.536,1064.07 738.548,1064.07 742.56,1064.07 746.572,1064.07 750.584,1064.07 754.596,1064.07 758.608,1064.07 762.619,1064.07 766.631,1064.07 770.643,1064.07 774.655,1064.07 778.667,1064.07 782.679,1064.07 786.691,1064.07 790.702,1064.07 794.714,1064.07 798.726,1064.07 802.738,1064.07 806.75,1064.07 810.762,1028.48 814.773,1028.48 818.785,1028.48 822.797,1028.48 826.809,1028.48 830.821,1028.48 834.833,1028.48 838.845,1010.84 842.856,1010.84 846.868,1010.84 850.88,1010.84 854.892,1010.84 858.904,1010.84 862.916,1010.84 866.928,1010.84 870.939,1010.84 874.951,1010.84 878.963,1010.84 882.975,1010.84 886.987,1010.84 890.999,1010.84 895.01,1010.84 899.022,1010.84 903.034,1010.84 907.046,1010.84 911.058,1010.84 915.07,1010.84 919.082,1010.84 923.093,1010.84 927.105,1010.84 931.117,1010.84 935.129,1010.84 939.141,1010.84 943.153,1010.84 947.164,1010.84 951.176,1010.84 955.188,1010.84 959.2,1010.84 963.212,1010.84 967.224,1010.84 971.236,1010.84 975.247,1010.84 979.259,1010.84 983.271,1010.84 987.283,1010.84 991.295,1010.84 995.307,1010.84 999.319,1010.84 1003.33,1010.84 1007.34,1010.84 1011.35,1010.84 1015.37,1010.84 1019.38,1010.84 1023.39,1010.84 1027.4,1010.84 1031.41,1010.84 1035.43,1010.84 1039.44,1008.19 1043.45,1008.19 1047.46,1008.19 1051.47,1008.19 1055.48,1008.19 1059.5,1008.19 1063.51,1008.19 1067.52,1008.19 1071.53,1008.19 1075.54,1008.19 1079.56,1008.19 1083.57,1008.19 1087.58,1008.19 1091.59,939.831 1095.6,939.831 1099.61,939.831 1103.63,939.831 1107.64,939.831 1111.65,939.831 1115.66,939.831 1119.67,939.831 1123.69,939.831 1127.7,939.831 1131.71,939.831 1135.72,878.133 1139.73,818.061 1143.75,791.567 1147.76,791.567 1151.77,791.567 1155.78,791.567 1159.79,791.567 1163.8,791.567 1167.82,791.567 1171.83,791.567 1175.84,791.567 1179.85,791.567 1183.86,791.567 1187.88,791.567 1191.89,791.567 1195.9,791.567 1199.91,791.567 1203.92,791.567 1207.93,791.567 1211.95,791.567 1215.96,791.567 1219.97,791.567 1223.98,732.465 1227.99,732.465 1232.01,732.465 1236.02,732.465 1240.03,732.465 1244.04,732.465 1248.05,732.465 1252.07,732.465 1256.08,732.465 1260.09,732.465 1264.1,732.465 1268.11,732.465 1272.12,732.465 1276.14,732.465 1280.15,732.465 1284.16,732.465 1288.17,732.465 1292.18,732.465 1296.2,732.465 1300.21,732.465 1304.22,732.465 1308.23,732.465 1312.24,732.465 1316.25,732.465 1320.27,732.465 1324.28,732.465 1328.29,732.465 1332.3,732.465 1336.31,732.465 1340.33,732.465 1344.34,732.465 1348.35,732.465 1352.36,732.465 1356.37,732.465 1360.38,732.465 1364.4,732.465 1368.41,732.465 1372.42,732.465 1376.43,732.465 1380.44,732.465 1384.46,732.465 1388.47,732.465 1392.48,732.465 1396.49,732.465 1400.5,732.465 1404.52,732.465 1408.53,732.465 1412.54,732.465 1416.55,732.465 1420.56,732.465 1424.57,732.465 1428.59,732.465 1432.6,732.465 1436.61,732.465 1440.62,732.465 1444.63,732.465 1448.65,732.465 1452.66,732.465 1456.67,732.465 1460.68,658.682 1464.69,658.682 1468.7,658.682 1472.72,658.682 1476.73,658.682 1480.74,658.682 1484.75,658.682 1488.76,658.682 1492.78,658.682 1496.79,658.682 1500.8,658.682 1504.81,658.682 1508.82,658.682 1512.84,658.682 1516.85,615.773 1520.86,615.773 1524.87,615.773 1528.88,615.773 1532.89,615.773 1536.91,615.773 1540.92,615.773 1544.93,615.773 1548.94,615.773 1552.95,615.773 1556.97,615.773 1560.98,615.773 1564.99,615.773 1569,573.84 1573.01,573.84 1577.02,573.84 1581.04,573.84 1585.05,566.876 1589.06,566.876 1593.07,566.876 1597.08,566.876 1601.1,497.861 1605.11,497.861 1609.12,497.861 1613.13,497.861 1617.14,497.861 1621.16,497.861 1625.17,497.861 1629.18,497.861 1633.19,497.861 1637.2,497.861 1641.21,497.861 1645.23,497.861 1649.24,497.861 1653.25,497.861 1657.26,497.861 1661.27,438.65 1665.29,438.65 1669.3,438.65 1673.31,438.65 1677.32,438.65 1681.33,438.65 1685.34,438.65 1689.36,438.65 1693.37,438.65 1697.38,438.65 1701.39,438.65 1705.4,438.65 1709.42,438.65 1713.43,438.65 1717.44,438.65 1721.45,438.65 1725.46,438.65 1729.48,438.65 1733.49,438.65 1737.5,438.65 1741.51,438.65 1745.52,438.65 1749.53,438.65 1753.55,438.65 1757.56,438.65 1761.57,438.65 1765.58,438.65 1769.59,438.65 1773.61,438.65 1777.62,438.65 1781.63,438.65 1785.64,358.086 1789.65,358.086 1793.66,358.086 1797.68,358.086 1801.69,358.086 1805.7,358.086 1809.71,358.086 1813.72,358.086 1817.74,358.086 1821.75,358.086 1825.76,358.086 1829.77,358.086 1833.78,358.086 1837.79,358.086 1841.81,358.086 1845.82,358.086 1849.83,358.086 1853.84,358.086 1857.85,358.086 1861.87,358.086 1865.88,358.086 1869.89,358.086 1873.9,358.086 1877.91,358.086 1881.93,358.086 1885.94,358.086 1889.95,358.086 1893.96,358.086 1897.97,358.086 1901.98,358.086 1906,314.828 1910.01,314.828 1914.02,314.828 1918.03,314.828 1922.04,314.828 1926.06,312.898 1930.07,312.898 1934.08,312.898 1938.09,312.898 1942.1,312.898 1946.11,312.898 1950.13,312.898 1954.14,312.898 1958.15,312.898 1962.16,312.898 1966.17,312.898 1970.19,312.898 1974.2,312.898 1978.21,312.898 1982.22,298.867 1986.23,298.867 1990.25,298.867 1994.26,298.867 1998.27,298.867 2002.28,298.867 2006.29,298.867 2010.3,298.867 2014.32,298.867 2018.33,298.867 2022.34,298.867 2026.35,298.867 2030.36,298.867 2034.38,298.867 2038.39,298.867 2042.4,298.867 2046.41,298.867 2050.42,248.856 2054.43,248.856 2058.45,248.856 2062.46,248.856 2066.47,248.856 2070.48,248.856 2074.49,248.856 2078.51,248.856 2082.52,248.856 2086.53,248.856 2090.54,248.856 2094.55,248.856 2098.57,237.228 2102.58,237.228 2106.59,237.228 2110.6,237.228 2114.61,237.228 2118.62,212.528 2122.64,212.528 2126.65,212.528 2130.66,212.528 2134.67,212.528 2138.68,212.528 2142.7,212.528 2146.71,212.528 2150.72,205.704 2154.73,205.704 2158.74,205.704 2162.75,205.704 2166.77,205.704 2170.78,205.704 2174.79,205.704 2178.8,205.704 2182.81,205.704 2186.83,205.704 2190.84,205.704 2194.85,205.704 2198.86,205.704 2202.87,150.653 2206.89,150.653 2210.9,150.653 2214.91,150.653 2218.92,150.653 2222.93,150.653 2226.94,150.653 2230.96,150.653 2234.97,150.653 2238.98,150.653 2242.99,150.653 2247,150.653 2251.02,150.653 2255.03,150.653 2259.04,150.653 2263.05,150.653 2267.06,150.653 2271.07,150.653 2275.09,150.653 2279.1,150.653 2283.11,150.653 2287.12,150.653 2291.13,150.653 "/>
<polyline clip-path="url(#clip042)" style="stroke:#ff7e0d; stroke-linecap:round; stroke-linejoin:round; stroke-width:8; stroke-opacity:1; fill:none" stroke-dasharray="32, 16, 4, 16" points="237.067,1352 241.079,1351.73 245.091,1351.35 249.103,1350.98 253.115,1350.04 257.126,1350.26 261.138,1349.25 265.15,1349.14 269.162,1347.8 273.174,1348.19 277.186,1348.69 281.198,1348.92 285.209,1347.35 289.221,1346.47 293.233,1347.46 297.245,1348.78 301.257,1350.51 305.269,1349.89 309.28,1350.18 313.292,1350.62 317.304,1349.95 321.316,1349.38 325.328,1348.88 329.34,1348.08 333.352,1348.45 337.363,1346.74 341.375,1346.44 345.387,1343.7 349.399,1343.26 353.411,1341.57 357.423,1341.4 361.435,1341.28 365.446,1340.77 369.458,1340.54 373.47,1340.09 377.482,1339.8 381.494,1339.46 385.506,1338.74 389.517,1338.15 393.529,1338.05 397.541,1337.56 401.553,1336.01 405.565,1334.32 409.577,1336.01 413.589,1335.32 417.6,1334.86 421.612,1334.6 425.624,1331.07 429.636,1332.3 433.648,1329.88 437.66,1327.27 441.672,1326.04 445.683,1327.52 449.695,1327.03 453.707,1327.37 457.719,1327.42 461.731,1330.28 465.743,1330.97 469.754,1330.12 473.766,1327.38 477.778,1328.01 481.79,1329.06 485.802,1329.3 489.814,1329.5 493.826,1329.75 497.837,1329.07 501.849,1328.31 505.861,1328.26 509.873,1328.02 513.885,1327.6 517.897,1327.3 521.908,1326.96 525.92,1325.93 529.932,1325.54 533.944,1326.01 537.956,1325.74 541.968,1323.99 545.98,1323.49 549.991,1321.99 554.003,1321.24 558.015,1320.03 562.027,1320.83 566.039,1319.26 570.051,1319.33 574.063,1316.88 578.074,1316.5 582.086,1316.5 586.098,1313.71 590.11,1312.68 594.122,1312.06 598.134,1312.19 602.145,1306.54 606.157,1307.69 610.169,1304.27 614.181,1302.17 618.193,1301.25 622.205,1299.62 626.217,1299.16 630.228,1296.66 634.24,1296.28 638.252,1296.05 642.264,1295.29 646.276,1294.42 650.288,1293.85 654.3,1293.14 658.311,1291.63 662.323,1291.34 666.335,1291.03 670.347,1291.06 674.359,1289.6 678.371,1288.95 682.382,1284.59 686.394,1285.34 690.406,1285.1 694.418,1284.25 698.43,1279.21 702.442,1280.63 706.454,1287.22 710.465,1289.74 714.477,1287.72 718.489,1291.72 722.501,1293.74 726.513,1290.77 730.525,1292.27 734.536,1291.5 738.548,1289.65 742.56,1288.24 746.572,1282.17 750.584,1281.88 754.596,1280.78 758.608,1282.63 762.619,1281.05 766.631,1278.46 770.643,1278.67 774.655,1277.95 778.667,1277.72 782.679,1277.46 786.691,1276.81 790.702,1275.83 794.714,1276.11 798.726,1274.98 802.738,1274.66 806.75,1274.24 810.762,1272.53 814.773,1275.09 818.785,1275.57 822.797,1271.52 826.809,1268.92 830.821,1267.62 834.833,1265.81 838.845,1263.72 842.856,1258.5 846.868,1256.83 850.88,1257.69 854.892,1253.42 858.904,1249.76 862.916,1244.38 866.928,1243.26 870.939,1244.5 874.951,1243.48 878.963,1251.74 882.975,1251.15 886.987,1246.67 890.999,1248.79 895.01,1248.01 899.022,1249.42 903.034,1251.84 907.046,1252.48 911.058,1251.28 915.07,1251.12 919.082,1249.82 923.093,1249.08 927.105,1248.12 931.117,1246.44 935.129,1245.1 939.141,1242.97 943.153,1241.78 947.164,1236.77 951.176,1236.72 955.188,1236.48 959.2,1236.1 963.212,1231.7 967.224,1227.11 971.236,1233.28 975.247,1230.88 979.259,1233.55 983.271,1238.5 987.283,1233.68 991.295,1235.78 995.307,1234.79 999.319,1235.23 1003.33,1235.19 1007.34,1231.43 1011.35,1229.92 1015.37,1234.61 1019.38,1236.53 1023.39,1231.22 1027.4,1226.6 1031.41,1225.38 1035.43,1225.18 1039.44,1223.5 1043.45,1220.51 1047.46,1218.17 1051.47,1217.44 1055.48,1216.18 1059.5,1215.15 1063.51,1214.32 1067.52,1212.96 1071.53,1211.24 1075.54,1208.67 1079.56,1204.94 1083.57,1198.86 1087.58,1196.62 1091.59,1199.39 1095.6,1205 1099.61,1197.49 1103.63,1198.99 1107.64,1193.22 1111.65,1185.01 1115.66,1180.2 1119.67,1172.51 1123.69,1174.26 1127.7,1167.98 1131.71,1161.65 1135.72,1160.21 1139.73,1160.68 1143.75,1161.29 1147.76,1168.42 1151.77,1170.64 1155.78,1174.01 1159.79,1176.45 1163.8,1172.64 1167.82,1165.61 1171.83,1161.8 1175.84,1162.53 1179.85,1159.78 1183.86,1159.61 1187.88,1157.14 1191.89,1155.63 1195.9,1153.31 1199.91,1151.74 1203.92,1149.38 1207.93,1148.23 1211.95,1145.18 1215.96,1143.76 1219.97,1144.56 1223.98,1141.1 1227.99,1143.23 1232.01,1148.52 1236.02,1153.72 1240.03,1153.66 1244.04,1162.29 1248.05,1155.53 1252.07,1147.51 1256.08,1141.8 1260.09,1148.81 1264.1,1153.42 1268.11,1143.09 1272.12,1133.39 1276.14,1123.07 1280.15,1132.29 1284.16,1138.37 1288.17,1135.91 1292.18,1140.73 1296.2,1138.16 1300.21,1145.91 1304.22,1149.08 1308.23,1149.43 1312.24,1145.31 1316.25,1144.87 1320.27,1142.94 1324.28,1143.47 1328.29,1141.9 1332.3,1141.09 1336.31,1139.67 1340.33,1138.25 1344.34,1135.69 1348.35,1135.16 1352.36,1129.42 1356.37,1124.01 1360.38,1118.05 1364.4,1120.31 1368.41,1121.39 1372.42,1131.26 1376.43,1119.42 1380.44,1102.46 1384.46,1098.63 1388.47,1098.06 1392.48,1097.13 1396.49,1098.17 1400.5,1100.72 1404.52,1116.55 1408.53,1107.52 1412.54,1103.36 1416.55,1100.74 1420.56,1103.74 1424.57,1103.31 1428.59,1109.64 1432.6,1109.29 1436.61,1108.61 1440.62,1116.29 1444.63,1107.42 1448.65,1108.47 1452.66,1107.2 1456.67,1104.5 1460.68,1099.41 1464.69,1098.41 1468.7,1097.33 1472.72,1095.73 1476.73,1092.92 1480.74,1090.17 1484.75,1085.54 1488.76,1081.72 1492.78,1077.04 1496.79,1084.09 1500.8,1084.63 1504.81,1081.93 1508.82,1078.13 1512.84,1081.01 1516.85,1078.27 1520.86,1086.32 1524.87,1074.77 1528.88,1061.22 1532.89,1070.13 1536.91,1068.84 1540.92,1056.9 1544.93,1056.28 1548.94,1059.6 1552.95,1059.99 1556.97,1037.91 1560.98,1042.51 1564.99,1038.24 1569,1044.25 1573.01,1045.96 1577.02,1048.61 1581.04,1050.84 1585.05,1054.62 1589.06,1045.89 1593.07,1048.77 1597.08,1047.37 1601.1,1048.06 1605.11,1045.8 1609.12,1043.13 1613.13,1040.79 1617.14,1039.28 1621.16,1036.17 1625.17,1027.92 1629.18,1026.82 1633.19,1021.03 1637.2,1016.09 1641.21,1023.58 1645.23,1025.26 1649.24,1021.64 1653.25,1014.93 1657.26,994.531 1661.27,980.347 1665.29,959.565 1669.3,945.058 1673.31,941.848 1677.32,943.031 1681.33,954.231 1685.34,943.036 1689.36,941.087 1693.37,935.556 1697.38,910.688 1701.39,915.086 1705.4,907.745 1709.42,927.696 1713.43,925.153 1717.44,916.204 1721.45,919.378 1725.46,906.35 1729.48,901.101 1733.49,898.237 1737.5,891.182 1741.51,890.489 1745.52,887.365 1749.53,885.104 1753.55,879.681 1757.56,873.725 1761.57,872.559 1765.58,881.274 1769.59,877.313 1773.61,879.694 1777.62,890.37 1781.63,865.87 1785.64,845.636 1789.65,810.713 1793.66,820.237 1797.68,806.548 1801.69,798.604 1805.7,801.735 1809.71,789.285 1813.72,787.324 1817.74,779.557 1821.75,787.902 1825.76,788.794 1829.77,768.098 1833.78,766.512 1837.79,757.117 1841.81,746.333 1845.82,745.689 1849.83,754.945 1853.84,738.541 1857.85,747.358 1861.87,734.244 1865.88,730.688 1869.89,727.813 1873.9,723.96 1877.91,720.515 1881.93,715.998 1885.94,710.784 1889.95,707.755 1893.96,704.171 1897.97,692.265 1901.98,681.496 1906,690.238 1910.01,714.1 1914.02,718.744 1918.03,707.844 1922.04,686.441 1926.06,674.972 1930.07,686.334 1934.08,687.572 1938.09,711.385 1942.1,679.1 1946.11,665.759 1950.13,673.313 1954.14,678.041 1958.15,679.65 1962.16,677.228 1966.17,656.757 1970.19,643.097 1974.2,634.364 1978.21,607.822 1982.22,565.046 1986.23,551.717 1990.25,520.939 1994.26,513.696 1998.27,502.516 2002.28,500.196 2006.29,491.961 2010.3,479.811 2014.32,472.754 2018.33,467.426 2022.34,462.414 2026.35,459.116 2030.36,448.965 2034.38,431.306 2038.39,417.469 2042.4,416.395 2046.41,423.495 2050.42,385.164 2054.43,380.082 2058.45,366.85 2062.46,329.81 2066.47,347.515 2070.48,330.396 2074.49,357.09 2078.51,366.759 2082.52,410.112 2086.53,410.22 2090.54,396.406 2094.55,365.225 2098.57,314.824 2102.58,324.798 2106.59,318.506 2110.6,316.211 2114.61,310.094 2118.62,325.183 2122.64,300.833 2126.65,243.611 2130.66,231.317 2134.67,210.55 2138.68,193.879 2142.7,217.266 2146.71,213.88 2150.72,204.661 2154.73,193.867 2158.74,187.984 2162.75,192.766 2166.77,173.503 2170.78,174.86 2174.79,177.064 2178.8,185.576 2182.81,180.39 2186.83,139.798 2190.84,146.848 2194.85,152.508 2198.86,128.736 2202.87,86.1857 2206.89,97.468 2210.9,138.354 2214.91,152.887 2218.92,177.164 2222.93,156.661 2226.94,118.579 2230.96,180.975 2234.97,179.001 2238.98,225.484 2242.99,211.79 2247,218.778 2251.02,226.449 2255.03,221.565 2259.04,215.818 2263.05,199.636 2267.06,184.113 2271.07,160.284 2275.09,153.915 2279.1,140.944 2283.11,134.034 2287.12,123.13 2291.13,112.556 "/>
<path clip-path="url(#clip040)" d="M248.022 248.629 L520.104 248.629 L520.104 93.1086 L248.022 93.1086  Z" fill="#ffffff" fill-rule="evenodd" fill-opacity="1"/>
<polyline clip-path="url(#clip040)" style="stroke:#000000; stroke-linecap:round; stroke-linejoin:round; stroke-width:4; stroke-opacity:1; fill:none" points="248.022,248.629 520.104,248.629 520.104,93.1086 248.022,93.1086 248.022,248.629 "/>
<polyline clip-path="url(#clip040)" style="stroke:#1f77b4; stroke-linecap:round; stroke-linejoin:round; stroke-width:8; stroke-opacity:1; fill:none" stroke-dasharray="32, 20" points="272.215,144.949 417.369,144.949 "/>
<path clip-path="url(#clip040)" d="M474.469 154.558 Q474.469 155.003 474.282 155.237 Q474.118 155.448 473.954 155.495 Q473.814 155.518 473.603 155.518 Q472.994 155.518 470.886 155.448 Q468.778 155.378 468.169 155.378 Q467.185 155.378 465.171 155.448 Q463.156 155.518 462.173 155.518 Q461.517 155.518 461.517 154.98 Q461.517 154.628 461.587 154.441 Q461.657 154.23 461.845 154.16 Q462.056 154.066 462.173 154.066 Q462.313 154.043 462.665 154.043 Q463.133 154.043 463.625 153.996 Q464.117 153.926 464.726 153.785 Q465.335 153.645 465.71 153.293 Q466.108 152.942 466.108 152.45 Q466.108 152.239 465.944 150.506 Q465.78 148.773 465.569 146.758 Q465.358 144.721 465.335 144.44 L453.296 144.44 Q452.195 146.337 451.422 147.649 Q450.649 148.96 450.368 149.405 Q450.087 149.85 449.923 150.131 Q449.759 150.412 449.665 150.576 Q448.986 151.818 448.986 152.356 Q448.986 153.855 451.234 154.043 Q452.007 154.043 452.007 154.605 Q452.007 155.027 451.82 155.261 Q451.633 155.472 451.469 155.495 Q451.328 155.518 451.094 155.518 Q450.321 155.518 448.705 155.448 Q447.089 155.378 446.292 155.378 Q445.613 155.378 444.208 155.448 Q442.802 155.518 442.17 155.518 Q441.889 155.518 441.725 155.355 Q441.561 155.191 441.561 154.98 Q441.561 154.652 441.608 154.464 Q441.678 154.277 441.865 154.183 Q442.053 154.09 442.147 154.09 Q442.24 154.066 442.568 154.043 Q444.348 153.926 445.73 153.083 Q447.136 152.216 448.471 149.991 L465.147 121.978 Q465.311 121.696 465.428 121.556 Q465.546 121.415 465.78 121.298 Q466.037 121.181 466.412 121.181 Q466.998 121.181 467.115 121.369 Q467.232 121.532 467.302 122.329 L470.23 152.31 Q470.3 152.942 470.347 153.2 Q470.417 153.434 470.722 153.692 Q471.05 153.926 471.635 153.996 Q472.244 154.043 473.369 154.043 Q473.79 154.043 473.954 154.066 Q474.118 154.066 474.282 154.183 Q474.469 154.3 474.469 154.558 M465.194 142.941 L463.672 127.13 L454.209 142.941 L465.194 142.941 Z" fill="#000000" fill-rule="nonzero" fill-opacity="1" /><path clip-path="url(#clip040)" d="M489.572 153.907 Q489.572 154.366 489.359 154.48 Q489.146 154.579 488.555 154.579 L485.407 154.579 L482.915 164.482 Q482.719 165.351 482.719 166.089 Q482.719 166.908 482.965 167.269 Q483.227 167.63 483.768 167.63 Q484.834 167.63 485.981 166.662 Q487.145 165.695 488.129 163.334 Q488.26 163.023 488.326 162.957 Q488.408 162.875 488.621 162.875 Q489.031 162.875 489.031 163.203 Q489.031 163.318 488.801 163.842 Q488.588 164.367 488.113 165.138 Q487.654 165.908 487.047 166.63 Q486.457 167.351 485.555 167.876 Q484.653 168.384 483.686 168.384 Q482.325 168.384 481.456 167.515 Q480.604 166.646 480.604 165.285 Q480.604 164.843 480.948 163.432 Q481.292 162.006 483.161 154.579 L480.194 154.579 Q479.784 154.579 479.62 154.562 Q479.472 154.546 479.357 154.464 Q479.259 154.366 479.259 154.169 Q479.259 153.857 479.39 153.726 Q479.521 153.579 479.685 153.562 Q479.866 153.529 480.276 153.529 L483.424 153.529 L484.735 148.201 Q484.866 147.676 485.194 147.381 Q485.539 147.07 485.735 147.037 Q485.932 146.988 486.08 146.988 Q486.522 146.988 486.785 147.234 Q487.047 147.463 487.047 147.889 Q487.047 148.119 485.67 153.529 L488.621 153.529 Q488.998 153.529 489.146 153.546 Q489.31 153.562 489.441 153.644 Q489.572 153.726 489.572 153.907 Z" fill="#000000" fill-rule="nonzero" fill-opacity="1" /><polyline clip-path="url(#clip040)" style="stroke:#ff7e0d; stroke-linecap:round; stroke-linejoin:round; stroke-width:8; stroke-opacity:1; fill:none" stroke-dasharray="32, 16, 4, 16" points="272.215,196.789 417.369,196.789 "/>
<path clip-path="url(#clip040)" d="M475.805 180.446 Q475.805 182.624 474.306 184.591 Q472.83 186.535 470.581 187.777 Q468.333 188.995 465.78 189.463 Q469.223 189.861 471.214 191.735 Q473.228 193.609 473.228 196.232 Q473.228 197.989 472.198 199.839 Q471.19 201.666 469.457 203.165 Q467.747 204.664 465.218 205.625 Q462.711 206.585 459.971 206.585 L442.849 206.585 Q442.31 206.585 442.1 206.562 Q441.889 206.538 441.725 206.421 Q441.561 206.304 441.561 206.046 Q441.561 205.578 441.725 205.367 Q441.912 205.156 442.123 205.133 Q442.334 205.109 442.849 205.109 Q444.02 205.109 444.723 205.039 Q445.426 204.969 445.871 204.875 Q446.339 204.758 446.573 204.43 Q446.831 204.102 446.948 203.821 Q447.065 203.517 447.229 202.837 L453.647 177.073 Q453.834 176.3 453.834 176.183 Q453.834 175.738 453.553 175.621 Q453.296 175.48 452.546 175.41 L450.719 175.316 Q450.157 175.316 449.923 175.293 Q449.712 175.269 449.548 175.152 Q449.384 175.035 449.384 174.777 Q449.384 174.122 449.665 173.981 Q449.97 173.817 450.766 173.817 L466.881 173.817 Q471.026 173.817 473.415 175.738 Q475.805 177.635 475.805 180.446 M471.448 180.258 Q471.448 179.368 471.214 178.572 Q470.98 177.775 470.417 177.002 Q469.879 176.23 468.801 175.785 Q467.724 175.316 466.225 175.316 L460.018 175.316 Q458.495 175.316 458.121 175.597 Q457.769 175.855 457.441 177.143 L454.467 189.018 L461.47 189.018 Q463.601 189.018 465.475 188.245 Q467.372 187.472 468.661 186.231 Q469.949 184.966 470.698 183.397 Q471.448 181.828 471.448 180.258 M468.754 195.694 Q468.754 194.991 468.637 194.312 Q468.52 193.632 468.145 192.836 Q467.771 192.04 467.185 191.454 Q466.6 190.869 465.569 190.47 Q464.562 190.072 463.25 190.072 L454.186 190.072 L450.86 203.47 Q450.625 204.336 450.625 204.571 Q450.625 204.828 450.743 204.922 Q450.883 204.992 451.258 205.039 Q451.679 205.109 452.312 205.109 L458.823 205.109 Q460.884 205.109 462.758 204.313 Q464.632 203.493 465.92 202.182 Q467.232 200.87 467.981 199.16 Q468.754 197.45 468.754 195.694 Z" fill="#000000" fill-rule="nonzero" fill-opacity="1" /><path clip-path="url(#clip040)" d="M490.9 204.973 Q490.9 205.432 490.687 205.547 Q490.474 205.645 489.884 205.645 L486.736 205.645 L484.243 215.548 Q484.047 216.417 484.047 217.155 Q484.047 217.975 484.293 218.336 Q484.555 218.696 485.096 218.696 Q486.162 218.696 487.309 217.729 Q488.474 216.762 489.457 214.401 Q489.588 214.089 489.654 214.024 Q489.736 213.942 489.949 213.942 Q490.359 213.942 490.359 214.27 Q490.359 214.384 490.13 214.909 Q489.916 215.434 489.441 216.204 Q488.982 216.975 488.375 217.696 Q487.785 218.418 486.883 218.942 Q485.981 219.451 485.014 219.451 Q483.653 219.451 482.784 218.582 Q481.932 217.713 481.932 216.352 Q481.932 215.909 482.276 214.499 Q482.62 213.073 484.489 205.645 L481.522 205.645 Q481.112 205.645 480.948 205.629 Q480.8 205.613 480.686 205.531 Q480.587 205.432 480.587 205.235 Q480.587 204.924 480.718 204.793 Q480.85 204.645 481.013 204.629 Q481.194 204.596 481.604 204.596 L484.752 204.596 L486.063 199.267 Q486.195 198.743 486.522 198.448 Q486.867 198.136 487.064 198.103 Q487.26 198.054 487.408 198.054 Q487.851 198.054 488.113 198.3 Q488.375 198.53 488.375 198.956 Q488.375 199.185 486.998 204.596 L489.949 204.596 Q490.326 204.596 490.474 204.612 Q490.638 204.629 490.769 204.711 Q490.9 204.793 490.9 204.973 Z" fill="#000000" fill-rule="nonzero" fill-opacity="1" /></svg>
