<?xml version="1.0" encoding="utf-8"?>
<svg xmlns="http://www.w3.org/2000/svg" xmlns:xlink="http://www.w3.org/1999/xlink" width="600" height="400" viewBox="0 0 2400 1600">
<defs>
  <clipPath id="clip770">
    <rect x="0" y="0" width="2400" height="1600"/>
  </clipPath>
</defs>
<path clip-path="url(#clip770)" d="M0 1600 L2400 1600 L2400 0 L0 0  Z" fill="#ffffff" fill-rule="evenodd" fill-opacity="1"/>
<defs>
  <clipPath id="clip771">
    <rect x="480" y="0" width="1681" height="1600"/>
  </clipPath>
</defs>
<path clip-path="url(#clip770)" d="M257.69 1423.18 L2352.76 1423.18 L2352.76 47.2441 L257.69 47.2441  Z" fill="#ffffff" fill-rule="evenodd" fill-opacity="1"/>
<defs>
  <clipPath id="clip772">
    <rect x="257" y="47" width="2096" height="1377"/>
  </clipPath>
</defs>
<polyline clip-path="url(#clip772)" style="stroke:#000000; stroke-linecap:round; stroke-linejoin:round; stroke-width:2; stroke-opacity:0.1; fill:none" points="316.984,1423.18 316.984,47.2441 "/>
<polyline clip-path="url(#clip772)" style="stroke:#000000; stroke-linecap:round; stroke-linejoin:round; stroke-width:2; stroke-opacity:0.1; fill:none" points="811.104,1423.18 811.104,47.2441 "/>
<polyline clip-path="url(#clip772)" style="stroke:#000000; stroke-linecap:round; stroke-linejoin:round; stroke-width:2; stroke-opacity:0.1; fill:none" points="1305.22,1423.18 1305.22,47.2441 "/>
<polyline clip-path="url(#clip772)" style="stroke:#000000; stroke-linecap:round; stroke-linejoin:round; stroke-width:2; stroke-opacity:0.1; fill:none" points="1799.34,1423.18 1799.34,47.2441 "/>
<polyline clip-path="url(#clip772)" style="stroke:#000000; stroke-linecap:round; stroke-linejoin:round; stroke-width:2; stroke-opacity:0.1; fill:none" points="2293.46,1423.18 2293.46,47.2441 "/>
<polyline clip-path="url(#clip772)" style="stroke:#000000; stroke-linecap:round; stroke-linejoin:round; stroke-width:2; stroke-opacity:0.1; fill:none" points="257.69,1131.19 2352.76,1131.19 "/>
<polyline clip-path="url(#clip772)" style="stroke:#000000; stroke-linecap:round; stroke-linejoin:round; stroke-width:2; stroke-opacity:0.1; fill:none" points="257.69,781.727 2352.76,781.727 "/>
<polyline clip-path="url(#clip772)" style="stroke:#000000; stroke-linecap:round; stroke-linejoin:round; stroke-width:2; stroke-opacity:0.1; fill:none" points="257.69,432.267 2352.76,432.267 "/>
<polyline clip-path="url(#clip772)" style="stroke:#000000; stroke-linecap:round; stroke-linejoin:round; stroke-width:2; stroke-opacity:0.1; fill:none" points="257.69,82.8072 2352.76,82.8072 "/>
<polyline clip-path="url(#clip770)" style="stroke:#000000; stroke-linecap:round; stroke-linejoin:round; stroke-width:4; stroke-opacity:1; fill:none" points="257.69,1423.18 2352.76,1423.18 "/>
<polyline clip-path="url(#clip770)" style="stroke:#000000; stroke-linecap:round; stroke-linejoin:round; stroke-width:4; stroke-opacity:1; fill:none" points="316.984,1423.18 316.984,1404.28 "/>
<polyline clip-path="url(#clip770)" style="stroke:#000000; stroke-linecap:round; stroke-linejoin:round; stroke-width:4; stroke-opacity:1; fill:none" points="811.104,1423.18 811.104,1404.28 "/>
<polyline clip-path="url(#clip770)" style="stroke:#000000; stroke-linecap:round; stroke-linejoin:round; stroke-width:4; stroke-opacity:1; fill:none" points="1305.22,1423.18 1305.22,1404.28 "/>
<polyline clip-path="url(#clip770)" style="stroke:#000000; stroke-linecap:round; stroke-linejoin:round; stroke-width:4; stroke-opacity:1; fill:none" points="1799.34,1423.18 1799.34,1404.28 "/>
<polyline clip-path="url(#clip770)" style="stroke:#000000; stroke-linecap:round; stroke-linejoin:round; stroke-width:4; stroke-opacity:1; fill:none" points="2293.46,1423.18 2293.46,1404.28 "/>
<path clip-path="url(#clip770)" d="M279.288 1454.1 Q275.677 1454.1 273.848 1457.66 Q272.043 1461.2 272.043 1468.33 Q272.043 1475.44 273.848 1479.01 Q275.677 1482.55 279.288 1482.55 Q282.922 1482.55 284.728 1479.01 Q286.556 1475.44 286.556 1468.33 Q286.556 1461.2 284.728 1457.66 Q282.922 1454.1 279.288 1454.1 M279.288 1450.39 Q285.098 1450.39 288.154 1455 Q291.232 1459.58 291.232 1468.33 Q291.232 1477.06 288.154 1481.67 Q285.098 1486.25 279.288 1486.25 Q273.478 1486.25 270.399 1481.67 Q267.344 1477.06 267.344 1468.33 Q267.344 1459.58 270.399 1455 Q273.478 1450.39 279.288 1450.39 Z" fill="#000000" fill-rule="nonzero" fill-opacity="1" /><path clip-path="url(#clip770)" d="M299.45 1479.7 L304.334 1479.7 L304.334 1485.58 L299.45 1485.58 L299.45 1479.7 Z" fill="#000000" fill-rule="nonzero" fill-opacity="1" /><path clip-path="url(#clip770)" d="M324.519 1454.1 Q320.908 1454.1 319.079 1457.66 Q317.274 1461.2 317.274 1468.33 Q317.274 1475.44 319.079 1479.01 Q320.908 1482.55 324.519 1482.55 Q328.153 1482.55 329.959 1479.01 Q331.788 1475.44 331.788 1468.33 Q331.788 1461.2 329.959 1457.66 Q328.153 1454.1 324.519 1454.1 M324.519 1450.39 Q330.329 1450.39 333.385 1455 Q336.464 1459.58 336.464 1468.33 Q336.464 1477.06 333.385 1481.67 Q330.329 1486.25 324.519 1486.25 Q318.709 1486.25 315.63 1481.67 Q312.575 1477.06 312.575 1468.33 Q312.575 1459.58 315.63 1455 Q318.709 1450.39 324.519 1450.39 Z" fill="#000000" fill-rule="nonzero" fill-opacity="1" /><path clip-path="url(#clip770)" d="M354.681 1454.1 Q351.07 1454.1 349.241 1457.66 Q347.436 1461.2 347.436 1468.33 Q347.436 1475.44 349.241 1479.01 Q351.07 1482.55 354.681 1482.55 Q358.315 1482.55 360.121 1479.01 Q361.949 1475.44 361.949 1468.33 Q361.949 1461.2 360.121 1457.66 Q358.315 1454.1 354.681 1454.1 M354.681 1450.39 Q360.491 1450.39 363.547 1455 Q366.625 1459.58 366.625 1468.33 Q366.625 1477.06 363.547 1481.67 Q360.491 1486.25 354.681 1486.25 Q348.871 1486.25 345.792 1481.67 Q342.737 1477.06 342.737 1468.33 Q342.737 1459.58 345.792 1455 Q348.871 1450.39 354.681 1450.39 Z" fill="#000000" fill-rule="nonzero" fill-opacity="1" /><path clip-path="url(#clip770)" d="M773.905 1454.1 Q770.294 1454.1 768.465 1457.66 Q766.66 1461.2 766.66 1468.33 Q766.66 1475.44 768.465 1479.01 Q770.294 1482.55 773.905 1482.55 Q777.539 1482.55 779.345 1479.01 Q781.173 1475.44 781.173 1468.33 Q781.173 1461.2 779.345 1457.66 Q777.539 1454.1 773.905 1454.1 M773.905 1450.39 Q779.715 1450.39 782.771 1455 Q785.849 1459.58 785.849 1468.33 Q785.849 1477.06 782.771 1481.67 Q779.715 1486.25 773.905 1486.25 Q768.095 1486.25 765.016 1481.67 Q761.96 1477.06 761.96 1468.33 Q761.96 1459.58 765.016 1455 Q768.095 1450.39 773.905 1450.39 Z" fill="#000000" fill-rule="nonzero" fill-opacity="1" /><path clip-path="url(#clip770)" d="M794.067 1479.7 L798.951 1479.7 L798.951 1485.58 L794.067 1485.58 L794.067 1479.7 Z" fill="#000000" fill-rule="nonzero" fill-opacity="1" /><path clip-path="url(#clip770)" d="M813.164 1481.64 L829.483 1481.64 L829.483 1485.58 L807.539 1485.58 L807.539 1481.64 Q810.201 1478.89 814.784 1474.26 Q819.391 1469.61 820.571 1468.27 Q822.817 1465.74 823.696 1464.01 Q824.599 1462.25 824.599 1460.56 Q824.599 1457.8 822.655 1456.07 Q820.733 1454.33 817.631 1454.33 Q815.432 1454.33 812.979 1455.09 Q810.548 1455.86 807.77 1457.41 L807.77 1452.69 Q810.594 1451.55 813.048 1450.97 Q815.502 1450.39 817.539 1450.39 Q822.909 1450.39 826.104 1453.08 Q829.298 1455.77 829.298 1460.26 Q829.298 1462.39 828.488 1464.31 Q827.701 1466.2 825.594 1468.8 Q825.016 1469.47 821.914 1472.69 Q818.812 1475.88 813.164 1481.64 Z" fill="#000000" fill-rule="nonzero" fill-opacity="1" /><path clip-path="url(#clip770)" d="M839.344 1451.02 L857.701 1451.02 L857.701 1454.96 L843.627 1454.96 L843.627 1463.43 Q844.645 1463.08 845.664 1462.92 Q846.682 1462.73 847.701 1462.73 Q853.488 1462.73 856.867 1465.9 Q860.247 1469.08 860.247 1474.49 Q860.247 1480.07 856.775 1483.17 Q853.303 1486.25 846.983 1486.25 Q844.807 1486.25 842.539 1485.88 Q840.293 1485.51 837.886 1484.77 L837.886 1480.07 Q839.969 1481.2 842.192 1481.76 Q844.414 1482.32 846.891 1482.32 Q850.895 1482.32 853.233 1480.21 Q855.571 1478.1 855.571 1474.49 Q855.571 1470.88 853.233 1468.77 Q850.895 1466.67 846.891 1466.67 Q845.016 1466.67 843.141 1467.08 Q841.289 1467.5 839.344 1468.38 L839.344 1451.02 Z" fill="#000000" fill-rule="nonzero" fill-opacity="1" /><path clip-path="url(#clip770)" d="M1267.53 1454.1 Q1263.92 1454.1 1262.09 1457.66 Q1260.28 1461.2 1260.28 1468.33 Q1260.28 1475.44 1262.09 1479.01 Q1263.92 1482.55 1267.53 1482.55 Q1271.16 1482.55 1272.97 1479.01 Q1274.79 1475.44 1274.79 1468.33 Q1274.79 1461.2 1272.97 1457.66 Q1271.16 1454.1 1267.53 1454.1 M1267.53 1450.39 Q1273.34 1450.39 1276.39 1455 Q1279.47 1459.58 1279.47 1468.33 Q1279.47 1477.06 1276.39 1481.67 Q1273.34 1486.25 1267.53 1486.25 Q1261.72 1486.25 1258.64 1481.67 Q1255.58 1477.06 1255.58 1468.33 Q1255.58 1459.58 1258.64 1455 Q1261.72 1450.39 1267.53 1450.39 Z" fill="#000000" fill-rule="nonzero" fill-opacity="1" /><path clip-path="url(#clip770)" d="M1287.69 1479.7 L1292.57 1479.7 L1292.57 1485.58 L1287.69 1485.58 L1287.69 1479.7 Z" fill="#000000" fill-rule="nonzero" fill-opacity="1" /><path clip-path="url(#clip770)" d="M1302.8 1451.02 L1321.16 1451.02 L1321.16 1454.96 L1307.09 1454.96 L1307.09 1463.43 Q1308.1 1463.08 1309.12 1462.92 Q1310.14 1462.73 1311.16 1462.73 Q1316.95 1462.73 1320.33 1465.9 Q1323.71 1469.08 1323.71 1474.49 Q1323.71 1480.07 1320.23 1483.17 Q1316.76 1486.25 1310.44 1486.25 Q1308.27 1486.25 1306 1485.88 Q1303.75 1485.51 1301.35 1484.77 L1301.35 1480.07 Q1303.43 1481.2 1305.65 1481.76 Q1307.87 1482.32 1310.35 1482.32 Q1314.35 1482.32 1316.69 1480.21 Q1319.03 1478.1 1319.03 1474.49 Q1319.03 1470.88 1316.69 1468.77 Q1314.35 1466.67 1310.35 1466.67 Q1308.48 1466.67 1306.6 1467.08 Q1304.75 1467.5 1302.8 1468.38 L1302.8 1451.02 Z" fill="#000000" fill-rule="nonzero" fill-opacity="1" /><path clip-path="url(#clip770)" d="M1342.92 1454.1 Q1339.31 1454.1 1337.48 1457.66 Q1335.67 1461.2 1335.67 1468.33 Q1335.67 1475.44 1337.48 1479.01 Q1339.31 1482.55 1342.92 1482.55 Q1346.55 1482.55 1348.36 1479.01 Q1350.19 1475.44 1350.19 1468.33 Q1350.19 1461.2 1348.36 1457.66 Q1346.55 1454.1 1342.92 1454.1 M1342.92 1450.39 Q1348.73 1450.39 1351.79 1455 Q1354.86 1459.58 1354.86 1468.33 Q1354.86 1477.06 1351.79 1481.67 Q1348.73 1486.25 1342.92 1486.25 Q1337.11 1486.25 1334.03 1481.67 Q1330.98 1477.06 1330.98 1468.33 Q1330.98 1459.58 1334.03 1455 Q1337.11 1450.39 1342.92 1450.39 Z" fill="#000000" fill-rule="nonzero" fill-opacity="1" /><path clip-path="url(#clip770)" d="M1762.14 1454.1 Q1758.53 1454.1 1756.7 1457.66 Q1754.9 1461.2 1754.9 1468.33 Q1754.9 1475.44 1756.7 1479.01 Q1758.53 1482.55 1762.14 1482.55 Q1765.78 1482.55 1767.58 1479.01 Q1769.41 1475.44 1769.41 1468.33 Q1769.41 1461.2 1767.58 1457.66 Q1765.78 1454.1 1762.14 1454.1 M1762.14 1450.39 Q1767.95 1450.39 1771.01 1455 Q1774.09 1459.58 1774.09 1468.33 Q1774.09 1477.06 1771.01 1481.67 Q1767.95 1486.25 1762.14 1486.25 Q1756.33 1486.25 1753.25 1481.67 Q1750.2 1477.06 1750.2 1468.33 Q1750.2 1459.58 1753.25 1455 Q1756.33 1450.39 1762.14 1450.39 Z" fill="#000000" fill-rule="nonzero" fill-opacity="1" /><path clip-path="url(#clip770)" d="M1782.31 1479.7 L1787.19 1479.7 L1787.19 1485.58 L1782.31 1485.58 L1782.31 1479.7 Z" fill="#000000" fill-rule="nonzero" fill-opacity="1" /><path clip-path="url(#clip770)" d="M1796.19 1451.02 L1818.42 1451.02 L1818.42 1453.01 L1805.87 1485.58 L1800.99 1485.58 L1812.79 1454.96 L1796.19 1454.96 L1796.19 1451.02 Z" fill="#000000" fill-rule="nonzero" fill-opacity="1" /><path clip-path="url(#clip770)" d="M1827.58 1451.02 L1845.94 1451.02 L1845.94 1454.96 L1831.87 1454.96 L1831.87 1463.43 Q1832.88 1463.08 1833.9 1462.92 Q1834.92 1462.73 1835.94 1462.73 Q1841.73 1462.73 1845.11 1465.9 Q1848.49 1469.08 1848.49 1474.49 Q1848.49 1480.07 1845.01 1483.17 Q1841.54 1486.25 1835.22 1486.25 Q1833.05 1486.25 1830.78 1485.88 Q1828.53 1485.51 1826.12 1484.77 L1826.12 1480.07 Q1828.21 1481.2 1830.43 1481.76 Q1832.65 1482.32 1835.13 1482.32 Q1839.13 1482.32 1841.47 1480.21 Q1843.81 1478.1 1843.81 1474.49 Q1843.81 1470.88 1841.47 1468.77 Q1839.13 1466.67 1835.13 1466.67 Q1833.25 1466.67 1831.38 1467.08 Q1829.53 1467.5 1827.58 1468.38 L1827.58 1451.02 Z" fill="#000000" fill-rule="nonzero" fill-opacity="1" /><path clip-path="url(#clip770)" d="M2245.53 1481.64 L2253.17 1481.64 L2253.17 1455.28 L2244.86 1456.95 L2244.86 1452.69 L2253.13 1451.02 L2257.8 1451.02 L2257.8 1481.64 L2265.44 1481.64 L2265.44 1485.58 L2245.53 1485.58 L2245.53 1481.64 Z" fill="#000000" fill-rule="nonzero" fill-opacity="1" /><path clip-path="url(#clip770)" d="M2274.89 1479.7 L2279.77 1479.7 L2279.77 1485.58 L2274.89 1485.58 L2274.89 1479.7 Z" fill="#000000" fill-rule="nonzero" fill-opacity="1" /><path clip-path="url(#clip770)" d="M2299.95 1454.1 Q2296.34 1454.1 2294.51 1457.66 Q2292.71 1461.2 2292.71 1468.33 Q2292.71 1475.44 2294.51 1479.01 Q2296.34 1482.55 2299.95 1482.55 Q2303.59 1482.55 2305.39 1479.01 Q2307.22 1475.44 2307.22 1468.33 Q2307.22 1461.2 2305.39 1457.66 Q2303.59 1454.1 2299.95 1454.1 M2299.95 1450.39 Q2305.76 1450.39 2308.82 1455 Q2311.9 1459.58 2311.9 1468.33 Q2311.9 1477.06 2308.82 1481.67 Q2305.76 1486.25 2299.95 1486.25 Q2294.14 1486.25 2291.07 1481.67 Q2288.01 1477.06 2288.01 1468.33 Q2288.01 1459.58 2291.07 1455 Q2294.14 1450.39 2299.95 1450.39 Z" fill="#000000" fill-rule="nonzero" fill-opacity="1" /><path clip-path="url(#clip770)" d="M2330.12 1454.1 Q2326.51 1454.1 2324.68 1457.66 Q2322.87 1461.2 2322.87 1468.33 Q2322.87 1475.44 2324.68 1479.01 Q2326.51 1482.55 2330.12 1482.55 Q2333.75 1482.55 2335.56 1479.01 Q2337.38 1475.44 2337.38 1468.33 Q2337.38 1461.2 2335.56 1457.66 Q2333.75 1454.1 2330.12 1454.1 M2330.12 1450.39 Q2335.93 1450.39 2338.98 1455 Q2342.06 1459.58 2342.06 1468.33 Q2342.06 1477.06 2338.98 1481.67 Q2335.93 1486.25 2330.12 1486.25 Q2324.31 1486.25 2321.23 1481.67 Q2318.17 1477.06 2318.17 1468.33 Q2318.17 1459.58 2321.23 1455 Q2324.31 1450.39 2330.12 1450.39 Z" fill="#000000" fill-rule="nonzero" fill-opacity="1" /><path clip-path="url(#clip770)" d="M1313.69 1531.91 Q1313.69 1532.81 1313.28 1533.04 Q1312.86 1533.23 1311.7 1533.23 L1305.51 1533.23 L1300.62 1552.69 Q1300.23 1554.39 1300.23 1555.84 Q1300.23 1557.45 1300.72 1558.16 Q1301.23 1558.87 1302.29 1558.87 Q1304.39 1558.87 1306.64 1556.97 Q1308.93 1555.07 1310.86 1550.43 Q1311.12 1549.82 1311.25 1549.69 Q1311.41 1549.53 1311.83 1549.53 Q1312.63 1549.53 1312.63 1550.17 Q1312.63 1550.4 1312.18 1551.43 Q1311.76 1552.46 1310.83 1553.97 Q1309.93 1555.49 1308.73 1556.9 Q1307.57 1558.32 1305.8 1559.35 Q1304.03 1560.35 1302.13 1560.35 Q1299.46 1560.35 1297.75 1558.64 Q1296.08 1556.94 1296.08 1554.26 Q1296.08 1553.39 1296.75 1550.62 Q1297.43 1547.82 1301.1 1533.23 L1295.27 1533.23 Q1294.47 1533.23 1294.15 1533.2 Q1293.86 1533.17 1293.63 1533.01 Q1293.44 1532.81 1293.44 1532.43 Q1293.44 1531.82 1293.69 1531.56 Q1293.95 1531.27 1294.27 1531.24 Q1294.63 1531.17 1295.43 1531.17 L1301.62 1531.17 L1304.19 1520.71 Q1304.45 1519.67 1305.1 1519.09 Q1305.77 1518.48 1306.16 1518.42 Q1306.54 1518.32 1306.83 1518.32 Q1307.7 1518.32 1308.22 1518.81 Q1308.73 1519.26 1308.73 1520.09 Q1308.73 1520.54 1306.03 1531.17 L1311.83 1531.17 Q1312.57 1531.17 1312.86 1531.2 Q1313.18 1531.24 1313.44 1531.4 Q1313.69 1531.56 1313.69 1531.91 Z" fill="#000000" fill-rule="nonzero" fill-opacity="1" /><polyline clip-path="url(#clip770)" style="stroke:#000000; stroke-linecap:round; stroke-linejoin:round; stroke-width:4; stroke-opacity:1; fill:none" points="257.69,1423.18 257.69,47.2441 "/>
<polyline clip-path="url(#clip770)" style="stroke:#000000; stroke-linecap:round; stroke-linejoin:round; stroke-width:4; stroke-opacity:1; fill:none" points="257.69,1131.19 276.588,1131.19 "/>
<polyline clip-path="url(#clip770)" style="stroke:#000000; stroke-linecap:round; stroke-linejoin:round; stroke-width:4; stroke-opacity:1; fill:none" points="257.69,781.727 276.588,781.727 "/>
<polyline clip-path="url(#clip770)" style="stroke:#000000; stroke-linecap:round; stroke-linejoin:round; stroke-width:4; stroke-opacity:1; fill:none" points="257.69,432.267 276.588,432.267 "/>
<polyline clip-path="url(#clip770)" style="stroke:#000000; stroke-linecap:round; stroke-linejoin:round; stroke-width:4; stroke-opacity:1; fill:none" points="257.69,82.8072 276.588,82.8072 "/>
<path clip-path="url(#clip770)" d="M114.26 1131.64 L143.936 1131.64 L143.936 1135.57 L114.26 1135.57 L114.26 1131.64 Z" fill="#000000" fill-rule="nonzero" fill-opacity="1" /><path clip-path="url(#clip770)" d="M164.028 1116.99 Q160.417 1116.99 158.589 1120.55 Q156.783 1124.09 156.783 1131.22 Q156.783 1138.33 158.589 1141.89 Q160.417 1145.43 164.028 1145.43 Q167.663 1145.43 169.468 1141.89 Q171.297 1138.33 171.297 1131.22 Q171.297 1124.09 169.468 1120.55 Q167.663 1116.99 164.028 1116.99 M164.028 1113.28 Q169.839 1113.28 172.894 1117.89 Q175.973 1122.47 175.973 1131.22 Q175.973 1139.95 172.894 1144.56 Q169.839 1149.14 164.028 1149.14 Q158.218 1149.14 155.14 1144.56 Q152.084 1139.95 152.084 1131.22 Q152.084 1122.47 155.14 1117.89 Q158.218 1113.28 164.028 1113.28 Z" fill="#000000" fill-rule="nonzero" fill-opacity="1" /><path clip-path="url(#clip770)" d="M184.19 1142.59 L189.075 1142.59 L189.075 1148.47 L184.19 1148.47 L184.19 1142.59 Z" fill="#000000" fill-rule="nonzero" fill-opacity="1" /><path clip-path="url(#clip770)" d="M212.107 1117.98 L200.301 1136.43 L212.107 1136.43 L212.107 1117.98 M210.88 1113.91 L216.76 1113.91 L216.76 1136.43 L221.69 1136.43 L221.69 1140.32 L216.76 1140.32 L216.76 1148.47 L212.107 1148.47 L212.107 1140.32 L196.505 1140.32 L196.505 1135.81 L210.88 1113.91 Z" fill="#000000" fill-rule="nonzero" fill-opacity="1" /><path clip-path="url(#clip770)" d="M116.343 782.179 L146.019 782.179 L146.019 786.114 L116.343 786.114 L116.343 782.179 Z" fill="#000000" fill-rule="nonzero" fill-opacity="1" /><path clip-path="url(#clip770)" d="M166.112 767.526 Q162.501 767.526 160.672 771.091 Q158.866 774.632 158.866 781.762 Q158.866 788.868 160.672 792.433 Q162.501 795.975 166.112 795.975 Q169.746 795.975 171.552 792.433 Q173.38 788.868 173.38 781.762 Q173.38 774.632 171.552 771.091 Q169.746 767.526 166.112 767.526 M166.112 763.822 Q171.922 763.822 174.977 768.429 Q178.056 773.012 178.056 781.762 Q178.056 790.489 174.977 795.095 Q171.922 799.678 166.112 799.678 Q160.302 799.678 157.223 795.095 Q154.167 790.489 154.167 781.762 Q154.167 773.012 157.223 768.429 Q160.302 763.822 166.112 763.822 Z" fill="#000000" fill-rule="nonzero" fill-opacity="1" /><path clip-path="url(#clip770)" d="M186.274 793.128 L191.158 793.128 L191.158 799.007 L186.274 799.007 L186.274 793.128 Z" fill="#000000" fill-rule="nonzero" fill-opacity="1" /><path clip-path="url(#clip770)" d="M205.371 795.072 L221.69 795.072 L221.69 799.007 L199.746 799.007 L199.746 795.072 Q202.408 792.317 206.991 787.688 Q211.598 783.035 212.778 781.692 Q215.024 779.169 215.903 777.433 Q216.806 775.674 216.806 773.984 Q216.806 771.23 214.861 769.493 Q212.94 767.757 209.838 767.757 Q207.639 767.757 205.186 768.521 Q202.755 769.285 199.977 770.836 L199.977 766.114 Q202.801 764.98 205.255 764.401 Q207.709 763.822 209.746 763.822 Q215.116 763.822 218.311 766.507 Q221.505 769.192 221.505 773.683 Q221.505 775.813 220.695 777.734 Q219.908 779.632 217.801 782.225 Q217.223 782.896 214.121 786.114 Q211.019 789.308 205.371 795.072 Z" fill="#000000" fill-rule="nonzero" fill-opacity="1" /><path clip-path="url(#clip770)" d="M164.515 418.066 Q160.903 418.066 159.075 421.631 Q157.269 425.172 157.269 432.302 Q157.269 439.408 159.075 442.973 Q160.903 446.515 164.515 446.515 Q168.149 446.515 169.954 442.973 Q171.783 439.408 171.783 432.302 Q171.783 425.172 169.954 421.631 Q168.149 418.066 164.515 418.066 M164.515 414.362 Q170.325 414.362 173.38 418.969 Q176.459 423.552 176.459 432.302 Q176.459 441.029 173.38 445.635 Q170.325 450.218 164.515 450.218 Q158.704 450.218 155.626 445.635 Q152.57 441.029 152.57 432.302 Q152.57 423.552 155.626 418.969 Q158.704 414.362 164.515 414.362 Z" fill="#000000" fill-rule="nonzero" fill-opacity="1" /><path clip-path="url(#clip770)" d="M184.676 443.668 L189.561 443.668 L189.561 449.547 L184.676 449.547 L184.676 443.668 Z" fill="#000000" fill-rule="nonzero" fill-opacity="1" /><path clip-path="url(#clip770)" d="M209.746 418.066 Q206.135 418.066 204.306 421.631 Q202.5 425.172 202.5 432.302 Q202.5 439.408 204.306 442.973 Q206.135 446.515 209.746 446.515 Q213.38 446.515 215.186 442.973 Q217.014 439.408 217.014 432.302 Q217.014 425.172 215.186 421.631 Q213.38 418.066 209.746 418.066 M209.746 414.362 Q215.556 414.362 218.611 418.969 Q221.69 423.552 221.69 432.302 Q221.69 441.029 218.611 445.635 Q215.556 450.218 209.746 450.218 Q203.936 450.218 200.857 445.635 Q197.801 441.029 197.801 432.302 Q197.801 423.552 200.857 418.969 Q203.936 414.362 209.746 414.362 Z" fill="#000000" fill-rule="nonzero" fill-opacity="1" /><path clip-path="url(#clip770)" d="M166.112 68.6059 Q162.501 68.6059 160.672 72.1707 Q158.866 75.7123 158.866 82.8419 Q158.866 89.9484 160.672 93.5132 Q162.501 97.0548 166.112 97.0548 Q169.746 97.0548 171.552 93.5132 Q173.38 89.9484 173.38 82.8419 Q173.38 75.7123 171.552 72.1707 Q169.746 68.6059 166.112 68.6059 M166.112 64.9022 Q171.922 64.9022 174.977 69.5087 Q178.056 74.092 178.056 82.8419 Q178.056 91.5687 174.977 96.1752 Q171.922 100.758 166.112 100.758 Q160.302 100.758 157.223 96.1752 Q154.167 91.5687 154.167 82.8419 Q154.167 74.092 157.223 69.5087 Q160.302 64.9022 166.112 64.9022 Z" fill="#000000" fill-rule="nonzero" fill-opacity="1" /><path clip-path="url(#clip770)" d="M186.274 94.2076 L191.158 94.2076 L191.158 100.087 L186.274 100.087 L186.274 94.2076 Z" fill="#000000" fill-rule="nonzero" fill-opacity="1" /><path clip-path="url(#clip770)" d="M205.371 96.152 L221.69 96.152 L221.69 100.087 L199.746 100.087 L199.746 96.152 Q202.408 93.3974 206.991 88.7678 Q211.598 84.1151 212.778 82.7725 Q215.024 80.2493 215.903 78.5132 Q216.806 76.754 216.806 75.0642 Q216.806 72.3096 214.861 70.5735 Q212.94 68.8374 209.838 68.8374 Q207.639 68.8374 205.186 69.6012 Q202.755 70.3651 199.977 71.916 L199.977 67.1938 Q202.801 66.0596 205.255 65.4809 Q207.709 64.9022 209.746 64.9022 Q215.116 64.9022 218.311 67.5874 Q221.505 70.2725 221.505 74.7633 Q221.505 76.8929 220.695 78.8142 Q219.908 80.7123 217.801 83.3049 Q217.223 83.9762 214.121 87.1937 Q211.019 90.3882 205.371 96.152 Z" fill="#000000" fill-rule="nonzero" fill-opacity="1" /><path clip-path="url(#clip770)" d="M30.8561 720.775 Q31.307 720.775 32.3698 721.064 L57.5548 727.377 Q63.1586 728.762 67.0877 733.27 Q71.0168 737.747 71.0168 742.836 Q71.0168 745.895 69.3743 747.86 Q67.764 749.824 65.2842 749.824 Q63.0942 749.824 62.0314 748.665 Q61.0008 747.505 61.0008 746.121 Q61.0008 745.67 61.1296 745.187 Q61.2584 744.703 61.8059 744.188 Q62.3534 743.673 63.2874 743.673 Q64.8011 743.673 65.9927 744.993 Q66.5402 745.637 66.669 746.249 Q66.7978 746.829 66.7978 747.827 Q67.6996 747.441 68.3115 746.732 Q68.9234 746.024 69.1489 745.219 Q69.4065 744.414 69.4709 743.898 Q69.5675 743.351 69.5675 742.836 Q69.5675 738.713 65.413 735.557 Q64.157 734.623 62.9009 733.947 Q61.6771 733.238 60.1634 732.723 Q58.682 732.208 57.8768 731.982 Q57.0717 731.725 55.2359 731.274 Q58.2311 734.269 58.2311 737.94 Q58.2311 739.486 57.8124 740.871 Q57.3937 742.224 56.5242 743.415 Q55.6224 744.607 54.0443 745.315 Q52.4662 745.992 50.3728 745.992 Q48.1506 745.992 45.1233 745.122 Q42.0959 744.253 36.5243 742.159 Q33.4004 741.032 31.8867 741.032 Q31.146 741.032 30.6951 741.193 Q30.212 741.354 30.051 741.676 Q29.8577 741.998 29.8255 742.191 Q29.7933 742.352 29.7933 742.675 Q29.7933 744.575 31.7257 746.346 Q33.658 748.117 37.9736 749.341 Q38.7787 749.599 38.972 749.76 Q39.1652 749.921 39.1652 750.404 Q39.133 751.209 38.4889 751.209 Q38.2312 751.209 37.2329 750.919 Q36.2023 750.629 34.6886 749.953 Q33.1427 749.245 31.7579 748.278 Q30.3408 747.312 29.3424 745.798 Q28.344 744.253 28.344 742.481 Q28.344 740.066 29.9221 738.584 Q31.468 737.071 33.7546 737.071 Q34.6886 737.071 35.5259 737.328 Q36.3311 737.554 38.4889 738.391 Q47.1845 741.773 51.4356 741.773 Q52.4662 741.773 53.3358 741.612 Q54.1731 741.418 55.0105 741 Q55.8156 740.581 56.2987 739.744 Q56.7496 738.874 56.7496 737.683 Q56.7496 736.169 56.0411 734.752 Q55.3003 733.303 54.302 732.401 Q53.3036 731.467 52.4662 730.919 Q51.5967 730.34 51.1458 730.211 L39.294 727.248 L34.0123 725.927 Q31.146 725.316 30.4374 725.026 Q29.7611 724.639 29.4068 723.963 Q29.0526 723.287 29.0526 722.707 Q29.0526 721.902 29.5357 721.354 Q30.0187 720.775 30.8561 720.775 Z" fill="#000000" fill-rule="nonzero" fill-opacity="1" /><polyline clip-path="url(#clip772)" style="stroke:#ff7e0d; stroke-linecap:round; stroke-linejoin:round; stroke-width:8; stroke-opacity:1; fill:none" stroke-dasharray="32, 20" points="316.984,432.267 320.845,442.524 324.705,383.806 328.565,351.003 332.426,395.216 336.286,286.862 340.146,421.951 344.007,421.667 347.867,300.675 351.727,401.58 355.588,419.767 359.448,478.181 363.308,477.004 367.168,404.169 371.029,490.529 374.889,422.678 378.749,394.54 382.61,331.87 386.47,289.631 390.33,263.99 394.191,323.166 398.051,256.246 401.911,223.259 405.772,144.502 409.632,86.1857 413.492,180.532 417.352,228.692 421.213,192.346 425.073,257.382 428.933,215.557 432.794,349.013 436.654,537.216 440.514,571.835 444.375,625.17 448.235,669.578 452.095,573.725 455.956,584.841 459.816,610.498 463.676,609.447 467.536,676.907 471.397,703.59 475.257,649.427 479.117,690.571 482.978,640.321 486.838,701.977 490.698,660.645 494.559,688.226 498.419,593.818 502.279,569.103 506.139,632.324 510,622.027 513.86,634.122 517.72,551.708 521.581,511.487 525.441,537.213 529.301,591.831 533.162,602.678 537.022,661.393 540.882,705.529 544.743,685.738 548.603,588.763 552.463,566.314 556.323,578.098 560.184,633.585 564.044,798.03 567.904,688.159 571.765,574.484 575.625,605.632 579.485,568.687 583.346,559.675 587.206,555.001 591.066,527.778 594.927,443.276 598.787,559.526 602.647,536.549 606.507,620.541 610.368,697.864 614.228,721.701 618.088,798.723 621.949,798.577 625.809,940.106 629.669,934.367 633.53,993.012 637.39,912.55 641.25,722.927 645.111,575.333 648.971,618.79 652.831,563.698 656.691,649.802 660.552,680.851 664.412,581.434 668.272,493.062 672.133,455.987 675.993,435.43 679.853,462.729 683.714,403.575 687.574,406.395 691.434,382.237 695.295,329.509 699.155,291.579 703.015,371.127 706.875,521.835 710.736,510.882 714.596,690.011 718.456,687.63 722.317,730.938 726.177,546.194 730.037,447.93 733.898,467.575 737.758,427.637 741.618,465.738 745.479,554.755 749.339,519.275 753.199,601.81 757.059,659.352 760.92,766.629 764.78,710.112 768.64,666.303 772.501,660.962 776.361,775.357 780.221,958.54 784.082,1050.89 787.942,826.212 791.802,906.347 795.663,927.442 799.523,813.548 803.383,765.923 807.243,726.278 811.104,695.671 814.964,715.198 818.824,619.73 822.685,563.216 826.545,635.828 830.405,589.063 834.266,680.015 838.126,646.355 841.986,761.116 845.846,742.916 849.707,789.663 853.567,834.68 857.427,723.896 861.288,736.834 865.148,740.953 869.008,887.746 872.869,836.908 876.729,718.604 880.589,729.993 884.45,908.55 888.31,961.749 892.17,924.245 896.03,855.959 899.891,853.783 903.751,743.549 907.611,790.934 911.472,739.058 915.332,766.483 919.192,765.043 923.053,859.698 926.913,819.394 930.773,956.055 934.634,881.713 938.494,871.586 942.354,675.888 946.214,596.767 950.075,551.314 953.935,550.961 957.795,644.535 961.656,692.806 965.516,787.785 969.376,758.262 973.237,701.608 977.097,661.16 980.957,783.746 984.818,843.926 988.678,981.457 992.538,1041.93 996.398,1061.83 1000.26,1002.57 1004.12,988.692 1007.98,1097.21 1011.84,1165.87 1015.7,1081.54 1019.56,1028.53 1023.42,1117.32 1027.28,1037.49 1031.14,1222.74 1035,1240.43 1038.86,1163.89 1042.72,1079.54 1046.58,1105.93 1050.44,1134.16 1054.3,976.83 1058.16,969.852 1062.02,1062.09 1065.88,1026.64 1069.74,1023.35 1073.6,968.321 1077.46,923.748 1081.33,950.651 1085.19,947.991 1089.05,912.81 1092.91,763.846 1096.77,807.827 1100.63,886.183 1104.49,821.343 1108.35,707.151 1112.21,814.44 1116.07,682.616 1119.93,641.331 1123.79,729.762 1127.65,768.299 1131.51,916.276 1135.37,722.093 1139.23,805.134 1143.09,811.98 1146.95,921.935 1150.81,839.316 1154.67,867.09 1158.53,1017.6 1162.39,931.514 1166.25,1094.73 1170.11,936.261 1173.97,952.783 1177.83,1060.08 1181.69,1078.64 1185.55,1177.19 1189.41,1151.09 1193.27,1006.33 1197.13,1151.72 1200.99,1214.6 1204.86,1234.23 1208.72,1169.37 1212.58,1131.26 1216.44,1095.74 1220.3,1121.25 1224.16,1089.89 1228.02,1147.23 1231.88,1041.97 1235.74,988.541 1239.6,1013.65 1243.46,1038.98 1247.32,981.076 1251.18,1060.36 1255.04,1072.88 1258.9,1126.05 1262.76,1125.74 1266.62,1161.19 1270.48,1114.04 1274.34,1161.05 1278.2,1183.57 1282.06,1055.07 1285.92,1063.28 1289.78,975.92 1293.64,950.886 1297.5,1088.48 1301.36,1009.49 1305.22,1003.89 1309.08,1092.84 1312.94,1007.83 1316.8,1018.93 1320.66,1075.03 1324.52,1004.87 1328.38,911.985 1332.25,932.474 1336.11,952.113 1339.97,889.165 1343.83,950.383 1347.69,1073.31 1351.55,971.079 1355.41,943.734 1359.27,1007.92 1363.13,1046.05 1366.99,1094.95 1370.85,1092.36 1374.71,1022.31 1378.57,966.923 1382.43,984.401 1386.29,974.009 1390.15,917.586 1394.01,864.808 1397.87,962.213 1401.73,948.752 1405.59,871.722 1409.45,924.414 1413.31,905.435 1417.17,1023.54 1421.03,1064.31 1424.89,1058.7 1428.75,975.614 1432.61,999.227 1436.47,968.13 1440.33,929.697 1444.19,912.36 1448.05,846.728 1451.91,691.526 1455.77,810.39 1459.64,840.11 1463.5,746.104 1467.36,936.488 1471.22,979.031 1475.08,1059.73 1478.94,1095.57 1482.8,981.26 1486.66,1083.44 1490.52,1125.74 1494.38,1082.58 1498.24,1204.96 1502.1,1122.95 1505.96,1192.22 1509.82,1215.03 1513.68,1263.79 1517.54,1285.29 1521.4,1384.24 1525.26,1377.36 1529.12,1343.07 1532.98,1237.38 1536.84,1194.27 1540.7,1104.62 1544.56,1089.39 1548.42,1051.88 1552.28,1029.37 1556.14,984.832 1560,946.79 1563.86,1099.8 1567.72,1036.09 1571.58,979.628 1575.44,994.074 1579.3,953.688 1583.17,822.332 1587.03,833.886 1590.89,845.797 1594.75,890.532 1598.61,810.919 1602.47,720.683 1606.33,623.786 1610.19,527.142 1614.05,529.935 1617.91,556.573 1621.77,324.9 1625.63,408.113 1629.49,332.706 1633.35,370.028 1637.21,369.979 1641.07,307.841 1644.93,195.19 1648.79,232.405 1652.65,291.881 1656.51,369.337 1660.37,253.784 1664.23,331.407 1668.09,346.55 1671.95,356.671 1675.81,385.29 1679.67,479.489 1683.53,380.45 1687.39,386.372 1691.25,259.363 1695.11,416.055 1698.97,380.543 1702.83,465.199 1706.69,441.168 1710.56,434.809 1714.42,414.964 1718.28,467.367 1722.14,315.669 1726,383.258 1729.86,305.924 1733.72,190.396 1737.58,104.368 1741.44,170.456 1745.3,216.869 1749.16,210.016 1753.02,309.792 1756.88,285.405 1760.74,299.497 1764.6,274.195 1768.46,194.874 1772.32,318.199 1776.18,372.295 1780.04,316.744 1783.9,359.867 1787.76,495.16 1791.62,500.38 1795.48,528.225 1799.34,563.331 1803.2,501.645 1807.06,447.901 1810.92,342.797 1814.78,341.41 1818.64,422.417 1822.5,421.574 1826.36,426.064 1830.22,491.094 1834.09,529.899 1837.95,561.496 1841.81,695.475 1845.67,736.521 1849.53,788.791 1853.39,657.731 1857.25,577.291 1861.11,556.04 1864.97,340.31 1868.83,372.648 1872.69,417.918 1876.55,409.325 1880.41,453.803 1884.27,481.854 1888.13,479.703 1891.99,518.478 1895.85,483.676 1899.71,485.993 1903.57,535.333 1907.43,534.364 1911.29,508.096 1915.15,460.288 1919.01,338.027 1922.87,323.218 1926.73,414.575 1930.59,478.81 1934.45,389.87 1938.31,245.624 1942.17,351.92 1946.03,446.576 1949.89,467.408 1953.75,508.838 1957.61,648.296 1961.48,784.236 1965.34,839.384 1969.2,799.585 1973.06,652.187 1976.92,572.624 1980.78,504.204 1984.64,583.306 1988.5,506.022 1992.36,563.235 1996.22,602.059 2000.08,808.457 2003.94,931.035 2007.8,853.155 2011.66,692.503 2015.52,644.365 2019.38,579.935 2023.24,516.169 2027.1,652.434 2030.96,810.407 2034.82,730.475 2038.68,630.27 2042.54,570.307 2046.4,605.204 2050.26,735.585 2054.12,792.435 2057.98,647.159 2061.84,841.874 2065.7,781.087 2069.56,843.049 2073.42,829.169 2077.28,790.673 2081.14,745.094 2085.01,817.497 2088.87,774.7 2092.73,786.533 2096.59,820.386 2100.45,783.774 2104.31,781.327 2108.17,730.979 2112.03,699.433 2115.89,676.131 2119.75,655.043 2123.61,596.002 2127.47,557.766 2131.33,561.088 2135.19,616.639 2139.05,653.027 2142.91,614.705 2146.77,657.107 2150.63,592.009 2154.49,576.07 2158.35,483.363 2162.21,660.235 2166.07,627.478 2169.93,639.871 2173.79,687.833 2177.65,635.287 2181.51,600.625 2185.37,642.601 2189.23,588.016 2193.09,662.618 2196.95,573.777 2200.81,573.495 2204.67,607.823 2208.53,565.067 2212.4,684.408 2216.26,730.4 2220.12,743.571 2223.98,688.727 2227.84,685.695 2231.7,639.168 2235.56,760.699 2239.42,565.212 2243.28,557.986 2247.14,531.715 2251,554.696 2254.86,352.567 2258.72,460.669 2262.58,345.527 2266.44,444.764 2270.3,484.991 2274.16,475.323 2278.02,480.772 2281.88,492.78 2285.74,590.278 2289.6,664.65 2293.46,596.602 "/>
<path clip-path="url(#clip770)" d="M1769.48 1377.32 L2282.92 1377.32 L2282.92 1273.64 L1769.48 1273.64  Z" fill="#ffffff" fill-rule="evenodd" fill-opacity="1"/>
<polyline clip-path="url(#clip770)" style="stroke:#000000; stroke-linecap:round; stroke-linejoin:round; stroke-width:4; stroke-opacity:1; fill:none" points="1769.48,1377.32 2282.92,1377.32 2282.92,1273.64 1769.48,1273.64 1769.48,1377.32 "/>
<polyline clip-path="url(#clip770)" style="stroke:#ff7e0d; stroke-linecap:round; stroke-linejoin:round; stroke-width:8; stroke-opacity:1; fill:none" stroke-dasharray="32, 20" points="1792.76,1325.48 1932.43,1325.48 "/>
<path clip-path="url(#clip770)" d="M1955.71 1308.2 L1960.43 1308.2 L1967.7 1337.41 L1974.94 1308.2 L1980.2 1308.2 L1987.47 1337.41 L1994.71 1308.2 L1999.46 1308.2 L1990.78 1342.76 L1984.9 1342.76 L1977.61 1312.76 L1970.25 1342.76 L1964.37 1342.76 L1955.71 1308.2 Z" fill="#000000" fill-rule="nonzero" fill-opacity="1" /><path clip-path="url(#clip770)" d="M2004.43 1316.83 L2008.69 1316.83 L2008.69 1342.76 L2004.43 1342.76 L2004.43 1316.83 M2004.43 1306.74 L2008.69 1306.74 L2008.69 1312.13 L2004.43 1312.13 L2004.43 1306.74 Z" fill="#000000" fill-rule="nonzero" fill-opacity="1" /><path clip-path="url(#clip770)" d="M2039.78 1328.73 L2039.78 1330.81 L2020.2 1330.81 Q2020.48 1335.21 2022.84 1337.52 Q2025.22 1339.82 2029.46 1339.82 Q2031.91 1339.82 2034.2 1339.21 Q2036.52 1338.61 2038.79 1337.41 L2038.79 1341.44 Q2036.49 1342.41 2034.09 1342.92 Q2031.68 1343.43 2029.2 1343.43 Q2023 1343.43 2019.37 1339.82 Q2015.75 1336.2 2015.75 1330.05 Q2015.75 1323.68 2019.18 1319.95 Q2022.63 1316.2 2028.46 1316.2 Q2033.69 1316.2 2036.73 1319.58 Q2039.78 1322.94 2039.78 1328.73 M2035.52 1327.48 Q2035.48 1323.98 2033.56 1321.9 Q2031.66 1319.82 2028.51 1319.82 Q2024.94 1319.82 2022.79 1321.83 Q2020.66 1323.84 2020.34 1327.5 L2035.52 1327.48 Z" fill="#000000" fill-rule="nonzero" fill-opacity="1" /><path clip-path="url(#clip770)" d="M2068.32 1327.11 L2068.32 1342.76 L2064.06 1342.76 L2064.06 1327.25 Q2064.06 1323.57 2062.63 1321.74 Q2061.19 1319.91 2058.32 1319.91 Q2054.87 1319.91 2052.88 1322.11 Q2050.89 1324.31 2050.89 1328.1 L2050.89 1342.76 L2046.61 1342.76 L2046.61 1316.83 L2050.89 1316.83 L2050.89 1320.86 Q2052.42 1318.52 2054.48 1317.36 Q2056.56 1316.2 2059.27 1316.2 Q2063.74 1316.2 2066.03 1318.98 Q2068.32 1321.74 2068.32 1327.11 Z" fill="#000000" fill-rule="nonzero" fill-opacity="1" /><path clip-path="url(#clip770)" d="M2098.99 1328.73 L2098.99 1330.81 L2079.41 1330.81 Q2079.69 1335.21 2082.05 1337.52 Q2084.43 1339.82 2088.67 1339.82 Q2091.12 1339.82 2093.42 1339.21 Q2095.73 1338.61 2098 1337.41 L2098 1341.44 Q2095.71 1342.41 2093.3 1342.92 Q2090.89 1343.43 2088.42 1343.43 Q2082.21 1343.43 2078.58 1339.82 Q2074.97 1336.2 2074.97 1330.05 Q2074.97 1323.68 2078.39 1319.95 Q2081.84 1316.2 2087.68 1316.2 Q2092.91 1316.2 2095.94 1319.58 Q2098.99 1322.94 2098.99 1328.73 M2094.74 1327.48 Q2094.69 1323.98 2092.77 1321.9 Q2090.87 1319.82 2087.72 1319.82 Q2084.16 1319.82 2082 1321.83 Q2079.87 1323.84 2079.55 1327.5 L2094.74 1327.48 Z" fill="#000000" fill-rule="nonzero" fill-opacity="1" /><path clip-path="url(#clip770)" d="M2121.01 1320.81 Q2120.29 1320.39 2119.43 1320.21 Q2118.6 1320 2117.58 1320 Q2113.97 1320 2112.03 1322.36 Q2110.11 1324.7 2110.11 1329.1 L2110.11 1342.76 L2105.82 1342.76 L2105.82 1316.83 L2110.11 1316.83 L2110.11 1320.86 Q2111.45 1318.5 2113.6 1317.36 Q2115.75 1316.2 2118.83 1316.2 Q2119.27 1316.2 2119.8 1316.27 Q2120.34 1316.32 2120.99 1316.44 L2121.01 1320.81 Z" fill="#000000" fill-rule="nonzero" fill-opacity="1" /><path clip-path="url(#clip770)" d="M2162.1 1327.11 L2162.1 1342.76 L2157.84 1342.76 L2157.84 1327.25 Q2157.84 1323.57 2156.4 1321.74 Q2154.97 1319.91 2152.1 1319.91 Q2148.65 1319.91 2146.66 1322.11 Q2144.67 1324.31 2144.67 1328.1 L2144.67 1342.76 L2140.38 1342.76 L2140.38 1316.83 L2144.67 1316.83 L2144.67 1320.86 Q2146.19 1318.52 2148.25 1317.36 Q2150.34 1316.2 2153.05 1316.2 Q2157.51 1316.2 2159.8 1318.98 Q2162.1 1321.74 2162.1 1327.11 Z" fill="#000000" fill-rule="nonzero" fill-opacity="1" /><path clip-path="url(#clip770)" d="M2180.64 1319.82 Q2177.21 1319.82 2175.22 1322.5 Q2173.23 1325.16 2173.23 1329.82 Q2173.23 1334.47 2175.2 1337.15 Q2177.19 1339.82 2180.64 1339.82 Q2184.04 1339.82 2186.03 1337.13 Q2188.02 1334.45 2188.02 1329.82 Q2188.02 1325.21 2186.03 1322.52 Q2184.04 1319.82 2180.64 1319.82 M2180.64 1316.2 Q2186.19 1316.2 2189.36 1319.82 Q2192.54 1323.43 2192.54 1329.82 Q2192.54 1336.18 2189.36 1339.82 Q2186.19 1343.43 2180.64 1343.43 Q2175.06 1343.43 2171.89 1339.82 Q2168.74 1336.18 2168.74 1329.82 Q2168.74 1323.43 2171.89 1319.82 Q2175.06 1316.2 2180.64 1316.2 Z" fill="#000000" fill-rule="nonzero" fill-opacity="1" /><path clip-path="url(#clip770)" d="M2199.6 1316.83 L2203.86 1316.83 L2203.86 1342.76 L2199.6 1342.76 L2199.6 1316.83 M2199.6 1306.74 L2203.86 1306.74 L2203.86 1312.13 L2199.6 1312.13 L2199.6 1306.74 Z" fill="#000000" fill-rule="nonzero" fill-opacity="1" /><path clip-path="url(#clip770)" d="M2229.29 1317.59 L2229.29 1321.62 Q2227.49 1320.7 2225.54 1320.23 Q2223.6 1319.77 2221.52 1319.77 Q2218.35 1319.77 2216.75 1320.74 Q2215.17 1321.71 2215.17 1323.66 Q2215.17 1325.14 2216.31 1326 Q2217.44 1326.83 2220.87 1327.59 L2222.33 1327.92 Q2226.86 1328.89 2228.76 1330.67 Q2230.68 1332.43 2230.68 1335.6 Q2230.68 1339.21 2227.81 1341.32 Q2224.97 1343.43 2219.97 1343.43 Q2217.88 1343.43 2215.61 1343.01 Q2213.37 1342.62 2210.87 1341.81 L2210.87 1337.41 Q2213.23 1338.63 2215.52 1339.26 Q2217.81 1339.86 2220.06 1339.86 Q2223.07 1339.86 2224.69 1338.84 Q2226.31 1337.8 2226.31 1335.93 Q2226.31 1334.19 2225.13 1333.26 Q2223.97 1332.34 2220.01 1331.48 L2218.53 1331.14 Q2214.57 1330.3 2212.81 1328.59 Q2211.05 1326.85 2211.05 1323.84 Q2211.05 1320.19 2213.65 1318.2 Q2216.24 1316.2 2221.01 1316.2 Q2223.37 1316.2 2225.45 1316.55 Q2227.54 1316.9 2229.29 1317.59 Z" fill="#000000" fill-rule="nonzero" fill-opacity="1" /><path clip-path="url(#clip770)" d="M2259.64 1328.73 L2259.64 1330.81 L2240.06 1330.81 Q2240.34 1335.21 2242.7 1337.52 Q2245.08 1339.82 2249.32 1339.82 Q2251.77 1339.82 2254.06 1339.21 Q2256.38 1338.61 2258.65 1337.41 L2258.65 1341.44 Q2256.35 1342.41 2253.95 1342.92 Q2251.54 1343.43 2249.06 1343.43 Q2242.86 1343.43 2239.23 1339.82 Q2235.61 1336.2 2235.61 1330.05 Q2235.61 1323.68 2239.04 1319.95 Q2242.49 1316.2 2248.32 1316.2 Q2253.55 1316.2 2256.59 1319.58 Q2259.64 1322.94 2259.64 1328.73 M2255.38 1327.48 Q2255.34 1323.98 2253.42 1321.9 Q2251.52 1319.82 2248.37 1319.82 Q2244.8 1319.82 2242.65 1321.83 Q2240.52 1323.84 2240.2 1327.5 L2255.38 1327.48 Z" fill="#000000" fill-rule="nonzero" fill-opacity="1" /></svg>
