<?xml version="1.0" encoding="utf-8"?>
<svg xmlns="http://www.w3.org/2000/svg" xmlns:xlink="http://www.w3.org/1999/xlink" width="600" height="400" viewBox="0 0 2400 1600">
<defs>
  <clipPath id="clip660">
    <rect x="0" y="0" width="2400" height="1600"/>
  </clipPath>
</defs>
<path clip-path="url(#clip660)" d="M0 1600 L2400 1600 L2400 0 L0 0  Z" fill="#ffffff" fill-rule="evenodd" fill-opacity="1"/>
<defs>
  <clipPath id="clip661">
    <rect x="480" y="0" width="1681" height="1600"/>
  </clipPath>
</defs>
<path clip-path="url(#clip660)" d="M252.764 1410.9 L2352.76 1410.9 L2352.76 47.2441 L252.764 47.2441  Z" fill="#ffffff" fill-rule="evenodd" fill-opacity="1"/>
<defs>
  <clipPath id="clip662">
    <rect x="252" y="47" width="2101" height="1365"/>
  </clipPath>
</defs>
<polyline clip-path="url(#clip662)" style="stroke:#000000; stroke-linecap:round; stroke-linejoin:round; stroke-width:2; stroke-opacity:0.1; fill:none" points="453.311,1410.9 453.311,47.2441 "/>
<polyline clip-path="url(#clip662)" style="stroke:#000000; stroke-linecap:round; stroke-linejoin:round; stroke-width:2; stroke-opacity:0.1; fill:none" points="1111.43,1410.9 1111.43,47.2441 "/>
<polyline clip-path="url(#clip662)" style="stroke:#000000; stroke-linecap:round; stroke-linejoin:round; stroke-width:2; stroke-opacity:0.1; fill:none" points="1769.54,1410.9 1769.54,47.2441 "/>
<polyline clip-path="url(#clip660)" style="stroke:#000000; stroke-linecap:round; stroke-linejoin:round; stroke-width:4; stroke-opacity:1; fill:none" points="252.764,1410.9 2352.76,1410.9 "/>
<polyline clip-path="url(#clip660)" style="stroke:#000000; stroke-linecap:round; stroke-linejoin:round; stroke-width:4; stroke-opacity:1; fill:none" points="453.311,1410.9 453.311,1392 "/>
<polyline clip-path="url(#clip660)" style="stroke:#000000; stroke-linecap:round; stroke-linejoin:round; stroke-width:4; stroke-opacity:1; fill:none" points="1111.43,1410.9 1111.43,1392 "/>
<polyline clip-path="url(#clip660)" style="stroke:#000000; stroke-linecap:round; stroke-linejoin:round; stroke-width:4; stroke-opacity:1; fill:none" points="1769.54,1410.9 1769.54,1392 "/>
<path clip-path="url(#clip660)" d="M402.73 1485.02 L410.369 1485.02 L410.369 1458.66 L402.059 1460.32 L402.059 1456.06 L410.323 1454.4 L414.999 1454.4 L414.999 1485.02 L422.637 1485.02 L422.637 1488.96 L402.73 1488.96 L402.73 1485.02 Z" fill="#000000" fill-rule="nonzero" fill-opacity="1" /><path clip-path="url(#clip660)" d="M442.082 1457.48 Q438.471 1457.48 436.642 1461.04 Q434.836 1464.58 434.836 1471.71 Q434.836 1478.82 436.642 1482.38 Q438.471 1485.92 442.082 1485.92 Q445.716 1485.92 447.522 1482.38 Q449.35 1478.82 449.35 1471.71 Q449.35 1464.58 447.522 1461.04 Q445.716 1457.48 442.082 1457.48 M442.082 1453.77 Q447.892 1453.77 450.947 1458.38 Q454.026 1462.96 454.026 1471.71 Q454.026 1480.44 450.947 1485.04 Q447.892 1489.63 442.082 1489.63 Q436.272 1489.63 433.193 1485.04 Q430.137 1480.44 430.137 1471.71 Q430.137 1462.96 433.193 1458.38 Q436.272 1453.77 442.082 1453.77 Z" fill="#000000" fill-rule="nonzero" fill-opacity="1" /><path clip-path="url(#clip660)" d="M454.026 1447.87 L478.138 1447.87 L478.138 1451.07 L454.026 1451.07 L454.026 1447.87 Z" fill="#000000" fill-rule="nonzero" fill-opacity="1" /><path clip-path="url(#clip660)" d="M496.776 1436.78 L487.184 1451.77 L496.776 1451.77 L496.776 1436.78 M495.779 1433.47 L500.557 1433.47 L500.557 1451.77 L504.563 1451.77 L504.563 1454.93 L500.557 1454.93 L500.557 1461.55 L496.776 1461.55 L496.776 1454.93 L484.1 1454.93 L484.1 1451.26 L495.779 1433.47 Z" fill="#000000" fill-rule="nonzero" fill-opacity="1" /><path clip-path="url(#clip660)" d="M1061.31 1485.02 L1068.95 1485.02 L1068.95 1458.66 L1060.63 1460.32 L1060.63 1456.06 L1068.9 1454.4 L1073.57 1454.4 L1073.57 1485.02 L1081.21 1485.02 L1081.21 1488.96 L1061.31 1488.96 L1061.31 1485.02 Z" fill="#000000" fill-rule="nonzero" fill-opacity="1" /><path clip-path="url(#clip660)" d="M1100.66 1457.48 Q1097.05 1457.48 1095.22 1461.04 Q1093.41 1464.58 1093.41 1471.71 Q1093.41 1478.82 1095.22 1482.38 Q1097.05 1485.92 1100.66 1485.92 Q1104.29 1485.92 1106.1 1482.38 Q1107.93 1478.82 1107.93 1471.71 Q1107.93 1464.58 1106.1 1461.04 Q1104.29 1457.48 1100.66 1457.48 M1100.66 1453.77 Q1106.47 1453.77 1109.52 1458.38 Q1112.6 1462.96 1112.6 1471.71 Q1112.6 1480.44 1109.52 1485.04 Q1106.47 1489.63 1100.66 1489.63 Q1094.85 1489.63 1091.77 1485.04 Q1088.71 1480.44 1088.71 1471.71 Q1088.71 1462.96 1091.77 1458.38 Q1094.85 1453.77 1100.66 1453.77 Z" fill="#000000" fill-rule="nonzero" fill-opacity="1" /><path clip-path="url(#clip660)" d="M1112.6 1447.87 L1136.71 1447.87 L1136.71 1451.07 L1112.6 1451.07 L1112.6 1447.87 Z" fill="#000000" fill-rule="nonzero" fill-opacity="1" /><path clip-path="url(#clip660)" d="M1156.42 1446.41 Q1159.15 1446.99 1160.67 1448.83 Q1162.22 1450.68 1162.22 1453.38 Q1162.22 1457.54 1159.36 1459.82 Q1156.5 1462.09 1151.23 1462.09 Q1149.47 1462.09 1147.58 1461.73 Q1145.72 1461.4 1143.73 1460.7 L1143.73 1457.03 Q1145.31 1457.95 1147.19 1458.42 Q1149.07 1458.89 1151.12 1458.89 Q1154.69 1458.89 1156.56 1457.48 Q1158.44 1456.07 1158.44 1453.38 Q1158.44 1450.9 1156.69 1449.51 Q1154.96 1448.1 1151.85 1448.1 L1148.58 1448.1 L1148.58 1444.98 L1152 1444.98 Q1154.81 1444.98 1156.29 1443.87 Q1157.78 1442.74 1157.78 1440.63 Q1157.78 1438.47 1156.24 1437.32 Q1154.71 1436.16 1151.85 1436.16 Q1150.29 1436.16 1148.51 1436.49 Q1146.72 1436.83 1144.58 1437.55 L1144.58 1434.16 Q1146.74 1433.56 1148.62 1433.26 Q1150.52 1432.96 1152.19 1432.96 Q1156.52 1432.96 1159.04 1434.93 Q1161.56 1436.89 1161.56 1440.24 Q1161.56 1442.57 1160.22 1444.19 Q1158.89 1445.79 1156.42 1446.41 Z" fill="#000000" fill-rule="nonzero" fill-opacity="1" /><path clip-path="url(#clip660)" d="M1719.81 1485.02 L1727.45 1485.02 L1727.45 1458.66 L1719.14 1460.32 L1719.14 1456.06 L1727.4 1454.4 L1732.08 1454.4 L1732.08 1485.02 L1739.71 1485.02 L1739.71 1488.96 L1719.81 1488.96 L1719.81 1485.02 Z" fill="#000000" fill-rule="nonzero" fill-opacity="1" /><path clip-path="url(#clip660)" d="M1759.16 1457.48 Q1755.55 1457.48 1753.72 1461.04 Q1751.91 1464.58 1751.91 1471.71 Q1751.91 1478.82 1753.72 1482.38 Q1755.55 1485.92 1759.16 1485.92 Q1762.79 1485.92 1764.6 1482.38 Q1766.43 1478.82 1766.43 1471.71 Q1766.43 1464.58 1764.6 1461.04 Q1762.79 1457.48 1759.16 1457.48 M1759.16 1453.77 Q1764.97 1453.77 1768.02 1458.38 Q1771.1 1462.96 1771.1 1471.71 Q1771.1 1480.44 1768.02 1485.04 Q1764.97 1489.63 1759.16 1489.63 Q1753.35 1489.63 1750.27 1485.04 Q1747.21 1480.44 1747.21 1471.71 Q1747.21 1462.96 1750.27 1458.38 Q1753.35 1453.77 1759.16 1453.77 Z" fill="#000000" fill-rule="nonzero" fill-opacity="1" /><path clip-path="url(#clip660)" d="M1771.1 1447.87 L1795.21 1447.87 L1795.21 1451.07 L1771.1 1451.07 L1771.1 1447.87 Z" fill="#000000" fill-rule="nonzero" fill-opacity="1" /><path clip-path="url(#clip660)" d="M1806.69 1458.35 L1819.95 1458.35 L1819.95 1461.55 L1802.12 1461.55 L1802.12 1458.35 Q1804.28 1456.11 1808 1452.35 Q1811.75 1448.57 1812.71 1447.48 Q1814.53 1445.43 1815.24 1444.02 Q1815.98 1442.59 1815.98 1441.22 Q1815.98 1438.98 1814.4 1437.57 Q1812.84 1436.16 1810.32 1436.16 Q1808.53 1436.16 1806.54 1436.78 Q1804.56 1437.4 1802.31 1438.66 L1802.31 1434.82 Q1804.6 1433.9 1806.59 1433.43 Q1808.59 1432.96 1810.24 1432.96 Q1814.61 1432.96 1817.2 1435.14 Q1819.8 1437.32 1819.8 1440.97 Q1819.8 1442.7 1819.14 1444.26 Q1818.5 1445.8 1816.79 1447.91 Q1816.32 1448.46 1813.8 1451.07 Q1811.28 1453.67 1806.69 1458.35 Z" fill="#000000" fill-rule="nonzero" fill-opacity="1" /><path clip-path="url(#clip660)" d="M1264.31 1568.04 Q1264.31 1567.79 1265.18 1566.11 Q1266.05 1564.41 1269.11 1558.32 Q1272.17 1552.2 1275.32 1545.79 L1286.69 1522.92 Q1287.5 1521.48 1288.53 1521.48 Q1289.46 1521.48 1289.88 1522.05 Q1290.3 1522.63 1292.23 1526.53 Q1293.23 1528.43 1293.81 1529.66 L1312.46 1566.98 Q1312.78 1567.79 1312.81 1568.04 Q1312.81 1568.69 1311.68 1568.69 L1266.05 1568.69 Q1264.31 1568.69 1264.31 1568.04 M1268.66 1563.66 L1304.15 1563.66 L1286.4 1528.05 L1268.66 1563.66 Z" fill="#000000" fill-rule="nonzero" fill-opacity="1" /><path clip-path="url(#clip660)" d="M1337.9 1540.99 Q1337.9 1541.89 1337.48 1542.12 Q1337.06 1542.31 1335.9 1542.31 L1329.72 1542.31 L1324.82 1561.76 Q1324.43 1563.47 1324.43 1564.92 Q1324.43 1566.53 1324.92 1567.24 Q1325.43 1567.95 1326.5 1567.95 Q1328.59 1567.95 1330.84 1566.05 Q1333.13 1564.15 1335.06 1559.51 Q1335.32 1558.9 1335.45 1558.77 Q1335.61 1558.61 1336.03 1558.61 Q1336.83 1558.61 1336.83 1559.25 Q1336.83 1559.48 1336.38 1560.51 Q1335.96 1561.54 1335.03 1563.05 Q1334.13 1564.57 1332.94 1565.98 Q1331.78 1567.4 1330.01 1568.43 Q1328.23 1569.43 1326.33 1569.43 Q1323.66 1569.43 1321.95 1567.72 Q1320.28 1566.02 1320.28 1563.34 Q1320.28 1562.47 1320.96 1559.7 Q1321.63 1556.9 1325.3 1542.31 L1319.47 1542.31 Q1318.67 1542.31 1318.35 1542.28 Q1318.06 1542.25 1317.83 1542.09 Q1317.64 1541.89 1317.64 1541.51 Q1317.64 1540.9 1317.9 1540.64 Q1318.15 1540.35 1318.48 1540.32 Q1318.83 1540.25 1319.64 1540.25 L1325.82 1540.25 L1328.4 1529.78 Q1328.65 1528.75 1329.3 1528.17 Q1329.97 1527.56 1330.36 1527.5 Q1330.75 1527.4 1331.04 1527.4 Q1331.91 1527.4 1332.42 1527.88 Q1332.94 1528.34 1332.94 1529.17 Q1332.94 1529.62 1330.23 1540.25 L1336.03 1540.25 Q1336.77 1540.25 1337.06 1540.28 Q1337.38 1540.32 1337.64 1540.48 Q1337.9 1540.64 1337.9 1540.99 Z" fill="#000000" fill-rule="nonzero" fill-opacity="1" /><polyline clip-path="url(#clip662)" style="stroke:#000000; stroke-linecap:round; stroke-linejoin:round; stroke-width:2; stroke-opacity:0.1; fill:none" points="252.764,1030.3 2352.76,1030.3 "/>
<polyline clip-path="url(#clip662)" style="stroke:#000000; stroke-linecap:round; stroke-linejoin:round; stroke-width:2; stroke-opacity:0.1; fill:none" points="252.764,624.286 2352.76,624.286 "/>
<polyline clip-path="url(#clip662)" style="stroke:#000000; stroke-linecap:round; stroke-linejoin:round; stroke-width:2; stroke-opacity:0.1; fill:none" points="252.764,218.274 2352.76,218.274 "/>
<polyline clip-path="url(#clip660)" style="stroke:#000000; stroke-linecap:round; stroke-linejoin:round; stroke-width:4; stroke-opacity:1; fill:none" points="252.764,1410.9 252.764,47.2441 "/>
<polyline clip-path="url(#clip660)" style="stroke:#000000; stroke-linecap:round; stroke-linejoin:round; stroke-width:4; stroke-opacity:1; fill:none" points="252.764,1030.3 271.662,1030.3 "/>
<polyline clip-path="url(#clip660)" style="stroke:#000000; stroke-linecap:round; stroke-linejoin:round; stroke-width:4; stroke-opacity:1; fill:none" points="252.764,624.286 271.662,624.286 "/>
<polyline clip-path="url(#clip660)" style="stroke:#000000; stroke-linecap:round; stroke-linejoin:round; stroke-width:4; stroke-opacity:1; fill:none" points="252.764,218.274 271.662,218.274 "/>
<path clip-path="url(#clip660)" d="M114.931 1050.09 L122.57 1050.09 L122.57 1023.72 L114.26 1025.39 L114.26 1021.13 L122.524 1019.47 L127.2 1019.47 L127.2 1050.09 L134.839 1050.09 L134.839 1054.03 L114.931 1054.03 L114.931 1050.09 Z" fill="#000000" fill-rule="nonzero" fill-opacity="1" /><path clip-path="url(#clip660)" d="M154.283 1022.54 Q150.672 1022.54 148.843 1026.11 Q147.038 1029.65 147.038 1036.78 Q147.038 1043.89 148.843 1047.45 Q150.672 1050.99 154.283 1050.99 Q157.917 1050.99 159.723 1047.45 Q161.552 1043.89 161.552 1036.78 Q161.552 1029.65 159.723 1026.11 Q157.917 1022.54 154.283 1022.54 M154.283 1018.84 Q160.093 1018.84 163.149 1023.45 Q166.227 1028.03 166.227 1036.78 Q166.227 1045.51 163.149 1050.11 Q160.093 1054.7 154.283 1054.7 Q148.473 1054.7 145.394 1050.11 Q142.339 1045.51 142.339 1036.78 Q142.339 1028.03 145.394 1023.45 Q148.473 1018.84 154.283 1018.84 Z" fill="#000000" fill-rule="nonzero" fill-opacity="1" /><path clip-path="url(#clip660)" d="M166.227 1012.94 L190.339 1012.94 L190.339 1016.14 L166.227 1016.14 L166.227 1012.94 Z" fill="#000000" fill-rule="nonzero" fill-opacity="1" /><path clip-path="url(#clip660)" d="M208.978 1001.85 L199.386 1016.84 L208.978 1016.84 L208.978 1001.85 M207.981 998.535 L212.758 998.535 L212.758 1016.84 L216.764 1016.84 L216.764 1019.99 L212.758 1019.99 L212.758 1026.62 L208.978 1026.62 L208.978 1019.99 L196.301 1019.99 L196.301 1016.33 L207.981 998.535 Z" fill="#000000" fill-rule="nonzero" fill-opacity="1" /><path clip-path="url(#clip660)" d="M115.853 644.078 L123.492 644.078 L123.492 617.713 L115.182 619.379 L115.182 615.12 L123.446 613.454 L128.121 613.454 L128.121 644.078 L135.76 644.078 L135.76 648.014 L115.853 648.014 L115.853 644.078 Z" fill="#000000" fill-rule="nonzero" fill-opacity="1" /><path clip-path="url(#clip660)" d="M155.205 616.532 Q151.594 616.532 149.765 620.097 Q147.959 623.639 147.959 630.768 Q147.959 637.875 149.765 641.44 Q151.594 644.981 155.205 644.981 Q158.839 644.981 160.644 641.44 Q162.473 637.875 162.473 630.768 Q162.473 623.639 160.644 620.097 Q158.839 616.532 155.205 616.532 M155.205 612.829 Q161.015 612.829 164.07 617.435 Q167.149 622.018 167.149 630.768 Q167.149 639.495 164.07 644.102 Q161.015 648.685 155.205 648.685 Q149.395 648.685 146.316 644.102 Q143.26 639.495 143.26 630.768 Q143.26 622.018 146.316 617.435 Q149.395 612.829 155.205 612.829 Z" fill="#000000" fill-rule="nonzero" fill-opacity="1" /><path clip-path="url(#clip660)" d="M167.149 606.93 L191.261 606.93 L191.261 610.127 L167.149 610.127 L167.149 606.93 Z" fill="#000000" fill-rule="nonzero" fill-opacity="1" /><path clip-path="url(#clip660)" d="M210.971 605.463 Q213.698 606.046 215.222 607.889 Q216.764 609.732 216.764 612.441 Q216.764 616.597 213.905 618.873 Q211.046 621.149 205.78 621.149 Q204.012 621.149 202.132 620.791 Q200.27 620.453 198.276 619.757 L198.276 616.089 Q199.856 617.011 201.737 617.481 Q203.617 617.951 205.667 617.951 Q209.241 617.951 211.103 616.541 Q212.984 615.13 212.984 612.441 Q212.984 609.958 211.234 608.566 Q209.504 607.156 206.401 607.156 L203.128 607.156 L203.128 604.034 L206.551 604.034 Q209.354 604.034 210.84 602.924 Q212.325 601.795 212.325 599.689 Q212.325 597.526 210.783 596.379 Q209.26 595.213 206.401 595.213 Q204.84 595.213 203.053 595.551 Q201.266 595.89 199.122 596.604 L199.122 593.219 Q201.285 592.617 203.166 592.316 Q205.066 592.015 206.739 592.015 Q211.065 592.015 213.585 593.99 Q216.106 595.946 216.106 599.294 Q216.106 601.626 214.77 603.244 Q213.435 604.842 210.971 605.463 Z" fill="#000000" fill-rule="nonzero" fill-opacity="1" /><path clip-path="url(#clip660)" d="M116.624 238.066 L124.263 238.066 L124.263 211.701 L115.953 213.367 L115.953 209.108 L124.217 207.441 L128.893 207.441 L128.893 238.066 L136.531 238.066 L136.531 242.001 L116.624 242.001 L116.624 238.066 Z" fill="#000000" fill-rule="nonzero" fill-opacity="1" /><path clip-path="url(#clip660)" d="M155.976 210.52 Q152.365 210.52 150.536 214.085 Q148.73 217.627 148.73 224.756 Q148.73 231.863 150.536 235.427 Q152.365 238.969 155.976 238.969 Q159.61 238.969 161.416 235.427 Q163.244 231.863 163.244 224.756 Q163.244 217.627 161.416 214.085 Q159.61 210.52 155.976 210.52 M155.976 206.816 Q161.786 206.816 164.841 211.423 Q167.92 216.006 167.92 224.756 Q167.92 233.483 164.841 238.089 Q161.786 242.673 155.976 242.673 Q150.166 242.673 147.087 238.089 Q144.031 233.483 144.031 224.756 Q144.031 216.006 147.087 211.423 Q150.166 206.816 155.976 206.816 Z" fill="#000000" fill-rule="nonzero" fill-opacity="1" /><path clip-path="url(#clip660)" d="M167.92 200.918 L192.032 200.918 L192.032 204.115 L167.92 204.115 L167.92 200.918 Z" fill="#000000" fill-rule="nonzero" fill-opacity="1" /><path clip-path="url(#clip660)" d="M203.504 211.394 L216.764 211.394 L216.764 214.591 L198.934 214.591 L198.934 211.394 Q201.097 209.156 204.821 205.394 Q208.564 201.614 209.523 200.523 Q211.347 198.473 212.062 197.062 Q212.796 195.633 212.796 194.26 Q212.796 192.022 211.216 190.611 Q209.655 189.201 207.134 189.201 Q205.348 189.201 203.354 189.821 Q201.379 190.442 199.122 191.702 L199.122 187.865 Q201.417 186.944 203.41 186.473 Q205.404 186.003 207.059 186.003 Q211.423 186.003 214.018 188.185 Q216.613 190.367 216.613 194.015 Q216.613 195.746 215.955 197.307 Q215.316 198.849 213.604 200.955 Q213.134 201.501 210.614 204.115 Q208.094 206.711 203.504 211.394 Z" fill="#000000" fill-rule="nonzero" fill-opacity="1" /><path clip-path="url(#clip660)" d="M49.4968 798.693 Q43.281 798.693 38.8688 794.699 Q34.4566 790.706 34.4566 784.973 Q34.4566 779.176 38.2247 776.181 Q41.9928 773.154 47.4034 773.154 Q48.4018 773.154 48.595 773.411 Q48.7882 773.669 48.7882 774.796 L48.7882 793.218 Q55.5192 793.218 58.6754 791.221 Q63.0876 788.451 63.0876 783.782 Q63.0876 783.138 62.9588 782.365 Q62.83 781.592 62.2825 780.014 Q61.7028 778.435 60.1891 777.051 Q58.6754 775.666 56.2922 774.861 Q55.3582 774.667 55.3904 774.023 Q55.3904 773.154 56.1634 773.154 Q56.7431 773.154 58.0635 773.798 Q59.3517 774.41 60.8976 775.601 Q62.4435 776.793 63.6029 779.112 Q64.7623 781.398 64.7623 784.168 Q64.7623 789.965 60.3823 794.345 Q55.9701 798.693 49.4968 798.693 M47.4034 793.154 L47.4034 777.502 Q46.0185 777.502 44.4726 777.759 Q42.9268 777.985 40.8012 778.693 Q38.6434 779.369 37.2907 780.98 Q35.9381 782.59 35.9381 784.973 Q35.9381 786.036 36.389 787.195 Q36.8398 788.323 37.9348 789.708 Q39.0298 791.092 41.5097 792.059 Q43.9895 793.025 47.4034 793.154 Z" fill="#000000" fill-rule="nonzero" fill-opacity="1" /><path clip-path="url(#clip660)" d="M64.0216 771.017 L61.9926 771.017 Q61.9926 767.507 61.5739 766.702 Q61.1231 765.864 58.9975 765.864 L41.3165 765.864 Q38.8688 765.864 38.2569 766.734 Q37.645 767.571 37.645 771.017 L35.5838 771.017 L34.8753 761.839 L42.1216 761.839 Q39.2875 760.905 37.0975 758.94 Q34.8753 756.943 34.8753 753.723 Q34.8753 751.597 36.0669 750.244 Q37.2585 748.86 38.901 748.86 Q40.3503 748.86 41.091 749.761 Q41.7996 750.631 41.7996 751.694 Q41.7996 752.885 41.0588 753.723 Q40.2859 754.528 38.9654 754.528 Q38.1603 754.528 37.5484 754.174 Q36.9043 753.787 36.6788 753.497 Q36.4534 753.207 36.389 753.014 Q36.3246 753.143 36.3246 753.723 Q36.3246 757.362 39.9638 759.455 Q43.5709 761.517 48.7238 761.517 L58.8687 761.517 Q60.7688 761.517 61.3807 760.744 Q61.9926 759.938 61.9926 756.492 L61.9926 755.108 L64.0216 755.108 Q63.8284 757.748 63.8284 763.481 Q63.8284 764.286 63.8606 765.542 Q63.8928 766.798 63.9572 768.441 Q64.0216 770.083 64.0216 771.017 Z" fill="#000000" fill-rule="nonzero" fill-opacity="1" /><path clip-path="url(#clip660)" d="M64.0216 744.136 L61.9926 744.136 Q61.9926 740.626 61.5739 739.821 Q61.1231 738.983 58.9975 738.983 L41.3165 738.983 Q38.8688 738.983 38.2569 739.853 Q37.645 740.69 37.645 744.136 L35.5838 744.136 L34.8753 734.958 L42.1216 734.958 Q39.2875 734.024 37.0975 732.059 Q34.8753 730.062 34.8753 726.842 Q34.8753 724.716 36.0669 723.364 Q37.2585 721.979 38.901 721.979 Q40.3503 721.979 41.091 722.881 Q41.7996 723.75 41.7996 724.813 Q41.7996 726.005 41.0588 726.842 Q40.2859 727.647 38.9654 727.647 Q38.1603 727.647 37.5484 727.293 Q36.9043 726.906 36.6788 726.616 Q36.4534 726.327 36.389 726.133 Q36.3246 726.262 36.3246 726.842 Q36.3246 730.481 39.9638 732.575 Q43.5709 734.636 48.7238 734.636 L58.8687 734.636 Q60.7688 734.636 61.3807 733.863 Q61.9926 733.058 61.9926 729.612 L61.9926 728.227 L64.0216 728.227 Q63.8284 730.868 63.8284 736.6 Q63.8284 737.405 63.8606 738.661 Q63.8928 739.917 63.9572 741.56 Q64.0216 743.202 64.0216 744.136 Z" fill="#000000" fill-rule="nonzero" fill-opacity="1" /><path clip-path="url(#clip660)" d="M60.479 711.963 Q56.1634 716.311 49.9154 716.311 Q43.6353 716.311 39.0621 712.059 Q34.4566 707.776 34.4566 701.657 Q34.4566 695.667 39.0298 691.383 Q43.5709 687.068 49.9154 687.068 Q56.1312 687.068 60.4467 691.416 Q64.7623 695.731 64.7623 701.721 Q64.7623 707.583 60.479 711.963 M49.3679 710.836 Q55.7769 710.836 58.6754 709.161 Q63.0876 706.584 63.0876 701.657 Q63.0876 699.209 61.7672 697.18 Q60.4467 695.119 58.2245 693.992 Q55.326 692.543 49.3679 692.543 Q43.0234 692.543 40.2215 694.282 Q35.9381 696.858 35.9381 701.721 Q35.9381 703.847 37.0653 705.94 Q38.1603 708.002 40.3503 709.258 Q43.2488 710.836 49.3679 710.836 Z" fill="#000000" fill-rule="nonzero" fill-opacity="1" /><path clip-path="url(#clip660)" d="M64.0216 684.967 L61.9926 684.967 Q61.9926 681.456 61.5739 680.651 Q61.1231 679.814 58.9975 679.814 L41.3165 679.814 Q38.8688 679.814 38.2569 680.683 Q37.645 681.521 37.645 684.967 L35.5838 684.967 L34.8753 675.788 L42.1216 675.788 Q39.2875 674.854 37.0975 672.889 Q34.8753 670.893 34.8753 667.672 Q34.8753 665.546 36.0669 664.194 Q37.2585 662.809 38.901 662.809 Q40.3503 662.809 41.091 663.711 Q41.7996 664.58 41.7996 665.643 Q41.7996 666.835 41.0588 667.672 Q40.2859 668.477 38.9654 668.477 Q38.1603 668.477 37.5484 668.123 Q36.9043 667.736 36.6788 667.447 Q36.4534 667.157 36.389 666.963 Q36.3246 667.092 36.3246 667.672 Q36.3246 671.311 39.9638 673.405 Q43.5709 675.466 48.7238 675.466 L58.8687 675.466 Q60.7688 675.466 61.3807 674.693 Q61.9926 673.888 61.9926 670.442 L61.9926 669.057 L64.0216 669.057 Q63.8284 671.698 63.8284 677.43 Q63.8284 678.236 63.8606 679.492 Q63.8928 680.748 63.9572 682.39 Q64.0216 684.033 64.0216 684.967 Z" fill="#000000" fill-rule="nonzero" fill-opacity="1" /><polyline clip-path="url(#clip662)" style="stroke:#009af9; stroke-linecap:round; stroke-linejoin:round; stroke-width:4; stroke-opacity:1; fill:none" points="2293.32,118.248 2095.21,239.168 1897.1,360.089 1698.98,481.009 1500.87,601.93 1302.76,722.851 1104.65,843.771 906.535,964.692 708.423,1085.61 510.31,1206.53 312.198,1327.45 "/>
<polyline clip-path="url(#clip662)" style="stroke:#000000; stroke-linecap:round; stroke-linejoin:round; stroke-width:4; stroke-opacity:1; fill:none" points="2293.32,137.89 2293.32,85.838 "/>
<polyline clip-path="url(#clip662)" style="stroke:#000000; stroke-linecap:round; stroke-linejoin:round; stroke-width:4; stroke-opacity:1; fill:none" points="2095.21,269.23 2095.21,212.67 "/>
<polyline clip-path="url(#clip662)" style="stroke:#000000; stroke-linecap:round; stroke-linejoin:round; stroke-width:4; stroke-opacity:1; fill:none" points="1897.1,400.878 1897.1,346.123 "/>
<polyline clip-path="url(#clip662)" style="stroke:#000000; stroke-linecap:round; stroke-linejoin:round; stroke-width:4; stroke-opacity:1; fill:none" points="1698.98,523.203 1698.98,469.04 "/>
<polyline clip-path="url(#clip662)" style="stroke:#000000; stroke-linecap:round; stroke-linejoin:round; stroke-width:4; stroke-opacity:1; fill:none" points="1500.87,624.866 1500.87,575.067 "/>
<polyline clip-path="url(#clip662)" style="stroke:#000000; stroke-linecap:round; stroke-linejoin:round; stroke-width:4; stroke-opacity:1; fill:none" points="1302.76,755.1 1302.76,705.152 "/>
<polyline clip-path="url(#clip662)" style="stroke:#000000; stroke-linecap:round; stroke-linejoin:round; stroke-width:4; stroke-opacity:1; fill:none" points="1104.65,863.785 1104.65,814.384 "/>
<polyline clip-path="url(#clip662)" style="stroke:#000000; stroke-linecap:round; stroke-linejoin:round; stroke-width:4; stroke-opacity:1; fill:none" points="906.535,973.035 906.535,922.048 "/>
<polyline clip-path="url(#clip662)" style="stroke:#000000; stroke-linecap:round; stroke-linejoin:round; stroke-width:4; stroke-opacity:1; fill:none" points="708.423,1106.41 708.423,1049.8 "/>
<polyline clip-path="url(#clip662)" style="stroke:#000000; stroke-linecap:round; stroke-linejoin:round; stroke-width:4; stroke-opacity:1; fill:none" points="510.31,1238.77 510.31,1183.57 "/>
<polyline clip-path="url(#clip662)" style="stroke:#000000; stroke-linecap:round; stroke-linejoin:round; stroke-width:4; stroke-opacity:1; fill:none" points="312.198,1372.3 312.198,1317.49 "/>
<line clip-path="url(#clip662)" x1="2309.32" y1="137.89" x2="2277.32" y2="137.89" style="stroke:#000000; stroke-width:4; stroke-opacity:1"/>
<line clip-path="url(#clip662)" x1="2309.32" y1="85.838" x2="2277.32" y2="85.838" style="stroke:#000000; stroke-width:4; stroke-opacity:1"/>
<line clip-path="url(#clip662)" x1="2111.21" y1="269.23" x2="2079.21" y2="269.23" style="stroke:#000000; stroke-width:4; stroke-opacity:1"/>
<line clip-path="url(#clip662)" x1="2111.21" y1="212.67" x2="2079.21" y2="212.67" style="stroke:#000000; stroke-width:4; stroke-opacity:1"/>
<line clip-path="url(#clip662)" x1="1913.1" y1="400.878" x2="1881.1" y2="400.878" style="stroke:#000000; stroke-width:4; stroke-opacity:1"/>
<line clip-path="url(#clip662)" x1="1913.1" y1="346.123" x2="1881.1" y2="346.123" style="stroke:#000000; stroke-width:4; stroke-opacity:1"/>
<line clip-path="url(#clip662)" x1="1714.98" y1="523.203" x2="1682.98" y2="523.203" style="stroke:#000000; stroke-width:4; stroke-opacity:1"/>
<line clip-path="url(#clip662)" x1="1714.98" y1="469.04" x2="1682.98" y2="469.04" style="stroke:#000000; stroke-width:4; stroke-opacity:1"/>
<line clip-path="url(#clip662)" x1="1516.87" y1="624.866" x2="1484.87" y2="624.866" style="stroke:#000000; stroke-width:4; stroke-opacity:1"/>
<line clip-path="url(#clip662)" x1="1516.87" y1="575.067" x2="1484.87" y2="575.067" style="stroke:#000000; stroke-width:4; stroke-opacity:1"/>
<line clip-path="url(#clip662)" x1="1318.76" y1="755.1" x2="1286.76" y2="755.1" style="stroke:#000000; stroke-width:4; stroke-opacity:1"/>
<line clip-path="url(#clip662)" x1="1318.76" y1="705.152" x2="1286.76" y2="705.152" style="stroke:#000000; stroke-width:4; stroke-opacity:1"/>
<line clip-path="url(#clip662)" x1="1120.65" y1="863.785" x2="1088.65" y2="863.785" style="stroke:#000000; stroke-width:4; stroke-opacity:1"/>
<line clip-path="url(#clip662)" x1="1120.65" y1="814.384" x2="1088.65" y2="814.384" style="stroke:#000000; stroke-width:4; stroke-opacity:1"/>
<line clip-path="url(#clip662)" x1="922.535" y1="973.035" x2="890.535" y2="973.035" style="stroke:#000000; stroke-width:4; stroke-opacity:1"/>
<line clip-path="url(#clip662)" x1="922.535" y1="922.048" x2="890.535" y2="922.048" style="stroke:#000000; stroke-width:4; stroke-opacity:1"/>
<line clip-path="url(#clip662)" x1="724.423" y1="1106.41" x2="692.423" y2="1106.41" style="stroke:#000000; stroke-width:4; stroke-opacity:1"/>
<line clip-path="url(#clip662)" x1="724.423" y1="1049.8" x2="692.423" y2="1049.8" style="stroke:#000000; stroke-width:4; stroke-opacity:1"/>
<line clip-path="url(#clip662)" x1="526.31" y1="1238.77" x2="494.31" y2="1238.77" style="stroke:#000000; stroke-width:4; stroke-opacity:1"/>
<line clip-path="url(#clip662)" x1="526.31" y1="1183.57" x2="494.31" y2="1183.57" style="stroke:#000000; stroke-width:4; stroke-opacity:1"/>
<line clip-path="url(#clip662)" x1="328.198" y1="1372.3" x2="296.198" y2="1372.3" style="stroke:#000000; stroke-width:4; stroke-opacity:1"/>
<line clip-path="url(#clip662)" x1="328.198" y1="1317.49" x2="296.198" y2="1317.49" style="stroke:#000000; stroke-width:4; stroke-opacity:1"/>
<circle clip-path="url(#clip662)" cx="2293.32" cy="109.95" r="14.4" fill="#e26f46" fill-rule="evenodd" fill-opacity="1" stroke="#000000" stroke-opacity="1" stroke-width="3.2"/>
<circle clip-path="url(#clip662)" cx="2095.21" cy="238.692" r="14.4" fill="#e26f46" fill-rule="evenodd" fill-opacity="1" stroke="#000000" stroke-opacity="1" stroke-width="3.2"/>
<circle clip-path="url(#clip662)" cx="1897.1" cy="371.384" r="14.4" fill="#e26f46" fill-rule="evenodd" fill-opacity="1" stroke="#000000" stroke-opacity="1" stroke-width="3.2"/>
<circle clip-path="url(#clip662)" cx="1698.98" cy="494.05" r="14.4" fill="#e26f46" fill-rule="evenodd" fill-opacity="1" stroke="#000000" stroke-opacity="1" stroke-width="3.2"/>
<circle clip-path="url(#clip662)" cx="1500.87" cy="598.214" r="14.4" fill="#e26f46" fill-rule="evenodd" fill-opacity="1" stroke="#000000" stroke-opacity="1" stroke-width="3.2"/>
<circle clip-path="url(#clip662)" cx="1302.76" cy="728.363" r="14.4" fill="#e26f46" fill-rule="evenodd" fill-opacity="1" stroke="#000000" stroke-opacity="1" stroke-width="3.2"/>
<circle clip-path="url(#clip662)" cx="1104.65" cy="837.36" r="14.4" fill="#e26f46" fill-rule="evenodd" fill-opacity="1" stroke="#000000" stroke-opacity="1" stroke-width="3.2"/>
<circle clip-path="url(#clip662)" cx="906.535" cy="945.705" r="14.4" fill="#e26f46" fill-rule="evenodd" fill-opacity="1" stroke="#000000" stroke-opacity="1" stroke-width="3.2"/>
<circle clip-path="url(#clip662)" cx="708.423" cy="1075.84" r="14.4" fill="#e26f46" fill-rule="evenodd" fill-opacity="1" stroke="#000000" stroke-opacity="1" stroke-width="3.2"/>
<circle clip-path="url(#clip662)" cx="510.31" cy="1209.02" r="14.4" fill="#e26f46" fill-rule="evenodd" fill-opacity="1" stroke="#000000" stroke-opacity="1" stroke-width="3.2"/>
<circle clip-path="url(#clip662)" cx="312.198" cy="1342.78" r="14.4" fill="#e26f46" fill-rule="evenodd" fill-opacity="1" stroke="#000000" stroke-opacity="1" stroke-width="3.2"/>
<path clip-path="url(#clip660)" d="M322.764 248.219 L1539.83 248.219 L1539.83 92.6992 L322.764 92.6992  Z" fill="#ffffff" fill-rule="evenodd" fill-opacity="1"/>
<polyline clip-path="url(#clip660)" style="stroke:#000000; stroke-linecap:round; stroke-linejoin:round; stroke-width:4; stroke-opacity:1; fill:none" points="322.764,248.219 1539.83,248.219 1539.83,92.6992 322.764,92.6992 322.764,248.219 "/>
<polyline clip-path="url(#clip660)" style="stroke:#009af9; stroke-linecap:round; stroke-linejoin:round; stroke-width:4; stroke-opacity:1; fill:none" points="346.097,144.539 486.096,144.539 "/>
<path clip-path="url(#clip660)" d="M543.486 133.915 L540.464 146.142 Q540.254 146.915 540.113 147.008 Q539.996 147.102 539.621 147.102 Q538.895 147.102 538.895 146.61 Q538.895 146.563 538.965 145.954 Q539.036 145.322 539.036 144.174 Q539.036 139.935 536.974 137.428 Q534.937 134.922 531.306 134.922 Q528.168 134.922 525.006 136.515 Q521.867 138.108 519.618 140.708 Q517.932 142.675 516.691 145.158 Q515.473 147.641 514.887 149.913 Q514.325 152.185 514.067 153.894 Q513.81 155.604 513.81 156.846 Q513.81 158.649 514.184 160.172 Q514.583 161.694 515.285 162.772 Q515.988 163.826 516.878 164.645 Q517.791 165.442 518.845 165.91 Q519.923 166.379 521 166.613 Q522.078 166.824 523.202 166.824 Q527.723 166.824 532.032 163.31 Q535.452 160.429 536.881 155.721 Q536.998 155.253 537.49 155.253 Q538.075 155.253 538.075 155.721 Q538.075 155.815 537.958 156.283 Q537.841 156.729 537.49 157.642 Q537.138 158.532 536.6 159.539 Q536.061 160.546 535.054 161.811 Q534.047 163.076 532.805 164.177 Q530.697 166.004 528.027 167.152 Q525.357 168.299 522.429 168.299 Q518.775 168.299 515.824 166.683 Q512.873 165.067 511.139 162.045 Q509.43 159.024 509.43 155.159 Q509.43 151.084 511.303 147.078 Q513.177 143.073 516.152 140.099 Q519.127 137.124 523.061 135.274 Q526.996 133.423 530.931 133.423 Q532.43 133.423 533.766 133.821 Q535.101 134.22 535.897 134.711 Q536.717 135.203 537.443 135.929 Q538.169 136.632 538.403 136.96 Q538.661 137.288 538.895 137.686 L542.244 134.009 Q542.83 133.423 542.971 133.423 Q543.252 133.423 543.369 133.587 Q543.486 133.751 543.486 133.915 Z" fill="#000000" fill-rule="nonzero" fill-opacity="1" /><path clip-path="url(#clip660)" d="M547.225 166.777 Q547.225 166.589 547.857 165.371 Q548.49 164.13 550.715 159.703 Q552.94 155.253 555.235 150.592 L563.503 133.962 Q564.089 132.908 564.838 132.908 Q565.518 132.908 565.822 133.329 Q566.127 133.751 567.532 136.585 Q568.258 137.967 568.68 138.857 L582.241 166.004 Q582.475 166.589 582.499 166.777 Q582.499 167.245 581.679 167.245 L548.49 167.245 Q547.225 167.245 547.225 166.777 M550.387 163.591 L576.198 163.591 L563.293 137.686 L550.387 163.591 Z" fill="#000000" fill-rule="nonzero" fill-opacity="1" /><path clip-path="url(#clip660)" d="M601.502 147.102 Q601.502 147.758 601.198 147.922 Q600.893 148.062 600.05 148.062 L595.553 148.062 L591.993 162.209 Q591.712 163.451 591.712 164.505 Q591.712 165.676 592.063 166.191 Q592.438 166.706 593.211 166.706 Q594.733 166.706 596.373 165.325 Q598.036 163.943 599.441 160.57 Q599.628 160.125 599.722 160.031 Q599.839 159.914 600.144 159.914 Q600.729 159.914 600.729 160.382 Q600.729 160.546 600.401 161.296 Q600.097 162.045 599.418 163.146 Q598.762 164.247 597.895 165.278 Q597.052 166.308 595.764 167.058 Q594.475 167.784 593.093 167.784 Q591.149 167.784 589.908 166.543 Q588.69 165.301 588.69 163.357 Q588.69 162.725 589.182 160.71 Q589.674 158.673 592.344 148.062 L588.104 148.062 Q587.519 148.062 587.285 148.039 Q587.074 148.015 586.91 147.898 Q586.769 147.758 586.769 147.477 Q586.769 147.032 586.957 146.844 Q587.144 146.633 587.378 146.61 Q587.636 146.563 588.222 146.563 L592.719 146.563 L594.592 138.951 Q594.78 138.201 595.248 137.78 Q595.74 137.335 596.021 137.288 Q596.302 137.218 596.513 137.218 Q597.146 137.218 597.52 137.569 Q597.895 137.897 597.895 138.506 Q597.895 138.834 595.928 146.563 L600.144 146.563 Q600.682 146.563 600.893 146.587 Q601.127 146.61 601.315 146.727 Q601.502 146.844 601.502 147.102 Z" fill="#000000" fill-rule="nonzero" fill-opacity="1" /><path clip-path="url(#clip660)" d="M624.011 125.999 Q624.011 128.392 622.798 130.704 Q621.601 133.016 619.715 134.442 Q617.83 135.852 615.911 135.852 Q614.764 135.852 613.993 135.229 Q613.239 134.59 612.829 133.688 Q612.518 134.803 611.845 137.476 Q611.173 140.148 611.173 140.41 Q611.173 140.558 611.206 140.624 Q611.239 140.689 611.386 140.771 Q611.534 140.87 611.894 140.902 Q612.255 140.952 612.862 140.952 Q613.173 140.952 613.288 140.952 Q613.419 140.968 613.534 141.05 Q613.665 141.132 613.665 141.312 Q613.665 141.984 613.059 141.984 Q612.518 141.984 611.403 141.935 Q610.288 141.886 609.73 141.886 Q609.255 141.886 608.304 141.935 Q607.353 141.984 606.91 141.984 Q606.468 141.984 606.468 141.591 Q606.468 141.361 606.533 141.214 Q606.582 141.083 606.713 141.017 Q606.845 140.968 606.959 140.952 Q607.058 140.952 607.255 140.952 Q608.009 140.952 608.337 140.82 Q608.665 140.706 608.779 140.46 Q608.91 140.23 609.058 139.574 L612.829 124.621 Q613.059 123.621 613.059 122.916 Q613.059 122.031 612.78 121.703 Q612.501 121.375 612.009 121.375 Q611.157 121.375 610.599 122.392 Q610.042 123.408 609.566 125.376 Q609.419 125.917 609.32 126.031 Q609.238 126.146 608.992 126.146 Q608.583 126.13 608.583 125.802 Q608.583 125.72 608.714 125.195 Q608.845 124.654 609.091 123.867 Q609.353 123.064 609.632 122.556 Q609.796 122.211 609.943 121.982 Q610.091 121.752 610.386 121.391 Q610.698 121.031 611.14 120.834 Q611.583 120.637 612.124 120.637 Q613.173 120.637 614.042 121.26 Q614.911 121.883 615.141 123.146 Q616.075 122.047 617.223 121.342 Q618.371 120.637 619.535 120.637 Q621.47 120.637 622.732 122.146 Q624.011 123.638 624.011 125.999 M621.584 124.523 Q621.584 123.031 621.011 122.211 Q620.453 121.375 619.437 121.375 Q618.174 121.375 616.715 122.654 Q615.272 123.867 614.977 124.998 L613.321 131.573 L613.223 132.114 Q613.223 132.213 613.272 132.508 Q613.337 132.786 613.518 133.246 Q613.714 133.705 613.977 134.115 Q614.255 134.508 614.747 134.803 Q615.256 135.098 615.879 135.098 Q616.879 135.098 617.961 134.213 Q619.059 133.328 619.879 131.655 Q620.387 130.573 620.978 128.245 Q621.584 125.9 621.584 124.523 Z" fill="#000000" fill-rule="nonzero" fill-opacity="1" /><path clip-path="url(#clip660)" d="M661.618 131.227 L661.618 134.769 L657.544 134.769 Q655.252 134.769 654.35 135.694 Q653.47 136.62 653.47 139.028 L653.47 141.319 L660.484 141.319 L660.484 144.63 L653.47 144.63 L653.47 167.245 L649.188 167.245 L649.188 144.63 L645.114 144.63 L645.114 141.319 L649.188 141.319 L649.188 139.514 Q649.188 135.185 651.202 133.218 Q653.215 131.227 657.59 131.227 L661.618 131.227 Z" fill="#000000" fill-rule="nonzero" fill-opacity="1" /><path clip-path="url(#clip660)" d="M665.183 141.319 L669.442 141.319 L669.442 167.245 L665.183 167.245 L665.183 141.319 M665.183 131.227 L669.442 131.227 L669.442 136.62 L665.183 136.62 L665.183 131.227 Z" fill="#000000" fill-rule="nonzero" fill-opacity="1" /><path clip-path="url(#clip660)" d="M682.567 133.958 L682.567 141.319 L691.34 141.319 L691.34 144.63 L682.567 144.63 L682.567 158.704 Q682.567 161.875 683.424 162.778 Q684.303 163.68 686.965 163.68 L691.34 163.68 L691.34 167.245 L686.965 167.245 Q682.035 167.245 680.16 165.417 Q678.285 163.565 678.285 158.704 L678.285 144.63 L675.16 144.63 L675.16 141.319 L678.285 141.319 L678.285 133.958 L682.567 133.958 Z" fill="#000000" fill-rule="nonzero" fill-opacity="1" /><path clip-path="url(#clip660)" d="M709.535 141.319 L713.794 141.319 L719.118 161.551 L724.419 141.319 L729.442 141.319 L734.766 161.551 L740.067 141.319 L744.326 141.319 L737.544 167.245 L732.521 167.245 L726.942 145.995 L721.34 167.245 L716.317 167.245 L709.535 141.319 Z" fill="#000000" fill-rule="nonzero" fill-opacity="1" /><path clip-path="url(#clip660)" d="M750.784 141.319 L755.044 141.319 L755.044 167.245 L750.784 167.245 L750.784 141.319 M750.784 131.227 L755.044 131.227 L755.044 136.62 L750.784 136.62 L750.784 131.227 Z" fill="#000000" fill-rule="nonzero" fill-opacity="1" /><path clip-path="url(#clip660)" d="M768.168 133.958 L768.168 141.319 L776.942 141.319 L776.942 144.63 L768.168 144.63 L768.168 158.704 Q768.168 161.875 769.025 162.778 Q769.905 163.68 772.567 163.68 L776.942 163.68 L776.942 167.245 L772.567 167.245 Q767.636 167.245 765.761 165.417 Q763.886 163.565 763.886 158.704 L763.886 144.63 L760.761 144.63 L760.761 141.319 L763.886 141.319 L763.886 133.958 L768.168 133.958 Z" fill="#000000" fill-rule="nonzero" fill-opacity="1" /><path clip-path="url(#clip660)" d="M804.094 151.597 L804.094 167.245 L799.835 167.245 L799.835 151.736 Q799.835 148.055 798.4 146.227 Q796.965 144.398 794.094 144.398 Q790.645 144.398 788.654 146.597 Q786.664 148.796 786.664 152.592 L786.664 167.245 L782.381 167.245 L782.381 131.227 L786.664 131.227 L786.664 145.347 Q788.192 143.009 790.252 141.852 Q792.335 140.694 795.043 140.694 Q799.511 140.694 801.803 143.472 Q804.094 146.227 804.094 151.597 Z" fill="#000000" fill-rule="nonzero" fill-opacity="1" /><path clip-path="url(#clip660)" d="M831.779 163.356 L831.779 177.106 L827.497 177.106 L827.497 141.319 L831.779 141.319 L831.779 145.255 Q833.122 142.94 835.159 141.829 Q837.219 140.694 840.066 140.694 Q844.788 140.694 847.728 144.444 Q850.691 148.194 850.691 154.305 Q850.691 160.417 847.728 164.167 Q844.788 167.916 840.066 167.916 Q837.219 167.916 835.159 166.805 Q833.122 165.671 831.779 163.356 M846.27 154.305 Q846.27 149.606 844.325 146.944 Q842.404 144.259 839.025 144.259 Q835.645 144.259 833.701 146.944 Q831.779 149.606 831.779 154.305 Q831.779 159.004 833.701 161.69 Q835.645 164.352 839.025 164.352 Q842.404 164.352 844.325 161.69 Q846.27 159.004 846.27 154.305 Z" fill="#000000" fill-rule="nonzero" fill-opacity="1" /><path clip-path="url(#clip660)" d="M873.376 145.718 L903.052 145.718 L903.052 149.606 L873.376 149.606 L873.376 145.718 M873.376 155.162 L903.052 155.162 L903.052 159.097 L873.376 159.097 L873.376 155.162 Z" fill="#000000" fill-rule="nonzero" fill-opacity="1" /><path clip-path="url(#clip660)" d="M938.214 135.764 Q934.603 135.764 932.774 139.329 Q930.969 142.87 930.969 150 Q930.969 157.106 932.774 160.671 Q934.603 164.213 938.214 164.213 Q941.848 164.213 943.654 160.671 Q945.482 157.106 945.482 150 Q945.482 142.87 943.654 139.329 Q941.848 135.764 938.214 135.764 M938.214 132.06 Q944.024 132.06 947.08 136.667 Q950.158 141.25 950.158 150 Q950.158 158.727 947.08 163.333 Q944.024 167.916 938.214 167.916 Q932.404 167.916 929.325 163.333 Q926.269 158.727 926.269 150 Q926.269 141.25 929.325 136.667 Q932.404 132.06 938.214 132.06 Z" fill="#000000" fill-rule="nonzero" fill-opacity="1" /><path clip-path="url(#clip660)" d="M958.376 161.366 L963.26 161.366 L963.26 167.245 L958.376 167.245 L958.376 161.366 Z" fill="#000000" fill-rule="nonzero" fill-opacity="1" /><path clip-path="url(#clip660)" d="M973.584 166.528 L973.584 162.268 Q975.343 163.102 977.149 163.542 Q978.954 163.981 980.69 163.981 Q985.32 163.981 987.751 160.879 Q990.204 157.755 990.552 151.412 Q989.209 153.403 987.149 154.467 Q985.089 155.532 982.589 155.532 Q977.403 155.532 974.371 152.407 Q971.362 149.259 971.362 143.819 Q971.362 138.495 974.51 135.278 Q977.658 132.06 982.89 132.06 Q988.885 132.06 992.033 136.667 Q995.204 141.25 995.204 150 Q995.204 158.171 991.315 163.055 Q987.45 167.916 980.899 167.916 Q979.14 167.916 977.334 167.569 Q975.528 167.222 973.584 166.528 M982.89 151.875 Q986.038 151.875 987.866 149.722 Q989.718 147.569 989.718 143.819 Q989.718 140.093 987.866 137.94 Q986.038 135.764 982.89 135.764 Q979.741 135.764 977.89 137.94 Q976.061 140.093 976.061 143.819 Q976.061 147.569 977.89 149.722 Q979.741 151.875 982.89 151.875 Z" fill="#000000" fill-rule="nonzero" fill-opacity="1" /><path clip-path="url(#clip660)" d="M1003.75 166.528 L1003.75 162.268 Q1005.51 163.102 1007.31 163.542 Q1009.12 163.981 1010.85 163.981 Q1015.48 163.981 1017.91 160.879 Q1020.37 157.755 1020.71 151.412 Q1019.37 153.403 1017.31 154.467 Q1015.25 155.532 1012.75 155.532 Q1007.57 155.532 1004.53 152.407 Q1001.52 149.259 1001.52 143.819 Q1001.52 138.495 1004.67 135.278 Q1007.82 132.06 1013.05 132.06 Q1019.05 132.06 1022.19 136.667 Q1025.37 141.25 1025.37 150 Q1025.37 158.171 1021.48 163.055 Q1017.61 167.916 1011.06 167.916 Q1009.3 167.916 1007.5 167.569 Q1005.69 167.222 1003.75 166.528 M1013.05 151.875 Q1016.2 151.875 1018.03 149.722 Q1019.88 147.569 1019.88 143.819 Q1019.88 140.093 1018.03 137.94 Q1016.2 135.764 1013.05 135.764 Q1009.9 135.764 1008.05 137.94 Q1006.22 140.093 1006.22 143.819 Q1006.22 147.569 1008.05 149.722 Q1009.9 151.875 1013.05 151.875 Z" fill="#000000" fill-rule="nonzero" fill-opacity="1" /><path clip-path="url(#clip660)" d="M1034.26 142.731 L1039.14 142.731 L1039.14 148.611 L1034.26 148.611 L1034.26 142.731 M1034.26 161.366 L1039.14 161.366 L1039.14 165.347 L1035.34 172.754 L1032.36 172.754 L1034.26 165.347 L1034.26 161.366 Z" fill="#000000" fill-rule="nonzero" fill-opacity="1" /><path clip-path="url(#clip660)" d="M1064.95 166.528 L1064.95 162.268 Q1066.71 163.102 1068.51 163.542 Q1070.32 163.981 1072.06 163.981 Q1076.69 163.981 1079.12 160.879 Q1081.57 157.755 1081.92 151.412 Q1080.57 153.403 1078.51 154.467 Q1076.45 155.532 1073.95 155.532 Q1068.77 155.532 1065.74 152.407 Q1062.73 149.259 1062.73 143.819 Q1062.73 138.495 1065.88 135.278 Q1069.02 132.06 1074.25 132.06 Q1080.25 132.06 1083.4 136.667 Q1086.57 141.25 1086.57 150 Q1086.57 158.171 1082.68 163.055 Q1078.81 167.916 1072.26 167.916 Q1070.5 167.916 1068.7 167.569 Q1066.89 167.222 1064.95 166.528 M1074.25 151.875 Q1077.4 151.875 1079.23 149.722 Q1081.08 147.569 1081.08 143.819 Q1081.08 140.093 1079.23 137.94 Q1077.4 135.764 1074.25 135.764 Q1071.11 135.764 1069.25 137.94 Q1067.43 140.093 1067.43 143.819 Q1067.43 147.569 1069.25 149.722 Q1071.11 151.875 1074.25 151.875 Z" fill="#000000" fill-rule="nonzero" fill-opacity="1" /><path clip-path="url(#clip660)" d="M1095.02 132.685 L1113.37 132.685 L1113.37 136.62 L1099.3 136.62 L1099.3 145.093 Q1100.32 144.745 1101.34 144.583 Q1102.36 144.398 1103.38 144.398 Q1109.16 144.398 1112.54 147.569 Q1115.92 150.741 1115.92 156.157 Q1115.92 161.736 1112.45 164.838 Q1108.98 167.916 1102.66 167.916 Q1100.48 167.916 1098.21 167.546 Q1095.97 167.176 1093.56 166.435 L1093.56 161.736 Q1095.64 162.87 1097.87 163.426 Q1100.09 163.981 1102.56 163.981 Q1106.57 163.981 1108.91 161.875 Q1111.25 159.768 1111.25 156.157 Q1111.25 152.546 1108.91 150.44 Q1106.57 148.333 1102.56 148.333 Q1100.69 148.333 1098.81 148.75 Q1096.96 149.167 1095.02 150.046 L1095.02 132.685 Z" fill="#000000" fill-rule="nonzero" fill-opacity="1" /><path clip-path="url(#clip660)" d="M1154.53 152.037 Q1152.52 152.037 1151.36 153.75 Q1150.23 155.463 1150.23 158.518 Q1150.23 161.528 1151.36 163.264 Q1152.52 164.977 1154.53 164.977 Q1156.5 164.977 1157.63 163.264 Q1158.79 161.528 1158.79 158.518 Q1158.79 155.486 1157.63 153.773 Q1156.5 152.037 1154.53 152.037 M1154.53 149.097 Q1158.19 149.097 1160.34 151.643 Q1162.5 154.19 1162.5 158.518 Q1162.5 162.847 1160.32 165.393 Q1158.17 167.916 1154.53 167.916 Q1150.83 167.916 1148.68 165.393 Q1146.52 162.847 1146.52 158.518 Q1146.52 154.167 1148.68 151.643 Q1150.85 149.097 1154.53 149.097 M1130.64 135 Q1128.65 135 1127.5 136.736 Q1126.36 138.449 1126.36 141.458 Q1126.36 144.514 1127.5 146.227 Q1128.63 147.94 1130.64 147.94 Q1132.66 147.94 1133.79 146.227 Q1134.95 144.514 1134.95 141.458 Q1134.95 138.472 1133.79 136.736 Q1132.63 135 1130.64 135 M1151.55 132.06 L1155.25 132.06 L1133.63 167.916 L1129.93 167.916 L1151.55 132.06 M1130.64 132.06 Q1134.3 132.06 1136.48 134.606 Q1138.65 137.13 1138.65 141.458 Q1138.65 145.833 1136.48 148.356 Q1134.32 150.88 1130.64 150.88 Q1126.96 150.88 1124.81 148.356 Q1122.68 145.81 1122.68 141.458 Q1122.68 137.153 1124.83 134.606 Q1126.99 132.06 1130.64 132.06 Z" fill="#000000" fill-rule="nonzero" fill-opacity="1" /><path clip-path="url(#clip660)" d="M1210.71 135.347 L1210.71 140.278 Q1208.35 138.079 1205.67 136.991 Q1203 135.903 1199.99 135.903 Q1194.07 135.903 1190.92 139.537 Q1187.77 143.148 1187.77 150 Q1187.77 156.829 1190.92 160.463 Q1194.07 164.074 1199.99 164.074 Q1203 164.074 1205.67 162.986 Q1208.35 161.898 1210.71 159.699 L1210.71 164.583 Q1208.26 166.25 1205.5 167.083 Q1202.77 167.916 1199.72 167.916 Q1191.87 167.916 1187.36 163.125 Q1182.84 158.31 1182.84 150 Q1182.84 141.667 1187.36 136.875 Q1191.87 132.06 1199.72 132.06 Q1202.82 132.06 1205.55 132.894 Q1208.31 133.704 1210.71 135.347 Z" fill="#000000" fill-rule="nonzero" fill-opacity="1" /><path clip-path="url(#clip660)" d="M1217.93 132.685 L1222.61 132.685 L1222.61 167.245 L1217.93 167.245 L1217.93 132.685 Z" fill="#000000" fill-rule="nonzero" fill-opacity="1" /><path clip-path="url(#clip660)" d="M1246.41 131.227 L1256.22 131.227 L1256.22 134.537 L1250.67 134.537 L1250.67 170.185 L1256.22 170.185 L1256.22 173.495 L1246.41 173.495 L1246.41 131.227 Z" fill="#000000" fill-rule="nonzero" fill-opacity="1" /><path clip-path="url(#clip660)" d="M1275.9 135.764 Q1272.29 135.764 1270.46 139.329 Q1268.65 142.87 1268.65 150 Q1268.65 157.106 1270.46 160.671 Q1272.29 164.213 1275.9 164.213 Q1279.53 164.213 1281.34 160.671 Q1283.17 157.106 1283.17 150 Q1283.17 142.87 1281.34 139.329 Q1279.53 135.764 1275.9 135.764 M1275.9 132.06 Q1281.71 132.06 1284.76 136.667 Q1287.84 141.25 1287.84 150 Q1287.84 158.727 1284.76 163.333 Q1281.71 167.916 1275.9 167.916 Q1270.09 167.916 1267.01 163.333 Q1263.95 158.727 1263.95 150 Q1263.95 141.25 1267.01 136.667 Q1270.09 132.06 1275.9 132.06 Z" fill="#000000" fill-rule="nonzero" fill-opacity="1" /><path clip-path="url(#clip660)" d="M1296.06 161.366 L1300.94 161.366 L1300.94 167.245 L1296.06 167.245 L1296.06 161.366 Z" fill="#000000" fill-rule="nonzero" fill-opacity="1" /><path clip-path="url(#clip660)" d="M1311.27 166.528 L1311.27 162.268 Q1313.03 163.102 1314.83 163.542 Q1316.64 163.981 1318.37 163.981 Q1323 163.981 1325.43 160.879 Q1327.89 157.755 1328.23 151.412 Q1326.89 153.403 1324.83 154.467 Q1322.77 155.532 1320.27 155.532 Q1315.09 155.532 1312.05 152.407 Q1309.05 149.259 1309.05 143.819 Q1309.05 138.495 1312.19 135.278 Q1315.34 132.06 1320.57 132.06 Q1326.57 132.06 1329.72 136.667 Q1332.89 141.25 1332.89 150 Q1332.89 158.171 1329 163.055 Q1325.13 167.916 1318.58 167.916 Q1316.82 167.916 1315.02 167.569 Q1313.21 167.222 1311.27 166.528 M1320.57 151.875 Q1323.72 151.875 1325.55 149.722 Q1327.4 147.569 1327.4 143.819 Q1327.4 140.093 1325.55 137.94 Q1323.72 135.764 1320.57 135.764 Q1317.42 135.764 1315.57 137.94 Q1313.74 140.093 1313.74 143.819 Q1313.74 147.569 1315.57 149.722 Q1317.42 151.875 1320.57 151.875 Z" fill="#000000" fill-rule="nonzero" fill-opacity="1" /><path clip-path="url(#clip660)" d="M1351.87 148.102 Q1348.72 148.102 1346.87 150.255 Q1345.04 152.407 1345.04 156.157 Q1345.04 159.884 1346.87 162.06 Q1348.72 164.213 1351.87 164.213 Q1355.02 164.213 1356.85 162.06 Q1358.7 159.884 1358.7 156.157 Q1358.7 152.407 1356.85 150.255 Q1355.02 148.102 1351.87 148.102 M1361.15 133.449 L1361.15 137.708 Q1359.39 136.875 1357.59 136.435 Q1355.8 135.995 1354.04 135.995 Q1349.42 135.995 1346.96 139.12 Q1344.53 142.245 1344.18 148.565 Q1345.55 146.551 1347.61 145.486 Q1349.67 144.398 1352.15 144.398 Q1357.36 144.398 1360.36 147.569 Q1363.4 150.718 1363.4 156.157 Q1363.4 161.481 1360.25 164.699 Q1357.1 167.916 1351.87 167.916 Q1345.87 167.916 1342.7 163.333 Q1339.53 158.727 1339.53 150 Q1339.53 141.806 1343.42 136.944 Q1347.31 132.06 1353.86 132.06 Q1355.62 132.06 1357.4 132.407 Q1359.21 132.755 1361.15 133.449 Z" fill="#000000" fill-rule="nonzero" fill-opacity="1" /><path clip-path="url(#clip660)" d="M1371.94 161.366 L1376.82 161.366 L1376.82 165.347 L1373.03 172.754 L1370.04 172.754 L1371.94 165.347 L1371.94 161.366 Z" fill="#000000" fill-rule="nonzero" fill-opacity="1" /><path clip-path="url(#clip660)" d="M1402.4 163.31 L1410.04 163.31 L1410.04 136.944 L1401.73 138.611 L1401.73 134.352 L1409.99 132.685 L1414.67 132.685 L1414.67 163.31 L1422.31 163.31 L1422.31 167.245 L1402.4 167.245 L1402.4 163.31 Z" fill="#000000" fill-rule="nonzero" fill-opacity="1" /><path clip-path="url(#clip660)" d="M1431.75 161.366 L1436.64 161.366 L1436.64 167.245 L1431.75 167.245 L1431.75 161.366 Z" fill="#000000" fill-rule="nonzero" fill-opacity="1" /><path clip-path="url(#clip660)" d="M1456.82 135.764 Q1453.21 135.764 1451.38 139.329 Q1449.58 142.87 1449.58 150 Q1449.58 157.106 1451.38 160.671 Q1453.21 164.213 1456.82 164.213 Q1460.46 164.213 1462.26 160.671 Q1464.09 157.106 1464.09 150 Q1464.09 142.87 1462.26 139.329 Q1460.46 135.764 1456.82 135.764 M1456.82 132.06 Q1462.63 132.06 1465.69 136.667 Q1468.77 141.25 1468.77 150 Q1468.77 158.727 1465.69 163.333 Q1462.63 167.916 1456.82 167.916 Q1451.01 167.916 1447.93 163.333 Q1444.88 158.727 1444.88 150 Q1444.88 141.25 1447.93 136.667 Q1451.01 132.06 1456.82 132.06 Z" fill="#000000" fill-rule="nonzero" fill-opacity="1" /><path clip-path="url(#clip660)" d="M1481.01 163.31 L1497.33 163.31 L1497.33 167.245 L1475.39 167.245 L1475.39 163.31 Q1478.05 160.555 1482.63 155.926 Q1487.24 151.273 1488.42 149.93 Q1490.66 147.407 1491.54 145.671 Q1492.45 143.912 1492.45 142.222 Q1492.45 139.468 1490.5 137.731 Q1488.58 135.995 1485.48 135.995 Q1483.28 135.995 1480.83 136.759 Q1478.4 137.523 1475.62 139.074 L1475.62 134.352 Q1478.44 133.218 1480.9 132.639 Q1483.35 132.06 1485.39 132.06 Q1490.76 132.06 1493.95 134.745 Q1497.15 137.431 1497.15 141.921 Q1497.15 144.051 1496.34 145.972 Q1495.55 147.87 1493.44 150.463 Q1492.86 151.134 1489.76 154.352 Q1486.66 157.546 1481.01 163.31 Z" fill="#000000" fill-rule="nonzero" fill-opacity="1" /><path clip-path="url(#clip660)" d="M1516.5 131.227 L1516.5 173.495 L1506.68 173.495 L1506.68 170.185 L1512.22 170.185 L1512.22 134.537 L1506.68 134.537 L1506.68 131.227 L1516.5 131.227 Z" fill="#000000" fill-rule="nonzero" fill-opacity="1" /><circle clip-path="url(#clip660)" cx="416.097" cy="196.379" r="20.48" fill="#e26f46" fill-rule="evenodd" fill-opacity="1" stroke="#000000" stroke-opacity="1" stroke-width="4.55111"/>
<path clip-path="url(#clip660)" d="M527.855 188.497 L527.855 192.525 Q526.05 191.599 524.105 191.136 Q522.161 190.673 520.078 190.673 Q516.906 190.673 515.309 191.645 Q513.735 192.618 513.735 194.562 Q513.735 196.044 514.869 196.9 Q516.004 197.733 519.43 198.497 L520.888 198.821 Q525.425 199.794 527.323 201.576 Q529.244 203.335 529.244 206.506 Q529.244 210.118 526.374 212.224 Q523.527 214.33 518.527 214.33 Q516.443 214.33 514.175 213.914 Q511.93 213.52 509.43 212.71 L509.43 208.312 Q511.791 209.539 514.082 210.164 Q516.374 210.766 518.619 210.766 Q521.629 210.766 523.249 209.747 Q524.869 208.706 524.869 206.831 Q524.869 205.094 523.689 204.168 Q522.531 203.243 518.573 202.386 L517.092 202.039 Q513.133 201.206 511.374 199.493 Q509.615 197.756 509.615 194.747 Q509.615 191.09 512.207 189.099 Q514.8 187.108 519.568 187.108 Q521.93 187.108 524.013 187.456 Q526.096 187.803 527.855 188.497 Z" fill="#000000" fill-rule="nonzero" fill-opacity="1" /><path clip-path="url(#clip660)" d="M540.24 180.372 L540.24 187.733 L549.013 187.733 L549.013 191.044 L540.24 191.044 L540.24 205.118 Q540.24 208.289 541.096 209.192 Q541.976 210.094 544.638 210.094 L549.013 210.094 L549.013 213.659 L544.638 213.659 Q539.707 213.659 537.832 211.83 Q535.957 209.979 535.957 205.118 L535.957 191.044 L532.832 191.044 L532.832 187.733 L535.957 187.733 L535.957 180.372 L540.24 180.372 Z" fill="#000000" fill-rule="nonzero" fill-opacity="1" /><path clip-path="url(#clip660)" d="M569.638 191.715 Q568.92 191.298 568.064 191.113 Q567.23 190.905 566.212 190.905 Q562.601 190.905 560.656 193.266 Q558.735 195.604 558.735 200.002 L558.735 213.659 L554.453 213.659 L554.453 187.733 L558.735 187.733 L558.735 191.761 Q560.078 189.4 562.23 188.266 Q564.383 187.108 567.462 187.108 Q567.902 187.108 568.434 187.178 Q568.966 187.224 569.614 187.34 L569.638 191.715 Z" fill="#000000" fill-rule="nonzero" fill-opacity="1" /><path clip-path="url(#clip660)" d="M583.11 190.719 Q579.684 190.719 577.693 193.405 Q575.702 196.067 575.702 200.719 Q575.702 205.372 577.67 208.057 Q579.661 210.719 583.11 210.719 Q586.513 210.719 588.503 208.034 Q590.494 205.349 590.494 200.719 Q590.494 196.113 588.503 193.428 Q586.513 190.719 583.11 190.719 M583.11 187.108 Q588.665 187.108 591.837 190.719 Q595.008 194.331 595.008 200.719 Q595.008 207.085 591.837 210.719 Q588.665 214.33 583.11 214.33 Q577.531 214.33 574.36 210.719 Q571.212 207.085 571.212 200.719 Q571.212 194.331 574.36 190.719 Q577.531 187.108 583.11 187.108 Z" fill="#000000" fill-rule="nonzero" fill-opacity="1" /><path clip-path="url(#clip660)" d="M623.619 198.011 L623.619 213.659 L619.36 213.659 L619.36 198.15 Q619.36 194.469 617.924 192.641 Q616.489 190.812 613.619 190.812 Q610.17 190.812 608.179 193.011 Q606.188 195.21 606.188 199.006 L606.188 213.659 L601.906 213.659 L601.906 187.733 L606.188 187.733 L606.188 191.761 Q607.716 189.423 609.776 188.266 Q611.86 187.108 614.568 187.108 Q619.036 187.108 621.327 189.886 Q623.619 192.641 623.619 198.011 Z" fill="#000000" fill-rule="nonzero" fill-opacity="1" /><path clip-path="url(#clip660)" d="M649.174 200.395 Q649.174 195.766 647.253 193.219 Q645.355 190.673 641.906 190.673 Q638.48 190.673 636.559 193.219 Q634.66 195.766 634.66 200.395 Q634.66 205.002 636.559 207.548 Q638.48 210.094 641.906 210.094 Q645.355 210.094 647.253 207.548 Q649.174 205.002 649.174 200.395 M653.433 210.442 Q653.433 217.062 650.494 220.28 Q647.554 223.52 641.489 223.52 Q639.244 223.52 637.253 223.173 Q635.262 222.849 633.387 222.155 L633.387 218.011 Q635.262 219.03 637.091 219.516 Q638.92 220.002 640.818 220.002 Q645.008 220.002 647.091 217.803 Q649.174 215.627 649.174 211.205 L649.174 209.099 Q647.855 211.391 645.795 212.525 Q643.734 213.659 640.864 213.659 Q636.096 213.659 633.179 210.025 Q630.262 206.391 630.262 200.395 Q630.262 194.377 633.179 190.743 Q636.096 187.108 640.864 187.108 Q643.734 187.108 645.795 188.243 Q647.855 189.377 649.174 191.669 L649.174 187.733 L653.433 187.733 L653.433 210.442 Z" fill="#000000" fill-rule="nonzero" fill-opacity="1" /><path clip-path="url(#clip660)" d="M699.452 199.631 L699.452 201.715 L679.869 201.715 Q680.146 206.113 682.507 208.428 Q684.892 210.719 689.128 210.719 Q691.581 210.719 693.873 210.118 Q696.188 209.516 698.456 208.312 L698.456 212.34 Q696.165 213.312 693.757 213.821 Q691.35 214.33 688.873 214.33 Q682.669 214.33 679.035 210.719 Q675.424 207.108 675.424 200.951 Q675.424 194.585 678.85 190.858 Q682.299 187.108 688.132 187.108 Q693.364 187.108 696.396 190.488 Q699.452 193.844 699.452 199.631 M695.193 198.381 Q695.146 194.886 693.225 192.803 Q691.327 190.719 688.179 190.719 Q684.614 190.719 682.461 192.733 Q680.331 194.747 680.007 198.405 L695.193 198.381 Z" fill="#000000" fill-rule="nonzero" fill-opacity="1" /><path clip-path="url(#clip660)" d="M721.466 191.715 Q720.748 191.298 719.891 191.113 Q719.058 190.905 718.04 190.905 Q714.429 190.905 712.484 193.266 Q710.563 195.604 710.563 200.002 L710.563 213.659 L706.28 213.659 L706.28 187.733 L710.563 187.733 L710.563 191.761 Q711.905 189.4 714.058 188.266 Q716.211 187.108 719.29 187.108 Q719.729 187.108 720.262 187.178 Q720.794 187.224 721.442 187.34 L721.466 191.715 Z" fill="#000000" fill-rule="nonzero" fill-opacity="1" /><path clip-path="url(#clip660)" d="M740.123 191.715 Q739.405 191.298 738.549 191.113 Q737.715 190.905 736.697 190.905 Q733.086 190.905 731.141 193.266 Q729.22 195.604 729.22 200.002 L729.22 213.659 L724.938 213.659 L724.938 187.733 L729.22 187.733 L729.22 191.761 Q730.563 189.4 732.715 188.266 Q734.868 187.108 737.947 187.108 Q738.387 187.108 738.919 187.178 Q739.452 187.224 740.1 187.34 L740.123 191.715 Z" fill="#000000" fill-rule="nonzero" fill-opacity="1" /><path clip-path="url(#clip660)" d="M753.595 190.719 Q750.169 190.719 748.178 193.405 Q746.188 196.067 746.188 200.719 Q746.188 205.372 748.155 208.057 Q750.146 210.719 753.595 210.719 Q756.998 210.719 758.988 208.034 Q760.979 205.349 760.979 200.719 Q760.979 196.113 758.988 193.428 Q756.998 190.719 753.595 190.719 M753.595 187.108 Q759.151 187.108 762.322 190.719 Q765.493 194.331 765.493 200.719 Q765.493 207.085 762.322 210.719 Q759.151 214.33 753.595 214.33 Q748.016 214.33 744.845 210.719 Q741.697 207.085 741.697 200.719 Q741.697 194.331 744.845 190.719 Q748.016 187.108 753.595 187.108 Z" fill="#000000" fill-rule="nonzero" fill-opacity="1" /><path clip-path="url(#clip660)" d="M787.576 191.715 Q786.859 191.298 786.002 191.113 Q785.169 190.905 784.15 190.905 Q780.539 190.905 778.595 193.266 Q776.674 195.604 776.674 200.002 L776.674 213.659 L772.391 213.659 L772.391 187.733 L776.674 187.733 L776.674 191.761 Q778.016 189.4 780.169 188.266 Q782.322 187.108 785.4 187.108 Q785.84 187.108 786.373 187.178 Q786.905 187.224 787.553 187.34 L787.576 191.715 Z" fill="#000000" fill-rule="nonzero" fill-opacity="1" /><path clip-path="url(#clip660)" d="M808.572 188.497 L808.572 192.525 Q806.766 191.599 804.822 191.136 Q802.877 190.673 800.794 190.673 Q797.623 190.673 796.025 191.645 Q794.451 192.618 794.451 194.562 Q794.451 196.044 795.586 196.9 Q796.72 197.733 800.146 198.497 L801.604 198.821 Q806.141 199.794 808.039 201.576 Q809.96 203.335 809.96 206.506 Q809.96 210.118 807.09 212.224 Q804.243 214.33 799.243 214.33 Q797.16 214.33 794.891 213.914 Q792.646 213.52 790.146 212.71 L790.146 208.312 Q792.507 209.539 794.798 210.164 Q797.09 210.766 799.335 210.766 Q802.345 210.766 803.965 209.747 Q805.585 208.706 805.585 206.831 Q805.585 205.094 804.405 204.168 Q803.248 203.243 799.289 202.386 L797.808 202.039 Q793.849 201.206 792.09 199.493 Q790.331 197.756 790.331 194.747 Q790.331 191.09 792.923 189.099 Q795.516 187.108 800.285 187.108 Q802.646 187.108 804.729 187.456 Q806.812 187.803 808.572 188.497 Z" fill="#000000" fill-rule="nonzero" fill-opacity="1" /></svg>
