<?xml version="1.0" encoding="utf-8"?>
<svg xmlns="http://www.w3.org/2000/svg" xmlns:xlink="http://www.w3.org/1999/xlink" width="600" height="400" viewBox="0 0 2400 1600">
<defs>
  <clipPath id="clip780">
    <rect x="0" y="0" width="2400" height="1600"/>
  </clipPath>
</defs>
<path clip-path="url(#clip780)" d="M0 1600 L2400 1600 L2400 0 L0 0  Z" fill="#ffffff" fill-rule="evenodd" fill-opacity="1"/>
<defs>
  <clipPath id="clip781">
    <rect x="480" y="0" width="1681" height="1600"/>
  </clipPath>
</defs>
<path clip-path="url(#clip780)" d="M257.69 1423.18 L2352.76 1423.18 L2352.76 47.2441 L257.69 47.2441  Z" fill="#ffffff" fill-rule="evenodd" fill-opacity="1"/>
<defs>
  <clipPath id="clip782">
    <rect x="257" y="47" width="2096" height="1377"/>
  </clipPath>
</defs>
<polyline clip-path="url(#clip782)" style="stroke:#000000; stroke-linecap:round; stroke-linejoin:round; stroke-width:2; stroke-opacity:0.1; fill:none" points="316.984,1423.18 316.984,47.2441 "/>
<polyline clip-path="url(#clip782)" style="stroke:#000000; stroke-linecap:round; stroke-linejoin:round; stroke-width:2; stroke-opacity:0.1; fill:none" points="811.104,1423.18 811.104,47.2441 "/>
<polyline clip-path="url(#clip782)" style="stroke:#000000; stroke-linecap:round; stroke-linejoin:round; stroke-width:2; stroke-opacity:0.1; fill:none" points="1305.22,1423.18 1305.22,47.2441 "/>
<polyline clip-path="url(#clip782)" style="stroke:#000000; stroke-linecap:round; stroke-linejoin:round; stroke-width:2; stroke-opacity:0.1; fill:none" points="1799.34,1423.18 1799.34,47.2441 "/>
<polyline clip-path="url(#clip782)" style="stroke:#000000; stroke-linecap:round; stroke-linejoin:round; stroke-width:2; stroke-opacity:0.1; fill:none" points="2293.46,1423.18 2293.46,47.2441 "/>
<polyline clip-path="url(#clip780)" style="stroke:#000000; stroke-linecap:round; stroke-linejoin:round; stroke-width:4; stroke-opacity:1; fill:none" points="257.69,1423.18 2352.76,1423.18 "/>
<polyline clip-path="url(#clip780)" style="stroke:#000000; stroke-linecap:round; stroke-linejoin:round; stroke-width:4; stroke-opacity:1; fill:none" points="316.984,1423.18 316.984,1404.28 "/>
<polyline clip-path="url(#clip780)" style="stroke:#000000; stroke-linecap:round; stroke-linejoin:round; stroke-width:4; stroke-opacity:1; fill:none" points="811.104,1423.18 811.104,1404.28 "/>
<polyline clip-path="url(#clip780)" style="stroke:#000000; stroke-linecap:round; stroke-linejoin:round; stroke-width:4; stroke-opacity:1; fill:none" points="1305.22,1423.18 1305.22,1404.28 "/>
<polyline clip-path="url(#clip780)" style="stroke:#000000; stroke-linecap:round; stroke-linejoin:round; stroke-width:4; stroke-opacity:1; fill:none" points="1799.34,1423.18 1799.34,1404.28 "/>
<polyline clip-path="url(#clip780)" style="stroke:#000000; stroke-linecap:round; stroke-linejoin:round; stroke-width:4; stroke-opacity:1; fill:none" points="2293.46,1423.18 2293.46,1404.28 "/>
<path clip-path="url(#clip780)" d="M279.288 1454.1 Q275.677 1454.1 273.848 1457.66 Q272.043 1461.2 272.043 1468.33 Q272.043 1475.44 273.848 1479.01 Q275.677 1482.55 279.288 1482.55 Q282.922 1482.55 284.728 1479.01 Q286.556 1475.44 286.556 1468.33 Q286.556 1461.2 284.728 1457.66 Q282.922 1454.1 279.288 1454.1 M279.288 1450.39 Q285.098 1450.39 288.154 1455 Q291.232 1459.58 291.232 1468.33 Q291.232 1477.06 288.154 1481.67 Q285.098 1486.25 279.288 1486.25 Q273.478 1486.25 270.399 1481.67 Q267.344 1477.06 267.344 1468.33 Q267.344 1459.58 270.399 1455 Q273.478 1450.39 279.288 1450.39 Z" fill="#000000" fill-rule="nonzero" fill-opacity="1" /><path clip-path="url(#clip780)" d="M299.45 1479.7 L304.334 1479.7 L304.334 1485.58 L299.45 1485.58 L299.45 1479.7 Z" fill="#000000" fill-rule="nonzero" fill-opacity="1" /><path clip-path="url(#clip780)" d="M324.519 1454.1 Q320.908 1454.1 319.079 1457.66 Q317.274 1461.2 317.274 1468.33 Q317.274 1475.44 319.079 1479.01 Q320.908 1482.55 324.519 1482.55 Q328.153 1482.55 329.959 1479.01 Q331.788 1475.44 331.788 1468.33 Q331.788 1461.2 329.959 1457.66 Q328.153 1454.1 324.519 1454.1 M324.519 1450.39 Q330.329 1450.39 333.385 1455 Q336.464 1459.58 336.464 1468.33 Q336.464 1477.06 333.385 1481.67 Q330.329 1486.25 324.519 1486.25 Q318.709 1486.25 315.63 1481.67 Q312.575 1477.06 312.575 1468.33 Q312.575 1459.58 315.63 1455 Q318.709 1450.39 324.519 1450.39 Z" fill="#000000" fill-rule="nonzero" fill-opacity="1" /><path clip-path="url(#clip780)" d="M354.681 1454.1 Q351.07 1454.1 349.241 1457.66 Q347.436 1461.2 347.436 1468.33 Q347.436 1475.44 349.241 1479.01 Q351.07 1482.55 354.681 1482.55 Q358.315 1482.55 360.121 1479.01 Q361.949 1475.44 361.949 1468.33 Q361.949 1461.2 360.121 1457.66 Q358.315 1454.1 354.681 1454.1 M354.681 1450.39 Q360.491 1450.39 363.547 1455 Q366.625 1459.58 366.625 1468.33 Q366.625 1477.06 363.547 1481.67 Q360.491 1486.25 354.681 1486.25 Q348.871 1486.25 345.792 1481.67 Q342.737 1477.06 342.737 1468.33 Q342.737 1459.58 345.792 1455 Q348.871 1450.39 354.681 1450.39 Z" fill="#000000" fill-rule="nonzero" fill-opacity="1" /><path clip-path="url(#clip780)" d="M773.905 1454.1 Q770.294 1454.1 768.465 1457.66 Q766.66 1461.2 766.66 1468.33 Q766.66 1475.44 768.465 1479.01 Q770.294 1482.55 773.905 1482.55 Q777.539 1482.55 779.345 1479.01 Q781.173 1475.44 781.173 1468.33 Q781.173 1461.2 779.345 1457.66 Q777.539 1454.1 773.905 1454.1 M773.905 1450.39 Q779.715 1450.39 782.771 1455 Q785.849 1459.58 785.849 1468.33 Q785.849 1477.06 782.771 1481.67 Q779.715 1486.25 773.905 1486.25 Q768.095 1486.25 765.016 1481.67 Q761.96 1477.06 761.96 1468.33 Q761.96 1459.58 765.016 1455 Q768.095 1450.39 773.905 1450.39 Z" fill="#000000" fill-rule="nonzero" fill-opacity="1" /><path clip-path="url(#clip780)" d="M794.067 1479.7 L798.951 1479.7 L798.951 1485.58 L794.067 1485.58 L794.067 1479.7 Z" fill="#000000" fill-rule="nonzero" fill-opacity="1" /><path clip-path="url(#clip780)" d="M813.164 1481.64 L829.483 1481.64 L829.483 1485.58 L807.539 1485.58 L807.539 1481.64 Q810.201 1478.89 814.784 1474.26 Q819.391 1469.61 820.571 1468.27 Q822.817 1465.74 823.696 1464.01 Q824.599 1462.25 824.599 1460.56 Q824.599 1457.8 822.655 1456.07 Q820.733 1454.33 817.631 1454.33 Q815.432 1454.33 812.979 1455.09 Q810.548 1455.86 807.77 1457.41 L807.77 1452.69 Q810.594 1451.55 813.048 1450.97 Q815.502 1450.39 817.539 1450.39 Q822.909 1450.39 826.104 1453.08 Q829.298 1455.77 829.298 1460.26 Q829.298 1462.39 828.488 1464.31 Q827.701 1466.2 825.594 1468.8 Q825.016 1469.47 821.914 1472.69 Q818.812 1475.88 813.164 1481.64 Z" fill="#000000" fill-rule="nonzero" fill-opacity="1" /><path clip-path="url(#clip780)" d="M839.344 1451.02 L857.701 1451.02 L857.701 1454.96 L843.627 1454.96 L843.627 1463.43 Q844.645 1463.08 845.664 1462.92 Q846.682 1462.73 847.701 1462.73 Q853.488 1462.73 856.867 1465.9 Q860.247 1469.08 860.247 1474.49 Q860.247 1480.07 856.775 1483.17 Q853.303 1486.25 846.983 1486.25 Q844.807 1486.25 842.539 1485.88 Q840.293 1485.51 837.886 1484.77 L837.886 1480.07 Q839.969 1481.2 842.192 1481.76 Q844.414 1482.32 846.891 1482.32 Q850.895 1482.32 853.233 1480.21 Q855.571 1478.1 855.571 1474.49 Q855.571 1470.88 853.233 1468.77 Q850.895 1466.67 846.891 1466.67 Q845.016 1466.67 843.141 1467.08 Q841.289 1467.5 839.344 1468.38 L839.344 1451.02 Z" fill="#000000" fill-rule="nonzero" fill-opacity="1" /><path clip-path="url(#clip780)" d="M1267.53 1454.1 Q1263.92 1454.1 1262.09 1457.66 Q1260.28 1461.2 1260.28 1468.33 Q1260.28 1475.44 1262.09 1479.01 Q1263.92 1482.55 1267.53 1482.55 Q1271.16 1482.55 1272.97 1479.01 Q1274.79 1475.44 1274.79 1468.33 Q1274.79 1461.2 1272.97 1457.66 Q1271.16 1454.1 1267.53 1454.1 M1267.53 1450.39 Q1273.34 1450.39 1276.39 1455 Q1279.47 1459.58 1279.47 1468.33 Q1279.47 1477.06 1276.39 1481.67 Q1273.34 1486.25 1267.53 1486.25 Q1261.72 1486.25 1258.64 1481.67 Q1255.58 1477.06 1255.58 1468.33 Q1255.58 1459.58 1258.64 1455 Q1261.72 1450.39 1267.53 1450.39 Z" fill="#000000" fill-rule="nonzero" fill-opacity="1" /><path clip-path="url(#clip780)" d="M1287.69 1479.7 L1292.57 1479.7 L1292.57 1485.58 L1287.69 1485.58 L1287.69 1479.7 Z" fill="#000000" fill-rule="nonzero" fill-opacity="1" /><path clip-path="url(#clip780)" d="M1302.8 1451.02 L1321.16 1451.02 L1321.16 1454.96 L1307.09 1454.96 L1307.09 1463.43 Q1308.1 1463.08 1309.12 1462.92 Q1310.14 1462.73 1311.16 1462.73 Q1316.95 1462.73 1320.33 1465.9 Q1323.71 1469.08 1323.71 1474.49 Q1323.71 1480.07 1320.23 1483.17 Q1316.76 1486.25 1310.44 1486.25 Q1308.27 1486.25 1306 1485.88 Q1303.75 1485.51 1301.35 1484.77 L1301.35 1480.07 Q1303.43 1481.2 1305.65 1481.76 Q1307.87 1482.32 1310.35 1482.32 Q1314.35 1482.32 1316.69 1480.21 Q1319.03 1478.1 1319.03 1474.49 Q1319.03 1470.88 1316.69 1468.77 Q1314.35 1466.67 1310.35 1466.67 Q1308.48 1466.67 1306.6 1467.08 Q1304.75 1467.5 1302.8 1468.38 L1302.8 1451.02 Z" fill="#000000" fill-rule="nonzero" fill-opacity="1" /><path clip-path="url(#clip780)" d="M1342.92 1454.1 Q1339.31 1454.1 1337.48 1457.66 Q1335.67 1461.2 1335.67 1468.33 Q1335.67 1475.44 1337.48 1479.01 Q1339.31 1482.55 1342.92 1482.55 Q1346.55 1482.55 1348.36 1479.01 Q1350.19 1475.44 1350.19 1468.33 Q1350.19 1461.2 1348.36 1457.66 Q1346.55 1454.1 1342.92 1454.1 M1342.92 1450.39 Q1348.73 1450.39 1351.79 1455 Q1354.86 1459.58 1354.86 1468.33 Q1354.86 1477.06 1351.79 1481.67 Q1348.73 1486.25 1342.92 1486.25 Q1337.11 1486.25 1334.03 1481.67 Q1330.98 1477.06 1330.98 1468.33 Q1330.98 1459.58 1334.03 1455 Q1337.11 1450.39 1342.92 1450.39 Z" fill="#000000" fill-rule="nonzero" fill-opacity="1" /><path clip-path="url(#clip780)" d="M1762.14 1454.1 Q1758.53 1454.1 1756.7 1457.66 Q1754.9 1461.2 1754.9 1468.33 Q1754.9 1475.44 1756.7 1479.01 Q1758.53 1482.55 1762.14 1482.55 Q1765.78 1482.55 1767.58 1479.01 Q1769.41 1475.44 1769.41 1468.33 Q1769.41 1461.2 1767.58 1457.66 Q1765.78 1454.1 1762.14 1454.1 M1762.14 1450.39 Q1767.95 1450.39 1771.01 1455 Q1774.09 1459.58 1774.09 1468.33 Q1774.09 1477.06 1771.01 1481.67 Q1767.95 1486.25 1762.14 1486.25 Q1756.33 1486.25 1753.25 1481.67 Q1750.2 1477.06 1750.2 1468.33 Q1750.2 1459.58 1753.25 1455 Q1756.33 1450.39 1762.14 1450.39 Z" fill="#000000" fill-rule="nonzero" fill-opacity="1" /><path clip-path="url(#clip780)" d="M1782.31 1479.7 L1787.19 1479.7 L1787.19 1485.58 L1782.31 1485.58 L1782.31 1479.7 Z" fill="#000000" fill-rule="nonzero" fill-opacity="1" /><path clip-path="url(#clip780)" d="M1796.19 1451.02 L1818.42 1451.02 L1818.42 1453.01 L1805.87 1485.58 L1800.99 1485.58 L1812.79 1454.96 L1796.19 1454.96 L1796.19 1451.02 Z" fill="#000000" fill-rule="nonzero" fill-opacity="1" /><path clip-path="url(#clip780)" d="M1827.58 1451.02 L1845.94 1451.02 L1845.94 1454.96 L1831.87 1454.96 L1831.87 1463.43 Q1832.88 1463.08 1833.9 1462.92 Q1834.92 1462.73 1835.94 1462.73 Q1841.73 1462.73 1845.11 1465.9 Q1848.49 1469.08 1848.49 1474.49 Q1848.49 1480.07 1845.01 1483.17 Q1841.54 1486.25 1835.22 1486.25 Q1833.05 1486.25 1830.78 1485.88 Q1828.53 1485.51 1826.12 1484.77 L1826.12 1480.07 Q1828.21 1481.2 1830.43 1481.76 Q1832.65 1482.32 1835.13 1482.32 Q1839.13 1482.32 1841.47 1480.21 Q1843.81 1478.1 1843.81 1474.49 Q1843.81 1470.88 1841.47 1468.77 Q1839.13 1466.67 1835.13 1466.67 Q1833.25 1466.67 1831.38 1467.08 Q1829.53 1467.5 1827.58 1468.38 L1827.58 1451.02 Z" fill="#000000" fill-rule="nonzero" fill-opacity="1" /><path clip-path="url(#clip780)" d="M2245.53 1481.64 L2253.17 1481.64 L2253.17 1455.28 L2244.86 1456.95 L2244.86 1452.69 L2253.13 1451.02 L2257.8 1451.02 L2257.8 1481.64 L2265.44 1481.64 L2265.44 1485.58 L2245.53 1485.58 L2245.53 1481.64 Z" fill="#000000" fill-rule="nonzero" fill-opacity="1" /><path clip-path="url(#clip780)" d="M2274.89 1479.7 L2279.77 1479.7 L2279.77 1485.58 L2274.89 1485.58 L2274.89 1479.7 Z" fill="#000000" fill-rule="nonzero" fill-opacity="1" /><path clip-path="url(#clip780)" d="M2299.95 1454.1 Q2296.34 1454.1 2294.51 1457.66 Q2292.71 1461.2 2292.71 1468.33 Q2292.71 1475.44 2294.51 1479.01 Q2296.34 1482.55 2299.95 1482.55 Q2303.59 1482.55 2305.39 1479.01 Q2307.22 1475.44 2307.22 1468.33 Q2307.22 1461.2 2305.39 1457.66 Q2303.59 1454.1 2299.95 1454.1 M2299.95 1450.39 Q2305.76 1450.39 2308.82 1455 Q2311.9 1459.58 2311.9 1468.33 Q2311.9 1477.06 2308.82 1481.67 Q2305.76 1486.25 2299.95 1486.25 Q2294.14 1486.25 2291.07 1481.67 Q2288.01 1477.06 2288.01 1468.33 Q2288.01 1459.58 2291.07 1455 Q2294.14 1450.39 2299.95 1450.39 Z" fill="#000000" fill-rule="nonzero" fill-opacity="1" /><path clip-path="url(#clip780)" d="M2330.12 1454.1 Q2326.51 1454.1 2324.68 1457.66 Q2322.87 1461.2 2322.87 1468.33 Q2322.87 1475.44 2324.68 1479.01 Q2326.51 1482.55 2330.12 1482.55 Q2333.75 1482.55 2335.56 1479.01 Q2337.38 1475.44 2337.38 1468.33 Q2337.38 1461.2 2335.56 1457.66 Q2333.75 1454.1 2330.12 1454.1 M2330.12 1450.39 Q2335.93 1450.39 2338.98 1455 Q2342.06 1459.58 2342.06 1468.33 Q2342.06 1477.06 2338.98 1481.67 Q2335.93 1486.25 2330.12 1486.25 Q2324.31 1486.25 2321.23 1481.67 Q2318.17 1477.06 2318.17 1468.33 Q2318.17 1459.58 2321.23 1455 Q2324.31 1450.39 2330.12 1450.39 Z" fill="#000000" fill-rule="nonzero" fill-opacity="1" /><path clip-path="url(#clip780)" d="M1313.69 1531.91 Q1313.69 1532.81 1313.28 1533.04 Q1312.86 1533.23 1311.7 1533.23 L1305.51 1533.23 L1300.62 1552.69 Q1300.23 1554.39 1300.23 1555.84 Q1300.23 1557.45 1300.72 1558.16 Q1301.23 1558.87 1302.29 1558.87 Q1304.39 1558.87 1306.64 1556.97 Q1308.93 1555.07 1310.86 1550.43 Q1311.12 1549.82 1311.25 1549.69 Q1311.41 1549.53 1311.83 1549.53 Q1312.63 1549.53 1312.63 1550.17 Q1312.63 1550.4 1312.18 1551.43 Q1311.76 1552.46 1310.83 1553.97 Q1309.93 1555.49 1308.73 1556.9 Q1307.57 1558.32 1305.8 1559.35 Q1304.03 1560.35 1302.13 1560.35 Q1299.46 1560.35 1297.75 1558.64 Q1296.08 1556.94 1296.08 1554.26 Q1296.08 1553.39 1296.75 1550.62 Q1297.43 1547.82 1301.1 1533.23 L1295.27 1533.23 Q1294.47 1533.23 1294.15 1533.2 Q1293.86 1533.17 1293.63 1533.01 Q1293.44 1532.81 1293.44 1532.43 Q1293.44 1531.82 1293.69 1531.56 Q1293.95 1531.27 1294.27 1531.24 Q1294.63 1531.17 1295.43 1531.17 L1301.62 1531.17 L1304.19 1520.71 Q1304.45 1519.67 1305.1 1519.09 Q1305.77 1518.48 1306.16 1518.42 Q1306.54 1518.32 1306.83 1518.32 Q1307.7 1518.32 1308.22 1518.81 Q1308.73 1519.26 1308.73 1520.09 Q1308.73 1520.54 1306.03 1531.17 L1311.83 1531.17 Q1312.57 1531.17 1312.86 1531.2 Q1313.18 1531.24 1313.44 1531.4 Q1313.69 1531.56 1313.69 1531.91 Z" fill="#000000" fill-rule="nonzero" fill-opacity="1" /><polyline clip-path="url(#clip782)" style="stroke:#000000; stroke-linecap:round; stroke-linejoin:round; stroke-width:2; stroke-opacity:0.1; fill:none" points="257.69,1292.25 2352.76,1292.25 "/>
<polyline clip-path="url(#clip782)" style="stroke:#000000; stroke-linecap:round; stroke-linejoin:round; stroke-width:2; stroke-opacity:0.1; fill:none" points="257.69,990.73 2352.76,990.73 "/>
<polyline clip-path="url(#clip782)" style="stroke:#000000; stroke-linecap:round; stroke-linejoin:round; stroke-width:2; stroke-opacity:0.1; fill:none" points="257.69,689.216 2352.76,689.216 "/>
<polyline clip-path="url(#clip782)" style="stroke:#000000; stroke-linecap:round; stroke-linejoin:round; stroke-width:2; stroke-opacity:0.1; fill:none" points="257.69,387.701 2352.76,387.701 "/>
<polyline clip-path="url(#clip782)" style="stroke:#000000; stroke-linecap:round; stroke-linejoin:round; stroke-width:2; stroke-opacity:0.1; fill:none" points="257.69,86.1857 2352.76,86.1857 "/>
<polyline clip-path="url(#clip780)" style="stroke:#000000; stroke-linecap:round; stroke-linejoin:round; stroke-width:4; stroke-opacity:1; fill:none" points="257.69,1423.18 257.69,47.2441 "/>
<polyline clip-path="url(#clip780)" style="stroke:#000000; stroke-linecap:round; stroke-linejoin:round; stroke-width:4; stroke-opacity:1; fill:none" points="257.69,1292.25 276.588,1292.25 "/>
<polyline clip-path="url(#clip780)" style="stroke:#000000; stroke-linecap:round; stroke-linejoin:round; stroke-width:4; stroke-opacity:1; fill:none" points="257.69,990.73 276.588,990.73 "/>
<polyline clip-path="url(#clip780)" style="stroke:#000000; stroke-linecap:round; stroke-linejoin:round; stroke-width:4; stroke-opacity:1; fill:none" points="257.69,689.216 276.588,689.216 "/>
<polyline clip-path="url(#clip780)" style="stroke:#000000; stroke-linecap:round; stroke-linejoin:round; stroke-width:4; stroke-opacity:1; fill:none" points="257.69,387.701 276.588,387.701 "/>
<polyline clip-path="url(#clip780)" style="stroke:#000000; stroke-linecap:round; stroke-linejoin:round; stroke-width:4; stroke-opacity:1; fill:none" points="257.69,86.1857 276.588,86.1857 "/>
<path clip-path="url(#clip780)" d="M114.839 1292.7 L144.515 1292.7 L144.515 1296.63 L114.839 1296.63 L114.839 1292.7 Z" fill="#000000" fill-rule="nonzero" fill-opacity="1" /><path clip-path="url(#clip780)" d="M164.607 1278.04 Q160.996 1278.04 159.167 1281.61 Q157.362 1285.15 157.362 1292.28 Q157.362 1299.39 159.167 1302.95 Q160.996 1306.49 164.607 1306.49 Q168.241 1306.49 170.047 1302.95 Q171.876 1299.39 171.876 1292.28 Q171.876 1285.15 170.047 1281.61 Q168.241 1278.04 164.607 1278.04 M164.607 1274.34 Q170.417 1274.34 173.473 1278.95 Q176.551 1283.53 176.551 1292.28 Q176.551 1301.01 173.473 1305.61 Q170.417 1310.2 164.607 1310.2 Q158.797 1310.2 155.718 1305.61 Q152.663 1301.01 152.663 1292.28 Q152.663 1283.53 155.718 1278.95 Q158.797 1274.34 164.607 1274.34 Z" fill="#000000" fill-rule="nonzero" fill-opacity="1" /><path clip-path="url(#clip780)" d="M184.769 1303.65 L189.653 1303.65 L189.653 1309.53 L184.769 1309.53 L184.769 1303.65 Z" fill="#000000" fill-rule="nonzero" fill-opacity="1" /><path clip-path="url(#clip780)" d="M209.838 1293.11 Q206.505 1293.11 204.584 1294.9 Q202.686 1296.68 202.686 1299.8 Q202.686 1302.93 204.584 1304.71 Q206.505 1306.49 209.838 1306.49 Q213.172 1306.49 215.093 1304.71 Q217.014 1302.91 217.014 1299.8 Q217.014 1296.68 215.093 1294.9 Q213.195 1293.11 209.838 1293.11 M205.162 1291.12 Q202.153 1290.38 200.463 1288.32 Q198.797 1286.26 198.797 1283.3 Q198.797 1279.16 201.737 1276.75 Q204.699 1274.34 209.838 1274.34 Q215 1274.34 217.94 1276.75 Q220.88 1279.16 220.88 1283.3 Q220.88 1286.26 219.19 1288.32 Q217.523 1290.38 214.537 1291.12 Q217.917 1291.91 219.792 1294.2 Q221.69 1296.49 221.69 1299.8 Q221.69 1304.83 218.611 1307.51 Q215.556 1310.2 209.838 1310.2 Q204.121 1310.2 201.042 1307.51 Q197.987 1304.83 197.987 1299.8 Q197.987 1296.49 199.885 1294.2 Q201.783 1291.91 205.162 1291.12 M203.449 1283.74 Q203.449 1286.42 205.116 1287.93 Q206.806 1289.43 209.838 1289.43 Q212.848 1289.43 214.537 1287.93 Q216.25 1286.42 216.25 1283.74 Q216.25 1281.05 214.537 1279.55 Q212.848 1278.04 209.838 1278.04 Q206.806 1278.04 205.116 1279.55 Q203.449 1281.05 203.449 1283.74 Z" fill="#000000" fill-rule="nonzero" fill-opacity="1" /><path clip-path="url(#clip780)" d="M114.584 991.182 L144.26 991.182 L144.26 995.117 L114.584 995.117 L114.584 991.182 Z" fill="#000000" fill-rule="nonzero" fill-opacity="1" /><path clip-path="url(#clip780)" d="M164.352 976.529 Q160.741 976.529 158.913 980.094 Q157.107 983.636 157.107 990.765 Q157.107 997.872 158.913 1001.44 Q160.741 1004.98 164.352 1004.98 Q167.987 1004.98 169.792 1001.44 Q171.621 997.872 171.621 990.765 Q171.621 983.636 169.792 980.094 Q167.987 976.529 164.352 976.529 M164.352 972.825 Q170.163 972.825 173.218 977.432 Q176.297 982.015 176.297 990.765 Q176.297 999.492 173.218 1004.1 Q170.163 1008.68 164.352 1008.68 Q158.542 1008.68 155.464 1004.1 Q152.408 999.492 152.408 990.765 Q152.408 982.015 155.464 977.432 Q158.542 972.825 164.352 972.825 Z" fill="#000000" fill-rule="nonzero" fill-opacity="1" /><path clip-path="url(#clip780)" d="M184.514 1002.13 L189.399 1002.13 L189.399 1008.01 L184.514 1008.01 L184.514 1002.13 Z" fill="#000000" fill-rule="nonzero" fill-opacity="1" /><path clip-path="url(#clip780)" d="M210.162 988.867 Q207.014 988.867 205.162 991.02 Q203.334 993.173 203.334 996.923 Q203.334 1000.65 205.162 1002.83 Q207.014 1004.98 210.162 1004.98 Q213.311 1004.98 215.139 1002.83 Q216.991 1000.65 216.991 996.923 Q216.991 993.173 215.139 991.02 Q213.311 988.867 210.162 988.867 M219.445 974.214 L219.445 978.474 Q217.686 977.64 215.88 977.2 Q214.098 976.761 212.338 976.761 Q207.709 976.761 205.255 979.886 Q202.824 983.011 202.477 989.33 Q203.843 987.316 205.903 986.251 Q207.963 985.163 210.44 985.163 Q215.649 985.163 218.658 988.335 Q221.69 991.483 221.69 996.923 Q221.69 1002.25 218.542 1005.46 Q215.394 1008.68 210.162 1008.68 Q204.167 1008.68 200.996 1004.1 Q197.825 999.492 197.825 990.765 Q197.825 982.571 201.713 977.71 Q205.602 972.825 212.153 972.825 Q213.912 972.825 215.695 973.173 Q217.5 973.52 219.445 974.214 Z" fill="#000000" fill-rule="nonzero" fill-opacity="1" /><path clip-path="url(#clip780)" d="M114.26 689.667 L143.936 689.667 L143.936 693.602 L114.26 693.602 L114.26 689.667 Z" fill="#000000" fill-rule="nonzero" fill-opacity="1" /><path clip-path="url(#clip780)" d="M164.028 675.014 Q160.417 675.014 158.589 678.579 Q156.783 682.121 156.783 689.25 Q156.783 696.357 158.589 699.921 Q160.417 703.463 164.028 703.463 Q167.663 703.463 169.468 699.921 Q171.297 696.357 171.297 689.25 Q171.297 682.121 169.468 678.579 Q167.663 675.014 164.028 675.014 M164.028 671.311 Q169.839 671.311 172.894 675.917 Q175.973 680.5 175.973 689.25 Q175.973 697.977 172.894 702.584 Q169.839 707.167 164.028 707.167 Q158.218 707.167 155.14 702.584 Q152.084 697.977 152.084 689.25 Q152.084 680.5 155.14 675.917 Q158.218 671.311 164.028 671.311 Z" fill="#000000" fill-rule="nonzero" fill-opacity="1" /><path clip-path="url(#clip780)" d="M184.19 700.616 L189.075 700.616 L189.075 706.496 L184.19 706.496 L184.19 700.616 Z" fill="#000000" fill-rule="nonzero" fill-opacity="1" /><path clip-path="url(#clip780)" d="M212.107 676.01 L200.301 694.459 L212.107 694.459 L212.107 676.01 M210.88 671.936 L216.76 671.936 L216.76 694.459 L221.69 694.459 L221.69 698.347 L216.76 698.347 L216.76 706.496 L212.107 706.496 L212.107 698.347 L196.505 698.347 L196.505 693.834 L210.88 671.936 Z" fill="#000000" fill-rule="nonzero" fill-opacity="1" /><path clip-path="url(#clip780)" d="M116.343 388.152 L146.019 388.152 L146.019 392.087 L116.343 392.087 L116.343 388.152 Z" fill="#000000" fill-rule="nonzero" fill-opacity="1" /><path clip-path="url(#clip780)" d="M166.112 373.499 Q162.501 373.499 160.672 377.064 Q158.866 380.606 158.866 387.735 Q158.866 394.842 160.672 398.407 Q162.501 401.948 166.112 401.948 Q169.746 401.948 171.552 398.407 Q173.38 394.842 173.38 387.735 Q173.38 380.606 171.552 377.064 Q169.746 373.499 166.112 373.499 M166.112 369.796 Q171.922 369.796 174.977 374.402 Q178.056 378.985 178.056 387.735 Q178.056 396.462 174.977 401.069 Q171.922 405.652 166.112 405.652 Q160.302 405.652 157.223 401.069 Q154.167 396.462 154.167 387.735 Q154.167 378.985 157.223 374.402 Q160.302 369.796 166.112 369.796 Z" fill="#000000" fill-rule="nonzero" fill-opacity="1" /><path clip-path="url(#clip780)" d="M186.274 399.101 L191.158 399.101 L191.158 404.981 L186.274 404.981 L186.274 399.101 Z" fill="#000000" fill-rule="nonzero" fill-opacity="1" /><path clip-path="url(#clip780)" d="M205.371 401.045 L221.69 401.045 L221.69 404.981 L199.746 404.981 L199.746 401.045 Q202.408 398.291 206.991 393.661 Q211.598 389.008 212.778 387.666 Q215.024 385.143 215.903 383.407 Q216.806 381.647 216.806 379.958 Q216.806 377.203 214.861 375.467 Q212.94 373.731 209.838 373.731 Q207.639 373.731 205.186 374.495 Q202.755 375.259 199.977 376.809 L199.977 372.087 Q202.801 370.953 205.255 370.374 Q207.709 369.796 209.746 369.796 Q215.116 369.796 218.311 372.481 Q221.505 375.166 221.505 379.657 Q221.505 381.786 220.695 383.708 Q219.908 385.606 217.801 388.198 Q217.223 388.87 214.121 392.087 Q211.019 395.282 205.371 401.045 Z" fill="#000000" fill-rule="nonzero" fill-opacity="1" /><path clip-path="url(#clip780)" d="M164.515 71.9844 Q160.903 71.9844 159.075 75.5492 Q157.269 79.0908 157.269 86.2204 Q157.269 93.3268 159.075 96.8916 Q160.903 100.433 164.515 100.433 Q168.149 100.433 169.954 96.8916 Q171.783 93.3268 171.783 86.2204 Q171.783 79.0908 169.954 75.5492 Q168.149 71.9844 164.515 71.9844 M164.515 68.2807 Q170.325 68.2807 173.38 72.8871 Q176.459 77.4704 176.459 86.2204 Q176.459 94.9472 173.38 99.5537 Q170.325 104.137 164.515 104.137 Q158.704 104.137 155.626 99.5537 Q152.57 94.9472 152.57 86.2204 Q152.57 77.4704 155.626 72.8871 Q158.704 68.2807 164.515 68.2807 Z" fill="#000000" fill-rule="nonzero" fill-opacity="1" /><path clip-path="url(#clip780)" d="M184.676 97.5861 L189.561 97.5861 L189.561 103.466 L184.676 103.466 L184.676 97.5861 Z" fill="#000000" fill-rule="nonzero" fill-opacity="1" /><path clip-path="url(#clip780)" d="M209.746 71.9844 Q206.135 71.9844 204.306 75.5492 Q202.5 79.0908 202.5 86.2204 Q202.5 93.3268 204.306 96.8916 Q206.135 100.433 209.746 100.433 Q213.38 100.433 215.186 96.8916 Q217.014 93.3268 217.014 86.2204 Q217.014 79.0908 215.186 75.5492 Q213.38 71.9844 209.746 71.9844 M209.746 68.2807 Q215.556 68.2807 218.611 72.8871 Q221.69 77.4704 221.69 86.2204 Q221.69 94.9472 218.611 99.5537 Q215.556 104.137 209.746 104.137 Q203.936 104.137 200.857 99.5537 Q197.801 94.9472 197.801 86.2204 Q197.801 77.4704 200.857 72.8871 Q203.936 68.2807 209.746 68.2807 Z" fill="#000000" fill-rule="nonzero" fill-opacity="1" /><path clip-path="url(#clip780)" d="M30.8561 720.775 Q31.307 720.775 32.3698 721.064 L57.5548 727.377 Q63.1586 728.762 67.0877 733.27 Q71.0168 737.747 71.0168 742.836 Q71.0168 745.895 69.3743 747.86 Q67.764 749.824 65.2842 749.824 Q63.0942 749.824 62.0314 748.665 Q61.0008 747.505 61.0008 746.121 Q61.0008 745.67 61.1296 745.187 Q61.2584 744.703 61.8059 744.188 Q62.3534 743.673 63.2874 743.673 Q64.8011 743.673 65.9927 744.993 Q66.5402 745.637 66.669 746.249 Q66.7978 746.829 66.7978 747.827 Q67.6996 747.441 68.3115 746.732 Q68.9234 746.024 69.1489 745.219 Q69.4065 744.414 69.4709 743.898 Q69.5675 743.351 69.5675 742.836 Q69.5675 738.713 65.413 735.557 Q64.157 734.623 62.9009 733.947 Q61.6771 733.238 60.1634 732.723 Q58.682 732.208 57.8768 731.982 Q57.0717 731.725 55.2359 731.274 Q58.2311 734.269 58.2311 737.94 Q58.2311 739.486 57.8124 740.871 Q57.3937 742.224 56.5242 743.415 Q55.6224 744.607 54.0443 745.315 Q52.4662 745.992 50.3728 745.992 Q48.1506 745.992 45.1233 745.122 Q42.0959 744.253 36.5243 742.159 Q33.4004 741.032 31.8867 741.032 Q31.146 741.032 30.6951 741.193 Q30.212 741.354 30.051 741.676 Q29.8577 741.998 29.8255 742.191 Q29.7933 742.352 29.7933 742.675 Q29.7933 744.575 31.7257 746.346 Q33.658 748.117 37.9736 749.341 Q38.7787 749.599 38.972 749.76 Q39.1652 749.921 39.1652 750.404 Q39.133 751.209 38.4889 751.209 Q38.2312 751.209 37.2329 750.919 Q36.2023 750.629 34.6886 749.953 Q33.1427 749.245 31.7579 748.278 Q30.3408 747.312 29.3424 745.798 Q28.344 744.253 28.344 742.481 Q28.344 740.066 29.9221 738.584 Q31.468 737.071 33.7546 737.071 Q34.6886 737.071 35.5259 737.328 Q36.3311 737.554 38.4889 738.391 Q47.1845 741.773 51.4356 741.773 Q52.4662 741.773 53.3358 741.612 Q54.1731 741.418 55.0105 741 Q55.8156 740.581 56.2987 739.744 Q56.7496 738.874 56.7496 737.683 Q56.7496 736.169 56.0411 734.752 Q55.3003 733.303 54.302 732.401 Q53.3036 731.467 52.4662 730.919 Q51.5967 730.34 51.1458 730.211 L39.294 727.248 L34.0123 725.927 Q31.146 725.316 30.4374 725.026 Q29.7611 724.639 29.4068 723.963 Q29.0526 723.287 29.0526 722.707 Q29.0526 721.902 29.5357 721.354 Q30.0187 720.775 30.8561 720.775 Z" fill="#000000" fill-rule="nonzero" fill-opacity="1" /><polyline clip-path="url(#clip782)" style="stroke:#e26f46; stroke-linecap:round; stroke-linejoin:round; stroke-width:8; stroke-opacity:1; fill:none" stroke-dasharray="32, 20" points="316.984,86.1857 320.845,248.367 324.705,206.406 328.565,187.08 332.426,215.82 336.286,287.46 340.146,342.828 344.007,414.591 347.867,472.155 351.727,513.378 355.588,515.902 359.448,508.42 363.308,496.266 367.168,346.364 371.029,400.018 374.889,488.141 378.749,439.909 382.61,428.809 386.47,615.153 390.33,642.074 394.191,741.294 398.051,825.78 401.911,841.415 405.772,883.285 409.632,976.752 413.492,872.347 417.352,871.757 421.213,890.013 425.073,892.645 428.933,895.797 432.794,1023.35 436.654,1112.43 440.514,1214.63 444.375,1127.7 448.235,1143.54 452.095,1120.44 455.956,1060.73 459.816,1008.78 463.676,1058.78 467.536,1076.19 471.397,1054.86 475.257,965.095 479.117,943.793 482.978,836.934 486.838,738.559 490.698,738.788 494.559,662.133 498.419,633.97 502.279,562.307 506.139,627.711 510,564.826 513.86,565.165 517.72,567.941 521.581,538.51 525.441,621.808 529.301,719.95 533.162,633.51 537.022,700.116 540.882,654.369 544.743,737.56 548.603,634.292 552.463,673.328 556.323,754.832 560.184,713.82 564.044,598.282 567.904,670.873 571.765,711.041 575.625,686.481 579.485,793.658 583.346,839.323 587.206,803.232 591.066,819.826 594.927,844.748 598.787,898.048 602.647,863.868 606.507,895.59 610.368,822.494 614.228,832.811 618.088,812.476 621.949,967.111 625.809,935.688 629.669,1028.13 633.53,1006.16 637.39,1052.48 641.25,1085.36 645.111,1176.89 648.971,1107.59 652.831,1012.39 656.691,1017.06 660.552,1024.72 664.412,1073.06 668.272,1061.82 672.133,979.979 675.993,1071.86 679.853,1005.45 683.714,1085.52 687.574,990.835 691.434,937.809 695.295,1016.98 699.155,1036.26 703.015,1032.53 706.875,1026.35 710.736,987.533 714.596,1131.16 718.456,1097.06 722.317,1076.58 726.177,1015.21 730.037,1042.1 733.898,974.358 737.758,935.901 741.618,1031.73 745.479,1029.99 749.339,1010.91 753.199,1027.99 757.059,953.259 760.92,999.127 764.78,907.023 768.64,873.552 772.501,852.249 776.361,865.525 780.221,897.596 784.082,1027.37 787.942,1006.61 791.802,1014.61 795.663,782.212 799.523,756.651 803.383,706.707 807.243,840.051 811.104,821.558 814.964,738.74 818.824,787.174 822.685,811.277 826.545,848.133 830.405,841.555 834.266,735.849 838.126,722.29 841.986,802.236 845.846,928.65 849.707,943.755 853.567,980.497 857.427,910.667 861.288,924.394 865.148,956.657 869.008,983.15 872.869,1082.99 876.729,1142.65 880.589,1123.92 884.45,1072.34 888.31,1064.37 892.17,1075.43 896.03,998.508 899.891,919.805 903.751,966.448 907.611,947.922 911.472,943.252 915.332,850.953 919.192,847.783 923.053,876.608 926.913,887.996 930.773,780.083 934.634,812.629 938.494,830.86 942.354,761.939 946.214,791.304 950.075,876.198 953.935,895.802 957.795,926.824 961.656,872.187 965.516,905.6 969.376,905.426 973.237,850.808 977.097,804.573 980.957,797.969 984.818,746.597 988.678,820.778 992.538,759.482 996.398,778.642 1000.26,766.88 1004.12,753.552 1007.98,818.623 1011.84,922.517 1015.7,986.69 1019.56,992.038 1023.42,993.704 1027.28,1082.4 1031.14,1022.65 1035,884.659 1038.86,954.647 1042.72,1004.12 1046.58,1164.77 1050.44,1178.65 1054.3,1096.67 1058.16,1110.31 1062.02,1088.92 1065.88,1087.99 1069.74,1108.88 1073.6,1056 1077.46,1191.67 1081.33,1213.8 1085.19,1177.08 1089.05,1233.55 1092.91,1121.4 1096.77,1085.23 1100.63,965.984 1104.49,931.298 1108.35,968.016 1112.21,878.923 1116.07,942.319 1119.93,919.521 1123.79,817.086 1127.65,720.526 1131.51,657.266 1135.37,695.05 1139.23,668.88 1143.09,657.631 1146.95,689.78 1150.81,662.743 1154.67,596.663 1158.53,566.989 1162.39,539.923 1166.25,504.155 1170.11,577.548 1173.97,523.174 1177.83,586.042 1181.69,748.363 1185.55,910.37 1189.41,1026.32 1193.27,989.598 1197.13,932.878 1200.99,931.3 1204.86,851.8 1208.72,773.046 1212.58,702.099 1216.44,791.836 1220.3,824.623 1224.16,824.73 1228.02,799.505 1231.88,862.352 1235.74,847.693 1239.6,970.911 1243.46,928.116 1247.32,924.615 1251.18,836.316 1255.04,852.786 1258.9,823.143 1262.76,788.098 1266.62,783.259 1270.48,841.867 1274.34,862.035 1278.2,1041.87 1282.06,1079.97 1285.92,1084.49 1289.78,1027.28 1293.64,997.683 1297.5,1087.03 1301.36,1080.77 1305.22,1249.11 1309.08,1225.76 1312.94,1384.24 1316.8,1299.74 1320.66,1193.75 1324.52,1079.27 1328.38,1011.73 1332.25,1020.94 1336.11,959.311 1339.97,895.588 1343.83,951.931 1347.69,913.154 1351.55,852.168 1355.41,852.874 1359.27,779.021 1363.13,703.756 1366.99,715.928 1370.85,691.91 1374.71,629.281 1378.57,600.917 1382.43,573.813 1386.29,529.98 1390.15,584.43 1394.01,521.164 1397.87,520.012 1401.73,586.76 1405.59,547.614 1409.45,539.67 1413.31,570.464 1417.17,637.083 1421.03,487.468 1424.89,535.475 1428.75,602.18 1432.61,674.065 1436.47,632.904 1440.33,605.062 1444.19,640.626 1448.05,617.019 1451.91,567.578 1455.77,604.279 1459.64,688.302 1463.5,690.634 1467.36,746.968 1471.22,800.24 1475.08,698.531 1478.94,746.307 1482.8,710.475 1486.66,761.46 1490.52,808.931 1494.38,750.471 1498.24,719.167 1502.1,814.161 1505.96,753.744 1509.82,708.864 1513.68,737.587 1517.54,709.948 1521.4,695.084 1525.26,647.528 1529.12,547.899 1532.98,545.819 1536.84,561.376 1540.7,622.614 1544.56,585.32 1548.42,655.116 1552.28,591.803 1556.14,580.363 1560,569.826 1563.86,590.829 1567.72,632.837 1571.58,631.037 1575.44,619.697 1579.3,612.473 1583.17,578.109 1587.03,547.539 1590.89,622.304 1594.75,604.517 1598.61,560.485 1602.47,640.323 1606.33,741.678 1610.19,710.48 1614.05,830.732 1617.91,1034.52 1621.77,1052 1625.63,1096.26 1629.49,1203.35 1633.35,1100.64 1637.21,1115.2 1641.07,1095.75 1644.93,1107.37 1648.79,1021 1652.65,999.531 1656.51,1015.74 1660.37,1007.9 1664.23,991.612 1668.09,943.53 1671.95,931.882 1675.81,1017.14 1679.67,1086.98 1683.53,946.937 1687.39,904.728 1691.25,870.667 1695.11,884.947 1698.97,726.14 1702.83,830.619 1706.69,871.396 1710.56,890.763 1714.42,888.45 1718.28,1052.18 1722.14,1130.83 1726,1056.98 1729.86,1005.99 1733.72,1014.43 1737.58,1028.66 1741.44,1030.27 1745.3,973.65 1749.16,895.402 1753.02,870.683 1756.88,877.074 1760.74,864.539 1764.6,745.815 1768.46,640.628 1772.32,668.628 1776.18,667.167 1780.04,604.114 1783.9,621.662 1787.76,579.488 1791.62,487.643 1795.48,449.015 1799.34,503.097 1803.2,567.406 1807.06,673.667 1810.92,508.704 1814.78,571.709 1818.64,569.105 1822.5,531.786 1826.36,632.109 1830.22,540.121 1834.09,474.493 1837.95,428.697 1841.81,428.321 1845.67,385.061 1849.53,411.269 1853.39,409.144 1857.25,515.416 1861.11,569.344 1864.97,544.567 1868.83,531.273 1872.69,506.088 1876.55,510.83 1880.41,527.309 1884.27,556.554 1888.13,596.71 1891.99,607.952 1895.85,599.682 1899.71,583.565 1903.57,588.602 1907.43,612.288 1911.29,625.39 1915.15,706.459 1919.01,572.474 1922.87,437.695 1926.73,442.847 1930.59,300.863 1934.45,361.116 1938.31,373.124 1942.17,357.595 1946.03,436.726 1949.89,441.106 1953.75,499.828 1957.61,522.009 1961.48,531.972 1965.34,454.573 1969.2,511.271 1973.06,482.152 1976.92,545.8 1980.78,425.338 1984.64,407.445 1988.5,424.957 1992.36,459.75 1996.22,569.349 2000.08,486.984 2003.94,398.117 2007.8,437.829 2011.66,451.916 2015.52,524.5 2019.38,456.685 2023.24,486.082 2027.1,396.097 2030.96,580.244 2034.82,570.433 2038.68,637.236 2042.54,602.357 2046.4,663.292 2050.26,548.239 2054.12,521.453 2057.98,516.198 2061.84,366.377 2065.7,316.61 2069.56,277.163 2073.42,190.744 2077.28,245.543 2081.14,269.184 2085.01,358.294 2088.87,351.108 2092.73,297.97 2096.59,342.989 2100.45,348.032 2104.31,505.655 2108.17,506.55 2112.03,570.63 2115.89,522.337 2119.75,499.1 2123.61,599.435 2127.47,400.47 2131.33,416.713 2135.19,556.934 2139.05,619.888 2142.91,707.504 2146.77,698.754 2150.63,798.66 2154.49,882.163 2158.35,994.04 2162.21,880.894 2166.07,987.826 2169.93,1048.59 2173.79,923.141 2177.65,954.046 2181.51,975.188 2185.37,909.731 2189.23,949.405 2193.09,988.942 2196.95,1018.75 2200.81,1054.68 2204.67,939.687 2208.53,926.097 2212.4,896.724 2216.26,868.864 2220.12,921.407 2223.98,939.835 2227.84,857.492 2231.7,961.265 2235.56,890.886 2239.42,829.225 2243.28,880.334 2247.14,891.347 2251,810.533 2254.86,815.253 2258.72,834.9 2262.58,853.948 2266.44,842.079 2270.3,852.086 2274.16,777.328 2278.02,773.048 2281.88,835.447 2285.74,886.929 2289.6,748.172 2293.46,631.764 "/>
<path clip-path="url(#clip780)" d="M1769.48 1377.32 L2282.92 1377.32 L2282.92 1273.64 L1769.48 1273.64  Z" fill="#ffffff" fill-rule="evenodd" fill-opacity="1"/>
<polyline clip-path="url(#clip780)" style="stroke:#000000; stroke-linecap:round; stroke-linejoin:round; stroke-width:4; stroke-opacity:1; fill:none" points="1769.48,1377.32 2282.92,1377.32 2282.92,1273.64 1769.48,1273.64 1769.48,1377.32 "/>
<polyline clip-path="url(#clip780)" style="stroke:#e26f46; stroke-linecap:round; stroke-linejoin:round; stroke-width:8; stroke-opacity:1; fill:none" stroke-dasharray="32, 20" points="1792.76,1325.48 1932.43,1325.48 "/>
<path clip-path="url(#clip780)" d="M1955.71 1308.2 L1960.43 1308.2 L1967.7 1337.41 L1974.94 1308.2 L1980.2 1308.2 L1987.47 1337.41 L1994.71 1308.2 L1999.46 1308.2 L1990.78 1342.76 L1984.9 1342.76 L1977.61 1312.76 L1970.25 1342.76 L1964.37 1342.76 L1955.71 1308.2 Z" fill="#000000" fill-rule="nonzero" fill-opacity="1" /><path clip-path="url(#clip780)" d="M2004.43 1316.83 L2008.69 1316.83 L2008.69 1342.76 L2004.43 1342.76 L2004.43 1316.83 M2004.43 1306.74 L2008.69 1306.74 L2008.69 1312.13 L2004.43 1312.13 L2004.43 1306.74 Z" fill="#000000" fill-rule="nonzero" fill-opacity="1" /><path clip-path="url(#clip780)" d="M2039.78 1328.73 L2039.78 1330.81 L2020.2 1330.81 Q2020.48 1335.21 2022.84 1337.52 Q2025.22 1339.82 2029.46 1339.82 Q2031.91 1339.82 2034.2 1339.21 Q2036.52 1338.61 2038.79 1337.41 L2038.79 1341.44 Q2036.49 1342.41 2034.09 1342.92 Q2031.68 1343.43 2029.2 1343.43 Q2023 1343.43 2019.37 1339.82 Q2015.75 1336.2 2015.75 1330.05 Q2015.75 1323.68 2019.18 1319.95 Q2022.63 1316.2 2028.46 1316.2 Q2033.69 1316.2 2036.73 1319.58 Q2039.78 1322.94 2039.78 1328.73 M2035.52 1327.48 Q2035.48 1323.98 2033.56 1321.9 Q2031.66 1319.82 2028.51 1319.82 Q2024.94 1319.82 2022.79 1321.83 Q2020.66 1323.84 2020.34 1327.5 L2035.52 1327.48 Z" fill="#000000" fill-rule="nonzero" fill-opacity="1" /><path clip-path="url(#clip780)" d="M2068.32 1327.11 L2068.32 1342.76 L2064.06 1342.76 L2064.06 1327.25 Q2064.06 1323.57 2062.63 1321.74 Q2061.19 1319.91 2058.32 1319.91 Q2054.87 1319.91 2052.88 1322.11 Q2050.89 1324.31 2050.89 1328.1 L2050.89 1342.76 L2046.61 1342.76 L2046.61 1316.83 L2050.89 1316.83 L2050.89 1320.86 Q2052.42 1318.52 2054.48 1317.36 Q2056.56 1316.2 2059.27 1316.2 Q2063.74 1316.2 2066.03 1318.98 Q2068.32 1321.74 2068.32 1327.11 Z" fill="#000000" fill-rule="nonzero" fill-opacity="1" /><path clip-path="url(#clip780)" d="M2098.99 1328.73 L2098.99 1330.81 L2079.41 1330.81 Q2079.69 1335.21 2082.05 1337.52 Q2084.43 1339.82 2088.67 1339.82 Q2091.12 1339.82 2093.42 1339.21 Q2095.73 1338.61 2098 1337.41 L2098 1341.44 Q2095.71 1342.41 2093.3 1342.92 Q2090.89 1343.43 2088.42 1343.43 Q2082.21 1343.43 2078.58 1339.82 Q2074.97 1336.2 2074.97 1330.05 Q2074.97 1323.68 2078.39 1319.95 Q2081.84 1316.2 2087.68 1316.2 Q2092.91 1316.2 2095.94 1319.58 Q2098.99 1322.94 2098.99 1328.73 M2094.74 1327.48 Q2094.69 1323.98 2092.77 1321.9 Q2090.87 1319.82 2087.72 1319.82 Q2084.16 1319.82 2082 1321.83 Q2079.87 1323.84 2079.55 1327.5 L2094.74 1327.48 Z" fill="#000000" fill-rule="nonzero" fill-opacity="1" /><path clip-path="url(#clip780)" d="M2121.01 1320.81 Q2120.29 1320.39 2119.43 1320.21 Q2118.6 1320 2117.58 1320 Q2113.97 1320 2112.03 1322.36 Q2110.11 1324.7 2110.11 1329.1 L2110.11 1342.76 L2105.82 1342.76 L2105.82 1316.83 L2110.11 1316.83 L2110.11 1320.86 Q2111.45 1318.5 2113.6 1317.36 Q2115.75 1316.2 2118.83 1316.2 Q2119.27 1316.2 2119.8 1316.27 Q2120.34 1316.32 2120.99 1316.44 L2121.01 1320.81 Z" fill="#000000" fill-rule="nonzero" fill-opacity="1" /><path clip-path="url(#clip780)" d="M2162.1 1327.11 L2162.1 1342.76 L2157.84 1342.76 L2157.84 1327.25 Q2157.84 1323.57 2156.4 1321.74 Q2154.97 1319.91 2152.1 1319.91 Q2148.65 1319.91 2146.66 1322.11 Q2144.67 1324.31 2144.67 1328.1 L2144.67 1342.76 L2140.38 1342.76 L2140.38 1316.83 L2144.67 1316.83 L2144.67 1320.86 Q2146.19 1318.52 2148.25 1317.36 Q2150.34 1316.2 2153.05 1316.2 Q2157.51 1316.2 2159.8 1318.98 Q2162.1 1321.74 2162.1 1327.11 Z" fill="#000000" fill-rule="nonzero" fill-opacity="1" /><path clip-path="url(#clip780)" d="M2180.64 1319.82 Q2177.21 1319.82 2175.22 1322.5 Q2173.23 1325.16 2173.23 1329.82 Q2173.23 1334.47 2175.2 1337.15 Q2177.19 1339.82 2180.64 1339.82 Q2184.04 1339.82 2186.03 1337.13 Q2188.02 1334.45 2188.02 1329.82 Q2188.02 1325.21 2186.03 1322.52 Q2184.04 1319.82 2180.64 1319.82 M2180.64 1316.2 Q2186.19 1316.2 2189.36 1319.82 Q2192.54 1323.43 2192.54 1329.82 Q2192.54 1336.18 2189.36 1339.82 Q2186.19 1343.43 2180.64 1343.43 Q2175.06 1343.43 2171.89 1339.82 Q2168.74 1336.18 2168.74 1329.82 Q2168.74 1323.43 2171.89 1319.82 Q2175.06 1316.2 2180.64 1316.2 Z" fill="#000000" fill-rule="nonzero" fill-opacity="1" /><path clip-path="url(#clip780)" d="M2199.6 1316.83 L2203.86 1316.83 L2203.86 1342.76 L2199.6 1342.76 L2199.6 1316.83 M2199.6 1306.74 L2203.86 1306.74 L2203.86 1312.13 L2199.6 1312.13 L2199.6 1306.74 Z" fill="#000000" fill-rule="nonzero" fill-opacity="1" /><path clip-path="url(#clip780)" d="M2229.29 1317.59 L2229.29 1321.62 Q2227.49 1320.7 2225.54 1320.23 Q2223.6 1319.77 2221.52 1319.77 Q2218.35 1319.77 2216.75 1320.74 Q2215.17 1321.71 2215.17 1323.66 Q2215.17 1325.14 2216.31 1326 Q2217.44 1326.83 2220.87 1327.59 L2222.33 1327.92 Q2226.86 1328.89 2228.76 1330.67 Q2230.68 1332.43 2230.68 1335.6 Q2230.68 1339.21 2227.81 1341.32 Q2224.97 1343.43 2219.97 1343.43 Q2217.88 1343.43 2215.61 1343.01 Q2213.37 1342.62 2210.87 1341.81 L2210.87 1337.41 Q2213.23 1338.63 2215.52 1339.26 Q2217.81 1339.86 2220.06 1339.86 Q2223.07 1339.86 2224.69 1338.84 Q2226.31 1337.8 2226.31 1335.93 Q2226.31 1334.19 2225.13 1333.26 Q2223.97 1332.34 2220.01 1331.48 L2218.53 1331.14 Q2214.57 1330.3 2212.81 1328.59 Q2211.05 1326.85 2211.05 1323.84 Q2211.05 1320.19 2213.65 1318.2 Q2216.24 1316.2 2221.01 1316.2 Q2223.37 1316.2 2225.45 1316.55 Q2227.54 1316.9 2229.29 1317.59 Z" fill="#000000" fill-rule="nonzero" fill-opacity="1" /><path clip-path="url(#clip780)" d="M2259.64 1328.73 L2259.64 1330.81 L2240.06 1330.81 Q2240.34 1335.21 2242.7 1337.52 Q2245.08 1339.82 2249.32 1339.82 Q2251.77 1339.82 2254.06 1339.21 Q2256.38 1338.61 2258.65 1337.41 L2258.65 1341.44 Q2256.35 1342.41 2253.95 1342.92 Q2251.54 1343.43 2249.06 1343.43 Q2242.86 1343.43 2239.23 1339.82 Q2235.61 1336.2 2235.61 1330.05 Q2235.61 1323.68 2239.04 1319.95 Q2242.49 1316.2 2248.32 1316.2 Q2253.55 1316.2 2256.59 1319.58 Q2259.64 1322.94 2259.64 1328.73 M2255.38 1327.48 Q2255.34 1323.98 2253.42 1321.9 Q2251.52 1319.82 2248.37 1319.82 Q2244.8 1319.82 2242.65 1321.83 Q2240.52 1323.84 2240.2 1327.5 L2255.38 1327.48 Z" fill="#000000" fill-rule="nonzero" fill-opacity="1" /></svg>
