<?xml version="1.0" encoding="utf-8"?>
<svg xmlns="http://www.w3.org/2000/svg" xmlns:xlink="http://www.w3.org/1999/xlink" width="600" height="400" viewBox="0 0 2400 1600">
<defs>
  <clipPath id="clip880">
    <rect x="0" y="0" width="2400" height="1600"/>
  </clipPath>
</defs>
<path clip-path="url(#clip880)" d="M0 1600 L2400 1600 L2400 0 L0 0  Z" fill="#ffffff" fill-rule="evenodd" fill-opacity="1"/>
<defs>
  <clipPath id="clip881">
    <rect x="480" y="0" width="1681" height="1600"/>
  </clipPath>
</defs>
<path clip-path="url(#clip880)" d="M175.445 1423.18 L2352.76 1423.18 L2352.76 47.2441 L175.445 47.2441  Z" fill="#ffffff" fill-rule="evenodd" fill-opacity="1"/>
<defs>
  <clipPath id="clip882">
    <rect x="175" y="47" width="2178" height="1377"/>
  </clipPath>
</defs>
<polyline clip-path="url(#clip882)" style="stroke:#000000; stroke-linecap:round; stroke-linejoin:round; stroke-width:2; stroke-opacity:0.1; fill:none" points="237.067,1423.18 237.067,47.2441 "/>
<polyline clip-path="url(#clip882)" style="stroke:#000000; stroke-linecap:round; stroke-linejoin:round; stroke-width:2; stroke-opacity:0.1; fill:none" points="921.756,1423.18 921.756,47.2441 "/>
<polyline clip-path="url(#clip882)" style="stroke:#000000; stroke-linecap:round; stroke-linejoin:round; stroke-width:2; stroke-opacity:0.1; fill:none" points="1606.45,1423.18 1606.45,47.2441 "/>
<polyline clip-path="url(#clip882)" style="stroke:#000000; stroke-linecap:round; stroke-linejoin:round; stroke-width:2; stroke-opacity:0.1; fill:none" points="2291.13,1423.18 2291.13,47.2441 "/>
<polyline clip-path="url(#clip880)" style="stroke:#000000; stroke-linecap:round; stroke-linejoin:round; stroke-width:4; stroke-opacity:1; fill:none" points="175.445,1423.18 2352.76,1423.18 "/>
<polyline clip-path="url(#clip880)" style="stroke:#000000; stroke-linecap:round; stroke-linejoin:round; stroke-width:4; stroke-opacity:1; fill:none" points="237.067,1423.18 237.067,1404.28 "/>
<polyline clip-path="url(#clip880)" style="stroke:#000000; stroke-linecap:round; stroke-linejoin:round; stroke-width:4; stroke-opacity:1; fill:none" points="921.756,1423.18 921.756,1404.28 "/>
<polyline clip-path="url(#clip880)" style="stroke:#000000; stroke-linecap:round; stroke-linejoin:round; stroke-width:4; stroke-opacity:1; fill:none" points="1606.45,1423.18 1606.45,1404.28 "/>
<polyline clip-path="url(#clip880)" style="stroke:#000000; stroke-linecap:round; stroke-linejoin:round; stroke-width:4; stroke-opacity:1; fill:none" points="2291.13,1423.18 2291.13,1404.28 "/>
<path clip-path="url(#clip880)" d="M237.067 1454.1 Q233.456 1454.1 231.627 1457.66 Q229.822 1461.2 229.822 1468.33 Q229.822 1475.44 231.627 1479.01 Q233.456 1482.55 237.067 1482.55 Q240.701 1482.55 242.507 1479.01 Q244.336 1475.44 244.336 1468.33 Q244.336 1461.2 242.507 1457.66 Q240.701 1454.1 237.067 1454.1 M237.067 1450.39 Q242.877 1450.39 245.933 1455 Q249.012 1459.58 249.012 1468.33 Q249.012 1477.06 245.933 1481.67 Q242.877 1486.25 237.067 1486.25 Q231.257 1486.25 228.178 1481.67 Q225.123 1477.06 225.123 1468.33 Q225.123 1459.58 228.178 1455 Q231.257 1450.39 237.067 1450.39 Z" fill="#000000" fill-rule="nonzero" fill-opacity="1" /><path clip-path="url(#clip880)" d="M912.138 1481.64 L919.777 1481.64 L919.777 1455.28 L911.467 1456.95 L911.467 1452.69 L919.731 1451.02 L924.407 1451.02 L924.407 1481.64 L932.045 1481.64 L932.045 1485.58 L912.138 1485.58 L912.138 1481.64 Z" fill="#000000" fill-rule="nonzero" fill-opacity="1" /><path clip-path="url(#clip880)" d="M1601.1 1481.64 L1617.42 1481.64 L1617.42 1485.58 L1595.47 1485.58 L1595.47 1481.64 Q1598.13 1478.89 1602.72 1474.26 Q1607.32 1469.61 1608.51 1468.27 Q1610.75 1465.74 1611.63 1464.01 Q1612.53 1462.25 1612.53 1460.56 Q1612.53 1457.8 1610.59 1456.07 Q1608.67 1454.33 1605.57 1454.33 Q1603.37 1454.33 1600.91 1455.09 Q1598.48 1455.86 1595.7 1457.41 L1595.7 1452.69 Q1598.53 1451.55 1600.98 1450.97 Q1603.44 1450.39 1605.47 1450.39 Q1610.84 1450.39 1614.04 1453.08 Q1617.23 1455.77 1617.23 1460.26 Q1617.23 1462.39 1616.42 1464.31 Q1615.63 1466.2 1613.53 1468.8 Q1612.95 1469.47 1609.85 1472.69 Q1606.75 1475.88 1601.1 1481.64 Z" fill="#000000" fill-rule="nonzero" fill-opacity="1" /><path clip-path="url(#clip880)" d="M2295.38 1466.95 Q2298.74 1467.66 2300.61 1469.93 Q2302.51 1472.2 2302.51 1475.53 Q2302.51 1480.65 2298.99 1483.45 Q2295.47 1486.25 2288.99 1486.25 Q2286.82 1486.25 2284.5 1485.81 Q2282.21 1485.39 2279.76 1484.54 L2279.76 1480.02 Q2281.7 1481.16 2284.02 1481.74 Q2286.33 1482.32 2288.85 1482.32 Q2293.25 1482.32 2295.54 1480.58 Q2297.86 1478.84 2297.86 1475.53 Q2297.86 1472.48 2295.71 1470.77 Q2293.58 1469.03 2289.76 1469.03 L2285.73 1469.03 L2285.73 1465.19 L2289.94 1465.19 Q2293.39 1465.19 2295.22 1463.82 Q2297.05 1462.43 2297.05 1459.84 Q2297.05 1457.18 2295.15 1455.77 Q2293.28 1454.33 2289.76 1454.33 Q2287.84 1454.33 2285.64 1454.75 Q2283.44 1455.16 2280.8 1456.04 L2280.8 1451.88 Q2283.46 1451.14 2285.78 1450.77 Q2288.11 1450.39 2290.17 1450.39 Q2295.5 1450.39 2298.6 1452.83 Q2301.7 1455.23 2301.7 1459.35 Q2301.7 1462.22 2300.06 1464.21 Q2298.41 1466.18 2295.38 1466.95 Z" fill="#000000" fill-rule="nonzero" fill-opacity="1" /><path clip-path="url(#clip880)" d="M1272.57 1531.91 Q1272.57 1532.81 1272.15 1533.04 Q1271.73 1533.23 1270.57 1533.23 L1264.39 1533.23 L1259.5 1552.69 Q1259.11 1554.39 1259.11 1555.84 Q1259.11 1557.45 1259.59 1558.16 Q1260.11 1558.87 1261.17 1558.87 Q1263.26 1558.87 1265.52 1556.97 Q1267.81 1555.07 1269.74 1550.43 Q1270 1549.82 1270.12 1549.69 Q1270.28 1549.53 1270.7 1549.53 Q1271.51 1549.53 1271.51 1550.17 Q1271.51 1550.4 1271.06 1551.43 Q1270.64 1552.46 1269.71 1553.97 Q1268.8 1555.49 1267.61 1556.9 Q1266.45 1558.32 1264.68 1559.35 Q1262.91 1560.35 1261.01 1560.35 Q1258.34 1560.35 1256.63 1558.64 Q1254.95 1556.94 1254.95 1554.26 Q1254.95 1553.39 1255.63 1550.62 Q1256.31 1547.82 1259.98 1533.23 L1254.15 1533.23 Q1253.34 1533.23 1253.02 1533.2 Q1252.73 1533.17 1252.51 1533.01 Q1252.31 1532.81 1252.31 1532.43 Q1252.31 1531.82 1252.57 1531.56 Q1252.83 1531.27 1253.15 1531.24 Q1253.51 1531.17 1254.31 1531.17 L1260.49 1531.17 L1263.07 1520.71 Q1263.33 1519.67 1263.97 1519.09 Q1264.65 1518.48 1265.04 1518.42 Q1265.42 1518.32 1265.71 1518.32 Q1266.58 1518.32 1267.1 1518.81 Q1267.61 1519.26 1267.61 1520.09 Q1267.61 1520.54 1264.91 1531.17 L1270.7 1531.17 Q1271.44 1531.17 1271.73 1531.2 Q1272.06 1531.24 1272.31 1531.4 Q1272.57 1531.56 1272.57 1531.91 Z" fill="#000000" fill-rule="nonzero" fill-opacity="1" /><polyline clip-path="url(#clip882)" style="stroke:#000000; stroke-linecap:round; stroke-linejoin:round; stroke-width:2; stroke-opacity:0.1; fill:none" points="175.445,1207.45 2352.76,1207.45 "/>
<polyline clip-path="url(#clip882)" style="stroke:#000000; stroke-linecap:round; stroke-linejoin:round; stroke-width:2; stroke-opacity:0.1; fill:none" points="175.445,853.88 2352.76,853.88 "/>
<polyline clip-path="url(#clip882)" style="stroke:#000000; stroke-linecap:round; stroke-linejoin:round; stroke-width:2; stroke-opacity:0.1; fill:none" points="175.445,500.308 2352.76,500.308 "/>
<polyline clip-path="url(#clip882)" style="stroke:#000000; stroke-linecap:round; stroke-linejoin:round; stroke-width:2; stroke-opacity:0.1; fill:none" points="175.445,146.736 2352.76,146.736 "/>
<polyline clip-path="url(#clip880)" style="stroke:#000000; stroke-linecap:round; stroke-linejoin:round; stroke-width:4; stroke-opacity:1; fill:none" points="175.445,1423.18 175.445,47.2441 "/>
<polyline clip-path="url(#clip880)" style="stroke:#000000; stroke-linecap:round; stroke-linejoin:round; stroke-width:4; stroke-opacity:1; fill:none" points="175.445,1207.45 194.343,1207.45 "/>
<polyline clip-path="url(#clip880)" style="stroke:#000000; stroke-linecap:round; stroke-linejoin:round; stroke-width:4; stroke-opacity:1; fill:none" points="175.445,853.88 194.343,853.88 "/>
<polyline clip-path="url(#clip880)" style="stroke:#000000; stroke-linecap:round; stroke-linejoin:round; stroke-width:4; stroke-opacity:1; fill:none" points="175.445,500.308 194.343,500.308 "/>
<polyline clip-path="url(#clip880)" style="stroke:#000000; stroke-linecap:round; stroke-linejoin:round; stroke-width:4; stroke-opacity:1; fill:none" points="175.445,146.736 194.343,146.736 "/>
<path clip-path="url(#clip880)" d="M123.126 1220.8 L139.445 1220.8 L139.445 1224.73 L117.501 1224.73 L117.501 1220.8 Q120.163 1218.04 124.746 1213.41 Q129.353 1208.76 130.533 1207.42 Q132.779 1204.89 133.658 1203.16 Q134.561 1201.4 134.561 1199.71 Q134.561 1196.95 132.617 1195.22 Q130.695 1193.48 127.593 1193.48 Q125.394 1193.48 122.941 1194.25 Q120.51 1195.01 117.732 1196.56 L117.732 1191.84 Q120.556 1190.7 123.01 1190.13 Q125.464 1189.55 127.501 1189.55 Q132.871 1189.55 136.066 1192.23 Q139.26 1194.92 139.26 1199.41 Q139.26 1201.54 138.45 1203.46 Q137.663 1205.36 135.556 1207.95 Q134.978 1208.62 131.876 1211.84 Q128.774 1215.03 123.126 1220.8 Z" fill="#000000" fill-rule="nonzero" fill-opacity="1" /><path clip-path="url(#clip880)" d="M129.862 840.674 L118.056 859.123 L129.862 859.123 L129.862 840.674 M128.635 836.6 L134.515 836.6 L134.515 859.123 L139.445 859.123 L139.445 863.012 L134.515 863.012 L134.515 871.16 L129.862 871.16 L129.862 863.012 L114.26 863.012 L114.26 858.498 L128.635 836.6 Z" fill="#000000" fill-rule="nonzero" fill-opacity="1" /><path clip-path="url(#clip880)" d="M127.917 498.444 Q124.769 498.444 122.918 500.597 Q121.089 502.75 121.089 506.5 Q121.089 510.227 122.918 512.403 Q124.769 514.555 127.917 514.555 Q131.066 514.555 132.894 512.403 Q134.746 510.227 134.746 506.5 Q134.746 502.75 132.894 500.597 Q131.066 498.444 127.917 498.444 M137.2 483.792 L137.2 488.051 Q135.441 487.218 133.635 486.778 Q131.853 486.338 130.093 486.338 Q125.464 486.338 123.01 489.463 Q120.58 492.588 120.232 498.907 Q121.598 496.894 123.658 495.829 Q125.718 494.741 128.195 494.741 Q133.404 494.741 136.413 497.912 Q139.445 501.06 139.445 506.5 Q139.445 511.824 136.297 515.042 Q133.149 518.259 127.917 518.259 Q121.922 518.259 118.751 513.676 Q115.58 509.069 115.58 500.343 Q115.58 492.148 119.468 487.287 Q123.357 482.403 129.908 482.403 Q131.667 482.403 133.45 482.75 Q135.255 483.097 137.2 483.792 Z" fill="#000000" fill-rule="nonzero" fill-opacity="1" /><path clip-path="url(#clip880)" d="M127.593 147.604 Q124.26 147.604 122.339 149.386 Q120.441 151.169 120.441 154.294 Q120.441 157.419 122.339 159.201 Q124.26 160.983 127.593 160.983 Q130.927 160.983 132.848 159.201 Q134.769 157.395 134.769 154.294 Q134.769 151.169 132.848 149.386 Q130.95 147.604 127.593 147.604 M122.918 145.613 Q119.908 144.872 118.218 142.812 Q116.552 140.752 116.552 137.789 Q116.552 133.645 119.492 131.238 Q122.455 128.831 127.593 128.831 Q132.755 128.831 135.695 131.238 Q138.635 133.645 138.635 137.789 Q138.635 140.752 136.945 142.812 Q135.279 144.872 132.292 145.613 Q135.672 146.4 137.547 148.692 Q139.445 150.983 139.445 154.294 Q139.445 159.317 136.367 162.002 Q133.311 164.687 127.593 164.687 Q121.876 164.687 118.797 162.002 Q115.742 159.317 115.742 154.294 Q115.742 150.983 117.64 148.692 Q119.538 146.4 122.918 145.613 M121.205 138.229 Q121.205 140.914 122.871 142.419 Q124.561 143.923 127.593 143.923 Q130.603 143.923 132.292 142.419 Q134.005 140.914 134.005 138.229 Q134.005 135.544 132.292 134.039 Q130.603 132.534 127.593 132.534 Q124.561 132.534 122.871 134.039 Q121.205 135.544 121.205 138.229 Z" fill="#000000" fill-rule="nonzero" fill-opacity="1" /><path clip-path="url(#clip880)" d="M39.02 721.039 Q40.8235 721.039 41.8541 722.166 Q42.8525 723.293 42.8525 724.581 Q42.8525 725.805 42.1439 726.449 Q41.4354 727.093 40.5336 727.093 Q39.3098 727.093 38.247 726.191 Q37.1842 725.29 36.9588 723.937 Q36.1214 725.258 36.1214 727.222 Q36.1214 728.51 36.7978 729.638 Q37.4741 730.733 38.3436 731.409 Q39.2132 732.053 40.4692 732.633 Q41.693 733.18 42.4338 733.406 Q43.1423 733.599 43.9152 733.76 L52.9329 736.014 Q57.2163 737.109 58.7299 737.109 Q60.5979 737.109 61.8539 736.208 Q63.0777 735.306 63.0777 733.502 Q63.0777 732.794 62.8845 731.989 Q62.6591 731.183 62.0794 730.153 Q61.4674 729.09 60.5657 728.156 Q59.6317 727.19 58.0536 726.256 Q56.4755 725.322 54.4466 724.71 Q53.738 724.517 53.738 723.873 Q53.738 723.068 54.3822 723.068 Q54.9297 723.068 56.0891 723.518 Q57.2163 723.937 58.6977 724.871 Q60.147 725.773 61.4674 726.964 Q62.7557 728.156 63.6574 729.927 Q64.5592 731.699 64.5592 733.631 Q64.5592 736.401 63.0777 738.236 Q61.5963 740.072 59.5351 740.749 Q59.8249 740.91 60.2114 741.135 Q60.5979 741.36 61.4674 742.037 Q62.3048 742.681 62.9489 743.422 Q63.5608 744.162 64.0439 745.322 Q64.5592 746.449 64.5592 747.673 Q64.5592 749.219 64.1083 750.604 Q63.6574 751.956 62.6269 752.922 Q61.5963 753.889 60.1792 753.889 Q58.6011 753.889 57.5061 752.826 Q56.3789 751.731 56.3789 750.249 Q56.3789 749.315 56.9264 748.575 Q57.4739 747.802 58.6655 747.802 Q59.986 747.802 60.9844 748.703 Q61.9827 749.605 62.2404 750.893 Q63.0777 749.573 63.0777 747.608 Q63.0777 745.483 61.2098 743.808 Q59.3419 742.133 56.2179 741.328 Q48.7139 739.331 45.3645 738.559 Q41.9829 737.786 40.5336 737.786 Q39.181 737.786 38.247 738.14 Q37.313 738.494 36.8944 739.106 Q36.4435 739.686 36.2825 740.233 Q36.1214 740.749 36.1214 741.328 Q36.1214 742.294 36.5079 743.389 Q36.8944 744.452 37.7961 745.74 Q38.6657 746.996 40.4692 748.188 Q42.2727 749.38 44.7526 750.185 Q45.4933 750.346 45.4933 751.054 Q45.4611 751.827 44.817 751.827 Q44.2695 751.827 43.1423 751.409 Q41.9829 750.958 40.5336 750.056 Q39.0844 749.122 37.7961 747.93 Q36.4757 746.707 35.5739 744.935 Q34.6722 743.132 34.6722 741.199 Q34.6722 740.33 34.8654 739.493 Q35.0264 738.623 35.5095 737.592 Q35.9926 736.53 37.0554 735.596 Q38.1182 734.662 39.6641 734.082 Q38.9233 733.695 38.2148 733.18 Q37.5063 732.633 36.6367 731.795 Q35.735 730.926 35.2197 729.734 Q34.6722 728.51 34.6722 727.158 Q34.6722 725.837 35.0264 724.549 Q35.3485 723.261 36.4113 722.166 Q37.4419 721.039 39.02 721.039 Z" fill="#000000" fill-rule="nonzero" fill-opacity="1" /><polyline clip-path="url(#clip882)" style="stroke:#009af9; stroke-linecap:round; stroke-linejoin:round; stroke-width:8; stroke-opacity:1; fill:none" points="237.067,1384.24 241.079,1382.75 245.091,1381.35 249.103,1379.9 253.115,1378 257.126,1375.56 261.138,1373.4 265.15,1370.98 269.162,1368.33 273.174,1365.33 277.186,1362.22 281.198,1359.02 285.209,1355.8 289.221,1352.95 293.233,1350.51 297.245,1347.98 301.257,1345.41 305.269,1343.05 309.28,1340.97 313.292,1339.11 317.304,1337.37 321.316,1335.84 325.328,1334.43 329.34,1333.26 333.352,1331.73 337.363,1330.42 341.375,1329.02 345.387,1327.75 349.399,1326.33 353.411,1324.73 357.423,1323.09 361.435,1321.74 365.446,1320.94 369.458,1320.01 373.47,1318.67 377.482,1317.49 381.494,1316.43 385.506,1315.41 389.517,1315.03 393.529,1314.65 397.541,1314.13 401.553,1313.65 405.565,1313.11 409.577,1312.55 413.589,1311.93 417.6,1311.19 421.612,1310.52 425.624,1309.91 429.636,1309.15 433.648,1308.08 437.66,1307.2 441.672,1305.97 445.683,1304.99 449.695,1304.16 453.707,1303.66 457.719,1303.07 461.731,1302.29 465.743,1301.41 469.754,1300.63 473.766,1300.31 477.778,1299.84 481.79,1299.39 485.802,1299.11 489.814,1298.96 493.826,1298.5 497.837,1298 501.849,1297.79 505.861,1297.56 509.873,1297.27 513.885,1296.83 517.897,1296.32 521.908,1295.86 525.92,1295.46 529.932,1295.07 533.944,1295.01 537.956,1294.61 541.968,1293.94 545.98,1293.03 549.991,1291.69 554.003,1290.54 558.015,1289.34 562.027,1288.32 566.039,1287.06 570.051,1285.38 574.063,1283.42 578.074,1281.33 582.086,1279.13 586.098,1276.72 590.11,1274.32 594.122,1271.76 598.134,1269.73 602.145,1268.1 606.157,1266.74 610.169,1265.09 614.181,1263.26 618.193,1261.52 622.205,1260.04 626.217,1258.66 630.228,1257.4 634.24,1256.18 638.252,1255.42 642.264,1254.47 646.276,1253.48 650.288,1252.24 654.3,1250.75 658.311,1249.63 662.323,1249.03 666.335,1248.11 670.347,1247.56 674.359,1247.15 678.371,1245.8 682.382,1244.12 686.394,1242.14 690.406,1240.45 694.418,1239.02 698.43,1237.92 702.442,1237.03 706.454,1236.26 710.465,1236.03 714.477,1236.2 718.489,1236.3 722.501,1236.24 726.513,1236.23 730.525,1237.13 734.536,1238.26 738.548,1239.52 742.56,1240.72 746.572,1241.97 750.584,1242.56 754.596,1242.6 758.608,1242.31 762.619,1242.07 766.631,1241.85 770.643,1241.41 774.655,1240.54 778.667,1239.76 782.679,1239.32 786.691,1239.38 790.702,1239.68 794.714,1240.03 798.726,1240.2 802.738,1240.48 806.75,1240.44 810.762,1240.26 814.773,1240.35 818.785,1241.05 822.797,1242.29 826.809,1243.55 830.821,1244.83 834.833,1245.61 838.845,1245.9 842.856,1245.71 846.868,1245.11 850.88,1244.17 854.892,1242.8 858.904,1241.65 862.916,1240.41 866.928,1239.13 870.939,1237.89 874.951,1237.3 878.963,1237.31 882.975,1237.39 886.987,1237.76 890.999,1238.19 895.01,1238.65 899.022,1238.7 903.034,1238.82 907.046,1239.05 911.058,1239.16 915.07,1238.5 919.082,1237.55 923.093,1236.32 927.105,1234.77 931.117,1233.12 935.129,1231.35 939.141,1229.22 943.153,1226.63 947.164,1223.87 951.176,1221.25 955.188,1218.51 959.2,1215.85 963.212,1212.81 967.224,1209.67 971.236,1206.62 975.247,1204.05 979.259,1201.46 983.271,1198.54 987.283,1195.31 991.295,1191.82 995.307,1188.39 999.319,1185.2 1003.33,1181.97 1007.34,1178.24 1011.35,1174.22 1015.37,1170.08 1019.38,1165.8 1023.39,1161.49 1027.4,1157.19 1031.41,1152.79 1035.43,1148.54 1039.44,1144.3 1043.45,1140.05 1047.46,1136.08 1051.47,1132.24 1055.48,1128.44 1059.5,1124.48 1063.51,1120.7 1067.52,1116.97 1071.53,1113.06 1075.54,1109.78 1079.56,1106.66 1083.57,1103.34 1087.58,1099.96 1091.59,1096.54 1095.6,1093.05 1099.61,1089.58 1103.63,1085.82 1107.64,1081.91 1111.65,1077.86 1115.66,1074 1119.67,1070.16 1123.69,1065.89 1127.7,1061.18 1131.71,1056.25 1135.72,1051.29 1139.73,1046.59 1143.75,1041.86 1147.76,1037.27 1151.77,1033.38 1155.78,1029.57 1159.79,1025.45 1163.8,1021.47 1167.82,1017.69 1171.83,1014.06 1175.84,1010.3 1179.85,1006.61 1183.86,1003.12 1187.88,999.409 1191.89,995.901 1195.9,992.573 1199.91,989.292 1203.92,985.592 1207.93,981.518 1211.95,977.53 1215.96,973.451 1219.97,969.299 1223.98,965.294 1227.99,961.525 1232.01,958.068 1236.02,954.771 1240.03,951.529 1244.04,948.852 1248.05,946.705 1252.07,944.332 1256.08,941.499 1260.09,938.654 1264.1,936.399 1268.11,934.507 1272.12,932.351 1276.14,930.035 1280.15,927.899 1284.16,925.702 1288.17,923.486 1292.18,921.183 1296.2,918.506 1300.21,915.985 1304.22,913.476 1308.23,911.238 1312.24,909.001 1316.25,907.188 1320.27,905.304 1324.28,903.45 1328.29,901.84 1332.3,899.714 1336.31,897.642 1340.33,896.115 1344.34,894.695 1348.35,893.464 1352.36,891.892 1356.37,890.361 1360.38,888.828 1364.4,887.641 1368.41,886.577 1372.42,886.004 1376.43,885.691 1380.44,885.665 1384.46,886.032 1388.47,886.4 1392.48,887.289 1396.49,888.273 1400.5,888.674 1404.52,889.312 1408.53,889.782 1412.54,890.005 1416.55,890.283 1420.56,890.847 1424.57,891.532 1428.59,891.369 1432.6,890.411 1436.61,889.097 1440.62,887.771 1444.63,886.834 1448.65,886.281 1452.66,885.774 1456.67,885.402 1460.68,884.656 1464.69,883.805 1468.7,882.709 1472.72,881.442 1476.73,880.049 1480.74,878.326 1484.75,876.444 1488.76,874.725 1492.78,873.082 1496.79,871.912 1500.8,870.687 1504.81,869.315 1508.82,868.19 1512.84,867.14 1516.85,866.45 1520.86,865.648 1524.87,864.776 1528.88,863.508 1532.89,861.656 1536.91,859.609 1540.92,857.52 1544.93,856.11 1548.94,854.532 1552.95,852.772 1556.97,850.83 1560.98,848.786 1564.99,846.804 1569,844.468 1573.01,841.872 1577.02,839.43 1581.04,836.799 1585.05,833.915 1589.06,830.766 1593.07,827.632 1597.08,824.699 1601.1,821.859 1605.11,818.615 1609.12,815.339 1613.13,811.903 1617.14,808.621 1621.16,805.482 1625.17,801.97 1629.18,798.597 1633.19,795.552 1637.2,792.756 1641.21,789.714 1645.23,786.865 1649.24,783.898 1653.25,780.601 1657.26,777.111 1661.27,774.04 1665.29,770.703 1669.3,767.107 1673.31,763.226 1677.32,759.606 1681.33,756.216 1685.34,752.893 1689.36,749.675 1693.37,746.254 1697.38,742.35 1701.39,738.651 1705.4,735.364 1709.42,731.972 1713.43,728.862 1717.44,725.663 1721.45,722.301 1725.46,718.668 1729.48,714.346 1733.49,709.874 1737.5,705.579 1741.51,700.992 1745.52,696.422 1749.53,691.61 1753.55,686.318 1757.56,680.988 1761.57,675.64 1765.58,670.206 1769.59,665.004 1773.61,659.764 1777.62,654.78 1781.63,649.667 1785.64,644.626 1789.65,639.475 1793.66,634.305 1797.68,629.309 1801.69,624.563 1805.7,619.762 1809.71,614.942 1813.72,610.158 1817.74,604.989 1821.75,599.27 1825.76,593.344 1829.77,587.416 1833.78,582.243 1837.79,577.207 1841.81,571.81 1845.82,566.926 1849.83,562.012 1853.84,557.314 1857.85,552.531 1861.87,547.834 1865.88,543.258 1869.89,538.661 1873.9,534.348 1877.91,530.019 1881.93,525.208 1885.94,520.532 1889.95,516.025 1893.96,511.576 1897.97,507.504 1901.98,503.353 1906,499.079 1910.01,494.102 1914.02,489.247 1918.03,484.284 1922.04,479.572 1926.06,474.721 1930.07,469.378 1934.08,464 1938.09,458.962 1942.1,454.278 1946.11,449.69 1950.13,444.742 1954.14,440.047 1958.15,435.557 1962.16,430.927 1966.17,426.996 1970.19,422.895 1974.2,419.306 1978.21,415.46 1982.22,411.642 1986.23,407.581 1990.25,403.169 1994.26,398.67 1998.27,394.207 2002.28,389.382 2006.29,384.867 2010.3,379.722 2014.32,374.655 2018.33,369.437 2022.34,363.858 2026.35,358.854 2030.36,354.395 2034.38,349.626 2038.39,344.152 2042.4,338.322 2046.41,332.609 2050.42,326.977 2054.43,321.477 2058.45,316.281 2062.46,311.104 2066.47,306.155 2070.48,301.488 2074.49,297.026 2078.51,292.494 2082.52,287.91 2086.53,282.965 2090.54,277.715 2094.55,272.534 2098.57,267.897 2102.58,263.895 2106.59,259.966 2110.6,256.384 2114.61,253.452 2118.62,250.484 2122.64,247.401 2126.65,244.12 2130.66,240.928 2134.67,238.022 2138.68,235.142 2142.7,232.758 2146.71,230.275 2150.72,227.574 2154.73,224.711 2158.74,221.793 2162.75,218.374 2166.77,214.484 2170.78,210.031 2174.79,205.074 2178.8,200.174 2182.81,195.352 2186.83,191.053 2190.84,187.053 2194.85,182.641 2198.86,178.163 2202.87,173.664 2206.89,169.184 2210.9,164.937 2214.91,160.773 2218.92,156.566 2222.93,152.711 2226.94,149.454 2230.96,146.436 2234.97,143.37 2238.98,140.172 2242.99,136.885 2247,133.297 2251.02,129.609 2255.03,126.07 2259.04,122.62 2263.05,118.822 2267.06,114.839 2271.07,110.691 2275.09,106.508 2279.1,101.91 2283.11,97.0244 2287.12,91.8399 2291.13,86.1857 "/>
<path clip-path="url(#clip880)" d="M248.022 196.789 L525.339 196.789 L525.339 93.1086 L248.022 93.1086  Z" fill="#ffffff" fill-rule="evenodd" fill-opacity="1"/>
<polyline clip-path="url(#clip880)" style="stroke:#000000; stroke-linecap:round; stroke-linejoin:round; stroke-width:4; stroke-opacity:1; fill:none" points="248.022,196.789 525.339,196.789 525.339,93.1086 248.022,93.1086 248.022,196.789 "/>
<polyline clip-path="url(#clip880)" style="stroke:#009af9; stroke-linecap:round; stroke-linejoin:round; stroke-width:8; stroke-opacity:1; fill:none" points="272.215,144.949 417.369,144.949 "/>
<path clip-path="url(#clip880)" d="M481.098 122.516 Q481.098 122.937 480.934 123.172 Q480.794 123.382 480.63 123.429 Q480.466 123.453 480.044 123.476 Q476.695 123.64 473.954 125.912 Q473.275 126.498 471.565 128.325 Q469.879 130.151 467.63 132.587 Q465.405 135.023 464.117 136.335 L470.3 151.138 Q470.558 151.724 470.652 151.981 Q470.769 152.215 471.003 152.52 Q471.261 152.824 471.448 152.918 Q471.659 153.012 472.104 153.129 Q472.572 153.223 473.041 153.246 Q473.533 153.246 474.423 153.269 Q474.704 153.269 474.821 153.293 Q474.961 153.293 475.125 153.433 Q475.289 153.55 475.289 153.832 Q475.289 154.253 475.102 154.487 Q474.938 154.698 474.774 154.722 Q474.633 154.745 474.376 154.745 Q473.767 154.745 471.706 154.675 Q469.644 154.604 469.059 154.604 L463.016 154.745 Q462.29 154.745 462.29 154.159 Q462.29 153.855 462.337 153.691 Q462.407 153.504 462.571 153.433 Q462.735 153.34 462.852 153.316 Q462.969 153.293 463.25 153.269 Q464.117 153.176 464.773 152.918 Q465.452 152.637 465.733 152.356 Q466.037 152.075 466.037 151.864 L465.803 151.185 L460.955 139.731 L456.622 144.439 L451.726 149.616 Q450.438 150.997 450.438 151.77 Q450.438 153.059 452.359 153.269 Q452.944 153.316 452.944 153.785 Q452.944 154.23 452.757 154.464 Q452.593 154.675 452.429 154.722 Q452.288 154.745 452.078 154.745 Q451.211 154.745 449.384 154.675 Q447.581 154.604 446.69 154.604 Q445.941 154.604 444.418 154.675 Q442.896 154.745 442.193 154.745 Q441.912 154.745 441.748 154.604 Q441.584 154.464 441.584 154.323 L441.561 154.206 Q441.561 153.878 441.608 153.691 Q441.678 153.504 441.865 153.41 Q442.076 153.316 442.17 153.316 Q442.264 153.293 442.615 153.269 Q444.606 153.152 446.292 152.379 Q448.002 151.606 449.665 149.803 Q449.806 149.686 449.97 149.545 Q450.157 149.405 450.298 149.288 L460.416 138.396 L454.748 124.999 Q454.49 124.39 454.256 124.132 Q454.022 123.851 453.296 123.663 Q452.57 123.476 451.164 123.476 Q450.766 123.476 450.579 123.453 Q450.391 123.429 450.227 123.312 Q450.063 123.195 450.063 122.937 Q450.063 122.492 450.227 122.282 Q450.415 122.047 450.555 122.024 Q450.719 121.977 450.93 121.977 Q451.515 121.977 453.6 122.047 Q455.685 122.118 456.294 122.118 Q457.301 122.118 459.315 122.047 Q461.353 121.977 462.337 121.977 Q463.063 121.977 463.063 122.563 Q463.063 122.937 462.899 123.148 Q462.735 123.359 462.571 123.406 Q462.407 123.453 462.102 123.476 Q461.189 123.57 460.486 123.874 Q459.807 124.155 459.526 124.436 Q459.268 124.694 459.268 124.858 L459.503 125.49 L463.531 135.023 L471.307 126.685 Q472.221 125.654 472.221 124.952 Q472.221 123.687 470.3 123.476 Q469.715 123.382 469.715 122.937 Q469.715 122.492 469.902 122.282 Q470.089 122.047 470.23 122.024 Q470.394 121.977 470.628 121.977 Q471.495 121.977 473.275 122.047 Q475.078 122.118 475.969 122.118 Q476.718 122.118 478.241 122.047 Q479.763 121.977 480.466 121.977 Q480.747 121.977 480.911 122.118 Q481.075 122.235 481.075 122.375 L481.098 122.516 Z" fill="#000000" fill-rule="nonzero" fill-opacity="1" /><path clip-path="url(#clip880)" d="M496.134 153.133 Q496.134 153.592 495.921 153.707 Q495.708 153.805 495.118 153.805 L491.97 153.805 L489.478 163.708 Q489.281 164.577 489.281 165.315 Q489.281 166.135 489.527 166.496 Q489.789 166.856 490.33 166.856 Q491.396 166.856 492.544 165.889 Q493.708 164.922 494.692 162.561 Q494.823 162.249 494.888 162.184 Q494.97 162.102 495.184 162.102 Q495.593 162.102 495.593 162.43 Q495.593 162.544 495.364 163.069 Q495.151 163.594 494.675 164.364 Q494.216 165.135 493.61 165.856 Q493.019 166.578 492.118 167.102 Q491.216 167.611 490.248 167.611 Q488.888 167.611 488.019 166.742 Q487.166 165.873 487.166 164.512 Q487.166 164.069 487.51 162.659 Q487.855 161.233 489.724 153.805 L486.756 153.805 Q486.346 153.805 486.182 153.789 Q486.035 153.773 485.92 153.691 Q485.822 153.592 485.822 153.395 Q485.822 153.084 485.953 152.953 Q486.084 152.805 486.248 152.789 Q486.428 152.756 486.838 152.756 L489.986 152.756 L491.298 147.427 Q491.429 146.903 491.757 146.608 Q492.101 146.296 492.298 146.263 Q492.495 146.214 492.642 146.214 Q493.085 146.214 493.347 146.46 Q493.61 146.69 493.61 147.116 Q493.61 147.345 492.232 152.756 L495.184 152.756 Q495.561 152.756 495.708 152.772 Q495.872 152.789 496.003 152.871 Q496.134 152.953 496.134 153.133 Z" fill="#000000" fill-rule="nonzero" fill-opacity="1" /></svg>
