<?xml version="1.0" encoding="utf-8"?>
<svg xmlns="http://www.w3.org/2000/svg" xmlns:xlink="http://www.w3.org/1999/xlink" width="600" height="400" viewBox="0 0 2400 1600">
<defs>
  <clipPath id="clip000">
    <rect x="0" y="0" width="2400" height="1600"/>
  </clipPath>
</defs>
<path clip-path="url(#clip000)" d="M0 1600 L2400 1600 L2400 0 L0 0  Z" fill="#ffffff" fill-rule="evenodd" fill-opacity="1"/>
<defs>
  <clipPath id="clip001">
    <rect x="480" y="0" width="1681" height="1600"/>
  </clipPath>
</defs>
<path clip-path="url(#clip000)" d="M256.209 1423.18 L2352.76 1423.18 L2352.76 47.2441 L256.209 47.2441  Z" fill="#ffffff" fill-rule="evenodd" fill-opacity="1"/>
<defs>
  <clipPath id="clip002">
    <rect x="256" y="47" width="2098" height="1377"/>
  </clipPath>
</defs>
<polyline clip-path="url(#clip002)" style="stroke:#000000; stroke-linecap:round; stroke-linejoin:round; stroke-width:2; stroke-opacity:0.1; fill:none" points="315.545,1423.18 315.545,47.2441 "/>
<polyline clip-path="url(#clip002)" style="stroke:#000000; stroke-linecap:round; stroke-linejoin:round; stroke-width:2; stroke-opacity:0.1; fill:none" points="974.836,1423.18 974.836,47.2441 "/>
<polyline clip-path="url(#clip002)" style="stroke:#000000; stroke-linecap:round; stroke-linejoin:round; stroke-width:2; stroke-opacity:0.1; fill:none" points="1634.13,1423.18 1634.13,47.2441 "/>
<polyline clip-path="url(#clip002)" style="stroke:#000000; stroke-linecap:round; stroke-linejoin:round; stroke-width:2; stroke-opacity:0.1; fill:none" points="2293.42,1423.18 2293.42,47.2441 "/>
<polyline clip-path="url(#clip000)" style="stroke:#000000; stroke-linecap:round; stroke-linejoin:round; stroke-width:4; stroke-opacity:1; fill:none" points="256.209,1423.18 2352.76,1423.18 "/>
<polyline clip-path="url(#clip000)" style="stroke:#000000; stroke-linecap:round; stroke-linejoin:round; stroke-width:4; stroke-opacity:1; fill:none" points="315.545,1423.18 315.545,1404.28 "/>
<polyline clip-path="url(#clip000)" style="stroke:#000000; stroke-linecap:round; stroke-linejoin:round; stroke-width:4; stroke-opacity:1; fill:none" points="974.836,1423.18 974.836,1404.28 "/>
<polyline clip-path="url(#clip000)" style="stroke:#000000; stroke-linecap:round; stroke-linejoin:round; stroke-width:4; stroke-opacity:1; fill:none" points="1634.13,1423.18 1634.13,1404.28 "/>
<polyline clip-path="url(#clip000)" style="stroke:#000000; stroke-linecap:round; stroke-linejoin:round; stroke-width:4; stroke-opacity:1; fill:none" points="2293.42,1423.18 2293.42,1404.28 "/>
<path clip-path="url(#clip000)" d="M315.545 1454.1 Q311.934 1454.1 310.105 1457.66 Q308.3 1461.2 308.3 1468.33 Q308.3 1475.44 310.105 1479.01 Q311.934 1482.55 315.545 1482.55 Q319.179 1482.55 320.985 1479.01 Q322.813 1475.44 322.813 1468.33 Q322.813 1461.2 320.985 1457.66 Q319.179 1454.1 315.545 1454.1 M315.545 1450.39 Q321.355 1450.39 324.411 1455 Q327.489 1459.58 327.489 1468.33 Q327.489 1477.06 324.411 1481.67 Q321.355 1486.25 315.545 1486.25 Q309.735 1486.25 306.656 1481.67 Q303.601 1477.06 303.601 1468.33 Q303.601 1459.58 306.656 1455 Q309.735 1450.39 315.545 1450.39 Z" fill="#000000" fill-rule="nonzero" fill-opacity="1" /><path clip-path="url(#clip000)" d="M965.218 1481.64 L972.857 1481.64 L972.857 1455.28 L964.547 1456.95 L964.547 1452.69 L972.811 1451.02 L977.487 1451.02 L977.487 1481.64 L985.126 1481.64 L985.126 1485.58 L965.218 1485.58 L965.218 1481.64 Z" fill="#000000" fill-rule="nonzero" fill-opacity="1" /><path clip-path="url(#clip000)" d="M1628.78 1481.64 L1645.1 1481.64 L1645.1 1485.58 L1623.16 1485.58 L1623.16 1481.64 Q1625.82 1478.89 1630.4 1474.26 Q1635.01 1469.61 1636.19 1468.27 Q1638.43 1465.74 1639.31 1464.01 Q1640.22 1462.25 1640.22 1460.56 Q1640.22 1457.8 1638.27 1456.07 Q1636.35 1454.33 1633.25 1454.33 Q1631.05 1454.33 1628.6 1455.09 Q1626.17 1455.86 1623.39 1457.41 L1623.39 1452.69 Q1626.21 1451.55 1628.67 1450.97 Q1631.12 1450.39 1633.16 1450.39 Q1638.53 1450.39 1641.72 1453.08 Q1644.92 1455.77 1644.92 1460.26 Q1644.92 1462.39 1644.1 1464.31 Q1643.32 1466.2 1641.21 1468.8 Q1640.63 1469.47 1637.53 1472.69 Q1634.43 1475.88 1628.78 1481.64 Z" fill="#000000" fill-rule="nonzero" fill-opacity="1" /><path clip-path="url(#clip000)" d="M2297.67 1466.95 Q2301.02 1467.66 2302.9 1469.93 Q2304.8 1472.2 2304.8 1475.53 Q2304.8 1480.65 2301.28 1483.45 Q2297.76 1486.25 2291.28 1486.25 Q2289.1 1486.25 2286.79 1485.81 Q2284.5 1485.39 2282.04 1484.54 L2282.04 1480.02 Q2283.99 1481.16 2286.3 1481.74 Q2288.62 1482.32 2291.14 1482.32 Q2295.54 1482.32 2297.83 1480.58 Q2300.14 1478.84 2300.14 1475.53 Q2300.14 1472.48 2297.99 1470.77 Q2295.86 1469.03 2292.04 1469.03 L2288.01 1469.03 L2288.01 1465.19 L2292.23 1465.19 Q2295.68 1465.19 2297.51 1463.82 Q2299.33 1462.43 2299.33 1459.84 Q2299.33 1457.18 2297.44 1455.77 Q2295.56 1454.33 2292.04 1454.33 Q2290.12 1454.33 2287.92 1454.75 Q2285.72 1455.16 2283.08 1456.04 L2283.08 1451.88 Q2285.75 1451.14 2288.06 1450.77 Q2290.4 1450.39 2292.46 1450.39 Q2297.78 1450.39 2300.88 1452.83 Q2303.99 1455.23 2303.99 1459.35 Q2303.99 1462.22 2302.34 1464.21 Q2300.7 1466.18 2297.67 1466.95 Z" fill="#000000" fill-rule="nonzero" fill-opacity="1" /><path clip-path="url(#clip000)" d="M1312.95 1531.91 Q1312.95 1532.81 1312.53 1533.04 Q1312.12 1533.23 1310.96 1533.23 L1304.77 1533.23 L1299.88 1552.69 Q1299.49 1554.39 1299.49 1555.84 Q1299.49 1557.45 1299.97 1558.16 Q1300.49 1558.87 1301.55 1558.87 Q1303.65 1558.87 1305.9 1556.97 Q1308.19 1555.07 1310.12 1550.43 Q1310.38 1549.82 1310.51 1549.69 Q1310.67 1549.53 1311.09 1549.53 Q1311.89 1549.53 1311.89 1550.17 Q1311.89 1550.4 1311.44 1551.43 Q1311.02 1552.46 1310.09 1553.97 Q1309.19 1555.49 1307.99 1556.9 Q1306.83 1558.32 1305.06 1559.35 Q1303.29 1560.35 1301.39 1560.35 Q1298.72 1560.35 1297.01 1558.64 Q1295.34 1556.94 1295.34 1554.26 Q1295.34 1553.39 1296.01 1550.62 Q1296.69 1547.82 1300.36 1533.23 L1294.53 1533.23 Q1293.73 1533.23 1293.4 1533.2 Q1293.11 1533.17 1292.89 1533.01 Q1292.7 1532.81 1292.7 1532.43 Q1292.7 1531.82 1292.95 1531.56 Q1293.21 1531.27 1293.53 1531.24 Q1293.89 1531.17 1294.69 1531.17 L1300.88 1531.17 L1303.45 1520.71 Q1303.71 1519.67 1304.35 1519.09 Q1305.03 1518.48 1305.42 1518.42 Q1305.8 1518.32 1306.09 1518.32 Q1306.96 1518.32 1307.48 1518.81 Q1307.99 1519.26 1307.99 1520.09 Q1307.99 1520.54 1305.29 1531.17 L1311.09 1531.17 Q1311.83 1531.17 1312.12 1531.2 Q1312.44 1531.24 1312.7 1531.4 Q1312.95 1531.56 1312.95 1531.91 Z" fill="#000000" fill-rule="nonzero" fill-opacity="1" /><polyline clip-path="url(#clip002)" style="stroke:#000000; stroke-linecap:round; stroke-linejoin:round; stroke-width:2; stroke-opacity:0.1; fill:none" points="256.209,1277.86 2352.76,1277.86 "/>
<polyline clip-path="url(#clip002)" style="stroke:#000000; stroke-linecap:round; stroke-linejoin:round; stroke-width:2; stroke-opacity:0.1; fill:none" points="256.209,1053.4 2352.76,1053.4 "/>
<polyline clip-path="url(#clip002)" style="stroke:#000000; stroke-linecap:round; stroke-linejoin:round; stroke-width:2; stroke-opacity:0.1; fill:none" points="256.209,828.943 2352.76,828.943 "/>
<polyline clip-path="url(#clip002)" style="stroke:#000000; stroke-linecap:round; stroke-linejoin:round; stroke-width:2; stroke-opacity:0.1; fill:none" points="256.209,604.483 2352.76,604.483 "/>
<polyline clip-path="url(#clip002)" style="stroke:#000000; stroke-linecap:round; stroke-linejoin:round; stroke-width:2; stroke-opacity:0.1; fill:none" points="256.209,380.023 2352.76,380.023 "/>
<polyline clip-path="url(#clip002)" style="stroke:#000000; stroke-linecap:round; stroke-linejoin:round; stroke-width:2; stroke-opacity:0.1; fill:none" points="256.209,155.563 2352.76,155.563 "/>
<polyline clip-path="url(#clip000)" style="stroke:#000000; stroke-linecap:round; stroke-linejoin:round; stroke-width:4; stroke-opacity:1; fill:none" points="256.209,1423.18 256.209,47.2441 "/>
<polyline clip-path="url(#clip000)" style="stroke:#000000; stroke-linecap:round; stroke-linejoin:round; stroke-width:4; stroke-opacity:1; fill:none" points="256.209,1277.86 275.106,1277.86 "/>
<polyline clip-path="url(#clip000)" style="stroke:#000000; stroke-linecap:round; stroke-linejoin:round; stroke-width:4; stroke-opacity:1; fill:none" points="256.209,1053.4 275.106,1053.4 "/>
<polyline clip-path="url(#clip000)" style="stroke:#000000; stroke-linecap:round; stroke-linejoin:round; stroke-width:4; stroke-opacity:1; fill:none" points="256.209,828.943 275.106,828.943 "/>
<polyline clip-path="url(#clip000)" style="stroke:#000000; stroke-linecap:round; stroke-linejoin:round; stroke-width:4; stroke-opacity:1; fill:none" points="256.209,604.483 275.106,604.483 "/>
<polyline clip-path="url(#clip000)" style="stroke:#000000; stroke-linecap:round; stroke-linejoin:round; stroke-width:4; stroke-opacity:1; fill:none" points="256.209,380.023 275.106,380.023 "/>
<polyline clip-path="url(#clip000)" style="stroke:#000000; stroke-linecap:round; stroke-linejoin:round; stroke-width:4; stroke-opacity:1; fill:none" points="256.209,155.563 275.106,155.563 "/>
<path clip-path="url(#clip000)" d="M114.26 1278.32 L143.936 1278.32 L143.936 1282.25 L114.26 1282.25 L114.26 1278.32 Z" fill="#000000" fill-rule="nonzero" fill-opacity="1" /><path clip-path="url(#clip000)" d="M164.028 1263.66 Q160.417 1263.66 158.589 1267.23 Q156.783 1270.77 156.783 1277.9 Q156.783 1285.01 158.589 1288.57 Q160.417 1292.11 164.028 1292.11 Q167.663 1292.11 169.468 1288.57 Q171.297 1285.01 171.297 1277.9 Q171.297 1270.77 169.468 1267.23 Q167.663 1263.66 164.028 1263.66 M164.028 1259.96 Q169.839 1259.96 172.894 1264.57 Q175.973 1269.15 175.973 1277.9 Q175.973 1286.63 172.894 1291.23 Q169.839 1295.82 164.028 1295.82 Q158.218 1295.82 155.14 1291.23 Q152.084 1286.63 152.084 1277.9 Q152.084 1269.15 155.14 1264.57 Q158.218 1259.96 164.028 1259.96 Z" fill="#000000" fill-rule="nonzero" fill-opacity="1" /><path clip-path="url(#clip000)" d="M184.19 1289.26 L189.075 1289.26 L189.075 1295.14 L184.19 1295.14 L184.19 1289.26 Z" fill="#000000" fill-rule="nonzero" fill-opacity="1" /><path clip-path="url(#clip000)" d="M199.306 1260.58 L217.662 1260.58 L217.662 1264.52 L203.588 1264.52 L203.588 1272.99 Q204.607 1272.64 205.625 1272.48 Q206.644 1272.3 207.662 1272.3 Q213.449 1272.3 216.829 1275.47 Q220.209 1278.64 220.209 1284.06 Q220.209 1289.63 216.736 1292.74 Q213.264 1295.82 206.945 1295.82 Q204.769 1295.82 202.5 1295.44 Q200.255 1295.07 197.848 1294.33 L197.848 1289.63 Q199.931 1290.77 202.153 1291.32 Q204.375 1291.88 206.852 1291.88 Q210.857 1291.88 213.195 1289.77 Q215.533 1287.67 215.533 1284.06 Q215.533 1280.45 213.195 1278.34 Q210.857 1276.23 206.852 1276.23 Q204.977 1276.23 203.102 1276.65 Q201.25 1277.07 199.306 1277.95 L199.306 1260.58 Z" fill="#000000" fill-rule="nonzero" fill-opacity="1" /><path clip-path="url(#clip000)" d="M163.033 1039.2 Q159.422 1039.2 157.593 1042.77 Q155.788 1046.31 155.788 1053.44 Q155.788 1060.54 157.593 1064.11 Q159.422 1067.65 163.033 1067.65 Q166.667 1067.65 168.473 1064.11 Q170.302 1060.54 170.302 1053.44 Q170.302 1046.31 168.473 1042.77 Q166.667 1039.2 163.033 1039.2 M163.033 1035.5 Q168.843 1035.5 171.899 1040.11 Q174.977 1044.69 174.977 1053.44 Q174.977 1062.17 171.899 1066.77 Q168.843 1071.36 163.033 1071.36 Q157.223 1071.36 154.144 1066.77 Q151.089 1062.17 151.089 1053.44 Q151.089 1044.69 154.144 1040.11 Q157.223 1035.5 163.033 1035.5 Z" fill="#000000" fill-rule="nonzero" fill-opacity="1" /><path clip-path="url(#clip000)" d="M183.195 1064.8 L188.079 1064.8 L188.079 1070.68 L183.195 1070.68 L183.195 1064.8 Z" fill="#000000" fill-rule="nonzero" fill-opacity="1" /><path clip-path="url(#clip000)" d="M208.264 1039.2 Q204.653 1039.2 202.824 1042.77 Q201.019 1046.31 201.019 1053.44 Q201.019 1060.54 202.824 1064.11 Q204.653 1067.65 208.264 1067.65 Q211.899 1067.65 213.704 1064.11 Q215.533 1060.54 215.533 1053.44 Q215.533 1046.31 213.704 1042.77 Q211.899 1039.2 208.264 1039.2 M208.264 1035.5 Q214.074 1035.5 217.13 1040.11 Q220.209 1044.69 220.209 1053.44 Q220.209 1062.17 217.13 1066.77 Q214.074 1071.36 208.264 1071.36 Q202.454 1071.36 199.375 1066.77 Q196.32 1062.17 196.32 1053.44 Q196.32 1044.69 199.375 1040.11 Q202.454 1035.5 208.264 1035.5 Z" fill="#000000" fill-rule="nonzero" fill-opacity="1" /><path clip-path="url(#clip000)" d="M164.028 814.742 Q160.417 814.742 158.589 818.307 Q156.783 821.849 156.783 828.978 Q156.783 836.085 158.589 839.649 Q160.417 843.191 164.028 843.191 Q167.663 843.191 169.468 839.649 Q171.297 836.085 171.297 828.978 Q171.297 821.849 169.468 818.307 Q167.663 814.742 164.028 814.742 M164.028 811.038 Q169.839 811.038 172.894 815.645 Q175.973 820.228 175.973 828.978 Q175.973 837.705 172.894 842.311 Q169.839 846.895 164.028 846.895 Q158.218 846.895 155.14 842.311 Q152.084 837.705 152.084 828.978 Q152.084 820.228 155.14 815.645 Q158.218 811.038 164.028 811.038 Z" fill="#000000" fill-rule="nonzero" fill-opacity="1" /><path clip-path="url(#clip000)" d="M184.19 840.344 L189.075 840.344 L189.075 846.223 L184.19 846.223 L184.19 840.344 Z" fill="#000000" fill-rule="nonzero" fill-opacity="1" /><path clip-path="url(#clip000)" d="M199.306 811.663 L217.662 811.663 L217.662 815.599 L203.588 815.599 L203.588 824.071 Q204.607 823.724 205.625 823.562 Q206.644 823.376 207.662 823.376 Q213.449 823.376 216.829 826.548 Q220.209 829.719 220.209 835.136 Q220.209 840.714 216.736 843.816 Q213.264 846.895 206.945 846.895 Q204.769 846.895 202.5 846.524 Q200.255 846.154 197.848 845.413 L197.848 840.714 Q199.931 841.848 202.153 842.404 Q204.375 842.96 206.852 842.96 Q210.857 842.96 213.195 840.853 Q215.533 838.747 215.533 835.136 Q215.533 831.524 213.195 829.418 Q210.857 827.311 206.852 827.311 Q204.977 827.311 203.102 827.728 Q201.25 828.145 199.306 829.024 L199.306 811.663 Z" fill="#000000" fill-rule="nonzero" fill-opacity="1" /><path clip-path="url(#clip000)" d="M153.843 617.828 L161.482 617.828 L161.482 591.462 L153.172 593.129 L153.172 588.87 L161.436 587.203 L166.112 587.203 L166.112 617.828 L173.751 617.828 L173.751 621.763 L153.843 621.763 L153.843 617.828 Z" fill="#000000" fill-rule="nonzero" fill-opacity="1" /><path clip-path="url(#clip000)" d="M183.195 615.884 L188.079 615.884 L188.079 621.763 L183.195 621.763 L183.195 615.884 Z" fill="#000000" fill-rule="nonzero" fill-opacity="1" /><path clip-path="url(#clip000)" d="M208.264 590.282 Q204.653 590.282 202.824 593.847 Q201.019 597.388 201.019 604.518 Q201.019 611.624 202.824 615.189 Q204.653 618.731 208.264 618.731 Q211.899 618.731 213.704 615.189 Q215.533 611.624 215.533 604.518 Q215.533 597.388 213.704 593.847 Q211.899 590.282 208.264 590.282 M208.264 586.578 Q214.074 586.578 217.13 591.185 Q220.209 595.768 220.209 604.518 Q220.209 613.245 217.13 617.851 Q214.074 622.434 208.264 622.434 Q202.454 622.434 199.375 617.851 Q196.32 613.245 196.32 604.518 Q196.32 595.768 199.375 591.185 Q202.454 586.578 208.264 586.578 Z" fill="#000000" fill-rule="nonzero" fill-opacity="1" /><path clip-path="url(#clip000)" d="M154.839 393.368 L162.477 393.368 L162.477 367.002 L154.167 368.669 L154.167 364.409 L162.431 362.743 L167.107 362.743 L167.107 393.368 L174.746 393.368 L174.746 397.303 L154.839 397.303 L154.839 393.368 Z" fill="#000000" fill-rule="nonzero" fill-opacity="1" /><path clip-path="url(#clip000)" d="M184.19 391.423 L189.075 391.423 L189.075 397.303 L184.19 397.303 L184.19 391.423 Z" fill="#000000" fill-rule="nonzero" fill-opacity="1" /><path clip-path="url(#clip000)" d="M199.306 362.743 L217.662 362.743 L217.662 366.678 L203.588 366.678 L203.588 375.15 Q204.607 374.803 205.625 374.641 Q206.644 374.456 207.662 374.456 Q213.449 374.456 216.829 377.627 Q220.209 380.798 220.209 386.215 Q220.209 391.794 216.736 394.895 Q213.264 397.974 206.945 397.974 Q204.769 397.974 202.5 397.604 Q200.255 397.233 197.848 396.493 L197.848 391.794 Q199.931 392.928 202.153 393.483 Q204.375 394.039 206.852 394.039 Q210.857 394.039 213.195 391.932 Q215.533 389.826 215.533 386.215 Q215.533 382.604 213.195 380.497 Q210.857 378.391 206.852 378.391 Q204.977 378.391 203.102 378.808 Q201.25 379.224 199.306 380.104 L199.306 362.743 Z" fill="#000000" fill-rule="nonzero" fill-opacity="1" /><path clip-path="url(#clip000)" d="M157.061 168.907 L173.38 168.907 L173.38 172.843 L151.436 172.843 L151.436 168.907 Q154.098 166.153 158.681 161.523 Q163.288 156.87 164.468 155.528 Q166.714 153.005 167.593 151.269 Q168.496 149.509 168.496 147.82 Q168.496 145.065 166.552 143.329 Q164.63 141.593 161.528 141.593 Q159.329 141.593 156.876 142.357 Q154.445 143.12 151.667 144.671 L151.667 139.949 Q154.491 138.815 156.945 138.236 Q159.399 137.658 161.436 137.658 Q166.806 137.658 170.001 140.343 Q173.195 143.028 173.195 147.519 Q173.195 149.648 172.385 151.569 Q171.598 153.468 169.491 156.06 Q168.913 156.732 165.811 159.949 Q162.709 163.144 157.061 168.907 Z" fill="#000000" fill-rule="nonzero" fill-opacity="1" /><path clip-path="url(#clip000)" d="M183.195 166.963 L188.079 166.963 L188.079 172.843 L183.195 172.843 L183.195 166.963 Z" fill="#000000" fill-rule="nonzero" fill-opacity="1" /><path clip-path="url(#clip000)" d="M208.264 141.361 Q204.653 141.361 202.824 144.926 Q201.019 148.468 201.019 155.597 Q201.019 162.704 202.824 166.268 Q204.653 169.81 208.264 169.81 Q211.899 169.81 213.704 166.268 Q215.533 162.704 215.533 155.597 Q215.533 148.468 213.704 144.926 Q211.899 141.361 208.264 141.361 M208.264 137.658 Q214.074 137.658 217.13 142.264 Q220.209 146.847 220.209 155.597 Q220.209 164.324 217.13 168.931 Q214.074 173.514 208.264 173.514 Q202.454 173.514 199.375 168.931 Q196.32 164.324 196.32 155.597 Q196.32 146.847 199.375 142.264 Q202.454 137.658 208.264 137.658 Z" fill="#000000" fill-rule="nonzero" fill-opacity="1" /><path clip-path="url(#clip000)" d="M30.8561 720.775 Q31.307 720.775 32.3698 721.064 L57.5548 727.377 Q63.1586 728.762 67.0877 733.27 Q71.0168 737.747 71.0168 742.836 Q71.0168 745.895 69.3743 747.86 Q67.764 749.824 65.2842 749.824 Q63.0942 749.824 62.0314 748.665 Q61.0008 747.505 61.0008 746.121 Q61.0008 745.67 61.1296 745.187 Q61.2584 744.703 61.8059 744.188 Q62.3534 743.673 63.2874 743.673 Q64.8011 743.673 65.9927 744.993 Q66.5402 745.637 66.669 746.249 Q66.7978 746.829 66.7978 747.827 Q67.6996 747.441 68.3115 746.732 Q68.9234 746.024 69.1489 745.219 Q69.4065 744.414 69.4709 743.898 Q69.5675 743.351 69.5675 742.836 Q69.5675 738.713 65.413 735.557 Q64.157 734.623 62.9009 733.947 Q61.6771 733.238 60.1634 732.723 Q58.682 732.208 57.8768 731.982 Q57.0717 731.725 55.2359 731.274 Q58.2311 734.269 58.2311 737.94 Q58.2311 739.486 57.8124 740.871 Q57.3937 742.224 56.5242 743.415 Q55.6224 744.607 54.0443 745.315 Q52.4662 745.992 50.3728 745.992 Q48.1506 745.992 45.1233 745.122 Q42.0959 744.253 36.5243 742.159 Q33.4004 741.032 31.8867 741.032 Q31.146 741.032 30.6951 741.193 Q30.212 741.354 30.051 741.676 Q29.8577 741.998 29.8255 742.191 Q29.7933 742.352 29.7933 742.675 Q29.7933 744.575 31.7257 746.346 Q33.658 748.117 37.9736 749.341 Q38.7787 749.599 38.972 749.76 Q39.1652 749.921 39.1652 750.404 Q39.133 751.209 38.4889 751.209 Q38.2312 751.209 37.2329 750.919 Q36.2023 750.629 34.6886 749.953 Q33.1427 749.245 31.7579 748.278 Q30.3408 747.312 29.3424 745.798 Q28.344 744.253 28.344 742.481 Q28.344 740.066 29.9221 738.584 Q31.468 737.071 33.7546 737.071 Q34.6886 737.071 35.5259 737.328 Q36.3311 737.554 38.4889 738.391 Q47.1845 741.773 51.4356 741.773 Q52.4662 741.773 53.3358 741.612 Q54.1731 741.418 55.0105 741 Q55.8156 740.581 56.2987 739.744 Q56.7496 738.874 56.7496 737.683 Q56.7496 736.169 56.0411 734.752 Q55.3003 733.303 54.302 732.401 Q53.3036 731.467 52.4662 730.919 Q51.5967 730.34 51.1458 730.211 L39.294 727.248 L34.0123 725.927 Q31.146 725.316 30.4374 725.026 Q29.7611 724.639 29.4068 723.963 Q29.0526 723.287 29.0526 722.707 Q29.0526 721.902 29.5357 721.354 Q30.0187 720.775 30.8561 720.775 Z" fill="#000000" fill-rule="nonzero" fill-opacity="1" /><polyline clip-path="url(#clip002)" style="stroke:#009af9; stroke-linecap:round; stroke-linejoin:round; stroke-width:8; stroke-opacity:1; fill:none" stroke-dasharray="32, 20" points="315.545,1053.4 319.408,1033.96 323.271,1046.75 327.134,1021.61 330.997,974.702 334.86,952.883 338.723,1004.45 342.586,941.076 346.449,938.789 350.312,894.495 354.175,920.525 358.038,870.7 361.901,925.192 365.764,953.343 369.627,969.098 373.49,950.518 377.353,957.933 381.217,981.022 385.08,984.241 388.943,1032.08 392.806,1038.87 396.669,1031.29 400.532,1075.69 404.395,1047.34 408.258,1065.7 412.121,1053.45 415.984,1066.15 419.847,1070.4 423.71,1050.37 427.573,1018.23 431.436,1025.8 435.299,1089.09 439.162,1103.72 443.025,1067.68 446.888,1056.59 450.751,1076.23 454.614,1084.27 458.477,1095.77 462.34,1147.46 466.203,1124.03 470.066,1127.46 473.929,1135.17 477.792,1136.88 481.655,1112 485.519,1125.81 489.382,1089.87 493.245,1115.38 497.108,1098.47 500.971,1097.01 504.834,1109.15 508.697,1082.46 512.56,1086.33 516.423,1097.17 520.286,1118.25 524.149,1123.45 528.012,1123.39 531.875,1093.29 535.738,1102.17 539.601,1147.41 543.464,1143.69 547.327,1132.23 551.19,1122.93 555.053,1164.78 558.916,1141.46 562.779,1130.09 566.642,1131.47 570.505,1169.22 574.368,1158.95 578.231,1131.28 582.094,1122.38 585.957,1133.14 589.821,1130.73 593.684,1148.22 597.547,1153.08 601.41,1172.19 605.273,1127.07 609.136,1102.43 612.999,1087.91 616.862,1086.95 620.725,1058.6 624.588,1092.64 628.451,1077.45 632.314,1071.29 636.177,1012.96 640.04,1016.37 643.903,1006.93 647.766,989.094 651.629,976.051 655.492,963.185 659.355,980.472 663.218,1047.21 667.081,1053.71 670.944,1068.26 674.807,1041.67 678.67,1026.68 682.533,1055.79 686.396,1054.61 690.259,1072.11 694.122,1096.74 697.986,1099.37 701.849,1107.82 705.712,1096.35 709.575,1089.54 713.438,1067.38 717.301,1062.49 721.164,1121.1 725.027,1114.01 728.89,1114.88 732.753,1159.87 736.616,1110.94 740.479,1033.55 744.342,1031.45 748.205,1028.47 752.068,1055.13 755.931,1093.73 759.794,1096.31 763.657,1108.91 767.52,1144.27 771.383,1196.84 775.246,1191.34 779.109,1195.75 782.972,1151.69 786.835,1224.88 790.698,1282.78 794.561,1291.44 798.424,1268.04 802.288,1308.17 806.151,1262.21 810.014,1220.82 813.877,1162.77 817.74,1171.52 821.603,1175.83 825.466,1165.67 829.329,1137.18 833.192,1116.92 837.055,1138.08 840.918,1164.71 844.781,1210.79 848.644,1225.93 852.507,1206.87 856.37,1210.98 860.233,1194.64 864.096,1168.24 867.959,1183.11 871.822,1210.84 875.685,1283.14 879.548,1293.61 883.411,1305.26 887.274,1283.82 891.137,1260.1 895,1196.3 898.863,1183.79 902.726,1122.14 906.59,1097.91 910.453,1079.78 914.316,1102.22 918.179,1094.26 922.042,1071.83 925.905,1114.03 929.768,1173.56 933.631,1200.12 937.494,1226.77 941.357,1216.61 945.22,1232.39 949.083,1206.19 952.946,1203.03 956.809,1194.27 960.672,1200.08 964.535,1188.54 968.398,1093.88 972.261,1115.81 976.124,1071.86 979.987,1073.36 983.85,1066.85 987.713,1049.96 991.576,1008.82 995.439,978.364 999.302,969.445 1003.17,997.848 1007.03,996.732 1010.89,979.206 1014.75,945.19 1018.62,961.776 1022.48,977.919 1026.34,1020.9 1030.21,993.195 1034.07,958.636 1037.93,939.648 1041.8,924.378 1045.66,952.091 1049.52,964.093 1053.38,947.722 1057.25,896.616 1061.11,896.394 1064.97,866.613 1068.84,879.834 1072.7,869.138 1076.56,872.756 1080.43,860.623 1084.29,873.408 1088.15,897.7 1092.02,897.547 1095.88,915.291 1099.74,919.322 1103.6,891.935 1107.47,912.217 1111.33,908.353 1115.19,930.583 1119.06,915.608 1122.92,976.386 1126.78,962.656 1130.65,959.118 1134.51,977.338 1138.37,948.557 1142.23,963.441 1146.1,943.639 1149.96,941.355 1153.82,951.393 1157.69,918.413 1161.55,945.577 1165.41,958.366 1169.28,906.562 1173.14,890.633 1177,867.013 1180.87,888.493 1184.73,875.006 1188.59,883.928 1192.45,918.839 1196.32,954.057 1200.18,939.534 1204.04,949.885 1207.91,966.471 1211.77,970.407 1215.63,969.735 1219.5,957.271 1223.36,983.174 1227.22,993.022 1231.08,983.321 1234.95,998.243 1238.81,1025.81 1242.67,996.052 1246.54,966.955 1250.4,958.828 1254.26,953.941 1258.13,992.239 1261.99,981.354 1265.85,990.416 1269.71,1011.22 1273.58,1043.59 1277.44,1040.79 1281.3,1060.6 1285.17,1082.64 1289.03,1125.31 1292.89,1070.96 1296.76,1052.47 1300.62,1077.1 1304.48,1142.05 1308.35,1139.28 1312.21,1116.55 1316.07,1106.03 1319.93,1112.26 1323.8,1106.62 1327.66,1090.47 1331.52,1085.23 1335.39,1067.22 1339.25,1078.86 1343.11,1108.84 1346.98,1088.87 1350.84,1113.24 1354.7,1116.14 1358.56,1117.92 1362.43,1144.16 1366.29,1111.62 1370.15,1097.53 1374.02,1110.71 1377.88,1147.52 1381.74,1154.03 1385.61,1148.82 1389.47,1133.36 1393.33,1131.18 1397.2,1137.71 1401.06,1168.92 1404.92,1180.05 1408.78,1226.53 1412.65,1232.03 1416.51,1286.22 1420.37,1256.26 1424.24,1308.51 1428.1,1334.1 1431.96,1316.41 1435.83,1271.84 1439.69,1308.2 1443.55,1257.41 1447.41,1251.16 1451.28,1262.11 1455.14,1308.43 1459,1283.36 1462.87,1199.23 1466.73,1133 1470.59,1122.38 1474.46,1143.28 1478.32,1175.7 1482.18,1198.32 1486.05,1206.3 1489.91,1206.36 1493.77,1185.08 1497.63,1153.46 1501.5,1156.39 1505.36,1138.2 1509.22,1121.13 1513.09,1076.19 1516.95,1100.27 1520.81,1122.4 1524.68,1139.65 1528.54,1156.91 1532.4,1137.03 1536.26,1120.11 1540.13,1168.49 1543.99,1169.7 1547.85,1188.12 1551.72,1190.12 1555.58,1197.67 1559.44,1112.73 1563.31,1118.4 1567.17,1091.22 1571.03,1133.77 1574.89,1167.88 1578.76,1122.53 1582.62,1124.65 1586.48,1085.13 1590.35,1128.38 1594.21,1090.64 1598.07,1088.34 1601.94,1085.77 1605.8,1087.98 1609.66,1053.95 1613.53,1021.09 1617.39,1042.33 1621.25,1048.07 1625.11,1051.94 1628.98,1047.86 1632.84,1024.83 1636.7,1025.56 1640.57,1002.57 1644.43,1051.15 1648.29,1017.95 1652.16,1011.31 1656.02,1036.27 1659.88,1063.93 1663.74,1091.35 1667.61,1071.15 1671.47,1089.47 1675.33,1040.88 1679.2,1035.93 1683.06,1061.11 1686.92,1036.69 1690.79,1017.56 1694.65,985.548 1698.51,992.026 1702.38,1048.24 1706.24,1051.26 1710.1,1070.2 1713.96,1053.06 1717.83,1056.38 1721.69,1028.19 1725.55,1072.69 1729.42,1078.98 1733.28,1084.42 1737.14,1075.81 1741.01,1071.39 1744.87,1060.16 1748.73,1016.49 1752.59,970.325 1756.46,972.739 1760.32,980.085 1764.18,975.993 1768.05,970.445 1771.91,955.718 1775.77,913.214 1779.64,931.326 1783.5,922.665 1787.36,942.037 1791.22,946.562 1795.09,964.135 1798.95,960.209 1802.81,969.168 1806.68,941.028 1810.54,958.531 1814.4,989.61 1818.27,1011.02 1822.13,1014.21 1825.99,1001.93 1829.86,1019.12 1833.72,1007.02 1837.58,981.523 1841.44,943.394 1845.31,959.495 1849.17,1013.15 1853.03,1045.79 1856.9,1018.63 1860.76,1008.01 1864.62,1035.43 1868.49,1045.4 1872.35,1048.3 1876.21,1046.38 1880.07,1060.31 1883.94,1084.03 1887.8,1074.56 1891.66,1127.26 1895.53,1091.58 1899.39,1102.82 1903.25,1137.63 1907.12,1136.18 1910.98,1155.85 1914.84,1156.88 1918.71,1155.77 1922.57,1107.32 1926.43,1097.48 1930.29,1118.18 1934.16,1121.71 1938.02,1144.81 1941.88,1099.29 1945.75,1054.21 1949.61,1116.65 1953.47,1113.11 1957.34,1123.66 1961.2,1125.47 1965.06,1118.82 1968.92,1150.65 1972.79,1149.94 1976.65,1197.23 1980.51,1229.59 1984.38,1253.29 1988.24,1245 1992.1,1221.91 1995.97,1214.66 1999.83,1192.91 2003.69,1174.65 2007.55,1194.19 2011.42,1183.05 2015.28,1193.3 2019.14,1181.06 2023.01,1132.37 2026.87,1163.7 2030.73,1120.2 2034.6,1137.41 2038.46,1204.5 2042.32,1219.67 2046.19,1153.95 2050.05,1111.51 2053.91,1092.08 2057.77,1109.55 2061.64,1114.56 2065.5,1143.11 2069.36,1163.85 2073.23,1173.44 2077.09,1205.53 2080.95,1224.73 2084.82,1235.07 2088.68,1200.37 2092.54,1240.1 2096.4,1206.63 2100.27,1148.77 2104.13,1168.1 2107.99,1223.21 2111.86,1230.11 2115.72,1244.83 2119.58,1309.42 2123.45,1322.3 2127.31,1328.36 2131.17,1317.51 2135.04,1318.03 2138.9,1347.25 2142.76,1350.41 2146.62,1368.9 2150.49,1381.78 2154.35,1384.24 2158.21,1357.85 2162.08,1338.55 2165.94,1322.31 2169.8,1298.46 2173.67,1249.46 2177.53,1234.31 2181.39,1244.2 2185.25,1210.82 2189.12,1245.33 2192.98,1269.12 2196.84,1279.62 2200.71,1254.41 2204.57,1251.15 2208.43,1244.39 2212.3,1237.47 2216.16,1248.54 2220.02,1255.11 2223.89,1281.84 2227.75,1331.44 2231.61,1355.42 2235.47,1367.5 2239.34,1315.32 2243.2,1341.65 2247.06,1310.38 2250.93,1284.39 2254.79,1294.47 2258.65,1286 2262.52,1265.72 2266.38,1262.56 2270.24,1244.09 2274.1,1206.72 2277.97,1208.09 2281.83,1197.03 2285.69,1190.16 2289.56,1170.86 2293.42,1141.35 "/>
<polyline clip-path="url(#clip002)" style="stroke:#e26f46; stroke-linecap:round; stroke-linejoin:round; stroke-width:8; stroke-opacity:1; fill:none" stroke-dasharray="32, 16, 4, 16" points="315.545,963.62 319.408,961.919 323.271,962.002 327.134,964.519 330.997,962.374 334.86,962.007 338.723,960.235 342.586,953.846 346.449,955.34 350.312,955.613 354.175,954.844 358.038,953.177 361.901,950.333 365.764,949.944 369.627,952.97 373.49,953.53 377.353,952.809 381.217,953.113 385.08,954.091 388.943,953.482 392.806,953.775 396.669,955.777 400.532,954.792 404.395,953.027 408.258,953.078 412.121,948.521 415.984,945.065 419.847,946.057 423.71,949.755 427.573,952.466 431.436,953.543 435.299,959.824 439.162,959.17 443.025,963.13 446.888,967.672 450.751,969.565 454.614,971.939 458.477,972.782 462.34,975.806 466.203,972.634 470.066,976.386 473.929,975.129 477.792,971.032 481.655,975.545 485.519,977.695 489.382,975.578 493.245,972.594 497.108,972.772 500.971,971.367 504.834,968.778 508.697,964.796 512.56,963.067 516.423,961.12 520.286,963.544 524.149,964.196 528.012,962.257 531.875,956.854 535.738,950.381 539.601,945.926 543.464,947.511 547.327,950.531 551.19,945.788 555.053,949.46 558.916,946.307 562.779,950.116 566.642,953.173 570.505,948.348 574.368,945.496 578.231,945.27 582.094,944.447 585.957,946.894 589.821,946.961 593.684,955.385 597.547,952.787 601.41,951.892 605.273,950.384 609.136,950.287 612.999,955.739 616.862,960.894 620.725,966.614 624.588,969.735 628.451,970.355 632.314,967.793 636.177,963.2 640.04,965.745 643.903,965.785 647.766,966.962 651.629,969.588 655.492,967.635 659.355,966.721 663.218,965.282 667.081,960.91 670.944,955.788 674.807,953.753 678.67,958.233 682.533,954.874 686.396,954.929 690.259,958.187 694.122,960.105 697.986,962.26 701.849,965.565 705.712,964.003 709.575,964.364 713.438,960.663 717.301,958.381 721.164,959.475 725.027,957.466 728.89,956.837 732.753,957.97 736.616,958.817 740.479,958.331 744.342,952.817 748.205,958.971 752.068,956.544 755.931,952.98 759.794,955.121 763.657,959.478 767.52,962.266 771.383,956.455 775.246,955.909 779.109,954.51 782.972,955.192 786.835,956.13 790.698,958.905 794.561,957.531 798.424,960.51 802.288,956.496 806.151,953.904 810.014,950.892 813.877,954.449 817.74,953.406 821.603,947.957 825.466,947.536 829.329,944.276 833.192,946.293 837.055,946.784 840.918,947.127 844.781,944.322 848.644,943.352 852.507,942.064 856.37,946.316 860.233,943.931 864.096,942.322 867.959,942.264 871.822,943.378 875.685,942.124 879.548,943.544 883.411,943.425 887.274,943.086 891.137,946.127 895,942.63 898.863,945.702 902.726,947.625 906.59,945.361 910.453,948.531 914.316,952.62 918.179,950.762 922.042,949.925 925.905,943.333 929.768,948.297 933.631,941.616 937.494,940.173 941.357,945.879 945.22,946.814 949.083,947.436 952.946,945.545 956.809,943.455 960.672,941.162 964.535,943.286 968.398,943.291 972.261,940.383 976.124,936.819 979.987,934.019 983.85,933.393 987.713,932.434 991.576,927.965 995.439,927.722 999.302,930.864 1003.17,928.289 1007.03,920.092 1010.89,924.79 1014.75,934.638 1018.62,931.873 1022.48,928.143 1026.34,920.625 1030.21,919.59 1034.07,917.599 1037.93,915.81 1041.8,915.388 1045.66,910.515 1049.52,912.195 1053.38,912.715 1057.25,916.51 1061.11,908.846 1064.97,917.127 1068.84,916.765 1072.7,913.74 1076.56,914.509 1080.43,917.306 1084.29,909.558 1088.15,914.034 1092.02,909.442 1095.88,912.537 1099.74,913.668 1103.6,918.129 1107.47,917.219 1111.33,918.424 1115.19,923.813 1119.06,926.021 1122.92,921.838 1126.78,919.123 1130.65,918.943 1134.51,916.968 1138.37,917.348 1142.23,914.665 1146.1,908.508 1149.96,903.238 1153.82,895.084 1157.69,893.611 1161.55,889.068 1165.41,879.967 1169.28,875.479 1173.14,877.504 1177,879.315 1180.87,886.056 1184.73,894.141 1188.59,897.681 1192.45,895.074 1196.32,892.005 1200.18,891.611 1204.04,891.274 1207.91,886.269 1211.77,891.582 1215.63,883.863 1219.5,885.261 1223.36,886.341 1227.22,883.4 1231.08,877.113 1234.95,880.447 1238.81,880.296 1242.67,874.999 1246.54,881.32 1250.4,877.591 1254.26,867.397 1258.13,861.454 1261.99,852.509 1265.85,849.015 1269.71,851.326 1273.58,853.689 1277.44,855.3 1281.3,859.611 1285.17,871.018 1289.03,878.269 1292.89,878.031 1296.76,880.218 1300.62,881.462 1304.48,877.118 1308.35,872.107 1312.21,872.917 1316.07,879.559 1319.93,882.722 1323.8,890.485 1327.66,893.873 1331.52,888.544 1335.39,889.719 1339.25,890.058 1343.11,892.972 1346.98,896.044 1350.84,903.669 1354.7,910.758 1358.56,916.677 1362.43,918.665 1366.29,919.419 1370.15,921.377 1374.02,921.782 1377.88,922.217 1381.74,921.555 1385.61,924.007 1389.47,928.182 1393.33,931.258 1397.2,929.339 1401.06,926.057 1404.92,928.976 1408.78,939.907 1412.65,936.727 1416.51,939.945 1420.37,940.837 1424.24,945.771 1428.1,947.5 1431.96,946.883 1435.83,950.324 1439.69,953.28 1443.55,955.541 1447.41,950.754 1451.28,952.54 1455.14,952.31 1459,949.012 1462.87,948.654 1466.73,951.043 1470.59,951.602 1474.46,949.267 1478.32,949.613 1482.18,951.762 1486.05,949.88 1489.91,948.081 1493.77,942.599 1497.63,942.727 1501.5,945.227 1505.36,947.404 1509.22,945.59 1513.09,942.706 1516.95,941.671 1520.81,939.848 1524.68,939.876 1528.54,940.009 1532.4,942.318 1536.26,947.613 1540.13,948.019 1543.99,945.941 1547.85,940.578 1551.72,936.433 1555.58,937.001 1559.44,934.418 1563.31,930.517 1567.17,933.11 1571.03,931.488 1574.89,928.677 1578.76,928.217 1582.62,928.754 1586.48,926.509 1590.35,922.742 1594.21,919.417 1598.07,921.457 1601.94,914.178 1605.8,914.594 1609.66,906.401 1613.53,905.115 1617.39,905.102 1621.25,913.468 1625.11,912.809 1628.98,911.649 1632.84,906.864 1636.7,908.112 1640.57,903.674 1644.43,913.789 1648.29,909.032 1652.16,903.536 1656.02,904.32 1659.88,898.793 1663.74,894.567 1667.61,892.198 1671.47,899.633 1675.33,901.359 1679.2,901.776 1683.06,902.613 1686.92,911.088 1690.79,915.338 1694.65,910.892 1698.51,907.738 1702.38,897.473 1706.24,883.108 1710.1,886.999 1713.96,881.749 1717.83,879.499 1721.69,879.278 1725.55,872.985 1729.42,875.603 1733.28,876.412 1737.14,886.92 1741.01,883.794 1744.87,884.526 1748.73,884.215 1752.59,877.214 1756.46,886.13 1760.32,889.706 1764.18,890.519 1768.05,884.53 1771.91,882.923 1775.77,881.597 1779.64,875.527 1783.5,872.348 1787.36,872.19 1791.22,868.058 1795.09,872.186 1798.95,875.413 1802.81,876.207 1806.68,873.261 1810.54,865.045 1814.4,863.006 1818.27,858.701 1822.13,860.388 1825.99,859.423 1829.86,862.507 1833.72,853.032 1837.58,847.544 1841.44,839.677 1845.31,846.897 1849.17,832.499 1853.03,830.256 1856.9,840.916 1860.76,838.073 1864.62,846.27 1868.49,834.709 1872.35,847.597 1876.21,847.637 1880.07,845.022 1883.94,836.271 1887.8,835.237 1891.66,833.079 1895.53,829.56 1899.39,807.802 1903.25,808.69 1907.12,803.249 1910.98,813.478 1914.84,812.766 1918.71,813.161 1922.57,817.658 1926.43,812.904 1930.29,804.382 1934.16,803.775 1938.02,798.641 1941.88,810.349 1945.75,807.561 1949.61,809.813 1953.47,812.427 1957.34,816.409 1961.2,818.284 1965.06,804.342 1968.92,800.217 1972.79,795.595 1976.65,794.917 1980.51,789.099 1984.38,782.908 1988.24,805.283 1992.1,796.468 1995.97,798.245 1999.83,804.015 2003.69,793.288 2007.55,790.459 2011.42,789.807 2015.28,777.553 2019.14,792.034 2023.01,792.349 2026.87,790.396 2030.73,780.867 2034.6,781.531 2038.46,779.875 2042.32,780.419 2046.19,782.877 2050.05,781.959 2053.91,794.773 2057.77,797.015 2061.64,796.618 2065.5,792.029 2069.36,789.102 2073.23,781.148 2077.09,777.776 2080.95,779.044 2084.82,784.301 2088.68,788.494 2092.54,770.287 2096.4,783.824 2100.27,791.048 2104.13,795.019 2107.99,807.869 2111.86,812.022 2115.72,816.02 2119.58,806.441 2123.45,805.055 2127.31,810.515 2131.17,803.006 2135.04,789.946 2138.9,802.438 2142.76,793.508 2146.62,801.778 2150.49,804.667 2154.35,799.146 2158.21,794.493 2162.08,800.019 2165.94,809.753 2169.8,802.745 2173.67,804.196 2177.53,783.4 2181.39,776.245 2185.25,785.891 2189.12,795.745 2192.98,803.603 2196.84,790.469 2200.71,789.792 2204.57,789.675 2208.43,792.494 2212.3,802.257 2216.16,811.31 2220.02,802.401 2223.89,798.652 2227.75,792.864 2231.61,791.372 2235.47,796.057 2239.34,805.397 2243.2,808.242 2247.06,811.814 2250.93,809.221 2254.79,820.52 2258.65,827.424 2262.52,826.726 2266.38,827.017 2270.24,827.661 2274.1,840.6 2277.97,825.336 2281.83,825.107 2285.69,813.52 2289.56,815.734 2293.42,818.377 "/>
<polyline clip-path="url(#clip002)" style="stroke:#3da44d; stroke-linecap:round; stroke-linejoin:round; stroke-width:8; stroke-opacity:1; fill:none" stroke-dasharray="32, 16, 4, 16, 4, 16" points="315.545,1053.4 319.408,1053.4 323.271,1053.4 327.134,1053.4 330.997,966.069 334.86,966.069 338.723,966.069 342.586,966.069 346.449,966.069 350.312,966.069 354.175,966.069 358.038,966.069 361.901,966.069 365.764,966.069 369.627,966.069 373.49,966.069 377.353,966.069 381.217,966.069 385.08,966.069 388.943,966.069 392.806,966.069 396.669,966.069 400.532,966.069 404.395,966.069 408.258,966.069 412.121,966.069 415.984,966.069 419.847,966.069 423.71,966.069 427.573,966.069 431.436,966.069 435.299,966.069 439.162,966.069 443.025,966.069 446.888,966.069 450.751,966.069 454.614,966.069 458.477,966.069 462.34,966.069 466.203,966.069 470.066,966.069 473.929,966.069 477.792,966.069 481.655,966.069 485.519,966.069 489.382,966.069 493.245,966.069 497.108,966.069 500.971,966.069 504.834,966.069 508.697,966.069 512.56,966.069 516.423,966.069 520.286,966.069 524.149,966.069 528.012,966.069 531.875,966.069 535.738,962.818 539.601,962.818 543.464,962.818 547.327,962.818 551.19,962.818 555.053,962.818 558.916,962.818 562.779,938.042 566.642,938.042 570.505,938.042 574.368,938.042 578.231,938.042 582.094,938.042 585.957,938.042 589.821,900.131 593.684,816.877 597.547,816.877 601.41,816.877 605.273,816.877 609.136,816.877 612.999,816.877 616.862,778.666 620.725,778.666 624.588,778.666 628.451,778.666 632.314,778.666 636.177,778.666 640.04,778.666 643.903,778.666 647.766,778.666 651.629,778.666 655.492,778.666 659.355,778.666 663.218,778.666 667.081,778.666 670.944,778.666 674.807,778.666 678.67,778.666 682.533,778.666 686.396,778.666 690.259,778.666 694.122,778.666 697.986,778.666 701.849,778.666 705.712,778.666 709.575,778.666 713.438,778.666 717.301,778.666 721.164,778.666 725.027,751.052 728.89,751.052 732.753,751.052 736.616,751.052 740.479,751.052 744.342,751.052 748.205,751.052 752.068,751.052 755.931,751.052 759.794,751.052 763.657,751.052 767.52,751.052 771.383,751.052 775.246,751.052 779.109,751.052 782.972,751.052 786.835,751.052 790.698,751.052 794.561,751.052 798.424,714.126 802.288,714.126 806.151,714.126 810.014,714.126 813.877,714.126 817.74,714.126 821.603,714.126 825.466,714.126 829.329,714.126 833.192,714.126 837.055,714.126 840.918,714.126 844.781,714.126 848.644,710.025 852.507,710.025 856.37,710.025 860.233,710.025 864.096,710.025 867.959,710.025 871.822,710.025 875.685,710.025 879.548,710.025 883.411,710.025 887.274,710.025 891.137,710.025 895,710.025 898.863,710.025 902.726,710.025 906.59,710.025 910.453,710.025 914.316,710.025 918.179,710.025 922.042,710.025 925.905,710.025 929.768,710.025 933.631,710.025 937.494,710.025 941.357,710.025 945.22,710.025 949.083,710.025 952.946,710.025 956.809,710.025 960.672,710.025 964.535,710.025 968.398,710.025 972.261,710.025 976.124,710.025 979.987,648.159 983.85,648.159 987.713,648.159 991.576,648.159 995.439,648.159 999.302,648.159 1003.17,648.159 1007.03,648.159 1010.89,648.159 1014.75,648.159 1018.62,648.159 1022.48,648.159 1026.34,648.159 1030.21,648.159 1034.07,648.159 1037.93,648.159 1041.8,601.29 1045.66,601.29 1049.52,601.29 1053.38,601.29 1057.25,601.29 1061.11,601.29 1064.97,601.29 1068.84,601.29 1072.7,601.29 1076.56,601.29 1080.43,601.29 1084.29,601.29 1088.15,601.29 1092.02,601.29 1095.88,601.29 1099.74,601.29 1103.6,601.29 1107.47,601.29 1111.33,601.29 1115.19,601.29 1119.06,601.29 1122.92,601.29 1126.78,601.29 1130.65,601.29 1134.51,601.29 1138.37,601.29 1142.23,601.29 1146.1,601.29 1149.96,520.149 1153.82,520.149 1157.69,520.149 1161.55,520.149 1165.41,520.149 1169.28,520.149 1173.14,520.149 1177,520.149 1180.87,520.149 1184.73,520.149 1188.59,520.149 1192.45,520.149 1196.32,520.149 1200.18,520.149 1204.04,520.149 1207.91,520.149 1211.77,520.149 1215.63,520.149 1219.5,520.149 1223.36,520.149 1227.22,520.149 1231.08,520.149 1234.95,520.149 1238.81,483.483 1242.67,483.483 1246.54,483.483 1250.4,483.483 1254.26,483.483 1258.13,483.483 1261.99,483.483 1265.85,483.483 1269.71,483.483 1273.58,483.483 1277.44,483.483 1281.3,483.483 1285.17,483.483 1289.03,483.483 1292.89,483.483 1296.76,483.483 1300.62,483.483 1304.48,483.483 1308.35,483.483 1312.21,483.483 1316.07,483.483 1319.93,483.483 1323.8,483.483 1327.66,483.483 1331.52,483.483 1335.39,483.483 1339.25,483.483 1343.11,483.483 1346.98,483.483 1350.84,483.483 1354.7,483.483 1358.56,483.483 1362.43,483.483 1366.29,483.483 1370.15,483.483 1374.02,483.483 1377.88,483.483 1381.74,483.483 1385.61,483.483 1389.47,483.483 1393.33,483.483 1397.2,483.483 1401.06,483.483 1404.92,483.483 1408.78,483.483 1412.65,483.483 1416.51,404.901 1420.37,404.901 1424.24,404.901 1428.1,404.901 1431.96,404.901 1435.83,404.901 1439.69,404.901 1443.55,404.901 1447.41,404.901 1451.28,404.901 1455.14,404.901 1459,404.901 1462.87,404.901 1466.73,404.901 1470.59,404.901 1474.46,404.901 1478.32,404.901 1482.18,404.901 1486.05,404.901 1489.91,404.901 1493.77,404.901 1497.63,404.901 1501.5,404.901 1505.36,404.901 1509.22,404.901 1513.09,404.901 1516.95,404.901 1520.81,404.901 1524.68,404.901 1528.54,404.901 1532.4,404.901 1536.26,404.901 1540.13,404.901 1543.99,404.901 1547.85,404.901 1551.72,320.144 1555.58,320.144 1559.44,320.144 1563.31,320.144 1567.17,320.144 1571.03,320.144 1574.89,320.144 1578.76,320.144 1582.62,320.144 1586.48,320.144 1590.35,320.144 1594.21,320.144 1598.07,320.144 1601.94,320.144 1605.8,320.144 1609.66,320.144 1613.53,320.144 1617.39,320.144 1621.25,320.144 1625.11,320.144 1628.98,320.144 1632.84,320.144 1636.7,320.144 1640.57,320.144 1644.43,320.144 1648.29,320.144 1652.16,320.144 1656.02,320.144 1659.88,320.144 1663.74,320.144 1667.61,320.144 1671.47,320.144 1675.33,320.144 1679.2,320.144 1683.06,320.144 1686.92,320.144 1690.79,320.144 1694.65,320.144 1698.51,281.201 1702.38,281.201 1706.24,281.201 1710.1,281.201 1713.96,281.201 1717.83,281.201 1721.69,281.201 1725.55,281.201 1729.42,281.201 1733.28,281.201 1737.14,280.449 1741.01,280.449 1744.87,280.449 1748.73,280.449 1752.59,280.449 1756.46,280.449 1760.32,262.004 1764.18,262.004 1768.05,195.411 1771.91,195.411 1775.77,195.411 1779.64,195.411 1783.5,195.411 1787.36,195.411 1791.22,195.411 1795.09,195.411 1798.95,195.411 1802.81,195.411 1806.68,195.411 1810.54,195.411 1814.4,195.411 1818.27,195.411 1822.13,195.411 1825.99,195.411 1829.86,195.411 1833.72,195.411 1837.58,195.411 1841.44,195.411 1845.31,195.411 1849.17,195.411 1853.03,195.411 1856.9,195.411 1860.76,195.411 1864.62,195.411 1868.49,195.411 1872.35,195.411 1876.21,195.411 1880.07,195.411 1883.94,195.411 1887.8,195.411 1891.66,195.411 1895.53,195.411 1899.39,195.411 1903.25,142.139 1907.12,142.139 1910.98,142.139 1914.84,142.139 1918.71,142.139 1922.57,142.139 1926.43,142.139 1930.29,142.139 1934.16,142.139 1938.02,142.139 1941.88,142.139 1945.75,142.139 1949.61,142.139 1953.47,142.139 1957.34,142.139 1961.2,142.139 1965.06,142.139 1968.92,142.139 1972.79,142.139 1976.65,142.139 1980.51,142.139 1984.38,142.139 1988.24,142.139 1992.1,142.139 1995.97,142.139 1999.83,142.139 2003.69,142.139 2007.55,142.139 2011.42,142.139 2015.28,142.139 2019.14,142.139 2023.01,142.139 2026.87,142.139 2030.73,142.139 2034.6,142.139 2038.46,142.139 2042.32,142.139 2046.19,142.139 2050.05,142.139 2053.91,135.779 2057.77,135.779 2061.64,135.779 2065.5,135.779 2069.36,135.779 2073.23,135.779 2077.09,135.779 2080.95,135.779 2084.82,135.779 2088.68,135.779 2092.54,135.779 2096.4,135.779 2100.27,135.779 2104.13,135.779 2107.99,135.779 2111.86,135.779 2115.72,135.779 2119.58,135.779 2123.45,135.779 2127.31,86.1857 2131.17,86.1857 2135.04,86.1857 2138.9,86.1857 2142.76,86.1857 2146.62,86.1857 2150.49,86.1857 2154.35,86.1857 2158.21,86.1857 2162.08,86.1857 2165.94,86.1857 2169.8,86.1857 2173.67,86.1857 2177.53,86.1857 2181.39,86.1857 2185.25,86.1857 2189.12,86.1857 2192.98,86.1857 2196.84,86.1857 2200.71,86.1857 2204.57,86.1857 2208.43,86.1857 2212.3,86.1857 2216.16,86.1857 2220.02,86.1857 2223.89,86.1857 2227.75,86.1857 2231.61,86.1857 2235.47,86.1857 2239.34,86.1857 2243.2,86.1857 2247.06,86.1857 2250.93,86.1857 2254.79,86.1857 2258.65,86.1857 2262.52,86.1857 2266.38,86.1857 2270.24,86.1857 2274.1,86.1857 2277.97,86.1857 2281.83,86.1857 2285.69,86.1857 2289.56,86.1857 2293.42,86.1857 "/>
<path clip-path="url(#clip000)" d="M326.094 300.469 L590.099 300.469 L590.099 93.1086 L326.094 93.1086  Z" fill="#ffffff" fill-rule="evenodd" fill-opacity="1"/>
<polyline clip-path="url(#clip000)" style="stroke:#000000; stroke-linecap:round; stroke-linejoin:round; stroke-width:4; stroke-opacity:1; fill:none" points="326.094,300.469 590.099,300.469 590.099,93.1086 326.094,93.1086 326.094,300.469 "/>
<polyline clip-path="url(#clip000)" style="stroke:#009af9; stroke-linecap:round; stroke-linejoin:round; stroke-width:8; stroke-opacity:1; fill:none" stroke-dasharray="32, 20" points="349.389,144.949 489.158,144.949 "/>
<path clip-path="url(#clip000)" d="M545.62 133.821 Q545.62 137.17 544.425 140.496 Q543.254 143.799 541.193 146.516 Q539.131 149.233 536.508 151.341 Q533.885 153.449 530.817 154.62 Q527.748 155.791 524.75 155.791 Q519.433 155.791 515.943 152.301 Q512.453 148.811 512.453 142.979 Q512.453 138.904 514.28 134.852 Q516.107 130.776 519.012 127.755 Q521.916 124.71 525.734 122.812 Q529.575 120.915 533.37 120.915 Q538.757 120.915 542.176 124.499 Q545.62 128.059 545.62 133.821 M541.333 131.947 Q541.333 129.371 540.607 127.427 Q539.881 125.459 538.663 124.335 Q537.468 123.211 536.04 122.672 Q534.634 122.11 533.089 122.11 Q530.09 122.11 526.882 124.054 Q523.673 125.998 521.284 129.605 Q519.995 131.572 519.058 133.938 Q518.122 136.28 517.7 138.365 Q517.278 140.426 517.091 141.878 Q516.927 143.33 516.927 144.338 Q516.927 149.022 519.176 151.786 Q521.424 154.55 525.031 154.55 Q527.865 154.55 530.629 152.887 Q533.393 151.2 535.29 148.788 Q536.977 146.703 538.218 144.197 Q539.483 141.691 540.115 139.396 Q540.748 137.1 541.029 135.25 Q541.333 133.399 541.333 131.947 Z" fill="#000000" fill-rule="nonzero" fill-opacity="1" /><path clip-path="url(#clip000)" d="M560.714 154.172 Q560.714 154.631 560.501 154.746 Q560.288 154.844 559.698 154.844 L556.55 154.844 L554.058 164.747 Q553.861 165.616 553.861 166.354 Q553.861 167.174 554.107 167.535 Q554.369 167.895 554.91 167.895 Q555.976 167.895 557.124 166.928 Q558.288 165.961 559.272 163.6 Q559.403 163.288 559.468 163.223 Q559.55 163.141 559.763 163.141 Q560.173 163.141 560.173 163.469 Q560.173 163.583 559.944 164.108 Q559.731 164.633 559.255 165.403 Q558.796 166.174 558.189 166.895 Q557.599 167.617 556.697 168.141 Q555.796 168.65 554.828 168.65 Q553.467 168.65 552.598 167.781 Q551.746 166.912 551.746 165.551 Q551.746 165.108 552.09 163.698 Q552.435 162.272 554.304 154.844 L551.336 154.844 Q550.926 154.844 550.762 154.828 Q550.615 154.812 550.5 154.73 Q550.401 154.631 550.401 154.435 Q550.401 154.123 550.533 153.992 Q550.664 153.844 550.828 153.828 Q551.008 153.795 551.418 153.795 L554.566 153.795 L555.878 148.467 Q556.009 147.942 556.337 147.647 Q556.681 147.335 556.878 147.302 Q557.075 147.253 557.222 147.253 Q557.665 147.253 557.927 147.499 Q558.189 147.729 558.189 148.155 Q558.189 148.385 556.812 153.795 L559.763 153.795 Q560.141 153.795 560.288 153.812 Q560.452 153.828 560.583 153.91 Q560.714 153.992 560.714 154.172 Z" fill="#000000" fill-rule="nonzero" fill-opacity="1" /><polyline clip-path="url(#clip000)" style="stroke:#e26f46; stroke-linecap:round; stroke-linejoin:round; stroke-width:8; stroke-opacity:1; fill:none" stroke-dasharray="32, 16, 4, 16" points="349.389,196.789 489.158,196.789 "/>
<path clip-path="url(#clip000)" d="M541.474 179.524 Q541.474 178.751 541.263 178.119 Q541.076 177.463 540.771 177.018 Q540.49 176.549 539.951 176.198 Q539.413 175.823 538.968 175.589 Q538.523 175.355 537.773 175.214 Q537.023 175.05 536.532 174.98 Q536.04 174.886 535.197 174.839 Q534.353 174.793 533.932 174.793 Q533.534 174.793 532.737 174.793 Q530.231 174.793 529.809 174.839 Q529.177 174.933 528.943 175.308 Q528.709 175.659 528.474 176.62 L525.359 189.127 L530.723 189.127 Q533.651 189.127 535.665 188.307 Q537.679 187.488 538.827 186.34 Q540.092 185.075 540.771 183.037 Q541.474 181 541.474 179.524 M546.697 201.611 Q546.697 201.869 546.486 202.455 Q546.299 203.04 545.83 203.86 Q545.362 204.656 544.729 205.382 Q544.097 206.108 543.09 206.6 Q542.083 207.116 540.935 207.116 Q540.654 207.116 540.373 207.092 Q540.092 207.092 539.389 206.975 Q538.71 206.881 538.148 206.694 Q537.586 206.53 536.883 206.132 Q536.18 205.757 535.688 205.242 Q535.22 204.703 534.892 203.86 Q534.564 202.993 534.564 201.939 Q534.564 201.002 535.337 197.864 Q536.016 195.194 536.016 194.538 Q536.016 193.812 535.782 193.132 Q535.571 192.453 535.033 191.75 Q534.517 191.048 533.416 190.626 Q532.316 190.181 530.77 190.181 L525.078 190.181 L521.893 202.9 Q521.893 202.923 521.822 203.251 Q521.752 203.555 521.752 203.719 Q521.752 204.024 521.939 204.211 Q522.15 204.399 522.666 204.492 Q523.181 204.563 523.579 204.586 Q524.001 204.586 524.867 204.586 Q525.945 204.586 526.132 204.773 Q526.226 204.89 526.226 205.101 Q526.226 205.429 526.132 205.663 Q526.062 205.874 525.874 205.944 Q525.71 206.015 525.593 206.038 Q525.476 206.062 525.265 206.062 L519.176 205.921 L513.133 206.062 Q512.453 206.062 512.453 205.523 Q512.453 205.054 512.617 204.867 Q512.781 204.656 512.992 204.633 Q513.203 204.586 513.742 204.586 Q514.913 204.586 515.615 204.516 Q516.318 204.445 516.763 204.352 Q517.232 204.235 517.466 203.907 Q517.723 203.579 517.84 203.298 Q517.958 202.993 518.122 202.314 L524.539 176.549 Q524.727 175.776 524.727 175.659 Q524.727 175.214 524.446 175.097 Q524.188 174.957 523.438 174.886 L521.612 174.793 Q521.049 174.793 520.815 174.769 Q520.604 174.746 520.44 174.629 Q520.276 174.512 520.276 174.254 Q520.276 173.598 520.557 173.458 Q520.839 173.294 521.658 173.294 L535.337 173.294 Q539.998 173.294 542.949 175.331 Q545.924 177.369 545.924 180.484 Q545.924 181.89 545.292 183.201 Q544.659 184.513 543.605 185.544 Q542.575 186.574 541.193 187.441 Q539.811 188.284 538.335 188.87 Q536.883 189.432 535.384 189.76 Q536.04 189.994 536.649 190.345 Q537.281 190.696 538.077 191.352 Q538.897 192.008 539.389 193.062 Q539.881 194.116 539.881 195.404 Q539.881 196.318 539.694 197.676 Q539.225 201.541 539.225 203.134 Q539.225 204.656 539.623 205.359 Q540.022 206.062 541.146 206.062 Q542.247 206.062 543.465 205.078 Q544.706 204.071 545.502 201.705 Q545.69 201.026 546.135 201.026 Q546.158 201.026 546.182 201.026 Q546.228 201.026 546.322 201.073 Q546.416 201.096 546.486 201.166 Q546.58 201.213 546.627 201.33 Q546.697 201.447 546.697 201.611 Z" fill="#000000" fill-rule="nonzero" fill-opacity="1" /><path clip-path="url(#clip000)" d="M561.792 205.497 Q561.792 205.956 561.579 206.07 Q561.366 206.169 560.776 206.169 L557.628 206.169 L555.136 216.072 Q554.939 216.941 554.939 217.679 Q554.939 218.498 555.185 218.859 Q555.447 219.22 555.988 219.22 Q557.054 219.22 558.202 218.252 Q559.366 217.285 560.35 214.924 Q560.481 214.613 560.546 214.547 Q560.628 214.465 560.842 214.465 Q561.251 214.465 561.251 214.793 Q561.251 214.908 561.022 215.432 Q560.809 215.957 560.333 216.728 Q559.874 217.498 559.268 218.22 Q558.677 218.941 557.776 219.466 Q556.874 219.974 555.906 219.974 Q554.546 219.974 553.677 219.105 Q552.824 218.236 552.824 216.875 Q552.824 216.433 553.168 215.022 Q553.513 213.596 555.382 206.169 L552.414 206.169 Q552.004 206.169 551.84 206.152 Q551.693 206.136 551.578 206.054 Q551.48 205.956 551.48 205.759 Q551.48 205.447 551.611 205.316 Q551.742 205.169 551.906 205.152 Q552.086 205.119 552.496 205.119 L555.644 205.119 L556.956 199.791 Q557.087 199.266 557.415 198.971 Q557.759 198.66 557.956 198.627 Q558.153 198.578 558.3 198.578 Q558.743 198.578 559.005 198.824 Q559.268 199.053 559.268 199.479 Q559.268 199.709 557.89 205.119 L560.842 205.119 Q561.219 205.119 561.366 205.136 Q561.53 205.152 561.661 205.234 Q561.792 205.316 561.792 205.497 Z" fill="#000000" fill-rule="nonzero" fill-opacity="1" /><polyline clip-path="url(#clip000)" style="stroke:#3da44d; stroke-linecap:round; stroke-linejoin:round; stroke-width:8; stroke-opacity:1; fill:none" stroke-dasharray="32, 16, 4, 16, 4, 16" points="349.389,248.629 489.158,248.629 "/>
<path clip-path="url(#clip000)" d="M546.51 225.087 L543.488 237.314 Q543.277 238.087 543.137 238.18 Q543.02 238.274 542.645 238.274 Q541.919 238.274 541.919 237.782 Q541.919 237.735 541.989 237.126 Q542.059 236.494 542.059 235.346 Q542.059 231.107 539.998 228.6 Q537.96 226.094 534.33 226.094 Q531.191 226.094 528.029 227.687 Q524.891 229.28 522.642 231.88 Q520.956 233.847 519.714 236.33 Q518.496 238.813 517.911 241.085 Q517.349 243.357 517.091 245.066 Q516.833 246.776 516.833 248.018 Q516.833 249.821 517.208 251.344 Q517.606 252.866 518.309 253.944 Q519.012 254.998 519.902 255.817 Q520.815 256.614 521.869 257.082 Q522.947 257.551 524.024 257.785 Q525.101 257.996 526.226 257.996 Q530.746 257.996 535.056 254.482 Q538.476 251.601 539.904 246.893 Q540.022 246.425 540.513 246.425 Q541.099 246.425 541.099 246.893 Q541.099 246.987 540.982 247.456 Q540.865 247.901 540.513 248.814 Q540.162 249.704 539.623 250.711 Q539.085 251.718 538.077 252.983 Q537.07 254.248 535.829 255.349 Q533.721 257.176 531.051 258.324 Q528.381 259.471 525.453 259.471 Q521.799 259.471 518.848 257.855 Q515.896 256.239 514.163 253.217 Q512.453 250.196 512.453 246.331 Q512.453 242.256 514.327 238.25 Q516.201 234.245 519.176 231.271 Q522.15 228.296 526.085 226.446 Q530.02 224.595 533.955 224.595 Q535.454 224.595 536.789 224.993 Q538.124 225.392 538.921 225.883 Q539.74 226.375 540.467 227.101 Q541.193 227.804 541.427 228.132 Q541.685 228.46 541.919 228.858 L545.268 225.181 Q545.854 224.595 545.994 224.595 Q546.275 224.595 546.392 224.759 Q546.51 224.923 546.51 225.087 Z" fill="#000000" fill-rule="nonzero" fill-opacity="1" /><path clip-path="url(#clip000)" d="M561.605 257.852 Q561.605 258.311 561.392 258.426 Q561.179 258.524 560.588 258.524 L557.44 258.524 L554.948 268.427 Q554.752 269.296 554.752 270.034 Q554.752 270.854 554.998 271.215 Q555.26 271.575 555.801 271.575 Q556.867 271.575 558.014 270.608 Q559.178 269.641 560.162 267.28 Q560.293 266.968 560.359 266.903 Q560.441 266.821 560.654 266.821 Q561.064 266.821 561.064 267.149 Q561.064 267.263 560.834 267.788 Q560.621 268.313 560.146 269.083 Q559.687 269.854 559.08 270.575 Q558.49 271.297 557.588 271.821 Q556.686 272.33 555.719 272.33 Q554.358 272.33 553.489 271.461 Q552.637 270.592 552.637 269.231 Q552.637 268.788 552.981 267.378 Q553.325 265.952 555.194 258.524 L552.227 258.524 Q551.817 258.524 551.653 258.508 Q551.505 258.492 551.39 258.41 Q551.292 258.311 551.292 258.115 Q551.292 257.803 551.423 257.672 Q551.554 257.524 551.718 257.508 Q551.899 257.475 552.309 257.475 L555.457 257.475 L556.768 252.147 Q556.899 251.622 557.227 251.327 Q557.572 251.015 557.768 250.982 Q557.965 250.933 558.113 250.933 Q558.555 250.933 558.818 251.179 Q559.08 251.409 559.08 251.835 Q559.08 252.065 557.703 257.475 L560.654 257.475 Q561.031 257.475 561.179 257.492 Q561.343 257.508 561.474 257.59 Q561.605 257.672 561.605 257.852 Z" fill="#000000" fill-rule="nonzero" fill-opacity="1" /></svg>
