<?xml version="1.0" encoding="utf-8"?>
<svg xmlns="http://www.w3.org/2000/svg" xmlns:xlink="http://www.w3.org/1999/xlink" width="600" height="400" viewBox="0 0 2400 1600">
<defs>
  <clipPath id="clip580">
    <rect x="0" y="0" width="2400" height="1600"/>
  </clipPath>
</defs>
<path clip-path="url(#clip580)" d="M0 1600 L2400 1600 L2400 0 L0 0  Z" fill="#ffffff" fill-rule="evenodd" fill-opacity="1"/>
<defs>
  <clipPath id="clip581">
    <rect x="480" y="0" width="1681" height="1600"/>
  </clipPath>
</defs>
<path clip-path="url(#clip580)" d="M287.366 1423.18 L2352.76 1423.18 L2352.76 47.2441 L287.366 47.2441  Z" fill="#ffffff" fill-rule="evenodd" fill-opacity="1"/>
<defs>
  <clipPath id="clip582">
    <rect x="287" y="47" width="2066" height="1377"/>
  </clipPath>
</defs>
<polyline clip-path="url(#clip582)" style="stroke:#000000; stroke-linecap:round; stroke-linejoin:round; stroke-width:2; stroke-opacity:0.1; fill:none" points="345.82,1423.18 345.82,47.2441 "/>
<polyline clip-path="url(#clip582)" style="stroke:#000000; stroke-linecap:round; stroke-linejoin:round; stroke-width:2; stroke-opacity:0.1; fill:none" points="832.941,1423.18 832.941,47.2441 "/>
<polyline clip-path="url(#clip582)" style="stroke:#000000; stroke-linecap:round; stroke-linejoin:round; stroke-width:2; stroke-opacity:0.1; fill:none" points="1320.06,1423.18 1320.06,47.2441 "/>
<polyline clip-path="url(#clip582)" style="stroke:#000000; stroke-linecap:round; stroke-linejoin:round; stroke-width:2; stroke-opacity:0.1; fill:none" points="1807.18,1423.18 1807.18,47.2441 "/>
<polyline clip-path="url(#clip582)" style="stroke:#000000; stroke-linecap:round; stroke-linejoin:round; stroke-width:2; stroke-opacity:0.1; fill:none" points="2294.3,1423.18 2294.3,47.2441 "/>
<polyline clip-path="url(#clip582)" style="stroke:#000000; stroke-linecap:round; stroke-linejoin:round; stroke-width:2; stroke-opacity:0.1; fill:none" points="287.366,1298.56 2352.76,1298.56 "/>
<polyline clip-path="url(#clip582)" style="stroke:#000000; stroke-linecap:round; stroke-linejoin:round; stroke-width:2; stroke-opacity:0.1; fill:none" points="287.366,1015.96 2352.76,1015.96 "/>
<polyline clip-path="url(#clip582)" style="stroke:#000000; stroke-linecap:round; stroke-linejoin:round; stroke-width:2; stroke-opacity:0.1; fill:none" points="287.366,733.364 2352.76,733.364 "/>
<polyline clip-path="url(#clip582)" style="stroke:#000000; stroke-linecap:round; stroke-linejoin:round; stroke-width:2; stroke-opacity:0.1; fill:none" points="287.366,450.764 2352.76,450.764 "/>
<polyline clip-path="url(#clip582)" style="stroke:#000000; stroke-linecap:round; stroke-linejoin:round; stroke-width:2; stroke-opacity:0.1; fill:none" points="287.366,168.165 2352.76,168.165 "/>
<polyline clip-path="url(#clip580)" style="stroke:#000000; stroke-linecap:round; stroke-linejoin:round; stroke-width:4; stroke-opacity:1; fill:none" points="287.366,1423.18 2352.76,1423.18 "/>
<polyline clip-path="url(#clip580)" style="stroke:#000000; stroke-linecap:round; stroke-linejoin:round; stroke-width:4; stroke-opacity:1; fill:none" points="345.82,1423.18 345.82,1404.28 "/>
<polyline clip-path="url(#clip580)" style="stroke:#000000; stroke-linecap:round; stroke-linejoin:round; stroke-width:4; stroke-opacity:1; fill:none" points="832.941,1423.18 832.941,1404.28 "/>
<polyline clip-path="url(#clip580)" style="stroke:#000000; stroke-linecap:round; stroke-linejoin:round; stroke-width:4; stroke-opacity:1; fill:none" points="1320.06,1423.18 1320.06,1404.28 "/>
<polyline clip-path="url(#clip580)" style="stroke:#000000; stroke-linecap:round; stroke-linejoin:round; stroke-width:4; stroke-opacity:1; fill:none" points="1807.18,1423.18 1807.18,1404.28 "/>
<polyline clip-path="url(#clip580)" style="stroke:#000000; stroke-linecap:round; stroke-linejoin:round; stroke-width:4; stroke-opacity:1; fill:none" points="2294.3,1423.18 2294.3,1404.28 "/>
<path clip-path="url(#clip580)" d="M308.124 1454.1 Q304.513 1454.1 302.684 1457.66 Q300.878 1461.2 300.878 1468.33 Q300.878 1475.44 302.684 1479.01 Q304.513 1482.55 308.124 1482.55 Q311.758 1482.55 313.564 1479.01 Q315.392 1475.44 315.392 1468.33 Q315.392 1461.2 313.564 1457.66 Q311.758 1454.1 308.124 1454.1 M308.124 1450.39 Q313.934 1450.39 316.989 1455 Q320.068 1459.58 320.068 1468.33 Q320.068 1477.06 316.989 1481.67 Q313.934 1486.25 308.124 1486.25 Q302.314 1486.25 299.235 1481.67 Q296.179 1477.06 296.179 1468.33 Q296.179 1459.58 299.235 1455 Q302.314 1450.39 308.124 1450.39 Z" fill="#000000" fill-rule="nonzero" fill-opacity="1" /><path clip-path="url(#clip580)" d="M328.286 1479.7 L333.17 1479.7 L333.17 1485.58 L328.286 1485.58 L328.286 1479.7 Z" fill="#000000" fill-rule="nonzero" fill-opacity="1" /><path clip-path="url(#clip580)" d="M353.355 1454.1 Q349.744 1454.1 347.915 1457.66 Q346.11 1461.2 346.11 1468.33 Q346.11 1475.44 347.915 1479.01 Q349.744 1482.55 353.355 1482.55 Q356.989 1482.55 358.795 1479.01 Q360.623 1475.44 360.623 1468.33 Q360.623 1461.2 358.795 1457.66 Q356.989 1454.1 353.355 1454.1 M353.355 1450.39 Q359.165 1450.39 362.221 1455 Q365.299 1459.58 365.299 1468.33 Q365.299 1477.06 362.221 1481.67 Q359.165 1486.25 353.355 1486.25 Q347.545 1486.25 344.466 1481.67 Q341.411 1477.06 341.411 1468.33 Q341.411 1459.58 344.466 1455 Q347.545 1450.39 353.355 1450.39 Z" fill="#000000" fill-rule="nonzero" fill-opacity="1" /><path clip-path="url(#clip580)" d="M383.517 1454.1 Q379.906 1454.1 378.077 1457.66 Q376.272 1461.2 376.272 1468.33 Q376.272 1475.44 378.077 1479.01 Q379.906 1482.55 383.517 1482.55 Q387.151 1482.55 388.957 1479.01 Q390.785 1475.44 390.785 1468.33 Q390.785 1461.2 388.957 1457.66 Q387.151 1454.1 383.517 1454.1 M383.517 1450.39 Q389.327 1450.39 392.383 1455 Q395.461 1459.58 395.461 1468.33 Q395.461 1477.06 392.383 1481.67 Q389.327 1486.25 383.517 1486.25 Q377.707 1486.25 374.628 1481.67 Q371.573 1477.06 371.573 1468.33 Q371.573 1459.58 374.628 1455 Q377.707 1450.39 383.517 1450.39 Z" fill="#000000" fill-rule="nonzero" fill-opacity="1" /><path clip-path="url(#clip580)" d="M795.742 1454.1 Q792.131 1454.1 790.302 1457.66 Q788.496 1461.2 788.496 1468.33 Q788.496 1475.44 790.302 1479.01 Q792.131 1482.55 795.742 1482.55 Q799.376 1482.55 801.182 1479.01 Q803.01 1475.44 803.01 1468.33 Q803.01 1461.2 801.182 1457.66 Q799.376 1454.1 795.742 1454.1 M795.742 1450.39 Q801.552 1450.39 804.607 1455 Q807.686 1459.58 807.686 1468.33 Q807.686 1477.06 804.607 1481.67 Q801.552 1486.25 795.742 1486.25 Q789.932 1486.25 786.853 1481.67 Q783.797 1477.06 783.797 1468.33 Q783.797 1459.58 786.853 1455 Q789.932 1450.39 795.742 1450.39 Z" fill="#000000" fill-rule="nonzero" fill-opacity="1" /><path clip-path="url(#clip580)" d="M815.904 1479.7 L820.788 1479.7 L820.788 1485.58 L815.904 1485.58 L815.904 1479.7 Z" fill="#000000" fill-rule="nonzero" fill-opacity="1" /><path clip-path="url(#clip580)" d="M835.001 1481.64 L851.32 1481.64 L851.32 1485.58 L829.376 1485.58 L829.376 1481.64 Q832.038 1478.89 836.621 1474.26 Q841.228 1469.61 842.408 1468.27 Q844.654 1465.74 845.533 1464.01 Q846.436 1462.25 846.436 1460.56 Q846.436 1457.8 844.491 1456.07 Q842.57 1454.33 839.468 1454.33 Q837.269 1454.33 834.816 1455.09 Q832.385 1455.86 829.607 1457.41 L829.607 1452.69 Q832.431 1451.55 834.885 1450.97 Q837.339 1450.39 839.376 1450.39 Q844.746 1450.39 847.941 1453.08 Q851.135 1455.77 851.135 1460.26 Q851.135 1462.39 850.325 1464.31 Q849.538 1466.2 847.431 1468.8 Q846.853 1469.47 843.751 1472.69 Q840.649 1475.88 835.001 1481.64 Z" fill="#000000" fill-rule="nonzero" fill-opacity="1" /><path clip-path="url(#clip580)" d="M861.181 1451.02 L879.538 1451.02 L879.538 1454.96 L865.464 1454.96 L865.464 1463.43 Q866.482 1463.08 867.501 1462.92 Q868.519 1462.73 869.538 1462.73 Q875.325 1462.73 878.704 1465.9 Q882.084 1469.08 882.084 1474.49 Q882.084 1480.07 878.612 1483.17 Q875.139 1486.25 868.82 1486.25 Q866.644 1486.25 864.376 1485.88 Q862.13 1485.51 859.723 1484.77 L859.723 1480.07 Q861.806 1481.2 864.028 1481.76 Q866.251 1482.32 868.727 1482.32 Q872.732 1482.32 875.07 1480.21 Q877.408 1478.1 877.408 1474.49 Q877.408 1470.88 875.07 1468.77 Q872.732 1466.67 868.727 1466.67 Q866.852 1466.67 864.977 1467.08 Q863.126 1467.5 861.181 1468.38 L861.181 1451.02 Z" fill="#000000" fill-rule="nonzero" fill-opacity="1" /><path clip-path="url(#clip580)" d="M1282.36 1454.1 Q1278.75 1454.1 1276.92 1457.66 Q1275.12 1461.2 1275.12 1468.33 Q1275.12 1475.44 1276.92 1479.01 Q1278.75 1482.55 1282.36 1482.55 Q1286 1482.55 1287.8 1479.01 Q1289.63 1475.44 1289.63 1468.33 Q1289.63 1461.2 1287.8 1457.66 Q1286 1454.1 1282.36 1454.1 M1282.36 1450.39 Q1288.17 1450.39 1291.23 1455 Q1294.31 1459.58 1294.31 1468.33 Q1294.31 1477.06 1291.23 1481.67 Q1288.17 1486.25 1282.36 1486.25 Q1276.55 1486.25 1273.48 1481.67 Q1270.42 1477.06 1270.42 1468.33 Q1270.42 1459.58 1273.48 1455 Q1276.55 1450.39 1282.36 1450.39 Z" fill="#000000" fill-rule="nonzero" fill-opacity="1" /><path clip-path="url(#clip580)" d="M1302.53 1479.7 L1307.41 1479.7 L1307.41 1485.58 L1302.53 1485.58 L1302.53 1479.7 Z" fill="#000000" fill-rule="nonzero" fill-opacity="1" /><path clip-path="url(#clip580)" d="M1317.64 1451.02 L1336 1451.02 L1336 1454.96 L1321.92 1454.96 L1321.92 1463.43 Q1322.94 1463.08 1323.96 1462.92 Q1324.98 1462.73 1326 1462.73 Q1331.79 1462.73 1335.16 1465.9 Q1338.54 1469.08 1338.54 1474.49 Q1338.54 1480.07 1335.07 1483.17 Q1331.6 1486.25 1325.28 1486.25 Q1323.1 1486.25 1320.84 1485.88 Q1318.59 1485.51 1316.18 1484.77 L1316.18 1480.07 Q1318.27 1481.2 1320.49 1481.76 Q1322.71 1482.32 1325.19 1482.32 Q1329.19 1482.32 1331.53 1480.21 Q1333.87 1478.1 1333.87 1474.49 Q1333.87 1470.88 1331.53 1468.77 Q1329.19 1466.67 1325.19 1466.67 Q1323.31 1466.67 1321.44 1467.08 Q1319.59 1467.5 1317.64 1468.38 L1317.64 1451.02 Z" fill="#000000" fill-rule="nonzero" fill-opacity="1" /><path clip-path="url(#clip580)" d="M1357.76 1454.1 Q1354.15 1454.1 1352.32 1457.66 Q1350.51 1461.2 1350.51 1468.33 Q1350.51 1475.44 1352.32 1479.01 Q1354.15 1482.55 1357.76 1482.55 Q1361.39 1482.55 1363.2 1479.01 Q1365.03 1475.44 1365.03 1468.33 Q1365.03 1461.2 1363.2 1457.66 Q1361.39 1454.1 1357.76 1454.1 M1357.76 1450.39 Q1363.57 1450.39 1366.62 1455 Q1369.7 1459.58 1369.7 1468.33 Q1369.7 1477.06 1366.62 1481.67 Q1363.57 1486.25 1357.76 1486.25 Q1351.95 1486.25 1348.87 1481.67 Q1345.81 1477.06 1345.81 1468.33 Q1345.81 1459.58 1348.87 1455 Q1351.95 1450.39 1357.76 1450.39 Z" fill="#000000" fill-rule="nonzero" fill-opacity="1" /><path clip-path="url(#clip580)" d="M1769.98 1454.1 Q1766.37 1454.1 1764.54 1457.66 Q1762.74 1461.2 1762.74 1468.33 Q1762.74 1475.44 1764.54 1479.01 Q1766.37 1482.55 1769.98 1482.55 Q1773.62 1482.55 1775.42 1479.01 Q1777.25 1475.44 1777.25 1468.33 Q1777.25 1461.2 1775.42 1457.66 Q1773.62 1454.1 1769.98 1454.1 M1769.98 1450.39 Q1775.79 1450.39 1778.85 1455 Q1781.93 1459.58 1781.93 1468.33 Q1781.93 1477.06 1778.85 1481.67 Q1775.79 1486.25 1769.98 1486.25 Q1764.17 1486.25 1761.09 1481.67 Q1758.04 1477.06 1758.04 1468.33 Q1758.04 1459.58 1761.09 1455 Q1764.17 1450.39 1769.98 1450.39 Z" fill="#000000" fill-rule="nonzero" fill-opacity="1" /><path clip-path="url(#clip580)" d="M1790.14 1479.7 L1795.03 1479.7 L1795.03 1485.58 L1790.14 1485.58 L1790.14 1479.7 Z" fill="#000000" fill-rule="nonzero" fill-opacity="1" /><path clip-path="url(#clip580)" d="M1804.03 1451.02 L1826.26 1451.02 L1826.26 1453.01 L1813.71 1485.58 L1808.82 1485.58 L1820.63 1454.96 L1804.03 1454.96 L1804.03 1451.02 Z" fill="#000000" fill-rule="nonzero" fill-opacity="1" /><path clip-path="url(#clip580)" d="M1835.42 1451.02 L1853.78 1451.02 L1853.78 1454.96 L1839.7 1454.96 L1839.7 1463.43 Q1840.72 1463.08 1841.74 1462.92 Q1842.76 1462.73 1843.78 1462.73 Q1849.57 1462.73 1852.94 1465.9 Q1856.32 1469.08 1856.32 1474.49 Q1856.32 1480.07 1852.85 1483.17 Q1849.38 1486.25 1843.06 1486.25 Q1840.88 1486.25 1838.62 1485.88 Q1836.37 1485.51 1833.96 1484.77 L1833.96 1480.07 Q1836.05 1481.2 1838.27 1481.76 Q1840.49 1482.32 1842.97 1482.32 Q1846.97 1482.32 1849.31 1480.21 Q1851.65 1478.1 1851.65 1474.49 Q1851.65 1470.88 1849.31 1468.77 Q1846.97 1466.67 1842.97 1466.67 Q1841.09 1466.67 1839.22 1467.08 Q1837.37 1467.5 1835.42 1468.38 L1835.42 1451.02 Z" fill="#000000" fill-rule="nonzero" fill-opacity="1" /><path clip-path="url(#clip580)" d="M2246.37 1481.64 L2254.01 1481.64 L2254.01 1455.28 L2245.7 1456.95 L2245.7 1452.69 L2253.97 1451.02 L2258.64 1451.02 L2258.64 1481.64 L2266.28 1481.64 L2266.28 1485.58 L2246.37 1485.58 L2246.37 1481.64 Z" fill="#000000" fill-rule="nonzero" fill-opacity="1" /><path clip-path="url(#clip580)" d="M2275.73 1479.7 L2280.61 1479.7 L2280.61 1485.58 L2275.73 1485.58 L2275.73 1479.7 Z" fill="#000000" fill-rule="nonzero" fill-opacity="1" /><path clip-path="url(#clip580)" d="M2300.79 1454.1 Q2297.18 1454.1 2295.35 1457.66 Q2293.55 1461.2 2293.55 1468.33 Q2293.55 1475.44 2295.35 1479.01 Q2297.18 1482.55 2300.79 1482.55 Q2304.43 1482.55 2306.23 1479.01 Q2308.06 1475.44 2308.06 1468.33 Q2308.06 1461.2 2306.23 1457.66 Q2304.43 1454.1 2300.79 1454.1 M2300.79 1450.39 Q2306.6 1450.39 2309.66 1455 Q2312.74 1459.58 2312.74 1468.33 Q2312.74 1477.06 2309.66 1481.67 Q2306.6 1486.25 2300.79 1486.25 Q2294.98 1486.25 2291.91 1481.67 Q2288.85 1477.06 2288.85 1468.33 Q2288.85 1459.58 2291.91 1455 Q2294.98 1450.39 2300.79 1450.39 Z" fill="#000000" fill-rule="nonzero" fill-opacity="1" /><path clip-path="url(#clip580)" d="M2330.96 1454.1 Q2327.35 1454.1 2325.52 1457.66 Q2323.71 1461.2 2323.71 1468.33 Q2323.71 1475.44 2325.52 1479.01 Q2327.35 1482.55 2330.96 1482.55 Q2334.59 1482.55 2336.4 1479.01 Q2338.22 1475.44 2338.22 1468.33 Q2338.22 1461.2 2336.4 1457.66 Q2334.59 1454.1 2330.96 1454.1 M2330.96 1450.39 Q2336.77 1450.39 2339.82 1455 Q2342.9 1459.58 2342.9 1468.33 Q2342.9 1477.06 2339.82 1481.67 Q2336.77 1486.25 2330.96 1486.25 Q2325.15 1486.25 2322.07 1481.67 Q2319.01 1477.06 2319.01 1468.33 Q2319.01 1459.58 2322.07 1455 Q2325.15 1450.39 2330.96 1450.39 Z" fill="#000000" fill-rule="nonzero" fill-opacity="1" /><path clip-path="url(#clip580)" d="M1328.53 1531.91 Q1328.53 1532.81 1328.11 1533.04 Q1327.69 1533.23 1326.54 1533.23 L1320.35 1533.23 L1315.46 1552.69 Q1315.07 1554.39 1315.07 1555.84 Q1315.07 1557.45 1315.55 1558.16 Q1316.07 1558.87 1317.13 1558.87 Q1319.22 1558.87 1321.48 1556.97 Q1323.77 1555.07 1325.7 1550.43 Q1325.96 1549.82 1326.08 1549.69 Q1326.25 1549.53 1326.66 1549.53 Q1327.47 1549.53 1327.47 1550.17 Q1327.47 1550.4 1327.02 1551.43 Q1326.6 1552.46 1325.67 1553.97 Q1324.76 1555.49 1323.57 1556.9 Q1322.41 1558.32 1320.64 1559.35 Q1318.87 1560.35 1316.97 1560.35 Q1314.3 1560.35 1312.59 1558.64 Q1310.92 1556.94 1310.92 1554.26 Q1310.92 1553.39 1311.59 1550.62 Q1312.27 1547.82 1315.94 1533.23 L1310.11 1533.23 Q1309.31 1533.23 1308.98 1533.2 Q1308.69 1533.17 1308.47 1533.01 Q1308.27 1532.81 1308.27 1532.43 Q1308.27 1531.82 1308.53 1531.56 Q1308.79 1531.27 1309.11 1531.24 Q1309.47 1531.17 1310.27 1531.17 L1316.45 1531.17 L1319.03 1520.71 Q1319.29 1519.67 1319.93 1519.09 Q1320.61 1518.48 1321 1518.42 Q1321.38 1518.32 1321.67 1518.32 Q1322.54 1518.32 1323.06 1518.81 Q1323.57 1519.26 1323.57 1520.09 Q1323.57 1520.54 1320.87 1531.17 L1326.66 1531.17 Q1327.4 1531.17 1327.69 1531.2 Q1328.02 1531.24 1328.27 1531.4 Q1328.53 1531.56 1328.53 1531.91 Z" fill="#000000" fill-rule="nonzero" fill-opacity="1" /><polyline clip-path="url(#clip580)" style="stroke:#000000; stroke-linecap:round; stroke-linejoin:round; stroke-width:4; stroke-opacity:1; fill:none" points="287.366,1423.18 287.366,47.2441 "/>
<polyline clip-path="url(#clip580)" style="stroke:#000000; stroke-linecap:round; stroke-linejoin:round; stroke-width:4; stroke-opacity:1; fill:none" points="287.366,1298.56 306.264,1298.56 "/>
<polyline clip-path="url(#clip580)" style="stroke:#000000; stroke-linecap:round; stroke-linejoin:round; stroke-width:4; stroke-opacity:1; fill:none" points="287.366,1015.96 306.264,1015.96 "/>
<polyline clip-path="url(#clip580)" style="stroke:#000000; stroke-linecap:round; stroke-linejoin:round; stroke-width:4; stroke-opacity:1; fill:none" points="287.366,733.364 306.264,733.364 "/>
<polyline clip-path="url(#clip580)" style="stroke:#000000; stroke-linecap:round; stroke-linejoin:round; stroke-width:4; stroke-opacity:1; fill:none" points="287.366,450.764 306.264,450.764 "/>
<polyline clip-path="url(#clip580)" style="stroke:#000000; stroke-linecap:round; stroke-linejoin:round; stroke-width:4; stroke-opacity:1; fill:none" points="287.366,168.165 306.264,168.165 "/>
<path clip-path="url(#clip580)" d="M114.26 1299.01 L143.936 1299.01 L143.936 1302.95 L114.26 1302.95 L114.26 1299.01 Z" fill="#000000" fill-rule="nonzero" fill-opacity="1" /><path clip-path="url(#clip580)" d="M164.028 1284.36 Q160.417 1284.36 158.589 1287.93 Q156.783 1291.47 156.783 1298.6 Q156.783 1305.7 158.589 1309.27 Q160.417 1312.81 164.028 1312.81 Q167.663 1312.81 169.468 1309.27 Q171.297 1305.7 171.297 1298.6 Q171.297 1291.47 169.468 1287.93 Q167.663 1284.36 164.028 1284.36 M164.028 1280.66 Q169.839 1280.66 172.894 1285.26 Q175.973 1289.85 175.973 1298.6 Q175.973 1307.32 172.894 1311.93 Q169.839 1316.51 164.028 1316.51 Q158.218 1316.51 155.14 1311.93 Q152.084 1307.32 152.084 1298.6 Q152.084 1289.85 155.14 1285.26 Q158.218 1280.66 164.028 1280.66 Z" fill="#000000" fill-rule="nonzero" fill-opacity="1" /><path clip-path="url(#clip580)" d="M184.19 1309.96 L189.075 1309.96 L189.075 1315.84 L184.19 1315.84 L184.19 1309.96 Z" fill="#000000" fill-rule="nonzero" fill-opacity="1" /><path clip-path="url(#clip580)" d="M199.306 1281.28 L217.662 1281.28 L217.662 1285.22 L203.588 1285.22 L203.588 1293.69 Q204.607 1293.34 205.625 1293.18 Q206.644 1292.99 207.662 1292.99 Q213.449 1292.99 216.829 1296.17 Q220.209 1299.34 220.209 1304.75 Q220.209 1310.33 216.736 1313.43 Q213.264 1316.51 206.945 1316.51 Q204.769 1316.51 202.5 1316.14 Q200.255 1315.77 197.848 1315.03 L197.848 1310.33 Q199.931 1311.47 202.153 1312.02 Q204.375 1312.58 206.852 1312.58 Q210.857 1312.58 213.195 1310.47 Q215.533 1308.37 215.533 1304.75 Q215.533 1301.14 213.195 1299.04 Q210.857 1296.93 206.852 1296.93 Q204.977 1296.93 203.102 1297.35 Q201.25 1297.76 199.306 1298.64 L199.306 1281.28 Z" fill="#000000" fill-rule="nonzero" fill-opacity="1" /><path clip-path="url(#clip580)" d="M239.422 1284.36 Q235.81 1284.36 233.982 1287.93 Q232.176 1291.47 232.176 1298.6 Q232.176 1305.7 233.982 1309.27 Q235.81 1312.81 239.422 1312.81 Q243.056 1312.81 244.861 1309.27 Q246.69 1305.7 246.69 1298.6 Q246.69 1291.47 244.861 1287.93 Q243.056 1284.36 239.422 1284.36 M239.422 1280.66 Q245.232 1280.66 248.287 1285.26 Q251.366 1289.85 251.366 1298.6 Q251.366 1307.32 248.287 1311.93 Q245.232 1316.51 239.422 1316.51 Q233.611 1316.51 230.533 1311.93 Q227.477 1307.32 227.477 1298.6 Q227.477 1289.85 230.533 1285.26 Q233.611 1280.66 239.422 1280.66 Z" fill="#000000" fill-rule="nonzero" fill-opacity="1" /><path clip-path="url(#clip580)" d="M115.256 1016.41 L144.931 1016.41 L144.931 1020.35 L115.256 1020.35 L115.256 1016.41 Z" fill="#000000" fill-rule="nonzero" fill-opacity="1" /><path clip-path="url(#clip580)" d="M165.024 1001.76 Q161.413 1001.76 159.584 1005.33 Q157.778 1008.87 157.778 1016 Q157.778 1023.1 159.584 1026.67 Q161.413 1030.21 165.024 1030.21 Q168.658 1030.21 170.464 1026.67 Q172.292 1023.1 172.292 1016 Q172.292 1008.87 170.464 1005.33 Q168.658 1001.76 165.024 1001.76 M165.024 998.058 Q170.834 998.058 173.889 1002.66 Q176.968 1007.25 176.968 1016 Q176.968 1024.72 173.889 1029.33 Q170.834 1033.91 165.024 1033.91 Q159.214 1033.91 156.135 1029.33 Q153.079 1024.72 153.079 1016 Q153.079 1007.25 156.135 1002.66 Q159.214 998.058 165.024 998.058 Z" fill="#000000" fill-rule="nonzero" fill-opacity="1" /><path clip-path="url(#clip580)" d="M185.186 1027.36 L190.07 1027.36 L190.07 1033.24 L185.186 1033.24 L185.186 1027.36 Z" fill="#000000" fill-rule="nonzero" fill-opacity="1" /><path clip-path="url(#clip580)" d="M204.283 1029.31 L220.602 1029.31 L220.602 1033.24 L198.658 1033.24 L198.658 1029.31 Q201.32 1026.55 205.903 1021.92 Q210.51 1017.27 211.69 1015.93 Q213.936 1013.4 214.815 1011.67 Q215.718 1009.91 215.718 1008.22 Q215.718 1005.47 213.774 1003.73 Q211.852 1001.99 208.75 1001.99 Q206.551 1001.99 204.098 1002.76 Q201.667 1003.52 198.889 1005.07 L198.889 1000.35 Q201.713 999.215 204.167 998.636 Q206.621 998.058 208.658 998.058 Q214.028 998.058 217.223 1000.74 Q220.417 1003.43 220.417 1007.92 Q220.417 1010.05 219.607 1011.97 Q218.82 1013.87 216.713 1016.46 Q216.135 1017.13 213.033 1020.35 Q209.931 1023.54 204.283 1029.31 Z" fill="#000000" fill-rule="nonzero" fill-opacity="1" /><path clip-path="url(#clip580)" d="M230.463 998.683 L248.82 998.683 L248.82 1002.62 L234.746 1002.62 L234.746 1011.09 Q235.764 1010.74 236.783 1010.58 Q237.801 1010.4 238.82 1010.4 Q244.607 1010.4 247.986 1013.57 Q251.366 1016.74 251.366 1022.15 Q251.366 1027.73 247.894 1030.84 Q244.421 1033.91 238.102 1033.91 Q235.926 1033.91 233.658 1033.54 Q231.412 1033.17 229.005 1032.43 L229.005 1027.73 Q231.088 1028.87 233.31 1029.42 Q235.533 1029.98 238.009 1029.98 Q242.014 1029.98 244.352 1027.87 Q246.69 1025.77 246.69 1022.15 Q246.69 1018.54 244.352 1016.44 Q242.014 1014.33 238.009 1014.33 Q236.135 1014.33 234.26 1014.75 Q232.408 1015.16 230.463 1016.04 L230.463 998.683 Z" fill="#000000" fill-rule="nonzero" fill-opacity="1" /><path clip-path="url(#clip580)" d="M164.028 719.162 Q160.417 719.162 158.589 722.727 Q156.783 726.269 156.783 733.398 Q156.783 740.505 158.589 744.069 Q160.417 747.611 164.028 747.611 Q167.663 747.611 169.468 744.069 Q171.297 740.505 171.297 733.398 Q171.297 726.269 169.468 722.727 Q167.663 719.162 164.028 719.162 M164.028 715.459 Q169.839 715.459 172.894 720.065 Q175.973 724.648 175.973 733.398 Q175.973 742.125 172.894 746.731 Q169.839 751.315 164.028 751.315 Q158.218 751.315 155.14 746.731 Q152.084 742.125 152.084 733.398 Q152.084 724.648 155.14 720.065 Q158.218 715.459 164.028 715.459 Z" fill="#000000" fill-rule="nonzero" fill-opacity="1" /><path clip-path="url(#clip580)" d="M184.19 744.764 L189.075 744.764 L189.075 750.644 L184.19 750.644 L184.19 744.764 Z" fill="#000000" fill-rule="nonzero" fill-opacity="1" /><path clip-path="url(#clip580)" d="M209.26 719.162 Q205.649 719.162 203.82 722.727 Q202.014 726.269 202.014 733.398 Q202.014 740.505 203.82 744.069 Q205.649 747.611 209.26 747.611 Q212.894 747.611 214.699 744.069 Q216.528 740.505 216.528 733.398 Q216.528 726.269 214.699 722.727 Q212.894 719.162 209.26 719.162 M209.26 715.459 Q215.07 715.459 218.125 720.065 Q221.204 724.648 221.204 733.398 Q221.204 742.125 218.125 746.731 Q215.07 751.315 209.26 751.315 Q203.449 751.315 200.371 746.731 Q197.315 742.125 197.315 733.398 Q197.315 724.648 200.371 720.065 Q203.449 715.459 209.26 715.459 Z" fill="#000000" fill-rule="nonzero" fill-opacity="1" /><path clip-path="url(#clip580)" d="M239.422 719.162 Q235.81 719.162 233.982 722.727 Q232.176 726.269 232.176 733.398 Q232.176 740.505 233.982 744.069 Q235.81 747.611 239.422 747.611 Q243.056 747.611 244.861 744.069 Q246.69 740.505 246.69 733.398 Q246.69 726.269 244.861 722.727 Q243.056 719.162 239.422 719.162 M239.422 715.459 Q245.232 715.459 248.287 720.065 Q251.366 724.648 251.366 733.398 Q251.366 742.125 248.287 746.731 Q245.232 751.315 239.422 751.315 Q233.611 751.315 230.533 746.731 Q227.477 742.125 227.477 733.398 Q227.477 724.648 230.533 720.065 Q233.611 715.459 239.422 715.459 Z" fill="#000000" fill-rule="nonzero" fill-opacity="1" /><path clip-path="url(#clip580)" d="M165.024 436.563 Q161.413 436.563 159.584 440.128 Q157.778 443.669 157.778 450.799 Q157.778 457.905 159.584 461.47 Q161.413 465.012 165.024 465.012 Q168.658 465.012 170.464 461.47 Q172.292 457.905 172.292 450.799 Q172.292 443.669 170.464 440.128 Q168.658 436.563 165.024 436.563 M165.024 432.859 Q170.834 432.859 173.889 437.466 Q176.968 442.049 176.968 450.799 Q176.968 459.526 173.889 464.132 Q170.834 468.716 165.024 468.716 Q159.214 468.716 156.135 464.132 Q153.079 459.526 153.079 450.799 Q153.079 442.049 156.135 437.466 Q159.214 432.859 165.024 432.859 Z" fill="#000000" fill-rule="nonzero" fill-opacity="1" /><path clip-path="url(#clip580)" d="M185.186 462.165 L190.07 462.165 L190.07 468.044 L185.186 468.044 L185.186 462.165 Z" fill="#000000" fill-rule="nonzero" fill-opacity="1" /><path clip-path="url(#clip580)" d="M204.283 464.109 L220.602 464.109 L220.602 468.044 L198.658 468.044 L198.658 464.109 Q201.32 461.354 205.903 456.725 Q210.51 452.072 211.69 450.73 Q213.936 448.206 214.815 446.47 Q215.718 444.711 215.718 443.021 Q215.718 440.267 213.774 438.531 Q211.852 436.794 208.75 436.794 Q206.551 436.794 204.098 437.558 Q201.667 438.322 198.889 439.873 L198.889 435.151 Q201.713 434.017 204.167 433.438 Q206.621 432.859 208.658 432.859 Q214.028 432.859 217.223 435.544 Q220.417 438.23 220.417 442.72 Q220.417 444.85 219.607 446.771 Q218.82 448.669 216.713 451.262 Q216.135 451.933 213.033 455.151 Q209.931 458.345 204.283 464.109 Z" fill="#000000" fill-rule="nonzero" fill-opacity="1" /><path clip-path="url(#clip580)" d="M230.463 433.484 L248.82 433.484 L248.82 437.419 L234.746 437.419 L234.746 445.892 Q235.764 445.544 236.783 445.382 Q237.801 445.197 238.82 445.197 Q244.607 445.197 247.986 448.368 Q251.366 451.54 251.366 456.956 Q251.366 462.535 247.894 465.637 Q244.421 468.716 238.102 468.716 Q235.926 468.716 233.658 468.345 Q231.412 467.975 229.005 467.234 L229.005 462.535 Q231.088 463.669 233.31 464.225 Q235.533 464.78 238.009 464.78 Q242.014 464.78 244.352 462.674 Q246.69 460.567 246.69 456.956 Q246.69 453.345 244.352 451.239 Q242.014 449.132 238.009 449.132 Q236.135 449.132 234.26 449.549 Q232.408 449.966 230.463 450.845 L230.463 433.484 Z" fill="#000000" fill-rule="nonzero" fill-opacity="1" /><path clip-path="url(#clip580)" d="M164.028 153.964 Q160.417 153.964 158.589 157.529 Q156.783 161.07 156.783 168.2 Q156.783 175.306 158.589 178.871 Q160.417 182.413 164.028 182.413 Q167.663 182.413 169.468 178.871 Q171.297 175.306 171.297 168.2 Q171.297 161.07 169.468 157.529 Q167.663 153.964 164.028 153.964 M164.028 150.26 Q169.839 150.26 172.894 154.866 Q175.973 159.45 175.973 168.2 Q175.973 176.927 172.894 181.533 Q169.839 186.116 164.028 186.116 Q158.218 186.116 155.14 181.533 Q152.084 176.927 152.084 168.2 Q152.084 159.45 155.14 154.866 Q158.218 150.26 164.028 150.26 Z" fill="#000000" fill-rule="nonzero" fill-opacity="1" /><path clip-path="url(#clip580)" d="M184.19 179.565 L189.075 179.565 L189.075 185.445 L184.19 185.445 L184.19 179.565 Z" fill="#000000" fill-rule="nonzero" fill-opacity="1" /><path clip-path="url(#clip580)" d="M199.306 150.885 L217.662 150.885 L217.662 154.82 L203.588 154.82 L203.588 163.292 Q204.607 162.945 205.625 162.783 Q206.644 162.598 207.662 162.598 Q213.449 162.598 216.829 165.769 Q220.209 168.94 220.209 174.357 Q220.209 179.936 216.736 183.038 Q213.264 186.116 206.945 186.116 Q204.769 186.116 202.5 185.746 Q200.255 185.376 197.848 184.635 L197.848 179.936 Q199.931 181.07 202.153 181.626 Q204.375 182.181 206.852 182.181 Q210.857 182.181 213.195 180.075 Q215.533 177.968 215.533 174.357 Q215.533 170.746 213.195 168.64 Q210.857 166.533 206.852 166.533 Q204.977 166.533 203.102 166.95 Q201.25 167.366 199.306 168.246 L199.306 150.885 Z" fill="#000000" fill-rule="nonzero" fill-opacity="1" /><path clip-path="url(#clip580)" d="M239.422 153.964 Q235.81 153.964 233.982 157.529 Q232.176 161.07 232.176 168.2 Q232.176 175.306 233.982 178.871 Q235.81 182.413 239.422 182.413 Q243.056 182.413 244.861 178.871 Q246.69 175.306 246.69 168.2 Q246.69 161.07 244.861 157.529 Q243.056 153.964 239.422 153.964 M239.422 150.26 Q245.232 150.26 248.287 154.866 Q251.366 159.45 251.366 168.2 Q251.366 176.927 248.287 181.533 Q245.232 186.116 239.422 186.116 Q233.611 186.116 230.533 181.533 Q227.477 176.927 227.477 168.2 Q227.477 159.45 230.533 154.866 Q233.611 150.26 239.422 150.26 Z" fill="#000000" fill-rule="nonzero" fill-opacity="1" /><path clip-path="url(#clip580)" d="M30.8561 720.775 Q31.307 720.775 32.3698 721.064 L57.5548 727.377 Q63.1586 728.762 67.0877 733.27 Q71.0168 737.747 71.0168 742.836 Q71.0168 745.895 69.3743 747.86 Q67.764 749.824 65.2842 749.824 Q63.0942 749.824 62.0314 748.665 Q61.0008 747.505 61.0008 746.121 Q61.0008 745.67 61.1296 745.187 Q61.2584 744.703 61.8059 744.188 Q62.3534 743.673 63.2874 743.673 Q64.8011 743.673 65.9927 744.993 Q66.5402 745.637 66.669 746.249 Q66.7978 746.829 66.7978 747.827 Q67.6996 747.441 68.3115 746.732 Q68.9234 746.024 69.1489 745.219 Q69.4065 744.414 69.4709 743.898 Q69.5675 743.351 69.5675 742.836 Q69.5675 738.713 65.413 735.557 Q64.157 734.623 62.9009 733.947 Q61.6771 733.238 60.1634 732.723 Q58.682 732.208 57.8768 731.982 Q57.0717 731.725 55.2359 731.274 Q58.2311 734.269 58.2311 737.94 Q58.2311 739.486 57.8124 740.871 Q57.3937 742.224 56.5242 743.415 Q55.6224 744.607 54.0443 745.315 Q52.4662 745.992 50.3728 745.992 Q48.1506 745.992 45.1233 745.122 Q42.0959 744.253 36.5243 742.159 Q33.4004 741.032 31.8867 741.032 Q31.146 741.032 30.6951 741.193 Q30.212 741.354 30.051 741.676 Q29.8577 741.998 29.8255 742.191 Q29.7933 742.352 29.7933 742.675 Q29.7933 744.575 31.7257 746.346 Q33.658 748.117 37.9736 749.341 Q38.7787 749.599 38.972 749.76 Q39.1652 749.921 39.1652 750.404 Q39.133 751.209 38.4889 751.209 Q38.2312 751.209 37.2329 750.919 Q36.2023 750.629 34.6886 749.953 Q33.1427 749.245 31.7579 748.278 Q30.3408 747.312 29.3424 745.798 Q28.344 744.253 28.344 742.481 Q28.344 740.066 29.9221 738.584 Q31.468 737.071 33.7546 737.071 Q34.6886 737.071 35.5259 737.328 Q36.3311 737.554 38.4889 738.391 Q47.1845 741.773 51.4356 741.773 Q52.4662 741.773 53.3358 741.612 Q54.1731 741.418 55.0105 741 Q55.8156 740.581 56.2987 739.744 Q56.7496 738.874 56.7496 737.683 Q56.7496 736.169 56.0411 734.752 Q55.3003 733.303 54.302 732.401 Q53.3036 731.467 52.4662 730.919 Q51.5967 730.34 51.1458 730.211 L39.294 727.248 L34.0123 725.927 Q31.146 725.316 30.4374 725.026 Q29.7611 724.639 29.4068 723.963 Q29.0526 723.287 29.0526 722.707 Q29.0526 721.902 29.5357 721.354 Q30.0187 720.775 30.8561 720.775 Z" fill="#000000" fill-rule="nonzero" fill-opacity="1" /><polyline clip-path="url(#clip582)" style="stroke:#ff7e0d; stroke-linecap:round; stroke-linejoin:round; stroke-width:8; stroke-opacity:1; fill:none" stroke-dasharray="32, 20" points="345.82,733.364 349.626,649.399 353.432,677.836 357.237,632.463 361.043,689.209 364.848,739.537 368.654,681.696 372.46,704.781 376.265,701.567 380.071,798.017 383.877,738.946 387.682,667.268 391.488,686.434 395.293,675.92 399.099,715.545 402.905,745.538 406.71,675.675 410.516,637.384 414.322,606.929 418.127,621.944 421.933,623.69 425.739,696.717 429.544,737.098 433.35,673.638 437.155,670.388 440.961,718.72 444.767,753.14 448.572,842.262 452.378,805.371 456.184,841.341 459.989,882.662 463.795,807.874 467.6,771.474 471.406,735.418 475.212,708.372 479.017,802.623 482.823,837.035 486.629,876.217 490.434,876.539 494.24,839.555 498.045,740.078 501.851,741.837 505.657,691.335 509.462,676.779 513.268,736.985 517.074,734.786 520.879,833.843 524.685,761.002 528.49,754.349 532.296,784.942 536.102,775.513 539.907,775.899 543.713,752.687 547.519,754.702 551.324,756.018 555.13,758.131 558.935,807.411 562.741,837.861 566.547,878.997 570.352,920.974 574.158,895.784 577.964,1006.21 581.769,983.472 585.575,995.541 589.38,905.627 593.186,1030.93 596.992,1070.23 600.797,1080.6 604.603,1084.36 608.409,1087.13 612.214,1067.29 616.02,1055.66 619.825,1063.44 623.631,1121.57 627.437,1133.27 631.242,1138.77 635.048,1138.27 638.854,1154.58 642.659,1209.23 646.465,1177.84 650.271,1153.18 654.076,1264.54 657.882,1267.6 661.687,1248.25 665.493,1341.28 669.299,1327.25 673.104,1350.2 676.91,1316.47 680.716,1374.12 684.521,1287.1 688.327,1351.92 692.132,1384.24 695.938,1322.84 699.744,1339.13 703.549,1318.39 707.355,1374.12 711.161,1269.62 714.966,1274.12 718.772,1315.76 722.577,1229.45 726.383,1273.65 730.189,1282.35 733.994,1312.98 737.8,1316.27 741.606,1212.35 745.411,1240.7 749.217,1216.89 753.022,1279.8 756.828,1237.6 760.634,1171.07 764.439,1203.5 768.245,1285.54 772.051,1261.27 775.856,1191.84 779.662,1183.87 783.467,1207.55 787.273,1174.21 791.079,1118.27 794.884,1072.59 798.69,1075.33 802.496,1038.57 806.301,948.559 810.107,1040.26 813.912,1054.28 817.718,1053.15 821.524,1041.02 825.329,1007.33 829.135,1010.92 832.941,988.819 836.746,1013.81 840.552,973.915 844.358,935.897 848.163,842.758 851.969,742.053 855.774,723.171 859.58,650.058 863.386,662.52 867.191,650.614 870.997,616.77 874.803,586.07 878.608,643.974 882.414,587.428 886.219,664.16 890.025,700.076 893.831,742.168 897.636,845.843 901.442,759.409 905.248,774.711 909.053,820.357 912.859,770.589 916.664,899.508 920.47,918.733 924.276,926.605 928.081,884.877 931.887,886.449 935.693,841.954 939.498,879.084 943.304,878.503 947.109,790.571 950.915,787.141 954.721,753.102 958.526,750.027 962.332,751.774 966.138,700.333 969.943,591.419 973.749,607.115 977.554,594.65 981.36,578.45 985.166,587.547 988.971,640.627 992.777,593.306 996.583,668.268 1000.39,761.432 1004.19,783.507 1008,807.668 1011.81,832.237 1015.61,877.839 1019.42,899.401 1023.22,903.859 1027.03,853.984 1030.83,823.519 1034.64,791.675 1038.44,848.289 1042.25,769.733 1046.06,793.498 1049.86,727.43 1053.67,696.957 1057.47,718.104 1061.28,727.38 1065.08,746.627 1068.89,710.531 1072.7,779.333 1076.5,739.755 1080.31,708.019 1084.11,733.637 1087.92,715.021 1091.72,721.56 1095.53,750.595 1099.33,798.256 1103.14,755.566 1106.95,716.649 1110.75,649.61 1114.56,614.846 1118.36,632.456 1122.17,586.497 1125.97,612.88 1129.78,556.185 1133.59,562.288 1137.39,571.849 1141.2,616.093 1145,676.191 1148.81,611.555 1152.61,548.956 1156.42,518.336 1160.22,470.782 1164.03,423.051 1167.84,462.647 1171.64,446.81 1175.45,435.02 1179.25,360.272 1183.06,419.25 1186.86,386.418 1190.67,367.988 1194.48,376.165 1198.28,315.681 1202.09,285.353 1205.89,238.678 1209.7,256.088 1213.5,263.106 1217.31,313.738 1221.11,290.406 1224.92,306.206 1228.73,350.69 1232.53,244.463 1236.34,302.573 1240.14,277.126 1243.95,325.174 1247.75,307.919 1251.56,352.216 1255.37,463.649 1259.17,574.19 1262.98,539.462 1266.78,566.374 1270.59,512.208 1274.39,544.728 1278.2,547.455 1282,478.562 1285.81,498.337 1289.62,497.528 1293.42,551.694 1297.23,482.226 1301.03,458.072 1304.84,412.195 1308.64,466.423 1312.45,542.076 1316.26,487.987 1320.06,450.803 1323.87,500.887 1327.67,552.063 1331.48,570.129 1335.28,631.384 1339.09,568.268 1342.89,477.032 1346.7,526.051 1350.51,460.857 1354.31,538.737 1358.12,569.501 1361.92,578.311 1365.73,540.574 1369.53,615.659 1373.34,657.883 1377.15,650.325 1380.95,583.735 1384.76,507.457 1388.56,532.354 1392.37,523.658 1396.17,464.403 1399.98,483.909 1403.78,464.874 1407.59,438.688 1411.4,484.691 1415.2,482.07 1419.01,578.534 1422.81,728.662 1426.62,726.679 1430.42,663.544 1434.23,621.878 1438.04,560.079 1441.84,526.656 1445.65,516.983 1449.45,459.554 1453.26,403.949 1457.06,469.134 1460.87,582.277 1464.67,528.244 1468.48,524.513 1472.29,570.728 1476.09,596.046 1479.9,647.528 1483.7,646.78 1487.51,647.228 1491.31,666.37 1495.12,673.406 1498.93,662.245 1502.73,685.617 1506.54,673.52 1510.34,646.882 1514.15,630.893 1517.95,677.757 1521.76,821.776 1525.56,750.782 1529.37,748.823 1533.18,717.054 1536.98,705.291 1540.79,755.634 1544.59,765.564 1548.4,843.872 1552.2,918.167 1556.01,882.498 1559.82,957.152 1563.62,941.299 1567.43,921.2 1571.23,993.124 1575.04,938.596 1578.84,888.432 1582.65,907.778 1586.45,864.277 1590.26,806.531 1594.07,837.725 1597.87,837.786 1601.68,858.259 1605.48,880.16 1609.29,891.175 1613.09,787.137 1616.9,707.761 1620.71,699.4 1624.51,626.322 1628.32,667.608 1632.12,734.328 1635.93,630.754 1639.73,604.375 1643.54,542.609 1647.34,594.573 1651.15,673.132 1654.96,651.324 1658.76,716.813 1662.57,766.217 1666.37,709.245 1670.18,729.548 1673.98,747.963 1677.79,678.429 1681.6,692.395 1685.4,729.477 1689.21,731.571 1693.01,663.389 1696.82,598.39 1700.62,556.535 1704.43,580.662 1708.23,525.236 1712.04,573.421 1715.85,553.436 1719.65,527.779 1723.46,469.025 1727.26,520.879 1731.07,483.609 1734.87,490.513 1738.68,529.443 1742.49,479.873 1746.29,534.942 1750.1,471.641 1753.9,440.804 1757.71,485.633 1761.51,480.349 1765.32,477.411 1769.12,525.924 1772.93,548.452 1776.74,515.178 1780.54,552.47 1784.35,650.099 1788.15,674.143 1791.96,665.973 1795.76,714.754 1799.57,718.967 1803.38,699.545 1807.18,626.072 1810.99,600.472 1814.79,639.549 1818.6,653.635 1822.4,677.352 1826.21,625.837 1830.01,699.999 1833.82,743.297 1837.63,771.521 1841.43,673.277 1845.24,636.38 1849.04,579.477 1852.85,453.108 1856.65,415.85 1860.46,377.797 1864.27,347.254 1868.07,355.616 1871.88,283.637 1875.68,268.062 1879.49,213.483 1883.29,231.258 1887.1,223.762 1890.9,217.945 1894.71,176.242 1898.52,182.266 1902.32,154.355 1906.13,86.1857 1909.93,129.501 1913.74,92.7391 1917.54,172.05 1921.35,163.996 1925.16,233.631 1928.96,272.497 1932.77,288.288 1936.57,343.193 1940.38,360.074 1944.18,407.667 1947.99,401.384 1951.8,392.379 1955.6,330.288 1959.41,380.634 1963.21,333 1967.02,293 1970.82,256.475 1974.63,357.011 1978.43,445.979 1982.24,448.6 1986.05,459.368 1989.85,527.621 1993.66,521.066 1997.46,551.098 2001.27,629.124 2005.07,618.795 2008.88,585.224 2012.69,517.34 2016.49,576.011 2020.3,662.617 2024.1,617.197 2027.91,691.816 2031.71,623.907 2035.52,648.337 2039.32,629.822 2043.13,624.063 2046.94,600.34 2050.74,620.679 2054.55,547.589 2058.35,510.688 2062.16,469.631 2065.96,514.848 2069.77,615.381 2073.58,607.69 2077.38,590.65 2081.19,623.971 2084.99,546.026 2088.8,548.152 2092.6,684.427 2096.41,756.355 2100.21,847.438 2104.02,865.311 2107.83,942.272 2111.63,907.927 2115.44,892.578 2119.24,895.751 2123.05,888.018 2126.85,934.869 2130.66,1010.02 2134.47,932.018 2138.27,947.138 2142.08,1000.67 2145.88,974.359 2149.69,960.5 2153.49,1015.11 2157.3,1041.31 2161.1,1125.56 2164.91,1096.71 2168.72,1115.07 2172.52,1094.43 2176.33,1070.73 2180.13,1069.34 2183.94,1075.95 2187.74,1049.94 2191.55,1049.44 2195.36,1025.34 2199.16,1055.63 2202.97,1012.72 2206.77,1034.96 2210.58,1056.51 2214.38,992.581 2218.19,1039.47 2221.99,947.965 2225.8,1001.87 2229.61,1053.06 2233.41,1096.99 2237.22,1206.56 2241.02,1265.63 2244.83,1335.62 2248.63,1311.21 2252.44,1232.65 2256.25,1160.05 2260.05,1157.17 2263.86,1140.21 2267.66,1154.15 2271.47,1169.14 2275.27,1142.91 2279.08,1099.49 2282.88,1138.33 2286.69,1143.02 2290.5,1139.33 2294.3,1134.01 "/>
<path clip-path="url(#clip580)" d="M356.212 196.789 L866.685 196.789 L866.685 93.1086 L356.212 93.1086  Z" fill="#ffffff" fill-rule="evenodd" fill-opacity="1"/>
<polyline clip-path="url(#clip580)" style="stroke:#000000; stroke-linecap:round; stroke-linejoin:round; stroke-width:4; stroke-opacity:1; fill:none" points="356.212,196.789 866.685,196.789 866.685,93.1086 356.212,93.1086 356.212,196.789 "/>
<polyline clip-path="url(#clip580)" style="stroke:#ff7e0d; stroke-linecap:round; stroke-linejoin:round; stroke-width:8; stroke-opacity:1; fill:none" stroke-dasharray="32, 20" points="379.161,144.949 516.854,144.949 "/>
<path clip-path="url(#clip580)" d="M539.802 127.669 L544.525 127.669 L551.793 156.881 L559.038 127.669 L564.293 127.669 L571.562 156.881 L578.807 127.669 L583.552 127.669 L574.872 162.229 L568.992 162.229 L561.7 132.229 L554.339 162.229 L548.46 162.229 L539.802 127.669 Z" fill="#000000" fill-rule="nonzero" fill-opacity="1" /><path clip-path="url(#clip580)" d="M588.529 136.303 L592.788 136.303 L592.788 162.229 L588.529 162.229 L588.529 136.303 M588.529 126.21 L592.788 126.21 L592.788 131.604 L588.529 131.604 L588.529 126.21 Z" fill="#000000" fill-rule="nonzero" fill-opacity="1" /><path clip-path="url(#clip580)" d="M623.876 148.201 L623.876 150.284 L604.293 150.284 Q604.571 154.682 606.932 156.997 Q609.316 159.289 613.552 159.289 Q616.006 159.289 618.297 158.687 Q620.612 158.085 622.881 156.881 L622.881 160.909 Q620.589 161.881 618.182 162.391 Q615.774 162.9 613.297 162.9 Q607.094 162.9 603.46 159.289 Q599.848 155.678 599.848 149.52 Q599.848 143.155 603.274 139.428 Q606.723 135.678 612.557 135.678 Q617.788 135.678 620.821 139.057 Q623.876 142.414 623.876 148.201 M619.617 146.951 Q619.571 143.456 617.649 141.372 Q615.751 139.289 612.603 139.289 Q609.038 139.289 606.885 141.303 Q604.756 143.317 604.432 146.974 L619.617 146.951 Z" fill="#000000" fill-rule="nonzero" fill-opacity="1" /><path clip-path="url(#clip580)" d="M652.418 146.581 L652.418 162.229 L648.158 162.229 L648.158 146.719 Q648.158 143.039 646.723 141.21 Q645.288 139.382 642.418 139.382 Q638.969 139.382 636.978 141.581 Q634.987 143.78 634.987 147.576 L634.987 162.229 L630.705 162.229 L630.705 136.303 L634.987 136.303 L634.987 140.331 Q636.515 137.993 638.575 136.835 Q640.658 135.678 643.367 135.678 Q647.834 135.678 650.126 138.456 Q652.418 141.21 652.418 146.581 Z" fill="#000000" fill-rule="nonzero" fill-opacity="1" /><path clip-path="url(#clip580)" d="M683.089 148.201 L683.089 150.284 L663.506 150.284 Q663.783 154.682 666.144 156.997 Q668.529 159.289 672.765 159.289 Q675.218 159.289 677.51 158.687 Q679.825 158.085 682.093 156.881 L682.093 160.909 Q679.802 161.881 677.394 162.391 Q674.987 162.9 672.51 162.9 Q666.306 162.9 662.672 159.289 Q659.061 155.678 659.061 149.52 Q659.061 143.155 662.487 139.428 Q665.936 135.678 671.769 135.678 Q677.001 135.678 680.033 139.057 Q683.089 142.414 683.089 148.201 M678.829 146.951 Q678.783 143.456 676.862 141.372 Q674.964 139.289 671.816 139.289 Q668.251 139.289 666.098 141.303 Q663.968 143.317 663.644 146.974 L678.829 146.951 Z" fill="#000000" fill-rule="nonzero" fill-opacity="1" /><path clip-path="url(#clip580)" d="M705.103 140.284 Q704.385 139.868 703.528 139.682 Q702.695 139.474 701.677 139.474 Q698.066 139.474 696.121 141.835 Q694.2 144.173 694.2 148.571 L694.2 162.229 L689.917 162.229 L689.917 136.303 L694.2 136.303 L694.2 140.331 Q695.542 137.969 697.695 136.835 Q699.848 135.678 702.927 135.678 Q703.366 135.678 703.899 135.747 Q704.431 135.794 705.079 135.909 L705.103 140.284 Z" fill="#000000" fill-rule="nonzero" fill-opacity="1" /><path clip-path="url(#clip580)" d="M746.19 146.581 L746.19 162.229 L741.931 162.229 L741.931 146.719 Q741.931 143.039 740.496 141.21 Q739.061 139.382 736.19 139.382 Q732.741 139.382 730.751 141.581 Q728.76 143.78 728.76 147.576 L728.76 162.229 L724.477 162.229 L724.477 136.303 L728.76 136.303 L728.76 140.331 Q730.288 137.993 732.348 136.835 Q734.431 135.678 737.139 135.678 Q741.607 135.678 743.899 138.456 Q746.19 141.21 746.19 146.581 Z" fill="#000000" fill-rule="nonzero" fill-opacity="1" /><path clip-path="url(#clip580)" d="M764.732 139.289 Q761.306 139.289 759.315 141.974 Q757.324 144.636 757.324 149.289 Q757.324 153.942 759.292 156.627 Q761.283 159.289 764.732 159.289 Q768.135 159.289 770.125 156.604 Q772.116 153.918 772.116 149.289 Q772.116 144.682 770.125 141.997 Q768.135 139.289 764.732 139.289 M764.732 135.678 Q770.287 135.678 773.459 139.289 Q776.63 142.9 776.63 149.289 Q776.63 155.655 773.459 159.289 Q770.287 162.9 764.732 162.9 Q759.153 162.9 755.982 159.289 Q752.834 155.655 752.834 149.289 Q752.834 142.9 755.982 139.289 Q759.153 135.678 764.732 135.678 Z" fill="#000000" fill-rule="nonzero" fill-opacity="1" /><path clip-path="url(#clip580)" d="M783.69 136.303 L787.949 136.303 L787.949 162.229 L783.69 162.229 L783.69 136.303 M783.69 126.21 L787.949 126.21 L787.949 131.604 L783.69 131.604 L783.69 126.21 Z" fill="#000000" fill-rule="nonzero" fill-opacity="1" /><path clip-path="url(#clip580)" d="M813.389 137.067 L813.389 141.094 Q811.583 140.169 809.639 139.706 Q807.695 139.243 805.611 139.243 Q802.44 139.243 800.843 140.215 Q799.269 141.187 799.269 143.131 Q799.269 144.613 800.403 145.469 Q801.537 146.303 804.963 147.067 L806.421 147.391 Q810.958 148.363 812.857 150.145 Q814.778 151.905 814.778 155.076 Q814.778 158.687 811.907 160.793 Q809.06 162.9 804.06 162.9 Q801.977 162.9 799.708 162.483 Q797.463 162.09 794.963 161.28 L794.963 156.881 Q797.324 158.108 799.616 158.733 Q801.908 159.335 804.153 159.335 Q807.162 159.335 808.783 158.317 Q810.403 157.275 810.403 155.4 Q810.403 153.664 809.222 152.738 Q808.065 151.812 804.107 150.956 L802.625 150.608 Q798.667 149.775 796.908 148.062 Q795.148 146.326 795.148 143.317 Q795.148 139.659 797.741 137.669 Q800.333 135.678 805.102 135.678 Q807.463 135.678 809.546 136.025 Q811.63 136.372 813.389 137.067 Z" fill="#000000" fill-rule="nonzero" fill-opacity="1" /><path clip-path="url(#clip580)" d="M843.736 148.201 L843.736 150.284 L824.153 150.284 Q824.431 154.682 826.792 156.997 Q829.176 159.289 833.412 159.289 Q835.866 159.289 838.157 158.687 Q840.472 158.085 842.741 156.881 L842.741 160.909 Q840.449 161.881 838.042 162.391 Q835.634 162.9 833.157 162.9 Q826.954 162.9 823.319 159.289 Q819.708 155.678 819.708 149.52 Q819.708 143.155 823.134 139.428 Q826.583 135.678 832.417 135.678 Q837.648 135.678 840.68 139.057 Q843.736 142.414 843.736 148.201 M839.477 146.951 Q839.43 143.456 837.509 141.372 Q835.611 139.289 832.463 139.289 Q828.898 139.289 826.745 141.303 Q824.616 143.317 824.292 146.974 L839.477 146.951 Z" fill="#000000" fill-rule="nonzero" fill-opacity="1" /></svg>
