<?xml version="1.0" encoding="utf-8"?>
<svg xmlns="http://www.w3.org/2000/svg" xmlns:xlink="http://www.w3.org/1999/xlink" width="600" height="400" viewBox="0 0 2400 1600">
<defs>
  <clipPath id="clip980">
    <rect x="0" y="0" width="2400" height="1600"/>
  </clipPath>
</defs>
<path clip-path="url(#clip980)" d="M0 1600 L2400 1600 L2400 0 L0 0  Z" fill="#ffffff" fill-rule="evenodd" fill-opacity="1"/>
<defs>
  <clipPath id="clip981">
    <rect x="480" y="0" width="1681" height="1600"/>
  </clipPath>
</defs>
<path clip-path="url(#clip980)" d="M219.866 1423.18 L2352.76 1423.18 L2352.76 47.2441 L219.866 47.2441  Z" fill="#ffffff" fill-rule="evenodd" fill-opacity="1"/>
<defs>
  <clipPath id="clip982">
    <rect x="219" y="47" width="2134" height="1377"/>
  </clipPath>
</defs>
<polyline clip-path="url(#clip982)" style="stroke:#000000; stroke-linecap:round; stroke-linejoin:round; stroke-width:2; stroke-opacity:0.1; fill:none" points="280.231,1423.18 280.231,47.2441 "/>
<polyline clip-path="url(#clip982)" style="stroke:#000000; stroke-linecap:round; stroke-linejoin:round; stroke-width:2; stroke-opacity:0.1; fill:none" points="783.271,1423.18 783.271,47.2441 "/>
<polyline clip-path="url(#clip982)" style="stroke:#000000; stroke-linecap:round; stroke-linejoin:round; stroke-width:2; stroke-opacity:0.1; fill:none" points="1286.31,1423.18 1286.31,47.2441 "/>
<polyline clip-path="url(#clip982)" style="stroke:#000000; stroke-linecap:round; stroke-linejoin:round; stroke-width:2; stroke-opacity:0.1; fill:none" points="1789.35,1423.18 1789.35,47.2441 "/>
<polyline clip-path="url(#clip982)" style="stroke:#000000; stroke-linecap:round; stroke-linejoin:round; stroke-width:2; stroke-opacity:0.1; fill:none" points="2292.39,1423.18 2292.39,47.2441 "/>
<polyline clip-path="url(#clip980)" style="stroke:#000000; stroke-linecap:round; stroke-linejoin:round; stroke-width:4; stroke-opacity:1; fill:none" points="219.866,1423.18 2352.76,1423.18 "/>
<polyline clip-path="url(#clip980)" style="stroke:#000000; stroke-linecap:round; stroke-linejoin:round; stroke-width:4; stroke-opacity:1; fill:none" points="280.231,1423.18 280.231,1404.28 "/>
<polyline clip-path="url(#clip980)" style="stroke:#000000; stroke-linecap:round; stroke-linejoin:round; stroke-width:4; stroke-opacity:1; fill:none" points="783.271,1423.18 783.271,1404.28 "/>
<polyline clip-path="url(#clip980)" style="stroke:#000000; stroke-linecap:round; stroke-linejoin:round; stroke-width:4; stroke-opacity:1; fill:none" points="1286.31,1423.18 1286.31,1404.28 "/>
<polyline clip-path="url(#clip980)" style="stroke:#000000; stroke-linecap:round; stroke-linejoin:round; stroke-width:4; stroke-opacity:1; fill:none" points="1789.35,1423.18 1789.35,1404.28 "/>
<polyline clip-path="url(#clip980)" style="stroke:#000000; stroke-linecap:round; stroke-linejoin:round; stroke-width:4; stroke-opacity:1; fill:none" points="2292.39,1423.18 2292.39,1404.28 "/>
<path clip-path="url(#clip980)" d="M242.535 1454.1 Q238.923 1454.1 237.095 1457.66 Q235.289 1461.2 235.289 1468.33 Q235.289 1475.44 237.095 1479.01 Q238.923 1482.55 242.535 1482.55 Q246.169 1482.55 247.974 1479.01 Q249.803 1475.44 249.803 1468.33 Q249.803 1461.2 247.974 1457.66 Q246.169 1454.1 242.535 1454.1 M242.535 1450.39 Q248.345 1450.39 251.4 1455 Q254.479 1459.58 254.479 1468.33 Q254.479 1477.06 251.4 1481.67 Q248.345 1486.25 242.535 1486.25 Q236.724 1486.25 233.646 1481.67 Q230.59 1477.06 230.59 1468.33 Q230.59 1459.58 233.646 1455 Q236.724 1450.39 242.535 1450.39 Z" fill="#000000" fill-rule="nonzero" fill-opacity="1" /><path clip-path="url(#clip980)" d="M262.696 1479.7 L267.581 1479.7 L267.581 1485.58 L262.696 1485.58 L262.696 1479.7 Z" fill="#000000" fill-rule="nonzero" fill-opacity="1" /><path clip-path="url(#clip980)" d="M287.766 1454.1 Q284.155 1454.1 282.326 1457.66 Q280.52 1461.2 280.52 1468.33 Q280.52 1475.44 282.326 1479.01 Q284.155 1482.55 287.766 1482.55 Q291.4 1482.55 293.206 1479.01 Q295.034 1475.44 295.034 1468.33 Q295.034 1461.2 293.206 1457.66 Q291.4 1454.1 287.766 1454.1 M287.766 1450.39 Q293.576 1450.39 296.631 1455 Q299.71 1459.58 299.71 1468.33 Q299.71 1477.06 296.631 1481.67 Q293.576 1486.25 287.766 1486.25 Q281.956 1486.25 278.877 1481.67 Q275.821 1477.06 275.821 1468.33 Q275.821 1459.58 278.877 1455 Q281.956 1450.39 287.766 1450.39 Z" fill="#000000" fill-rule="nonzero" fill-opacity="1" /><path clip-path="url(#clip980)" d="M317.928 1454.1 Q314.317 1454.1 312.488 1457.66 Q310.682 1461.2 310.682 1468.33 Q310.682 1475.44 312.488 1479.01 Q314.317 1482.55 317.928 1482.55 Q321.562 1482.55 323.367 1479.01 Q325.196 1475.44 325.196 1468.33 Q325.196 1461.2 323.367 1457.66 Q321.562 1454.1 317.928 1454.1 M317.928 1450.39 Q323.738 1450.39 326.793 1455 Q329.872 1459.58 329.872 1468.33 Q329.872 1477.06 326.793 1481.67 Q323.738 1486.25 317.928 1486.25 Q312.117 1486.25 309.039 1481.67 Q305.983 1477.06 305.983 1468.33 Q305.983 1459.58 309.039 1455 Q312.117 1450.39 317.928 1450.39 Z" fill="#000000" fill-rule="nonzero" fill-opacity="1" /><path clip-path="url(#clip980)" d="M746.072 1454.1 Q742.461 1454.1 740.632 1457.66 Q738.827 1461.2 738.827 1468.33 Q738.827 1475.44 740.632 1479.01 Q742.461 1482.55 746.072 1482.55 Q749.706 1482.55 751.512 1479.01 Q753.341 1475.44 753.341 1468.33 Q753.341 1461.2 751.512 1457.66 Q749.706 1454.1 746.072 1454.1 M746.072 1450.39 Q751.882 1450.39 754.938 1455 Q758.017 1459.58 758.017 1468.33 Q758.017 1477.06 754.938 1481.67 Q751.882 1486.25 746.072 1486.25 Q740.262 1486.25 737.183 1481.67 Q734.128 1477.06 734.128 1468.33 Q734.128 1459.58 737.183 1455 Q740.262 1450.39 746.072 1450.39 Z" fill="#000000" fill-rule="nonzero" fill-opacity="1" /><path clip-path="url(#clip980)" d="M766.234 1479.7 L771.118 1479.7 L771.118 1485.58 L766.234 1485.58 L766.234 1479.7 Z" fill="#000000" fill-rule="nonzero" fill-opacity="1" /><path clip-path="url(#clip980)" d="M785.331 1481.64 L801.651 1481.64 L801.651 1485.58 L779.706 1485.58 L779.706 1481.64 Q782.368 1478.89 786.952 1474.26 Q791.558 1469.61 792.739 1468.27 Q794.984 1465.74 795.864 1464.01 Q796.766 1462.25 796.766 1460.56 Q796.766 1457.8 794.822 1456.07 Q792.901 1454.33 789.799 1454.33 Q787.6 1454.33 785.146 1455.09 Q782.716 1455.86 779.938 1457.41 L779.938 1452.69 Q782.762 1451.55 785.216 1450.97 Q787.669 1450.39 789.706 1450.39 Q795.077 1450.39 798.271 1453.08 Q801.465 1455.77 801.465 1460.26 Q801.465 1462.39 800.655 1464.31 Q799.868 1466.2 797.762 1468.8 Q797.183 1469.47 794.081 1472.69 Q790.979 1475.88 785.331 1481.64 Z" fill="#000000" fill-rule="nonzero" fill-opacity="1" /><path clip-path="url(#clip980)" d="M811.512 1451.02 L829.868 1451.02 L829.868 1454.96 L815.794 1454.96 L815.794 1463.43 Q816.813 1463.08 817.831 1462.92 Q818.85 1462.73 819.868 1462.73 Q825.655 1462.73 829.035 1465.9 Q832.414 1469.08 832.414 1474.49 Q832.414 1480.07 828.942 1483.17 Q825.47 1486.25 819.151 1486.25 Q816.975 1486.25 814.706 1485.88 Q812.461 1485.51 810.053 1484.77 L810.053 1480.07 Q812.137 1481.2 814.359 1481.76 Q816.581 1482.32 819.058 1482.32 Q823.063 1482.32 825.4 1480.21 Q827.738 1478.1 827.738 1474.49 Q827.738 1470.88 825.4 1468.77 Q823.063 1466.67 819.058 1466.67 Q817.183 1466.67 815.308 1467.08 Q813.456 1467.5 811.512 1468.38 L811.512 1451.02 Z" fill="#000000" fill-rule="nonzero" fill-opacity="1" /><path clip-path="url(#clip980)" d="M1248.61 1454.1 Q1245 1454.1 1243.17 1457.66 Q1241.37 1461.2 1241.37 1468.33 Q1241.37 1475.44 1243.17 1479.01 Q1245 1482.55 1248.61 1482.55 Q1252.25 1482.55 1254.05 1479.01 Q1255.88 1475.44 1255.88 1468.33 Q1255.88 1461.2 1254.05 1457.66 Q1252.25 1454.1 1248.61 1454.1 M1248.61 1450.39 Q1254.42 1450.39 1257.48 1455 Q1260.56 1459.58 1260.56 1468.33 Q1260.56 1477.06 1257.48 1481.67 Q1254.42 1486.25 1248.61 1486.25 Q1242.8 1486.25 1239.73 1481.67 Q1236.67 1477.06 1236.67 1468.33 Q1236.67 1459.58 1239.73 1455 Q1242.8 1450.39 1248.61 1450.39 Z" fill="#000000" fill-rule="nonzero" fill-opacity="1" /><path clip-path="url(#clip980)" d="M1268.78 1479.7 L1273.66 1479.7 L1273.66 1485.58 L1268.78 1485.58 L1268.78 1479.7 Z" fill="#000000" fill-rule="nonzero" fill-opacity="1" /><path clip-path="url(#clip980)" d="M1283.89 1451.02 L1302.25 1451.02 L1302.25 1454.96 L1288.17 1454.96 L1288.17 1463.43 Q1289.19 1463.08 1290.21 1462.92 Q1291.23 1462.73 1292.25 1462.73 Q1298.04 1462.73 1301.42 1465.9 Q1304.79 1469.08 1304.79 1474.49 Q1304.79 1480.07 1301.32 1483.17 Q1297.85 1486.25 1291.53 1486.25 Q1289.36 1486.25 1287.09 1485.88 Q1284.84 1485.51 1282.43 1484.77 L1282.43 1480.07 Q1284.52 1481.2 1286.74 1481.76 Q1288.96 1482.32 1291.44 1482.32 Q1295.44 1482.32 1297.78 1480.21 Q1300.12 1478.1 1300.12 1474.49 Q1300.12 1470.88 1297.78 1468.77 Q1295.44 1466.67 1291.44 1466.67 Q1289.56 1466.67 1287.69 1467.08 Q1285.84 1467.5 1283.89 1468.38 L1283.89 1451.02 Z" fill="#000000" fill-rule="nonzero" fill-opacity="1" /><path clip-path="url(#clip980)" d="M1324.01 1454.1 Q1320.4 1454.1 1318.57 1457.66 Q1316.76 1461.2 1316.76 1468.33 Q1316.76 1475.44 1318.57 1479.01 Q1320.4 1482.55 1324.01 1482.55 Q1327.64 1482.55 1329.45 1479.01 Q1331.28 1475.44 1331.28 1468.33 Q1331.28 1461.2 1329.45 1457.66 Q1327.64 1454.1 1324.01 1454.1 M1324.01 1450.39 Q1329.82 1450.39 1332.87 1455 Q1335.95 1459.58 1335.95 1468.33 Q1335.95 1477.06 1332.87 1481.67 Q1329.82 1486.25 1324.01 1486.25 Q1318.2 1486.25 1315.12 1481.67 Q1312.06 1477.06 1312.06 1468.33 Q1312.06 1459.58 1315.12 1455 Q1318.2 1450.39 1324.01 1450.39 Z" fill="#000000" fill-rule="nonzero" fill-opacity="1" /><path clip-path="url(#clip980)" d="M1752.15 1454.1 Q1748.54 1454.1 1746.71 1457.66 Q1744.91 1461.2 1744.91 1468.33 Q1744.91 1475.44 1746.71 1479.01 Q1748.54 1482.55 1752.15 1482.55 Q1755.79 1482.55 1757.59 1479.01 Q1759.42 1475.44 1759.42 1468.33 Q1759.42 1461.2 1757.59 1457.66 Q1755.79 1454.1 1752.15 1454.1 M1752.15 1450.39 Q1757.96 1450.39 1761.02 1455 Q1764.1 1459.58 1764.1 1468.33 Q1764.1 1477.06 1761.02 1481.67 Q1757.96 1486.25 1752.15 1486.25 Q1746.34 1486.25 1743.26 1481.67 Q1740.21 1477.06 1740.21 1468.33 Q1740.21 1459.58 1743.26 1455 Q1746.34 1450.39 1752.15 1450.39 Z" fill="#000000" fill-rule="nonzero" fill-opacity="1" /><path clip-path="url(#clip980)" d="M1772.31 1479.7 L1777.2 1479.7 L1777.2 1485.58 L1772.31 1485.58 L1772.31 1479.7 Z" fill="#000000" fill-rule="nonzero" fill-opacity="1" /><path clip-path="url(#clip980)" d="M1786.2 1451.02 L1808.43 1451.02 L1808.43 1453.01 L1795.88 1485.58 L1790.99 1485.58 L1802.8 1454.96 L1786.2 1454.96 L1786.2 1451.02 Z" fill="#000000" fill-rule="nonzero" fill-opacity="1" /><path clip-path="url(#clip980)" d="M1817.59 1451.02 L1835.95 1451.02 L1835.95 1454.96 L1821.87 1454.96 L1821.87 1463.43 Q1822.89 1463.08 1823.91 1462.92 Q1824.93 1462.73 1825.95 1462.73 Q1831.74 1462.73 1835.11 1465.9 Q1838.49 1469.08 1838.49 1474.49 Q1838.49 1480.07 1835.02 1483.17 Q1831.55 1486.25 1825.23 1486.25 Q1823.05 1486.25 1820.79 1485.88 Q1818.54 1485.51 1816.13 1484.77 L1816.13 1480.07 Q1818.22 1481.2 1820.44 1481.76 Q1822.66 1482.32 1825.14 1482.32 Q1829.14 1482.32 1831.48 1480.21 Q1833.82 1478.1 1833.82 1474.49 Q1833.82 1470.88 1831.48 1468.77 Q1829.14 1466.67 1825.14 1466.67 Q1823.26 1466.67 1821.39 1467.08 Q1819.54 1467.5 1817.59 1468.38 L1817.59 1451.02 Z" fill="#000000" fill-rule="nonzero" fill-opacity="1" /><path clip-path="url(#clip980)" d="M2244.46 1481.64 L2252.1 1481.64 L2252.1 1455.28 L2243.79 1456.95 L2243.79 1452.69 L2252.06 1451.02 L2256.73 1451.02 L2256.73 1481.64 L2264.37 1481.64 L2264.37 1485.58 L2244.46 1485.58 L2244.46 1481.64 Z" fill="#000000" fill-rule="nonzero" fill-opacity="1" /><path clip-path="url(#clip980)" d="M2273.81 1479.7 L2278.7 1479.7 L2278.7 1485.58 L2273.81 1485.58 L2273.81 1479.7 Z" fill="#000000" fill-rule="nonzero" fill-opacity="1" /><path clip-path="url(#clip980)" d="M2298.88 1454.1 Q2295.27 1454.1 2293.44 1457.66 Q2291.64 1461.2 2291.64 1468.33 Q2291.64 1475.44 2293.44 1479.01 Q2295.27 1482.55 2298.88 1482.55 Q2302.52 1482.55 2304.32 1479.01 Q2306.15 1475.44 2306.15 1468.33 Q2306.15 1461.2 2304.32 1457.66 Q2302.52 1454.1 2298.88 1454.1 M2298.88 1450.39 Q2304.69 1450.39 2307.75 1455 Q2310.83 1459.58 2310.83 1468.33 Q2310.83 1477.06 2307.75 1481.67 Q2304.69 1486.25 2298.88 1486.25 Q2293.07 1486.25 2290 1481.67 Q2286.94 1477.06 2286.94 1468.33 Q2286.94 1459.58 2290 1455 Q2293.07 1450.39 2298.88 1450.39 Z" fill="#000000" fill-rule="nonzero" fill-opacity="1" /><path clip-path="url(#clip980)" d="M2329.05 1454.1 Q2325.43 1454.1 2323.61 1457.66 Q2321.8 1461.2 2321.8 1468.33 Q2321.8 1475.44 2323.61 1479.01 Q2325.43 1482.55 2329.05 1482.55 Q2332.68 1482.55 2334.49 1479.01 Q2336.31 1475.44 2336.31 1468.33 Q2336.31 1461.2 2334.49 1457.66 Q2332.68 1454.1 2329.05 1454.1 M2329.05 1450.39 Q2334.86 1450.39 2337.91 1455 Q2340.99 1459.58 2340.99 1468.33 Q2340.99 1477.06 2337.91 1481.67 Q2334.86 1486.25 2329.05 1486.25 Q2323.24 1486.25 2320.16 1481.67 Q2317.1 1477.06 2317.1 1468.33 Q2317.1 1459.58 2320.16 1455 Q2323.24 1450.39 2329.05 1450.39 Z" fill="#000000" fill-rule="nonzero" fill-opacity="1" /><path clip-path="url(#clip980)" d="M1294.78 1531.91 Q1294.78 1532.81 1294.36 1533.04 Q1293.94 1533.23 1292.79 1533.23 L1286.6 1533.23 L1281.71 1552.69 Q1281.32 1554.39 1281.32 1555.84 Q1281.32 1557.45 1281.8 1558.16 Q1282.32 1558.87 1283.38 1558.87 Q1285.47 1558.87 1287.73 1556.97 Q1290.02 1555.07 1291.95 1550.43 Q1292.21 1549.82 1292.33 1549.69 Q1292.5 1549.53 1292.91 1549.53 Q1293.72 1549.53 1293.72 1550.17 Q1293.72 1550.4 1293.27 1551.43 Q1292.85 1552.46 1291.92 1553.97 Q1291.01 1555.49 1289.82 1556.9 Q1288.66 1558.32 1286.89 1559.35 Q1285.12 1560.35 1283.22 1560.35 Q1280.55 1560.35 1278.84 1558.64 Q1277.17 1556.94 1277.17 1554.26 Q1277.17 1553.39 1277.84 1550.62 Q1278.52 1547.82 1282.19 1533.23 L1276.36 1533.23 Q1275.56 1533.23 1275.23 1533.2 Q1274.94 1533.17 1274.72 1533.01 Q1274.52 1532.81 1274.52 1532.43 Q1274.52 1531.82 1274.78 1531.56 Q1275.04 1531.27 1275.36 1531.24 Q1275.72 1531.17 1276.52 1531.17 L1282.7 1531.17 L1285.28 1520.71 Q1285.54 1519.67 1286.18 1519.09 Q1286.86 1518.48 1287.25 1518.42 Q1287.63 1518.32 1287.92 1518.32 Q1288.79 1518.32 1289.31 1518.81 Q1289.82 1519.26 1289.82 1520.09 Q1289.82 1520.54 1287.12 1531.17 L1292.91 1531.17 Q1293.65 1531.17 1293.94 1531.2 Q1294.27 1531.24 1294.52 1531.4 Q1294.78 1531.56 1294.78 1531.91 Z" fill="#000000" fill-rule="nonzero" fill-opacity="1" /><polyline clip-path="url(#clip982)" style="stroke:#000000; stroke-linecap:round; stroke-linejoin:round; stroke-width:2; stroke-opacity:0.1; fill:none" points="219.866,1384.24 2352.76,1384.24 "/>
<polyline clip-path="url(#clip982)" style="stroke:#000000; stroke-linecap:round; stroke-linejoin:round; stroke-width:2; stroke-opacity:0.1; fill:none" points="219.866,1173.7 2352.76,1173.7 "/>
<polyline clip-path="url(#clip982)" style="stroke:#000000; stroke-linecap:round; stroke-linejoin:round; stroke-width:2; stroke-opacity:0.1; fill:none" points="219.866,963.154 2352.76,963.154 "/>
<polyline clip-path="url(#clip982)" style="stroke:#000000; stroke-linecap:round; stroke-linejoin:round; stroke-width:2; stroke-opacity:0.1; fill:none" points="219.866,752.612 2352.76,752.612 "/>
<polyline clip-path="url(#clip982)" style="stroke:#000000; stroke-linecap:round; stroke-linejoin:round; stroke-width:2; stroke-opacity:0.1; fill:none" points="219.866,542.069 2352.76,542.069 "/>
<polyline clip-path="url(#clip982)" style="stroke:#000000; stroke-linecap:round; stroke-linejoin:round; stroke-width:2; stroke-opacity:0.1; fill:none" points="219.866,331.527 2352.76,331.527 "/>
<polyline clip-path="url(#clip982)" style="stroke:#000000; stroke-linecap:round; stroke-linejoin:round; stroke-width:2; stroke-opacity:0.1; fill:none" points="219.866,120.985 2352.76,120.985 "/>
<polyline clip-path="url(#clip980)" style="stroke:#000000; stroke-linecap:round; stroke-linejoin:round; stroke-width:4; stroke-opacity:1; fill:none" points="219.866,1423.18 219.866,47.2441 "/>
<polyline clip-path="url(#clip980)" style="stroke:#000000; stroke-linecap:round; stroke-linejoin:round; stroke-width:4; stroke-opacity:1; fill:none" points="219.866,1384.24 238.764,1384.24 "/>
<polyline clip-path="url(#clip980)" style="stroke:#000000; stroke-linecap:round; stroke-linejoin:round; stroke-width:4; stroke-opacity:1; fill:none" points="219.866,1173.7 238.764,1173.7 "/>
<polyline clip-path="url(#clip980)" style="stroke:#000000; stroke-linecap:round; stroke-linejoin:round; stroke-width:4; stroke-opacity:1; fill:none" points="219.866,963.154 238.764,963.154 "/>
<polyline clip-path="url(#clip980)" style="stroke:#000000; stroke-linecap:round; stroke-linejoin:round; stroke-width:4; stroke-opacity:1; fill:none" points="219.866,752.612 238.764,752.612 "/>
<polyline clip-path="url(#clip980)" style="stroke:#000000; stroke-linecap:round; stroke-linejoin:round; stroke-width:4; stroke-opacity:1; fill:none" points="219.866,542.069 238.764,542.069 "/>
<polyline clip-path="url(#clip980)" style="stroke:#000000; stroke-linecap:round; stroke-linejoin:round; stroke-width:4; stroke-opacity:1; fill:none" points="219.866,331.527 238.764,331.527 "/>
<polyline clip-path="url(#clip980)" style="stroke:#000000; stroke-linecap:round; stroke-linejoin:round; stroke-width:4; stroke-opacity:1; fill:none" points="219.866,120.985 238.764,120.985 "/>
<path clip-path="url(#clip980)" d="M126.691 1370.04 Q123.08 1370.04 121.251 1373.6 Q119.445 1377.14 119.445 1384.27 Q119.445 1391.38 121.251 1394.94 Q123.08 1398.49 126.691 1398.49 Q130.325 1398.49 132.13 1394.94 Q133.959 1391.38 133.959 1384.27 Q133.959 1377.14 132.13 1373.6 Q130.325 1370.04 126.691 1370.04 M126.691 1366.33 Q132.501 1366.33 135.556 1370.94 Q138.635 1375.52 138.635 1384.27 Q138.635 1393 135.556 1397.61 Q132.501 1402.19 126.691 1402.19 Q120.88 1402.19 117.802 1397.61 Q114.746 1393 114.746 1384.27 Q114.746 1375.52 117.802 1370.94 Q120.88 1366.33 126.691 1366.33 Z" fill="#000000" fill-rule="nonzero" fill-opacity="1" /><path clip-path="url(#clip980)" d="M146.853 1395.64 L151.737 1395.64 L151.737 1401.52 L146.853 1401.52 L146.853 1395.64 Z" fill="#000000" fill-rule="nonzero" fill-opacity="1" /><path clip-path="url(#clip980)" d="M171.922 1370.04 Q168.311 1370.04 166.482 1373.6 Q164.677 1377.14 164.677 1384.27 Q164.677 1391.38 166.482 1394.94 Q168.311 1398.49 171.922 1398.49 Q175.556 1398.49 177.362 1394.94 Q179.19 1391.38 179.19 1384.27 Q179.19 1377.14 177.362 1373.6 Q175.556 1370.04 171.922 1370.04 M171.922 1366.33 Q177.732 1366.33 180.788 1370.94 Q183.866 1375.52 183.866 1384.27 Q183.866 1393 180.788 1397.61 Q177.732 1402.19 171.922 1402.19 Q166.112 1402.19 163.033 1397.61 Q159.978 1393 159.978 1384.27 Q159.978 1375.52 163.033 1370.94 Q166.112 1366.33 171.922 1366.33 Z" fill="#000000" fill-rule="nonzero" fill-opacity="1" /><path clip-path="url(#clip980)" d="M128.288 1159.49 Q124.677 1159.49 122.848 1163.06 Q121.043 1166.6 121.043 1173.73 Q121.043 1180.84 122.848 1184.4 Q124.677 1187.94 128.288 1187.94 Q131.922 1187.94 133.728 1184.4 Q135.556 1180.84 135.556 1173.73 Q135.556 1166.6 133.728 1163.06 Q131.922 1159.49 128.288 1159.49 M128.288 1155.79 Q134.098 1155.79 137.154 1160.4 Q140.232 1164.98 140.232 1173.73 Q140.232 1182.46 137.154 1187.06 Q134.098 1191.65 128.288 1191.65 Q122.478 1191.65 119.399 1187.06 Q116.343 1182.46 116.343 1173.73 Q116.343 1164.98 119.399 1160.4 Q122.478 1155.79 128.288 1155.79 Z" fill="#000000" fill-rule="nonzero" fill-opacity="1" /><path clip-path="url(#clip980)" d="M148.45 1185.1 L153.334 1185.1 L153.334 1190.98 L148.45 1190.98 L148.45 1185.1 Z" fill="#000000" fill-rule="nonzero" fill-opacity="1" /><path clip-path="url(#clip980)" d="M167.547 1187.04 L183.866 1187.04 L183.866 1190.98 L161.922 1190.98 L161.922 1187.04 Q164.584 1184.29 169.167 1179.66 Q173.774 1175 174.954 1173.66 Q177.2 1171.14 178.079 1169.4 Q178.982 1167.64 178.982 1165.95 Q178.982 1163.2 177.038 1161.46 Q175.116 1159.73 172.014 1159.73 Q169.815 1159.73 167.362 1160.49 Q164.931 1161.25 162.153 1162.8 L162.153 1158.08 Q164.977 1156.95 167.431 1156.37 Q169.885 1155.79 171.922 1155.79 Q177.292 1155.79 180.487 1158.48 Q183.681 1161.16 183.681 1165.65 Q183.681 1167.78 182.871 1169.7 Q182.084 1171.6 179.977 1174.19 Q179.399 1174.86 176.297 1178.08 Q173.195 1181.28 167.547 1187.04 Z" fill="#000000" fill-rule="nonzero" fill-opacity="1" /><path clip-path="url(#clip980)" d="M126.205 948.952 Q122.593 948.952 120.765 952.517 Q118.959 956.059 118.959 963.188 Q118.959 970.295 120.765 973.86 Q122.593 977.401 126.205 977.401 Q129.839 977.401 131.644 973.86 Q133.473 970.295 133.473 963.188 Q133.473 956.059 131.644 952.517 Q129.839 948.952 126.205 948.952 M126.205 945.249 Q132.015 945.249 135.07 949.855 Q138.149 954.439 138.149 963.188 Q138.149 971.915 135.07 976.522 Q132.015 981.105 126.205 981.105 Q120.394 981.105 117.316 976.522 Q114.26 971.915 114.26 963.188 Q114.26 954.439 117.316 949.855 Q120.394 945.249 126.205 945.249 Z" fill="#000000" fill-rule="nonzero" fill-opacity="1" /><path clip-path="url(#clip980)" d="M146.366 974.554 L151.251 974.554 L151.251 980.434 L146.366 980.434 L146.366 974.554 Z" fill="#000000" fill-rule="nonzero" fill-opacity="1" /><path clip-path="url(#clip980)" d="M174.283 949.948 L162.477 968.397 L174.283 968.397 L174.283 949.948 M173.056 945.874 L178.936 945.874 L178.936 968.397 L183.866 968.397 L183.866 972.286 L178.936 972.286 L178.936 980.434 L174.283 980.434 L174.283 972.286 L158.681 972.286 L158.681 967.772 L173.056 945.874 Z" fill="#000000" fill-rule="nonzero" fill-opacity="1" /><path clip-path="url(#clip980)" d="M126.529 738.41 Q122.918 738.41 121.089 741.975 Q119.283 745.517 119.283 752.646 Q119.283 759.753 121.089 763.317 Q122.918 766.859 126.529 766.859 Q130.163 766.859 131.968 763.317 Q133.797 759.753 133.797 752.646 Q133.797 745.517 131.968 741.975 Q130.163 738.41 126.529 738.41 M126.529 734.707 Q132.339 734.707 135.394 739.313 Q138.473 743.896 138.473 752.646 Q138.473 761.373 135.394 765.98 Q132.339 770.563 126.529 770.563 Q120.718 770.563 117.64 765.98 Q114.584 761.373 114.584 752.646 Q114.584 743.896 117.64 739.313 Q120.718 734.707 126.529 734.707 Z" fill="#000000" fill-rule="nonzero" fill-opacity="1" /><path clip-path="url(#clip980)" d="M146.691 764.012 L151.575 764.012 L151.575 769.892 L146.691 769.892 L146.691 764.012 Z" fill="#000000" fill-rule="nonzero" fill-opacity="1" /><path clip-path="url(#clip980)" d="M172.339 750.748 Q169.19 750.748 167.339 752.901 Q165.51 755.054 165.51 758.804 Q165.51 762.53 167.339 764.706 Q169.19 766.859 172.339 766.859 Q175.487 766.859 177.315 764.706 Q179.167 762.53 179.167 758.804 Q179.167 755.054 177.315 752.901 Q175.487 750.748 172.339 750.748 M181.621 736.095 L181.621 740.355 Q179.862 739.521 178.056 739.082 Q176.274 738.642 174.514 738.642 Q169.885 738.642 167.431 741.767 Q165.001 744.892 164.653 751.211 Q166.019 749.197 168.079 748.132 Q170.139 747.044 172.616 747.044 Q177.825 747.044 180.834 750.216 Q183.866 753.364 183.866 758.804 Q183.866 764.128 180.718 767.345 Q177.57 770.563 172.339 770.563 Q166.343 770.563 163.172 765.98 Q160.001 761.373 160.001 752.646 Q160.001 744.452 163.89 739.591 Q167.778 734.707 174.329 734.707 Q176.089 734.707 177.871 735.054 Q179.676 735.401 181.621 736.095 Z" fill="#000000" fill-rule="nonzero" fill-opacity="1" /><path clip-path="url(#clip980)" d="M126.783 527.868 Q123.172 527.868 121.343 531.433 Q119.538 534.974 119.538 542.104 Q119.538 549.21 121.343 552.775 Q123.172 556.317 126.783 556.317 Q130.417 556.317 132.223 552.775 Q134.052 549.21 134.052 542.104 Q134.052 534.974 132.223 531.433 Q130.417 527.868 126.783 527.868 M126.783 524.164 Q132.593 524.164 135.649 528.771 Q138.728 533.354 138.728 542.104 Q138.728 550.831 135.649 555.437 Q132.593 560.021 126.783 560.021 Q120.973 560.021 117.894 555.437 Q114.839 550.831 114.839 542.104 Q114.839 533.354 117.894 528.771 Q120.973 524.164 126.783 524.164 Z" fill="#000000" fill-rule="nonzero" fill-opacity="1" /><path clip-path="url(#clip980)" d="M146.945 553.47 L151.829 553.47 L151.829 559.349 L146.945 559.349 L146.945 553.47 Z" fill="#000000" fill-rule="nonzero" fill-opacity="1" /><path clip-path="url(#clip980)" d="M172.014 542.937 Q168.681 542.937 166.76 544.72 Q164.862 546.502 164.862 549.627 Q164.862 552.752 166.76 554.534 Q168.681 556.317 172.014 556.317 Q175.348 556.317 177.269 554.534 Q179.19 552.729 179.19 549.627 Q179.19 546.502 177.269 544.72 Q175.371 542.937 172.014 542.937 M167.339 540.947 Q164.329 540.206 162.64 538.146 Q160.973 536.086 160.973 533.123 Q160.973 528.979 163.913 526.572 Q166.876 524.164 172.014 524.164 Q177.176 524.164 180.116 526.572 Q183.056 528.979 183.056 533.123 Q183.056 536.086 181.366 538.146 Q179.7 540.206 176.714 540.947 Q180.093 541.734 181.968 544.025 Q183.866 546.317 183.866 549.627 Q183.866 554.65 180.788 557.335 Q177.732 560.021 172.014 560.021 Q166.297 560.021 163.218 557.335 Q160.163 554.65 160.163 549.627 Q160.163 546.317 162.061 544.025 Q163.959 541.734 167.339 540.947 M165.626 533.562 Q165.626 536.248 167.292 537.752 Q168.982 539.257 172.014 539.257 Q175.024 539.257 176.714 537.752 Q178.426 536.248 178.426 533.562 Q178.426 530.877 176.714 529.373 Q175.024 527.868 172.014 527.868 Q168.982 527.868 167.292 529.373 Q165.626 530.877 165.626 533.562 Z" fill="#000000" fill-rule="nonzero" fill-opacity="1" /><path clip-path="url(#clip980)" d="M117.501 344.872 L125.14 344.872 L125.14 318.506 L116.83 320.173 L116.83 315.914 L125.093 314.247 L129.769 314.247 L129.769 344.872 L137.408 344.872 L137.408 348.807 L117.501 348.807 L117.501 344.872 Z" fill="#000000" fill-rule="nonzero" fill-opacity="1" /><path clip-path="url(#clip980)" d="M146.853 342.927 L151.737 342.927 L151.737 348.807 L146.853 348.807 L146.853 342.927 Z" fill="#000000" fill-rule="nonzero" fill-opacity="1" /><path clip-path="url(#clip980)" d="M171.922 317.326 Q168.311 317.326 166.482 320.891 Q164.677 324.432 164.677 331.562 Q164.677 338.668 166.482 342.233 Q168.311 345.775 171.922 345.775 Q175.556 345.775 177.362 342.233 Q179.19 338.668 179.19 331.562 Q179.19 324.432 177.362 320.891 Q175.556 317.326 171.922 317.326 M171.922 313.622 Q177.732 313.622 180.788 318.228 Q183.866 322.812 183.866 331.562 Q183.866 340.289 180.788 344.895 Q177.732 349.478 171.922 349.478 Q166.112 349.478 163.033 344.895 Q159.978 340.289 159.978 331.562 Q159.978 322.812 163.033 318.228 Q166.112 313.622 171.922 313.622 Z" fill="#000000" fill-rule="nonzero" fill-opacity="1" /><path clip-path="url(#clip980)" d="M119.098 134.33 L126.737 134.33 L126.737 107.964 L118.427 109.631 L118.427 105.371 L126.691 103.705 L131.367 103.705 L131.367 134.33 L139.005 134.33 L139.005 138.265 L119.098 138.265 L119.098 134.33 Z" fill="#000000" fill-rule="nonzero" fill-opacity="1" /><path clip-path="url(#clip980)" d="M148.45 132.385 L153.334 132.385 L153.334 138.265 L148.45 138.265 L148.45 132.385 Z" fill="#000000" fill-rule="nonzero" fill-opacity="1" /><path clip-path="url(#clip980)" d="M167.547 134.33 L183.866 134.33 L183.866 138.265 L161.922 138.265 L161.922 134.33 Q164.584 131.575 169.167 126.945 Q173.774 122.293 174.954 120.95 Q177.2 118.427 178.079 116.691 Q178.982 114.932 178.982 113.242 Q178.982 110.487 177.038 108.751 Q175.116 107.015 172.014 107.015 Q169.815 107.015 167.362 107.779 Q164.931 108.543 162.153 110.094 L162.153 105.371 Q164.977 104.237 167.431 103.658 Q169.885 103.08 171.922 103.08 Q177.292 103.08 180.487 105.765 Q183.681 108.45 183.681 112.941 Q183.681 115.07 182.871 116.992 Q182.084 118.89 179.977 121.482 Q179.399 122.154 176.297 125.371 Q173.195 128.566 167.547 134.33 Z" fill="#000000" fill-rule="nonzero" fill-opacity="1" /><path clip-path="url(#clip980)" d="M30.8561 720.775 Q31.307 720.775 32.3698 721.064 L57.5548 727.377 Q63.1586 728.762 67.0877 733.27 Q71.0168 737.747 71.0168 742.836 Q71.0168 745.895 69.3743 747.86 Q67.764 749.824 65.2842 749.824 Q63.0942 749.824 62.0314 748.665 Q61.0008 747.505 61.0008 746.121 Q61.0008 745.67 61.1296 745.187 Q61.2584 744.703 61.8059 744.188 Q62.3534 743.673 63.2874 743.673 Q64.8011 743.673 65.9927 744.993 Q66.5402 745.637 66.669 746.249 Q66.7978 746.829 66.7978 747.827 Q67.6996 747.441 68.3115 746.732 Q68.9234 746.024 69.1489 745.219 Q69.4065 744.414 69.4709 743.898 Q69.5675 743.351 69.5675 742.836 Q69.5675 738.713 65.413 735.557 Q64.157 734.623 62.9009 733.947 Q61.6771 733.238 60.1634 732.723 Q58.682 732.208 57.8768 731.982 Q57.0717 731.725 55.2359 731.274 Q58.2311 734.269 58.2311 737.94 Q58.2311 739.486 57.8124 740.871 Q57.3937 742.224 56.5242 743.415 Q55.6224 744.607 54.0443 745.315 Q52.4662 745.992 50.3728 745.992 Q48.1506 745.992 45.1233 745.122 Q42.0959 744.253 36.5243 742.159 Q33.4004 741.032 31.8867 741.032 Q31.146 741.032 30.6951 741.193 Q30.212 741.354 30.051 741.676 Q29.8577 741.998 29.8255 742.191 Q29.7933 742.352 29.7933 742.675 Q29.7933 744.575 31.7257 746.346 Q33.658 748.117 37.9736 749.341 Q38.7787 749.599 38.972 749.76 Q39.1652 749.921 39.1652 750.404 Q39.133 751.209 38.4889 751.209 Q38.2312 751.209 37.2329 750.919 Q36.2023 750.629 34.6886 749.953 Q33.1427 749.245 31.7579 748.278 Q30.3408 747.312 29.3424 745.798 Q28.344 744.253 28.344 742.481 Q28.344 740.066 29.9221 738.584 Q31.468 737.071 33.7546 737.071 Q34.6886 737.071 35.5259 737.328 Q36.3311 737.554 38.4889 738.391 Q47.1845 741.773 51.4356 741.773 Q52.4662 741.773 53.3358 741.612 Q54.1731 741.418 55.0105 741 Q55.8156 740.581 56.2987 739.744 Q56.7496 738.874 56.7496 737.683 Q56.7496 736.169 56.0411 734.752 Q55.3003 733.303 54.302 732.401 Q53.3036 731.467 52.4662 730.919 Q51.5967 730.34 51.1458 730.211 L39.294 727.248 L34.0123 725.927 Q31.146 725.316 30.4374 725.026 Q29.7611 724.639 29.4068 723.963 Q29.0526 723.287 29.0526 722.707 Q29.0526 721.902 29.5357 721.354 Q30.0187 720.775 30.8561 720.775 Z" fill="#000000" fill-rule="nonzero" fill-opacity="1" /><polyline clip-path="url(#clip982)" style="stroke:#009af9; stroke-linecap:round; stroke-linejoin:round; stroke-width:8; stroke-opacity:1; fill:none" stroke-dasharray="32, 20" points="280.231,331.527 284.161,352.684 288.091,311.385 292.021,335.129 295.951,348.345 299.881,357.919 303.811,338.468 307.741,297.477 311.671,259.876 315.601,305.496 319.531,322.05 323.461,281.564 327.391,266.141 331.321,254.202 335.251,302.823 339.181,287.613 343.111,283.05 347.041,317.488 350.971,326.732 354.901,330.372 358.831,344.229 362.761,336.636 366.691,353.999 370.621,350.945 374.551,356.928 378.481,370.877 382.411,358.561 386.341,317.285 390.271,351.725 394.201,366.447 398.131,383.972 402.061,363.481 405.991,368.314 409.921,343.491 413.851,340.542 417.781,358.476 421.711,428.276 425.641,430.065 429.571,428.847 433.501,380.449 437.431,451.64 441.361,455.124 445.291,468.894 449.221,490.311 453.151,441.257 457.081,452.596 461.011,491.679 464.941,491.771 468.871,511.072 472.801,499.315 476.731,492.287 480.661,458.046 484.591,450.338 488.521,441.813 492.451,436.721 496.381,458.089 500.311,463.982 504.241,468.904 508.171,480.644 512.101,519.043 516.031,540.178 519.961,581.752 523.891,581.13 527.821,561.209 531.751,566.647 535.681,574.041 539.611,571.682 543.541,550.934 547.471,535.105 551.401,544.971 555.331,573.185 559.261,582.274 563.191,555.095 567.121,548.658 571.051,533.305 574.981,537.999 578.911,534.482 582.841,507.139 586.771,521.844 590.701,472.013 594.631,495.81 598.561,540.138 602.491,493.197 606.421,463.313 610.351,496.931 614.281,477.18 618.211,487.068 622.141,516.072 626.071,445.307 630.001,436.555 633.931,475.723 637.861,429.306 641.791,425.962 645.721,415.824 649.651,397.212 653.581,397.263 657.511,459.749 661.441,498.27 665.371,495.733 669.301,510.631 673.231,503.952 677.161,501.752 681.091,572.023 685.021,555.282 688.951,512.268 692.881,523.869 696.811,542.999 700.741,590.858 704.671,592.048 708.601,612.292 712.531,622.676 716.461,610.278 720.391,607.055 724.321,616.363 728.251,580.841 732.181,515.656 736.111,580.202 740.041,586.439 743.971,628.901 747.901,633.891 751.831,641.477 755.761,666.668 759.691,649.607 763.621,631.304 767.551,623.685 771.481,632.748 775.411,639.421 779.341,644.805 783.271,629.692 787.201,623.214 791.131,602.917 795.061,643.734 798.991,629.309 802.921,588.215 806.851,627.611 810.781,626.918 814.711,647.29 818.641,611.082 822.571,619.132 826.501,588.624 830.431,592.814 834.361,583.863 838.291,531.499 842.221,549.945 846.151,560.548 850.081,519.91 854.011,492.503 857.941,454.625 861.871,409.75 865.801,383.447 869.731,417.069 873.661,417.711 877.591,419.994 881.521,389.402 885.451,401.742 889.381,430.208 893.311,388.929 897.241,365.181 901.171,330.197 905.101,295.155 909.031,325.768 912.961,344.472 916.891,232.157 920.821,245.217 924.751,320.963 928.681,370.237 932.611,367.378 936.541,394.622 940.471,346.014 944.401,383.828 948.331,383.465 952.261,286.425 956.191,351.067 960.121,381.768 964.051,398.837 967.981,420.259 971.911,408.067 975.841,365.831 979.771,331.271 983.701,353.545 987.631,391.055 991.561,334.428 995.491,363.983 999.421,361.648 1003.35,388.357 1007.28,386.77 1011.21,379.9 1015.14,429.666 1019.07,423.555 1023,494.863 1026.93,536.825 1030.86,559.688 1034.79,549.533 1038.72,600.657 1042.65,605.705 1046.58,588.565 1050.51,547.125 1054.44,571.804 1058.37,579.927 1062.3,595.256 1066.23,587.807 1070.16,582.734 1074.09,581.089 1078.02,546.441 1081.95,575.985 1085.88,559.504 1089.81,576.522 1093.74,596.351 1097.67,603.686 1101.6,614.58 1105.53,608.35 1109.46,573.186 1113.39,572.718 1117.32,559.044 1121.25,573.274 1125.18,576.611 1129.11,512.857 1133.04,548.304 1136.97,547.471 1140.9,558.605 1144.83,591.58 1148.76,617.469 1152.69,605.367 1156.62,630.545 1160.55,632.597 1164.48,671.673 1168.41,657.977 1172.34,674.766 1176.27,650.836 1180.2,633.949 1184.13,628.656 1188.06,607.939 1191.99,640.501 1195.92,633.276 1199.85,629.912 1203.78,654.122 1207.71,595.71 1211.64,574.563 1215.57,577.141 1219.5,613.547 1223.43,591.401 1227.36,579.499 1231.29,553.795 1235.22,529.922 1239.15,546.909 1243.08,586.609 1247.01,632.19 1250.94,619.276 1254.87,582.586 1258.8,606.864 1262.73,601.375 1266.66,549.033 1270.59,557.415 1274.52,509.68 1278.45,497.36 1282.38,482.139 1286.31,458.829 1290.24,397.562 1294.17,400.01 1298.1,415.293 1302.03,411.865 1305.96,406.242 1309.89,413.05 1313.82,391.36 1317.75,423.159 1321.68,454.157 1325.61,496.285 1329.54,516.416 1333.47,520.005 1337.4,500.212 1341.33,515.791 1345.26,546.268 1349.19,547.375 1353.12,531.854 1357.05,485.935 1360.98,479.611 1364.91,479.375 1368.84,489.984 1372.77,483.301 1376.7,469.091 1380.63,480.186 1384.56,465.372 1388.49,517.64 1392.42,506.624 1396.35,501.306 1400.28,457.089 1404.21,493.312 1408.14,470.922 1412.07,479.149 1416,500.59 1419.93,523.485 1423.86,480.591 1427.79,449.645 1431.72,442.489 1435.65,466.037 1439.58,467.572 1443.51,487.055 1447.44,469.839 1451.37,477.19 1455.3,466.482 1459.23,449.117 1463.16,415.974 1467.09,380.752 1471.02,343.304 1474.95,360.661 1478.88,329.39 1482.81,252.109 1486.74,220.322 1490.67,211.562 1494.6,198.335 1498.53,150.571 1502.46,146.625 1506.39,129.945 1510.32,126.489 1514.25,94.751 1518.18,86.1857 1522.11,126.03 1526.04,177.395 1529.97,140.745 1533.9,121.924 1537.83,165.657 1541.76,224.732 1545.69,252.899 1549.62,204.075 1553.55,210.873 1557.48,246.165 1561.41,232.566 1565.34,277.94 1569.27,296.051 1573.2,314.819 1577.13,326.405 1581.06,387.764 1584.99,415.824 1588.92,435.923 1592.85,473.655 1596.78,441.093 1600.71,441.775 1604.64,519.623 1608.57,490.677 1612.5,503.043 1616.43,535.49 1620.36,525.004 1624.29,487.365 1628.22,458.437 1632.15,475.479 1636.08,489.018 1640.01,521.79 1643.94,516.308 1647.87,477.764 1651.8,455.351 1655.73,492.852 1659.66,530.344 1663.59,588.731 1667.52,580.256 1671.45,605.445 1675.38,602.924 1679.31,581.252 1683.24,566.662 1687.17,590.809 1691.1,576.191 1695.03,578.941 1698.96,595.401 1702.89,614.096 1706.82,578.324 1710.75,556.653 1714.68,601.227 1718.61,600.908 1722.54,621.662 1726.47,675.545 1730.4,703.69 1734.33,652.676 1738.26,616.04 1742.19,655.663 1746.12,680.636 1750.05,689.784 1753.98,650.158 1757.91,686.417 1761.84,654.892 1765.77,639.255 1769.7,623.556 1773.63,603.886 1777.56,576.542 1781.49,566.697 1785.42,555.322 1789.35,586.055 1793.28,542.912 1797.21,520.79 1801.14,533.308 1805.07,582.616 1809,578.672 1812.93,590.818 1816.86,582.786 1820.79,602.525 1824.72,626.939 1828.65,670.589 1832.58,708.025 1836.51,703.95 1840.44,720.379 1844.37,678.376 1848.3,645.865 1852.23,640.452 1856.16,676.16 1860.09,641.334 1864.02,635.357 1867.95,638.454 1871.88,639.635 1875.81,618.982 1879.74,640.685 1883.67,660.216 1887.6,622.707 1891.53,631.018 1895.46,663.216 1899.39,669.491 1903.32,618.448 1907.25,616.958 1911.18,609.37 1915.11,567.273 1919.04,559.694 1922.97,552.352 1926.9,540.251 1930.83,542.688 1934.76,468.028 1938.69,477.012 1942.62,492.476 1946.55,431.203 1950.48,437.115 1954.41,400.375 1958.34,453.237 1962.27,458.033 1966.2,440.429 1970.13,444.431 1974.06,399.183 1977.99,403.851 1981.92,419.104 1985.85,445.341 1989.78,441.313 1993.71,425.517 1997.64,448.2 2001.57,480.659 2005.5,464.903 2009.43,500.295 2013.36,478.643 2017.29,476.657 2021.22,462.344 2025.15,530.202 2029.08,499.038 2033.01,483.611 2036.94,462.534 2040.87,501.61 2044.8,512.142 2048.73,481.411 2052.66,449.738 2056.59,359.188 2060.52,381.454 2064.45,320.915 2068.38,320.131 2072.31,375.609 2076.24,342.912 2080.17,324.419 2084.1,300.976 2088.03,285.109 2091.96,298.132 2095.89,264.867 2099.82,340.846 2103.75,275.853 2107.68,281.358 2111.61,277.641 2115.54,265.405 2119.47,274.729 2123.4,202.916 2127.33,229.031 2131.26,200.325 2135.19,212.93 2139.12,163.48 2143.05,131.716 2146.98,101.231 2150.91,169.44 2154.84,260.867 2158.77,294.91 2162.7,308.988 2166.63,278.673 2170.56,302.551 2174.49,294.155 2178.42,247.027 2182.35,267.41 2186.28,289.299 2190.21,224.119 2194.14,246.12 2198.07,205.441 2202,178.296 2205.93,181.004 2209.86,229.665 2213.79,230.581 2217.72,245.128 2221.65,219.391 2225.58,170.251 2229.51,160.277 2233.44,185.985 2237.37,150.247 2241.3,150.354 2245.23,132.845 2249.16,104.919 2253.09,109.041 2257.02,151.888 2260.95,189.651 2264.88,228.093 2268.81,168.556 2272.74,173.921 2276.67,250.735 2280.6,272.723 2284.53,379.092 2288.46,350.337 2292.39,339.745 "/>
<polyline clip-path="url(#clip982)" style="stroke:#e26f46; stroke-linecap:round; stroke-linejoin:round; stroke-width:8; stroke-opacity:1; fill:none" stroke-dasharray="32, 16, 4, 16" points="280.231,1384.24 284.161,1384.24 288.091,1384.24 292.021,1384.24 295.951,1384.24 299.881,1384.24 303.811,1384.24 307.741,1384.24 311.671,1384.24 315.601,1384.24 319.531,1384.24 323.461,1384.24 327.391,1384.24 331.321,1384.24 335.251,1384.24 339.181,1384.24 343.111,1384.24 347.041,1076.19 350.971,1076.19 354.901,1076.19 358.831,1076.19 362.761,1076.19 366.691,1076.19 370.621,1076.19 374.551,1076.19 378.481,1076.19 382.411,1076.19 386.341,1076.19 390.271,1076.19 394.201,1076.19 398.131,1076.19 402.061,1076.19 405.991,1076.19 409.921,1076.19 413.851,1076.19 417.781,1076.19 421.711,1076.19 425.641,1076.19 429.571,1076.19 433.501,1076.19 437.431,1076.19 441.361,1076.19 445.291,1076.19 449.221,1076.19 453.151,1076.19 457.081,1076.19 461.011,1076.19 464.941,1076.19 468.871,1076.19 472.801,1076.19 476.731,1076.19 480.661,1076.19 484.591,1076.19 488.521,1076.19 492.451,1076.19 496.381,1076.19 500.311,1076.19 504.241,1076.19 508.171,1076.19 512.101,1076.19 516.031,1076.19 519.961,1076.19 523.891,1076.19 527.821,1076.19 531.751,1076.19 535.681,1076.19 539.611,1076.19 543.541,1076.19 547.471,1076.19 551.401,1076.19 555.331,1076.19 559.261,1076.19 563.191,1076.19 567.121,1076.19 571.051,1076.19 574.981,1076.19 578.911,1076.19 582.841,1076.19 586.771,1076.19 590.701,1076.19 594.631,1076.19 598.561,1076.19 602.491,1076.19 606.421,1076.19 610.351,1076.19 614.281,1076.19 618.211,1076.19 622.141,1076.19 626.071,1076.19 630.001,1076.19 633.931,1076.19 637.861,1076.19 641.791,1076.19 645.721,1076.19 649.651,1076.19 653.581,1076.19 657.511,1076.19 661.441,1076.19 665.371,1076.19 669.301,1076.19 673.231,1076.19 677.161,1076.19 681.091,1076.19 685.021,1076.19 688.951,1076.19 692.881,1076.19 696.811,1076.19 700.741,1076.19 704.671,1076.19 708.601,1076.19 712.531,1076.19 716.461,1076.19 720.391,1076.19 724.321,1076.19 728.251,1076.19 732.181,1076.19 736.111,1076.19 740.041,1076.19 743.971,1076.19 747.901,1076.19 751.831,1076.19 755.761,1076.19 759.691,1076.19 763.621,1076.19 767.551,1076.19 771.481,1076.19 775.411,1076.19 779.341,1076.19 783.271,1076.19 787.201,1076.19 791.131,1076.19 795.061,1076.19 798.991,1076.19 802.921,1076.19 806.851,1076.19 810.781,1076.19 814.711,1076.19 818.641,1076.19 822.571,1076.19 826.501,1076.19 830.431,1076.19 834.361,1076.19 838.291,1076.19 842.221,1076.19 846.151,1076.19 850.081,1076.19 854.011,1076.19 857.941,1076.19 861.871,1076.19 865.801,1076.19 869.731,1076.19 873.661,1076.19 877.591,1076.19 881.521,1076.19 885.451,1076.19 889.381,1076.19 893.311,1076.19 897.241,1076.19 901.171,1076.19 905.101,1076.19 909.031,1076.19 912.961,1076.19 916.891,1076.19 920.821,1076.19 924.751,1076.19 928.681,1076.19 932.611,1076.19 936.541,1076.19 940.471,1076.19 944.401,1076.19 948.331,1076.19 952.261,1076.19 956.191,1076.19 960.121,1076.19 964.051,1076.19 967.981,1076.19 971.911,1076.19 975.841,1076.19 979.771,1076.19 983.701,1076.19 987.631,1076.19 991.561,1076.19 995.491,1076.19 999.421,1076.19 1003.35,1076.19 1007.28,1076.19 1011.21,1076.19 1015.14,1076.19 1019.07,1076.19 1023,1076.19 1026.93,1076.19 1030.86,1076.19 1034.79,1076.19 1038.72,1076.19 1042.65,1076.19 1046.58,1076.19 1050.51,1076.19 1054.44,1076.19 1058.37,1076.19 1062.3,1076.19 1066.23,1076.19 1070.16,1076.19 1074.09,1076.19 1078.02,1076.19 1081.95,1076.19 1085.88,1076.19 1089.81,1076.19 1093.74,1076.19 1097.67,1076.19 1101.6,1076.19 1105.53,1076.19 1109.46,1076.19 1113.39,1076.19 1117.32,1076.19 1121.25,1076.19 1125.18,1076.19 1129.11,1076.19 1133.04,1076.19 1136.97,1076.19 1140.9,1076.19 1144.83,1076.19 1148.76,1076.19 1152.69,1076.19 1156.62,1076.19 1160.55,1076.19 1164.48,1076.19 1168.41,1076.19 1172.34,1076.19 1176.27,1076.19 1180.2,1076.19 1184.13,1076.19 1188.06,686.86 1191.99,686.86 1195.92,686.86 1199.85,686.86 1203.78,686.86 1207.71,686.86 1211.64,686.86 1215.57,686.86 1219.5,686.86 1223.43,686.86 1227.36,686.86 1231.29,686.86 1235.22,686.86 1239.15,686.86 1243.08,686.86 1247.01,686.86 1250.94,686.86 1254.87,686.86 1258.8,1050.32 1262.73,1050.32 1266.66,1050.32 1270.59,1050.32 1274.52,1050.32 1278.45,1050.32 1282.38,1050.32 1286.31,1050.32 1290.24,1050.32 1294.17,1050.32 1298.1,1050.32 1302.03,1050.32 1305.96,1050.32 1309.89,1050.32 1313.82,1050.32 1317.75,1050.32 1321.68,1050.32 1325.61,1050.32 1329.54,1050.32 1333.47,1050.32 1337.4,1050.32 1341.33,1050.32 1345.26,1050.32 1349.19,1050.32 1353.12,1050.32 1357.05,1050.32 1360.98,1050.32 1364.91,1050.32 1368.84,1050.32 1372.77,1050.32 1376.7,1050.32 1380.63,1050.32 1384.56,1050.32 1388.49,1050.32 1392.42,1050.32 1396.35,1050.32 1400.28,860.234 1404.21,860.234 1408.14,860.234 1412.07,860.234 1416,860.234 1419.93,860.234 1423.86,860.234 1427.79,860.234 1431.72,860.234 1435.65,860.234 1439.58,860.234 1443.51,860.234 1447.44,860.234 1451.37,860.234 1455.3,860.234 1459.23,860.234 1463.16,860.234 1467.09,860.234 1471.02,860.234 1474.95,860.234 1478.88,860.234 1482.81,860.234 1486.74,860.234 1490.67,860.234 1494.6,860.234 1498.53,860.234 1502.46,860.234 1506.39,860.234 1510.32,860.234 1514.25,860.234 1518.18,860.234 1522.11,860.234 1526.04,860.234 1529.97,733.331 1533.9,733.331 1537.83,733.331 1541.76,733.331 1545.69,733.331 1549.62,733.331 1553.55,733.331 1557.48,733.331 1561.41,733.331 1565.34,733.331 1569.27,733.331 1573.2,733.331 1577.13,733.331 1581.06,733.331 1584.99,733.331 1588.92,733.331 1592.85,733.331 1596.78,733.331 1600.71,733.331 1604.64,733.331 1608.57,733.331 1612.5,733.331 1616.43,733.331 1620.36,733.331 1624.29,733.331 1628.22,733.331 1632.15,733.331 1636.08,733.331 1640.01,733.331 1643.94,733.331 1647.87,733.331 1651.8,733.331 1655.73,733.331 1659.66,733.331 1663.59,733.331 1667.52,733.331 1671.45,733.331 1675.38,733.331 1679.31,733.331 1683.24,733.331 1687.17,733.331 1691.1,733.331 1695.03,733.331 1698.96,733.331 1702.89,733.331 1706.82,733.331 1710.75,733.331 1714.68,733.331 1718.61,733.331 1722.54,733.331 1726.47,733.331 1730.4,733.331 1734.33,733.331 1738.26,733.331 1742.19,733.331 1746.12,733.331 1750.05,1126.68 1753.98,1126.68 1757.91,1126.68 1761.84,1126.68 1765.77,1126.68 1769.7,1126.68 1773.63,1126.68 1777.56,1126.68 1781.49,1126.68 1785.42,1126.68 1789.35,1126.68 1793.28,1126.68 1797.21,1126.68 1801.14,1126.68 1805.07,1126.68 1809,1126.68 1812.93,1126.68 1816.86,1126.68 1820.79,1126.68 1824.72,1126.68 1828.65,1126.68 1832.58,1126.68 1836.51,1126.68 1840.44,1126.68 1844.37,1126.68 1848.3,1126.68 1852.23,1126.68 1856.16,1126.68 1860.09,1126.68 1864.02,1126.68 1867.95,1126.68 1871.88,1126.68 1875.81,1126.68 1879.74,1126.68 1883.67,1126.68 1887.6,1126.68 1891.53,1126.68 1895.46,1126.68 1899.39,1126.68 1903.32,1126.68 1907.25,1126.68 1911.18,1126.68 1915.11,1126.68 1919.04,1126.68 1922.97,1032.93 1926.9,1032.93 1930.83,850.215 1934.76,850.215 1938.69,712.27 1942.62,712.27 1946.55,712.27 1950.48,712.27 1954.41,712.27 1958.34,712.27 1962.27,712.27 1966.2,954.465 1970.13,966.232 1974.06,966.232 1977.99,966.232 1981.92,966.232 1985.85,966.232 1989.78,966.232 1993.71,966.232 1997.64,966.232 2001.57,966.232 2005.5,966.232 2009.43,966.232 2013.36,966.232 2017.29,966.232 2021.22,966.232 2025.15,966.232 2029.08,966.232 2033.01,966.232 2036.94,966.232 2040.87,966.232 2044.8,966.232 2048.73,1012.63 2052.66,1012.63 2056.59,1012.63 2060.52,1012.63 2064.45,1012.63 2068.38,1012.63 2072.31,1012.63 2076.24,1012.63 2080.17,1012.63 2084.1,1012.63 2088.03,1012.63 2091.96,1012.63 2095.89,1012.63 2099.82,1012.63 2103.75,1012.63 2107.68,1012.63 2111.61,1012.63 2115.54,1012.63 2119.47,1012.63 2123.4,1012.63 2127.33,1012.63 2131.26,1012.63 2135.19,1012.63 2139.12,1012.63 2143.05,1012.63 2146.98,1012.63 2150.91,1012.63 2154.84,1012.63 2158.77,1012.63 2162.7,1012.63 2166.63,1012.63 2170.56,1012.63 2174.49,1012.63 2178.42,1012.63 2182.35,1012.63 2186.28,1012.63 2190.21,1012.63 2194.14,1012.63 2198.07,1012.63 2202,1012.63 2205.93,1012.63 2209.86,1012.63 2213.79,1012.63 2217.72,1012.63 2221.65,1012.63 2225.58,1012.63 2229.51,1012.63 2233.44,1206.28 2237.37,1206.28 2241.3,1206.28 2245.23,1206.28 2249.16,1206.28 2253.09,1206.28 2257.02,1206.28 2260.95,1206.28 2264.88,1206.28 2268.81,1206.28 2272.74,1206.28 2276.67,1206.28 2280.6,1206.28 2284.53,1206.28 2288.46,1206.28 2292.39,1206.28 "/>
<path clip-path="url(#clip980)" d="M290.963 248.629 L576.404 248.629 L576.404 93.1086 L290.963 93.1086  Z" fill="#ffffff" fill-rule="evenodd" fill-opacity="1"/>
<polyline clip-path="url(#clip980)" style="stroke:#000000; stroke-linecap:round; stroke-linejoin:round; stroke-width:4; stroke-opacity:1; fill:none" points="290.963,248.629 576.404,248.629 576.404,93.1086 290.963,93.1086 290.963,248.629 "/>
<polyline clip-path="url(#clip980)" style="stroke:#009af9; stroke-linecap:round; stroke-linejoin:round; stroke-width:8; stroke-opacity:1; fill:none" stroke-dasharray="32, 20" points="314.661,144.949 456.854,144.949 "/>
<path clip-path="url(#clip980)" d="M481.085 127.669 L508.238 127.669 L508.238 131.233 L486.386 158.293 L508.77 158.293 L508.77 162.229 L480.553 162.229 L480.553 158.664 L502.405 131.604 L481.085 131.604 L481.085 127.669 Z" fill="#000000" fill-rule="nonzero" fill-opacity="1" /><path clip-path="url(#clip980)" d="M535.066 170.099 L535.066 173.409 L510.437 173.409 L510.437 170.099 L535.066 170.099 Z" fill="#000000" fill-rule="nonzero" fill-opacity="1" /><path clip-path="url(#clip980)" d="M543.284 128.942 L543.284 136.303 L552.057 136.303 L552.057 139.613 L543.284 139.613 L543.284 153.687 Q543.284 156.858 544.14 157.761 Q545.02 158.664 547.682 158.664 L552.057 158.664 L552.057 162.229 L547.682 162.229 Q542.752 162.229 540.877 160.4 Q539.002 158.548 539.002 153.687 L539.002 139.613 L535.877 139.613 L535.877 136.303 L539.002 136.303 L539.002 128.942 L543.284 128.942 Z" fill="#000000" fill-rule="nonzero" fill-opacity="1" /><polyline clip-path="url(#clip980)" style="stroke:#e26f46; stroke-linecap:round; stroke-linejoin:round; stroke-width:8; stroke-opacity:1; fill:none" stroke-dasharray="32, 16, 4, 16" points="314.661,196.789 456.854,196.789 "/>
<path clip-path="url(#clip980)" d="M480.553 179.509 L485.229 179.509 L485.229 193.675 L502.219 193.675 L502.219 179.509 L506.895 179.509 L506.895 214.069 L502.219 214.069 L502.219 197.61 L485.229 197.61 L485.229 214.069 L480.553 214.069 L480.553 179.509 Z" fill="#000000" fill-rule="nonzero" fill-opacity="1" /><path clip-path="url(#clip980)" d="M535.715 221.939 L535.715 225.249 L511.085 225.249 L511.085 221.939 L535.715 221.939 Z" fill="#000000" fill-rule="nonzero" fill-opacity="1" /><path clip-path="url(#clip980)" d="M543.932 180.782 L543.932 188.143 L552.705 188.143 L552.705 191.453 L543.932 191.453 L543.932 205.527 Q543.932 208.698 544.789 209.601 Q545.668 210.504 548.33 210.504 L552.705 210.504 L552.705 214.069 L548.33 214.069 Q543.4 214.069 541.525 212.24 Q539.65 210.388 539.65 205.527 L539.65 191.453 L536.525 191.453 L536.525 188.143 L539.65 188.143 L539.65 180.782 L543.932 180.782 Z" fill="#000000" fill-rule="nonzero" fill-opacity="1" /></svg>
