<?xml version="1.0" encoding="utf-8"?>
<svg xmlns="http://www.w3.org/2000/svg" xmlns:xlink="http://www.w3.org/1999/xlink" width="600" height="400" viewBox="0 0 2400 1600">
<defs>
  <clipPath id="clip040">
    <rect x="0" y="0" width="2400" height="1600"/>
  </clipPath>
</defs>
<path clip-path="url(#clip040)" d="M0 1600 L2400 1600 L2400 0 L0 0  Z" fill="#ffffff" fill-rule="evenodd" fill-opacity="1"/>
<defs>
  <clipPath id="clip041">
    <rect x="480" y="0" width="1681" height="1600"/>
  </clipPath>
</defs>
<path clip-path="url(#clip040)" d="M277.621 1423.18 L2352.76 1423.18 L2352.76 47.2441 L277.621 47.2441  Z" fill="#ffffff" fill-rule="evenodd" fill-opacity="1"/>
<defs>
  <clipPath id="clip042">
    <rect x="277" y="47" width="2076" height="1377"/>
  </clipPath>
</defs>
<polyline clip-path="url(#clip042)" style="stroke:#000000; stroke-linecap:round; stroke-linejoin:round; stroke-width:2; stroke-opacity:0.1; fill:none" points="336.351,1423.18 336.351,47.2441 "/>
<polyline clip-path="url(#clip042)" style="stroke:#000000; stroke-linecap:round; stroke-linejoin:round; stroke-width:2; stroke-opacity:0.1; fill:none" points="825.77,1423.18 825.77,47.2441 "/>
<polyline clip-path="url(#clip042)" style="stroke:#000000; stroke-linecap:round; stroke-linejoin:round; stroke-width:2; stroke-opacity:0.1; fill:none" points="1315.19,1423.18 1315.19,47.2441 "/>
<polyline clip-path="url(#clip042)" style="stroke:#000000; stroke-linecap:round; stroke-linejoin:round; stroke-width:2; stroke-opacity:0.1; fill:none" points="1804.61,1423.18 1804.61,47.2441 "/>
<polyline clip-path="url(#clip042)" style="stroke:#000000; stroke-linecap:round; stroke-linejoin:round; stroke-width:2; stroke-opacity:0.1; fill:none" points="2294.03,1423.18 2294.03,47.2441 "/>
<polyline clip-path="url(#clip040)" style="stroke:#000000; stroke-linecap:round; stroke-linejoin:round; stroke-width:4; stroke-opacity:1; fill:none" points="277.621,1423.18 2352.76,1423.18 "/>
<polyline clip-path="url(#clip040)" style="stroke:#000000; stroke-linecap:round; stroke-linejoin:round; stroke-width:4; stroke-opacity:1; fill:none" points="336.351,1423.18 336.351,1404.28 "/>
<polyline clip-path="url(#clip040)" style="stroke:#000000; stroke-linecap:round; stroke-linejoin:round; stroke-width:4; stroke-opacity:1; fill:none" points="825.77,1423.18 825.77,1404.28 "/>
<polyline clip-path="url(#clip040)" style="stroke:#000000; stroke-linecap:round; stroke-linejoin:round; stroke-width:4; stroke-opacity:1; fill:none" points="1315.19,1423.18 1315.19,1404.28 "/>
<polyline clip-path="url(#clip040)" style="stroke:#000000; stroke-linecap:round; stroke-linejoin:round; stroke-width:4; stroke-opacity:1; fill:none" points="1804.61,1423.18 1804.61,1404.28 "/>
<polyline clip-path="url(#clip040)" style="stroke:#000000; stroke-linecap:round; stroke-linejoin:round; stroke-width:4; stroke-opacity:1; fill:none" points="2294.03,1423.18 2294.03,1404.28 "/>
<path clip-path="url(#clip040)" d="M298.654 1454.1 Q295.043 1454.1 293.214 1457.66 Q291.409 1461.2 291.409 1468.33 Q291.409 1475.44 293.214 1479.01 Q295.043 1482.55 298.654 1482.55 Q302.289 1482.55 304.094 1479.01 Q305.923 1475.44 305.923 1468.33 Q305.923 1461.2 304.094 1457.66 Q302.289 1454.1 298.654 1454.1 M298.654 1450.39 Q304.464 1450.39 307.52 1455 Q310.599 1459.58 310.599 1468.33 Q310.599 1477.06 307.52 1481.67 Q304.464 1486.25 298.654 1486.25 Q292.844 1486.25 289.765 1481.67 Q286.71 1477.06 286.71 1468.33 Q286.71 1459.58 289.765 1455 Q292.844 1450.39 298.654 1450.39 Z" fill="#000000" fill-rule="nonzero" fill-opacity="1" /><path clip-path="url(#clip040)" d="M318.816 1479.7 L323.7 1479.7 L323.7 1485.58 L318.816 1485.58 L318.816 1479.7 Z" fill="#000000" fill-rule="nonzero" fill-opacity="1" /><path clip-path="url(#clip040)" d="M343.886 1454.1 Q340.274 1454.1 338.446 1457.66 Q336.64 1461.2 336.64 1468.33 Q336.64 1475.44 338.446 1479.01 Q340.274 1482.55 343.886 1482.55 Q347.52 1482.55 349.325 1479.01 Q351.154 1475.44 351.154 1468.33 Q351.154 1461.2 349.325 1457.66 Q347.52 1454.1 343.886 1454.1 M343.886 1450.39 Q349.696 1450.39 352.751 1455 Q355.83 1459.58 355.83 1468.33 Q355.83 1477.06 352.751 1481.67 Q349.696 1486.25 343.886 1486.25 Q338.075 1486.25 334.997 1481.67 Q331.941 1477.06 331.941 1468.33 Q331.941 1459.58 334.997 1455 Q338.075 1450.39 343.886 1450.39 Z" fill="#000000" fill-rule="nonzero" fill-opacity="1" /><path clip-path="url(#clip040)" d="M374.047 1454.1 Q370.436 1454.1 368.608 1457.66 Q366.802 1461.2 366.802 1468.33 Q366.802 1475.44 368.608 1479.01 Q370.436 1482.55 374.047 1482.55 Q377.682 1482.55 379.487 1479.01 Q381.316 1475.44 381.316 1468.33 Q381.316 1461.2 379.487 1457.66 Q377.682 1454.1 374.047 1454.1 M374.047 1450.39 Q379.858 1450.39 382.913 1455 Q385.992 1459.58 385.992 1468.33 Q385.992 1477.06 382.913 1481.67 Q379.858 1486.25 374.047 1486.25 Q368.237 1486.25 365.159 1481.67 Q362.103 1477.06 362.103 1468.33 Q362.103 1459.58 365.159 1455 Q368.237 1450.39 374.047 1450.39 Z" fill="#000000" fill-rule="nonzero" fill-opacity="1" /><path clip-path="url(#clip040)" d="M788.571 1454.1 Q784.96 1454.1 783.131 1457.66 Q781.325 1461.2 781.325 1468.33 Q781.325 1475.44 783.131 1479.01 Q784.96 1482.55 788.571 1482.55 Q792.205 1482.55 794.01 1479.01 Q795.839 1475.44 795.839 1468.33 Q795.839 1461.2 794.01 1457.66 Q792.205 1454.1 788.571 1454.1 M788.571 1450.39 Q794.381 1450.39 797.436 1455 Q800.515 1459.58 800.515 1468.33 Q800.515 1477.06 797.436 1481.67 Q794.381 1486.25 788.571 1486.25 Q782.761 1486.25 779.682 1481.67 Q776.626 1477.06 776.626 1468.33 Q776.626 1459.58 779.682 1455 Q782.761 1450.39 788.571 1450.39 Z" fill="#000000" fill-rule="nonzero" fill-opacity="1" /><path clip-path="url(#clip040)" d="M808.733 1479.7 L813.617 1479.7 L813.617 1485.58 L808.733 1485.58 L808.733 1479.7 Z" fill="#000000" fill-rule="nonzero" fill-opacity="1" /><path clip-path="url(#clip040)" d="M827.83 1481.64 L844.149 1481.64 L844.149 1485.58 L822.205 1485.58 L822.205 1481.64 Q824.867 1478.89 829.45 1474.26 Q834.057 1469.61 835.237 1468.27 Q837.482 1465.74 838.362 1464.01 Q839.265 1462.25 839.265 1460.56 Q839.265 1457.8 837.32 1456.07 Q835.399 1454.33 832.297 1454.33 Q830.098 1454.33 827.645 1455.09 Q825.214 1455.86 822.436 1457.41 L822.436 1452.69 Q825.26 1451.55 827.714 1450.97 Q830.168 1450.39 832.205 1450.39 Q837.575 1450.39 840.769 1453.08 Q843.964 1455.77 843.964 1460.26 Q843.964 1462.39 843.154 1464.31 Q842.367 1466.2 840.26 1468.8 Q839.682 1469.47 836.58 1472.69 Q833.478 1475.88 827.83 1481.64 Z" fill="#000000" fill-rule="nonzero" fill-opacity="1" /><path clip-path="url(#clip040)" d="M854.01 1451.02 L872.367 1451.02 L872.367 1454.96 L858.293 1454.96 L858.293 1463.43 Q859.311 1463.08 860.33 1462.92 Q861.348 1462.73 862.367 1462.73 Q868.154 1462.73 871.533 1465.9 Q874.913 1469.08 874.913 1474.49 Q874.913 1480.07 871.441 1483.17 Q867.968 1486.25 861.649 1486.25 Q859.473 1486.25 857.205 1485.88 Q854.959 1485.51 852.552 1484.77 L852.552 1480.07 Q854.635 1481.2 856.857 1481.76 Q859.08 1482.32 861.556 1482.32 Q865.561 1482.32 867.899 1480.21 Q870.237 1478.1 870.237 1474.49 Q870.237 1470.88 867.899 1468.77 Q865.561 1466.67 861.556 1466.67 Q859.681 1466.67 857.806 1467.08 Q855.955 1467.5 854.01 1468.38 L854.01 1451.02 Z" fill="#000000" fill-rule="nonzero" fill-opacity="1" /><path clip-path="url(#clip040)" d="M1277.49 1454.1 Q1273.88 1454.1 1272.05 1457.66 Q1270.25 1461.2 1270.25 1468.33 Q1270.25 1475.44 1272.05 1479.01 Q1273.88 1482.55 1277.49 1482.55 Q1281.13 1482.55 1282.93 1479.01 Q1284.76 1475.44 1284.76 1468.33 Q1284.76 1461.2 1282.93 1457.66 Q1281.13 1454.1 1277.49 1454.1 M1277.49 1450.39 Q1283.3 1450.39 1286.36 1455 Q1289.44 1459.58 1289.44 1468.33 Q1289.44 1477.06 1286.36 1481.67 Q1283.3 1486.25 1277.49 1486.25 Q1271.68 1486.25 1268.6 1481.67 Q1265.55 1477.06 1265.55 1468.33 Q1265.55 1459.58 1268.6 1455 Q1271.68 1450.39 1277.49 1450.39 Z" fill="#000000" fill-rule="nonzero" fill-opacity="1" /><path clip-path="url(#clip040)" d="M1297.65 1479.7 L1302.54 1479.7 L1302.54 1485.58 L1297.65 1485.58 L1297.65 1479.7 Z" fill="#000000" fill-rule="nonzero" fill-opacity="1" /><path clip-path="url(#clip040)" d="M1312.77 1451.02 L1331.13 1451.02 L1331.13 1454.96 L1317.05 1454.96 L1317.05 1463.43 Q1318.07 1463.08 1319.09 1462.92 Q1320.11 1462.73 1321.13 1462.73 Q1326.91 1462.73 1330.29 1465.9 Q1333.67 1469.08 1333.67 1474.49 Q1333.67 1480.07 1330.2 1483.17 Q1326.73 1486.25 1320.41 1486.25 Q1318.23 1486.25 1315.96 1485.88 Q1313.72 1485.51 1311.31 1484.77 L1311.31 1480.07 Q1313.39 1481.2 1315.62 1481.76 Q1317.84 1482.32 1320.32 1482.32 Q1324.32 1482.32 1326.66 1480.21 Q1329 1478.1 1329 1474.49 Q1329 1470.88 1326.66 1468.77 Q1324.32 1466.67 1320.32 1466.67 Q1318.44 1466.67 1316.57 1467.08 Q1314.71 1467.5 1312.77 1468.38 L1312.77 1451.02 Z" fill="#000000" fill-rule="nonzero" fill-opacity="1" /><path clip-path="url(#clip040)" d="M1352.88 1454.1 Q1349.27 1454.1 1347.45 1457.66 Q1345.64 1461.2 1345.64 1468.33 Q1345.64 1475.44 1347.45 1479.01 Q1349.27 1482.55 1352.88 1482.55 Q1356.52 1482.55 1358.32 1479.01 Q1360.15 1475.44 1360.15 1468.33 Q1360.15 1461.2 1358.32 1457.66 Q1356.52 1454.1 1352.88 1454.1 M1352.88 1450.39 Q1358.69 1450.39 1361.75 1455 Q1364.83 1459.58 1364.83 1468.33 Q1364.83 1477.06 1361.75 1481.67 Q1358.69 1486.25 1352.88 1486.25 Q1347.07 1486.25 1344 1481.67 Q1340.94 1477.06 1340.94 1468.33 Q1340.94 1459.58 1344 1455 Q1347.07 1450.39 1352.88 1450.39 Z" fill="#000000" fill-rule="nonzero" fill-opacity="1" /><path clip-path="url(#clip040)" d="M1767.41 1454.1 Q1763.8 1454.1 1761.97 1457.66 Q1760.16 1461.2 1760.16 1468.33 Q1760.16 1475.44 1761.97 1479.01 Q1763.8 1482.55 1767.41 1482.55 Q1771.04 1482.55 1772.85 1479.01 Q1774.68 1475.44 1774.68 1468.33 Q1774.68 1461.2 1772.85 1457.66 Q1771.04 1454.1 1767.41 1454.1 M1767.41 1450.39 Q1773.22 1450.39 1776.27 1455 Q1779.35 1459.58 1779.35 1468.33 Q1779.35 1477.06 1776.27 1481.67 Q1773.22 1486.25 1767.41 1486.25 Q1761.6 1486.25 1758.52 1481.67 Q1755.46 1477.06 1755.46 1468.33 Q1755.46 1459.58 1758.52 1455 Q1761.6 1450.39 1767.41 1450.39 Z" fill="#000000" fill-rule="nonzero" fill-opacity="1" /><path clip-path="url(#clip040)" d="M1787.57 1479.7 L1792.45 1479.7 L1792.45 1485.58 L1787.57 1485.58 L1787.57 1479.7 Z" fill="#000000" fill-rule="nonzero" fill-opacity="1" /><path clip-path="url(#clip040)" d="M1801.46 1451.02 L1823.68 1451.02 L1823.68 1453.01 L1811.13 1485.58 L1806.25 1485.58 L1818.06 1454.96 L1801.46 1454.96 L1801.46 1451.02 Z" fill="#000000" fill-rule="nonzero" fill-opacity="1" /><path clip-path="url(#clip040)" d="M1832.85 1451.02 L1851.2 1451.02 L1851.2 1454.96 L1837.13 1454.96 L1837.13 1463.43 Q1838.15 1463.08 1839.17 1462.92 Q1840.19 1462.73 1841.2 1462.73 Q1846.99 1462.73 1850.37 1465.9 Q1853.75 1469.08 1853.75 1474.49 Q1853.75 1480.07 1850.28 1483.17 Q1846.81 1486.25 1840.49 1486.25 Q1838.31 1486.25 1836.04 1485.88 Q1833.8 1485.51 1831.39 1484.77 L1831.39 1480.07 Q1833.47 1481.2 1835.69 1481.76 Q1837.92 1482.32 1840.39 1482.32 Q1844.4 1482.32 1846.74 1480.21 Q1849.07 1478.1 1849.07 1474.49 Q1849.07 1470.88 1846.74 1468.77 Q1844.4 1466.67 1840.39 1466.67 Q1838.52 1466.67 1836.64 1467.08 Q1834.79 1467.5 1832.85 1468.38 L1832.85 1451.02 Z" fill="#000000" fill-rule="nonzero" fill-opacity="1" /><path clip-path="url(#clip040)" d="M2246.1 1481.64 L2253.74 1481.64 L2253.74 1455.28 L2245.43 1456.95 L2245.43 1452.69 L2253.69 1451.02 L2258.37 1451.02 L2258.37 1481.64 L2266 1481.64 L2266 1485.58 L2246.1 1485.58 L2246.1 1481.64 Z" fill="#000000" fill-rule="nonzero" fill-opacity="1" /><path clip-path="url(#clip040)" d="M2275.45 1479.7 L2280.33 1479.7 L2280.33 1485.58 L2275.45 1485.58 L2275.45 1479.7 Z" fill="#000000" fill-rule="nonzero" fill-opacity="1" /><path clip-path="url(#clip040)" d="M2300.52 1454.1 Q2296.91 1454.1 2295.08 1457.66 Q2293.27 1461.2 2293.27 1468.33 Q2293.27 1475.44 2295.08 1479.01 Q2296.91 1482.55 2300.52 1482.55 Q2304.15 1482.55 2305.96 1479.01 Q2307.79 1475.44 2307.79 1468.33 Q2307.79 1461.2 2305.96 1457.66 Q2304.15 1454.1 2300.52 1454.1 M2300.52 1450.39 Q2306.33 1450.39 2309.38 1455 Q2312.46 1459.58 2312.46 1468.33 Q2312.46 1477.06 2309.38 1481.67 Q2306.33 1486.25 2300.52 1486.25 Q2294.71 1486.25 2291.63 1481.67 Q2288.57 1477.06 2288.57 1468.33 Q2288.57 1459.58 2291.63 1455 Q2294.71 1450.39 2300.52 1450.39 Z" fill="#000000" fill-rule="nonzero" fill-opacity="1" /><path clip-path="url(#clip040)" d="M2330.68 1454.1 Q2327.07 1454.1 2325.24 1457.66 Q2323.44 1461.2 2323.44 1468.33 Q2323.44 1475.44 2325.24 1479.01 Q2327.07 1482.55 2330.68 1482.55 Q2334.31 1482.55 2336.12 1479.01 Q2337.95 1475.44 2337.95 1468.33 Q2337.95 1461.2 2336.12 1457.66 Q2334.31 1454.1 2330.68 1454.1 M2330.68 1450.39 Q2336.49 1450.39 2339.55 1455 Q2342.62 1459.58 2342.62 1468.33 Q2342.62 1477.06 2339.55 1481.67 Q2336.49 1486.25 2330.68 1486.25 Q2324.87 1486.25 2321.79 1481.67 Q2318.74 1477.06 2318.74 1468.33 Q2318.74 1459.58 2321.79 1455 Q2324.87 1450.39 2330.68 1450.39 Z" fill="#000000" fill-rule="nonzero" fill-opacity="1" /><path clip-path="url(#clip040)" d="M1323.66 1531.91 Q1323.66 1532.81 1323.24 1533.04 Q1322.82 1533.23 1321.66 1533.23 L1315.48 1533.23 L1310.58 1552.69 Q1310.2 1554.39 1310.2 1555.84 Q1310.2 1557.45 1310.68 1558.16 Q1311.2 1558.87 1312.26 1558.87 Q1314.35 1558.87 1316.61 1556.97 Q1318.89 1555.07 1320.83 1550.43 Q1321.08 1549.82 1321.21 1549.69 Q1321.37 1549.53 1321.79 1549.53 Q1322.6 1549.53 1322.6 1550.17 Q1322.6 1550.4 1322.15 1551.43 Q1321.73 1552.46 1320.79 1553.97 Q1319.89 1555.49 1318.7 1556.9 Q1317.54 1558.32 1315.77 1559.35 Q1314 1560.35 1312.1 1560.35 Q1309.42 1560.35 1307.72 1558.64 Q1306.04 1556.94 1306.04 1554.26 Q1306.04 1553.39 1306.72 1550.62 Q1307.4 1547.82 1311.07 1533.23 L1305.24 1533.23 Q1304.43 1533.23 1304.11 1533.2 Q1303.82 1533.17 1303.59 1533.01 Q1303.4 1532.81 1303.4 1532.43 Q1303.4 1531.82 1303.66 1531.56 Q1303.92 1531.27 1304.24 1531.24 Q1304.59 1531.17 1305.4 1531.17 L1311.58 1531.17 L1314.16 1520.71 Q1314.42 1519.67 1315.06 1519.09 Q1315.74 1518.48 1316.12 1518.42 Q1316.51 1518.32 1316.8 1518.32 Q1317.67 1518.32 1318.18 1518.81 Q1318.7 1519.26 1318.7 1520.09 Q1318.7 1520.54 1315.99 1531.17 L1321.79 1531.17 Q1322.53 1531.17 1322.82 1531.2 Q1323.14 1531.24 1323.4 1531.4 Q1323.66 1531.56 1323.66 1531.91 Z" fill="#000000" fill-rule="nonzero" fill-opacity="1" /><polyline clip-path="url(#clip042)" style="stroke:#000000; stroke-linecap:round; stroke-linejoin:round; stroke-width:2; stroke-opacity:0.1; fill:none" points="277.621,1407.39 2352.76,1407.39 "/>
<polyline clip-path="url(#clip042)" style="stroke:#000000; stroke-linecap:round; stroke-linejoin:round; stroke-width:2; stroke-opacity:0.1; fill:none" points="277.621,1101.7 2352.76,1101.7 "/>
<polyline clip-path="url(#clip042)" style="stroke:#000000; stroke-linecap:round; stroke-linejoin:round; stroke-width:2; stroke-opacity:0.1; fill:none" points="277.621,796.015 2352.76,796.015 "/>
<polyline clip-path="url(#clip042)" style="stroke:#000000; stroke-linecap:round; stroke-linejoin:round; stroke-width:2; stroke-opacity:0.1; fill:none" points="277.621,490.327 2352.76,490.327 "/>
<polyline clip-path="url(#clip042)" style="stroke:#000000; stroke-linecap:round; stroke-linejoin:round; stroke-width:2; stroke-opacity:0.1; fill:none" points="277.621,184.639 2352.76,184.639 "/>
<polyline clip-path="url(#clip040)" style="stroke:#000000; stroke-linecap:round; stroke-linejoin:round; stroke-width:4; stroke-opacity:1; fill:none" points="277.621,1423.18 277.621,47.2441 "/>
<polyline clip-path="url(#clip040)" style="stroke:#000000; stroke-linecap:round; stroke-linejoin:round; stroke-width:4; stroke-opacity:1; fill:none" points="277.621,1407.39 296.518,1407.39 "/>
<polyline clip-path="url(#clip040)" style="stroke:#000000; stroke-linecap:round; stroke-linejoin:round; stroke-width:4; stroke-opacity:1; fill:none" points="277.621,1101.7 296.518,1101.7 "/>
<polyline clip-path="url(#clip040)" style="stroke:#000000; stroke-linecap:round; stroke-linejoin:round; stroke-width:4; stroke-opacity:1; fill:none" points="277.621,796.015 296.518,796.015 "/>
<polyline clip-path="url(#clip040)" style="stroke:#000000; stroke-linecap:round; stroke-linejoin:round; stroke-width:4; stroke-opacity:1; fill:none" points="277.621,490.327 296.518,490.327 "/>
<polyline clip-path="url(#clip040)" style="stroke:#000000; stroke-linecap:round; stroke-linejoin:round; stroke-width:4; stroke-opacity:1; fill:none" points="277.621,184.639 296.518,184.639 "/>
<path clip-path="url(#clip040)" d="M115.927 1420.73 L123.566 1420.73 L123.566 1394.37 L115.256 1396.04 L115.256 1391.78 L123.519 1390.11 L128.195 1390.11 L128.195 1420.73 L135.834 1420.73 L135.834 1424.67 L115.927 1424.67 L115.927 1420.73 Z" fill="#000000" fill-rule="nonzero" fill-opacity="1" /><path clip-path="url(#clip040)" d="M145.279 1418.79 L150.163 1418.79 L150.163 1424.67 L145.279 1424.67 L145.279 1418.79 Z" fill="#000000" fill-rule="nonzero" fill-opacity="1" /><path clip-path="url(#clip040)" d="M161.158 1420.73 L168.797 1420.73 L168.797 1394.37 L160.487 1396.04 L160.487 1391.78 L168.751 1390.11 L173.427 1390.11 L173.427 1420.73 L181.065 1420.73 L181.065 1424.67 L161.158 1424.67 L161.158 1420.73 Z" fill="#000000" fill-rule="nonzero" fill-opacity="1" /><path clip-path="url(#clip040)" d="M189.329 1390.11 L211.551 1390.11 L211.551 1392.1 L199.005 1424.67 L194.121 1424.67 L205.926 1394.05 L189.329 1394.05 L189.329 1390.11 Z" fill="#000000" fill-rule="nonzero" fill-opacity="1" /><path clip-path="url(#clip040)" d="M220.718 1390.11 L239.074 1390.11 L239.074 1394.05 L225 1394.05 L225 1402.52 Q226.019 1402.17 227.037 1402.01 Q228.056 1401.82 229.074 1401.82 Q234.861 1401.82 238.241 1404.99 Q241.621 1408.17 241.621 1413.58 Q241.621 1419.16 238.148 1422.26 Q234.676 1425.34 228.357 1425.34 Q226.181 1425.34 223.912 1424.97 Q221.667 1424.6 219.26 1423.86 L219.26 1419.16 Q221.343 1420.3 223.565 1420.85 Q225.787 1421.41 228.264 1421.41 Q232.269 1421.41 234.607 1419.3 Q236.945 1417.19 236.945 1413.58 Q236.945 1409.97 234.607 1407.86 Q232.269 1405.76 228.264 1405.76 Q226.389 1405.76 224.514 1406.17 Q222.662 1406.59 220.718 1407.47 L220.718 1390.11 Z" fill="#000000" fill-rule="nonzero" fill-opacity="1" /><path clip-path="url(#clip040)" d="M114.931 1115.05 L122.57 1115.05 L122.57 1088.68 L114.26 1090.35 L114.26 1086.09 L122.524 1084.42 L127.2 1084.42 L127.2 1115.05 L134.839 1115.05 L134.839 1118.98 L114.931 1118.98 L114.931 1115.05 Z" fill="#000000" fill-rule="nonzero" fill-opacity="1" /><path clip-path="url(#clip040)" d="M144.283 1113.1 L149.167 1113.1 L149.167 1118.98 L144.283 1118.98 L144.283 1113.1 Z" fill="#000000" fill-rule="nonzero" fill-opacity="1" /><path clip-path="url(#clip040)" d="M163.38 1115.05 L179.7 1115.05 L179.7 1118.98 L157.755 1118.98 L157.755 1115.05 Q160.417 1112.29 165.001 1107.66 Q169.607 1103.01 170.788 1101.67 Q173.033 1099.14 173.913 1097.41 Q174.815 1095.65 174.815 1093.96 Q174.815 1091.2 172.871 1089.47 Q170.95 1087.73 167.848 1087.73 Q165.649 1087.73 163.195 1088.5 Q160.765 1089.26 157.987 1090.81 L157.987 1086.09 Q160.811 1084.95 163.265 1084.38 Q165.718 1083.8 167.755 1083.8 Q173.126 1083.8 176.32 1086.48 Q179.514 1089.17 179.514 1093.66 Q179.514 1095.79 178.704 1097.71 Q177.917 1099.61 175.811 1102.2 Q175.232 1102.87 172.13 1106.09 Q169.028 1109.28 163.38 1115.05 Z" fill="#000000" fill-rule="nonzero" fill-opacity="1" /><path clip-path="url(#clip040)" d="M199.514 1087.5 Q195.903 1087.5 194.075 1091.07 Q192.269 1094.61 192.269 1101.74 Q192.269 1108.84 194.075 1112.41 Q195.903 1115.95 199.514 1115.95 Q203.149 1115.95 204.954 1112.41 Q206.783 1108.84 206.783 1101.74 Q206.783 1094.61 204.954 1091.07 Q203.149 1087.5 199.514 1087.5 M199.514 1083.8 Q205.324 1083.8 208.38 1088.4 Q211.459 1092.99 211.459 1101.74 Q211.459 1110.46 208.38 1115.07 Q205.324 1119.65 199.514 1119.65 Q193.704 1119.65 190.625 1115.07 Q187.57 1110.46 187.57 1101.74 Q187.57 1092.99 190.625 1088.4 Q193.704 1083.8 199.514 1083.8 Z" fill="#000000" fill-rule="nonzero" fill-opacity="1" /><path clip-path="url(#clip040)" d="M229.676 1087.5 Q226.065 1087.5 224.236 1091.07 Q222.431 1094.61 222.431 1101.74 Q222.431 1108.84 224.236 1112.41 Q226.065 1115.95 229.676 1115.95 Q233.31 1115.95 235.116 1112.41 Q236.945 1108.84 236.945 1101.74 Q236.945 1094.61 235.116 1091.07 Q233.31 1087.5 229.676 1087.5 M229.676 1083.8 Q235.486 1083.8 238.542 1088.4 Q241.621 1092.99 241.621 1101.74 Q241.621 1110.46 238.542 1115.07 Q235.486 1119.65 229.676 1119.65 Q223.866 1119.65 220.787 1115.07 Q217.732 1110.46 217.732 1101.74 Q217.732 1092.99 220.787 1088.4 Q223.866 1083.8 229.676 1083.8 Z" fill="#000000" fill-rule="nonzero" fill-opacity="1" /><path clip-path="url(#clip040)" d="M115.927 809.36 L123.566 809.36 L123.566 782.994 L115.256 784.661 L115.256 780.401 L123.519 778.735 L128.195 778.735 L128.195 809.36 L135.834 809.36 L135.834 813.295 L115.927 813.295 L115.927 809.36 Z" fill="#000000" fill-rule="nonzero" fill-opacity="1" /><path clip-path="url(#clip040)" d="M145.279 807.415 L150.163 807.415 L150.163 813.295 L145.279 813.295 L145.279 807.415 Z" fill="#000000" fill-rule="nonzero" fill-opacity="1" /><path clip-path="url(#clip040)" d="M164.376 809.36 L180.695 809.36 L180.695 813.295 L158.751 813.295 L158.751 809.36 Q161.413 806.605 165.996 801.975 Q170.602 797.323 171.783 795.98 Q174.028 793.457 174.908 791.721 Q175.811 789.961 175.811 788.272 Q175.811 785.517 173.866 783.781 Q171.945 782.045 168.843 782.045 Q166.644 782.045 164.19 782.809 Q161.76 783.573 158.982 785.124 L158.982 780.401 Q161.806 779.267 164.26 778.688 Q166.714 778.11 168.751 778.11 Q174.121 778.11 177.315 780.795 Q180.51 783.48 180.51 787.971 Q180.51 790.1 179.7 792.022 Q178.913 793.92 176.806 796.512 Q176.227 797.184 173.126 800.401 Q170.024 803.596 164.376 809.36 Z" fill="#000000" fill-rule="nonzero" fill-opacity="1" /><path clip-path="url(#clip040)" d="M194.538 809.36 L210.857 809.36 L210.857 813.295 L188.913 813.295 L188.913 809.36 Q191.575 806.605 196.158 801.975 Q200.764 797.323 201.945 795.98 Q204.19 793.457 205.07 791.721 Q205.973 789.961 205.973 788.272 Q205.973 785.517 204.028 783.781 Q202.107 782.045 199.005 782.045 Q196.806 782.045 194.352 782.809 Q191.922 783.573 189.144 785.124 L189.144 780.401 Q191.968 779.267 194.422 778.688 Q196.875 778.11 198.912 778.11 Q204.283 778.11 207.477 780.795 Q210.672 783.48 210.672 787.971 Q210.672 790.1 209.861 792.022 Q209.074 793.92 206.968 796.512 Q206.389 797.184 203.287 800.401 Q200.186 803.596 194.538 809.36 Z" fill="#000000" fill-rule="nonzero" fill-opacity="1" /><path clip-path="url(#clip040)" d="M220.718 778.735 L239.074 778.735 L239.074 782.67 L225 782.67 L225 791.142 Q226.019 790.795 227.037 790.633 Q228.056 790.448 229.074 790.448 Q234.861 790.448 238.241 793.619 Q241.621 796.79 241.621 802.207 Q241.621 807.785 238.148 810.887 Q234.676 813.966 228.357 813.966 Q226.181 813.966 223.912 813.596 Q221.667 813.225 219.26 812.484 L219.26 807.785 Q221.343 808.92 223.565 809.475 Q225.787 810.031 228.264 810.031 Q232.269 810.031 234.607 807.924 Q236.945 805.818 236.945 802.207 Q236.945 798.596 234.607 796.489 Q232.269 794.383 228.264 794.383 Q226.389 794.383 224.514 794.799 Q222.662 795.216 220.718 796.096 L220.718 778.735 Z" fill="#000000" fill-rule="nonzero" fill-opacity="1" /><path clip-path="url(#clip040)" d="M114.931 503.672 L122.57 503.672 L122.57 477.306 L114.26 478.973 L114.26 474.714 L122.524 473.047 L127.2 473.047 L127.2 503.672 L134.839 503.672 L134.839 507.607 L114.931 507.607 L114.931 503.672 Z" fill="#000000" fill-rule="nonzero" fill-opacity="1" /><path clip-path="url(#clip040)" d="M144.283 501.727 L149.167 501.727 L149.167 507.607 L144.283 507.607 L144.283 501.727 Z" fill="#000000" fill-rule="nonzero" fill-opacity="1" /><path clip-path="url(#clip040)" d="M163.38 503.672 L179.7 503.672 L179.7 507.607 L157.755 507.607 L157.755 503.672 Q160.417 500.917 165.001 496.288 Q169.607 491.635 170.788 490.292 Q173.033 487.769 173.913 486.033 Q174.815 484.274 174.815 482.584 Q174.815 479.829 172.871 478.093 Q170.95 476.357 167.848 476.357 Q165.649 476.357 163.195 477.121 Q160.765 477.885 157.987 479.436 L157.987 474.714 Q160.811 473.579 163.265 473.001 Q165.718 472.422 167.755 472.422 Q173.126 472.422 176.32 475.107 Q179.514 477.792 179.514 482.283 Q179.514 484.413 178.704 486.334 Q177.917 488.232 175.811 490.825 Q175.232 491.496 172.13 494.714 Q169.028 497.908 163.38 503.672 Z" fill="#000000" fill-rule="nonzero" fill-opacity="1" /><path clip-path="url(#clip040)" d="M189.561 473.047 L207.917 473.047 L207.917 476.982 L193.843 476.982 L193.843 485.454 Q194.862 485.107 195.88 484.945 Q196.899 484.76 197.917 484.76 Q203.704 484.76 207.084 487.931 Q210.463 491.102 210.463 496.519 Q210.463 502.098 206.991 505.2 Q203.519 508.278 197.2 508.278 Q195.024 508.278 192.755 507.908 Q190.51 507.538 188.102 506.797 L188.102 502.098 Q190.186 503.232 192.408 503.788 Q194.63 504.343 197.107 504.343 Q201.112 504.343 203.449 502.237 Q205.787 500.13 205.787 496.519 Q205.787 492.908 203.449 490.802 Q201.112 488.695 197.107 488.695 Q195.232 488.695 193.357 489.112 Q191.505 489.528 189.561 490.408 L189.561 473.047 Z" fill="#000000" fill-rule="nonzero" fill-opacity="1" /><path clip-path="url(#clip040)" d="M229.676 476.126 Q226.065 476.126 224.236 479.69 Q222.431 483.232 222.431 490.362 Q222.431 497.468 224.236 501.033 Q226.065 504.575 229.676 504.575 Q233.31 504.575 235.116 501.033 Q236.945 497.468 236.945 490.362 Q236.945 483.232 235.116 479.69 Q233.31 476.126 229.676 476.126 M229.676 472.422 Q235.486 472.422 238.542 477.028 Q241.621 481.612 241.621 490.362 Q241.621 499.089 238.542 503.695 Q235.486 508.278 229.676 508.278 Q223.866 508.278 220.787 503.695 Q217.732 499.089 217.732 490.362 Q217.732 481.612 220.787 477.028 Q223.866 472.422 229.676 472.422 Z" fill="#000000" fill-rule="nonzero" fill-opacity="1" /><path clip-path="url(#clip040)" d="M115.927 197.984 L123.566 197.984 L123.566 171.619 L115.256 173.285 L115.256 169.026 L123.519 167.359 L128.195 167.359 L128.195 197.984 L135.834 197.984 L135.834 201.919 L115.927 201.919 L115.927 197.984 Z" fill="#000000" fill-rule="nonzero" fill-opacity="1" /><path clip-path="url(#clip040)" d="M145.279 196.04 L150.163 196.04 L150.163 201.919 L145.279 201.919 L145.279 196.04 Z" fill="#000000" fill-rule="nonzero" fill-opacity="1" /><path clip-path="url(#clip040)" d="M164.376 197.984 L180.695 197.984 L180.695 201.919 L158.751 201.919 L158.751 197.984 Q161.413 195.23 165.996 190.6 Q170.602 185.947 171.783 184.605 Q174.028 182.081 174.908 180.345 Q175.811 178.586 175.811 176.896 Q175.811 174.142 173.866 172.406 Q171.945 170.669 168.843 170.669 Q166.644 170.669 164.19 171.433 Q161.76 172.197 158.982 173.748 L158.982 169.026 Q161.806 167.892 164.26 167.313 Q166.714 166.734 168.751 166.734 Q174.121 166.734 177.315 169.419 Q180.51 172.105 180.51 176.595 Q180.51 178.725 179.7 180.646 Q178.913 182.544 176.806 185.137 Q176.227 185.808 173.126 189.026 Q170.024 192.22 164.376 197.984 Z" fill="#000000" fill-rule="nonzero" fill-opacity="1" /><path clip-path="url(#clip040)" d="M189.329 167.359 L211.551 167.359 L211.551 169.35 L199.005 201.919 L194.121 201.919 L205.926 171.294 L189.329 171.294 L189.329 167.359 Z" fill="#000000" fill-rule="nonzero" fill-opacity="1" /><path clip-path="url(#clip040)" d="M220.718 167.359 L239.074 167.359 L239.074 171.294 L225 171.294 L225 179.767 Q226.019 179.419 227.037 179.257 Q228.056 179.072 229.074 179.072 Q234.861 179.072 238.241 182.243 Q241.621 185.415 241.621 190.831 Q241.621 196.41 238.148 199.512 Q234.676 202.591 228.357 202.591 Q226.181 202.591 223.912 202.22 Q221.667 201.85 219.26 201.109 L219.26 196.41 Q221.343 197.544 223.565 198.1 Q225.787 198.655 228.264 198.655 Q232.269 198.655 234.607 196.549 Q236.945 194.442 236.945 190.831 Q236.945 187.22 234.607 185.114 Q232.269 183.007 228.264 183.007 Q226.389 183.007 224.514 183.424 Q222.662 183.841 220.718 184.72 L220.718 167.359 Z" fill="#000000" fill-rule="nonzero" fill-opacity="1" /><path clip-path="url(#clip040)" d="M30.8561 720.775 Q31.307 720.775 32.3698 721.064 L57.5548 727.377 Q63.1586 728.762 67.0877 733.27 Q71.0168 737.747 71.0168 742.836 Q71.0168 745.895 69.3743 747.86 Q67.764 749.824 65.2842 749.824 Q63.0942 749.824 62.0314 748.665 Q61.0008 747.505 61.0008 746.121 Q61.0008 745.67 61.1296 745.187 Q61.2584 744.703 61.8059 744.188 Q62.3534 743.673 63.2874 743.673 Q64.8011 743.673 65.9927 744.993 Q66.5402 745.637 66.669 746.249 Q66.7978 746.829 66.7978 747.827 Q67.6996 747.441 68.3115 746.732 Q68.9234 746.024 69.1489 745.219 Q69.4065 744.414 69.4709 743.898 Q69.5675 743.351 69.5675 742.836 Q69.5675 738.713 65.413 735.557 Q64.157 734.623 62.9009 733.947 Q61.6771 733.238 60.1634 732.723 Q58.682 732.208 57.8768 731.982 Q57.0717 731.725 55.2359 731.274 Q58.2311 734.269 58.2311 737.94 Q58.2311 739.486 57.8124 740.871 Q57.3937 742.224 56.5242 743.415 Q55.6224 744.607 54.0443 745.315 Q52.4662 745.992 50.3728 745.992 Q48.1506 745.992 45.1233 745.122 Q42.0959 744.253 36.5243 742.159 Q33.4004 741.032 31.8867 741.032 Q31.146 741.032 30.6951 741.193 Q30.212 741.354 30.051 741.676 Q29.8577 741.998 29.8255 742.191 Q29.7933 742.352 29.7933 742.675 Q29.7933 744.575 31.7257 746.346 Q33.658 748.117 37.9736 749.341 Q38.7787 749.599 38.972 749.76 Q39.1652 749.921 39.1652 750.404 Q39.133 751.209 38.4889 751.209 Q38.2312 751.209 37.2329 750.919 Q36.2023 750.629 34.6886 749.953 Q33.1427 749.245 31.7579 748.278 Q30.3408 747.312 29.3424 745.798 Q28.344 744.253 28.344 742.481 Q28.344 740.066 29.9221 738.584 Q31.468 737.071 33.7546 737.071 Q34.6886 737.071 35.5259 737.328 Q36.3311 737.554 38.4889 738.391 Q47.1845 741.773 51.4356 741.773 Q52.4662 741.773 53.3358 741.612 Q54.1731 741.418 55.0105 741 Q55.8156 740.581 56.2987 739.744 Q56.7496 738.874 56.7496 737.683 Q56.7496 736.169 56.0411 734.752 Q55.3003 733.303 54.302 732.401 Q53.3036 731.467 52.4662 730.919 Q51.5967 730.34 51.1458 730.211 L39.294 727.248 L34.0123 725.927 Q31.146 725.316 30.4374 725.026 Q29.7611 724.639 29.4068 723.963 Q29.0526 723.287 29.0526 722.707 Q29.0526 721.902 29.5357 721.354 Q30.0187 720.775 30.8561 720.775 Z" fill="#000000" fill-rule="nonzero" fill-opacity="1" /><polyline clip-path="url(#clip042)" style="stroke:#e26f46; stroke-linecap:round; stroke-linejoin:round; stroke-width:8; stroke-opacity:1; fill:none" stroke-dasharray="32, 20" points="336.351,460.476 340.174,500.93 343.998,423.121 347.822,467.276 351.645,492.533 355.469,511.13 359.292,473.612 363.116,397.994 366.94,332.828 370.763,412.415 374.587,442.759 378.41,369.921 382.234,343.404 386.057,323.348 389.881,407.588 393.705,380.507 397.528,372.512 401.352,434.319 405.175,451.481 408.999,458.304 412.823,484.614 416.646,470.13 420.47,503.485 424.293,497.557 428.117,509.192 431.94,536.701 435.764,512.387 439.588,433.946 443.411,499.069 447.235,527.906 451.058,563.004 454.882,522.049 458.706,531.606 462.529,483.199 466.353,477.561 470.176,512.22 474,655.398 477.823,659.237 481.647,656.622 485.471,555.883 489.294,706.196 493.118,713.891 496.941,744.609 500.765,793.336 504.589,683.446 508.412,708.305 512.236,796.487 516.059,796.699 519.883,841.66 523.706,814.163 527.53,797.889 531.354,720.369 535.177,703.329 539.001,684.659 542.824,673.597 546.648,720.464 550.472,733.597 554.295,744.632 558.119,771.2 561.942,860.494 565.766,911.174 569.589,1013.95 573.413,1012.38 577.237,962.659 581.06,976.141 584.884,994.582 588.707,988.684 592.531,937.374 596.355,898.91 600.178,922.816 604.002,992.44 607.825,1015.26 611.649,947.585 615.472,931.808 619.296,894.575 623.12,905.898 626.943,897.409 630.767,832.423 634.59,867.149 638.414,751.634 642.238,806.032 646.061,911.076 649.885,799.989 653.708,732.101 657.532,808.629 661.355,763.324 665.179,785.883 669.003,853.455 672.826,692.287 676.65,673.238 680.473,760.021 684.297,657.609 688.121,650.444 691.944,628.906 695.768,590.069 699.591,590.174 703.415,724.155 707.238,811.736 711.062,805.853 714.886,840.622 718.709,824.967 722.533,819.834 726.356,989.536 730.18,948.044 734.004,844.476 737.827,871.971 741.651,918.018 745.474,1036.99 749.298,1040.02 753.121,1091.97 756.945,1118.97 760.769,1086.76 764.592,1078.44 768.416,1102.53 772.239,1011.65 776.063,852.472 779.887,1010.04 783.71,1025.78 787.534,1135.27 791.357,1148.4 795.181,1168.46 799.004,1235.96 802.828,1190.1 806.652,1141.59 810.475,1121.61 814.299,1145.39 818.122,1163.01 821.946,1177.3 825.77,1137.35 829.593,1120.38 833.417,1067.8 837.24,1174.45 841.064,1136.34 844.887,1030.28 848.711,1131.89 852.535,1130.07 856.358,1183.92 860.182,1088.84 864.005,1109.73 867.829,1031.32 871.653,1041.96 875.476,1019.27 879.3,890.231 883.123,934.954 886.947,961.026 890.77,862.551 894.594,798.389 898.418,712.788 902.241,616.13 906.065,561.941 909.888,631.536 913.712,632.894 917.536,637.731 921.359,574.047 925.183,599.437 929.006,659.545 932.83,573.082 936.653,525.404 940.477,457.975 944.301,393.853 948.124,449.679 951.948,485.081 955.771,287.408 959.595,308.529 963.419,440.743 967.242,535.425 971.066,529.75 974.889,584.738 978.713,488.042 982.536,562.713 986.36,561.977 990.184,378.419 994.007,497.795 997.831,558.544 1001.65,593.424 1005.48,638.295 1009.3,612.608 1013.13,526.687 1016.95,459.995 1020.77,502.602 1024.6,577.425 1028.42,465.949 1032.24,523.038 1036.07,518.441 1039.89,571.915 1043.71,568.684 1047.54,554.775 1051.36,658.381 1055.18,645.306 1059.01,803.84 1062.83,903.061 1066.66,958.902 1070.48,933.946 1074.3,1062 1078.13,1074.96 1081.95,1031.17 1085.77,928.066 1089.6,988.988 1093.42,1009.35 1097.24,1048.19 1101.07,1029.25 1104.89,1016.42 1108.71,1012.28 1112.54,926.396 1116.36,999.45 1120.19,958.448 1124.01,1000.8 1127.83,1050.98 1131.66,1069.77 1135.48,1097.9 1139.3,1081.78 1143.13,992.443 1146.95,991.273 1150.77,957.31 1154.6,992.663 1158.42,1001.02 1162.24,845.863 1166.07,930.943 1169.89,928.909 1173.72,956.227 1177.54,1038.82 1181.36,1105.4 1185.19,1074.09 1189.01,1139.59 1192.83,1144.99 1196.66,1249.53 1200.48,1212.52 1204.3,1257.94 1208.13,1193.38 1211.95,1148.55 1215.78,1134.63 1219.6,1080.72 1223.42,1165.87 1227.25,1146.78 1231.07,1137.93 1234.89,1202.17 1238.72,1049.34 1242.54,995.889 1246.36,1002.35 1250.19,1095.22 1254.01,1038.37 1257.83,1008.27 1261.66,944.391 1265.48,886.446 1269.31,927.537 1273.13,1026.21 1276.95,1143.92 1280.78,1110.1 1284.6,1016.05 1288.42,1077.95 1292.25,1063.84 1296.07,932.725 1299.89,953.295 1303.72,838.387 1307.54,809.624 1311.36,774.609 1315.19,722.108 1319.01,590.791 1322.84,595.849 1326.66,627.785 1330.48,620.567 1334.31,608.797 1338.13,623.058 1341.95,578.048 1345.78,644.463 1349.6,711.752 1353.42,807.131 1357.25,854.269 1361.07,862.776 1364.89,816.25 1368.72,852.79 1372.54,925.974 1376.37,928.675 1380.19,891.086 1384.01,783.287 1387.84,768.849 1391.66,768.312 1395.48,792.583 1399.31,777.26 1403.13,745.052 1406.95,770.157 1410.78,736.706 1414.6,857.167 1418.43,831.217 1422.25,818.797 1426.07,718.245 1429.9,800.255 1433.72,749.174 1437.54,767.797 1441.37,817.13 1445.19,871.056 1449.01,771.08 1452.84,701.803 1456.66,686.132 1460.48,738.196 1464.31,741.639 1468.13,785.855 1471.96,746.735 1475.78,763.348 1479.6,739.194 1483.43,700.643 1487.25,629.223 1491.07,556.493 1494.9,482.842 1498.72,516.501 1502.54,456.458 1506.37,319.876 1510.19,268.703 1514.01,255.125 1517.84,235.054 1521.66,166.952 1525.49,161.636 1529.31,139.687 1533.13,135.246 1536.96,96.19 1540.78,86.1857 1544.6,134.659 1548.43,204.349 1552.25,153.801 1556.07,129.436 1559.9,187.717 1563.72,275.625 1567.54,321.184 1571.37,243.7 1575.19,254.067 1579.02,310.081 1582.84,288.062 1586.66,363.629 1590.49,395.45 1594.31,429.41 1598.13,450.869 1601.96,570.707 1605.78,628.906 1609.6,671.868 1613.43,755.34 1617.25,683.09 1621.07,684.576 1624.9,861.869 1628.72,794.178 1632.55,822.844 1636.37,899.839 1640.19,874.68 1644.02,786.565 1647.84,721.237 1651.66,759.468 1655.49,790.363 1659.31,867.02 1663.13,854.013 1666.96,764.65 1670.78,714.393 1674.61,799.192 1678.43,887.458 1682.25,1031.59 1686.08,1010.18 1689.9,1074.29 1693.72,1067.81 1697.55,1012.69 1701.37,976.178 1705.19,1036.87 1709.02,999.967 1712.84,1006.87 1716.66,1048.56 1720.49,1096.64 1724.31,1005.32 1728.14,951.418 1731.96,1063.46 1735.78,1062.64 1739.61,1116.32 1743.43,1260.06 1747.25,1337.54 1751.08,1198.3 1754.9,1101.69 1758.72,1206.3 1762.55,1273.96 1766.37,1299.06 1770.19,1191.57 1774.02,1289.8 1777.84,1204.24 1781.67,1162.57 1785.49,1121.27 1789.31,1070.28 1793.14,1000.85 1796.96,976.264 1800.78,948.143 1804.61,1024.81 1808.43,917.808 1812.25,864.642 1816.08,894.582 1819.9,1016.13 1823.72,1006.19 1827.55,1036.89 1831.37,1016.55 1835.2,1066.79 1839.02,1130.12 1842.84,1246.58 1846.67,1349.62 1850.49,1338.27 1854.31,1384.24 1858.14,1267.78 1861.96,1180.12 1865.78,1165.74 1869.61,1261.74 1873.43,1168.08 1877.26,1152.27 1881.08,1160.45 1884.9,1163.58 1888.73,1109.34 1892.55,1166.36 1896.37,1218.54 1900.2,1119.05 1904.02,1140.83 1907.84,1226.63 1911.67,1243.6 1915.49,1107.95 1919.31,1104.07 1923.14,1084.41 1926.96,977.697 1930.79,958.916 1934.61,940.85 1938.43,911.349 1942.26,917.264 1946.08,742.663 1949.9,762.943 1953.73,798.325 1957.55,661.684 1961.37,674.449 1965.2,596.604 1969.02,709.72 1972.84,720.341 1976.67,681.644 1980.49,690.372 1984.32,594.138 1988.14,603.816 1991.96,635.844 1995.79,692.361 1999.61,683.568 2003.43,649.494 2007.26,698.627 2011.08,771.234 2014.9,735.656 2018.73,816.442 2022.55,766.646 2026.37,762.138 2030.2,729.936 2034.02,887.117 2037.85,813.52 2041.67,777.969 2045.49,730.362 2049.32,819.504 2053.14,844.179 2056.96,772.948 2060.79,702.007 2064.61,513.613 2068.43,557.911 2072.26,440.654 2076.08,439.201 2079.9,546.152 2083.73,482.09 2087.55,447.164 2091.38,404.265 2095.2,376.112 2099.02,399.166 2102.85,341.244 2106.67,478.141 2110.49,360.021 2114.32,369.562 2118.14,363.112 2121.96,342.156 2125.79,358.084 2129.61,241.946 2133.44,282.428 2137.26,238.04 2141.08,257.229 2144.91,184.678 2148.73,141.977 2152.55,103.911 2156.38,193.031 2160.2,334.493 2164.02,393.417 2167.85,418.752 2171.67,364.898 2175.49,407.098 2179.32,392.074 2183.14,311.495 2186.97,345.56 2190.79,383.477 2194.61,274.66 2198.44,310.008 2202.26,245.772 2206.08,205.643 2209.91,209.548 2213.73,283.437 2217.55,284.894 2221.38,308.383 2225.2,267.25 2229.02,194.176 2232.85,180.232 2236.67,216.786 2240.5,166.513 2244.32,166.658 2248.14,143.441 2251.97,108.362 2255.79,113.389 2259.61,168.737 2263.44,222.16 2267.26,280.939 2271.08,191.786 2274.91,199.383 2278.73,317.602 2282.55,354.637 2286.38,553.148 2290.2,496.381 2294.03,476.042 "/>
<path clip-path="url(#clip040)" d="M346.792 1377.32 L608.469 1377.32 L608.469 1273.64 L346.792 1273.64  Z" fill="#ffffff" fill-rule="evenodd" fill-opacity="1"/>
<polyline clip-path="url(#clip040)" style="stroke:#000000; stroke-linecap:round; stroke-linejoin:round; stroke-width:4; stroke-opacity:1; fill:none" points="346.792,1377.32 608.469,1377.32 608.469,1273.64 346.792,1273.64 346.792,1377.32 "/>
<polyline clip-path="url(#clip040)" style="stroke:#e26f46; stroke-linecap:round; stroke-linejoin:round; stroke-width:8; stroke-opacity:1; fill:none" stroke-dasharray="32, 20" points="369.849,1325.48 508.191,1325.48 "/>
<path clip-path="url(#clip040)" d="M565.304 1301.93 L562.283 1314.16 Q562.072 1314.93 561.932 1315.03 Q561.815 1315.12 561.44 1315.12 Q560.714 1315.12 560.714 1314.63 Q560.714 1314.58 560.784 1313.97 Q560.854 1313.34 560.854 1312.19 Q560.854 1307.95 558.793 1305.45 Q556.755 1302.94 553.125 1302.94 Q549.729 1302.94 546.473 1304.72 Q543.217 1306.5 541.133 1309.12 Q539.376 1311.28 538.158 1313.9 Q536.963 1316.53 536.471 1318.82 Q535.98 1321.09 535.792 1322.48 Q535.628 1323.86 535.628 1324.75 Q535.628 1327.37 536.471 1329.41 Q537.315 1331.42 538.72 1332.57 Q540.149 1333.72 541.788 1334.28 Q543.451 1334.84 545.255 1334.84 Q545.934 1334.84 546.754 1334.75 Q547.574 1334.65 548.838 1334.3 Q550.127 1333.95 551.181 1333.37 Q552.258 1332.78 553.195 1331.66 Q554.155 1330.53 554.53 1329.03 Q555.537 1325.22 555.537 1324.65 Q555.537 1324.19 555.256 1324.02 Q554.975 1323.86 554.038 1323.74 L551.509 1323.65 Q551.462 1323.65 551.392 1323.65 Q550.947 1323.65 550.759 1323.65 Q550.572 1323.62 550.361 1323.58 Q550.174 1323.53 550.103 1323.44 Q550.056 1323.32 550.056 1323.13 Q550.056 1322.69 550.244 1322.48 Q550.431 1322.24 550.595 1322.22 Q550.759 1322.17 551.064 1322.17 L557.786 1322.31 Q558.325 1322.31 560.292 1322.24 Q562.26 1322.17 562.822 1322.17 Q563.454 1322.17 563.454 1322.69 Q563.454 1323.65 562.681 1323.65 Q561.908 1323.67 561.51 1323.69 Q561.112 1323.69 560.714 1323.81 Q560.339 1323.93 560.198 1324.02 Q560.058 1324.09 559.87 1324.44 Q559.683 1324.77 559.613 1325.05 Q559.543 1325.31 559.379 1325.97 Q559.285 1326.39 559.051 1327.18 Q558.84 1327.98 558.746 1328.4 L557.833 1332.1 Q557.2 1334.84 557.013 1335.03 Q556.919 1335.22 556.685 1335.22 Q556.334 1335.22 555.584 1334.19 Q554.858 1333.16 554.53 1332.24 Q553.945 1332.87 553.57 1333.25 Q553.195 1333.6 552.328 1334.16 Q551.485 1334.73 550.361 1335.17 Q547.621 1336.32 544.365 1336.32 Q538.556 1336.32 534.902 1332.64 Q531.248 1328.94 531.248 1323.18 Q531.248 1319.1 533.122 1315.1 Q534.996 1311.09 537.97 1308.12 Q540.945 1305.14 544.88 1303.29 Q548.815 1301.44 552.75 1301.44 Q554.249 1301.44 555.584 1301.84 Q556.919 1302.24 557.716 1302.73 Q558.535 1303.22 559.261 1303.95 Q559.988 1304.65 560.222 1304.98 Q560.479 1305.31 560.714 1305.7 L564.063 1302.03 Q564.649 1301.44 564.789 1301.44 Q565.07 1301.44 565.187 1301.61 Q565.304 1301.77 565.304 1301.93 Z" fill="#000000" fill-rule="nonzero" fill-opacity="1" /><path clip-path="url(#clip040)" d="M580.4 1334.7 Q580.4 1335.16 580.187 1335.27 Q579.974 1335.37 579.383 1335.37 L576.235 1335.37 L573.743 1345.27 Q573.546 1346.14 573.546 1346.88 Q573.546 1347.7 573.792 1348.06 Q574.055 1348.42 574.596 1348.42 Q575.662 1348.42 576.809 1347.45 Q577.973 1346.49 578.957 1344.13 Q579.088 1343.81 579.154 1343.75 Q579.236 1343.67 579.449 1343.67 Q579.859 1343.67 579.859 1344 Q579.859 1344.11 579.629 1344.63 Q579.416 1345.16 578.941 1345.93 Q578.482 1346.7 577.875 1347.42 Q577.285 1348.14 576.383 1348.67 Q575.481 1349.18 574.514 1349.18 Q573.153 1349.18 572.284 1348.31 Q571.431 1347.44 571.431 1346.08 Q571.431 1345.63 571.776 1344.22 Q572.12 1342.8 573.989 1335.37 L571.022 1335.37 Q570.612 1335.37 570.448 1335.35 Q570.3 1335.34 570.185 1335.26 Q570.087 1335.16 570.087 1334.96 Q570.087 1334.65 570.218 1334.52 Q570.349 1334.37 570.513 1334.35 Q570.694 1334.32 571.104 1334.32 L574.251 1334.32 L575.563 1328.99 Q575.694 1328.47 576.022 1328.17 Q576.367 1327.86 576.563 1327.83 Q576.76 1327.78 576.908 1327.78 Q577.35 1327.78 577.613 1328.03 Q577.875 1328.26 577.875 1328.68 Q577.875 1328.91 576.498 1334.32 L579.449 1334.32 Q579.826 1334.32 579.974 1334.34 Q580.138 1334.35 580.269 1334.44 Q580.4 1334.52 580.4 1334.7 Z" fill="#000000" fill-rule="nonzero" fill-opacity="1" /></svg>
