<?xml version="1.0" encoding="utf-8"?>
<svg xmlns="http://www.w3.org/2000/svg" xmlns:xlink="http://www.w3.org/1999/xlink" width="600" height="400" viewBox="0 0 2400 1600">
<defs>
  <clipPath id="clip860">
    <rect x="0" y="0" width="2400" height="1600"/>
  </clipPath>
</defs>
<path clip-path="url(#clip860)" d="M0 1600 L2400 1600 L2400 0 L0 0  Z" fill="#ffffff" fill-rule="evenodd" fill-opacity="1"/>
<defs>
  <clipPath id="clip861">
    <rect x="480" y="0" width="1681" height="1600"/>
  </clipPath>
</defs>
<path clip-path="url(#clip860)" d="M251.842 1410.9 L2352.76 1410.9 L2352.76 47.2441 L251.842 47.2441  Z" fill="#ffffff" fill-rule="evenodd" fill-opacity="1"/>
<defs>
  <clipPath id="clip862">
    <rect x="251" y="47" width="2102" height="1365"/>
  </clipPath>
</defs>
<polyline clip-path="url(#clip862)" style="stroke:#000000; stroke-linecap:round; stroke-linejoin:round; stroke-width:2; stroke-opacity:0.1; fill:none" points="586.871,1410.9 586.871,47.2441 "/>
<polyline clip-path="url(#clip862)" style="stroke:#000000; stroke-linecap:round; stroke-linejoin:round; stroke-width:2; stroke-opacity:0.1; fill:none" points="1245.27,1410.9 1245.27,47.2441 "/>
<polyline clip-path="url(#clip862)" style="stroke:#000000; stroke-linecap:round; stroke-linejoin:round; stroke-width:2; stroke-opacity:0.1; fill:none" points="1903.68,1410.9 1903.68,47.2441 "/>
<polyline clip-path="url(#clip860)" style="stroke:#000000; stroke-linecap:round; stroke-linejoin:round; stroke-width:4; stroke-opacity:1; fill:none" points="251.842,1410.9 2352.76,1410.9 "/>
<polyline clip-path="url(#clip860)" style="stroke:#000000; stroke-linecap:round; stroke-linejoin:round; stroke-width:4; stroke-opacity:1; fill:none" points="586.871,1410.9 586.871,1392 "/>
<polyline clip-path="url(#clip860)" style="stroke:#000000; stroke-linecap:round; stroke-linejoin:round; stroke-width:4; stroke-opacity:1; fill:none" points="1245.27,1410.9 1245.27,1392 "/>
<polyline clip-path="url(#clip860)" style="stroke:#000000; stroke-linecap:round; stroke-linejoin:round; stroke-width:4; stroke-opacity:1; fill:none" points="1903.68,1410.9 1903.68,1392 "/>
<path clip-path="url(#clip860)" d="M518.517 1485.02 L526.155 1485.02 L526.155 1458.66 L517.845 1460.32 L517.845 1456.06 L526.109 1454.4 L530.785 1454.4 L530.785 1485.02 L538.424 1485.02 L538.424 1488.96 L518.517 1488.96 L518.517 1485.02 Z" fill="#000000" fill-rule="nonzero" fill-opacity="1" /><path clip-path="url(#clip860)" d="M557.868 1457.48 Q554.257 1457.48 552.429 1461.04 Q550.623 1464.58 550.623 1471.71 Q550.623 1478.82 552.429 1482.38 Q554.257 1485.92 557.868 1485.92 Q561.503 1485.92 563.308 1482.38 Q565.137 1478.82 565.137 1471.71 Q565.137 1464.58 563.308 1461.04 Q561.503 1457.48 557.868 1457.48 M557.868 1453.77 Q563.678 1453.77 566.734 1458.38 Q569.813 1462.96 569.813 1471.71 Q569.813 1480.44 566.734 1485.04 Q563.678 1489.63 557.868 1489.63 Q552.058 1489.63 548.979 1485.04 Q545.924 1480.44 545.924 1471.71 Q545.924 1462.96 548.979 1458.38 Q552.058 1453.77 557.868 1453.77 Z" fill="#000000" fill-rule="nonzero" fill-opacity="1" /><path clip-path="url(#clip860)" d="M569.813 1447.87 L593.924 1447.87 L593.924 1451.07 L569.813 1451.07 L569.813 1447.87 Z" fill="#000000" fill-rule="nonzero" fill-opacity="1" /><path clip-path="url(#clip860)" d="M605.397 1458.35 L618.656 1458.35 L618.656 1461.55 L600.827 1461.55 L600.827 1458.35 Q602.99 1456.11 606.714 1452.35 Q610.456 1448.57 611.415 1447.48 Q613.24 1445.43 613.955 1444.02 Q614.688 1442.59 614.688 1441.22 Q614.688 1438.98 613.108 1437.57 Q611.547 1436.16 609.027 1436.16 Q607.24 1436.16 605.247 1436.78 Q603.272 1437.4 601.015 1438.66 L601.015 1434.82 Q603.309 1433.9 605.303 1433.43 Q607.297 1432.96 608.952 1432.96 Q613.315 1432.96 615.911 1435.14 Q618.506 1437.32 618.506 1440.97 Q618.506 1442.7 617.848 1444.26 Q617.208 1445.8 615.497 1447.91 Q615.027 1448.46 612.506 1451.07 Q609.986 1453.67 605.397 1458.35 Z" fill="#000000" fill-rule="nonzero" fill-opacity="1" /><path clip-path="url(#clip860)" d="M626.631 1456.77 L630.599 1456.77 L630.599 1461.55 L626.631 1461.55 L626.631 1456.77 Z" fill="#000000" fill-rule="nonzero" fill-opacity="1" /><path clip-path="url(#clip860)" d="M638.912 1433.47 L653.827 1433.47 L653.827 1436.66 L642.392 1436.66 L642.392 1443.55 Q643.219 1443.27 644.047 1443.13 Q644.874 1442.98 645.702 1442.98 Q650.404 1442.98 653.15 1445.56 Q655.896 1448.14 655.896 1452.54 Q655.896 1457.07 653.075 1459.59 Q650.254 1462.09 645.119 1462.09 Q643.351 1462.09 641.508 1461.79 Q639.684 1461.49 637.728 1460.89 L637.728 1457.07 Q639.42 1457.99 641.226 1458.44 Q643.031 1458.89 645.044 1458.89 Q648.297 1458.89 650.197 1457.18 Q652.097 1455.47 652.097 1452.54 Q652.097 1449.6 650.197 1447.89 Q648.297 1446.18 645.044 1446.18 Q643.52 1446.18 641.997 1446.52 Q640.492 1446.86 638.912 1447.57 L638.912 1433.47 Z" fill="#000000" fill-rule="nonzero" fill-opacity="1" /><path clip-path="url(#clip860)" d="M1176.52 1485.02 L1184.16 1485.02 L1184.16 1458.66 L1175.85 1460.32 L1175.85 1456.06 L1184.11 1454.4 L1188.78 1454.4 L1188.78 1485.02 L1196.42 1485.02 L1196.42 1488.96 L1176.52 1488.96 L1176.52 1485.02 Z" fill="#000000" fill-rule="nonzero" fill-opacity="1" /><path clip-path="url(#clip860)" d="M1215.87 1457.48 Q1212.26 1457.48 1210.43 1461.04 Q1208.62 1464.58 1208.62 1471.71 Q1208.62 1478.82 1210.43 1482.38 Q1212.26 1485.92 1215.87 1485.92 Q1219.5 1485.92 1221.31 1482.38 Q1223.14 1478.82 1223.14 1471.71 Q1223.14 1464.58 1221.31 1461.04 Q1219.5 1457.48 1215.87 1457.48 M1215.87 1453.77 Q1221.68 1453.77 1224.73 1458.38 Q1227.81 1462.96 1227.81 1471.71 Q1227.81 1480.44 1224.73 1485.04 Q1221.68 1489.63 1215.87 1489.63 Q1210.06 1489.63 1206.98 1485.04 Q1203.92 1480.44 1203.92 1471.71 Q1203.92 1462.96 1206.98 1458.38 Q1210.06 1453.77 1215.87 1453.77 Z" fill="#000000" fill-rule="nonzero" fill-opacity="1" /><path clip-path="url(#clip860)" d="M1227.81 1447.87 L1251.92 1447.87 L1251.92 1451.07 L1227.81 1451.07 L1227.81 1447.87 Z" fill="#000000" fill-rule="nonzero" fill-opacity="1" /><path clip-path="url(#clip860)" d="M1263.4 1458.35 L1276.66 1458.35 L1276.66 1461.55 L1258.83 1461.55 L1258.83 1458.35 Q1260.99 1456.11 1264.71 1452.35 Q1268.46 1448.57 1269.42 1447.48 Q1271.24 1445.43 1271.95 1444.02 Q1272.69 1442.59 1272.69 1441.22 Q1272.69 1438.98 1271.11 1437.57 Q1269.55 1436.16 1267.03 1436.16 Q1265.24 1436.16 1263.25 1436.78 Q1261.27 1437.4 1259.01 1438.66 L1259.01 1434.82 Q1261.31 1433.9 1263.3 1433.43 Q1265.3 1432.96 1266.95 1432.96 Q1271.31 1432.96 1273.91 1435.14 Q1276.51 1437.32 1276.51 1440.97 Q1276.51 1442.7 1275.85 1444.26 Q1275.21 1445.8 1273.5 1447.91 Q1273.03 1448.46 1270.51 1451.07 Q1267.99 1453.67 1263.4 1458.35 Z" fill="#000000" fill-rule="nonzero" fill-opacity="1" /><path clip-path="url(#clip860)" d="M1284.63 1456.77 L1288.6 1456.77 L1288.6 1461.55 L1284.63 1461.55 L1284.63 1456.77 Z" fill="#000000" fill-rule="nonzero" fill-opacity="1" /><path clip-path="url(#clip860)" d="M1305 1435.97 Q1302.07 1435.97 1300.58 1438.86 Q1299.11 1441.74 1299.11 1447.53 Q1299.11 1453.31 1300.58 1456.2 Q1302.07 1459.08 1305 1459.08 Q1307.95 1459.08 1309.42 1456.2 Q1310.91 1453.31 1310.91 1447.53 Q1310.91 1441.74 1309.42 1438.86 Q1307.95 1435.97 1305 1435.97 M1305 1432.96 Q1309.72 1432.96 1312.2 1436.7 Q1314.7 1440.43 1314.7 1447.53 Q1314.7 1454.62 1312.2 1458.37 Q1309.72 1462.09 1305 1462.09 Q1300.28 1462.09 1297.78 1458.37 Q1295.29 1454.62 1295.29 1447.53 Q1295.29 1440.43 1297.78 1436.7 Q1300.28 1432.96 1305 1432.96 Z" fill="#000000" fill-rule="nonzero" fill-opacity="1" /><path clip-path="url(#clip860)" d="M1835.32 1485.02 L1842.96 1485.02 L1842.96 1458.66 L1834.65 1460.32 L1834.65 1456.06 L1842.92 1454.4 L1847.59 1454.4 L1847.59 1485.02 L1855.23 1485.02 L1855.23 1488.96 L1835.32 1488.96 L1835.32 1485.02 Z" fill="#000000" fill-rule="nonzero" fill-opacity="1" /><path clip-path="url(#clip860)" d="M1874.68 1457.48 Q1871.07 1457.48 1869.24 1461.04 Q1867.43 1464.58 1867.43 1471.71 Q1867.43 1478.82 1869.24 1482.38 Q1871.07 1485.92 1874.68 1485.92 Q1878.31 1485.92 1880.12 1482.38 Q1881.95 1478.82 1881.95 1471.71 Q1881.95 1464.58 1880.12 1461.04 Q1878.31 1457.48 1874.68 1457.48 M1874.68 1453.77 Q1880.49 1453.77 1883.54 1458.38 Q1886.62 1462.96 1886.62 1471.71 Q1886.62 1480.44 1883.54 1485.04 Q1880.49 1489.63 1874.68 1489.63 Q1868.87 1489.63 1865.79 1485.04 Q1862.73 1480.44 1862.73 1471.71 Q1862.73 1462.96 1865.79 1458.38 Q1868.87 1453.77 1874.68 1453.77 Z" fill="#000000" fill-rule="nonzero" fill-opacity="1" /><path clip-path="url(#clip860)" d="M1886.62 1447.87 L1910.73 1447.87 L1910.73 1451.07 L1886.62 1451.07 L1886.62 1447.87 Z" fill="#000000" fill-rule="nonzero" fill-opacity="1" /><path clip-path="url(#clip860)" d="M1919.59 1458.35 L1925.8 1458.35 L1925.8 1436.93 L1919.05 1438.28 L1919.05 1434.82 L1925.76 1433.47 L1929.56 1433.47 L1929.56 1458.35 L1935.77 1458.35 L1935.77 1461.55 L1919.59 1461.55 L1919.59 1458.35 Z" fill="#000000" fill-rule="nonzero" fill-opacity="1" /><path clip-path="url(#clip860)" d="M1943.44 1456.77 L1947.41 1456.77 L1947.41 1461.55 L1943.44 1461.55 L1943.44 1456.77 Z" fill="#000000" fill-rule="nonzero" fill-opacity="1" /><path clip-path="url(#clip860)" d="M1955.72 1433.47 L1970.64 1433.47 L1970.64 1436.66 L1959.2 1436.66 L1959.2 1443.55 Q1960.03 1443.27 1960.86 1443.13 Q1961.68 1442.98 1962.51 1442.98 Q1967.21 1442.98 1969.96 1445.56 Q1972.7 1448.14 1972.7 1452.54 Q1972.7 1457.07 1969.88 1459.59 Q1967.06 1462.09 1961.93 1462.09 Q1960.16 1462.09 1958.32 1461.79 Q1956.49 1461.49 1954.54 1460.89 L1954.54 1457.07 Q1956.23 1457.99 1958.03 1458.44 Q1959.84 1458.89 1961.85 1458.89 Q1965.11 1458.89 1967.01 1457.18 Q1968.9 1455.47 1968.9 1452.54 Q1968.9 1449.6 1967.01 1447.89 Q1965.11 1446.18 1961.85 1446.18 Q1960.33 1446.18 1958.81 1446.52 Q1957.3 1446.86 1955.72 1447.57 L1955.72 1433.47 Z" fill="#000000" fill-rule="nonzero" fill-opacity="1" /><path clip-path="url(#clip860)" d="M1263.85 1568.04 Q1263.85 1567.79 1264.72 1566.11 Q1265.59 1564.41 1268.65 1558.32 Q1271.71 1552.2 1274.86 1545.79 L1286.23 1522.92 Q1287.04 1521.48 1288.07 1521.48 Q1289 1521.48 1289.42 1522.05 Q1289.84 1522.63 1291.77 1526.53 Q1292.77 1528.43 1293.35 1529.66 L1311.99 1566.98 Q1312.32 1567.79 1312.35 1568.04 Q1312.35 1568.69 1311.22 1568.69 L1265.59 1568.69 Q1263.85 1568.69 1263.85 1568.04 M1268.19 1563.66 L1303.69 1563.66 L1285.94 1528.05 L1268.19 1563.66 Z" fill="#000000" fill-rule="nonzero" fill-opacity="1" /><path clip-path="url(#clip860)" d="M1337.44 1540.99 Q1337.44 1541.89 1337.02 1542.12 Q1336.6 1542.31 1335.44 1542.31 L1329.26 1542.31 L1324.36 1561.76 Q1323.97 1563.47 1323.97 1564.92 Q1323.97 1566.53 1324.46 1567.24 Q1324.97 1567.95 1326.03 1567.95 Q1328.13 1567.95 1330.38 1566.05 Q1332.67 1564.15 1334.6 1559.51 Q1334.86 1558.9 1334.99 1558.77 Q1335.15 1558.61 1335.57 1558.61 Q1336.37 1558.61 1336.37 1559.25 Q1336.37 1559.48 1335.92 1560.51 Q1335.5 1561.54 1334.57 1563.05 Q1333.67 1564.57 1332.48 1565.98 Q1331.32 1567.4 1329.55 1568.43 Q1327.77 1569.43 1325.87 1569.43 Q1323.2 1569.43 1321.49 1567.72 Q1319.82 1566.02 1319.82 1563.34 Q1319.82 1562.47 1320.5 1559.7 Q1321.17 1556.9 1324.84 1542.31 L1319.01 1542.31 Q1318.21 1542.31 1317.89 1542.28 Q1317.6 1542.25 1317.37 1542.09 Q1317.18 1541.89 1317.18 1541.51 Q1317.18 1540.9 1317.44 1540.64 Q1317.69 1540.35 1318.02 1540.32 Q1318.37 1540.25 1319.17 1540.25 L1325.36 1540.25 L1327.93 1529.78 Q1328.19 1528.75 1328.84 1528.17 Q1329.51 1527.56 1329.9 1527.5 Q1330.29 1527.4 1330.58 1527.4 Q1331.45 1527.4 1331.96 1527.88 Q1332.48 1528.34 1332.48 1529.17 Q1332.48 1529.62 1329.77 1540.25 L1335.57 1540.25 Q1336.31 1540.25 1336.6 1540.28 Q1336.92 1540.32 1337.18 1540.48 Q1337.44 1540.64 1337.44 1540.99 Z" fill="#000000" fill-rule="nonzero" fill-opacity="1" /><polyline clip-path="url(#clip862)" style="stroke:#000000; stroke-linecap:round; stroke-linejoin:round; stroke-width:2; stroke-opacity:0.1; fill:none" points="251.842,881.006 2352.76,881.006 "/>
<polyline clip-path="url(#clip862)" style="stroke:#000000; stroke-linecap:round; stroke-linejoin:round; stroke-width:2; stroke-opacity:0.1; fill:none" points="251.842,61.2115 2352.76,61.2115 "/>
<polyline clip-path="url(#clip860)" style="stroke:#000000; stroke-linecap:round; stroke-linejoin:round; stroke-width:4; stroke-opacity:1; fill:none" points="251.842,1410.9 251.842,47.2441 "/>
<polyline clip-path="url(#clip860)" style="stroke:#000000; stroke-linecap:round; stroke-linejoin:round; stroke-width:4; stroke-opacity:1; fill:none" points="251.842,881.006 270.74,881.006 "/>
<polyline clip-path="url(#clip860)" style="stroke:#000000; stroke-linecap:round; stroke-linejoin:round; stroke-width:4; stroke-opacity:1; fill:none" points="251.842,61.2115 270.74,61.2115 "/>
<path clip-path="url(#clip860)" d="M114.931 900.799 L122.57 900.799 L122.57 874.433 L114.26 876.1 L114.26 871.84 L122.524 870.174 L127.2 870.174 L127.2 900.799 L134.839 900.799 L134.839 904.734 L114.931 904.734 L114.931 900.799 Z" fill="#000000" fill-rule="nonzero" fill-opacity="1" /><path clip-path="url(#clip860)" d="M154.283 873.252 Q150.672 873.252 148.843 876.817 Q147.038 880.359 147.038 887.488 Q147.038 894.595 148.843 898.16 Q150.672 901.701 154.283 901.701 Q157.917 901.701 159.723 898.16 Q161.552 894.595 161.552 887.488 Q161.552 880.359 159.723 876.817 Q157.917 873.252 154.283 873.252 M154.283 869.549 Q160.093 869.549 163.149 874.155 Q166.227 878.738 166.227 887.488 Q166.227 896.215 163.149 900.822 Q160.093 905.405 154.283 905.405 Q148.473 905.405 145.394 900.822 Q142.339 896.215 142.339 887.488 Q142.339 878.738 145.394 874.155 Q148.473 869.549 154.283 869.549 Z" fill="#000000" fill-rule="nonzero" fill-opacity="1" /><path clip-path="url(#clip860)" d="M166.227 863.65 L190.339 863.65 L190.339 866.847 L166.227 866.847 L166.227 863.65 Z" fill="#000000" fill-rule="nonzero" fill-opacity="1" /><path clip-path="url(#clip860)" d="M210.05 862.183 Q212.777 862.766 214.3 864.609 Q215.842 866.452 215.842 869.161 Q215.842 873.317 212.984 875.593 Q210.125 877.869 204.859 877.869 Q203.091 877.869 201.21 877.511 Q199.348 877.173 197.354 876.477 L197.354 872.809 Q198.934 873.731 200.815 874.201 Q202.696 874.671 204.746 874.671 Q208.319 874.671 210.181 873.261 Q212.062 871.85 212.062 869.161 Q212.062 866.678 210.313 865.286 Q208.583 863.876 205.479 863.876 L202.207 863.876 L202.207 860.754 L205.63 860.754 Q208.432 860.754 209.918 859.644 Q211.404 858.516 211.404 856.409 Q211.404 854.246 209.861 853.099 Q208.338 851.933 205.479 851.933 Q203.918 851.933 202.132 852.271 Q200.345 852.61 198.201 853.325 L198.201 849.939 Q200.364 849.337 202.244 849.036 Q204.144 848.736 205.818 848.736 Q210.144 848.736 212.664 850.71 Q215.184 852.666 215.184 856.014 Q215.184 858.346 213.849 859.964 Q212.513 861.562 210.05 862.183 Z" fill="#000000" fill-rule="nonzero" fill-opacity="1" /><path clip-path="url(#clip860)" d="M115.703 81.004 L123.341 81.004 L123.341 54.6384 L115.031 56.305 L115.031 52.0458 L123.295 50.3791 L127.971 50.3791 L127.971 81.004 L135.61 81.004 L135.61 84.9391 L115.703 84.9391 L115.703 81.004 Z" fill="#000000" fill-rule="nonzero" fill-opacity="1" /><path clip-path="url(#clip860)" d="M155.054 53.4578 Q151.443 53.4578 149.614 57.0226 Q147.809 60.5643 147.809 67.6939 Q147.809 74.8003 149.614 78.3651 Q151.443 81.9068 155.054 81.9068 Q158.688 81.9068 160.494 78.3651 Q162.323 74.8003 162.323 67.6939 Q162.323 60.5643 160.494 57.0226 Q158.688 53.4578 155.054 53.4578 M155.054 49.7541 Q160.864 49.7541 163.92 54.3606 Q166.999 58.9439 166.999 67.6939 Q166.999 76.4207 163.92 81.0271 Q160.864 85.6104 155.054 85.6104 Q149.244 85.6104 146.165 81.0271 Q143.11 76.4207 143.11 67.6939 Q143.11 58.9439 146.165 54.3606 Q149.244 49.7541 155.054 49.7541 Z" fill="#000000" fill-rule="nonzero" fill-opacity="1" /><path clip-path="url(#clip860)" d="M166.999 43.8555 L191.11 43.8555 L191.11 47.0528 L166.999 47.0528 L166.999 43.8555 Z" fill="#000000" fill-rule="nonzero" fill-opacity="1" /><path clip-path="url(#clip860)" d="M202.583 54.3314 L215.842 54.3314 L215.842 57.5287 L198.013 57.5287 L198.013 54.3314 Q200.175 52.0933 203.899 48.3317 Q207.642 44.5514 208.601 43.4605 Q210.426 41.4105 211.14 39.9999 Q211.874 38.5705 211.874 37.1975 Q211.874 34.9594 210.294 33.5488 Q208.733 32.1383 206.213 32.1383 Q204.426 32.1383 202.432 32.7589 Q200.458 33.3796 198.201 34.6397 L198.201 30.8029 Q200.495 29.8813 202.489 29.4111 Q204.482 28.9409 206.138 28.9409 Q210.501 28.9409 213.096 31.1226 Q215.692 33.3043 215.692 36.953 Q215.692 38.6834 215.034 40.2444 Q214.394 41.7866 212.683 43.8931 Q212.212 44.4385 209.692 47.0528 Q207.172 49.6483 202.583 54.3314 Z" fill="#000000" fill-rule="nonzero" fill-opacity="1" /><path clip-path="url(#clip860)" d="M49.4968 798.693 Q43.281 798.693 38.8688 794.699 Q34.4566 790.706 34.4566 784.973 Q34.4566 779.176 38.2247 776.181 Q41.9928 773.154 47.4034 773.154 Q48.4018 773.154 48.595 773.411 Q48.7882 773.669 48.7882 774.796 L48.7882 793.218 Q55.5192 793.218 58.6754 791.221 Q63.0876 788.451 63.0876 783.782 Q63.0876 783.138 62.9588 782.365 Q62.83 781.592 62.2825 780.014 Q61.7028 778.435 60.1891 777.051 Q58.6754 775.666 56.2922 774.861 Q55.3582 774.667 55.3904 774.023 Q55.3904 773.154 56.1634 773.154 Q56.7431 773.154 58.0635 773.798 Q59.3517 774.41 60.8976 775.601 Q62.4435 776.793 63.6029 779.112 Q64.7623 781.398 64.7623 784.168 Q64.7623 789.965 60.3823 794.345 Q55.9701 798.693 49.4968 798.693 M47.4034 793.154 L47.4034 777.502 Q46.0185 777.502 44.4726 777.759 Q42.9268 777.985 40.8012 778.693 Q38.6434 779.369 37.2907 780.98 Q35.9381 782.59 35.9381 784.973 Q35.9381 786.036 36.389 787.195 Q36.8398 788.323 37.9348 789.708 Q39.0298 791.092 41.5097 792.059 Q43.9895 793.025 47.4034 793.154 Z" fill="#000000" fill-rule="nonzero" fill-opacity="1" /><path clip-path="url(#clip860)" d="M64.0216 771.017 L61.9926 771.017 Q61.9926 767.507 61.5739 766.702 Q61.1231 765.864 58.9975 765.864 L41.3165 765.864 Q38.8688 765.864 38.2569 766.734 Q37.645 767.571 37.645 771.017 L35.5838 771.017 L34.8753 761.839 L42.1216 761.839 Q39.2875 760.905 37.0975 758.94 Q34.8753 756.943 34.8753 753.723 Q34.8753 751.597 36.0669 750.244 Q37.2585 748.86 38.901 748.86 Q40.3503 748.86 41.091 749.761 Q41.7996 750.631 41.7996 751.694 Q41.7996 752.885 41.0588 753.723 Q40.2859 754.528 38.9654 754.528 Q38.1603 754.528 37.5484 754.174 Q36.9043 753.787 36.6788 753.497 Q36.4534 753.207 36.389 753.014 Q36.3246 753.143 36.3246 753.723 Q36.3246 757.362 39.9638 759.455 Q43.5709 761.517 48.7238 761.517 L58.8687 761.517 Q60.7688 761.517 61.3807 760.744 Q61.9926 759.938 61.9926 756.492 L61.9926 755.108 L64.0216 755.108 Q63.8284 757.748 63.8284 763.481 Q63.8284 764.286 63.8606 765.542 Q63.8928 766.798 63.9572 768.441 Q64.0216 770.083 64.0216 771.017 Z" fill="#000000" fill-rule="nonzero" fill-opacity="1" /><path clip-path="url(#clip860)" d="M64.0216 744.136 L61.9926 744.136 Q61.9926 740.626 61.5739 739.821 Q61.1231 738.983 58.9975 738.983 L41.3165 738.983 Q38.8688 738.983 38.2569 739.853 Q37.645 740.69 37.645 744.136 L35.5838 744.136 L34.8753 734.958 L42.1216 734.958 Q39.2875 734.024 37.0975 732.059 Q34.8753 730.062 34.8753 726.842 Q34.8753 724.716 36.0669 723.364 Q37.2585 721.979 38.901 721.979 Q40.3503 721.979 41.091 722.881 Q41.7996 723.75 41.7996 724.813 Q41.7996 726.005 41.0588 726.842 Q40.2859 727.647 38.9654 727.647 Q38.1603 727.647 37.5484 727.293 Q36.9043 726.906 36.6788 726.616 Q36.4534 726.327 36.389 726.133 Q36.3246 726.262 36.3246 726.842 Q36.3246 730.481 39.9638 732.575 Q43.5709 734.636 48.7238 734.636 L58.8687 734.636 Q60.7688 734.636 61.3807 733.863 Q61.9926 733.058 61.9926 729.612 L61.9926 728.227 L64.0216 728.227 Q63.8284 730.868 63.8284 736.6 Q63.8284 737.405 63.8606 738.661 Q63.8928 739.917 63.9572 741.56 Q64.0216 743.202 64.0216 744.136 Z" fill="#000000" fill-rule="nonzero" fill-opacity="1" /><path clip-path="url(#clip860)" d="M60.479 711.963 Q56.1634 716.311 49.9154 716.311 Q43.6353 716.311 39.0621 712.059 Q34.4566 707.776 34.4566 701.657 Q34.4566 695.667 39.0298 691.383 Q43.5709 687.068 49.9154 687.068 Q56.1312 687.068 60.4467 691.416 Q64.7623 695.731 64.7623 701.721 Q64.7623 707.583 60.479 711.963 M49.3679 710.836 Q55.7769 710.836 58.6754 709.161 Q63.0876 706.584 63.0876 701.657 Q63.0876 699.209 61.7672 697.18 Q60.4467 695.119 58.2245 693.992 Q55.326 692.543 49.3679 692.543 Q43.0234 692.543 40.2215 694.282 Q35.9381 696.858 35.9381 701.721 Q35.9381 703.847 37.0653 705.94 Q38.1603 708.002 40.3503 709.258 Q43.2488 710.836 49.3679 710.836 Z" fill="#000000" fill-rule="nonzero" fill-opacity="1" /><path clip-path="url(#clip860)" d="M64.0216 684.967 L61.9926 684.967 Q61.9926 681.456 61.5739 680.651 Q61.1231 679.814 58.9975 679.814 L41.3165 679.814 Q38.8688 679.814 38.2569 680.683 Q37.645 681.521 37.645 684.967 L35.5838 684.967 L34.8753 675.788 L42.1216 675.788 Q39.2875 674.854 37.0975 672.889 Q34.8753 670.893 34.8753 667.672 Q34.8753 665.546 36.0669 664.194 Q37.2585 662.809 38.901 662.809 Q40.3503 662.809 41.091 663.711 Q41.7996 664.58 41.7996 665.643 Q41.7996 666.835 41.0588 667.672 Q40.2859 668.477 38.9654 668.477 Q38.1603 668.477 37.5484 668.123 Q36.9043 667.736 36.6788 667.447 Q36.4534 667.157 36.389 666.963 Q36.3246 667.092 36.3246 667.672 Q36.3246 671.311 39.9638 673.405 Q43.5709 675.466 48.7238 675.466 L58.8687 675.466 Q60.7688 675.466 61.3807 674.693 Q61.9926 673.888 61.9926 670.442 L61.9926 669.057 L64.0216 669.057 Q63.8284 671.698 63.8284 677.43 Q63.8284 678.236 63.8606 679.492 Q63.8928 680.748 63.9572 682.39 Q64.0216 684.033 64.0216 684.967 Z" fill="#000000" fill-rule="nonzero" fill-opacity="1" /><polyline clip-path="url(#clip862)" style="stroke:#009af9; stroke-linecap:round; stroke-linejoin:round; stroke-width:4; stroke-opacity:1; fill:none" points="2293.3,112.561 1896.9,362.978 1500.5,613.394 1104.1,863.81 707.701,1114.23 311.302,1364.64 "/>
<polyline clip-path="url(#clip862)" style="stroke:#000000; stroke-linecap:round; stroke-linejoin:round; stroke-width:4; stroke-opacity:1; fill:none" points="2293.3,117.684 2293.3,85.838 "/>
<polyline clip-path="url(#clip862)" style="stroke:#000000; stroke-linecap:round; stroke-linejoin:round; stroke-width:4; stroke-opacity:1; fill:none" points="1896.9,385.321 1896.9,352.641 "/>
<polyline clip-path="url(#clip862)" style="stroke:#000000; stroke-linecap:round; stroke-linejoin:round; stroke-width:4; stroke-opacity:1; fill:none" points="1500.5,635.054 1500.5,603.542 "/>
<polyline clip-path="url(#clip862)" style="stroke:#000000; stroke-linecap:round; stroke-linejoin:round; stroke-width:4; stroke-opacity:1; fill:none" points="1104.1,887.673 1104.1,855.432 "/>
<polyline clip-path="url(#clip862)" style="stroke:#000000; stroke-linecap:round; stroke-linejoin:round; stroke-width:4; stroke-opacity:1; fill:none" points="707.701,1133.1 707.701,1099.82 "/>
<polyline clip-path="url(#clip862)" style="stroke:#000000; stroke-linecap:round; stroke-linejoin:round; stroke-width:4; stroke-opacity:1; fill:none" points="311.302,1372.3 311.302,1339.25 "/>
<line clip-path="url(#clip862)" x1="2309.3" y1="117.684" x2="2277.3" y2="117.684" style="stroke:#000000; stroke-width:4; stroke-opacity:1"/>
<line clip-path="url(#clip862)" x1="2309.3" y1="85.838" x2="2277.3" y2="85.838" style="stroke:#000000; stroke-width:4; stroke-opacity:1"/>
<line clip-path="url(#clip862)" x1="1912.9" y1="385.321" x2="1880.9" y2="385.321" style="stroke:#000000; stroke-width:4; stroke-opacity:1"/>
<line clip-path="url(#clip862)" x1="1912.9" y1="352.641" x2="1880.9" y2="352.641" style="stroke:#000000; stroke-width:4; stroke-opacity:1"/>
<line clip-path="url(#clip862)" x1="1516.5" y1="635.054" x2="1484.5" y2="635.054" style="stroke:#000000; stroke-width:4; stroke-opacity:1"/>
<line clip-path="url(#clip862)" x1="1516.5" y1="603.542" x2="1484.5" y2="603.542" style="stroke:#000000; stroke-width:4; stroke-opacity:1"/>
<line clip-path="url(#clip862)" x1="1120.1" y1="887.673" x2="1088.1" y2="887.673" style="stroke:#000000; stroke-width:4; stroke-opacity:1"/>
<line clip-path="url(#clip862)" x1="1120.1" y1="855.432" x2="1088.1" y2="855.432" style="stroke:#000000; stroke-width:4; stroke-opacity:1"/>
<line clip-path="url(#clip862)" x1="723.701" y1="1133.1" x2="691.701" y2="1133.1" style="stroke:#000000; stroke-width:4; stroke-opacity:1"/>
<line clip-path="url(#clip862)" x1="723.701" y1="1099.82" x2="691.701" y2="1099.82" style="stroke:#000000; stroke-width:4; stroke-opacity:1"/>
<line clip-path="url(#clip862)" x1="327.302" y1="1372.3" x2="295.302" y2="1372.3" style="stroke:#000000; stroke-width:4; stroke-opacity:1"/>
<line clip-path="url(#clip862)" x1="327.302" y1="1339.25" x2="295.302" y2="1339.25" style="stroke:#000000; stroke-width:4; stroke-opacity:1"/>
<circle clip-path="url(#clip862)" cx="2293.3" cy="101.405" r="14.4" fill="#e26f46" fill-rule="evenodd" fill-opacity="1" stroke="#000000" stroke-opacity="1" stroke-width="3.2"/>
<circle clip-path="url(#clip862)" cx="1896.9" cy="368.606" r="14.4" fill="#e26f46" fill-rule="evenodd" fill-opacity="1" stroke="#000000" stroke-opacity="1" stroke-width="3.2"/>
<circle clip-path="url(#clip862)" cx="1500.5" cy="618.95" r="14.4" fill="#e26f46" fill-rule="evenodd" fill-opacity="1" stroke="#000000" stroke-opacity="1" stroke-width="3.2"/>
<circle clip-path="url(#clip862)" cx="1104.1" cy="871.188" r="14.4" fill="#e26f46" fill-rule="evenodd" fill-opacity="1" stroke="#000000" stroke-opacity="1" stroke-width="3.2"/>
<circle clip-path="url(#clip862)" cx="707.701" cy="1116.07" r="14.4" fill="#e26f46" fill-rule="evenodd" fill-opacity="1" stroke="#000000" stroke-opacity="1" stroke-width="3.2"/>
<circle clip-path="url(#clip862)" cx="311.302" cy="1355.39" r="14.4" fill="#e26f46" fill-rule="evenodd" fill-opacity="1" stroke="#000000" stroke-opacity="1" stroke-width="3.2"/>
<path clip-path="url(#clip860)" d="M321.873 248.219 L1508.87 248.219 L1508.87 92.6992 L321.873 92.6992  Z" fill="#ffffff" fill-rule="evenodd" fill-opacity="1"/>
<polyline clip-path="url(#clip860)" style="stroke:#000000; stroke-linecap:round; stroke-linejoin:round; stroke-width:4; stroke-opacity:1; fill:none" points="321.873,248.219 1508.87,248.219 1508.87,92.6992 321.873,92.6992 321.873,248.219 "/>
<polyline clip-path="url(#clip860)" style="stroke:#009af9; stroke-linecap:round; stroke-linejoin:round; stroke-width:4; stroke-opacity:1; fill:none" points="345.216,144.539 485.277,144.539 "/>
<path clip-path="url(#clip860)" d="M542.677 133.915 L539.655 146.142 Q539.445 146.915 539.304 147.008 Q539.187 147.102 538.812 147.102 Q538.086 147.102 538.086 146.61 Q538.086 146.563 538.156 145.954 Q538.227 145.322 538.227 144.174 Q538.227 139.935 536.165 137.428 Q534.128 134.922 530.497 134.922 Q527.359 134.922 524.197 136.515 Q521.058 138.108 518.809 140.708 Q517.123 142.675 515.882 145.158 Q514.664 147.641 514.078 149.913 Q513.516 152.185 513.258 153.894 Q513.001 155.604 513.001 156.846 Q513.001 158.649 513.375 160.172 Q513.774 161.694 514.476 162.772 Q515.179 163.826 516.069 164.645 Q516.983 165.442 518.037 165.91 Q519.114 166.379 520.191 166.613 Q521.269 166.824 522.393 166.824 Q526.914 166.824 531.223 163.31 Q534.643 160.429 536.072 155.721 Q536.189 155.253 536.681 155.253 Q537.266 155.253 537.266 155.721 Q537.266 155.815 537.149 156.283 Q537.032 156.729 536.681 157.642 Q536.329 158.532 535.791 159.539 Q535.252 160.546 534.245 161.811 Q533.238 163.076 531.996 164.177 Q529.888 166.004 527.218 167.152 Q524.548 168.299 521.62 168.299 Q517.966 168.299 515.015 166.683 Q512.064 165.067 510.331 162.045 Q508.621 159.024 508.621 155.159 Q508.621 151.084 510.494 147.078 Q512.368 143.073 515.343 140.099 Q518.318 137.124 522.253 135.274 Q526.188 133.423 530.122 133.423 Q531.622 133.423 532.957 133.821 Q534.292 134.22 535.088 134.711 Q535.908 135.203 536.634 135.929 Q537.36 136.632 537.594 136.96 Q537.852 137.288 538.086 137.686 L541.436 134.009 Q542.021 133.423 542.162 133.423 Q542.443 133.423 542.56 133.587 Q542.677 133.751 542.677 133.915 Z" fill="#000000" fill-rule="nonzero" fill-opacity="1" /><path clip-path="url(#clip860)" d="M546.416 166.777 Q546.416 166.589 547.048 165.371 Q547.681 164.13 549.906 159.703 Q552.131 155.253 554.426 150.592 L562.694 133.962 Q563.28 132.908 564.029 132.908 Q564.709 132.908 565.013 133.329 Q565.318 133.751 566.723 136.585 Q567.449 137.967 567.871 138.857 L581.432 166.004 Q581.667 166.589 581.69 166.777 Q581.69 167.245 580.87 167.245 L547.681 167.245 Q546.416 167.245 546.416 166.777 M549.578 163.591 L575.389 163.591 L562.484 137.686 L549.578 163.591 Z" fill="#000000" fill-rule="nonzero" fill-opacity="1" /><path clip-path="url(#clip860)" d="M600.693 147.102 Q600.693 147.758 600.389 147.922 Q600.084 148.062 599.241 148.062 L594.744 148.062 L591.184 162.209 Q590.903 163.451 590.903 164.505 Q590.903 165.676 591.254 166.191 Q591.629 166.706 592.402 166.706 Q593.924 166.706 595.564 165.325 Q597.227 163.943 598.632 160.57 Q598.819 160.125 598.913 160.031 Q599.03 159.914 599.335 159.914 Q599.92 159.914 599.92 160.382 Q599.92 160.546 599.592 161.296 Q599.288 162.045 598.609 163.146 Q597.953 164.247 597.086 165.278 Q596.243 166.308 594.955 167.058 Q593.666 167.784 592.285 167.784 Q590.34 167.784 589.099 166.543 Q587.881 165.301 587.881 163.357 Q587.881 162.725 588.373 160.71 Q588.865 158.673 591.535 148.062 L587.296 148.062 Q586.71 148.062 586.476 148.039 Q586.265 148.015 586.101 147.898 Q585.96 147.758 585.96 147.477 Q585.96 147.032 586.148 146.844 Q586.335 146.633 586.569 146.61 Q586.827 146.563 587.413 146.563 L591.91 146.563 L593.784 138.951 Q593.971 138.201 594.439 137.78 Q594.931 137.335 595.212 137.288 Q595.493 137.218 595.704 137.218 Q596.337 137.218 596.711 137.569 Q597.086 137.897 597.086 138.506 Q597.086 138.834 595.119 146.563 L599.335 146.563 Q599.873 146.563 600.084 146.587 Q600.318 146.61 600.506 146.727 Q600.693 146.844 600.693 147.102 Z" fill="#000000" fill-rule="nonzero" fill-opacity="1" /><path clip-path="url(#clip860)" d="M623.202 125.999 Q623.202 128.392 621.989 130.704 Q620.792 133.016 618.906 134.442 Q617.021 135.852 615.103 135.852 Q613.955 135.852 613.184 135.229 Q612.43 134.59 612.02 133.688 Q611.709 134.803 611.036 137.476 Q610.364 140.148 610.364 140.41 Q610.364 140.558 610.397 140.624 Q610.43 140.689 610.577 140.771 Q610.725 140.87 611.086 140.902 Q611.446 140.952 612.053 140.952 Q612.364 140.952 612.479 140.952 Q612.61 140.968 612.725 141.05 Q612.856 141.132 612.856 141.312 Q612.856 141.984 612.25 141.984 Q611.709 141.984 610.594 141.935 Q609.479 141.886 608.921 141.886 Q608.446 141.886 607.495 141.935 Q606.544 141.984 606.101 141.984 Q605.659 141.984 605.659 141.591 Q605.659 141.361 605.724 141.214 Q605.773 141.083 605.905 141.017 Q606.036 140.968 606.15 140.952 Q606.249 140.952 606.446 140.952 Q607.2 140.952 607.528 140.82 Q607.856 140.706 607.97 140.46 Q608.102 140.23 608.249 139.574 L612.02 124.621 Q612.25 123.621 612.25 122.916 Q612.25 122.031 611.971 121.703 Q611.692 121.375 611.2 121.375 Q610.348 121.375 609.79 122.392 Q609.233 123.408 608.757 125.376 Q608.61 125.917 608.511 126.031 Q608.429 126.146 608.184 126.146 Q607.774 126.13 607.774 125.802 Q607.774 125.72 607.905 125.195 Q608.036 124.654 608.282 123.867 Q608.544 123.064 608.823 122.556 Q608.987 122.211 609.134 121.982 Q609.282 121.752 609.577 121.391 Q609.889 121.031 610.331 120.834 Q610.774 120.637 611.315 120.637 Q612.364 120.637 613.233 121.26 Q614.102 121.883 614.332 123.146 Q615.266 122.047 616.414 121.342 Q617.562 120.637 618.726 120.637 Q620.661 120.637 621.923 122.146 Q623.202 123.638 623.202 125.999 M620.775 124.523 Q620.775 123.031 620.202 122.211 Q619.644 121.375 618.628 121.375 Q617.365 121.375 615.906 122.654 Q614.463 123.867 614.168 124.998 L612.512 131.573 L612.414 132.114 Q612.414 132.213 612.463 132.508 Q612.528 132.786 612.709 133.246 Q612.905 133.705 613.168 134.115 Q613.447 134.508 613.938 134.803 Q614.447 135.098 615.07 135.098 Q616.07 135.098 617.152 134.213 Q618.25 133.328 619.07 131.655 Q619.579 130.573 620.169 128.245 Q620.775 125.9 620.775 124.523 Z" fill="#000000" fill-rule="nonzero" fill-opacity="1" /><path clip-path="url(#clip860)" d="M660.809 131.227 L660.809 134.769 L656.735 134.769 Q654.443 134.769 653.541 135.694 Q652.661 136.62 652.661 139.028 L652.661 141.319 L659.675 141.319 L659.675 144.63 L652.661 144.63 L652.661 167.245 L648.379 167.245 L648.379 144.63 L644.305 144.63 L644.305 141.319 L648.379 141.319 L648.379 139.514 Q648.379 135.185 650.393 133.218 Q652.406 131.227 656.781 131.227 L660.809 131.227 Z" fill="#000000" fill-rule="nonzero" fill-opacity="1" /><path clip-path="url(#clip860)" d="M664.374 141.319 L668.633 141.319 L668.633 167.245 L664.374 167.245 L664.374 141.319 M664.374 131.227 L668.633 131.227 L668.633 136.62 L664.374 136.62 L664.374 131.227 Z" fill="#000000" fill-rule="nonzero" fill-opacity="1" /><path clip-path="url(#clip860)" d="M681.758 133.958 L681.758 141.319 L690.531 141.319 L690.531 144.63 L681.758 144.63 L681.758 158.704 Q681.758 161.875 682.615 162.778 Q683.494 163.68 686.156 163.68 L690.531 163.68 L690.531 167.245 L686.156 167.245 Q681.226 167.245 679.351 165.417 Q677.476 163.565 677.476 158.704 L677.476 144.63 L674.351 144.63 L674.351 141.319 L677.476 141.319 L677.476 133.958 L681.758 133.958 Z" fill="#000000" fill-rule="nonzero" fill-opacity="1" /><path clip-path="url(#clip860)" d="M708.726 141.319 L712.985 141.319 L718.309 161.551 L723.61 141.319 L728.633 141.319 L733.957 161.551 L739.258 141.319 L743.517 141.319 L736.735 167.245 L731.712 167.245 L726.133 145.995 L720.531 167.245 L715.508 167.245 L708.726 141.319 Z" fill="#000000" fill-rule="nonzero" fill-opacity="1" /><path clip-path="url(#clip860)" d="M749.975 141.319 L754.235 141.319 L754.235 167.245 L749.975 167.245 L749.975 141.319 M749.975 131.227 L754.235 131.227 L754.235 136.62 L749.975 136.62 L749.975 131.227 Z" fill="#000000" fill-rule="nonzero" fill-opacity="1" /><path clip-path="url(#clip860)" d="M767.36 133.958 L767.36 141.319 L776.133 141.319 L776.133 144.63 L767.36 144.63 L767.36 158.704 Q767.36 161.875 768.216 162.778 Q769.096 163.68 771.758 163.68 L776.133 163.68 L776.133 167.245 L771.758 167.245 Q766.827 167.245 764.952 165.417 Q763.077 163.565 763.077 158.704 L763.077 144.63 L759.952 144.63 L759.952 141.319 L763.077 141.319 L763.077 133.958 L767.36 133.958 Z" fill="#000000" fill-rule="nonzero" fill-opacity="1" /><path clip-path="url(#clip860)" d="M803.285 151.597 L803.285 167.245 L799.026 167.245 L799.026 151.736 Q799.026 148.055 797.591 146.227 Q796.156 144.398 793.285 144.398 Q789.836 144.398 787.846 146.597 Q785.855 148.796 785.855 152.592 L785.855 167.245 L781.572 167.245 L781.572 131.227 L785.855 131.227 L785.855 145.347 Q787.383 143.009 789.443 141.852 Q791.526 140.694 794.234 140.694 Q798.702 140.694 800.994 143.472 Q803.285 146.227 803.285 151.597 Z" fill="#000000" fill-rule="nonzero" fill-opacity="1" /><path clip-path="url(#clip860)" d="M830.97 163.356 L830.97 177.106 L826.688 177.106 L826.688 141.319 L830.97 141.319 L830.97 145.255 Q832.313 142.94 834.35 141.829 Q836.41 140.694 839.257 140.694 Q843.979 140.694 846.919 144.444 Q849.882 148.194 849.882 154.305 Q849.882 160.417 846.919 164.167 Q843.979 167.916 839.257 167.916 Q836.41 167.916 834.35 166.805 Q832.313 165.671 830.97 163.356 M845.461 154.305 Q845.461 149.606 843.517 146.944 Q841.595 144.259 838.216 144.259 Q834.836 144.259 832.892 146.944 Q830.97 149.606 830.97 154.305 Q830.97 159.004 832.892 161.69 Q834.836 164.352 838.216 164.352 Q841.595 164.352 843.517 161.69 Q845.461 159.004 845.461 154.305 Z" fill="#000000" fill-rule="nonzero" fill-opacity="1" /><path clip-path="url(#clip860)" d="M872.567 145.718 L902.243 145.718 L902.243 149.606 L872.567 149.606 L872.567 145.718 M872.567 155.162 L902.243 155.162 L902.243 159.097 L872.567 159.097 L872.567 155.162 Z" fill="#000000" fill-rule="nonzero" fill-opacity="1" /><path clip-path="url(#clip860)" d="M928.215 163.31 L935.854 163.31 L935.854 136.944 L927.544 138.611 L927.544 134.352 L935.808 132.685 L940.484 132.685 L940.484 163.31 L948.122 163.31 L948.122 167.245 L928.215 167.245 L928.215 163.31 Z" fill="#000000" fill-rule="nonzero" fill-opacity="1" /><path clip-path="url(#clip860)" d="M957.567 161.366 L962.451 161.366 L962.451 167.245 L957.567 167.245 L957.567 161.366 Z" fill="#000000" fill-rule="nonzero" fill-opacity="1" /><path clip-path="url(#clip860)" d="M982.636 135.764 Q979.025 135.764 977.196 139.329 Q975.391 142.87 975.391 150 Q975.391 157.106 977.196 160.671 Q979.025 164.213 982.636 164.213 Q986.27 164.213 988.076 160.671 Q989.905 157.106 989.905 150 Q989.905 142.87 988.076 139.329 Q986.27 135.764 982.636 135.764 M982.636 132.06 Q988.446 132.06 991.502 136.667 Q994.581 141.25 994.581 150 Q994.581 158.727 991.502 163.333 Q988.446 167.916 982.636 167.916 Q976.826 167.916 973.747 163.333 Q970.692 158.727 970.692 150 Q970.692 141.25 973.747 136.667 Q976.826 132.06 982.636 132.06 Z" fill="#000000" fill-rule="nonzero" fill-opacity="1" /><path clip-path="url(#clip860)" d="M1003.61 163.31 L1011.25 163.31 L1011.25 136.944 L1002.94 138.611 L1002.94 134.352 L1011.2 132.685 L1015.88 132.685 L1015.88 163.31 L1023.52 163.31 L1023.52 167.245 L1003.61 167.245 L1003.61 163.31 Z" fill="#000000" fill-rule="nonzero" fill-opacity="1" /><path clip-path="url(#clip860)" d="M1033.45 142.731 L1038.33 142.731 L1038.33 148.611 L1033.45 148.611 L1033.45 142.731 M1033.45 161.366 L1038.33 161.366 L1038.33 165.347 L1034.53 172.754 L1031.55 172.754 L1033.45 165.347 L1033.45 161.366 Z" fill="#000000" fill-rule="nonzero" fill-opacity="1" /><path clip-path="url(#clip860)" d="M1064.14 166.528 L1064.14 162.268 Q1065.9 163.102 1067.71 163.542 Q1069.51 163.981 1071.25 163.981 Q1075.88 163.981 1078.31 160.879 Q1080.76 157.755 1081.11 151.412 Q1079.77 153.403 1077.71 154.467 Q1075.64 155.532 1073.14 155.532 Q1067.96 155.532 1064.93 152.407 Q1061.92 149.259 1061.92 143.819 Q1061.92 138.495 1065.07 135.278 Q1068.21 132.06 1073.45 132.06 Q1079.44 132.06 1082.59 136.667 Q1085.76 141.25 1085.76 150 Q1085.76 158.171 1081.87 163.055 Q1078.01 167.916 1071.46 167.916 Q1069.7 167.916 1067.89 167.569 Q1066.08 167.222 1064.14 166.528 M1073.45 151.875 Q1076.59 151.875 1078.42 149.722 Q1080.27 147.569 1080.27 143.819 Q1080.27 140.093 1078.42 137.94 Q1076.59 135.764 1073.45 135.764 Q1070.3 135.764 1068.45 137.94 Q1066.62 140.093 1066.62 143.819 Q1066.62 147.569 1068.45 149.722 Q1070.3 151.875 1073.45 151.875 Z" fill="#000000" fill-rule="nonzero" fill-opacity="1" /><path clip-path="url(#clip860)" d="M1094.21 132.685 L1112.57 132.685 L1112.57 136.62 L1098.49 136.62 L1098.49 145.093 Q1099.51 144.745 1100.53 144.583 Q1101.55 144.398 1102.57 144.398 Q1108.35 144.398 1111.73 147.569 Q1115.11 150.741 1115.11 156.157 Q1115.11 161.736 1111.64 164.838 Q1108.17 167.916 1101.85 167.916 Q1099.67 167.916 1097.4 167.546 Q1095.16 167.176 1092.75 166.435 L1092.75 161.736 Q1094.83 162.87 1097.06 163.426 Q1099.28 163.981 1101.76 163.981 Q1105.76 163.981 1108.1 161.875 Q1110.44 159.768 1110.44 156.157 Q1110.44 152.546 1108.1 150.44 Q1105.76 148.333 1101.76 148.333 Q1099.88 148.333 1098.01 148.75 Q1096.15 149.167 1094.21 150.046 L1094.21 132.685 Z" fill="#000000" fill-rule="nonzero" fill-opacity="1" /><path clip-path="url(#clip860)" d="M1153.72 152.037 Q1151.71 152.037 1150.55 153.75 Q1149.42 155.463 1149.42 158.518 Q1149.42 161.528 1150.55 163.264 Q1151.71 164.977 1153.72 164.977 Q1155.69 164.977 1156.83 163.264 Q1157.98 161.528 1157.98 158.518 Q1157.98 155.486 1156.83 153.773 Q1155.69 152.037 1153.72 152.037 M1153.72 149.097 Q1157.38 149.097 1159.53 151.643 Q1161.69 154.19 1161.69 158.518 Q1161.69 162.847 1159.51 165.393 Q1157.36 167.916 1153.72 167.916 Q1150.02 167.916 1147.87 165.393 Q1145.71 162.847 1145.71 158.518 Q1145.71 154.167 1147.87 151.643 Q1150.04 149.097 1153.72 149.097 M1129.83 135 Q1127.84 135 1126.69 136.736 Q1125.55 138.449 1125.55 141.458 Q1125.55 144.514 1126.69 146.227 Q1127.82 147.94 1129.83 147.94 Q1131.85 147.94 1132.98 146.227 Q1134.14 144.514 1134.14 141.458 Q1134.14 138.472 1132.98 136.736 Q1131.83 135 1129.83 135 M1150.74 132.06 L1154.44 132.06 L1132.82 167.916 L1129.12 167.916 L1150.74 132.06 M1129.83 132.06 Q1133.49 132.06 1135.67 134.606 Q1137.84 137.13 1137.84 141.458 Q1137.84 145.833 1135.67 148.356 Q1133.51 150.88 1129.83 150.88 Q1126.15 150.88 1124 148.356 Q1121.87 145.81 1121.87 141.458 Q1121.87 137.153 1124.02 134.606 Q1126.18 132.06 1129.83 132.06 Z" fill="#000000" fill-rule="nonzero" fill-opacity="1" /><path clip-path="url(#clip860)" d="M1209.9 135.347 L1209.9 140.278 Q1207.54 138.079 1204.86 136.991 Q1202.2 135.903 1199.19 135.903 Q1193.26 135.903 1190.11 139.537 Q1186.96 143.148 1186.96 150 Q1186.96 156.829 1190.11 160.463 Q1193.26 164.074 1199.19 164.074 Q1202.2 164.074 1204.86 162.986 Q1207.54 161.898 1209.9 159.699 L1209.9 164.583 Q1207.45 166.25 1204.7 167.083 Q1201.96 167.916 1198.91 167.916 Q1191.06 167.916 1186.55 163.125 Q1182.03 158.31 1182.03 150 Q1182.03 141.667 1186.55 136.875 Q1191.06 132.06 1198.91 132.06 Q1202.01 132.06 1204.74 132.894 Q1207.5 133.704 1209.9 135.347 Z" fill="#000000" fill-rule="nonzero" fill-opacity="1" /><path clip-path="url(#clip860)" d="M1217.13 132.685 L1221.8 132.685 L1221.8 167.245 L1217.13 167.245 L1217.13 132.685 Z" fill="#000000" fill-rule="nonzero" fill-opacity="1" /><path clip-path="url(#clip860)" d="M1245.6 131.227 L1255.41 131.227 L1255.41 134.537 L1249.86 134.537 L1249.86 170.185 L1255.41 170.185 L1255.41 173.495 L1245.6 173.495 L1245.6 131.227 Z" fill="#000000" fill-rule="nonzero" fill-opacity="1" /><path clip-path="url(#clip860)" d="M1265.9 163.31 L1273.54 163.31 L1273.54 136.944 L1265.23 138.611 L1265.23 134.352 L1273.49 132.685 L1278.17 132.685 L1278.17 163.31 L1285.81 163.31 L1285.81 167.245 L1265.9 167.245 L1265.9 163.31 Z" fill="#000000" fill-rule="nonzero" fill-opacity="1" /><path clip-path="url(#clip860)" d="M1295.25 161.366 L1300.13 161.366 L1300.13 167.245 L1295.25 167.245 L1295.25 161.366 Z" fill="#000000" fill-rule="nonzero" fill-opacity="1" /><path clip-path="url(#clip860)" d="M1320.32 135.764 Q1316.71 135.764 1314.88 139.329 Q1313.07 142.87 1313.07 150 Q1313.07 157.106 1314.88 160.671 Q1316.71 164.213 1320.32 164.213 Q1323.95 164.213 1325.76 160.671 Q1327.59 157.106 1327.59 150 Q1327.59 142.87 1325.76 139.329 Q1323.95 135.764 1320.32 135.764 M1320.32 132.06 Q1326.13 132.06 1329.19 136.667 Q1332.26 141.25 1332.26 150 Q1332.26 158.727 1329.19 163.333 Q1326.13 167.916 1320.32 167.916 Q1314.51 167.916 1311.43 163.333 Q1308.38 158.727 1308.38 150 Q1308.38 141.25 1311.43 136.667 Q1314.51 132.06 1320.32 132.06 Z" fill="#000000" fill-rule="nonzero" fill-opacity="1" /><path clip-path="url(#clip860)" d="M1340.97 161.366 L1345.85 161.366 L1345.85 165.347 L1342.06 172.754 L1339.07 172.754 L1340.97 165.347 L1340.97 161.366 Z" fill="#000000" fill-rule="nonzero" fill-opacity="1" /><path clip-path="url(#clip860)" d="M1371.43 163.31 L1379.07 163.31 L1379.07 136.944 L1370.76 138.611 L1370.76 134.352 L1379.02 132.685 L1383.7 132.685 L1383.7 163.31 L1391.34 163.31 L1391.34 167.245 L1371.43 167.245 L1371.43 163.31 Z" fill="#000000" fill-rule="nonzero" fill-opacity="1" /><path clip-path="url(#clip860)" d="M1400.78 161.366 L1405.67 161.366 L1405.67 167.245 L1400.78 167.245 L1400.78 161.366 Z" fill="#000000" fill-rule="nonzero" fill-opacity="1" /><path clip-path="url(#clip860)" d="M1425.85 135.764 Q1422.24 135.764 1420.41 139.329 Q1418.61 142.87 1418.61 150 Q1418.61 157.106 1420.41 160.671 Q1422.24 164.213 1425.85 164.213 Q1429.49 164.213 1431.29 160.671 Q1433.12 157.106 1433.12 150 Q1433.12 142.87 1431.29 139.329 Q1429.49 135.764 1425.85 135.764 M1425.85 132.06 Q1431.66 132.06 1434.72 136.667 Q1437.8 141.25 1437.8 150 Q1437.8 158.727 1434.72 163.333 Q1431.66 167.916 1425.85 167.916 Q1420.04 167.916 1416.96 163.333 Q1413.91 158.727 1413.91 150 Q1413.91 141.25 1416.96 136.667 Q1420.04 132.06 1425.85 132.06 Z" fill="#000000" fill-rule="nonzero" fill-opacity="1" /><path clip-path="url(#clip860)" d="M1460.18 148.611 Q1463.54 149.329 1465.41 151.597 Q1467.31 153.866 1467.31 157.199 Q1467.31 162.315 1463.79 165.116 Q1460.27 167.916 1453.79 167.916 Q1451.62 167.916 1449.3 167.477 Q1447.01 167.06 1444.55 166.204 L1444.55 161.69 Q1446.5 162.824 1448.81 163.403 Q1451.13 163.981 1453.65 163.981 Q1458.05 163.981 1460.34 162.245 Q1462.66 160.509 1462.66 157.199 Q1462.66 154.143 1460.5 152.43 Q1458.37 150.694 1454.55 150.694 L1450.53 150.694 L1450.53 146.852 L1454.74 146.852 Q1458.19 146.852 1460.02 145.486 Q1461.85 144.097 1461.85 141.505 Q1461.85 138.843 1459.95 137.431 Q1458.07 135.995 1454.55 135.995 Q1452.63 135.995 1450.43 136.412 Q1448.24 136.829 1445.6 137.708 L1445.6 133.542 Q1448.26 132.801 1450.57 132.431 Q1452.91 132.06 1454.97 132.06 Q1460.3 132.06 1463.4 134.491 Q1466.5 136.898 1466.5 141.018 Q1466.5 143.889 1464.86 145.88 Q1463.21 147.847 1460.18 148.611 Z" fill="#000000" fill-rule="nonzero" fill-opacity="1" /><path clip-path="url(#clip860)" d="M1485.53 131.227 L1485.53 173.495 L1475.71 173.495 L1475.71 170.185 L1481.24 170.185 L1481.24 134.537 L1475.71 134.537 L1475.71 131.227 L1485.53 131.227 Z" fill="#000000" fill-rule="nonzero" fill-opacity="1" /><circle clip-path="url(#clip860)" cx="415.247" cy="196.379" r="20.48" fill="#e26f46" fill-rule="evenodd" fill-opacity="1" stroke="#000000" stroke-opacity="1" stroke-width="4.55111"/>
<path clip-path="url(#clip860)" d="M527.047 188.497 L527.047 192.525 Q525.241 191.599 523.297 191.136 Q521.352 190.673 519.269 190.673 Q516.098 190.673 514.5 191.645 Q512.926 192.618 512.926 194.562 Q512.926 196.044 514.06 196.9 Q515.195 197.733 518.621 198.497 L520.079 198.821 Q524.616 199.794 526.514 201.576 Q528.435 203.335 528.435 206.506 Q528.435 210.118 525.565 212.224 Q522.718 214.33 517.718 214.33 Q515.635 214.33 513.366 213.914 Q511.121 213.52 508.621 212.71 L508.621 208.312 Q510.982 209.539 513.273 210.164 Q515.565 210.766 517.81 210.766 Q520.82 210.766 522.44 209.747 Q524.06 208.706 524.06 206.831 Q524.06 205.094 522.88 204.168 Q521.722 203.243 517.764 202.386 L516.283 202.039 Q512.324 201.206 510.565 199.493 Q508.806 197.756 508.806 194.747 Q508.806 191.09 511.398 189.099 Q513.991 187.108 518.76 187.108 Q521.121 187.108 523.204 187.456 Q525.287 187.803 527.047 188.497 Z" fill="#000000" fill-rule="nonzero" fill-opacity="1" /><path clip-path="url(#clip860)" d="M539.431 180.372 L539.431 187.733 L548.204 187.733 L548.204 191.044 L539.431 191.044 L539.431 205.118 Q539.431 208.289 540.287 209.192 Q541.167 210.094 543.829 210.094 L548.204 210.094 L548.204 213.659 L543.829 213.659 Q538.898 213.659 537.023 211.83 Q535.148 209.979 535.148 205.118 L535.148 191.044 L532.023 191.044 L532.023 187.733 L535.148 187.733 L535.148 180.372 L539.431 180.372 Z" fill="#000000" fill-rule="nonzero" fill-opacity="1" /><path clip-path="url(#clip860)" d="M568.829 191.715 Q568.111 191.298 567.255 191.113 Q566.421 190.905 565.403 190.905 Q561.792 190.905 559.847 193.266 Q557.926 195.604 557.926 200.002 L557.926 213.659 L553.644 213.659 L553.644 187.733 L557.926 187.733 L557.926 191.761 Q559.269 189.4 561.421 188.266 Q563.574 187.108 566.653 187.108 Q567.093 187.108 567.625 187.178 Q568.157 187.224 568.806 187.34 L568.829 191.715 Z" fill="#000000" fill-rule="nonzero" fill-opacity="1" /><path clip-path="url(#clip860)" d="M582.301 190.719 Q578.875 190.719 576.884 193.405 Q574.893 196.067 574.893 200.719 Q574.893 205.372 576.861 208.057 Q578.852 210.719 582.301 210.719 Q585.704 210.719 587.694 208.034 Q589.685 205.349 589.685 200.719 Q589.685 196.113 587.694 193.428 Q585.704 190.719 582.301 190.719 M582.301 187.108 Q587.856 187.108 591.028 190.719 Q594.199 194.331 594.199 200.719 Q594.199 207.085 591.028 210.719 Q587.856 214.33 582.301 214.33 Q576.722 214.33 573.551 210.719 Q570.403 207.085 570.403 200.719 Q570.403 194.331 573.551 190.719 Q576.722 187.108 582.301 187.108 Z" fill="#000000" fill-rule="nonzero" fill-opacity="1" /><path clip-path="url(#clip860)" d="M622.81 198.011 L622.81 213.659 L618.551 213.659 L618.551 198.15 Q618.551 194.469 617.115 192.641 Q615.68 190.812 612.81 190.812 Q609.361 190.812 607.37 193.011 Q605.379 195.21 605.379 199.006 L605.379 213.659 L601.097 213.659 L601.097 187.733 L605.379 187.733 L605.379 191.761 Q606.907 189.423 608.967 188.266 Q611.051 187.108 613.759 187.108 Q618.227 187.108 620.518 189.886 Q622.81 192.641 622.81 198.011 Z" fill="#000000" fill-rule="nonzero" fill-opacity="1" /><path clip-path="url(#clip860)" d="M648.365 200.395 Q648.365 195.766 646.444 193.219 Q644.546 190.673 641.097 190.673 Q637.671 190.673 635.75 193.219 Q633.851 195.766 633.851 200.395 Q633.851 205.002 635.75 207.548 Q637.671 210.094 641.097 210.094 Q644.546 210.094 646.444 207.548 Q648.365 205.002 648.365 200.395 M652.625 210.442 Q652.625 217.062 649.685 220.28 Q646.745 223.52 640.68 223.52 Q638.435 223.52 636.444 223.173 Q634.453 222.849 632.578 222.155 L632.578 218.011 Q634.453 219.03 636.282 219.516 Q638.111 220.002 640.009 220.002 Q644.199 220.002 646.282 217.803 Q648.365 215.627 648.365 211.205 L648.365 209.099 Q647.046 211.391 644.986 212.525 Q642.926 213.659 640.055 213.659 Q635.287 213.659 632.37 210.025 Q629.453 206.391 629.453 200.395 Q629.453 194.377 632.37 190.743 Q635.287 187.108 640.055 187.108 Q642.926 187.108 644.986 188.243 Q647.046 189.377 648.365 191.669 L648.365 187.733 L652.625 187.733 L652.625 210.442 Z" fill="#000000" fill-rule="nonzero" fill-opacity="1" /><path clip-path="url(#clip860)" d="M698.643 199.631 L698.643 201.715 L679.06 201.715 Q679.337 206.113 681.698 208.428 Q684.083 210.719 688.319 210.719 Q690.772 210.719 693.064 210.118 Q695.379 209.516 697.647 208.312 L697.647 212.34 Q695.356 213.312 692.948 213.821 Q690.541 214.33 688.064 214.33 Q681.861 214.33 678.226 210.719 Q674.615 207.108 674.615 200.951 Q674.615 194.585 678.041 190.858 Q681.49 187.108 687.323 187.108 Q692.555 187.108 695.587 190.488 Q698.643 193.844 698.643 199.631 M694.384 198.381 Q694.337 194.886 692.416 192.803 Q690.518 190.719 687.37 190.719 Q683.805 190.719 681.652 192.733 Q679.523 194.747 679.198 198.405 L694.384 198.381 Z" fill="#000000" fill-rule="nonzero" fill-opacity="1" /><path clip-path="url(#clip860)" d="M720.657 191.715 Q719.939 191.298 719.083 191.113 Q718.249 190.905 717.231 190.905 Q713.62 190.905 711.675 193.266 Q709.754 195.604 709.754 200.002 L709.754 213.659 L705.471 213.659 L705.471 187.733 L709.754 187.733 L709.754 191.761 Q711.096 189.4 713.249 188.266 Q715.402 187.108 718.481 187.108 Q718.92 187.108 719.453 187.178 Q719.985 187.224 720.633 187.34 L720.657 191.715 Z" fill="#000000" fill-rule="nonzero" fill-opacity="1" /><path clip-path="url(#clip860)" d="M739.314 191.715 Q738.596 191.298 737.74 191.113 Q736.907 190.905 735.888 190.905 Q732.277 190.905 730.332 193.266 Q728.411 195.604 728.411 200.002 L728.411 213.659 L724.129 213.659 L724.129 187.733 L728.411 187.733 L728.411 191.761 Q729.754 189.4 731.907 188.266 Q734.059 187.108 737.138 187.108 Q737.578 187.108 738.11 187.178 Q738.643 187.224 739.291 187.34 L739.314 191.715 Z" fill="#000000" fill-rule="nonzero" fill-opacity="1" /><path clip-path="url(#clip860)" d="M752.786 190.719 Q749.36 190.719 747.369 193.405 Q745.379 196.067 745.379 200.719 Q745.379 205.372 747.346 208.057 Q749.337 210.719 752.786 210.719 Q756.189 210.719 758.18 208.034 Q760.17 205.349 760.17 200.719 Q760.17 196.113 758.18 193.428 Q756.189 190.719 752.786 190.719 M752.786 187.108 Q758.342 187.108 761.513 190.719 Q764.684 194.331 764.684 200.719 Q764.684 207.085 761.513 210.719 Q758.342 214.33 752.786 214.33 Q747.207 214.33 744.036 210.719 Q740.888 207.085 740.888 200.719 Q740.888 194.331 744.036 190.719 Q747.207 187.108 752.786 187.108 Z" fill="#000000" fill-rule="nonzero" fill-opacity="1" /><path clip-path="url(#clip860)" d="M786.767 191.715 Q786.05 191.298 785.193 191.113 Q784.36 190.905 783.341 190.905 Q779.73 190.905 777.786 193.266 Q775.865 195.604 775.865 200.002 L775.865 213.659 L771.582 213.659 L771.582 187.733 L775.865 187.733 L775.865 191.761 Q777.207 189.4 779.36 188.266 Q781.513 187.108 784.591 187.108 Q785.031 187.108 785.564 187.178 Q786.096 187.224 786.744 187.34 L786.767 191.715 Z" fill="#000000" fill-rule="nonzero" fill-opacity="1" /><path clip-path="url(#clip860)" d="M807.763 188.497 L807.763 192.525 Q805.957 191.599 804.013 191.136 Q802.068 190.673 799.985 190.673 Q796.814 190.673 795.216 191.645 Q793.642 192.618 793.642 194.562 Q793.642 196.044 794.777 196.9 Q795.911 197.733 799.337 198.497 L800.795 198.821 Q805.332 199.794 807.23 201.576 Q809.151 203.335 809.151 206.506 Q809.151 210.118 806.281 212.224 Q803.434 214.33 798.434 214.33 Q796.351 214.33 794.082 213.914 Q791.837 213.52 789.337 212.71 L789.337 208.312 Q791.698 209.539 793.99 210.164 Q796.281 210.766 798.527 210.766 Q801.536 210.766 803.156 209.747 Q804.777 208.706 804.777 206.831 Q804.777 205.094 803.596 204.168 Q802.439 203.243 798.48 202.386 L796.999 202.039 Q793.04 201.206 791.281 199.493 Q789.522 197.756 789.522 194.747 Q789.522 191.09 792.115 189.099 Q794.707 187.108 799.476 187.108 Q801.837 187.108 803.92 187.456 Q806.003 187.803 807.763 188.497 Z" fill="#000000" fill-rule="nonzero" fill-opacity="1" /></svg>
