<?xml version="1.0" encoding="utf-8"?>
<svg xmlns="http://www.w3.org/2000/svg" xmlns:xlink="http://www.w3.org/1999/xlink" width="600" height="400" viewBox="0 0 2400 1600">
<defs>
  <clipPath id="clip780">
    <rect x="0" y="0" width="2400" height="1600"/>
  </clipPath>
</defs>
<path clip-path="url(#clip780)" d="M0 1600 L2400 1600 L2400 0 L0 0  Z" fill="#ffffff" fill-rule="evenodd" fill-opacity="1"/>
<defs>
  <clipPath id="clip781">
    <rect x="480" y="0" width="1681" height="1600"/>
  </clipPath>
</defs>
<path clip-path="url(#clip780)" d="M256.209 1423.18 L2352.76 1423.18 L2352.76 47.2441 L256.209 47.2441  Z" fill="#ffffff" fill-rule="evenodd" fill-opacity="1"/>
<defs>
  <clipPath id="clip782">
    <rect x="256" y="47" width="2098" height="1377"/>
  </clipPath>
</defs>
<polyline clip-path="url(#clip782)" style="stroke:#000000; stroke-linecap:round; stroke-linejoin:round; stroke-width:2; stroke-opacity:0.1; fill:none" points="315.545,1423.18 315.545,47.2441 "/>
<polyline clip-path="url(#clip782)" style="stroke:#000000; stroke-linecap:round; stroke-linejoin:round; stroke-width:2; stroke-opacity:0.1; fill:none" points="974.836,1423.18 974.836,47.2441 "/>
<polyline clip-path="url(#clip782)" style="stroke:#000000; stroke-linecap:round; stroke-linejoin:round; stroke-width:2; stroke-opacity:0.1; fill:none" points="1634.13,1423.18 1634.13,47.2441 "/>
<polyline clip-path="url(#clip782)" style="stroke:#000000; stroke-linecap:round; stroke-linejoin:round; stroke-width:2; stroke-opacity:0.1; fill:none" points="2293.42,1423.18 2293.42,47.2441 "/>
<polyline clip-path="url(#clip782)" style="stroke:#000000; stroke-linecap:round; stroke-linejoin:round; stroke-width:2; stroke-opacity:0.1; fill:none" points="256.209,1359.43 2352.76,1359.43 "/>
<polyline clip-path="url(#clip782)" style="stroke:#000000; stroke-linecap:round; stroke-linejoin:round; stroke-width:2; stroke-opacity:0.1; fill:none" points="256.209,1089.78 2352.76,1089.78 "/>
<polyline clip-path="url(#clip782)" style="stroke:#000000; stroke-linecap:round; stroke-linejoin:round; stroke-width:2; stroke-opacity:0.1; fill:none" points="256.209,820.14 2352.76,820.14 "/>
<polyline clip-path="url(#clip782)" style="stroke:#000000; stroke-linecap:round; stroke-linejoin:round; stroke-width:2; stroke-opacity:0.1; fill:none" points="256.209,550.496 2352.76,550.496 "/>
<polyline clip-path="url(#clip782)" style="stroke:#000000; stroke-linecap:round; stroke-linejoin:round; stroke-width:2; stroke-opacity:0.1; fill:none" points="256.209,280.852 2352.76,280.852 "/>
<polyline clip-path="url(#clip780)" style="stroke:#000000; stroke-linecap:round; stroke-linejoin:round; stroke-width:4; stroke-opacity:1; fill:none" points="256.209,1423.18 2352.76,1423.18 "/>
<polyline clip-path="url(#clip780)" style="stroke:#000000; stroke-linecap:round; stroke-linejoin:round; stroke-width:4; stroke-opacity:1; fill:none" points="315.545,1423.18 315.545,1404.28 "/>
<polyline clip-path="url(#clip780)" style="stroke:#000000; stroke-linecap:round; stroke-linejoin:round; stroke-width:4; stroke-opacity:1; fill:none" points="974.836,1423.18 974.836,1404.28 "/>
<polyline clip-path="url(#clip780)" style="stroke:#000000; stroke-linecap:round; stroke-linejoin:round; stroke-width:4; stroke-opacity:1; fill:none" points="1634.13,1423.18 1634.13,1404.28 "/>
<polyline clip-path="url(#clip780)" style="stroke:#000000; stroke-linecap:round; stroke-linejoin:round; stroke-width:4; stroke-opacity:1; fill:none" points="2293.42,1423.18 2293.42,1404.28 "/>
<path clip-path="url(#clip780)" d="M315.545 1454.1 Q311.934 1454.1 310.105 1457.66 Q308.3 1461.2 308.3 1468.33 Q308.3 1475.44 310.105 1479.01 Q311.934 1482.55 315.545 1482.55 Q319.179 1482.55 320.985 1479.01 Q322.813 1475.44 322.813 1468.33 Q322.813 1461.2 320.985 1457.66 Q319.179 1454.1 315.545 1454.1 M315.545 1450.39 Q321.355 1450.39 324.411 1455 Q327.489 1459.58 327.489 1468.33 Q327.489 1477.06 324.411 1481.67 Q321.355 1486.25 315.545 1486.25 Q309.735 1486.25 306.656 1481.67 Q303.601 1477.06 303.601 1468.33 Q303.601 1459.58 306.656 1455 Q309.735 1450.39 315.545 1450.39 Z" fill="#000000" fill-rule="nonzero" fill-opacity="1" /><path clip-path="url(#clip780)" d="M965.218 1481.64 L972.857 1481.64 L972.857 1455.28 L964.547 1456.95 L964.547 1452.69 L972.811 1451.02 L977.487 1451.02 L977.487 1481.64 L985.126 1481.64 L985.126 1485.58 L965.218 1485.58 L965.218 1481.64 Z" fill="#000000" fill-rule="nonzero" fill-opacity="1" /><path clip-path="url(#clip780)" d="M1628.78 1481.64 L1645.1 1481.64 L1645.1 1485.58 L1623.16 1485.58 L1623.16 1481.64 Q1625.82 1478.89 1630.4 1474.26 Q1635.01 1469.61 1636.19 1468.27 Q1638.43 1465.74 1639.31 1464.01 Q1640.22 1462.25 1640.22 1460.56 Q1640.22 1457.8 1638.27 1456.07 Q1636.35 1454.33 1633.25 1454.33 Q1631.05 1454.33 1628.6 1455.09 Q1626.17 1455.86 1623.39 1457.41 L1623.39 1452.69 Q1626.21 1451.55 1628.67 1450.97 Q1631.12 1450.39 1633.16 1450.39 Q1638.53 1450.39 1641.72 1453.08 Q1644.92 1455.77 1644.92 1460.26 Q1644.92 1462.39 1644.1 1464.31 Q1643.32 1466.2 1641.21 1468.8 Q1640.63 1469.47 1637.53 1472.69 Q1634.43 1475.88 1628.78 1481.64 Z" fill="#000000" fill-rule="nonzero" fill-opacity="1" /><path clip-path="url(#clip780)" d="M2297.67 1466.95 Q2301.02 1467.66 2302.9 1469.93 Q2304.8 1472.2 2304.8 1475.53 Q2304.8 1480.65 2301.28 1483.45 Q2297.76 1486.25 2291.28 1486.25 Q2289.1 1486.25 2286.79 1485.81 Q2284.5 1485.39 2282.04 1484.54 L2282.04 1480.02 Q2283.99 1481.16 2286.3 1481.74 Q2288.62 1482.32 2291.14 1482.32 Q2295.54 1482.32 2297.83 1480.58 Q2300.14 1478.84 2300.14 1475.53 Q2300.14 1472.48 2297.99 1470.77 Q2295.86 1469.03 2292.04 1469.03 L2288.01 1469.03 L2288.01 1465.19 L2292.23 1465.19 Q2295.68 1465.19 2297.51 1463.82 Q2299.33 1462.43 2299.33 1459.84 Q2299.33 1457.18 2297.44 1455.77 Q2295.56 1454.33 2292.04 1454.33 Q2290.12 1454.33 2287.92 1454.75 Q2285.72 1455.16 2283.08 1456.04 L2283.08 1451.88 Q2285.75 1451.14 2288.06 1450.77 Q2290.4 1450.39 2292.46 1450.39 Q2297.78 1450.39 2300.88 1452.83 Q2303.99 1455.23 2303.99 1459.35 Q2303.99 1462.22 2302.34 1464.21 Q2300.7 1466.18 2297.67 1466.95 Z" fill="#000000" fill-rule="nonzero" fill-opacity="1" /><path clip-path="url(#clip780)" d="M1312.95 1531.91 Q1312.95 1532.81 1312.53 1533.04 Q1312.12 1533.23 1310.96 1533.23 L1304.77 1533.23 L1299.88 1552.69 Q1299.49 1554.39 1299.49 1555.84 Q1299.49 1557.45 1299.97 1558.16 Q1300.49 1558.87 1301.55 1558.87 Q1303.65 1558.87 1305.9 1556.97 Q1308.19 1555.07 1310.12 1550.43 Q1310.38 1549.82 1310.51 1549.69 Q1310.67 1549.53 1311.09 1549.53 Q1311.89 1549.53 1311.89 1550.17 Q1311.89 1550.4 1311.44 1551.43 Q1311.02 1552.46 1310.09 1553.97 Q1309.19 1555.49 1307.99 1556.9 Q1306.83 1558.32 1305.06 1559.35 Q1303.29 1560.35 1301.39 1560.35 Q1298.72 1560.35 1297.01 1558.64 Q1295.34 1556.94 1295.34 1554.26 Q1295.34 1553.39 1296.01 1550.62 Q1296.69 1547.82 1300.36 1533.23 L1294.53 1533.23 Q1293.73 1533.23 1293.4 1533.2 Q1293.11 1533.17 1292.89 1533.01 Q1292.7 1532.81 1292.7 1532.43 Q1292.7 1531.82 1292.95 1531.56 Q1293.21 1531.27 1293.53 1531.24 Q1293.89 1531.17 1294.69 1531.17 L1300.88 1531.17 L1303.45 1520.71 Q1303.71 1519.67 1304.35 1519.09 Q1305.03 1518.48 1305.42 1518.42 Q1305.8 1518.32 1306.09 1518.32 Q1306.96 1518.32 1307.48 1518.81 Q1307.99 1519.26 1307.99 1520.09 Q1307.99 1520.54 1305.29 1531.17 L1311.09 1531.17 Q1311.83 1531.17 1312.12 1531.2 Q1312.44 1531.24 1312.7 1531.4 Q1312.95 1531.56 1312.95 1531.91 Z" fill="#000000" fill-rule="nonzero" fill-opacity="1" /><polyline clip-path="url(#clip780)" style="stroke:#000000; stroke-linecap:round; stroke-linejoin:round; stroke-width:4; stroke-opacity:1; fill:none" points="256.209,1423.18 256.209,47.2441 "/>
<polyline clip-path="url(#clip780)" style="stroke:#000000; stroke-linecap:round; stroke-linejoin:round; stroke-width:4; stroke-opacity:1; fill:none" points="256.209,1359.43 275.106,1359.43 "/>
<polyline clip-path="url(#clip780)" style="stroke:#000000; stroke-linecap:round; stroke-linejoin:round; stroke-width:4; stroke-opacity:1; fill:none" points="256.209,1089.78 275.106,1089.78 "/>
<polyline clip-path="url(#clip780)" style="stroke:#000000; stroke-linecap:round; stroke-linejoin:round; stroke-width:4; stroke-opacity:1; fill:none" points="256.209,820.14 275.106,820.14 "/>
<polyline clip-path="url(#clip780)" style="stroke:#000000; stroke-linecap:round; stroke-linejoin:round; stroke-width:4; stroke-opacity:1; fill:none" points="256.209,550.496 275.106,550.496 "/>
<polyline clip-path="url(#clip780)" style="stroke:#000000; stroke-linecap:round; stroke-linejoin:round; stroke-width:4; stroke-opacity:1; fill:none" points="256.209,280.852 275.106,280.852 "/>
<path clip-path="url(#clip780)" d="M114.26 1359.88 L143.936 1359.88 L143.936 1363.82 L114.26 1363.82 L114.26 1359.88 Z" fill="#000000" fill-rule="nonzero" fill-opacity="1" /><path clip-path="url(#clip780)" d="M164.028 1345.23 Q160.417 1345.23 158.589 1348.79 Q156.783 1352.33 156.783 1359.46 Q156.783 1366.57 158.589 1370.13 Q160.417 1373.68 164.028 1373.68 Q167.663 1373.68 169.468 1370.13 Q171.297 1366.57 171.297 1359.46 Q171.297 1352.33 169.468 1348.79 Q167.663 1345.23 164.028 1345.23 M164.028 1341.52 Q169.839 1341.52 172.894 1346.13 Q175.973 1350.71 175.973 1359.46 Q175.973 1368.19 172.894 1372.8 Q169.839 1377.38 164.028 1377.38 Q158.218 1377.38 155.14 1372.8 Q152.084 1368.19 152.084 1359.46 Q152.084 1350.71 155.14 1346.13 Q158.218 1341.52 164.028 1341.52 Z" fill="#000000" fill-rule="nonzero" fill-opacity="1" /><path clip-path="url(#clip780)" d="M184.19 1370.83 L189.075 1370.83 L189.075 1376.71 L184.19 1376.71 L184.19 1370.83 Z" fill="#000000" fill-rule="nonzero" fill-opacity="1" /><path clip-path="url(#clip780)" d="M199.306 1342.15 L217.662 1342.15 L217.662 1346.08 L203.588 1346.08 L203.588 1354.56 Q204.607 1354.21 205.625 1354.05 Q206.644 1353.86 207.662 1353.86 Q213.449 1353.86 216.829 1357.03 Q220.209 1360.2 220.209 1365.62 Q220.209 1371.2 216.736 1374.3 Q213.264 1377.38 206.945 1377.38 Q204.769 1377.38 202.5 1377.01 Q200.255 1376.64 197.848 1375.9 L197.848 1371.2 Q199.931 1372.33 202.153 1372.89 Q204.375 1373.44 206.852 1373.44 Q210.857 1373.44 213.195 1371.34 Q215.533 1369.23 215.533 1365.62 Q215.533 1362.01 213.195 1359.9 Q210.857 1357.8 206.852 1357.8 Q204.977 1357.8 203.102 1358.21 Q201.25 1358.63 199.306 1359.51 L199.306 1342.15 Z" fill="#000000" fill-rule="nonzero" fill-opacity="1" /><path clip-path="url(#clip780)" d="M163.033 1075.58 Q159.422 1075.58 157.593 1079.15 Q155.788 1082.69 155.788 1089.82 Q155.788 1096.93 157.593 1100.49 Q159.422 1104.03 163.033 1104.03 Q166.667 1104.03 168.473 1100.49 Q170.302 1096.93 170.302 1089.82 Q170.302 1082.69 168.473 1079.15 Q166.667 1075.58 163.033 1075.58 M163.033 1071.88 Q168.843 1071.88 171.899 1076.49 Q174.977 1081.07 174.977 1089.82 Q174.977 1098.55 171.899 1103.15 Q168.843 1107.74 163.033 1107.74 Q157.223 1107.74 154.144 1103.15 Q151.089 1098.55 151.089 1089.82 Q151.089 1081.07 154.144 1076.49 Q157.223 1071.88 163.033 1071.88 Z" fill="#000000" fill-rule="nonzero" fill-opacity="1" /><path clip-path="url(#clip780)" d="M183.195 1101.18 L188.079 1101.18 L188.079 1107.06 L183.195 1107.06 L183.195 1101.18 Z" fill="#000000" fill-rule="nonzero" fill-opacity="1" /><path clip-path="url(#clip780)" d="M208.264 1075.58 Q204.653 1075.58 202.824 1079.15 Q201.019 1082.69 201.019 1089.82 Q201.019 1096.93 202.824 1100.49 Q204.653 1104.03 208.264 1104.03 Q211.899 1104.03 213.704 1100.49 Q215.533 1096.93 215.533 1089.82 Q215.533 1082.69 213.704 1079.15 Q211.899 1075.58 208.264 1075.58 M208.264 1071.88 Q214.074 1071.88 217.13 1076.49 Q220.209 1081.07 220.209 1089.82 Q220.209 1098.55 217.13 1103.15 Q214.074 1107.74 208.264 1107.74 Q202.454 1107.74 199.375 1103.15 Q196.32 1098.55 196.32 1089.82 Q196.32 1081.07 199.375 1076.49 Q202.454 1071.88 208.264 1071.88 Z" fill="#000000" fill-rule="nonzero" fill-opacity="1" /><path clip-path="url(#clip780)" d="M164.028 805.939 Q160.417 805.939 158.589 809.504 Q156.783 813.045 156.783 820.175 Q156.783 827.281 158.589 830.846 Q160.417 834.388 164.028 834.388 Q167.663 834.388 169.468 830.846 Q171.297 827.281 171.297 820.175 Q171.297 813.045 169.468 809.504 Q167.663 805.939 164.028 805.939 M164.028 802.235 Q169.839 802.235 172.894 806.842 Q175.973 811.425 175.973 820.175 Q175.973 828.902 172.894 833.508 Q169.839 838.092 164.028 838.092 Q158.218 838.092 155.14 833.508 Q152.084 828.902 152.084 820.175 Q152.084 811.425 155.14 806.842 Q158.218 802.235 164.028 802.235 Z" fill="#000000" fill-rule="nonzero" fill-opacity="1" /><path clip-path="url(#clip780)" d="M184.19 831.541 L189.075 831.541 L189.075 837.42 L184.19 837.42 L184.19 831.541 Z" fill="#000000" fill-rule="nonzero" fill-opacity="1" /><path clip-path="url(#clip780)" d="M199.306 802.86 L217.662 802.86 L217.662 806.795 L203.588 806.795 L203.588 815.268 Q204.607 814.92 205.625 814.758 Q206.644 814.573 207.662 814.573 Q213.449 814.573 216.829 817.745 Q220.209 820.916 220.209 826.332 Q220.209 831.911 216.736 835.013 Q213.264 838.092 206.945 838.092 Q204.769 838.092 202.5 837.721 Q200.255 837.351 197.848 836.61 L197.848 831.911 Q199.931 833.045 202.153 833.601 Q204.375 834.156 206.852 834.156 Q210.857 834.156 213.195 832.05 Q215.533 829.944 215.533 826.332 Q215.533 822.721 213.195 820.615 Q210.857 818.508 206.852 818.508 Q204.977 818.508 203.102 818.925 Q201.25 819.342 199.306 820.221 L199.306 802.86 Z" fill="#000000" fill-rule="nonzero" fill-opacity="1" /><path clip-path="url(#clip780)" d="M153.843 563.841 L161.482 563.841 L161.482 537.475 L153.172 539.142 L153.172 534.883 L161.436 533.216 L166.112 533.216 L166.112 563.841 L173.751 563.841 L173.751 567.776 L153.843 567.776 L153.843 563.841 Z" fill="#000000" fill-rule="nonzero" fill-opacity="1" /><path clip-path="url(#clip780)" d="M183.195 561.896 L188.079 561.896 L188.079 567.776 L183.195 567.776 L183.195 561.896 Z" fill="#000000" fill-rule="nonzero" fill-opacity="1" /><path clip-path="url(#clip780)" d="M208.264 536.295 Q204.653 536.295 202.824 539.86 Q201.019 543.401 201.019 550.531 Q201.019 557.637 202.824 561.202 Q204.653 564.744 208.264 564.744 Q211.899 564.744 213.704 561.202 Q215.533 557.637 215.533 550.531 Q215.533 543.401 213.704 539.86 Q211.899 536.295 208.264 536.295 M208.264 532.591 Q214.074 532.591 217.13 537.198 Q220.209 541.781 220.209 550.531 Q220.209 559.258 217.13 563.864 Q214.074 568.447 208.264 568.447 Q202.454 568.447 199.375 563.864 Q196.32 559.258 196.32 550.531 Q196.32 541.781 199.375 537.198 Q202.454 532.591 208.264 532.591 Z" fill="#000000" fill-rule="nonzero" fill-opacity="1" /><path clip-path="url(#clip780)" d="M154.839 294.197 L162.477 294.197 L162.477 267.831 L154.167 269.498 L154.167 265.239 L162.431 263.572 L167.107 263.572 L167.107 294.197 L174.746 294.197 L174.746 298.132 L154.839 298.132 L154.839 294.197 Z" fill="#000000" fill-rule="nonzero" fill-opacity="1" /><path clip-path="url(#clip780)" d="M184.19 292.252 L189.075 292.252 L189.075 298.132 L184.19 298.132 L184.19 292.252 Z" fill="#000000" fill-rule="nonzero" fill-opacity="1" /><path clip-path="url(#clip780)" d="M199.306 263.572 L217.662 263.572 L217.662 267.507 L203.588 267.507 L203.588 275.979 Q204.607 275.632 205.625 275.47 Q206.644 275.285 207.662 275.285 Q213.449 275.285 216.829 278.456 Q220.209 281.627 220.209 287.044 Q220.209 292.623 216.736 295.724 Q213.264 298.803 206.945 298.803 Q204.769 298.803 202.5 298.433 Q200.255 298.062 197.848 297.322 L197.848 292.623 Q199.931 293.757 202.153 294.312 Q204.375 294.868 206.852 294.868 Q210.857 294.868 213.195 292.762 Q215.533 290.655 215.533 287.044 Q215.533 283.433 213.195 281.326 Q210.857 279.22 206.852 279.22 Q204.977 279.22 203.102 279.637 Q201.25 280.053 199.306 280.933 L199.306 263.572 Z" fill="#000000" fill-rule="nonzero" fill-opacity="1" /><path clip-path="url(#clip780)" d="M30.8561 720.775 Q31.307 720.775 32.3698 721.064 L57.5548 727.377 Q63.1586 728.762 67.0877 733.27 Q71.0168 737.747 71.0168 742.836 Q71.0168 745.895 69.3743 747.86 Q67.764 749.824 65.2842 749.824 Q63.0942 749.824 62.0314 748.665 Q61.0008 747.505 61.0008 746.121 Q61.0008 745.67 61.1296 745.187 Q61.2584 744.703 61.8059 744.188 Q62.3534 743.673 63.2874 743.673 Q64.8011 743.673 65.9927 744.993 Q66.5402 745.637 66.669 746.249 Q66.7978 746.829 66.7978 747.827 Q67.6996 747.441 68.3115 746.732 Q68.9234 746.024 69.1489 745.219 Q69.4065 744.414 69.4709 743.898 Q69.5675 743.351 69.5675 742.836 Q69.5675 738.713 65.413 735.557 Q64.157 734.623 62.9009 733.947 Q61.6771 733.238 60.1634 732.723 Q58.682 732.208 57.8768 731.982 Q57.0717 731.725 55.2359 731.274 Q58.2311 734.269 58.2311 737.94 Q58.2311 739.486 57.8124 740.871 Q57.3937 742.224 56.5242 743.415 Q55.6224 744.607 54.0443 745.315 Q52.4662 745.992 50.3728 745.992 Q48.1506 745.992 45.1233 745.122 Q42.0959 744.253 36.5243 742.159 Q33.4004 741.032 31.8867 741.032 Q31.146 741.032 30.6951 741.193 Q30.212 741.354 30.051 741.676 Q29.8577 741.998 29.8255 742.191 Q29.7933 742.352 29.7933 742.675 Q29.7933 744.575 31.7257 746.346 Q33.658 748.117 37.9736 749.341 Q38.7787 749.599 38.972 749.76 Q39.1652 749.921 39.1652 750.404 Q39.133 751.209 38.4889 751.209 Q38.2312 751.209 37.2329 750.919 Q36.2023 750.629 34.6886 749.953 Q33.1427 749.245 31.7579 748.278 Q30.3408 747.312 29.3424 745.798 Q28.344 744.253 28.344 742.481 Q28.344 740.066 29.9221 738.584 Q31.468 737.071 33.7546 737.071 Q34.6886 737.071 35.5259 737.328 Q36.3311 737.554 38.4889 738.391 Q47.1845 741.773 51.4356 741.773 Q52.4662 741.773 53.3358 741.612 Q54.1731 741.418 55.0105 741 Q55.8156 740.581 56.2987 739.744 Q56.7496 738.874 56.7496 737.683 Q56.7496 736.169 56.0411 734.752 Q55.3003 733.303 54.302 732.401 Q53.3036 731.467 52.4662 730.919 Q51.5967 730.34 51.1458 730.211 L39.294 727.248 L34.0123 725.927 Q31.146 725.316 30.4374 725.026 Q29.7611 724.639 29.4068 723.963 Q29.0526 723.287 29.0526 722.707 Q29.0526 721.902 29.5357 721.354 Q30.0187 720.775 30.8561 720.775 Z" fill="#000000" fill-rule="nonzero" fill-opacity="1" /><polyline clip-path="url(#clip782)" style="stroke:#1f77b4; stroke-linecap:round; stroke-linejoin:round; stroke-width:8; stroke-opacity:1; fill:none" stroke-dasharray="32, 20" points="315.545,1089.78 319.408,1058.48 323.271,1054.77 327.134,1050.67 330.997,1024.63 334.86,1028.43 338.723,1061.69 342.586,1065.41 346.449,1041.29 350.312,1052.53 354.175,1084.07 358.038,1058.93 361.901,1027.31 365.764,998.385 369.627,981.023 373.49,982.513 377.353,969.014 381.217,967.588 385.08,981.483 388.943,1073.85 392.806,1133.39 396.669,1114.05 400.532,1116.35 404.395,1150.35 408.258,1144.3 412.121,1107.16 415.984,1100.02 419.847,1061.75 423.71,1069.86 427.573,1086.65 431.436,1124.63 435.299,1137.27 439.162,1136.8 443.025,1152.54 446.888,1113.99 450.751,1119.43 454.614,1177.86 458.477,1153.85 462.34,1144.57 466.203,1173.03 470.066,1123.71 473.929,1198.26 477.792,1208.87 481.655,1252.5 485.519,1300.45 489.382,1264.56 493.245,1231.65 497.108,1168.45 500.971,1166.02 504.834,1151.78 508.697,1167.48 512.56,1148.35 516.423,1111.15 520.286,1057.15 524.149,1042.9 528.012,1019.63 531.875,1042.85 535.738,1005.8 539.601,1065.9 543.464,1014.36 547.327,997.505 551.19,1037.83 555.053,1046.23 558.916,1006.25 562.779,971.69 566.642,943.487 570.505,948.664 574.368,962.85 578.231,1037.58 582.094,1043.87 585.957,1051.12 589.821,1033.92 593.684,1034.53 597.547,999.487 601.41,958.519 605.273,939.339 609.136,925.182 612.999,841.814 616.862,856.892 620.725,865.246 624.588,877.345 628.451,905.029 632.314,942.292 636.177,962.439 640.04,941.158 643.903,904.396 647.766,890.328 651.629,925.25 655.492,920.972 659.355,898.574 663.218,923.547 667.081,928.55 670.944,882.842 674.807,914.157 678.67,949.659 682.533,980.707 686.396,955.282 690.259,982.221 694.122,1006.14 697.986,957.13 701.849,982.396 705.712,1023.58 709.575,1067.66 713.438,1114.63 717.301,1092.57 721.164,1112.96 725.027,1093.85 728.89,1126.06 732.753,1131.44 736.616,1119.79 740.479,1029.49 744.342,1004.43 748.205,1042.96 752.068,1048.85 755.931,1011.07 759.794,1042.26 763.657,1011.27 767.52,990.415 771.383,1022.86 775.246,1057.79 779.109,1038.86 782.972,1034.45 786.835,974.993 790.698,949.509 794.561,965.732 798.424,995.829 802.288,1022.73 806.151,1054.04 810.014,1048.13 813.877,1077.47 817.74,1074.52 821.603,1089.83 825.466,1143.07 829.329,1196.55 833.192,1157.67 837.055,1148.16 840.918,1160.72 844.781,1162.07 848.644,1166.33 852.507,1176.78 856.37,1122.02 860.233,1096.23 864.096,1090.88 867.959,1071.53 871.822,1088.78 875.685,1040.74 879.548,1066.98 883.411,1052.65 887.274,1079.9 891.137,1140.37 895,1143.48 898.863,1096.16 902.726,1097.38 906.59,1105.56 910.453,1070.24 914.316,1140.09 918.179,1122.16 922.042,1105.93 925.905,1058.31 929.768,1022 933.631,997.373 937.494,1019 941.357,1039.64 945.22,1044.96 949.083,1021.28 952.946,1053.56 956.809,1062.41 960.672,1048.98 964.535,1073.12 968.398,1090.9 972.261,1105.72 976.124,1059.29 979.987,1050.55 983.85,1032.47 987.713,1066.58 991.576,1063.99 995.439,1086.92 999.302,999.395 1003.17,990.515 1007.03,971.326 1010.89,1006.72 1014.75,978.048 1018.62,976.093 1022.48,959.742 1026.34,962.513 1030.21,978.507 1034.07,963.715 1037.93,992.797 1041.8,993.271 1045.66,1031.39 1049.52,1061.11 1053.38,1068.62 1057.25,1051.74 1061.11,1108.45 1064.97,1076.08 1068.84,1050.72 1072.7,1050.29 1076.56,1088.65 1080.43,1083.16 1084.29,1103.62 1088.15,1140.28 1092.02,1147.4 1095.88,1138.88 1099.74,1188.48 1103.6,1236.16 1107.47,1241.88 1111.33,1220.83 1115.19,1287.9 1119.06,1294.93 1122.92,1262.02 1126.78,1203.08 1130.65,1235.6 1134.51,1208.07 1138.37,1174.5 1142.23,1144.25 1146.1,1091.33 1149.96,1130.37 1153.82,1138.3 1157.69,1151.63 1161.55,1103.05 1165.41,1142.01 1169.28,1160.25 1173.14,1150.7 1177,1136.05 1180.87,1158.67 1184.73,1131.63 1188.59,1125.41 1192.45,1107.58 1196.32,1093.14 1200.18,1072.98 1204.04,1053.11 1207.91,1097.91 1211.77,1125.61 1215.63,1106.96 1219.5,1132.98 1223.36,1138.38 1227.22,1146.7 1231.08,1170.47 1234.95,1147.18 1238.81,1097 1242.67,1098.74 1246.54,1159.39 1250.4,1181.33 1254.26,1254.28 1258.13,1269.98 1261.99,1228.34 1265.85,1226.68 1269.71,1179.82 1273.58,1157.51 1277.44,1128.71 1281.3,1110.84 1285.17,1132.73 1289.03,1125.72 1292.89,1089.02 1296.76,1097.91 1300.62,1086.13 1304.48,1064.63 1308.35,1129.01 1312.21,1115.1 1316.07,1143.02 1319.93,1102.82 1323.8,1087.13 1327.66,1164.32 1331.52,1151.9 1335.39,1129.27 1339.25,1114.95 1343.11,1110.01 1346.98,1080.06 1350.84,1141.46 1354.7,1156.43 1358.56,1174.13 1362.43,1166.71 1366.29,1151.93 1370.15,1139.98 1374.02,1115.44 1377.88,1141.88 1381.74,1122.53 1385.61,1174.92 1389.47,1202.34 1393.33,1183.15 1397.2,1174.77 1401.06,1134.01 1404.92,1089.63 1408.78,1129.37 1412.65,1170.93 1416.51,1150.89 1420.37,1139.4 1424.24,1177.2 1428.1,1194.52 1431.96,1287.92 1435.83,1325.47 1439.69,1315.83 1443.55,1333.42 1447.41,1369.76 1451.28,1378.89 1455.14,1365.58 1459,1310.28 1462.87,1308.65 1466.73,1287.54 1470.59,1251.37 1474.46,1235.12 1478.32,1193.78 1482.18,1190.65 1486.05,1194.02 1489.91,1196.68 1493.77,1214.12 1497.63,1221.78 1501.5,1205.52 1505.36,1211.53 1509.22,1242.09 1513.09,1295.07 1516.95,1322.34 1520.81,1322.18 1524.68,1348.15 1528.54,1347.73 1532.4,1384.24 1536.26,1379.76 1540.13,1368.64 1543.99,1329.53 1547.85,1341.33 1551.72,1336.13 1555.58,1342.79 1559.44,1295.08 1563.31,1262.76 1567.17,1242.66 1571.03,1284.88 1574.89,1268.03 1578.76,1204.94 1582.62,1231.23 1586.48,1218.66 1590.35,1215.41 1594.21,1268.44 1598.07,1261.75 1601.94,1245.93 1605.8,1260.99 1609.66,1293.52 1613.53,1283.37 1617.39,1261.92 1621.25,1219.76 1625.11,1218.04 1628.98,1240.01 1632.84,1225.89 1636.7,1254.19 1640.57,1261.96 1644.43,1204.75 1648.29,1184.12 1652.16,1189.31 1656.02,1165.99 1659.88,1148.33 1663.74,1104.98 1667.61,1146.53 1671.47,1120.56 1675.33,1098.33 1679.2,1132.16 1683.06,1150.57 1686.92,1180.93 1690.79,1164.62 1694.65,1144.43 1698.51,1154.18 1702.38,1140.12 1706.24,1125.84 1710.1,1121.02 1713.96,1138.26 1717.83,1159.81 1721.69,1101.99 1725.55,1139.9 1729.42,1136.95 1733.28,1115.15 1737.14,1180.56 1741.01,1201.08 1744.87,1207.5 1748.73,1205.21 1752.59,1223.97 1756.46,1180.17 1760.32,1160.15 1764.18,1204.46 1768.05,1271.83 1771.91,1269.72 1775.77,1263.46 1779.64,1281.7 1783.5,1328.12 1787.36,1294.72 1791.22,1280.91 1795.09,1228.63 1798.95,1243.42 1802.81,1214.45 1806.68,1221.27 1810.54,1226.74 1814.4,1270.89 1818.27,1274.67 1822.13,1277.69 1825.99,1264.23 1829.86,1279.42 1833.72,1201.56 1837.58,1239.2 1841.44,1204.66 1845.31,1212.83 1849.17,1179.4 1853.03,1165.95 1856.9,1217.75 1860.76,1215.89 1864.62,1192.91 1868.49,1181 1872.35,1203 1876.21,1154.99 1880.07,1102.16 1883.94,1079.37 1887.8,1025.32 1891.66,1042.84 1895.53,1052.12 1899.39,1034.67 1903.25,1068.6 1907.12,1089.14 1910.98,1046.2 1914.84,996.715 1918.71,1020.86 1922.57,1014.38 1926.43,1061.81 1930.29,1053.52 1934.16,1072.77 1938.02,1068.09 1941.88,1079.55 1945.75,1095.52 1949.61,1091.29 1953.47,1023.62 1957.34,1012.5 1961.2,997.294 1965.06,1022.72 1968.92,1016.64 1972.79,964.5 1976.65,928.419 1980.51,961.358 1984.38,897.706 1988.24,880.011 1992.1,862.233 1995.97,847.862 1999.83,897.012 2003.69,906.805 2007.55,929.069 2011.42,898.982 2015.28,897.904 2019.14,904.142 2023.01,934.928 2026.87,922.182 2030.73,872.455 2034.6,970.04 2038.46,998.014 2042.32,967.085 2046.19,932.814 2050.05,945.617 2053.91,954.283 2057.77,972.109 2061.64,938.9 2065.5,990.418 2069.36,1016.93 2073.23,954.068 2077.09,942.278 2080.95,969.118 2084.82,923.864 2088.68,912.226 2092.54,913.295 2096.4,940.415 2100.27,1034.34 2104.13,1056.49 2107.99,1069.48 2111.86,1072.84 2115.72,1033.94 2119.58,1021.25 2123.45,1045.83 2127.31,1104.95 2131.17,1072.37 2135.04,1046.85 2138.9,1009.14 2142.76,993.533 2146.62,979.719 2150.49,1019.9 2154.35,1030.78 2158.21,1011.67 2162.08,1029.89 2165.94,1015.03 2169.8,992.256 2173.67,980.447 2177.53,995.429 2181.39,1035.5 2185.25,1015.61 2189.12,1039.61 2192.98,1080.94 2196.84,1089.59 2200.71,1119.66 2204.57,1116.88 2208.43,1089.29 2212.3,1098.45 2216.16,1135.36 2220.02,1155.09 2223.89,1186.74 2227.75,1193.53 2231.61,1181.54 2235.47,1181.6 2239.34,1224.12 2243.2,1210.79 2247.06,1242.41 2250.93,1252.74 2254.79,1206.16 2258.65,1218.47 2262.52,1221.2 2266.38,1235.2 2270.24,1205.74 2274.1,1247.91 2277.97,1256.83 2281.83,1274.36 2285.69,1291.42 2289.56,1284.55 2293.42,1288.81 "/>
<polyline clip-path="url(#clip782)" style="stroke:#ff7e0d; stroke-linecap:round; stroke-linejoin:round; stroke-width:8; stroke-opacity:1; fill:none" stroke-dasharray="32, 16, 4, 16" points="315.545,981.927 319.408,977.79 323.271,980.702 327.134,979.496 330.997,974.764 334.86,973.535 338.723,976.752 342.586,971.648 346.449,972.69 350.312,973.662 354.175,972.244 358.038,976.067 361.901,976.073 365.764,979.016 369.627,981.758 373.49,978.451 377.353,979.366 381.217,979.264 385.08,984.999 388.943,986.422 392.806,992.569 396.669,995.142 400.532,996.987 404.395,997.045 408.258,993.556 412.121,993.569 415.984,997.006 419.847,995.952 423.71,998.469 427.573,1000.47 431.436,1003.6 435.299,1001.47 439.162,1001.5 443.025,999.434 446.888,999.703 450.751,1002.64 454.614,1004.22 458.477,1006.02 462.34,1006.85 466.203,1007.04 470.066,1007.88 473.929,1003.74 477.792,993.921 481.655,993.744 485.519,990.22 489.382,988.984 493.245,990.225 497.108,992.647 500.971,993.398 504.834,987.608 508.697,993.385 512.56,994.403 516.423,993.51 520.286,989.788 524.149,989.074 528.012,987.874 531.875,988.983 535.738,989.478 539.601,996.871 543.464,994.99 547.327,996.582 551.19,996.953 555.053,995.355 558.916,995.033 562.779,994.633 566.642,997.069 570.505,996.079 574.368,1003.33 578.231,1006.61 582.094,1005.03 585.957,1004.83 589.821,1005.07 593.684,1007.41 597.547,1005.95 601.41,1004.86 605.273,1001.93 609.136,999.546 612.999,998.129 616.862,997.467 620.725,996.08 624.588,997.351 628.451,994.818 632.314,992.902 636.177,992.016 640.04,991.276 643.903,989.745 647.766,986.151 651.629,986.697 655.492,991.177 659.355,993.238 663.218,997.774 667.081,1001.66 670.944,1003.61 674.807,998.002 678.67,996.898 682.533,994.697 686.396,994.194 690.259,995.283 694.122,993.238 697.986,993.652 701.849,995.841 705.712,997.837 709.575,999.16 713.438,1004.23 717.301,1003.67 721.164,1006.8 725.027,1008.65 728.89,1008.88 732.753,1005.76 736.616,1006.76 740.479,1007.79 744.342,1006.83 748.205,1006.41 752.068,1003.94 755.931,1001.86 759.794,997.872 763.657,996.335 767.52,994.945 771.383,992.585 775.246,994.922 779.109,998.729 782.972,997.046 786.835,997.298 790.698,1000.87 794.561,1004.94 798.424,1004.21 802.288,1005.93 806.151,1005.29 810.014,1005.47 813.877,1004.31 817.74,1001.86 821.603,1003.42 825.466,1000.54 829.329,999.368 833.192,1001.19 837.055,1006.28 840.918,1004.94 844.781,1006.36 848.644,1005.13 852.507,1003.9 856.37,1004.14 860.233,1003.65 864.096,1002.37 867.959,1003.28 871.822,1008.81 875.685,1010.07 879.548,1008.28 883.411,1011.41 887.274,1016.16 891.137,1017.2 895,1019.3 898.863,1020.46 902.726,1017.79 906.59,1019.81 910.453,1021.97 914.316,1022.09 918.179,1021.48 922.042,1025.25 925.905,1025.54 929.768,1027.62 933.631,1028.24 937.494,1030.61 941.357,1029.44 945.22,1029.86 949.083,1028.69 952.946,1027.46 956.809,1028.55 960.672,1029.82 964.535,1030.25 968.398,1030.57 972.261,1029.42 976.124,1028.02 979.987,1030.71 983.85,1031.71 987.713,1032.64 991.576,1031.8 995.439,1034.04 999.302,1032.95 1003.17,1032.37 1007.03,1033.56 1010.89,1034.28 1014.75,1032.51 1018.62,1029.99 1022.48,1032.2 1026.34,1031.82 1030.21,1032.64 1034.07,1032.03 1037.93,1032.77 1041.8,1035.92 1045.66,1036.48 1049.52,1040.32 1053.38,1039.14 1057.25,1038.27 1061.11,1039.13 1064.97,1040.99 1068.84,1039.18 1072.7,1039.6 1076.56,1040.19 1080.43,1038.58 1084.29,1037.97 1088.15,1038.27 1092.02,1040 1095.88,1038.72 1099.74,1037.62 1103.6,1037.38 1107.47,1038.92 1111.33,1039.15 1115.19,1039.41 1119.06,1041.43 1122.92,1038.94 1126.78,1038.82 1130.65,1037.65 1134.51,1038.62 1138.37,1037.76 1142.23,1041.18 1146.1,1041.64 1149.96,1040.46 1153.82,1037.21 1157.69,1036.75 1161.55,1038.88 1165.41,1038.26 1169.28,1036.77 1173.14,1035.19 1177,1031.15 1180.87,1029.58 1184.73,1027.84 1188.59,1026.07 1192.45,1028.83 1196.32,1024.81 1200.18,1022.89 1204.04,1019.48 1207.91,1022.86 1211.77,1020.15 1215.63,1018.14 1219.5,1021.02 1223.36,1020.89 1227.22,1023.6 1231.08,1024.94 1234.95,1024.42 1238.81,1025.41 1242.67,1030.1 1246.54,1030.05 1250.4,1030.56 1254.26,1032.87 1258.13,1034.55 1261.99,1034.78 1265.85,1033.33 1269.71,1033.73 1273.58,1035.16 1277.44,1038.03 1281.3,1038.29 1285.17,1038.38 1289.03,1034.52 1292.89,1035.07 1296.76,1035.95 1300.62,1035 1304.48,1035.33 1308.35,1038.69 1312.21,1040.16 1316.07,1038.48 1319.93,1038.84 1323.8,1037.73 1327.66,1035.41 1331.52,1035.12 1335.39,1034.88 1339.25,1032.82 1343.11,1029.23 1346.98,1027.1 1350.84,1024.42 1354.7,1023.22 1358.56,1026.39 1362.43,1027.96 1366.29,1025.86 1370.15,1024.14 1374.02,1022.47 1377.88,1024.6 1381.74,1022.4 1385.61,1022.37 1389.47,1022.56 1393.33,1025.38 1397.2,1024.28 1401.06,1027.58 1404.92,1022.97 1408.78,1022.7 1412.65,1023.3 1416.51,1026.39 1420.37,1024.68 1424.24,1025.85 1428.1,1026.06 1431.96,1025.1 1435.83,1026.91 1439.69,1023.16 1443.55,1027.39 1447.41,1028.21 1451.28,1030.66 1455.14,1031.57 1459,1029.44 1462.87,1030.24 1466.73,1028.29 1470.59,1027.98 1474.46,1028.66 1478.32,1027.4 1482.18,1026.93 1486.05,1024.48 1489.91,1022.5 1493.77,1020.14 1497.63,1023.13 1501.5,1025.09 1505.36,1022.79 1509.22,1024.79 1513.09,1024.96 1516.95,1024.66 1520.81,1026.91 1524.68,1025.34 1528.54,1026.88 1532.4,1024.59 1536.26,1021.1 1540.13,1024.43 1543.99,1022.01 1547.85,1019.92 1551.72,1019.78 1555.58,1020.97 1559.44,1021.05 1563.31,1020.51 1567.17,1022.04 1571.03,1019 1574.89,1017.2 1578.76,1016.97 1582.62,1017.02 1586.48,1014.19 1590.35,1009.2 1594.21,1003.84 1598.07,1002.55 1601.94,1002.3 1605.8,1006.22 1609.66,1003.82 1613.53,1002.3 1617.39,997.361 1621.25,995.977 1625.11,997.747 1628.98,994.852 1632.84,995.738 1636.7,996.182 1640.57,1001.08 1644.43,994.501 1648.29,997.225 1652.16,999.641 1656.02,996.195 1659.88,998.595 1663.74,998.869 1667.61,1000.53 1671.47,1002.81 1675.33,1008.33 1679.2,1009.58 1683.06,1008.53 1686.92,1007.64 1690.79,1009.85 1694.65,1009.13 1698.51,1009.76 1702.38,1012.18 1706.24,1018.03 1710.1,1018.75 1713.96,1018.29 1717.83,1016.31 1721.69,1017.43 1725.55,1019.61 1729.42,1021.65 1733.28,1022.79 1737.14,1024.14 1741.01,1019.86 1744.87,1018.67 1748.73,1016.39 1752.59,1016.25 1756.46,1018.13 1760.32,1014.67 1764.18,1013.34 1768.05,1014.63 1771.91,1015.36 1775.77,1013.47 1779.64,1018.31 1783.5,1019.84 1787.36,1020.39 1791.22,1021.72 1795.09,1017.39 1798.95,1018.39 1802.81,1022.01 1806.68,1022.08 1810.54,1020.85 1814.4,1021.97 1818.27,1019.11 1822.13,1019.02 1825.99,1016.15 1829.86,1017.8 1833.72,1021.69 1837.58,1021.97 1841.44,1023.21 1845.31,1023.23 1849.17,1022.47 1853.03,1023.78 1856.9,1026.13 1860.76,1025.71 1864.62,1023.11 1868.49,1022.87 1872.35,1023.52 1876.21,1022.25 1880.07,1021.15 1883.94,1019.75 1887.8,1017.91 1891.66,1021.18 1895.53,1019.42 1899.39,1021.99 1903.25,1025.69 1907.12,1025.85 1910.98,1029.24 1914.84,1032.35 1918.71,1029.63 1922.57,1030.1 1926.43,1031.43 1930.29,1032.14 1934.16,1033.33 1938.02,1032.44 1941.88,1029.59 1945.75,1032.4 1949.61,1031.37 1953.47,1032.37 1957.34,1031.58 1961.2,1033.3 1965.06,1035.42 1968.92,1033.84 1972.79,1033.19 1976.65,1032.23 1980.51,1030.47 1984.38,1032.58 1988.24,1030.73 1992.1,1032.78 1995.97,1033.1 1999.83,1032.16 2003.69,1030.85 2007.55,1030.93 2011.42,1031.83 2015.28,1029.76 2019.14,1030.46 2023.01,1030.17 2026.87,1029.02 2030.73,1026.87 2034.6,1025.49 2038.46,1026.06 2042.32,1026.2 2046.19,1026.75 2050.05,1027.83 2053.91,1030.53 2057.77,1032.14 2061.64,1031.75 2065.5,1032.82 2069.36,1032.45 2073.23,1030.87 2077.09,1027.53 2080.95,1026.36 2084.82,1026.78 2088.68,1026.67 2092.54,1025.89 2096.4,1023.23 2100.27,1022.84 2104.13,1020.39 2107.99,1018.09 2111.86,1018.75 2115.72,1016.09 2119.58,1013.98 2123.45,1016.64 2127.31,1017.05 2131.17,1017.61 2135.04,1018.53 2138.9,1015.76 2142.76,1016.89 2146.62,1012.85 2150.49,1011.79 2154.35,1009.9 2158.21,1010.1 2162.08,1011.57 2165.94,1009.96 2169.8,1007.87 2173.67,1008.12 2177.53,1004.31 2181.39,1007.46 2185.25,1008.32 2189.12,1009.93 2192.98,1006.23 2196.84,1008.01 2200.71,1005.76 2204.57,1008.85 2208.43,1008.53 2212.3,1011.09 2216.16,1013.03 2220.02,1009.18 2223.89,1009 2227.75,1010.83 2231.61,1010.87 2235.47,1008.95 2239.34,1009.82 2243.2,1009.34 2247.06,1009.76 2250.93,1011.04 2254.79,1008.66 2258.65,1008.66 2262.52,1009.26 2266.38,1007.67 2270.24,1011.12 2274.1,1006.29 2277.97,1008.95 2281.83,1012.06 2285.69,1012.8 2289.56,1012.77 2293.42,1013.04 "/>
<polyline clip-path="url(#clip782)" style="stroke:#2ba02b; stroke-linecap:round; stroke-linejoin:round; stroke-width:8; stroke-opacity:1; fill:none" stroke-dasharray="32, 16, 4, 16, 4, 16" points="315.545,1089.78 319.408,1089.78 323.271,1089.78 327.134,1032.49 330.997,1032.49 334.86,1032.49 338.723,1032.49 342.586,1032.49 346.449,1032.49 350.312,1032.49 354.175,1032.49 358.038,1032.49 361.901,1032.49 365.764,946.292 369.627,918.305 373.49,918.305 377.353,918.305 381.217,918.305 385.08,918.305 388.943,918.305 392.806,841.103 396.669,841.103 400.532,841.103 404.395,841.103 408.258,781.957 412.121,781.957 415.984,781.957 419.847,781.957 423.71,781.957 427.573,781.957 431.436,781.957 435.299,781.957 439.162,781.957 443.025,781.957 446.888,781.957 450.751,781.957 454.614,781.957 458.477,781.957 462.34,781.957 466.203,781.957 470.066,781.957 473.929,781.957 477.792,781.957 481.655,781.957 485.519,781.957 489.382,781.957 493.245,781.957 497.108,781.957 500.971,760.232 504.834,760.232 508.697,760.232 512.56,760.232 516.423,760.232 520.286,760.232 524.149,760.232 528.012,760.232 531.875,760.232 535.738,760.232 539.601,760.232 543.464,760.232 547.327,760.232 551.19,760.232 555.053,760.232 558.916,760.232 562.779,760.232 566.642,760.232 570.505,760.232 574.368,760.232 578.231,760.232 582.094,760.232 585.957,760.232 589.821,760.232 593.684,760.232 597.547,760.232 601.41,760.232 605.273,760.232 609.136,760.232 612.999,760.232 616.862,760.232 620.725,760.232 624.588,760.232 628.451,760.232 632.314,760.232 636.177,760.232 640.04,760.232 643.903,760.232 647.766,760.232 651.629,760.232 655.492,760.232 659.355,760.232 663.218,760.232 667.081,760.232 670.944,760.232 674.807,760.232 678.67,760.232 682.533,760.232 686.396,760.232 690.259,760.232 694.122,760.232 697.986,760.232 701.849,760.232 705.712,760.232 709.575,760.232 713.438,760.232 717.301,760.232 721.164,760.232 725.027,760.232 728.89,760.232 732.753,760.232 736.616,760.232 740.479,760.232 744.342,760.232 748.205,760.232 752.068,760.232 755.931,760.232 759.794,760.232 763.657,760.232 767.52,760.232 771.383,760.232 775.246,760.232 779.109,760.232 782.972,760.232 786.835,760.232 790.698,749.316 794.561,749.316 798.424,749.316 802.288,749.316 806.151,749.316 810.014,749.316 813.877,749.316 817.74,749.316 821.603,749.316 825.466,749.316 829.329,749.316 833.192,749.316 837.055,749.316 840.918,749.316 844.781,749.316 848.644,749.316 852.507,749.316 856.37,749.316 860.233,749.316 864.096,749.316 867.959,749.316 871.822,749.316 875.685,749.316 879.548,749.316 883.411,749.316 887.274,749.316 891.137,749.316 895,749.316 898.863,749.316 902.726,749.316 906.59,749.316 910.453,749.316 914.316,749.316 918.179,749.316 922.042,749.316 925.905,749.316 929.768,749.316 933.631,749.316 937.494,749.316 941.357,749.316 945.22,749.316 949.083,749.316 952.946,749.316 956.809,749.316 960.672,746.856 964.535,740.264 968.398,740.264 972.261,740.264 976.124,638.696 979.987,638.696 983.85,638.696 987.713,638.696 991.576,638.696 995.439,638.696 999.302,638.696 1003.17,576.559 1007.03,576.559 1010.89,576.559 1014.75,576.559 1018.62,576.559 1022.48,576.559 1026.34,576.559 1030.21,576.559 1034.07,576.559 1037.93,576.559 1041.8,576.559 1045.66,576.559 1049.52,576.559 1053.38,576.559 1057.25,576.559 1061.11,576.559 1064.97,576.559 1068.84,576.559 1072.7,576.559 1076.56,576.559 1080.43,576.559 1084.29,576.559 1088.15,576.559 1092.02,576.559 1095.88,576.559 1099.74,576.559 1103.6,576.559 1107.47,576.559 1111.33,576.559 1115.19,576.559 1119.06,576.559 1122.92,527.049 1126.78,527.049 1130.65,527.049 1134.51,527.049 1138.37,527.049 1142.23,527.049 1146.1,527.049 1149.96,527.049 1153.82,527.049 1157.69,527.049 1161.55,527.049 1165.41,527.049 1169.28,527.049 1173.14,527.049 1177,527.049 1180.87,527.049 1184.73,527.049 1188.59,527.049 1192.45,527.049 1196.32,527.049 1200.18,527.049 1204.04,527.049 1207.91,527.049 1211.77,527.049 1215.63,527.049 1219.5,527.049 1223.36,527.049 1227.22,527.049 1231.08,527.049 1234.95,527.049 1238.81,527.049 1242.67,527.049 1246.54,527.049 1250.4,527.049 1254.26,527.049 1258.13,527.049 1261.99,527.049 1265.85,527.049 1269.71,527.049 1273.58,527.049 1277.44,527.049 1281.3,527.049 1285.17,527.049 1289.03,527.049 1292.89,527.049 1296.76,527.049 1300.62,527.049 1304.48,527.049 1308.35,527.049 1312.21,527.049 1316.07,527.049 1319.93,527.049 1323.8,527.049 1327.66,527.049 1331.52,527.049 1335.39,527.049 1339.25,527.049 1343.11,527.049 1346.98,527.049 1350.84,527.049 1354.7,527.049 1358.56,527.049 1362.43,527.049 1366.29,527.049 1370.15,527.049 1374.02,527.049 1377.88,527.049 1381.74,527.049 1385.61,527.049 1389.47,527.049 1393.33,527.049 1397.2,527.049 1401.06,527.049 1404.92,527.049 1408.78,527.049 1412.65,527.049 1416.51,489.547 1420.37,489.547 1424.24,489.547 1428.1,489.547 1431.96,489.547 1435.83,489.547 1439.69,489.547 1443.55,489.547 1447.41,489.547 1451.28,489.547 1455.14,489.547 1459,489.547 1462.87,489.547 1466.73,489.547 1470.59,489.547 1474.46,489.547 1478.32,489.547 1482.18,489.547 1486.05,489.547 1489.91,489.547 1493.77,489.547 1497.63,489.547 1501.5,489.547 1505.36,489.547 1509.22,489.547 1513.09,489.547 1516.95,489.547 1520.81,489.547 1524.68,489.547 1528.54,489.547 1532.4,489.547 1536.26,489.547 1540.13,489.547 1543.99,489.547 1547.85,489.547 1551.72,489.547 1555.58,489.547 1559.44,489.547 1563.31,489.547 1567.17,489.547 1571.03,489.547 1574.89,489.547 1578.76,489.547 1582.62,489.547 1586.48,489.547 1590.35,489.547 1594.21,489.547 1598.07,489.547 1601.94,489.547 1605.8,489.547 1609.66,489.547 1613.53,489.547 1617.39,489.547 1621.25,489.547 1625.11,489.547 1628.98,489.547 1632.84,489.547 1636.7,489.547 1640.57,489.547 1644.43,489.547 1648.29,489.547 1652.16,489.547 1656.02,489.547 1659.88,489.547 1663.74,489.547 1667.61,432.429 1671.47,432.429 1675.33,432.429 1679.2,417.766 1683.06,338.696 1686.92,338.696 1690.79,338.696 1694.65,338.696 1698.51,338.696 1702.38,338.696 1706.24,338.696 1710.1,338.696 1713.96,338.696 1717.83,338.696 1721.69,338.696 1725.55,338.696 1729.42,338.696 1733.28,338.696 1737.14,338.696 1741.01,338.696 1744.87,338.696 1748.73,338.696 1752.59,247.533 1756.46,247.533 1760.32,247.533 1764.18,247.533 1768.05,247.533 1771.91,247.533 1775.77,247.533 1779.64,247.533 1783.5,247.533 1787.36,247.533 1791.22,247.533 1795.09,247.533 1798.95,247.533 1802.81,247.533 1806.68,247.533 1810.54,247.533 1814.4,247.533 1818.27,247.533 1822.13,247.533 1825.99,247.533 1829.86,247.533 1833.72,247.533 1837.58,205.781 1841.44,205.781 1845.31,205.781 1849.17,205.781 1853.03,205.781 1856.9,205.781 1860.76,205.781 1864.62,205.781 1868.49,205.781 1872.35,205.781 1876.21,205.781 1880.07,205.781 1883.94,205.781 1887.8,205.781 1891.66,205.781 1895.53,205.781 1899.39,205.781 1903.25,205.781 1907.12,205.781 1910.98,205.781 1914.84,205.781 1918.71,205.781 1922.57,205.781 1926.43,205.781 1930.29,205.781 1934.16,205.781 1938.02,205.781 1941.88,205.781 1945.75,205.781 1949.61,205.781 1953.47,205.781 1957.34,205.781 1961.2,205.781 1965.06,205.781 1968.92,205.781 1972.79,205.781 1976.65,205.781 1980.51,205.781 1984.38,205.781 1988.24,205.781 1992.1,205.781 1995.97,135.623 1999.83,135.623 2003.69,135.623 2007.55,135.623 2011.42,135.623 2015.28,135.623 2019.14,135.623 2023.01,135.623 2026.87,135.623 2030.73,135.623 2034.6,135.623 2038.46,135.623 2042.32,135.623 2046.19,135.623 2050.05,135.623 2053.91,135.623 2057.77,135.623 2061.64,135.623 2065.5,135.623 2069.36,135.623 2073.23,135.623 2077.09,135.623 2080.95,135.623 2084.82,135.623 2088.68,135.623 2092.54,135.623 2096.4,135.623 2100.27,135.623 2104.13,135.623 2107.99,135.623 2111.86,135.623 2115.72,135.623 2119.58,135.623 2123.45,135.623 2127.31,135.623 2131.17,135.623 2135.04,135.623 2138.9,135.623 2142.76,135.623 2146.62,135.623 2150.49,135.623 2154.35,135.623 2158.21,135.623 2162.08,135.623 2165.94,135.623 2169.8,135.623 2173.67,135.623 2177.53,135.623 2181.39,135.623 2185.25,135.623 2189.12,135.623 2192.98,135.623 2196.84,135.623 2200.71,135.623 2204.57,135.623 2208.43,135.623 2212.3,135.623 2216.16,135.623 2220.02,135.623 2223.89,135.623 2227.75,135.623 2231.61,135.623 2235.47,135.623 2239.34,135.623 2243.2,135.623 2247.06,135.623 2250.93,135.623 2254.79,135.623 2258.65,135.623 2262.52,135.623 2266.38,135.623 2270.24,135.623 2274.1,86.1857 2277.97,86.1857 2281.83,86.1857 2285.69,86.1857 2289.56,86.1857 2293.42,86.1857 "/>
<path clip-path="url(#clip780)" d="M326.094 300.469 L590.099 300.469 L590.099 93.1086 L326.094 93.1086  Z" fill="#ffffff" fill-rule="evenodd" fill-opacity="1"/>
<polyline clip-path="url(#clip780)" style="stroke:#000000; stroke-linecap:round; stroke-linejoin:round; stroke-width:4; stroke-opacity:1; fill:none" points="326.094,300.469 590.099,300.469 590.099,93.1086 326.094,93.1086 326.094,300.469 "/>
<polyline clip-path="url(#clip780)" style="stroke:#1f77b4; stroke-linecap:round; stroke-linejoin:round; stroke-width:8; stroke-opacity:1; fill:none" stroke-dasharray="32, 20" points="349.389,144.949 489.158,144.949 "/>
<path clip-path="url(#clip780)" d="M545.62 133.821 Q545.62 137.17 544.425 140.496 Q543.254 143.799 541.193 146.516 Q539.131 149.233 536.508 151.341 Q533.885 153.449 530.817 154.62 Q527.748 155.791 524.75 155.791 Q519.433 155.791 515.943 152.301 Q512.453 148.811 512.453 142.979 Q512.453 138.904 514.28 134.852 Q516.107 130.776 519.012 127.755 Q521.916 124.71 525.734 122.812 Q529.575 120.915 533.37 120.915 Q538.757 120.915 542.176 124.499 Q545.62 128.059 545.62 133.821 M541.333 131.947 Q541.333 129.371 540.607 127.427 Q539.881 125.459 538.663 124.335 Q537.468 123.211 536.04 122.672 Q534.634 122.11 533.089 122.11 Q530.09 122.11 526.882 124.054 Q523.673 125.998 521.284 129.605 Q519.995 131.572 519.058 133.938 Q518.122 136.28 517.7 138.365 Q517.278 140.426 517.091 141.878 Q516.927 143.33 516.927 144.338 Q516.927 149.022 519.176 151.786 Q521.424 154.55 525.031 154.55 Q527.865 154.55 530.629 152.887 Q533.393 151.2 535.29 148.788 Q536.977 146.703 538.218 144.197 Q539.483 141.691 540.115 139.396 Q540.748 137.1 541.029 135.25 Q541.333 133.399 541.333 131.947 Z" fill="#000000" fill-rule="nonzero" fill-opacity="1" /><path clip-path="url(#clip780)" d="M560.714 154.172 Q560.714 154.631 560.501 154.746 Q560.288 154.844 559.698 154.844 L556.55 154.844 L554.058 164.747 Q553.861 165.616 553.861 166.354 Q553.861 167.174 554.107 167.535 Q554.369 167.895 554.91 167.895 Q555.976 167.895 557.124 166.928 Q558.288 165.961 559.272 163.6 Q559.403 163.288 559.468 163.223 Q559.55 163.141 559.763 163.141 Q560.173 163.141 560.173 163.469 Q560.173 163.583 559.944 164.108 Q559.731 164.633 559.255 165.403 Q558.796 166.174 558.189 166.895 Q557.599 167.617 556.697 168.141 Q555.796 168.65 554.828 168.65 Q553.467 168.65 552.598 167.781 Q551.746 166.912 551.746 165.551 Q551.746 165.108 552.09 163.698 Q552.435 162.272 554.304 154.844 L551.336 154.844 Q550.926 154.844 550.762 154.828 Q550.615 154.812 550.5 154.73 Q550.401 154.631 550.401 154.435 Q550.401 154.123 550.533 153.992 Q550.664 153.844 550.828 153.828 Q551.008 153.795 551.418 153.795 L554.566 153.795 L555.878 148.467 Q556.009 147.942 556.337 147.647 Q556.681 147.335 556.878 147.302 Q557.075 147.253 557.222 147.253 Q557.665 147.253 557.927 147.499 Q558.189 147.729 558.189 148.155 Q558.189 148.385 556.812 153.795 L559.763 153.795 Q560.141 153.795 560.288 153.812 Q560.452 153.828 560.583 153.91 Q560.714 153.992 560.714 154.172 Z" fill="#000000" fill-rule="nonzero" fill-opacity="1" /><polyline clip-path="url(#clip780)" style="stroke:#ff7e0d; stroke-linecap:round; stroke-linejoin:round; stroke-width:8; stroke-opacity:1; fill:none" stroke-dasharray="32, 16, 4, 16" points="349.389,196.789 489.158,196.789 "/>
<path clip-path="url(#clip780)" d="M541.474 179.524 Q541.474 178.751 541.263 178.119 Q541.076 177.463 540.771 177.018 Q540.49 176.549 539.951 176.198 Q539.413 175.823 538.968 175.589 Q538.523 175.355 537.773 175.214 Q537.023 175.05 536.532 174.98 Q536.04 174.886 535.197 174.839 Q534.353 174.793 533.932 174.793 Q533.534 174.793 532.737 174.793 Q530.231 174.793 529.809 174.839 Q529.177 174.933 528.943 175.308 Q528.709 175.659 528.474 176.62 L525.359 189.127 L530.723 189.127 Q533.651 189.127 535.665 188.307 Q537.679 187.488 538.827 186.34 Q540.092 185.075 540.771 183.037 Q541.474 181 541.474 179.524 M546.697 201.611 Q546.697 201.869 546.486 202.455 Q546.299 203.04 545.83 203.86 Q545.362 204.656 544.729 205.382 Q544.097 206.108 543.09 206.6 Q542.083 207.116 540.935 207.116 Q540.654 207.116 540.373 207.092 Q540.092 207.092 539.389 206.975 Q538.71 206.881 538.148 206.694 Q537.586 206.53 536.883 206.132 Q536.18 205.757 535.688 205.242 Q535.22 204.703 534.892 203.86 Q534.564 202.993 534.564 201.939 Q534.564 201.002 535.337 197.864 Q536.016 195.194 536.016 194.538 Q536.016 193.812 535.782 193.132 Q535.571 192.453 535.033 191.75 Q534.517 191.048 533.416 190.626 Q532.316 190.181 530.77 190.181 L525.078 190.181 L521.893 202.9 Q521.893 202.923 521.822 203.251 Q521.752 203.555 521.752 203.719 Q521.752 204.024 521.939 204.211 Q522.15 204.399 522.666 204.492 Q523.181 204.563 523.579 204.586 Q524.001 204.586 524.867 204.586 Q525.945 204.586 526.132 204.773 Q526.226 204.89 526.226 205.101 Q526.226 205.429 526.132 205.663 Q526.062 205.874 525.874 205.944 Q525.71 206.015 525.593 206.038 Q525.476 206.062 525.265 206.062 L519.176 205.921 L513.133 206.062 Q512.453 206.062 512.453 205.523 Q512.453 205.054 512.617 204.867 Q512.781 204.656 512.992 204.633 Q513.203 204.586 513.742 204.586 Q514.913 204.586 515.615 204.516 Q516.318 204.445 516.763 204.352 Q517.232 204.235 517.466 203.907 Q517.723 203.579 517.84 203.298 Q517.958 202.993 518.122 202.314 L524.539 176.549 Q524.727 175.776 524.727 175.659 Q524.727 175.214 524.446 175.097 Q524.188 174.957 523.438 174.886 L521.612 174.793 Q521.049 174.793 520.815 174.769 Q520.604 174.746 520.44 174.629 Q520.276 174.512 520.276 174.254 Q520.276 173.598 520.557 173.458 Q520.839 173.294 521.658 173.294 L535.337 173.294 Q539.998 173.294 542.949 175.331 Q545.924 177.369 545.924 180.484 Q545.924 181.89 545.292 183.201 Q544.659 184.513 543.605 185.544 Q542.575 186.574 541.193 187.441 Q539.811 188.284 538.335 188.87 Q536.883 189.432 535.384 189.76 Q536.04 189.994 536.649 190.345 Q537.281 190.696 538.077 191.352 Q538.897 192.008 539.389 193.062 Q539.881 194.116 539.881 195.404 Q539.881 196.318 539.694 197.676 Q539.225 201.541 539.225 203.134 Q539.225 204.656 539.623 205.359 Q540.022 206.062 541.146 206.062 Q542.247 206.062 543.465 205.078 Q544.706 204.071 545.502 201.705 Q545.69 201.026 546.135 201.026 Q546.158 201.026 546.182 201.026 Q546.228 201.026 546.322 201.073 Q546.416 201.096 546.486 201.166 Q546.58 201.213 546.627 201.33 Q546.697 201.447 546.697 201.611 Z" fill="#000000" fill-rule="nonzero" fill-opacity="1" /><path clip-path="url(#clip780)" d="M561.792 205.497 Q561.792 205.956 561.579 206.07 Q561.366 206.169 560.776 206.169 L557.628 206.169 L555.136 216.072 Q554.939 216.941 554.939 217.679 Q554.939 218.498 555.185 218.859 Q555.447 219.22 555.988 219.22 Q557.054 219.22 558.202 218.252 Q559.366 217.285 560.35 214.924 Q560.481 214.613 560.546 214.547 Q560.628 214.465 560.842 214.465 Q561.251 214.465 561.251 214.793 Q561.251 214.908 561.022 215.432 Q560.809 215.957 560.333 216.728 Q559.874 217.498 559.268 218.22 Q558.677 218.941 557.776 219.466 Q556.874 219.974 555.906 219.974 Q554.546 219.974 553.677 219.105 Q552.824 218.236 552.824 216.875 Q552.824 216.433 553.168 215.022 Q553.513 213.596 555.382 206.169 L552.414 206.169 Q552.004 206.169 551.84 206.152 Q551.693 206.136 551.578 206.054 Q551.48 205.956 551.48 205.759 Q551.48 205.447 551.611 205.316 Q551.742 205.169 551.906 205.152 Q552.086 205.119 552.496 205.119 L555.644 205.119 L556.956 199.791 Q557.087 199.266 557.415 198.971 Q557.759 198.66 557.956 198.627 Q558.153 198.578 558.3 198.578 Q558.743 198.578 559.005 198.824 Q559.268 199.053 559.268 199.479 Q559.268 199.709 557.89 205.119 L560.842 205.119 Q561.219 205.119 561.366 205.136 Q561.53 205.152 561.661 205.234 Q561.792 205.316 561.792 205.497 Z" fill="#000000" fill-rule="nonzero" fill-opacity="1" /><polyline clip-path="url(#clip780)" style="stroke:#2ba02b; stroke-linecap:round; stroke-linejoin:round; stroke-width:8; stroke-opacity:1; fill:none" stroke-dasharray="32, 16, 4, 16, 4, 16" points="349.389,248.629 489.158,248.629 "/>
<path clip-path="url(#clip780)" d="M546.51 225.087 L543.488 237.314 Q543.277 238.087 543.137 238.18 Q543.02 238.274 542.645 238.274 Q541.919 238.274 541.919 237.782 Q541.919 237.735 541.989 237.126 Q542.059 236.494 542.059 235.346 Q542.059 231.107 539.998 228.6 Q537.96 226.094 534.33 226.094 Q531.191 226.094 528.029 227.687 Q524.891 229.28 522.642 231.88 Q520.956 233.847 519.714 236.33 Q518.496 238.813 517.911 241.085 Q517.349 243.357 517.091 245.066 Q516.833 246.776 516.833 248.018 Q516.833 249.821 517.208 251.344 Q517.606 252.866 518.309 253.944 Q519.012 254.998 519.902 255.817 Q520.815 256.614 521.869 257.082 Q522.947 257.551 524.024 257.785 Q525.101 257.996 526.226 257.996 Q530.746 257.996 535.056 254.482 Q538.476 251.601 539.904 246.893 Q540.022 246.425 540.513 246.425 Q541.099 246.425 541.099 246.893 Q541.099 246.987 540.982 247.456 Q540.865 247.901 540.513 248.814 Q540.162 249.704 539.623 250.711 Q539.085 251.718 538.077 252.983 Q537.07 254.248 535.829 255.349 Q533.721 257.176 531.051 258.324 Q528.381 259.471 525.453 259.471 Q521.799 259.471 518.848 257.855 Q515.896 256.239 514.163 253.217 Q512.453 250.196 512.453 246.331 Q512.453 242.256 514.327 238.25 Q516.201 234.245 519.176 231.271 Q522.15 228.296 526.085 226.446 Q530.02 224.595 533.955 224.595 Q535.454 224.595 536.789 224.993 Q538.124 225.392 538.921 225.883 Q539.74 226.375 540.467 227.101 Q541.193 227.804 541.427 228.132 Q541.685 228.46 541.919 228.858 L545.268 225.181 Q545.854 224.595 545.994 224.595 Q546.275 224.595 546.392 224.759 Q546.51 224.923 546.51 225.087 Z" fill="#000000" fill-rule="nonzero" fill-opacity="1" /><path clip-path="url(#clip780)" d="M561.605 257.852 Q561.605 258.311 561.392 258.426 Q561.179 258.524 560.588 258.524 L557.44 258.524 L554.948 268.427 Q554.752 269.296 554.752 270.034 Q554.752 270.854 554.998 271.215 Q555.26 271.575 555.801 271.575 Q556.867 271.575 558.014 270.608 Q559.178 269.641 560.162 267.28 Q560.293 266.968 560.359 266.903 Q560.441 266.821 560.654 266.821 Q561.064 266.821 561.064 267.149 Q561.064 267.263 560.834 267.788 Q560.621 268.313 560.146 269.083 Q559.687 269.854 559.08 270.575 Q558.49 271.297 557.588 271.821 Q556.686 272.33 555.719 272.33 Q554.358 272.33 553.489 271.461 Q552.637 270.592 552.637 269.231 Q552.637 268.788 552.981 267.378 Q553.325 265.952 555.194 258.524 L552.227 258.524 Q551.817 258.524 551.653 258.508 Q551.505 258.492 551.39 258.41 Q551.292 258.311 551.292 258.115 Q551.292 257.803 551.423 257.672 Q551.554 257.524 551.718 257.508 Q551.899 257.475 552.309 257.475 L555.457 257.475 L556.768 252.147 Q556.899 251.622 557.227 251.327 Q557.572 251.015 557.768 250.982 Q557.965 250.933 558.113 250.933 Q558.555 250.933 558.818 251.179 Q559.08 251.409 559.08 251.835 Q559.08 252.065 557.703 257.475 L560.654 257.475 Q561.031 257.475 561.179 257.492 Q561.343 257.508 561.474 257.59 Q561.605 257.672 561.605 257.852 Z" fill="#000000" fill-rule="nonzero" fill-opacity="1" /></svg>
