<?xml version="1.0" encoding="utf-8"?>
<svg xmlns="http://www.w3.org/2000/svg" xmlns:xlink="http://www.w3.org/1999/xlink" width="600" height="400" viewBox="0 0 2400 1600">
<defs>
  <clipPath id="clip280">
    <rect x="0" y="0" width="2400" height="1600"/>
  </clipPath>
</defs>
<path clip-path="url(#clip280)" d="M0 1600 L2400 1600 L2400 0 L0 0  Z" fill="#ffffff" fill-rule="evenodd" fill-opacity="1"/>
<defs>
  <clipPath id="clip281">
    <rect x="480" y="0" width="1681" height="1600"/>
  </clipPath>
</defs>
<path clip-path="url(#clip280)" d="M210.746 1423.18 L2352.76 1423.18 L2352.76 47.2441 L210.746 47.2441  Z" fill="#ffffff" fill-rule="evenodd" fill-opacity="1"/>
<defs>
  <clipPath id="clip282">
    <rect x="210" y="47" width="2143" height="1377"/>
  </clipPath>
</defs>
<polyline clip-path="url(#clip282)" style="stroke:#000000; stroke-linecap:round; stroke-linejoin:round; stroke-width:2; stroke-opacity:0.1; fill:none" points="271.369,1423.18 271.369,47.2441 "/>
<polyline clip-path="url(#clip282)" style="stroke:#000000; stroke-linecap:round; stroke-linejoin:round; stroke-width:2; stroke-opacity:0.1; fill:none" points="776.56,1423.18 776.56,47.2441 "/>
<polyline clip-path="url(#clip282)" style="stroke:#000000; stroke-linecap:round; stroke-linejoin:round; stroke-width:2; stroke-opacity:0.1; fill:none" points="1281.75,1423.18 1281.75,47.2441 "/>
<polyline clip-path="url(#clip282)" style="stroke:#000000; stroke-linecap:round; stroke-linejoin:round; stroke-width:2; stroke-opacity:0.1; fill:none" points="1786.94,1423.18 1786.94,47.2441 "/>
<polyline clip-path="url(#clip282)" style="stroke:#000000; stroke-linecap:round; stroke-linejoin:round; stroke-width:2; stroke-opacity:0.1; fill:none" points="2292.13,1423.18 2292.13,47.2441 "/>
<polyline clip-path="url(#clip282)" style="stroke:#000000; stroke-linecap:round; stroke-linejoin:round; stroke-width:2; stroke-opacity:0.1; fill:none" points="210.746,1194.12 2352.76,1194.12 "/>
<polyline clip-path="url(#clip282)" style="stroke:#000000; stroke-linecap:round; stroke-linejoin:round; stroke-width:2; stroke-opacity:0.1; fill:none" points="210.746,820.427 2352.76,820.427 "/>
<polyline clip-path="url(#clip282)" style="stroke:#000000; stroke-linecap:round; stroke-linejoin:round; stroke-width:2; stroke-opacity:0.1; fill:none" points="210.746,446.729 2352.76,446.729 "/>
<polyline clip-path="url(#clip282)" style="stroke:#000000; stroke-linecap:round; stroke-linejoin:round; stroke-width:2; stroke-opacity:0.1; fill:none" points="210.746,73.031 2352.76,73.031 "/>
<polyline clip-path="url(#clip280)" style="stroke:#000000; stroke-linecap:round; stroke-linejoin:round; stroke-width:4; stroke-opacity:1; fill:none" points="210.746,1423.18 2352.76,1423.18 "/>
<polyline clip-path="url(#clip280)" style="stroke:#000000; stroke-linecap:round; stroke-linejoin:round; stroke-width:4; stroke-opacity:1; fill:none" points="271.369,1423.18 271.369,1404.28 "/>
<polyline clip-path="url(#clip280)" style="stroke:#000000; stroke-linecap:round; stroke-linejoin:round; stroke-width:4; stroke-opacity:1; fill:none" points="776.56,1423.18 776.56,1404.28 "/>
<polyline clip-path="url(#clip280)" style="stroke:#000000; stroke-linecap:round; stroke-linejoin:round; stroke-width:4; stroke-opacity:1; fill:none" points="1281.75,1423.18 1281.75,1404.28 "/>
<polyline clip-path="url(#clip280)" style="stroke:#000000; stroke-linecap:round; stroke-linejoin:round; stroke-width:4; stroke-opacity:1; fill:none" points="1786.94,1423.18 1786.94,1404.28 "/>
<polyline clip-path="url(#clip280)" style="stroke:#000000; stroke-linecap:round; stroke-linejoin:round; stroke-width:4; stroke-opacity:1; fill:none" points="2292.13,1423.18 2292.13,1404.28 "/>
<path clip-path="url(#clip280)" d="M233.672 1454.1 Q230.061 1454.1 228.233 1457.66 Q226.427 1461.2 226.427 1468.33 Q226.427 1475.44 228.233 1479.01 Q230.061 1482.55 233.672 1482.55 Q237.307 1482.55 239.112 1479.01 Q240.941 1475.44 240.941 1468.33 Q240.941 1461.2 239.112 1457.66 Q237.307 1454.1 233.672 1454.1 M233.672 1450.39 Q239.482 1450.39 242.538 1455 Q245.617 1459.58 245.617 1468.33 Q245.617 1477.06 242.538 1481.67 Q239.482 1486.25 233.672 1486.25 Q227.862 1486.25 224.783 1481.67 Q221.728 1477.06 221.728 1468.33 Q221.728 1459.58 224.783 1455 Q227.862 1450.39 233.672 1450.39 Z" fill="#000000" fill-rule="nonzero" fill-opacity="1" /><path clip-path="url(#clip280)" d="M253.834 1479.7 L258.718 1479.7 L258.718 1485.58 L253.834 1485.58 L253.834 1479.7 Z" fill="#000000" fill-rule="nonzero" fill-opacity="1" /><path clip-path="url(#clip280)" d="M278.904 1454.1 Q275.292 1454.1 273.464 1457.66 Q271.658 1461.2 271.658 1468.33 Q271.658 1475.44 273.464 1479.01 Q275.292 1482.55 278.904 1482.55 Q282.538 1482.55 284.343 1479.01 Q286.172 1475.44 286.172 1468.33 Q286.172 1461.2 284.343 1457.66 Q282.538 1454.1 278.904 1454.1 M278.904 1450.39 Q284.714 1450.39 287.769 1455 Q290.848 1459.58 290.848 1468.33 Q290.848 1477.06 287.769 1481.67 Q284.714 1486.25 278.904 1486.25 Q273.093 1486.25 270.015 1481.67 Q266.959 1477.06 266.959 1468.33 Q266.959 1459.58 270.015 1455 Q273.093 1450.39 278.904 1450.39 Z" fill="#000000" fill-rule="nonzero" fill-opacity="1" /><path clip-path="url(#clip280)" d="M309.065 1454.1 Q305.454 1454.1 303.626 1457.66 Q301.82 1461.2 301.82 1468.33 Q301.82 1475.44 303.626 1479.01 Q305.454 1482.55 309.065 1482.55 Q312.7 1482.55 314.505 1479.01 Q316.334 1475.44 316.334 1468.33 Q316.334 1461.2 314.505 1457.66 Q312.7 1454.1 309.065 1454.1 M309.065 1450.39 Q314.876 1450.39 317.931 1455 Q321.01 1459.58 321.01 1468.33 Q321.01 1477.06 317.931 1481.67 Q314.876 1486.25 309.065 1486.25 Q303.255 1486.25 300.177 1481.67 Q297.121 1477.06 297.121 1468.33 Q297.121 1459.58 300.177 1455 Q303.255 1450.39 309.065 1450.39 Z" fill="#000000" fill-rule="nonzero" fill-opacity="1" /><path clip-path="url(#clip280)" d="M739.361 1454.1 Q735.75 1454.1 733.921 1457.66 Q732.116 1461.2 732.116 1468.33 Q732.116 1475.44 733.921 1479.01 Q735.75 1482.55 739.361 1482.55 Q742.995 1482.55 744.801 1479.01 Q746.63 1475.44 746.63 1468.33 Q746.63 1461.2 744.801 1457.66 Q742.995 1454.1 739.361 1454.1 M739.361 1450.39 Q745.171 1450.39 748.227 1455 Q751.305 1459.58 751.305 1468.33 Q751.305 1477.06 748.227 1481.67 Q745.171 1486.25 739.361 1486.25 Q733.551 1486.25 730.472 1481.67 Q727.417 1477.06 727.417 1468.33 Q727.417 1459.58 730.472 1455 Q733.551 1450.39 739.361 1450.39 Z" fill="#000000" fill-rule="nonzero" fill-opacity="1" /><path clip-path="url(#clip280)" d="M759.523 1479.7 L764.407 1479.7 L764.407 1485.58 L759.523 1485.58 L759.523 1479.7 Z" fill="#000000" fill-rule="nonzero" fill-opacity="1" /><path clip-path="url(#clip280)" d="M778.62 1481.64 L794.939 1481.64 L794.939 1485.58 L772.995 1485.58 L772.995 1481.64 Q775.657 1478.89 780.24 1474.26 Q784.847 1469.61 786.027 1468.27 Q788.273 1465.74 789.152 1464.01 Q790.055 1462.25 790.055 1460.56 Q790.055 1457.8 788.111 1456.07 Q786.189 1454.33 783.088 1454.33 Q780.889 1454.33 778.435 1455.09 Q776.004 1455.86 773.227 1457.41 L773.227 1452.69 Q776.051 1451.55 778.504 1450.97 Q780.958 1450.39 782.995 1450.39 Q788.365 1450.39 791.56 1453.08 Q794.754 1455.77 794.754 1460.26 Q794.754 1462.39 793.944 1464.31 Q793.157 1466.2 791.051 1468.8 Q790.472 1469.47 787.37 1472.69 Q784.268 1475.88 778.62 1481.64 Z" fill="#000000" fill-rule="nonzero" fill-opacity="1" /><path clip-path="url(#clip280)" d="M804.8 1451.02 L823.157 1451.02 L823.157 1454.96 L809.083 1454.96 L809.083 1463.43 Q810.101 1463.08 811.12 1462.92 Q812.138 1462.73 813.157 1462.73 Q818.944 1462.73 822.324 1465.9 Q825.703 1469.08 825.703 1474.49 Q825.703 1480.07 822.231 1483.17 Q818.759 1486.25 812.439 1486.25 Q810.263 1486.25 807.995 1485.88 Q805.75 1485.51 803.342 1484.77 L803.342 1480.07 Q805.425 1481.2 807.648 1481.76 Q809.87 1482.32 812.347 1482.32 Q816.351 1482.32 818.689 1480.21 Q821.027 1478.1 821.027 1474.49 Q821.027 1470.88 818.689 1468.77 Q816.351 1466.67 812.347 1466.67 Q810.472 1466.67 808.597 1467.08 Q806.745 1467.5 804.8 1468.38 L804.8 1451.02 Z" fill="#000000" fill-rule="nonzero" fill-opacity="1" /><path clip-path="url(#clip280)" d="M1244.05 1454.1 Q1240.44 1454.1 1238.61 1457.66 Q1236.81 1461.2 1236.81 1468.33 Q1236.81 1475.44 1238.61 1479.01 Q1240.44 1482.55 1244.05 1482.55 Q1247.69 1482.55 1249.49 1479.01 Q1251.32 1475.44 1251.32 1468.33 Q1251.32 1461.2 1249.49 1457.66 Q1247.69 1454.1 1244.05 1454.1 M1244.05 1450.39 Q1249.86 1450.39 1252.92 1455 Q1256 1459.58 1256 1468.33 Q1256 1477.06 1252.92 1481.67 Q1249.86 1486.25 1244.05 1486.25 Q1238.24 1486.25 1235.17 1481.67 Q1232.11 1477.06 1232.11 1468.33 Q1232.11 1459.58 1235.17 1455 Q1238.24 1450.39 1244.05 1450.39 Z" fill="#000000" fill-rule="nonzero" fill-opacity="1" /><path clip-path="url(#clip280)" d="M1264.22 1479.7 L1269.1 1479.7 L1269.1 1485.58 L1264.22 1485.58 L1264.22 1479.7 Z" fill="#000000" fill-rule="nonzero" fill-opacity="1" /><path clip-path="url(#clip280)" d="M1279.33 1451.02 L1297.69 1451.02 L1297.69 1454.96 L1283.61 1454.96 L1283.61 1463.43 Q1284.63 1463.08 1285.65 1462.92 Q1286.67 1462.73 1287.69 1462.73 Q1293.48 1462.73 1296.86 1465.9 Q1300.23 1469.08 1300.23 1474.49 Q1300.23 1480.07 1296.76 1483.17 Q1293.29 1486.25 1286.97 1486.25 Q1284.79 1486.25 1282.53 1485.88 Q1280.28 1485.51 1277.87 1484.77 L1277.87 1480.07 Q1279.96 1481.2 1282.18 1481.76 Q1284.4 1482.32 1286.88 1482.32 Q1290.88 1482.32 1293.22 1480.21 Q1295.56 1478.1 1295.56 1474.49 Q1295.56 1470.88 1293.22 1468.77 Q1290.88 1466.67 1286.88 1466.67 Q1285 1466.67 1283.13 1467.08 Q1281.28 1467.5 1279.33 1468.38 L1279.33 1451.02 Z" fill="#000000" fill-rule="nonzero" fill-opacity="1" /><path clip-path="url(#clip280)" d="M1319.45 1454.1 Q1315.84 1454.1 1314.01 1457.66 Q1312.2 1461.2 1312.2 1468.33 Q1312.2 1475.44 1314.01 1479.01 Q1315.84 1482.55 1319.45 1482.55 Q1323.08 1482.55 1324.89 1479.01 Q1326.72 1475.44 1326.72 1468.33 Q1326.72 1461.2 1324.89 1457.66 Q1323.08 1454.1 1319.45 1454.1 M1319.45 1450.39 Q1325.26 1450.39 1328.31 1455 Q1331.39 1459.58 1331.39 1468.33 Q1331.39 1477.06 1328.31 1481.67 Q1325.26 1486.25 1319.45 1486.25 Q1313.64 1486.25 1310.56 1481.67 Q1307.5 1477.06 1307.5 1468.33 Q1307.5 1459.58 1310.56 1455 Q1313.64 1450.39 1319.45 1450.39 Z" fill="#000000" fill-rule="nonzero" fill-opacity="1" /><path clip-path="url(#clip280)" d="M1749.74 1454.1 Q1746.13 1454.1 1744.3 1457.66 Q1742.5 1461.2 1742.5 1468.33 Q1742.5 1475.44 1744.3 1479.01 Q1746.13 1482.55 1749.74 1482.55 Q1753.38 1482.55 1755.18 1479.01 Q1757.01 1475.44 1757.01 1468.33 Q1757.01 1461.2 1755.18 1457.66 Q1753.38 1454.1 1749.74 1454.1 M1749.74 1450.39 Q1755.55 1450.39 1758.61 1455 Q1761.69 1459.58 1761.69 1468.33 Q1761.69 1477.06 1758.61 1481.67 Q1755.55 1486.25 1749.74 1486.25 Q1743.93 1486.25 1740.85 1481.67 Q1737.8 1477.06 1737.8 1468.33 Q1737.8 1459.58 1740.85 1455 Q1743.93 1450.39 1749.74 1450.39 Z" fill="#000000" fill-rule="nonzero" fill-opacity="1" /><path clip-path="url(#clip280)" d="M1769.91 1479.7 L1774.79 1479.7 L1774.79 1485.58 L1769.91 1485.58 L1769.91 1479.7 Z" fill="#000000" fill-rule="nonzero" fill-opacity="1" /><path clip-path="url(#clip280)" d="M1783.79 1451.02 L1806.02 1451.02 L1806.02 1453.01 L1793.47 1485.58 L1788.59 1485.58 L1800.39 1454.96 L1783.79 1454.96 L1783.79 1451.02 Z" fill="#000000" fill-rule="nonzero" fill-opacity="1" /><path clip-path="url(#clip280)" d="M1815.18 1451.02 L1833.54 1451.02 L1833.54 1454.96 L1819.46 1454.96 L1819.46 1463.43 Q1820.48 1463.08 1821.5 1462.92 Q1822.52 1462.73 1823.54 1462.73 Q1829.33 1462.73 1832.71 1465.9 Q1836.09 1469.08 1836.09 1474.49 Q1836.09 1480.07 1832.61 1483.17 Q1829.14 1486.25 1822.82 1486.25 Q1820.65 1486.25 1818.38 1485.88 Q1816.13 1485.51 1813.72 1484.77 L1813.72 1480.07 Q1815.81 1481.2 1818.03 1481.76 Q1820.25 1482.32 1822.73 1482.32 Q1826.73 1482.32 1829.07 1480.21 Q1831.41 1478.1 1831.41 1474.49 Q1831.41 1470.88 1829.07 1468.77 Q1826.73 1466.67 1822.73 1466.67 Q1820.85 1466.67 1818.98 1467.08 Q1817.13 1467.5 1815.18 1468.38 L1815.18 1451.02 Z" fill="#000000" fill-rule="nonzero" fill-opacity="1" /><path clip-path="url(#clip280)" d="M2244.2 1481.64 L2251.84 1481.64 L2251.84 1455.28 L2243.53 1456.95 L2243.53 1452.69 L2251.8 1451.02 L2256.47 1451.02 L2256.47 1481.64 L2264.11 1481.64 L2264.11 1485.58 L2244.2 1485.58 L2244.2 1481.64 Z" fill="#000000" fill-rule="nonzero" fill-opacity="1" /><path clip-path="url(#clip280)" d="M2273.56 1479.7 L2278.44 1479.7 L2278.44 1485.58 L2273.56 1485.58 L2273.56 1479.7 Z" fill="#000000" fill-rule="nonzero" fill-opacity="1" /><path clip-path="url(#clip280)" d="M2298.63 1454.1 Q2295.01 1454.1 2293.19 1457.66 Q2291.38 1461.2 2291.38 1468.33 Q2291.38 1475.44 2293.19 1479.01 Q2295.01 1482.55 2298.63 1482.55 Q2302.26 1482.55 2304.07 1479.01 Q2305.89 1475.44 2305.89 1468.33 Q2305.89 1461.2 2304.07 1457.66 Q2302.26 1454.1 2298.63 1454.1 M2298.63 1450.39 Q2304.44 1450.39 2307.49 1455 Q2310.57 1459.58 2310.57 1468.33 Q2310.57 1477.06 2307.49 1481.67 Q2304.44 1486.25 2298.63 1486.25 Q2292.82 1486.25 2289.74 1481.67 Q2286.68 1477.06 2286.68 1468.33 Q2286.68 1459.58 2289.74 1455 Q2292.82 1450.39 2298.63 1450.39 Z" fill="#000000" fill-rule="nonzero" fill-opacity="1" /><path clip-path="url(#clip280)" d="M2328.79 1454.1 Q2325.18 1454.1 2323.35 1457.66 Q2321.54 1461.2 2321.54 1468.33 Q2321.54 1475.44 2323.35 1479.01 Q2325.18 1482.55 2328.79 1482.55 Q2332.42 1482.55 2334.23 1479.01 Q2336.06 1475.44 2336.06 1468.33 Q2336.06 1461.2 2334.23 1457.66 Q2332.42 1454.1 2328.79 1454.1 M2328.79 1450.39 Q2334.6 1450.39 2337.65 1455 Q2340.73 1459.58 2340.73 1468.33 Q2340.73 1477.06 2337.65 1481.67 Q2334.6 1486.25 2328.79 1486.25 Q2322.98 1486.25 2319.9 1481.67 Q2316.84 1477.06 2316.84 1468.33 Q2316.84 1459.58 2319.9 1455 Q2322.98 1450.39 2328.79 1450.39 Z" fill="#000000" fill-rule="nonzero" fill-opacity="1" /><path clip-path="url(#clip280)" d="M1290.22 1531.91 Q1290.22 1532.81 1289.8 1533.04 Q1289.38 1533.23 1288.23 1533.23 L1282.04 1533.23 L1277.15 1552.69 Q1276.76 1554.39 1276.76 1555.84 Q1276.76 1557.45 1277.24 1558.16 Q1277.76 1558.87 1278.82 1558.87 Q1280.91 1558.87 1283.17 1556.97 Q1285.46 1555.07 1287.39 1550.43 Q1287.65 1549.82 1287.77 1549.69 Q1287.94 1549.53 1288.35 1549.53 Q1289.16 1549.53 1289.16 1550.17 Q1289.16 1550.4 1288.71 1551.43 Q1288.29 1552.46 1287.36 1553.97 Q1286.45 1555.49 1285.26 1556.9 Q1284.1 1558.32 1282.33 1559.35 Q1280.56 1560.35 1278.66 1560.35 Q1275.99 1560.35 1274.28 1558.64 Q1272.61 1556.94 1272.61 1554.26 Q1272.61 1553.39 1273.28 1550.62 Q1273.96 1547.82 1277.63 1533.23 L1271.8 1533.23 Q1271 1533.23 1270.67 1533.2 Q1270.38 1533.17 1270.16 1533.01 Q1269.96 1532.81 1269.96 1532.43 Q1269.96 1531.82 1270.22 1531.56 Q1270.48 1531.27 1270.8 1531.24 Q1271.16 1531.17 1271.96 1531.17 L1278.14 1531.17 L1280.72 1520.71 Q1280.98 1519.67 1281.62 1519.09 Q1282.3 1518.48 1282.69 1518.42 Q1283.07 1518.32 1283.36 1518.32 Q1284.23 1518.32 1284.75 1518.81 Q1285.26 1519.26 1285.26 1520.09 Q1285.26 1520.54 1282.56 1531.17 L1288.35 1531.17 Q1289.09 1531.17 1289.38 1531.2 Q1289.71 1531.24 1289.96 1531.4 Q1290.22 1531.56 1290.22 1531.91 Z" fill="#000000" fill-rule="nonzero" fill-opacity="1" /><polyline clip-path="url(#clip280)" style="stroke:#000000; stroke-linecap:round; stroke-linejoin:round; stroke-width:4; stroke-opacity:1; fill:none" points="210.746,1423.18 210.746,47.2441 "/>
<polyline clip-path="url(#clip280)" style="stroke:#000000; stroke-linecap:round; stroke-linejoin:round; stroke-width:4; stroke-opacity:1; fill:none" points="210.746,1194.12 229.644,1194.12 "/>
<polyline clip-path="url(#clip280)" style="stroke:#000000; stroke-linecap:round; stroke-linejoin:round; stroke-width:4; stroke-opacity:1; fill:none" points="210.746,820.427 229.644,820.427 "/>
<polyline clip-path="url(#clip280)" style="stroke:#000000; stroke-linecap:round; stroke-linejoin:round; stroke-width:4; stroke-opacity:1; fill:none" points="210.746,446.729 229.644,446.729 "/>
<polyline clip-path="url(#clip280)" style="stroke:#000000; stroke-linecap:round; stroke-linejoin:round; stroke-width:4; stroke-opacity:1; fill:none" points="210.746,73.031 229.644,73.031 "/>
<path clip-path="url(#clip280)" d="M114.26 1194.58 L143.936 1194.58 L143.936 1198.51 L114.26 1198.51 L114.26 1194.58 Z" fill="#000000" fill-rule="nonzero" fill-opacity="1" /><path clip-path="url(#clip280)" d="M154.839 1207.47 L162.477 1207.47 L162.477 1181.1 L154.167 1182.77 L154.167 1178.51 L162.431 1176.84 L167.107 1176.84 L167.107 1207.47 L174.746 1207.47 L174.746 1211.4 L154.839 1211.4 L154.839 1207.47 Z" fill="#000000" fill-rule="nonzero" fill-opacity="1" /><path clip-path="url(#clip280)" d="M162.802 806.226 Q159.19 806.226 157.362 809.79 Q155.556 813.332 155.556 820.462 Q155.556 827.568 157.362 831.133 Q159.19 834.675 162.802 834.675 Q166.436 834.675 168.241 831.133 Q170.07 827.568 170.07 820.462 Q170.07 813.332 168.241 809.79 Q166.436 806.226 162.802 806.226 M162.802 802.522 Q168.612 802.522 171.667 807.128 Q174.746 811.712 174.746 820.462 Q174.746 829.188 171.667 833.795 Q168.612 838.378 162.802 838.378 Q156.991 838.378 153.913 833.795 Q150.857 829.188 150.857 820.462 Q150.857 811.712 153.913 807.128 Q156.991 802.522 162.802 802.522 Z" fill="#000000" fill-rule="nonzero" fill-opacity="1" /><path clip-path="url(#clip280)" d="M154.839 460.074 L162.477 460.074 L162.477 433.708 L154.167 435.375 L154.167 431.116 L162.431 429.449 L167.107 429.449 L167.107 460.074 L174.746 460.074 L174.746 464.009 L154.839 464.009 L154.839 460.074 Z" fill="#000000" fill-rule="nonzero" fill-opacity="1" /><path clip-path="url(#clip280)" d="M158.427 86.3759 L174.746 86.3759 L174.746 90.311 L152.802 90.311 L152.802 86.3759 Q155.464 83.6212 160.047 78.9916 Q164.653 74.3389 165.834 72.9963 Q168.079 70.4732 168.959 68.7371 Q169.862 66.9778 169.862 65.288 Q169.862 62.5334 167.917 60.7973 Q165.996 59.0612 162.894 59.0612 Q160.695 59.0612 158.241 59.8251 Q155.811 60.589 153.033 62.1399 L153.033 57.4177 Q155.857 56.2834 158.311 55.7047 Q160.765 55.126 162.802 55.126 Q168.172 55.126 171.366 57.8112 Q174.561 60.4964 174.561 64.9871 Q174.561 67.1167 173.751 69.038 Q172.964 70.9361 170.857 73.5287 Q170.278 74.2 167.177 77.4176 Q164.075 80.612 158.427 86.3759 Z" fill="#000000" fill-rule="nonzero" fill-opacity="1" /><path clip-path="url(#clip280)" d="M30.8561 720.775 Q31.307 720.775 32.3698 721.064 L57.5548 727.377 Q63.1586 728.762 67.0877 733.27 Q71.0168 737.747 71.0168 742.836 Q71.0168 745.895 69.3743 747.86 Q67.764 749.824 65.2842 749.824 Q63.0942 749.824 62.0314 748.665 Q61.0008 747.505 61.0008 746.121 Q61.0008 745.67 61.1296 745.187 Q61.2584 744.703 61.8059 744.188 Q62.3534 743.673 63.2874 743.673 Q64.8011 743.673 65.9927 744.993 Q66.5402 745.637 66.669 746.249 Q66.7978 746.829 66.7978 747.827 Q67.6996 747.441 68.3115 746.732 Q68.9234 746.024 69.1489 745.219 Q69.4065 744.414 69.4709 743.898 Q69.5675 743.351 69.5675 742.836 Q69.5675 738.713 65.413 735.557 Q64.157 734.623 62.9009 733.947 Q61.6771 733.238 60.1634 732.723 Q58.682 732.208 57.8768 731.982 Q57.0717 731.725 55.2359 731.274 Q58.2311 734.269 58.2311 737.94 Q58.2311 739.486 57.8124 740.871 Q57.3937 742.224 56.5242 743.415 Q55.6224 744.607 54.0443 745.315 Q52.4662 745.992 50.3728 745.992 Q48.1506 745.992 45.1233 745.122 Q42.0959 744.253 36.5243 742.159 Q33.4004 741.032 31.8867 741.032 Q31.146 741.032 30.6951 741.193 Q30.212 741.354 30.051 741.676 Q29.8577 741.998 29.8255 742.191 Q29.7933 742.352 29.7933 742.675 Q29.7933 744.575 31.7257 746.346 Q33.658 748.117 37.9736 749.341 Q38.7787 749.599 38.972 749.76 Q39.1652 749.921 39.1652 750.404 Q39.133 751.209 38.4889 751.209 Q38.2312 751.209 37.2329 750.919 Q36.2023 750.629 34.6886 749.953 Q33.1427 749.245 31.7579 748.278 Q30.3408 747.312 29.3424 745.798 Q28.344 744.253 28.344 742.481 Q28.344 740.066 29.9221 738.584 Q31.468 737.071 33.7546 737.071 Q34.6886 737.071 35.5259 737.328 Q36.3311 737.554 38.4889 738.391 Q47.1845 741.773 51.4356 741.773 Q52.4662 741.773 53.3358 741.612 Q54.1731 741.418 55.0105 741 Q55.8156 740.581 56.2987 739.744 Q56.7496 738.874 56.7496 737.683 Q56.7496 736.169 56.0411 734.752 Q55.3003 733.303 54.302 732.401 Q53.3036 731.467 52.4662 730.919 Q51.5967 730.34 51.1458 730.211 L39.294 727.248 L34.0123 725.927 Q31.146 725.316 30.4374 725.026 Q29.7611 724.639 29.4068 723.963 Q29.0526 723.287 29.0526 722.707 Q29.0526 721.902 29.5357 721.354 Q30.0187 720.775 30.8561 720.775 Z" fill="#000000" fill-rule="nonzero" fill-opacity="1" /><polyline clip-path="url(#clip282)" style="stroke:#ff7e0d; stroke-linecap:round; stroke-linejoin:round; stroke-width:8; stroke-opacity:1; fill:none" stroke-dasharray="32, 20" points="271.369,820.427 275.316,698.503 279.262,967.749 283.209,702.06 287.156,901.897 291.103,732.895 295.05,1014.25 298.997,967.205 302.943,817.813 306.89,574.798 310.837,770.75 314.784,623.776 318.731,817.483 322.677,1197.34 326.624,1206.4 330.571,971.097 334.518,967.197 338.465,773.249 342.411,746.933 346.358,458.812 350.305,613.366 354.252,579.041 358.199,721.417 362.145,521.41 366.092,877.187 370.039,870.882 373.986,898.892 377.933,663.555 381.879,817.562 385.826,851.151 389.773,874.381 393.72,745.323 397.667,973.911 401.613,870.31 405.56,1074.65 409.507,1129.05 413.454,1107.17 417.401,1205.41 421.347,916.921 425.294,995.123 429.241,1252.17 433.188,974.932 437.135,711.892 441.081,1055.92 445.028,787.022 448.975,1049.14 452.922,750.349 456.869,794.063 460.816,656.842 464.762,892.272 468.709,876.849 472.656,931.267 476.603,577.835 480.55,651.9 484.496,795.68 488.443,1118.16 492.39,1269.86 496.337,792.073 500.284,889.035 504.23,943.955 508.177,873.301 512.124,977.002 516.071,784.379 520.018,924.379 523.964,757.438 527.911,817.477 531.858,926.755 535.805,1228.65 539.752,851.981 543.698,1208.48 547.645,1226.91 551.592,1298.29 555.539,952.037 559.486,987.022 563.432,1375.81 567.379,1052.03 571.326,1038.23 575.273,1368.4 579.22,945.877 583.166,1288.51 587.113,1163.98 591.06,1316.14 595.007,1384.24 598.954,1009.11 602.9,1193.41 606.847,911.433 610.794,985.199 614.741,1013 618.688,1081.4 622.635,1101.63 626.581,1114.86 630.528,688.138 634.475,1108.2 638.422,799.489 642.369,838.986 646.315,851.567 650.262,962.63 654.209,1138.66 658.156,920.233 662.103,1009.89 666.049,961.905 669.996,1056.72 673.943,898.757 677.89,1127.03 681.837,951.539 685.783,974.809 689.73,1089.18 693.677,1026.53 697.624,1324.06 701.571,1126.58 705.517,889.945 709.464,917.205 713.411,789.824 717.358,1012.72 721.305,1049.51 725.251,835.983 729.198,1006.04 733.145,1007.26 737.092,1020.12 741.039,1003.67 744.985,805.781 748.932,931.435 752.879,1051.62 756.826,1078.65 760.773,1231.3 764.719,1221.4 768.666,1103.47 772.613,1066.53 776.56,963.423 780.507,1125.39 784.454,1103.07 788.4,1053.98 792.347,1122.87 796.294,1151.19 800.241,1256.4 804.188,1155.38 808.134,1285.61 812.081,1254.4 816.028,1142.08 819.975,1370 823.922,1282.57 827.868,1276.55 831.815,819.793 835.762,1071 839.709,884.953 843.656,1024.07 847.602,1123.25 851.549,1309.78 855.496,1376.56 859.443,854.773 863.39,1054.08 867.336,994.504 871.283,1038.97 875.23,1284 879.177,1099.39 883.124,980.889 887.07,1000.55 891.017,873.418 894.964,1048.99 898.911,1081.53 902.858,942.586 906.804,1066.17 910.751,925.072 914.698,1044.65 918.645,1110.6 922.592,1144.56 926.538,1173.15 930.485,898.127 934.432,1138.99 938.379,1091.54 942.326,958.759 946.273,1136.72 950.219,1092.99 954.166,1069.35 958.113,936.236 962.06,976.608 966.007,1053.49 969.953,1086.26 973.9,805.699 977.847,792.304 981.794,860.005 985.741,966.776 989.687,1049.97 993.634,930.324 997.581,1049.23 1001.53,972.094 1005.47,1065.05 1009.42,989.272 1013.37,1086.53 1017.31,777.724 1021.26,956.879 1025.21,1017 1029.16,774.606 1033.1,813.47 1037.05,854.39 1041,864.912 1044.94,935.44 1048.89,585.254 1052.84,854.167 1056.78,580.282 1060.73,660.236 1064.68,538.235 1068.62,353.546 1072.57,589.872 1076.52,614.621 1080.46,788.504 1084.41,909.487 1088.36,878.193 1092.3,867.127 1096.25,795.323 1100.2,1170.47 1104.14,1073.49 1108.09,791.038 1112.04,687.64 1115.99,972.24 1119.93,815.817 1123.88,764.559 1127.83,813.278 1131.77,863.911 1135.72,819.714 1139.67,739.047 1143.61,756.722 1147.56,741.172 1151.51,579.892 1155.45,757.333 1159.4,782.772 1163.35,692.599 1167.29,914.47 1171.24,902.948 1175.19,1063.1 1179.13,945.556 1183.08,832.123 1187.03,835.818 1190.97,642.149 1194.92,813.424 1198.87,1053.57 1202.81,909.194 1206.76,1023.34 1210.71,975.554 1214.66,913.1 1218.6,922.011 1222.55,1166.62 1226.5,957.379 1230.44,797.476 1234.39,703.831 1238.34,574.994 1242.28,816.701 1246.23,1156.54 1250.18,1002.98 1254.12,1247.99 1258.07,1066.98 1262.02,1000.43 1265.96,617.578 1269.91,836.221 1273.86,868.72 1277.8,574.054 1281.75,636.72 1285.7,671.626 1289.64,932.491 1293.59,775.569 1297.54,639.791 1301.48,654.61 1305.43,422.056 1309.38,617.151 1313.33,497.578 1317.27,755.697 1321.22,613.243 1325.17,697.99 1329.11,589.274 1333.06,738.114 1337.01,491.637 1340.95,791.2 1344.9,585.649 1348.85,828.366 1352.79,686.913 1356.74,756.134 1360.69,795.148 1364.63,979.316 1368.58,900.007 1372.53,886.786 1376.47,796.1 1380.42,877.342 1384.37,813.615 1388.31,634.753 1392.26,527.455 1396.21,804.422 1400.16,508.274 1404.1,495.343 1408.05,581.174 1412,323.97 1415.94,615.123 1419.89,549.469 1423.84,387.637 1427.78,408.165 1431.73,439.977 1435.68,424.787 1439.62,656.588 1443.57,582.062 1447.52,802.413 1451.46,579.846 1455.41,721.355 1459.36,671.825 1463.3,768.808 1467.25,492.421 1471.2,654.914 1475.14,337.086 1479.09,644.311 1483.04,667.134 1486.98,359.079 1490.93,334.063 1494.88,379.429 1498.83,488.407 1502.77,489.006 1506.72,655.884 1510.67,1057.97 1514.61,655.194 1518.56,597.094 1522.51,620.679 1526.45,699.537 1530.4,751.902 1534.35,553.947 1538.29,651.44 1542.24,1017.15 1546.19,972.905 1550.13,786.342 1554.08,623.154 1558.03,405.244 1561.97,848.312 1565.92,717.172 1569.87,1082.06 1573.81,734.399 1577.76,1086.49 1581.71,1167.75 1585.65,848.488 1589.6,872.725 1593.55,1118.51 1597.5,844.929 1601.44,911.881 1605.39,677.91 1609.34,859.502 1613.28,812.89 1617.23,352.325 1621.18,445.144 1625.12,637.001 1629.07,824.471 1633.02,552.09 1636.96,715.739 1640.91,506.317 1644.86,621.476 1648.8,619.591 1652.75,383.411 1656.7,750.158 1660.64,826.67 1664.59,1010.37 1668.54,1143.1 1672.48,726.77 1676.43,962.879 1680.38,820.631 1684.33,642.167 1688.27,441.021 1692.22,629.93 1696.17,814.207 1700.11,725.931 1704.06,585.354 1708.01,987.75 1711.95,633.014 1715.9,790.731 1719.85,745.423 1723.79,666.038 1727.74,951.578 1731.69,774.829 1735.63,905.278 1739.58,932.44 1743.53,592.489 1747.47,936.326 1751.42,1111.41 1755.37,779.985 1759.31,910.991 1763.26,796.844 1767.21,932.368 1771.15,658.844 1775.1,959.432 1779.05,1105.14 1783,1147.96 1786.94,1079.51 1790.89,1068.53 1794.84,775.234 1798.78,768.076 1802.73,594.565 1806.68,812.914 1810.62,879.58 1814.57,928.599 1818.52,922.16 1822.46,518.96 1826.41,790.013 1830.36,750.046 1834.3,873.729 1838.25,602.593 1842.2,643.539 1846.14,654.218 1850.09,566.159 1854.04,584.937 1857.98,787.675 1861.93,696.332 1865.88,964.729 1869.82,1095.38 1873.77,1222.74 1877.72,1100.46 1881.67,996.579 1885.61,1120.41 1889.56,850.451 1893.51,925.942 1897.45,1041.09 1901.4,569.183 1905.35,872.575 1909.29,1033.26 1913.24,862.333 1917.19,896.448 1921.13,1098.17 1925.08,844.281 1929.03,782.47 1932.97,1042.98 1936.92,1114.04 1940.87,1003.34 1944.81,788.254 1948.76,662.926 1952.71,994.083 1956.65,871.141 1960.6,1002.28 1964.55,1014.66 1968.49,788.145 1972.44,1193.67 1976.39,1374.39 1980.34,886.821 1984.28,1021.82 1988.23,747.694 1992.18,814.337 1996.12,661.076 2000.07,668.361 2004.02,879.733 2007.96,591.234 2011.91,955.193 2015.86,804.969 2019.8,933.12 2023.75,1243.82 2027.7,693.792 2031.64,760.393 2035.59,1212.56 2039.54,681.49 2043.48,614.227 2047.43,485.835 2051.38,1046.37 2055.32,646.597 2059.27,604.438 2063.22,397.001 2067.17,735.963 2071.11,745.782 2075.06,542.583 2079.01,739.204 2082.95,901.648 2086.9,759.216 2090.85,747.835 2094.79,662.818 2098.74,781.247 2102.69,757.109 2106.63,611.273 2110.58,613.684 2114.53,652.126 2118.47,541.812 2122.42,453.494 2126.37,673.745 2130.31,810.836 2134.26,645.36 2138.21,559.694 2142.15,343.855 2146.1,495.103 2150.05,358.356 2153.99,342.82 2157.94,557.498 2161.89,478.882 2165.84,390.196 2169.78,180.962 2173.73,304.702 2177.68,512.239 2181.62,670.422 2185.57,346.567 2189.52,406.03 2193.46,355.199 2197.41,86.1857 2201.36,387.121 2205.3,658.231 2209.25,779.857 2213.2,920.764 2217.14,879.432 2221.09,774.292 2225.04,689.132 2228.98,800.457 2232.93,1136.58 2236.88,777.84 2240.82,795.574 2244.77,319.844 2248.72,682.872 2252.66,646.661 2256.61,535.782 2260.56,536.124 2264.51,396.12 2268.45,566.773 2272.4,610.022 2276.35,414.977 2280.29,566.011 2284.24,402.778 2288.19,614.982 2292.13,921.004 "/>
<path clip-path="url(#clip280)" d="M282.146 196.789 L615.606 196.789 L615.606 93.1086 L282.146 93.1086  Z" fill="#ffffff" fill-rule="evenodd" fill-opacity="1"/>
<polyline clip-path="url(#clip280)" style="stroke:#000000; stroke-linecap:round; stroke-linejoin:round; stroke-width:4; stroke-opacity:1; fill:none" points="282.146,196.789 615.606,196.789 615.606,93.1086 282.146,93.1086 282.146,196.789 "/>
<polyline clip-path="url(#clip280)" style="stroke:#ff7e0d; stroke-linecap:round; stroke-linejoin:round; stroke-width:8; stroke-opacity:1; fill:none" stroke-dasharray="32, 20" points="305.946,144.949 448.747,144.949 "/>
<path clip-path="url(#clip280)" d="M494.26 146.581 L494.26 162.229 L490.001 162.229 L490.001 146.719 Q490.001 143.039 488.566 141.21 Q487.13 139.382 484.26 139.382 Q480.811 139.382 478.82 141.581 Q476.83 143.78 476.83 147.576 L476.83 162.229 L472.547 162.229 L472.547 136.303 L476.83 136.303 L476.83 140.331 Q478.357 137.993 480.417 136.835 Q482.501 135.678 485.209 135.678 Q489.677 135.678 491.968 138.456 Q494.26 141.21 494.26 146.581 Z" fill="#000000" fill-rule="nonzero" fill-opacity="1" /><path clip-path="url(#clip280)" d="M512.802 139.289 Q509.376 139.289 507.385 141.974 Q505.394 144.636 505.394 149.289 Q505.394 153.942 507.362 156.627 Q509.353 159.289 512.802 159.289 Q516.204 159.289 518.195 156.604 Q520.186 153.918 520.186 149.289 Q520.186 144.682 518.195 141.997 Q516.204 139.289 512.802 139.289 M512.802 135.678 Q518.357 135.678 521.528 139.289 Q524.7 142.9 524.7 149.289 Q524.7 155.655 521.528 159.289 Q518.357 162.9 512.802 162.9 Q507.223 162.9 504.052 159.289 Q500.903 155.655 500.903 149.289 Q500.903 142.9 504.052 139.289 Q507.223 135.678 512.802 135.678 Z" fill="#000000" fill-rule="nonzero" fill-opacity="1" /><path clip-path="url(#clip280)" d="M531.76 136.303 L536.019 136.303 L536.019 162.229 L531.76 162.229 L531.76 136.303 M531.76 126.21 L536.019 126.21 L536.019 131.604 L531.76 131.604 L531.76 126.21 Z" fill="#000000" fill-rule="nonzero" fill-opacity="1" /><path clip-path="url(#clip280)" d="M561.459 137.067 L561.459 141.094 Q559.653 140.169 557.709 139.706 Q555.764 139.243 553.681 139.243 Q550.51 139.243 548.912 140.215 Q547.338 141.187 547.338 143.131 Q547.338 144.613 548.473 145.469 Q549.607 146.303 553.033 147.067 L554.491 147.391 Q559.028 148.363 560.926 150.145 Q562.848 151.905 562.848 155.076 Q562.848 158.687 559.977 160.793 Q557.13 162.9 552.13 162.9 Q550.047 162.9 547.778 162.483 Q545.533 162.09 543.033 161.28 L543.033 156.881 Q545.394 158.108 547.686 158.733 Q549.977 159.335 552.223 159.335 Q555.232 159.335 556.852 158.317 Q558.473 157.275 558.473 155.4 Q558.473 153.664 557.292 152.738 Q556.135 151.812 552.176 150.956 L550.695 150.608 Q546.737 149.775 544.977 148.062 Q543.218 146.326 543.218 143.317 Q543.218 139.659 545.811 137.669 Q548.403 135.678 553.172 135.678 Q555.533 135.678 557.616 136.025 Q559.699 136.372 561.459 137.067 Z" fill="#000000" fill-rule="nonzero" fill-opacity="1" /><path clip-path="url(#clip280)" d="M591.806 148.201 L591.806 150.284 L572.223 150.284 Q572.5 154.682 574.861 156.997 Q577.246 159.289 581.482 159.289 Q583.935 159.289 586.227 158.687 Q588.542 158.085 590.81 156.881 L590.81 160.909 Q588.519 161.881 586.111 162.391 Q583.704 162.9 581.227 162.9 Q575.023 162.9 571.389 159.289 Q567.778 155.678 567.778 149.52 Q567.778 143.155 571.204 139.428 Q574.653 135.678 580.486 135.678 Q585.718 135.678 588.75 139.057 Q591.806 142.414 591.806 148.201 M587.547 146.951 Q587.5 143.456 585.579 141.372 Q583.681 139.289 580.533 139.289 Q576.968 139.289 574.815 141.303 Q572.686 143.317 572.361 146.974 L587.547 146.951 Z" fill="#000000" fill-rule="nonzero" fill-opacity="1" /></svg>
