<?xml version="1.0" encoding="utf-8"?>
<svg xmlns="http://www.w3.org/2000/svg" xmlns:xlink="http://www.w3.org/1999/xlink" width="600" height="400" viewBox="0 0 2400 1600">
<defs>
  <clipPath id="clip850">
    <rect x="0" y="0" width="2400" height="1600"/>
  </clipPath>
</defs>
<path clip-path="url(#clip850)" d="M0 1600 L2400 1600 L2400 0 L0 0  Z" fill="#ffffff" fill-rule="evenodd" fill-opacity="1"/>
<defs>
  <clipPath id="clip851">
    <rect x="480" y="0" width="1681" height="1600"/>
  </clipPath>
</defs>
<path clip-path="url(#clip850)" d="M217.806 1423.18 L2352.76 1423.18 L2352.76 47.2441 L217.806 47.2441  Z" fill="#ffffff" fill-rule="evenodd" fill-opacity="1"/>
<defs>
  <clipPath id="clip852">
    <rect x="217" y="47" width="2136" height="1377"/>
  </clipPath>
</defs>
<polyline clip-path="url(#clip852)" style="stroke:#000000; stroke-linecap:round; stroke-linejoin:round; stroke-width:2; stroke-opacity:0.1; fill:none" points="278.229,1423.18 278.229,47.2441 "/>
<polyline clip-path="url(#clip852)" style="stroke:#000000; stroke-linecap:round; stroke-linejoin:round; stroke-width:2; stroke-opacity:0.1; fill:none" points="781.755,1423.18 781.755,47.2441 "/>
<polyline clip-path="url(#clip852)" style="stroke:#000000; stroke-linecap:round; stroke-linejoin:round; stroke-width:2; stroke-opacity:0.1; fill:none" points="1285.28,1423.18 1285.28,47.2441 "/>
<polyline clip-path="url(#clip852)" style="stroke:#000000; stroke-linecap:round; stroke-linejoin:round; stroke-width:2; stroke-opacity:0.1; fill:none" points="1788.81,1423.18 1788.81,47.2441 "/>
<polyline clip-path="url(#clip852)" style="stroke:#000000; stroke-linecap:round; stroke-linejoin:round; stroke-width:2; stroke-opacity:0.1; fill:none" points="2292.33,1423.18 2292.33,47.2441 "/>
<polyline clip-path="url(#clip852)" style="stroke:#000000; stroke-linecap:round; stroke-linejoin:round; stroke-width:2; stroke-opacity:0.1; fill:none" points="217.806,1185.09 2352.76,1185.09 "/>
<polyline clip-path="url(#clip852)" style="stroke:#000000; stroke-linecap:round; stroke-linejoin:round; stroke-width:2; stroke-opacity:0.1; fill:none" points="217.806,886.38 2352.76,886.38 "/>
<polyline clip-path="url(#clip852)" style="stroke:#000000; stroke-linecap:round; stroke-linejoin:round; stroke-width:2; stroke-opacity:0.1; fill:none" points="217.806,587.664 2352.76,587.664 "/>
<polyline clip-path="url(#clip852)" style="stroke:#000000; stroke-linecap:round; stroke-linejoin:round; stroke-width:2; stroke-opacity:0.1; fill:none" points="217.806,288.949 2352.76,288.949 "/>
<polyline clip-path="url(#clip850)" style="stroke:#000000; stroke-linecap:round; stroke-linejoin:round; stroke-width:4; stroke-opacity:1; fill:none" points="217.806,1423.18 2352.76,1423.18 "/>
<polyline clip-path="url(#clip850)" style="stroke:#000000; stroke-linecap:round; stroke-linejoin:round; stroke-width:4; stroke-opacity:1; fill:none" points="278.229,1423.18 278.229,1404.28 "/>
<polyline clip-path="url(#clip850)" style="stroke:#000000; stroke-linecap:round; stroke-linejoin:round; stroke-width:4; stroke-opacity:1; fill:none" points="781.755,1423.18 781.755,1404.28 "/>
<polyline clip-path="url(#clip850)" style="stroke:#000000; stroke-linecap:round; stroke-linejoin:round; stroke-width:4; stroke-opacity:1; fill:none" points="1285.28,1423.18 1285.28,1404.28 "/>
<polyline clip-path="url(#clip850)" style="stroke:#000000; stroke-linecap:round; stroke-linejoin:round; stroke-width:4; stroke-opacity:1; fill:none" points="1788.81,1423.18 1788.81,1404.28 "/>
<polyline clip-path="url(#clip850)" style="stroke:#000000; stroke-linecap:round; stroke-linejoin:round; stroke-width:4; stroke-opacity:1; fill:none" points="2292.33,1423.18 2292.33,1404.28 "/>
<path clip-path="url(#clip850)" d="M240.533 1454.1 Q236.922 1454.1 235.093 1457.66 Q233.287 1461.2 233.287 1468.33 Q233.287 1475.44 235.093 1479.01 Q236.922 1482.55 240.533 1482.55 Q244.167 1482.55 245.972 1479.01 Q247.801 1475.44 247.801 1468.33 Q247.801 1461.2 245.972 1457.66 Q244.167 1454.1 240.533 1454.1 M240.533 1450.39 Q246.343 1450.39 249.398 1455 Q252.477 1459.58 252.477 1468.33 Q252.477 1477.06 249.398 1481.67 Q246.343 1486.25 240.533 1486.25 Q234.722 1486.25 231.644 1481.67 Q228.588 1477.06 228.588 1468.33 Q228.588 1459.58 231.644 1455 Q234.722 1450.39 240.533 1450.39 Z" fill="#000000" fill-rule="nonzero" fill-opacity="1" /><path clip-path="url(#clip850)" d="M260.695 1479.7 L265.579 1479.7 L265.579 1485.58 L260.695 1485.58 L260.695 1479.7 Z" fill="#000000" fill-rule="nonzero" fill-opacity="1" /><path clip-path="url(#clip850)" d="M285.764 1454.1 Q282.153 1454.1 280.324 1457.66 Q278.519 1461.2 278.519 1468.33 Q278.519 1475.44 280.324 1479.01 Q282.153 1482.55 285.764 1482.55 Q289.398 1482.55 291.204 1479.01 Q293.032 1475.44 293.032 1468.33 Q293.032 1461.2 291.204 1457.66 Q289.398 1454.1 285.764 1454.1 M285.764 1450.39 Q291.574 1450.39 294.63 1455 Q297.708 1459.58 297.708 1468.33 Q297.708 1477.06 294.63 1481.67 Q291.574 1486.25 285.764 1486.25 Q279.954 1486.25 276.875 1481.67 Q273.82 1477.06 273.82 1468.33 Q273.82 1459.58 276.875 1455 Q279.954 1450.39 285.764 1450.39 Z" fill="#000000" fill-rule="nonzero" fill-opacity="1" /><path clip-path="url(#clip850)" d="M315.926 1454.1 Q312.315 1454.1 310.486 1457.66 Q308.68 1461.2 308.68 1468.33 Q308.68 1475.44 310.486 1479.01 Q312.315 1482.55 315.926 1482.55 Q319.56 1482.55 321.366 1479.01 Q323.194 1475.44 323.194 1468.33 Q323.194 1461.2 321.366 1457.66 Q319.56 1454.1 315.926 1454.1 M315.926 1450.39 Q321.736 1450.39 324.791 1455 Q327.87 1459.58 327.87 1468.33 Q327.87 1477.06 324.791 1481.67 Q321.736 1486.25 315.926 1486.25 Q310.116 1486.25 307.037 1481.67 Q303.981 1477.06 303.981 1468.33 Q303.981 1459.58 307.037 1455 Q310.116 1450.39 315.926 1450.39 Z" fill="#000000" fill-rule="nonzero" fill-opacity="1" /><path clip-path="url(#clip850)" d="M744.556 1454.1 Q740.945 1454.1 739.116 1457.66 Q737.311 1461.2 737.311 1468.33 Q737.311 1475.44 739.116 1479.01 Q740.945 1482.55 744.556 1482.55 Q748.19 1482.55 749.996 1479.01 Q751.825 1475.44 751.825 1468.33 Q751.825 1461.2 749.996 1457.66 Q748.19 1454.1 744.556 1454.1 M744.556 1450.39 Q750.366 1450.39 753.422 1455 Q756.501 1459.58 756.501 1468.33 Q756.501 1477.06 753.422 1481.67 Q750.366 1486.25 744.556 1486.25 Q738.746 1486.25 735.667 1481.67 Q732.612 1477.06 732.612 1468.33 Q732.612 1459.58 735.667 1455 Q738.746 1450.39 744.556 1450.39 Z" fill="#000000" fill-rule="nonzero" fill-opacity="1" /><path clip-path="url(#clip850)" d="M764.718 1479.7 L769.602 1479.7 L769.602 1485.58 L764.718 1485.58 L764.718 1479.7 Z" fill="#000000" fill-rule="nonzero" fill-opacity="1" /><path clip-path="url(#clip850)" d="M783.815 1481.64 L800.135 1481.64 L800.135 1485.58 L778.19 1485.58 L778.19 1481.64 Q780.852 1478.89 785.436 1474.26 Q790.042 1469.61 791.223 1468.27 Q793.468 1465.74 794.348 1464.01 Q795.25 1462.25 795.25 1460.56 Q795.25 1457.8 793.306 1456.07 Q791.385 1454.33 788.283 1454.33 Q786.084 1454.33 783.63 1455.09 Q781.2 1455.86 778.422 1457.41 L778.422 1452.69 Q781.246 1451.55 783.7 1450.97 Q786.153 1450.39 788.19 1450.39 Q793.561 1450.39 796.755 1453.08 Q799.949 1455.77 799.949 1460.26 Q799.949 1462.39 799.139 1464.31 Q798.352 1466.2 796.246 1468.8 Q795.667 1469.47 792.565 1472.69 Q789.463 1475.88 783.815 1481.64 Z" fill="#000000" fill-rule="nonzero" fill-opacity="1" /><path clip-path="url(#clip850)" d="M809.996 1451.02 L828.352 1451.02 L828.352 1454.96 L814.278 1454.96 L814.278 1463.43 Q815.297 1463.08 816.315 1462.92 Q817.334 1462.73 818.352 1462.73 Q824.139 1462.73 827.519 1465.9 Q830.898 1469.08 830.898 1474.49 Q830.898 1480.07 827.426 1483.17 Q823.954 1486.25 817.635 1486.25 Q815.459 1486.25 813.19 1485.88 Q810.945 1485.51 808.537 1484.77 L808.537 1480.07 Q810.621 1481.2 812.843 1481.76 Q815.065 1482.32 817.542 1482.32 Q821.547 1482.32 823.885 1480.21 Q826.222 1478.1 826.222 1474.49 Q826.222 1470.88 823.885 1468.77 Q821.547 1466.67 817.542 1466.67 Q815.667 1466.67 813.792 1467.08 Q811.94 1467.5 809.996 1468.38 L809.996 1451.02 Z" fill="#000000" fill-rule="nonzero" fill-opacity="1" /><path clip-path="url(#clip850)" d="M1247.58 1454.1 Q1243.97 1454.1 1242.14 1457.66 Q1240.34 1461.2 1240.34 1468.33 Q1240.34 1475.44 1242.14 1479.01 Q1243.97 1482.55 1247.58 1482.55 Q1251.22 1482.55 1253.02 1479.01 Q1254.85 1475.44 1254.85 1468.33 Q1254.85 1461.2 1253.02 1457.66 Q1251.22 1454.1 1247.58 1454.1 M1247.58 1450.39 Q1253.39 1450.39 1256.45 1455 Q1259.53 1459.58 1259.53 1468.33 Q1259.53 1477.06 1256.45 1481.67 Q1253.39 1486.25 1247.58 1486.25 Q1241.77 1486.25 1238.7 1481.67 Q1235.64 1477.06 1235.64 1468.33 Q1235.64 1459.58 1238.7 1455 Q1241.77 1450.39 1247.58 1450.39 Z" fill="#000000" fill-rule="nonzero" fill-opacity="1" /><path clip-path="url(#clip850)" d="M1267.75 1479.7 L1272.63 1479.7 L1272.63 1485.58 L1267.75 1485.58 L1267.75 1479.7 Z" fill="#000000" fill-rule="nonzero" fill-opacity="1" /><path clip-path="url(#clip850)" d="M1282.86 1451.02 L1301.22 1451.02 L1301.22 1454.96 L1287.14 1454.96 L1287.14 1463.43 Q1288.16 1463.08 1289.18 1462.92 Q1290.2 1462.73 1291.22 1462.73 Q1297.01 1462.73 1300.39 1465.9 Q1303.76 1469.08 1303.76 1474.49 Q1303.76 1480.07 1300.29 1483.17 Q1296.82 1486.25 1290.5 1486.25 Q1288.32 1486.25 1286.06 1485.88 Q1283.81 1485.51 1281.4 1484.77 L1281.4 1480.07 Q1283.49 1481.2 1285.71 1481.76 Q1287.93 1482.32 1290.41 1482.32 Q1294.41 1482.32 1296.75 1480.21 Q1299.09 1478.1 1299.09 1474.49 Q1299.09 1470.88 1296.75 1468.77 Q1294.41 1466.67 1290.41 1466.67 Q1288.53 1466.67 1286.66 1467.08 Q1284.81 1467.5 1282.86 1468.38 L1282.86 1451.02 Z" fill="#000000" fill-rule="nonzero" fill-opacity="1" /><path clip-path="url(#clip850)" d="M1322.98 1454.1 Q1319.37 1454.1 1317.54 1457.66 Q1315.73 1461.2 1315.73 1468.33 Q1315.73 1475.44 1317.54 1479.01 Q1319.37 1482.55 1322.98 1482.55 Q1326.61 1482.55 1328.42 1479.01 Q1330.25 1475.44 1330.25 1468.33 Q1330.25 1461.2 1328.42 1457.66 Q1326.61 1454.1 1322.98 1454.1 M1322.98 1450.39 Q1328.79 1450.39 1331.84 1455 Q1334.92 1459.58 1334.92 1468.33 Q1334.92 1477.06 1331.84 1481.67 Q1328.79 1486.25 1322.98 1486.25 Q1317.17 1486.25 1314.09 1481.67 Q1311.03 1477.06 1311.03 1468.33 Q1311.03 1459.58 1314.09 1455 Q1317.17 1450.39 1322.98 1450.39 Z" fill="#000000" fill-rule="nonzero" fill-opacity="1" /><path clip-path="url(#clip850)" d="M1751.61 1454.1 Q1748 1454.1 1746.17 1457.66 Q1744.36 1461.2 1744.36 1468.33 Q1744.36 1475.44 1746.17 1479.01 Q1748 1482.55 1751.61 1482.55 Q1755.24 1482.55 1757.05 1479.01 Q1758.88 1475.44 1758.88 1468.33 Q1758.88 1461.2 1757.05 1457.66 Q1755.24 1454.1 1751.61 1454.1 M1751.61 1450.39 Q1757.42 1450.39 1760.47 1455 Q1763.55 1459.58 1763.55 1468.33 Q1763.55 1477.06 1760.47 1481.67 Q1757.42 1486.25 1751.61 1486.25 Q1745.8 1486.25 1742.72 1481.67 Q1739.66 1477.06 1739.66 1468.33 Q1739.66 1459.58 1742.72 1455 Q1745.8 1450.39 1751.61 1450.39 Z" fill="#000000" fill-rule="nonzero" fill-opacity="1" /><path clip-path="url(#clip850)" d="M1771.77 1479.7 L1776.65 1479.7 L1776.65 1485.58 L1771.77 1485.58 L1771.77 1479.7 Z" fill="#000000" fill-rule="nonzero" fill-opacity="1" /><path clip-path="url(#clip850)" d="M1785.66 1451.02 L1807.88 1451.02 L1807.88 1453.01 L1795.33 1485.58 L1790.45 1485.58 L1802.26 1454.96 L1785.66 1454.96 L1785.66 1451.02 Z" fill="#000000" fill-rule="nonzero" fill-opacity="1" /><path clip-path="url(#clip850)" d="M1817.05 1451.02 L1835.4 1451.02 L1835.4 1454.96 L1821.33 1454.96 L1821.33 1463.43 Q1822.35 1463.08 1823.37 1462.92 Q1824.39 1462.73 1825.4 1462.73 Q1831.19 1462.73 1834.57 1465.9 Q1837.95 1469.08 1837.95 1474.49 Q1837.95 1480.07 1834.48 1483.17 Q1831.01 1486.25 1824.69 1486.25 Q1822.51 1486.25 1820.24 1485.88 Q1818 1485.51 1815.59 1484.77 L1815.59 1480.07 Q1817.67 1481.2 1819.89 1481.76 Q1822.12 1482.32 1824.59 1482.32 Q1828.6 1482.32 1830.94 1480.21 Q1833.27 1478.1 1833.27 1474.49 Q1833.27 1470.88 1830.94 1468.77 Q1828.6 1466.67 1824.59 1466.67 Q1822.72 1466.67 1820.84 1467.08 Q1818.99 1467.5 1817.05 1468.38 L1817.05 1451.02 Z" fill="#000000" fill-rule="nonzero" fill-opacity="1" /><path clip-path="url(#clip850)" d="M2244.4 1481.64 L2252.04 1481.64 L2252.04 1455.28 L2243.73 1456.95 L2243.73 1452.69 L2252 1451.02 L2256.67 1451.02 L2256.67 1481.64 L2264.31 1481.64 L2264.31 1485.58 L2244.4 1485.58 L2244.4 1481.64 Z" fill="#000000" fill-rule="nonzero" fill-opacity="1" /><path clip-path="url(#clip850)" d="M2273.76 1479.7 L2278.64 1479.7 L2278.64 1485.58 L2273.76 1485.58 L2273.76 1479.7 Z" fill="#000000" fill-rule="nonzero" fill-opacity="1" /><path clip-path="url(#clip850)" d="M2298.83 1454.1 Q2295.21 1454.1 2293.39 1457.66 Q2291.58 1461.2 2291.58 1468.33 Q2291.58 1475.44 2293.39 1479.01 Q2295.21 1482.55 2298.83 1482.55 Q2302.46 1482.55 2304.27 1479.01 Q2306.09 1475.44 2306.09 1468.33 Q2306.09 1461.2 2304.27 1457.66 Q2302.46 1454.1 2298.83 1454.1 M2298.83 1450.39 Q2304.64 1450.39 2307.69 1455 Q2310.77 1459.58 2310.77 1468.33 Q2310.77 1477.06 2307.69 1481.67 Q2304.64 1486.25 2298.83 1486.25 Q2293.02 1486.25 2289.94 1481.67 Q2286.88 1477.06 2286.88 1468.33 Q2286.88 1459.58 2289.94 1455 Q2293.02 1450.39 2298.83 1450.39 Z" fill="#000000" fill-rule="nonzero" fill-opacity="1" /><path clip-path="url(#clip850)" d="M2328.99 1454.1 Q2325.38 1454.1 2323.55 1457.66 Q2321.74 1461.2 2321.74 1468.33 Q2321.74 1475.44 2323.55 1479.01 Q2325.38 1482.55 2328.99 1482.55 Q2332.62 1482.55 2334.43 1479.01 Q2336.26 1475.44 2336.26 1468.33 Q2336.26 1461.2 2334.43 1457.66 Q2332.62 1454.1 2328.99 1454.1 M2328.99 1450.39 Q2334.8 1450.39 2337.85 1455 Q2340.93 1459.58 2340.93 1468.33 Q2340.93 1477.06 2337.85 1481.67 Q2334.8 1486.25 2328.99 1486.25 Q2323.18 1486.25 2320.1 1481.67 Q2317.04 1477.06 2317.04 1468.33 Q2317.04 1459.58 2320.1 1455 Q2323.18 1450.39 2328.99 1450.39 Z" fill="#000000" fill-rule="nonzero" fill-opacity="1" /><path clip-path="url(#clip850)" d="M1293.75 1531.91 Q1293.75 1532.81 1293.33 1533.04 Q1292.91 1533.23 1291.76 1533.23 L1285.57 1533.23 L1280.68 1552.69 Q1280.29 1554.39 1280.29 1555.84 Q1280.29 1557.45 1280.77 1558.16 Q1281.29 1558.87 1282.35 1558.87 Q1284.44 1558.87 1286.7 1556.97 Q1288.99 1555.07 1290.92 1550.43 Q1291.18 1549.82 1291.3 1549.69 Q1291.47 1549.53 1291.88 1549.53 Q1292.69 1549.53 1292.69 1550.17 Q1292.69 1550.4 1292.24 1551.43 Q1291.82 1552.46 1290.89 1553.97 Q1289.98 1555.49 1288.79 1556.9 Q1287.63 1558.32 1285.86 1559.35 Q1284.09 1560.35 1282.19 1560.35 Q1279.52 1560.35 1277.81 1558.64 Q1276.14 1556.94 1276.14 1554.26 Q1276.14 1553.39 1276.81 1550.62 Q1277.49 1547.82 1281.16 1533.23 L1275.33 1533.23 Q1274.53 1533.23 1274.2 1533.2 Q1273.91 1533.17 1273.69 1533.01 Q1273.49 1532.81 1273.49 1532.43 Q1273.49 1531.82 1273.75 1531.56 Q1274.01 1531.27 1274.33 1531.24 Q1274.69 1531.17 1275.49 1531.17 L1281.67 1531.17 L1284.25 1520.71 Q1284.51 1519.67 1285.15 1519.09 Q1285.83 1518.48 1286.22 1518.42 Q1286.6 1518.32 1286.89 1518.32 Q1287.76 1518.32 1288.28 1518.81 Q1288.79 1519.26 1288.79 1520.09 Q1288.79 1520.54 1286.09 1531.17 L1291.88 1531.17 Q1292.62 1531.17 1292.91 1531.2 Q1293.24 1531.24 1293.49 1531.4 Q1293.75 1531.56 1293.75 1531.91 Z" fill="#000000" fill-rule="nonzero" fill-opacity="1" /><polyline clip-path="url(#clip850)" style="stroke:#000000; stroke-linecap:round; stroke-linejoin:round; stroke-width:4; stroke-opacity:1; fill:none" points="217.806,1423.18 217.806,47.2441 "/>
<polyline clip-path="url(#clip850)" style="stroke:#000000; stroke-linecap:round; stroke-linejoin:round; stroke-width:4; stroke-opacity:1; fill:none" points="217.806,1185.09 236.704,1185.09 "/>
<polyline clip-path="url(#clip850)" style="stroke:#000000; stroke-linecap:round; stroke-linejoin:round; stroke-width:4; stroke-opacity:1; fill:none" points="217.806,886.38 236.704,886.38 "/>
<polyline clip-path="url(#clip850)" style="stroke:#000000; stroke-linecap:round; stroke-linejoin:round; stroke-width:4; stroke-opacity:1; fill:none" points="217.806,587.664 236.704,587.664 "/>
<polyline clip-path="url(#clip850)" style="stroke:#000000; stroke-linecap:round; stroke-linejoin:round; stroke-width:4; stroke-opacity:1; fill:none" points="217.806,288.949 236.704,288.949 "/>
<path clip-path="url(#clip850)" d="M117.038 1198.44 L124.677 1198.44 L124.677 1172.07 L116.367 1173.74 L116.367 1169.48 L124.63 1167.81 L129.306 1167.81 L129.306 1198.44 L136.945 1198.44 L136.945 1202.37 L117.038 1202.37 L117.038 1198.44 Z" fill="#000000" fill-rule="nonzero" fill-opacity="1" /><path clip-path="url(#clip850)" d="M146.39 1196.5 L151.274 1196.5 L151.274 1202.37 L146.39 1202.37 L146.39 1196.5 Z" fill="#000000" fill-rule="nonzero" fill-opacity="1" /><path clip-path="url(#clip850)" d="M165.487 1198.44 L181.806 1198.44 L181.806 1202.37 L159.862 1202.37 L159.862 1198.44 Q162.524 1195.69 167.107 1191.06 Q171.714 1186.4 172.894 1185.06 Q175.139 1182.54 176.019 1180.8 Q176.922 1179.04 176.922 1177.35 Q176.922 1174.6 174.977 1172.86 Q173.056 1171.12 169.954 1171.12 Q167.755 1171.12 165.302 1171.89 Q162.871 1172.65 160.093 1174.2 L160.093 1169.48 Q162.917 1168.35 165.371 1167.77 Q167.825 1167.19 169.862 1167.19 Q175.232 1167.19 178.426 1169.87 Q181.621 1172.56 181.621 1177.05 Q181.621 1179.18 180.811 1181.1 Q180.024 1183 177.917 1185.59 Q177.339 1186.26 174.237 1189.48 Q171.135 1192.68 165.487 1198.44 Z" fill="#000000" fill-rule="nonzero" fill-opacity="1" /><path clip-path="url(#clip850)" d="M116.436 899.724 L124.075 899.724 L124.075 873.359 L115.765 875.026 L115.765 870.766 L124.029 869.1 L128.705 869.1 L128.705 899.724 L136.343 899.724 L136.343 903.66 L116.436 903.66 L116.436 899.724 Z" fill="#000000" fill-rule="nonzero" fill-opacity="1" /><path clip-path="url(#clip850)" d="M145.788 897.78 L150.672 897.78 L150.672 903.66 L145.788 903.66 L145.788 897.78 Z" fill="#000000" fill-rule="nonzero" fill-opacity="1" /><path clip-path="url(#clip850)" d="M160.903 869.1 L179.26 869.1 L179.26 873.035 L165.186 873.035 L165.186 881.507 Q166.204 881.16 167.223 880.998 Q168.241 880.813 169.26 880.813 Q175.047 880.813 178.426 883.984 Q181.806 887.155 181.806 892.572 Q181.806 898.15 178.334 901.252 Q174.862 904.331 168.542 904.331 Q166.366 904.331 164.098 903.961 Q161.852 903.59 159.445 902.849 L159.445 898.15 Q161.528 899.285 163.751 899.84 Q165.973 900.396 168.45 900.396 Q172.454 900.396 174.792 898.289 Q177.13 896.183 177.13 892.572 Q177.13 888.961 174.792 886.854 Q172.454 884.748 168.45 884.748 Q166.575 884.748 164.7 885.164 Q162.848 885.581 160.903 886.461 L160.903 869.1 Z" fill="#000000" fill-rule="nonzero" fill-opacity="1" /><path clip-path="url(#clip850)" d="M115.533 601.009 L123.172 601.009 L123.172 574.644 L114.862 576.31 L114.862 572.051 L123.126 570.384 L127.802 570.384 L127.802 601.009 L135.441 601.009 L135.441 604.944 L115.533 604.944 L115.533 601.009 Z" fill="#000000" fill-rule="nonzero" fill-opacity="1" /><path clip-path="url(#clip850)" d="M144.885 599.065 L149.769 599.065 L149.769 604.944 L144.885 604.944 L144.885 599.065 Z" fill="#000000" fill-rule="nonzero" fill-opacity="1" /><path clip-path="url(#clip850)" d="M169.954 588.532 Q166.621 588.532 164.7 590.315 Q162.802 592.097 162.802 595.222 Q162.802 598.347 164.7 600.13 Q166.621 601.912 169.954 601.912 Q173.288 601.912 175.209 600.13 Q177.13 598.324 177.13 595.222 Q177.13 592.097 175.209 590.315 Q173.311 588.532 169.954 588.532 M165.278 586.542 Q162.269 585.801 160.579 583.741 Q158.913 581.681 158.913 578.718 Q158.913 574.574 161.852 572.167 Q164.815 569.759 169.954 569.759 Q175.116 569.759 178.056 572.167 Q180.996 574.574 180.996 578.718 Q180.996 581.681 179.306 583.741 Q177.639 585.801 174.653 586.542 Q178.033 587.329 179.908 589.62 Q181.806 591.912 181.806 595.222 Q181.806 600.245 178.727 602.931 Q175.672 605.616 169.954 605.616 Q164.237 605.616 161.158 602.931 Q158.103 600.245 158.103 595.222 Q158.103 591.912 160.001 589.62 Q161.899 587.329 165.278 586.542 M163.565 579.158 Q163.565 581.843 165.232 583.347 Q166.922 584.852 169.954 584.852 Q172.964 584.852 174.653 583.347 Q176.366 581.843 176.366 579.158 Q176.366 576.472 174.653 574.968 Q172.964 573.463 169.954 573.463 Q166.922 573.463 165.232 574.968 Q163.565 576.472 163.565 579.158 Z" fill="#000000" fill-rule="nonzero" fill-opacity="1" /><path clip-path="url(#clip850)" d="M119.885 302.294 L136.204 302.294 L136.204 306.229 L114.26 306.229 L114.26 302.294 Q116.922 299.539 121.505 294.91 Q126.112 290.257 127.292 288.915 Q129.538 286.391 130.417 284.655 Q131.32 282.896 131.32 281.206 Q131.32 278.452 129.376 276.716 Q127.455 274.979 124.353 274.979 Q122.154 274.979 119.7 275.743 Q117.269 276.507 114.492 278.058 L114.492 273.336 Q117.316 272.202 119.769 271.623 Q122.223 271.044 124.26 271.044 Q129.63 271.044 132.825 273.729 Q136.019 276.415 136.019 280.905 Q136.019 283.035 135.209 284.956 Q134.422 286.854 132.316 289.447 Q131.737 290.118 128.635 293.336 Q125.533 296.53 119.885 302.294 Z" fill="#000000" fill-rule="nonzero" fill-opacity="1" /><path clip-path="url(#clip850)" d="M146.019 300.35 L150.903 300.35 L150.903 306.229 L146.019 306.229 L146.019 300.35 Z" fill="#000000" fill-rule="nonzero" fill-opacity="1" /><path clip-path="url(#clip850)" d="M161.899 302.294 L169.538 302.294 L169.538 275.928 L161.227 277.595 L161.227 273.336 L169.491 271.669 L174.167 271.669 L174.167 302.294 L181.806 302.294 L181.806 306.229 L161.899 306.229 L161.899 302.294 Z" fill="#000000" fill-rule="nonzero" fill-opacity="1" /><path clip-path="url(#clip850)" d="M30.8561 720.775 Q31.307 720.775 32.3698 721.064 L57.5548 727.377 Q63.1586 728.762 67.0877 733.27 Q71.0168 737.747 71.0168 742.836 Q71.0168 745.895 69.3743 747.86 Q67.764 749.824 65.2842 749.824 Q63.0942 749.824 62.0314 748.665 Q61.0008 747.505 61.0008 746.121 Q61.0008 745.67 61.1296 745.187 Q61.2584 744.703 61.8059 744.188 Q62.3534 743.673 63.2874 743.673 Q64.8011 743.673 65.9927 744.993 Q66.5402 745.637 66.669 746.249 Q66.7978 746.829 66.7978 747.827 Q67.6996 747.441 68.3115 746.732 Q68.9234 746.024 69.1489 745.219 Q69.4065 744.414 69.4709 743.898 Q69.5675 743.351 69.5675 742.836 Q69.5675 738.713 65.413 735.557 Q64.157 734.623 62.9009 733.947 Q61.6771 733.238 60.1634 732.723 Q58.682 732.208 57.8768 731.982 Q57.0717 731.725 55.2359 731.274 Q58.2311 734.269 58.2311 737.94 Q58.2311 739.486 57.8124 740.871 Q57.3937 742.224 56.5242 743.415 Q55.6224 744.607 54.0443 745.315 Q52.4662 745.992 50.3728 745.992 Q48.1506 745.992 45.1233 745.122 Q42.0959 744.253 36.5243 742.159 Q33.4004 741.032 31.8867 741.032 Q31.146 741.032 30.6951 741.193 Q30.212 741.354 30.051 741.676 Q29.8577 741.998 29.8255 742.191 Q29.7933 742.352 29.7933 742.675 Q29.7933 744.575 31.7257 746.346 Q33.658 748.117 37.9736 749.341 Q38.7787 749.599 38.972 749.76 Q39.1652 749.921 39.1652 750.404 Q39.133 751.209 38.4889 751.209 Q38.2312 751.209 37.2329 750.919 Q36.2023 750.629 34.6886 749.953 Q33.1427 749.245 31.7579 748.278 Q30.3408 747.312 29.3424 745.798 Q28.344 744.253 28.344 742.481 Q28.344 740.066 29.9221 738.584 Q31.468 737.071 33.7546 737.071 Q34.6886 737.071 35.5259 737.328 Q36.3311 737.554 38.4889 738.391 Q47.1845 741.773 51.4356 741.773 Q52.4662 741.773 53.3358 741.612 Q54.1731 741.418 55.0105 741 Q55.8156 740.581 56.2987 739.744 Q56.7496 738.874 56.7496 737.683 Q56.7496 736.169 56.0411 734.752 Q55.3003 733.303 54.302 732.401 Q53.3036 731.467 52.4662 730.919 Q51.5967 730.34 51.1458 730.211 L39.294 727.248 L34.0123 725.927 Q31.146 725.316 30.4374 725.026 Q29.7611 724.639 29.4068 723.963 Q29.0526 723.287 29.0526 722.707 Q29.0526 721.902 29.5357 721.354 Q30.0187 720.775 30.8561 720.775 Z" fill="#000000" fill-rule="nonzero" fill-opacity="1" /><polyline clip-path="url(#clip852)" style="stroke:#ff7e0d; stroke-linecap:round; stroke-linejoin:round; stroke-width:8; stroke-opacity:1; fill:none" stroke-dasharray="32, 20" points="278.229,1384.24 282.163,1379.57 286.097,1374.59 290.031,1371.17 293.964,1364.3 297.898,1362.01 301.832,1365.63 305.766,1357.3 309.7,1354.41 313.633,1354.52 317.567,1358.18 321.501,1357.06 325.435,1362.27 329.369,1366.85 333.302,1365.36 337.236,1360.25 341.17,1362.2 345.104,1350.66 349.038,1343.98 352.971,1350.15 356.905,1351.39 360.839,1345.51 364.773,1341.16 368.707,1337.6 372.64,1342 376.574,1338.65 380.508,1339.34 384.442,1339.19 388.375,1337.74 392.309,1339.2 396.243,1343.89 400.177,1343.73 404.111,1341.79 408.044,1353.28 411.978,1348.89 415.912,1338.39 419.846,1326.53 423.78,1323.3 427.713,1329.2 431.647,1342.17 435.581,1354.24 439.515,1343.74 443.449,1340.68 447.382,1347.8 451.316,1342.58 455.25,1335.14 459.184,1317.31 463.118,1308.41 467.051,1307.51 470.985,1308.84 474.919,1318.53 478.853,1307.81 482.787,1301.32 486.72,1286.47 490.654,1270.43 494.588,1285.7 498.522,1284.18 502.456,1288.48 506.389,1274.49 510.323,1259.72 514.257,1244.88 518.191,1252.46 522.125,1257.96 526.058,1266.52 529.992,1251.23 533.926,1260.9 537.86,1250.43 541.794,1246.66 545.727,1257.48 549.661,1261.27 553.595,1258.6 557.529,1265.44 561.463,1266.07 565.396,1249.42 569.33,1240.57 573.264,1241.53 577.198,1242.36 581.131,1247.87 585.065,1237.12 588.999,1250.83 592.933,1241.4 596.867,1231.74 600.8,1227.46 604.734,1218.01 608.668,1221.87 612.602,1215 616.536,1218.89 620.469,1230.31 624.403,1238.99 628.337,1240.84 632.271,1240.34 636.205,1242.3 640.138,1239.19 644.072,1233.15 648.006,1237.14 651.94,1232.8 655.874,1224.66 659.807,1218.33 663.741,1204.72 667.675,1183.32 671.609,1192.36 675.543,1194.59 679.476,1194.06 683.41,1165.55 687.344,1154.64 691.278,1160.55 695.212,1149.73 699.145,1170.05 703.079,1181.23 707.013,1196.46 710.947,1193.46 714.881,1200.53 718.814,1195.34 722.748,1199.15 726.682,1185.13 730.616,1186.54 734.55,1186.68 738.483,1180.94 742.417,1176.94 746.351,1170.93 750.285,1166.48 754.219,1149.38 758.152,1149.23 762.086,1146.7 766.02,1137.06 769.954,1140.22 773.888,1145.87 777.821,1148.97 781.755,1170.5 785.689,1169.67 789.623,1170.95 793.556,1158.55 797.49,1155.36 801.424,1158.64 805.358,1155.4 809.292,1151.26 813.225,1166.88 817.159,1170.66 821.093,1173.69 825.027,1186.96 828.961,1194.01 832.894,1191.53 836.828,1198.97 840.762,1209.15 844.696,1209.3 848.63,1215.97 852.563,1217.87 856.497,1197.87 860.431,1193.65 864.365,1194.14 868.299,1210.34 872.232,1244.57 876.166,1243.5 880.1,1242.56 884.034,1239.84 887.968,1220.81 891.901,1218.27 895.835,1216.24 899.769,1217.02 903.703,1212.76 907.637,1196.5 911.57,1188.42 915.504,1204.32 919.438,1203.82 923.372,1199.85 927.306,1210.03 931.239,1224.08 935.173,1205.91 939.107,1206.88 943.041,1226.8 946.975,1244.26 950.908,1221.38 954.842,1218.61 958.776,1223.6 962.71,1219.85 966.644,1205.41 970.577,1209.27 974.511,1209.5 978.445,1221.62 982.379,1217.04 986.312,1204.98 990.246,1209.07 994.18,1199.22 998.114,1202.71 1002.05,1197.27 1005.98,1203.76 1009.92,1197.22 1013.85,1194.97 1017.78,1193.27 1021.72,1201.48 1025.65,1188.85 1029.58,1196.39 1033.52,1209.12 1037.45,1209.25 1041.39,1209.16 1045.32,1202.21 1049.25,1195.98 1053.19,1208.53 1057.12,1201.57 1061.05,1195.9 1064.99,1197.1 1068.92,1191.55 1072.86,1187.6 1076.79,1192.5 1080.72,1190.98 1084.66,1198.59 1088.59,1197.47 1092.52,1204.61 1096.46,1193.24 1100.39,1183.29 1104.33,1162.22 1108.26,1151.51 1112.19,1149.35 1116.13,1165.19 1120.06,1176.77 1124,1163.09 1127.93,1159.57 1131.86,1154.97 1135.8,1142.14 1139.73,1138.57 1143.66,1129.46 1147.6,1133.25 1151.53,1115.04 1155.47,1126.86 1159.4,1129.46 1163.33,1133.93 1167.27,1139.51 1171.2,1111.08 1175.13,1115.21 1179.07,1106.04 1183,1106.17 1186.94,1102.81 1190.87,1099.25 1194.8,1102.59 1198.74,1093.56 1202.67,1065.87 1206.61,1069.83 1210.54,1057.13 1214.47,1061.74 1218.41,1054.73 1222.34,1053.75 1226.27,1034.47 1230.21,1032.23 1234.14,1047.84 1238.08,1034.75 1242.01,1042.95 1245.94,1026.14 1249.88,1022.95 1253.81,1014.34 1257.74,1024.84 1261.68,1029.26 1265.61,1033.44 1269.55,1029.91 1273.48,1014.88 1277.41,1021.86 1281.35,1027.09 1285.28,1017.92 1289.21,1018.53 1293.15,1007.38 1297.08,1002.3 1301.02,980.258 1304.95,979.752 1308.88,957.954 1312.82,952.52 1316.75,945.04 1320.69,934.542 1324.62,923.709 1328.55,923.493 1332.49,960.622 1336.42,957.362 1340.35,952.445 1344.29,965.032 1348.22,953.945 1352.16,929.796 1356.09,934.606 1360.02,931.756 1363.96,911.674 1367.89,892.592 1371.82,878.644 1375.76,878.363 1379.69,865.272 1383.63,863.259 1387.56,847.31 1391.49,855.053 1395.43,844.411 1399.36,849.771 1403.29,815.568 1407.23,821.027 1411.16,816.274 1415.1,831.038 1419.03,836.694 1422.96,808.805 1426.9,783.169 1430.83,773.999 1434.77,789.044 1438.7,762.605 1442.63,743.656 1446.57,744.718 1450.5,740.384 1454.43,749.646 1458.37,737.463 1462.3,730.665 1466.24,716.682 1470.17,721.431 1474.1,728.131 1478.04,719.013 1481.97,701.982 1485.9,687.28 1489.84,721.087 1493.77,723.231 1497.71,725.931 1501.64,714.339 1505.57,685.751 1509.51,696.56 1513.44,696.344 1517.37,697.618 1521.31,684.152 1525.24,679.441 1529.18,700.045 1533.11,726.458 1537.04,709.262 1540.98,710.767 1544.91,751.803 1548.85,777.971 1552.78,777.47 1556.71,785.27 1560.65,779.866 1564.58,764.479 1568.51,753.531 1572.45,760.651 1576.38,762.758 1580.32,747.822 1584.25,739.156 1588.18,745.632 1592.12,761.234 1596.05,753.147 1599.98,759.017 1603.92,775.983 1607.85,782.173 1611.79,788.871 1615.72,775.985 1619.65,753.739 1623.59,763.482 1627.52,754.312 1631.46,748.1 1635.39,766.763 1639.32,775.398 1643.26,775.638 1647.19,758.94 1651.12,761.005 1655.06,748.619 1658.99,756.136 1662.93,738.926 1666.86,730.548 1670.79,718.781 1674.73,721.658 1678.66,675.995 1682.59,681.898 1686.53,682.539 1690.46,670.369 1694.4,672.946 1698.33,655.883 1702.26,660.374 1706.2,655.914 1710.13,674.102 1714.06,648.247 1718,642.765 1721.93,625.752 1725.87,619.367 1729.8,611.224 1733.73,583.537 1737.67,600.649 1741.6,585.797 1745.54,564.605 1749.47,576.04 1753.4,587.217 1757.34,568.56 1761.27,557.2 1765.2,522.562 1769.14,519.478 1773.07,514.016 1777.01,526.155 1780.94,521.351 1784.87,523.744 1788.81,514.751 1792.74,499.814 1796.67,464.173 1800.61,445.561 1804.54,414.671 1808.48,396.698 1812.41,369.347 1816.34,384.061 1820.28,413.11 1824.21,417.734 1828.14,410.786 1832.08,394.998 1836.01,410.545 1839.95,399.192 1843.88,419.31 1847.81,429.234 1851.75,399.137 1855.68,395.634 1859.62,373.706 1863.55,382.056 1867.48,362.625 1871.42,344.507 1875.35,331.28 1879.28,302.804 1883.22,315.227 1887.15,321.721 1891.09,320.896 1895.02,329.403 1898.95,314.221 1902.89,296.546 1906.82,315.553 1910.75,299.49 1914.69,294.032 1918.62,278.021 1922.56,276.824 1926.49,255.967 1930.42,276.157 1934.36,274.125 1938.29,261.582 1942.22,255.617 1946.16,260.838 1950.09,275.818 1954.03,271.386 1957.96,286.776 1961.89,301.6 1965.83,293.994 1969.76,271.45 1973.7,275.52 1977.63,269.997 1981.56,287.485 1985.5,251.354 1989.43,266.123 1993.36,253.604 1997.3,238.388 2001.23,243.091 2005.17,259.184 2009.1,241.097 2013.03,232.152 2016.97,257.986 2020.9,247.745 2024.83,240.113 2028.77,245.111 2032.7,229.45 2036.64,247.296 2040.57,253.224 2044.5,243.533 2048.44,245.877 2052.37,215.792 2056.31,247.968 2060.24,221.135 2064.17,256.661 2068.11,255.371 2072.04,279.675 2075.97,256.136 2079.91,272.171 2083.84,257.961 2087.78,236.906 2091.71,257.394 2095.64,237.449 2099.58,212.721 2103.51,175.523 2107.44,183.518 2111.38,172.624 2115.31,171.792 2119.25,151.387 2123.18,165.749 2127.11,166.333 2131.05,160.638 2134.98,153.106 2138.91,159.209 2142.85,167.196 2146.78,176.824 2150.72,184.348 2154.65,216.005 2158.58,222.797 2162.52,207.39 2166.45,189.187 2170.39,151.961 2174.32,169.409 2178.25,166.768 2182.19,150.529 2186.12,194.373 2190.05,195.22 2193.99,215.189 2197.92,210.03 2201.86,213.928 2205.79,219.156 2209.72,203.215 2213.66,205.233 2217.59,193.556 2221.52,177.394 2225.46,202.71 2229.39,202.337 2233.33,233.198 2237.26,225.887 2241.19,255.619 2245.13,234.044 2249.06,245.18 2252.99,230.5 2256.93,211.437 2260.86,208.604 2264.8,190.645 2268.73,184.326 2272.66,155.747 2276.6,123.649 2280.53,118.436 2284.47,119.224 2288.4,102.341 2292.33,86.1857 "/>
<path clip-path="url(#clip850)" d="M288.971 196.789 L747.28 196.789 L747.28 93.1086 L288.971 93.1086  Z" fill="#ffffff" fill-rule="evenodd" fill-opacity="1"/>
<polyline clip-path="url(#clip850)" style="stroke:#000000; stroke-linecap:round; stroke-linejoin:round; stroke-width:4; stroke-opacity:1; fill:none" points="288.971,196.789 747.28,196.789 747.28,93.1086 288.971,93.1086 288.971,196.789 "/>
<polyline clip-path="url(#clip850)" style="stroke:#ff7e0d; stroke-linecap:round; stroke-linejoin:round; stroke-width:8; stroke-opacity:1; fill:none" stroke-dasharray="32, 20" points="312.693,144.949 455.023,144.949 "/>
<path clip-path="url(#clip850)" d="M497.656 148.965 Q497.656 144.335 495.735 141.789 Q493.837 139.243 490.388 139.243 Q486.962 139.243 485.041 141.789 Q483.143 144.335 483.143 148.965 Q483.143 153.571 485.041 156.118 Q486.962 158.664 490.388 158.664 Q493.837 158.664 495.735 156.118 Q497.656 153.571 497.656 148.965 M501.916 159.011 Q501.916 165.631 498.976 168.849 Q496.036 172.09 489.971 172.09 Q487.726 172.09 485.735 171.742 Q483.744 171.418 481.869 170.724 L481.869 166.58 Q483.744 167.599 485.573 168.085 Q487.402 168.571 489.3 168.571 Q493.49 168.571 495.573 166.372 Q497.656 164.196 497.656 159.775 L497.656 157.668 Q496.337 159.96 494.277 161.094 Q492.217 162.229 489.346 162.229 Q484.578 162.229 481.661 158.594 Q478.744 154.96 478.744 148.965 Q478.744 142.946 481.661 139.312 Q484.578 135.678 489.346 135.678 Q492.217 135.678 494.277 136.812 Q496.337 137.946 497.656 140.238 L497.656 136.303 L501.916 136.303 L501.916 159.011 Z" fill="#000000" fill-rule="nonzero" fill-opacity="1" /><path clip-path="url(#clip850)" d="M515.55 145.724 L515.55 158.386 L523.05 158.386 Q526.823 158.386 528.628 156.835 Q530.457 155.261 530.457 152.043 Q530.457 148.803 528.628 147.275 Q526.823 145.724 523.05 145.724 L515.55 145.724 M515.55 131.511 L515.55 141.928 L522.471 141.928 Q525.897 141.928 527.564 140.655 Q529.253 139.358 529.253 136.719 Q529.253 134.104 527.564 132.807 Q525.897 131.511 522.471 131.511 L515.55 131.511 M510.874 127.669 L522.818 127.669 Q528.165 127.669 531.059 129.891 Q533.952 132.113 533.952 136.21 Q533.952 139.382 532.471 141.257 Q530.989 143.131 528.119 143.594 Q531.568 144.335 533.466 146.696 Q535.388 149.034 535.388 152.553 Q535.388 157.182 532.239 159.705 Q529.091 162.229 523.281 162.229 L510.874 162.229 L510.874 127.669 Z" fill="#000000" fill-rule="nonzero" fill-opacity="1" /><path clip-path="url(#clip850)" d="M563.397 141.28 Q564.994 138.409 567.216 137.044 Q569.438 135.678 572.448 135.678 Q576.499 135.678 578.698 138.525 Q580.897 141.349 580.897 146.581 L580.897 162.229 L576.614 162.229 L576.614 146.719 Q576.614 142.993 575.295 141.187 Q573.975 139.382 571.267 139.382 Q567.957 139.382 566.036 141.581 Q564.114 143.78 564.114 147.576 L564.114 162.229 L559.832 162.229 L559.832 146.719 Q559.832 142.969 558.512 141.187 Q557.193 139.382 554.438 139.382 Q551.175 139.382 549.253 141.604 Q547.332 143.803 547.332 147.576 L547.332 162.229 L543.05 162.229 L543.05 136.303 L547.332 136.303 L547.332 140.331 Q548.79 137.946 550.827 136.812 Q552.864 135.678 555.665 135.678 Q558.489 135.678 560.457 137.113 Q562.448 138.548 563.397 141.28 Z" fill="#000000" fill-rule="nonzero" fill-opacity="1" /><path clip-path="url(#clip850)" d="M626.012 146.581 L626.012 162.229 L621.753 162.229 L621.753 146.719 Q621.753 143.039 620.318 141.21 Q618.883 139.382 616.012 139.382 Q612.563 139.382 610.572 141.581 Q608.582 143.78 608.582 147.576 L608.582 162.229 L604.299 162.229 L604.299 136.303 L608.582 136.303 L608.582 140.331 Q610.109 137.993 612.17 136.835 Q614.253 135.678 616.961 135.678 Q621.429 135.678 623.72 138.456 Q626.012 141.21 626.012 146.581 Z" fill="#000000" fill-rule="nonzero" fill-opacity="1" /><path clip-path="url(#clip850)" d="M644.554 139.289 Q641.128 139.289 639.137 141.974 Q637.146 144.636 637.146 149.289 Q637.146 153.942 639.114 156.627 Q641.105 159.289 644.554 159.289 Q647.956 159.289 649.947 156.604 Q651.938 153.918 651.938 149.289 Q651.938 144.682 649.947 141.997 Q647.956 139.289 644.554 139.289 M644.554 135.678 Q650.109 135.678 653.281 139.289 Q656.452 142.9 656.452 149.289 Q656.452 155.655 653.281 159.289 Q650.109 162.9 644.554 162.9 Q638.975 162.9 635.804 159.289 Q632.656 155.655 632.656 149.289 Q632.656 142.9 635.804 139.289 Q638.975 135.678 644.554 135.678 Z" fill="#000000" fill-rule="nonzero" fill-opacity="1" /><path clip-path="url(#clip850)" d="M663.512 136.303 L667.771 136.303 L667.771 162.229 L663.512 162.229 L663.512 136.303 M663.512 126.21 L667.771 126.21 L667.771 131.604 L663.512 131.604 L663.512 126.21 Z" fill="#000000" fill-rule="nonzero" fill-opacity="1" /><path clip-path="url(#clip850)" d="M693.211 137.067 L693.211 141.094 Q691.405 140.169 689.461 139.706 Q687.516 139.243 685.433 139.243 Q682.262 139.243 680.665 140.215 Q679.091 141.187 679.091 143.131 Q679.091 144.613 680.225 145.469 Q681.359 146.303 684.785 147.067 L686.243 147.391 Q690.78 148.363 692.678 150.145 Q694.6 151.905 694.6 155.076 Q694.6 158.687 691.729 160.793 Q688.882 162.9 683.882 162.9 Q681.799 162.9 679.53 162.483 Q677.285 162.09 674.785 161.28 L674.785 156.881 Q677.146 158.108 679.438 158.733 Q681.729 159.335 683.975 159.335 Q686.984 159.335 688.604 158.317 Q690.225 157.275 690.225 155.4 Q690.225 153.664 689.044 152.738 Q687.887 151.812 683.928 150.956 L682.447 150.608 Q678.489 149.775 676.729 148.062 Q674.97 146.326 674.97 143.317 Q674.97 139.659 677.563 137.669 Q680.155 135.678 684.924 135.678 Q687.285 135.678 689.368 136.025 Q691.452 136.372 693.211 137.067 Z" fill="#000000" fill-rule="nonzero" fill-opacity="1" /><path clip-path="url(#clip850)" d="M723.558 148.201 L723.558 150.284 L703.975 150.284 Q704.252 154.682 706.614 156.997 Q708.998 159.289 713.234 159.289 Q715.688 159.289 717.979 158.687 Q720.294 158.085 722.563 156.881 L722.563 160.909 Q720.271 161.881 717.863 162.391 Q715.456 162.9 712.979 162.9 Q706.776 162.9 703.141 159.289 Q699.53 155.678 699.53 149.52 Q699.53 143.155 702.956 139.428 Q706.405 135.678 712.239 135.678 Q717.47 135.678 720.502 139.057 Q723.558 142.414 723.558 148.201 M719.299 146.951 Q719.252 143.456 717.331 141.372 Q715.433 139.289 712.285 139.289 Q708.72 139.289 706.567 141.303 Q704.438 143.317 704.114 146.974 L719.299 146.951 Z" fill="#000000" fill-rule="nonzero" fill-opacity="1" /></svg>
