<?xml version="1.0" encoding="utf-8"?>
<svg xmlns="http://www.w3.org/2000/svg" xmlns:xlink="http://www.w3.org/1999/xlink" width="600" height="400" viewBox="0 0 2400 1600">
<defs>
  <clipPath id="clip180">
    <rect x="0" y="0" width="2400" height="1600"/>
  </clipPath>
</defs>
<path clip-path="url(#clip180)" d="M0 1600 L2400 1600 L2400 0 L0 0  Z" fill="#ffffff" fill-rule="evenodd" fill-opacity="1"/>
<defs>
  <clipPath id="clip181">
    <rect x="480" y="0" width="1681" height="1600"/>
  </clipPath>
</defs>
<path clip-path="url(#clip180)" d="M256.209 1423.18 L2352.76 1423.18 L2352.76 47.2441 L256.209 47.2441  Z" fill="#ffffff" fill-rule="evenodd" fill-opacity="1"/>
<defs>
  <clipPath id="clip182">
    <rect x="256" y="47" width="2098" height="1377"/>
  </clipPath>
</defs>
<polyline clip-path="url(#clip182)" style="stroke:#000000; stroke-linecap:round; stroke-linejoin:round; stroke-width:2; stroke-opacity:0.1; fill:none" points="315.545,1423.18 315.545,47.2441 "/>
<polyline clip-path="url(#clip182)" style="stroke:#000000; stroke-linecap:round; stroke-linejoin:round; stroke-width:2; stroke-opacity:0.1; fill:none" points="810.014,1423.18 810.014,47.2441 "/>
<polyline clip-path="url(#clip182)" style="stroke:#000000; stroke-linecap:round; stroke-linejoin:round; stroke-width:2; stroke-opacity:0.1; fill:none" points="1304.48,1423.18 1304.48,47.2441 "/>
<polyline clip-path="url(#clip182)" style="stroke:#000000; stroke-linecap:round; stroke-linejoin:round; stroke-width:2; stroke-opacity:0.1; fill:none" points="1798.95,1423.18 1798.95,47.2441 "/>
<polyline clip-path="url(#clip182)" style="stroke:#000000; stroke-linecap:round; stroke-linejoin:round; stroke-width:2; stroke-opacity:0.1; fill:none" points="2293.42,1423.18 2293.42,47.2441 "/>
<polyline clip-path="url(#clip182)" style="stroke:#000000; stroke-linecap:round; stroke-linejoin:round; stroke-width:2; stroke-opacity:0.1; fill:none" points="256.209,1421.76 2352.76,1421.76 "/>
<polyline clip-path="url(#clip182)" style="stroke:#000000; stroke-linecap:round; stroke-linejoin:round; stroke-width:2; stroke-opacity:0.1; fill:none" points="256.209,1220.96 2352.76,1220.96 "/>
<polyline clip-path="url(#clip182)" style="stroke:#000000; stroke-linecap:round; stroke-linejoin:round; stroke-width:2; stroke-opacity:0.1; fill:none" points="256.209,1020.15 2352.76,1020.15 "/>
<polyline clip-path="url(#clip182)" style="stroke:#000000; stroke-linecap:round; stroke-linejoin:round; stroke-width:2; stroke-opacity:0.1; fill:none" points="256.209,819.35 2352.76,819.35 "/>
<polyline clip-path="url(#clip182)" style="stroke:#000000; stroke-linecap:round; stroke-linejoin:round; stroke-width:2; stroke-opacity:0.1; fill:none" points="256.209,618.546 2352.76,618.546 "/>
<polyline clip-path="url(#clip182)" style="stroke:#000000; stroke-linecap:round; stroke-linejoin:round; stroke-width:2; stroke-opacity:0.1; fill:none" points="256.209,417.743 2352.76,417.743 "/>
<polyline clip-path="url(#clip182)" style="stroke:#000000; stroke-linecap:round; stroke-linejoin:round; stroke-width:2; stroke-opacity:0.1; fill:none" points="256.209,216.94 2352.76,216.94 "/>
<polyline clip-path="url(#clip180)" style="stroke:#000000; stroke-linecap:round; stroke-linejoin:round; stroke-width:4; stroke-opacity:1; fill:none" points="256.209,1423.18 2352.76,1423.18 "/>
<polyline clip-path="url(#clip180)" style="stroke:#000000; stroke-linecap:round; stroke-linejoin:round; stroke-width:4; stroke-opacity:1; fill:none" points="315.545,1423.18 315.545,1404.28 "/>
<polyline clip-path="url(#clip180)" style="stroke:#000000; stroke-linecap:round; stroke-linejoin:round; stroke-width:4; stroke-opacity:1; fill:none" points="810.014,1423.18 810.014,1404.28 "/>
<polyline clip-path="url(#clip180)" style="stroke:#000000; stroke-linecap:round; stroke-linejoin:round; stroke-width:4; stroke-opacity:1; fill:none" points="1304.48,1423.18 1304.48,1404.28 "/>
<polyline clip-path="url(#clip180)" style="stroke:#000000; stroke-linecap:round; stroke-linejoin:round; stroke-width:4; stroke-opacity:1; fill:none" points="1798.95,1423.18 1798.95,1404.28 "/>
<polyline clip-path="url(#clip180)" style="stroke:#000000; stroke-linecap:round; stroke-linejoin:round; stroke-width:4; stroke-opacity:1; fill:none" points="2293.42,1423.18 2293.42,1404.28 "/>
<path clip-path="url(#clip180)" d="M277.848 1454.1 Q274.237 1454.1 272.409 1457.66 Q270.603 1461.2 270.603 1468.33 Q270.603 1475.44 272.409 1479.01 Q274.237 1482.55 277.848 1482.55 Q281.483 1482.55 283.288 1479.01 Q285.117 1475.44 285.117 1468.33 Q285.117 1461.2 283.288 1457.66 Q281.483 1454.1 277.848 1454.1 M277.848 1450.39 Q283.659 1450.39 286.714 1455 Q289.793 1459.58 289.793 1468.33 Q289.793 1477.06 286.714 1481.67 Q283.659 1486.25 277.848 1486.25 Q272.038 1486.25 268.96 1481.67 Q265.904 1477.06 265.904 1468.33 Q265.904 1459.58 268.96 1455 Q272.038 1450.39 277.848 1450.39 Z" fill="#000000" fill-rule="nonzero" fill-opacity="1" /><path clip-path="url(#clip180)" d="M298.01 1479.7 L302.895 1479.7 L302.895 1485.58 L298.01 1485.58 L298.01 1479.7 Z" fill="#000000" fill-rule="nonzero" fill-opacity="1" /><path clip-path="url(#clip180)" d="M323.08 1454.1 Q319.468 1454.1 317.64 1457.66 Q315.834 1461.2 315.834 1468.33 Q315.834 1475.44 317.64 1479.01 Q319.468 1482.55 323.08 1482.55 Q326.714 1482.55 328.519 1479.01 Q330.348 1475.44 330.348 1468.33 Q330.348 1461.2 328.519 1457.66 Q326.714 1454.1 323.08 1454.1 M323.08 1450.39 Q328.89 1450.39 331.945 1455 Q335.024 1459.58 335.024 1468.33 Q335.024 1477.06 331.945 1481.67 Q328.89 1486.25 323.08 1486.25 Q317.269 1486.25 314.191 1481.67 Q311.135 1477.06 311.135 1468.33 Q311.135 1459.58 314.191 1455 Q317.269 1450.39 323.08 1450.39 Z" fill="#000000" fill-rule="nonzero" fill-opacity="1" /><path clip-path="url(#clip180)" d="M353.241 1454.1 Q349.63 1454.1 347.802 1457.66 Q345.996 1461.2 345.996 1468.33 Q345.996 1475.44 347.802 1479.01 Q349.63 1482.55 353.241 1482.55 Q356.876 1482.55 358.681 1479.01 Q360.51 1475.44 360.51 1468.33 Q360.51 1461.2 358.681 1457.66 Q356.876 1454.1 353.241 1454.1 M353.241 1450.39 Q359.052 1450.39 362.107 1455 Q365.186 1459.58 365.186 1468.33 Q365.186 1477.06 362.107 1481.67 Q359.052 1486.25 353.241 1486.25 Q347.431 1486.25 344.353 1481.67 Q341.297 1477.06 341.297 1468.33 Q341.297 1459.58 344.353 1455 Q347.431 1450.39 353.241 1450.39 Z" fill="#000000" fill-rule="nonzero" fill-opacity="1" /><path clip-path="url(#clip180)" d="M772.815 1454.1 Q769.204 1454.1 767.375 1457.66 Q765.569 1461.2 765.569 1468.33 Q765.569 1475.44 767.375 1479.01 Q769.204 1482.55 772.815 1482.55 Q776.449 1482.55 778.255 1479.01 Q780.083 1475.44 780.083 1468.33 Q780.083 1461.2 778.255 1457.66 Q776.449 1454.1 772.815 1454.1 M772.815 1450.39 Q778.625 1450.39 781.68 1455 Q784.759 1459.58 784.759 1468.33 Q784.759 1477.06 781.68 1481.67 Q778.625 1486.25 772.815 1486.25 Q767.005 1486.25 763.926 1481.67 Q760.87 1477.06 760.87 1468.33 Q760.87 1459.58 763.926 1455 Q767.005 1450.39 772.815 1450.39 Z" fill="#000000" fill-rule="nonzero" fill-opacity="1" /><path clip-path="url(#clip180)" d="M792.977 1479.7 L797.861 1479.7 L797.861 1485.58 L792.977 1485.58 L792.977 1479.7 Z" fill="#000000" fill-rule="nonzero" fill-opacity="1" /><path clip-path="url(#clip180)" d="M812.074 1481.64 L828.393 1481.64 L828.393 1485.58 L806.449 1485.58 L806.449 1481.64 Q809.111 1478.89 813.694 1474.26 Q818.301 1469.61 819.481 1468.27 Q821.726 1465.74 822.606 1464.01 Q823.509 1462.25 823.509 1460.56 Q823.509 1457.8 821.564 1456.07 Q819.643 1454.33 816.541 1454.33 Q814.342 1454.33 811.889 1455.09 Q809.458 1455.86 806.68 1457.41 L806.68 1452.69 Q809.504 1451.55 811.958 1450.97 Q814.412 1450.39 816.449 1450.39 Q821.819 1450.39 825.014 1453.08 Q828.208 1455.77 828.208 1460.26 Q828.208 1462.39 827.398 1464.31 Q826.611 1466.2 824.504 1468.8 Q823.926 1469.47 820.824 1472.69 Q817.722 1475.88 812.074 1481.64 Z" fill="#000000" fill-rule="nonzero" fill-opacity="1" /><path clip-path="url(#clip180)" d="M838.254 1451.02 L856.611 1451.02 L856.611 1454.96 L842.537 1454.96 L842.537 1463.43 Q843.555 1463.08 844.574 1462.92 Q845.592 1462.73 846.611 1462.73 Q852.398 1462.73 855.777 1465.9 Q859.157 1469.08 859.157 1474.49 Q859.157 1480.07 855.685 1483.17 Q852.212 1486.25 845.893 1486.25 Q843.717 1486.25 841.449 1485.88 Q839.203 1485.51 836.796 1484.77 L836.796 1480.07 Q838.879 1481.2 841.101 1481.76 Q843.324 1482.32 845.8 1482.32 Q849.805 1482.32 852.143 1480.21 Q854.481 1478.1 854.481 1474.49 Q854.481 1470.88 852.143 1468.77 Q849.805 1466.67 845.8 1466.67 Q843.925 1466.67 842.05 1467.08 Q840.199 1467.5 838.254 1468.38 L838.254 1451.02 Z" fill="#000000" fill-rule="nonzero" fill-opacity="1" /><path clip-path="url(#clip180)" d="M1266.79 1454.1 Q1263.17 1454.1 1261.35 1457.66 Q1259.54 1461.2 1259.54 1468.33 Q1259.54 1475.44 1261.35 1479.01 Q1263.17 1482.55 1266.79 1482.55 Q1270.42 1482.55 1272.23 1479.01 Q1274.05 1475.44 1274.05 1468.33 Q1274.05 1461.2 1272.23 1457.66 Q1270.42 1454.1 1266.79 1454.1 M1266.79 1450.39 Q1272.6 1450.39 1275.65 1455 Q1278.73 1459.58 1278.73 1468.33 Q1278.73 1477.06 1275.65 1481.67 Q1272.6 1486.25 1266.79 1486.25 Q1260.98 1486.25 1257.9 1481.67 Q1254.84 1477.06 1254.84 1468.33 Q1254.84 1459.58 1257.9 1455 Q1260.98 1450.39 1266.79 1450.39 Z" fill="#000000" fill-rule="nonzero" fill-opacity="1" /><path clip-path="url(#clip180)" d="M1286.95 1479.7 L1291.83 1479.7 L1291.83 1485.58 L1286.95 1485.58 L1286.95 1479.7 Z" fill="#000000" fill-rule="nonzero" fill-opacity="1" /><path clip-path="url(#clip180)" d="M1302.06 1451.02 L1320.42 1451.02 L1320.42 1454.96 L1306.35 1454.96 L1306.35 1463.43 Q1307.36 1463.08 1308.38 1462.92 Q1309.4 1462.73 1310.42 1462.73 Q1316.21 1462.73 1319.59 1465.9 Q1322.97 1469.08 1322.97 1474.49 Q1322.97 1480.07 1319.49 1483.17 Q1316.02 1486.25 1309.7 1486.25 Q1307.53 1486.25 1305.26 1485.88 Q1303.01 1485.51 1300.6 1484.77 L1300.6 1480.07 Q1302.69 1481.2 1304.91 1481.76 Q1307.13 1482.32 1309.61 1482.32 Q1313.61 1482.32 1315.95 1480.21 Q1318.29 1478.1 1318.29 1474.49 Q1318.29 1470.88 1315.95 1468.77 Q1313.61 1466.67 1309.61 1466.67 Q1307.73 1466.67 1305.86 1467.08 Q1304.01 1467.5 1302.06 1468.38 L1302.06 1451.02 Z" fill="#000000" fill-rule="nonzero" fill-opacity="1" /><path clip-path="url(#clip180)" d="M1342.18 1454.1 Q1338.57 1454.1 1336.74 1457.66 Q1334.93 1461.2 1334.93 1468.33 Q1334.93 1475.44 1336.74 1479.01 Q1338.57 1482.55 1342.18 1482.55 Q1345.81 1482.55 1347.62 1479.01 Q1349.45 1475.44 1349.45 1468.33 Q1349.45 1461.2 1347.62 1457.66 Q1345.81 1454.1 1342.18 1454.1 M1342.18 1450.39 Q1347.99 1450.39 1351.04 1455 Q1354.12 1459.58 1354.12 1468.33 Q1354.12 1477.06 1351.04 1481.67 Q1347.99 1486.25 1342.18 1486.25 Q1336.37 1486.25 1333.29 1481.67 Q1330.23 1477.06 1330.23 1468.33 Q1330.23 1459.58 1333.29 1455 Q1336.37 1450.39 1342.18 1450.39 Z" fill="#000000" fill-rule="nonzero" fill-opacity="1" /><path clip-path="url(#clip180)" d="M1761.75 1454.1 Q1758.14 1454.1 1756.31 1457.66 Q1754.51 1461.2 1754.51 1468.33 Q1754.51 1475.44 1756.31 1479.01 Q1758.14 1482.55 1761.75 1482.55 Q1765.39 1482.55 1767.19 1479.01 Q1769.02 1475.44 1769.02 1468.33 Q1769.02 1461.2 1767.19 1457.66 Q1765.39 1454.1 1761.75 1454.1 M1761.75 1450.39 Q1767.56 1450.39 1770.62 1455 Q1773.7 1459.58 1773.7 1468.33 Q1773.7 1477.06 1770.62 1481.67 Q1767.56 1486.25 1761.75 1486.25 Q1755.94 1486.25 1752.86 1481.67 Q1749.81 1477.06 1749.81 1468.33 Q1749.81 1459.58 1752.86 1455 Q1755.94 1450.39 1761.75 1450.39 Z" fill="#000000" fill-rule="nonzero" fill-opacity="1" /><path clip-path="url(#clip180)" d="M1781.91 1479.7 L1786.8 1479.7 L1786.8 1485.58 L1781.91 1485.58 L1781.91 1479.7 Z" fill="#000000" fill-rule="nonzero" fill-opacity="1" /><path clip-path="url(#clip180)" d="M1795.8 1451.02 L1818.02 1451.02 L1818.02 1453.01 L1805.48 1485.58 L1800.59 1485.58 L1812.4 1454.96 L1795.8 1454.96 L1795.8 1451.02 Z" fill="#000000" fill-rule="nonzero" fill-opacity="1" /><path clip-path="url(#clip180)" d="M1827.19 1451.02 L1845.55 1451.02 L1845.55 1454.96 L1831.47 1454.96 L1831.47 1463.43 Q1832.49 1463.08 1833.51 1462.92 Q1834.53 1462.73 1835.55 1462.73 Q1841.34 1462.73 1844.71 1465.9 Q1848.09 1469.08 1848.09 1474.49 Q1848.09 1480.07 1844.62 1483.17 Q1841.15 1486.25 1834.83 1486.25 Q1832.65 1486.25 1830.39 1485.88 Q1828.14 1485.51 1825.73 1484.77 L1825.73 1480.07 Q1827.82 1481.2 1830.04 1481.76 Q1832.26 1482.32 1834.74 1482.32 Q1838.74 1482.32 1841.08 1480.21 Q1843.42 1478.1 1843.42 1474.49 Q1843.42 1470.88 1841.08 1468.77 Q1838.74 1466.67 1834.74 1466.67 Q1832.86 1466.67 1830.99 1467.08 Q1829.14 1467.5 1827.19 1468.38 L1827.19 1451.02 Z" fill="#000000" fill-rule="nonzero" fill-opacity="1" /><path clip-path="url(#clip180)" d="M2245.49 1481.64 L2253.13 1481.64 L2253.13 1455.28 L2244.82 1456.95 L2244.82 1452.69 L2253.08 1451.02 L2257.76 1451.02 L2257.76 1481.64 L2265.4 1481.64 L2265.4 1485.58 L2245.49 1485.58 L2245.49 1481.64 Z" fill="#000000" fill-rule="nonzero" fill-opacity="1" /><path clip-path="url(#clip180)" d="M2274.84 1479.7 L2279.73 1479.7 L2279.73 1485.58 L2274.84 1485.58 L2274.84 1479.7 Z" fill="#000000" fill-rule="nonzero" fill-opacity="1" /><path clip-path="url(#clip180)" d="M2299.91 1454.1 Q2296.3 1454.1 2294.47 1457.66 Q2292.67 1461.2 2292.67 1468.33 Q2292.67 1475.44 2294.47 1479.01 Q2296.3 1482.55 2299.91 1482.55 Q2303.55 1482.55 2305.35 1479.01 Q2307.18 1475.44 2307.18 1468.33 Q2307.18 1461.2 2305.35 1457.66 Q2303.55 1454.1 2299.91 1454.1 M2299.91 1450.39 Q2305.72 1450.39 2308.78 1455 Q2311.86 1459.58 2311.86 1468.33 Q2311.86 1477.06 2308.78 1481.67 Q2305.72 1486.25 2299.91 1486.25 Q2294.1 1486.25 2291.02 1481.67 Q2287.97 1477.06 2287.97 1468.33 Q2287.97 1459.58 2291.02 1455 Q2294.1 1450.39 2299.91 1450.39 Z" fill="#000000" fill-rule="nonzero" fill-opacity="1" /><path clip-path="url(#clip180)" d="M2330.07 1454.1 Q2326.46 1454.1 2324.63 1457.66 Q2322.83 1461.2 2322.83 1468.33 Q2322.83 1475.44 2324.63 1479.01 Q2326.46 1482.55 2330.07 1482.55 Q2333.71 1482.55 2335.51 1479.01 Q2337.34 1475.44 2337.34 1468.33 Q2337.34 1461.2 2335.51 1457.66 Q2333.71 1454.1 2330.07 1454.1 M2330.07 1450.39 Q2335.88 1450.39 2338.94 1455 Q2342.02 1459.58 2342.02 1468.33 Q2342.02 1477.06 2338.94 1481.67 Q2335.88 1486.25 2330.07 1486.25 Q2324.26 1486.25 2321.19 1481.67 Q2318.13 1477.06 2318.13 1468.33 Q2318.13 1459.58 2321.19 1455 Q2324.26 1450.39 2330.07 1450.39 Z" fill="#000000" fill-rule="nonzero" fill-opacity="1" /><path clip-path="url(#clip180)" d="M1312.95 1531.91 Q1312.95 1532.81 1312.53 1533.04 Q1312.12 1533.23 1310.96 1533.23 L1304.77 1533.23 L1299.88 1552.69 Q1299.49 1554.39 1299.49 1555.84 Q1299.49 1557.45 1299.97 1558.16 Q1300.49 1558.87 1301.55 1558.87 Q1303.65 1558.87 1305.9 1556.97 Q1308.19 1555.07 1310.12 1550.43 Q1310.38 1549.82 1310.51 1549.69 Q1310.67 1549.53 1311.09 1549.53 Q1311.89 1549.53 1311.89 1550.17 Q1311.89 1550.4 1311.44 1551.43 Q1311.02 1552.46 1310.09 1553.97 Q1309.19 1555.49 1307.99 1556.9 Q1306.83 1558.32 1305.06 1559.35 Q1303.29 1560.35 1301.39 1560.35 Q1298.72 1560.35 1297.01 1558.64 Q1295.34 1556.94 1295.34 1554.26 Q1295.34 1553.39 1296.01 1550.62 Q1296.69 1547.82 1300.36 1533.23 L1294.53 1533.23 Q1293.73 1533.23 1293.4 1533.2 Q1293.11 1533.17 1292.89 1533.01 Q1292.7 1532.81 1292.7 1532.43 Q1292.7 1531.82 1292.95 1531.56 Q1293.21 1531.27 1293.53 1531.24 Q1293.89 1531.17 1294.69 1531.17 L1300.88 1531.17 L1303.45 1520.71 Q1303.71 1519.67 1304.35 1519.09 Q1305.03 1518.48 1305.42 1518.42 Q1305.8 1518.32 1306.09 1518.32 Q1306.96 1518.32 1307.48 1518.81 Q1307.99 1519.26 1307.99 1520.09 Q1307.99 1520.54 1305.29 1531.17 L1311.09 1531.17 Q1311.83 1531.17 1312.12 1531.2 Q1312.44 1531.24 1312.7 1531.4 Q1312.95 1531.56 1312.95 1531.91 Z" fill="#000000" fill-rule="nonzero" fill-opacity="1" /><polyline clip-path="url(#clip180)" style="stroke:#000000; stroke-linecap:round; stroke-linejoin:round; stroke-width:4; stroke-opacity:1; fill:none" points="256.209,1423.18 256.209,47.2441 "/>
<polyline clip-path="url(#clip180)" style="stroke:#000000; stroke-linecap:round; stroke-linejoin:round; stroke-width:4; stroke-opacity:1; fill:none" points="256.209,1421.76 275.106,1421.76 "/>
<polyline clip-path="url(#clip180)" style="stroke:#000000; stroke-linecap:round; stroke-linejoin:round; stroke-width:4; stroke-opacity:1; fill:none" points="256.209,1220.96 275.106,1220.96 "/>
<polyline clip-path="url(#clip180)" style="stroke:#000000; stroke-linecap:round; stroke-linejoin:round; stroke-width:4; stroke-opacity:1; fill:none" points="256.209,1020.15 275.106,1020.15 "/>
<polyline clip-path="url(#clip180)" style="stroke:#000000; stroke-linecap:round; stroke-linejoin:round; stroke-width:4; stroke-opacity:1; fill:none" points="256.209,819.35 275.106,819.35 "/>
<polyline clip-path="url(#clip180)" style="stroke:#000000; stroke-linecap:round; stroke-linejoin:round; stroke-width:4; stroke-opacity:1; fill:none" points="256.209,618.546 275.106,618.546 "/>
<polyline clip-path="url(#clip180)" style="stroke:#000000; stroke-linecap:round; stroke-linejoin:round; stroke-width:4; stroke-opacity:1; fill:none" points="256.209,417.743 275.106,417.743 "/>
<polyline clip-path="url(#clip180)" style="stroke:#000000; stroke-linecap:round; stroke-linejoin:round; stroke-width:4; stroke-opacity:1; fill:none" points="256.209,216.94 275.106,216.94 "/>
<path clip-path="url(#clip180)" d="M114.26 1422.21 L143.936 1422.21 L143.936 1426.15 L114.26 1426.15 L114.26 1422.21 Z" fill="#000000" fill-rule="nonzero" fill-opacity="1" /><path clip-path="url(#clip180)" d="M164.028 1407.56 Q160.417 1407.56 158.589 1411.12 Q156.783 1414.67 156.783 1421.79 Q156.783 1428.9 158.589 1432.47 Q160.417 1436.01 164.028 1436.01 Q167.663 1436.01 169.468 1432.47 Q171.297 1428.9 171.297 1421.79 Q171.297 1414.67 169.468 1411.12 Q167.663 1407.56 164.028 1407.56 M164.028 1403.85 Q169.839 1403.85 172.894 1408.46 Q175.973 1413.04 175.973 1421.79 Q175.973 1430.52 172.894 1435.13 Q169.839 1439.71 164.028 1439.71 Q158.218 1439.71 155.14 1435.13 Q152.084 1430.52 152.084 1421.79 Q152.084 1413.04 155.14 1408.46 Q158.218 1403.85 164.028 1403.85 Z" fill="#000000" fill-rule="nonzero" fill-opacity="1" /><path clip-path="url(#clip180)" d="M184.19 1433.16 L189.075 1433.16 L189.075 1439.04 L184.19 1439.04 L184.19 1433.16 Z" fill="#000000" fill-rule="nonzero" fill-opacity="1" /><path clip-path="url(#clip180)" d="M199.306 1404.48 L217.662 1404.48 L217.662 1408.42 L203.588 1408.42 L203.588 1416.89 Q204.607 1416.54 205.625 1416.38 Q206.644 1416.19 207.662 1416.19 Q213.449 1416.19 216.829 1419.36 Q220.209 1422.54 220.209 1427.95 Q220.209 1433.53 216.736 1436.63 Q213.264 1439.71 206.945 1439.71 Q204.769 1439.71 202.5 1439.34 Q200.255 1438.97 197.848 1438.23 L197.848 1433.53 Q199.931 1434.66 202.153 1435.22 Q204.375 1435.78 206.852 1435.78 Q210.857 1435.78 213.195 1433.67 Q215.533 1431.56 215.533 1427.95 Q215.533 1424.34 213.195 1422.23 Q210.857 1420.13 206.852 1420.13 Q204.977 1420.13 203.102 1420.54 Q201.25 1420.96 199.306 1421.84 L199.306 1404.48 Z" fill="#000000" fill-rule="nonzero" fill-opacity="1" /><path clip-path="url(#clip180)" d="M163.033 1206.76 Q159.422 1206.76 157.593 1210.32 Q155.788 1213.86 155.788 1220.99 Q155.788 1228.1 157.593 1231.66 Q159.422 1235.2 163.033 1235.2 Q166.667 1235.2 168.473 1231.66 Q170.302 1228.1 170.302 1220.99 Q170.302 1213.86 168.473 1210.32 Q166.667 1206.76 163.033 1206.76 M163.033 1203.05 Q168.843 1203.05 171.899 1207.66 Q174.977 1212.24 174.977 1220.99 Q174.977 1229.72 171.899 1234.32 Q168.843 1238.91 163.033 1238.91 Q157.223 1238.91 154.144 1234.32 Q151.089 1229.72 151.089 1220.99 Q151.089 1212.24 154.144 1207.66 Q157.223 1203.05 163.033 1203.05 Z" fill="#000000" fill-rule="nonzero" fill-opacity="1" /><path clip-path="url(#clip180)" d="M183.195 1232.36 L188.079 1232.36 L188.079 1238.24 L183.195 1238.24 L183.195 1232.36 Z" fill="#000000" fill-rule="nonzero" fill-opacity="1" /><path clip-path="url(#clip180)" d="M208.264 1206.76 Q204.653 1206.76 202.824 1210.32 Q201.019 1213.86 201.019 1220.99 Q201.019 1228.1 202.824 1231.66 Q204.653 1235.2 208.264 1235.2 Q211.899 1235.2 213.704 1231.66 Q215.533 1228.1 215.533 1220.99 Q215.533 1213.86 213.704 1210.32 Q211.899 1206.76 208.264 1206.76 M208.264 1203.05 Q214.074 1203.05 217.13 1207.66 Q220.209 1212.24 220.209 1220.99 Q220.209 1229.72 217.13 1234.32 Q214.074 1238.91 208.264 1238.91 Q202.454 1238.91 199.375 1234.32 Q196.32 1229.72 196.32 1220.99 Q196.32 1212.24 199.375 1207.66 Q202.454 1203.05 208.264 1203.05 Z" fill="#000000" fill-rule="nonzero" fill-opacity="1" /><path clip-path="url(#clip180)" d="M164.028 1005.95 Q160.417 1005.95 158.589 1009.52 Q156.783 1013.06 156.783 1020.19 Q156.783 1027.29 158.589 1030.86 Q160.417 1034.4 164.028 1034.4 Q167.663 1034.4 169.468 1030.86 Q171.297 1027.29 171.297 1020.19 Q171.297 1013.06 169.468 1009.52 Q167.663 1005.95 164.028 1005.95 M164.028 1002.25 Q169.839 1002.25 172.894 1006.85 Q175.973 1011.44 175.973 1020.19 Q175.973 1028.91 172.894 1033.52 Q169.839 1038.1 164.028 1038.1 Q158.218 1038.1 155.14 1033.52 Q152.084 1028.91 152.084 1020.19 Q152.084 1011.44 155.14 1006.85 Q158.218 1002.25 164.028 1002.25 Z" fill="#000000" fill-rule="nonzero" fill-opacity="1" /><path clip-path="url(#clip180)" d="M184.19 1031.55 L189.075 1031.55 L189.075 1037.43 L184.19 1037.43 L184.19 1031.55 Z" fill="#000000" fill-rule="nonzero" fill-opacity="1" /><path clip-path="url(#clip180)" d="M199.306 1002.87 L217.662 1002.87 L217.662 1006.81 L203.588 1006.81 L203.588 1015.28 Q204.607 1014.93 205.625 1014.77 Q206.644 1014.59 207.662 1014.59 Q213.449 1014.59 216.829 1017.76 Q220.209 1020.93 220.209 1026.35 Q220.209 1031.92 216.736 1035.03 Q213.264 1038.1 206.945 1038.1 Q204.769 1038.1 202.5 1037.73 Q200.255 1037.36 197.848 1036.62 L197.848 1031.92 Q199.931 1033.06 202.153 1033.61 Q204.375 1034.17 206.852 1034.17 Q210.857 1034.17 213.195 1032.06 Q215.533 1029.96 215.533 1026.35 Q215.533 1022.73 213.195 1020.63 Q210.857 1018.52 206.852 1018.52 Q204.977 1018.52 203.102 1018.94 Q201.25 1019.35 199.306 1020.23 L199.306 1002.87 Z" fill="#000000" fill-rule="nonzero" fill-opacity="1" /><path clip-path="url(#clip180)" d="M153.843 832.695 L161.482 832.695 L161.482 806.329 L153.172 807.996 L153.172 803.736 L161.436 802.07 L166.112 802.07 L166.112 832.695 L173.751 832.695 L173.751 836.63 L153.843 836.63 L153.843 832.695 Z" fill="#000000" fill-rule="nonzero" fill-opacity="1" /><path clip-path="url(#clip180)" d="M183.195 830.75 L188.079 830.75 L188.079 836.63 L183.195 836.63 L183.195 830.75 Z" fill="#000000" fill-rule="nonzero" fill-opacity="1" /><path clip-path="url(#clip180)" d="M208.264 805.148 Q204.653 805.148 202.824 808.713 Q201.019 812.255 201.019 819.385 Q201.019 826.491 202.824 830.056 Q204.653 833.597 208.264 833.597 Q211.899 833.597 213.704 830.056 Q215.533 826.491 215.533 819.385 Q215.533 812.255 213.704 808.713 Q211.899 805.148 208.264 805.148 M208.264 801.445 Q214.074 801.445 217.13 806.051 Q220.209 810.635 220.209 819.385 Q220.209 828.111 217.13 832.718 Q214.074 837.301 208.264 837.301 Q202.454 837.301 199.375 832.718 Q196.32 828.111 196.32 819.385 Q196.32 810.635 199.375 806.051 Q202.454 801.445 208.264 801.445 Z" fill="#000000" fill-rule="nonzero" fill-opacity="1" /><path clip-path="url(#clip180)" d="M154.839 631.891 L162.477 631.891 L162.477 605.526 L154.167 607.192 L154.167 602.933 L162.431 601.266 L167.107 601.266 L167.107 631.891 L174.746 631.891 L174.746 635.826 L154.839 635.826 L154.839 631.891 Z" fill="#000000" fill-rule="nonzero" fill-opacity="1" /><path clip-path="url(#clip180)" d="M184.19 629.947 L189.075 629.947 L189.075 635.826 L184.19 635.826 L184.19 629.947 Z" fill="#000000" fill-rule="nonzero" fill-opacity="1" /><path clip-path="url(#clip180)" d="M199.306 601.266 L217.662 601.266 L217.662 605.202 L203.588 605.202 L203.588 613.674 Q204.607 613.327 205.625 613.165 Q206.644 612.979 207.662 612.979 Q213.449 612.979 216.829 616.151 Q220.209 619.322 220.209 624.739 Q220.209 630.317 216.736 633.419 Q213.264 636.498 206.945 636.498 Q204.769 636.498 202.5 636.127 Q200.255 635.757 197.848 635.016 L197.848 630.317 Q199.931 631.451 202.153 632.007 Q204.375 632.563 206.852 632.563 Q210.857 632.563 213.195 630.456 Q215.533 628.35 215.533 624.739 Q215.533 621.127 213.195 619.021 Q210.857 616.914 206.852 616.914 Q204.977 616.914 203.102 617.331 Q201.25 617.748 199.306 618.627 L199.306 601.266 Z" fill="#000000" fill-rule="nonzero" fill-opacity="1" /><path clip-path="url(#clip180)" d="M157.061 431.088 L173.38 431.088 L173.38 435.023 L151.436 435.023 L151.436 431.088 Q154.098 428.333 158.681 423.704 Q163.288 419.051 164.468 417.708 Q166.714 415.185 167.593 413.449 Q168.496 411.69 168.496 410 Q168.496 407.245 166.552 405.509 Q164.63 403.773 161.528 403.773 Q159.329 403.773 156.876 404.537 Q154.445 405.301 151.667 406.852 L151.667 402.13 Q154.491 400.995 156.945 400.417 Q159.399 399.838 161.436 399.838 Q166.806 399.838 170.001 402.523 Q173.195 405.208 173.195 409.699 Q173.195 411.829 172.385 413.75 Q171.598 415.648 169.491 418.241 Q168.913 418.912 165.811 422.13 Q162.709 425.324 157.061 431.088 Z" fill="#000000" fill-rule="nonzero" fill-opacity="1" /><path clip-path="url(#clip180)" d="M183.195 429.143 L188.079 429.143 L188.079 435.023 L183.195 435.023 L183.195 429.143 Z" fill="#000000" fill-rule="nonzero" fill-opacity="1" /><path clip-path="url(#clip180)" d="M208.264 403.542 Q204.653 403.542 202.824 407.107 Q201.019 410.648 201.019 417.778 Q201.019 424.884 202.824 428.449 Q204.653 431.991 208.264 431.991 Q211.899 431.991 213.704 428.449 Q215.533 424.884 215.533 417.778 Q215.533 410.648 213.704 407.107 Q211.899 403.542 208.264 403.542 M208.264 399.838 Q214.074 399.838 217.13 404.445 Q220.209 409.028 220.209 417.778 Q220.209 426.505 217.13 431.111 Q214.074 435.694 208.264 435.694 Q202.454 435.694 199.375 431.111 Q196.32 426.505 196.32 417.778 Q196.32 409.028 199.375 404.445 Q202.454 399.838 208.264 399.838 Z" fill="#000000" fill-rule="nonzero" fill-opacity="1" /><path clip-path="url(#clip180)" d="M158.056 230.285 L174.376 230.285 L174.376 234.22 L152.431 234.22 L152.431 230.285 Q155.093 227.53 159.677 222.9 Q164.283 218.248 165.464 216.905 Q167.709 214.382 168.589 212.646 Q169.491 210.886 169.491 209.197 Q169.491 206.442 167.547 204.706 Q165.626 202.97 162.524 202.97 Q160.325 202.97 157.871 203.734 Q155.44 204.498 152.663 206.049 L152.663 201.326 Q155.487 200.192 157.94 199.613 Q160.394 199.035 162.431 199.035 Q167.802 199.035 170.996 201.72 Q174.19 204.405 174.19 208.896 Q174.19 211.025 173.38 212.947 Q172.593 214.845 170.487 217.437 Q169.908 218.109 166.806 221.326 Q163.704 224.521 158.056 230.285 Z" fill="#000000" fill-rule="nonzero" fill-opacity="1" /><path clip-path="url(#clip180)" d="M184.19 228.34 L189.075 228.34 L189.075 234.22 L184.19 234.22 L184.19 228.34 Z" fill="#000000" fill-rule="nonzero" fill-opacity="1" /><path clip-path="url(#clip180)" d="M199.306 199.66 L217.662 199.66 L217.662 203.595 L203.588 203.595 L203.588 212.067 Q204.607 211.72 205.625 211.558 Q206.644 211.373 207.662 211.373 Q213.449 211.373 216.829 214.544 Q220.209 217.715 220.209 223.132 Q220.209 228.71 216.736 231.812 Q213.264 234.891 206.945 234.891 Q204.769 234.891 202.5 234.521 Q200.255 234.15 197.848 233.41 L197.848 228.71 Q199.931 229.845 202.153 230.4 Q204.375 230.956 206.852 230.956 Q210.857 230.956 213.195 228.849 Q215.533 226.743 215.533 223.132 Q215.533 219.521 213.195 217.414 Q210.857 215.308 206.852 215.308 Q204.977 215.308 203.102 215.724 Q201.25 216.141 199.306 217.021 L199.306 199.66 Z" fill="#000000" fill-rule="nonzero" fill-opacity="1" /><path clip-path="url(#clip180)" d="M30.8561 720.775 Q31.307 720.775 32.3698 721.064 L57.5548 727.377 Q63.1586 728.762 67.0877 733.27 Q71.0168 737.747 71.0168 742.836 Q71.0168 745.895 69.3743 747.86 Q67.764 749.824 65.2842 749.824 Q63.0942 749.824 62.0314 748.665 Q61.0008 747.505 61.0008 746.121 Q61.0008 745.67 61.1296 745.187 Q61.2584 744.703 61.8059 744.188 Q62.3534 743.673 63.2874 743.673 Q64.8011 743.673 65.9927 744.993 Q66.5402 745.637 66.669 746.249 Q66.7978 746.829 66.7978 747.827 Q67.6996 747.441 68.3115 746.732 Q68.9234 746.024 69.1489 745.219 Q69.4065 744.414 69.4709 743.898 Q69.5675 743.351 69.5675 742.836 Q69.5675 738.713 65.413 735.557 Q64.157 734.623 62.9009 733.947 Q61.6771 733.238 60.1634 732.723 Q58.682 732.208 57.8768 731.982 Q57.0717 731.725 55.2359 731.274 Q58.2311 734.269 58.2311 737.94 Q58.2311 739.486 57.8124 740.871 Q57.3937 742.224 56.5242 743.415 Q55.6224 744.607 54.0443 745.315 Q52.4662 745.992 50.3728 745.992 Q48.1506 745.992 45.1233 745.122 Q42.0959 744.253 36.5243 742.159 Q33.4004 741.032 31.8867 741.032 Q31.146 741.032 30.6951 741.193 Q30.212 741.354 30.051 741.676 Q29.8577 741.998 29.8255 742.191 Q29.7933 742.352 29.7933 742.675 Q29.7933 744.575 31.7257 746.346 Q33.658 748.117 37.9736 749.341 Q38.7787 749.599 38.972 749.76 Q39.1652 749.921 39.1652 750.404 Q39.133 751.209 38.4889 751.209 Q38.2312 751.209 37.2329 750.919 Q36.2023 750.629 34.6886 749.953 Q33.1427 749.245 31.7579 748.278 Q30.3408 747.312 29.3424 745.798 Q28.344 744.253 28.344 742.481 Q28.344 740.066 29.9221 738.584 Q31.468 737.071 33.7546 737.071 Q34.6886 737.071 35.5259 737.328 Q36.3311 737.554 38.4889 738.391 Q47.1845 741.773 51.4356 741.773 Q52.4662 741.773 53.3358 741.612 Q54.1731 741.418 55.0105 741 Q55.8156 740.581 56.2987 739.744 Q56.7496 738.874 56.7496 737.683 Q56.7496 736.169 56.0411 734.752 Q55.3003 733.303 54.302 732.401 Q53.3036 731.467 52.4662 730.919 Q51.5967 730.34 51.1458 730.211 L39.294 727.248 L34.0123 725.927 Q31.146 725.316 30.4374 725.026 Q29.7611 724.639 29.4068 723.963 Q29.0526 723.287 29.0526 722.707 Q29.0526 721.902 29.5357 721.354 Q30.0187 720.775 30.8561 720.775 Z" fill="#000000" fill-rule="nonzero" fill-opacity="1" /><polyline clip-path="url(#clip182)" style="stroke:#ff7e0d; stroke-linecap:round; stroke-linejoin:round; stroke-width:8; stroke-opacity:1; fill:none" stroke-dasharray="32, 20" points="315.545,1220.96 319.408,726.527 323.271,999.162 327.134,1184.61 330.997,1239.31 334.86,1204.33 338.723,1049.25 342.586,798.359 346.449,618.84 350.312,913.09 354.175,1011.06 358.038,435.406 361.901,809.457 365.764,685.683 369.627,707.902 373.49,618.852 377.353,746.506 381.217,938.692 385.08,687.818 388.943,804.387 392.806,877.148 396.669,996.005 400.532,874.138 404.395,958.211 408.258,533.728 412.121,580.427 415.984,794.215 419.847,666.485 423.71,725.943 427.573,783.52 431.436,902.811 435.299,889.532 439.162,695.065 443.025,916.58 446.888,1086.98 450.751,529.808 454.614,694.468 458.477,822.363 462.34,990.47 466.203,975.637 470.066,840.924 473.929,759.064 477.792,627.34 481.655,292.342 485.519,850.489 489.382,758.818 493.245,679.119 497.108,732.972 500.971,783.24 504.834,600.377 508.697,1053.3 512.56,1021.6 516.423,920.44 520.286,1234.45 524.149,587.328 528.012,867.597 531.875,832.404 535.738,658.427 539.601,706.068 543.464,876.303 547.327,980.564 551.19,961.13 555.053,898.312 558.916,856.305 562.779,1009.64 566.642,1119.44 570.505,1139.37 574.368,1070.87 578.231,1218.83 582.094,859.598 585.957,799.843 589.821,1018.5 593.684,1038.81 597.547,1367.24 601.41,1169.35 605.273,1232.82 609.136,1066.31 612.999,1112.96 616.862,1006.56 620.725,1040.05 624.588,991.404 628.451,906.008 632.314,1054.38 636.177,1041.23 640.04,1145.49 643.903,1097.72 647.766,903.532 651.629,1143.22 655.492,1235.8 659.355,955.708 663.218,896.606 667.081,1038.17 670.944,1005.12 674.807,1017.2 678.67,1192.39 682.533,910.89 686.396,841.612 690.259,992.924 694.122,939.695 697.986,1068.88 701.849,775.774 705.712,605.465 709.575,829.739 713.438,1035.67 717.301,1079.32 721.164,1346.71 725.027,961.824 728.89,1384.24 732.753,933.99 736.616,1218.92 740.479,993.578 744.342,799.422 748.205,991.331 752.068,802.857 755.931,1075.74 759.794,865.177 763.657,567.242 767.52,511.744 771.383,656.539 775.246,640.776 779.109,557.229 782.972,1032.81 786.835,880.48 790.698,1065.2 794.561,1234.02 798.424,890.337 802.288,797.546 806.151,710.005 810.014,1137.41 813.877,876.248 817.74,1087.17 821.603,985.124 825.466,689.617 829.329,1047.82 833.192,789.218 837.055,591.415 840.918,1044.61 844.781,1079.28 848.644,711.588 852.507,950.075 856.37,743.265 860.233,1304.29 864.096,1062.3 867.959,965.71 871.822,1127.67 875.685,1148.15 879.548,869.472 883.411,972.867 887.274,821.291 891.137,1208.48 895,969.709 898.863,1139.05 902.726,821.372 906.59,789.548 910.453,707.763 914.316,760.429 918.179,1094.37 922.042,827.431 925.905,902.579 929.768,967.637 933.631,702.8 937.494,964.028 941.357,673.932 945.22,1066.82 949.083,783.807 952.946,911.115 956.809,1035.36 960.672,1110 964.535,1006.81 968.398,730.131 972.261,673.973 976.124,707.369 979.987,545.455 983.85,646.38 987.713,708.17 991.576,706.379 995.439,373.406 999.302,642.237 1003.17,462.881 1007.03,705.018 1010.89,916.179 1014.75,1124.56 1018.62,735.458 1022.48,708.379 1026.34,665.785 1030.21,706.078 1034.07,1017.6 1037.93,870.955 1041.8,650.165 1045.66,494.515 1049.52,731.662 1053.38,596.751 1057.25,686.015 1061.11,583.744 1064.97,765.909 1068.84,746.07 1072.7,591.401 1076.56,576.463 1080.43,763.292 1084.29,665.617 1088.15,507.973 1092.02,690.268 1095.88,448.499 1099.74,684.914 1103.6,660.243 1107.47,718.925 1111.33,445.43 1115.19,863.416 1119.06,668.982 1122.92,484.811 1126.78,718.26 1130.65,622.593 1134.51,1094.89 1138.37,836.502 1142.23,569.077 1146.1,725.333 1149.96,826.993 1153.82,773.293 1157.69,1020.6 1161.55,982.27 1165.41,802.289 1169.28,691.197 1173.14,784.409 1177,616.172 1180.87,807.397 1184.73,697.353 1188.59,832.293 1192.45,975.156 1196.32,797.594 1200.18,621.683 1204.04,809.709 1207.91,837.45 1211.77,802.066 1215.63,615.003 1219.5,501.489 1223.36,684.468 1227.22,555.966 1231.08,746.945 1234.95,532.782 1238.81,831.297 1242.67,796.288 1246.54,788.179 1250.4,639.109 1254.26,655.077 1258.13,731.229 1261.99,705.759 1265.85,918.623 1269.71,1062.21 1273.58,846.457 1277.44,646.933 1281.3,796.082 1285.17,579.741 1289.03,585.087 1292.89,926.705 1296.76,950.996 1300.62,767.747 1304.48,737.236 1308.35,843.337 1312.21,903.502 1316.07,1251.24 1319.93,1093.85 1323.8,998.871 1327.66,1041.48 1331.52,1183.03 1335.39,886.782 1339.25,1064.85 1343.11,857.095 1346.98,492.171 1350.84,756.492 1354.7,692.766 1358.56,1080.38 1362.43,786.347 1366.29,519.044 1370.15,533.651 1374.02,870.987 1377.88,547.886 1381.74,854.109 1385.61,602.678 1389.47,685.978 1393.33,678.004 1397.2,520.865 1401.06,782.852 1404.92,827.654 1408.78,902.007 1412.65,799.723 1416.51,644.021 1420.37,764.829 1424.24,784.219 1428.1,812.188 1431.96,705.318 1435.83,566.709 1439.69,456.123 1443.55,714.089 1447.41,328.066 1451.28,580.864 1455.14,844.043 1459,838.063 1462.87,872.166 1466.73,695.976 1470.59,792.118 1474.46,616.779 1478.32,1020.57 1482.18,956.113 1486.05,1046.85 1489.91,1023.63 1493.77,978.36 1497.63,893.936 1501.5,795.528 1505.36,760.625 1509.22,600.061 1513.09,832.344 1516.95,818.877 1520.81,733.338 1524.68,971.467 1528.54,576.568 1532.4,924.122 1536.26,629.142 1540.13,571.071 1543.99,588.254 1547.85,1011.21 1551.72,544.78 1555.58,936.376 1559.44,293.866 1563.31,418.087 1567.17,401.179 1571.03,714.539 1574.89,442.601 1578.76,693.939 1582.62,538.975 1586.48,653.923 1590.35,423.781 1594.21,605.738 1598.07,345.567 1601.94,318.544 1605.8,523.623 1609.66,759.944 1613.53,497.952 1617.39,360.767 1621.25,806.53 1625.11,883.775 1628.98,793.646 1632.84,730.612 1636.7,423.209 1640.57,566.511 1644.43,437.148 1648.29,486.114 1652.16,552.139 1656.02,511.001 1659.88,396.673 1663.74,782.49 1667.61,624.904 1671.47,319.216 1675.33,504.325 1679.2,211.461 1683.06,627.789 1686.92,791.658 1690.79,721.16 1694.65,596.038 1698.51,609.765 1702.38,859.663 1706.24,594.938 1710.1,532.865 1713.96,822.358 1717.83,919.799 1721.69,873.014 1725.55,923.319 1729.42,862.624 1733.28,636.579 1737.14,566.029 1741.01,745.442 1744.87,759.04 1748.73,851.819 1752.59,1018.44 1756.46,798.852 1760.32,764.957 1764.18,921.68 1768.05,630.574 1771.91,845.837 1775.77,787.2 1779.64,979.917 1783.5,874.333 1787.36,669.114 1791.22,653.534 1795.09,598.855 1798.95,1066.57 1802.81,801.796 1806.68,785.836 1810.54,795.851 1814.4,1021.59 1818.27,525.775 1822.13,843.084 1825.99,458.282 1829.86,637.251 1833.72,757.15 1837.58,688.082 1841.44,509.296 1845.31,728.037 1849.17,635.701 1853.03,948.646 1856.9,719.887 1860.76,615.794 1864.62,582.34 1868.49,960.401 1872.35,752.251 1876.21,867.543 1880.07,517.965 1883.94,841.059 1887.8,957.067 1891.66,771.248 1895.53,1114.44 1899.39,680.195 1903.25,1037.34 1907.12,1103.45 1910.98,895.552 1914.84,697.878 1918.71,943.454 1922.57,708.87 1926.43,939.889 1930.29,702.804 1934.16,453.503 1938.02,502.903 1941.88,514.014 1945.75,818.321 1949.61,1012.9 1953.47,748.459 1957.34,574.314 1961.2,737.765 1965.06,960.771 1968.92,1073.84 1972.79,875.457 1976.65,958.911 1980.51,950.505 1984.38,779.516 1988.24,963.38 1992.1,1119.78 1995.97,678.503 1999.83,1060.53 2003.69,958.162 2007.55,527.408 2011.42,628.064 2015.28,674.28 2019.14,886.61 2023.01,858.636 2026.87,1060.76 2030.73,1112.87 2034.6,1203.88 2038.46,1129.06 2042.32,958.979 2046.19,1262.92 2050.05,1124.58 2053.91,814.014 2057.77,745.864 2061.64,592.889 2065.5,754.103 2069.36,955.065 2073.23,1002.07 2077.09,809.8 2080.95,858.17 2084.82,729.747 2088.68,893.269 2092.54,613.178 2096.4,543.789 2100.27,829.465 2104.13,932.653 2107.99,750.072 2111.86,742.186 2115.72,991.034 2119.58,510.831 2123.45,503.763 2127.31,865.572 2131.17,896.803 2135.04,965.839 2138.9,1015.63 2142.76,908.027 2146.62,997.293 2150.49,1020.54 2154.35,993.457 2158.21,863.737 2162.08,891.445 2165.94,692.781 2169.8,621.212 2173.67,886.052 2177.53,578.879 2181.39,747.597 2185.25,725.232 2189.12,407.753 2192.98,428.222 2196.84,385.928 2200.71,483.972 2204.57,559.801 2208.43,954.466 2212.3,511.797 2216.16,580.832 2220.02,450.302 2223.89,355.229 2227.75,551.648 2231.61,342.196 2235.47,384.8 2239.34,450.015 2243.2,383.732 2247.06,416.043 2250.93,833.343 2254.79,625.674 2258.65,679.053 2262.52,764.584 2266.38,410.356 2270.24,332.719 2274.1,493.728 2277.97,417.767 2281.83,454.525 2285.69,168.217 2289.56,113.694 2293.42,86.1857 "/>
<path clip-path="url(#clip180)" d="M326.094 196.789 L655.007 196.789 L655.007 93.1086 L326.094 93.1086  Z" fill="#ffffff" fill-rule="evenodd" fill-opacity="1"/>
<polyline clip-path="url(#clip180)" style="stroke:#000000; stroke-linecap:round; stroke-linejoin:round; stroke-width:4; stroke-opacity:1; fill:none" points="326.094,196.789 655.007,196.789 655.007,93.1086 326.094,93.1086 326.094,196.789 "/>
<polyline clip-path="url(#clip180)" style="stroke:#ff7e0d; stroke-linecap:round; stroke-linejoin:round; stroke-width:8; stroke-opacity:1; fill:none" stroke-dasharray="32, 20" points="349.389,144.949 489.158,144.949 "/>
<path clip-path="url(#clip180)" d="M534.166 146.581 L534.166 162.229 L529.907 162.229 L529.907 146.719 Q529.907 143.039 528.472 141.21 Q527.037 139.382 524.166 139.382 Q520.717 139.382 518.726 141.581 Q516.736 143.78 516.736 147.576 L516.736 162.229 L512.453 162.229 L512.453 136.303 L516.736 136.303 L516.736 140.331 Q518.263 137.993 520.324 136.835 Q522.407 135.678 525.115 135.678 Q529.583 135.678 531.875 138.456 Q534.166 141.21 534.166 146.581 Z" fill="#000000" fill-rule="nonzero" fill-opacity="1" /><path clip-path="url(#clip180)" d="M552.708 139.289 Q549.282 139.289 547.291 141.974 Q545.3 144.636 545.3 149.289 Q545.3 153.942 547.268 156.627 Q549.259 159.289 552.708 159.289 Q556.111 159.289 558.101 156.604 Q560.092 153.918 560.092 149.289 Q560.092 144.682 558.101 141.997 Q556.111 139.289 552.708 139.289 M552.708 135.678 Q558.263 135.678 561.435 139.289 Q564.606 142.9 564.606 149.289 Q564.606 155.655 561.435 159.289 Q558.263 162.9 552.708 162.9 Q547.129 162.9 543.958 159.289 Q540.81 155.655 540.81 149.289 Q540.81 142.9 543.958 139.289 Q547.129 135.678 552.708 135.678 Z" fill="#000000" fill-rule="nonzero" fill-opacity="1" /><path clip-path="url(#clip180)" d="M571.666 136.303 L575.925 136.303 L575.925 162.229 L571.666 162.229 L571.666 136.303 M571.666 126.21 L575.925 126.21 L575.925 131.604 L571.666 131.604 L571.666 126.21 Z" fill="#000000" fill-rule="nonzero" fill-opacity="1" /><path clip-path="url(#clip180)" d="M601.365 137.067 L601.365 141.094 Q599.559 140.169 597.615 139.706 Q595.67 139.243 593.587 139.243 Q590.416 139.243 588.819 140.215 Q587.245 141.187 587.245 143.131 Q587.245 144.613 588.379 145.469 Q589.513 146.303 592.939 147.067 L594.397 147.391 Q598.934 148.363 600.832 150.145 Q602.754 151.905 602.754 155.076 Q602.754 158.687 599.883 160.793 Q597.036 162.9 592.036 162.9 Q589.953 162.9 587.684 162.483 Q585.439 162.09 582.939 161.28 L582.939 156.881 Q585.3 158.108 587.592 158.733 Q589.883 159.335 592.129 159.335 Q595.138 159.335 596.758 158.317 Q598.379 157.275 598.379 155.4 Q598.379 153.664 597.198 152.738 Q596.041 151.812 592.083 150.956 L590.601 150.608 Q586.643 149.775 584.883 148.062 Q583.124 146.326 583.124 143.317 Q583.124 139.659 585.717 137.669 Q588.309 135.678 593.078 135.678 Q595.439 135.678 597.522 136.025 Q599.606 136.372 601.365 137.067 Z" fill="#000000" fill-rule="nonzero" fill-opacity="1" /><path clip-path="url(#clip180)" d="M631.712 148.201 L631.712 150.284 L612.129 150.284 Q612.406 154.682 614.768 156.997 Q617.152 159.289 621.388 159.289 Q623.842 159.289 626.133 158.687 Q628.448 158.085 630.717 156.881 L630.717 160.909 Q628.425 161.881 626.018 162.391 Q623.61 162.9 621.133 162.9 Q614.93 162.9 611.295 159.289 Q607.684 155.678 607.684 149.52 Q607.684 143.155 611.11 139.428 Q614.559 135.678 620.393 135.678 Q625.624 135.678 628.656 139.057 Q631.712 142.414 631.712 148.201 M627.453 146.951 Q627.406 143.456 625.485 141.372 Q623.587 139.289 620.439 139.289 Q616.874 139.289 614.721 141.303 Q612.592 143.317 612.268 146.974 L627.453 146.951 Z" fill="#000000" fill-rule="nonzero" fill-opacity="1" /></svg>
