<?xml version="1.0" encoding="utf-8"?>
<svg xmlns="http://www.w3.org/2000/svg" xmlns:xlink="http://www.w3.org/1999/xlink" width="600" height="400" viewBox="0 0 2400 1600">
<defs>
  <clipPath id="clip340">
    <rect x="0" y="0" width="2400" height="1600"/>
  </clipPath>
</defs>
<path clip-path="url(#clip340)" d="M0 1600 L2400 1600 L2400 0 L0 0  Z" fill="#ffffff" fill-rule="evenodd" fill-opacity="1"/>
<defs>
  <clipPath id="clip341">
    <rect x="480" y="0" width="1681" height="1600"/>
  </clipPath>
</defs>
<path clip-path="url(#clip340)" d="M258.519 1410.9 L2352.76 1410.9 L2352.76 47.2441 L258.519 47.2441  Z" fill="#ffffff" fill-rule="evenodd" fill-opacity="1"/>
<defs>
  <clipPath id="clip342">
    <rect x="258" y="47" width="2095" height="1365"/>
  </clipPath>
</defs>
<polyline clip-path="url(#clip342)" style="stroke:#000000; stroke-linecap:round; stroke-linejoin:round; stroke-width:2; stroke-opacity:0.1; fill:none" points="1210.9,1410.9 1210.9,47.2441 "/>
<polyline clip-path="url(#clip342)" style="stroke:#000000; stroke-linecap:round; stroke-linejoin:round; stroke-width:2; stroke-opacity:0.1; fill:none" points="2304.75,1410.9 2304.75,47.2441 "/>
<polyline clip-path="url(#clip342)" style="stroke:#000000; stroke-linecap:round; stroke-linejoin:round; stroke-width:2; stroke-opacity:0.1; fill:none" points="258.519,1206.07 2352.76,1206.07 "/>
<polyline clip-path="url(#clip342)" style="stroke:#000000; stroke-linecap:round; stroke-linejoin:round; stroke-width:2; stroke-opacity:0.1; fill:none" points="258.519,879.717 2352.76,879.717 "/>
<polyline clip-path="url(#clip342)" style="stroke:#000000; stroke-linecap:round; stroke-linejoin:round; stroke-width:2; stroke-opacity:0.1; fill:none" points="258.519,553.367 2352.76,553.367 "/>
<polyline clip-path="url(#clip342)" style="stroke:#000000; stroke-linecap:round; stroke-linejoin:round; stroke-width:2; stroke-opacity:0.1; fill:none" points="258.519,227.018 2352.76,227.018 "/>
<polyline clip-path="url(#clip340)" style="stroke:#000000; stroke-linecap:round; stroke-linejoin:round; stroke-width:4; stroke-opacity:1; fill:none" points="258.519,1410.9 2352.76,1410.9 "/>
<polyline clip-path="url(#clip340)" style="stroke:#000000; stroke-linecap:round; stroke-linejoin:round; stroke-width:4; stroke-opacity:1; fill:none" points="1210.9,1410.9 1210.9,1392 "/>
<polyline clip-path="url(#clip340)" style="stroke:#000000; stroke-linecap:round; stroke-linejoin:round; stroke-width:4; stroke-opacity:1; fill:none" points="2304.75,1410.9 2304.75,1392 "/>
<path clip-path="url(#clip340)" d="M1142.14 1485.02 L1149.78 1485.02 L1149.78 1458.66 L1141.47 1460.32 L1141.47 1456.06 L1149.73 1454.4 L1154.41 1454.4 L1154.41 1485.02 L1162.05 1485.02 L1162.05 1488.96 L1142.14 1488.96 L1142.14 1485.02 Z" fill="#000000" fill-rule="nonzero" fill-opacity="1" /><path clip-path="url(#clip340)" d="M1181.49 1457.48 Q1177.88 1457.48 1176.05 1461.04 Q1174.25 1464.58 1174.25 1471.71 Q1174.25 1478.82 1176.05 1482.38 Q1177.88 1485.92 1181.49 1485.92 Q1185.13 1485.92 1186.93 1482.38 Q1188.76 1478.82 1188.76 1471.71 Q1188.76 1464.58 1186.93 1461.04 Q1185.13 1457.48 1181.49 1457.48 M1181.49 1453.77 Q1187.3 1453.77 1190.36 1458.38 Q1193.44 1462.96 1193.44 1471.71 Q1193.44 1480.44 1190.36 1485.04 Q1187.3 1489.63 1181.49 1489.63 Q1175.68 1489.63 1172.6 1485.04 Q1169.55 1480.44 1169.55 1471.71 Q1169.55 1462.96 1172.6 1458.38 Q1175.68 1453.77 1181.49 1453.77 Z" fill="#000000" fill-rule="nonzero" fill-opacity="1" /><path clip-path="url(#clip340)" d="M1193.44 1447.87 L1217.55 1447.87 L1217.55 1451.07 L1193.44 1451.07 L1193.44 1447.87 Z" fill="#000000" fill-rule="nonzero" fill-opacity="1" /><path clip-path="url(#clip340)" d="M1229.02 1458.35 L1242.28 1458.35 L1242.28 1461.55 L1224.45 1461.55 L1224.45 1458.35 Q1226.61 1456.11 1230.34 1452.35 Q1234.08 1448.57 1235.04 1447.48 Q1236.86 1445.43 1237.58 1444.02 Q1238.31 1442.59 1238.31 1441.22 Q1238.31 1438.98 1236.73 1437.57 Q1235.17 1436.16 1232.65 1436.16 Q1230.86 1436.16 1228.87 1436.78 Q1226.9 1437.4 1224.64 1438.66 L1224.64 1434.82 Q1226.93 1433.9 1228.93 1433.43 Q1230.92 1432.96 1232.58 1432.96 Q1236.94 1432.96 1239.53 1435.14 Q1242.13 1437.32 1242.13 1440.97 Q1242.13 1442.7 1241.47 1444.26 Q1240.83 1445.8 1239.12 1447.91 Q1238.65 1448.46 1236.13 1451.07 Q1233.61 1453.67 1229.02 1458.35 Z" fill="#000000" fill-rule="nonzero" fill-opacity="1" /><path clip-path="url(#clip340)" d="M1250.25 1456.77 L1254.22 1456.77 L1254.22 1461.55 L1250.25 1461.55 L1250.25 1456.77 Z" fill="#000000" fill-rule="nonzero" fill-opacity="1" /><path clip-path="url(#clip340)" d="M1270.62 1435.97 Q1267.69 1435.97 1266.2 1438.86 Q1264.74 1441.74 1264.74 1447.53 Q1264.74 1453.31 1266.2 1456.2 Q1267.69 1459.08 1270.62 1459.08 Q1273.58 1459.08 1275.04 1456.2 Q1276.53 1453.31 1276.53 1447.53 Q1276.53 1441.74 1275.04 1438.86 Q1273.58 1435.97 1270.62 1435.97 M1270.62 1432.96 Q1275.34 1432.96 1277.83 1436.7 Q1280.33 1440.43 1280.33 1447.53 Q1280.33 1454.62 1277.83 1458.37 Q1275.34 1462.09 1270.62 1462.09 Q1265.9 1462.09 1263.4 1458.37 Q1260.92 1454.62 1260.92 1447.53 Q1260.92 1440.43 1263.4 1436.7 Q1265.9 1432.96 1270.62 1432.96 Z" fill="#000000" fill-rule="nonzero" fill-opacity="1" /><path clip-path="url(#clip340)" d="M2236.4 1485.02 L2244.04 1485.02 L2244.04 1458.66 L2235.73 1460.32 L2235.73 1456.06 L2243.99 1454.4 L2248.67 1454.4 L2248.67 1485.02 L2256.31 1485.02 L2256.31 1488.96 L2236.4 1488.96 L2236.4 1485.02 Z" fill="#000000" fill-rule="nonzero" fill-opacity="1" /><path clip-path="url(#clip340)" d="M2275.75 1457.48 Q2272.14 1457.48 2270.31 1461.04 Q2268.5 1464.58 2268.5 1471.71 Q2268.5 1478.82 2270.31 1482.38 Q2272.14 1485.92 2275.75 1485.92 Q2279.38 1485.92 2281.19 1482.38 Q2283.02 1478.82 2283.02 1471.71 Q2283.02 1464.58 2281.19 1461.04 Q2279.38 1457.48 2275.75 1457.48 M2275.75 1453.77 Q2281.56 1453.77 2284.62 1458.38 Q2287.69 1462.96 2287.69 1471.71 Q2287.69 1480.44 2284.62 1485.04 Q2281.56 1489.63 2275.75 1489.63 Q2269.94 1489.63 2266.86 1485.04 Q2263.81 1480.44 2263.81 1471.71 Q2263.81 1462.96 2266.86 1458.38 Q2269.94 1453.77 2275.75 1453.77 Z" fill="#000000" fill-rule="nonzero" fill-opacity="1" /><path clip-path="url(#clip340)" d="M2287.69 1447.87 L2311.81 1447.87 L2311.81 1451.07 L2287.69 1451.07 L2287.69 1447.87 Z" fill="#000000" fill-rule="nonzero" fill-opacity="1" /><path clip-path="url(#clip340)" d="M2320.66 1458.35 L2326.87 1458.35 L2326.87 1436.93 L2320.12 1438.28 L2320.12 1434.82 L2326.83 1433.47 L2330.63 1433.47 L2330.63 1458.35 L2336.84 1458.35 L2336.84 1461.55 L2320.66 1461.55 L2320.66 1458.35 Z" fill="#000000" fill-rule="nonzero" fill-opacity="1" /><path clip-path="url(#clip340)" d="M2344.51 1456.77 L2348.48 1456.77 L2348.48 1461.55 L2344.51 1461.55 L2344.51 1456.77 Z" fill="#000000" fill-rule="nonzero" fill-opacity="1" /><path clip-path="url(#clip340)" d="M2356.79 1433.47 L2371.71 1433.47 L2371.71 1436.66 L2360.27 1436.66 L2360.27 1443.55 Q2361.1 1443.27 2361.93 1443.13 Q2362.76 1442.98 2363.58 1442.98 Q2368.29 1442.98 2371.03 1445.56 Q2373.78 1448.14 2373.78 1452.54 Q2373.78 1457.07 2370.96 1459.59 Q2368.13 1462.09 2363 1462.09 Q2361.23 1462.09 2359.39 1461.79 Q2357.56 1461.49 2355.61 1460.89 L2355.61 1457.07 Q2357.3 1457.99 2359.11 1458.44 Q2360.91 1458.89 2362.92 1458.89 Q2366.18 1458.89 2368.08 1457.18 Q2369.98 1455.47 2369.98 1452.54 Q2369.98 1449.6 2368.08 1447.89 Q2366.18 1446.18 2362.92 1446.18 Q2361.4 1446.18 2359.88 1446.52 Q2358.37 1446.86 2356.79 1447.57 L2356.79 1433.47 Z" fill="#000000" fill-rule="nonzero" fill-opacity="1" /><path clip-path="url(#clip340)" d="M1267.19 1568.04 Q1267.19 1567.79 1268.06 1566.11 Q1268.92 1564.41 1271.98 1558.32 Q1275.04 1552.2 1278.2 1545.79 L1289.57 1522.92 Q1290.37 1521.48 1291.4 1521.48 Q1292.34 1521.48 1292.76 1522.05 Q1293.18 1522.63 1295.11 1526.53 Q1296.11 1528.43 1296.69 1529.66 L1315.33 1566.98 Q1315.66 1567.79 1315.69 1568.04 Q1315.69 1568.69 1314.56 1568.69 L1268.92 1568.69 Q1267.19 1568.69 1267.19 1568.04 M1271.53 1563.66 L1307.02 1563.66 L1289.28 1528.05 L1271.53 1563.66 Z" fill="#000000" fill-rule="nonzero" fill-opacity="1" /><path clip-path="url(#clip340)" d="M1340.77 1540.99 Q1340.77 1541.89 1340.36 1542.12 Q1339.94 1542.31 1338.78 1542.31 L1332.59 1542.31 L1327.7 1561.76 Q1327.31 1563.47 1327.31 1564.92 Q1327.31 1566.53 1327.8 1567.24 Q1328.31 1567.95 1329.37 1567.95 Q1331.47 1567.95 1333.72 1566.05 Q1336.01 1564.15 1337.94 1559.51 Q1338.2 1558.9 1338.33 1558.77 Q1338.49 1558.61 1338.91 1558.61 Q1339.71 1558.61 1339.71 1559.25 Q1339.71 1559.48 1339.26 1560.51 Q1338.84 1561.54 1337.91 1563.05 Q1337.01 1564.57 1335.81 1565.98 Q1334.65 1567.4 1332.88 1568.43 Q1331.11 1569.43 1329.21 1569.43 Q1326.54 1569.43 1324.83 1567.72 Q1323.16 1566.02 1323.16 1563.34 Q1323.16 1562.47 1323.83 1559.7 Q1324.51 1556.9 1328.18 1542.31 L1322.35 1542.31 Q1321.55 1542.31 1321.23 1542.28 Q1320.94 1542.25 1320.71 1542.09 Q1320.52 1541.89 1320.52 1541.51 Q1320.52 1540.9 1320.77 1540.64 Q1321.03 1540.35 1321.35 1540.32 Q1321.71 1540.25 1322.51 1540.25 L1328.7 1540.25 L1331.27 1529.78 Q1331.53 1528.75 1332.18 1528.17 Q1332.85 1527.56 1333.24 1527.5 Q1333.62 1527.4 1333.91 1527.4 Q1334.78 1527.4 1335.3 1527.88 Q1335.81 1528.34 1335.81 1529.17 Q1335.81 1529.62 1333.11 1540.25 L1338.91 1540.25 Q1339.65 1540.25 1339.94 1540.28 Q1340.26 1540.32 1340.52 1540.48 Q1340.77 1540.64 1340.77 1540.99 Z" fill="#000000" fill-rule="nonzero" fill-opacity="1" /><polyline clip-path="url(#clip340)" style="stroke:#000000; stroke-linecap:round; stroke-linejoin:round; stroke-width:4; stroke-opacity:1; fill:none" points="258.519,1410.9 258.519,47.2441 "/>
<polyline clip-path="url(#clip340)" style="stroke:#000000; stroke-linecap:round; stroke-linejoin:round; stroke-width:4; stroke-opacity:1; fill:none" points="258.519,1206.07 277.417,1206.07 "/>
<polyline clip-path="url(#clip340)" style="stroke:#000000; stroke-linecap:round; stroke-linejoin:round; stroke-width:4; stroke-opacity:1; fill:none" points="258.519,879.717 277.417,879.717 "/>
<polyline clip-path="url(#clip340)" style="stroke:#000000; stroke-linecap:round; stroke-linejoin:round; stroke-width:4; stroke-opacity:1; fill:none" points="258.519,553.367 277.417,553.367 "/>
<polyline clip-path="url(#clip340)" style="stroke:#000000; stroke-linecap:round; stroke-linejoin:round; stroke-width:4; stroke-opacity:1; fill:none" points="258.519,227.018 277.417,227.018 "/>
<path clip-path="url(#clip340)" d="M115.063 1225.86 L122.702 1225.86 L122.702 1199.49 L114.392 1201.16 L114.392 1196.9 L122.656 1195.23 L127.332 1195.23 L127.332 1225.86 L134.97 1225.86 L134.97 1229.79 L115.063 1229.79 L115.063 1225.86 Z" fill="#000000" fill-rule="nonzero" fill-opacity="1" /><path clip-path="url(#clip340)" d="M154.415 1198.31 Q150.804 1198.31 148.975 1201.88 Q147.169 1205.42 147.169 1212.55 Q147.169 1219.66 148.975 1223.22 Q150.804 1226.76 154.415 1226.76 Q158.049 1226.76 159.855 1223.22 Q161.683 1219.66 161.683 1212.55 Q161.683 1205.42 159.855 1201.88 Q158.049 1198.31 154.415 1198.31 M154.415 1194.61 Q160.225 1194.61 163.28 1199.22 Q166.359 1203.8 166.359 1212.55 Q166.359 1221.28 163.28 1225.88 Q160.225 1230.47 154.415 1230.47 Q148.605 1230.47 145.526 1225.88 Q142.47 1221.28 142.47 1212.55 Q142.47 1203.8 145.526 1199.22 Q148.605 1194.61 154.415 1194.61 Z" fill="#000000" fill-rule="nonzero" fill-opacity="1" /><path clip-path="url(#clip340)" d="M176.064 1176.81 Q173.13 1176.81 171.644 1179.7 Q170.177 1182.58 170.177 1188.37 Q170.177 1194.15 171.644 1197.04 Q173.13 1199.92 176.064 1199.92 Q179.017 1199.92 180.484 1197.04 Q181.97 1194.15 181.97 1188.37 Q181.97 1182.58 180.484 1179.7 Q179.017 1176.81 176.064 1176.81 M176.064 1173.8 Q180.785 1173.8 183.267 1177.54 Q185.769 1181.26 185.769 1188.37 Q185.769 1195.46 183.267 1199.21 Q180.785 1202.93 176.064 1202.93 Q171.343 1202.93 168.842 1199.21 Q166.359 1195.46 166.359 1188.37 Q166.359 1181.26 168.842 1177.54 Q171.343 1173.8 176.064 1173.8 Z" fill="#000000" fill-rule="nonzero" fill-opacity="1" /><path clip-path="url(#clip340)" d="M192.446 1197.61 L196.414 1197.61 L196.414 1202.38 L192.446 1202.38 L192.446 1197.61 Z" fill="#000000" fill-rule="nonzero" fill-opacity="1" /><path clip-path="url(#clip340)" d="M212.814 1176.81 Q209.88 1176.81 208.394 1179.7 Q206.927 1182.58 206.927 1188.37 Q206.927 1194.15 208.394 1197.04 Q209.88 1199.92 212.814 1199.92 Q215.767 1199.92 217.234 1197.04 Q218.72 1194.15 218.72 1188.37 Q218.72 1182.58 217.234 1179.7 Q215.767 1176.81 212.814 1176.81 M212.814 1173.8 Q217.535 1173.8 220.018 1177.54 Q222.519 1181.26 222.519 1188.37 Q222.519 1195.46 220.018 1199.21 Q217.535 1202.93 212.814 1202.93 Q208.094 1202.93 205.592 1199.21 Q203.11 1195.46 203.11 1188.37 Q203.11 1181.26 205.592 1177.54 Q208.094 1173.8 212.814 1173.8 Z" fill="#000000" fill-rule="nonzero" fill-opacity="1" /><path clip-path="url(#clip340)" d="M115.59 899.509 L123.229 899.509 L123.229 873.144 L114.918 874.81 L114.918 870.551 L123.182 868.884 L127.858 868.884 L127.858 899.509 L135.497 899.509 L135.497 903.444 L115.59 903.444 L115.59 899.509 Z" fill="#000000" fill-rule="nonzero" fill-opacity="1" /><path clip-path="url(#clip340)" d="M154.941 871.963 Q151.33 871.963 149.502 875.528 Q147.696 879.07 147.696 886.199 Q147.696 893.306 149.502 896.87 Q151.33 900.412 154.941 900.412 Q158.576 900.412 160.381 896.87 Q162.21 893.306 162.21 886.199 Q162.21 879.07 160.381 875.528 Q158.576 871.963 154.941 871.963 M154.941 868.259 Q160.752 868.259 163.807 872.866 Q166.886 877.449 166.886 886.199 Q166.886 894.926 163.807 899.532 Q160.752 904.116 154.941 904.116 Q149.131 904.116 146.053 899.532 Q142.997 894.926 142.997 886.199 Q142.997 877.449 146.053 872.866 Q149.131 868.259 154.941 868.259 Z" fill="#000000" fill-rule="nonzero" fill-opacity="1" /><path clip-path="url(#clip340)" d="M176.591 850.456 Q173.657 850.456 172.171 853.352 Q170.704 856.23 170.704 862.022 Q170.704 867.796 172.171 870.693 Q173.657 873.57 176.591 873.57 Q179.543 873.57 181.01 870.693 Q182.496 867.796 182.496 862.022 Q182.496 856.23 181.01 853.352 Q179.543 850.456 176.591 850.456 M176.591 847.446 Q181.311 847.446 183.794 851.189 Q186.295 854.913 186.295 862.022 Q186.295 869.113 183.794 872.856 Q181.311 876.58 176.591 876.58 Q171.87 876.58 169.368 872.856 Q166.886 869.113 166.886 862.022 Q166.886 854.913 169.368 851.189 Q171.87 847.446 176.591 847.446 Z" fill="#000000" fill-rule="nonzero" fill-opacity="1" /><path clip-path="url(#clip340)" d="M192.972 871.257 L196.941 871.257 L196.941 876.034 L192.972 876.034 L192.972 871.257 Z" fill="#000000" fill-rule="nonzero" fill-opacity="1" /><path clip-path="url(#clip340)" d="M216.726 860.894 Q219.453 861.477 220.977 863.32 Q222.519 865.163 222.519 867.872 Q222.519 872.028 219.66 874.304 Q216.802 876.58 211.535 876.58 Q209.767 876.58 207.887 876.222 Q206.025 875.884 204.031 875.188 L204.031 871.52 Q205.611 872.442 207.492 872.912 Q209.372 873.382 211.423 873.382 Q214.996 873.382 216.858 871.972 Q218.739 870.561 218.739 867.872 Q218.739 865.389 216.99 863.997 Q215.259 862.587 212.156 862.587 L208.883 862.587 L208.883 859.464 L212.307 859.464 Q215.109 859.464 216.595 858.355 Q218.08 857.226 218.08 855.12 Q218.08 852.957 216.538 851.81 Q215.015 850.644 212.156 850.644 Q210.595 850.644 208.808 850.982 Q207.022 851.321 204.877 852.035 L204.877 848.65 Q207.04 848.048 208.921 847.747 Q210.821 847.446 212.495 847.446 Q216.82 847.446 219.341 849.421 Q221.861 851.377 221.861 854.725 Q221.861 857.057 220.526 858.675 Q219.19 860.273 216.726 860.894 Z" fill="#000000" fill-rule="nonzero" fill-opacity="1" /><path clip-path="url(#clip340)" d="M114.931 573.16 L122.57 573.16 L122.57 546.794 L114.26 548.461 L114.26 544.202 L122.524 542.535 L127.2 542.535 L127.2 573.16 L134.839 573.16 L134.839 577.095 L114.931 577.095 L114.931 573.16 Z" fill="#000000" fill-rule="nonzero" fill-opacity="1" /><path clip-path="url(#clip340)" d="M154.283 545.614 Q150.672 545.614 148.843 549.178 Q147.038 552.72 147.038 559.85 Q147.038 566.956 148.843 570.521 Q150.672 574.063 154.283 574.063 Q157.917 574.063 159.723 570.521 Q161.552 566.956 161.552 559.85 Q161.552 552.72 159.723 549.178 Q157.917 545.614 154.283 545.614 M154.283 541.91 Q160.093 541.91 163.149 546.516 Q166.227 551.1 166.227 559.85 Q166.227 568.577 163.149 573.183 Q160.093 577.766 154.283 577.766 Q148.473 577.766 145.394 573.183 Q142.339 568.577 142.339 559.85 Q142.339 551.1 145.394 546.516 Q148.473 541.91 154.283 541.91 Z" fill="#000000" fill-rule="nonzero" fill-opacity="1" /><path clip-path="url(#clip340)" d="M175.932 524.106 Q172.998 524.106 171.512 527.002 Q170.045 529.88 170.045 535.673 Q170.045 541.447 171.512 544.343 Q172.998 547.221 175.932 547.221 Q178.885 547.221 180.352 544.343 Q181.838 541.447 181.838 535.673 Q181.838 529.88 180.352 527.002 Q178.885 524.106 175.932 524.106 M175.932 521.097 Q180.653 521.097 183.136 524.84 Q185.637 528.563 185.637 535.673 Q185.637 542.763 183.136 546.506 Q180.653 550.23 175.932 550.23 Q171.212 550.23 168.71 546.506 Q166.227 542.763 166.227 535.673 Q166.227 528.563 168.71 524.84 Q171.212 521.097 175.932 521.097 Z" fill="#000000" fill-rule="nonzero" fill-opacity="1" /><path clip-path="url(#clip340)" d="M192.314 544.907 L196.282 544.907 L196.282 549.685 L192.314 549.685 L192.314 544.907 Z" fill="#000000" fill-rule="nonzero" fill-opacity="1" /><path clip-path="url(#clip340)" d="M213.153 534.131 Q210.595 534.131 209.09 535.88 Q207.605 537.629 207.605 540.676 Q207.605 543.704 209.09 545.472 Q210.595 547.221 213.153 547.221 Q215.711 547.221 217.197 545.472 Q218.701 543.704 218.701 540.676 Q218.701 537.629 217.197 535.88 Q215.711 534.131 213.153 534.131 M220.695 522.225 L220.695 525.686 Q219.265 525.009 217.798 524.651 Q216.35 524.294 214.921 524.294 Q211.159 524.294 209.166 526.833 Q207.191 529.372 206.909 534.507 Q208.018 532.87 209.692 532.005 Q211.366 531.121 213.379 531.121 Q217.61 531.121 220.055 533.698 Q222.519 536.256 222.519 540.676 Q222.519 545.001 219.961 547.616 Q217.403 550.23 213.153 550.23 Q208.282 550.23 205.705 546.506 Q203.128 542.763 203.128 535.673 Q203.128 529.015 206.288 525.065 Q209.448 521.097 214.77 521.097 Q216.2 521.097 217.648 521.379 Q219.115 521.661 220.695 522.225 Z" fill="#000000" fill-rule="nonzero" fill-opacity="1" /><path clip-path="url(#clip340)" d="M115.214 246.81 L122.852 246.81 L122.852 220.445 L114.542 222.111 L114.542 217.852 L122.806 216.186 L127.482 216.186 L127.482 246.81 L135.121 246.81 L135.121 250.746 L115.214 250.746 L115.214 246.81 Z" fill="#000000" fill-rule="nonzero" fill-opacity="1" /><path clip-path="url(#clip340)" d="M154.565 219.264 Q150.954 219.264 149.125 222.829 Q147.32 226.371 147.32 233.5 Q147.32 240.607 149.125 244.171 Q150.954 247.713 154.565 247.713 Q158.199 247.713 160.005 244.171 Q161.834 240.607 161.834 233.5 Q161.834 226.371 160.005 222.829 Q158.199 219.264 154.565 219.264 M154.565 215.561 Q160.375 215.561 163.431 220.167 Q166.51 224.75 166.51 233.5 Q166.51 242.227 163.431 246.834 Q160.375 251.417 154.565 251.417 Q148.755 251.417 145.676 246.834 Q142.621 242.227 142.621 233.5 Q142.621 224.75 145.676 220.167 Q148.755 215.561 154.565 215.561 Z" fill="#000000" fill-rule="nonzero" fill-opacity="1" /><path clip-path="url(#clip340)" d="M176.214 197.757 Q173.28 197.757 171.795 200.653 Q170.328 203.531 170.328 209.323 Q170.328 215.097 171.795 217.994 Q173.28 220.871 176.214 220.871 Q179.167 220.871 180.634 217.994 Q182.12 215.097 182.12 209.323 Q182.12 203.531 180.634 200.653 Q179.167 197.757 176.214 197.757 M176.214 194.747 Q180.935 194.747 183.418 198.49 Q185.919 202.214 185.919 209.323 Q185.919 216.414 183.418 220.157 Q180.935 223.881 176.214 223.881 Q171.494 223.881 168.992 220.157 Q166.51 216.414 166.51 209.323 Q166.51 202.214 168.992 198.49 Q171.494 194.747 176.214 194.747 Z" fill="#000000" fill-rule="nonzero" fill-opacity="1" /><path clip-path="url(#clip340)" d="M192.596 218.558 L196.564 218.558 L196.564 223.335 L192.596 223.335 L192.596 218.558 Z" fill="#000000" fill-rule="nonzero" fill-opacity="1" /><path clip-path="url(#clip340)" d="M204.953 222.752 L204.953 219.291 Q206.382 219.969 207.849 220.326 Q209.316 220.683 210.727 220.683 Q214.488 220.683 216.463 218.163 Q218.457 215.624 218.739 210.471 Q217.648 212.088 215.974 212.953 Q214.3 213.818 212.269 213.818 Q208.056 213.818 205.592 211.279 Q203.147 208.721 203.147 204.302 Q203.147 199.976 205.705 197.362 Q208.263 194.747 212.513 194.747 Q217.385 194.747 219.942 198.49 Q222.519 202.214 222.519 209.323 Q222.519 215.962 219.359 219.931 Q216.219 223.881 210.896 223.881 Q209.467 223.881 208 223.598 Q206.533 223.316 204.953 222.752 M212.513 210.847 Q215.071 210.847 216.557 209.098 Q218.062 207.349 218.062 204.302 Q218.062 201.274 216.557 199.524 Q215.071 197.757 212.513 197.757 Q209.956 197.757 208.451 199.524 Q206.965 201.274 206.965 204.302 Q206.965 207.349 208.451 209.098 Q209.956 210.847 212.513 210.847 Z" fill="#000000" fill-rule="nonzero" fill-opacity="1" /><path clip-path="url(#clip340)" d="M49.4968 798.693 Q43.281 798.693 38.8688 794.699 Q34.4566 790.706 34.4566 784.973 Q34.4566 779.176 38.2247 776.181 Q41.9928 773.154 47.4034 773.154 Q48.4018 773.154 48.595 773.411 Q48.7882 773.669 48.7882 774.796 L48.7882 793.218 Q55.5192 793.218 58.6754 791.221 Q63.0876 788.451 63.0876 783.782 Q63.0876 783.138 62.9588 782.365 Q62.83 781.592 62.2825 780.014 Q61.7028 778.435 60.1891 777.051 Q58.6754 775.666 56.2922 774.861 Q55.3582 774.667 55.3904 774.023 Q55.3904 773.154 56.1634 773.154 Q56.7431 773.154 58.0635 773.798 Q59.3517 774.41 60.8976 775.601 Q62.4435 776.793 63.6029 779.112 Q64.7623 781.398 64.7623 784.168 Q64.7623 789.965 60.3823 794.345 Q55.9701 798.693 49.4968 798.693 M47.4034 793.154 L47.4034 777.502 Q46.0185 777.502 44.4726 777.759 Q42.9268 777.985 40.8012 778.693 Q38.6434 779.369 37.2907 780.98 Q35.9381 782.59 35.9381 784.973 Q35.9381 786.036 36.389 787.195 Q36.8398 788.323 37.9348 789.708 Q39.0298 791.092 41.5097 792.059 Q43.9895 793.025 47.4034 793.154 Z" fill="#000000" fill-rule="nonzero" fill-opacity="1" /><path clip-path="url(#clip340)" d="M64.0216 771.017 L61.9926 771.017 Q61.9926 767.507 61.5739 766.702 Q61.1231 765.864 58.9975 765.864 L41.3165 765.864 Q38.8688 765.864 38.2569 766.734 Q37.645 767.571 37.645 771.017 L35.5838 771.017 L34.8753 761.839 L42.1216 761.839 Q39.2875 760.905 37.0975 758.94 Q34.8753 756.943 34.8753 753.723 Q34.8753 751.597 36.0669 750.244 Q37.2585 748.86 38.901 748.86 Q40.3503 748.86 41.091 749.761 Q41.7996 750.631 41.7996 751.694 Q41.7996 752.885 41.0588 753.723 Q40.2859 754.528 38.9654 754.528 Q38.1603 754.528 37.5484 754.174 Q36.9043 753.787 36.6788 753.497 Q36.4534 753.207 36.389 753.014 Q36.3246 753.143 36.3246 753.723 Q36.3246 757.362 39.9638 759.455 Q43.5709 761.517 48.7238 761.517 L58.8687 761.517 Q60.7688 761.517 61.3807 760.744 Q61.9926 759.938 61.9926 756.492 L61.9926 755.108 L64.0216 755.108 Q63.8284 757.748 63.8284 763.481 Q63.8284 764.286 63.8606 765.542 Q63.8928 766.798 63.9572 768.441 Q64.0216 770.083 64.0216 771.017 Z" fill="#000000" fill-rule="nonzero" fill-opacity="1" /><path clip-path="url(#clip340)" d="M64.0216 744.136 L61.9926 744.136 Q61.9926 740.626 61.5739 739.821 Q61.1231 738.983 58.9975 738.983 L41.3165 738.983 Q38.8688 738.983 38.2569 739.853 Q37.645 740.69 37.645 744.136 L35.5838 744.136 L34.8753 734.958 L42.1216 734.958 Q39.2875 734.024 37.0975 732.059 Q34.8753 730.062 34.8753 726.842 Q34.8753 724.716 36.0669 723.364 Q37.2585 721.979 38.901 721.979 Q40.3503 721.979 41.091 722.881 Q41.7996 723.75 41.7996 724.813 Q41.7996 726.005 41.0588 726.842 Q40.2859 727.647 38.9654 727.647 Q38.1603 727.647 37.5484 727.293 Q36.9043 726.906 36.6788 726.616 Q36.4534 726.327 36.389 726.133 Q36.3246 726.262 36.3246 726.842 Q36.3246 730.481 39.9638 732.575 Q43.5709 734.636 48.7238 734.636 L58.8687 734.636 Q60.7688 734.636 61.3807 733.863 Q61.9926 733.058 61.9926 729.612 L61.9926 728.227 L64.0216 728.227 Q63.8284 730.868 63.8284 736.6 Q63.8284 737.405 63.8606 738.661 Q63.8928 739.917 63.9572 741.56 Q64.0216 743.202 64.0216 744.136 Z" fill="#000000" fill-rule="nonzero" fill-opacity="1" /><path clip-path="url(#clip340)" d="M60.479 711.963 Q56.1634 716.311 49.9154 716.311 Q43.6353 716.311 39.0621 712.059 Q34.4566 707.776 34.4566 701.657 Q34.4566 695.667 39.0298 691.383 Q43.5709 687.068 49.9154 687.068 Q56.1312 687.068 60.4467 691.416 Q64.7623 695.731 64.7623 701.721 Q64.7623 707.583 60.479 711.963 M49.3679 710.836 Q55.7769 710.836 58.6754 709.161 Q63.0876 706.584 63.0876 701.657 Q63.0876 699.209 61.7672 697.18 Q60.4467 695.119 58.2245 693.992 Q55.326 692.543 49.3679 692.543 Q43.0234 692.543 40.2215 694.282 Q35.9381 696.858 35.9381 701.721 Q35.9381 703.847 37.0653 705.94 Q38.1603 708.002 40.3503 709.258 Q43.2488 710.836 49.3679 710.836 Z" fill="#000000" fill-rule="nonzero" fill-opacity="1" /><path clip-path="url(#clip340)" d="M64.0216 684.967 L61.9926 684.967 Q61.9926 681.456 61.5739 680.651 Q61.1231 679.814 58.9975 679.814 L41.3165 679.814 Q38.8688 679.814 38.2569 680.683 Q37.645 681.521 37.645 684.967 L35.5838 684.967 L34.8753 675.788 L42.1216 675.788 Q39.2875 674.854 37.0975 672.889 Q34.8753 670.893 34.8753 667.672 Q34.8753 665.546 36.0669 664.194 Q37.2585 662.809 38.901 662.809 Q40.3503 662.809 41.091 663.711 Q41.7996 664.58 41.7996 665.643 Q41.7996 666.835 41.0588 667.672 Q40.2859 668.477 38.9654 668.477 Q38.1603 668.477 37.5484 668.123 Q36.9043 667.736 36.6788 667.447 Q36.4534 667.157 36.389 666.963 Q36.3246 667.092 36.3246 667.672 Q36.3246 671.311 39.9638 673.405 Q43.5709 675.466 48.7238 675.466 L58.8687 675.466 Q60.7688 675.466 61.3807 674.693 Q61.9926 673.888 61.9926 670.442 L61.9926 669.057 L64.0216 669.057 Q63.8284 671.698 63.8284 677.43 Q63.8284 678.236 63.8606 679.492 Q63.8928 680.748 63.9572 682.39 Q64.0216 684.033 64.0216 684.967 Z" fill="#000000" fill-rule="nonzero" fill-opacity="1" /><polyline clip-path="url(#clip342)" style="stroke:#1f77b4; stroke-linecap:round; stroke-linejoin:round; stroke-width:4; stroke-opacity:1; fill:none" points="2293.49,181.568 1634.92,557.181 976.355,932.794 317.79,1308.41 "/>
<polyline clip-path="url(#clip342)" style="stroke:#000000; stroke-linecap:round; stroke-linejoin:round; stroke-width:4; stroke-opacity:1; fill:none" points="2293.49,233.987 2293.49,85.838 "/>
<polyline clip-path="url(#clip342)" style="stroke:#000000; stroke-linecap:round; stroke-linejoin:round; stroke-width:4; stroke-opacity:1; fill:none" points="1634.92,680.332 1634.92,519.943 "/>
<polyline clip-path="url(#clip342)" style="stroke:#000000; stroke-linecap:round; stroke-linejoin:round; stroke-width:4; stroke-opacity:1; fill:none" points="976.355,1026.31 976.355,871.759 "/>
<polyline clip-path="url(#clip342)" style="stroke:#000000; stroke-linecap:round; stroke-linejoin:round; stroke-width:4; stroke-opacity:1; fill:none" points="317.79,1372.3 317.79,1219.43 "/>
<line clip-path="url(#clip342)" x1="2309.49" y1="233.987" x2="2277.49" y2="233.987" style="stroke:#000000; stroke-width:4; stroke-opacity:1"/>
<line clip-path="url(#clip342)" x1="2309.49" y1="85.838" x2="2277.49" y2="85.838" style="stroke:#000000; stroke-width:4; stroke-opacity:1"/>
<line clip-path="url(#clip342)" x1="1650.92" y1="680.332" x2="1618.92" y2="680.332" style="stroke:#000000; stroke-width:4; stroke-opacity:1"/>
<line clip-path="url(#clip342)" x1="1650.92" y1="519.943" x2="1618.92" y2="519.943" style="stroke:#000000; stroke-width:4; stroke-opacity:1"/>
<line clip-path="url(#clip342)" x1="992.355" y1="1026.31" x2="960.355" y2="1026.31" style="stroke:#000000; stroke-width:4; stroke-opacity:1"/>
<line clip-path="url(#clip342)" x1="992.355" y1="871.759" x2="960.355" y2="871.759" style="stroke:#000000; stroke-width:4; stroke-opacity:1"/>
<line clip-path="url(#clip342)" x1="333.79" y1="1372.3" x2="301.79" y2="1372.3" style="stroke:#000000; stroke-width:4; stroke-opacity:1"/>
<line clip-path="url(#clip342)" x1="333.79" y1="1219.43" x2="301.79" y2="1219.43" style="stroke:#000000; stroke-width:4; stroke-opacity:1"/>
<circle clip-path="url(#clip342)" cx="2293.49" cy="154.129" r="14.4" fill="#ff7e0d" fill-rule="evenodd" fill-opacity="1" stroke="#000000" stroke-opacity="1" stroke-width="3.2"/>
<circle clip-path="url(#clip342)" cx="1634.92" cy="593.364" r="14.4" fill="#ff7e0d" fill-rule="evenodd" fill-opacity="1" stroke="#000000" stroke-opacity="1" stroke-width="3.2"/>
<circle clip-path="url(#clip342)" cx="976.355" cy="942.744" r="14.4" fill="#ff7e0d" fill-rule="evenodd" fill-opacity="1" stroke="#000000" stroke-opacity="1" stroke-width="3.2"/>
<circle clip-path="url(#clip342)" cx="317.79" cy="1289.71" r="14.4" fill="#ff7e0d" fill-rule="evenodd" fill-opacity="1" stroke="#000000" stroke-opacity="1" stroke-width="3.2"/>
<path clip-path="url(#clip340)" d="M328.327 248.219 L1544.82 248.219 L1544.82 92.6992 L328.327 92.6992  Z" fill="#ffffff" fill-rule="evenodd" fill-opacity="1"/>
<polyline clip-path="url(#clip340)" style="stroke:#000000; stroke-linecap:round; stroke-linejoin:round; stroke-width:4; stroke-opacity:1; fill:none" points="328.327,248.219 1544.82,248.219 1544.82,92.6992 328.327,92.6992 328.327,248.219 "/>
<polyline clip-path="url(#clip340)" style="stroke:#1f77b4; stroke-linecap:round; stroke-linejoin:round; stroke-width:4; stroke-opacity:1; fill:none" points="351.596,144.539 491.212,144.539 "/>
<path clip-path="url(#clip340)" d="M548.538 133.915 L545.516 146.142 Q545.305 146.915 545.165 147.008 Q545.048 147.102 544.673 147.102 Q543.947 147.102 543.947 146.61 Q543.947 146.563 544.017 145.954 Q544.087 145.322 544.087 144.174 Q544.087 139.935 542.026 137.428 Q539.988 134.922 536.358 134.922 Q533.219 134.922 530.057 136.515 Q526.919 138.108 524.67 140.708 Q522.984 142.675 521.742 145.158 Q520.524 147.641 519.939 149.913 Q519.377 152.185 519.119 153.894 Q518.861 155.604 518.861 156.846 Q518.861 158.649 519.236 160.172 Q519.634 161.694 520.337 162.772 Q521.04 163.826 521.93 164.645 Q522.843 165.442 523.897 165.91 Q524.975 166.379 526.052 166.613 Q527.13 166.824 528.254 166.824 Q532.774 166.824 537.084 163.31 Q540.504 160.429 541.933 155.721 Q542.05 155.253 542.541 155.253 Q543.127 155.253 543.127 155.721 Q543.127 155.815 543.01 156.283 Q542.893 156.729 542.541 157.642 Q542.19 158.532 541.651 159.539 Q541.113 160.546 540.106 161.811 Q539.098 163.076 537.857 164.177 Q535.749 166.004 533.079 167.152 Q530.409 168.299 527.481 168.299 Q523.827 168.299 520.876 166.683 Q517.924 165.067 516.191 162.045 Q514.481 159.024 514.481 155.159 Q514.481 151.084 516.355 147.078 Q518.229 143.073 521.204 140.099 Q524.178 137.124 528.113 135.274 Q532.048 133.423 535.983 133.423 Q537.482 133.423 538.817 133.821 Q540.152 134.22 540.949 134.711 Q541.769 135.203 542.495 135.929 Q543.221 136.632 543.455 136.96 Q543.713 137.288 543.947 137.686 L547.296 134.009 Q547.882 133.423 548.022 133.423 Q548.303 133.423 548.421 133.587 Q548.538 133.751 548.538 133.915 Z" fill="#000000" fill-rule="nonzero" fill-opacity="1" /><path clip-path="url(#clip340)" d="M552.276 166.777 Q552.276 166.589 552.909 165.371 Q553.541 164.13 555.766 159.703 Q557.992 155.253 560.287 150.592 L568.555 133.962 Q569.141 132.908 569.89 132.908 Q570.569 132.908 570.874 133.329 Q571.178 133.751 572.584 136.585 Q573.31 137.967 573.731 138.857 L587.293 166.004 Q587.527 166.589 587.551 166.777 Q587.551 167.245 586.731 167.245 L553.541 167.245 Q552.276 167.245 552.276 166.777 M555.439 163.591 L581.25 163.591 L568.344 137.686 L555.439 163.591 Z" fill="#000000" fill-rule="nonzero" fill-opacity="1" /><path clip-path="url(#clip340)" d="M606.554 147.102 Q606.554 147.758 606.249 147.922 Q605.945 148.062 605.102 148.062 L600.605 148.062 L597.044 162.209 Q596.763 163.451 596.763 164.505 Q596.763 165.676 597.115 166.191 Q597.489 166.706 598.262 166.706 Q599.785 166.706 601.424 165.325 Q603.087 163.943 604.493 160.57 Q604.68 160.125 604.774 160.031 Q604.891 159.914 605.195 159.914 Q605.781 159.914 605.781 160.382 Q605.781 160.546 605.453 161.296 Q605.149 162.045 604.469 163.146 Q603.813 164.247 602.947 165.278 Q602.104 166.308 600.815 167.058 Q599.527 167.784 598.145 167.784 Q596.201 167.784 594.96 166.543 Q593.742 165.301 593.742 163.357 Q593.742 162.725 594.234 160.71 Q594.726 158.673 597.396 148.062 L593.156 148.062 Q592.571 148.062 592.336 148.039 Q592.126 148.015 591.962 147.898 Q591.821 147.758 591.821 147.477 Q591.821 147.032 592.009 146.844 Q592.196 146.633 592.43 146.61 Q592.688 146.563 593.273 146.563 L597.77 146.563 L599.644 138.951 Q599.832 138.201 600.3 137.78 Q600.792 137.335 601.073 137.288 Q601.354 137.218 601.565 137.218 Q602.197 137.218 602.572 137.569 Q602.947 137.897 602.947 138.506 Q602.947 138.834 600.979 146.563 L605.195 146.563 Q605.734 146.563 605.945 146.587 Q606.179 146.61 606.366 146.727 Q606.554 146.844 606.554 147.102 Z" fill="#000000" fill-rule="nonzero" fill-opacity="1" /><path clip-path="url(#clip340)" d="M629.063 125.999 Q629.063 128.392 627.849 130.704 Q626.653 133.016 624.767 134.442 Q622.882 135.852 620.963 135.852 Q619.816 135.852 619.045 135.229 Q618.291 134.59 617.881 133.688 Q617.569 134.803 616.897 137.476 Q616.225 140.148 616.225 140.41 Q616.225 140.558 616.258 140.624 Q616.29 140.689 616.438 140.771 Q616.586 140.87 616.946 140.902 Q617.307 140.952 617.914 140.952 Q618.225 140.952 618.34 140.952 Q618.471 140.968 618.586 141.05 Q618.717 141.132 618.717 141.312 Q618.717 141.984 618.11 141.984 Q617.569 141.984 616.454 141.935 Q615.339 141.886 614.782 141.886 Q614.307 141.886 613.356 141.935 Q612.405 141.984 611.962 141.984 Q611.519 141.984 611.519 141.591 Q611.519 141.361 611.585 141.214 Q611.634 141.083 611.765 141.017 Q611.896 140.968 612.011 140.952 Q612.11 140.952 612.306 140.952 Q613.06 140.952 613.388 140.82 Q613.716 140.706 613.831 140.46 Q613.962 140.23 614.11 139.574 L617.881 124.621 Q618.11 123.621 618.11 122.916 Q618.11 122.031 617.832 121.703 Q617.553 121.375 617.061 121.375 Q616.208 121.375 615.651 122.392 Q615.094 123.408 614.618 125.376 Q614.471 125.917 614.372 126.031 Q614.29 126.146 614.044 126.146 Q613.634 126.13 613.634 125.802 Q613.634 125.72 613.765 125.195 Q613.897 124.654 614.143 123.867 Q614.405 123.064 614.684 122.556 Q614.848 122.211 614.995 121.982 Q615.143 121.752 615.438 121.391 Q615.749 121.031 616.192 120.834 Q616.635 120.637 617.176 120.637 Q618.225 120.637 619.094 121.26 Q619.963 121.883 620.193 123.146 Q621.127 122.047 622.275 121.342 Q623.423 120.637 624.587 120.637 Q626.521 120.637 627.784 122.146 Q629.063 123.638 629.063 125.999 M626.636 124.523 Q626.636 123.031 626.062 122.211 Q625.505 121.375 624.488 121.375 Q623.226 121.375 621.767 122.654 Q620.324 123.867 620.029 124.998 L618.373 131.573 L618.274 132.114 Q618.274 132.213 618.324 132.508 Q618.389 132.786 618.569 133.246 Q618.766 133.705 619.029 134.115 Q619.307 134.508 619.799 134.803 Q620.307 135.098 620.93 135.098 Q621.931 135.098 623.013 134.213 Q624.111 133.328 624.931 131.655 Q625.439 130.573 626.029 128.245 Q626.636 125.9 626.636 124.523 Z" fill="#000000" fill-rule="nonzero" fill-opacity="1" /><path clip-path="url(#clip340)" d="M666.67 131.227 L666.67 134.769 L662.596 134.769 Q660.304 134.769 659.401 135.694 Q658.522 136.62 658.522 139.028 L658.522 141.319 L665.536 141.319 L665.536 144.63 L658.522 144.63 L658.522 167.245 L654.239 167.245 L654.239 144.63 L650.165 144.63 L650.165 141.319 L654.239 141.319 L654.239 139.514 Q654.239 135.185 656.253 133.218 Q658.267 131.227 662.642 131.227 L666.67 131.227 Z" fill="#000000" fill-rule="nonzero" fill-opacity="1" /><path clip-path="url(#clip340)" d="M670.235 141.319 L674.494 141.319 L674.494 167.245 L670.235 167.245 L670.235 141.319 M670.235 131.227 L674.494 131.227 L674.494 136.62 L670.235 136.62 L670.235 131.227 Z" fill="#000000" fill-rule="nonzero" fill-opacity="1" /><path clip-path="url(#clip340)" d="M687.619 133.958 L687.619 141.319 L696.392 141.319 L696.392 144.63 L687.619 144.63 L687.619 158.704 Q687.619 161.875 688.475 162.778 Q689.355 163.68 692.017 163.68 L696.392 163.68 L696.392 167.245 L692.017 167.245 Q687.086 167.245 685.211 165.417 Q683.336 163.565 683.336 158.704 L683.336 144.63 L680.211 144.63 L680.211 141.319 L683.336 141.319 L683.336 133.958 L687.619 133.958 Z" fill="#000000" fill-rule="nonzero" fill-opacity="1" /><path clip-path="url(#clip340)" d="M714.586 141.319 L718.846 141.319 L724.17 161.551 L729.47 141.319 L734.494 141.319 L739.818 161.551 L745.119 141.319 L749.378 141.319 L742.595 167.245 L737.572 167.245 L731.994 145.995 L726.392 167.245 L721.369 167.245 L714.586 141.319 Z" fill="#000000" fill-rule="nonzero" fill-opacity="1" /><path clip-path="url(#clip340)" d="M755.836 141.319 L760.095 141.319 L760.095 167.245 L755.836 167.245 L755.836 141.319 M755.836 131.227 L760.095 131.227 L760.095 136.62 L755.836 136.62 L755.836 131.227 Z" fill="#000000" fill-rule="nonzero" fill-opacity="1" /><path clip-path="url(#clip340)" d="M773.22 133.958 L773.22 141.319 L781.993 141.319 L781.993 144.63 L773.22 144.63 L773.22 158.704 Q773.22 161.875 774.077 162.778 Q774.956 163.68 777.618 163.68 L781.993 163.68 L781.993 167.245 L777.618 167.245 Q772.688 167.245 770.813 165.417 Q768.938 163.565 768.938 158.704 L768.938 144.63 L765.813 144.63 L765.813 141.319 L768.938 141.319 L768.938 133.958 L773.22 133.958 Z" fill="#000000" fill-rule="nonzero" fill-opacity="1" /><path clip-path="url(#clip340)" d="M809.146 151.597 L809.146 167.245 L804.887 167.245 L804.887 151.736 Q804.887 148.055 803.452 146.227 Q802.016 144.398 799.146 144.398 Q795.697 144.398 793.706 146.597 Q791.716 148.796 791.716 152.592 L791.716 167.245 L787.433 167.245 L787.433 131.227 L791.716 131.227 L791.716 145.347 Q793.243 143.009 795.303 141.852 Q797.387 140.694 800.095 140.694 Q804.563 140.694 806.854 143.472 Q809.146 146.227 809.146 151.597 Z" fill="#000000" fill-rule="nonzero" fill-opacity="1" /><path clip-path="url(#clip340)" d="M836.831 163.356 L836.831 177.106 L832.549 177.106 L832.549 141.319 L836.831 141.319 L836.831 145.255 Q838.174 142.94 840.211 141.829 Q842.271 140.694 845.118 140.694 Q849.84 140.694 852.78 144.444 Q855.743 148.194 855.743 154.305 Q855.743 160.417 852.78 164.167 Q849.84 167.916 845.118 167.916 Q842.271 167.916 840.211 166.805 Q838.174 165.671 836.831 163.356 M851.322 154.305 Q851.322 149.606 849.377 146.944 Q847.456 144.259 844.076 144.259 Q840.697 144.259 838.752 146.944 Q836.831 149.606 836.831 154.305 Q836.831 159.004 838.752 161.69 Q840.697 164.352 844.076 164.352 Q847.456 164.352 849.377 161.69 Q851.322 159.004 851.322 154.305 Z" fill="#000000" fill-rule="nonzero" fill-opacity="1" /><path clip-path="url(#clip340)" d="M878.428 145.718 L908.104 145.718 L908.104 149.606 L878.428 149.606 L878.428 145.718 M878.428 155.162 L908.104 155.162 L908.104 159.097 L878.428 159.097 L878.428 155.162 Z" fill="#000000" fill-rule="nonzero" fill-opacity="1" /><path clip-path="url(#clip340)" d="M934.076 163.31 L941.715 163.31 L941.715 136.944 L933.405 138.611 L933.405 134.352 L941.668 132.685 L946.344 132.685 L946.344 163.31 L953.983 163.31 L953.983 167.245 L934.076 167.245 L934.076 163.31 Z" fill="#000000" fill-rule="nonzero" fill-opacity="1" /><path clip-path="url(#clip340)" d="M963.428 161.366 L968.312 161.366 L968.312 167.245 L963.428 167.245 L963.428 161.366 Z" fill="#000000" fill-rule="nonzero" fill-opacity="1" /><path clip-path="url(#clip340)" d="M979.307 163.31 L986.946 163.31 L986.946 136.944 L978.636 138.611 L978.636 134.352 L986.9 132.685 L991.576 132.685 L991.576 163.31 L999.214 163.31 L999.214 167.245 L979.307 167.245 L979.307 163.31 Z" fill="#000000" fill-rule="nonzero" fill-opacity="1" /><path clip-path="url(#clip340)" d="M1008.71 132.685 L1027.06 132.685 L1027.06 136.62 L1012.99 136.62 L1012.99 145.093 Q1014.01 144.745 1015.02 144.583 Q1016.04 144.398 1017.06 144.398 Q1022.85 144.398 1026.23 147.569 Q1029.61 150.741 1029.61 156.157 Q1029.61 161.736 1026.14 164.838 Q1022.66 167.916 1016.34 167.916 Q1014.17 167.916 1011.9 167.546 Q1009.65 167.176 1007.25 166.435 L1007.25 161.736 Q1009.33 162.87 1011.55 163.426 Q1013.77 163.981 1016.25 163.981 Q1020.26 163.981 1022.59 161.875 Q1024.93 159.768 1024.93 156.157 Q1024.93 152.546 1022.59 150.44 Q1020.26 148.333 1016.25 148.333 Q1014.38 148.333 1012.5 148.75 Q1010.65 149.167 1008.71 150.046 L1008.71 132.685 Z" fill="#000000" fill-rule="nonzero" fill-opacity="1" /><path clip-path="url(#clip340)" d="M1039.31 142.731 L1044.19 142.731 L1044.19 148.611 L1039.31 148.611 L1039.31 142.731 M1039.31 161.366 L1044.19 161.366 L1044.19 165.347 L1040.39 172.754 L1037.41 172.754 L1039.31 165.347 L1039.31 161.366 Z" fill="#000000" fill-rule="nonzero" fill-opacity="1" /><path clip-path="url(#clip340)" d="M1070 166.528 L1070 162.268 Q1071.76 163.102 1073.57 163.542 Q1075.37 163.981 1077.11 163.981 Q1081.74 163.981 1084.17 160.879 Q1086.62 157.755 1086.97 151.412 Q1085.63 153.403 1083.57 154.467 Q1081.51 155.532 1079.01 155.532 Q1073.82 155.532 1070.79 152.407 Q1067.78 149.259 1067.78 143.819 Q1067.78 138.495 1070.93 135.278 Q1074.08 132.06 1079.31 132.06 Q1085.3 132.06 1088.45 136.667 Q1091.62 141.25 1091.62 150 Q1091.62 158.171 1087.73 163.055 Q1083.87 167.916 1077.32 167.916 Q1075.56 167.916 1073.75 167.569 Q1071.95 167.222 1070 166.528 M1079.31 151.875 Q1082.45 151.875 1084.28 149.722 Q1086.14 147.569 1086.14 143.819 Q1086.14 140.093 1084.28 137.94 Q1082.45 135.764 1079.31 135.764 Q1076.16 135.764 1074.31 137.94 Q1072.48 140.093 1072.48 143.819 Q1072.48 147.569 1074.31 149.722 Q1076.16 151.875 1079.31 151.875 Z" fill="#000000" fill-rule="nonzero" fill-opacity="1" /><path clip-path="url(#clip340)" d="M1100.07 132.685 L1118.43 132.685 L1118.43 136.62 L1104.35 136.62 L1104.35 145.093 Q1105.37 144.745 1106.39 144.583 Q1107.41 144.398 1108.43 144.398 Q1114.21 144.398 1117.59 147.569 Q1120.97 150.741 1120.97 156.157 Q1120.97 161.736 1117.5 164.838 Q1114.03 167.916 1107.71 167.916 Q1105.53 167.916 1103.26 167.546 Q1101.02 167.176 1098.61 166.435 L1098.61 161.736 Q1100.7 162.87 1102.92 163.426 Q1105.14 163.981 1107.62 163.981 Q1111.62 163.981 1113.96 161.875 Q1116.3 159.768 1116.3 156.157 Q1116.3 152.546 1113.96 150.44 Q1111.62 148.333 1107.62 148.333 Q1105.74 148.333 1103.87 148.75 Q1102.01 149.167 1100.07 150.046 L1100.07 132.685 Z" fill="#000000" fill-rule="nonzero" fill-opacity="1" /><path clip-path="url(#clip340)" d="M1159.58 152.037 Q1157.57 152.037 1156.41 153.75 Q1155.28 155.463 1155.28 158.518 Q1155.28 161.528 1156.41 163.264 Q1157.57 164.977 1159.58 164.977 Q1161.55 164.977 1162.69 163.264 Q1163.84 161.528 1163.84 158.518 Q1163.84 155.486 1162.69 153.773 Q1161.55 152.037 1159.58 152.037 M1159.58 149.097 Q1163.24 149.097 1165.39 151.643 Q1167.55 154.19 1167.55 158.518 Q1167.55 162.847 1165.37 165.393 Q1163.22 167.916 1159.58 167.916 Q1155.88 167.916 1153.73 165.393 Q1151.57 162.847 1151.57 158.518 Q1151.57 154.167 1153.73 151.643 Q1155.9 149.097 1159.58 149.097 M1135.7 135 Q1133.7 135 1132.55 136.736 Q1131.41 138.449 1131.41 141.458 Q1131.41 144.514 1132.55 146.227 Q1133.68 147.94 1135.7 147.94 Q1137.71 147.94 1138.84 146.227 Q1140 144.514 1140 141.458 Q1140 138.472 1138.84 136.736 Q1137.69 135 1135.7 135 M1156.6 132.06 L1160.3 132.06 L1138.68 167.916 L1134.98 167.916 L1156.6 132.06 M1135.7 132.06 Q1139.35 132.06 1141.53 134.606 Q1143.7 137.13 1143.7 141.458 Q1143.7 145.833 1141.53 148.356 Q1139.38 150.88 1135.7 150.88 Q1132.01 150.88 1129.86 148.356 Q1127.73 145.81 1127.73 141.458 Q1127.73 137.153 1129.89 134.606 Q1132.04 132.06 1135.7 132.06 Z" fill="#000000" fill-rule="nonzero" fill-opacity="1" /><path clip-path="url(#clip340)" d="M1215.76 135.347 L1215.76 140.278 Q1213.4 138.079 1210.72 136.991 Q1208.06 135.903 1205.05 135.903 Q1199.12 135.903 1195.97 139.537 Q1192.82 143.148 1192.82 150 Q1192.82 156.829 1195.97 160.463 Q1199.12 164.074 1205.05 164.074 Q1208.06 164.074 1210.72 162.986 Q1213.4 161.898 1215.76 159.699 L1215.76 164.583 Q1213.31 166.25 1210.56 167.083 Q1207.82 167.916 1204.77 167.916 Q1196.92 167.916 1192.41 163.125 Q1187.89 158.31 1187.89 150 Q1187.89 141.667 1192.41 136.875 Q1196.92 132.06 1204.77 132.06 Q1207.87 132.06 1210.6 132.894 Q1213.36 133.704 1215.76 135.347 Z" fill="#000000" fill-rule="nonzero" fill-opacity="1" /><path clip-path="url(#clip340)" d="M1222.99 132.685 L1227.66 132.685 L1227.66 167.245 L1222.99 167.245 L1222.99 132.685 Z" fill="#000000" fill-rule="nonzero" fill-opacity="1" /><path clip-path="url(#clip340)" d="M1251.46 131.227 L1261.27 131.227 L1261.27 134.537 L1255.72 134.537 L1255.72 170.185 L1261.27 170.185 L1261.27 173.495 L1251.46 173.495 L1251.46 131.227 Z" fill="#000000" fill-rule="nonzero" fill-opacity="1" /><path clip-path="url(#clip340)" d="M1271.76 163.31 L1279.4 163.31 L1279.4 136.944 L1271.09 138.611 L1271.09 134.352 L1279.35 132.685 L1284.03 132.685 L1284.03 163.31 L1291.67 163.31 L1291.67 167.245 L1271.76 167.245 L1271.76 163.31 Z" fill="#000000" fill-rule="nonzero" fill-opacity="1" /><path clip-path="url(#clip340)" d="M1301.11 161.366 L1306 161.366 L1306 167.245 L1301.11 167.245 L1301.11 161.366 Z" fill="#000000" fill-rule="nonzero" fill-opacity="1" /><path clip-path="url(#clip340)" d="M1326.18 135.764 Q1322.57 135.764 1320.74 139.329 Q1318.93 142.87 1318.93 150 Q1318.93 157.106 1320.74 160.671 Q1322.57 164.213 1326.18 164.213 Q1329.81 164.213 1331.62 160.671 Q1333.45 157.106 1333.45 150 Q1333.45 142.87 1331.62 139.329 Q1329.81 135.764 1326.18 135.764 M1326.18 132.06 Q1331.99 132.06 1335.05 136.667 Q1338.12 141.25 1338.12 150 Q1338.12 158.727 1335.05 163.333 Q1331.99 167.916 1326.18 167.916 Q1320.37 167.916 1317.29 163.333 Q1314.24 158.727 1314.24 150 Q1314.24 141.25 1317.29 136.667 Q1320.37 132.06 1326.18 132.06 Z" fill="#000000" fill-rule="nonzero" fill-opacity="1" /><path clip-path="url(#clip340)" d="M1356.92 148.102 Q1353.77 148.102 1351.92 150.255 Q1350.09 152.407 1350.09 156.157 Q1350.09 159.884 1351.92 162.06 Q1353.77 164.213 1356.92 164.213 Q1360.07 164.213 1361.9 162.06 Q1363.75 159.884 1363.75 156.157 Q1363.75 152.407 1361.9 150.255 Q1360.07 148.102 1356.92 148.102 M1366.2 133.449 L1366.2 137.708 Q1364.44 136.875 1362.64 136.435 Q1360.86 135.995 1359.1 135.995 Q1354.47 135.995 1352.01 139.12 Q1349.58 142.245 1349.24 148.565 Q1350.6 146.551 1352.66 145.486 Q1354.72 144.398 1357.2 144.398 Q1362.41 144.398 1365.42 147.569 Q1368.45 150.718 1368.45 156.157 Q1368.45 161.481 1365.3 164.699 Q1362.15 167.916 1356.92 167.916 Q1350.93 167.916 1347.75 163.333 Q1344.58 158.727 1344.58 150 Q1344.58 141.806 1348.47 136.944 Q1352.36 132.06 1358.91 132.06 Q1360.67 132.06 1362.45 132.407 Q1364.26 132.755 1366.2 133.449 Z" fill="#000000" fill-rule="nonzero" fill-opacity="1" /><path clip-path="url(#clip340)" d="M1376.99 161.366 L1381.87 161.366 L1381.87 165.347 L1378.08 172.754 L1375.09 172.754 L1376.99 165.347 L1376.99 161.366 Z" fill="#000000" fill-rule="nonzero" fill-opacity="1" /><path clip-path="url(#clip340)" d="M1407.45 163.31 L1415.09 163.31 L1415.09 136.944 L1406.78 138.611 L1406.78 134.352 L1415.05 132.685 L1419.72 132.685 L1419.72 163.31 L1427.36 163.31 L1427.36 167.245 L1407.45 167.245 L1407.45 163.31 Z" fill="#000000" fill-rule="nonzero" fill-opacity="1" /><path clip-path="url(#clip340)" d="M1436.8 161.366 L1441.69 161.366 L1441.69 167.245 L1436.8 167.245 L1436.8 161.366 Z" fill="#000000" fill-rule="nonzero" fill-opacity="1" /><path clip-path="url(#clip340)" d="M1455.9 163.31 L1472.22 163.31 L1472.22 167.245 L1450.28 167.245 L1450.28 163.31 Q1452.94 160.555 1457.52 155.926 Q1462.13 151.273 1463.31 149.93 Q1465.55 147.407 1466.43 145.671 Q1467.34 143.912 1467.34 142.222 Q1467.34 139.468 1465.39 137.731 Q1463.47 135.995 1460.37 135.995 Q1458.17 135.995 1455.72 136.759 Q1453.29 137.523 1450.51 139.074 L1450.51 134.352 Q1453.33 133.218 1455.79 132.639 Q1458.24 132.06 1460.28 132.06 Q1465.65 132.06 1468.84 134.745 Q1472.04 137.431 1472.04 141.921 Q1472.04 144.051 1471.23 145.972 Q1470.44 147.87 1468.33 150.463 Q1467.75 151.134 1464.65 154.352 Q1461.55 157.546 1455.9 163.31 Z" fill="#000000" fill-rule="nonzero" fill-opacity="1" /><path clip-path="url(#clip340)" d="M1496.2 148.611 Q1499.56 149.329 1501.43 151.597 Q1503.33 153.866 1503.33 157.199 Q1503.33 162.315 1499.81 165.116 Q1496.3 167.916 1489.81 167.916 Q1487.64 167.916 1485.32 167.477 Q1483.03 167.06 1480.58 166.204 L1480.58 161.69 Q1482.52 162.824 1484.84 163.403 Q1487.15 163.981 1489.67 163.981 Q1494.07 163.981 1496.36 162.245 Q1498.68 160.509 1498.68 157.199 Q1498.68 154.143 1496.53 152.43 Q1494.4 150.694 1490.58 150.694 L1486.55 150.694 L1486.55 146.852 L1490.76 146.852 Q1494.21 146.852 1496.04 145.486 Q1497.87 144.097 1497.87 141.505 Q1497.87 138.843 1495.97 137.431 Q1494.1 135.995 1490.58 135.995 Q1488.66 135.995 1486.46 136.412 Q1484.26 136.829 1481.62 137.708 L1481.62 133.542 Q1484.28 132.801 1486.6 132.431 Q1488.93 132.06 1490.99 132.06 Q1496.32 132.06 1499.42 134.491 Q1502.52 136.898 1502.52 141.018 Q1502.52 143.889 1500.88 145.88 Q1499.23 147.847 1496.2 148.611 Z" fill="#000000" fill-rule="nonzero" fill-opacity="1" /><path clip-path="url(#clip340)" d="M1521.55 131.227 L1521.55 173.495 L1511.73 173.495 L1511.73 170.185 L1517.27 170.185 L1517.27 134.537 L1511.73 134.537 L1511.73 131.227 L1521.55 131.227 Z" fill="#000000" fill-rule="nonzero" fill-opacity="1" /><circle clip-path="url(#clip340)" cx="421.404" cy="196.379" r="20.48" fill="#ff7e0d" fill-rule="evenodd" fill-opacity="1" stroke="#000000" stroke-opacity="1" stroke-width="4.55111"/>
<path clip-path="url(#clip340)" d="M532.907 188.497 L532.907 192.525 Q531.102 191.599 529.157 191.136 Q527.213 190.673 525.129 190.673 Q521.958 190.673 520.361 191.645 Q518.787 192.618 518.787 194.562 Q518.787 196.044 519.921 196.9 Q521.055 197.733 524.481 198.497 L525.94 198.821 Q530.477 199.794 532.375 201.576 Q534.296 203.335 534.296 206.506 Q534.296 210.118 531.426 212.224 Q528.579 214.33 523.579 214.33 Q521.495 214.33 519.227 213.914 Q516.981 213.52 514.481 212.71 L514.481 208.312 Q516.842 209.539 519.134 210.164 Q521.426 210.766 523.671 210.766 Q526.68 210.766 528.301 209.747 Q529.921 208.706 529.921 206.831 Q529.921 205.094 528.741 204.168 Q527.583 203.243 523.625 202.386 L522.143 202.039 Q518.185 201.206 516.426 199.493 Q514.667 197.756 514.667 194.747 Q514.667 191.09 517.259 189.099 Q519.852 187.108 524.62 187.108 Q526.981 187.108 529.065 187.456 Q531.148 187.803 532.907 188.497 Z" fill="#000000" fill-rule="nonzero" fill-opacity="1" /><path clip-path="url(#clip340)" d="M545.291 180.372 L545.291 187.733 L554.065 187.733 L554.065 191.044 L545.291 191.044 L545.291 205.118 Q545.291 208.289 546.148 209.192 Q547.028 210.094 549.69 210.094 L554.065 210.094 L554.065 213.659 L549.69 213.659 Q544.759 213.659 542.884 211.83 Q541.009 209.979 541.009 205.118 L541.009 191.044 L537.884 191.044 L537.884 187.733 L541.009 187.733 L541.009 180.372 L545.291 180.372 Z" fill="#000000" fill-rule="nonzero" fill-opacity="1" /><path clip-path="url(#clip340)" d="M574.689 191.715 Q573.972 191.298 573.115 191.113 Q572.282 190.905 571.264 190.905 Q567.652 190.905 565.708 193.266 Q563.787 195.604 563.787 200.002 L563.787 213.659 L559.504 213.659 L559.504 187.733 L563.787 187.733 L563.787 191.761 Q565.129 189.4 567.282 188.266 Q569.435 187.108 572.513 187.108 Q572.953 187.108 573.486 187.178 Q574.018 187.224 574.666 187.34 L574.689 191.715 Z" fill="#000000" fill-rule="nonzero" fill-opacity="1" /><path clip-path="url(#clip340)" d="M588.162 190.719 Q584.736 190.719 582.745 193.405 Q580.754 196.067 580.754 200.719 Q580.754 205.372 582.722 208.057 Q584.713 210.719 588.162 210.719 Q591.564 210.719 593.555 208.034 Q595.546 205.349 595.546 200.719 Q595.546 196.113 593.555 193.428 Q591.564 190.719 588.162 190.719 M588.162 187.108 Q593.717 187.108 596.888 190.719 Q600.06 194.331 600.06 200.719 Q600.06 207.085 596.888 210.719 Q593.717 214.33 588.162 214.33 Q582.583 214.33 579.412 210.719 Q576.263 207.085 576.263 200.719 Q576.263 194.331 579.412 190.719 Q582.583 187.108 588.162 187.108 Z" fill="#000000" fill-rule="nonzero" fill-opacity="1" /><path clip-path="url(#clip340)" d="M628.671 198.011 L628.671 213.659 L624.411 213.659 L624.411 198.15 Q624.411 194.469 622.976 192.641 Q621.541 190.812 618.671 190.812 Q615.222 190.812 613.231 193.011 Q611.24 195.21 611.24 199.006 L611.24 213.659 L606.958 213.659 L606.958 187.733 L611.24 187.733 L611.24 191.761 Q612.768 189.423 614.828 188.266 Q616.911 187.108 619.62 187.108 Q624.087 187.108 626.379 189.886 Q628.671 192.641 628.671 198.011 Z" fill="#000000" fill-rule="nonzero" fill-opacity="1" /><path clip-path="url(#clip340)" d="M654.226 200.395 Q654.226 195.766 652.305 193.219 Q650.407 190.673 646.958 190.673 Q643.532 190.673 641.61 193.219 Q639.712 195.766 639.712 200.395 Q639.712 205.002 641.61 207.548 Q643.532 210.094 646.958 210.094 Q650.407 210.094 652.305 207.548 Q654.226 205.002 654.226 200.395 M658.485 210.442 Q658.485 217.062 655.545 220.28 Q652.606 223.52 646.541 223.52 Q644.296 223.52 642.305 223.173 Q640.314 222.849 638.439 222.155 L638.439 218.011 Q640.314 219.03 642.143 219.516 Q643.971 220.002 645.87 220.002 Q650.059 220.002 652.143 217.803 Q654.226 215.627 654.226 211.205 L654.226 209.099 Q652.907 211.391 650.846 212.525 Q648.786 213.659 645.916 213.659 Q641.147 213.659 638.231 210.025 Q635.314 206.391 635.314 200.395 Q635.314 194.377 638.231 190.743 Q641.147 187.108 645.916 187.108 Q648.786 187.108 650.846 188.243 Q652.907 189.377 654.226 191.669 L654.226 187.733 L658.485 187.733 L658.485 210.442 Z" fill="#000000" fill-rule="nonzero" fill-opacity="1" /><path clip-path="url(#clip340)" d="M704.504 199.631 L704.504 201.715 L684.92 201.715 Q685.198 206.113 687.559 208.428 Q689.943 210.719 694.18 210.719 Q696.633 210.719 698.925 210.118 Q701.24 209.516 703.508 208.312 L703.508 212.34 Q701.217 213.312 698.809 213.821 Q696.402 214.33 693.925 214.33 Q687.721 214.33 684.087 210.719 Q680.476 207.108 680.476 200.951 Q680.476 194.585 683.902 190.858 Q687.351 187.108 693.184 187.108 Q698.416 187.108 701.448 190.488 Q704.504 193.844 704.504 199.631 M700.244 198.381 Q700.198 194.886 698.277 192.803 Q696.379 190.719 693.23 190.719 Q689.666 190.719 687.513 192.733 Q685.383 194.747 685.059 198.405 L700.244 198.381 Z" fill="#000000" fill-rule="nonzero" fill-opacity="1" /><path clip-path="url(#clip340)" d="M726.517 191.715 Q725.8 191.298 724.943 191.113 Q724.11 190.905 723.091 190.905 Q719.48 190.905 717.536 193.266 Q715.615 195.604 715.615 200.002 L715.615 213.659 L711.332 213.659 L711.332 187.733 L715.615 187.733 L715.615 191.761 Q716.957 189.4 719.11 188.266 Q721.263 187.108 724.341 187.108 Q724.781 187.108 725.314 187.178 Q725.846 187.224 726.494 187.34 L726.517 191.715 Z" fill="#000000" fill-rule="nonzero" fill-opacity="1" /><path clip-path="url(#clip340)" d="M745.175 191.715 Q744.457 191.298 743.601 191.113 Q742.767 190.905 741.749 190.905 Q738.138 190.905 736.193 193.266 Q734.272 195.604 734.272 200.002 L734.272 213.659 L729.99 213.659 L729.99 187.733 L734.272 187.733 L734.272 191.761 Q735.614 189.4 737.767 188.266 Q739.92 187.108 742.999 187.108 Q743.439 187.108 743.971 187.178 Q744.503 187.224 745.151 187.34 L745.175 191.715 Z" fill="#000000" fill-rule="nonzero" fill-opacity="1" /><path clip-path="url(#clip340)" d="M758.647 190.719 Q755.221 190.719 753.23 193.405 Q751.239 196.067 751.239 200.719 Q751.239 205.372 753.207 208.057 Q755.198 210.719 758.647 210.719 Q762.05 210.719 764.04 208.034 Q766.031 205.349 766.031 200.719 Q766.031 196.113 764.04 193.428 Q762.05 190.719 758.647 190.719 M758.647 187.108 Q764.202 187.108 767.374 190.719 Q770.545 194.331 770.545 200.719 Q770.545 207.085 767.374 210.719 Q764.202 214.33 758.647 214.33 Q753.068 214.33 749.897 210.719 Q746.749 207.085 746.749 200.719 Q746.749 194.331 749.897 190.719 Q753.068 187.108 758.647 187.108 Z" fill="#000000" fill-rule="nonzero" fill-opacity="1" /><path clip-path="url(#clip340)" d="M792.628 191.715 Q791.91 191.298 791.054 191.113 Q790.221 190.905 789.202 190.905 Q785.591 190.905 783.647 193.266 Q781.725 195.604 781.725 200.002 L781.725 213.659 L777.443 213.659 L777.443 187.733 L781.725 187.733 L781.725 191.761 Q783.068 189.4 785.221 188.266 Q787.373 187.108 790.452 187.108 Q790.892 187.108 791.424 187.178 Q791.957 187.224 792.605 187.34 L792.628 191.715 Z" fill="#000000" fill-rule="nonzero" fill-opacity="1" /><path clip-path="url(#clip340)" d="M813.623 188.497 L813.623 192.525 Q811.818 191.599 809.873 191.136 Q807.929 190.673 805.846 190.673 Q802.674 190.673 801.077 191.645 Q799.503 192.618 799.503 194.562 Q799.503 196.044 800.637 196.9 Q801.772 197.733 805.197 198.497 L806.656 198.821 Q811.193 199.794 813.091 201.576 Q815.012 203.335 815.012 206.506 Q815.012 210.118 812.142 212.224 Q809.295 214.33 804.295 214.33 Q802.211 214.33 799.943 213.914 Q797.697 213.52 795.197 212.71 L795.197 208.312 Q797.559 209.539 799.85 210.164 Q802.142 210.766 804.387 210.766 Q807.396 210.766 809.017 209.747 Q810.637 208.706 810.637 206.831 Q810.637 205.094 809.457 204.168 Q808.299 203.243 804.341 202.386 L802.859 202.039 Q798.901 201.206 797.142 199.493 Q795.383 197.756 795.383 194.747 Q795.383 191.09 797.975 189.099 Q800.568 187.108 805.336 187.108 Q807.697 187.108 809.781 187.456 Q811.864 187.803 813.623 188.497 Z" fill="#000000" fill-rule="nonzero" fill-opacity="1" /></svg>
