<?xml version="1.0" encoding="utf-8"?>
<svg xmlns="http://www.w3.org/2000/svg" xmlns:xlink="http://www.w3.org/1999/xlink" width="600" height="400" viewBox="0 0 2400 1600">
<defs>
  <clipPath id="clip910">
    <rect x="0" y="0" width="2400" height="1600"/>
  </clipPath>
</defs>
<path clip-path="url(#clip910)" d="M0 1600 L2400 1600 L2400 0 L0 0  Z" fill="#ffffff" fill-rule="evenodd" fill-opacity="1"/>
<defs>
  <clipPath id="clip911">
    <rect x="480" y="0" width="1681" height="1600"/>
  </clipPath>
</defs>
<path clip-path="url(#clip910)" d="M203.964 1423.18 L2352.76 1423.18 L2352.76 47.2441 L203.964 47.2441  Z" fill="#ffffff" fill-rule="evenodd" fill-opacity="1"/>
<defs>
  <clipPath id="clip912">
    <rect x="203" y="47" width="2150" height="1377"/>
  </clipPath>
</defs>
<polyline clip-path="url(#clip912)" style="stroke:#000000; stroke-linecap:round; stroke-linejoin:round; stroke-width:2; stroke-opacity:0.1; fill:none" points="264.778,1423.18 264.778,47.2441 "/>
<polyline clip-path="url(#clip912)" style="stroke:#000000; stroke-linecap:round; stroke-linejoin:round; stroke-width:2; stroke-opacity:0.1; fill:none" points="771.569,1423.18 771.569,47.2441 "/>
<polyline clip-path="url(#clip912)" style="stroke:#000000; stroke-linecap:round; stroke-linejoin:round; stroke-width:2; stroke-opacity:0.1; fill:none" points="1278.36,1423.18 1278.36,47.2441 "/>
<polyline clip-path="url(#clip912)" style="stroke:#000000; stroke-linecap:round; stroke-linejoin:round; stroke-width:2; stroke-opacity:0.1; fill:none" points="1785.15,1423.18 1785.15,47.2441 "/>
<polyline clip-path="url(#clip912)" style="stroke:#000000; stroke-linecap:round; stroke-linejoin:round; stroke-width:2; stroke-opacity:0.1; fill:none" points="2291.94,1423.18 2291.94,47.2441 "/>
<polyline clip-path="url(#clip912)" style="stroke:#000000; stroke-linecap:round; stroke-linejoin:round; stroke-width:2; stroke-opacity:0.1; fill:none" points="203.964,1203.09 2352.76,1203.09 "/>
<polyline clip-path="url(#clip912)" style="stroke:#000000; stroke-linecap:round; stroke-linejoin:round; stroke-width:2; stroke-opacity:0.1; fill:none" points="203.964,870.963 2352.76,870.963 "/>
<polyline clip-path="url(#clip912)" style="stroke:#000000; stroke-linecap:round; stroke-linejoin:round; stroke-width:2; stroke-opacity:0.1; fill:none" points="203.964,538.842 2352.76,538.842 "/>
<polyline clip-path="url(#clip912)" style="stroke:#000000; stroke-linecap:round; stroke-linejoin:round; stroke-width:2; stroke-opacity:0.1; fill:none" points="203.964,206.72 2352.76,206.72 "/>
<polyline clip-path="url(#clip910)" style="stroke:#000000; stroke-linecap:round; stroke-linejoin:round; stroke-width:4; stroke-opacity:1; fill:none" points="203.964,1423.18 2352.76,1423.18 "/>
<polyline clip-path="url(#clip910)" style="stroke:#000000; stroke-linecap:round; stroke-linejoin:round; stroke-width:4; stroke-opacity:1; fill:none" points="264.778,1423.18 264.778,1404.28 "/>
<polyline clip-path="url(#clip910)" style="stroke:#000000; stroke-linecap:round; stroke-linejoin:round; stroke-width:4; stroke-opacity:1; fill:none" points="771.569,1423.18 771.569,1404.28 "/>
<polyline clip-path="url(#clip910)" style="stroke:#000000; stroke-linecap:round; stroke-linejoin:round; stroke-width:4; stroke-opacity:1; fill:none" points="1278.36,1423.18 1278.36,1404.28 "/>
<polyline clip-path="url(#clip910)" style="stroke:#000000; stroke-linecap:round; stroke-linejoin:round; stroke-width:4; stroke-opacity:1; fill:none" points="1785.15,1423.18 1785.15,1404.28 "/>
<polyline clip-path="url(#clip910)" style="stroke:#000000; stroke-linecap:round; stroke-linejoin:round; stroke-width:4; stroke-opacity:1; fill:none" points="2291.94,1423.18 2291.94,1404.28 "/>
<path clip-path="url(#clip910)" d="M227.082 1454.1 Q223.471 1454.1 221.642 1457.66 Q219.837 1461.2 219.837 1468.33 Q219.837 1475.44 221.642 1479.01 Q223.471 1482.55 227.082 1482.55 Q230.716 1482.55 232.522 1479.01 Q234.35 1475.44 234.35 1468.33 Q234.35 1461.2 232.522 1457.66 Q230.716 1454.1 227.082 1454.1 M227.082 1450.39 Q232.892 1450.39 235.948 1455 Q239.026 1459.58 239.026 1468.33 Q239.026 1477.06 235.948 1481.67 Q232.892 1486.25 227.082 1486.25 Q221.272 1486.25 218.193 1481.67 Q215.138 1477.06 215.138 1468.33 Q215.138 1459.58 218.193 1455 Q221.272 1450.39 227.082 1450.39 Z" fill="#000000" fill-rule="nonzero" fill-opacity="1" /><path clip-path="url(#clip910)" d="M247.244 1479.7 L252.128 1479.7 L252.128 1485.58 L247.244 1485.58 L247.244 1479.7 Z" fill="#000000" fill-rule="nonzero" fill-opacity="1" /><path clip-path="url(#clip910)" d="M272.313 1454.1 Q268.702 1454.1 266.873 1457.66 Q265.068 1461.2 265.068 1468.33 Q265.068 1475.44 266.873 1479.01 Q268.702 1482.55 272.313 1482.55 Q275.947 1482.55 277.753 1479.01 Q279.582 1475.44 279.582 1468.33 Q279.582 1461.2 277.753 1457.66 Q275.947 1454.1 272.313 1454.1 M272.313 1450.39 Q278.123 1450.39 281.179 1455 Q284.258 1459.58 284.258 1468.33 Q284.258 1477.06 281.179 1481.67 Q278.123 1486.25 272.313 1486.25 Q266.503 1486.25 263.424 1481.67 Q260.369 1477.06 260.369 1468.33 Q260.369 1459.58 263.424 1455 Q266.503 1450.39 272.313 1450.39 Z" fill="#000000" fill-rule="nonzero" fill-opacity="1" /><path clip-path="url(#clip910)" d="M302.475 1454.1 Q298.864 1454.1 297.035 1457.66 Q295.23 1461.2 295.23 1468.33 Q295.23 1475.44 297.035 1479.01 Q298.864 1482.55 302.475 1482.55 Q306.109 1482.55 307.915 1479.01 Q309.743 1475.44 309.743 1468.33 Q309.743 1461.2 307.915 1457.66 Q306.109 1454.1 302.475 1454.1 M302.475 1450.39 Q308.285 1450.39 311.341 1455 Q314.419 1459.58 314.419 1468.33 Q314.419 1477.06 311.341 1481.67 Q308.285 1486.25 302.475 1486.25 Q296.665 1486.25 293.586 1481.67 Q290.531 1477.06 290.531 1468.33 Q290.531 1459.58 293.586 1455 Q296.665 1450.39 302.475 1450.39 Z" fill="#000000" fill-rule="nonzero" fill-opacity="1" /><path clip-path="url(#clip910)" d="M734.37 1454.1 Q730.759 1454.1 728.93 1457.66 Q727.125 1461.2 727.125 1468.33 Q727.125 1475.44 728.93 1479.01 Q730.759 1482.55 734.37 1482.55 Q738.004 1482.55 739.81 1479.01 Q741.639 1475.44 741.639 1468.33 Q741.639 1461.2 739.81 1457.66 Q738.004 1454.1 734.37 1454.1 M734.37 1450.39 Q740.18 1450.39 743.236 1455 Q746.315 1459.58 746.315 1468.33 Q746.315 1477.06 743.236 1481.67 Q740.18 1486.25 734.37 1486.25 Q728.56 1486.25 725.481 1481.67 Q722.426 1477.06 722.426 1468.33 Q722.426 1459.58 725.481 1455 Q728.56 1450.39 734.37 1450.39 Z" fill="#000000" fill-rule="nonzero" fill-opacity="1" /><path clip-path="url(#clip910)" d="M754.532 1479.7 L759.416 1479.7 L759.416 1485.58 L754.532 1485.58 L754.532 1479.7 Z" fill="#000000" fill-rule="nonzero" fill-opacity="1" /><path clip-path="url(#clip910)" d="M773.629 1481.64 L789.949 1481.64 L789.949 1485.58 L768.004 1485.58 L768.004 1481.64 Q770.666 1478.89 775.25 1474.26 Q779.856 1469.61 781.037 1468.27 Q783.282 1465.74 784.162 1464.01 Q785.064 1462.25 785.064 1460.56 Q785.064 1457.8 783.12 1456.07 Q781.199 1454.33 778.097 1454.33 Q775.898 1454.33 773.444 1455.09 Q771.014 1455.86 768.236 1457.41 L768.236 1452.69 Q771.06 1451.55 773.514 1450.97 Q775.967 1450.39 778.004 1450.39 Q783.375 1450.39 786.569 1453.08 Q789.763 1455.77 789.763 1460.26 Q789.763 1462.39 788.953 1464.31 Q788.166 1466.2 786.06 1468.8 Q785.481 1469.47 782.379 1472.69 Q779.277 1475.88 773.629 1481.64 Z" fill="#000000" fill-rule="nonzero" fill-opacity="1" /><path clip-path="url(#clip910)" d="M799.81 1451.02 L818.166 1451.02 L818.166 1454.96 L804.092 1454.96 L804.092 1463.43 Q805.111 1463.08 806.129 1462.92 Q807.148 1462.73 808.166 1462.73 Q813.953 1462.73 817.333 1465.9 Q820.712 1469.08 820.712 1474.49 Q820.712 1480.07 817.24 1483.17 Q813.768 1486.25 807.449 1486.25 Q805.273 1486.25 803.004 1485.88 Q800.759 1485.51 798.351 1484.77 L798.351 1480.07 Q800.435 1481.2 802.657 1481.76 Q804.879 1482.32 807.356 1482.32 Q811.361 1482.32 813.698 1480.21 Q816.036 1478.1 816.036 1474.49 Q816.036 1470.88 813.698 1468.77 Q811.361 1466.67 807.356 1466.67 Q805.481 1466.67 803.606 1467.08 Q801.754 1467.5 799.81 1468.38 L799.81 1451.02 Z" fill="#000000" fill-rule="nonzero" fill-opacity="1" /><path clip-path="url(#clip910)" d="M1240.66 1454.1 Q1237.05 1454.1 1235.22 1457.66 Q1233.42 1461.2 1233.42 1468.33 Q1233.42 1475.44 1235.22 1479.01 Q1237.05 1482.55 1240.66 1482.55 Q1244.3 1482.55 1246.1 1479.01 Q1247.93 1475.44 1247.93 1468.33 Q1247.93 1461.2 1246.1 1457.66 Q1244.3 1454.1 1240.66 1454.1 M1240.66 1450.39 Q1246.47 1450.39 1249.53 1455 Q1252.61 1459.58 1252.61 1468.33 Q1252.61 1477.06 1249.53 1481.67 Q1246.47 1486.25 1240.66 1486.25 Q1234.85 1486.25 1231.77 1481.67 Q1228.72 1477.06 1228.72 1468.33 Q1228.72 1459.58 1231.77 1455 Q1234.85 1450.39 1240.66 1450.39 Z" fill="#000000" fill-rule="nonzero" fill-opacity="1" /><path clip-path="url(#clip910)" d="M1260.83 1479.7 L1265.71 1479.7 L1265.71 1485.58 L1260.83 1485.58 L1260.83 1479.7 Z" fill="#000000" fill-rule="nonzero" fill-opacity="1" /><path clip-path="url(#clip910)" d="M1275.94 1451.02 L1294.3 1451.02 L1294.3 1454.96 L1280.22 1454.96 L1280.22 1463.43 Q1281.24 1463.08 1282.26 1462.92 Q1283.28 1462.73 1284.3 1462.73 Q1290.08 1462.73 1293.46 1465.9 Q1296.84 1469.08 1296.84 1474.49 Q1296.84 1480.07 1293.37 1483.17 Q1289.9 1486.25 1283.58 1486.25 Q1281.4 1486.25 1279.14 1485.88 Q1276.89 1485.51 1274.48 1484.77 L1274.48 1480.07 Q1276.57 1481.2 1278.79 1481.76 Q1281.01 1482.32 1283.49 1482.32 Q1287.49 1482.32 1289.83 1480.21 Q1292.17 1478.1 1292.17 1474.49 Q1292.17 1470.88 1289.83 1468.77 Q1287.49 1466.67 1283.49 1466.67 Q1281.61 1466.67 1279.74 1467.08 Q1277.89 1467.5 1275.94 1468.38 L1275.94 1451.02 Z" fill="#000000" fill-rule="nonzero" fill-opacity="1" /><path clip-path="url(#clip910)" d="M1316.06 1454.1 Q1312.45 1454.1 1310.62 1457.66 Q1308.81 1461.2 1308.81 1468.33 Q1308.81 1475.44 1310.62 1479.01 Q1312.45 1482.55 1316.06 1482.55 Q1319.69 1482.55 1321.5 1479.01 Q1323.32 1475.44 1323.32 1468.33 Q1323.32 1461.2 1321.5 1457.66 Q1319.69 1454.1 1316.06 1454.1 M1316.06 1450.39 Q1321.87 1450.39 1324.92 1455 Q1328 1459.58 1328 1468.33 Q1328 1477.06 1324.92 1481.67 Q1321.87 1486.25 1316.06 1486.25 Q1310.25 1486.25 1307.17 1481.67 Q1304.11 1477.06 1304.11 1468.33 Q1304.11 1459.58 1307.17 1455 Q1310.25 1450.39 1316.06 1450.39 Z" fill="#000000" fill-rule="nonzero" fill-opacity="1" /><path clip-path="url(#clip910)" d="M1747.95 1454.1 Q1744.34 1454.1 1742.51 1457.66 Q1740.71 1461.2 1740.71 1468.33 Q1740.71 1475.44 1742.51 1479.01 Q1744.34 1482.55 1747.95 1482.55 Q1751.59 1482.55 1753.39 1479.01 Q1755.22 1475.44 1755.22 1468.33 Q1755.22 1461.2 1753.39 1457.66 Q1751.59 1454.1 1747.95 1454.1 M1747.95 1450.39 Q1753.76 1450.39 1756.82 1455 Q1759.9 1459.58 1759.9 1468.33 Q1759.9 1477.06 1756.82 1481.67 Q1753.76 1486.25 1747.95 1486.25 Q1742.14 1486.25 1739.06 1481.67 Q1736.01 1477.06 1736.01 1468.33 Q1736.01 1459.58 1739.06 1455 Q1742.14 1450.39 1747.95 1450.39 Z" fill="#000000" fill-rule="nonzero" fill-opacity="1" /><path clip-path="url(#clip910)" d="M1768.11 1479.7 L1773 1479.7 L1773 1485.58 L1768.11 1485.58 L1768.11 1479.7 Z" fill="#000000" fill-rule="nonzero" fill-opacity="1" /><path clip-path="url(#clip910)" d="M1782 1451.02 L1804.22 1451.02 L1804.22 1453.01 L1791.68 1485.58 L1786.79 1485.58 L1798.6 1454.96 L1782 1454.96 L1782 1451.02 Z" fill="#000000" fill-rule="nonzero" fill-opacity="1" /><path clip-path="url(#clip910)" d="M1813.39 1451.02 L1831.75 1451.02 L1831.75 1454.96 L1817.67 1454.96 L1817.67 1463.43 Q1818.69 1463.08 1819.71 1462.92 Q1820.73 1462.73 1821.75 1462.73 Q1827.53 1462.73 1830.91 1465.9 Q1834.29 1469.08 1834.29 1474.49 Q1834.29 1480.07 1830.82 1483.17 Q1827.35 1486.25 1821.03 1486.25 Q1818.85 1486.25 1816.59 1485.88 Q1814.34 1485.51 1811.93 1484.77 L1811.93 1480.07 Q1814.02 1481.2 1816.24 1481.76 Q1818.46 1482.32 1820.94 1482.32 Q1824.94 1482.32 1827.28 1480.21 Q1829.62 1478.1 1829.62 1474.49 Q1829.62 1470.88 1827.28 1468.77 Q1824.94 1466.67 1820.94 1466.67 Q1819.06 1466.67 1817.19 1467.08 Q1815.34 1467.5 1813.39 1468.38 L1813.39 1451.02 Z" fill="#000000" fill-rule="nonzero" fill-opacity="1" /><path clip-path="url(#clip910)" d="M2244.01 1481.64 L2251.65 1481.64 L2251.65 1455.28 L2243.34 1456.95 L2243.34 1452.69 L2251.61 1451.02 L2256.28 1451.02 L2256.28 1481.64 L2263.92 1481.64 L2263.92 1485.58 L2244.01 1485.58 L2244.01 1481.64 Z" fill="#000000" fill-rule="nonzero" fill-opacity="1" /><path clip-path="url(#clip910)" d="M2273.36 1479.7 L2278.25 1479.7 L2278.25 1485.58 L2273.36 1485.58 L2273.36 1479.7 Z" fill="#000000" fill-rule="nonzero" fill-opacity="1" /><path clip-path="url(#clip910)" d="M2298.43 1454.1 Q2294.82 1454.1 2292.99 1457.66 Q2291.19 1461.2 2291.19 1468.33 Q2291.19 1475.44 2292.99 1479.01 Q2294.82 1482.55 2298.43 1482.55 Q2302.07 1482.55 2303.87 1479.01 Q2305.7 1475.44 2305.7 1468.33 Q2305.7 1461.2 2303.87 1457.66 Q2302.07 1454.1 2298.43 1454.1 M2298.43 1450.39 Q2304.24 1450.39 2307.3 1455 Q2310.38 1459.58 2310.38 1468.33 Q2310.38 1477.06 2307.3 1481.67 Q2304.24 1486.25 2298.43 1486.25 Q2292.62 1486.25 2289.55 1481.67 Q2286.49 1477.06 2286.49 1468.33 Q2286.49 1459.58 2289.55 1455 Q2292.62 1450.39 2298.43 1450.39 Z" fill="#000000" fill-rule="nonzero" fill-opacity="1" /><path clip-path="url(#clip910)" d="M2328.6 1454.1 Q2324.98 1454.1 2323.16 1457.66 Q2321.35 1461.2 2321.35 1468.33 Q2321.35 1475.44 2323.16 1479.01 Q2324.98 1482.55 2328.6 1482.55 Q2332.23 1482.55 2334.04 1479.01 Q2335.86 1475.44 2335.86 1468.33 Q2335.86 1461.2 2334.04 1457.66 Q2332.23 1454.1 2328.6 1454.1 M2328.6 1450.39 Q2334.41 1450.39 2337.46 1455 Q2340.54 1459.58 2340.54 1468.33 Q2340.54 1477.06 2337.46 1481.67 Q2334.41 1486.25 2328.6 1486.25 Q2322.79 1486.25 2319.71 1481.67 Q2316.65 1477.06 2316.65 1468.33 Q2316.65 1459.58 2319.71 1455 Q2322.79 1450.39 2328.6 1450.39 Z" fill="#000000" fill-rule="nonzero" fill-opacity="1" /><path clip-path="url(#clip910)" d="M1286.83 1531.91 Q1286.83 1532.81 1286.41 1533.04 Q1285.99 1533.23 1284.83 1533.23 L1278.65 1533.23 L1273.76 1552.69 Q1273.37 1554.39 1273.37 1555.84 Q1273.37 1557.45 1273.85 1558.16 Q1274.37 1558.87 1275.43 1558.87 Q1277.52 1558.87 1279.78 1556.97 Q1282.06 1555.07 1284 1550.43 Q1284.25 1549.82 1284.38 1549.69 Q1284.54 1549.53 1284.96 1549.53 Q1285.77 1549.53 1285.77 1550.17 Q1285.77 1550.4 1285.32 1551.43 Q1284.9 1552.46 1283.96 1553.97 Q1283.06 1555.49 1281.87 1556.9 Q1280.71 1558.32 1278.94 1559.35 Q1277.17 1560.35 1275.27 1560.35 Q1272.6 1560.35 1270.89 1558.64 Q1269.21 1556.94 1269.21 1554.26 Q1269.21 1553.39 1269.89 1550.62 Q1270.57 1547.82 1274.24 1533.23 L1268.41 1533.23 Q1267.6 1533.23 1267.28 1533.2 Q1266.99 1533.17 1266.77 1533.01 Q1266.57 1532.81 1266.57 1532.43 Q1266.57 1531.82 1266.83 1531.56 Q1267.09 1531.27 1267.41 1531.24 Q1267.76 1531.17 1268.57 1531.17 L1274.75 1531.17 L1277.33 1520.71 Q1277.59 1519.67 1278.23 1519.09 Q1278.91 1518.48 1279.29 1518.42 Q1279.68 1518.32 1279.97 1518.32 Q1280.84 1518.32 1281.36 1518.81 Q1281.87 1519.26 1281.87 1520.09 Q1281.87 1520.54 1279.17 1531.17 L1284.96 1531.17 Q1285.7 1531.17 1285.99 1531.2 Q1286.32 1531.24 1286.57 1531.4 Q1286.83 1531.56 1286.83 1531.91 Z" fill="#000000" fill-rule="nonzero" fill-opacity="1" /><polyline clip-path="url(#clip910)" style="stroke:#000000; stroke-linecap:round; stroke-linejoin:round; stroke-width:4; stroke-opacity:1; fill:none" points="203.964,1423.18 203.964,47.2441 "/>
<polyline clip-path="url(#clip910)" style="stroke:#000000; stroke-linecap:round; stroke-linejoin:round; stroke-width:4; stroke-opacity:1; fill:none" points="203.964,1203.09 222.861,1203.09 "/>
<polyline clip-path="url(#clip910)" style="stroke:#000000; stroke-linecap:round; stroke-linejoin:round; stroke-width:4; stroke-opacity:1; fill:none" points="203.964,870.963 222.861,870.963 "/>
<polyline clip-path="url(#clip910)" style="stroke:#000000; stroke-linecap:round; stroke-linejoin:round; stroke-width:4; stroke-opacity:1; fill:none" points="203.964,538.842 222.861,538.842 "/>
<polyline clip-path="url(#clip910)" style="stroke:#000000; stroke-linecap:round; stroke-linejoin:round; stroke-width:4; stroke-opacity:1; fill:none" points="203.964,206.72 222.861,206.72 "/>
<path clip-path="url(#clip910)" d="M116.668 1216.43 L124.306 1216.43 L124.306 1190.06 L115.996 1191.73 L115.996 1187.47 L124.26 1185.81 L128.936 1185.81 L128.936 1216.43 L136.575 1216.43 L136.575 1220.37 L116.668 1220.37 L116.668 1216.43 Z" fill="#000000" fill-rule="nonzero" fill-opacity="1" /><path clip-path="url(#clip910)" d="M156.019 1188.88 Q152.408 1188.88 150.579 1192.45 Q148.774 1195.99 148.774 1203.12 Q148.774 1210.23 150.579 1213.79 Q152.408 1217.33 156.019 1217.33 Q159.653 1217.33 161.459 1213.79 Q163.288 1210.23 163.288 1203.12 Q163.288 1195.99 161.459 1192.45 Q159.653 1188.88 156.019 1188.88 M156.019 1185.18 Q161.829 1185.18 164.885 1189.79 Q167.964 1194.37 167.964 1203.12 Q167.964 1211.85 164.885 1216.45 Q161.829 1221.04 156.019 1221.04 Q150.209 1221.04 147.13 1216.45 Q144.075 1211.85 144.075 1203.12 Q144.075 1194.37 147.13 1189.79 Q150.209 1185.18 156.019 1185.18 Z" fill="#000000" fill-rule="nonzero" fill-opacity="1" /><path clip-path="url(#clip910)" d="M117.663 884.308 L125.302 884.308 L125.302 857.943 L116.992 859.609 L116.992 855.35 L125.255 853.683 L129.931 853.683 L129.931 884.308 L137.57 884.308 L137.57 888.243 L117.663 888.243 L117.663 884.308 Z" fill="#000000" fill-rule="nonzero" fill-opacity="1" /><path clip-path="url(#clip910)" d="M147.061 853.683 L165.417 853.683 L165.417 857.619 L151.343 857.619 L151.343 866.091 Q152.362 865.744 153.38 865.582 Q154.399 865.396 155.417 865.396 Q161.204 865.396 164.584 868.568 Q167.964 871.739 167.964 877.156 Q167.964 882.734 164.491 885.836 Q161.019 888.915 154.7 888.915 Q152.524 888.915 150.255 888.544 Q148.01 888.174 145.603 887.433 L145.603 882.734 Q147.686 883.868 149.908 884.424 Q152.13 884.98 154.607 884.98 Q158.612 884.98 160.95 882.873 Q163.288 880.767 163.288 877.156 Q163.288 873.544 160.95 871.438 Q158.612 869.332 154.607 869.332 Q152.732 869.332 150.857 869.748 Q149.005 870.165 147.061 871.044 L147.061 853.683 Z" fill="#000000" fill-rule="nonzero" fill-opacity="1" /><path clip-path="url(#clip910)" d="M119.885 552.187 L136.204 552.187 L136.204 556.122 L114.26 556.122 L114.26 552.187 Q116.922 549.432 121.505 544.802 Q126.112 540.15 127.292 538.807 Q129.538 536.284 130.417 534.548 Q131.32 532.789 131.32 531.099 Q131.32 528.344 129.376 526.608 Q127.455 524.872 124.353 524.872 Q122.154 524.872 119.7 525.636 Q117.269 526.4 114.492 527.951 L114.492 523.228 Q117.316 522.094 119.769 521.516 Q122.223 520.937 124.26 520.937 Q129.63 520.937 132.825 523.622 Q136.019 526.307 136.019 530.798 Q136.019 532.927 135.209 534.849 Q134.422 536.747 132.316 539.339 Q131.737 540.011 128.635 543.228 Q125.533 546.423 119.885 552.187 Z" fill="#000000" fill-rule="nonzero" fill-opacity="1" /><path clip-path="url(#clip910)" d="M156.019 524.64 Q152.408 524.64 150.579 528.205 Q148.774 531.747 148.774 538.877 Q148.774 545.983 150.579 549.548 Q152.408 553.089 156.019 553.089 Q159.653 553.089 161.459 549.548 Q163.288 545.983 163.288 538.877 Q163.288 531.747 161.459 528.205 Q159.653 524.64 156.019 524.64 M156.019 520.937 Q161.829 520.937 164.885 525.543 Q167.964 530.127 167.964 538.877 Q167.964 547.603 164.885 552.21 Q161.829 556.793 156.019 556.793 Q150.209 556.793 147.13 552.21 Q144.075 547.603 144.075 538.877 Q144.075 530.127 147.13 525.543 Q150.209 520.937 156.019 520.937 Z" fill="#000000" fill-rule="nonzero" fill-opacity="1" /><path clip-path="url(#clip910)" d="M120.88 220.065 L137.2 220.065 L137.2 224 L115.256 224 L115.256 220.065 Q117.918 217.31 122.501 212.681 Q127.107 208.028 128.288 206.685 Q130.533 204.162 131.413 202.426 Q132.316 200.667 132.316 198.977 Q132.316 196.223 130.371 194.486 Q128.45 192.75 125.348 192.75 Q123.149 192.75 120.695 193.514 Q118.265 194.278 115.487 195.829 L115.487 191.107 Q118.311 189.973 120.765 189.394 Q123.218 188.815 125.255 188.815 Q130.626 188.815 133.82 191.5 Q137.015 194.186 137.015 198.676 Q137.015 200.806 136.204 202.727 Q135.417 204.625 133.311 207.218 Q132.732 207.889 129.63 211.107 Q126.529 214.301 120.88 220.065 Z" fill="#000000" fill-rule="nonzero" fill-opacity="1" /><path clip-path="url(#clip910)" d="M147.061 189.44 L165.417 189.44 L165.417 193.375 L151.343 193.375 L151.343 201.848 Q152.362 201.5 153.38 201.338 Q154.399 201.153 155.417 201.153 Q161.204 201.153 164.584 204.324 Q167.964 207.496 167.964 212.912 Q167.964 218.491 164.491 221.593 Q161.019 224.671 154.7 224.671 Q152.524 224.671 150.255 224.301 Q148.01 223.931 145.603 223.19 L145.603 218.491 Q147.686 219.625 149.908 220.181 Q152.13 220.736 154.607 220.736 Q158.612 220.736 160.95 218.63 Q163.288 216.523 163.288 212.912 Q163.288 209.301 160.95 207.195 Q158.612 205.088 154.607 205.088 Q152.732 205.088 150.857 205.505 Q149.005 205.922 147.061 206.801 L147.061 189.44 Z" fill="#000000" fill-rule="nonzero" fill-opacity="1" /><path clip-path="url(#clip910)" d="M30.8561 720.775 Q31.307 720.775 32.3698 721.064 L57.5548 727.377 Q63.1586 728.762 67.0877 733.27 Q71.0168 737.747 71.0168 742.836 Q71.0168 745.895 69.3743 747.86 Q67.764 749.824 65.2842 749.824 Q63.0942 749.824 62.0314 748.665 Q61.0008 747.505 61.0008 746.121 Q61.0008 745.67 61.1296 745.187 Q61.2584 744.703 61.8059 744.188 Q62.3534 743.673 63.2874 743.673 Q64.8011 743.673 65.9927 744.993 Q66.5402 745.637 66.669 746.249 Q66.7978 746.829 66.7978 747.827 Q67.6996 747.441 68.3115 746.732 Q68.9234 746.024 69.1489 745.219 Q69.4065 744.414 69.4709 743.898 Q69.5675 743.351 69.5675 742.836 Q69.5675 738.713 65.413 735.557 Q64.157 734.623 62.9009 733.947 Q61.6771 733.238 60.1634 732.723 Q58.682 732.208 57.8768 731.982 Q57.0717 731.725 55.2359 731.274 Q58.2311 734.269 58.2311 737.94 Q58.2311 739.486 57.8124 740.871 Q57.3937 742.224 56.5242 743.415 Q55.6224 744.607 54.0443 745.315 Q52.4662 745.992 50.3728 745.992 Q48.1506 745.992 45.1233 745.122 Q42.0959 744.253 36.5243 742.159 Q33.4004 741.032 31.8867 741.032 Q31.146 741.032 30.6951 741.193 Q30.212 741.354 30.051 741.676 Q29.8577 741.998 29.8255 742.191 Q29.7933 742.352 29.7933 742.675 Q29.7933 744.575 31.7257 746.346 Q33.658 748.117 37.9736 749.341 Q38.7787 749.599 38.972 749.76 Q39.1652 749.921 39.1652 750.404 Q39.133 751.209 38.4889 751.209 Q38.2312 751.209 37.2329 750.919 Q36.2023 750.629 34.6886 749.953 Q33.1427 749.245 31.7579 748.278 Q30.3408 747.312 29.3424 745.798 Q28.344 744.253 28.344 742.481 Q28.344 740.066 29.9221 738.584 Q31.468 737.071 33.7546 737.071 Q34.6886 737.071 35.5259 737.328 Q36.3311 737.554 38.4889 738.391 Q47.1845 741.773 51.4356 741.773 Q52.4662 741.773 53.3358 741.612 Q54.1731 741.418 55.0105 741 Q55.8156 740.581 56.2987 739.744 Q56.7496 738.874 56.7496 737.683 Q56.7496 736.169 56.0411 734.752 Q55.3003 733.303 54.302 732.401 Q53.3036 731.467 52.4662 730.919 Q51.5967 730.34 51.1458 730.211 L39.294 727.248 L34.0123 725.927 Q31.146 725.316 30.4374 725.026 Q29.7611 724.639 29.4068 723.963 Q29.0526 723.287 29.0526 722.707 Q29.0526 721.902 29.5357 721.354 Q30.0187 720.775 30.8561 720.775 Z" fill="#000000" fill-rule="nonzero" fill-opacity="1" /><polyline clip-path="url(#clip912)" style="stroke:#ff7e0d; stroke-linecap:round; stroke-linejoin:round; stroke-width:8; stroke-opacity:1; fill:none" stroke-dasharray="32, 20" points="264.778,1258.88 268.738,1256.14 272.697,1256.02 276.656,1253.41 280.616,1252.44 284.575,1253.25 288.534,1252.83 292.494,1253.73 296.453,1254.53 300.412,1254.8 304.371,1254.1 308.331,1253.76 312.29,1254.3 316.249,1253.27 320.209,1253.91 324.168,1256.26 328.127,1256.56 332.087,1256.46 336.046,1256.97 340.005,1257.57 343.964,1257.19 347.924,1257.29 351.883,1259 355.842,1261.48 359.802,1261.73 363.761,1263.37 367.72,1262.9 371.68,1263.79 375.639,1264.85 379.598,1266.77 383.558,1268.5 387.517,1269.9 391.476,1271.34 395.435,1273.2 399.395,1273.65 403.354,1274.26 407.313,1275.91 411.273,1277.05 415.232,1278.57 419.191,1278.22 423.151,1279.03 427.11,1280.41 431.069,1282.18 435.028,1285.49 438.988,1287.45 442.947,1289.55 446.906,1291.08 450.866,1293.23 454.825,1294.35 458.784,1294.58 462.744,1296.43 466.703,1297.17 470.662,1297.88 474.621,1299.96 478.581,1300.35 482.54,1301.92 486.499,1303.76 490.459,1306.23 494.418,1308.32 498.377,1310.69 502.337,1312.86 506.296,1314.84 510.255,1316.78 514.214,1317.92 518.174,1318.2 522.133,1246.06 526.092,1248.88 530.052,1251.21 534.011,1252.61 537.97,1254.33 541.93,1257.24 545.889,1260.58 549.848,1262.56 553.807,1265.02 557.767,1267.98 561.726,1271.02 565.685,1271.56 569.645,1273.78 573.604,1277.21 577.563,1280.12 581.523,1278.95 585.482,1279.3 589.441,1283.16 593.401,1291.01 597.36,1294.99 601.319,1300.22 605.278,1300.47 609.238,1303.57 613.197,1307.55 617.156,1318.52 621.116,1327.5 625.075,1329.04 629.034,1327.81 632.994,1333.79 636.953,1334.95 640.912,1338.15 644.871,1339.7 648.831,1343.99 652.79,1345.86 656.749,1350.54 660.709,1356.91 664.668,1360.22 668.627,1362.28 672.587,1366.15 676.546,1367.45 680.505,1369.5 684.464,1373.49 688.424,1375.62 692.383,1375.92 696.342,1377.23 700.302,1376.35 704.261,1378.12 708.22,1379.26 712.18,1381.4 716.139,1382.16 720.098,1381.65 724.057,1384.24 728.017,450.542 731.976,453.194 735.935,453.222 739.895,452.072 743.854,448.98 747.813,449.726 751.773,451.351 755.732,454.202 759.691,456.106 763.65,456.684 767.61,456.49 771.569,455.111 775.528,454.277 779.488,453.545 783.447,451.918 787.406,454.319 791.366,456.014 795.325,455.071 799.284,453.584 803.244,456.481 807.203,458.071 811.162,460.555 815.121,459.767 819.081,461.912 823.04,460.265 826.999,460.704 830.959,462.995 834.918,465.74 838.877,466.575 842.837,468.252 846.796,470.001 850.755,470.223 854.714,466.583 858.674,463.762 862.633,462.739 866.592,463.272 870.552,465.301 874.511,460.026 878.47,457.035 882.43,454.042 886.389,453.968 890.348,459.126 894.307,460.253 898.267,463.64 902.226,469.087 906.185,470.842 910.145,472.292 914.104,474.093 918.063,473.968 922.023,480.263 925.982,486.161 929.941,489.325 933.9,491.168 937.86,490.601 941.819,488.902 945.778,489.89 949.738,491.408 953.697,491.627 957.656,494.515 961.616,496.586 965.575,499.673 969.534,502.794 973.493,505.662 977.453,505.326 981.412,506.132 985.371,505.777 989.331,507.551 993.29,508.581 997.249,505.968 1001.21,504.384 1005.17,503.244 1009.13,499.72 1013.09,493.348 1017.05,500.867 1021.01,501.091 1024.96,496.094 1028.92,501.33 1032.88,505.22 1036.84,504.159 1040.8,495.594 1044.76,495.977 1048.72,498.663 1052.68,500.774 1056.64,502.076 1060.6,501.648 1064.56,499.074 1068.52,507.724 1072.48,499.093 1076.44,499.873 1080.39,499.688 1084.35,502.93 1088.31,507.095 1092.27,505.507 1096.23,508.519 1100.19,505.923 1104.15,509.57 1108.11,455.379 1112.07,340.451 1116.03,337.529 1119.99,338.067 1123.95,338.392 1127.91,342.092 1131.87,340.474 1135.82,350.225 1139.78,356.106 1143.74,355.213 1147.7,353.407 1151.66,355.504 1155.62,355.108 1159.58,352.877 1163.54,354.428 1167.5,357.7 1171.46,354.371 1175.42,351.503 1179.38,348.67 1183.34,351.236 1187.3,347.962 1191.26,348.623 1195.21,341.686 1199.17,332.479 1203.13,332.866 1207.09,330.814 1211.05,327.66 1215.01,330.004 1218.97,330.674 1222.93,325.721 1226.89,331.573 1230.85,333.451 1234.81,339.28 1238.77,344.841 1242.73,339.297 1246.69,339.358 1250.64,343.41 1254.6,344.297 1258.56,349.706 1262.52,350.213 1266.48,355.048 1270.44,358.139 1274.4,360.674 1278.36,358.166 1282.32,363.065 1286.28,365.045 1290.24,365.029 1294.2,356.303 1298.16,360.442 1302.12,355.398 1306.07,363.909 1310.03,362.349 1313.99,366.457 1317.95,371.03 1321.91,382.954 1325.87,388.556 1329.83,387.779 1333.79,385.604 1337.75,388.628 1341.71,390.574 1345.67,391.578 1349.63,389.417 1353.59,390.228 1357.55,394.384 1361.51,394.001 1365.46,396.456 1369.42,391.46 1373.38,393.384 1377.34,397.004 1381.3,395.162 1385.26,398.319 1389.22,402.492 1393.18,399.251 1397.14,398.331 1401.1,398.518 1405.06,398.456 1409.02,403.481 1412.98,375.625 1416.94,376.209 1420.89,376.895 1424.85,375.558 1428.81,377.344 1432.77,378.16 1436.73,379.107 1440.69,377.425 1444.65,383.423 1448.61,386.788 1452.57,387.763 1456.53,385.946 1460.49,385.743 1464.45,385.227 1468.41,388.13 1472.37,389.568 1476.32,390.78 1480.28,389.513 1484.24,389.875 1488.2,391.357 1492.16,390.528 1496.12,391.117 1500.08,392.44 1504.04,391.265 1508,389.881 1511.96,390.837 1515.92,390.274 1519.88,390.755 1523.84,390.449 1527.8,391.469 1531.76,392.087 1535.71,391.947 1539.67,391.994 1543.63,393.623 1547.59,393.321 1551.55,393.354 1555.51,393.199 1559.47,392.93 1563.43,393.237 1567.39,394.096 1571.35,394.076 1575.31,390.133 1579.27,388.67 1583.23,389.539 1587.19,389.111 1591.14,391.439 1595.1,391.992 1599.06,392.313 1603.02,389.949 1606.98,390.104 1610.94,389.162 1614.9,390.37 1618.86,387.323 1622.82,388.013 1626.78,388.563 1630.74,387.484 1634.7,386.909 1638.66,386.311 1642.62,388.101 1646.57,384.733 1650.53,384.388 1654.49,385.909 1658.45,384.456 1662.41,381.677 1666.37,381.101 1670.33,379.735 1674.29,381.349 1678.25,384.645 1682.21,385.795 1686.17,382.576 1690.13,385.172 1694.09,386.64 1698.05,387.034 1702.01,384.424 1705.96,381.195 1709.92,377.136 1713.88,381.834 1717.84,381.533 1721.8,379.57 1725.76,378.834 1729.72,385.766 1733.68,388.801 1737.64,390.252 1741.6,388.22 1745.56,390.618 1749.52,392.677 1753.48,390.102 1757.44,390.339 1761.39,388.119 1765.35,385.964 1769.31,386.385 1773.27,387.322 1777.23,389.392 1781.19,389.315 1785.15,391.619 1789.11,389.205 1793.07,386.994 1797.03,388.89 1800.99,390.302 1804.95,387.534 1808.91,389.751 1812.87,388.902 1816.82,393.102 1820.78,402.001 1824.74,402.626 1828.7,405.342 1832.66,405.157 1836.62,404.324 1840.58,403.163 1844.54,398.617 1848.5,401.908 1852.46,401.555 1856.42,398.736 1860.38,398.884 1864.34,398.886 1868.3,397.778 1872.26,394.434 1876.21,397.911 1880.17,396.423 1884.13,397.13 1888.09,397.161 1892.05,393.351 1896.01,395.669 1899.97,397.471 1903.93,394.694 1907.89,390.268 1911.85,386.084 1915.81,385.417 1919.77,381.045 1923.73,381.393 1927.69,386.973 1931.64,386.852 1935.6,383.867 1939.56,384.217 1943.52,381.963 1947.48,377.876 1951.44,374.301 1955.4,376.291 1959.36,128.326 1963.32,120.694 1967.28,127.754 1971.24,126.206 1975.2,127.504 1979.16,131.958 1983.12,137.607 1987.07,136.276 1991.03,132.702 1994.99,131.653 1998.95,132.101 2002.91,129.868 2006.87,124.717 2010.83,126.037 2014.79,124.791 2018.75,116.259 2022.71,116.03 2026.67,121.573 2030.63,123.382 2034.59,118.311 2038.55,115.448 2042.51,119.23 2046.46,109.822 2050.42,110.711 2054.38,112.841 2058.34,114.341 2062.3,114.157 2066.26,110.108 2070.22,113.437 2074.18,107.697 2078.14,107.706 2082.1,113.565 2086.06,113.386 2090.02,105.795 2093.98,94.2293 2097.94,101.461 2101.89,103.653 2105.85,100.548 2109.81,100.736 2113.77,98.0406 2117.73,96.5776 2121.69,98.6144 2125.65,104.858 2129.61,103.058 2133.57,103.516 2137.53,96.217 2141.49,94.5228 2145.45,93.74 2149.41,98.9232 2153.37,98.1462 2157.32,109.153 2161.28,108.989 2165.24,114.772 2169.2,111.984 2173.16,109.134 2177.12,115.967 2181.08,127.378 2185.04,128.15 2189,124.957 2192.96,122.942 2196.92,123.324 2200.88,123.873 2204.84,126.727 2208.8,125.759 2212.75,120.999 2216.71,121.811 2220.67,117.157 2224.63,118.07 2228.59,113.934 2232.55,115.443 2236.51,113.344 2240.47,109.844 2244.43,114.936 2248.39,113.917 2252.35,111.146 2256.31,113.44 2260.27,110.123 2264.23,104.559 2268.19,113.625 2272.14,112.594 2276.1,112.685 2280.06,100.623 2284.02,94.0992 2287.98,90.0899 2291.94,86.1857 "/>
<path clip-path="url(#clip910)" d="M275.59 214.773 L665.148 214.773 L665.148 93.1086 L275.59 93.1086  Z" fill="#ffffff" fill-rule="evenodd" fill-opacity="1"/>
<polyline clip-path="url(#clip910)" style="stroke:#000000; stroke-linecap:round; stroke-linejoin:round; stroke-width:4; stroke-opacity:1; fill:none" points="275.59,214.773 665.148,214.773 665.148,93.1086 275.59,93.1086 275.59,214.773 "/>
<polyline clip-path="url(#clip910)" style="stroke:#ff7e0d; stroke-linecap:round; stroke-linejoin:round; stroke-width:8; stroke-opacity:1; fill:none" stroke-dasharray="32, 20" points="299.465,153.941 442.718,153.941 "/>
<path clip-path="url(#clip910)" d="M466.594 183.1 L466.594 140.391 Q466.594 138.689 467.512 138.689 Q468.43 138.689 468.43 140.055 L468.43 182.764 Q468.43 184.466 467.512 184.466 Q466.594 184.466 466.594 183.1 Z" fill="#000000" fill-rule="nonzero" fill-opacity="1" /><path clip-path="url(#clip910)" d="M490.643 183.097 L490.643 140.402 Q490.643 138.7 491.561 138.7 Q492.479 138.7 492.479 140.066 L492.479 182.761 Q492.479 184.462 491.561 184.462 Q490.643 184.462 490.643 183.097 Z" fill="#000000" fill-rule="nonzero" fill-opacity="1" /><path clip-path="url(#clip910)" d="M549.562 139.314 Q549.562 139.618 549.492 139.806 Q549.445 139.993 549.258 140.087 Q549.094 140.157 548.977 140.181 Q548.883 140.204 548.602 140.227 Q547.454 140.321 546.494 140.626 Q545.534 140.907 544.714 141.469 Q543.917 142.031 543.472 142.406 Q543.051 142.78 542.301 143.53 L541.645 144.209 L529.747 157.864 Q529.325 158.333 529.068 159.364 L527.381 166.133 Q526.725 168.943 526.725 169.154 Q526.725 169.576 526.96 169.716 Q527.217 169.833 528.014 169.904 L529.841 170.021 Q530.918 170.021 531.082 170.208 Q531.176 170.325 531.176 170.536 Q531.176 170.981 530.988 171.215 Q530.824 171.426 530.66 171.473 Q530.52 171.496 530.262 171.496 L524.125 171.356 L518.082 171.496 Q517.403 171.496 517.403 170.958 Q517.403 170.606 517.45 170.419 Q517.52 170.208 517.731 170.138 Q517.942 170.044 518.106 170.044 Q518.27 170.021 518.715 170.021 Q519.792 169.997 520.331 169.997 Q520.893 169.974 521.432 169.833 Q521.971 169.693 522.158 169.599 Q522.369 169.482 522.603 169.084 Q522.861 168.662 522.931 168.334 Q523.025 168.006 523.212 167.187 Q523.399 166.461 524.383 162.502 Q525.367 158.544 525.367 158.45 Q525.367 158.192 525.179 157.63 L519.277 141.844 Q519.019 141.141 518.809 140.86 Q518.598 140.579 517.895 140.415 Q517.192 140.227 515.787 140.227 Q515.389 140.227 515.201 140.204 Q515.014 140.181 514.85 140.063 Q514.686 139.946 514.686 139.689 Q514.686 139.244 514.874 139.033 Q515.061 138.799 515.201 138.775 Q515.365 138.728 515.6 138.728 Q516.185 138.728 518.27 138.799 Q520.354 138.869 520.963 138.869 L527.006 138.728 Q527.732 138.728 527.732 139.267 Q527.732 139.923 527.475 140.087 Q527.217 140.227 526.585 140.227 Q523.751 140.227 523.751 141.375 Q523.751 141.516 524.032 142.195 L529.302 156.436 L540.427 143.624 L540.591 143.436 Q540.732 143.249 540.849 143.108 Q540.966 142.968 541.154 142.71 Q541.341 142.453 541.435 142.242 Q541.552 142.031 541.645 141.773 Q541.739 141.516 541.739 141.328 Q541.739 140.977 541.528 140.743 Q541.317 140.485 540.99 140.391 Q540.662 140.298 540.427 140.274 Q540.193 140.227 540.006 140.227 Q539.28 140.227 539.28 139.642 Q539.28 139.22 539.467 139.009 Q539.655 138.775 539.795 138.752 Q539.959 138.728 540.193 138.728 Q540.966 138.728 542.582 138.799 Q544.198 138.869 544.995 138.869 Q545.651 138.869 546.986 138.799 Q548.321 138.728 548.93 138.728 Q549.562 138.728 549.562 139.314 Z" fill="#000000" fill-rule="nonzero" fill-opacity="1" /><path clip-path="url(#clip910)" d="M564.65 169.884 Q564.65 170.344 564.437 170.458 Q564.224 170.557 563.634 170.557 L560.486 170.557 L557.994 180.46 Q557.797 181.329 557.797 182.066 Q557.797 182.886 558.043 183.247 Q558.305 183.608 558.846 183.608 Q559.912 183.608 561.06 182.64 Q562.224 181.673 563.208 179.312 Q563.339 179 563.404 178.935 Q563.486 178.853 563.699 178.853 Q564.109 178.853 564.109 179.181 Q564.109 179.296 563.88 179.82 Q563.667 180.345 563.191 181.116 Q562.732 181.886 562.125 182.608 Q561.535 183.329 560.633 183.854 Q559.732 184.362 558.764 184.362 Q557.403 184.362 556.534 183.493 Q555.682 182.624 555.682 181.263 Q555.682 180.82 556.026 179.41 Q556.37 177.984 558.24 170.557 L555.272 170.557 Q554.862 170.557 554.698 170.54 Q554.551 170.524 554.436 170.442 Q554.337 170.344 554.337 170.147 Q554.337 169.835 554.469 169.704 Q554.6 169.557 554.764 169.54 Q554.944 169.507 555.354 169.507 L558.502 169.507 L559.814 164.179 Q559.945 163.654 560.273 163.359 Q560.617 163.047 560.814 163.015 Q561.01 162.965 561.158 162.965 Q561.601 162.965 561.863 163.211 Q562.125 163.441 562.125 163.867 Q562.125 164.097 560.748 169.507 L563.699 169.507 Q564.076 169.507 564.224 169.524 Q564.388 169.54 564.519 169.622 Q564.65 169.704 564.65 169.884 Z" fill="#000000" fill-rule="nonzero" fill-opacity="1" /><path clip-path="url(#clip910)" d="M574.782 183.097 L574.782 140.402 Q574.782 138.7 575.7 138.7 Q576.618 138.7 576.618 140.066 L576.618 182.761 Q576.618 184.462 575.7 184.462 Q574.782 184.462 574.782 183.097 Z" fill="#000000" fill-rule="nonzero" fill-opacity="1" /><path clip-path="url(#clip910)" d="M598.825 183.1 L598.825 140.391 Q598.825 138.689 599.743 138.689 Q600.662 138.689 600.662 140.055 L600.662 182.764 Q600.662 184.466 599.743 184.466 Q598.825 184.466 598.825 183.1 Z" fill="#000000" fill-rule="nonzero" fill-opacity="1" /><path clip-path="url(#clip910)" d="M622.875 145.673 Q622.875 145.066 622.924 144.886 Q622.989 144.706 623.252 144.427 L629.695 137.246 Q633.22 133.278 633.22 129.818 Q633.22 127.572 632.04 125.965 Q630.876 124.359 628.728 124.359 Q627.252 124.359 626.006 125.26 Q624.76 126.162 624.186 127.769 Q624.285 127.736 624.629 127.736 Q625.465 127.736 625.924 128.261 Q626.4 128.785 626.4 129.491 Q626.4 130.392 625.809 130.835 Q625.236 131.261 624.662 131.261 Q624.432 131.261 624.121 131.212 Q623.826 131.163 623.35 130.704 Q622.875 130.228 622.875 129.392 Q622.875 127.048 624.645 125.178 Q626.432 123.309 629.154 123.309 Q632.237 123.309 634.253 125.146 Q636.286 126.966 636.286 129.818 Q636.286 130.819 635.975 131.737 Q635.68 132.638 635.27 133.343 Q634.876 134.049 633.794 135.18 Q632.712 136.311 631.843 137.115 Q630.974 137.918 629.023 139.623 L625.465 143.083 L631.515 143.083 Q634.466 143.083 634.696 142.82 Q635.024 142.345 635.434 139.836 L636.286 139.836 L635.335 145.673 L622.875 145.673 Z" fill="#000000" fill-rule="nonzero" fill-opacity="1" /></svg>
