<?xml version="1.0" encoding="utf-8"?>
<svg xmlns="http://www.w3.org/2000/svg" xmlns:xlink="http://www.w3.org/1999/xlink" width="600" height="400" viewBox="0 0 2400 1600">
<defs>
  <clipPath id="clip260">
    <rect x="0" y="0" width="2400" height="1600"/>
  </clipPath>
</defs>
<path clip-path="url(#clip260)" d="M0 1600 L2400 1600 L2400 0 L0 0  Z" fill="#ffffff" fill-rule="evenodd" fill-opacity="1"/>
<defs>
  <clipPath id="clip261">
    <rect x="480" y="0" width="1681" height="1600"/>
  </clipPath>
</defs>
<path clip-path="url(#clip260)" d="M278.214 1394.04 L2352.76 1394.04 L2352.76 47.2441 L278.214 47.2441  Z" fill="#ffffff" fill-rule="evenodd" fill-opacity="1"/>
<defs>
  <clipPath id="clip262">
    <rect x="278" y="47" width="2076" height="1348"/>
  </clipPath>
</defs>
<polyline clip-path="url(#clip262)" style="stroke:#000000; stroke-linecap:round; stroke-linejoin:round; stroke-width:2; stroke-opacity:0.1; fill:none" points="336.928,1394.04 336.928,47.2441 "/>
<polyline clip-path="url(#clip262)" style="stroke:#000000; stroke-linecap:round; stroke-linejoin:round; stroke-width:2; stroke-opacity:0.1; fill:none" points="554.385,1394.04 554.385,47.2441 "/>
<polyline clip-path="url(#clip262)" style="stroke:#000000; stroke-linecap:round; stroke-linejoin:round; stroke-width:2; stroke-opacity:0.1; fill:none" points="771.842,1394.04 771.842,47.2441 "/>
<polyline clip-path="url(#clip262)" style="stroke:#000000; stroke-linecap:round; stroke-linejoin:round; stroke-width:2; stroke-opacity:0.1; fill:none" points="989.299,1394.04 989.299,47.2441 "/>
<polyline clip-path="url(#clip262)" style="stroke:#000000; stroke-linecap:round; stroke-linejoin:round; stroke-width:2; stroke-opacity:0.1; fill:none" points="1206.76,1394.04 1206.76,47.2441 "/>
<polyline clip-path="url(#clip262)" style="stroke:#000000; stroke-linecap:round; stroke-linejoin:round; stroke-width:2; stroke-opacity:0.1; fill:none" points="1424.21,1394.04 1424.21,47.2441 "/>
<polyline clip-path="url(#clip262)" style="stroke:#000000; stroke-linecap:round; stroke-linejoin:round; stroke-width:2; stroke-opacity:0.1; fill:none" points="1641.67,1394.04 1641.67,47.2441 "/>
<polyline clip-path="url(#clip262)" style="stroke:#000000; stroke-linecap:round; stroke-linejoin:round; stroke-width:2; stroke-opacity:0.1; fill:none" points="1859.13,1394.04 1859.13,47.2441 "/>
<polyline clip-path="url(#clip262)" style="stroke:#000000; stroke-linecap:round; stroke-linejoin:round; stroke-width:2; stroke-opacity:0.1; fill:none" points="2076.59,1394.04 2076.59,47.2441 "/>
<polyline clip-path="url(#clip262)" style="stroke:#000000; stroke-linecap:round; stroke-linejoin:round; stroke-width:2; stroke-opacity:0.1; fill:none" points="2294.04,1394.04 2294.04,47.2441 "/>
<polyline clip-path="url(#clip262)" style="stroke:#000000; stroke-linecap:round; stroke-linejoin:round; stroke-width:2; stroke-opacity:0.1; fill:none" points="278.214,1309.86 2352.76,1309.86 "/>
<polyline clip-path="url(#clip262)" style="stroke:#000000; stroke-linecap:round; stroke-linejoin:round; stroke-width:2; stroke-opacity:0.1; fill:none" points="278.214,1057.34 2352.76,1057.34 "/>
<polyline clip-path="url(#clip262)" style="stroke:#000000; stroke-linecap:round; stroke-linejoin:round; stroke-width:2; stroke-opacity:0.1; fill:none" points="278.214,804.814 2352.76,804.814 "/>
<polyline clip-path="url(#clip262)" style="stroke:#000000; stroke-linecap:round; stroke-linejoin:round; stroke-width:2; stroke-opacity:0.1; fill:none" points="278.214,552.291 2352.76,552.291 "/>
<polyline clip-path="url(#clip262)" style="stroke:#000000; stroke-linecap:round; stroke-linejoin:round; stroke-width:2; stroke-opacity:0.1; fill:none" points="278.214,299.767 2352.76,299.767 "/>
<polyline clip-path="url(#clip260)" style="stroke:#000000; stroke-linecap:round; stroke-linejoin:round; stroke-width:4; stroke-opacity:1; fill:none" points="278.214,1394.04 2352.76,1394.04 "/>
<polyline clip-path="url(#clip260)" style="stroke:#000000; stroke-linecap:round; stroke-linejoin:round; stroke-width:4; stroke-opacity:1; fill:none" points="336.928,1394.04 336.928,1375.14 "/>
<polyline clip-path="url(#clip260)" style="stroke:#000000; stroke-linecap:round; stroke-linejoin:round; stroke-width:4; stroke-opacity:1; fill:none" points="554.385,1394.04 554.385,1375.14 "/>
<polyline clip-path="url(#clip260)" style="stroke:#000000; stroke-linecap:round; stroke-linejoin:round; stroke-width:4; stroke-opacity:1; fill:none" points="771.842,1394.04 771.842,1375.14 "/>
<polyline clip-path="url(#clip260)" style="stroke:#000000; stroke-linecap:round; stroke-linejoin:round; stroke-width:4; stroke-opacity:1; fill:none" points="989.299,1394.04 989.299,1375.14 "/>
<polyline clip-path="url(#clip260)" style="stroke:#000000; stroke-linecap:round; stroke-linejoin:round; stroke-width:4; stroke-opacity:1; fill:none" points="1206.76,1394.04 1206.76,1375.14 "/>
<polyline clip-path="url(#clip260)" style="stroke:#000000; stroke-linecap:round; stroke-linejoin:round; stroke-width:4; stroke-opacity:1; fill:none" points="1424.21,1394.04 1424.21,1375.14 "/>
<polyline clip-path="url(#clip260)" style="stroke:#000000; stroke-linecap:round; stroke-linejoin:round; stroke-width:4; stroke-opacity:1; fill:none" points="1641.67,1394.04 1641.67,1375.14 "/>
<polyline clip-path="url(#clip260)" style="stroke:#000000; stroke-linecap:round; stroke-linejoin:round; stroke-width:4; stroke-opacity:1; fill:none" points="1859.13,1394.04 1859.13,1375.14 "/>
<polyline clip-path="url(#clip260)" style="stroke:#000000; stroke-linecap:round; stroke-linejoin:round; stroke-width:4; stroke-opacity:1; fill:none" points="2076.59,1394.04 2076.59,1375.14 "/>
<polyline clip-path="url(#clip260)" style="stroke:#000000; stroke-linecap:round; stroke-linejoin:round; stroke-width:4; stroke-opacity:1; fill:none" points="2294.04,1394.04 2294.04,1375.14 "/>
<path clip-path="url(#clip260)" d="M309.001 1456.71 Q304.531 1459.29 303.397 1461.31 Q302.264 1463.33 303.687 1465.79 Q304.821 1467.76 306.776 1468.18 Q308.738 1468.57 310.964 1467.29 Q314.031 1465.51 314.625 1462.28 Q315.228 1459.02 313.145 1455.41 L312.67 1454.59 L309.001 1456.71 M315.479 1450.94 L322.875 1463.75 L319.186 1465.88 L317.219 1462.47 Q317.136 1465.24 315.819 1467.32 Q314.49 1469.37 311.764 1470.94 Q308.316 1472.93 305.16 1472.19 Q302.012 1471.41 300.137 1468.16 Q297.95 1464.37 299.365 1460.99 Q300.8 1457.6 305.831 1454.69 L311.003 1451.71 L310.795 1451.34 Q309.325 1448.8 306.843 1448.39 Q304.369 1447.95 301.341 1449.69 Q299.417 1450.8 297.859 1452.32 Q296.301 1453.83 295.149 1455.73 L293.182 1452.32 Q294.755 1450.37 296.44 1448.89 Q298.113 1447.39 299.917 1446.35 Q304.788 1443.53 308.652 1444.67 Q312.516 1445.81 315.479 1450.94 Z" fill="#000000" fill-rule="nonzero" fill-opacity="1" /><path clip-path="url(#clip260)" d="M312.463 1428.17 L316.152 1426.04 L334.161 1457.23 L330.473 1459.36 L312.463 1428.17 Z" fill="#000000" fill-rule="nonzero" fill-opacity="1" /><path clip-path="url(#clip260)" d="M323.87 1421.58 L327.559 1419.45 L345.568 1450.65 L341.879 1452.78 L323.87 1421.58 Z" fill="#000000" fill-rule="nonzero" fill-opacity="1" /><path clip-path="url(#clip260)" d="M507.857 1442.59 L511.946 1440.23 L532.847 1461.9 L524.515 1432.97 L529.066 1430.35 L549.967 1452.01 L541.635 1423.09 L545.745 1420.72 L555.507 1454.99 L550.416 1457.93 L529.101 1435.59 L537.726 1465.25 L532.634 1468.19 L507.857 1442.59 Z" fill="#000000" fill-rule="nonzero" fill-opacity="1" /><path clip-path="url(#clip260)" d="M722.168 1448.07 Q717.758 1450.62 717.05 1455.41 Q716.362 1460.19 719.638 1465.86 Q722.902 1471.52 727.386 1473.31 Q731.89 1475.09 736.3 1472.55 Q740.71 1470 741.378 1465.23 Q742.066 1460.45 738.802 1454.8 Q735.527 1449.12 731.043 1447.33 Q726.579 1445.52 722.168 1448.07 M720.27 1444.78 Q726.565 1441.15 732.776 1443.2 Q738.975 1445.24 743.072 1452.33 Q747.158 1459.41 745.831 1465.82 Q744.493 1472.2 738.198 1475.84 Q731.884 1479.48 725.664 1477.46 Q719.465 1475.42 715.368 1468.33 Q711.27 1461.23 712.609 1454.85 Q713.955 1448.43 720.27 1444.78 Z" fill="#000000" fill-rule="nonzero" fill-opacity="1" /><path clip-path="url(#clip260)" d="M740.289 1433.95 L744.358 1431.6 L754.856 1449.78 Q757.634 1454.59 760.604 1455.71 Q763.564 1456.81 767.473 1454.55 Q771.362 1452.3 771.891 1449.19 Q772.408 1446.06 769.63 1441.25 L759.133 1423.07 L763.202 1420.72 L773.989 1439.4 Q777.369 1445.25 776.186 1449.92 Q775.024 1454.57 769.371 1457.84 Q763.698 1461.11 759.067 1459.8 Q754.455 1458.48 751.076 1452.63 L740.289 1433.95 Z" fill="#000000" fill-rule="nonzero" fill-opacity="1" /><path clip-path="url(#clip260)" d="M919.219 1480.78 Q916.904 1476.77 913.967 1475.53 Q911.05 1474.27 908.063 1476 Q905.097 1477.71 904.706 1480.87 Q904.335 1484.03 906.65 1488.04 Q908.953 1492.03 911.87 1493.28 Q914.807 1494.53 917.774 1492.81 Q920.761 1491.09 921.132 1487.94 Q921.522 1484.77 919.219 1480.78 M927.931 1487.35 Q931.241 1493.08 930.304 1497.34 Q929.378 1501.62 924.126 1504.65 Q922.182 1505.77 920.284 1506.47 Q918.398 1507.18 916.427 1507.52 L914.355 1503.93 Q916.488 1503.87 918.315 1503.38 Q920.142 1502.89 921.786 1501.94 Q925.414 1499.84 926.119 1496.9 Q926.835 1493.97 924.624 1490.14 L923.571 1488.32 Q923.574 1490.96 922.357 1492.98 Q921.14 1494.99 918.654 1496.42 Q914.525 1498.81 910.182 1497.12 Q905.839 1495.43 902.841 1490.24 Q899.832 1485.02 900.541 1480.42 Q901.249 1475.81 905.379 1473.43 Q907.865 1471.99 910.216 1471.95 Q912.567 1471.9 914.856 1473.22 L912.888 1469.82 L916.577 1467.69 L927.931 1487.35 Z" fill="#000000" fill-rule="nonzero" fill-opacity="1" /><path clip-path="url(#clip260)" d="M933.095 1469.03 L939.426 1479.99 L945.921 1476.24 Q949.189 1474.36 949.977 1472.11 Q950.774 1469.83 949.165 1467.05 Q947.544 1464.24 945.197 1463.83 Q942.858 1463.39 939.59 1465.28 L933.095 1469.03 M925.989 1456.72 L931.197 1465.74 L937.191 1462.28 Q940.158 1460.57 940.965 1458.63 Q941.78 1456.66 940.46 1454.38 Q939.153 1452.11 937.041 1451.83 Q934.949 1451.55 931.983 1453.26 L925.989 1456.72 M920.018 1455.73 L930.362 1449.76 Q934.993 1447.08 938.61 1447.56 Q942.227 1448.04 944.275 1451.59 Q945.861 1454.33 945.515 1456.7 Q945.17 1459.06 942.916 1460.9 Q946.273 1459.82 949.097 1460.91 Q951.93 1461.98 953.689 1465.02 Q956.004 1469.03 954.539 1472.79 Q953.075 1476.55 948.043 1479.46 L937.298 1485.66 L920.018 1455.73 Z" fill="#000000" fill-rule="nonzero" fill-opacity="1" /><path clip-path="url(#clip260)" d="M972.309 1441.26 Q972.258 1437.97 973.499 1435.68 Q974.741 1433.38 977.347 1431.88 Q980.855 1429.85 984.183 1431.22 Q987.5 1432.57 990.115 1437.1 L997.939 1450.65 L994.231 1452.79 L986.476 1439.36 Q984.613 1436.13 982.567 1435.23 Q980.522 1434.32 978.176 1435.68 Q975.31 1437.33 974.745 1440.2 Q974.181 1443.06 976.079 1446.35 L983.405 1459.04 L979.697 1461.18 L971.942 1447.75 Q970.067 1444.5 968.033 1443.62 Q965.988 1442.71 963.602 1444.09 Q960.776 1445.72 960.223 1448.61 Q959.659 1451.47 961.545 1454.74 L968.872 1467.43 L965.163 1469.57 L952.2 1447.12 L955.909 1444.98 L957.922 1448.47 Q957.993 1445.67 959.19 1443.67 Q960.387 1441.67 962.813 1440.27 Q965.259 1438.86 967.68 1439.12 Q970.122 1439.36 972.309 1441.26 Z" fill="#000000" fill-rule="nonzero" fill-opacity="1" /><path clip-path="url(#clip260)" d="M1168.86 1459.45 L1176.69 1473 L1173 1475.13 L1165.24 1461.7 Q1163.4 1458.51 1161.25 1457.64 Q1159.09 1456.78 1156.6 1458.21 Q1153.62 1459.94 1152.99 1462.84 Q1152.37 1465.73 1154.26 1469.02 L1161.59 1481.71 L1157.88 1483.85 L1139.87 1452.66 L1143.58 1450.52 L1150.64 1462.75 Q1150.8 1459.96 1152 1457.93 Q1153.23 1455.88 1155.57 1454.53 Q1159.44 1452.29 1162.82 1453.55 Q1166.18 1454.79 1168.86 1459.45 Z" fill="#000000" fill-rule="nonzero" fill-opacity="1" /><path clip-path="url(#clip260)" d="M1166.03 1437.56 L1169.72 1435.43 L1187.73 1466.62 L1184.04 1468.75 L1166.03 1437.56 Z" fill="#000000" fill-rule="nonzero" fill-opacity="1" /><path clip-path="url(#clip260)" d="M1197.07 1456.74 L1203.95 1468.64 L1200.24 1470.78 L1182.35 1439.79 L1186.06 1437.65 L1188.02 1441.06 Q1188.03 1438.38 1189.24 1436.4 Q1190.45 1434.39 1192.92 1432.97 Q1197.01 1430.61 1201.43 1432.38 Q1205.87 1434.15 1208.93 1439.44 Q1211.98 1444.73 1211.29 1449.46 Q1210.62 1454.18 1206.53 1456.54 Q1204.06 1457.96 1201.73 1458.03 Q1199.39 1458.07 1197.07 1456.74 M1205.1 1441.65 Q1202.75 1437.58 1199.73 1436.25 Q1196.73 1434.88 1193.8 1436.57 Q1190.87 1438.26 1190.53 1441.56 Q1190.2 1444.83 1192.55 1448.9 Q1194.9 1452.97 1197.9 1454.33 Q1200.92 1455.66 1203.85 1453.97 Q1206.77 1452.29 1207.11 1449.02 Q1207.45 1445.72 1205.1 1441.65 Z" fill="#000000" fill-rule="nonzero" fill-opacity="1" /><path clip-path="url(#clip260)" d="M1394.49 1444.01 L1396.48 1447.46 Q1394.42 1447.5 1392.59 1447.99 Q1390.77 1448.45 1389.17 1449.38 Q1385.58 1451.45 1384.92 1454.88 Q1384.24 1458.29 1386.61 1462.4 Q1388.98 1466.51 1392.29 1467.65 Q1395.58 1468.77 1399.17 1466.7 Q1400.77 1465.78 1402.09 1464.45 Q1403.42 1463.1 1404.49 1461.33 L1406.46 1464.74 Q1405.33 1466.35 1403.87 1467.67 Q1402.44 1468.98 1400.57 1470.06 Q1395.5 1472.99 1390.67 1471.53 Q1385.85 1470.06 1382.72 1464.65 Q1379.55 1459.16 1380.74 1454.27 Q1381.95 1449.38 1387.2 1446.35 Q1388.91 1445.36 1390.74 1444.79 Q1392.56 1444.19 1394.49 1444.01 Z" fill="#000000" fill-rule="nonzero" fill-opacity="1" /><path clip-path="url(#clip260)" d="M1402.22 1432.86 L1408.71 1444.11 L1413.8 1441.17 Q1416.63 1439.54 1417.33 1437.18 Q1418.03 1434.83 1416.47 1432.12 Q1414.91 1429.44 1412.53 1428.87 Q1410.14 1428.29 1407.31 1429.92 L1402.22 1432.86 M1396.25 1431.87 L1405.39 1426.6 Q1410.42 1423.69 1414.31 1424.5 Q1418.2 1425.27 1420.74 1429.66 Q1423.29 1434.09 1422.02 1437.85 Q1420.76 1441.59 1415.73 1444.5 L1410.63 1447.44 L1417.58 1459.47 L1413.53 1461.8 L1396.25 1431.87 Z" fill="#000000" fill-rule="nonzero" fill-opacity="1" /><path clip-path="url(#clip260)" d="M1611.17 1444.19 L1613.18 1447.68 Q1611.16 1447.78 1609.24 1448.35 Q1607.32 1448.92 1605.52 1449.97 Q1602.77 1451.55 1601.88 1453.19 Q1601 1454.82 1601.97 1456.5 Q1602.71 1457.79 1604.12 1457.96 Q1605.52 1458.12 1608.87 1457.07 L1610.3 1456.62 Q1614.71 1455.19 1617.25 1455.78 Q1619.79 1456.35 1621.38 1459.09 Q1623.18 1462.22 1621.75 1465.48 Q1620.34 1468.73 1616.01 1471.23 Q1614.2 1472.27 1612.03 1473.04 Q1609.89 1473.83 1607.32 1474.37 L1605.12 1470.57 Q1607.78 1470.45 1610.07 1469.84 Q1612.36 1469.22 1614.3 1468.1 Q1616.91 1466.59 1617.8 1464.9 Q1618.69 1463.19 1617.75 1461.56 Q1616.88 1460.06 1615.4 1459.85 Q1613.93 1459.62 1610.07 1460.86 L1608.62 1461.3 Q1604.77 1462.56 1602.39 1461.96 Q1600 1461.33 1598.5 1458.73 Q1596.67 1455.56 1597.92 1452.54 Q1599.17 1449.52 1603.3 1447.13 Q1605.34 1445.95 1607.32 1445.21 Q1609.3 1444.47 1611.17 1444.19 Z" fill="#000000" fill-rule="nonzero" fill-opacity="1" /><path clip-path="url(#clip260)" d="M1619.68 1432.86 L1626.17 1444.11 L1631.26 1441.17 Q1634.09 1439.54 1634.79 1437.18 Q1635.49 1434.83 1633.92 1432.12 Q1632.37 1429.44 1629.98 1428.87 Q1627.6 1428.29 1624.77 1429.92 L1619.68 1432.86 M1613.71 1431.87 L1622.85 1426.6 Q1627.88 1423.69 1631.76 1424.5 Q1635.66 1425.27 1638.19 1429.66 Q1640.75 1434.09 1639.47 1437.85 Q1638.21 1441.59 1633.18 1444.5 L1628.09 1447.44 L1635.04 1459.47 L1630.99 1461.8 L1613.71 1431.87 Z" fill="#000000" fill-rule="nonzero" fill-opacity="1" /><path clip-path="url(#clip260)" d="M1827.67 1433.89 L1831.72 1431.55 L1838.81 1443.82 L1853.52 1435.32 L1846.44 1423.06 L1850.49 1420.72 L1867.77 1450.65 L1863.72 1452.99 L1855.49 1438.73 L1840.78 1447.23 L1849 1461.48 L1844.95 1463.82 L1827.67 1433.89 Z" fill="#000000" fill-rule="nonzero" fill-opacity="1" /><path clip-path="url(#clip260)" d="M2042.63 1435.34 L2067.95 1420.72 L2069.91 1424.13 L2059.29 1430.26 L2074.6 1456.78 L2070.53 1459.13 L2055.22 1432.61 L2044.59 1438.74 L2042.63 1435.34 Z" fill="#000000" fill-rule="nonzero" fill-opacity="1" /><path clip-path="url(#clip260)" d="M2220.78 1456.34 L2222.56 1459.41 L2219.03 1461.45 Q2217.04 1462.59 2216.72 1463.84 Q2216.42 1465.09 2217.63 1467.17 L2218.77 1469.16 L2224.85 1465.65 L2226.5 1468.52 L2220.43 1472.02 L2231.74 1491.61 L2228.03 1493.75 L2216.72 1474.16 L2213.19 1476.2 L2211.54 1473.33 L2215.07 1471.3 L2214.16 1469.73 Q2212 1465.98 2212.76 1463.27 Q2213.51 1460.54 2217.3 1458.35 L2220.78 1456.34 Z" fill="#000000" fill-rule="nonzero" fill-opacity="1" /><path clip-path="url(#clip260)" d="M2237.84 1469.03 L2244.17 1479.99 L2250.66 1476.24 Q2253.93 1474.36 2254.72 1472.11 Q2255.52 1469.83 2253.91 1467.05 Q2252.29 1464.24 2249.94 1463.83 Q2247.6 1463.39 2244.33 1465.28 L2237.84 1469.03 M2230.73 1456.72 L2235.94 1465.74 L2241.93 1462.28 Q2244.9 1460.57 2245.71 1458.63 Q2246.52 1456.66 2245.2 1454.38 Q2243.9 1452.11 2241.78 1451.83 Q2239.69 1451.55 2236.73 1453.26 L2230.73 1456.72 M2224.76 1455.73 L2235.11 1449.76 Q2239.74 1447.08 2243.35 1447.56 Q2246.97 1448.04 2249.02 1451.59 Q2250.6 1454.33 2250.26 1456.7 Q2249.91 1459.06 2247.66 1460.9 Q2251.02 1459.82 2253.84 1460.91 Q2256.67 1461.98 2258.43 1465.02 Q2260.75 1469.03 2259.28 1472.79 Q2257.82 1476.55 2252.79 1479.46 L2242.04 1485.66 L2224.76 1455.73 Z" fill="#000000" fill-rule="nonzero" fill-opacity="1" /><path clip-path="url(#clip260)" d="M2277.05 1441.26 Q2277 1437.97 2278.24 1435.68 Q2279.48 1433.38 2282.09 1431.88 Q2285.6 1429.85 2288.93 1431.22 Q2292.24 1432.57 2294.86 1437.1 L2302.68 1450.65 L2298.97 1452.79 L2291.22 1439.36 Q2289.36 1436.13 2287.31 1435.23 Q2285.26 1434.32 2282.92 1435.68 Q2280.05 1437.33 2279.49 1440.2 Q2278.92 1443.06 2280.82 1446.35 L2288.15 1459.04 L2284.44 1461.18 L2276.69 1447.75 Q2274.81 1444.5 2272.78 1443.62 Q2270.73 1442.71 2268.35 1444.09 Q2265.52 1445.72 2264.97 1448.61 Q2264.4 1451.47 2266.29 1454.74 L2273.61 1467.43 L2269.91 1469.57 L2256.94 1447.12 L2260.65 1444.98 L2262.67 1448.47 Q2262.74 1445.67 2263.93 1443.67 Q2265.13 1441.67 2267.56 1440.27 Q2270 1438.86 2272.42 1439.12 Q2274.86 1439.36 2277.05 1441.26 Z" fill="#000000" fill-rule="nonzero" fill-opacity="1" /><polyline clip-path="url(#clip260)" style="stroke:#000000; stroke-linecap:round; stroke-linejoin:round; stroke-width:4; stroke-opacity:1; fill:none" points="278.214,1394.04 278.214,47.2441 "/>
<polyline clip-path="url(#clip260)" style="stroke:#000000; stroke-linecap:round; stroke-linejoin:round; stroke-width:4; stroke-opacity:1; fill:none" points="278.214,1309.86 297.112,1309.86 "/>
<polyline clip-path="url(#clip260)" style="stroke:#000000; stroke-linecap:round; stroke-linejoin:round; stroke-width:4; stroke-opacity:1; fill:none" points="278.214,1057.34 297.112,1057.34 "/>
<polyline clip-path="url(#clip260)" style="stroke:#000000; stroke-linecap:round; stroke-linejoin:round; stroke-width:4; stroke-opacity:1; fill:none" points="278.214,804.814 297.112,804.814 "/>
<polyline clip-path="url(#clip260)" style="stroke:#000000; stroke-linecap:round; stroke-linejoin:round; stroke-width:4; stroke-opacity:1; fill:none" points="278.214,552.291 297.112,552.291 "/>
<polyline clip-path="url(#clip260)" style="stroke:#000000; stroke-linecap:round; stroke-linejoin:round; stroke-width:4; stroke-opacity:1; fill:none" points="278.214,299.767 297.112,299.767 "/>
<path clip-path="url(#clip260)" d="M185.039 1295.66 Q181.428 1295.66 179.599 1299.22 Q177.793 1302.77 177.793 1309.9 Q177.793 1317 179.599 1320.57 Q181.428 1324.11 185.039 1324.11 Q188.673 1324.11 190.478 1320.57 Q192.307 1317 192.307 1309.9 Q192.307 1302.77 190.478 1299.22 Q188.673 1295.66 185.039 1295.66 M185.039 1291.96 Q190.849 1291.96 193.904 1296.56 Q196.983 1301.15 196.983 1309.9 Q196.983 1318.62 193.904 1323.23 Q190.849 1327.81 185.039 1327.81 Q179.229 1327.81 176.15 1323.23 Q173.094 1318.62 173.094 1309.9 Q173.094 1301.15 176.15 1296.56 Q179.229 1291.96 185.039 1291.96 Z" fill="#000000" fill-rule="nonzero" fill-opacity="1" /><path clip-path="url(#clip260)" d="M205.201 1321.26 L210.085 1321.26 L210.085 1327.14 L205.201 1327.14 L205.201 1321.26 Z" fill="#000000" fill-rule="nonzero" fill-opacity="1" /><path clip-path="url(#clip260)" d="M230.27 1295.66 Q226.659 1295.66 224.83 1299.22 Q223.025 1302.77 223.025 1309.9 Q223.025 1317 224.83 1320.57 Q226.659 1324.11 230.27 1324.11 Q233.904 1324.11 235.71 1320.57 Q237.538 1317 237.538 1309.9 Q237.538 1302.77 235.71 1299.22 Q233.904 1295.66 230.27 1295.66 M230.27 1291.96 Q236.08 1291.96 239.136 1296.56 Q242.214 1301.15 242.214 1309.9 Q242.214 1318.62 239.136 1323.23 Q236.08 1327.81 230.27 1327.81 Q224.46 1327.81 221.381 1323.23 Q218.326 1318.62 218.326 1309.9 Q218.326 1301.15 221.381 1296.56 Q224.46 1291.96 230.27 1291.96 Z" fill="#000000" fill-rule="nonzero" fill-opacity="1" /><path clip-path="url(#clip260)" d="M185.687 1043.14 Q182.076 1043.14 180.247 1046.7 Q178.442 1050.24 178.442 1057.37 Q178.442 1064.48 180.247 1068.04 Q182.076 1071.59 185.687 1071.59 Q189.321 1071.59 191.127 1068.04 Q192.955 1064.48 192.955 1057.37 Q192.955 1050.24 191.127 1046.7 Q189.321 1043.14 185.687 1043.14 M185.687 1039.43 Q191.497 1039.43 194.553 1044.04 Q197.631 1048.62 197.631 1057.37 Q197.631 1066.1 194.553 1070.71 Q191.497 1075.29 185.687 1075.29 Q179.877 1075.29 176.798 1070.71 Q173.742 1066.1 173.742 1057.37 Q173.742 1048.62 176.798 1044.04 Q179.877 1039.43 185.687 1039.43 Z" fill="#000000" fill-rule="nonzero" fill-opacity="1" /><path clip-path="url(#clip260)" d="M205.849 1068.74 L210.733 1068.74 L210.733 1074.62 L205.849 1074.62 L205.849 1068.74 Z" fill="#000000" fill-rule="nonzero" fill-opacity="1" /><path clip-path="url(#clip260)" d="M235.085 1055.98 Q238.441 1056.7 240.316 1058.97 Q242.214 1061.24 242.214 1064.57 Q242.214 1069.69 238.696 1072.49 Q235.177 1075.29 228.696 1075.29 Q226.52 1075.29 224.205 1074.85 Q221.914 1074.43 219.46 1073.58 L219.46 1069.06 Q221.404 1070.2 223.719 1070.77 Q226.034 1071.35 228.557 1071.35 Q232.955 1071.35 235.247 1069.62 Q237.562 1067.88 237.562 1064.57 Q237.562 1061.52 235.409 1059.8 Q233.279 1058.07 229.46 1058.07 L225.432 1058.07 L225.432 1054.22 L229.645 1054.22 Q233.094 1054.22 234.923 1052.86 Q236.751 1051.47 236.751 1048.88 Q236.751 1046.21 234.853 1044.8 Q232.978 1043.37 229.46 1043.37 Q227.538 1043.37 225.339 1043.78 Q223.14 1044.2 220.501 1045.08 L220.501 1040.91 Q223.163 1040.17 225.478 1039.8 Q227.816 1039.43 229.876 1039.43 Q235.2 1039.43 238.302 1041.86 Q241.404 1044.27 241.404 1048.39 Q241.404 1051.26 239.761 1053.25 Q238.117 1055.22 235.085 1055.98 Z" fill="#000000" fill-rule="nonzero" fill-opacity="1" /><path clip-path="url(#clip260)" d="M184.877 790.613 Q181.266 790.613 179.437 794.178 Q177.631 797.719 177.631 804.849 Q177.631 811.955 179.437 815.52 Q181.266 819.062 184.877 819.062 Q188.511 819.062 190.316 815.52 Q192.145 811.955 192.145 804.849 Q192.145 797.719 190.316 794.178 Q188.511 790.613 184.877 790.613 M184.877 786.909 Q190.687 786.909 193.742 791.516 Q196.821 796.099 196.821 804.849 Q196.821 813.576 193.742 818.182 Q190.687 822.765 184.877 822.765 Q179.067 822.765 175.988 818.182 Q172.932 813.576 172.932 804.849 Q172.932 796.099 175.988 791.516 Q179.067 786.909 184.877 786.909 Z" fill="#000000" fill-rule="nonzero" fill-opacity="1" /><path clip-path="url(#clip260)" d="M205.039 816.214 L209.923 816.214 L209.923 822.094 L205.039 822.094 L205.039 816.214 Z" fill="#000000" fill-rule="nonzero" fill-opacity="1" /><path clip-path="url(#clip260)" d="M230.687 802.951 Q227.538 802.951 225.687 805.103 Q223.858 807.256 223.858 811.006 Q223.858 814.733 225.687 816.909 Q227.538 819.062 230.687 819.062 Q233.835 819.062 235.663 816.909 Q237.515 814.733 237.515 811.006 Q237.515 807.256 235.663 805.103 Q233.835 802.951 230.687 802.951 M239.969 788.298 L239.969 792.557 Q238.21 791.724 236.404 791.284 Q234.622 790.844 232.863 790.844 Q228.233 790.844 225.779 793.969 Q223.349 797.094 223.001 803.414 Q224.367 801.4 226.427 800.335 Q228.488 799.247 230.964 799.247 Q236.173 799.247 239.182 802.418 Q242.214 805.566 242.214 811.006 Q242.214 816.33 239.066 819.548 Q235.918 822.765 230.687 822.765 Q224.691 822.765 221.52 818.182 Q218.349 813.576 218.349 804.849 Q218.349 796.654 222.238 791.793 Q226.126 786.909 232.677 786.909 Q234.437 786.909 236.219 787.256 Q238.025 787.604 239.969 788.298 Z" fill="#000000" fill-rule="nonzero" fill-opacity="1" /><path clip-path="url(#clip260)" d="M185.224 538.089 Q181.613 538.089 179.784 541.654 Q177.979 545.196 177.979 552.325 Q177.979 559.432 179.784 562.997 Q181.613 566.538 185.224 566.538 Q188.858 566.538 190.664 562.997 Q192.492 559.432 192.492 552.325 Q192.492 545.196 190.664 541.654 Q188.858 538.089 185.224 538.089 M185.224 534.386 Q191.034 534.386 194.09 538.992 Q197.168 543.576 197.168 552.325 Q197.168 561.052 194.09 565.659 Q191.034 570.242 185.224 570.242 Q179.414 570.242 176.335 565.659 Q173.28 561.052 173.28 552.325 Q173.28 543.576 176.335 538.992 Q179.414 534.386 185.224 534.386 Z" fill="#000000" fill-rule="nonzero" fill-opacity="1" /><path clip-path="url(#clip260)" d="M205.386 563.691 L210.27 563.691 L210.27 569.571 L205.386 569.571 L205.386 563.691 Z" fill="#000000" fill-rule="nonzero" fill-opacity="1" /><path clip-path="url(#clip260)" d="M220.594 568.853 L220.594 564.594 Q222.353 565.427 224.159 565.867 Q225.964 566.307 227.701 566.307 Q232.33 566.307 234.761 563.205 Q237.214 560.08 237.562 553.737 Q236.219 555.728 234.159 556.793 Q232.099 557.858 229.599 557.858 Q224.413 557.858 221.381 554.733 Q218.372 551.585 218.372 546.145 Q218.372 540.821 221.52 537.603 Q224.668 534.386 229.9 534.386 Q235.895 534.386 239.043 538.992 Q242.214 543.576 242.214 552.325 Q242.214 560.497 238.325 565.381 Q234.46 570.242 227.909 570.242 Q226.15 570.242 224.344 569.895 Q222.538 569.548 220.594 568.853 M229.9 554.2 Q233.048 554.2 234.876 552.048 Q236.728 549.895 236.728 546.145 Q236.728 542.418 234.876 540.265 Q233.048 538.089 229.9 538.089 Q226.751 538.089 224.9 540.265 Q223.071 542.418 223.071 546.145 Q223.071 549.895 224.9 552.048 Q226.751 554.2 229.9 554.2 Z" fill="#000000" fill-rule="nonzero" fill-opacity="1" /><path clip-path="url(#clip260)" d="M177.446 313.112 L185.085 313.112 L185.085 286.747 L176.775 288.413 L176.775 284.154 L185.039 282.487 L189.715 282.487 L189.715 313.112 L197.353 313.112 L197.353 317.047 L177.446 317.047 L177.446 313.112 Z" fill="#000000" fill-rule="nonzero" fill-opacity="1" /><path clip-path="url(#clip260)" d="M206.798 311.168 L211.682 311.168 L211.682 317.047 L206.798 317.047 L206.798 311.168 Z" fill="#000000" fill-rule="nonzero" fill-opacity="1" /><path clip-path="url(#clip260)" d="M225.895 313.112 L242.214 313.112 L242.214 317.047 L220.27 317.047 L220.27 313.112 Q222.932 310.358 227.515 305.728 Q232.122 301.075 233.302 299.733 Q235.548 297.21 236.427 295.473 Q237.33 293.714 237.33 292.024 Q237.33 289.27 235.386 287.534 Q233.464 285.798 230.363 285.798 Q228.163 285.798 225.71 286.561 Q223.279 287.325 220.501 288.876 L220.501 284.154 Q223.326 283.02 225.779 282.441 Q228.233 281.862 230.27 281.862 Q235.64 281.862 238.835 284.548 Q242.029 287.233 242.029 291.723 Q242.029 293.853 241.219 295.774 Q240.432 297.673 238.325 300.265 Q237.747 300.936 234.645 304.154 Q231.543 307.348 225.895 313.112 Z" fill="#000000" fill-rule="nonzero" fill-opacity="1" /><path clip-path="url(#clip260)" d="M101.457 704.247 Q105.731 704.247 109.86 706.413 Q113.988 708.551 116.535 711.918 Q119.053 715.285 119.053 718.71 Q119.053 720.76 117.94 722.136 Q116.798 723.482 115.188 724.214 Q117.179 724.771 121.951 725.971 Q126.724 727.171 127.192 727.171 Q127.456 727.171 127.573 727.113 Q127.69 727.054 127.836 726.791 Q128.012 726.527 128.071 725.883 Q128.158 725.239 128.158 724.156 Q128.158 723.6 128.158 723.395 Q128.188 723.16 128.334 722.955 Q128.48 722.721 128.802 722.721 Q130.003 722.721 130.003 723.805 Q130.003 724.771 129.915 726.762 Q129.827 728.752 129.827 729.748 Q129.827 730.597 129.915 732.295 Q130.003 733.993 130.003 734.784 Q130.003 735.574 129.3 735.574 Q128.89 735.574 128.627 735.457 Q128.393 735.369 128.275 735.135 Q128.188 734.901 128.158 734.696 Q128.158 734.52 128.158 734.169 Q128.158 732.822 127.924 732.237 Q127.719 731.651 127.28 731.446 Q126.87 731.212 125.699 730.948 L98.9974 724.214 Q97.2114 723.805 95.9525 723.805 Q94.3715 723.805 93.7859 724.302 Q93.2003 724.8 93.2003 725.678 Q93.2003 727.201 95.0156 728.196 Q96.8308 729.192 100.344 730.041 Q101.31 730.304 101.515 730.48 Q101.72 730.626 101.72 731.065 Q101.691 731.797 101.105 731.797 Q100.959 731.797 100.022 731.563 Q99.056 731.329 97.6506 730.89 Q96.216 730.421 95.3084 729.924 Q94.6935 729.631 94.2836 729.367 Q93.8737 729.104 93.2296 728.577 Q92.5855 728.021 92.2342 727.23 Q91.8828 726.44 91.8828 725.473 Q91.8828 723.6 92.9954 722.048 Q94.108 720.496 96.3624 720.086 Q94.4007 718.417 93.1418 716.368 Q91.8828 714.318 91.8828 712.24 Q91.8828 708.785 94.5764 706.53 Q97.2407 704.247 101.457 704.247 M98.8217 708.58 Q96.1574 708.58 94.6935 709.605 Q93.2003 710.6 93.2003 712.415 Q93.2003 714.67 95.484 717.275 Q97.6506 719.852 99.6708 720.379 L111.411 723.336 L112.377 723.512 Q112.553 723.512 113.08 723.424 Q113.578 723.307 114.398 722.985 Q115.217 722.633 115.949 722.165 Q116.652 721.667 117.179 720.789 Q117.706 719.881 117.706 718.769 Q117.706 716.983 116.125 715.05 Q114.544 713.089 111.558 711.625 Q109.625 710.717 105.468 709.663 Q101.281 708.58 98.8217 708.58 Z" fill="#000000" fill-rule="nonzero" fill-opacity="1" /><polyline clip-path="url(#clip262)" style="stroke:#000000; stroke-linecap:round; stroke-linejoin:round; stroke-width:4; stroke-opacity:1; fill:none" points="336.928,543.171 336.928,358 "/>
<polyline clip-path="url(#clip262)" style="stroke:#000000; stroke-linecap:round; stroke-linejoin:round; stroke-width:4; stroke-opacity:1; fill:none" points="554.385,558.053 554.385,368.918 "/>
<polyline clip-path="url(#clip262)" style="stroke:#000000; stroke-linecap:round; stroke-linejoin:round; stroke-width:4; stroke-opacity:1; fill:none" points="771.842,590.359 771.842,417.427 "/>
<polyline clip-path="url(#clip262)" style="stroke:#000000; stroke-linecap:round; stroke-linejoin:round; stroke-width:4; stroke-opacity:1; fill:none" points="989.299,661.375 989.299,399.081 "/>
<polyline clip-path="url(#clip262)" style="stroke:#000000; stroke-linecap:round; stroke-linejoin:round; stroke-width:4; stroke-opacity:1; fill:none" points="1206.76,570.538 1206.76,355.233 "/>
<polyline clip-path="url(#clip262)" style="stroke:#000000; stroke-linecap:round; stroke-linejoin:round; stroke-width:4; stroke-opacity:1; fill:none" points="1424.21,690.452 1424.21,278.269 "/>
<polyline clip-path="url(#clip262)" style="stroke:#000000; stroke-linecap:round; stroke-linejoin:round; stroke-width:4; stroke-opacity:1; fill:none" points="1641.67,593.285 1641.67,395.547 "/>
<polyline clip-path="url(#clip262)" style="stroke:#000000; stroke-linecap:round; stroke-linejoin:round; stroke-width:4; stroke-opacity:1; fill:none" points="1859.13,527.51 1859.13,372.91 "/>
<polyline clip-path="url(#clip262)" style="stroke:#000000; stroke-linecap:round; stroke-linejoin:round; stroke-width:4; stroke-opacity:1; fill:none" points="2076.59,482.114 2076.59,344.487 "/>
<polyline clip-path="url(#clip262)" style="stroke:#000000; stroke-linecap:round; stroke-linejoin:round; stroke-width:4; stroke-opacity:1; fill:none" points="2294.04,562.858 2294.04,344.135 "/>
<line clip-path="url(#clip262)" x1="352.928" y1="543.171" x2="320.928" y2="543.171" style="stroke:#000000; stroke-width:4; stroke-opacity:1"/>
<line clip-path="url(#clip262)" x1="352.928" y1="358" x2="320.928" y2="358" style="stroke:#000000; stroke-width:4; stroke-opacity:1"/>
<line clip-path="url(#clip262)" x1="570.385" y1="558.053" x2="538.385" y2="558.053" style="stroke:#000000; stroke-width:4; stroke-opacity:1"/>
<line clip-path="url(#clip262)" x1="570.385" y1="368.918" x2="538.385" y2="368.918" style="stroke:#000000; stroke-width:4; stroke-opacity:1"/>
<line clip-path="url(#clip262)" x1="787.842" y1="590.359" x2="755.842" y2="590.359" style="stroke:#000000; stroke-width:4; stroke-opacity:1"/>
<line clip-path="url(#clip262)" x1="787.842" y1="417.427" x2="755.842" y2="417.427" style="stroke:#000000; stroke-width:4; stroke-opacity:1"/>
<line clip-path="url(#clip262)" x1="1005.3" y1="661.375" x2="973.299" y2="661.375" style="stroke:#000000; stroke-width:4; stroke-opacity:1"/>
<line clip-path="url(#clip262)" x1="1005.3" y1="399.081" x2="973.299" y2="399.081" style="stroke:#000000; stroke-width:4; stroke-opacity:1"/>
<line clip-path="url(#clip262)" x1="1222.76" y1="570.538" x2="1190.76" y2="570.538" style="stroke:#000000; stroke-width:4; stroke-opacity:1"/>
<line clip-path="url(#clip262)" x1="1222.76" y1="355.233" x2="1190.76" y2="355.233" style="stroke:#000000; stroke-width:4; stroke-opacity:1"/>
<line clip-path="url(#clip262)" x1="1440.21" y1="690.452" x2="1408.21" y2="690.452" style="stroke:#000000; stroke-width:4; stroke-opacity:1"/>
<line clip-path="url(#clip262)" x1="1440.21" y1="278.269" x2="1408.21" y2="278.269" style="stroke:#000000; stroke-width:4; stroke-opacity:1"/>
<line clip-path="url(#clip262)" x1="1657.67" y1="593.285" x2="1625.67" y2="593.285" style="stroke:#000000; stroke-width:4; stroke-opacity:1"/>
<line clip-path="url(#clip262)" x1="1657.67" y1="395.547" x2="1625.67" y2="395.547" style="stroke:#000000; stroke-width:4; stroke-opacity:1"/>
<line clip-path="url(#clip262)" x1="1875.13" y1="527.51" x2="1843.13" y2="527.51" style="stroke:#000000; stroke-width:4; stroke-opacity:1"/>
<line clip-path="url(#clip262)" x1="1875.13" y1="372.91" x2="1843.13" y2="372.91" style="stroke:#000000; stroke-width:4; stroke-opacity:1"/>
<line clip-path="url(#clip262)" x1="2092.59" y1="482.114" x2="2060.59" y2="482.114" style="stroke:#000000; stroke-width:4; stroke-opacity:1"/>
<line clip-path="url(#clip262)" x1="2092.59" y1="344.487" x2="2060.59" y2="344.487" style="stroke:#000000; stroke-width:4; stroke-opacity:1"/>
<line clip-path="url(#clip262)" x1="2310.04" y1="562.858" x2="2278.04" y2="562.858" style="stroke:#000000; stroke-width:4; stroke-opacity:1"/>
<line clip-path="url(#clip262)" x1="2310.04" y1="344.135" x2="2278.04" y2="344.135" style="stroke:#000000; stroke-width:4; stroke-opacity:1"/>
<circle clip-path="url(#clip262)" cx="336.928" cy="450.587" r="14.4" fill="#009af9" fill-rule="evenodd" fill-opacity="1" stroke="#000000" stroke-opacity="1" stroke-width="3.2"/>
<circle clip-path="url(#clip262)" cx="554.385" cy="460.95" r="14.4" fill="#009af9" fill-rule="evenodd" fill-opacity="1" stroke="#000000" stroke-opacity="1" stroke-width="3.2"/>
<circle clip-path="url(#clip262)" cx="771.842" cy="504.184" r="14.4" fill="#009af9" fill-rule="evenodd" fill-opacity="1" stroke="#000000" stroke-opacity="1" stroke-width="3.2"/>
<circle clip-path="url(#clip262)" cx="989.299" cy="530.926" r="14.4" fill="#009af9" fill-rule="evenodd" fill-opacity="1" stroke="#000000" stroke-opacity="1" stroke-width="3.2"/>
<circle clip-path="url(#clip262)" cx="1206.76" cy="462.589" r="14.4" fill="#009af9" fill-rule="evenodd" fill-opacity="1" stroke="#000000" stroke-opacity="1" stroke-width="3.2"/>
<circle clip-path="url(#clip262)" cx="1424.21" cy="488.404" r="14.4" fill="#009af9" fill-rule="evenodd" fill-opacity="1" stroke="#000000" stroke-opacity="1" stroke-width="3.2"/>
<circle clip-path="url(#clip262)" cx="1641.67" cy="493.945" r="14.4" fill="#009af9" fill-rule="evenodd" fill-opacity="1" stroke="#000000" stroke-opacity="1" stroke-width="3.2"/>
<circle clip-path="url(#clip262)" cx="1859.13" cy="450.184" r="14.4" fill="#009af9" fill-rule="evenodd" fill-opacity="1" stroke="#000000" stroke-opacity="1" stroke-width="3.2"/>
<circle clip-path="url(#clip262)" cx="2076.59" cy="413.326" r="14.4" fill="#009af9" fill-rule="evenodd" fill-opacity="1" stroke="#000000" stroke-opacity="1" stroke-width="3.2"/>
<circle clip-path="url(#clip262)" cx="2294.04" cy="452.151" r="14.4" fill="#009af9" fill-rule="evenodd" fill-opacity="1" stroke="#000000" stroke-opacity="1" stroke-width="3.2"/>
<polyline clip-path="url(#clip262)" style="stroke:#e26f46; stroke-linecap:round; stroke-linejoin:round; stroke-width:4; stroke-opacity:1; fill:none" stroke-dasharray="16, 10" points="-1796.33,468.116 4427.3,468.116 "/>
<path clip-path="url(#clip260)" d="M1843.84 1349.14 L2283.6 1349.14 L2283.6 1193.62 L1843.84 1193.62  Z" fill="#ffffff" fill-rule="evenodd" fill-opacity="1"/>
<polyline clip-path="url(#clip260)" style="stroke:#000000; stroke-linecap:round; stroke-linejoin:round; stroke-width:4; stroke-opacity:1; fill:none" points="1843.84,1349.14 2283.6,1349.14 2283.6,1193.62 1843.84,1193.62 1843.84,1349.14 "/>
<circle clip-path="url(#clip260)" cx="1936.04" cy="1245.46" r="20.48" fill="#009af9" fill-rule="evenodd" fill-opacity="1" stroke="#000000" stroke-opacity="1" stroke-width="4.55111"/>
<path clip-path="url(#clip260)" d="M2048.75 1237.81 L2048.75 1241.79 Q2046.94 1240.8 2045.12 1240.31 Q2043.31 1239.8 2041.46 1239.8 Q2037.31 1239.8 2035.02 1242.44 Q2032.73 1245.06 2032.73 1249.8 Q2032.73 1254.55 2035.02 1257.19 Q2037.31 1259.8 2041.46 1259.8 Q2043.31 1259.8 2045.12 1259.32 Q2046.94 1258.81 2048.75 1257.81 L2048.75 1261.75 Q2046.97 1262.58 2045.05 1263 Q2043.15 1263.41 2041 1263.41 Q2035.14 1263.41 2031.69 1259.73 Q2028.24 1256.05 2028.24 1249.8 Q2028.24 1243.46 2031.71 1239.83 Q2035.21 1236.19 2041.27 1236.19 Q2043.24 1236.19 2045.12 1236.61 Q2046.99 1237 2048.75 1237.81 Z" fill="#000000" fill-rule="nonzero" fill-opacity="1" /><path clip-path="url(#clip260)" d="M2066.2 1239.8 Q2062.78 1239.8 2060.79 1242.49 Q2058.8 1245.15 2058.8 1249.8 Q2058.8 1254.46 2060.76 1257.14 Q2062.75 1259.8 2066.2 1259.8 Q2069.61 1259.8 2071.6 1257.12 Q2073.59 1254.43 2073.59 1249.8 Q2073.59 1245.2 2071.6 1242.51 Q2069.61 1239.8 2066.2 1239.8 M2066.2 1236.19 Q2071.76 1236.19 2074.93 1239.8 Q2078.1 1243.41 2078.1 1249.8 Q2078.1 1256.17 2074.93 1259.8 Q2071.76 1263.41 2066.2 1263.41 Q2060.62 1263.41 2057.45 1259.8 Q2054.31 1256.17 2054.31 1249.8 Q2054.31 1243.41 2057.45 1239.8 Q2060.62 1236.19 2066.2 1236.19 Z" fill="#000000" fill-rule="nonzero" fill-opacity="1" /><path clip-path="url(#clip260)" d="M2105.35 1241.79 Q2106.94 1238.92 2109.17 1237.56 Q2111.39 1236.19 2114.4 1236.19 Q2118.45 1236.19 2120.65 1239.04 Q2122.85 1241.86 2122.85 1247.09 L2122.85 1262.74 L2118.56 1262.74 L2118.56 1247.23 Q2118.56 1243.51 2117.24 1241.7 Q2115.93 1239.9 2113.22 1239.9 Q2109.91 1239.9 2107.99 1242.09 Q2106.06 1244.29 2106.06 1248.09 L2106.06 1262.74 L2101.78 1262.74 L2101.78 1247.23 Q2101.78 1243.48 2100.46 1241.7 Q2099.14 1239.9 2096.39 1239.9 Q2093.12 1239.9 2091.2 1242.12 Q2089.28 1244.32 2089.28 1248.09 L2089.28 1262.74 L2085 1262.74 L2085 1236.82 L2089.28 1236.82 L2089.28 1240.84 Q2090.74 1238.46 2092.78 1237.33 Q2094.81 1236.19 2097.62 1236.19 Q2100.44 1236.19 2102.41 1237.63 Q2104.4 1239.06 2105.35 1241.79 Z" fill="#000000" fill-rule="nonzero" fill-opacity="1" /><path clip-path="url(#clip260)" d="M2135.46 1258.85 L2135.46 1272.6 L2131.18 1272.6 L2131.18 1236.82 L2135.46 1236.82 L2135.46 1240.75 Q2136.8 1238.44 2138.84 1237.33 Q2140.9 1236.19 2143.75 1236.19 Q2148.47 1236.19 2151.41 1239.94 Q2154.37 1243.69 2154.37 1249.8 Q2154.37 1255.91 2151.41 1259.66 Q2148.47 1263.41 2143.75 1263.41 Q2140.9 1263.41 2138.84 1262.3 Q2136.8 1261.17 2135.46 1258.85 M2149.95 1249.8 Q2149.95 1245.1 2148.01 1242.44 Q2146.09 1239.76 2142.71 1239.76 Q2139.33 1239.76 2137.38 1242.44 Q2135.46 1245.1 2135.46 1249.8 Q2135.46 1254.5 2137.38 1257.19 Q2139.33 1259.85 2142.71 1259.85 Q2146.09 1259.85 2148.01 1257.19 Q2149.95 1254.5 2149.95 1249.8 Z" fill="#000000" fill-rule="nonzero" fill-opacity="1" /><path clip-path="url(#clip260)" d="M2160.99 1252.51 L2160.99 1236.82 L2165.25 1236.82 L2165.25 1252.35 Q2165.25 1256.03 2166.69 1257.88 Q2168.12 1259.71 2170.99 1259.71 Q2174.44 1259.71 2176.43 1257.51 Q2178.45 1255.31 2178.45 1251.52 L2178.45 1236.82 L2182.71 1236.82 L2182.71 1262.74 L2178.45 1262.74 L2178.45 1258.76 Q2176.9 1261.12 2174.84 1262.28 Q2172.8 1263.41 2170.09 1263.41 Q2165.62 1263.41 2163.31 1260.64 Q2160.99 1257.86 2160.99 1252.51 M2171.71 1236.19 L2171.71 1236.19 Z" fill="#000000" fill-rule="nonzero" fill-opacity="1" /><path clip-path="url(#clip260)" d="M2195.69 1229.46 L2195.69 1236.82 L2204.47 1236.82 L2204.47 1240.13 L2195.69 1240.13 L2195.69 1254.2 Q2195.69 1257.37 2196.55 1258.27 Q2197.43 1259.18 2200.09 1259.18 L2204.47 1259.18 L2204.47 1262.74 L2200.09 1262.74 Q2195.16 1262.74 2193.29 1260.91 Q2191.41 1259.06 2191.41 1254.2 L2191.41 1240.13 L2188.29 1240.13 L2188.29 1236.82 L2191.41 1236.82 L2191.41 1229.46 L2195.69 1229.46 Z" fill="#000000" fill-rule="nonzero" fill-opacity="1" /><path clip-path="url(#clip260)" d="M2232.24 1248.71 L2232.24 1250.8 L2212.66 1250.8 Q2212.94 1255.2 2215.3 1257.51 Q2217.68 1259.8 2221.92 1259.8 Q2224.37 1259.8 2226.67 1259.2 Q2228.98 1258.6 2231.25 1257.39 L2231.25 1261.42 Q2228.96 1262.39 2226.55 1262.9 Q2224.14 1263.41 2221.67 1263.41 Q2215.46 1263.41 2211.83 1259.8 Q2208.22 1256.19 2208.22 1250.03 Q2208.22 1243.67 2211.64 1239.94 Q2215.09 1236.19 2220.92 1236.19 Q2226.16 1236.19 2229.19 1239.57 Q2232.24 1242.93 2232.24 1248.71 M2227.98 1247.46 Q2227.94 1243.97 2226.02 1241.89 Q2224.12 1239.8 2220.97 1239.8 Q2217.41 1239.8 2215.25 1241.82 Q2213.12 1243.83 2212.8 1247.49 L2227.98 1247.46 Z" fill="#000000" fill-rule="nonzero" fill-opacity="1" /><path clip-path="url(#clip260)" d="M2256.29 1240.75 L2256.29 1226.72 L2260.55 1226.72 L2260.55 1262.74 L2256.29 1262.74 L2256.29 1258.85 Q2254.95 1261.17 2252.89 1262.3 Q2250.86 1263.41 2247.98 1263.41 Q2243.29 1263.41 2240.32 1259.66 Q2237.38 1255.91 2237.38 1249.8 Q2237.38 1243.69 2240.32 1239.94 Q2243.29 1236.19 2247.98 1236.19 Q2250.86 1236.19 2252.89 1237.33 Q2254.95 1238.44 2256.29 1240.75 M2241.78 1249.8 Q2241.78 1254.5 2243.7 1257.19 Q2245.65 1259.85 2249.03 1259.85 Q2252.41 1259.85 2254.35 1257.19 Q2256.29 1254.5 2256.29 1249.8 Q2256.29 1245.1 2254.35 1242.44 Q2252.41 1239.76 2249.03 1239.76 Q2245.65 1239.76 2243.7 1242.44 Q2241.78 1245.1 2241.78 1249.8 Z" fill="#000000" fill-rule="nonzero" fill-opacity="1" /><polyline clip-path="url(#clip260)" style="stroke:#e26f46; stroke-linecap:round; stroke-linejoin:round; stroke-width:4; stroke-opacity:1; fill:none" stroke-dasharray="16, 10" points="1866.89,1297.3 2005.19,1297.3 "/>
<path clip-path="url(#clip260)" d="M2035.65 1281.3 L2035.65 1288.66 L2044.42 1288.66 L2044.42 1291.97 L2035.65 1291.97 L2035.65 1306.04 Q2035.65 1309.21 2036.5 1310.11 Q2037.38 1311.02 2040.05 1311.02 L2044.42 1311.02 L2044.42 1314.58 L2040.05 1314.58 Q2035.12 1314.58 2033.24 1312.75 Q2031.37 1310.9 2031.37 1306.04 L2031.37 1291.97 L2028.24 1291.97 L2028.24 1288.66 L2031.37 1288.66 L2031.37 1281.3 L2035.65 1281.3 Z" fill="#000000" fill-rule="nonzero" fill-opacity="1" /><path clip-path="url(#clip260)" d="M2071.57 1298.93 L2071.57 1314.58 L2067.31 1314.58 L2067.31 1299.07 Q2067.31 1295.39 2065.88 1293.56 Q2064.44 1291.74 2061.57 1291.74 Q2058.12 1291.74 2056.13 1293.93 Q2054.14 1296.13 2054.14 1299.93 L2054.14 1314.58 L2049.86 1314.58 L2049.86 1278.56 L2054.14 1278.56 L2054.14 1292.68 Q2055.67 1290.35 2057.73 1289.19 Q2059.81 1288.03 2062.52 1288.03 Q2066.99 1288.03 2069.28 1290.81 Q2071.57 1293.56 2071.57 1298.93 Z" fill="#000000" fill-rule="nonzero" fill-opacity="1" /><path clip-path="url(#clip260)" d="M2102.24 1300.55 L2102.24 1302.64 L2082.66 1302.64 Q2082.94 1307.04 2085.3 1309.35 Q2087.68 1311.64 2091.92 1311.64 Q2094.37 1311.64 2096.67 1311.04 Q2098.98 1310.44 2101.25 1309.23 L2101.25 1313.26 Q2098.96 1314.23 2096.55 1314.74 Q2094.14 1315.25 2091.67 1315.25 Q2085.46 1315.25 2081.83 1311.64 Q2078.22 1308.03 2078.22 1301.87 Q2078.22 1295.51 2081.64 1291.78 Q2085.09 1288.03 2090.93 1288.03 Q2096.16 1288.03 2099.19 1291.41 Q2102.24 1294.77 2102.24 1300.55 M2097.99 1299.3 Q2097.94 1295.81 2096.02 1293.73 Q2094.12 1291.64 2090.97 1291.64 Q2087.41 1291.64 2085.25 1293.66 Q2083.12 1295.67 2082.8 1299.33 L2097.99 1299.3 Z" fill="#000000" fill-rule="nonzero" fill-opacity="1" /><path clip-path="url(#clip260)" d="M2119.28 1291.64 Q2115.86 1291.64 2113.87 1294.33 Q2111.87 1296.99 2111.87 1301.64 Q2111.87 1306.3 2113.84 1308.98 Q2115.83 1311.64 2119.28 1311.64 Q2122.68 1311.64 2124.68 1308.96 Q2126.67 1306.27 2126.67 1301.64 Q2126.67 1297.04 2124.68 1294.35 Q2122.68 1291.64 2119.28 1291.64 M2119.28 1288.03 Q2124.84 1288.03 2128.01 1291.64 Q2131.18 1295.25 2131.18 1301.64 Q2131.18 1308.01 2128.01 1311.64 Q2124.84 1315.25 2119.28 1315.25 Q2113.7 1315.25 2110.53 1311.64 Q2107.38 1308.01 2107.38 1301.64 Q2107.38 1295.25 2110.53 1291.64 Q2113.7 1288.03 2119.28 1288.03 Z" fill="#000000" fill-rule="nonzero" fill-opacity="1" /><path clip-path="url(#clip260)" d="M2153.26 1292.64 Q2152.55 1292.22 2151.69 1292.04 Q2150.86 1291.83 2149.84 1291.83 Q2146.23 1291.83 2144.28 1294.19 Q2142.36 1296.53 2142.36 1300.92 L2142.36 1314.58 L2138.08 1314.58 L2138.08 1288.66 L2142.36 1288.66 L2142.36 1292.68 Q2143.7 1290.32 2145.86 1289.19 Q2148.01 1288.03 2151.09 1288.03 Q2151.53 1288.03 2152.06 1288.1 Q2152.59 1288.15 2153.24 1288.26 L2153.26 1292.64 Z" fill="#000000" fill-rule="nonzero" fill-opacity="1" /><path clip-path="url(#clip260)" d="M2168.52 1316.99 Q2166.71 1321.62 2165 1323.03 Q2163.29 1324.44 2160.42 1324.44 L2157.01 1324.44 L2157.01 1320.88 L2159.51 1320.88 Q2161.27 1320.88 2162.24 1320.05 Q2163.22 1319.21 2164.4 1316.11 L2165.16 1314.17 L2154.67 1288.66 L2159.19 1288.66 L2167.29 1308.93 L2175.39 1288.66 L2179.91 1288.66 L2168.52 1316.99 Z" fill="#000000" fill-rule="nonzero" fill-opacity="1" /></svg>
