<?xml version="1.0" encoding="utf-8"?>
<svg xmlns="http://www.w3.org/2000/svg" xmlns:xlink="http://www.w3.org/1999/xlink" width="600" height="400" viewBox="0 0 2400 1600">
<defs>
  <clipPath id="clip140">
    <rect x="0" y="0" width="2400" height="1600"/>
  </clipPath>
</defs>
<path clip-path="url(#clip140)" d="M0 1600 L2400 1600 L2400 0 L0 0  Z" fill="#ffffff" fill-rule="evenodd" fill-opacity="1"/>
<defs>
  <clipPath id="clip141">
    <rect x="480" y="0" width="1681" height="1600"/>
  </clipPath>
</defs>
<path clip-path="url(#clip140)" d="M202.714 1423.18 L2352.76 1423.18 L2352.76 47.2441 L202.714 47.2441  Z" fill="#ffffff" fill-rule="evenodd" fill-opacity="1"/>
<defs>
  <clipPath id="clip142">
    <rect x="202" y="47" width="2151" height="1377"/>
  </clipPath>
</defs>
<polyline clip-path="url(#clip142)" style="stroke:#000000; stroke-linecap:round; stroke-linejoin:round; stroke-width:2; stroke-opacity:0.1; fill:none" points="263.564,1423.18 263.564,47.2441 "/>
<polyline clip-path="url(#clip142)" style="stroke:#000000; stroke-linecap:round; stroke-linejoin:round; stroke-width:2; stroke-opacity:0.1; fill:none" points="770.649,1423.18 770.649,47.2441 "/>
<polyline clip-path="url(#clip142)" style="stroke:#000000; stroke-linecap:round; stroke-linejoin:round; stroke-width:2; stroke-opacity:0.1; fill:none" points="1277.73,1423.18 1277.73,47.2441 "/>
<polyline clip-path="url(#clip142)" style="stroke:#000000; stroke-linecap:round; stroke-linejoin:round; stroke-width:2; stroke-opacity:0.1; fill:none" points="1784.82,1423.18 1784.82,47.2441 "/>
<polyline clip-path="url(#clip142)" style="stroke:#000000; stroke-linecap:round; stroke-linejoin:round; stroke-width:2; stroke-opacity:0.1; fill:none" points="2291.91,1423.18 2291.91,47.2441 "/>
<polyline clip-path="url(#clip142)" style="stroke:#000000; stroke-linecap:round; stroke-linejoin:round; stroke-width:2; stroke-opacity:0.1; fill:none" points="202.714,1216.59 2352.76,1216.59 "/>
<polyline clip-path="url(#clip142)" style="stroke:#000000; stroke-linecap:round; stroke-linejoin:round; stroke-width:2; stroke-opacity:0.1; fill:none" points="202.714,876.604 2352.76,876.604 "/>
<polyline clip-path="url(#clip142)" style="stroke:#000000; stroke-linecap:round; stroke-linejoin:round; stroke-width:2; stroke-opacity:0.1; fill:none" points="202.714,536.619 2352.76,536.619 "/>
<polyline clip-path="url(#clip142)" style="stroke:#000000; stroke-linecap:round; stroke-linejoin:round; stroke-width:2; stroke-opacity:0.1; fill:none" points="202.714,196.635 2352.76,196.635 "/>
<polyline clip-path="url(#clip140)" style="stroke:#000000; stroke-linecap:round; stroke-linejoin:round; stroke-width:4; stroke-opacity:1; fill:none" points="202.714,1423.18 2352.76,1423.18 "/>
<polyline clip-path="url(#clip140)" style="stroke:#000000; stroke-linecap:round; stroke-linejoin:round; stroke-width:4; stroke-opacity:1; fill:none" points="263.564,1423.18 263.564,1404.28 "/>
<polyline clip-path="url(#clip140)" style="stroke:#000000; stroke-linecap:round; stroke-linejoin:round; stroke-width:4; stroke-opacity:1; fill:none" points="770.649,1423.18 770.649,1404.28 "/>
<polyline clip-path="url(#clip140)" style="stroke:#000000; stroke-linecap:round; stroke-linejoin:round; stroke-width:4; stroke-opacity:1; fill:none" points="1277.73,1423.18 1277.73,1404.28 "/>
<polyline clip-path="url(#clip140)" style="stroke:#000000; stroke-linecap:round; stroke-linejoin:round; stroke-width:4; stroke-opacity:1; fill:none" points="1784.82,1423.18 1784.82,1404.28 "/>
<polyline clip-path="url(#clip140)" style="stroke:#000000; stroke-linecap:round; stroke-linejoin:round; stroke-width:4; stroke-opacity:1; fill:none" points="2291.91,1423.18 2291.91,1404.28 "/>
<path clip-path="url(#clip140)" d="M225.867 1454.1 Q222.256 1454.1 220.427 1457.66 Q218.622 1461.2 218.622 1468.33 Q218.622 1475.44 220.427 1479.01 Q222.256 1482.55 225.867 1482.55 Q229.502 1482.55 231.307 1479.01 Q233.136 1475.44 233.136 1468.33 Q233.136 1461.2 231.307 1457.66 Q229.502 1454.1 225.867 1454.1 M225.867 1450.39 Q231.677 1450.39 234.733 1455 Q237.812 1459.58 237.812 1468.33 Q237.812 1477.06 234.733 1481.67 Q231.677 1486.25 225.867 1486.25 Q220.057 1486.25 216.978 1481.67 Q213.923 1477.06 213.923 1468.33 Q213.923 1459.58 216.978 1455 Q220.057 1450.39 225.867 1450.39 Z" fill="#000000" fill-rule="nonzero" fill-opacity="1" /><path clip-path="url(#clip140)" d="M246.029 1479.7 L250.913 1479.7 L250.913 1485.58 L246.029 1485.58 L246.029 1479.7 Z" fill="#000000" fill-rule="nonzero" fill-opacity="1" /><path clip-path="url(#clip140)" d="M271.099 1454.1 Q267.487 1454.1 265.659 1457.66 Q263.853 1461.2 263.853 1468.33 Q263.853 1475.44 265.659 1479.01 Q267.487 1482.55 271.099 1482.55 Q274.733 1482.55 276.538 1479.01 Q278.367 1475.44 278.367 1468.33 Q278.367 1461.2 276.538 1457.66 Q274.733 1454.1 271.099 1454.1 M271.099 1450.39 Q276.909 1450.39 279.964 1455 Q283.043 1459.58 283.043 1468.33 Q283.043 1477.06 279.964 1481.67 Q276.909 1486.25 271.099 1486.25 Q265.288 1486.25 262.21 1481.67 Q259.154 1477.06 259.154 1468.33 Q259.154 1459.58 262.21 1455 Q265.288 1450.39 271.099 1450.39 Z" fill="#000000" fill-rule="nonzero" fill-opacity="1" /><path clip-path="url(#clip140)" d="M301.26 1454.1 Q297.649 1454.1 295.821 1457.66 Q294.015 1461.2 294.015 1468.33 Q294.015 1475.44 295.821 1479.01 Q297.649 1482.55 301.26 1482.55 Q304.895 1482.55 306.7 1479.01 Q308.529 1475.44 308.529 1468.33 Q308.529 1461.2 306.7 1457.66 Q304.895 1454.1 301.26 1454.1 M301.26 1450.39 Q307.071 1450.39 310.126 1455 Q313.205 1459.58 313.205 1468.33 Q313.205 1477.06 310.126 1481.67 Q307.071 1486.25 301.26 1486.25 Q295.45 1486.25 292.372 1481.67 Q289.316 1477.06 289.316 1468.33 Q289.316 1459.58 292.372 1455 Q295.45 1450.39 301.26 1450.39 Z" fill="#000000" fill-rule="nonzero" fill-opacity="1" /><path clip-path="url(#clip140)" d="M733.45 1454.1 Q729.839 1454.1 728.011 1457.66 Q726.205 1461.2 726.205 1468.33 Q726.205 1475.44 728.011 1479.01 Q729.839 1482.55 733.45 1482.55 Q737.085 1482.55 738.89 1479.01 Q740.719 1475.44 740.719 1468.33 Q740.719 1461.2 738.89 1457.66 Q737.085 1454.1 733.45 1454.1 M733.45 1450.39 Q739.261 1450.39 742.316 1455 Q745.395 1459.58 745.395 1468.33 Q745.395 1477.06 742.316 1481.67 Q739.261 1486.25 733.45 1486.25 Q727.64 1486.25 724.562 1481.67 Q721.506 1477.06 721.506 1468.33 Q721.506 1459.58 724.562 1455 Q727.64 1450.39 733.45 1450.39 Z" fill="#000000" fill-rule="nonzero" fill-opacity="1" /><path clip-path="url(#clip140)" d="M753.612 1479.7 L758.497 1479.7 L758.497 1485.58 L753.612 1485.58 L753.612 1479.7 Z" fill="#000000" fill-rule="nonzero" fill-opacity="1" /><path clip-path="url(#clip140)" d="M772.709 1481.64 L789.029 1481.64 L789.029 1485.58 L767.084 1485.58 L767.084 1481.64 Q769.747 1478.89 774.33 1474.26 Q778.936 1469.61 780.117 1468.27 Q782.362 1465.74 783.242 1464.01 Q784.145 1462.25 784.145 1460.56 Q784.145 1457.8 782.2 1456.07 Q780.279 1454.33 777.177 1454.33 Q774.978 1454.33 772.524 1455.09 Q770.094 1455.86 767.316 1457.41 L767.316 1452.69 Q770.14 1451.55 772.594 1450.97 Q775.047 1450.39 777.084 1450.39 Q782.455 1450.39 785.649 1453.08 Q788.844 1455.77 788.844 1460.26 Q788.844 1462.39 788.033 1464.31 Q787.246 1466.2 785.14 1468.8 Q784.561 1469.47 781.459 1472.69 Q778.358 1475.88 772.709 1481.64 Z" fill="#000000" fill-rule="nonzero" fill-opacity="1" /><path clip-path="url(#clip140)" d="M798.89 1451.02 L817.246 1451.02 L817.246 1454.96 L803.172 1454.96 L803.172 1463.43 Q804.191 1463.08 805.209 1462.92 Q806.228 1462.73 807.246 1462.73 Q813.033 1462.73 816.413 1465.9 Q819.793 1469.08 819.793 1474.49 Q819.793 1480.07 816.32 1483.17 Q812.848 1486.25 806.529 1486.25 Q804.353 1486.25 802.084 1485.88 Q799.839 1485.51 797.432 1484.77 L797.432 1480.07 Q799.515 1481.2 801.737 1481.76 Q803.959 1482.32 806.436 1482.32 Q810.441 1482.32 812.779 1480.21 Q815.117 1478.1 815.117 1474.49 Q815.117 1470.88 812.779 1468.77 Q810.441 1466.67 806.436 1466.67 Q804.561 1466.67 802.686 1467.08 Q800.834 1467.5 798.89 1468.38 L798.89 1451.02 Z" fill="#000000" fill-rule="nonzero" fill-opacity="1" /><path clip-path="url(#clip140)" d="M1240.04 1454.1 Q1236.43 1454.1 1234.6 1457.66 Q1232.79 1461.2 1232.79 1468.33 Q1232.79 1475.44 1234.6 1479.01 Q1236.43 1482.55 1240.04 1482.55 Q1243.67 1482.55 1245.48 1479.01 Q1247.31 1475.44 1247.31 1468.33 Q1247.31 1461.2 1245.48 1457.66 Q1243.67 1454.1 1240.04 1454.1 M1240.04 1450.39 Q1245.85 1450.39 1248.9 1455 Q1251.98 1459.58 1251.98 1468.33 Q1251.98 1477.06 1248.9 1481.67 Q1245.85 1486.25 1240.04 1486.25 Q1234.23 1486.25 1231.15 1481.67 Q1228.09 1477.06 1228.09 1468.33 Q1228.09 1459.58 1231.15 1455 Q1234.23 1450.39 1240.04 1450.39 Z" fill="#000000" fill-rule="nonzero" fill-opacity="1" /><path clip-path="url(#clip140)" d="M1260.2 1479.7 L1265.08 1479.7 L1265.08 1485.58 L1260.2 1485.58 L1260.2 1479.7 Z" fill="#000000" fill-rule="nonzero" fill-opacity="1" /><path clip-path="url(#clip140)" d="M1275.32 1451.02 L1293.67 1451.02 L1293.67 1454.96 L1279.6 1454.96 L1279.6 1463.43 Q1280.62 1463.08 1281.64 1462.92 Q1282.65 1462.73 1283.67 1462.73 Q1289.46 1462.73 1292.84 1465.9 Q1296.22 1469.08 1296.22 1474.49 Q1296.22 1480.07 1292.75 1483.17 Q1289.27 1486.25 1282.95 1486.25 Q1280.78 1486.25 1278.51 1485.88 Q1276.26 1485.51 1273.86 1484.77 L1273.86 1480.07 Q1275.94 1481.2 1278.16 1481.76 Q1280.39 1482.32 1282.86 1482.32 Q1286.87 1482.32 1289.2 1480.21 Q1291.54 1478.1 1291.54 1474.49 Q1291.54 1470.88 1289.2 1468.77 Q1286.87 1466.67 1282.86 1466.67 Q1280.99 1466.67 1279.11 1467.08 Q1277.26 1467.5 1275.32 1468.38 L1275.32 1451.02 Z" fill="#000000" fill-rule="nonzero" fill-opacity="1" /><path clip-path="url(#clip140)" d="M1315.43 1454.1 Q1311.82 1454.1 1309.99 1457.66 Q1308.19 1461.2 1308.19 1468.33 Q1308.19 1475.44 1309.99 1479.01 Q1311.82 1482.55 1315.43 1482.55 Q1319.07 1482.55 1320.87 1479.01 Q1322.7 1475.44 1322.7 1468.33 Q1322.7 1461.2 1320.87 1457.66 Q1319.07 1454.1 1315.43 1454.1 M1315.43 1450.39 Q1321.24 1450.39 1324.3 1455 Q1327.38 1459.58 1327.38 1468.33 Q1327.38 1477.06 1324.3 1481.67 Q1321.24 1486.25 1315.43 1486.25 Q1309.62 1486.25 1306.54 1481.67 Q1303.49 1477.06 1303.49 1468.33 Q1303.49 1459.58 1306.54 1455 Q1309.62 1450.39 1315.43 1450.39 Z" fill="#000000" fill-rule="nonzero" fill-opacity="1" /><path clip-path="url(#clip140)" d="M1747.62 1454.1 Q1744.01 1454.1 1742.18 1457.66 Q1740.38 1461.2 1740.38 1468.33 Q1740.38 1475.44 1742.18 1479.01 Q1744.01 1482.55 1747.62 1482.55 Q1751.26 1482.55 1753.06 1479.01 Q1754.89 1475.44 1754.89 1468.33 Q1754.89 1461.2 1753.06 1457.66 Q1751.26 1454.1 1747.62 1454.1 M1747.62 1450.39 Q1753.43 1450.39 1756.49 1455 Q1759.57 1459.58 1759.57 1468.33 Q1759.57 1477.06 1756.49 1481.67 Q1753.43 1486.25 1747.62 1486.25 Q1741.81 1486.25 1738.73 1481.67 Q1735.68 1477.06 1735.68 1468.33 Q1735.68 1459.58 1738.73 1455 Q1741.81 1450.39 1747.62 1450.39 Z" fill="#000000" fill-rule="nonzero" fill-opacity="1" /><path clip-path="url(#clip140)" d="M1767.78 1479.7 L1772.67 1479.7 L1772.67 1485.58 L1767.78 1485.58 L1767.78 1479.7 Z" fill="#000000" fill-rule="nonzero" fill-opacity="1" /><path clip-path="url(#clip140)" d="M1781.67 1451.02 L1803.89 1451.02 L1803.89 1453.01 L1791.35 1485.58 L1786.46 1485.58 L1798.27 1454.96 L1781.67 1454.96 L1781.67 1451.02 Z" fill="#000000" fill-rule="nonzero" fill-opacity="1" /><path clip-path="url(#clip140)" d="M1813.06 1451.02 L1831.42 1451.02 L1831.42 1454.96 L1817.34 1454.96 L1817.34 1463.43 Q1818.36 1463.08 1819.38 1462.92 Q1820.4 1462.73 1821.42 1462.73 Q1827.2 1462.73 1830.58 1465.9 Q1833.96 1469.08 1833.96 1474.49 Q1833.96 1480.07 1830.49 1483.17 Q1827.02 1486.25 1820.7 1486.25 Q1818.52 1486.25 1816.26 1485.88 Q1814.01 1485.51 1811.6 1484.77 L1811.6 1480.07 Q1813.69 1481.2 1815.91 1481.76 Q1818.13 1482.32 1820.61 1482.32 Q1824.61 1482.32 1826.95 1480.21 Q1829.29 1478.1 1829.29 1474.49 Q1829.29 1470.88 1826.95 1468.77 Q1824.61 1466.67 1820.61 1466.67 Q1818.73 1466.67 1816.86 1467.08 Q1815.01 1467.5 1813.06 1468.38 L1813.06 1451.02 Z" fill="#000000" fill-rule="nonzero" fill-opacity="1" /><path clip-path="url(#clip140)" d="M2243.98 1481.64 L2251.62 1481.64 L2251.62 1455.28 L2243.31 1456.95 L2243.31 1452.69 L2251.57 1451.02 L2256.25 1451.02 L2256.25 1481.64 L2263.88 1481.64 L2263.88 1485.58 L2243.98 1485.58 L2243.98 1481.64 Z" fill="#000000" fill-rule="nonzero" fill-opacity="1" /><path clip-path="url(#clip140)" d="M2273.33 1479.7 L2278.21 1479.7 L2278.21 1485.58 L2273.33 1485.58 L2273.33 1479.7 Z" fill="#000000" fill-rule="nonzero" fill-opacity="1" /><path clip-path="url(#clip140)" d="M2298.4 1454.1 Q2294.79 1454.1 2292.96 1457.66 Q2291.15 1461.2 2291.15 1468.33 Q2291.15 1475.44 2292.96 1479.01 Q2294.79 1482.55 2298.4 1482.55 Q2302.03 1482.55 2303.84 1479.01 Q2305.67 1475.44 2305.67 1468.33 Q2305.67 1461.2 2303.84 1457.66 Q2302.03 1454.1 2298.4 1454.1 M2298.4 1450.39 Q2304.21 1450.39 2307.26 1455 Q2310.34 1459.58 2310.34 1468.33 Q2310.34 1477.06 2307.26 1481.67 Q2304.21 1486.25 2298.4 1486.25 Q2292.59 1486.25 2289.51 1481.67 Q2286.45 1477.06 2286.45 1468.33 Q2286.45 1459.58 2289.51 1455 Q2292.59 1450.39 2298.4 1450.39 Z" fill="#000000" fill-rule="nonzero" fill-opacity="1" /><path clip-path="url(#clip140)" d="M2328.56 1454.1 Q2324.95 1454.1 2323.12 1457.66 Q2321.32 1461.2 2321.32 1468.33 Q2321.32 1475.44 2323.12 1479.01 Q2324.95 1482.55 2328.56 1482.55 Q2332.19 1482.55 2334 1479.01 Q2335.83 1475.44 2335.83 1468.33 Q2335.83 1461.2 2334 1457.66 Q2332.19 1454.1 2328.56 1454.1 M2328.56 1450.39 Q2334.37 1450.39 2337.43 1455 Q2340.5 1459.58 2340.5 1468.33 Q2340.5 1477.06 2337.43 1481.67 Q2334.37 1486.25 2328.56 1486.25 Q2322.75 1486.25 2319.67 1481.67 Q2316.62 1477.06 2316.62 1468.33 Q2316.62 1459.58 2319.67 1455 Q2322.75 1450.39 2328.56 1450.39 Z" fill="#000000" fill-rule="nonzero" fill-opacity="1" /><path clip-path="url(#clip140)" d="M1286.21 1531.91 Q1286.21 1532.81 1285.79 1533.04 Q1285.37 1533.23 1284.21 1533.23 L1278.03 1533.23 L1273.13 1552.69 Q1272.74 1554.39 1272.74 1555.84 Q1272.74 1557.45 1273.23 1558.16 Q1273.74 1558.87 1274.8 1558.87 Q1276.9 1558.87 1279.15 1556.97 Q1281.44 1555.07 1283.37 1550.43 Q1283.63 1549.82 1283.76 1549.69 Q1283.92 1549.53 1284.34 1549.53 Q1285.14 1549.53 1285.14 1550.17 Q1285.14 1550.4 1284.69 1551.43 Q1284.27 1552.46 1283.34 1553.97 Q1282.44 1555.49 1281.25 1556.9 Q1280.09 1558.32 1278.32 1559.35 Q1276.54 1560.35 1274.64 1560.35 Q1271.97 1560.35 1270.26 1558.64 Q1268.59 1556.94 1268.59 1554.26 Q1268.59 1553.39 1269.27 1550.62 Q1269.94 1547.82 1273.61 1533.23 L1267.78 1533.23 Q1266.98 1533.23 1266.66 1533.2 Q1266.37 1533.17 1266.14 1533.01 Q1265.95 1532.81 1265.95 1532.43 Q1265.95 1531.82 1266.21 1531.56 Q1266.46 1531.27 1266.79 1531.24 Q1267.14 1531.17 1267.95 1531.17 L1274.13 1531.17 L1276.71 1520.71 Q1276.96 1519.67 1277.61 1519.09 Q1278.28 1518.48 1278.67 1518.42 Q1279.06 1518.32 1279.35 1518.32 Q1280.22 1518.32 1280.73 1518.81 Q1281.25 1519.26 1281.25 1520.09 Q1281.25 1520.54 1278.54 1531.17 L1284.34 1531.17 Q1285.08 1531.17 1285.37 1531.2 Q1285.69 1531.24 1285.95 1531.4 Q1286.21 1531.56 1286.21 1531.91 Z" fill="#000000" fill-rule="nonzero" fill-opacity="1" /><polyline clip-path="url(#clip140)" style="stroke:#000000; stroke-linecap:round; stroke-linejoin:round; stroke-width:4; stroke-opacity:1; fill:none" points="202.714,1423.18 202.714,47.2441 "/>
<polyline clip-path="url(#clip140)" style="stroke:#000000; stroke-linecap:round; stroke-linejoin:round; stroke-width:4; stroke-opacity:1; fill:none" points="202.714,1216.59 221.611,1216.59 "/>
<polyline clip-path="url(#clip140)" style="stroke:#000000; stroke-linecap:round; stroke-linejoin:round; stroke-width:4; stroke-opacity:1; fill:none" points="202.714,876.604 221.611,876.604 "/>
<polyline clip-path="url(#clip140)" style="stroke:#000000; stroke-linecap:round; stroke-linejoin:round; stroke-width:4; stroke-opacity:1; fill:none" points="202.714,536.619 221.611,536.619 "/>
<polyline clip-path="url(#clip140)" style="stroke:#000000; stroke-linecap:round; stroke-linejoin:round; stroke-width:4; stroke-opacity:1; fill:none" points="202.714,196.635 221.611,196.635 "/>
<path clip-path="url(#clip140)" d="M154.862 1217.46 Q151.528 1217.46 149.607 1219.24 Q147.709 1221.02 147.709 1224.15 Q147.709 1227.27 149.607 1229.05 Q151.528 1230.84 154.862 1230.84 Q158.195 1230.84 160.116 1229.05 Q162.038 1227.25 162.038 1224.15 Q162.038 1221.02 160.116 1219.24 Q158.218 1217.46 154.862 1217.46 M150.186 1215.47 Q147.177 1214.73 145.487 1212.67 Q143.82 1210.61 143.82 1207.64 Q143.82 1203.5 146.76 1201.09 Q149.723 1198.68 154.862 1198.68 Q160.024 1198.68 162.964 1201.09 Q165.903 1203.5 165.903 1207.64 Q165.903 1210.61 164.214 1212.67 Q162.547 1214.73 159.561 1215.47 Q162.94 1216.25 164.815 1218.54 Q166.714 1220.84 166.714 1224.15 Q166.714 1229.17 163.635 1231.85 Q160.579 1234.54 154.862 1234.54 Q149.144 1234.54 146.066 1231.85 Q143.01 1229.17 143.01 1224.15 Q143.01 1220.84 144.908 1218.54 Q146.806 1216.25 150.186 1215.47 M148.473 1208.08 Q148.473 1210.77 150.14 1212.27 Q151.829 1213.78 154.862 1213.78 Q157.871 1213.78 159.561 1212.27 Q161.274 1210.77 161.274 1208.08 Q161.274 1205.4 159.561 1203.89 Q157.871 1202.39 154.862 1202.39 Q151.829 1202.39 150.14 1203.89 Q148.473 1205.4 148.473 1208.08 Z" fill="#000000" fill-rule="nonzero" fill-opacity="1" /><path clip-path="url(#clip140)" d="M115.418 889.949 L123.056 889.949 L123.056 863.583 L114.746 865.25 L114.746 860.991 L123.01 859.324 L127.686 859.324 L127.686 889.949 L135.325 889.949 L135.325 893.884 L115.418 893.884 L115.418 889.949 Z" fill="#000000" fill-rule="nonzero" fill-opacity="1" /><path clip-path="url(#clip140)" d="M154.769 862.403 Q151.158 862.403 149.329 865.968 Q147.524 869.509 147.524 876.639 Q147.524 883.745 149.329 887.31 Q151.158 890.852 154.769 890.852 Q158.403 890.852 160.209 887.31 Q162.038 883.745 162.038 876.639 Q162.038 869.509 160.209 865.968 Q158.403 862.403 154.769 862.403 M154.769 858.699 Q160.579 858.699 163.635 863.306 Q166.714 867.889 166.714 876.639 Q166.714 885.366 163.635 889.972 Q160.579 894.555 154.769 894.555 Q148.959 894.555 145.88 889.972 Q142.825 885.366 142.825 876.639 Q142.825 867.889 145.88 863.306 Q148.959 858.699 154.769 858.699 Z" fill="#000000" fill-rule="nonzero" fill-opacity="1" /><path clip-path="url(#clip140)" d="M117.015 549.964 L124.654 549.964 L124.654 523.599 L116.343 525.265 L116.343 521.006 L124.607 519.339 L129.283 519.339 L129.283 549.964 L136.922 549.964 L136.922 553.899 L117.015 553.899 L117.015 549.964 Z" fill="#000000" fill-rule="nonzero" fill-opacity="1" /><path clip-path="url(#clip140)" d="M150.394 549.964 L166.714 549.964 L166.714 553.899 L144.769 553.899 L144.769 549.964 Q147.431 547.21 152.015 542.58 Q156.621 537.927 157.802 536.585 Q160.047 534.062 160.927 532.325 Q161.829 530.566 161.829 528.876 Q161.829 526.122 159.885 524.386 Q157.964 522.65 154.862 522.65 Q152.663 522.65 150.209 523.413 Q147.778 524.177 145.001 525.728 L145.001 521.006 Q147.825 519.872 150.278 519.293 Q152.732 518.714 154.769 518.714 Q160.14 518.714 163.334 521.4 Q166.528 524.085 166.528 528.575 Q166.528 530.705 165.718 532.626 Q164.931 534.524 162.825 537.117 Q162.246 537.788 159.144 541.006 Q156.042 544.2 150.394 549.964 Z" fill="#000000" fill-rule="nonzero" fill-opacity="1" /><path clip-path="url(#clip140)" d="M114.931 209.979 L122.57 209.979 L122.57 183.614 L114.26 185.281 L114.26 181.021 L122.524 179.355 L127.2 179.355 L127.2 209.979 L134.839 209.979 L134.839 213.915 L114.931 213.915 L114.931 209.979 Z" fill="#000000" fill-rule="nonzero" fill-opacity="1" /><path clip-path="url(#clip140)" d="M157.13 183.429 L145.325 201.878 L157.13 201.878 L157.13 183.429 M155.903 179.355 L161.783 179.355 L161.783 201.878 L166.714 201.878 L166.714 205.767 L161.783 205.767 L161.783 213.915 L157.13 213.915 L157.13 205.767 L141.529 205.767 L141.529 201.253 L155.903 179.355 Z" fill="#000000" fill-rule="nonzero" fill-opacity="1" /><path clip-path="url(#clip140)" d="M30.8561 720.775 Q31.307 720.775 32.3698 721.064 L57.5548 727.377 Q63.1586 728.762 67.0877 733.27 Q71.0168 737.747 71.0168 742.836 Q71.0168 745.895 69.3743 747.86 Q67.764 749.824 65.2842 749.824 Q63.0942 749.824 62.0314 748.665 Q61.0008 747.505 61.0008 746.121 Q61.0008 745.67 61.1296 745.187 Q61.2584 744.703 61.8059 744.188 Q62.3534 743.673 63.2874 743.673 Q64.8011 743.673 65.9927 744.993 Q66.5402 745.637 66.669 746.249 Q66.7978 746.829 66.7978 747.827 Q67.6996 747.441 68.3115 746.732 Q68.9234 746.024 69.1489 745.219 Q69.4065 744.414 69.4709 743.898 Q69.5675 743.351 69.5675 742.836 Q69.5675 738.713 65.413 735.557 Q64.157 734.623 62.9009 733.947 Q61.6771 733.238 60.1634 732.723 Q58.682 732.208 57.8768 731.982 Q57.0717 731.725 55.2359 731.274 Q58.2311 734.269 58.2311 737.94 Q58.2311 739.486 57.8124 740.871 Q57.3937 742.224 56.5242 743.415 Q55.6224 744.607 54.0443 745.315 Q52.4662 745.992 50.3728 745.992 Q48.1506 745.992 45.1233 745.122 Q42.0959 744.253 36.5243 742.159 Q33.4004 741.032 31.8867 741.032 Q31.146 741.032 30.6951 741.193 Q30.212 741.354 30.051 741.676 Q29.8577 741.998 29.8255 742.191 Q29.7933 742.352 29.7933 742.675 Q29.7933 744.575 31.7257 746.346 Q33.658 748.117 37.9736 749.341 Q38.7787 749.599 38.972 749.76 Q39.1652 749.921 39.1652 750.404 Q39.133 751.209 38.4889 751.209 Q38.2312 751.209 37.2329 750.919 Q36.2023 750.629 34.6886 749.953 Q33.1427 749.245 31.7579 748.278 Q30.3408 747.312 29.3424 745.798 Q28.344 744.253 28.344 742.481 Q28.344 740.066 29.9221 738.584 Q31.468 737.071 33.7546 737.071 Q34.6886 737.071 35.5259 737.328 Q36.3311 737.554 38.4889 738.391 Q47.1845 741.773 51.4356 741.773 Q52.4662 741.773 53.3358 741.612 Q54.1731 741.418 55.0105 741 Q55.8156 740.581 56.2987 739.744 Q56.7496 738.874 56.7496 737.683 Q56.7496 736.169 56.0411 734.752 Q55.3003 733.303 54.302 732.401 Q53.3036 731.467 52.4662 730.919 Q51.5967 730.34 51.1458 730.211 L39.294 727.248 L34.0123 725.927 Q31.146 725.316 30.4374 725.026 Q29.7611 724.639 29.4068 723.963 Q29.0526 723.287 29.0526 722.707 Q29.0526 721.902 29.5357 721.354 Q30.0187 720.775 30.8561 720.775 Z" fill="#000000" fill-rule="nonzero" fill-opacity="1" /><polyline clip-path="url(#clip142)" style="stroke:#ff7e0d; stroke-linecap:round; stroke-linejoin:round; stroke-width:8; stroke-opacity:1; fill:none" stroke-dasharray="32, 20" points="263.564,1019.4 267.525,1004.55 271.487,1001.57 275.449,998.601 279.41,993.712 283.372,988.811 287.333,985.415 291.295,985.55 295.257,984.938 299.218,983.72 303.18,988.228 307.141,988.589 311.103,987.427 315.065,988.041 319.026,992.729 322.988,996.115 326.95,1000.74 330.911,1003.24 334.873,1005.56 338.834,1009.36 342.796,914.72 346.758,916.022 350.719,920.786 354.681,923.655 358.642,923.865 362.604,919.491 366.566,920.078 370.527,923.92 374.489,925.771 378.45,927.704 382.412,931.199 386.374,933.479 390.335,934.098 394.297,935.158 398.258,934.346 402.22,935.634 406.182,938.996 410.143,949.845 414.105,960.139 418.066,966.189 422.028,968.606 425.99,976.99 429.951,979.888 433.913,979.671 437.874,982.23 441.836,984.222 445.798,987.718 449.759,995.711 453.721,1005.88 457.682,1019.95 461.644,1027.83 465.606,1032.95 469.567,1042.62 473.529,1047.92 477.491,1055.31 481.452,1056.41 485.414,1065.6 489.375,1067.38 493.337,1081.07 497.299,1088.51 501.26,1092.36 505.222,1105.77 509.183,1116.17 513.145,1130.26 517.107,1145.03 521.068,1173.39 525.03,1191.89 528.991,1205.06 532.953,1215 536.915,1226.37 540.876,1232.39 544.838,1245.6 548.799,1250.16 552.761,1247.91 556.723,1245.77 560.684,1240.58 564.646,1241.93 568.607,1247.02 572.569,1249.57 576.531,1251.01 580.492,1242.04 584.454,1262.29 588.415,1265.61 592.377,1266.57 596.339,1280.75 600.3,1272.94 604.262,1265.93 608.223,1270.9 612.185,1275.45 616.147,1276.52 620.108,1274.21 624.07,1285.02 628.032,1283.71 631.993,1295.14 635.955,1287.23 639.916,1289.71 643.878,1295.75 647.84,1299.91 651.801,1306.37 655.763,1306.97 659.724,1301.35 663.686,1308.47 667.648,1315.15 671.609,1311.52 675.571,1311.11 679.532,1319.9 683.494,1321.64 687.456,1320.24 691.417,1312.4 695.379,1309.99 699.34,1314.16 703.302,1302.62 707.264,1293.59 711.225,1292.12 715.187,1304.99 719.148,1299.36 723.11,1274.52 727.072,1282.77 731.033,1282.55 734.995,1261.02 738.956,1272.02 742.918,1289.06 746.88,1297.82 750.841,1295.36 754.803,1283.17 758.764,1286.43 762.726,1280.19 766.688,1291.32 770.649,1312.9 774.611,1334.11 778.572,1346.1 782.534,1353.98 786.496,1367.86 790.457,1366.38 794.419,1359.55 798.381,1349.06 802.342,1346.82 806.304,1346.18 810.265,1342.43 814.227,1351.67 818.189,1360.84 822.15,1361.69 826.112,1375.29 830.073,1381.81 834.035,1384.24 837.997,1374.1 841.958,1377.41 845.92,1372.05 849.881,1371.63 853.843,1353.37 857.805,1357.3 861.766,1372.14 865.728,1363.72 869.689,1356.2 873.651,1336.78 877.613,1333.48 881.574,1327.66 885.536,1320.46 889.497,1314.22 893.459,1298.42 897.421,1317.31 901.382,1329.57 905.344,1326.61 909.305,1319.28 913.267,1312.85 917.229,1310.16 921.19,1294.71 925.152,1288.61 929.113,1262.3 933.075,1267.87 937.037,1262.53 940.998,1275.84 944.96,1267.01 948.922,1237.2 952.883,1236.39 956.845,1234.32 960.806,1234.76 964.768,1255.8 968.73,1284.54 972.691,1308.28 976.653,1321.75 980.614,1333.26 984.576,1333.82 988.538,1338.87 992.499,1344.66 996.461,1331.16 1000.42,1308.43 1004.38,1315.29 1008.35,1295.5 1012.31,1282.08 1016.27,1268.96 1020.23,1260.27 1024.19,1260.76 1028.15,1262.58 1032.12,1256 1036.08,1270.46 1040.04,1253.78 1044,1239.68 1047.96,1252.67 1051.92,918.549 1055.88,958.898 1059.85,954.027 1063.81,954.372 1067.77,928.745 1071.73,943.423 1075.69,929.948 1079.65,947.013 1083.62,937.87 1087.58,947.678 1091.54,928.014 1095.5,948.919 1099.46,936.876 1103.42,917.47 1107.39,927.957 1111.35,915.256 1115.31,899.87 1119.27,892.519 1123.23,886.66 1127.19,874.72 1131.16,876.325 1135.12,894.389 1139.08,884.885 1143.04,761.408 1147,771.079 1150.96,775.254 1154.92,763.49 1158.89,773.909 1162.85,781.396 1166.81,790.587 1170.77,806.668 1174.73,821.324 1178.69,815.37 1182.66,816.65 1186.62,804.071 1190.58,802.23 1194.54,801.778 1198.5,799.386 1202.46,776.764 1206.43,772.443 1210.39,782.068 1214.35,776.61 1218.31,766.596 1222.27,793.714 1226.23,814.874 1230.2,824.589 1234.16,811.59 1238.12,819.893 1242.08,795.49 1246.04,815.678 1250,805.784 1253.97,805.271 1257.93,822.518 1261.89,843.349 1265.85,856.004 1269.81,867.481 1273.77,882.168 1277.73,892.147 1281.7,920.653 1285.66,933.069 1289.62,945.97 1293.58,956.206 1297.54,968.441 1301.5,966.035 1305.47,974.013 1309.43,986.761 1313.39,983.312 1317.35,995.78 1321.31,981.447 1325.27,988.55 1329.24,998.179 1333.2,284.849 1337.16,301.591 1341.12,313.177 1345.08,309.161 1349.04,327.962 1353.01,329.914 1356.97,338.192 1360.93,321.582 1364.89,311.901 1368.85,320.134 1372.81,323.761 1376.77,338.754 1380.74,343.719 1384.7,341.91 1388.66,312.62 1392.62,319.938 1396.58,309.72 1400.54,333.094 1404.51,348.548 1408.47,351.227 1412.43,345.459 1416.39,363.807 1420.35,372.236 1424.31,389.346 1428.28,390.441 1432.24,405.602 1436.2,414.748 1440.16,426.698 1444.12,414.722 1448.08,440.684 1452.05,460.444 1456.01,466.362 1459.97,476.379 1463.93,481.182 1467.89,499.122 1471.85,492.117 1475.81,468.253 1479.78,455.808 1483.74,447.161 1487.7,435.117 1491.66,431.996 1495.62,450.995 1499.58,469.818 1503.55,453.481 1507.51,460.201 1511.47,462.567 1515.43,490.854 1519.39,457.349 1523.35,438.859 1527.32,432.489 1531.28,451.092 1535.24,451.529 1539.2,455.167 1543.16,454.289 1547.12,472.677 1551.09,509.484 1555.05,517.25 1559.01,508.344 1562.97,516.968 1566.93,506.54 1570.89,509.538 1574.86,520.244 1578.82,519.908 1582.78,508.089 1586.74,476.502 1590.7,466.866 1594.66,459.195 1598.62,468.331 1602.59,464.389 1606.55,472.804 1610.51,474.396 1614.47,465.565 1618.43,459.313 1622.39,437.608 1626.36,420.328 1630.32,412.709 1634.28,434.813 1638.24,421.072 1642.2,402.8 1646.16,407.643 1650.13,378.988 1654.09,384.668 1658.05,384.128 1662.01,392.455 1665.97,416.076 1669.93,442.55 1673.9,411.7 1677.86,380.575 1681.82,367.651 1685.78,351.018 1689.74,335.257 1693.7,307.965 1697.66,274.211 1701.63,280.336 1705.59,238.485 1709.55,231.182 1713.51,168.697 1717.47,198.368 1721.43,212.876 1725.4,195.568 1729.36,173.479 1733.32,138.965 1737.28,129.125 1741.24,140.156 1745.2,170.533 1749.17,151.825 1753.13,185.817 1757.09,159.298 1761.05,160.934 1765.01,172.38 1768.97,139.902 1772.94,187.846 1776.9,185.005 1780.86,237.076 1784.82,218.392 1788.78,207.558 1792.74,150.177 1796.71,105.556 1800.67,129.602 1804.63,162.684 1808.59,160.968 1812.55,123.853 1816.51,86.3349 1820.47,86.1857 1824.44,107.074 1828.4,117.526 1832.36,129.815 1836.32,152.192 1840.28,136.164 1844.24,128.391 1848.21,140.628 1852.17,157.515 1856.13,143.001 1860.09,156.556 1864.05,157.807 1868.01,199.885 1871.98,188.597 1875.94,172.588 1879.9,162.97 1883.86,173.544 1887.82,138.519 1891.78,123.41 1895.75,153.871 1899.71,154.438 1903.67,152.607 1907.63,164.905 1911.59,131.638 1915.55,148.239 1919.51,149.929 1923.48,147.011 1927.44,134.035 1931.4,128.287 1935.36,159.652 1939.32,171.855 1943.28,148.223 1947.25,130.562 1951.21,143.162 1955.17,180.065 1959.13,183.662 1963.09,180.213 1967.05,203.519 1971.02,184.293 1974.98,157.846 1978.94,160.159 1982.9,137.327 1986.86,178.748 1990.82,232.407 1994.79,232.371 1998.75,217.631 2002.71,241.291 2006.67,250.484 2010.63,266.307 2014.59,279.644 2018.55,278.899 2022.52,275.765 2026.48,275.263 2030.44,266.185 2034.4,258.204 2038.36,275.103 2042.32,248.382 2046.29,208.159 2050.25,227.927 2054.21,210.067 2058.17,201.501 2062.13,205.523 2066.09,183.814 2070.06,223.044 2074.02,274.771 2077.98,301.713 2081.94,307.009 2085.9,310.484 2089.86,318.638 2093.83,290.06 2097.79,296.68 2101.75,323.956 2105.71,355.877 2109.67,397.715 2113.63,423.301 2117.6,418.612 2121.56,431.932 2125.52,449.903 2129.48,480.282 2133.44,487.654 2137.4,527.702 2141.36,498.448 2145.33,491.321 2149.29,503.4 2153.25,481.884 2157.21,506.308 2161.17,538.552 2165.13,541.629 2169.1,526.866 2173.06,535.056 2177.02,541.145 2180.98,557.551 2184.94,534.751 2188.9,507.544 2192.87,508.556 2196.83,495.741 2200.79,502.277 2204.75,496.273 2208.71,496.225 2212.67,488.268 2216.64,545.873 2220.6,589.965 2224.56,596.048 2228.52,605.354 2232.48,608.325 2236.44,606.391 2240.4,597.643 2244.37,624.925 2248.33,623.002 2252.29,610.921 2256.25,619.094 2260.21,616.305 2264.17,603.579 2268.14,582.748 2272.1,593.283 2276.06,593.11 2280.02,564.576 2283.98,574.369 2287.94,592.979 2291.91,573.245 "/>
<path clip-path="url(#clip140)" d="M274.382 214.773 L664.065 214.773 L664.065 93.1086 L274.382 93.1086  Z" fill="#ffffff" fill-rule="evenodd" fill-opacity="1"/>
<polyline clip-path="url(#clip140)" style="stroke:#000000; stroke-linecap:round; stroke-linejoin:round; stroke-width:4; stroke-opacity:1; fill:none" points="274.382,214.773 664.065,214.773 664.065,93.1086 274.382,93.1086 274.382,214.773 "/>
<polyline clip-path="url(#clip140)" style="stroke:#ff7e0d; stroke-linecap:round; stroke-linejoin:round; stroke-width:8; stroke-opacity:1; fill:none" stroke-dasharray="32, 20" points="298.271,153.941 441.607,153.941 "/>
<path clip-path="url(#clip140)" d="M465.497 183.1 L465.497 140.391 Q465.497 138.689 466.415 138.689 Q467.333 138.689 467.333 140.055 L467.333 182.764 Q467.333 184.466 466.415 184.466 Q465.497 184.466 465.497 183.1 Z" fill="#000000" fill-rule="nonzero" fill-opacity="1" /><path clip-path="url(#clip140)" d="M489.546 183.097 L489.546 140.402 Q489.546 138.7 490.464 138.7 Q491.382 138.7 491.382 140.066 L491.382 182.761 Q491.382 184.462 490.464 184.462 Q489.546 184.462 489.546 183.097 Z" fill="#000000" fill-rule="nonzero" fill-opacity="1" /><path clip-path="url(#clip140)" d="M548.465 139.314 Q548.465 139.618 548.395 139.806 Q548.348 139.993 548.16 140.087 Q547.997 140.157 547.879 140.181 Q547.786 140.204 547.505 140.227 Q546.357 140.321 545.397 140.626 Q544.436 140.907 543.617 141.469 Q542.82 142.031 542.375 142.406 Q541.954 142.78 541.204 143.53 L540.548 144.209 L528.65 157.864 Q528.228 158.333 527.97 159.364 L526.284 166.133 Q525.628 168.943 525.628 169.154 Q525.628 169.576 525.862 169.716 Q526.12 169.833 526.916 169.904 L528.743 170.021 Q529.821 170.021 529.985 170.208 Q530.078 170.325 530.078 170.536 Q530.078 170.981 529.891 171.215 Q529.727 171.426 529.563 171.473 Q529.423 171.496 529.165 171.496 L523.028 171.356 L516.985 171.496 Q516.306 171.496 516.306 170.958 Q516.306 170.606 516.353 170.419 Q516.423 170.208 516.634 170.138 Q516.845 170.044 517.009 170.044 Q517.173 170.021 517.618 170.021 Q518.695 169.997 519.234 169.997 Q519.796 169.974 520.335 169.833 Q520.873 169.693 521.061 169.599 Q521.272 169.482 521.506 169.084 Q521.763 168.662 521.834 168.334 Q521.927 168.006 522.115 167.187 Q522.302 166.461 523.286 162.502 Q524.27 158.544 524.27 158.45 Q524.27 158.192 524.082 157.63 L518.18 141.844 Q517.922 141.141 517.711 140.86 Q517.501 140.579 516.798 140.415 Q516.095 140.227 514.69 140.227 Q514.292 140.227 514.104 140.204 Q513.917 140.181 513.753 140.063 Q513.589 139.946 513.589 139.689 Q513.589 139.244 513.776 139.033 Q513.964 138.799 514.104 138.775 Q514.268 138.728 514.502 138.728 Q515.088 138.728 517.173 138.799 Q519.257 138.869 519.866 138.869 L525.909 138.728 Q526.635 138.728 526.635 139.267 Q526.635 139.923 526.378 140.087 Q526.12 140.227 525.488 140.227 Q522.653 140.227 522.653 141.375 Q522.653 141.516 522.935 142.195 L528.205 156.436 L539.33 143.624 L539.494 143.436 Q539.635 143.249 539.752 143.108 Q539.869 142.968 540.056 142.71 Q540.244 142.453 540.337 142.242 Q540.455 142.031 540.548 141.773 Q540.642 141.516 540.642 141.328 Q540.642 140.977 540.431 140.743 Q540.22 140.485 539.892 140.391 Q539.564 140.298 539.33 140.274 Q539.096 140.227 538.909 140.227 Q538.183 140.227 538.183 139.642 Q538.183 139.22 538.37 139.009 Q538.557 138.775 538.698 138.752 Q538.862 138.728 539.096 138.728 Q539.869 138.728 541.485 138.799 Q543.101 138.869 543.898 138.869 Q544.553 138.869 545.889 138.799 Q547.224 138.728 547.833 138.728 Q548.465 138.728 548.465 139.314 Z" fill="#000000" fill-rule="nonzero" fill-opacity="1" /><path clip-path="url(#clip140)" d="M563.553 169.884 Q563.553 170.344 563.34 170.458 Q563.127 170.557 562.537 170.557 L559.389 170.557 L556.896 180.46 Q556.7 181.329 556.7 182.066 Q556.7 182.886 556.946 183.247 Q557.208 183.608 557.749 183.608 Q558.815 183.608 559.962 182.64 Q561.127 181.673 562.11 179.312 Q562.241 179 562.307 178.935 Q562.389 178.853 562.602 178.853 Q563.012 178.853 563.012 179.181 Q563.012 179.296 562.783 179.82 Q562.569 180.345 562.094 181.116 Q561.635 181.886 561.028 182.608 Q560.438 183.329 559.536 183.854 Q558.634 184.362 557.667 184.362 Q556.306 184.362 555.437 183.493 Q554.585 182.624 554.585 181.263 Q554.585 180.82 554.929 179.41 Q555.273 177.984 557.142 170.557 L554.175 170.557 Q553.765 170.557 553.601 170.54 Q553.453 170.524 553.339 170.442 Q553.24 170.344 553.24 170.147 Q553.24 169.835 553.371 169.704 Q553.503 169.557 553.667 169.54 Q553.847 169.507 554.257 169.507 L557.405 169.507 L558.716 164.179 Q558.848 163.654 559.175 163.359 Q559.52 163.047 559.717 163.015 Q559.913 162.965 560.061 162.965 Q560.504 162.965 560.766 163.211 Q561.028 163.441 561.028 163.867 Q561.028 164.097 559.651 169.507 L562.602 169.507 Q562.979 169.507 563.127 169.524 Q563.291 169.54 563.422 169.622 Q563.553 169.704 563.553 169.884 Z" fill="#000000" fill-rule="nonzero" fill-opacity="1" /><path clip-path="url(#clip140)" d="M573.685 183.097 L573.685 140.402 Q573.685 138.7 574.603 138.7 Q575.521 138.7 575.521 140.066 L575.521 182.761 Q575.521 184.462 574.603 184.462 Q573.685 184.462 573.685 183.097 Z" fill="#000000" fill-rule="nonzero" fill-opacity="1" /><path clip-path="url(#clip140)" d="M597.728 183.1 L597.728 140.391 Q597.728 138.689 598.646 138.689 Q599.564 138.689 599.564 140.055 L599.564 182.764 Q599.564 184.466 598.646 184.466 Q597.728 184.466 597.728 183.1 Z" fill="#000000" fill-rule="nonzero" fill-opacity="1" /><path clip-path="url(#clip140)" d="M621.777 145.673 Q621.777 145.066 621.827 144.886 Q621.892 144.706 622.154 144.427 L628.598 137.246 Q632.123 133.278 632.123 129.818 Q632.123 127.572 630.943 125.965 Q629.778 124.359 627.631 124.359 Q626.155 124.359 624.909 125.26 Q623.663 126.162 623.089 127.769 Q623.187 127.736 623.532 127.736 Q624.368 127.736 624.827 128.261 Q625.302 128.785 625.302 129.491 Q625.302 130.392 624.712 130.835 Q624.138 131.261 623.564 131.261 Q623.335 131.261 623.023 131.212 Q622.728 131.163 622.253 130.704 Q621.777 130.228 621.777 129.392 Q621.777 127.048 623.548 125.178 Q625.335 123.309 628.057 123.309 Q631.139 123.309 633.156 125.146 Q635.189 126.966 635.189 129.818 Q635.189 130.819 634.878 131.737 Q634.582 132.638 634.172 133.343 Q633.779 134.049 632.697 135.18 Q631.615 136.311 630.746 137.115 Q629.877 137.918 627.926 139.623 L624.368 143.083 L630.418 143.083 Q633.369 143.083 633.599 142.82 Q633.927 142.345 634.336 139.836 L635.189 139.836 L634.238 145.673 L621.777 145.673 Z" fill="#000000" fill-rule="nonzero" fill-opacity="1" /></svg>
