<?xml version="1.0" encoding="utf-8"?>
<svg xmlns="http://www.w3.org/2000/svg" xmlns:xlink="http://www.w3.org/1999/xlink" width="600" height="400" viewBox="0 0 2400 1600">
<defs>
  <clipPath id="clip900">
    <rect x="0" y="0" width="2400" height="1600"/>
  </clipPath>
</defs>
<path clip-path="url(#clip900)" d="M0 1600 L2400 1600 L2400 0 L0 0  Z" fill="#ffffff" fill-rule="evenodd" fill-opacity="1"/>
<defs>
  <clipPath id="clip901">
    <rect x="480" y="0" width="1681" height="1600"/>
  </clipPath>
</defs>
<path clip-path="url(#clip900)" d="M249.542 1423.18 L2352.76 1423.18 L2352.76 47.2441 L249.542 47.2441  Z" fill="#ffffff" fill-rule="evenodd" fill-opacity="1"/>
<defs>
  <clipPath id="clip902">
    <rect x="249" y="47" width="2104" height="1377"/>
  </clipPath>
</defs>
<polyline clip-path="url(#clip902)" style="stroke:#000000; stroke-linecap:round; stroke-linejoin:round; stroke-width:2; stroke-opacity:0.1; fill:none" points="309.067,1423.18 309.067,47.2441 "/>
<polyline clip-path="url(#clip902)" style="stroke:#000000; stroke-linecap:round; stroke-linejoin:round; stroke-width:2; stroke-opacity:0.1; fill:none" points="805.108,1423.18 805.108,47.2441 "/>
<polyline clip-path="url(#clip902)" style="stroke:#000000; stroke-linecap:round; stroke-linejoin:round; stroke-width:2; stroke-opacity:0.1; fill:none" points="1301.15,1423.18 1301.15,47.2441 "/>
<polyline clip-path="url(#clip902)" style="stroke:#000000; stroke-linecap:round; stroke-linejoin:round; stroke-width:2; stroke-opacity:0.1; fill:none" points="1797.19,1423.18 1797.19,47.2441 "/>
<polyline clip-path="url(#clip902)" style="stroke:#000000; stroke-linecap:round; stroke-linejoin:round; stroke-width:2; stroke-opacity:0.1; fill:none" points="2293.23,1423.18 2293.23,47.2441 "/>
<polyline clip-path="url(#clip902)" style="stroke:#000000; stroke-linecap:round; stroke-linejoin:round; stroke-width:2; stroke-opacity:0.1; fill:none" points="249.542,1290.52 2352.76,1290.52 "/>
<polyline clip-path="url(#clip902)" style="stroke:#000000; stroke-linecap:round; stroke-linejoin:round; stroke-width:2; stroke-opacity:0.1; fill:none" points="249.542,989.435 2352.76,989.435 "/>
<polyline clip-path="url(#clip902)" style="stroke:#000000; stroke-linecap:round; stroke-linejoin:round; stroke-width:2; stroke-opacity:0.1; fill:none" points="249.542,688.347 2352.76,688.347 "/>
<polyline clip-path="url(#clip902)" style="stroke:#000000; stroke-linecap:round; stroke-linejoin:round; stroke-width:2; stroke-opacity:0.1; fill:none" points="249.542,387.26 2352.76,387.26 "/>
<polyline clip-path="url(#clip902)" style="stroke:#000000; stroke-linecap:round; stroke-linejoin:round; stroke-width:2; stroke-opacity:0.1; fill:none" points="249.542,86.1717 2352.76,86.1717 "/>
<polyline clip-path="url(#clip900)" style="stroke:#000000; stroke-linecap:round; stroke-linejoin:round; stroke-width:4; stroke-opacity:1; fill:none" points="249.542,1423.18 2352.76,1423.18 "/>
<polyline clip-path="url(#clip900)" style="stroke:#000000; stroke-linecap:round; stroke-linejoin:round; stroke-width:4; stroke-opacity:1; fill:none" points="309.067,1423.18 309.067,1404.28 "/>
<polyline clip-path="url(#clip900)" style="stroke:#000000; stroke-linecap:round; stroke-linejoin:round; stroke-width:4; stroke-opacity:1; fill:none" points="805.108,1423.18 805.108,1404.28 "/>
<polyline clip-path="url(#clip900)" style="stroke:#000000; stroke-linecap:round; stroke-linejoin:round; stroke-width:4; stroke-opacity:1; fill:none" points="1301.15,1423.18 1301.15,1404.28 "/>
<polyline clip-path="url(#clip900)" style="stroke:#000000; stroke-linecap:round; stroke-linejoin:round; stroke-width:4; stroke-opacity:1; fill:none" points="1797.19,1423.18 1797.19,1404.28 "/>
<polyline clip-path="url(#clip900)" style="stroke:#000000; stroke-linecap:round; stroke-linejoin:round; stroke-width:4; stroke-opacity:1; fill:none" points="2293.23,1423.18 2293.23,1404.28 "/>
<path clip-path="url(#clip900)" d="M271.37 1454.1 Q267.759 1454.1 265.931 1457.66 Q264.125 1461.2 264.125 1468.33 Q264.125 1475.44 265.931 1479.01 Q267.759 1482.55 271.37 1482.55 Q275.005 1482.55 276.81 1479.01 Q278.639 1475.44 278.639 1468.33 Q278.639 1461.2 276.81 1457.66 Q275.005 1454.1 271.37 1454.1 M271.37 1450.39 Q277.181 1450.39 280.236 1455 Q283.315 1459.58 283.315 1468.33 Q283.315 1477.06 280.236 1481.67 Q277.181 1486.25 271.37 1486.25 Q265.56 1486.25 262.482 1481.67 Q259.426 1477.06 259.426 1468.33 Q259.426 1459.58 262.482 1455 Q265.56 1450.39 271.37 1450.39 Z" fill="#000000" fill-rule="nonzero" fill-opacity="1" /><path clip-path="url(#clip900)" d="M291.532 1479.7 L296.417 1479.7 L296.417 1485.58 L291.532 1485.58 L291.532 1479.7 Z" fill="#000000" fill-rule="nonzero" fill-opacity="1" /><path clip-path="url(#clip900)" d="M316.602 1454.1 Q312.991 1454.1 311.162 1457.66 Q309.356 1461.2 309.356 1468.33 Q309.356 1475.44 311.162 1479.01 Q312.991 1482.55 316.602 1482.55 Q320.236 1482.55 322.041 1479.01 Q323.87 1475.44 323.87 1468.33 Q323.87 1461.2 322.041 1457.66 Q320.236 1454.1 316.602 1454.1 M316.602 1450.39 Q322.412 1450.39 325.467 1455 Q328.546 1459.58 328.546 1468.33 Q328.546 1477.06 325.467 1481.67 Q322.412 1486.25 316.602 1486.25 Q310.791 1486.25 307.713 1481.67 Q304.657 1477.06 304.657 1468.33 Q304.657 1459.58 307.713 1455 Q310.791 1450.39 316.602 1450.39 Z" fill="#000000" fill-rule="nonzero" fill-opacity="1" /><path clip-path="url(#clip900)" d="M346.764 1454.1 Q343.152 1454.1 341.324 1457.66 Q339.518 1461.2 339.518 1468.33 Q339.518 1475.44 341.324 1479.01 Q343.152 1482.55 346.764 1482.55 Q350.398 1482.55 352.203 1479.01 Q354.032 1475.44 354.032 1468.33 Q354.032 1461.2 352.203 1457.66 Q350.398 1454.1 346.764 1454.1 M346.764 1450.39 Q352.574 1450.39 355.629 1455 Q358.708 1459.58 358.708 1468.33 Q358.708 1477.06 355.629 1481.67 Q352.574 1486.25 346.764 1486.25 Q340.953 1486.25 337.875 1481.67 Q334.819 1477.06 334.819 1468.33 Q334.819 1459.58 337.875 1455 Q340.953 1450.39 346.764 1450.39 Z" fill="#000000" fill-rule="nonzero" fill-opacity="1" /><path clip-path="url(#clip900)" d="M767.909 1454.1 Q764.298 1454.1 762.469 1457.66 Q760.664 1461.2 760.664 1468.33 Q760.664 1475.44 762.469 1479.01 Q764.298 1482.55 767.909 1482.55 Q771.543 1482.55 773.349 1479.01 Q775.178 1475.44 775.178 1468.33 Q775.178 1461.2 773.349 1457.66 Q771.543 1454.1 767.909 1454.1 M767.909 1450.39 Q773.719 1450.39 776.775 1455 Q779.853 1459.58 779.853 1468.33 Q779.853 1477.06 776.775 1481.67 Q773.719 1486.25 767.909 1486.25 Q762.099 1486.25 759.02 1481.67 Q755.965 1477.06 755.965 1468.33 Q755.965 1459.58 759.02 1455 Q762.099 1450.39 767.909 1450.39 Z" fill="#000000" fill-rule="nonzero" fill-opacity="1" /><path clip-path="url(#clip900)" d="M788.071 1479.7 L792.955 1479.7 L792.955 1485.58 L788.071 1485.58 L788.071 1479.7 Z" fill="#000000" fill-rule="nonzero" fill-opacity="1" /><path clip-path="url(#clip900)" d="M807.168 1481.64 L823.487 1481.64 L823.487 1485.58 L801.543 1485.58 L801.543 1481.64 Q804.205 1478.89 808.788 1474.26 Q813.395 1469.61 814.576 1468.27 Q816.821 1465.74 817.7 1464.01 Q818.603 1462.25 818.603 1460.56 Q818.603 1457.8 816.659 1456.07 Q814.738 1454.33 811.636 1454.33 Q809.437 1454.33 806.983 1455.09 Q804.552 1455.86 801.775 1457.41 L801.775 1452.69 Q804.599 1451.55 807.052 1450.97 Q809.506 1450.39 811.543 1450.39 Q816.913 1450.39 820.108 1453.08 Q823.302 1455.77 823.302 1460.26 Q823.302 1462.39 822.492 1464.31 Q821.705 1466.2 819.599 1468.8 Q819.02 1469.47 815.918 1472.69 Q812.816 1475.88 807.168 1481.64 Z" fill="#000000" fill-rule="nonzero" fill-opacity="1" /><path clip-path="url(#clip900)" d="M833.349 1451.02 L851.705 1451.02 L851.705 1454.96 L837.631 1454.96 L837.631 1463.43 Q838.649 1463.08 839.668 1462.92 Q840.686 1462.73 841.705 1462.73 Q847.492 1462.73 850.872 1465.9 Q854.251 1469.08 854.251 1474.49 Q854.251 1480.07 850.779 1483.17 Q847.307 1486.25 840.987 1486.25 Q838.811 1486.25 836.543 1485.88 Q834.298 1485.51 831.89 1484.77 L831.89 1480.07 Q833.974 1481.2 836.196 1481.76 Q838.418 1482.32 840.895 1482.32 Q844.899 1482.32 847.237 1480.21 Q849.575 1478.1 849.575 1474.49 Q849.575 1470.88 847.237 1468.77 Q844.899 1466.67 840.895 1466.67 Q839.02 1466.67 837.145 1467.08 Q835.293 1467.5 833.349 1468.38 L833.349 1451.02 Z" fill="#000000" fill-rule="nonzero" fill-opacity="1" /><path clip-path="url(#clip900)" d="M1263.45 1454.1 Q1259.84 1454.1 1258.01 1457.66 Q1256.21 1461.2 1256.21 1468.33 Q1256.21 1475.44 1258.01 1479.01 Q1259.84 1482.55 1263.45 1482.55 Q1267.09 1482.55 1268.89 1479.01 Q1270.72 1475.44 1270.72 1468.33 Q1270.72 1461.2 1268.89 1457.66 Q1267.09 1454.1 1263.45 1454.1 M1263.45 1450.39 Q1269.26 1450.39 1272.32 1455 Q1275.4 1459.58 1275.4 1468.33 Q1275.4 1477.06 1272.32 1481.67 Q1269.26 1486.25 1263.45 1486.25 Q1257.64 1486.25 1254.56 1481.67 Q1251.51 1477.06 1251.51 1468.33 Q1251.51 1459.58 1254.56 1455 Q1257.64 1450.39 1263.45 1450.39 Z" fill="#000000" fill-rule="nonzero" fill-opacity="1" /><path clip-path="url(#clip900)" d="M1283.61 1479.7 L1288.5 1479.7 L1288.5 1485.58 L1283.61 1485.58 L1283.61 1479.7 Z" fill="#000000" fill-rule="nonzero" fill-opacity="1" /><path clip-path="url(#clip900)" d="M1298.73 1451.02 L1317.09 1451.02 L1317.09 1454.96 L1303.01 1454.96 L1303.01 1463.43 Q1304.03 1463.08 1305.05 1462.92 Q1306.07 1462.73 1307.09 1462.73 Q1312.87 1462.73 1316.25 1465.9 Q1319.63 1469.08 1319.63 1474.49 Q1319.63 1480.07 1316.16 1483.17 Q1312.69 1486.25 1306.37 1486.25 Q1304.19 1486.25 1301.92 1485.88 Q1299.68 1485.51 1297.27 1484.77 L1297.27 1480.07 Q1299.35 1481.2 1301.58 1481.76 Q1303.8 1482.32 1306.28 1482.32 Q1310.28 1482.32 1312.62 1480.21 Q1314.96 1478.1 1314.96 1474.49 Q1314.96 1470.88 1312.62 1468.77 Q1310.28 1466.67 1306.28 1466.67 Q1304.4 1466.67 1302.53 1467.08 Q1300.67 1467.5 1298.73 1468.38 L1298.73 1451.02 Z" fill="#000000" fill-rule="nonzero" fill-opacity="1" /><path clip-path="url(#clip900)" d="M1338.85 1454.1 Q1335.23 1454.1 1333.41 1457.66 Q1331.6 1461.2 1331.6 1468.33 Q1331.6 1475.44 1333.41 1479.01 Q1335.23 1482.55 1338.85 1482.55 Q1342.48 1482.55 1344.29 1479.01 Q1346.11 1475.44 1346.11 1468.33 Q1346.11 1461.2 1344.29 1457.66 Q1342.48 1454.1 1338.85 1454.1 M1338.85 1450.39 Q1344.66 1450.39 1347.71 1455 Q1350.79 1459.58 1350.79 1468.33 Q1350.79 1477.06 1347.71 1481.67 Q1344.66 1486.25 1338.85 1486.25 Q1333.04 1486.25 1329.96 1481.67 Q1326.9 1477.06 1326.9 1468.33 Q1326.9 1459.58 1329.96 1455 Q1333.04 1450.39 1338.85 1450.39 Z" fill="#000000" fill-rule="nonzero" fill-opacity="1" /><path clip-path="url(#clip900)" d="M1759.99 1454.1 Q1756.38 1454.1 1754.55 1457.66 Q1752.75 1461.2 1752.75 1468.33 Q1752.75 1475.44 1754.55 1479.01 Q1756.38 1482.55 1759.99 1482.55 Q1763.63 1482.55 1765.43 1479.01 Q1767.26 1475.44 1767.26 1468.33 Q1767.26 1461.2 1765.43 1457.66 Q1763.63 1454.1 1759.99 1454.1 M1759.99 1450.39 Q1765.8 1450.39 1768.86 1455 Q1771.94 1459.58 1771.94 1468.33 Q1771.94 1477.06 1768.86 1481.67 Q1765.8 1486.25 1759.99 1486.25 Q1754.18 1486.25 1751.1 1481.67 Q1748.05 1477.06 1748.05 1468.33 Q1748.05 1459.58 1751.1 1455 Q1754.18 1450.39 1759.99 1450.39 Z" fill="#000000" fill-rule="nonzero" fill-opacity="1" /><path clip-path="url(#clip900)" d="M1780.15 1479.7 L1785.04 1479.7 L1785.04 1485.58 L1780.15 1485.58 L1780.15 1479.7 Z" fill="#000000" fill-rule="nonzero" fill-opacity="1" /><path clip-path="url(#clip900)" d="M1794.04 1451.02 L1816.26 1451.02 L1816.26 1453.01 L1803.72 1485.58 L1798.83 1485.58 L1810.64 1454.96 L1794.04 1454.96 L1794.04 1451.02 Z" fill="#000000" fill-rule="nonzero" fill-opacity="1" /><path clip-path="url(#clip900)" d="M1825.43 1451.02 L1843.79 1451.02 L1843.79 1454.96 L1829.71 1454.96 L1829.71 1463.43 Q1830.73 1463.08 1831.75 1462.92 Q1832.77 1462.73 1833.79 1462.73 Q1839.57 1462.73 1842.95 1465.9 Q1846.33 1469.08 1846.33 1474.49 Q1846.33 1480.07 1842.86 1483.17 Q1839.39 1486.25 1833.07 1486.25 Q1830.89 1486.25 1828.62 1485.88 Q1826.38 1485.51 1823.97 1484.77 L1823.97 1480.07 Q1826.06 1481.2 1828.28 1481.76 Q1830.5 1482.32 1832.98 1482.32 Q1836.98 1482.32 1839.32 1480.21 Q1841.66 1478.1 1841.66 1474.49 Q1841.66 1470.88 1839.32 1468.77 Q1836.98 1466.67 1832.98 1466.67 Q1831.1 1466.67 1829.23 1467.08 Q1827.38 1467.5 1825.43 1468.38 L1825.43 1451.02 Z" fill="#000000" fill-rule="nonzero" fill-opacity="1" /><path clip-path="url(#clip900)" d="M2245.3 1481.64 L2252.94 1481.64 L2252.94 1455.28 L2244.63 1456.95 L2244.63 1452.69 L2252.9 1451.02 L2257.57 1451.02 L2257.57 1481.64 L2265.21 1481.64 L2265.21 1485.58 L2245.3 1485.58 L2245.3 1481.64 Z" fill="#000000" fill-rule="nonzero" fill-opacity="1" /><path clip-path="url(#clip900)" d="M2274.65 1479.7 L2279.54 1479.7 L2279.54 1485.58 L2274.65 1485.58 L2274.65 1479.7 Z" fill="#000000" fill-rule="nonzero" fill-opacity="1" /><path clip-path="url(#clip900)" d="M2299.72 1454.1 Q2296.11 1454.1 2294.28 1457.66 Q2292.48 1461.2 2292.48 1468.33 Q2292.48 1475.44 2294.28 1479.01 Q2296.11 1482.55 2299.72 1482.55 Q2303.36 1482.55 2305.16 1479.01 Q2306.99 1475.44 2306.99 1468.33 Q2306.99 1461.2 2305.16 1457.66 Q2303.36 1454.1 2299.72 1454.1 M2299.72 1450.39 Q2305.53 1450.39 2308.59 1455 Q2311.67 1459.58 2311.67 1468.33 Q2311.67 1477.06 2308.59 1481.67 Q2305.53 1486.25 2299.72 1486.25 Q2293.91 1486.25 2290.84 1481.67 Q2287.78 1477.06 2287.78 1468.33 Q2287.78 1459.58 2290.84 1455 Q2293.91 1450.39 2299.72 1450.39 Z" fill="#000000" fill-rule="nonzero" fill-opacity="1" /><path clip-path="url(#clip900)" d="M2329.89 1454.1 Q2326.27 1454.1 2324.45 1457.66 Q2322.64 1461.2 2322.64 1468.33 Q2322.64 1475.44 2324.45 1479.01 Q2326.27 1482.55 2329.89 1482.55 Q2333.52 1482.55 2335.33 1479.01 Q2337.15 1475.44 2337.15 1468.33 Q2337.15 1461.2 2335.33 1457.66 Q2333.52 1454.1 2329.89 1454.1 M2329.89 1450.39 Q2335.7 1450.39 2338.75 1455 Q2341.83 1459.58 2341.83 1468.33 Q2341.83 1477.06 2338.75 1481.67 Q2335.7 1486.25 2329.89 1486.25 Q2324.08 1486.25 2321 1481.67 Q2317.94 1477.06 2317.94 1468.33 Q2317.94 1459.58 2321 1455 Q2324.08 1450.39 2329.89 1450.39 Z" fill="#000000" fill-rule="nonzero" fill-opacity="1" /><path clip-path="url(#clip900)" d="M1309.62 1531.91 Q1309.62 1532.81 1309.2 1533.04 Q1308.78 1533.23 1307.62 1533.23 L1301.44 1533.23 L1296.54 1552.69 Q1296.16 1554.39 1296.16 1555.84 Q1296.16 1557.45 1296.64 1558.16 Q1297.16 1558.87 1298.22 1558.87 Q1300.31 1558.87 1302.57 1556.97 Q1304.85 1555.07 1306.79 1550.43 Q1307.04 1549.82 1307.17 1549.69 Q1307.33 1549.53 1307.75 1549.53 Q1308.56 1549.53 1308.56 1550.17 Q1308.56 1550.4 1308.11 1551.43 Q1307.69 1552.46 1306.75 1553.97 Q1305.85 1555.49 1304.66 1556.9 Q1303.5 1558.32 1301.73 1559.35 Q1299.96 1560.35 1298.06 1560.35 Q1295.38 1560.35 1293.68 1558.64 Q1292 1556.94 1292 1554.26 Q1292 1553.39 1292.68 1550.62 Q1293.36 1547.82 1297.03 1533.23 L1291.2 1533.23 Q1290.39 1533.23 1290.07 1533.2 Q1289.78 1533.17 1289.56 1533.01 Q1289.36 1532.81 1289.36 1532.43 Q1289.36 1531.82 1289.62 1531.56 Q1289.88 1531.27 1290.2 1531.24 Q1290.55 1531.17 1291.36 1531.17 L1297.54 1531.17 L1300.12 1520.71 Q1300.38 1519.67 1301.02 1519.09 Q1301.7 1518.48 1302.08 1518.42 Q1302.47 1518.32 1302.76 1518.32 Q1303.63 1518.32 1304.14 1518.81 Q1304.66 1519.26 1304.66 1520.09 Q1304.66 1520.54 1301.95 1531.17 L1307.75 1531.17 Q1308.49 1531.17 1308.78 1531.2 Q1309.1 1531.24 1309.36 1531.4 Q1309.62 1531.56 1309.62 1531.91 Z" fill="#000000" fill-rule="nonzero" fill-opacity="1" /><polyline clip-path="url(#clip900)" style="stroke:#000000; stroke-linecap:round; stroke-linejoin:round; stroke-width:4; stroke-opacity:1; fill:none" points="249.542,1423.18 249.542,47.2441 "/>
<polyline clip-path="url(#clip900)" style="stroke:#000000; stroke-linecap:round; stroke-linejoin:round; stroke-width:4; stroke-opacity:1; fill:none" points="249.542,1290.52 268.44,1290.52 "/>
<polyline clip-path="url(#clip900)" style="stroke:#000000; stroke-linecap:round; stroke-linejoin:round; stroke-width:4; stroke-opacity:1; fill:none" points="249.542,989.435 268.44,989.435 "/>
<polyline clip-path="url(#clip900)" style="stroke:#000000; stroke-linecap:round; stroke-linejoin:round; stroke-width:4; stroke-opacity:1; fill:none" points="249.542,688.347 268.44,688.347 "/>
<polyline clip-path="url(#clip900)" style="stroke:#000000; stroke-linecap:round; stroke-linejoin:round; stroke-width:4; stroke-opacity:1; fill:none" points="249.542,387.26 268.44,387.26 "/>
<polyline clip-path="url(#clip900)" style="stroke:#000000; stroke-linecap:round; stroke-linejoin:round; stroke-width:4; stroke-opacity:1; fill:none" points="249.542,86.1717 268.44,86.1717 "/>
<path clip-path="url(#clip900)" d="M126.205 1276.32 Q122.593 1276.32 120.765 1279.89 Q118.959 1283.43 118.959 1290.56 Q118.959 1297.66 120.765 1301.23 Q122.593 1304.77 126.205 1304.77 Q129.839 1304.77 131.644 1301.23 Q133.473 1297.66 133.473 1290.56 Q133.473 1283.43 131.644 1279.89 Q129.839 1276.32 126.205 1276.32 M126.205 1272.62 Q132.015 1272.62 135.07 1277.22 Q138.149 1281.81 138.149 1290.56 Q138.149 1299.28 135.07 1303.89 Q132.015 1308.47 126.205 1308.47 Q120.394 1308.47 117.316 1303.89 Q114.26 1299.28 114.26 1290.56 Q114.26 1281.81 117.316 1277.22 Q120.394 1272.62 126.205 1272.62 Z" fill="#000000" fill-rule="nonzero" fill-opacity="1" /><path clip-path="url(#clip900)" d="M146.366 1301.92 L151.251 1301.92 L151.251 1307.8 L146.366 1307.8 L146.366 1301.92 Z" fill="#000000" fill-rule="nonzero" fill-opacity="1" /><path clip-path="url(#clip900)" d="M171.436 1276.32 Q167.825 1276.32 165.996 1279.89 Q164.19 1283.43 164.19 1290.56 Q164.19 1297.66 165.996 1301.23 Q167.825 1304.77 171.436 1304.77 Q175.07 1304.77 176.876 1301.23 Q178.704 1297.66 178.704 1290.56 Q178.704 1283.43 176.876 1279.89 Q175.07 1276.32 171.436 1276.32 M171.436 1272.62 Q177.246 1272.62 180.301 1277.22 Q183.38 1281.81 183.38 1290.56 Q183.38 1299.28 180.301 1303.89 Q177.246 1308.47 171.436 1308.47 Q165.626 1308.47 162.547 1303.89 Q159.491 1299.28 159.491 1290.56 Q159.491 1281.81 162.547 1277.22 Q165.626 1272.62 171.436 1272.62 Z" fill="#000000" fill-rule="nonzero" fill-opacity="1" /><path clip-path="url(#clip900)" d="M201.598 1276.32 Q197.987 1276.32 196.158 1279.89 Q194.352 1283.43 194.352 1290.56 Q194.352 1297.66 196.158 1301.23 Q197.987 1304.77 201.598 1304.77 Q205.232 1304.77 207.037 1301.23 Q208.866 1297.66 208.866 1290.56 Q208.866 1283.43 207.037 1279.89 Q205.232 1276.32 201.598 1276.32 M201.598 1272.62 Q207.408 1272.62 210.463 1277.22 Q213.542 1281.81 213.542 1290.56 Q213.542 1299.28 210.463 1303.89 Q207.408 1308.47 201.598 1308.47 Q195.787 1308.47 192.709 1303.89 Q189.653 1299.28 189.653 1290.56 Q189.653 1281.81 192.709 1277.22 Q195.787 1272.62 201.598 1272.62 Z" fill="#000000" fill-rule="nonzero" fill-opacity="1" /><path clip-path="url(#clip900)" d="M127.2 975.234 Q123.589 975.234 121.76 978.799 Q119.955 982.34 119.955 989.47 Q119.955 996.576 121.76 1000.14 Q123.589 1003.68 127.2 1003.68 Q130.834 1003.68 132.64 1000.14 Q134.468 996.576 134.468 989.47 Q134.468 982.34 132.64 978.799 Q130.834 975.234 127.2 975.234 M127.2 971.53 Q133.01 971.53 136.066 976.137 Q139.144 980.72 139.144 989.47 Q139.144 998.197 136.066 1002.8 Q133.01 1007.39 127.2 1007.39 Q121.39 1007.39 118.311 1002.8 Q115.256 998.197 115.256 989.47 Q115.256 980.72 118.311 976.137 Q121.39 971.53 127.2 971.53 Z" fill="#000000" fill-rule="nonzero" fill-opacity="1" /><path clip-path="url(#clip900)" d="M147.362 1000.84 L152.246 1000.84 L152.246 1006.72 L147.362 1006.72 L147.362 1000.84 Z" fill="#000000" fill-rule="nonzero" fill-opacity="1" /><path clip-path="url(#clip900)" d="M166.459 1002.78 L182.778 1002.78 L182.778 1006.72 L160.834 1006.72 L160.834 1002.78 Q163.496 1000.03 168.079 995.396 Q172.686 990.743 173.866 989.4 Q176.112 986.877 176.991 985.141 Q177.894 983.382 177.894 981.692 Q177.894 978.938 175.95 977.201 Q174.028 975.465 170.927 975.465 Q168.727 975.465 166.274 976.229 Q163.843 976.993 161.065 978.544 L161.065 973.822 Q163.89 972.688 166.343 972.109 Q168.797 971.53 170.834 971.53 Q176.204 971.53 179.399 974.215 Q182.593 976.9 182.593 981.391 Q182.593 983.521 181.783 985.442 Q180.996 987.34 178.889 989.933 Q178.311 990.604 175.209 993.822 Q172.107 997.016 166.459 1002.78 Z" fill="#000000" fill-rule="nonzero" fill-opacity="1" /><path clip-path="url(#clip900)" d="M192.639 972.155 L210.996 972.155 L210.996 976.09 L196.922 976.09 L196.922 984.562 Q197.94 984.215 198.959 984.053 Q199.977 983.868 200.996 983.868 Q206.783 983.868 210.162 987.039 Q213.542 990.211 213.542 995.627 Q213.542 1001.21 210.07 1004.31 Q206.598 1007.39 200.278 1007.39 Q198.102 1007.39 195.834 1007.02 Q193.588 1006.65 191.181 1005.9 L191.181 1001.21 Q193.264 1002.34 195.487 1002.9 Q197.709 1003.45 200.186 1003.45 Q204.19 1003.45 206.528 1001.34 Q208.866 999.238 208.866 995.627 Q208.866 992.016 206.528 989.91 Q204.19 987.803 200.186 987.803 Q198.311 987.803 196.436 988.22 Q194.584 988.637 192.639 989.516 L192.639 972.155 Z" fill="#000000" fill-rule="nonzero" fill-opacity="1" /><path clip-path="url(#clip900)" d="M126.205 674.146 Q122.593 674.146 120.765 677.711 Q118.959 681.252 118.959 688.382 Q118.959 695.489 120.765 699.053 Q122.593 702.595 126.205 702.595 Q129.839 702.595 131.644 699.053 Q133.473 695.489 133.473 688.382 Q133.473 681.252 131.644 677.711 Q129.839 674.146 126.205 674.146 M126.205 670.442 Q132.015 670.442 135.07 675.049 Q138.149 679.632 138.149 688.382 Q138.149 697.109 135.07 701.715 Q132.015 706.299 126.205 706.299 Q120.394 706.299 117.316 701.715 Q114.26 697.109 114.26 688.382 Q114.26 679.632 117.316 675.049 Q120.394 670.442 126.205 670.442 Z" fill="#000000" fill-rule="nonzero" fill-opacity="1" /><path clip-path="url(#clip900)" d="M146.366 699.748 L151.251 699.748 L151.251 705.627 L146.366 705.627 L146.366 699.748 Z" fill="#000000" fill-rule="nonzero" fill-opacity="1" /><path clip-path="url(#clip900)" d="M161.482 671.067 L179.839 671.067 L179.839 675.003 L165.765 675.003 L165.765 683.475 Q166.783 683.127 167.802 682.965 Q168.82 682.78 169.839 682.78 Q175.626 682.78 179.005 685.952 Q182.385 689.123 182.385 694.539 Q182.385 700.118 178.913 703.22 Q175.44 706.299 169.121 706.299 Q166.945 706.299 164.677 705.928 Q162.431 705.558 160.024 704.817 L160.024 700.118 Q162.107 701.252 164.329 701.808 Q166.552 702.363 169.028 702.363 Q173.033 702.363 175.371 700.257 Q177.709 698.151 177.709 694.539 Q177.709 690.928 175.371 688.822 Q173.033 686.715 169.028 686.715 Q167.153 686.715 165.278 687.132 Q163.427 687.549 161.482 688.428 L161.482 671.067 Z" fill="#000000" fill-rule="nonzero" fill-opacity="1" /><path clip-path="url(#clip900)" d="M201.598 674.146 Q197.987 674.146 196.158 677.711 Q194.352 681.252 194.352 688.382 Q194.352 695.489 196.158 699.053 Q197.987 702.595 201.598 702.595 Q205.232 702.595 207.037 699.053 Q208.866 695.489 208.866 688.382 Q208.866 681.252 207.037 677.711 Q205.232 674.146 201.598 674.146 M201.598 670.442 Q207.408 670.442 210.463 675.049 Q213.542 679.632 213.542 688.382 Q213.542 697.109 210.463 701.715 Q207.408 706.299 201.598 706.299 Q195.787 706.299 192.709 701.715 Q189.653 697.109 189.653 688.382 Q189.653 679.632 192.709 675.049 Q195.787 670.442 201.598 670.442 Z" fill="#000000" fill-rule="nonzero" fill-opacity="1" /><path clip-path="url(#clip900)" d="M127.2 373.058 Q123.589 373.058 121.76 376.623 Q119.955 380.165 119.955 387.294 Q119.955 394.401 121.76 397.965 Q123.589 401.507 127.2 401.507 Q130.834 401.507 132.64 397.965 Q134.468 394.401 134.468 387.294 Q134.468 380.165 132.64 376.623 Q130.834 373.058 127.2 373.058 M127.2 369.355 Q133.01 369.355 136.066 373.961 Q139.144 378.544 139.144 387.294 Q139.144 396.021 136.066 400.628 Q133.01 405.211 127.2 405.211 Q121.39 405.211 118.311 400.628 Q115.256 396.021 115.256 387.294 Q115.256 378.544 118.311 373.961 Q121.39 369.355 127.2 369.355 Z" fill="#000000" fill-rule="nonzero" fill-opacity="1" /><path clip-path="url(#clip900)" d="M147.362 398.66 L152.246 398.66 L152.246 404.54 L147.362 404.54 L147.362 398.66 Z" fill="#000000" fill-rule="nonzero" fill-opacity="1" /><path clip-path="url(#clip900)" d="M161.251 369.98 L183.473 369.98 L183.473 371.97 L170.927 404.54 L166.042 404.54 L177.848 373.915 L161.251 373.915 L161.251 369.98 Z" fill="#000000" fill-rule="nonzero" fill-opacity="1" /><path clip-path="url(#clip900)" d="M192.639 369.98 L210.996 369.98 L210.996 373.915 L196.922 373.915 L196.922 382.387 Q197.94 382.04 198.959 381.878 Q199.977 381.692 200.996 381.692 Q206.783 381.692 210.162 384.864 Q213.542 388.035 213.542 393.452 Q213.542 399.03 210.07 402.132 Q206.598 405.211 200.278 405.211 Q198.102 405.211 195.834 404.84 Q193.588 404.47 191.181 403.729 L191.181 399.03 Q193.264 400.165 195.487 400.72 Q197.709 401.276 200.186 401.276 Q204.19 401.276 206.528 399.169 Q208.866 397.063 208.866 393.452 Q208.866 389.841 206.528 387.734 Q204.19 385.628 200.186 385.628 Q198.311 385.628 196.436 386.044 Q194.584 386.461 192.639 387.341 L192.639 369.98 Z" fill="#000000" fill-rule="nonzero" fill-opacity="1" /><path clip-path="url(#clip900)" d="M117.015 99.5166 L124.654 99.5166 L124.654 73.151 L116.343 74.8176 L116.343 70.5584 L124.607 68.8917 L129.283 68.8917 L129.283 99.5166 L136.922 99.5166 L136.922 103.452 L117.015 103.452 L117.015 99.5166 Z" fill="#000000" fill-rule="nonzero" fill-opacity="1" /><path clip-path="url(#clip900)" d="M146.366 97.5721 L151.251 97.5721 L151.251 103.452 L146.366 103.452 L146.366 97.5721 Z" fill="#000000" fill-rule="nonzero" fill-opacity="1" /><path clip-path="url(#clip900)" d="M171.436 71.9704 Q167.825 71.9704 165.996 75.5352 Q164.19 79.0769 164.19 86.2064 Q164.19 93.3129 165.996 96.8777 Q167.825 100.419 171.436 100.419 Q175.07 100.419 176.876 96.8777 Q178.704 93.3129 178.704 86.2064 Q178.704 79.0769 176.876 75.5352 Q175.07 71.9704 171.436 71.9704 M171.436 68.2667 Q177.246 68.2667 180.301 72.8732 Q183.38 77.4565 183.38 86.2064 Q183.38 94.9333 180.301 99.5397 Q177.246 104.123 171.436 104.123 Q165.626 104.123 162.547 99.5397 Q159.491 94.9333 159.491 86.2064 Q159.491 77.4565 162.547 72.8732 Q165.626 68.2667 171.436 68.2667 Z" fill="#000000" fill-rule="nonzero" fill-opacity="1" /><path clip-path="url(#clip900)" d="M201.598 71.9704 Q197.987 71.9704 196.158 75.5352 Q194.352 79.0769 194.352 86.2064 Q194.352 93.3129 196.158 96.8777 Q197.987 100.419 201.598 100.419 Q205.232 100.419 207.037 96.8777 Q208.866 93.3129 208.866 86.2064 Q208.866 79.0769 207.037 75.5352 Q205.232 71.9704 201.598 71.9704 M201.598 68.2667 Q207.408 68.2667 210.463 72.8732 Q213.542 77.4565 213.542 86.2064 Q213.542 94.9333 210.463 99.5397 Q207.408 104.123 201.598 104.123 Q195.787 104.123 192.709 99.5397 Q189.653 94.9333 189.653 86.2064 Q189.653 77.4565 192.709 72.8732 Q195.787 68.2667 201.598 68.2667 Z" fill="#000000" fill-rule="nonzero" fill-opacity="1" /><path clip-path="url(#clip900)" d="M30.8561 720.775 Q31.307 720.775 32.3698 721.064 L57.5548 727.377 Q63.1586 728.762 67.0877 733.27 Q71.0168 737.747 71.0168 742.836 Q71.0168 745.895 69.3743 747.86 Q67.764 749.824 65.2842 749.824 Q63.0942 749.824 62.0314 748.665 Q61.0008 747.505 61.0008 746.121 Q61.0008 745.67 61.1296 745.187 Q61.2584 744.703 61.8059 744.188 Q62.3534 743.673 63.2874 743.673 Q64.8011 743.673 65.9927 744.993 Q66.5402 745.637 66.669 746.249 Q66.7978 746.829 66.7978 747.827 Q67.6996 747.441 68.3115 746.732 Q68.9234 746.024 69.1489 745.219 Q69.4065 744.414 69.4709 743.898 Q69.5675 743.351 69.5675 742.836 Q69.5675 738.713 65.413 735.557 Q64.157 734.623 62.9009 733.947 Q61.6771 733.238 60.1634 732.723 Q58.682 732.208 57.8768 731.982 Q57.0717 731.725 55.2359 731.274 Q58.2311 734.269 58.2311 737.94 Q58.2311 739.486 57.8124 740.871 Q57.3937 742.224 56.5242 743.415 Q55.6224 744.607 54.0443 745.315 Q52.4662 745.992 50.3728 745.992 Q48.1506 745.992 45.1233 745.122 Q42.0959 744.253 36.5243 742.159 Q33.4004 741.032 31.8867 741.032 Q31.146 741.032 30.6951 741.193 Q30.212 741.354 30.051 741.676 Q29.8577 741.998 29.8255 742.191 Q29.7933 742.352 29.7933 742.675 Q29.7933 744.575 31.7257 746.346 Q33.658 748.117 37.9736 749.341 Q38.7787 749.599 38.972 749.76 Q39.1652 749.921 39.1652 750.404 Q39.133 751.209 38.4889 751.209 Q38.2312 751.209 37.2329 750.919 Q36.2023 750.629 34.6886 749.953 Q33.1427 749.245 31.7579 748.278 Q30.3408 747.312 29.3424 745.798 Q28.344 744.253 28.344 742.481 Q28.344 740.066 29.9221 738.584 Q31.468 737.071 33.7546 737.071 Q34.6886 737.071 35.5259 737.328 Q36.3311 737.554 38.4889 738.391 Q47.1845 741.773 51.4356 741.773 Q52.4662 741.773 53.3358 741.612 Q54.1731 741.418 55.0105 741 Q55.8156 740.581 56.2987 739.744 Q56.7496 738.874 56.7496 737.683 Q56.7496 736.169 56.0411 734.752 Q55.3003 733.303 54.302 732.401 Q53.3036 731.467 52.4662 730.919 Q51.5967 730.34 51.1458 730.211 L39.294 727.248 L34.0123 725.927 Q31.146 725.316 30.4374 725.026 Q29.7611 724.639 29.4068 723.963 Q29.0526 723.287 29.0526 722.707 Q29.0526 721.902 29.5357 721.354 Q30.0187 720.775 30.8561 720.775 Z" fill="#000000" fill-rule="nonzero" fill-opacity="1" /><polyline clip-path="url(#clip902)" style="stroke:#ff7e0d; stroke-linecap:round; stroke-linejoin:round; stroke-width:8; stroke-opacity:1; fill:none" stroke-dasharray="32, 20" points="309.067,277.096 312.942,279.612 316.818,285.118 320.693,291.506 324.568,285.949 328.444,275.948 332.319,267.927 336.194,260.089 340.07,263.274 343.945,256.454 347.82,255.489 351.695,249.486 355.571,240.103 359.446,231.016 363.321,231.631 367.197,231.344 371.072,233.95 374.947,225.289 378.823,222.205 382.698,217.411 386.573,210.852 390.449,209.437 394.324,211.19 398.199,204.449 402.075,211.437 405.95,208.36 409.825,198.154 413.701,200.473 417.576,196.486 421.451,193.321 425.327,189.882 429.202,183.538 433.077,179.295 436.953,177.927 440.828,188.455 444.703,188.745 448.578,193.84 452.454,193.55 456.329,188.279 460.204,200.41 464.08,192.821 467.955,189.734 471.83,194.382 475.706,202.451 479.581,198.399 483.456,195.949 487.332,184.572 491.207,181.233 495.082,192.391 498.958,188.879 502.833,193.055 506.708,194.677 510.584,190.852 514.459,187.388 518.334,183.638 522.21,191.7 526.085,194.457 529.96,195.757 533.836,200.208 537.711,200.568 541.586,200.25 545.461,198.407 549.337,200.19 553.212,216.382 557.087,216.913 560.963,219.28 564.838,226.3 568.713,222.131 572.589,217.876 576.464,216.383 580.339,214.89 584.215,219.164 588.09,212.994 591.965,211.043 595.841,212.613 599.716,210.13 603.591,210.87 607.467,206.678 611.342,213.464 615.217,207.171 619.093,204.243 622.968,200.067 626.843,206.595 630.719,206.823 634.594,207.805 638.469,210.405 642.345,210.065 646.22,212.291 650.095,215.525 653.97,210.833 657.846,213.694 661.721,217.09 665.596,222.379 669.472,229.249 673.347,227.351 677.222,223.714 681.098,215.125 684.973,214.321 688.848,219.812 692.724,226.492 696.599,221.481 700.474,226.701 704.35,237.441 708.225,234.16 712.1,233.166 715.976,239.876 719.851,250.212 723.726,253.643 727.602,252.279 731.477,246.695 735.352,248.742 739.228,242.08 743.103,239.062 746.978,228.836 750.853,218.165 754.729,223.89 758.604,229.489 762.479,224.404 766.355,227.414 770.23,227.874 774.105,215.082 777.981,223.461 781.856,207.204 785.731,208.857 789.607,202.294 793.482,199.86 797.357,197.52 801.233,193.293 805.108,195.624 808.983,200.921 812.859,202.024 816.734,200.498 820.609,197.4 824.485,194.656 828.36,191.453 832.235,189.243 836.111,186.326 839.986,184.629 843.861,184.215 847.736,185.907 851.612,189.336 855.487,187.249 859.362,180.655 863.238,175.59 867.113,170.054 870.988,161.532 874.864,169.546 878.739,176.195 882.614,169.004 886.49,161.642 890.365,158.9 894.24,157.125 898.116,157.562 901.991,160.146 905.866,161.431 909.742,162.81 913.617,159.706 917.492,154.738 921.368,153.113 925.243,151.309 929.118,151.728 932.994,150.59 936.869,151.13 940.744,156.458 944.619,154.571 948.495,158.066 952.37,159.917 956.245,158.895 960.121,162.256 963.996,166.399 967.871,163.578 971.747,167.694 975.622,164.586 979.497,156.493 983.373,158.852 987.248,156.006 991.123,154.194 994.999,154.646 998.874,152.643 1002.75,158.695 1006.62,158.491 1010.5,162.739 1014.38,161.944 1018.25,159.652 1022.13,155.039 1026,151.935 1029.88,149.729 1033.75,146.03 1037.63,144.921 1041.5,145.662 1045.38,142.305 1049.25,142.033 1053.13,137.542 1057,136.377 1060.88,140.858 1064.75,137.836 1068.63,142.538 1072.51,142.349 1076.38,153.069 1080.26,155.254 1084.13,152.95 1088.01,155.102 1091.88,154.283 1095.76,157.204 1099.63,151.353 1103.51,157.823 1107.38,152.018 1111.26,149.727 1115.13,155.078 1119.01,150.34 1122.88,153.498 1126.76,148.257 1130.63,143.134 1134.51,140.072 1138.39,134.369 1142.26,127.954 1146.14,132.954 1150.01,130.466 1153.89,130.941 1157.76,133.055 1161.64,127.529 1165.51,121.421 1169.39,116.41 1173.26,118.142 1177.14,115.983 1181.01,113.951 1184.89,116.571 1188.76,114.331 1192.64,108.42 1196.52,108.028 1200.39,107.59 1204.27,104.231 1208.14,102.607 1212.02,100.721 1215.89,104.039 1219.77,103.153 1223.64,101.089 1227.52,100.415 1231.39,101.712 1235.27,101.394 1239.14,94.1046 1243.02,95.2474 1246.89,94.2247 1250.77,91.8602 1254.65,91.0384 1258.52,91.0811 1262.4,90.8906 1266.27,91.7288 1270.15,92.2736 1274.02,91.3228 1277.9,88.9939 1281.77,90.8681 1285.65,90.8355 1289.52,91.5136 1293.4,90.3464 1297.27,89.7478 1301.15,89.1955 1305.02,86.9695 1308.9,87.1246 1312.77,86.5801 1316.65,87.106 1320.53,87.41 1324.4,88.6307 1328.28,87.5813 1332.15,86.4372 1336.03,86.2009 1339.9,86.5767 1343.78,86.7183 1347.65,87.1579 1351.53,87.4784 1355.4,86.7476 1359.28,86.4609 1363.15,86.226 1367.03,86.1857 1370.9,86.4028 1374.78,86.4508 1378.66,86.642 1382.53,86.6644 1386.41,87.3158 1390.28,86.6701 1394.16,87.5578 1398.03,88.8491 1401.91,89.4819 1405.78,90.1742 1409.66,89.3109 1413.53,91.283 1417.41,94.6211 1421.28,91.5934 1425.16,90.9246 1429.03,92.5092 1432.91,92.5839 1436.79,94.9213 1440.66,95.7147 1444.54,99.5851 1448.41,105.206 1452.29,102.507 1456.16,110.414 1460.04,122.911 1463.91,116.084 1467.79,118.194 1471.66,119.422 1475.54,116.594 1479.41,120.928 1483.29,122.65 1487.16,127.304 1491.04,128.193 1494.91,128.973 1498.79,127.459 1502.67,129.158 1506.54,117.229 1510.42,119.026 1514.29,130.253 1518.17,129.1 1522.04,120.285 1525.92,126.886 1529.79,131.626 1533.67,129.527 1537.54,133.178 1541.42,132.063 1545.29,137.683 1549.17,141.464 1553.04,143.34 1556.92,140.252 1560.8,138.37 1564.67,134.179 1568.55,137.469 1572.42,136.276 1576.3,130.876 1580.17,130.547 1584.05,134.922 1587.92,134.264 1591.8,140.627 1595.67,132.823 1599.55,129.425 1603.42,132.088 1607.3,132.276 1611.17,134.836 1615.05,128.6 1618.93,132.476 1622.8,139.523 1626.68,148.785 1630.55,150.601 1634.43,152.563 1638.3,162.973 1642.18,160.179 1646.05,154.526 1649.93,158.164 1653.8,163.042 1657.68,165.32 1661.55,164.232 1665.43,152.233 1669.3,163.684 1673.18,156.138 1677.06,154.924 1680.93,158.039 1684.81,161.499 1688.68,156.912 1692.56,154.824 1696.43,159.973 1700.31,156.132 1704.18,162.844 1708.06,174.985 1711.93,180.424 1715.81,180.119 1719.68,180.738 1723.56,187.245 1727.43,195.643 1731.31,189.27 1735.18,185.22 1739.06,194.591 1742.94,193.269 1746.81,212.868 1750.69,200.234 1754.56,222.792 1758.44,239.573 1762.31,238.983 1766.19,227.656 1770.06,229.551 1773.94,238.762 1777.81,236.187 1781.69,227.023 1785.56,241.279 1789.44,246.31 1793.31,241.566 1797.19,261.154 1801.07,263.046 1804.94,266.188 1808.82,264.866 1812.69,273.579 1816.57,279.244 1820.44,287.999 1824.32,300.378 1828.19,303.383 1832.07,307.704 1835.94,327.271 1839.82,334.735 1843.69,357.879 1847.57,358.027 1851.44,358.799 1855.32,351.936 1859.2,366.746 1863.07,356.696 1866.95,368.719 1870.82,373.055 1874.7,353.763 1878.57,367.072 1882.45,358.574 1886.32,374.313 1890.2,395.405 1894.07,400.085 1897.95,398.658 1901.82,422.234 1905.7,458.25 1909.57,454.626 1913.45,473.263 1917.32,537.695 1921.2,529.763 1925.08,538.807 1928.95,542.856 1932.83,539.679 1936.7,525.599 1940.58,549.102 1944.45,562.466 1948.33,582.191 1952.2,595.294 1956.08,602.226 1959.95,600.382 1963.83,592.294 1967.7,602.126 1971.58,593.871 1975.45,577.449 1979.33,598.295 1983.21,590.62 1987.08,586.618 1990.96,578.523 1994.83,572.769 1998.71,550.389 2002.58,531.485 2006.46,524.597 2010.33,517.548 2014.21,526.956 2018.08,524.3 2021.96,536.927 2025.83,541.175 2029.71,550.383 2033.58,529.417 2037.46,544.209 2041.34,536.373 2045.21,537.644 2049.09,614.944 2052.96,676.133 2056.84,734.196 2060.71,747.687 2064.59,733.352 2068.46,784.975 2072.34,743.017 2076.21,694.075 2080.09,721.541 2083.96,735.695 2087.84,758.764 2091.71,755.033 2095.59,774.209 2099.46,739.783 2103.34,746.457 2107.22,799.499 2111.09,812.834 2114.97,821.887 2118.84,820.926 2122.72,819.288 2126.59,877.469 2130.47,871.36 2134.34,875.959 2138.22,897.189 2142.09,883.442 2145.97,886.576 2149.84,848.344 2153.72,857.727 2157.59,861.314 2161.47,892.038 2165.35,900.205 2169.22,925.593 2173.1,993.765 2176.97,1009.66 2180.85,1008.24 2184.72,1043.69 2188.6,1062.28 2192.47,1088.39 2196.35,1116.4 2200.22,1116.46 2204.1,1170.88 2207.97,1183.49 2211.85,1174.58 2215.72,1208.6 2219.6,1253.02 2223.48,1287.64 2227.35,1305.42 2231.23,1299.17 2235.1,1262.49 2238.98,1267.01 2242.85,1291.8 2246.73,1300.44 2250.6,1359.69 2254.48,1365.84 2258.35,1373.67 2262.23,1362.4 2266.1,1348.38 2269.98,1384.24 2273.85,1339.72 2277.73,1364.32 2281.61,1331.76 2285.48,1285.5 2289.36,1264.34 2293.23,1272.4 "/>
<path clip-path="url(#clip900)" d="M319.649 1377.32 L918.58 1377.32 L918.58 1273.64 L319.649 1273.64  Z" fill="#ffffff" fill-rule="evenodd" fill-opacity="1"/>
<polyline clip-path="url(#clip900)" style="stroke:#000000; stroke-linecap:round; stroke-linejoin:round; stroke-width:4; stroke-opacity:1; fill:none" points="319.649,1377.32 918.58,1377.32 918.58,1273.64 319.649,1273.64 319.649,1377.32 "/>
<polyline clip-path="url(#clip900)" style="stroke:#ff7e0d; stroke-linecap:round; stroke-linejoin:round; stroke-width:8; stroke-opacity:1; fill:none" stroke-dasharray="32, 20" points="343.018,1325.48 483.232,1325.48 "/>
<path clip-path="url(#clip900)" d="M525.027 1317.59 L525.027 1321.62 Q523.222 1320.7 521.277 1320.23 Q519.333 1319.77 517.25 1319.77 Q514.078 1319.77 512.481 1320.74 Q510.907 1321.71 510.907 1323.66 Q510.907 1325.14 512.041 1326 Q513.176 1326.83 516.601 1327.59 L518.06 1327.92 Q522.597 1328.89 524.495 1330.67 Q526.416 1332.43 526.416 1335.6 Q526.416 1339.21 523.546 1341.32 Q520.699 1343.43 515.699 1343.43 Q513.615 1343.43 511.347 1343.01 Q509.101 1342.62 506.602 1341.81 L506.602 1337.41 Q508.963 1338.63 511.254 1339.26 Q513.546 1339.86 515.791 1339.86 Q518.801 1339.86 520.421 1338.84 Q522.041 1337.8 522.041 1335.93 Q522.041 1334.19 520.861 1333.26 Q519.703 1332.34 515.745 1331.48 L514.264 1331.14 Q510.305 1330.3 508.546 1328.59 Q506.787 1326.85 506.787 1323.84 Q506.787 1320.19 509.379 1318.2 Q511.972 1316.2 516.74 1316.2 Q519.101 1316.2 521.185 1316.55 Q523.268 1316.9 525.027 1317.59 Z" fill="#000000" fill-rule="nonzero" fill-opacity="1" /><path clip-path="url(#clip900)" d="M533.199 1316.83 L537.458 1316.83 L537.458 1342.76 L533.199 1342.76 L533.199 1316.83 M533.199 1306.74 L537.458 1306.74 L537.458 1312.13 L533.199 1312.13 L533.199 1306.74 Z" fill="#000000" fill-rule="nonzero" fill-opacity="1" /><path clip-path="url(#clip900)" d="M567.921 1327.11 L567.921 1342.76 L563.661 1342.76 L563.661 1327.25 Q563.661 1323.57 562.226 1321.74 Q560.791 1319.91 557.921 1319.91 Q554.472 1319.91 552.481 1322.11 Q550.49 1324.31 550.49 1328.1 L550.49 1342.76 L546.208 1342.76 L546.208 1316.83 L550.49 1316.83 L550.49 1320.86 Q552.018 1318.52 554.078 1317.36 Q556.161 1316.2 558.87 1316.2 Q563.337 1316.2 565.629 1318.98 Q567.921 1321.74 567.921 1327.11 Z" fill="#000000" fill-rule="nonzero" fill-opacity="1" /><path clip-path="url(#clip900)" d="M601.532 1319.82 Q598.106 1319.82 596.115 1322.5 Q594.124 1325.16 594.124 1329.82 Q594.124 1334.47 596.092 1337.15 Q598.082 1339.82 601.532 1339.82 Q604.934 1339.82 606.925 1337.13 Q608.916 1334.45 608.916 1329.82 Q608.916 1325.21 606.925 1322.52 Q604.934 1319.82 601.532 1319.82 M601.532 1316.2 Q607.087 1316.2 610.258 1319.82 Q613.43 1323.43 613.43 1329.82 Q613.43 1336.18 610.258 1339.82 Q607.087 1343.43 601.532 1343.43 Q595.953 1343.43 592.782 1339.82 Q589.633 1336.18 589.633 1329.82 Q589.633 1323.43 592.782 1319.82 Q595.953 1316.2 601.532 1316.2 Z" fill="#000000" fill-rule="nonzero" fill-opacity="1" /><path clip-path="url(#clip900)" d="M633.615 1306.74 L633.615 1310.28 L629.541 1310.28 Q627.249 1310.28 626.346 1311.2 Q625.467 1312.13 625.467 1314.54 L625.467 1316.83 L632.48 1316.83 L632.48 1320.14 L625.467 1320.14 L625.467 1342.76 L621.184 1342.76 L621.184 1320.14 L617.11 1320.14 L617.11 1316.83 L621.184 1316.83 L621.184 1315.02 Q621.184 1310.7 623.198 1308.73 Q625.212 1306.74 629.587 1306.74 L633.615 1306.74 Z" fill="#000000" fill-rule="nonzero" fill-opacity="1" /><path clip-path="url(#clip900)" d="M669.309 1329.49 Q669.309 1324.86 667.388 1322.32 Q665.49 1319.77 662.04 1319.77 Q658.615 1319.77 656.693 1322.32 Q654.795 1324.86 654.795 1329.49 Q654.795 1334.1 656.693 1336.64 Q658.615 1339.19 662.04 1339.19 Q665.49 1339.19 667.388 1336.64 Q669.309 1334.1 669.309 1329.49 M673.568 1339.54 Q673.568 1346.16 670.628 1349.38 Q667.689 1352.62 661.624 1352.62 Q659.378 1352.62 657.388 1352.27 Q655.397 1351.95 653.522 1351.25 L653.522 1347.11 Q655.397 1348.13 657.226 1348.61 Q659.054 1349.1 660.953 1349.1 Q665.142 1349.1 667.226 1346.9 Q669.309 1344.72 669.309 1340.3 L669.309 1338.2 Q667.99 1340.49 665.929 1341.62 Q663.869 1342.76 660.999 1342.76 Q656.23 1342.76 653.314 1339.12 Q650.397 1335.49 650.397 1329.49 Q650.397 1323.47 653.314 1319.84 Q656.23 1316.2 660.999 1316.2 Q663.869 1316.2 665.929 1317.34 Q667.99 1318.47 669.309 1320.76 L669.309 1316.83 L673.568 1316.83 L673.568 1339.54 Z" fill="#000000" fill-rule="nonzero" fill-opacity="1" /><path clip-path="url(#clip900)" d="M687.202 1326.25 L687.202 1338.91 L694.702 1338.91 Q698.475 1338.91 700.281 1337.36 Q702.11 1335.79 702.11 1332.57 Q702.11 1329.33 700.281 1327.8 Q698.475 1326.25 694.702 1326.25 L687.202 1326.25 M687.202 1312.04 L687.202 1322.45 L694.124 1322.45 Q697.55 1322.45 699.216 1321.18 Q700.906 1319.89 700.906 1317.25 Q700.906 1314.63 699.216 1313.33 Q697.55 1312.04 694.124 1312.04 L687.202 1312.04 M682.526 1308.2 L694.471 1308.2 Q699.818 1308.2 702.712 1310.42 Q705.605 1312.64 705.605 1316.74 Q705.605 1319.91 704.124 1321.78 Q702.642 1323.66 699.772 1324.12 Q703.221 1324.86 705.119 1327.22 Q707.04 1329.56 707.04 1333.08 Q707.04 1337.71 703.892 1340.23 Q700.744 1342.76 694.934 1342.76 L682.526 1342.76 L682.526 1308.2 Z" fill="#000000" fill-rule="nonzero" fill-opacity="1" /><path clip-path="url(#clip900)" d="M735.049 1321.81 Q736.647 1318.94 738.869 1317.57 Q741.091 1316.2 744.1 1316.2 Q748.151 1316.2 750.35 1319.05 Q752.549 1321.88 752.549 1327.11 L752.549 1342.76 L748.267 1342.76 L748.267 1327.25 Q748.267 1323.52 746.947 1321.71 Q745.628 1319.91 742.92 1319.91 Q739.61 1319.91 737.688 1322.11 Q735.767 1324.31 735.767 1328.1 L735.767 1342.76 L731.485 1342.76 L731.485 1327.25 Q731.485 1323.5 730.165 1321.71 Q728.846 1319.91 726.091 1319.91 Q722.827 1319.91 720.906 1322.13 Q718.985 1324.33 718.985 1328.1 L718.985 1342.76 L714.702 1342.76 L714.702 1316.83 L718.985 1316.83 L718.985 1320.86 Q720.443 1318.47 722.48 1317.34 Q724.517 1316.2 727.318 1316.2 Q730.142 1316.2 732.11 1317.64 Q734.1 1319.07 735.049 1321.81 Z" fill="#000000" fill-rule="nonzero" fill-opacity="1" /><path clip-path="url(#clip900)" d="M797.665 1327.11 L797.665 1342.76 L793.406 1342.76 L793.406 1327.25 Q793.406 1323.57 791.97 1321.74 Q790.535 1319.91 787.665 1319.91 Q784.216 1319.91 782.225 1322.11 Q780.234 1324.31 780.234 1328.1 L780.234 1342.76 L775.952 1342.76 L775.952 1316.83 L780.234 1316.83 L780.234 1320.86 Q781.762 1318.52 783.822 1317.36 Q785.906 1316.2 788.614 1316.2 Q793.081 1316.2 795.373 1318.98 Q797.665 1321.74 797.665 1327.11 Z" fill="#000000" fill-rule="nonzero" fill-opacity="1" /><path clip-path="url(#clip900)" d="M816.206 1319.82 Q812.78 1319.82 810.79 1322.5 Q808.799 1325.16 808.799 1329.82 Q808.799 1334.47 810.767 1337.15 Q812.757 1339.82 816.206 1339.82 Q819.609 1339.82 821.6 1337.13 Q823.591 1334.45 823.591 1329.82 Q823.591 1325.21 821.6 1322.52 Q819.609 1319.82 816.206 1319.82 M816.206 1316.2 Q821.762 1316.2 824.933 1319.82 Q828.104 1323.43 828.104 1329.82 Q828.104 1336.18 824.933 1339.82 Q821.762 1343.43 816.206 1343.43 Q810.628 1343.43 807.456 1339.82 Q804.308 1336.18 804.308 1329.82 Q804.308 1323.43 807.456 1319.82 Q810.628 1316.2 816.206 1316.2 Z" fill="#000000" fill-rule="nonzero" fill-opacity="1" /><path clip-path="url(#clip900)" d="M835.165 1316.83 L839.424 1316.83 L839.424 1342.76 L835.165 1342.76 L835.165 1316.83 M835.165 1306.74 L839.424 1306.74 L839.424 1312.13 L835.165 1312.13 L835.165 1306.74 Z" fill="#000000" fill-rule="nonzero" fill-opacity="1" /><path clip-path="url(#clip900)" d="M864.863 1317.59 L864.863 1321.62 Q863.058 1320.7 861.113 1320.23 Q859.169 1319.77 857.086 1319.77 Q853.914 1319.77 852.317 1320.74 Q850.743 1321.71 850.743 1323.66 Q850.743 1325.14 851.877 1326 Q853.012 1326.83 856.438 1327.59 L857.896 1327.92 Q862.433 1328.89 864.331 1330.67 Q866.252 1332.43 866.252 1335.6 Q866.252 1339.21 863.382 1341.32 Q860.535 1343.43 855.535 1343.43 Q853.451 1343.43 851.183 1343.01 Q848.938 1342.62 846.438 1341.81 L846.438 1337.41 Q848.799 1338.63 851.09 1339.26 Q853.382 1339.86 855.627 1339.86 Q858.637 1339.86 860.257 1338.84 Q861.877 1337.8 861.877 1335.93 Q861.877 1334.19 860.697 1333.26 Q859.539 1332.34 855.581 1331.48 L854.1 1331.14 Q850.141 1330.3 848.382 1328.59 Q846.623 1326.85 846.623 1323.84 Q846.623 1320.19 849.215 1318.2 Q851.808 1316.2 856.576 1316.2 Q858.938 1316.2 861.021 1316.55 Q863.104 1316.9 864.863 1317.59 Z" fill="#000000" fill-rule="nonzero" fill-opacity="1" /><path clip-path="url(#clip900)" d="M895.211 1328.73 L895.211 1330.81 L875.627 1330.81 Q875.905 1335.21 878.266 1337.52 Q880.65 1339.82 884.887 1339.82 Q887.34 1339.82 889.632 1339.21 Q891.947 1338.61 894.215 1337.41 L894.215 1341.44 Q891.924 1342.41 889.516 1342.92 Q887.109 1343.43 884.632 1343.43 Q878.428 1343.43 874.794 1339.82 Q871.183 1336.2 871.183 1330.05 Q871.183 1323.68 874.609 1319.95 Q878.058 1316.2 883.891 1316.2 Q889.123 1316.2 892.155 1319.58 Q895.211 1322.94 895.211 1328.73 M890.951 1327.48 Q890.905 1323.98 888.984 1321.9 Q887.086 1319.82 883.937 1319.82 Q880.373 1319.82 878.22 1321.83 Q876.09 1323.84 875.766 1327.5 L890.951 1327.48 Z" fill="#000000" fill-rule="nonzero" fill-opacity="1" /></svg>
