<?xml version="1.0" encoding="utf-8"?>
<svg xmlns="http://www.w3.org/2000/svg" xmlns:xlink="http://www.w3.org/1999/xlink" width="600" height="400" viewBox="0 0 2400 1600">
<defs>
  <clipPath id="clip840">
    <rect x="0" y="0" width="2400" height="1600"/>
  </clipPath>
</defs>
<path clip-path="url(#clip840)" d="M0 1600 L2400 1600 L2400 0 L0 0  Z" fill="#ffffff" fill-rule="evenodd" fill-opacity="1"/>
<defs>
  <clipPath id="clip841">
    <rect x="480" y="0" width="1681" height="1600"/>
  </clipPath>
</defs>
<path clip-path="url(#clip840)" d="M219.033 1423.18 L2352.76 1423.18 L2352.76 47.2441 L219.033 47.2441  Z" fill="#ffffff" fill-rule="evenodd" fill-opacity="1"/>
<defs>
  <clipPath id="clip842">
    <rect x="219" y="47" width="2135" height="1377"/>
  </clipPath>
</defs>
<polyline clip-path="url(#clip842)" style="stroke:#000000; stroke-linecap:round; stroke-linejoin:round; stroke-width:2; stroke-opacity:0.1; fill:none" points="279.421,1423.18 279.421,47.2441 "/>
<polyline clip-path="url(#clip842)" style="stroke:#000000; stroke-linecap:round; stroke-linejoin:round; stroke-width:2; stroke-opacity:0.1; fill:none" points="782.658,1423.18 782.658,47.2441 "/>
<polyline clip-path="url(#clip842)" style="stroke:#000000; stroke-linecap:round; stroke-linejoin:round; stroke-width:2; stroke-opacity:0.1; fill:none" points="1285.89,1423.18 1285.89,47.2441 "/>
<polyline clip-path="url(#clip842)" style="stroke:#000000; stroke-linecap:round; stroke-linejoin:round; stroke-width:2; stroke-opacity:0.1; fill:none" points="1789.13,1423.18 1789.13,47.2441 "/>
<polyline clip-path="url(#clip842)" style="stroke:#000000; stroke-linecap:round; stroke-linejoin:round; stroke-width:2; stroke-opacity:0.1; fill:none" points="2292.37,1423.18 2292.37,47.2441 "/>
<polyline clip-path="url(#clip842)" style="stroke:#000000; stroke-linecap:round; stroke-linejoin:round; stroke-width:2; stroke-opacity:0.1; fill:none" points="219.033,1371.63 2352.76,1371.63 "/>
<polyline clip-path="url(#clip842)" style="stroke:#000000; stroke-linecap:round; stroke-linejoin:round; stroke-width:2; stroke-opacity:0.1; fill:none" points="219.033,1082.05 2352.76,1082.05 "/>
<polyline clip-path="url(#clip842)" style="stroke:#000000; stroke-linecap:round; stroke-linejoin:round; stroke-width:2; stroke-opacity:0.1; fill:none" points="219.033,792.465 2352.76,792.465 "/>
<polyline clip-path="url(#clip842)" style="stroke:#000000; stroke-linecap:round; stroke-linejoin:round; stroke-width:2; stroke-opacity:0.1; fill:none" points="219.033,502.884 2352.76,502.884 "/>
<polyline clip-path="url(#clip842)" style="stroke:#000000; stroke-linecap:round; stroke-linejoin:round; stroke-width:2; stroke-opacity:0.1; fill:none" points="219.033,213.303 2352.76,213.303 "/>
<polyline clip-path="url(#clip840)" style="stroke:#000000; stroke-linecap:round; stroke-linejoin:round; stroke-width:4; stroke-opacity:1; fill:none" points="219.033,1423.18 2352.76,1423.18 "/>
<polyline clip-path="url(#clip840)" style="stroke:#000000; stroke-linecap:round; stroke-linejoin:round; stroke-width:4; stroke-opacity:1; fill:none" points="279.421,1423.18 279.421,1404.28 "/>
<polyline clip-path="url(#clip840)" style="stroke:#000000; stroke-linecap:round; stroke-linejoin:round; stroke-width:4; stroke-opacity:1; fill:none" points="782.658,1423.18 782.658,1404.28 "/>
<polyline clip-path="url(#clip840)" style="stroke:#000000; stroke-linecap:round; stroke-linejoin:round; stroke-width:4; stroke-opacity:1; fill:none" points="1285.89,1423.18 1285.89,1404.28 "/>
<polyline clip-path="url(#clip840)" style="stroke:#000000; stroke-linecap:round; stroke-linejoin:round; stroke-width:4; stroke-opacity:1; fill:none" points="1789.13,1423.18 1789.13,1404.28 "/>
<polyline clip-path="url(#clip840)" style="stroke:#000000; stroke-linecap:round; stroke-linejoin:round; stroke-width:4; stroke-opacity:1; fill:none" points="2292.37,1423.18 2292.37,1404.28 "/>
<path clip-path="url(#clip840)" d="M241.725 1454.1 Q238.114 1454.1 236.285 1457.66 Q234.479 1461.2 234.479 1468.33 Q234.479 1475.44 236.285 1479.01 Q238.114 1482.55 241.725 1482.55 Q245.359 1482.55 247.165 1479.01 Q248.993 1475.44 248.993 1468.33 Q248.993 1461.2 247.165 1457.66 Q245.359 1454.1 241.725 1454.1 M241.725 1450.39 Q247.535 1450.39 250.59 1455 Q253.669 1459.58 253.669 1468.33 Q253.669 1477.06 250.59 1481.67 Q247.535 1486.25 241.725 1486.25 Q235.915 1486.25 232.836 1481.67 Q229.78 1477.06 229.78 1468.33 Q229.78 1459.58 232.836 1455 Q235.915 1450.39 241.725 1450.39 Z" fill="#000000" fill-rule="nonzero" fill-opacity="1" /><path clip-path="url(#clip840)" d="M261.887 1479.7 L266.771 1479.7 L266.771 1485.58 L261.887 1485.58 L261.887 1479.7 Z" fill="#000000" fill-rule="nonzero" fill-opacity="1" /><path clip-path="url(#clip840)" d="M286.956 1454.1 Q283.345 1454.1 281.516 1457.66 Q279.711 1461.2 279.711 1468.33 Q279.711 1475.44 281.516 1479.01 Q283.345 1482.55 286.956 1482.55 Q290.59 1482.55 292.396 1479.01 Q294.224 1475.44 294.224 1468.33 Q294.224 1461.2 292.396 1457.66 Q290.59 1454.1 286.956 1454.1 M286.956 1450.39 Q292.766 1450.39 295.822 1455 Q298.9 1459.58 298.9 1468.33 Q298.9 1477.06 295.822 1481.67 Q292.766 1486.25 286.956 1486.25 Q281.146 1486.25 278.067 1481.67 Q275.012 1477.06 275.012 1468.33 Q275.012 1459.58 278.067 1455 Q281.146 1450.39 286.956 1450.39 Z" fill="#000000" fill-rule="nonzero" fill-opacity="1" /><path clip-path="url(#clip840)" d="M317.118 1454.1 Q313.507 1454.1 311.678 1457.66 Q309.873 1461.2 309.873 1468.33 Q309.873 1475.44 311.678 1479.01 Q313.507 1482.55 317.118 1482.55 Q320.752 1482.55 322.558 1479.01 Q324.386 1475.44 324.386 1468.33 Q324.386 1461.2 322.558 1457.66 Q320.752 1454.1 317.118 1454.1 M317.118 1450.39 Q322.928 1450.39 325.984 1455 Q329.062 1459.58 329.062 1468.33 Q329.062 1477.06 325.984 1481.67 Q322.928 1486.25 317.118 1486.25 Q311.308 1486.25 308.229 1481.67 Q305.173 1477.06 305.173 1468.33 Q305.173 1459.58 308.229 1455 Q311.308 1450.39 317.118 1450.39 Z" fill="#000000" fill-rule="nonzero" fill-opacity="1" /><path clip-path="url(#clip840)" d="M745.459 1454.1 Q741.848 1454.1 740.019 1457.66 Q738.214 1461.2 738.214 1468.33 Q738.214 1475.44 740.019 1479.01 Q741.848 1482.55 745.459 1482.55 Q749.093 1482.55 750.899 1479.01 Q752.727 1475.44 752.727 1468.33 Q752.727 1461.2 750.899 1457.66 Q749.093 1454.1 745.459 1454.1 M745.459 1450.39 Q751.269 1450.39 754.325 1455 Q757.403 1459.58 757.403 1468.33 Q757.403 1477.06 754.325 1481.67 Q751.269 1486.25 745.459 1486.25 Q739.649 1486.25 736.57 1481.67 Q733.515 1477.06 733.515 1468.33 Q733.515 1459.58 736.57 1455 Q739.649 1450.39 745.459 1450.39 Z" fill="#000000" fill-rule="nonzero" fill-opacity="1" /><path clip-path="url(#clip840)" d="M765.621 1479.7 L770.505 1479.7 L770.505 1485.58 L765.621 1485.58 L765.621 1479.7 Z" fill="#000000" fill-rule="nonzero" fill-opacity="1" /><path clip-path="url(#clip840)" d="M784.718 1481.64 L801.037 1481.64 L801.037 1485.58 L779.093 1485.58 L779.093 1481.64 Q781.755 1478.89 786.338 1474.26 Q790.945 1469.61 792.125 1468.27 Q794.371 1465.74 795.25 1464.01 Q796.153 1462.25 796.153 1460.56 Q796.153 1457.8 794.209 1456.07 Q792.287 1454.33 789.186 1454.33 Q786.987 1454.33 784.533 1455.09 Q782.102 1455.86 779.325 1457.41 L779.325 1452.69 Q782.149 1451.55 784.602 1450.97 Q787.056 1450.39 789.093 1450.39 Q794.463 1450.39 797.658 1453.08 Q800.852 1455.77 800.852 1460.26 Q800.852 1462.39 800.042 1464.31 Q799.255 1466.2 797.149 1468.8 Q796.57 1469.47 793.468 1472.69 Q790.366 1475.88 784.718 1481.64 Z" fill="#000000" fill-rule="nonzero" fill-opacity="1" /><path clip-path="url(#clip840)" d="M810.898 1451.02 L829.255 1451.02 L829.255 1454.96 L815.181 1454.96 L815.181 1463.43 Q816.199 1463.08 817.218 1462.92 Q818.236 1462.73 819.255 1462.73 Q825.042 1462.73 828.422 1465.9 Q831.801 1469.08 831.801 1474.49 Q831.801 1480.07 828.329 1483.17 Q824.857 1486.25 818.537 1486.25 Q816.361 1486.25 814.093 1485.88 Q811.848 1485.51 809.44 1484.77 L809.44 1480.07 Q811.523 1481.2 813.746 1481.76 Q815.968 1482.32 818.445 1482.32 Q822.449 1482.32 824.787 1480.21 Q827.125 1478.1 827.125 1474.49 Q827.125 1470.88 824.787 1468.77 Q822.449 1466.67 818.445 1466.67 Q816.57 1466.67 814.695 1467.08 Q812.843 1467.5 810.898 1468.38 L810.898 1451.02 Z" fill="#000000" fill-rule="nonzero" fill-opacity="1" /><path clip-path="url(#clip840)" d="M1248.2 1454.1 Q1244.59 1454.1 1242.76 1457.66 Q1240.95 1461.2 1240.95 1468.33 Q1240.95 1475.44 1242.76 1479.01 Q1244.59 1482.55 1248.2 1482.55 Q1251.83 1482.55 1253.64 1479.01 Q1255.47 1475.44 1255.47 1468.33 Q1255.47 1461.2 1253.64 1457.66 Q1251.83 1454.1 1248.2 1454.1 M1248.2 1450.39 Q1254.01 1450.39 1257.06 1455 Q1260.14 1459.58 1260.14 1468.33 Q1260.14 1477.06 1257.06 1481.67 Q1254.01 1486.25 1248.2 1486.25 Q1242.39 1486.25 1239.31 1481.67 Q1236.25 1477.06 1236.25 1468.33 Q1236.25 1459.58 1239.31 1455 Q1242.39 1450.39 1248.2 1450.39 Z" fill="#000000" fill-rule="nonzero" fill-opacity="1" /><path clip-path="url(#clip840)" d="M1268.36 1479.7 L1273.24 1479.7 L1273.24 1485.58 L1268.36 1485.58 L1268.36 1479.7 Z" fill="#000000" fill-rule="nonzero" fill-opacity="1" /><path clip-path="url(#clip840)" d="M1283.48 1451.02 L1301.83 1451.02 L1301.83 1454.96 L1287.76 1454.96 L1287.76 1463.43 Q1288.78 1463.08 1289.79 1462.92 Q1290.81 1462.73 1291.83 1462.73 Q1297.62 1462.73 1301 1465.9 Q1304.38 1469.08 1304.38 1474.49 Q1304.38 1480.07 1300.91 1483.17 Q1297.43 1486.25 1291.11 1486.25 Q1288.94 1486.25 1286.67 1485.88 Q1284.42 1485.51 1282.02 1484.77 L1282.02 1480.07 Q1284.1 1481.2 1286.32 1481.76 Q1288.54 1482.32 1291.02 1482.32 Q1295.03 1482.32 1297.36 1480.21 Q1299.7 1478.1 1299.7 1474.49 Q1299.7 1470.88 1297.36 1468.77 Q1295.03 1466.67 1291.02 1466.67 Q1289.15 1466.67 1287.27 1467.08 Q1285.42 1467.5 1283.48 1468.38 L1283.48 1451.02 Z" fill="#000000" fill-rule="nonzero" fill-opacity="1" /><path clip-path="url(#clip840)" d="M1323.59 1454.1 Q1319.98 1454.1 1318.15 1457.66 Q1316.35 1461.2 1316.35 1468.33 Q1316.35 1475.44 1318.15 1479.01 Q1319.98 1482.55 1323.59 1482.55 Q1327.23 1482.55 1329.03 1479.01 Q1330.86 1475.44 1330.86 1468.33 Q1330.86 1461.2 1329.03 1457.66 Q1327.23 1454.1 1323.59 1454.1 M1323.59 1450.39 Q1329.4 1450.39 1332.46 1455 Q1335.54 1459.58 1335.54 1468.33 Q1335.54 1477.06 1332.46 1481.67 Q1329.4 1486.25 1323.59 1486.25 Q1317.78 1486.25 1314.7 1481.67 Q1311.65 1477.06 1311.65 1468.33 Q1311.65 1459.58 1314.7 1455 Q1317.78 1450.39 1323.59 1450.39 Z" fill="#000000" fill-rule="nonzero" fill-opacity="1" /><path clip-path="url(#clip840)" d="M1751.93 1454.1 Q1748.32 1454.1 1746.49 1457.66 Q1744.69 1461.2 1744.69 1468.33 Q1744.69 1475.44 1746.49 1479.01 Q1748.32 1482.55 1751.93 1482.55 Q1755.57 1482.55 1757.37 1479.01 Q1759.2 1475.44 1759.2 1468.33 Q1759.2 1461.2 1757.37 1457.66 Q1755.57 1454.1 1751.93 1454.1 M1751.93 1450.39 Q1757.74 1450.39 1760.8 1455 Q1763.88 1459.58 1763.88 1468.33 Q1763.88 1477.06 1760.8 1481.67 Q1757.74 1486.25 1751.93 1486.25 Q1746.12 1486.25 1743.04 1481.67 Q1739.99 1477.06 1739.99 1468.33 Q1739.99 1459.58 1743.04 1455 Q1746.12 1450.39 1751.93 1450.39 Z" fill="#000000" fill-rule="nonzero" fill-opacity="1" /><path clip-path="url(#clip840)" d="M1772.09 1479.7 L1776.98 1479.7 L1776.98 1485.58 L1772.09 1485.58 L1772.09 1479.7 Z" fill="#000000" fill-rule="nonzero" fill-opacity="1" /><path clip-path="url(#clip840)" d="M1785.98 1451.02 L1808.2 1451.02 L1808.2 1453.01 L1795.66 1485.58 L1790.77 1485.58 L1802.58 1454.96 L1785.98 1454.96 L1785.98 1451.02 Z" fill="#000000" fill-rule="nonzero" fill-opacity="1" /><path clip-path="url(#clip840)" d="M1817.37 1451.02 L1835.73 1451.02 L1835.73 1454.96 L1821.65 1454.96 L1821.65 1463.43 Q1822.67 1463.08 1823.69 1462.92 Q1824.71 1462.73 1825.73 1462.73 Q1831.52 1462.73 1834.89 1465.9 Q1838.27 1469.08 1838.27 1474.49 Q1838.27 1480.07 1834.8 1483.17 Q1831.33 1486.25 1825.01 1486.25 Q1822.83 1486.25 1820.57 1485.88 Q1818.32 1485.51 1815.91 1484.77 L1815.91 1480.07 Q1818 1481.2 1820.22 1481.76 Q1822.44 1482.32 1824.92 1482.32 Q1828.92 1482.32 1831.26 1480.21 Q1833.6 1478.1 1833.6 1474.49 Q1833.6 1470.88 1831.26 1468.77 Q1828.92 1466.67 1824.92 1466.67 Q1823.04 1466.67 1821.17 1467.08 Q1819.32 1467.5 1817.37 1468.38 L1817.37 1451.02 Z" fill="#000000" fill-rule="nonzero" fill-opacity="1" /><path clip-path="url(#clip840)" d="M2244.44 1481.64 L2252.08 1481.64 L2252.08 1455.28 L2243.77 1456.95 L2243.77 1452.69 L2252.03 1451.02 L2256.71 1451.02 L2256.71 1481.64 L2264.35 1481.64 L2264.35 1485.58 L2244.44 1485.58 L2244.44 1481.64 Z" fill="#000000" fill-rule="nonzero" fill-opacity="1" /><path clip-path="url(#clip840)" d="M2273.79 1479.7 L2278.68 1479.7 L2278.68 1485.58 L2273.79 1485.58 L2273.79 1479.7 Z" fill="#000000" fill-rule="nonzero" fill-opacity="1" /><path clip-path="url(#clip840)" d="M2298.86 1454.1 Q2295.25 1454.1 2293.42 1457.66 Q2291.62 1461.2 2291.62 1468.33 Q2291.62 1475.44 2293.42 1479.01 Q2295.25 1482.55 2298.86 1482.55 Q2302.49 1482.55 2304.3 1479.01 Q2306.13 1475.44 2306.13 1468.33 Q2306.13 1461.2 2304.3 1457.66 Q2302.49 1454.1 2298.86 1454.1 M2298.86 1450.39 Q2304.67 1450.39 2307.73 1455 Q2310.8 1459.58 2310.8 1468.33 Q2310.8 1477.06 2307.73 1481.67 Q2304.67 1486.25 2298.86 1486.25 Q2293.05 1486.25 2289.97 1481.67 Q2286.92 1477.06 2286.92 1468.33 Q2286.92 1459.58 2289.97 1455 Q2293.05 1450.39 2298.86 1450.39 Z" fill="#000000" fill-rule="nonzero" fill-opacity="1" /><path clip-path="url(#clip840)" d="M2329.02 1454.1 Q2325.41 1454.1 2323.58 1457.66 Q2321.78 1461.2 2321.78 1468.33 Q2321.78 1475.44 2323.58 1479.01 Q2325.41 1482.55 2329.02 1482.55 Q2332.66 1482.55 2334.46 1479.01 Q2336.29 1475.44 2336.29 1468.33 Q2336.29 1461.2 2334.46 1457.66 Q2332.66 1454.1 2329.02 1454.1 M2329.02 1450.39 Q2334.83 1450.39 2337.89 1455 Q2340.97 1459.58 2340.97 1468.33 Q2340.97 1477.06 2337.89 1481.67 Q2334.83 1486.25 2329.02 1486.25 Q2323.21 1486.25 2320.13 1481.67 Q2317.08 1477.06 2317.08 1468.33 Q2317.08 1459.58 2320.13 1455 Q2323.21 1450.39 2329.02 1450.39 Z" fill="#000000" fill-rule="nonzero" fill-opacity="1" /><path clip-path="url(#clip840)" d="M1294.37 1531.91 Q1294.37 1532.81 1293.95 1533.04 Q1293.53 1533.23 1292.37 1533.23 L1286.19 1533.23 L1281.29 1552.69 Q1280.9 1554.39 1280.9 1555.84 Q1280.9 1557.45 1281.39 1558.16 Q1281.9 1558.87 1282.96 1558.87 Q1285.06 1558.87 1287.31 1556.97 Q1289.6 1555.07 1291.53 1550.43 Q1291.79 1549.82 1291.92 1549.69 Q1292.08 1549.53 1292.5 1549.53 Q1293.3 1549.53 1293.3 1550.17 Q1293.3 1550.4 1292.85 1551.43 Q1292.43 1552.46 1291.5 1553.97 Q1290.6 1555.49 1289.41 1556.9 Q1288.25 1558.32 1286.47 1559.35 Q1284.7 1560.35 1282.8 1560.35 Q1280.13 1560.35 1278.42 1558.64 Q1276.75 1556.94 1276.75 1554.26 Q1276.75 1553.39 1277.43 1550.62 Q1278.1 1547.82 1281.77 1533.23 L1275.94 1533.23 Q1275.14 1533.23 1274.82 1533.2 Q1274.53 1533.17 1274.3 1533.01 Q1274.11 1532.81 1274.11 1532.43 Q1274.11 1531.82 1274.37 1531.56 Q1274.62 1531.27 1274.95 1531.24 Q1275.3 1531.17 1276.1 1531.17 L1282.29 1531.17 L1284.86 1520.71 Q1285.12 1519.67 1285.77 1519.09 Q1286.44 1518.48 1286.83 1518.42 Q1287.22 1518.32 1287.51 1518.32 Q1288.38 1518.32 1288.89 1518.81 Q1289.41 1519.26 1289.41 1520.09 Q1289.41 1520.54 1286.7 1531.17 L1292.5 1531.17 Q1293.24 1531.17 1293.53 1531.2 Q1293.85 1531.24 1294.11 1531.4 Q1294.37 1531.56 1294.37 1531.91 Z" fill="#000000" fill-rule="nonzero" fill-opacity="1" /><polyline clip-path="url(#clip840)" style="stroke:#000000; stroke-linecap:round; stroke-linejoin:round; stroke-width:4; stroke-opacity:1; fill:none" points="219.033,1423.18 219.033,47.2441 "/>
<polyline clip-path="url(#clip840)" style="stroke:#000000; stroke-linecap:round; stroke-linejoin:round; stroke-width:4; stroke-opacity:1; fill:none" points="219.033,1371.63 237.931,1371.63 "/>
<polyline clip-path="url(#clip840)" style="stroke:#000000; stroke-linecap:round; stroke-linejoin:round; stroke-width:4; stroke-opacity:1; fill:none" points="219.033,1082.05 237.931,1082.05 "/>
<polyline clip-path="url(#clip840)" style="stroke:#000000; stroke-linecap:round; stroke-linejoin:round; stroke-width:4; stroke-opacity:1; fill:none" points="219.033,792.465 237.931,792.465 "/>
<polyline clip-path="url(#clip840)" style="stroke:#000000; stroke-linecap:round; stroke-linejoin:round; stroke-width:4; stroke-opacity:1; fill:none" points="219.033,502.884 237.931,502.884 "/>
<polyline clip-path="url(#clip840)" style="stroke:#000000; stroke-linecap:round; stroke-linejoin:round; stroke-width:4; stroke-opacity:1; fill:none" points="219.033,213.303 237.931,213.303 "/>
<path clip-path="url(#clip840)" d="M116.668 1384.97 L124.306 1384.97 L124.306 1358.61 L115.996 1360.27 L115.996 1356.01 L124.26 1354.35 L128.936 1354.35 L128.936 1384.97 L136.575 1384.97 L136.575 1388.91 L116.668 1388.91 L116.668 1384.97 Z" fill="#000000" fill-rule="nonzero" fill-opacity="1" /><path clip-path="url(#clip840)" d="M146.019 1383.03 L150.903 1383.03 L150.903 1388.91 L146.019 1388.91 L146.019 1383.03 Z" fill="#000000" fill-rule="nonzero" fill-opacity="1" /><path clip-path="url(#clip840)" d="M171.089 1357.42 Q167.477 1357.42 165.649 1360.99 Q163.843 1364.53 163.843 1371.66 Q163.843 1378.77 165.649 1382.33 Q167.477 1385.87 171.089 1385.87 Q174.723 1385.87 176.528 1382.33 Q178.357 1378.77 178.357 1371.66 Q178.357 1364.53 176.528 1360.99 Q174.723 1357.42 171.089 1357.42 M171.089 1353.72 Q176.899 1353.72 179.954 1358.33 Q183.033 1362.91 183.033 1371.66 Q183.033 1380.39 179.954 1384.99 Q176.899 1389.58 171.089 1389.58 Q165.278 1389.58 162.2 1384.99 Q159.144 1380.39 159.144 1371.66 Q159.144 1362.91 162.2 1358.33 Q165.278 1353.72 171.089 1353.72 Z" fill="#000000" fill-rule="nonzero" fill-opacity="1" /><path clip-path="url(#clip840)" d="M117.663 1095.39 L125.302 1095.39 L125.302 1069.02 L116.992 1070.69 L116.992 1066.43 L125.255 1064.77 L129.931 1064.77 L129.931 1095.39 L137.57 1095.39 L137.57 1099.33 L117.663 1099.33 L117.663 1095.39 Z" fill="#000000" fill-rule="nonzero" fill-opacity="1" /><path clip-path="url(#clip840)" d="M147.015 1093.45 L151.899 1093.45 L151.899 1099.33 L147.015 1099.33 L147.015 1093.45 Z" fill="#000000" fill-rule="nonzero" fill-opacity="1" /><path clip-path="url(#clip840)" d="M162.13 1064.77 L180.487 1064.77 L180.487 1068.7 L166.413 1068.7 L166.413 1077.17 Q167.431 1076.83 168.45 1076.66 Q169.468 1076.48 170.487 1076.48 Q176.274 1076.48 179.653 1079.65 Q183.033 1082.82 183.033 1088.24 Q183.033 1093.82 179.561 1096.92 Q176.089 1100 169.769 1100 Q167.593 1100 165.325 1099.63 Q163.079 1099.26 160.672 1098.52 L160.672 1093.82 Q162.755 1094.95 164.977 1095.51 Q167.2 1096.06 169.677 1096.06 Q173.681 1096.06 176.019 1093.96 Q178.357 1091.85 178.357 1088.24 Q178.357 1084.63 176.019 1082.52 Q173.681 1080.41 169.677 1080.41 Q167.802 1080.41 165.927 1080.83 Q164.075 1081.25 162.13 1082.13 L162.13 1064.77 Z" fill="#000000" fill-rule="nonzero" fill-opacity="1" /><path clip-path="url(#clip840)" d="M119.885 805.809 L136.204 805.809 L136.204 809.745 L114.26 809.745 L114.26 805.809 Q116.922 803.055 121.505 798.425 Q126.112 793.772 127.292 792.43 Q129.538 789.907 130.417 788.171 Q131.32 786.411 131.32 784.722 Q131.32 781.967 129.376 780.231 Q127.455 778.495 124.353 778.495 Q122.154 778.495 119.7 779.259 Q117.269 780.023 114.492 781.573 L114.492 776.851 Q117.316 775.717 119.769 775.138 Q122.223 774.56 124.26 774.56 Q129.63 774.56 132.825 777.245 Q136.019 779.93 136.019 784.421 Q136.019 786.55 135.209 788.472 Q134.422 790.37 132.316 792.962 Q131.737 793.634 128.635 796.851 Q125.533 800.046 119.885 805.809 Z" fill="#000000" fill-rule="nonzero" fill-opacity="1" /><path clip-path="url(#clip840)" d="M146.019 803.865 L150.903 803.865 L150.903 809.745 L146.019 809.745 L146.019 803.865 Z" fill="#000000" fill-rule="nonzero" fill-opacity="1" /><path clip-path="url(#clip840)" d="M171.089 778.263 Q167.477 778.263 165.649 781.828 Q163.843 785.37 163.843 792.499 Q163.843 799.606 165.649 803.171 Q167.477 806.712 171.089 806.712 Q174.723 806.712 176.528 803.171 Q178.357 799.606 178.357 792.499 Q178.357 785.37 176.528 781.828 Q174.723 778.263 171.089 778.263 M171.089 774.56 Q176.899 774.56 179.954 779.166 Q183.033 783.749 183.033 792.499 Q183.033 801.226 179.954 805.833 Q176.899 810.416 171.089 810.416 Q165.278 810.416 162.2 805.833 Q159.144 801.226 159.144 792.499 Q159.144 783.749 162.2 779.166 Q165.278 774.56 171.089 774.56 Z" fill="#000000" fill-rule="nonzero" fill-opacity="1" /><path clip-path="url(#clip840)" d="M120.88 516.229 L137.2 516.229 L137.2 520.164 L115.256 520.164 L115.256 516.229 Q117.918 513.474 122.501 508.844 Q127.107 504.192 128.288 502.849 Q130.533 500.326 131.413 498.59 Q132.316 496.831 132.316 495.141 Q132.316 492.386 130.371 490.65 Q128.45 488.914 125.348 488.914 Q123.149 488.914 120.695 489.678 Q118.265 490.442 115.487 491.993 L115.487 487.271 Q118.311 486.136 120.765 485.558 Q123.218 484.979 125.255 484.979 Q130.626 484.979 133.82 487.664 Q137.015 490.349 137.015 494.84 Q137.015 496.97 136.204 498.891 Q135.417 500.789 133.311 503.382 Q132.732 504.053 129.63 507.27 Q126.529 510.465 120.88 516.229 Z" fill="#000000" fill-rule="nonzero" fill-opacity="1" /><path clip-path="url(#clip840)" d="M147.015 514.284 L151.899 514.284 L151.899 520.164 L147.015 520.164 L147.015 514.284 Z" fill="#000000" fill-rule="nonzero" fill-opacity="1" /><path clip-path="url(#clip840)" d="M162.13 485.604 L180.487 485.604 L180.487 489.539 L166.413 489.539 L166.413 498.011 Q167.431 497.664 168.45 497.502 Q169.468 497.317 170.487 497.317 Q176.274 497.317 179.653 500.488 Q183.033 503.659 183.033 509.076 Q183.033 514.655 179.561 517.756 Q176.089 520.835 169.769 520.835 Q167.593 520.835 165.325 520.465 Q163.079 520.094 160.672 519.354 L160.672 514.655 Q162.755 515.789 164.977 516.344 Q167.2 516.9 169.677 516.9 Q173.681 516.9 176.019 514.794 Q178.357 512.687 178.357 509.076 Q178.357 505.465 176.019 503.358 Q173.681 501.252 169.677 501.252 Q167.802 501.252 165.927 501.669 Q164.075 502.085 162.13 502.965 L162.13 485.604 Z" fill="#000000" fill-rule="nonzero" fill-opacity="1" /><path clip-path="url(#clip840)" d="M130.024 211.949 Q133.38 212.667 135.255 214.935 Q137.154 217.204 137.154 220.537 Q137.154 225.653 133.635 228.454 Q130.117 231.254 123.635 231.254 Q121.459 231.254 119.144 230.815 Q116.853 230.398 114.399 229.541 L114.399 225.028 Q116.343 226.162 118.658 226.741 Q120.973 227.319 123.496 227.319 Q127.894 227.319 130.186 225.583 Q132.501 223.847 132.501 220.537 Q132.501 217.481 130.348 215.768 Q128.218 214.032 124.399 214.032 L120.371 214.032 L120.371 210.19 L124.584 210.19 Q128.033 210.19 129.862 208.824 Q131.691 207.435 131.691 204.843 Q131.691 202.18 129.792 200.768 Q127.917 199.333 124.399 199.333 Q122.478 199.333 120.279 199.75 Q118.08 200.167 115.441 201.046 L115.441 196.88 Q118.103 196.139 120.418 195.768 Q122.755 195.398 124.816 195.398 Q130.14 195.398 133.242 197.829 Q136.343 200.236 136.343 204.356 Q136.343 207.227 134.7 209.217 Q133.056 211.185 130.024 211.949 Z" fill="#000000" fill-rule="nonzero" fill-opacity="1" /><path clip-path="url(#clip840)" d="M146.019 224.704 L150.903 224.704 L150.903 230.583 L146.019 230.583 L146.019 224.704 Z" fill="#000000" fill-rule="nonzero" fill-opacity="1" /><path clip-path="url(#clip840)" d="M171.089 199.102 Q167.477 199.102 165.649 202.667 Q163.843 206.208 163.843 213.338 Q163.843 220.444 165.649 224.009 Q167.477 227.551 171.089 227.551 Q174.723 227.551 176.528 224.009 Q178.357 220.444 178.357 213.338 Q178.357 206.208 176.528 202.667 Q174.723 199.102 171.089 199.102 M171.089 195.398 Q176.899 195.398 179.954 200.005 Q183.033 204.588 183.033 213.338 Q183.033 222.065 179.954 226.671 Q176.899 231.254 171.089 231.254 Q165.278 231.254 162.2 226.671 Q159.144 222.065 159.144 213.338 Q159.144 204.588 162.2 200.005 Q165.278 195.398 171.089 195.398 Z" fill="#000000" fill-rule="nonzero" fill-opacity="1" /><path clip-path="url(#clip840)" d="M30.8561 720.775 Q31.307 720.775 32.3698 721.064 L57.5548 727.377 Q63.1586 728.762 67.0877 733.27 Q71.0168 737.747 71.0168 742.836 Q71.0168 745.895 69.3743 747.86 Q67.764 749.824 65.2842 749.824 Q63.0942 749.824 62.0314 748.665 Q61.0008 747.505 61.0008 746.121 Q61.0008 745.67 61.1296 745.187 Q61.2584 744.703 61.8059 744.188 Q62.3534 743.673 63.2874 743.673 Q64.8011 743.673 65.9927 744.993 Q66.5402 745.637 66.669 746.249 Q66.7978 746.829 66.7978 747.827 Q67.6996 747.441 68.3115 746.732 Q68.9234 746.024 69.1489 745.219 Q69.4065 744.414 69.4709 743.898 Q69.5675 743.351 69.5675 742.836 Q69.5675 738.713 65.413 735.557 Q64.157 734.623 62.9009 733.947 Q61.6771 733.238 60.1634 732.723 Q58.682 732.208 57.8768 731.982 Q57.0717 731.725 55.2359 731.274 Q58.2311 734.269 58.2311 737.94 Q58.2311 739.486 57.8124 740.871 Q57.3937 742.224 56.5242 743.415 Q55.6224 744.607 54.0443 745.315 Q52.4662 745.992 50.3728 745.992 Q48.1506 745.992 45.1233 745.122 Q42.0959 744.253 36.5243 742.159 Q33.4004 741.032 31.8867 741.032 Q31.146 741.032 30.6951 741.193 Q30.212 741.354 30.051 741.676 Q29.8577 741.998 29.8255 742.191 Q29.7933 742.352 29.7933 742.675 Q29.7933 744.575 31.7257 746.346 Q33.658 748.117 37.9736 749.341 Q38.7787 749.599 38.972 749.76 Q39.1652 749.921 39.1652 750.404 Q39.133 751.209 38.4889 751.209 Q38.2312 751.209 37.2329 750.919 Q36.2023 750.629 34.6886 749.953 Q33.1427 749.245 31.7579 748.278 Q30.3408 747.312 29.3424 745.798 Q28.344 744.253 28.344 742.481 Q28.344 740.066 29.9221 738.584 Q31.468 737.071 33.7546 737.071 Q34.6886 737.071 35.5259 737.328 Q36.3311 737.554 38.4889 738.391 Q47.1845 741.773 51.4356 741.773 Q52.4662 741.773 53.3358 741.612 Q54.1731 741.418 55.0105 741 Q55.8156 740.581 56.2987 739.744 Q56.7496 738.874 56.7496 737.683 Q56.7496 736.169 56.0411 734.752 Q55.3003 733.303 54.302 732.401 Q53.3036 731.467 52.4662 730.919 Q51.5967 730.34 51.1458 730.211 L39.294 727.248 L34.0123 725.927 Q31.146 725.316 30.4374 725.026 Q29.7611 724.639 29.4068 723.963 Q29.0526 723.287 29.0526 722.707 Q29.0526 721.902 29.5357 721.354 Q30.0187 720.775 30.8561 720.775 Z" fill="#000000" fill-rule="nonzero" fill-opacity="1" /><polyline clip-path="url(#clip842)" style="stroke:#ff7e0d; stroke-linecap:round; stroke-linejoin:round; stroke-width:8; stroke-opacity:1; fill:none" stroke-dasharray="32, 20" points="279.421,1371.63 283.353,1373.86 287.284,1378.7 291.216,1384.24 295.147,1379.42 299.079,1370.6 303.011,1363.37 306.942,1356.17 310.874,1359.11 314.805,1352.77 318.737,1351.87 322.668,1346.17 326.6,1337.08 330.531,1328.02 334.463,1328.64 338.394,1328.35 342.326,1330.97 346.257,1322.17 350.189,1318.97 354.12,1313.94 358.052,1306.91 361.984,1305.37 365.915,1307.27 369.847,1299.87 373.778,1307.54 377.71,1304.19 381.641,1292.77 385.573,1295.41 389.504,1290.86 393.436,1287.2 397.367,1283.15 401.299,1275.53 405.23,1270.29 409.162,1268.58 413.094,1281.46 417.025,1281.8 420.957,1287.8 424.888,1287.46 428.82,1281.25 432.751,1295.34 436.683,1286.61 440.614,1282.98 444.546,1288.43 448.477,1297.64 452.409,1293.05 456.34,1290.24 460.272,1276.79 464.203,1272.7 468.135,1286.11 472.067,1281.96 475.998,1286.89 479.93,1288.77 483.861,1284.3 487.793,1280.18 491.724,1275.65 495.656,1285.3 499.587,1288.52 503.519,1290.02 507.45,1295.11 511.382,1295.52 515.313,1295.16 519.245,1293.06 523.177,1295.09 527.108,1312.85 531.04,1313.41 534.971,1315.91 538.903,1323.21 542.834,1318.9 546.766,1314.43 550.697,1312.85 554.629,1311.25 558.56,1315.79 562.492,1309.22 566.423,1307.11 570.355,1308.81 574.286,1306.12 578.218,1306.92 582.15,1302.34 586.081,1309.73 590.013,1302.88 593.944,1299.64 597.876,1294.95 601.807,1302.25 605.739,1302.5 609.67,1303.58 613.602,1306.42 617.533,1306.05 621.465,1308.46 625.396,1311.93 629.328,1306.88 633.26,1309.97 637.191,1313.6 641.123,1319.15 645.054,1326.22 648.986,1324.29 652.917,1320.54 656.849,1311.51 660.78,1310.65 664.712,1316.47 668.643,1323.41 672.575,1318.22 676.506,1323.62 680.438,1334.45 684.369,1331.18 688.301,1330.18 692.233,1336.85 696.164,1346.87 700.096,1350.12 704.027,1348.83 707.959,1343.49 711.89,1345.46 715.822,1339.01 719.753,1336.05 723.685,1325.8 727.616,1314.73 731.548,1320.72 735.479,1326.47 739.411,1321.26 743.343,1324.35 747.274,1324.82 751.206,1311.46 755.137,1320.28 759.069,1302.92 763,1304.73 766.932,1297.46 770.863,1294.72 774.795,1292.05 778.726,1287.16 782.658,1289.87 786.589,1295.92 790.521,1297.16 794.452,1295.44 798.384,1291.91 802.316,1288.75 806.247,1285.01 810.179,1282.4 814.11,1278.91 818.042,1276.86 821.973,1276.35 825.905,1278.4 829.836,1282.51 833.768,1280.02 837.699,1271.98 841.631,1265.63 845.562,1258.48 849.494,1247.01 853.426,1257.81 857.357,1266.39 861.289,1257.1 865.22,1247.16 869.152,1243.34 873.083,1240.84 877.015,1241.46 880.946,1245.09 884.878,1246.87 888.809,1248.77 892.741,1244.47 896.672,1237.41 900.604,1235.05 904.535,1232.39 908.467,1233.01 912.399,1231.32 916.33,1232.13 920.262,1239.88 924.193,1237.17 928.125,1242.17 932.056,1244.77 935.988,1243.34 939.919,1248.01 943.851,1253.63 947.782,1249.82 951.714,1255.36 955.645,1251.19 959.577,1239.94 963.509,1243.28 967.44,1239.24 971.372,1236.63 975.303,1237.28 979.235,1234.36 983.166,1243.06 987.098,1242.77 991.029,1248.67 994.961,1247.58 998.892,1244.4 1002.82,1237.85 1006.76,1233.32 1010.69,1230.04 1014.62,1224.41 1018.55,1222.69 1022.48,1223.84 1026.41,1218.56 1030.34,1218.13 1034.28,1210.81 1038.21,1208.86 1042.14,1216.24 1046.07,1211.3 1050,1218.94 1053.93,1218.63 1057.87,1234.99 1061.8,1238.16 1065.73,1234.81 1069.66,1237.94 1073.59,1236.75 1077.52,1240.95 1081.45,1232.46 1085.39,1241.83 1089.32,1233.44 1093.25,1230.03 1097.18,1237.9 1101.11,1230.95 1105.04,1235.61 1108.98,1227.82 1112.91,1219.88 1116.84,1214.97 1120.77,1205.45 1124.7,1194.05 1128.63,1203 1132.56,1198.61 1136.5,1199.45 1140.43,1203.17 1144.36,1193.26 1148.29,1181.51 1152.22,1171.1 1156.15,1174.79 1160.09,1170.17 1164.02,1165.68 1167.95,1171.45 1171.88,1166.53 1175.81,1152.54 1179.74,1151.55 1183.67,1150.43 1187.61,1141.47 1191.54,1136.83 1195.47,1131.16 1199.4,1140.93 1203.33,1138.41 1207.26,1132.29 1211.2,1130.2 1215.13,1134.18 1219.06,1133.22 1222.99,1107.55 1226.92,1112.19 1230.85,1108.06 1234.78,1097.36 1238.72,1093.13 1242.65,1093.35 1246.58,1092.33 1250.51,1096.7 1254.44,1099.37 1258.37,1094.63 1262.31,1080.7 1266.24,1092.21 1270.17,1092.03 1274.1,1095.61 1278.03,1089.28 1281.96,1085.69 1285.89,1082.09 1289.83,1062.12 1293.76,1064.08 1297.69,1056.13 1301.62,1063.86 1305.55,1067.31 1309.48,1078.06 1313.42,1069.07 1317.35,1053.2 1321.28,1037.01 1325.21,1026.02 1329.14,1023.59 1333.07,1017.6 1337,1014.06 1340.94,1023.13 1344.87,1028.35 1348.8,1035.55 1352.73,1043.83 1356.66,1029.7 1360.59,1028.57 1364.53,1024.86 1368.46,1024.48 1372.39,1015.8 1376.32,1024.38 1380.25,1013.25 1384.18,1002.42 1388.11,998.093 1392.05,993.812 1395.98,999.217 1399.91,987.665 1403.84,972.399 1407.77,986.067 1411.7,989.572 1415.64,981.602 1419.57,981.252 1423.5,971.188 1427.43,968.086 1431.36,954.524 1435.29,937.937 1439.22,945.544 1443.16,924.643 1447.09,897.622 1451.02,911.694 1454.95,907.188 1458.88,904.636 1462.81,910.59 1466.75,901.565 1470.68,898.135 1474.61,889.242 1478.54,887.602 1482.47,886.176 1486.4,888.955 1490.33,885.838 1494.27,909.23 1498.2,905.454 1502.13,883.862 1506.06,885.944 1509.99,902.868 1513.92,890.02 1517.86,881.418 1521.79,885.17 1525.72,878.698 1529.65,880.647 1533.58,871.043 1537.51,864.868 1541.44,861.88 1545.38,866.823 1549.31,869.905 1553.24,876.967 1557.17,871.399 1561.1,873.396 1565.03,882.748 1568.96,883.336 1572.9,875.693 1576.83,876.821 1580.76,866.216 1584.69,879.317 1588.62,885.355 1592.55,880.604 1596.49,880.274 1600.42,875.841 1604.35,886.855 1608.28,879.922 1612.21,868.011 1616.14,853.47 1620.07,850.745 1624.01,847.842 1627.94,833.094 1631.87,836.952 1635.8,844.979 1639.73,839.778 1643.66,832.999 1647.6,829.905 1651.53,831.377 1655.46,848.327 1659.39,832.122 1663.32,842.658 1667.25,844.404 1671.18,839.954 1675.12,835.12 1679.05,841.554 1682.98,844.548 1686.91,837.238 1690.84,842.667 1694.77,833.269 1698.71,817.231 1702.64,810.391 1706.57,810.768 1710.5,810.002 1714.43,802.074 1718.36,792.195 1722.29,799.657 1726.23,804.515 1730.16,793.412 1734.09,794.95 1738.02,773 1741.95,786.947 1745.88,762.502 1749.82,745.532 1753.75,746.113 1757.68,757.487 1761.61,755.555 1765.54,746.332 1769.47,748.883 1773.4,758.135 1777.34,743.856 1781.27,738.964 1785.2,743.575 1789.13,724.932 1793.06,723.184 1796.99,720.299 1800.93,721.51 1804.86,713.603 1808.79,708.553 1812.72,700.879 1816.65,690.282 1820.58,687.751 1824.51,684.14 1828.45,668.168 1832.38,662.229 1836.31,644.296 1840.24,644.183 1844.17,643.597 1848.1,648.834 1852.04,637.603 1855.97,645.195 1859.9,636.127 1863.83,632.898 1867.76,647.434 1871.69,637.359 1875.62,643.768 1879.56,631.965 1883.49,616.575 1887.42,613.222 1891.35,614.242 1895.28,597.631 1899.21,573.168 1903.15,575.584 1907.08,563.26 1911.01,522.375 1914.94,527.278 1918.87,521.691 1922.8,519.202 1926.73,521.154 1930.67,529.866 1934.6,515.381 1938.53,507.27 1942.46,495.453 1946.39,487.699 1950.32,483.627 1954.26,484.708 1958.19,489.468 1962.12,483.685 1966.05,488.538 1969.98,498.277 1973.91,485.934 1977.84,490.457 1981.78,492.825 1985.71,497.637 1989.64,501.075 1993.57,514.596 1997.5,526.211 2001.43,530.491 2005.37,534.897 2009.3,529.022 2013.23,530.675 2017.16,522.849 2021.09,520.234 2025.02,514.6 2028.95,527.493 2032.89,518.373 2036.82,523.19 2040.75,522.407 2044.68,476.207 2048.61,441.352 2052.54,409.395 2056.48,402.104 2060.41,409.852 2064.34,382.185 2068.27,404.622 2072.2,431.371 2076.13,416.278 2080.06,408.582 2084,396.151 2087.93,398.153 2091.86,387.902 2095.79,406.369 2099.72,402.766 2103.65,374.513 2107.59,367.509 2111.52,362.774 2115.45,363.276 2119.38,364.132 2123.31,334.048 2127.24,337.179 2131.17,334.821 2135.11,323.984 2139.04,330.993 2142.97,329.393 2146.9,349.031 2150.83,344.188 2154.76,342.34 2158.7,326.607 2162.63,322.45 2166.56,309.593 2170.49,275.491 2174.42,267.62 2178.35,268.319 2182.28,250.844 2186.22,241.723 2190.15,228.963 2194.08,215.325 2198.01,215.297 2201.94,188.927 2205.87,182.836 2209.81,187.139 2213.74,170.725 2217.67,149.337 2221.6,132.685 2225.53,124.133 2229.46,127.141 2233.39,144.781 2237.33,142.607 2241.26,130.682 2245.19,126.529 2249.12,98.0176 2253.05,95.0543 2256.98,91.2798 2260.92,96.7129 2264.85,103.465 2268.78,86.1857 2272.71,107.633 2276.64,95.7876 2280.57,111.466 2284.5,133.714 2288.44,143.891 2292.37,140.012 "/>
<path clip-path="url(#clip840)" d="M290.157 196.789 L748.343 196.789 L748.343 93.1086 L290.157 93.1086  Z" fill="#ffffff" fill-rule="evenodd" fill-opacity="1"/>
<polyline clip-path="url(#clip840)" style="stroke:#000000; stroke-linecap:round; stroke-linejoin:round; stroke-width:4; stroke-opacity:1; fill:none" points="290.157,196.789 748.343,196.789 748.343,93.1086 290.157,93.1086 290.157,196.789 "/>
<polyline clip-path="url(#clip840)" style="stroke:#ff7e0d; stroke-linecap:round; stroke-linejoin:round; stroke-width:8; stroke-opacity:1; fill:none" stroke-dasharray="32, 20" points="313.865,144.949 456.113,144.949 "/>
<path clip-path="url(#clip840)" d="M498.733 148.965 Q498.733 144.335 496.812 141.789 Q494.914 139.243 491.465 139.243 Q488.039 139.243 486.118 141.789 Q484.219 144.335 484.219 148.965 Q484.219 153.571 486.118 156.118 Q488.039 158.664 491.465 158.664 Q494.914 158.664 496.812 156.118 Q498.733 153.571 498.733 148.965 M502.992 159.011 Q502.992 165.631 500.053 168.849 Q497.113 172.09 491.048 172.09 Q488.803 172.09 486.812 171.742 Q484.821 171.418 482.946 170.724 L482.946 166.58 Q484.821 167.599 486.65 168.085 Q488.479 168.571 490.377 168.571 Q494.567 168.571 496.65 166.372 Q498.733 164.196 498.733 159.775 L498.733 157.668 Q497.414 159.96 495.354 161.094 Q493.293 162.229 490.423 162.229 Q485.655 162.229 482.738 158.594 Q479.821 154.96 479.821 148.965 Q479.821 142.946 482.738 139.312 Q485.655 135.678 490.423 135.678 Q493.293 135.678 495.354 136.812 Q497.414 137.946 498.733 140.238 L498.733 136.303 L502.992 136.303 L502.992 159.011 Z" fill="#000000" fill-rule="nonzero" fill-opacity="1" /><path clip-path="url(#clip840)" d="M516.627 145.724 L516.627 158.386 L524.127 158.386 Q527.9 158.386 529.705 156.835 Q531.534 155.261 531.534 152.043 Q531.534 148.803 529.705 147.275 Q527.9 145.724 524.127 145.724 L516.627 145.724 M516.627 131.511 L516.627 141.928 L523.548 141.928 Q526.974 141.928 528.64 140.655 Q530.33 139.358 530.33 136.719 Q530.33 134.104 528.64 132.807 Q526.974 131.511 523.548 131.511 L516.627 131.511 M511.951 127.669 L523.895 127.669 Q529.242 127.669 532.136 129.891 Q535.029 132.113 535.029 136.21 Q535.029 139.382 533.548 141.257 Q532.066 143.131 529.196 143.594 Q532.645 144.335 534.543 146.696 Q536.465 149.034 536.465 152.553 Q536.465 157.182 533.316 159.705 Q530.168 162.229 524.358 162.229 L511.951 162.229 L511.951 127.669 Z" fill="#000000" fill-rule="nonzero" fill-opacity="1" /><path clip-path="url(#clip840)" d="M564.474 141.28 Q566.071 138.409 568.293 137.044 Q570.515 135.678 573.525 135.678 Q577.575 135.678 579.774 138.525 Q581.974 141.349 581.974 146.581 L581.974 162.229 L577.691 162.229 L577.691 146.719 Q577.691 142.993 576.372 141.187 Q575.052 139.382 572.344 139.382 Q569.034 139.382 567.112 141.581 Q565.191 143.78 565.191 147.576 L565.191 162.229 L560.909 162.229 L560.909 146.719 Q560.909 142.969 559.589 141.187 Q558.27 139.382 555.515 139.382 Q552.251 139.382 550.33 141.604 Q548.409 143.803 548.409 147.576 L548.409 162.229 L544.127 162.229 L544.127 136.303 L548.409 136.303 L548.409 140.331 Q549.867 137.946 551.904 136.812 Q553.941 135.678 556.742 135.678 Q559.566 135.678 561.534 137.113 Q563.525 138.548 564.474 141.28 Z" fill="#000000" fill-rule="nonzero" fill-opacity="1" /><path clip-path="url(#clip840)" d="M627.089 146.581 L627.089 162.229 L622.83 162.229 L622.83 146.719 Q622.83 143.039 621.395 141.21 Q619.959 139.382 617.089 139.382 Q613.64 139.382 611.649 141.581 Q609.659 143.78 609.659 147.576 L609.659 162.229 L605.376 162.229 L605.376 136.303 L609.659 136.303 L609.659 140.331 Q611.186 137.993 613.247 136.835 Q615.33 135.678 618.038 135.678 Q622.506 135.678 624.797 138.456 Q627.089 141.21 627.089 146.581 Z" fill="#000000" fill-rule="nonzero" fill-opacity="1" /><path clip-path="url(#clip840)" d="M645.631 139.289 Q642.205 139.289 640.214 141.974 Q638.223 144.636 638.223 149.289 Q638.223 153.942 640.191 156.627 Q642.182 159.289 645.631 159.289 Q649.033 159.289 651.024 156.604 Q653.015 153.918 653.015 149.289 Q653.015 144.682 651.024 141.997 Q649.033 139.289 645.631 139.289 M645.631 135.678 Q651.186 135.678 654.357 139.289 Q657.529 142.9 657.529 149.289 Q657.529 155.655 654.357 159.289 Q651.186 162.9 645.631 162.9 Q640.052 162.9 636.881 159.289 Q633.733 155.655 633.733 149.289 Q633.733 142.9 636.881 139.289 Q640.052 135.678 645.631 135.678 Z" fill="#000000" fill-rule="nonzero" fill-opacity="1" /><path clip-path="url(#clip840)" d="M664.589 136.303 L668.848 136.303 L668.848 162.229 L664.589 162.229 L664.589 136.303 M664.589 126.21 L668.848 126.21 L668.848 131.604 L664.589 131.604 L664.589 126.21 Z" fill="#000000" fill-rule="nonzero" fill-opacity="1" /><path clip-path="url(#clip840)" d="M694.288 137.067 L694.288 141.094 Q692.482 140.169 690.538 139.706 Q688.593 139.243 686.51 139.243 Q683.339 139.243 681.742 140.215 Q680.167 141.187 680.167 143.131 Q680.167 144.613 681.302 145.469 Q682.436 146.303 685.862 147.067 L687.32 147.391 Q691.857 148.363 693.755 150.145 Q695.677 151.905 695.677 155.076 Q695.677 158.687 692.806 160.793 Q689.959 162.9 684.959 162.9 Q682.876 162.9 680.607 162.483 Q678.362 162.09 675.862 161.28 L675.862 156.881 Q678.223 158.108 680.515 158.733 Q682.806 159.335 685.052 159.335 Q688.061 159.335 689.681 158.317 Q691.302 157.275 691.302 155.4 Q691.302 153.664 690.121 152.738 Q688.964 151.812 685.005 150.956 L683.524 150.608 Q679.566 149.775 677.806 148.062 Q676.047 146.326 676.047 143.317 Q676.047 139.659 678.64 137.669 Q681.232 135.678 686.001 135.678 Q688.362 135.678 690.445 136.025 Q692.528 136.372 694.288 137.067 Z" fill="#000000" fill-rule="nonzero" fill-opacity="1" /><path clip-path="url(#clip840)" d="M724.635 148.201 L724.635 150.284 L705.052 150.284 Q705.329 154.682 707.69 156.997 Q710.075 159.289 714.311 159.289 Q716.764 159.289 719.056 158.687 Q721.371 158.085 723.639 156.881 L723.639 160.909 Q721.348 161.881 718.94 162.391 Q716.533 162.9 714.056 162.9 Q707.852 162.9 704.218 159.289 Q700.607 155.678 700.607 149.52 Q700.607 143.155 704.033 139.428 Q707.482 135.678 713.315 135.678 Q718.547 135.678 721.579 139.057 Q724.635 142.414 724.635 148.201 M720.376 146.951 Q720.329 143.456 718.408 141.372 Q716.51 139.289 713.362 139.289 Q709.797 139.289 707.644 141.303 Q705.515 143.317 705.19 146.974 L720.376 146.951 Z" fill="#000000" fill-rule="nonzero" fill-opacity="1" /></svg>
