<?xml version="1.0" encoding="utf-8"?>
<svg xmlns="http://www.w3.org/2000/svg" xmlns:xlink="http://www.w3.org/1999/xlink" width="600" height="400" viewBox="0 0 2400 1600">
<defs>
  <clipPath id="clip800">
    <rect x="0" y="0" width="2400" height="1600"/>
  </clipPath>
</defs>
<path clip-path="url(#clip800)" d="M0 1600 L2400 1600 L2400 0 L0 0  Z" fill="#ffffff" fill-rule="evenodd" fill-opacity="1"/>
<defs>
  <clipPath id="clip801">
    <rect x="480" y="0" width="1681" height="1600"/>
  </clipPath>
</defs>
<path clip-path="url(#clip800)" d="M219.542 1423.18 L2352.76 1423.18 L2352.76 47.2441 L219.542 47.2441  Z" fill="#ffffff" fill-rule="evenodd" fill-opacity="1"/>
<defs>
  <clipPath id="clip802">
    <rect x="219" y="47" width="2134" height="1377"/>
  </clipPath>
</defs>
<polyline clip-path="url(#clip802)" style="stroke:#000000; stroke-linecap:round; stroke-linejoin:round; stroke-width:2; stroke-opacity:0.1; fill:none" points="279.916,1423.18 279.916,47.2441 "/>
<polyline clip-path="url(#clip802)" style="stroke:#000000; stroke-linecap:round; stroke-linejoin:round; stroke-width:2; stroke-opacity:0.1; fill:none" points="783.033,1423.18 783.033,47.2441 "/>
<polyline clip-path="url(#clip802)" style="stroke:#000000; stroke-linecap:round; stroke-linejoin:round; stroke-width:2; stroke-opacity:0.1; fill:none" points="1286.15,1423.18 1286.15,47.2441 "/>
<polyline clip-path="url(#clip802)" style="stroke:#000000; stroke-linecap:round; stroke-linejoin:round; stroke-width:2; stroke-opacity:0.1; fill:none" points="1789.27,1423.18 1789.27,47.2441 "/>
<polyline clip-path="url(#clip802)" style="stroke:#000000; stroke-linecap:round; stroke-linejoin:round; stroke-width:2; stroke-opacity:0.1; fill:none" points="2292.38,1423.18 2292.38,47.2441 "/>
<polyline clip-path="url(#clip802)" style="stroke:#000000; stroke-linecap:round; stroke-linejoin:round; stroke-width:2; stroke-opacity:0.1; fill:none" points="219.542,1276.1 2352.76,1276.1 "/>
<polyline clip-path="url(#clip802)" style="stroke:#000000; stroke-linecap:round; stroke-linejoin:round; stroke-width:2; stroke-opacity:0.1; fill:none" points="219.542,1005.66 2352.76,1005.66 "/>
<polyline clip-path="url(#clip802)" style="stroke:#000000; stroke-linecap:round; stroke-linejoin:round; stroke-width:2; stroke-opacity:0.1; fill:none" points="219.542,735.228 2352.76,735.228 "/>
<polyline clip-path="url(#clip802)" style="stroke:#000000; stroke-linecap:round; stroke-linejoin:round; stroke-width:2; stroke-opacity:0.1; fill:none" points="219.542,464.792 2352.76,464.792 "/>
<polyline clip-path="url(#clip802)" style="stroke:#000000; stroke-linecap:round; stroke-linejoin:round; stroke-width:2; stroke-opacity:0.1; fill:none" points="219.542,194.356 2352.76,194.356 "/>
<polyline clip-path="url(#clip800)" style="stroke:#000000; stroke-linecap:round; stroke-linejoin:round; stroke-width:4; stroke-opacity:1; fill:none" points="219.542,1423.18 2352.76,1423.18 "/>
<polyline clip-path="url(#clip800)" style="stroke:#000000; stroke-linecap:round; stroke-linejoin:round; stroke-width:4; stroke-opacity:1; fill:none" points="279.916,1423.18 279.916,1404.28 "/>
<polyline clip-path="url(#clip800)" style="stroke:#000000; stroke-linecap:round; stroke-linejoin:round; stroke-width:4; stroke-opacity:1; fill:none" points="783.033,1423.18 783.033,1404.28 "/>
<polyline clip-path="url(#clip800)" style="stroke:#000000; stroke-linecap:round; stroke-linejoin:round; stroke-width:4; stroke-opacity:1; fill:none" points="1286.15,1423.18 1286.15,1404.28 "/>
<polyline clip-path="url(#clip800)" style="stroke:#000000; stroke-linecap:round; stroke-linejoin:round; stroke-width:4; stroke-opacity:1; fill:none" points="1789.27,1423.18 1789.27,1404.28 "/>
<polyline clip-path="url(#clip800)" style="stroke:#000000; stroke-linecap:round; stroke-linejoin:round; stroke-width:4; stroke-opacity:1; fill:none" points="2292.38,1423.18 2292.38,1404.28 "/>
<path clip-path="url(#clip800)" d="M242.22 1454.1 Q238.609 1454.1 236.78 1457.66 Q234.974 1461.2 234.974 1468.33 Q234.974 1475.44 236.78 1479.01 Q238.609 1482.55 242.22 1482.55 Q245.854 1482.55 247.659 1479.01 Q249.488 1475.44 249.488 1468.33 Q249.488 1461.2 247.659 1457.66 Q245.854 1454.1 242.22 1454.1 M242.22 1450.39 Q248.03 1450.39 251.085 1455 Q254.164 1459.58 254.164 1468.33 Q254.164 1477.06 251.085 1481.67 Q248.03 1486.25 242.22 1486.25 Q236.409 1486.25 233.331 1481.67 Q230.275 1477.06 230.275 1468.33 Q230.275 1459.58 233.331 1455 Q236.409 1450.39 242.22 1450.39 Z" fill="#000000" fill-rule="nonzero" fill-opacity="1" /><path clip-path="url(#clip800)" d="M262.382 1479.7 L267.266 1479.7 L267.266 1485.58 L262.382 1485.58 L262.382 1479.7 Z" fill="#000000" fill-rule="nonzero" fill-opacity="1" /><path clip-path="url(#clip800)" d="M287.451 1454.1 Q283.84 1454.1 282.011 1457.66 Q280.206 1461.2 280.206 1468.33 Q280.206 1475.44 282.011 1479.01 Q283.84 1482.55 287.451 1482.55 Q291.085 1482.55 292.891 1479.01 Q294.719 1475.44 294.719 1468.33 Q294.719 1461.2 292.891 1457.66 Q291.085 1454.1 287.451 1454.1 M287.451 1450.39 Q293.261 1450.39 296.317 1455 Q299.395 1459.58 299.395 1468.33 Q299.395 1477.06 296.317 1481.67 Q293.261 1486.25 287.451 1486.25 Q281.641 1486.25 278.562 1481.67 Q275.506 1477.06 275.506 1468.33 Q275.506 1459.58 278.562 1455 Q281.641 1450.39 287.451 1450.39 Z" fill="#000000" fill-rule="nonzero" fill-opacity="1" /><path clip-path="url(#clip800)" d="M317.613 1454.1 Q314.002 1454.1 312.173 1457.66 Q310.367 1461.2 310.367 1468.33 Q310.367 1475.44 312.173 1479.01 Q314.002 1482.55 317.613 1482.55 Q321.247 1482.55 323.053 1479.01 Q324.881 1475.44 324.881 1468.33 Q324.881 1461.2 323.053 1457.66 Q321.247 1454.1 317.613 1454.1 M317.613 1450.39 Q323.423 1450.39 326.478 1455 Q329.557 1459.58 329.557 1468.33 Q329.557 1477.06 326.478 1481.67 Q323.423 1486.25 317.613 1486.25 Q311.803 1486.25 308.724 1481.67 Q305.668 1477.06 305.668 1468.33 Q305.668 1459.58 308.724 1455 Q311.803 1450.39 317.613 1450.39 Z" fill="#000000" fill-rule="nonzero" fill-opacity="1" /><path clip-path="url(#clip800)" d="M745.834 1454.1 Q742.223 1454.1 740.394 1457.66 Q738.588 1461.2 738.588 1468.33 Q738.588 1475.44 740.394 1479.01 Q742.223 1482.55 745.834 1482.55 Q749.468 1482.55 751.274 1479.01 Q753.102 1475.44 753.102 1468.33 Q753.102 1461.2 751.274 1457.66 Q749.468 1454.1 745.834 1454.1 M745.834 1450.39 Q751.644 1450.39 754.699 1455 Q757.778 1459.58 757.778 1468.33 Q757.778 1477.06 754.699 1481.67 Q751.644 1486.25 745.834 1486.25 Q740.024 1486.25 736.945 1481.67 Q733.889 1477.06 733.889 1468.33 Q733.889 1459.58 736.945 1455 Q740.024 1450.39 745.834 1450.39 Z" fill="#000000" fill-rule="nonzero" fill-opacity="1" /><path clip-path="url(#clip800)" d="M765.996 1479.7 L770.88 1479.7 L770.88 1485.58 L765.996 1485.58 L765.996 1479.7 Z" fill="#000000" fill-rule="nonzero" fill-opacity="1" /><path clip-path="url(#clip800)" d="M785.093 1481.64 L801.412 1481.64 L801.412 1485.58 L779.468 1485.58 L779.468 1481.64 Q782.13 1478.89 786.713 1474.26 Q791.32 1469.61 792.5 1468.27 Q794.746 1465.74 795.625 1464.01 Q796.528 1462.25 796.528 1460.56 Q796.528 1457.8 794.583 1456.07 Q792.662 1454.33 789.56 1454.33 Q787.361 1454.33 784.908 1455.09 Q782.477 1455.86 779.699 1457.41 L779.699 1452.69 Q782.523 1451.55 784.977 1450.97 Q787.431 1450.39 789.468 1450.39 Q794.838 1450.39 798.033 1453.08 Q801.227 1455.77 801.227 1460.26 Q801.227 1462.39 800.417 1464.31 Q799.63 1466.2 797.523 1468.8 Q796.945 1469.47 793.843 1472.69 Q790.741 1475.88 785.093 1481.64 Z" fill="#000000" fill-rule="nonzero" fill-opacity="1" /><path clip-path="url(#clip800)" d="M811.273 1451.02 L829.63 1451.02 L829.63 1454.96 L815.556 1454.96 L815.556 1463.43 Q816.574 1463.08 817.593 1462.92 Q818.611 1462.73 819.63 1462.73 Q825.417 1462.73 828.796 1465.9 Q832.176 1469.08 832.176 1474.49 Q832.176 1480.07 828.704 1483.17 Q825.231 1486.25 818.912 1486.25 Q816.736 1486.25 814.468 1485.88 Q812.222 1485.51 809.815 1484.77 L809.815 1480.07 Q811.898 1481.2 814.12 1481.76 Q816.343 1482.32 818.819 1482.32 Q822.824 1482.32 825.162 1480.21 Q827.5 1478.1 827.5 1474.49 Q827.5 1470.88 825.162 1468.77 Q822.824 1466.67 818.819 1466.67 Q816.944 1466.67 815.069 1467.08 Q813.218 1467.5 811.273 1468.38 L811.273 1451.02 Z" fill="#000000" fill-rule="nonzero" fill-opacity="1" /><path clip-path="url(#clip800)" d="M1248.45 1454.1 Q1244.84 1454.1 1243.01 1457.66 Q1241.21 1461.2 1241.21 1468.33 Q1241.21 1475.44 1243.01 1479.01 Q1244.84 1482.55 1248.45 1482.55 Q1252.09 1482.55 1253.89 1479.01 Q1255.72 1475.44 1255.72 1468.33 Q1255.72 1461.2 1253.89 1457.66 Q1252.09 1454.1 1248.45 1454.1 M1248.45 1450.39 Q1254.26 1450.39 1257.32 1455 Q1260.4 1459.58 1260.4 1468.33 Q1260.4 1477.06 1257.32 1481.67 Q1254.26 1486.25 1248.45 1486.25 Q1242.64 1486.25 1239.56 1481.67 Q1236.51 1477.06 1236.51 1468.33 Q1236.51 1459.58 1239.56 1455 Q1242.64 1450.39 1248.45 1450.39 Z" fill="#000000" fill-rule="nonzero" fill-opacity="1" /><path clip-path="url(#clip800)" d="M1268.61 1479.7 L1273.5 1479.7 L1273.5 1485.58 L1268.61 1485.58 L1268.61 1479.7 Z" fill="#000000" fill-rule="nonzero" fill-opacity="1" /><path clip-path="url(#clip800)" d="M1283.73 1451.02 L1302.09 1451.02 L1302.09 1454.96 L1288.01 1454.96 L1288.01 1463.43 Q1289.03 1463.08 1290.05 1462.92 Q1291.07 1462.73 1292.09 1462.73 Q1297.87 1462.73 1301.25 1465.9 Q1304.63 1469.08 1304.63 1474.49 Q1304.63 1480.07 1301.16 1483.17 Q1297.69 1486.25 1291.37 1486.25 Q1289.19 1486.25 1286.92 1485.88 Q1284.68 1485.51 1282.27 1484.77 L1282.27 1480.07 Q1284.36 1481.2 1286.58 1481.76 Q1288.8 1482.32 1291.28 1482.32 Q1295.28 1482.32 1297.62 1480.21 Q1299.96 1478.1 1299.96 1474.49 Q1299.96 1470.88 1297.62 1468.77 Q1295.28 1466.67 1291.28 1466.67 Q1289.4 1466.67 1287.53 1467.08 Q1285.67 1467.5 1283.73 1468.38 L1283.73 1451.02 Z" fill="#000000" fill-rule="nonzero" fill-opacity="1" /><path clip-path="url(#clip800)" d="M1323.85 1454.1 Q1320.23 1454.1 1318.41 1457.66 Q1316.6 1461.2 1316.6 1468.33 Q1316.6 1475.44 1318.41 1479.01 Q1320.23 1482.55 1323.85 1482.55 Q1327.48 1482.55 1329.29 1479.01 Q1331.11 1475.44 1331.11 1468.33 Q1331.11 1461.2 1329.29 1457.66 Q1327.48 1454.1 1323.85 1454.1 M1323.85 1450.39 Q1329.66 1450.39 1332.71 1455 Q1335.79 1459.58 1335.79 1468.33 Q1335.79 1477.06 1332.71 1481.67 Q1329.66 1486.25 1323.85 1486.25 Q1318.04 1486.25 1314.96 1481.67 Q1311.9 1477.06 1311.9 1468.33 Q1311.9 1459.58 1314.96 1455 Q1318.04 1450.39 1323.85 1450.39 Z" fill="#000000" fill-rule="nonzero" fill-opacity="1" /><path clip-path="url(#clip800)" d="M1752.07 1454.1 Q1748.46 1454.1 1746.63 1457.66 Q1744.82 1461.2 1744.82 1468.33 Q1744.82 1475.44 1746.63 1479.01 Q1748.46 1482.55 1752.07 1482.55 Q1755.7 1482.55 1757.51 1479.01 Q1759.34 1475.44 1759.34 1468.33 Q1759.34 1461.2 1757.51 1457.66 Q1755.7 1454.1 1752.07 1454.1 M1752.07 1450.39 Q1757.88 1450.39 1760.93 1455 Q1764.01 1459.58 1764.01 1468.33 Q1764.01 1477.06 1760.93 1481.67 Q1757.88 1486.25 1752.07 1486.25 Q1746.26 1486.25 1743.18 1481.67 Q1740.12 1477.06 1740.12 1468.33 Q1740.12 1459.58 1743.18 1455 Q1746.26 1450.39 1752.07 1450.39 Z" fill="#000000" fill-rule="nonzero" fill-opacity="1" /><path clip-path="url(#clip800)" d="M1772.23 1479.7 L1777.11 1479.7 L1777.11 1485.58 L1772.23 1485.58 L1772.23 1479.7 Z" fill="#000000" fill-rule="nonzero" fill-opacity="1" /><path clip-path="url(#clip800)" d="M1786.12 1451.02 L1808.34 1451.02 L1808.34 1453.01 L1795.79 1485.58 L1790.91 1485.58 L1802.71 1454.96 L1786.12 1454.96 L1786.12 1451.02 Z" fill="#000000" fill-rule="nonzero" fill-opacity="1" /><path clip-path="url(#clip800)" d="M1817.51 1451.02 L1835.86 1451.02 L1835.86 1454.96 L1821.79 1454.96 L1821.79 1463.43 Q1822.81 1463.08 1823.83 1462.92 Q1824.84 1462.73 1825.86 1462.73 Q1831.65 1462.73 1835.03 1465.9 Q1838.41 1469.08 1838.41 1474.49 Q1838.41 1480.07 1834.94 1483.17 Q1831.46 1486.25 1825.14 1486.25 Q1822.97 1486.25 1820.7 1485.88 Q1818.46 1485.51 1816.05 1484.77 L1816.05 1480.07 Q1818.13 1481.2 1820.35 1481.76 Q1822.58 1482.32 1825.05 1482.32 Q1829.06 1482.32 1831.39 1480.21 Q1833.73 1478.1 1833.73 1474.49 Q1833.73 1470.88 1831.39 1468.77 Q1829.06 1466.67 1825.05 1466.67 Q1823.18 1466.67 1821.3 1467.08 Q1819.45 1467.5 1817.51 1468.38 L1817.51 1451.02 Z" fill="#000000" fill-rule="nonzero" fill-opacity="1" /><path clip-path="url(#clip800)" d="M2244.45 1481.64 L2252.09 1481.64 L2252.09 1455.28 L2243.78 1456.95 L2243.78 1452.69 L2252.05 1451.02 L2256.72 1451.02 L2256.72 1481.64 L2264.36 1481.64 L2264.36 1485.58 L2244.45 1485.58 L2244.45 1481.64 Z" fill="#000000" fill-rule="nonzero" fill-opacity="1" /><path clip-path="url(#clip800)" d="M2273.81 1479.7 L2278.69 1479.7 L2278.69 1485.58 L2273.81 1485.58 L2273.81 1479.7 Z" fill="#000000" fill-rule="nonzero" fill-opacity="1" /><path clip-path="url(#clip800)" d="M2298.87 1454.1 Q2295.26 1454.1 2293.44 1457.66 Q2291.63 1461.2 2291.63 1468.33 Q2291.63 1475.44 2293.44 1479.01 Q2295.26 1482.55 2298.87 1482.55 Q2302.51 1482.55 2304.31 1479.01 Q2306.14 1475.44 2306.14 1468.33 Q2306.14 1461.2 2304.31 1457.66 Q2302.51 1454.1 2298.87 1454.1 M2298.87 1450.39 Q2304.69 1450.39 2307.74 1455 Q2310.82 1459.58 2310.82 1468.33 Q2310.82 1477.06 2307.74 1481.67 Q2304.69 1486.25 2298.87 1486.25 Q2293.06 1486.25 2289.99 1481.67 Q2286.93 1477.06 2286.93 1468.33 Q2286.93 1459.58 2289.99 1455 Q2293.06 1450.39 2298.87 1450.39 Z" fill="#000000" fill-rule="nonzero" fill-opacity="1" /><path clip-path="url(#clip800)" d="M2329.04 1454.1 Q2325.43 1454.1 2323.6 1457.66 Q2321.79 1461.2 2321.79 1468.33 Q2321.79 1475.44 2323.6 1479.01 Q2325.43 1482.55 2329.04 1482.55 Q2332.67 1482.55 2334.48 1479.01 Q2336.31 1475.44 2336.31 1468.33 Q2336.31 1461.2 2334.48 1457.66 Q2332.67 1454.1 2329.04 1454.1 M2329.04 1450.39 Q2334.85 1450.39 2337.9 1455 Q2340.98 1459.58 2340.98 1468.33 Q2340.98 1477.06 2337.9 1481.67 Q2334.85 1486.25 2329.04 1486.25 Q2323.23 1486.25 2320.15 1481.67 Q2317.09 1477.06 2317.09 1468.33 Q2317.09 1459.58 2320.15 1455 Q2323.23 1450.39 2329.04 1450.39 Z" fill="#000000" fill-rule="nonzero" fill-opacity="1" /><path clip-path="url(#clip800)" d="M1294.62 1531.91 Q1294.62 1532.81 1294.2 1533.04 Q1293.78 1533.23 1292.62 1533.23 L1286.44 1533.23 L1281.54 1552.69 Q1281.16 1554.39 1281.16 1555.84 Q1281.16 1557.45 1281.64 1558.16 Q1282.16 1558.87 1283.22 1558.87 Q1285.31 1558.87 1287.57 1556.97 Q1289.85 1555.07 1291.79 1550.43 Q1292.04 1549.82 1292.17 1549.69 Q1292.33 1549.53 1292.75 1549.53 Q1293.56 1549.53 1293.56 1550.17 Q1293.56 1550.4 1293.11 1551.43 Q1292.69 1552.46 1291.75 1553.97 Q1290.85 1555.49 1289.66 1556.9 Q1288.5 1558.32 1286.73 1559.35 Q1284.96 1560.35 1283.06 1560.35 Q1280.39 1560.35 1278.68 1558.64 Q1277 1556.94 1277 1554.26 Q1277 1553.39 1277.68 1550.62 Q1278.36 1547.82 1282.03 1533.23 L1276.2 1533.23 Q1275.39 1533.23 1275.07 1533.2 Q1274.78 1533.17 1274.56 1533.01 Q1274.36 1532.81 1274.36 1532.43 Q1274.36 1531.82 1274.62 1531.56 Q1274.88 1531.27 1275.2 1531.24 Q1275.55 1531.17 1276.36 1531.17 L1282.54 1531.17 L1285.12 1520.71 Q1285.38 1519.67 1286.02 1519.09 Q1286.7 1518.48 1287.08 1518.42 Q1287.47 1518.32 1287.76 1518.32 Q1288.63 1518.32 1289.15 1518.81 Q1289.66 1519.26 1289.66 1520.09 Q1289.66 1520.54 1286.96 1531.17 L1292.75 1531.17 Q1293.49 1531.17 1293.78 1531.2 Q1294.1 1531.24 1294.36 1531.4 Q1294.62 1531.56 1294.62 1531.91 Z" fill="#000000" fill-rule="nonzero" fill-opacity="1" /><polyline clip-path="url(#clip800)" style="stroke:#000000; stroke-linecap:round; stroke-linejoin:round; stroke-width:4; stroke-opacity:1; fill:none" points="219.542,1423.18 219.542,47.2441 "/>
<polyline clip-path="url(#clip800)" style="stroke:#000000; stroke-linecap:round; stroke-linejoin:round; stroke-width:4; stroke-opacity:1; fill:none" points="219.542,1276.1 238.44,1276.1 "/>
<polyline clip-path="url(#clip800)" style="stroke:#000000; stroke-linecap:round; stroke-linejoin:round; stroke-width:4; stroke-opacity:1; fill:none" points="219.542,1005.66 238.44,1005.66 "/>
<polyline clip-path="url(#clip800)" style="stroke:#000000; stroke-linecap:round; stroke-linejoin:round; stroke-width:4; stroke-opacity:1; fill:none" points="219.542,735.228 238.44,735.228 "/>
<polyline clip-path="url(#clip800)" style="stroke:#000000; stroke-linecap:round; stroke-linejoin:round; stroke-width:4; stroke-opacity:1; fill:none" points="219.542,464.792 238.44,464.792 "/>
<polyline clip-path="url(#clip800)" style="stroke:#000000; stroke-linecap:round; stroke-linejoin:round; stroke-width:4; stroke-opacity:1; fill:none" points="219.542,194.356 238.44,194.356 "/>
<path clip-path="url(#clip800)" d="M126.205 1261.9 Q122.593 1261.9 120.765 1265.46 Q118.959 1269.01 118.959 1276.14 Q118.959 1283.24 120.765 1286.81 Q122.593 1290.35 126.205 1290.35 Q129.839 1290.35 131.644 1286.81 Q133.473 1283.24 133.473 1276.14 Q133.473 1269.01 131.644 1265.46 Q129.839 1261.9 126.205 1261.9 M126.205 1258.2 Q132.015 1258.2 135.07 1262.8 Q138.149 1267.39 138.149 1276.14 Q138.149 1284.86 135.07 1289.47 Q132.015 1294.05 126.205 1294.05 Q120.394 1294.05 117.316 1289.47 Q114.26 1284.86 114.26 1276.14 Q114.26 1267.39 117.316 1262.8 Q120.394 1258.2 126.205 1258.2 Z" fill="#000000" fill-rule="nonzero" fill-opacity="1" /><path clip-path="url(#clip800)" d="M146.366 1287.5 L151.251 1287.5 L151.251 1293.38 L146.366 1293.38 L146.366 1287.5 Z" fill="#000000" fill-rule="nonzero" fill-opacity="1" /><path clip-path="url(#clip800)" d="M172.014 1274.24 Q168.866 1274.24 167.015 1276.39 Q165.186 1278.54 165.186 1282.29 Q165.186 1286.02 167.015 1288.2 Q168.866 1290.35 172.014 1290.35 Q175.163 1290.35 176.991 1288.2 Q178.843 1286.02 178.843 1282.29 Q178.843 1278.54 176.991 1276.39 Q175.163 1274.24 172.014 1274.24 M181.297 1259.58 L181.297 1263.84 Q179.538 1263.01 177.732 1262.57 Q175.95 1262.13 174.19 1262.13 Q169.561 1262.13 167.107 1265.26 Q164.677 1268.38 164.329 1274.7 Q165.695 1272.69 167.755 1271.62 Q169.815 1270.53 172.292 1270.53 Q177.501 1270.53 180.51 1273.7 Q183.542 1276.85 183.542 1282.29 Q183.542 1287.62 180.394 1290.83 Q177.246 1294.05 172.014 1294.05 Q166.019 1294.05 162.848 1289.47 Q159.677 1284.86 159.677 1276.14 Q159.677 1267.94 163.565 1263.08 Q167.454 1258.2 174.005 1258.2 Q175.764 1258.2 177.547 1258.54 Q179.352 1258.89 181.297 1259.58 Z" fill="#000000" fill-rule="nonzero" fill-opacity="1" /><path clip-path="url(#clip800)" d="M127.269 991.463 Q123.658 991.463 121.83 995.028 Q120.024 998.569 120.024 1005.7 Q120.024 1012.81 121.83 1016.37 Q123.658 1019.91 127.269 1019.91 Q130.904 1019.91 132.709 1016.37 Q134.538 1012.81 134.538 1005.7 Q134.538 998.569 132.709 995.028 Q130.904 991.463 127.269 991.463 M127.269 987.759 Q133.08 987.759 136.135 992.366 Q139.214 996.949 139.214 1005.7 Q139.214 1014.43 136.135 1019.03 Q133.08 1023.62 127.269 1023.62 Q121.459 1023.62 118.381 1019.03 Q115.325 1014.43 115.325 1005.7 Q115.325 996.949 118.381 992.366 Q121.459 987.759 127.269 987.759 Z" fill="#000000" fill-rule="nonzero" fill-opacity="1" /><path clip-path="url(#clip800)" d="M147.431 1017.06 L152.316 1017.06 L152.316 1022.94 L147.431 1022.94 L147.431 1017.06 Z" fill="#000000" fill-rule="nonzero" fill-opacity="1" /><path clip-path="url(#clip800)" d="M161.32 988.384 L183.542 988.384 L183.542 990.375 L170.996 1022.94 L166.112 1022.94 L177.917 992.319 L161.32 992.319 L161.32 988.384 Z" fill="#000000" fill-rule="nonzero" fill-opacity="1" /><path clip-path="url(#clip800)" d="M126.459 721.027 Q122.848 721.027 121.019 724.591 Q119.214 728.133 119.214 735.263 Q119.214 742.369 121.019 745.934 Q122.848 749.476 126.459 749.476 Q130.093 749.476 131.899 745.934 Q133.728 742.369 133.728 735.263 Q133.728 728.133 131.899 724.591 Q130.093 721.027 126.459 721.027 M126.459 717.323 Q132.269 717.323 135.325 721.929 Q138.404 726.513 138.404 735.263 Q138.404 743.989 135.325 748.596 Q132.269 753.179 126.459 753.179 Q120.649 753.179 117.57 748.596 Q114.515 743.989 114.515 735.263 Q114.515 726.513 117.57 721.929 Q120.649 717.323 126.459 717.323 Z" fill="#000000" fill-rule="nonzero" fill-opacity="1" /><path clip-path="url(#clip800)" d="M146.621 746.628 L151.505 746.628 L151.505 752.508 L146.621 752.508 L146.621 746.628 Z" fill="#000000" fill-rule="nonzero" fill-opacity="1" /><path clip-path="url(#clip800)" d="M171.69 736.096 Q168.357 736.096 166.436 737.878 Q164.538 739.661 164.538 742.786 Q164.538 745.911 166.436 747.693 Q168.357 749.476 171.69 749.476 Q175.024 749.476 176.945 747.693 Q178.866 745.888 178.866 742.786 Q178.866 739.661 176.945 737.878 Q175.047 736.096 171.69 736.096 M167.015 734.105 Q164.005 733.365 162.315 731.304 Q160.649 729.244 160.649 726.281 Q160.649 722.138 163.589 719.73 Q166.552 717.323 171.69 717.323 Q176.852 717.323 179.792 719.73 Q182.732 722.138 182.732 726.281 Q182.732 729.244 181.042 731.304 Q179.376 733.365 176.389 734.105 Q179.769 734.892 181.644 737.184 Q183.542 739.476 183.542 742.786 Q183.542 747.809 180.464 750.494 Q177.408 753.179 171.69 753.179 Q165.973 753.179 162.894 750.494 Q159.839 747.809 159.839 742.786 Q159.839 739.476 161.737 737.184 Q163.635 734.892 167.015 734.105 M165.302 726.721 Q165.302 729.406 166.968 730.911 Q168.658 732.415 171.69 732.415 Q174.7 732.415 176.389 730.911 Q178.102 729.406 178.102 726.721 Q178.102 724.036 176.389 722.531 Q174.7 721.027 171.69 721.027 Q168.658 721.027 166.968 722.531 Q165.302 724.036 165.302 726.721 Z" fill="#000000" fill-rule="nonzero" fill-opacity="1" /><path clip-path="url(#clip800)" d="M126.552 450.59 Q122.941 450.59 121.112 454.155 Q119.306 457.697 119.306 464.827 Q119.306 471.933 121.112 475.498 Q122.941 479.039 126.552 479.039 Q130.186 479.039 131.992 475.498 Q133.82 471.933 133.82 464.827 Q133.82 457.697 131.992 454.155 Q130.186 450.59 126.552 450.59 M126.552 446.887 Q132.362 446.887 135.417 451.493 Q138.496 456.077 138.496 464.827 Q138.496 473.553 135.417 478.16 Q132.362 482.743 126.552 482.743 Q120.742 482.743 117.663 478.16 Q114.607 473.553 114.607 464.827 Q114.607 456.077 117.663 451.493 Q120.742 446.887 126.552 446.887 Z" fill="#000000" fill-rule="nonzero" fill-opacity="1" /><path clip-path="url(#clip800)" d="M146.714 476.192 L151.598 476.192 L151.598 482.072 L146.714 482.072 L146.714 476.192 Z" fill="#000000" fill-rule="nonzero" fill-opacity="1" /><path clip-path="url(#clip800)" d="M161.922 481.354 L161.922 477.095 Q163.681 477.928 165.487 478.368 Q167.292 478.808 169.028 478.808 Q173.658 478.808 176.089 475.706 Q178.542 472.581 178.889 466.239 Q177.547 468.229 175.487 469.294 Q173.427 470.359 170.927 470.359 Q165.741 470.359 162.709 467.234 Q159.7 464.086 159.7 458.646 Q159.7 453.322 162.848 450.104 Q165.996 446.887 171.227 446.887 Q177.223 446.887 180.371 451.493 Q183.542 456.077 183.542 464.827 Q183.542 472.998 179.653 477.882 Q175.788 482.743 169.237 482.743 Q167.477 482.743 165.672 482.396 Q163.866 482.049 161.922 481.354 M171.227 466.701 Q174.376 466.701 176.204 464.549 Q178.056 462.396 178.056 458.646 Q178.056 454.919 176.204 452.766 Q174.376 450.59 171.227 450.59 Q168.079 450.59 166.227 452.766 Q164.399 454.919 164.399 458.646 Q164.399 462.396 166.227 464.549 Q168.079 466.701 171.227 466.701 Z" fill="#000000" fill-rule="nonzero" fill-opacity="1" /><path clip-path="url(#clip800)" d="M117.177 207.7 L124.816 207.7 L124.816 181.335 L116.506 183.001 L116.506 178.742 L124.769 177.076 L129.445 177.076 L129.445 207.7 L137.084 207.7 L137.084 211.636 L117.177 211.636 L117.177 207.7 Z" fill="#000000" fill-rule="nonzero" fill-opacity="1" /><path clip-path="url(#clip800)" d="M146.529 205.756 L151.413 205.756 L151.413 211.636 L146.529 211.636 L146.529 205.756 Z" fill="#000000" fill-rule="nonzero" fill-opacity="1" /><path clip-path="url(#clip800)" d="M171.598 180.154 Q167.987 180.154 166.158 183.719 Q164.352 187.261 164.352 194.39 Q164.352 201.497 166.158 205.062 Q167.987 208.603 171.598 208.603 Q175.232 208.603 177.038 205.062 Q178.866 201.497 178.866 194.39 Q178.866 187.261 177.038 183.719 Q175.232 180.154 171.598 180.154 M171.598 176.451 Q177.408 176.451 180.464 181.057 Q183.542 185.64 183.542 194.39 Q183.542 203.117 180.464 207.724 Q177.408 212.307 171.598 212.307 Q165.788 212.307 162.709 207.724 Q159.653 203.117 159.653 194.39 Q159.653 185.64 162.709 181.057 Q165.788 176.451 171.598 176.451 Z" fill="#000000" fill-rule="nonzero" fill-opacity="1" /><path clip-path="url(#clip800)" d="M30.8561 720.775 Q31.307 720.775 32.3698 721.064 L57.5548 727.377 Q63.1586 728.762 67.0877 733.27 Q71.0168 737.747 71.0168 742.836 Q71.0168 745.895 69.3743 747.86 Q67.764 749.824 65.2842 749.824 Q63.0942 749.824 62.0314 748.665 Q61.0008 747.505 61.0008 746.121 Q61.0008 745.67 61.1296 745.187 Q61.2584 744.703 61.8059 744.188 Q62.3534 743.673 63.2874 743.673 Q64.8011 743.673 65.9927 744.993 Q66.5402 745.637 66.669 746.249 Q66.7978 746.829 66.7978 747.827 Q67.6996 747.441 68.3115 746.732 Q68.9234 746.024 69.1489 745.219 Q69.4065 744.414 69.4709 743.898 Q69.5675 743.351 69.5675 742.836 Q69.5675 738.713 65.413 735.557 Q64.157 734.623 62.9009 733.947 Q61.6771 733.238 60.1634 732.723 Q58.682 732.208 57.8768 731.982 Q57.0717 731.725 55.2359 731.274 Q58.2311 734.269 58.2311 737.94 Q58.2311 739.486 57.8124 740.871 Q57.3937 742.224 56.5242 743.415 Q55.6224 744.607 54.0443 745.315 Q52.4662 745.992 50.3728 745.992 Q48.1506 745.992 45.1233 745.122 Q42.0959 744.253 36.5243 742.159 Q33.4004 741.032 31.8867 741.032 Q31.146 741.032 30.6951 741.193 Q30.212 741.354 30.051 741.676 Q29.8577 741.998 29.8255 742.191 Q29.7933 742.352 29.7933 742.675 Q29.7933 744.575 31.7257 746.346 Q33.658 748.117 37.9736 749.341 Q38.7787 749.599 38.972 749.76 Q39.1652 749.921 39.1652 750.404 Q39.133 751.209 38.4889 751.209 Q38.2312 751.209 37.2329 750.919 Q36.2023 750.629 34.6886 749.953 Q33.1427 749.245 31.7579 748.278 Q30.3408 747.312 29.3424 745.798 Q28.344 744.253 28.344 742.481 Q28.344 740.066 29.9221 738.584 Q31.468 737.071 33.7546 737.071 Q34.6886 737.071 35.5259 737.328 Q36.3311 737.554 38.4889 738.391 Q47.1845 741.773 51.4356 741.773 Q52.4662 741.773 53.3358 741.612 Q54.1731 741.418 55.0105 741 Q55.8156 740.581 56.2987 739.744 Q56.7496 738.874 56.7496 737.683 Q56.7496 736.169 56.0411 734.752 Q55.3003 733.303 54.302 732.401 Q53.3036 731.467 52.4662 730.919 Q51.5967 730.34 51.1458 730.211 L39.294 727.248 L34.0123 725.927 Q31.146 725.316 30.4374 725.026 Q29.7611 724.639 29.4068 723.963 Q29.0526 723.287 29.0526 722.707 Q29.0526 721.902 29.5357 721.354 Q30.0187 720.775 30.8561 720.775 Z" fill="#000000" fill-rule="nonzero" fill-opacity="1" /><polyline clip-path="url(#clip802)" style="stroke:#ff7e0d; stroke-linecap:round; stroke-linejoin:round; stroke-width:8; stroke-opacity:1; fill:none" stroke-dasharray="32, 20" points="279.916,189.074 283.847,184.864 287.777,188.331 291.708,189.778 295.639,192.343 299.569,206.596 303.5,188.613 307.43,195.406 311.361,180.651 315.292,193 319.222,186.668 323.153,200.687 327.083,207.569 331.014,210.603 334.945,212.114 338.875,218.485 342.806,219.973 346.736,226.273 350.667,239.113 354.598,256.256 358.528,264.551 362.459,267.539 366.389,270.323 370.32,254.69 374.25,243.329 378.181,249.323 382.112,274.785 386.042,270.574 389.973,278.327 393.903,298.164 397.834,310.356 401.765,302.743 405.695,311.734 409.626,341.962 413.556,352.672 417.487,348.982 421.418,338.474 425.348,347.902 429.279,332.975 433.209,330.068 437.14,321.865 441.071,303.746 445.001,291.646 448.932,302.458 452.862,303.218 456.793,312.337 460.724,311.754 464.654,294.691 468.585,300.532 472.515,290.352 476.446,268.119 480.377,271.613 484.307,259.609 488.238,256.332 492.168,251.281 496.099,255.489 500.03,265.265 503.96,264.15 507.891,276.933 511.821,265.123 515.752,258.382 519.683,254.051 523.613,256.145 527.544,244.223 531.474,244.546 535.405,254.355 539.336,252.762 543.266,255.827 547.197,253.663 551.127,250.185 555.058,229.017 558.989,219.354 562.919,192.402 566.85,218.453 570.78,237.764 574.711,223.94 578.642,209.995 582.572,199.508 586.503,188.065 590.433,205.525 594.364,213.388 598.295,210.845 602.225,215.386 606.156,212.646 610.086,200.405 614.017,211.093 617.948,191.468 621.878,192.417 625.809,196.731 629.739,195.19 633.67,219.658 637.601,218.995 641.531,222.506 645.462,238.454 649.392,228.42 653.323,242.205 657.253,253.477 661.184,256.483 665.115,260.686 669.045,261.93 672.976,252.843 676.906,253.468 680.837,241.852 684.768,246.212 688.698,241.189 692.629,243.808 696.559,246.721 700.49,262.66 704.421,265.415 708.351,264.138 712.282,256.768 716.212,256.878 720.143,253.836 724.074,235.801 728.004,239.894 731.935,231.052 735.865,231.976 739.796,233.773 743.727,220.725 747.657,226.135 751.588,214.491 755.518,223.234 759.449,226.223 763.38,232.361 767.31,233.963 771.241,261.784 775.171,280.992 779.102,277.971 783.033,285.477 786.963,292.723 790.894,290.568 794.824,289.594 798.755,299.425 802.686,291.198 806.616,273.961 810.547,306.645 814.477,287.265 818.408,295.661 822.339,294.96 826.269,273.164 830.2,267.617 834.13,257.508 838.061,241.006 841.992,244.756 845.922,252.396 849.853,246.194 853.783,244.52 857.714,253.442 861.645,229.106 865.575,200.297 869.506,204.901 873.436,192.623 877.367,199.097 881.298,206.867 885.228,194.676 889.159,181.798 893.089,188.22 897.02,176.956 900.951,169.148 904.881,156.858 908.812,152.701 912.742,161.248 916.673,173.032 920.604,159.538 924.534,162.521 928.465,169.827 932.395,158.08 936.326,143.338 940.256,128.537 944.187,134.508 948.118,124.527 952.048,112.529 955.979,112.478 959.909,112.607 963.84,118.687 967.771,131.924 971.701,125.151 975.632,119.097 979.562,123.258 983.493,126.056 987.424,134.689 991.354,127.328 995.285,127.77 999.215,129.034 1003.15,102.254 1007.08,107.603 1011.01,98.2659 1014.94,99.182 1018.87,106.078 1022.8,120.426 1026.73,114.65 1030.66,105.91 1034.59,93.1563 1038.52,89.1133 1042.45,87.4401 1046.38,86.8379 1050.31,86.1857 1054.24,87.713 1058.17,88.1235 1062.11,93.474 1066.04,99.2222 1069.97,91.5662 1073.9,91.2004 1077.83,90.9855 1081.76,91.9508 1085.69,89.5681 1089.62,89.8831 1093.55,90.0107 1097.48,86.2702 1101.41,86.194 1105.34,86.2361 1109.27,86.1894 1113.2,86.2422 1117.13,87.8418 1121.06,87.4031 1124.99,86.4235 1128.93,87.2233 1132.86,88.2834 1136.79,88.3768 1140.72,89.0526 1144.65,94.3563 1148.58,114.724 1152.51,108.655 1156.44,129.08 1160.37,168.922 1164.3,163.504 1168.23,158.169 1172.16,154.439 1176.09,161.61 1180.02,154.29 1183.95,174.332 1187.88,166.255 1191.81,177.934 1195.75,177.25 1199.68,179.519 1203.61,175 1207.54,143.345 1211.47,133.443 1215.4,177.644 1219.33,157.769 1223.26,141.574 1227.19,162.433 1231.12,177.468 1235.05,158.216 1238.98,171.54 1242.91,176.421 1246.84,197.225 1250.77,229.546 1254.7,216.019 1258.63,194.962 1262.57,162.949 1266.5,142.724 1270.43,148.131 1274.36,148.1 1278.29,132.29 1282.22,124.042 1286.15,143.069 1290.08,123.749 1294.01,151.809 1297.94,129.194 1301.87,121.185 1305.8,117.112 1309.73,128.26 1313.66,122.182 1317.59,107.448 1321.52,106.616 1325.46,121.021 1329.39,152.371 1333.32,150.813 1337.25,169.575 1341.18,200.296 1345.11,178.107 1349.04,162.186 1352.97,149.692 1356.9,159.436 1360.83,186.864 1364.76,165.724 1368.69,141.851 1372.62,157.522 1376.55,149.258 1380.48,138.31 1384.41,135.148 1388.34,139.638 1392.28,133.906 1396.21,120.556 1400.14,129.018 1404.07,124.974 1408,133.704 1411.93,145.247 1415.86,167.071 1419.79,171.61 1423.72,163.482 1427.65,201.253 1431.58,198.854 1435.51,190.013 1439.44,180.135 1443.37,173.477 1447.3,180.784 1451.23,209.57 1455.16,197.849 1459.1,246.182 1463.03,302.976 1466.96,295.886 1470.89,267.745 1474.82,247.458 1478.75,302.97 1482.68,303.949 1486.61,219.086 1490.54,283.982 1494.47,306.647 1498.4,260.171 1502.33,288.348 1506.26,328.769 1510.19,330.705 1514.12,341.006 1518.05,339.138 1521.98,370.069 1525.92,374.215 1529.85,418.716 1533.78,444.059 1537.71,464.169 1541.64,554.067 1545.57,526.082 1549.5,585.185 1553.43,667.606 1557.36,630.276 1561.29,645.807 1565.22,586.467 1569.15,606.824 1573.08,607.978 1577.01,588.966 1580.94,541.647 1584.87,566.025 1588.81,515.888 1592.74,623.899 1596.67,641.338 1600.6,678.803 1604.53,667.468 1608.46,678.239 1612.39,871.063 1616.32,937.971 1620.25,961.675 1624.18,1074.83 1628.11,1148.04 1632.04,1174.33 1635.97,1158.86 1639.9,1118.09 1643.83,1087.09 1647.76,1099.89 1651.69,1138.9 1655.63,1174.46 1659.56,1226.61 1663.49,1220.45 1667.42,1262.16 1671.35,1207.59 1675.28,1244.31 1679.21,1170.93 1683.14,1158.15 1687.07,1213.61 1691,1120.54 1694.93,1174.1 1698.86,1111.48 1702.79,1098.44 1706.72,986.184 1710.65,952.723 1714.58,930.429 1718.51,850.635 1722.45,851.055 1726.38,809.361 1730.31,893.415 1734.24,822.082 1738.17,896.358 1742.1,830.653 1746.03,808.813 1749.96,807.28 1753.89,751.85 1757.82,994.611 1761.75,1156.35 1765.68,1309.87 1769.61,1345.7 1773.54,1339.14 1777.47,1371.99 1781.4,1335.52 1785.33,1255.79 1789.27,1232.8 1793.2,1257.73 1797.13,1323.09 1801.06,1326.63 1804.99,1346.08 1808.92,1292.84 1812.85,1243.26 1816.78,1330.85 1820.71,1345.92 1824.64,1350.8 1828.57,1376.49 1832.5,1342.62 1836.43,1383.68 1840.36,1382.93 1844.29,1383.97 1848.22,1383.79 1852.16,1384.16 1856.09,1384.16 1860.02,1361.52 1863.95,1359.21 1867.88,1369.27 1871.81,1377.63 1875.74,1381.88 1879.67,1384.24 1883.6,1355.31 1887.53,1325.93 1891.46,1302.08 1895.39,1229.79 1899.32,1248.83 1903.25,1196.29 1907.18,1098.58 1911.11,1011.26 1915.04,1068.46 1918.98,789.918 1922.91,949.055 1926.84,838.22 1930.77,728.529 1934.7,513.735 1938.63,445.276 1942.56,587.883 1946.49,585.632 1950.42,718.356 1954.35,645.665 1958.28,690.735 1962.21,523.901 1966.14,347.85 1970.07,403.486 1974,324.763 1977.93,446.995 1981.86,476.735 1985.8,529.689 1989.73,396.497 1993.66,578.373 1997.59,708.673 2001.52,1023 2005.45,1007.04 2009.38,999.96 2013.31,1106.15 2017.24,1091.36 2021.17,871.814 2025.1,839.609 2029.03,940.994 2032.96,1058.61 2036.89,1096.41 2040.82,1050.88 2044.75,960.676 2048.68,966.178 2052.62,1181.11 2056.55,1252.57 2060.48,1305.72 2064.41,1241.81 2068.34,1201.43 2072.27,1293.86 2076.2,1362.63 2080.13,1382.56 2084.06,1381.92 2087.99,1380.66 2091.92,1372.97 2095.85,1377.22 2099.78,1377.77 2103.71,1379.98 2107.64,1368.42 2111.57,1383.17 2115.51,1384.13 2119.44,1379.52 2123.37,1344.94 2127.3,1384.07 2131.23,1376.74 2135.16,1374.68 2139.09,1382.9 2143.02,1357.3 2146.95,1358.07 2150.88,1382.95 2154.81,1384.17 2158.74,1364.45 2162.67,1367.63 2166.6,1367.45 2170.53,1362.92 2174.46,1356.56 2178.39,1347.37 2182.33,1333.56 2186.26,1242.14 2190.19,1290.34 2194.12,1350.88 2198.05,1373.08 2201.98,1340.04 2205.91,1278.22 2209.84,1179.6 2213.77,1251.2 2217.7,1232.46 2221.63,1200.51 2225.56,1226.95 2229.49,1242.93 2233.42,1292 2237.35,1288.9 2241.28,1319.2 2245.21,1335.54 2249.15,1308.94 2253.08,1274.64 2257.01,1210.61 2260.94,1205.9 2264.87,1064.97 2268.8,951.147 2272.73,1038.17 2276.66,1030.71 2280.59,1030.93 2284.52,1027.61 2288.45,1027.55 2292.38,1146.19 "/>
<path clip-path="url(#clip800)" d="M290.649 1377.32 L558.134 1377.32 L558.134 1273.64 L290.649 1273.64  Z" fill="#ffffff" fill-rule="evenodd" fill-opacity="1"/>
<polyline clip-path="url(#clip800)" style="stroke:#000000; stroke-linecap:round; stroke-linejoin:round; stroke-width:4; stroke-opacity:1; fill:none" points="290.649,1377.32 558.134,1377.32 558.134,1273.64 290.649,1273.64 290.649,1377.32 "/>
<polyline clip-path="url(#clip800)" style="stroke:#ff7e0d; stroke-linecap:round; stroke-linejoin:round; stroke-width:8; stroke-opacity:1; fill:none" stroke-dasharray="32, 20" points="314.352,1325.48 456.566,1325.48 "/>
<path clip-path="url(#clip800)" d="M514.325 1301.93 L511.303 1314.16 Q511.092 1314.93 510.952 1315.03 Q510.835 1315.12 510.46 1315.12 Q509.734 1315.12 509.734 1314.63 Q509.734 1314.58 509.804 1313.97 Q509.874 1313.34 509.874 1312.19 Q509.874 1307.95 507.813 1305.45 Q505.775 1302.94 502.145 1302.94 Q498.749 1302.94 495.493 1304.72 Q492.237 1306.5 490.153 1309.12 Q488.396 1311.28 487.178 1313.9 Q485.983 1316.53 485.492 1318.82 Q485 1321.09 484.812 1322.48 Q484.648 1323.86 484.648 1324.75 Q484.648 1327.37 485.492 1329.41 Q486.335 1331.42 487.74 1332.57 Q489.169 1333.72 490.808 1334.28 Q492.471 1334.84 494.275 1334.84 Q494.954 1334.84 495.774 1334.75 Q496.594 1334.65 497.859 1334.3 Q499.147 1333.95 500.201 1333.37 Q501.278 1332.78 502.215 1331.66 Q503.175 1330.53 503.55 1329.03 Q504.557 1325.22 504.557 1324.65 Q504.557 1324.19 504.276 1324.02 Q503.995 1323.86 503.058 1323.74 L500.529 1323.65 Q500.482 1323.65 500.412 1323.65 Q499.967 1323.65 499.779 1323.65 Q499.592 1323.62 499.381 1323.58 Q499.194 1323.53 499.123 1323.44 Q499.077 1323.32 499.077 1323.13 Q499.077 1322.69 499.264 1322.48 Q499.451 1322.24 499.615 1322.22 Q499.779 1322.17 500.084 1322.17 L506.806 1322.31 Q507.345 1322.31 509.312 1322.24 Q511.28 1322.17 511.842 1322.17 Q512.474 1322.17 512.474 1322.69 Q512.474 1323.65 511.701 1323.65 Q510.928 1323.67 510.53 1323.69 Q510.132 1323.69 509.734 1323.81 Q509.359 1323.93 509.218 1324.02 Q509.078 1324.09 508.891 1324.44 Q508.703 1324.77 508.633 1325.05 Q508.563 1325.31 508.399 1325.97 Q508.305 1326.39 508.071 1327.18 Q507.86 1327.98 507.766 1328.4 L506.853 1332.1 Q506.22 1334.84 506.033 1335.03 Q505.939 1335.22 505.705 1335.22 Q505.354 1335.22 504.604 1334.19 Q503.878 1333.16 503.55 1332.24 Q502.965 1332.87 502.59 1333.25 Q502.215 1333.6 501.349 1334.16 Q500.505 1334.73 499.381 1335.17 Q496.641 1336.32 493.385 1336.32 Q487.576 1336.32 483.922 1332.64 Q480.268 1328.94 480.268 1323.18 Q480.268 1319.1 482.142 1315.1 Q484.016 1311.09 486.991 1308.12 Q489.965 1305.14 493.9 1303.29 Q497.835 1301.44 501.77 1301.44 Q503.269 1301.44 504.604 1301.84 Q505.939 1302.24 506.736 1302.73 Q507.555 1303.22 508.282 1303.95 Q509.008 1304.65 509.242 1304.98 Q509.5 1305.31 509.734 1305.7 L513.083 1302.03 Q513.669 1301.44 513.809 1301.44 Q514.09 1301.44 514.207 1301.61 Q514.325 1301.77 514.325 1301.93 Z" fill="#000000" fill-rule="nonzero" fill-opacity="1" /><path clip-path="url(#clip800)" d="M529.42 1334.7 Q529.42 1335.16 529.207 1335.27 Q528.994 1335.37 528.403 1335.37 L525.255 1335.37 L522.763 1345.27 Q522.567 1346.14 522.567 1346.88 Q522.567 1347.7 522.812 1348.06 Q523.075 1348.42 523.616 1348.42 Q524.682 1348.42 525.829 1347.45 Q526.993 1346.49 527.977 1344.13 Q528.108 1343.81 528.174 1343.75 Q528.256 1343.67 528.469 1343.67 Q528.879 1343.67 528.879 1344 Q528.879 1344.11 528.649 1344.63 Q528.436 1345.16 527.961 1345.93 Q527.502 1346.7 526.895 1347.42 Q526.305 1348.14 525.403 1348.67 Q524.501 1349.18 523.534 1349.18 Q522.173 1349.18 521.304 1348.31 Q520.452 1347.44 520.452 1346.08 Q520.452 1345.63 520.796 1344.22 Q521.14 1342.8 523.009 1335.37 L520.042 1335.37 Q519.632 1335.37 519.468 1335.35 Q519.32 1335.34 519.205 1335.26 Q519.107 1335.16 519.107 1334.96 Q519.107 1334.65 519.238 1334.52 Q519.369 1334.37 519.533 1334.35 Q519.714 1334.32 520.124 1334.32 L523.272 1334.32 L524.583 1328.99 Q524.714 1328.47 525.042 1328.17 Q525.387 1327.86 525.583 1327.83 Q525.78 1327.78 525.928 1327.78 Q526.37 1327.78 526.633 1328.03 Q526.895 1328.26 526.895 1328.68 Q526.895 1328.91 525.518 1334.32 L528.469 1334.32 Q528.846 1334.32 528.994 1334.34 Q529.158 1334.35 529.289 1334.44 Q529.42 1334.52 529.42 1334.7 Z" fill="#000000" fill-rule="nonzero" fill-opacity="1" /></svg>
