<?xml version="1.0" encoding="utf-8"?>
<svg xmlns="http://www.w3.org/2000/svg" xmlns:xlink="http://www.w3.org/1999/xlink" width="600" height="400" viewBox="0 0 2400 1600">
<defs>
  <clipPath id="clip620">
    <rect x="0" y="0" width="2400" height="1600"/>
  </clipPath>
</defs>
<path clip-path="url(#clip620)" d="M0 1600 L2400 1600 L2400 0 L0 0  Z" fill="#ffffff" fill-rule="evenodd" fill-opacity="1"/>
<defs>
  <clipPath id="clip621">
    <rect x="480" y="0" width="1681" height="1600"/>
  </clipPath>
</defs>
<path clip-path="url(#clip620)" d="M289.119 1410.9 L2352.76 1410.9 L2352.76 47.2441 L289.119 47.2441  Z" fill="#ffffff" fill-rule="evenodd" fill-opacity="1"/>
<defs>
  <clipPath id="clip622">
    <rect x="289" y="47" width="2065" height="1365"/>
  </clipPath>
</defs>
<polyline clip-path="url(#clip622)" style="stroke:#000000; stroke-linecap:round; stroke-linejoin:round; stroke-width:2; stroke-opacity:0.1; fill:none" points="618.203,1410.9 618.203,47.2441 "/>
<polyline clip-path="url(#clip622)" style="stroke:#000000; stroke-linecap:round; stroke-linejoin:round; stroke-width:2; stroke-opacity:0.1; fill:none" points="1264.93,1410.9 1264.93,47.2441 "/>
<polyline clip-path="url(#clip622)" style="stroke:#000000; stroke-linecap:round; stroke-linejoin:round; stroke-width:2; stroke-opacity:0.1; fill:none" points="1911.65,1410.9 1911.65,47.2441 "/>
<polyline clip-path="url(#clip622)" style="stroke:#000000; stroke-linecap:round; stroke-linejoin:round; stroke-width:2; stroke-opacity:0.1; fill:none" points="289.119,1106.54 2352.76,1106.54 "/>
<polyline clip-path="url(#clip622)" style="stroke:#000000; stroke-linecap:round; stroke-linejoin:round; stroke-width:2; stroke-opacity:0.1; fill:none" points="289.119,707.808 2352.76,707.808 "/>
<polyline clip-path="url(#clip622)" style="stroke:#000000; stroke-linecap:round; stroke-linejoin:round; stroke-width:2; stroke-opacity:0.1; fill:none" points="289.119,309.073 2352.76,309.073 "/>
<polyline clip-path="url(#clip620)" style="stroke:#000000; stroke-linecap:round; stroke-linejoin:round; stroke-width:4; stroke-opacity:1; fill:none" points="289.119,1410.9 2352.76,1410.9 "/>
<polyline clip-path="url(#clip620)" style="stroke:#000000; stroke-linecap:round; stroke-linejoin:round; stroke-width:4; stroke-opacity:1; fill:none" points="618.203,1410.9 618.203,1392 "/>
<polyline clip-path="url(#clip620)" style="stroke:#000000; stroke-linecap:round; stroke-linejoin:round; stroke-width:4; stroke-opacity:1; fill:none" points="1264.93,1410.9 1264.93,1392 "/>
<polyline clip-path="url(#clip620)" style="stroke:#000000; stroke-linecap:round; stroke-linejoin:round; stroke-width:4; stroke-opacity:1; fill:none" points="1911.65,1410.9 1911.65,1392 "/>
<path clip-path="url(#clip620)" d="M549.849 1485.02 L557.488 1485.02 L557.488 1458.66 L549.178 1460.32 L549.178 1456.06 L557.442 1454.4 L562.118 1454.4 L562.118 1485.02 L569.756 1485.02 L569.756 1488.96 L549.849 1488.96 L549.849 1485.02 Z" fill="#000000" fill-rule="nonzero" fill-opacity="1" /><path clip-path="url(#clip620)" d="M589.201 1457.48 Q585.59 1457.48 583.761 1461.04 Q581.955 1464.58 581.955 1471.71 Q581.955 1478.82 583.761 1482.38 Q585.59 1485.92 589.201 1485.92 Q592.835 1485.92 594.641 1482.38 Q596.469 1478.82 596.469 1471.71 Q596.469 1464.58 594.641 1461.04 Q592.835 1457.48 589.201 1457.48 M589.201 1453.77 Q595.011 1453.77 598.066 1458.38 Q601.145 1462.96 601.145 1471.71 Q601.145 1480.44 598.066 1485.04 Q595.011 1489.63 589.201 1489.63 Q583.391 1489.63 580.312 1485.04 Q577.256 1480.44 577.256 1471.71 Q577.256 1462.96 580.312 1458.38 Q583.391 1453.77 589.201 1453.77 Z" fill="#000000" fill-rule="nonzero" fill-opacity="1" /><path clip-path="url(#clip620)" d="M601.145 1447.87 L625.257 1447.87 L625.257 1451.07 L601.145 1451.07 L601.145 1447.87 Z" fill="#000000" fill-rule="nonzero" fill-opacity="1" /><path clip-path="url(#clip620)" d="M636.729 1458.35 L649.989 1458.35 L649.989 1461.55 L632.159 1461.55 L632.159 1458.35 Q634.322 1456.11 638.046 1452.35 Q641.789 1448.57 642.748 1447.48 Q644.572 1445.43 645.287 1444.02 Q646.021 1442.59 646.021 1441.22 Q646.021 1438.98 644.441 1437.57 Q642.88 1436.16 640.359 1436.16 Q638.573 1436.16 636.579 1436.78 Q634.604 1437.4 632.347 1438.66 L632.347 1434.82 Q634.642 1433.9 636.635 1433.43 Q638.629 1432.96 640.284 1432.96 Q644.648 1432.96 647.243 1435.14 Q649.839 1437.32 649.839 1440.97 Q649.839 1442.7 649.18 1444.26 Q648.541 1445.8 646.829 1447.91 Q646.359 1448.46 643.839 1451.07 Q641.319 1453.67 636.729 1458.35 Z" fill="#000000" fill-rule="nonzero" fill-opacity="1" /><path clip-path="url(#clip620)" d="M657.963 1456.77 L661.932 1456.77 L661.932 1461.55 L657.963 1461.55 L657.963 1456.77 Z" fill="#000000" fill-rule="nonzero" fill-opacity="1" /><path clip-path="url(#clip620)" d="M670.245 1433.47 L685.159 1433.47 L685.159 1436.66 L673.724 1436.66 L673.724 1443.55 Q674.552 1443.27 675.379 1443.13 Q676.207 1442.98 677.035 1442.98 Q681.736 1442.98 684.482 1445.56 Q687.228 1448.14 687.228 1452.54 Q687.228 1457.07 684.407 1459.59 Q681.586 1462.09 676.451 1462.09 Q674.684 1462.09 672.84 1461.79 Q671.016 1461.49 669.06 1460.89 L669.06 1457.07 Q670.753 1457.99 672.558 1458.44 Q674.364 1458.89 676.376 1458.89 Q679.63 1458.89 681.53 1457.18 Q683.429 1455.47 683.429 1452.54 Q683.429 1449.6 681.53 1447.89 Q679.63 1446.18 676.376 1446.18 Q674.853 1446.18 673.329 1446.52 Q671.825 1446.86 670.245 1447.57 L670.245 1433.47 Z" fill="#000000" fill-rule="nonzero" fill-opacity="1" /><path clip-path="url(#clip620)" d="M1196.17 1485.02 L1203.81 1485.02 L1203.81 1458.66 L1195.5 1460.32 L1195.5 1456.06 L1203.76 1454.4 L1208.44 1454.4 L1208.44 1485.02 L1216.07 1485.02 L1216.07 1488.96 L1196.17 1488.96 L1196.17 1485.02 Z" fill="#000000" fill-rule="nonzero" fill-opacity="1" /><path clip-path="url(#clip620)" d="M1235.52 1457.48 Q1231.91 1457.48 1230.08 1461.04 Q1228.27 1464.58 1228.27 1471.71 Q1228.27 1478.82 1230.08 1482.38 Q1231.91 1485.92 1235.52 1485.92 Q1239.15 1485.92 1240.96 1482.38 Q1242.79 1478.82 1242.79 1471.71 Q1242.79 1464.58 1240.96 1461.04 Q1239.15 1457.48 1235.52 1457.48 M1235.52 1453.77 Q1241.33 1453.77 1244.38 1458.38 Q1247.46 1462.96 1247.46 1471.71 Q1247.46 1480.44 1244.38 1485.04 Q1241.33 1489.63 1235.52 1489.63 Q1229.71 1489.63 1226.63 1485.04 Q1223.57 1480.44 1223.57 1471.71 Q1223.57 1462.96 1226.63 1458.38 Q1229.71 1453.77 1235.52 1453.77 Z" fill="#000000" fill-rule="nonzero" fill-opacity="1" /><path clip-path="url(#clip620)" d="M1247.46 1447.87 L1271.57 1447.87 L1271.57 1451.07 L1247.46 1451.07 L1247.46 1447.87 Z" fill="#000000" fill-rule="nonzero" fill-opacity="1" /><path clip-path="url(#clip620)" d="M1283.05 1458.35 L1296.31 1458.35 L1296.31 1461.55 L1278.48 1461.55 L1278.48 1458.35 Q1280.64 1456.11 1284.36 1452.35 Q1288.11 1448.57 1289.07 1447.48 Q1290.89 1445.43 1291.6 1444.02 Q1292.34 1442.59 1292.34 1441.22 Q1292.34 1438.98 1290.76 1437.57 Q1289.2 1436.16 1286.68 1436.16 Q1284.89 1436.16 1282.9 1436.78 Q1280.92 1437.4 1278.66 1438.66 L1278.66 1434.82 Q1280.96 1433.9 1282.95 1433.43 Q1284.95 1432.96 1286.6 1432.96 Q1290.97 1432.96 1293.56 1435.14 Q1296.16 1437.32 1296.16 1440.97 Q1296.16 1442.7 1295.5 1444.26 Q1294.86 1445.8 1293.15 1447.91 Q1292.68 1448.46 1290.16 1451.07 Q1287.64 1453.67 1283.05 1458.35 Z" fill="#000000" fill-rule="nonzero" fill-opacity="1" /><path clip-path="url(#clip620)" d="M1304.28 1456.77 L1308.25 1456.77 L1308.25 1461.55 L1304.28 1461.55 L1304.28 1456.77 Z" fill="#000000" fill-rule="nonzero" fill-opacity="1" /><path clip-path="url(#clip620)" d="M1324.65 1435.97 Q1321.72 1435.97 1320.23 1438.86 Q1318.76 1441.74 1318.76 1447.53 Q1318.76 1453.31 1320.23 1456.2 Q1321.72 1459.08 1324.65 1459.08 Q1327.6 1459.08 1329.07 1456.2 Q1330.56 1453.31 1330.56 1447.53 Q1330.56 1441.74 1329.07 1438.86 Q1327.6 1435.97 1324.65 1435.97 M1324.65 1432.96 Q1329.37 1432.96 1331.85 1436.7 Q1334.35 1440.43 1334.35 1447.53 Q1334.35 1454.62 1331.85 1458.37 Q1329.37 1462.09 1324.65 1462.09 Q1319.93 1462.09 1317.43 1458.37 Q1314.95 1454.62 1314.95 1447.53 Q1314.95 1440.43 1317.43 1436.7 Q1319.93 1432.96 1324.65 1432.96 Z" fill="#000000" fill-rule="nonzero" fill-opacity="1" /><path clip-path="url(#clip620)" d="M1843.29 1485.02 L1850.93 1485.02 L1850.93 1458.66 L1842.62 1460.32 L1842.62 1456.06 L1850.89 1454.4 L1855.56 1454.4 L1855.56 1485.02 L1863.2 1485.02 L1863.2 1488.96 L1843.29 1488.96 L1843.29 1485.02 Z" fill="#000000" fill-rule="nonzero" fill-opacity="1" /><path clip-path="url(#clip620)" d="M1882.64 1457.48 Q1879.03 1457.48 1877.2 1461.04 Q1875.4 1464.58 1875.4 1471.71 Q1875.4 1478.82 1877.2 1482.38 Q1879.03 1485.92 1882.64 1485.92 Q1886.28 1485.92 1888.08 1482.38 Q1889.91 1478.82 1889.91 1471.71 Q1889.91 1464.58 1888.08 1461.04 Q1886.28 1457.48 1882.64 1457.48 M1882.64 1453.77 Q1888.45 1453.77 1891.51 1458.38 Q1894.59 1462.96 1894.59 1471.71 Q1894.59 1480.44 1891.51 1485.04 Q1888.45 1489.63 1882.64 1489.63 Q1876.83 1489.63 1873.76 1485.04 Q1870.7 1480.44 1870.7 1471.71 Q1870.7 1462.96 1873.76 1458.38 Q1876.83 1453.77 1882.64 1453.77 Z" fill="#000000" fill-rule="nonzero" fill-opacity="1" /><path clip-path="url(#clip620)" d="M1894.59 1447.87 L1918.7 1447.87 L1918.7 1451.07 L1894.59 1451.07 L1894.59 1447.87 Z" fill="#000000" fill-rule="nonzero" fill-opacity="1" /><path clip-path="url(#clip620)" d="M1927.56 1458.35 L1933.77 1458.35 L1933.77 1436.93 L1927.01 1438.28 L1927.01 1434.82 L1933.73 1433.47 L1937.53 1433.47 L1937.53 1458.35 L1943.73 1458.35 L1943.73 1461.55 L1927.56 1461.55 L1927.56 1458.35 Z" fill="#000000" fill-rule="nonzero" fill-opacity="1" /><path clip-path="url(#clip620)" d="M1951.41 1456.77 L1955.38 1456.77 L1955.38 1461.55 L1951.41 1461.55 L1951.41 1456.77 Z" fill="#000000" fill-rule="nonzero" fill-opacity="1" /><path clip-path="url(#clip620)" d="M1963.69 1433.47 L1978.6 1433.47 L1978.6 1436.66 L1967.17 1436.66 L1967.17 1443.55 Q1968 1443.27 1968.82 1443.13 Q1969.65 1442.98 1970.48 1442.98 Q1975.18 1442.98 1977.93 1445.56 Q1980.67 1448.14 1980.67 1452.54 Q1980.67 1457.07 1977.85 1459.59 Q1975.03 1462.09 1969.9 1462.09 Q1968.13 1462.09 1966.28 1461.79 Q1964.46 1461.49 1962.5 1460.89 L1962.5 1457.07 Q1964.2 1457.99 1966 1458.44 Q1967.81 1458.89 1969.82 1458.89 Q1973.07 1458.89 1974.97 1457.18 Q1976.87 1455.47 1976.87 1452.54 Q1976.87 1449.6 1974.97 1447.89 Q1973.07 1446.18 1969.82 1446.18 Q1968.3 1446.18 1966.77 1446.52 Q1965.27 1446.86 1963.69 1447.57 L1963.69 1433.47 Z" fill="#000000" fill-rule="nonzero" fill-opacity="1" /><path clip-path="url(#clip620)" d="M1282.49 1568.04 Q1282.49 1567.79 1283.36 1566.11 Q1284.22 1564.41 1287.28 1558.32 Q1290.34 1552.2 1293.5 1545.79 L1304.87 1522.92 Q1305.67 1521.48 1306.7 1521.48 Q1307.64 1521.48 1308.06 1522.05 Q1308.48 1522.63 1310.41 1526.53 Q1311.41 1528.43 1311.99 1529.66 L1330.63 1566.98 Q1330.96 1567.79 1330.99 1568.04 Q1330.99 1568.69 1329.86 1568.69 L1284.22 1568.69 Q1282.49 1568.69 1282.49 1568.04 M1286.83 1563.66 L1322.32 1563.66 L1304.58 1528.05 L1286.83 1563.66 Z" fill="#000000" fill-rule="nonzero" fill-opacity="1" /><path clip-path="url(#clip620)" d="M1356.07 1540.99 Q1356.07 1541.89 1355.66 1542.12 Q1355.24 1542.31 1354.08 1542.31 L1347.89 1542.31 L1343 1561.76 Q1342.61 1563.47 1342.61 1564.92 Q1342.61 1566.53 1343.1 1567.24 Q1343.61 1567.95 1344.67 1567.95 Q1346.77 1567.95 1349.02 1566.05 Q1351.31 1564.15 1353.24 1559.51 Q1353.5 1558.9 1353.63 1558.77 Q1353.79 1558.61 1354.21 1558.61 Q1355.01 1558.61 1355.01 1559.25 Q1355.01 1559.48 1354.56 1560.51 Q1354.14 1561.54 1353.21 1563.05 Q1352.31 1564.57 1351.11 1565.98 Q1349.95 1567.4 1348.18 1568.43 Q1346.41 1569.43 1344.51 1569.43 Q1341.84 1569.43 1340.13 1567.72 Q1338.46 1566.02 1338.46 1563.34 Q1338.46 1562.47 1339.13 1559.7 Q1339.81 1556.9 1343.48 1542.31 L1337.65 1542.31 Q1336.85 1542.31 1336.53 1542.28 Q1336.24 1542.25 1336.01 1542.09 Q1335.82 1541.89 1335.82 1541.51 Q1335.82 1540.9 1336.07 1540.64 Q1336.33 1540.35 1336.65 1540.32 Q1337.01 1540.25 1337.81 1540.25 L1344 1540.25 L1346.57 1529.78 Q1346.83 1528.75 1347.48 1528.17 Q1348.15 1527.56 1348.54 1527.5 Q1348.92 1527.4 1349.21 1527.4 Q1350.08 1527.4 1350.6 1527.88 Q1351.11 1528.34 1351.11 1529.17 Q1351.11 1529.62 1348.41 1540.25 L1354.21 1540.25 Q1354.95 1540.25 1355.24 1540.28 Q1355.56 1540.32 1355.82 1540.48 Q1356.07 1540.64 1356.07 1540.99 Z" fill="#000000" fill-rule="nonzero" fill-opacity="1" /><polyline clip-path="url(#clip620)" style="stroke:#000000; stroke-linecap:round; stroke-linejoin:round; stroke-width:4; stroke-opacity:1; fill:none" points="289.119,1410.9 289.119,47.2441 "/>
<polyline clip-path="url(#clip620)" style="stroke:#000000; stroke-linecap:round; stroke-linejoin:round; stroke-width:4; stroke-opacity:1; fill:none" points="289.119,1106.54 308.017,1106.54 "/>
<polyline clip-path="url(#clip620)" style="stroke:#000000; stroke-linecap:round; stroke-linejoin:round; stroke-width:4; stroke-opacity:1; fill:none" points="289.119,707.808 308.017,707.808 "/>
<polyline clip-path="url(#clip620)" style="stroke:#000000; stroke-linecap:round; stroke-linejoin:round; stroke-width:4; stroke-opacity:1; fill:none" points="289.119,309.073 308.017,309.073 "/>
<path clip-path="url(#clip620)" d="M115.74 1126.33 L123.379 1126.33 L123.379 1099.97 L115.069 1101.64 L115.069 1097.38 L123.333 1095.71 L128.009 1095.71 L128.009 1126.33 L135.647 1126.33 L135.647 1130.27 L115.74 1130.27 L115.74 1126.33 Z" fill="#000000" fill-rule="nonzero" fill-opacity="1" /><path clip-path="url(#clip620)" d="M155.092 1098.79 Q151.481 1098.79 149.652 1102.35 Q147.846 1105.9 147.846 1113.02 Q147.846 1120.13 149.652 1123.7 Q151.481 1127.24 155.092 1127.24 Q158.726 1127.24 160.532 1123.7 Q162.36 1120.13 162.36 1113.02 Q162.36 1105.9 160.532 1102.35 Q158.726 1098.79 155.092 1098.79 M155.092 1095.08 Q160.902 1095.08 163.958 1099.69 Q167.036 1104.27 167.036 1113.02 Q167.036 1121.75 163.958 1126.36 Q160.902 1130.94 155.092 1130.94 Q149.282 1130.94 146.203 1126.36 Q143.147 1121.75 143.147 1113.02 Q143.147 1104.27 146.203 1099.69 Q149.282 1095.08 155.092 1095.08 Z" fill="#000000" fill-rule="nonzero" fill-opacity="1" /><path clip-path="url(#clip620)" d="M167.036 1089.19 L191.148 1089.19 L191.148 1092.38 L167.036 1092.38 L167.036 1089.19 Z" fill="#000000" fill-rule="nonzero" fill-opacity="1" /><path clip-path="url(#clip620)" d="M210.858 1087.72 Q213.585 1088.3 215.109 1090.15 Q216.651 1091.99 216.651 1094.7 Q216.651 1098.85 213.792 1101.13 Q210.934 1103.4 205.667 1103.4 Q203.899 1103.4 202.019 1103.05 Q200.157 1102.71 198.163 1102.01 L198.163 1098.35 Q199.743 1099.27 201.624 1099.74 Q203.504 1100.21 205.555 1100.21 Q209.128 1100.21 210.99 1098.8 Q212.871 1097.39 212.871 1094.7 Q212.871 1092.21 211.122 1090.82 Q209.391 1089.41 206.288 1089.41 L203.015 1089.41 L203.015 1086.29 L206.438 1086.29 Q209.241 1086.29 210.727 1085.18 Q212.212 1084.05 212.212 1081.95 Q212.212 1079.78 210.67 1078.64 Q209.147 1077.47 206.288 1077.47 Q204.727 1077.47 202.94 1077.81 Q201.153 1078.15 199.009 1078.86 L199.009 1075.48 Q201.172 1074.87 203.053 1074.57 Q204.953 1074.27 206.627 1074.27 Q210.952 1074.27 213.473 1076.25 Q215.993 1078.2 215.993 1081.55 Q215.993 1083.88 214.657 1085.5 Q213.322 1087.1 210.858 1087.72 Z" fill="#000000" fill-rule="nonzero" fill-opacity="1" /><path clip-path="url(#clip620)" d="M223.854 1098.08 L227.823 1098.08 L227.823 1102.86 L223.854 1102.86 L223.854 1098.08 Z" fill="#000000" fill-rule="nonzero" fill-opacity="1" /><path clip-path="url(#clip620)" d="M236.136 1074.78 L251.051 1074.78 L251.051 1077.98 L239.615 1077.98 L239.615 1084.86 Q240.443 1084.58 241.27 1084.45 Q242.098 1084.3 242.926 1084.3 Q247.627 1084.3 250.373 1086.87 Q253.119 1089.45 253.119 1093.85 Q253.119 1098.38 250.298 1100.9 Q247.477 1103.4 242.343 1103.4 Q240.575 1103.4 238.731 1103.1 Q236.907 1102.8 234.951 1102.2 L234.951 1098.38 Q236.644 1099.3 238.449 1099.76 Q240.255 1100.21 242.267 1100.21 Q245.521 1100.21 247.421 1098.5 Q249.32 1096.78 249.32 1093.85 Q249.32 1090.92 247.421 1089.21 Q245.521 1087.49 242.267 1087.49 Q240.744 1087.49 239.22 1087.83 Q237.716 1088.17 236.136 1088.89 L236.136 1074.78 Z" fill="#000000" fill-rule="nonzero" fill-opacity="1" /><path clip-path="url(#clip620)" d="M114.931 727.6 L122.57 727.6 L122.57 701.235 L114.26 702.901 L114.26 698.642 L122.524 696.975 L127.2 696.975 L127.2 727.6 L134.839 727.6 L134.839 731.535 L114.931 731.535 L114.931 727.6 Z" fill="#000000" fill-rule="nonzero" fill-opacity="1" /><path clip-path="url(#clip620)" d="M154.283 700.054 Q150.672 700.054 148.843 703.619 Q147.038 707.16 147.038 714.29 Q147.038 721.396 148.843 724.961 Q150.672 728.503 154.283 728.503 Q157.917 728.503 159.723 724.961 Q161.552 721.396 161.552 714.29 Q161.552 707.16 159.723 703.619 Q157.917 700.054 154.283 700.054 M154.283 696.35 Q160.093 696.35 163.149 700.957 Q166.227 705.54 166.227 714.29 Q166.227 723.017 163.149 727.623 Q160.093 732.207 154.283 732.207 Q148.473 732.207 145.394 727.623 Q142.339 723.017 142.339 714.29 Q142.339 705.54 145.394 700.957 Q148.473 696.35 154.283 696.35 Z" fill="#000000" fill-rule="nonzero" fill-opacity="1" /><path clip-path="url(#clip620)" d="M166.227 690.452 L190.339 690.452 L190.339 693.649 L166.227 693.649 L166.227 690.452 Z" fill="#000000" fill-rule="nonzero" fill-opacity="1" /><path clip-path="url(#clip620)" d="M210.05 688.985 Q212.777 689.568 214.3 691.411 Q215.842 693.254 215.842 695.962 Q215.842 700.119 212.984 702.395 Q210.125 704.67 204.859 704.67 Q203.091 704.67 201.21 704.313 Q199.348 703.974 197.354 703.279 L197.354 699.611 Q198.934 700.533 200.815 701.003 Q202.696 701.473 204.746 701.473 Q208.319 701.473 210.181 700.062 Q212.062 698.652 212.062 695.962 Q212.062 693.48 210.313 692.088 Q208.583 690.677 205.479 690.677 L202.207 690.677 L202.207 687.555 L205.63 687.555 Q208.432 687.555 209.918 686.446 Q211.404 685.317 211.404 683.211 Q211.404 681.048 209.861 679.9 Q208.338 678.734 205.479 678.734 Q203.918 678.734 202.132 679.073 Q200.345 679.411 198.201 680.126 L198.201 676.741 Q200.364 676.139 202.244 675.838 Q204.144 675.537 205.818 675.537 Q210.144 675.537 212.664 677.512 Q215.184 679.468 215.184 682.816 Q215.184 685.148 213.849 686.765 Q212.513 688.364 210.05 688.985 Z" fill="#000000" fill-rule="nonzero" fill-opacity="1" /><path clip-path="url(#clip620)" d="M223.046 699.348 L227.014 699.348 L227.014 704.125 L223.046 704.125 L223.046 699.348 Z" fill="#000000" fill-rule="nonzero" fill-opacity="1" /><path clip-path="url(#clip620)" d="M243.415 678.546 Q240.481 678.546 238.995 681.443 Q237.528 684.32 237.528 690.113 Q237.528 695.887 238.995 698.783 Q240.481 701.661 243.415 701.661 Q246.367 701.661 247.834 698.783 Q249.32 695.887 249.32 690.113 Q249.32 684.32 247.834 681.443 Q246.367 678.546 243.415 678.546 M243.415 675.537 Q248.135 675.537 250.618 679.28 Q253.119 683.004 253.119 690.113 Q253.119 697.204 250.618 700.946 Q248.135 704.67 243.415 704.67 Q238.694 704.67 236.192 700.946 Q233.71 697.204 233.71 690.113 Q233.71 683.004 236.192 679.28 Q238.694 675.537 243.415 675.537 Z" fill="#000000" fill-rule="nonzero" fill-opacity="1" /><path clip-path="url(#clip620)" d="M115.74 328.866 L123.379 328.866 L123.379 302.5 L115.069 304.167 L115.069 299.907 L123.333 298.241 L128.009 298.241 L128.009 328.866 L135.647 328.866 L135.647 332.801 L115.74 332.801 L115.74 328.866 Z" fill="#000000" fill-rule="nonzero" fill-opacity="1" /><path clip-path="url(#clip620)" d="M155.092 301.319 Q151.481 301.319 149.652 304.884 Q147.846 308.426 147.846 315.555 Q147.846 322.662 149.652 326.227 Q151.481 329.768 155.092 329.768 Q158.726 329.768 160.532 326.227 Q162.36 322.662 162.36 315.555 Q162.36 308.426 160.532 304.884 Q158.726 301.319 155.092 301.319 M155.092 297.616 Q160.902 297.616 163.958 302.222 Q167.036 306.805 167.036 315.555 Q167.036 324.282 163.958 328.889 Q160.902 333.472 155.092 333.472 Q149.282 333.472 146.203 328.889 Q143.147 324.282 143.147 315.555 Q143.147 306.805 146.203 302.222 Q149.282 297.616 155.092 297.616 Z" fill="#000000" fill-rule="nonzero" fill-opacity="1" /><path clip-path="url(#clip620)" d="M167.036 291.717 L191.148 291.717 L191.148 294.914 L167.036 294.914 L167.036 291.717 Z" fill="#000000" fill-rule="nonzero" fill-opacity="1" /><path clip-path="url(#clip620)" d="M202.621 302.193 L215.88 302.193 L215.88 305.39 L198.05 305.39 L198.05 302.193 Q200.213 299.955 203.937 296.193 Q207.68 292.413 208.639 291.322 Q210.463 289.272 211.178 287.861 Q211.912 286.432 211.912 285.059 Q211.912 282.821 210.332 281.41 Q208.771 280 206.25 280 Q204.464 280 202.47 280.62 Q200.495 281.241 198.238 282.501 L198.238 278.664 Q200.533 277.743 202.526 277.273 Q204.52 276.802 206.175 276.802 Q210.539 276.802 213.134 278.984 Q215.73 281.166 215.73 284.815 Q215.73 286.545 215.071 288.106 Q214.432 289.648 212.72 291.755 Q212.25 292.3 209.73 294.914 Q207.21 297.51 202.621 302.193 Z" fill="#000000" fill-rule="nonzero" fill-opacity="1" /><path clip-path="url(#clip620)" d="M223.854 300.613 L227.823 300.613 L227.823 305.39 L223.854 305.39 L223.854 300.613 Z" fill="#000000" fill-rule="nonzero" fill-opacity="1" /><path clip-path="url(#clip620)" d="M236.136 277.31 L251.051 277.31 L251.051 280.508 L239.615 280.508 L239.615 287.391 Q240.443 287.109 241.27 286.977 Q242.098 286.827 242.926 286.827 Q247.627 286.827 250.373 289.404 Q253.119 291.98 253.119 296.381 Q253.119 300.914 250.298 303.434 Q247.477 305.936 242.343 305.936 Q240.575 305.936 238.731 305.635 Q236.907 305.334 234.951 304.732 L234.951 300.914 Q236.644 301.836 238.449 302.287 Q240.255 302.738 242.267 302.738 Q245.521 302.738 247.421 301.027 Q249.32 299.315 249.32 296.381 Q249.32 293.447 247.421 291.736 Q245.521 290.024 242.267 290.024 Q240.744 290.024 239.22 290.363 Q237.716 290.701 236.136 291.416 L236.136 277.31 Z" fill="#000000" fill-rule="nonzero" fill-opacity="1" /><path clip-path="url(#clip620)" d="M49.4968 798.693 Q43.281 798.693 38.8688 794.699 Q34.4566 790.706 34.4566 784.973 Q34.4566 779.176 38.2247 776.181 Q41.9928 773.154 47.4034 773.154 Q48.4018 773.154 48.595 773.411 Q48.7882 773.669 48.7882 774.796 L48.7882 793.218 Q55.5192 793.218 58.6754 791.221 Q63.0876 788.451 63.0876 783.782 Q63.0876 783.138 62.9588 782.365 Q62.83 781.592 62.2825 780.014 Q61.7028 778.435 60.1891 777.051 Q58.6754 775.666 56.2922 774.861 Q55.3582 774.667 55.3904 774.023 Q55.3904 773.154 56.1634 773.154 Q56.7431 773.154 58.0635 773.798 Q59.3517 774.41 60.8976 775.601 Q62.4435 776.793 63.6029 779.112 Q64.7623 781.398 64.7623 784.168 Q64.7623 789.965 60.3823 794.345 Q55.9701 798.693 49.4968 798.693 M47.4034 793.154 L47.4034 777.502 Q46.0185 777.502 44.4726 777.759 Q42.9268 777.985 40.8012 778.693 Q38.6434 779.369 37.2907 780.98 Q35.9381 782.59 35.9381 784.973 Q35.9381 786.036 36.389 787.195 Q36.8398 788.323 37.9348 789.708 Q39.0298 791.092 41.5097 792.059 Q43.9895 793.025 47.4034 793.154 Z" fill="#000000" fill-rule="nonzero" fill-opacity="1" /><path clip-path="url(#clip620)" d="M64.0216 771.017 L61.9926 771.017 Q61.9926 767.507 61.5739 766.702 Q61.1231 765.864 58.9975 765.864 L41.3165 765.864 Q38.8688 765.864 38.2569 766.734 Q37.645 767.571 37.645 771.017 L35.5838 771.017 L34.8753 761.839 L42.1216 761.839 Q39.2875 760.905 37.0975 758.94 Q34.8753 756.943 34.8753 753.723 Q34.8753 751.597 36.0669 750.244 Q37.2585 748.86 38.901 748.86 Q40.3503 748.86 41.091 749.761 Q41.7996 750.631 41.7996 751.694 Q41.7996 752.885 41.0588 753.723 Q40.2859 754.528 38.9654 754.528 Q38.1603 754.528 37.5484 754.174 Q36.9043 753.787 36.6788 753.497 Q36.4534 753.207 36.389 753.014 Q36.3246 753.143 36.3246 753.723 Q36.3246 757.362 39.9638 759.455 Q43.5709 761.517 48.7238 761.517 L58.8687 761.517 Q60.7688 761.517 61.3807 760.744 Q61.9926 759.938 61.9926 756.492 L61.9926 755.108 L64.0216 755.108 Q63.8284 757.748 63.8284 763.481 Q63.8284 764.286 63.8606 765.542 Q63.8928 766.798 63.9572 768.441 Q64.0216 770.083 64.0216 771.017 Z" fill="#000000" fill-rule="nonzero" fill-opacity="1" /><path clip-path="url(#clip620)" d="M64.0216 744.136 L61.9926 744.136 Q61.9926 740.626 61.5739 739.821 Q61.1231 738.983 58.9975 738.983 L41.3165 738.983 Q38.8688 738.983 38.2569 739.853 Q37.645 740.69 37.645 744.136 L35.5838 744.136 L34.8753 734.958 L42.1216 734.958 Q39.2875 734.024 37.0975 732.059 Q34.8753 730.062 34.8753 726.842 Q34.8753 724.716 36.0669 723.364 Q37.2585 721.979 38.901 721.979 Q40.3503 721.979 41.091 722.881 Q41.7996 723.75 41.7996 724.813 Q41.7996 726.005 41.0588 726.842 Q40.2859 727.647 38.9654 727.647 Q38.1603 727.647 37.5484 727.293 Q36.9043 726.906 36.6788 726.616 Q36.4534 726.327 36.389 726.133 Q36.3246 726.262 36.3246 726.842 Q36.3246 730.481 39.9638 732.575 Q43.5709 734.636 48.7238 734.636 L58.8687 734.636 Q60.7688 734.636 61.3807 733.863 Q61.9926 733.058 61.9926 729.612 L61.9926 728.227 L64.0216 728.227 Q63.8284 730.868 63.8284 736.6 Q63.8284 737.405 63.8606 738.661 Q63.8928 739.917 63.9572 741.56 Q64.0216 743.202 64.0216 744.136 Z" fill="#000000" fill-rule="nonzero" fill-opacity="1" /><path clip-path="url(#clip620)" d="M60.479 711.963 Q56.1634 716.311 49.9154 716.311 Q43.6353 716.311 39.0621 712.059 Q34.4566 707.776 34.4566 701.657 Q34.4566 695.667 39.0298 691.383 Q43.5709 687.068 49.9154 687.068 Q56.1312 687.068 60.4467 691.416 Q64.7623 695.731 64.7623 701.721 Q64.7623 707.583 60.479 711.963 M49.3679 710.836 Q55.7769 710.836 58.6754 709.161 Q63.0876 706.584 63.0876 701.657 Q63.0876 699.209 61.7672 697.18 Q60.4467 695.119 58.2245 693.992 Q55.326 692.543 49.3679 692.543 Q43.0234 692.543 40.2215 694.282 Q35.9381 696.858 35.9381 701.721 Q35.9381 703.847 37.0653 705.94 Q38.1603 708.002 40.3503 709.258 Q43.2488 710.836 49.3679 710.836 Z" fill="#000000" fill-rule="nonzero" fill-opacity="1" /><path clip-path="url(#clip620)" d="M64.0216 684.967 L61.9926 684.967 Q61.9926 681.456 61.5739 680.651 Q61.1231 679.814 58.9975 679.814 L41.3165 679.814 Q38.8688 679.814 38.2569 680.683 Q37.645 681.521 37.645 684.967 L35.5838 684.967 L34.8753 675.788 L42.1216 675.788 Q39.2875 674.854 37.0975 672.889 Q34.8753 670.893 34.8753 667.672 Q34.8753 665.546 36.0669 664.194 Q37.2585 662.809 38.901 662.809 Q40.3503 662.809 41.091 663.711 Q41.7996 664.58 41.7996 665.643 Q41.7996 666.835 41.0588 667.672 Q40.2859 668.477 38.9654 668.477 Q38.1603 668.477 37.5484 668.123 Q36.9043 667.736 36.6788 667.447 Q36.4534 667.157 36.389 666.963 Q36.3246 667.092 36.3246 667.672 Q36.3246 671.311 39.9638 673.405 Q43.5709 675.466 48.7238 675.466 L58.8687 675.466 Q60.7688 675.466 61.3807 674.693 Q61.9926 673.888 61.9926 670.442 L61.9926 669.057 L64.0216 669.057 Q63.8284 671.698 63.8284 677.43 Q63.8284 678.236 63.8606 679.492 Q63.8928 680.748 63.9572 682.39 Q64.0216 684.033 64.0216 684.967 Z" fill="#000000" fill-rule="nonzero" fill-opacity="1" /><polyline clip-path="url(#clip622)" style="stroke:#1f77b4; stroke-linecap:round; stroke-linejoin:round; stroke-width:4; stroke-opacity:1; fill:none" points="2294.35,138.058 1904.99,380.205 1515.62,622.352 1126.25,864.499 736.89,1106.65 347.524,1348.79 "/>
<polyline clip-path="url(#clip622)" style="stroke:#000000; stroke-linecap:round; stroke-linejoin:round; stroke-width:4; stroke-opacity:1; fill:none" points="2294.35,182.591 2294.35,85.838 "/>
<polyline clip-path="url(#clip622)" style="stroke:#000000; stroke-linecap:round; stroke-linejoin:round; stroke-width:4; stroke-opacity:1; fill:none" points="1904.99,423.4 1904.99,332.057 "/>
<polyline clip-path="url(#clip622)" style="stroke:#000000; stroke-linecap:round; stroke-linejoin:round; stroke-width:4; stroke-opacity:1; fill:none" points="1515.62,674.368 1515.62,587.425 "/>
<polyline clip-path="url(#clip622)" style="stroke:#000000; stroke-linecap:round; stroke-linejoin:round; stroke-width:4; stroke-opacity:1; fill:none" points="1126.25,921.929 1126.25,824.961 "/>
<polyline clip-path="url(#clip622)" style="stroke:#000000; stroke-linecap:round; stroke-linejoin:round; stroke-width:4; stroke-opacity:1; fill:none" points="736.89,1192.93 736.89,1087.15 "/>
<polyline clip-path="url(#clip622)" style="stroke:#000000; stroke-linecap:round; stroke-linejoin:round; stroke-width:4; stroke-opacity:1; fill:none" points="347.524,1372.3 347.524,1275.84 "/>
<line clip-path="url(#clip622)" x1="2310.35" y1="182.591" x2="2278.35" y2="182.591" style="stroke:#000000; stroke-width:4; stroke-opacity:1"/>
<line clip-path="url(#clip622)" x1="2310.35" y1="85.838" x2="2278.35" y2="85.838" style="stroke:#000000; stroke-width:4; stroke-opacity:1"/>
<line clip-path="url(#clip622)" x1="1920.99" y1="423.4" x2="1888.99" y2="423.4" style="stroke:#000000; stroke-width:4; stroke-opacity:1"/>
<line clip-path="url(#clip622)" x1="1920.99" y1="332.057" x2="1888.99" y2="332.057" style="stroke:#000000; stroke-width:4; stroke-opacity:1"/>
<line clip-path="url(#clip622)" x1="1531.62" y1="674.368" x2="1499.62" y2="674.368" style="stroke:#000000; stroke-width:4; stroke-opacity:1"/>
<line clip-path="url(#clip622)" x1="1531.62" y1="587.425" x2="1499.62" y2="587.425" style="stroke:#000000; stroke-width:4; stroke-opacity:1"/>
<line clip-path="url(#clip622)" x1="1142.25" y1="921.929" x2="1110.25" y2="921.929" style="stroke:#000000; stroke-width:4; stroke-opacity:1"/>
<line clip-path="url(#clip622)" x1="1142.25" y1="824.961" x2="1110.25" y2="824.961" style="stroke:#000000; stroke-width:4; stroke-opacity:1"/>
<line clip-path="url(#clip622)" x1="752.89" y1="1192.93" x2="720.89" y2="1192.93" style="stroke:#000000; stroke-width:4; stroke-opacity:1"/>
<line clip-path="url(#clip622)" x1="752.89" y1="1087.15" x2="720.89" y2="1087.15" style="stroke:#000000; stroke-width:4; stroke-opacity:1"/>
<line clip-path="url(#clip622)" x1="363.524" y1="1372.3" x2="331.524" y2="1372.3" style="stroke:#000000; stroke-width:4; stroke-opacity:1"/>
<line clip-path="url(#clip622)" x1="363.524" y1="1275.84" x2="331.524" y2="1275.84" style="stroke:#000000; stroke-width:4; stroke-opacity:1"/>
<circle clip-path="url(#clip622)" cx="2294.35" cy="130.847" r="14.4" fill="#ff7e0d" fill-rule="evenodd" fill-opacity="1" stroke="#000000" stroke-opacity="1" stroke-width="3.2"/>
<circle clip-path="url(#clip622)" cx="1904.99" cy="374.726" r="14.4" fill="#ff7e0d" fill-rule="evenodd" fill-opacity="1" stroke="#000000" stroke-opacity="1" stroke-width="3.2"/>
<circle clip-path="url(#clip622)" cx="1515.62" cy="628.175" r="14.4" fill="#ff7e0d" fill-rule="evenodd" fill-opacity="1" stroke="#000000" stroke-opacity="1" stroke-width="3.2"/>
<circle clip-path="url(#clip622)" cx="1126.25" cy="870.062" r="14.4" fill="#ff7e0d" fill-rule="evenodd" fill-opacity="1" stroke="#000000" stroke-opacity="1" stroke-width="3.2"/>
<circle clip-path="url(#clip622)" cx="736.89" cy="1136.02" r="14.4" fill="#ff7e0d" fill-rule="evenodd" fill-opacity="1" stroke="#000000" stroke-opacity="1" stroke-width="3.2"/>
<circle clip-path="url(#clip622)" cx="347.524" cy="1320.72" r="14.4" fill="#ff7e0d" fill-rule="evenodd" fill-opacity="1" stroke="#000000" stroke-opacity="1" stroke-width="3.2"/>
<path clip-path="url(#clip620)" d="M357.907 248.219 L1571.34 248.219 L1571.34 92.6992 L357.907 92.6992  Z" fill="#ffffff" fill-rule="evenodd" fill-opacity="1"/>
<polyline clip-path="url(#clip620)" style="stroke:#000000; stroke-linecap:round; stroke-linejoin:round; stroke-width:4; stroke-opacity:1; fill:none" points="357.907,248.219 1571.34,248.219 1571.34,92.6992 357.907,92.6992 357.907,248.219 "/>
<polyline clip-path="url(#clip620)" style="stroke:#1f77b4; stroke-linecap:round; stroke-linejoin:round; stroke-width:4; stroke-opacity:1; fill:none" points="380.837,144.539 518.412,144.539 "/>
<path clip-path="url(#clip620)" d="M575.398 133.915 L572.376 146.142 Q572.166 146.915 572.025 147.008 Q571.908 147.102 571.533 147.102 Q570.807 147.102 570.807 146.61 Q570.807 146.563 570.877 145.954 Q570.948 145.322 570.948 144.174 Q570.948 139.935 568.886 137.428 Q566.849 134.922 563.218 134.922 Q560.08 134.922 556.918 136.515 Q553.779 138.108 551.53 140.708 Q549.844 142.675 548.603 145.158 Q547.385 147.641 546.799 149.913 Q546.237 152.185 545.979 153.894 Q545.722 155.604 545.722 156.846 Q545.722 158.649 546.096 160.172 Q546.495 161.694 547.197 162.772 Q547.9 163.826 548.79 164.645 Q549.703 165.442 550.757 165.91 Q551.835 166.379 552.912 166.613 Q553.99 166.824 555.114 166.824 Q559.635 166.824 563.944 163.31 Q567.364 160.429 568.793 155.721 Q568.91 155.253 569.402 155.253 Q569.987 155.253 569.987 155.721 Q569.987 155.815 569.87 156.283 Q569.753 156.729 569.402 157.642 Q569.05 158.532 568.512 159.539 Q567.973 160.546 566.966 161.811 Q565.959 163.076 564.717 164.177 Q562.609 166.004 559.939 167.152 Q557.269 168.299 554.341 168.299 Q550.687 168.299 547.736 166.683 Q544.785 165.067 543.051 162.045 Q541.342 159.024 541.342 155.159 Q541.342 151.084 543.215 147.078 Q545.089 143.073 548.064 140.099 Q551.039 137.124 554.973 135.274 Q558.908 133.423 562.843 133.423 Q564.342 133.423 565.678 133.821 Q567.013 134.22 567.809 134.711 Q568.629 135.203 569.355 135.929 Q570.081 136.632 570.315 136.96 Q570.573 137.288 570.807 137.686 L574.156 134.009 Q574.742 133.423 574.883 133.423 Q575.164 133.423 575.281 133.587 Q575.398 133.751 575.398 133.915 Z" fill="#000000" fill-rule="nonzero" fill-opacity="1" /><path clip-path="url(#clip620)" d="M579.137 166.777 Q579.137 166.589 579.769 165.371 Q580.402 164.13 582.627 159.703 Q584.852 155.253 587.147 150.592 L595.415 133.962 Q596.001 132.908 596.75 132.908 Q597.43 132.908 597.734 133.329 Q598.039 133.751 599.444 136.585 Q600.17 137.967 600.592 138.857 L614.153 166.004 Q614.387 166.589 614.411 166.777 Q614.411 167.245 613.591 167.245 L580.402 167.245 Q579.137 167.245 579.137 166.777 M582.299 163.591 L608.11 163.591 L595.204 137.686 L582.299 163.591 Z" fill="#000000" fill-rule="nonzero" fill-opacity="1" /><path clip-path="url(#clip620)" d="M633.414 147.102 Q633.414 147.758 633.11 147.922 Q632.805 148.062 631.962 148.062 L627.465 148.062 L623.905 162.209 Q623.624 163.451 623.624 164.505 Q623.624 165.676 623.975 166.191 Q624.35 166.706 625.123 166.706 Q626.645 166.706 628.285 165.325 Q629.948 163.943 631.353 160.57 Q631.54 160.125 631.634 160.031 Q631.751 159.914 632.056 159.914 Q632.641 159.914 632.641 160.382 Q632.641 160.546 632.313 161.296 Q632.009 162.045 631.329 163.146 Q630.674 164.247 629.807 165.278 Q628.964 166.308 627.676 167.058 Q626.387 167.784 625.005 167.784 Q623.061 167.784 621.82 166.543 Q620.602 165.301 620.602 163.357 Q620.602 162.725 621.094 160.71 Q621.586 158.673 624.256 148.062 L620.016 148.062 Q619.431 148.062 619.197 148.039 Q618.986 148.015 618.822 147.898 Q618.681 147.758 618.681 147.477 Q618.681 147.032 618.869 146.844 Q619.056 146.633 619.29 146.61 Q619.548 146.563 620.134 146.563 L624.631 146.563 L626.504 138.951 Q626.692 138.201 627.16 137.78 Q627.652 137.335 627.933 137.288 Q628.214 137.218 628.425 137.218 Q629.058 137.218 629.432 137.569 Q629.807 137.897 629.807 138.506 Q629.807 138.834 627.84 146.563 L632.056 146.563 Q632.594 146.563 632.805 146.587 Q633.039 146.61 633.227 146.727 Q633.414 146.844 633.414 147.102 Z" fill="#000000" fill-rule="nonzero" fill-opacity="1" /><path clip-path="url(#clip620)" d="M655.923 125.999 Q655.923 128.392 654.71 130.704 Q653.513 133.016 651.627 134.442 Q649.742 135.852 647.823 135.852 Q646.676 135.852 645.905 135.229 Q645.151 134.59 644.741 133.688 Q644.43 134.803 643.757 137.476 Q643.085 140.148 643.085 140.41 Q643.085 140.558 643.118 140.624 Q643.151 140.689 643.298 140.771 Q643.446 140.87 643.806 140.902 Q644.167 140.952 644.774 140.952 Q645.085 140.952 645.2 140.952 Q645.331 140.968 645.446 141.05 Q645.577 141.132 645.577 141.312 Q645.577 141.984 644.971 141.984 Q644.43 141.984 643.315 141.935 Q642.2 141.886 641.642 141.886 Q641.167 141.886 640.216 141.935 Q639.265 141.984 638.822 141.984 Q638.379 141.984 638.379 141.591 Q638.379 141.361 638.445 141.214 Q638.494 141.083 638.625 141.017 Q638.757 140.968 638.871 140.952 Q638.97 140.952 639.166 140.952 Q639.921 140.952 640.249 140.82 Q640.577 140.706 640.691 140.46 Q640.822 140.23 640.97 139.574 L644.741 124.621 Q644.971 123.621 644.971 122.916 Q644.971 122.031 644.692 121.703 Q644.413 121.375 643.921 121.375 Q643.069 121.375 642.511 122.392 Q641.954 123.408 641.478 125.376 Q641.331 125.917 641.232 126.031 Q641.15 126.146 640.904 126.146 Q640.495 126.13 640.495 125.802 Q640.495 125.72 640.626 125.195 Q640.757 124.654 641.003 123.867 Q641.265 123.064 641.544 122.556 Q641.708 122.211 641.855 121.982 Q642.003 121.752 642.298 121.391 Q642.61 121.031 643.052 120.834 Q643.495 120.637 644.036 120.637 Q645.085 120.637 645.954 121.26 Q646.823 121.883 647.053 123.146 Q647.987 122.047 649.135 121.342 Q650.283 120.637 651.447 120.637 Q653.382 120.637 654.644 122.146 Q655.923 123.638 655.923 125.999 M653.496 124.523 Q653.496 123.031 652.922 122.211 Q652.365 121.375 651.348 121.375 Q650.086 121.375 648.627 122.654 Q647.184 123.867 646.889 124.998 L645.233 131.573 L645.135 132.114 Q645.135 132.213 645.184 132.508 Q645.249 132.786 645.43 133.246 Q645.626 133.705 645.889 134.115 Q646.167 134.508 646.659 134.803 Q647.168 135.098 647.791 135.098 Q648.791 135.098 649.873 134.213 Q650.971 133.328 651.791 131.655 Q652.299 130.573 652.89 128.245 Q653.496 125.9 653.496 124.523 Z" fill="#000000" fill-rule="nonzero" fill-opacity="1" /><path clip-path="url(#clip620)" d="M693.53 131.227 L693.53 134.769 L689.456 134.769 Q687.164 134.769 686.262 135.694 Q685.382 136.62 685.382 139.028 L685.382 141.319 L692.396 141.319 L692.396 144.63 L685.382 144.63 L685.382 167.245 L681.1 167.245 L681.1 144.63 L677.026 144.63 L677.026 141.319 L681.1 141.319 L681.1 139.514 Q681.1 135.185 683.113 133.218 Q685.127 131.227 689.502 131.227 L693.53 131.227 Z" fill="#000000" fill-rule="nonzero" fill-opacity="1" /><path clip-path="url(#clip620)" d="M697.095 141.319 L701.354 141.319 L701.354 167.245 L697.095 167.245 L697.095 141.319 M697.095 131.227 L701.354 131.227 L701.354 136.62 L697.095 136.62 L697.095 131.227 Z" fill="#000000" fill-rule="nonzero" fill-opacity="1" /><path clip-path="url(#clip620)" d="M714.479 133.958 L714.479 141.319 L723.252 141.319 L723.252 144.63 L714.479 144.63 L714.479 158.704 Q714.479 161.875 715.336 162.778 Q716.215 163.68 718.877 163.68 L723.252 163.68 L723.252 167.245 L718.877 167.245 Q713.947 167.245 712.072 165.417 Q710.197 163.565 710.197 158.704 L710.197 144.63 L707.072 144.63 L707.072 141.319 L710.197 141.319 L710.197 133.958 L714.479 133.958 Z" fill="#000000" fill-rule="nonzero" fill-opacity="1" /><path clip-path="url(#clip620)" d="M741.447 141.319 L745.706 141.319 L751.03 161.551 L756.331 141.319 L761.354 141.319 L766.678 161.551 L771.979 141.319 L776.238 141.319 L769.456 167.245 L764.433 167.245 L758.854 145.995 L753.252 167.245 L748.229 167.245 L741.447 141.319 Z" fill="#000000" fill-rule="nonzero" fill-opacity="1" /><path clip-path="url(#clip620)" d="M782.696 141.319 L786.956 141.319 L786.956 167.245 L782.696 167.245 L782.696 141.319 M782.696 131.227 L786.956 131.227 L786.956 136.62 L782.696 136.62 L782.696 131.227 Z" fill="#000000" fill-rule="nonzero" fill-opacity="1" /><path clip-path="url(#clip620)" d="M800.08 133.958 L800.08 141.319 L808.854 141.319 L808.854 144.63 L800.08 144.63 L800.08 158.704 Q800.08 161.875 800.937 162.778 Q801.817 163.68 804.479 163.68 L808.854 163.68 L808.854 167.245 L804.479 167.245 Q799.548 167.245 797.673 165.417 Q795.798 163.565 795.798 158.704 L795.798 144.63 L792.673 144.63 L792.673 141.319 L795.798 141.319 L795.798 133.958 L800.08 133.958 Z" fill="#000000" fill-rule="nonzero" fill-opacity="1" /><path clip-path="url(#clip620)" d="M836.006 151.597 L836.006 167.245 L831.747 167.245 L831.747 151.736 Q831.747 148.055 830.312 146.227 Q828.877 144.398 826.006 144.398 Q822.557 144.398 820.566 146.597 Q818.576 148.796 818.576 152.592 L818.576 167.245 L814.293 167.245 L814.293 131.227 L818.576 131.227 L818.576 145.347 Q820.104 143.009 822.164 141.852 Q824.247 140.694 826.955 140.694 Q831.423 140.694 833.715 143.472 Q836.006 146.227 836.006 151.597 Z" fill="#000000" fill-rule="nonzero" fill-opacity="1" /><path clip-path="url(#clip620)" d="M863.691 163.356 L863.691 177.106 L859.409 177.106 L859.409 141.319 L863.691 141.319 L863.691 145.255 Q865.034 142.94 867.071 141.829 Q869.131 140.694 871.978 140.694 Q876.7 140.694 879.64 144.444 Q882.603 148.194 882.603 154.305 Q882.603 160.417 879.64 164.167 Q876.7 167.916 871.978 167.916 Q869.131 167.916 867.071 166.805 Q865.034 165.671 863.691 163.356 M878.182 154.305 Q878.182 149.606 876.237 146.944 Q874.316 144.259 870.937 144.259 Q867.557 144.259 865.613 146.944 Q863.691 149.606 863.691 154.305 Q863.691 159.004 865.613 161.69 Q867.557 164.352 870.937 164.352 Q874.316 164.352 876.237 161.69 Q878.182 159.004 878.182 154.305 Z" fill="#000000" fill-rule="nonzero" fill-opacity="1" /><path clip-path="url(#clip620)" d="M905.288 145.718 L934.964 145.718 L934.964 149.606 L905.288 149.606 L905.288 145.718 M905.288 155.162 L934.964 155.162 L934.964 159.097 L905.288 159.097 L905.288 155.162 Z" fill="#000000" fill-rule="nonzero" fill-opacity="1" /><path clip-path="url(#clip620)" d="M960.936 163.31 L968.575 163.31 L968.575 136.944 L960.265 138.611 L960.265 134.352 L968.529 132.685 L973.205 132.685 L973.205 163.31 L980.843 163.31 L980.843 167.245 L960.936 167.245 L960.936 163.31 Z" fill="#000000" fill-rule="nonzero" fill-opacity="1" /><path clip-path="url(#clip620)" d="M990.288 161.366 L995.172 161.366 L995.172 167.245 L990.288 167.245 L990.288 161.366 Z" fill="#000000" fill-rule="nonzero" fill-opacity="1" /><path clip-path="url(#clip620)" d="M1015.36 135.764 Q1011.75 135.764 1009.92 139.329 Q1008.11 142.87 1008.11 150 Q1008.11 157.106 1009.92 160.671 Q1011.75 164.213 1015.36 164.213 Q1018.99 164.213 1020.8 160.671 Q1022.63 157.106 1022.63 150 Q1022.63 142.87 1020.8 139.329 Q1018.99 135.764 1015.36 135.764 M1015.36 132.06 Q1021.17 132.06 1024.22 136.667 Q1027.3 141.25 1027.3 150 Q1027.3 158.727 1024.22 163.333 Q1021.17 167.916 1015.36 167.916 Q1009.55 167.916 1006.47 163.333 Q1003.41 158.727 1003.41 150 Q1003.41 141.25 1006.47 136.667 Q1009.55 132.06 1015.36 132.06 Z" fill="#000000" fill-rule="nonzero" fill-opacity="1" /><path clip-path="url(#clip620)" d="M1036.33 163.31 L1043.97 163.31 L1043.97 136.944 L1035.66 138.611 L1035.66 134.352 L1043.92 132.685 L1048.6 132.685 L1048.6 163.31 L1056.24 163.31 L1056.24 167.245 L1036.33 167.245 L1036.33 163.31 Z" fill="#000000" fill-rule="nonzero" fill-opacity="1" /><path clip-path="url(#clip620)" d="M1066.17 142.731 L1071.05 142.731 L1071.05 148.611 L1066.17 148.611 L1066.17 142.731 M1066.17 161.366 L1071.05 161.366 L1071.05 165.347 L1067.25 172.754 L1064.27 172.754 L1066.17 165.347 L1066.17 161.366 Z" fill="#000000" fill-rule="nonzero" fill-opacity="1" /><path clip-path="url(#clip620)" d="M1096.86 166.528 L1096.86 162.268 Q1098.62 163.102 1100.43 163.542 Q1102.23 163.981 1103.97 163.981 Q1108.6 163.981 1111.03 160.879 Q1113.48 157.755 1113.83 151.412 Q1112.49 153.403 1110.43 154.467 Q1108.37 155.532 1105.87 155.532 Q1100.68 155.532 1097.65 152.407 Q1094.64 149.259 1094.64 143.819 Q1094.64 138.495 1097.79 135.278 Q1100.94 132.06 1106.17 132.06 Q1112.16 132.06 1115.31 136.667 Q1118.48 141.25 1118.48 150 Q1118.48 158.171 1114.59 163.055 Q1110.73 167.916 1104.18 167.916 Q1102.42 167.916 1100.61 167.569 Q1098.81 167.222 1096.86 166.528 M1106.17 151.875 Q1109.31 151.875 1111.14 149.722 Q1113 147.569 1113 143.819 Q1113 140.093 1111.14 137.94 Q1109.31 135.764 1106.17 135.764 Q1103.02 135.764 1101.17 137.94 Q1099.34 140.093 1099.34 143.819 Q1099.34 147.569 1101.17 149.722 Q1103.02 151.875 1106.17 151.875 Z" fill="#000000" fill-rule="nonzero" fill-opacity="1" /><path clip-path="url(#clip620)" d="M1126.93 132.685 L1145.29 132.685 L1145.29 136.62 L1131.21 136.62 L1131.21 145.093 Q1132.23 144.745 1133.25 144.583 Q1134.27 144.398 1135.29 144.398 Q1141.07 144.398 1144.45 147.569 Q1147.83 150.741 1147.83 156.157 Q1147.83 161.736 1144.36 164.838 Q1140.89 167.916 1134.57 167.916 Q1132.39 167.916 1130.12 167.546 Q1127.88 167.176 1125.47 166.435 L1125.47 161.736 Q1127.56 162.87 1129.78 163.426 Q1132 163.981 1134.48 163.981 Q1138.48 163.981 1140.82 161.875 Q1143.16 159.768 1143.16 156.157 Q1143.16 152.546 1140.82 150.44 Q1138.48 148.333 1134.48 148.333 Q1132.6 148.333 1130.73 148.75 Q1128.87 149.167 1126.93 150.046 L1126.93 132.685 Z" fill="#000000" fill-rule="nonzero" fill-opacity="1" /><path clip-path="url(#clip620)" d="M1186.44 152.037 Q1184.43 152.037 1183.27 153.75 Q1182.14 155.463 1182.14 158.518 Q1182.14 161.528 1183.27 163.264 Q1184.43 164.977 1186.44 164.977 Q1188.41 164.977 1189.55 163.264 Q1190.7 161.528 1190.7 158.518 Q1190.7 155.486 1189.55 153.773 Q1188.41 152.037 1186.44 152.037 M1186.44 149.097 Q1190.1 149.097 1192.25 151.643 Q1194.41 154.19 1194.41 158.518 Q1194.41 162.847 1192.23 165.393 Q1190.08 167.916 1186.44 167.916 Q1182.74 167.916 1180.59 165.393 Q1178.43 162.847 1178.43 158.518 Q1178.43 154.167 1180.59 151.643 Q1182.76 149.097 1186.44 149.097 M1162.56 135 Q1160.56 135 1159.41 136.736 Q1158.27 138.449 1158.27 141.458 Q1158.27 144.514 1159.41 146.227 Q1160.54 147.94 1162.56 147.94 Q1164.57 147.94 1165.7 146.227 Q1166.86 144.514 1166.86 141.458 Q1166.86 138.472 1165.7 136.736 Q1164.55 135 1162.56 135 M1183.46 132.06 L1187.16 132.06 L1165.54 167.916 L1161.84 167.916 L1183.46 132.06 M1162.56 132.06 Q1166.21 132.06 1168.39 134.606 Q1170.56 137.13 1170.56 141.458 Q1170.56 145.833 1168.39 148.356 Q1166.24 150.88 1162.56 150.88 Q1158.87 150.88 1156.72 148.356 Q1154.59 145.81 1154.59 141.458 Q1154.59 137.153 1156.75 134.606 Q1158.9 132.06 1162.56 132.06 Z" fill="#000000" fill-rule="nonzero" fill-opacity="1" /><path clip-path="url(#clip620)" d="M1242.62 135.347 L1242.62 140.278 Q1240.26 138.079 1237.58 136.991 Q1234.92 135.903 1231.91 135.903 Q1225.98 135.903 1222.83 139.537 Q1219.68 143.148 1219.68 150 Q1219.68 156.829 1222.83 160.463 Q1225.98 164.074 1231.91 164.074 Q1234.92 164.074 1237.58 162.986 Q1240.26 161.898 1242.62 159.699 L1242.62 164.583 Q1240.17 166.25 1237.42 167.083 Q1234.68 167.916 1231.63 167.916 Q1223.78 167.916 1219.27 163.125 Q1214.75 158.31 1214.75 150 Q1214.75 141.667 1219.27 136.875 Q1223.78 132.06 1231.63 132.06 Q1234.73 132.06 1237.46 132.894 Q1240.22 133.704 1242.62 135.347 Z" fill="#000000" fill-rule="nonzero" fill-opacity="1" /><path clip-path="url(#clip620)" d="M1249.85 132.685 L1254.52 132.685 L1254.52 167.245 L1249.85 167.245 L1249.85 132.685 Z" fill="#000000" fill-rule="nonzero" fill-opacity="1" /><path clip-path="url(#clip620)" d="M1278.32 131.227 L1288.13 131.227 L1288.13 134.537 L1282.58 134.537 L1282.58 170.185 L1288.13 170.185 L1288.13 173.495 L1278.32 173.495 L1278.32 131.227 Z" fill="#000000" fill-rule="nonzero" fill-opacity="1" /><path clip-path="url(#clip620)" d="M1307.81 135.764 Q1304.2 135.764 1302.37 139.329 Q1300.56 142.87 1300.56 150 Q1300.56 157.106 1302.37 160.671 Q1304.2 164.213 1307.81 164.213 Q1311.44 164.213 1313.25 160.671 Q1315.08 157.106 1315.08 150 Q1315.08 142.87 1313.25 139.329 Q1311.44 135.764 1307.81 135.764 M1307.81 132.06 Q1313.62 132.06 1316.67 136.667 Q1319.75 141.25 1319.75 150 Q1319.75 158.727 1316.67 163.333 Q1313.62 167.916 1307.81 167.916 Q1302 167.916 1298.92 163.333 Q1295.86 158.727 1295.86 150 Q1295.86 141.25 1298.92 136.667 Q1302 132.06 1307.81 132.06 Z" fill="#000000" fill-rule="nonzero" fill-opacity="1" /><path clip-path="url(#clip620)" d="M1327.97 161.366 L1332.86 161.366 L1332.86 167.245 L1327.97 167.245 L1327.97 161.366 Z" fill="#000000" fill-rule="nonzero" fill-opacity="1" /><path clip-path="url(#clip620)" d="M1343.18 166.528 L1343.18 162.268 Q1344.94 163.102 1346.74 163.542 Q1348.55 163.981 1350.29 163.981 Q1354.92 163.981 1357.35 160.879 Q1359.8 157.755 1360.15 151.412 Q1358.8 153.403 1356.74 154.467 Q1354.68 155.532 1352.18 155.532 Q1347 155.532 1343.97 152.407 Q1340.96 149.259 1340.96 143.819 Q1340.96 138.495 1344.11 135.278 Q1347.25 132.06 1352.48 132.06 Q1358.48 132.06 1361.63 136.667 Q1364.8 141.25 1364.8 150 Q1364.8 158.171 1360.91 163.055 Q1357.05 167.916 1350.49 167.916 Q1348.73 167.916 1346.93 167.569 Q1345.12 167.222 1343.18 166.528 M1352.48 151.875 Q1355.63 151.875 1357.46 149.722 Q1359.31 147.569 1359.31 143.819 Q1359.31 140.093 1357.46 137.94 Q1355.63 135.764 1352.48 135.764 Q1349.34 135.764 1347.48 137.94 Q1345.66 140.093 1345.66 143.819 Q1345.66 147.569 1347.48 149.722 Q1349.34 151.875 1352.48 151.875 Z" fill="#000000" fill-rule="nonzero" fill-opacity="1" /><path clip-path="url(#clip620)" d="M1383.78 148.102 Q1380.63 148.102 1378.78 150.255 Q1376.95 152.407 1376.95 156.157 Q1376.95 159.884 1378.78 162.06 Q1380.63 164.213 1383.78 164.213 Q1386.93 164.213 1388.76 162.06 Q1390.61 159.884 1390.61 156.157 Q1390.61 152.407 1388.76 150.255 Q1386.93 148.102 1383.78 148.102 M1393.06 133.449 L1393.06 137.708 Q1391.3 136.875 1389.5 136.435 Q1387.72 135.995 1385.96 135.995 Q1381.33 135.995 1378.87 139.12 Q1376.44 142.245 1376.1 148.565 Q1377.46 146.551 1379.52 145.486 Q1381.58 144.398 1384.06 144.398 Q1389.27 144.398 1392.28 147.569 Q1395.31 150.718 1395.31 156.157 Q1395.31 161.481 1392.16 164.699 Q1389.01 167.916 1383.78 167.916 Q1377.79 167.916 1374.61 163.333 Q1371.44 158.727 1371.44 150 Q1371.44 141.806 1375.33 136.944 Q1379.22 132.06 1385.77 132.06 Q1387.53 132.06 1389.31 132.407 Q1391.12 132.755 1393.06 133.449 Z" fill="#000000" fill-rule="nonzero" fill-opacity="1" /><path clip-path="url(#clip620)" d="M1403.85 161.366 L1408.73 161.366 L1408.73 165.347 L1404.94 172.754 L1401.95 172.754 L1403.85 165.347 L1403.85 161.366 Z" fill="#000000" fill-rule="nonzero" fill-opacity="1" /><path clip-path="url(#clip620)" d="M1434.31 163.31 L1441.95 163.31 L1441.95 136.944 L1433.64 138.611 L1433.64 134.352 L1441.91 132.685 L1446.58 132.685 L1446.58 163.31 L1454.22 163.31 L1454.22 167.245 L1434.31 167.245 L1434.31 163.31 Z" fill="#000000" fill-rule="nonzero" fill-opacity="1" /><path clip-path="url(#clip620)" d="M1463.66 161.366 L1468.55 161.366 L1468.55 167.245 L1463.66 167.245 L1463.66 161.366 Z" fill="#000000" fill-rule="nonzero" fill-opacity="1" /><path clip-path="url(#clip620)" d="M1488.73 135.764 Q1485.12 135.764 1483.29 139.329 Q1481.49 142.87 1481.49 150 Q1481.49 157.106 1483.29 160.671 Q1485.12 164.213 1488.73 164.213 Q1492.37 164.213 1494.17 160.671 Q1496 157.106 1496 150 Q1496 142.87 1494.17 139.329 Q1492.37 135.764 1488.73 135.764 M1488.73 132.06 Q1494.54 132.06 1497.6 136.667 Q1500.68 141.25 1500.68 150 Q1500.68 158.727 1497.6 163.333 Q1494.54 167.916 1488.73 167.916 Q1482.92 167.916 1479.85 163.333 Q1476.79 158.727 1476.79 150 Q1476.79 141.25 1479.85 136.667 Q1482.92 132.06 1488.73 132.06 Z" fill="#000000" fill-rule="nonzero" fill-opacity="1" /><path clip-path="url(#clip620)" d="M1519.47 148.102 Q1516.33 148.102 1514.47 150.255 Q1512.65 152.407 1512.65 156.157 Q1512.65 159.884 1514.47 162.06 Q1516.33 164.213 1519.47 164.213 Q1522.62 164.213 1524.45 162.06 Q1526.3 159.884 1526.3 156.157 Q1526.3 152.407 1524.45 150.255 Q1522.62 148.102 1519.47 148.102 M1528.76 133.449 L1528.76 137.708 Q1527 136.875 1525.19 136.435 Q1523.41 135.995 1521.65 135.995 Q1517.02 135.995 1514.57 139.12 Q1512.14 142.245 1511.79 148.565 Q1513.16 146.551 1515.22 145.486 Q1517.28 144.398 1519.75 144.398 Q1524.96 144.398 1527.97 147.569 Q1531 150.718 1531 156.157 Q1531 161.481 1527.85 164.699 Q1524.71 167.916 1519.47 167.916 Q1513.48 167.916 1510.31 163.333 Q1507.14 158.727 1507.14 150 Q1507.14 141.806 1511.03 136.944 Q1514.91 132.06 1521.47 132.06 Q1523.22 132.06 1525.01 132.407 Q1526.81 132.755 1528.76 133.449 Z" fill="#000000" fill-rule="nonzero" fill-opacity="1" /><path clip-path="url(#clip620)" d="M1548.41 131.227 L1548.41 173.495 L1538.6 173.495 L1538.6 170.185 L1544.13 170.185 L1544.13 134.537 L1538.6 134.537 L1538.6 131.227 L1548.41 131.227 Z" fill="#000000" fill-rule="nonzero" fill-opacity="1" /><circle clip-path="url(#clip620)" cx="449.624" cy="196.379" r="20.48" fill="#ff7e0d" fill-rule="evenodd" fill-opacity="1" stroke="#000000" stroke-opacity="1" stroke-width="4.55111"/>
<path clip-path="url(#clip620)" d="M559.767 188.497 L559.767 192.525 Q557.962 191.599 556.017 191.136 Q554.073 190.673 551.99 190.673 Q548.818 190.673 547.221 191.645 Q545.647 192.618 545.647 194.562 Q545.647 196.044 546.781 196.9 Q547.916 197.733 551.342 198.497 L552.8 198.821 Q557.337 199.794 559.235 201.576 Q561.156 203.335 561.156 206.506 Q561.156 210.118 558.286 212.224 Q555.439 214.33 550.439 214.33 Q548.355 214.33 546.087 213.914 Q543.842 213.52 541.342 212.71 L541.342 208.312 Q543.703 209.539 545.994 210.164 Q548.286 210.766 550.531 210.766 Q553.541 210.766 555.161 209.747 Q556.781 208.706 556.781 206.831 Q556.781 205.094 555.601 204.168 Q554.443 203.243 550.485 202.386 L549.004 202.039 Q545.045 201.206 543.286 199.493 Q541.527 197.756 541.527 194.747 Q541.527 191.09 544.119 189.099 Q546.712 187.108 551.48 187.108 Q553.842 187.108 555.925 187.456 Q558.008 187.803 559.767 188.497 Z" fill="#000000" fill-rule="nonzero" fill-opacity="1" /><path clip-path="url(#clip620)" d="M572.152 180.372 L572.152 187.733 L580.925 187.733 L580.925 191.044 L572.152 191.044 L572.152 205.118 Q572.152 208.289 573.008 209.192 Q573.888 210.094 576.55 210.094 L580.925 210.094 L580.925 213.659 L576.55 213.659 Q571.619 213.659 569.744 211.83 Q567.869 209.979 567.869 205.118 L567.869 191.044 L564.744 191.044 L564.744 187.733 L567.869 187.733 L567.869 180.372 L572.152 180.372 Z" fill="#000000" fill-rule="nonzero" fill-opacity="1" /><path clip-path="url(#clip620)" d="M601.55 191.715 Q600.832 191.298 599.976 191.113 Q599.142 190.905 598.124 190.905 Q594.513 190.905 592.568 193.266 Q590.647 195.604 590.647 200.002 L590.647 213.659 L586.365 213.659 L586.365 187.733 L590.647 187.733 L590.647 191.761 Q591.989 189.4 594.142 188.266 Q596.295 187.108 599.374 187.108 Q599.814 187.108 600.346 187.178 Q600.878 187.224 601.526 187.34 L601.55 191.715 Z" fill="#000000" fill-rule="nonzero" fill-opacity="1" /><path clip-path="url(#clip620)" d="M615.022 190.719 Q611.596 190.719 609.605 193.405 Q607.614 196.067 607.614 200.719 Q607.614 205.372 609.582 208.057 Q611.573 210.719 615.022 210.719 Q618.425 210.719 620.415 208.034 Q622.406 205.349 622.406 200.719 Q622.406 196.113 620.415 193.428 Q618.425 190.719 615.022 190.719 M615.022 187.108 Q620.577 187.108 623.749 190.719 Q626.92 194.331 626.92 200.719 Q626.92 207.085 623.749 210.719 Q620.577 214.33 615.022 214.33 Q609.443 214.33 606.272 210.719 Q603.124 207.085 603.124 200.719 Q603.124 194.331 606.272 190.719 Q609.443 187.108 615.022 187.108 Z" fill="#000000" fill-rule="nonzero" fill-opacity="1" /><path clip-path="url(#clip620)" d="M655.531 198.011 L655.531 213.659 L651.272 213.659 L651.272 198.15 Q651.272 194.469 649.836 192.641 Q648.401 190.812 645.531 190.812 Q642.082 190.812 640.091 193.011 Q638.1 195.21 638.1 199.006 L638.1 213.659 L633.818 213.659 L633.818 187.733 L638.1 187.733 L638.1 191.761 Q639.628 189.423 641.688 188.266 Q643.772 187.108 646.48 187.108 Q650.948 187.108 653.239 189.886 Q655.531 192.641 655.531 198.011 Z" fill="#000000" fill-rule="nonzero" fill-opacity="1" /><path clip-path="url(#clip620)" d="M681.086 200.395 Q681.086 195.766 679.165 193.219 Q677.267 190.673 673.818 190.673 Q670.392 190.673 668.471 193.219 Q666.572 195.766 666.572 200.395 Q666.572 205.002 668.471 207.548 Q670.392 210.094 673.818 210.094 Q677.267 210.094 679.165 207.548 Q681.086 205.002 681.086 200.395 M685.345 210.442 Q685.345 217.062 682.406 220.28 Q679.466 223.52 673.401 223.52 Q671.156 223.52 669.165 223.173 Q667.174 222.849 665.299 222.155 L665.299 218.011 Q667.174 219.03 669.003 219.516 Q670.832 220.002 672.73 220.002 Q676.92 220.002 679.003 217.803 Q681.086 215.627 681.086 211.205 L681.086 209.099 Q679.767 211.391 677.707 212.525 Q675.646 213.659 672.776 213.659 Q668.008 213.659 665.091 210.025 Q662.174 206.391 662.174 200.395 Q662.174 194.377 665.091 190.743 Q668.008 187.108 672.776 187.108 Q675.646 187.108 677.707 188.243 Q679.767 189.377 681.086 191.669 L681.086 187.733 L685.345 187.733 L685.345 210.442 Z" fill="#000000" fill-rule="nonzero" fill-opacity="1" /><path clip-path="url(#clip620)" d="M731.364 199.631 L731.364 201.715 L711.781 201.715 Q712.058 206.113 714.419 208.428 Q716.804 210.719 721.04 210.719 Q723.493 210.719 725.785 210.118 Q728.1 209.516 730.368 208.312 L730.368 212.34 Q728.077 213.312 725.669 213.821 Q723.262 214.33 720.785 214.33 Q714.581 214.33 710.947 210.719 Q707.336 207.108 707.336 200.951 Q707.336 194.585 710.762 190.858 Q714.211 187.108 720.044 187.108 Q725.276 187.108 728.308 190.488 Q731.364 193.844 731.364 199.631 M727.105 198.381 Q727.058 194.886 725.137 192.803 Q723.239 190.719 720.091 190.719 Q716.526 190.719 714.373 192.733 Q712.243 194.747 711.919 198.405 L727.105 198.381 Z" fill="#000000" fill-rule="nonzero" fill-opacity="1" /><path clip-path="url(#clip620)" d="M753.378 191.715 Q752.66 191.298 751.803 191.113 Q750.97 190.905 749.952 190.905 Q746.341 190.905 744.396 193.266 Q742.475 195.604 742.475 200.002 L742.475 213.659 L738.192 213.659 L738.192 187.733 L742.475 187.733 L742.475 191.761 Q743.817 189.4 745.97 188.266 Q748.123 187.108 751.202 187.108 Q751.641 187.108 752.174 187.178 Q752.706 187.224 753.354 187.34 L753.378 191.715 Z" fill="#000000" fill-rule="nonzero" fill-opacity="1" /><path clip-path="url(#clip620)" d="M772.035 191.715 Q771.317 191.298 770.461 191.113 Q769.627 190.905 768.609 190.905 Q764.998 190.905 763.053 193.266 Q761.132 195.604 761.132 200.002 L761.132 213.659 L756.85 213.659 L756.85 187.733 L761.132 187.733 L761.132 191.761 Q762.475 189.4 764.627 188.266 Q766.78 187.108 769.859 187.108 Q770.299 187.108 770.831 187.178 Q771.364 187.224 772.012 187.34 L772.035 191.715 Z" fill="#000000" fill-rule="nonzero" fill-opacity="1" /><path clip-path="url(#clip620)" d="M785.507 190.719 Q782.081 190.719 780.09 193.405 Q778.1 196.067 778.1 200.719 Q778.1 205.372 780.067 208.057 Q782.058 210.719 785.507 210.719 Q788.91 210.719 790.9 208.034 Q792.891 205.349 792.891 200.719 Q792.891 196.113 790.9 193.428 Q788.91 190.719 785.507 190.719 M785.507 187.108 Q791.062 187.108 794.234 190.719 Q797.405 194.331 797.405 200.719 Q797.405 207.085 794.234 210.719 Q791.062 214.33 785.507 214.33 Q779.928 214.33 776.757 210.719 Q773.609 207.085 773.609 200.719 Q773.609 194.331 776.757 190.719 Q779.928 187.108 785.507 187.108 Z" fill="#000000" fill-rule="nonzero" fill-opacity="1" /><path clip-path="url(#clip620)" d="M819.488 191.715 Q818.771 191.298 817.914 191.113 Q817.081 190.905 816.062 190.905 Q812.451 190.905 810.507 193.266 Q808.586 195.604 808.586 200.002 L808.586 213.659 L804.303 213.659 L804.303 187.733 L808.586 187.733 L808.586 191.761 Q809.928 189.4 812.081 188.266 Q814.234 187.108 817.312 187.108 Q817.752 187.108 818.285 187.178 Q818.817 187.224 819.465 187.34 L819.488 191.715 Z" fill="#000000" fill-rule="nonzero" fill-opacity="1" /><path clip-path="url(#clip620)" d="M840.484 188.497 L840.484 192.525 Q838.678 191.599 836.734 191.136 Q834.789 190.673 832.706 190.673 Q829.535 190.673 827.937 191.645 Q826.363 192.618 826.363 194.562 Q826.363 196.044 827.497 196.9 Q828.632 197.733 832.058 198.497 L833.516 198.821 Q838.053 199.794 839.951 201.576 Q841.872 203.335 841.872 206.506 Q841.872 210.118 839.002 212.224 Q836.155 214.33 831.155 214.33 Q829.072 214.33 826.803 213.914 Q824.558 213.52 822.058 212.71 L822.058 208.312 Q824.419 209.539 826.71 210.164 Q829.002 210.766 831.247 210.766 Q834.257 210.766 835.877 209.747 Q837.497 208.706 837.497 206.831 Q837.497 205.094 836.317 204.168 Q835.159 203.243 831.201 202.386 L829.72 202.039 Q825.761 201.206 824.002 199.493 Q822.243 197.756 822.243 194.747 Q822.243 191.09 824.835 189.099 Q827.428 187.108 832.197 187.108 Q834.558 187.108 836.641 187.456 Q838.724 187.803 840.484 188.497 Z" fill="#000000" fill-rule="nonzero" fill-opacity="1" /></svg>
