<?xml version="1.0" encoding="utf-8"?>
<svg xmlns="http://www.w3.org/2000/svg" xmlns:xlink="http://www.w3.org/1999/xlink" width="600" height="400" viewBox="0 0 2400 1600">
<defs>
  <clipPath id="clip740">
    <rect x="0" y="0" width="2400" height="1600"/>
  </clipPath>
</defs>
<path clip-path="url(#clip740)" d="M0 1600 L2400 1600 L2400 0 L0 0  Z" fill="#ffffff" fill-rule="evenodd" fill-opacity="1"/>
<defs>
  <clipPath id="clip741">
    <rect x="480" y="0" width="1681" height="1600"/>
  </clipPath>
</defs>
<path clip-path="url(#clip740)" d="M175.445 1423.18 L2352.76 1423.18 L2352.76 47.2441 L175.445 47.2441  Z" fill="#ffffff" fill-rule="evenodd" fill-opacity="1"/>
<defs>
  <clipPath id="clip742">
    <rect x="175" y="47" width="2178" height="1377"/>
  </clipPath>
</defs>
<polyline clip-path="url(#clip742)" style="stroke:#000000; stroke-linecap:round; stroke-linejoin:round; stroke-width:2; stroke-opacity:0.1; fill:none" points="237.067,1423.18 237.067,47.2441 "/>
<polyline clip-path="url(#clip742)" style="stroke:#000000; stroke-linecap:round; stroke-linejoin:round; stroke-width:2; stroke-opacity:0.1; fill:none" points="750.584,1423.18 750.584,47.2441 "/>
<polyline clip-path="url(#clip742)" style="stroke:#000000; stroke-linecap:round; stroke-linejoin:round; stroke-width:2; stroke-opacity:0.1; fill:none" points="1264.1,1423.18 1264.1,47.2441 "/>
<polyline clip-path="url(#clip742)" style="stroke:#000000; stroke-linecap:round; stroke-linejoin:round; stroke-width:2; stroke-opacity:0.1; fill:none" points="1777.62,1423.18 1777.62,47.2441 "/>
<polyline clip-path="url(#clip742)" style="stroke:#000000; stroke-linecap:round; stroke-linejoin:round; stroke-width:2; stroke-opacity:0.1; fill:none" points="2291.13,1423.18 2291.13,47.2441 "/>
<polyline clip-path="url(#clip742)" style="stroke:#000000; stroke-linecap:round; stroke-linejoin:round; stroke-width:2; stroke-opacity:0.1; fill:none" points="175.445,1384.24 2352.76,1384.24 "/>
<polyline clip-path="url(#clip742)" style="stroke:#000000; stroke-linecap:round; stroke-linejoin:round; stroke-width:2; stroke-opacity:0.1; fill:none" points="175.445,1011.65 2352.76,1011.65 "/>
<polyline clip-path="url(#clip742)" style="stroke:#000000; stroke-linecap:round; stroke-linejoin:round; stroke-width:2; stroke-opacity:0.1; fill:none" points="175.445,639.071 2352.76,639.071 "/>
<polyline clip-path="url(#clip742)" style="stroke:#000000; stroke-linecap:round; stroke-linejoin:round; stroke-width:2; stroke-opacity:0.1; fill:none" points="175.445,266.488 2352.76,266.488 "/>
<polyline clip-path="url(#clip740)" style="stroke:#000000; stroke-linecap:round; stroke-linejoin:round; stroke-width:4; stroke-opacity:1; fill:none" points="175.445,1423.18 2352.76,1423.18 "/>
<polyline clip-path="url(#clip740)" style="stroke:#000000; stroke-linecap:round; stroke-linejoin:round; stroke-width:4; stroke-opacity:1; fill:none" points="237.067,1423.18 237.067,1404.28 "/>
<polyline clip-path="url(#clip740)" style="stroke:#000000; stroke-linecap:round; stroke-linejoin:round; stroke-width:4; stroke-opacity:1; fill:none" points="750.584,1423.18 750.584,1404.28 "/>
<polyline clip-path="url(#clip740)" style="stroke:#000000; stroke-linecap:round; stroke-linejoin:round; stroke-width:4; stroke-opacity:1; fill:none" points="1264.1,1423.18 1264.1,1404.28 "/>
<polyline clip-path="url(#clip740)" style="stroke:#000000; stroke-linecap:round; stroke-linejoin:round; stroke-width:4; stroke-opacity:1; fill:none" points="1777.62,1423.18 1777.62,1404.28 "/>
<polyline clip-path="url(#clip740)" style="stroke:#000000; stroke-linecap:round; stroke-linejoin:round; stroke-width:4; stroke-opacity:1; fill:none" points="2291.13,1423.18 2291.13,1404.28 "/>
<path clip-path="url(#clip740)" d="M199.371 1454.1 Q195.76 1454.1 193.931 1457.66 Q192.125 1461.2 192.125 1468.33 Q192.125 1475.44 193.931 1479.01 Q195.76 1482.55 199.371 1482.55 Q203.005 1482.55 204.81 1479.01 Q206.639 1475.44 206.639 1468.33 Q206.639 1461.2 204.81 1457.66 Q203.005 1454.1 199.371 1454.1 M199.371 1450.39 Q205.181 1450.39 208.236 1455 Q211.315 1459.58 211.315 1468.33 Q211.315 1477.06 208.236 1481.67 Q205.181 1486.25 199.371 1486.25 Q193.56 1486.25 190.482 1481.67 Q187.426 1477.06 187.426 1468.33 Q187.426 1459.58 190.482 1455 Q193.56 1450.39 199.371 1450.39 Z" fill="#000000" fill-rule="nonzero" fill-opacity="1" /><path clip-path="url(#clip740)" d="M219.533 1479.7 L224.417 1479.7 L224.417 1485.58 L219.533 1485.58 L219.533 1479.7 Z" fill="#000000" fill-rule="nonzero" fill-opacity="1" /><path clip-path="url(#clip740)" d="M244.602 1454.1 Q240.991 1454.1 239.162 1457.66 Q237.357 1461.2 237.357 1468.33 Q237.357 1475.44 239.162 1479.01 Q240.991 1482.55 244.602 1482.55 Q248.236 1482.55 250.042 1479.01 Q251.87 1475.44 251.87 1468.33 Q251.87 1461.2 250.042 1457.66 Q248.236 1454.1 244.602 1454.1 M244.602 1450.39 Q250.412 1450.39 253.468 1455 Q256.546 1459.58 256.546 1468.33 Q256.546 1477.06 253.468 1481.67 Q250.412 1486.25 244.602 1486.25 Q238.792 1486.25 235.713 1481.67 Q232.658 1477.06 232.658 1468.33 Q232.658 1459.58 235.713 1455 Q238.792 1450.39 244.602 1450.39 Z" fill="#000000" fill-rule="nonzero" fill-opacity="1" /><path clip-path="url(#clip740)" d="M274.764 1454.1 Q271.153 1454.1 269.324 1457.66 Q267.518 1461.2 267.518 1468.33 Q267.518 1475.44 269.324 1479.01 Q271.153 1482.55 274.764 1482.55 Q278.398 1482.55 280.204 1479.01 Q282.032 1475.44 282.032 1468.33 Q282.032 1461.2 280.204 1457.66 Q278.398 1454.1 274.764 1454.1 M274.764 1450.39 Q280.574 1450.39 283.629 1455 Q286.708 1459.58 286.708 1468.33 Q286.708 1477.06 283.629 1481.67 Q280.574 1486.25 274.764 1486.25 Q268.954 1486.25 265.875 1481.67 Q262.819 1477.06 262.819 1468.33 Q262.819 1459.58 265.875 1455 Q268.954 1450.39 274.764 1450.39 Z" fill="#000000" fill-rule="nonzero" fill-opacity="1" /><path clip-path="url(#clip740)" d="M713.385 1454.1 Q709.774 1454.1 707.945 1457.66 Q706.14 1461.2 706.14 1468.33 Q706.14 1475.44 707.945 1479.01 Q709.774 1482.55 713.385 1482.55 Q717.019 1482.55 718.825 1479.01 Q720.653 1475.44 720.653 1468.33 Q720.653 1461.2 718.825 1457.66 Q717.019 1454.1 713.385 1454.1 M713.385 1450.39 Q719.195 1450.39 722.251 1455 Q725.329 1459.58 725.329 1468.33 Q725.329 1477.06 722.251 1481.67 Q719.195 1486.25 713.385 1486.25 Q707.575 1486.25 704.496 1481.67 Q701.441 1477.06 701.441 1468.33 Q701.441 1459.58 704.496 1455 Q707.575 1450.39 713.385 1450.39 Z" fill="#000000" fill-rule="nonzero" fill-opacity="1" /><path clip-path="url(#clip740)" d="M733.547 1479.7 L738.431 1479.7 L738.431 1485.58 L733.547 1485.58 L733.547 1479.7 Z" fill="#000000" fill-rule="nonzero" fill-opacity="1" /><path clip-path="url(#clip740)" d="M752.644 1481.64 L768.963 1481.64 L768.963 1485.58 L747.019 1485.58 L747.019 1481.64 Q749.681 1478.89 754.264 1474.26 Q758.871 1469.61 760.051 1468.27 Q762.297 1465.74 763.176 1464.01 Q764.079 1462.25 764.079 1460.56 Q764.079 1457.8 762.135 1456.07 Q760.213 1454.33 757.112 1454.33 Q754.913 1454.33 752.459 1455.09 Q750.028 1455.86 747.251 1457.41 L747.251 1452.69 Q750.075 1451.55 752.528 1450.97 Q754.982 1450.39 757.019 1450.39 Q762.389 1450.39 765.584 1453.08 Q768.778 1455.77 768.778 1460.26 Q768.778 1462.39 767.968 1464.31 Q767.181 1466.2 765.075 1468.8 Q764.496 1469.47 761.394 1472.69 Q758.292 1475.88 752.644 1481.64 Z" fill="#000000" fill-rule="nonzero" fill-opacity="1" /><path clip-path="url(#clip740)" d="M778.824 1451.02 L797.181 1451.02 L797.181 1454.96 L783.107 1454.96 L783.107 1463.43 Q784.125 1463.08 785.144 1462.92 Q786.162 1462.73 787.181 1462.73 Q792.968 1462.73 796.348 1465.9 Q799.727 1469.08 799.727 1474.49 Q799.727 1480.07 796.255 1483.17 Q792.783 1486.25 786.463 1486.25 Q784.287 1486.25 782.019 1485.88 Q779.774 1485.51 777.366 1484.77 L777.366 1480.07 Q779.449 1481.2 781.672 1481.76 Q783.894 1482.32 786.371 1482.32 Q790.375 1482.32 792.713 1480.21 Q795.051 1478.1 795.051 1474.49 Q795.051 1470.88 792.713 1468.77 Q790.375 1466.67 786.371 1466.67 Q784.496 1466.67 782.621 1467.08 Q780.769 1467.5 778.824 1468.38 L778.824 1451.02 Z" fill="#000000" fill-rule="nonzero" fill-opacity="1" /><path clip-path="url(#clip740)" d="M1226.4 1454.1 Q1222.79 1454.1 1220.96 1457.66 Q1219.16 1461.2 1219.16 1468.33 Q1219.16 1475.44 1220.96 1479.01 Q1222.79 1482.55 1226.4 1482.55 Q1230.04 1482.55 1231.84 1479.01 Q1233.67 1475.44 1233.67 1468.33 Q1233.67 1461.2 1231.84 1457.66 Q1230.04 1454.1 1226.4 1454.1 M1226.4 1450.39 Q1232.21 1450.39 1235.27 1455 Q1238.35 1459.58 1238.35 1468.33 Q1238.35 1477.06 1235.27 1481.67 Q1232.21 1486.25 1226.4 1486.25 Q1220.59 1486.25 1217.52 1481.67 Q1214.46 1477.06 1214.46 1468.33 Q1214.46 1459.58 1217.52 1455 Q1220.59 1450.39 1226.4 1450.39 Z" fill="#000000" fill-rule="nonzero" fill-opacity="1" /><path clip-path="url(#clip740)" d="M1246.57 1479.7 L1251.45 1479.7 L1251.45 1485.58 L1246.57 1485.58 L1246.57 1479.7 Z" fill="#000000" fill-rule="nonzero" fill-opacity="1" /><path clip-path="url(#clip740)" d="M1261.68 1451.02 L1280.04 1451.02 L1280.04 1454.96 L1265.96 1454.96 L1265.96 1463.43 Q1266.98 1463.08 1268 1462.92 Q1269.02 1462.73 1270.04 1462.73 Q1275.83 1462.73 1279.2 1465.9 Q1282.58 1469.08 1282.58 1474.49 Q1282.58 1480.07 1279.11 1483.17 Q1275.64 1486.25 1269.32 1486.25 Q1267.14 1486.25 1264.88 1485.88 Q1262.63 1485.51 1260.22 1484.77 L1260.22 1480.07 Q1262.31 1481.2 1264.53 1481.76 Q1266.75 1482.32 1269.23 1482.32 Q1273.23 1482.32 1275.57 1480.21 Q1277.91 1478.1 1277.91 1474.49 Q1277.91 1470.88 1275.57 1468.77 Q1273.23 1466.67 1269.23 1466.67 Q1267.35 1466.67 1265.48 1467.08 Q1263.63 1467.5 1261.68 1468.38 L1261.68 1451.02 Z" fill="#000000" fill-rule="nonzero" fill-opacity="1" /><path clip-path="url(#clip740)" d="M1301.8 1454.1 Q1298.19 1454.1 1296.36 1457.66 Q1294.55 1461.2 1294.55 1468.33 Q1294.55 1475.44 1296.36 1479.01 Q1298.19 1482.55 1301.8 1482.55 Q1305.43 1482.55 1307.24 1479.01 Q1309.07 1475.44 1309.07 1468.33 Q1309.07 1461.2 1307.24 1457.66 Q1305.43 1454.1 1301.8 1454.1 M1301.8 1450.39 Q1307.61 1450.39 1310.66 1455 Q1313.74 1459.58 1313.74 1468.33 Q1313.74 1477.06 1310.66 1481.67 Q1307.61 1486.25 1301.8 1486.25 Q1295.99 1486.25 1292.91 1481.67 Q1289.85 1477.06 1289.85 1468.33 Q1289.85 1459.58 1292.91 1455 Q1295.99 1450.39 1301.8 1450.39 Z" fill="#000000" fill-rule="nonzero" fill-opacity="1" /><path clip-path="url(#clip740)" d="M1740.42 1454.1 Q1736.81 1454.1 1734.98 1457.66 Q1733.17 1461.2 1733.17 1468.33 Q1733.17 1475.44 1734.98 1479.01 Q1736.81 1482.55 1740.42 1482.55 Q1744.05 1482.55 1745.86 1479.01 Q1747.69 1475.44 1747.69 1468.33 Q1747.69 1461.2 1745.86 1457.66 Q1744.05 1454.1 1740.42 1454.1 M1740.42 1450.39 Q1746.23 1450.39 1749.28 1455 Q1752.36 1459.58 1752.36 1468.33 Q1752.36 1477.06 1749.28 1481.67 Q1746.23 1486.25 1740.42 1486.25 Q1734.61 1486.25 1731.53 1481.67 Q1728.47 1477.06 1728.47 1468.33 Q1728.47 1459.58 1731.53 1455 Q1734.61 1450.39 1740.42 1450.39 Z" fill="#000000" fill-rule="nonzero" fill-opacity="1" /><path clip-path="url(#clip740)" d="M1760.58 1479.7 L1765.46 1479.7 L1765.46 1485.58 L1760.58 1485.58 L1760.58 1479.7 Z" fill="#000000" fill-rule="nonzero" fill-opacity="1" /><path clip-path="url(#clip740)" d="M1774.47 1451.02 L1796.69 1451.02 L1796.69 1453.01 L1784.14 1485.58 L1779.26 1485.58 L1791.07 1454.96 L1774.47 1454.96 L1774.47 1451.02 Z" fill="#000000" fill-rule="nonzero" fill-opacity="1" /><path clip-path="url(#clip740)" d="M1805.86 1451.02 L1824.21 1451.02 L1824.21 1454.96 L1810.14 1454.96 L1810.14 1463.43 Q1811.16 1463.08 1812.18 1462.92 Q1813.2 1462.73 1814.21 1462.73 Q1820 1462.73 1823.38 1465.9 Q1826.76 1469.08 1826.76 1474.49 Q1826.76 1480.07 1823.29 1483.17 Q1819.82 1486.25 1813.5 1486.25 Q1811.32 1486.25 1809.05 1485.88 Q1806.81 1485.51 1804.4 1484.77 L1804.4 1480.07 Q1806.48 1481.2 1808.71 1481.76 Q1810.93 1482.32 1813.4 1482.32 Q1817.41 1482.32 1819.75 1480.21 Q1822.08 1478.1 1822.08 1474.49 Q1822.08 1470.88 1819.75 1468.77 Q1817.41 1466.67 1813.4 1466.67 Q1811.53 1466.67 1809.65 1467.08 Q1807.8 1467.5 1805.86 1468.38 L1805.86 1451.02 Z" fill="#000000" fill-rule="nonzero" fill-opacity="1" /><path clip-path="url(#clip740)" d="M2243.21 1481.64 L2250.84 1481.64 L2250.84 1455.28 L2242.53 1456.95 L2242.53 1452.69 L2250.8 1451.02 L2255.47 1451.02 L2255.47 1481.64 L2263.11 1481.64 L2263.11 1485.58 L2243.21 1485.58 L2243.21 1481.64 Z" fill="#000000" fill-rule="nonzero" fill-opacity="1" /><path clip-path="url(#clip740)" d="M2272.56 1479.7 L2277.44 1479.7 L2277.44 1485.58 L2272.56 1485.58 L2272.56 1479.7 Z" fill="#000000" fill-rule="nonzero" fill-opacity="1" /><path clip-path="url(#clip740)" d="M2297.63 1454.1 Q2294.02 1454.1 2292.19 1457.66 Q2290.38 1461.2 2290.38 1468.33 Q2290.38 1475.44 2292.19 1479.01 Q2294.02 1482.55 2297.63 1482.55 Q2301.26 1482.55 2303.07 1479.01 Q2304.9 1475.44 2304.9 1468.33 Q2304.9 1461.2 2303.07 1457.66 Q2301.26 1454.1 2297.63 1454.1 M2297.63 1450.39 Q2303.44 1450.39 2306.49 1455 Q2309.57 1459.58 2309.57 1468.33 Q2309.57 1477.06 2306.49 1481.67 Q2303.44 1486.25 2297.63 1486.25 Q2291.82 1486.25 2288.74 1481.67 Q2285.68 1477.06 2285.68 1468.33 Q2285.68 1459.58 2288.74 1455 Q2291.82 1450.39 2297.63 1450.39 Z" fill="#000000" fill-rule="nonzero" fill-opacity="1" /><path clip-path="url(#clip740)" d="M2327.79 1454.1 Q2324.18 1454.1 2322.35 1457.66 Q2320.54 1461.2 2320.54 1468.33 Q2320.54 1475.44 2322.35 1479.01 Q2324.18 1482.55 2327.79 1482.55 Q2331.42 1482.55 2333.23 1479.01 Q2335.06 1475.44 2335.06 1468.33 Q2335.06 1461.2 2333.23 1457.66 Q2331.42 1454.1 2327.79 1454.1 M2327.79 1450.39 Q2333.6 1450.39 2336.65 1455 Q2339.73 1459.58 2339.73 1468.33 Q2339.73 1477.06 2336.65 1481.67 Q2333.6 1486.25 2327.79 1486.25 Q2321.98 1486.25 2318.9 1481.67 Q2315.84 1477.06 2315.84 1468.33 Q2315.84 1459.58 2318.9 1455 Q2321.98 1450.39 2327.79 1450.39 Z" fill="#000000" fill-rule="nonzero" fill-opacity="1" /><path clip-path="url(#clip740)" d="M1272.57 1531.91 Q1272.57 1532.81 1272.15 1533.04 Q1271.73 1533.23 1270.57 1533.23 L1264.39 1533.23 L1259.5 1552.69 Q1259.11 1554.39 1259.11 1555.84 Q1259.11 1557.45 1259.59 1558.16 Q1260.11 1558.87 1261.17 1558.87 Q1263.26 1558.87 1265.52 1556.97 Q1267.81 1555.07 1269.74 1550.43 Q1270 1549.82 1270.12 1549.69 Q1270.28 1549.53 1270.7 1549.53 Q1271.51 1549.53 1271.51 1550.17 Q1271.51 1550.4 1271.06 1551.43 Q1270.64 1552.46 1269.71 1553.97 Q1268.8 1555.49 1267.61 1556.9 Q1266.45 1558.32 1264.68 1559.35 Q1262.91 1560.35 1261.01 1560.35 Q1258.34 1560.35 1256.63 1558.64 Q1254.95 1556.94 1254.95 1554.26 Q1254.95 1553.39 1255.63 1550.62 Q1256.31 1547.82 1259.98 1533.23 L1254.15 1533.23 Q1253.34 1533.23 1253.02 1533.2 Q1252.73 1533.17 1252.51 1533.01 Q1252.31 1532.81 1252.31 1532.43 Q1252.31 1531.82 1252.57 1531.56 Q1252.83 1531.27 1253.15 1531.24 Q1253.51 1531.17 1254.31 1531.17 L1260.49 1531.17 L1263.07 1520.71 Q1263.33 1519.67 1263.97 1519.09 Q1264.65 1518.48 1265.04 1518.42 Q1265.42 1518.32 1265.71 1518.32 Q1266.58 1518.32 1267.1 1518.81 Q1267.61 1519.26 1267.61 1520.09 Q1267.61 1520.54 1264.91 1531.17 L1270.7 1531.17 Q1271.44 1531.17 1271.73 1531.2 Q1272.06 1531.24 1272.31 1531.4 Q1272.57 1531.56 1272.57 1531.91 Z" fill="#000000" fill-rule="nonzero" fill-opacity="1" /><polyline clip-path="url(#clip740)" style="stroke:#000000; stroke-linecap:round; stroke-linejoin:round; stroke-width:4; stroke-opacity:1; fill:none" points="175.445,1423.18 175.445,47.2441 "/>
<polyline clip-path="url(#clip740)" style="stroke:#000000; stroke-linecap:round; stroke-linejoin:round; stroke-width:4; stroke-opacity:1; fill:none" points="175.445,1384.24 194.343,1384.24 "/>
<polyline clip-path="url(#clip740)" style="stroke:#000000; stroke-linecap:round; stroke-linejoin:round; stroke-width:4; stroke-opacity:1; fill:none" points="175.445,1011.65 194.343,1011.65 "/>
<polyline clip-path="url(#clip740)" style="stroke:#000000; stroke-linecap:round; stroke-linejoin:round; stroke-width:4; stroke-opacity:1; fill:none" points="175.445,639.071 194.343,639.071 "/>
<polyline clip-path="url(#clip740)" style="stroke:#000000; stroke-linecap:round; stroke-linejoin:round; stroke-width:4; stroke-opacity:1; fill:none" points="175.445,266.488 194.343,266.488 "/>
<path clip-path="url(#clip740)" d="M127.501 1370.04 Q123.89 1370.04 122.061 1373.6 Q120.255 1377.14 120.255 1384.27 Q120.255 1391.38 122.061 1394.94 Q123.89 1398.49 127.501 1398.49 Q131.135 1398.49 132.941 1394.94 Q134.769 1391.38 134.769 1384.27 Q134.769 1377.14 132.941 1373.6 Q131.135 1370.04 127.501 1370.04 M127.501 1366.33 Q133.311 1366.33 136.367 1370.94 Q139.445 1375.52 139.445 1384.27 Q139.445 1393 136.367 1397.61 Q133.311 1402.19 127.501 1402.19 Q121.691 1402.19 118.612 1397.61 Q115.556 1393 115.556 1384.27 Q115.556 1375.52 118.612 1370.94 Q121.691 1366.33 127.501 1366.33 Z" fill="#000000" fill-rule="nonzero" fill-opacity="1" /><path clip-path="url(#clip740)" d="M123.126 1025 L139.445 1025 L139.445 1028.93 L117.501 1028.93 L117.501 1025 Q120.163 1022.25 124.746 1017.62 Q129.353 1012.96 130.533 1011.62 Q132.779 1009.1 133.658 1007.36 Q134.561 1005.6 134.561 1003.91 Q134.561 1001.16 132.617 999.421 Q130.695 997.685 127.593 997.685 Q125.394 997.685 122.941 998.449 Q120.51 999.213 117.732 1000.76 L117.732 996.041 Q120.556 994.907 123.01 994.329 Q125.464 993.75 127.501 993.75 Q132.871 993.75 136.066 996.435 Q139.26 999.12 139.26 1003.61 Q139.26 1005.74 138.45 1007.66 Q137.663 1009.56 135.556 1012.15 Q134.978 1012.82 131.876 1016.04 Q128.774 1019.24 123.126 1025 Z" fill="#000000" fill-rule="nonzero" fill-opacity="1" /><path clip-path="url(#clip740)" d="M129.862 625.865 L118.056 644.314 L129.862 644.314 L129.862 625.865 M128.635 621.791 L134.515 621.791 L134.515 644.314 L139.445 644.314 L139.445 648.203 L134.515 648.203 L134.515 656.351 L129.862 656.351 L129.862 648.203 L114.26 648.203 L114.26 643.689 L128.635 621.791 Z" fill="#000000" fill-rule="nonzero" fill-opacity="1" /><path clip-path="url(#clip740)" d="M127.917 264.625 Q124.769 264.625 122.918 266.777 Q121.089 268.93 121.089 272.68 Q121.089 276.407 122.918 278.583 Q124.769 280.736 127.917 280.736 Q131.066 280.736 132.894 278.583 Q134.746 276.407 134.746 272.68 Q134.746 268.93 132.894 266.777 Q131.066 264.625 127.917 264.625 M137.2 249.972 L137.2 254.231 Q135.441 253.398 133.635 252.958 Q131.853 252.518 130.093 252.518 Q125.464 252.518 123.01 255.643 Q120.58 258.768 120.232 265.087 Q121.598 263.074 123.658 262.009 Q125.718 260.921 128.195 260.921 Q133.404 260.921 136.413 264.092 Q139.445 267.24 139.445 272.68 Q139.445 278.004 136.297 281.222 Q133.149 284.439 127.917 284.439 Q121.922 284.439 118.751 279.856 Q115.58 275.249 115.58 266.523 Q115.58 258.328 119.468 253.467 Q123.357 248.583 129.908 248.583 Q131.667 248.583 133.45 248.93 Q135.255 249.277 137.2 249.972 Z" fill="#000000" fill-rule="nonzero" fill-opacity="1" /><path clip-path="url(#clip740)" d="M30.8561 720.775 Q31.307 720.775 32.3698 721.064 L57.5548 727.377 Q63.1586 728.762 67.0877 733.27 Q71.0168 737.747 71.0168 742.836 Q71.0168 745.895 69.3743 747.86 Q67.764 749.824 65.2842 749.824 Q63.0942 749.824 62.0314 748.665 Q61.0008 747.505 61.0008 746.121 Q61.0008 745.67 61.1296 745.187 Q61.2584 744.703 61.8059 744.188 Q62.3534 743.673 63.2874 743.673 Q64.8011 743.673 65.9927 744.993 Q66.5402 745.637 66.669 746.249 Q66.7978 746.829 66.7978 747.827 Q67.6996 747.441 68.3115 746.732 Q68.9234 746.024 69.1489 745.219 Q69.4065 744.414 69.4709 743.898 Q69.5675 743.351 69.5675 742.836 Q69.5675 738.713 65.413 735.557 Q64.157 734.623 62.9009 733.947 Q61.6771 733.238 60.1634 732.723 Q58.682 732.208 57.8768 731.982 Q57.0717 731.725 55.2359 731.274 Q58.2311 734.269 58.2311 737.94 Q58.2311 739.486 57.8124 740.871 Q57.3937 742.224 56.5242 743.415 Q55.6224 744.607 54.0443 745.315 Q52.4662 745.992 50.3728 745.992 Q48.1506 745.992 45.1233 745.122 Q42.0959 744.253 36.5243 742.159 Q33.4004 741.032 31.8867 741.032 Q31.146 741.032 30.6951 741.193 Q30.212 741.354 30.051 741.676 Q29.8577 741.998 29.8255 742.191 Q29.7933 742.352 29.7933 742.675 Q29.7933 744.575 31.7257 746.346 Q33.658 748.117 37.9736 749.341 Q38.7787 749.599 38.972 749.76 Q39.1652 749.921 39.1652 750.404 Q39.133 751.209 38.4889 751.209 Q38.2312 751.209 37.2329 750.919 Q36.2023 750.629 34.6886 749.953 Q33.1427 749.245 31.7579 748.278 Q30.3408 747.312 29.3424 745.798 Q28.344 744.253 28.344 742.481 Q28.344 740.066 29.9221 738.584 Q31.468 737.071 33.7546 737.071 Q34.6886 737.071 35.5259 737.328 Q36.3311 737.554 38.4889 738.391 Q47.1845 741.773 51.4356 741.773 Q52.4662 741.773 53.3358 741.612 Q54.1731 741.418 55.0105 741 Q55.8156 740.581 56.2987 739.744 Q56.7496 738.874 56.7496 737.683 Q56.7496 736.169 56.0411 734.752 Q55.3003 733.303 54.302 732.401 Q53.3036 731.467 52.4662 730.919 Q51.5967 730.34 51.1458 730.211 L39.294 727.248 L34.0123 725.927 Q31.146 725.316 30.4374 725.026 Q29.7611 724.639 29.4068 723.963 Q29.0526 723.287 29.0526 722.707 Q29.0526 721.902 29.5357 721.354 Q30.0187 720.775 30.8561 720.775 Z" fill="#000000" fill-rule="nonzero" fill-opacity="1" /><polyline clip-path="url(#clip742)" style="stroke:#1f77b4; stroke-linecap:round; stroke-linejoin:round; stroke-width:8; stroke-opacity:1; fill:none" stroke-dasharray="32, 20" points="237.067,1197.95 241.079,1195.69 245.091,1197.55 249.103,1198.32 253.115,1199.67 257.126,1206.92 261.138,1197.7 265.15,1201.26 269.162,1193.38 273.174,1200.01 277.186,1196.66 281.198,1203.97 285.209,1207.4 289.221,1208.89 293.233,1209.62 297.245,1212.68 301.257,1213.38 305.269,1216.33 309.28,1222.15 313.292,1229.61 317.304,1233.1 321.316,1234.34 325.328,1235.49 329.34,1228.94 333.352,1224.02 337.363,1226.63 341.375,1237.32 345.387,1235.59 349.399,1238.75 353.411,1246.61 357.423,1251.29 361.435,1248.38 365.446,1251.81 369.458,1262.98 373.47,1266.81 377.482,1265.5 381.494,1261.72 385.506,1265.11 389.517,1259.71 393.529,1258.65 397.541,1255.61 401.553,1248.76 405.565,1244.06 409.577,1248.27 413.589,1248.56 417.6,1252.04 421.612,1251.82 425.624,1245.25 429.636,1247.53 433.648,1243.55 437.66,1234.58 441.672,1236.02 445.683,1231.03 449.695,1229.64 453.707,1227.48 457.719,1229.28 461.731,1233.4 465.743,1232.93 469.754,1238.19 473.766,1233.34 477.778,1230.51 481.79,1228.67 485.802,1229.56 489.814,1224.41 493.826,1224.55 497.837,1228.8 501.849,1228.12 505.861,1229.43 509.873,1228.5 513.885,1227.01 517.897,1217.59 521.908,1213.09 525.92,1199.7 529.932,1212.66 533.944,1221.55 537.956,1215.24 541.968,1208.59 545.98,1203.37 549.991,1197.41 554.003,1206.39 558.015,1210.24 562.027,1209.01 566.039,1211.2 570.051,1209.88 574.063,1203.82 578.074,1209.13 582.086,1199.21 586.098,1199.71 590.11,1201.95 594.122,1201.15 598.134,1213.23 602.145,1212.92 606.157,1214.57 610.169,1221.86 614.181,1217.32 618.193,1223.52 622.205,1228.42 626.217,1229.7 630.228,1231.48 634.24,1232 638.252,1228.15 642.264,1228.42 646.276,1223.37 650.288,1225.28 654.3,1223.07 658.311,1224.23 662.323,1225.5 666.335,1232.31 670.347,1233.46 674.359,1232.93 678.371,1229.83 682.382,1229.87 686.394,1228.58 690.406,1220.67 694.418,1222.5 698.43,1218.52 702.442,1218.94 706.454,1219.76 710.465,1213.74 714.477,1216.26 718.489,1210.77 722.501,1214.91 726.513,1216.3 730.525,1219.12 734.536,1219.84 738.548,1231.94 742.56,1239.83 746.572,1238.61 750.584,1241.62 754.596,1244.48 758.608,1243.64 762.619,1243.25 766.631,1247.1 770.643,1243.89 774.655,1236.98 778.667,1249.87 782.679,1242.33 786.691,1245.63 790.702,1245.36 794.714,1236.65 798.726,1234.37 802.738,1230.14 806.75,1222.99 810.762,1224.64 814.773,1227.96 818.785,1225.27 822.797,1224.54 826.809,1228.41 830.821,1217.63 834.833,1203.77 838.845,1206.08 842.856,1199.82 846.868,1203.16 850.88,1207.06 854.892,1200.89 858.904,1194.02 862.916,1197.49 866.928,1191.32 870.939,1186.84 874.951,1179.36 878.963,1176.69 882.975,1182.1 886.987,1189.09 890.999,1181.04 895.01,1182.88 899.022,1187.24 903.034,1180.13 907.046,1170.38 911.058,1159.29 915.07,1163.95 919.082,1155.97 923.093,1144.88 927.105,1144.82 931.117,1144.95 935.129,1150.82 939.141,1161.97 943.153,1156.49 947.164,1151.2 951.176,1154.88 955.188,1157.25 959.2,1164.09 963.212,1158.3 967.224,1158.66 971.236,1159.69 975.247,1133.16 979.259,1139.61 983.271,1127.62 987.283,1128.96 991.295,1137.86 995.307,1152.4 999.319,1146.99 1003.33,1137.66 1007.34,1118.95 1011.35,1109.33 1015.37,1103.22 1019.38,1099.99 1023.39,1090.92 1027.4,1104.41 1031.41,1106.03 1035.43,1119.56 1039.44,1129.02 1043.45,1115.63 1047.46,1114.79 1051.47,1114.29 1055.48,1116.47 1059.5,1110.65 1063.51,1111.52 1067.52,1111.86 1071.53,1094.7 1075.54,1092.78 1079.56,1089.19 1083.57,1090.67 1087.58,1089.06 1091.59,1078.28 1095.6,1080.18 1099.61,1086.52 1103.63,1081.05 1107.64,1076.61 1111.65,1076.28 1115.66,1074.08 1119.67,1062.01 1123.69,1036.16 1127.7,1042.45 1131.71,1023.5 1135.72,996.518 1139.73,999.751 1143.75,1003.04 1147.76,1005.41 1151.77,1000.91 1155.78,1005.5 1159.79,993.386 1163.8,998.096 1167.82,991.35 1171.83,991.734 1175.84,990.466 1179.85,993.006 1183.86,1012.84 1187.88,1020.08 1191.89,991.513 1195.9,1003.29 1199.91,1014.09 1203.92,1000.4 1207.93,991.612 1211.95,1003.01 1215.96,994.99 1219.97,992.201 1223.98,981.023 1227.99,965.391 1232.01,971.719 1236.02,982.189 1240.03,1000.09 1244.04,1013.28 1248.05,1009.56 1252.07,1009.58 1256.08,1020.97 1260.09,1027.67 1264.1,1013.03 1268.11,1027.92 1272.12,1007.11 1276.14,1023.41 1280.15,1030.15 1284.16,1033.87 1288.17,1024.16 1292.18,1029.27 1296.2,1043.79 1300.21,1044.74 1304.22,1030.3 1308.23,1006.75 1312.24,1007.77 1316.25,996.134 1320.27,979.457 1324.28,991.254 1328.29,1000.55 1332.3,1008.51 1336.31,1002.25 1340.33,986.457 1344.34,998.413 1348.35,1013.89 1352.36,1003.45 1356.37,1008.8 1360.38,1016.44 1364.4,1018.78 1368.41,1015.47 1372.42,1019.73 1376.43,1030.71 1380.44,1023.55 1384.46,1026.88 1388.47,1019.88 1392.48,1011.52 1396.49,997.61 1400.5,994.95 1404.52,999.764 1408.53,978.973 1412.54,980.19 1416.55,984.78 1420.56,990.125 1424.57,993.875 1428.59,989.766 1432.6,974.839 1436.61,980.703 1440.62,957.957 1444.63,934.756 1448.65,937.502 1452.66,948.797 1456.67,957.4 1460.68,934.759 1464.69,934.382 1468.7,970.26 1472.72,942.199 1476.73,933.348 1480.74,951.959 1484.75,940.464 1488.76,925.053 1492.78,924.341 1496.79,920.591 1500.8,921.266 1504.81,910.302 1508.82,908.866 1512.84,893.883 1516.85,885.65 1520.86,879.246 1524.87,851.683 1528.88,860.106 1532.89,842.445 1536.91,818.43 1540.92,829.242 1544.93,824.733 1548.94,842.066 1552.95,836.085 1556.97,835.748 1560.98,841.33 1564.99,855.406 1569,848.118 1573.01,863.206 1577.02,831.098 1581.04,826.029 1585.05,815.201 1589.06,818.47 1593.07,815.364 1597.08,759.707 1601.1,739.803 1605.11,732.594 1609.12,696.406 1613.13,670.565 1617.14,660.562 1621.16,666.504 1625.17,681.453 1629.18,692.249 1633.19,687.844 1637.2,673.941 1641.21,660.511 1645.23,638.993 1649.24,641.674 1653.25,622.506 1657.26,647.144 1661.27,631.014 1665.29,661.885 1669.3,666.776 1673.31,644.608 1677.32,680.58 1681.33,660.653 1685.34,683.791 1689.36,688.345 1693.37,725.028 1697.38,735.328 1701.39,742.077 1705.4,765.684 1709.42,765.561 1713.43,777.661 1717.44,753.12 1721.45,773.981 1725.46,752.249 1729.48,771.497 1733.49,777.819 1737.5,778.262 1741.51,794.214 1745.52,722.397 1749.53,667.456 1753.55,596.437 1757.56,570.909 1761.57,576.246 1765.58,542.666 1769.59,579.029 1773.61,625.603 1777.62,636.248 1781.63,624.668 1785.64,587.901 1789.65,585.464 1793.66,570.587 1797.68,606.44 1801.69,631.502 1805.7,582.47 1809.71,570.723 1813.72,566.455 1817.74,535.234 1821.75,573.463 1825.76,498.407 1829.77,518.36 1833.78,500.67 1837.79,513.561 1841.81,509.88 1845.82,502.806 1849.83,555.835 1853.84,558.303 1857.85,546.501 1861.87,533.034 1865.88,522.366 1869.89,504.382 1873.9,450.496 1877.91,426.767 1881.93,411.587 1885.94,375.131 1889.95,383.812 1893.96,360.907 1897.97,324.423 1901.98,295.568 1906,314.175 1910.01,229.449 1914.02,276.274 1918.03,243.419 1922.04,211.81 1926.06,148.856 1930.07,127.459 1934.08,171.069 1938.09,170.406 1942.1,208.89 1946.11,187.944 1950.13,200.952 1954.14,151.951 1958.15,94.5883 1962.16,113.789 1966.17,86.1857 1970.19,128.01 1974.2,137.423 1978.21,153.705 1982.22,111.447 1986.23,168.262 1990.25,206.109 1994.26,299.309 1998.27,294.23 2002.28,291.999 2006.29,327.059 2010.3,321.934 2014.32,253.232 2018.33,243.823 2022.34,273.829 2026.35,310.896 2030.36,323.672 2034.38,308.347 2038.39,279.819 2042.4,281.506 2046.41,354.818 2050.42,385.574 2054.43,413.751 2058.45,380.553 2062.46,363.015 2066.47,406.851 2070.48,458.117 2074.49,492.812 2078.51,490.5 2082.52,526.031 2086.53,471.54 2090.54,478.862 2094.55,479.967 2098.57,484.904 2102.58,465.104 2106.59,517.224 2110.6,510.305 2114.61,483.794 2118.62,441.172 2122.64,501.637 2126.65,534.771 2130.66,538.439 2134.67,518.493 2138.68,452.462 2142.7,453.244 2146.71,494.455 2150.72,502.941 2154.73,552.527 2158.74,548.64 2162.75,548.872 2166.77,554.277 2170.78,560.998 2174.79,569.485 2178.8,580.491 2182.81,632.014 2186.83,607.835 2190.84,566.377 2194.85,541.017 2198.86,575.534 2202.87,614.36 2206.89,658.498 2210.9,627.792 2214.91,636.399 2218.92,650.081 2222.93,638.84 2226.94,631.654 2230.96,606.91 2234.97,608.629 2238.98,590.491 2242.99,579.013 2247,597.009 2251.02,616.224 2255.03,645.874 2259.04,647.85 2263.05,699.709 2267.06,735.808 2271.07,708.521 2275.09,710.934 2279.1,710.861 2283.11,711.93 2287.12,711.951 2291.13,671.255 "/>
<polyline clip-path="url(#clip742)" style="stroke:#ff7e0d; stroke-linecap:round; stroke-linejoin:round; stroke-width:8; stroke-opacity:1; fill:none" stroke-dasharray="32, 16, 4, 16" points="237.067,1384.24 241.079,1384.24 245.091,1384.24 249.103,1384.24 253.115,1384.24 257.126,1384.24 261.138,1384.24 265.15,1384.24 269.162,1384.24 273.174,1384.24 277.186,1384.24 281.198,1384.24 285.209,1384.24 289.221,1384.24 293.233,1384.24 297.245,1384.24 301.257,1384.24 305.269,1384.24 309.28,1384.24 313.292,1384.24 317.304,1384.24 321.316,1384.24 325.328,1384.24 329.34,1384.24 333.352,1384.24 337.363,1384.24 341.375,1384.24 345.387,1384.24 349.399,1384.24 353.411,1384.24 357.423,1384.24 361.435,1384.24 365.446,1384.24 369.458,1384.24 373.47,1384.24 377.482,1384.24 381.494,1384.24 385.506,1384.24 389.517,1384.24 393.529,1384.24 397.541,1384.24 401.553,1384.24 405.565,1384.24 409.577,1384.24 413.589,1384.24 417.6,1384.24 421.612,1384.24 425.624,1384.24 429.636,1384.24 433.648,1384.24 437.66,1384.24 441.672,1384.24 445.683,1384.24 449.695,1384.24 453.707,1384.24 457.719,1384.24 461.731,1384.24 465.743,1384.24 469.754,1384.24 473.766,1384.24 477.778,1384.24 481.79,1384.24 485.802,1384.24 489.814,1384.24 493.826,1384.24 497.837,1384.24 501.849,1384.24 505.861,1384.24 509.873,1384.24 513.885,1384.24 517.897,1384.24 521.908,1384.24 525.92,1384.24 529.932,1384.24 533.944,1384.24 537.956,1384.24 541.968,1384.24 545.98,1384.24 549.991,1384.24 554.003,1384.24 558.015,1384.24 562.027,1384.24 566.039,1384.24 570.051,1384.24 574.063,1384.24 578.074,1384.24 582.086,1384.24 586.098,1384.24 590.11,1384.24 594.122,1384.24 598.134,1384.24 602.145,1384.24 606.157,1384.24 610.169,1384.24 614.181,1384.24 618.193,1384.24 622.205,1384.24 626.217,1384.24 630.228,1384.24 634.24,1384.24 638.252,1384.24 642.264,1384.24 646.276,1384.24 650.288,1384.24 654.3,1384.24 658.311,1384.24 662.323,1384.24 666.335,1384.24 670.347,1384.24 674.359,1384.24 678.371,1384.24 682.382,1384.24 686.394,1384.24 690.406,1384.24 694.418,1384.24 698.43,1384.24 702.442,1384.24 706.454,1384.24 710.465,1384.24 714.477,1384.24 718.489,1384.24 722.501,1384.24 726.513,1384.24 730.525,1384.24 734.536,1384.24 738.548,1384.24 742.56,1384.24 746.572,1384.24 750.584,1384.24 754.596,1384.24 758.608,1384.24 762.619,1384.24 766.631,1384.24 770.643,1384.24 774.655,1384.24 778.667,1384.24 782.679,1308.93 786.691,1308.93 790.702,1308.93 794.714,1308.93 798.726,1308.93 802.738,1308.93 806.75,1308.93 810.762,1308.93 814.773,1308.93 818.785,1308.93 822.797,1308.93 826.809,1308.93 830.821,1308.93 834.833,1308.93 838.845,1308.93 842.856,1308.93 846.868,1308.93 850.88,1308.93 854.892,1308.93 858.904,1308.93 862.916,1308.93 866.928,1308.93 870.939,1308.93 874.951,1308.93 878.963,1308.93 882.975,1308.93 886.987,1308.93 890.999,1308.93 895.01,1308.93 899.022,1308.93 903.034,1308.93 907.046,1308.93 911.058,1308.93 915.07,1308.93 919.082,1308.93 923.093,1308.93 927.105,1308.93 931.117,1308.93 935.129,1308.93 939.141,1308.93 943.153,1308.93 947.164,1308.41 951.176,1268.09 955.188,1268.09 959.2,1268.09 963.212,1268.09 967.224,1268.09 971.236,1268.09 975.247,1268.09 979.259,1268.09 983.271,1268.09 987.283,1268.09 991.295,1268.09 995.307,1268.09 999.319,1268.09 1003.33,1268.09 1007.34,1268.09 1011.35,1268.09 1015.37,1268.09 1019.38,1268.09 1023.39,1268.09 1027.4,1299.4 1031.41,1299.4 1035.43,1299.4 1039.44,1299.4 1043.45,1299.4 1047.46,1299.4 1051.47,1299.4 1055.48,1299.4 1059.5,1299.4 1063.51,1299.4 1067.52,1299.4 1071.53,1299.4 1075.54,1299.4 1079.56,1299.4 1083.57,1299.4 1087.58,1299.4 1091.59,1299.4 1095.6,1299.4 1099.61,1299.4 1103.63,1299.4 1107.64,1299.4 1111.65,1299.4 1115.66,1299.4 1119.67,1299.4 1123.69,1299.4 1127.7,1299.4 1131.71,1299.4 1135.72,1299.4 1139.73,1299.4 1143.75,1299.4 1147.76,1299.4 1151.77,1299.4 1155.78,1299.4 1159.79,1299.4 1163.8,1305.45 1167.82,1305.45 1171.83,1305.45 1175.84,1305.45 1179.85,1305.45 1183.86,1305.45 1187.88,1305.45 1191.89,1305.45 1195.9,1305.45 1199.91,1305.45 1203.92,1305.45 1207.93,1305.45 1211.95,1305.45 1215.96,1305.45 1219.97,1305.45 1223.98,1305.45 1227.99,1334.45 1232.01,1334.45 1236.02,1334.45 1240.03,1334.45 1244.04,1334.45 1248.05,1334.45 1252.07,1334.45 1256.08,1334.45 1260.09,1334.45 1264.1,1334.45 1268.11,1334.45 1272.12,1334.45 1276.14,1334.45 1280.15,1334.45 1284.16,1334.45 1288.17,1334.45 1292.18,1334.45 1296.2,1334.45 1300.21,1334.45 1304.22,1334.45 1308.23,1334.45 1312.24,1334.45 1316.25,1334.45 1320.27,1334.45 1324.28,1334.45 1328.29,1334.45 1332.3,1334.45 1336.31,1334.45 1340.33,1334.45 1344.34,1334.45 1348.35,1334.45 1352.36,1334.45 1356.37,1334.45 1360.38,1334.45 1364.4,1334.45 1368.41,1334.45 1372.42,1334.45 1376.43,1334.45 1380.44,1334.45 1384.46,1334.45 1388.47,1334.45 1392.48,1316.11 1396.49,1316.11 1400.5,1316.11 1404.52,1316.11 1408.53,1316.11 1412.54,1316.11 1416.55,1316.11 1420.56,1316.11 1424.57,1316.11 1428.59,1316.11 1432.6,1316.11 1436.61,1316.11 1440.62,1316.11 1444.63,1316.11 1448.65,1302.99 1452.66,1302.99 1456.67,1302.99 1460.68,1332.09 1464.69,1332.09 1468.7,1332.09 1472.72,1332.09 1476.73,1332.09 1480.74,1332.09 1484.75,1332.09 1488.76,1332.09 1492.78,1332.09 1496.79,1332.09 1500.8,1332.09 1504.81,1332.09 1508.82,1332.09 1512.84,1332.09 1516.85,1332.09 1520.86,1332.09 1524.87,1332.09 1528.88,1332.09 1532.89,1332.09 1536.91,1332.09 1540.92,1332.09 1544.93,1332.09 1548.94,1332.09 1552.95,1332.09 1556.97,1332.09 1560.98,1332.09 1564.99,1332.09 1569,1332.09 1573.01,1332.09 1577.02,1332.09 1581.04,1332.09 1585.05,1332.09 1589.06,1332.09 1593.07,1332.09 1597.08,1332.09 1601.1,1332.09 1605.11,1332.09 1609.12,1332.09 1613.13,1332.09 1617.14,1332.09 1621.16,1332.09 1625.17,1332.09 1629.18,1332.09 1633.19,1332.09 1637.2,1332.09 1641.21,1332.09 1645.23,1332.09 1649.24,1332.09 1653.25,1332.09 1657.26,1332.09 1661.27,1332.09 1665.29,1332.09 1669.3,1332.09 1673.31,1332.09 1677.32,1332.09 1681.33,1332.09 1685.34,1332.09 1689.36,1332.09 1693.37,1332.09 1697.38,1332.09 1701.39,1332.09 1705.4,1332.09 1709.42,1332.09 1713.43,1332.09 1717.44,1332.09 1721.45,1332.09 1725.46,1269.15 1729.48,1269.15 1733.49,1269.15 1737.5,1269.15 1741.51,1269.15 1745.52,1269.15 1749.53,1269.15 1753.55,1269.15 1757.56,1269.15 1761.57,1269.15 1765.58,1269.15 1769.59,1269.15 1773.61,1269.15 1777.62,1269.15 1781.63,1269.15 1785.64,1269.15 1789.65,1269.15 1793.66,1269.15 1797.68,1269.15 1801.69,1269.15 1805.7,1269.15 1809.71,1269.15 1813.72,1269.15 1817.74,1269.15 1821.75,1269.15 1825.76,1269.15 1829.77,1269.15 1833.78,1269.15 1837.79,1269.15 1841.81,1269.15 1845.82,1269.15 1849.83,1269.15 1853.84,1269.15 1857.85,1269.15 1861.87,1269.15 1865.88,1269.15 1869.89,1269.15 1873.9,1324.15 1877.91,1324.15 1881.93,1324.15 1885.94,1324.15 1889.95,1324.15 1893.96,1324.15 1897.97,1324.15 1901.98,1324.15 1906,1324.15 1910.01,1324.15 1914.02,1324.15 1918.03,1324.15 1922.04,1324.15 1926.06,1324.15 1930.07,1324.15 1934.08,1324.15 1938.09,1324.15 1942.1,1307.46 1946.11,1307.46 1950.13,1307.46 1954.14,1307.46 1958.15,1307.46 1962.16,1307.46 1966.17,1307.46 1970.19,1307.46 1974.2,1307.46 1978.21,1307.46 1982.22,1307.46 1986.23,1307.46 1990.25,1307.46 1994.26,1307.46 1998.27,1307.46 2002.28,1307.46 2006.29,1307.46 2010.3,1307.46 2014.32,1307.46 2018.33,1307.46 2022.34,1307.46 2026.35,1307.46 2030.36,1307.46 2034.38,1307.46 2038.39,1316.67 2042.4,1316.67 2046.41,1316.67 2050.42,1316.67 2054.43,1316.67 2058.45,1316.67 2062.46,1316.67 2066.47,1316.67 2070.48,1316.67 2074.49,1316.67 2078.51,1316.67 2082.52,1316.67 2086.53,1316.67 2090.54,1316.67 2094.55,1316.67 2098.57,1316.67 2102.58,1316.67 2106.59,1316.67 2110.6,1316.67 2114.61,1316.67 2118.62,1316.67 2122.64,1316.67 2126.65,1316.67 2130.66,1316.67 2134.67,1316.67 2138.68,1316.67 2142.7,1316.67 2146.71,1316.67 2150.72,1316.67 2154.73,1316.67 2158.74,1316.67 2162.75,1316.67 2166.77,1316.67 2170.78,1316.67 2174.79,1316.67 2178.8,1316.67 2182.81,1316.67 2186.83,1316.67 2190.84,1316.67 2194.85,1316.67 2198.86,1316.67 2202.87,1316.67 2206.89,1316.67 2210.9,1316.67 2214.91,1316.67 2218.92,1327.5 2222.93,1327.5 2226.94,1327.5 2230.96,1327.5 2234.97,1327.5 2238.98,1327.5 2242.99,1327.5 2247,1327.5 2251.02,1327.5 2255.03,1327.5 2259.04,1327.5 2263.05,1327.5 2267.06,1327.5 2271.07,1327.5 2275.09,1327.5 2279.1,1327.5 2283.11,1327.5 2287.12,1327.5 2291.13,1327.5 "/>
<path clip-path="url(#clip740)" d="M248.022 248.629 L537.906 248.629 L537.906 93.1086 L248.022 93.1086  Z" fill="#ffffff" fill-rule="evenodd" fill-opacity="1"/>
<polyline clip-path="url(#clip740)" style="stroke:#000000; stroke-linecap:round; stroke-linejoin:round; stroke-width:4; stroke-opacity:1; fill:none" points="248.022,248.629 537.906,248.629 537.906,93.1086 248.022,93.1086 248.022,248.629 "/>
<polyline clip-path="url(#clip740)" style="stroke:#1f77b4; stroke-linecap:round; stroke-linejoin:round; stroke-width:8; stroke-opacity:1; fill:none" stroke-dasharray="32, 20" points="272.215,144.949 417.369,144.949 "/>
<path clip-path="url(#clip740)" d="M442.093 127.669 L469.246 127.669 L469.246 131.233 L447.394 158.293 L469.778 158.293 L469.778 162.229 L441.561 162.229 L441.561 158.664 L463.413 131.604 L442.093 131.604 L442.093 127.669 Z" fill="#000000" fill-rule="nonzero" fill-opacity="1" /><path clip-path="url(#clip740)" d="M496.075 170.099 L496.075 173.409 L471.445 173.409 L471.445 170.099 L496.075 170.099 Z" fill="#000000" fill-rule="nonzero" fill-opacity="1" /><path clip-path="url(#clip740)" d="M504.292 128.942 L504.292 136.303 L513.065 136.303 L513.065 139.613 L504.292 139.613 L504.292 153.687 Q504.292 156.858 505.149 157.761 Q506.028 158.664 508.69 158.664 L513.065 158.664 L513.065 162.229 L508.69 162.229 Q503.76 162.229 501.885 160.4 Q500.01 158.548 500.01 153.687 L500.01 139.613 L496.885 139.613 L496.885 136.303 L500.01 136.303 L500.01 128.942 L504.292 128.942 Z" fill="#000000" fill-rule="nonzero" fill-opacity="1" /><polyline clip-path="url(#clip740)" style="stroke:#ff7e0d; stroke-linecap:round; stroke-linejoin:round; stroke-width:8; stroke-opacity:1; fill:none" stroke-dasharray="32, 16, 4, 16" points="272.215,196.789 417.369,196.789 "/>
<path clip-path="url(#clip740)" d="M441.561 179.509 L446.237 179.509 L446.237 193.675 L463.228 193.675 L463.228 179.509 L467.903 179.509 L467.903 214.069 L463.228 214.069 L463.228 197.61 L446.237 197.61 L446.237 214.069 L441.561 214.069 L441.561 179.509 Z" fill="#000000" fill-rule="nonzero" fill-opacity="1" /><path clip-path="url(#clip740)" d="M496.723 221.939 L496.723 225.249 L472.093 225.249 L472.093 221.939 L496.723 221.939 Z" fill="#000000" fill-rule="nonzero" fill-opacity="1" /><path clip-path="url(#clip740)" d="M504.94 180.782 L504.94 188.143 L513.713 188.143 L513.713 191.453 L504.94 191.453 L504.94 205.527 Q504.94 208.698 505.797 209.601 Q506.676 210.504 509.338 210.504 L513.713 210.504 L513.713 214.069 L509.338 214.069 Q504.408 214.069 502.533 212.24 Q500.658 210.388 500.658 205.527 L500.658 191.453 L497.533 191.453 L497.533 188.143 L500.658 188.143 L500.658 180.782 L504.94 180.782 Z" fill="#000000" fill-rule="nonzero" fill-opacity="1" /></svg>
