<?xml version="1.0" encoding="utf-8"?>
<svg xmlns="http://www.w3.org/2000/svg" xmlns:xlink="http://www.w3.org/1999/xlink" width="600" height="400" viewBox="0 0 2400 1600">
<defs>
  <clipPath id="clip800">
    <rect x="0" y="0" width="2400" height="1600"/>
  </clipPath>
</defs>
<path clip-path="url(#clip800)" d="M0 1600 L2400 1600 L2400 0 L0 0  Z" fill="#ffffff" fill-rule="evenodd" fill-opacity="1"/>
<defs>
  <clipPath id="clip801">
    <rect x="480" y="0" width="1681" height="1600"/>
  </clipPath>
</defs>
<path clip-path="url(#clip800)" d="M219.542 1423.18 L2352.76 1423.18 L2352.76 47.2441 L219.542 47.2441  Z" fill="#ffffff" fill-rule="evenodd" fill-opacity="1"/>
<defs>
  <clipPath id="clip802">
    <rect x="219" y="47" width="2134" height="1377"/>
  </clipPath>
</defs>
<polyline clip-path="url(#clip802)" style="stroke:#000000; stroke-linecap:round; stroke-linejoin:round; stroke-width:2; stroke-opacity:0.1; fill:none" points="279.916,1423.18 279.916,47.2441 "/>
<polyline clip-path="url(#clip802)" style="stroke:#000000; stroke-linecap:round; stroke-linejoin:round; stroke-width:2; stroke-opacity:0.1; fill:none" points="783.033,1423.18 783.033,47.2441 "/>
<polyline clip-path="url(#clip802)" style="stroke:#000000; stroke-linecap:round; stroke-linejoin:round; stroke-width:2; stroke-opacity:0.1; fill:none" points="1286.15,1423.18 1286.15,47.2441 "/>
<polyline clip-path="url(#clip802)" style="stroke:#000000; stroke-linecap:round; stroke-linejoin:round; stroke-width:2; stroke-opacity:0.1; fill:none" points="1789.27,1423.18 1789.27,47.2441 "/>
<polyline clip-path="url(#clip802)" style="stroke:#000000; stroke-linecap:round; stroke-linejoin:round; stroke-width:2; stroke-opacity:0.1; fill:none" points="2292.38,1423.18 2292.38,47.2441 "/>
<polyline clip-path="url(#clip800)" style="stroke:#000000; stroke-linecap:round; stroke-linejoin:round; stroke-width:4; stroke-opacity:1; fill:none" points="219.542,1423.18 2352.76,1423.18 "/>
<polyline clip-path="url(#clip800)" style="stroke:#000000; stroke-linecap:round; stroke-linejoin:round; stroke-width:4; stroke-opacity:1; fill:none" points="279.916,1423.18 279.916,1404.28 "/>
<polyline clip-path="url(#clip800)" style="stroke:#000000; stroke-linecap:round; stroke-linejoin:round; stroke-width:4; stroke-opacity:1; fill:none" points="783.033,1423.18 783.033,1404.28 "/>
<polyline clip-path="url(#clip800)" style="stroke:#000000; stroke-linecap:round; stroke-linejoin:round; stroke-width:4; stroke-opacity:1; fill:none" points="1286.15,1423.18 1286.15,1404.28 "/>
<polyline clip-path="url(#clip800)" style="stroke:#000000; stroke-linecap:round; stroke-linejoin:round; stroke-width:4; stroke-opacity:1; fill:none" points="1789.27,1423.18 1789.27,1404.28 "/>
<polyline clip-path="url(#clip800)" style="stroke:#000000; stroke-linecap:round; stroke-linejoin:round; stroke-width:4; stroke-opacity:1; fill:none" points="2292.38,1423.18 2292.38,1404.28 "/>
<path clip-path="url(#clip800)" d="M242.22 1454.1 Q238.609 1454.1 236.78 1457.66 Q234.974 1461.2 234.974 1468.33 Q234.974 1475.44 236.78 1479.01 Q238.609 1482.55 242.22 1482.55 Q245.854 1482.55 247.659 1479.01 Q249.488 1475.44 249.488 1468.33 Q249.488 1461.2 247.659 1457.66 Q245.854 1454.1 242.22 1454.1 M242.22 1450.39 Q248.03 1450.39 251.085 1455 Q254.164 1459.58 254.164 1468.33 Q254.164 1477.06 251.085 1481.67 Q248.03 1486.25 242.22 1486.25 Q236.409 1486.25 233.331 1481.67 Q230.275 1477.06 230.275 1468.33 Q230.275 1459.58 233.331 1455 Q236.409 1450.39 242.22 1450.39 Z" fill="#000000" fill-rule="nonzero" fill-opacity="1" /><path clip-path="url(#clip800)" d="M262.382 1479.7 L267.266 1479.7 L267.266 1485.58 L262.382 1485.58 L262.382 1479.7 Z" fill="#000000" fill-rule="nonzero" fill-opacity="1" /><path clip-path="url(#clip800)" d="M287.451 1454.1 Q283.84 1454.1 282.011 1457.66 Q280.206 1461.2 280.206 1468.33 Q280.206 1475.44 282.011 1479.01 Q283.84 1482.55 287.451 1482.55 Q291.085 1482.55 292.891 1479.01 Q294.719 1475.44 294.719 1468.33 Q294.719 1461.2 292.891 1457.66 Q291.085 1454.1 287.451 1454.1 M287.451 1450.39 Q293.261 1450.39 296.317 1455 Q299.395 1459.58 299.395 1468.33 Q299.395 1477.06 296.317 1481.67 Q293.261 1486.25 287.451 1486.25 Q281.641 1486.25 278.562 1481.67 Q275.506 1477.06 275.506 1468.33 Q275.506 1459.58 278.562 1455 Q281.641 1450.39 287.451 1450.39 Z" fill="#000000" fill-rule="nonzero" fill-opacity="1" /><path clip-path="url(#clip800)" d="M317.613 1454.1 Q314.002 1454.1 312.173 1457.66 Q310.367 1461.2 310.367 1468.33 Q310.367 1475.44 312.173 1479.01 Q314.002 1482.55 317.613 1482.55 Q321.247 1482.55 323.053 1479.01 Q324.881 1475.44 324.881 1468.33 Q324.881 1461.2 323.053 1457.66 Q321.247 1454.1 317.613 1454.1 M317.613 1450.39 Q323.423 1450.39 326.478 1455 Q329.557 1459.58 329.557 1468.33 Q329.557 1477.06 326.478 1481.67 Q323.423 1486.25 317.613 1486.25 Q311.803 1486.25 308.724 1481.67 Q305.668 1477.06 305.668 1468.33 Q305.668 1459.58 308.724 1455 Q311.803 1450.39 317.613 1450.39 Z" fill="#000000" fill-rule="nonzero" fill-opacity="1" /><path clip-path="url(#clip800)" d="M745.834 1454.1 Q742.223 1454.1 740.394 1457.66 Q738.588 1461.2 738.588 1468.33 Q738.588 1475.44 740.394 1479.01 Q742.223 1482.55 745.834 1482.55 Q749.468 1482.55 751.274 1479.01 Q753.102 1475.44 753.102 1468.33 Q753.102 1461.2 751.274 1457.66 Q749.468 1454.1 745.834 1454.1 M745.834 1450.39 Q751.644 1450.39 754.699 1455 Q757.778 1459.58 757.778 1468.33 Q757.778 1477.06 754.699 1481.67 Q751.644 1486.25 745.834 1486.25 Q740.024 1486.25 736.945 1481.67 Q733.889 1477.06 733.889 1468.33 Q733.889 1459.58 736.945 1455 Q740.024 1450.39 745.834 1450.39 Z" fill="#000000" fill-rule="nonzero" fill-opacity="1" /><path clip-path="url(#clip800)" d="M765.996 1479.7 L770.88 1479.7 L770.88 1485.58 L765.996 1485.58 L765.996 1479.7 Z" fill="#000000" fill-rule="nonzero" fill-opacity="1" /><path clip-path="url(#clip800)" d="M785.093 1481.64 L801.412 1481.64 L801.412 1485.58 L779.468 1485.58 L779.468 1481.64 Q782.13 1478.89 786.713 1474.26 Q791.32 1469.61 792.5 1468.27 Q794.746 1465.74 795.625 1464.01 Q796.528 1462.25 796.528 1460.56 Q796.528 1457.8 794.583 1456.07 Q792.662 1454.33 789.56 1454.33 Q787.361 1454.33 784.908 1455.09 Q782.477 1455.86 779.699 1457.41 L779.699 1452.69 Q782.523 1451.55 784.977 1450.97 Q787.431 1450.39 789.468 1450.39 Q794.838 1450.39 798.033 1453.08 Q801.227 1455.77 801.227 1460.26 Q801.227 1462.39 800.417 1464.31 Q799.63 1466.2 797.523 1468.8 Q796.945 1469.47 793.843 1472.69 Q790.741 1475.88 785.093 1481.64 Z" fill="#000000" fill-rule="nonzero" fill-opacity="1" /><path clip-path="url(#clip800)" d="M811.273 1451.02 L829.63 1451.02 L829.63 1454.96 L815.556 1454.96 L815.556 1463.43 Q816.574 1463.08 817.593 1462.92 Q818.611 1462.73 819.63 1462.73 Q825.417 1462.73 828.796 1465.9 Q832.176 1469.08 832.176 1474.49 Q832.176 1480.07 828.704 1483.17 Q825.231 1486.25 818.912 1486.25 Q816.736 1486.25 814.468 1485.88 Q812.222 1485.51 809.815 1484.77 L809.815 1480.07 Q811.898 1481.2 814.12 1481.76 Q816.343 1482.32 818.819 1482.32 Q822.824 1482.32 825.162 1480.21 Q827.5 1478.1 827.5 1474.49 Q827.5 1470.88 825.162 1468.77 Q822.824 1466.67 818.819 1466.67 Q816.944 1466.67 815.069 1467.08 Q813.218 1467.5 811.273 1468.38 L811.273 1451.02 Z" fill="#000000" fill-rule="nonzero" fill-opacity="1" /><path clip-path="url(#clip800)" d="M1248.45 1454.1 Q1244.84 1454.1 1243.01 1457.66 Q1241.21 1461.2 1241.21 1468.33 Q1241.21 1475.44 1243.01 1479.01 Q1244.84 1482.55 1248.45 1482.55 Q1252.09 1482.55 1253.89 1479.01 Q1255.72 1475.44 1255.72 1468.33 Q1255.72 1461.2 1253.89 1457.66 Q1252.09 1454.1 1248.45 1454.1 M1248.45 1450.39 Q1254.26 1450.39 1257.32 1455 Q1260.4 1459.58 1260.4 1468.33 Q1260.4 1477.06 1257.32 1481.67 Q1254.26 1486.25 1248.45 1486.25 Q1242.64 1486.25 1239.56 1481.67 Q1236.51 1477.06 1236.51 1468.33 Q1236.51 1459.58 1239.56 1455 Q1242.64 1450.39 1248.45 1450.39 Z" fill="#000000" fill-rule="nonzero" fill-opacity="1" /><path clip-path="url(#clip800)" d="M1268.61 1479.7 L1273.5 1479.7 L1273.5 1485.58 L1268.61 1485.58 L1268.61 1479.7 Z" fill="#000000" fill-rule="nonzero" fill-opacity="1" /><path clip-path="url(#clip800)" d="M1283.73 1451.02 L1302.09 1451.02 L1302.09 1454.96 L1288.01 1454.96 L1288.01 1463.43 Q1289.03 1463.08 1290.05 1462.92 Q1291.07 1462.73 1292.09 1462.73 Q1297.87 1462.73 1301.25 1465.9 Q1304.63 1469.08 1304.63 1474.49 Q1304.63 1480.07 1301.16 1483.17 Q1297.69 1486.25 1291.37 1486.25 Q1289.19 1486.25 1286.92 1485.88 Q1284.68 1485.51 1282.27 1484.77 L1282.27 1480.07 Q1284.36 1481.2 1286.58 1481.76 Q1288.8 1482.32 1291.28 1482.32 Q1295.28 1482.32 1297.62 1480.21 Q1299.96 1478.1 1299.96 1474.49 Q1299.96 1470.88 1297.62 1468.77 Q1295.28 1466.67 1291.28 1466.67 Q1289.4 1466.67 1287.53 1467.08 Q1285.67 1467.5 1283.73 1468.38 L1283.73 1451.02 Z" fill="#000000" fill-rule="nonzero" fill-opacity="1" /><path clip-path="url(#clip800)" d="M1323.85 1454.1 Q1320.23 1454.1 1318.41 1457.66 Q1316.6 1461.2 1316.6 1468.33 Q1316.6 1475.44 1318.41 1479.01 Q1320.23 1482.55 1323.85 1482.55 Q1327.48 1482.55 1329.29 1479.01 Q1331.11 1475.44 1331.11 1468.33 Q1331.11 1461.2 1329.29 1457.66 Q1327.48 1454.1 1323.85 1454.1 M1323.85 1450.39 Q1329.66 1450.39 1332.71 1455 Q1335.79 1459.58 1335.79 1468.33 Q1335.79 1477.06 1332.71 1481.67 Q1329.66 1486.25 1323.85 1486.25 Q1318.04 1486.25 1314.96 1481.67 Q1311.9 1477.06 1311.9 1468.33 Q1311.9 1459.58 1314.96 1455 Q1318.04 1450.39 1323.85 1450.39 Z" fill="#000000" fill-rule="nonzero" fill-opacity="1" /><path clip-path="url(#clip800)" d="M1752.07 1454.1 Q1748.46 1454.1 1746.63 1457.66 Q1744.82 1461.2 1744.82 1468.33 Q1744.82 1475.44 1746.63 1479.01 Q1748.46 1482.55 1752.07 1482.55 Q1755.7 1482.55 1757.51 1479.01 Q1759.34 1475.44 1759.34 1468.33 Q1759.34 1461.2 1757.51 1457.66 Q1755.7 1454.1 1752.07 1454.1 M1752.07 1450.39 Q1757.88 1450.39 1760.93 1455 Q1764.01 1459.58 1764.01 1468.33 Q1764.01 1477.06 1760.93 1481.67 Q1757.88 1486.25 1752.07 1486.25 Q1746.26 1486.25 1743.18 1481.67 Q1740.12 1477.06 1740.12 1468.33 Q1740.12 1459.58 1743.18 1455 Q1746.26 1450.39 1752.07 1450.39 Z" fill="#000000" fill-rule="nonzero" fill-opacity="1" /><path clip-path="url(#clip800)" d="M1772.23 1479.7 L1777.11 1479.7 L1777.11 1485.58 L1772.23 1485.58 L1772.23 1479.7 Z" fill="#000000" fill-rule="nonzero" fill-opacity="1" /><path clip-path="url(#clip800)" d="M1786.12 1451.02 L1808.34 1451.02 L1808.34 1453.01 L1795.79 1485.58 L1790.91 1485.58 L1802.71 1454.96 L1786.12 1454.96 L1786.12 1451.02 Z" fill="#000000" fill-rule="nonzero" fill-opacity="1" /><path clip-path="url(#clip800)" d="M1817.51 1451.02 L1835.86 1451.02 L1835.86 1454.96 L1821.79 1454.96 L1821.79 1463.43 Q1822.81 1463.08 1823.83 1462.92 Q1824.84 1462.73 1825.86 1462.73 Q1831.65 1462.73 1835.03 1465.9 Q1838.41 1469.08 1838.41 1474.49 Q1838.41 1480.07 1834.94 1483.17 Q1831.46 1486.25 1825.14 1486.25 Q1822.97 1486.25 1820.7 1485.88 Q1818.46 1485.51 1816.05 1484.77 L1816.05 1480.07 Q1818.13 1481.2 1820.35 1481.76 Q1822.58 1482.32 1825.05 1482.32 Q1829.06 1482.32 1831.39 1480.21 Q1833.73 1478.1 1833.73 1474.49 Q1833.73 1470.88 1831.39 1468.77 Q1829.06 1466.67 1825.05 1466.67 Q1823.18 1466.67 1821.3 1467.08 Q1819.45 1467.5 1817.51 1468.38 L1817.51 1451.02 Z" fill="#000000" fill-rule="nonzero" fill-opacity="1" /><path clip-path="url(#clip800)" d="M2244.45 1481.64 L2252.09 1481.64 L2252.09 1455.28 L2243.78 1456.95 L2243.78 1452.69 L2252.05 1451.02 L2256.72 1451.02 L2256.72 1481.64 L2264.36 1481.64 L2264.36 1485.58 L2244.45 1485.58 L2244.45 1481.64 Z" fill="#000000" fill-rule="nonzero" fill-opacity="1" /><path clip-path="url(#clip800)" d="M2273.81 1479.7 L2278.69 1479.7 L2278.69 1485.58 L2273.81 1485.58 L2273.81 1479.7 Z" fill="#000000" fill-rule="nonzero" fill-opacity="1" /><path clip-path="url(#clip800)" d="M2298.87 1454.1 Q2295.26 1454.1 2293.44 1457.66 Q2291.63 1461.2 2291.63 1468.33 Q2291.63 1475.44 2293.44 1479.01 Q2295.26 1482.55 2298.87 1482.55 Q2302.51 1482.55 2304.31 1479.01 Q2306.14 1475.44 2306.14 1468.33 Q2306.14 1461.2 2304.31 1457.66 Q2302.51 1454.1 2298.87 1454.1 M2298.87 1450.39 Q2304.69 1450.39 2307.74 1455 Q2310.82 1459.58 2310.82 1468.33 Q2310.82 1477.06 2307.74 1481.67 Q2304.69 1486.25 2298.87 1486.25 Q2293.06 1486.25 2289.99 1481.67 Q2286.93 1477.06 2286.93 1468.33 Q2286.93 1459.58 2289.99 1455 Q2293.06 1450.39 2298.87 1450.39 Z" fill="#000000" fill-rule="nonzero" fill-opacity="1" /><path clip-path="url(#clip800)" d="M2329.04 1454.1 Q2325.43 1454.1 2323.6 1457.66 Q2321.79 1461.2 2321.79 1468.33 Q2321.79 1475.44 2323.6 1479.01 Q2325.43 1482.55 2329.04 1482.55 Q2332.67 1482.55 2334.48 1479.01 Q2336.31 1475.44 2336.31 1468.33 Q2336.31 1461.2 2334.48 1457.66 Q2332.67 1454.1 2329.04 1454.1 M2329.04 1450.39 Q2334.85 1450.39 2337.9 1455 Q2340.98 1459.58 2340.98 1468.33 Q2340.98 1477.06 2337.9 1481.67 Q2334.85 1486.25 2329.04 1486.25 Q2323.23 1486.25 2320.15 1481.67 Q2317.09 1477.06 2317.09 1468.33 Q2317.09 1459.58 2320.15 1455 Q2323.23 1450.39 2329.04 1450.39 Z" fill="#000000" fill-rule="nonzero" fill-opacity="1" /><path clip-path="url(#clip800)" d="M1294.62 1531.91 Q1294.62 1532.81 1294.2 1533.04 Q1293.78 1533.23 1292.62 1533.23 L1286.44 1533.23 L1281.54 1552.69 Q1281.16 1554.39 1281.16 1555.84 Q1281.16 1557.45 1281.64 1558.16 Q1282.16 1558.87 1283.22 1558.87 Q1285.31 1558.87 1287.57 1556.97 Q1289.85 1555.07 1291.79 1550.43 Q1292.04 1549.82 1292.17 1549.69 Q1292.33 1549.53 1292.75 1549.53 Q1293.56 1549.53 1293.56 1550.17 Q1293.56 1550.4 1293.11 1551.43 Q1292.69 1552.46 1291.75 1553.97 Q1290.85 1555.49 1289.66 1556.9 Q1288.5 1558.32 1286.73 1559.35 Q1284.96 1560.35 1283.06 1560.35 Q1280.39 1560.35 1278.68 1558.64 Q1277 1556.94 1277 1554.26 Q1277 1553.39 1277.68 1550.62 Q1278.36 1547.82 1282.03 1533.23 L1276.2 1533.23 Q1275.39 1533.23 1275.07 1533.2 Q1274.78 1533.17 1274.56 1533.01 Q1274.36 1532.81 1274.36 1532.43 Q1274.36 1531.82 1274.62 1531.56 Q1274.88 1531.27 1275.2 1531.24 Q1275.55 1531.17 1276.36 1531.17 L1282.54 1531.17 L1285.12 1520.71 Q1285.38 1519.67 1286.02 1519.09 Q1286.7 1518.48 1287.08 1518.42 Q1287.47 1518.32 1287.76 1518.32 Q1288.63 1518.32 1289.15 1518.81 Q1289.66 1519.26 1289.66 1520.09 Q1289.66 1520.54 1286.96 1531.17 L1292.75 1531.17 Q1293.49 1531.17 1293.78 1531.2 Q1294.1 1531.24 1294.36 1531.4 Q1294.62 1531.56 1294.62 1531.91 Z" fill="#000000" fill-rule="nonzero" fill-opacity="1" /><polyline clip-path="url(#clip802)" style="stroke:#000000; stroke-linecap:round; stroke-linejoin:round; stroke-width:2; stroke-opacity:0.1; fill:none" points="219.542,1384.24 2352.76,1384.24 "/>
<polyline clip-path="url(#clip802)" style="stroke:#000000; stroke-linecap:round; stroke-linejoin:round; stroke-width:2; stroke-opacity:0.1; fill:none" points="219.542,1167.9 2352.76,1167.9 "/>
<polyline clip-path="url(#clip802)" style="stroke:#000000; stroke-linecap:round; stroke-linejoin:round; stroke-width:2; stroke-opacity:0.1; fill:none" points="219.542,951.555 2352.76,951.555 "/>
<polyline clip-path="url(#clip802)" style="stroke:#000000; stroke-linecap:round; stroke-linejoin:round; stroke-width:2; stroke-opacity:0.1; fill:none" points="219.542,735.213 2352.76,735.213 "/>
<polyline clip-path="url(#clip802)" style="stroke:#000000; stroke-linecap:round; stroke-linejoin:round; stroke-width:2; stroke-opacity:0.1; fill:none" points="219.542,518.87 2352.76,518.87 "/>
<polyline clip-path="url(#clip802)" style="stroke:#000000; stroke-linecap:round; stroke-linejoin:round; stroke-width:2; stroke-opacity:0.1; fill:none" points="219.542,302.528 2352.76,302.528 "/>
<polyline clip-path="url(#clip802)" style="stroke:#000000; stroke-linecap:round; stroke-linejoin:round; stroke-width:2; stroke-opacity:0.1; fill:none" points="219.542,86.1854 2352.76,86.1854 "/>
<polyline clip-path="url(#clip800)" style="stroke:#000000; stroke-linecap:round; stroke-linejoin:round; stroke-width:4; stroke-opacity:1; fill:none" points="219.542,1423.18 219.542,47.2441 "/>
<polyline clip-path="url(#clip800)" style="stroke:#000000; stroke-linecap:round; stroke-linejoin:round; stroke-width:4; stroke-opacity:1; fill:none" points="219.542,1384.24 238.44,1384.24 "/>
<polyline clip-path="url(#clip800)" style="stroke:#000000; stroke-linecap:round; stroke-linejoin:round; stroke-width:4; stroke-opacity:1; fill:none" points="219.542,1167.9 238.44,1167.9 "/>
<polyline clip-path="url(#clip800)" style="stroke:#000000; stroke-linecap:round; stroke-linejoin:round; stroke-width:4; stroke-opacity:1; fill:none" points="219.542,951.555 238.44,951.555 "/>
<polyline clip-path="url(#clip800)" style="stroke:#000000; stroke-linecap:round; stroke-linejoin:round; stroke-width:4; stroke-opacity:1; fill:none" points="219.542,735.213 238.44,735.213 "/>
<polyline clip-path="url(#clip800)" style="stroke:#000000; stroke-linecap:round; stroke-linejoin:round; stroke-width:4; stroke-opacity:1; fill:none" points="219.542,518.87 238.44,518.87 "/>
<polyline clip-path="url(#clip800)" style="stroke:#000000; stroke-linecap:round; stroke-linejoin:round; stroke-width:4; stroke-opacity:1; fill:none" points="219.542,302.528 238.44,302.528 "/>
<polyline clip-path="url(#clip800)" style="stroke:#000000; stroke-linecap:round; stroke-linejoin:round; stroke-width:4; stroke-opacity:1; fill:none" points="219.542,86.1854 238.44,86.1854 "/>
<path clip-path="url(#clip800)" d="M127.362 1370.04 Q123.751 1370.04 121.922 1373.6 Q120.117 1377.15 120.117 1384.27 Q120.117 1391.38 121.922 1394.95 Q123.751 1398.49 127.362 1398.49 Q130.996 1398.49 132.802 1394.95 Q134.63 1391.38 134.63 1384.27 Q134.63 1377.15 132.802 1373.6 Q130.996 1370.04 127.362 1370.04 M127.362 1366.34 Q133.172 1366.34 136.228 1370.94 Q139.306 1375.52 139.306 1384.27 Q139.306 1393 136.228 1397.61 Q133.172 1402.19 127.362 1402.19 Q121.552 1402.19 118.473 1397.61 Q115.418 1393 115.418 1384.27 Q115.418 1375.52 118.473 1370.94 Q121.552 1366.34 127.362 1366.34 Z" fill="#000000" fill-rule="nonzero" fill-opacity="1" /><path clip-path="url(#clip800)" d="M147.524 1395.64 L152.408 1395.64 L152.408 1401.52 L147.524 1401.52 L147.524 1395.64 Z" fill="#000000" fill-rule="nonzero" fill-opacity="1" /><path clip-path="url(#clip800)" d="M162.64 1366.96 L180.996 1366.96 L180.996 1370.9 L166.922 1370.9 L166.922 1379.37 Q167.94 1379.02 168.959 1378.86 Q169.977 1378.67 170.996 1378.67 Q176.783 1378.67 180.163 1381.84 Q183.542 1385.02 183.542 1390.43 Q183.542 1396.01 180.07 1399.11 Q176.598 1402.19 170.278 1402.19 Q168.102 1402.19 165.834 1401.82 Q163.589 1401.45 161.181 1400.71 L161.181 1396.01 Q163.265 1397.15 165.487 1397.7 Q167.709 1398.26 170.186 1398.26 Q174.19 1398.26 176.528 1396.15 Q178.866 1394.04 178.866 1390.43 Q178.866 1386.82 176.528 1384.71 Q174.19 1382.61 170.186 1382.61 Q168.311 1382.61 166.436 1383.02 Q164.584 1383.44 162.64 1384.32 L162.64 1366.96 Z" fill="#000000" fill-rule="nonzero" fill-opacity="1" /><path clip-path="url(#clip800)" d="M126.205 1153.7 Q122.593 1153.7 120.765 1157.26 Q118.959 1160.8 118.959 1167.93 Q118.959 1175.04 120.765 1178.6 Q122.593 1182.15 126.205 1182.15 Q129.839 1182.15 131.644 1178.6 Q133.473 1175.04 133.473 1167.93 Q133.473 1160.8 131.644 1157.26 Q129.839 1153.7 126.205 1153.7 M126.205 1149.99 Q132.015 1149.99 135.07 1154.6 Q138.149 1159.18 138.149 1167.93 Q138.149 1176.66 135.07 1181.27 Q132.015 1185.85 126.205 1185.85 Q120.394 1185.85 117.316 1181.27 Q114.26 1176.66 114.26 1167.93 Q114.26 1159.18 117.316 1154.6 Q120.394 1149.99 126.205 1149.99 Z" fill="#000000" fill-rule="nonzero" fill-opacity="1" /><path clip-path="url(#clip800)" d="M146.366 1179.3 L151.251 1179.3 L151.251 1185.18 L146.366 1185.18 L146.366 1179.3 Z" fill="#000000" fill-rule="nonzero" fill-opacity="1" /><path clip-path="url(#clip800)" d="M172.014 1166.03 Q168.866 1166.03 167.015 1168.19 Q165.186 1170.34 165.186 1174.09 Q165.186 1177.82 167.015 1179.99 Q168.866 1182.15 172.014 1182.15 Q175.163 1182.15 176.991 1179.99 Q178.843 1177.82 178.843 1174.09 Q178.843 1170.34 176.991 1168.19 Q175.163 1166.03 172.014 1166.03 M181.297 1151.38 L181.297 1155.64 Q179.538 1154.81 177.732 1154.37 Q175.95 1153.93 174.19 1153.93 Q169.561 1153.93 167.107 1157.05 Q164.677 1160.18 164.329 1166.5 Q165.695 1164.48 167.755 1163.42 Q169.815 1162.33 172.292 1162.33 Q177.501 1162.33 180.51 1165.5 Q183.542 1168.65 183.542 1174.09 Q183.542 1179.41 180.394 1182.63 Q177.246 1185.85 172.014 1185.85 Q166.019 1185.85 162.848 1181.27 Q159.677 1176.66 159.677 1167.93 Q159.677 1159.74 163.565 1154.88 Q167.454 1149.99 174.005 1149.99 Q175.764 1149.99 177.547 1150.34 Q179.352 1150.69 181.297 1151.38 Z" fill="#000000" fill-rule="nonzero" fill-opacity="1" /><path clip-path="url(#clip800)" d="M127.269 937.354 Q123.658 937.354 121.83 940.919 Q120.024 944.46 120.024 951.59 Q120.024 958.696 121.83 962.261 Q123.658 965.803 127.269 965.803 Q130.904 965.803 132.709 962.261 Q134.538 958.696 134.538 951.59 Q134.538 944.46 132.709 940.919 Q130.904 937.354 127.269 937.354 M127.269 933.65 Q133.08 933.65 136.135 938.257 Q139.214 942.84 139.214 951.59 Q139.214 960.317 136.135 964.923 Q133.08 969.506 127.269 969.506 Q121.459 969.506 118.381 964.923 Q115.325 960.317 115.325 951.59 Q115.325 942.84 118.381 938.257 Q121.459 933.65 127.269 933.65 Z" fill="#000000" fill-rule="nonzero" fill-opacity="1" /><path clip-path="url(#clip800)" d="M147.431 962.956 L152.316 962.956 L152.316 968.835 L147.431 968.835 L147.431 962.956 Z" fill="#000000" fill-rule="nonzero" fill-opacity="1" /><path clip-path="url(#clip800)" d="M161.32 934.275 L183.542 934.275 L183.542 936.266 L170.996 968.835 L166.112 968.835 L177.917 938.21 L161.32 938.21 L161.32 934.275 Z" fill="#000000" fill-rule="nonzero" fill-opacity="1" /><path clip-path="url(#clip800)" d="M126.459 721.011 Q122.848 721.011 121.019 724.576 Q119.214 728.118 119.214 735.247 Q119.214 742.354 121.019 745.919 Q122.848 749.46 126.459 749.46 Q130.093 749.46 131.899 745.919 Q133.728 742.354 133.728 735.247 Q133.728 728.118 131.899 724.576 Q130.093 721.011 126.459 721.011 M126.459 717.308 Q132.269 717.308 135.325 721.914 Q138.404 726.498 138.404 735.247 Q138.404 743.974 135.325 748.581 Q132.269 753.164 126.459 753.164 Q120.649 753.164 117.57 748.581 Q114.515 743.974 114.515 735.247 Q114.515 726.498 117.57 721.914 Q120.649 717.308 126.459 717.308 Z" fill="#000000" fill-rule="nonzero" fill-opacity="1" /><path clip-path="url(#clip800)" d="M146.621 746.613 L151.505 746.613 L151.505 752.493 L146.621 752.493 L146.621 746.613 Z" fill="#000000" fill-rule="nonzero" fill-opacity="1" /><path clip-path="url(#clip800)" d="M171.69 736.081 Q168.357 736.081 166.436 737.863 Q164.538 739.646 164.538 742.771 Q164.538 745.896 166.436 747.678 Q168.357 749.46 171.69 749.46 Q175.024 749.46 176.945 747.678 Q178.866 745.872 178.866 742.771 Q178.866 739.646 176.945 737.863 Q175.047 736.081 171.69 736.081 M167.015 734.09 Q164.005 733.349 162.315 731.289 Q160.649 729.229 160.649 726.266 Q160.649 722.123 163.589 719.715 Q166.552 717.308 171.69 717.308 Q176.852 717.308 179.792 719.715 Q182.732 722.123 182.732 726.266 Q182.732 729.229 181.042 731.289 Q179.376 733.349 176.389 734.09 Q179.769 734.877 181.644 737.169 Q183.542 739.46 183.542 742.771 Q183.542 747.794 180.464 750.479 Q177.408 753.164 171.69 753.164 Q165.973 753.164 162.894 750.479 Q159.839 747.794 159.839 742.771 Q159.839 739.46 161.737 737.169 Q163.635 734.877 167.015 734.09 M165.302 726.706 Q165.302 729.391 166.968 730.896 Q168.658 732.4 171.69 732.4 Q174.7 732.4 176.389 730.896 Q178.102 729.391 178.102 726.706 Q178.102 724.021 176.389 722.516 Q174.7 721.011 171.69 721.011 Q168.658 721.011 166.968 722.516 Q165.302 724.021 165.302 726.706 Z" fill="#000000" fill-rule="nonzero" fill-opacity="1" /><path clip-path="url(#clip800)" d="M126.552 504.669 Q122.941 504.669 121.112 508.234 Q119.306 511.775 119.306 518.905 Q119.306 526.011 121.112 529.576 Q122.941 533.118 126.552 533.118 Q130.186 533.118 131.992 529.576 Q133.82 526.011 133.82 518.905 Q133.82 511.775 131.992 508.234 Q130.186 504.669 126.552 504.669 M126.552 500.965 Q132.362 500.965 135.417 505.572 Q138.496 510.155 138.496 518.905 Q138.496 527.632 135.417 532.238 Q132.362 536.822 126.552 536.822 Q120.742 536.822 117.663 532.238 Q114.607 527.632 114.607 518.905 Q114.607 510.155 117.663 505.572 Q120.742 500.965 126.552 500.965 Z" fill="#000000" fill-rule="nonzero" fill-opacity="1" /><path clip-path="url(#clip800)" d="M146.714 530.271 L151.598 530.271 L151.598 536.15 L146.714 536.15 L146.714 530.271 Z" fill="#000000" fill-rule="nonzero" fill-opacity="1" /><path clip-path="url(#clip800)" d="M161.922 535.433 L161.922 531.173 Q163.681 532.007 165.487 532.447 Q167.292 532.886 169.028 532.886 Q173.658 532.886 176.089 529.785 Q178.542 526.66 178.889 520.317 Q177.547 522.308 175.487 523.373 Q173.427 524.437 170.927 524.437 Q165.741 524.437 162.709 521.312 Q159.7 518.164 159.7 512.725 Q159.7 507.4 162.848 504.183 Q165.996 500.965 171.227 500.965 Q177.223 500.965 180.371 505.572 Q183.542 510.155 183.542 518.905 Q183.542 527.076 179.653 531.961 Q175.788 536.822 169.237 536.822 Q167.477 536.822 165.672 536.474 Q163.866 536.127 161.922 535.433 M171.227 520.78 Q174.376 520.78 176.204 518.627 Q178.056 516.474 178.056 512.725 Q178.056 508.998 176.204 506.845 Q174.376 504.669 171.227 504.669 Q168.079 504.669 166.227 506.845 Q164.399 508.998 164.399 512.725 Q164.399 516.474 166.227 518.627 Q168.079 520.78 171.227 520.78 Z" fill="#000000" fill-rule="nonzero" fill-opacity="1" /><path clip-path="url(#clip800)" d="M117.177 315.873 L124.816 315.873 L124.816 289.507 L116.506 291.174 L116.506 286.915 L124.769 285.248 L129.445 285.248 L129.445 315.873 L137.084 315.873 L137.084 319.808 L117.177 319.808 L117.177 315.873 Z" fill="#000000" fill-rule="nonzero" fill-opacity="1" /><path clip-path="url(#clip800)" d="M146.529 313.928 L151.413 313.928 L151.413 319.808 L146.529 319.808 L146.529 313.928 Z" fill="#000000" fill-rule="nonzero" fill-opacity="1" /><path clip-path="url(#clip800)" d="M171.598 288.327 Q167.987 288.327 166.158 291.891 Q164.352 295.433 164.352 302.563 Q164.352 309.669 166.158 313.234 Q167.987 316.775 171.598 316.775 Q175.232 316.775 177.038 313.234 Q178.866 309.669 178.866 302.563 Q178.866 295.433 177.038 291.891 Q175.232 288.327 171.598 288.327 M171.598 284.623 Q177.408 284.623 180.464 289.229 Q183.542 293.813 183.542 302.563 Q183.542 311.289 180.464 315.896 Q177.408 320.479 171.598 320.479 Q165.788 320.479 162.709 315.896 Q159.653 311.289 159.653 302.563 Q159.653 293.813 162.709 289.229 Q165.788 284.623 171.598 284.623 Z" fill="#000000" fill-rule="nonzero" fill-opacity="1" /><path clip-path="url(#clip800)" d="M118.404 99.5303 L126.043 99.5303 L126.043 73.1647 L117.732 74.8313 L117.732 70.5721 L125.996 68.9054 L130.672 68.9054 L130.672 99.5303 L138.311 99.5303 L138.311 103.465 L118.404 103.465 L118.404 99.5303 Z" fill="#000000" fill-rule="nonzero" fill-opacity="1" /><path clip-path="url(#clip800)" d="M147.755 97.5858 L152.64 97.5858 L152.64 103.465 L147.755 103.465 L147.755 97.5858 Z" fill="#000000" fill-rule="nonzero" fill-opacity="1" /><path clip-path="url(#clip800)" d="M163.635 99.5303 L171.274 99.5303 L171.274 73.1647 L162.964 74.8313 L162.964 70.5721 L171.227 68.9054 L175.903 68.9054 L175.903 99.5303 L183.542 99.5303 L183.542 103.465 L163.635 103.465 L163.635 99.5303 Z" fill="#000000" fill-rule="nonzero" fill-opacity="1" /><path clip-path="url(#clip800)" d="M30.8561 720.775 Q31.307 720.775 32.3698 721.064 L57.5548 727.377 Q63.1586 728.762 67.0877 733.27 Q71.0168 737.747 71.0168 742.836 Q71.0168 745.895 69.3743 747.86 Q67.764 749.824 65.2842 749.824 Q63.0942 749.824 62.0314 748.665 Q61.0008 747.505 61.0008 746.121 Q61.0008 745.67 61.1296 745.187 Q61.2584 744.703 61.8059 744.188 Q62.3534 743.673 63.2874 743.673 Q64.8011 743.673 65.9927 744.993 Q66.5402 745.637 66.669 746.249 Q66.7978 746.829 66.7978 747.827 Q67.6996 747.441 68.3115 746.732 Q68.9234 746.024 69.1489 745.219 Q69.4065 744.414 69.4709 743.898 Q69.5675 743.351 69.5675 742.836 Q69.5675 738.713 65.413 735.557 Q64.157 734.623 62.9009 733.947 Q61.6771 733.238 60.1634 732.723 Q58.682 732.208 57.8768 731.982 Q57.0717 731.725 55.2359 731.274 Q58.2311 734.269 58.2311 737.94 Q58.2311 739.486 57.8124 740.871 Q57.3937 742.224 56.5242 743.415 Q55.6224 744.607 54.0443 745.315 Q52.4662 745.992 50.3728 745.992 Q48.1506 745.992 45.1233 745.122 Q42.0959 744.253 36.5243 742.159 Q33.4004 741.032 31.8867 741.032 Q31.146 741.032 30.6951 741.193 Q30.212 741.354 30.051 741.676 Q29.8577 741.998 29.8255 742.191 Q29.7933 742.352 29.7933 742.675 Q29.7933 744.575 31.7257 746.346 Q33.658 748.117 37.9736 749.341 Q38.7787 749.599 38.972 749.76 Q39.1652 749.921 39.1652 750.404 Q39.133 751.209 38.4889 751.209 Q38.2312 751.209 37.2329 750.919 Q36.2023 750.629 34.6886 749.953 Q33.1427 749.245 31.7579 748.278 Q30.3408 747.312 29.3424 745.798 Q28.344 744.253 28.344 742.481 Q28.344 740.066 29.9221 738.584 Q31.468 737.071 33.7546 737.071 Q34.6886 737.071 35.5259 737.328 Q36.3311 737.554 38.4889 738.391 Q47.1845 741.773 51.4356 741.773 Q52.4662 741.773 53.3358 741.612 Q54.1731 741.418 55.0105 741 Q55.8156 740.581 56.2987 739.744 Q56.7496 738.874 56.7496 737.683 Q56.7496 736.169 56.0411 734.752 Q55.3003 733.303 54.302 732.401 Q53.3036 731.467 52.4662 730.919 Q51.5967 730.34 51.1458 730.211 L39.294 727.248 L34.0123 725.927 Q31.146 725.316 30.4374 725.026 Q29.7611 724.639 29.4068 723.963 Q29.0526 723.287 29.0526 722.707 Q29.0526 721.902 29.5357 721.354 Q30.0187 720.775 30.8561 720.775 Z" fill="#000000" fill-rule="nonzero" fill-opacity="1" /><polyline clip-path="url(#clip802)" style="stroke:#e26f46; stroke-linecap:round; stroke-linejoin:round; stroke-width:8; stroke-opacity:1; fill:none" stroke-dasharray="32, 20" points="279.916,189.075 283.847,202.023 287.777,201.504 291.708,193.256 295.639,194.945 299.569,196.055 303.5,190.918 307.43,204.653 311.361,173.227 315.292,181.956 319.222,189.863 323.153,183.074 327.083,197.394 331.014,212.157 334.945,197.053 338.875,160.443 342.806,143.236 346.736,127.229 350.667,106.895 354.598,104.458 358.528,110.209 362.459,101.425 366.389,100.369 370.32,107.219 374.25,99.4419 378.181,107.578 382.112,104.374 386.042,108.95 389.973,111.798 393.903,122.735 397.834,117.579 401.765,106.812 405.695,107.078 409.626,105.241 413.556,99.3276 417.487,95.2847 421.418,94.3166 425.348,96.9038 429.279,93.7375 433.209,93.8844 437.14,91.0451 441.071,91.5585 445.001,95.6404 448.932,87.0903 452.862,86.1857 456.793,86.3953 460.724,88.2687 464.654,86.3221 468.585,86.74 472.515,95.5932 476.446,91.2092 480.377,88.6265 484.307,88.7365 488.238,86.1895 492.168,88.0311 496.099,91.2446 500.03,86.5004 503.96,89.0334 507.891,86.1978 511.821,87.3139 515.752,86.1986 519.683,86.876 523.613,92.1761 527.544,97.1242 531.474,105.745 535.405,107.426 539.336,110.137 543.266,109.812 547.197,121.134 551.127,127.092 555.058,127.876 558.989,109.986 562.919,95.7713 566.85,92.624 570.78,94.6823 574.711,87.9469 578.642,87.8341 582.572,86.4033 586.503,86.4132 590.433,86.2599 594.364,86.1859 598.295,88.5514 602.225,86.2688 606.156,87.1665 610.086,86.5869 614.017,86.7478 617.948,87.3173 621.878,86.4995 625.809,88.9689 629.739,88.1463 633.67,87.1887 637.601,88.4131 641.531,87.4614 645.462,88.9501 649.392,86.7086 653.323,86.9313 657.253,86.3511 661.184,86.459 665.115,91.0367 669.045,92.3015 672.976,103.978 676.906,117.645 680.837,128.246 684.768,147.792 688.698,144.596 692.629,137.795 696.559,158.404 700.49,144.887 704.421,146.825 708.351,142.062 712.282,160.11 716.212,166.449 720.143,178.75 724.074,181.726 728.004,181.042 731.935,160.553 735.865,148.021 739.796,131.899 743.727,142.288 747.657,146.051 751.588,159.857 755.518,126.581 759.449,151.785 763.38,159.75 767.31,132.63 771.241,145.154 775.171,136.395 779.102,126.141 783.033,146.534 786.963,172.459 790.894,159.034 794.824,207.572 798.755,193.217 802.686,203.598 806.616,170.441 810.547,183.1 814.477,179.488 818.408,170.86 822.339,198.845 826.269,222.203 830.2,205.474 834.13,181.488 838.061,164.394 841.992,158.086 845.922,179.879 849.853,146.756 853.783,135.87 857.714,105.037 861.645,102.977 865.575,115.011 869.506,104.564 873.436,94.5207 877.367,95.2849 881.298,107.002 885.228,127.084 889.159,110.532 893.089,105.108 897.02,113.314 900.951,115.328 904.881,90.72 908.812,96.6262 912.742,92.5491 916.673,97.9464 920.604,118.945 924.534,108.275 928.465,122.204 932.395,109.513 936.326,135.154 940.256,137.184 944.187,127.997 948.118,146.023 952.048,146.885 955.979,168.086 959.909,211.003 963.84,229.221 967.771,251.133 971.701,284.245 975.632,244.529 979.562,261.073 983.493,171.987 987.424,189.683 991.354,195.503 995.285,181.962 999.215,145.777 1003.15,144.236 1007.08,126.731 1011.01,153.963 1014.94,161.282 1018.87,137.842 1022.8,160.126 1026.73,136.315 1030.66,117.582 1034.59,101.812 1038.52,119.855 1042.45,127.23 1046.38,158.698 1050.31,127.285 1054.24,137.719 1058.17,114.172 1062.11,140.356 1066.04,127.667 1069.97,116.154 1073.9,115.802 1077.83,143.837 1081.76,132.327 1085.69,131.067 1089.62,110.706 1093.55,114.004 1097.48,100.179 1101.41,94.7647 1105.34,106.674 1109.27,102.073 1113.2,109.17 1117.13,103.54 1121.06,116.811 1124.99,127.874 1128.93,125.968 1132.86,135.486 1136.79,141.651 1140.72,123.601 1144.65,120.627 1148.58,122.832 1152.51,110.696 1156.44,114.614 1160.37,127.209 1164.3,118.879 1168.23,125.526 1172.16,111.428 1176.09,118.571 1180.02,131.417 1183.95,116.369 1187.88,108.947 1191.81,123.626 1195.75,133.935 1199.68,147.133 1203.61,162.733 1207.54,148.324 1211.47,156.215 1215.4,155.374 1219.33,163.025 1223.26,155.551 1227.19,171.823 1231.12,154.145 1235.05,159.465 1238.98,139.323 1242.91,140.156 1246.84,169.674 1250.77,158.124 1254.7,170.688 1258.63,190.472 1262.57,192.929 1266.5,174.289 1270.43,207.956 1274.36,229.687 1278.29,182.472 1282.22,185.663 1286.15,169.037 1290.08,166.266 1294.01,159.119 1297.94,150.377 1301.87,155.73 1305.8,132.58 1309.73,160.205 1313.66,164.394 1317.59,193.111 1321.52,189.709 1325.46,194.567 1329.39,190.975 1333.32,184.557 1337.25,175.991 1341.18,175.548 1345.11,155.115 1349.04,114.433 1352.97,111.774 1356.9,108.91 1360.83,106.94 1364.76,106.165 1368.69,95.6219 1372.62,104.16 1376.55,126.95 1380.48,116.159 1384.41,135.221 1388.34,127.43 1392.28,165.368 1396.21,205.7 1400.14,180.238 1404.07,187.658 1408,144.945 1411.93,161.946 1415.86,144.572 1419.79,136.348 1423.72,146.499 1427.65,126.606 1431.58,131.503 1435.51,162.039 1439.44,169.602 1443.37,188.291 1447.3,159.438 1451.23,227.66 1455.16,236.475 1459.1,298.487 1463.03,360.586 1466.96,334.184 1470.89,439.973 1474.82,512.095 1478.75,430.045 1482.68,395.962 1486.61,391.601 1490.54,365.658 1494.47,418.506 1498.4,453.442 1502.33,411.169 1506.26,458.266 1510.19,456.016 1514.12,479.233 1518.05,468.176 1521.98,469.192 1525.92,457.515 1529.85,424.226 1533.78,288.21 1537.71,322.989 1541.64,316.075 1545.57,353.512 1549.5,320.431 1553.43,305.652 1557.36,317.767 1561.29,339.976 1565.22,295.952 1569.15,252.884 1573.08,267.75 1577.01,279.473 1580.94,266.98 1584.87,276.099 1588.81,274.186 1592.74,298.8 1596.67,325.654 1600.6,356.017 1604.53,301.972 1608.46,312.873 1612.39,337.324 1616.32,391.083 1620.25,448.06 1624.18,499.952 1628.11,492.195 1632.04,485.631 1635.97,429.261 1639.9,510.71 1643.83,424.203 1647.76,416.671 1651.69,434.54 1655.63,452.849 1659.56,509.607 1663.49,542.512 1667.42,639.895 1671.35,649.772 1675.28,666.653 1679.21,732.586 1683.14,771.787 1687.07,705.857 1691,756.071 1694.93,820.552 1698.86,660.333 1702.79,629.514 1706.72,642.085 1710.65,590.035 1714.58,783.666 1718.51,804.737 1722.45,722.512 1726.38,702.758 1730.31,764.717 1734.24,747.946 1738.17,795.214 1742.1,825.874 1746.03,772.352 1749.96,867.797 1753.89,941.141 1757.82,967.053 1761.75,873.991 1765.68,735.919 1769.61,861.728 1773.54,837.171 1777.47,807.875 1781.4,822.348 1785.33,832.096 1789.27,968.292 1793.2,1021.69 1797.13,1087.54 1801.06,1238.48 1804.99,1255.01 1808.92,1284.87 1812.85,1276.71 1816.78,1160.26 1820.71,1237.05 1824.64,1225.61 1828.57,1216.06 1832.5,1232.68 1836.43,1262.62 1840.36,1193.4 1844.29,1160.39 1848.22,1139.36 1852.16,1190.41 1856.09,1176.19 1860.02,1189.68 1863.95,1212.35 1867.88,1301.78 1871.81,1348.59 1875.74,1381.83 1879.67,1379.61 1883.6,1373.44 1887.53,1343.1 1891.46,1370.14 1895.39,1345.72 1899.32,1362.3 1903.25,1363.23 1907.18,1353.48 1911.11,1368.62 1915.04,1335.34 1918.98,1353.21 1922.91,1298.51 1926.84,1236.33 1930.77,1288.15 1934.7,1187.08 1938.63,1113.66 1942.56,1191.41 1946.49,1236.05 1950.42,1335.06 1954.35,1383.21 1958.28,1382.23 1962.21,1380 1966.14,1382.82 1970.07,1371.83 1974,1384.23 1977.93,1369.97 1981.86,1346.92 1985.8,1284.74 1989.73,1344.2 1993.66,1377.2 1997.59,1381.97 2001.52,1378.62 2005.45,1381.88 2009.38,1376.63 2013.31,1330.82 2017.24,1309.3 2021.17,1278.32 2025.1,1301.14 2029.03,1376.34 2032.96,1351.24 2036.89,1308.04 2040.82,1234.83 2044.75,1240.47 2048.68,1295.16 2052.62,1295.21 2056.55,1250.3 2060.48,1262.37 2064.41,1275.1 2068.34,1198.74 2072.27,1293.11 2076.2,1216.01 2080.13,1098.5 2084.06,1173.56 2087.99,1282.08 2091.92,1336.55 2095.85,1325.3 2099.78,1336.54 2103.71,1320.66 2107.64,1272.66 2111.57,1235.58 2115.51,1256.4 2119.44,1302.42 2123.37,1376.6 2127.3,1370.3 2131.23,1368.77 2135.16,1384.24 2139.09,1375.7 2143.02,1321.44 2146.95,1319.66 2150.88,1289.39 2154.81,1239.64 2158.74,1184.48 2162.67,1054.57 2166.6,1035.24 2170.53,942.945 2174.46,962.335 2178.39,916.183 2182.33,1018.32 2186.26,1019.9 2190.19,1056.12 2194.12,1171.9 2198.05,1162.77 2201.98,1165.57 2205.91,1061.82 2209.84,655.037 2213.77,440.378 2217.7,522.617 2221.63,567.173 2225.56,703.052 2229.49,934.039 2233.42,926.878 2237.35,1052.39 2241.28,982.081 2245.21,962.458 2249.15,866.029 2253.08,824.884 2257.01,922.724 2260.94,951.459 2264.87,857.845 2268.8,815.142 2272.73,798.64 2276.66,725.126 2280.59,743.892 2284.52,736.562 2288.45,767.698 2292.38,774.291 "/>
<path clip-path="url(#clip800)" d="M2014.16 196.789 L2281.65 196.789 L2281.65 93.1086 L2014.16 93.1086  Z" fill="#ffffff" fill-rule="evenodd" fill-opacity="1"/>
<polyline clip-path="url(#clip800)" style="stroke:#000000; stroke-linecap:round; stroke-linejoin:round; stroke-width:4; stroke-opacity:1; fill:none" points="2014.16,196.789 2281.65,196.789 2281.65,93.1086 2014.16,93.1086 2014.16,196.789 "/>
<polyline clip-path="url(#clip800)" style="stroke:#e26f46; stroke-linecap:round; stroke-linejoin:round; stroke-width:8; stroke-opacity:1; fill:none" stroke-dasharray="32, 20" points="2037.87,144.949 2180.08,144.949 "/>
<path clip-path="url(#clip800)" d="M2237.84 121.407 L2234.82 133.634 Q2234.61 134.407 2234.47 134.5 Q2234.35 134.594 2233.97 134.594 Q2233.25 134.594 2233.25 134.102 Q2233.25 134.055 2233.32 133.446 Q2233.39 132.814 2233.39 131.666 Q2233.39 127.427 2231.33 124.92 Q2229.29 122.414 2225.66 122.414 Q2222.26 122.414 2219.01 124.194 Q2215.75 125.974 2213.67 128.598 Q2211.91 130.753 2210.69 133.376 Q2209.5 135.999 2209.01 138.295 Q2208.51 140.567 2208.33 141.949 Q2208.16 143.33 2208.16 144.221 Q2208.16 146.844 2209.01 148.882 Q2209.85 150.896 2211.25 152.044 Q2212.68 153.191 2214.32 153.753 Q2215.99 154.316 2217.79 154.316 Q2218.47 154.316 2219.29 154.222 Q2220.11 154.128 2221.37 153.777 Q2222.66 153.426 2223.72 152.84 Q2224.79 152.254 2225.73 151.13 Q2226.69 150.006 2227.06 148.507 Q2228.07 144.689 2228.07 144.127 Q2228.07 143.658 2227.79 143.494 Q2227.51 143.33 2226.57 143.213 L2224.04 143.12 Q2224 143.12 2223.93 143.12 Q2223.48 143.12 2223.29 143.12 Q2223.11 143.096 2222.9 143.049 Q2222.71 143.003 2222.64 142.909 Q2222.59 142.792 2222.59 142.604 Q2222.59 142.159 2222.78 141.949 Q2222.97 141.714 2223.13 141.691 Q2223.29 141.644 2223.6 141.644 L2230.32 141.785 Q2230.86 141.785 2232.83 141.714 Q2234.79 141.644 2235.36 141.644 Q2235.99 141.644 2235.99 142.159 Q2235.99 143.12 2235.22 143.12 Q2234.44 143.143 2234.04 143.167 Q2233.65 143.167 2233.25 143.284 Q2232.87 143.401 2232.73 143.494 Q2232.59 143.565 2232.41 143.916 Q2232.22 144.244 2232.15 144.525 Q2232.08 144.783 2231.91 145.439 Q2231.82 145.86 2231.59 146.656 Q2231.37 147.453 2231.28 147.874 L2230.37 151.575 Q2229.74 154.316 2229.55 154.503 Q2229.45 154.69 2229.22 154.69 Q2228.87 154.69 2228.12 153.66 Q2227.39 152.629 2227.06 151.716 Q2226.48 152.348 2226.1 152.723 Q2225.73 153.074 2224.86 153.636 Q2224.02 154.198 2222.9 154.644 Q2220.16 155.791 2216.9 155.791 Q2211.09 155.791 2207.44 152.114 Q2203.78 148.413 2203.78 142.651 Q2203.78 138.576 2205.66 134.57 Q2207.53 130.565 2210.51 127.591 Q2213.48 124.616 2217.41 122.766 Q2221.35 120.915 2225.28 120.915 Q2226.78 120.915 2228.12 121.313 Q2229.45 121.712 2230.25 122.203 Q2231.07 122.695 2231.8 123.421 Q2232.52 124.124 2232.76 124.452 Q2233.01 124.78 2233.25 125.178 L2236.6 121.501 Q2237.18 120.915 2237.32 120.915 Q2237.6 120.915 2237.72 121.079 Q2237.84 121.243 2237.84 121.407 Z" fill="#000000" fill-rule="nonzero" fill-opacity="1" /><path clip-path="url(#clip800)" d="M2252.93 154.172 Q2252.93 154.631 2252.72 154.746 Q2252.51 154.844 2251.92 154.844 L2248.77 154.844 L2246.28 164.747 Q2246.08 165.616 2246.08 166.354 Q2246.08 167.174 2246.33 167.535 Q2246.59 167.895 2247.13 167.895 Q2248.2 167.895 2249.34 166.928 Q2250.51 165.961 2251.49 163.6 Q2251.62 163.288 2251.69 163.223 Q2251.77 163.141 2251.98 163.141 Q2252.39 163.141 2252.39 163.469 Q2252.39 163.583 2252.16 164.108 Q2251.95 164.633 2251.48 165.403 Q2251.02 166.174 2250.41 166.895 Q2249.82 167.617 2248.92 168.141 Q2248.02 168.65 2247.05 168.65 Q2245.69 168.65 2244.82 167.781 Q2243.97 166.912 2243.97 165.551 Q2243.97 165.108 2244.31 163.698 Q2244.65 162.272 2246.52 154.844 L2243.56 154.844 Q2243.15 154.844 2242.98 154.828 Q2242.83 154.812 2242.72 154.73 Q2242.62 154.631 2242.62 154.435 Q2242.62 154.123 2242.75 153.992 Q2242.88 153.844 2243.05 153.828 Q2243.23 153.795 2243.64 153.795 L2246.79 153.795 L2248.1 148.467 Q2248.23 147.942 2248.56 147.647 Q2248.9 147.335 2249.1 147.302 Q2249.29 147.253 2249.44 147.253 Q2249.89 147.253 2250.15 147.499 Q2250.41 147.729 2250.41 148.155 Q2250.41 148.385 2249.03 153.795 L2251.98 153.795 Q2252.36 153.795 2252.51 153.812 Q2252.67 153.828 2252.8 153.91 Q2252.93 153.992 2252.93 154.172 Z" fill="#000000" fill-rule="nonzero" fill-opacity="1" /></svg>
