<?xml version="1.0" encoding="utf-8"?>
<svg xmlns="http://www.w3.org/2000/svg" xmlns:xlink="http://www.w3.org/1999/xlink" width="600" height="400" viewBox="0 0 2400 1600">
<defs>
  <clipPath id="clip740">
    <rect x="0" y="0" width="2400" height="1600"/>
  </clipPath>
</defs>
<path clip-path="url(#clip740)" d="M0 1600 L2400 1600 L2400 0 L0 0  Z" fill="#ffffff" fill-rule="evenodd" fill-opacity="1"/>
<defs>
  <clipPath id="clip741">
    <rect x="480" y="0" width="1681" height="1600"/>
  </clipPath>
</defs>
<path clip-path="url(#clip740)" d="M175.445 1423.18 L2352.76 1423.18 L2352.76 47.2441 L175.445 47.2441  Z" fill="#ffffff" fill-rule="evenodd" fill-opacity="1"/>
<defs>
  <clipPath id="clip742">
    <rect x="175" y="47" width="2178" height="1377"/>
  </clipPath>
</defs>
<polyline clip-path="url(#clip742)" style="stroke:#000000; stroke-linecap:round; stroke-linejoin:round; stroke-width:2; stroke-opacity:0.1; fill:none" points="237.067,1423.18 237.067,47.2441 "/>
<polyline clip-path="url(#clip742)" style="stroke:#000000; stroke-linecap:round; stroke-linejoin:round; stroke-width:2; stroke-opacity:0.1; fill:none" points="750.584,1423.18 750.584,47.2441 "/>
<polyline clip-path="url(#clip742)" style="stroke:#000000; stroke-linecap:round; stroke-linejoin:round; stroke-width:2; stroke-opacity:0.1; fill:none" points="1264.1,1423.18 1264.1,47.2441 "/>
<polyline clip-path="url(#clip742)" style="stroke:#000000; stroke-linecap:round; stroke-linejoin:round; stroke-width:2; stroke-opacity:0.1; fill:none" points="1777.62,1423.18 1777.62,47.2441 "/>
<polyline clip-path="url(#clip742)" style="stroke:#000000; stroke-linecap:round; stroke-linejoin:round; stroke-width:2; stroke-opacity:0.1; fill:none" points="2291.13,1423.18 2291.13,47.2441 "/>
<polyline clip-path="url(#clip740)" style="stroke:#000000; stroke-linecap:round; stroke-linejoin:round; stroke-width:4; stroke-opacity:1; fill:none" points="175.445,1423.18 2352.76,1423.18 "/>
<polyline clip-path="url(#clip740)" style="stroke:#000000; stroke-linecap:round; stroke-linejoin:round; stroke-width:4; stroke-opacity:1; fill:none" points="237.067,1423.18 237.067,1404.28 "/>
<polyline clip-path="url(#clip740)" style="stroke:#000000; stroke-linecap:round; stroke-linejoin:round; stroke-width:4; stroke-opacity:1; fill:none" points="750.584,1423.18 750.584,1404.28 "/>
<polyline clip-path="url(#clip740)" style="stroke:#000000; stroke-linecap:round; stroke-linejoin:round; stroke-width:4; stroke-opacity:1; fill:none" points="1264.1,1423.18 1264.1,1404.28 "/>
<polyline clip-path="url(#clip740)" style="stroke:#000000; stroke-linecap:round; stroke-linejoin:round; stroke-width:4; stroke-opacity:1; fill:none" points="1777.62,1423.18 1777.62,1404.28 "/>
<polyline clip-path="url(#clip740)" style="stroke:#000000; stroke-linecap:round; stroke-linejoin:round; stroke-width:4; stroke-opacity:1; fill:none" points="2291.13,1423.18 2291.13,1404.28 "/>
<path clip-path="url(#clip740)" d="M199.371 1454.1 Q195.76 1454.1 193.931 1457.66 Q192.125 1461.2 192.125 1468.33 Q192.125 1475.44 193.931 1479.01 Q195.76 1482.55 199.371 1482.55 Q203.005 1482.55 204.81 1479.01 Q206.639 1475.44 206.639 1468.33 Q206.639 1461.2 204.81 1457.66 Q203.005 1454.1 199.371 1454.1 M199.371 1450.39 Q205.181 1450.39 208.236 1455 Q211.315 1459.58 211.315 1468.33 Q211.315 1477.06 208.236 1481.67 Q205.181 1486.25 199.371 1486.25 Q193.56 1486.25 190.482 1481.67 Q187.426 1477.06 187.426 1468.33 Q187.426 1459.58 190.482 1455 Q193.56 1450.39 199.371 1450.39 Z" fill="#000000" fill-rule="nonzero" fill-opacity="1" /><path clip-path="url(#clip740)" d="M219.533 1479.7 L224.417 1479.7 L224.417 1485.58 L219.533 1485.58 L219.533 1479.7 Z" fill="#000000" fill-rule="nonzero" fill-opacity="1" /><path clip-path="url(#clip740)" d="M244.602 1454.1 Q240.991 1454.1 239.162 1457.66 Q237.357 1461.2 237.357 1468.33 Q237.357 1475.44 239.162 1479.01 Q240.991 1482.55 244.602 1482.55 Q248.236 1482.55 250.042 1479.01 Q251.87 1475.44 251.87 1468.33 Q251.87 1461.2 250.042 1457.66 Q248.236 1454.1 244.602 1454.1 M244.602 1450.39 Q250.412 1450.39 253.468 1455 Q256.546 1459.58 256.546 1468.33 Q256.546 1477.06 253.468 1481.67 Q250.412 1486.25 244.602 1486.25 Q238.792 1486.25 235.713 1481.67 Q232.658 1477.06 232.658 1468.33 Q232.658 1459.58 235.713 1455 Q238.792 1450.39 244.602 1450.39 Z" fill="#000000" fill-rule="nonzero" fill-opacity="1" /><path clip-path="url(#clip740)" d="M274.764 1454.1 Q271.153 1454.1 269.324 1457.66 Q267.518 1461.2 267.518 1468.33 Q267.518 1475.44 269.324 1479.01 Q271.153 1482.55 274.764 1482.55 Q278.398 1482.55 280.204 1479.01 Q282.032 1475.44 282.032 1468.33 Q282.032 1461.2 280.204 1457.66 Q278.398 1454.1 274.764 1454.1 M274.764 1450.39 Q280.574 1450.39 283.629 1455 Q286.708 1459.58 286.708 1468.33 Q286.708 1477.06 283.629 1481.67 Q280.574 1486.25 274.764 1486.25 Q268.954 1486.25 265.875 1481.67 Q262.819 1477.06 262.819 1468.33 Q262.819 1459.58 265.875 1455 Q268.954 1450.39 274.764 1450.39 Z" fill="#000000" fill-rule="nonzero" fill-opacity="1" /><path clip-path="url(#clip740)" d="M713.385 1454.1 Q709.774 1454.1 707.945 1457.66 Q706.14 1461.2 706.14 1468.33 Q706.14 1475.44 707.945 1479.01 Q709.774 1482.55 713.385 1482.55 Q717.019 1482.55 718.825 1479.01 Q720.653 1475.44 720.653 1468.33 Q720.653 1461.2 718.825 1457.66 Q717.019 1454.1 713.385 1454.1 M713.385 1450.39 Q719.195 1450.39 722.251 1455 Q725.329 1459.58 725.329 1468.33 Q725.329 1477.06 722.251 1481.67 Q719.195 1486.25 713.385 1486.25 Q707.575 1486.25 704.496 1481.67 Q701.441 1477.06 701.441 1468.33 Q701.441 1459.58 704.496 1455 Q707.575 1450.39 713.385 1450.39 Z" fill="#000000" fill-rule="nonzero" fill-opacity="1" /><path clip-path="url(#clip740)" d="M733.547 1479.7 L738.431 1479.7 L738.431 1485.58 L733.547 1485.58 L733.547 1479.7 Z" fill="#000000" fill-rule="nonzero" fill-opacity="1" /><path clip-path="url(#clip740)" d="M752.644 1481.64 L768.963 1481.64 L768.963 1485.58 L747.019 1485.58 L747.019 1481.64 Q749.681 1478.89 754.264 1474.26 Q758.871 1469.61 760.051 1468.27 Q762.297 1465.74 763.176 1464.01 Q764.079 1462.25 764.079 1460.56 Q764.079 1457.8 762.135 1456.07 Q760.213 1454.33 757.112 1454.33 Q754.913 1454.33 752.459 1455.09 Q750.028 1455.86 747.251 1457.41 L747.251 1452.69 Q750.075 1451.55 752.528 1450.97 Q754.982 1450.39 757.019 1450.39 Q762.389 1450.39 765.584 1453.08 Q768.778 1455.77 768.778 1460.26 Q768.778 1462.39 767.968 1464.31 Q767.181 1466.2 765.075 1468.8 Q764.496 1469.47 761.394 1472.69 Q758.292 1475.88 752.644 1481.64 Z" fill="#000000" fill-rule="nonzero" fill-opacity="1" /><path clip-path="url(#clip740)" d="M778.824 1451.02 L797.181 1451.02 L797.181 1454.96 L783.107 1454.96 L783.107 1463.43 Q784.125 1463.08 785.144 1462.92 Q786.162 1462.73 787.181 1462.73 Q792.968 1462.73 796.348 1465.9 Q799.727 1469.08 799.727 1474.49 Q799.727 1480.07 796.255 1483.17 Q792.783 1486.25 786.463 1486.25 Q784.287 1486.25 782.019 1485.88 Q779.774 1485.51 777.366 1484.77 L777.366 1480.07 Q779.449 1481.2 781.672 1481.76 Q783.894 1482.32 786.371 1482.32 Q790.375 1482.32 792.713 1480.21 Q795.051 1478.1 795.051 1474.49 Q795.051 1470.88 792.713 1468.77 Q790.375 1466.67 786.371 1466.67 Q784.496 1466.67 782.621 1467.08 Q780.769 1467.5 778.824 1468.38 L778.824 1451.02 Z" fill="#000000" fill-rule="nonzero" fill-opacity="1" /><path clip-path="url(#clip740)" d="M1226.4 1454.1 Q1222.79 1454.1 1220.96 1457.66 Q1219.16 1461.2 1219.16 1468.33 Q1219.16 1475.44 1220.96 1479.01 Q1222.79 1482.55 1226.4 1482.55 Q1230.04 1482.55 1231.84 1479.01 Q1233.67 1475.44 1233.67 1468.33 Q1233.67 1461.2 1231.84 1457.66 Q1230.04 1454.1 1226.4 1454.1 M1226.4 1450.39 Q1232.21 1450.39 1235.27 1455 Q1238.35 1459.58 1238.35 1468.33 Q1238.35 1477.06 1235.27 1481.67 Q1232.21 1486.25 1226.4 1486.25 Q1220.59 1486.25 1217.52 1481.67 Q1214.46 1477.06 1214.46 1468.33 Q1214.46 1459.58 1217.52 1455 Q1220.59 1450.39 1226.4 1450.39 Z" fill="#000000" fill-rule="nonzero" fill-opacity="1" /><path clip-path="url(#clip740)" d="M1246.57 1479.7 L1251.45 1479.7 L1251.45 1485.58 L1246.57 1485.58 L1246.57 1479.7 Z" fill="#000000" fill-rule="nonzero" fill-opacity="1" /><path clip-path="url(#clip740)" d="M1261.68 1451.02 L1280.04 1451.02 L1280.04 1454.96 L1265.96 1454.96 L1265.96 1463.43 Q1266.98 1463.08 1268 1462.92 Q1269.02 1462.73 1270.04 1462.73 Q1275.83 1462.73 1279.2 1465.9 Q1282.58 1469.08 1282.58 1474.49 Q1282.58 1480.07 1279.11 1483.17 Q1275.64 1486.25 1269.32 1486.25 Q1267.14 1486.25 1264.88 1485.88 Q1262.63 1485.51 1260.22 1484.77 L1260.22 1480.07 Q1262.31 1481.2 1264.53 1481.76 Q1266.75 1482.32 1269.23 1482.32 Q1273.23 1482.32 1275.57 1480.21 Q1277.91 1478.1 1277.91 1474.49 Q1277.91 1470.88 1275.57 1468.77 Q1273.23 1466.67 1269.23 1466.67 Q1267.35 1466.67 1265.48 1467.08 Q1263.63 1467.5 1261.68 1468.38 L1261.68 1451.02 Z" fill="#000000" fill-rule="nonzero" fill-opacity="1" /><path clip-path="url(#clip740)" d="M1301.8 1454.1 Q1298.19 1454.1 1296.36 1457.66 Q1294.55 1461.2 1294.55 1468.33 Q1294.55 1475.44 1296.36 1479.01 Q1298.19 1482.55 1301.8 1482.55 Q1305.43 1482.55 1307.24 1479.01 Q1309.07 1475.44 1309.07 1468.33 Q1309.07 1461.2 1307.24 1457.66 Q1305.43 1454.1 1301.8 1454.1 M1301.8 1450.39 Q1307.61 1450.39 1310.66 1455 Q1313.74 1459.58 1313.74 1468.33 Q1313.74 1477.06 1310.66 1481.67 Q1307.61 1486.25 1301.8 1486.25 Q1295.99 1486.25 1292.91 1481.67 Q1289.85 1477.06 1289.85 1468.33 Q1289.85 1459.58 1292.91 1455 Q1295.99 1450.39 1301.8 1450.39 Z" fill="#000000" fill-rule="nonzero" fill-opacity="1" /><path clip-path="url(#clip740)" d="M1740.42 1454.1 Q1736.81 1454.1 1734.98 1457.66 Q1733.17 1461.2 1733.17 1468.33 Q1733.17 1475.44 1734.98 1479.01 Q1736.81 1482.55 1740.42 1482.55 Q1744.05 1482.55 1745.86 1479.01 Q1747.69 1475.44 1747.69 1468.33 Q1747.69 1461.2 1745.86 1457.66 Q1744.05 1454.1 1740.42 1454.1 M1740.42 1450.39 Q1746.23 1450.39 1749.28 1455 Q1752.36 1459.58 1752.36 1468.33 Q1752.36 1477.06 1749.28 1481.67 Q1746.23 1486.25 1740.42 1486.25 Q1734.61 1486.25 1731.53 1481.67 Q1728.47 1477.06 1728.47 1468.33 Q1728.47 1459.58 1731.53 1455 Q1734.61 1450.39 1740.42 1450.39 Z" fill="#000000" fill-rule="nonzero" fill-opacity="1" /><path clip-path="url(#clip740)" d="M1760.58 1479.7 L1765.46 1479.7 L1765.46 1485.58 L1760.58 1485.58 L1760.58 1479.7 Z" fill="#000000" fill-rule="nonzero" fill-opacity="1" /><path clip-path="url(#clip740)" d="M1774.47 1451.02 L1796.69 1451.02 L1796.69 1453.01 L1784.14 1485.58 L1779.26 1485.58 L1791.07 1454.96 L1774.47 1454.96 L1774.47 1451.02 Z" fill="#000000" fill-rule="nonzero" fill-opacity="1" /><path clip-path="url(#clip740)" d="M1805.86 1451.02 L1824.21 1451.02 L1824.21 1454.96 L1810.14 1454.96 L1810.14 1463.43 Q1811.16 1463.08 1812.18 1462.92 Q1813.2 1462.73 1814.21 1462.73 Q1820 1462.73 1823.38 1465.9 Q1826.76 1469.08 1826.76 1474.49 Q1826.76 1480.07 1823.29 1483.17 Q1819.82 1486.25 1813.5 1486.25 Q1811.32 1486.25 1809.05 1485.88 Q1806.81 1485.51 1804.4 1484.77 L1804.4 1480.07 Q1806.48 1481.2 1808.71 1481.76 Q1810.93 1482.32 1813.4 1482.32 Q1817.41 1482.32 1819.75 1480.21 Q1822.08 1478.1 1822.08 1474.49 Q1822.08 1470.88 1819.75 1468.77 Q1817.41 1466.67 1813.4 1466.67 Q1811.53 1466.67 1809.65 1467.08 Q1807.8 1467.5 1805.86 1468.38 L1805.86 1451.02 Z" fill="#000000" fill-rule="nonzero" fill-opacity="1" /><path clip-path="url(#clip740)" d="M2243.21 1481.64 L2250.84 1481.64 L2250.84 1455.28 L2242.53 1456.95 L2242.53 1452.69 L2250.8 1451.02 L2255.47 1451.02 L2255.47 1481.64 L2263.11 1481.64 L2263.11 1485.58 L2243.21 1485.58 L2243.21 1481.64 Z" fill="#000000" fill-rule="nonzero" fill-opacity="1" /><path clip-path="url(#clip740)" d="M2272.56 1479.7 L2277.44 1479.7 L2277.44 1485.58 L2272.56 1485.58 L2272.56 1479.7 Z" fill="#000000" fill-rule="nonzero" fill-opacity="1" /><path clip-path="url(#clip740)" d="M2297.63 1454.1 Q2294.02 1454.1 2292.19 1457.66 Q2290.38 1461.2 2290.38 1468.33 Q2290.38 1475.44 2292.19 1479.01 Q2294.02 1482.55 2297.63 1482.55 Q2301.26 1482.55 2303.07 1479.01 Q2304.9 1475.44 2304.9 1468.33 Q2304.9 1461.2 2303.07 1457.66 Q2301.26 1454.1 2297.63 1454.1 M2297.63 1450.39 Q2303.44 1450.39 2306.49 1455 Q2309.57 1459.58 2309.57 1468.33 Q2309.57 1477.06 2306.49 1481.67 Q2303.44 1486.25 2297.63 1486.25 Q2291.82 1486.25 2288.74 1481.67 Q2285.68 1477.06 2285.68 1468.33 Q2285.68 1459.58 2288.74 1455 Q2291.82 1450.39 2297.63 1450.39 Z" fill="#000000" fill-rule="nonzero" fill-opacity="1" /><path clip-path="url(#clip740)" d="M2327.79 1454.1 Q2324.18 1454.1 2322.35 1457.66 Q2320.54 1461.2 2320.54 1468.33 Q2320.54 1475.44 2322.35 1479.01 Q2324.18 1482.55 2327.79 1482.55 Q2331.42 1482.55 2333.23 1479.01 Q2335.06 1475.44 2335.06 1468.33 Q2335.06 1461.2 2333.23 1457.66 Q2331.42 1454.1 2327.79 1454.1 M2327.79 1450.39 Q2333.6 1450.39 2336.65 1455 Q2339.73 1459.58 2339.73 1468.33 Q2339.73 1477.06 2336.65 1481.67 Q2333.6 1486.25 2327.79 1486.25 Q2321.98 1486.25 2318.9 1481.67 Q2315.84 1477.06 2315.84 1468.33 Q2315.84 1459.58 2318.9 1455 Q2321.98 1450.39 2327.79 1450.39 Z" fill="#000000" fill-rule="nonzero" fill-opacity="1" /><path clip-path="url(#clip740)" d="M1272.57 1531.91 Q1272.57 1532.81 1272.15 1533.04 Q1271.73 1533.23 1270.57 1533.23 L1264.39 1533.23 L1259.5 1552.69 Q1259.11 1554.39 1259.11 1555.84 Q1259.11 1557.45 1259.59 1558.16 Q1260.11 1558.87 1261.17 1558.87 Q1263.26 1558.87 1265.52 1556.97 Q1267.81 1555.07 1269.74 1550.43 Q1270 1549.82 1270.12 1549.69 Q1270.28 1549.53 1270.7 1549.53 Q1271.51 1549.53 1271.51 1550.17 Q1271.51 1550.4 1271.06 1551.43 Q1270.64 1552.46 1269.71 1553.97 Q1268.8 1555.49 1267.61 1556.9 Q1266.45 1558.32 1264.68 1559.35 Q1262.91 1560.35 1261.01 1560.35 Q1258.34 1560.35 1256.63 1558.64 Q1254.95 1556.94 1254.95 1554.26 Q1254.95 1553.39 1255.63 1550.62 Q1256.31 1547.82 1259.98 1533.23 L1254.15 1533.23 Q1253.34 1533.23 1253.02 1533.2 Q1252.73 1533.17 1252.51 1533.01 Q1252.31 1532.81 1252.31 1532.43 Q1252.31 1531.82 1252.57 1531.56 Q1252.83 1531.27 1253.15 1531.24 Q1253.51 1531.17 1254.31 1531.17 L1260.49 1531.17 L1263.07 1520.71 Q1263.33 1519.67 1263.97 1519.09 Q1264.65 1518.48 1265.04 1518.42 Q1265.42 1518.32 1265.71 1518.32 Q1266.58 1518.32 1267.1 1518.81 Q1267.61 1519.26 1267.61 1520.09 Q1267.61 1520.54 1264.91 1531.17 L1270.7 1531.17 Q1271.44 1531.17 1271.73 1531.2 Q1272.06 1531.24 1272.31 1531.4 Q1272.57 1531.56 1272.57 1531.91 Z" fill="#000000" fill-rule="nonzero" fill-opacity="1" /><polyline clip-path="url(#clip742)" style="stroke:#000000; stroke-linecap:round; stroke-linejoin:round; stroke-width:2; stroke-opacity:0.1; fill:none" points="175.445,1384.24 2352.76,1384.24 "/>
<polyline clip-path="url(#clip742)" style="stroke:#000000; stroke-linecap:round; stroke-linejoin:round; stroke-width:2; stroke-opacity:0.1; fill:none" points="175.445,1192.07 2352.76,1192.07 "/>
<polyline clip-path="url(#clip742)" style="stroke:#000000; stroke-linecap:round; stroke-linejoin:round; stroke-width:2; stroke-opacity:0.1; fill:none" points="175.445,999.9 2352.76,999.9 "/>
<polyline clip-path="url(#clip742)" style="stroke:#000000; stroke-linecap:round; stroke-linejoin:round; stroke-width:2; stroke-opacity:0.1; fill:none" points="175.445,807.731 2352.76,807.731 "/>
<polyline clip-path="url(#clip742)" style="stroke:#000000; stroke-linecap:round; stroke-linejoin:round; stroke-width:2; stroke-opacity:0.1; fill:none" points="175.445,615.562 2352.76,615.562 "/>
<polyline clip-path="url(#clip742)" style="stroke:#000000; stroke-linecap:round; stroke-linejoin:round; stroke-width:2; stroke-opacity:0.1; fill:none" points="175.445,423.393 2352.76,423.393 "/>
<polyline clip-path="url(#clip742)" style="stroke:#000000; stroke-linecap:round; stroke-linejoin:round; stroke-width:2; stroke-opacity:0.1; fill:none" points="175.445,231.223 2352.76,231.223 "/>
<polyline clip-path="url(#clip740)" style="stroke:#000000; stroke-linecap:round; stroke-linejoin:round; stroke-width:4; stroke-opacity:1; fill:none" points="175.445,1423.18 175.445,47.2441 "/>
<polyline clip-path="url(#clip740)" style="stroke:#000000; stroke-linecap:round; stroke-linejoin:round; stroke-width:4; stroke-opacity:1; fill:none" points="175.445,1384.24 194.343,1384.24 "/>
<polyline clip-path="url(#clip740)" style="stroke:#000000; stroke-linecap:round; stroke-linejoin:round; stroke-width:4; stroke-opacity:1; fill:none" points="175.445,1192.07 194.343,1192.07 "/>
<polyline clip-path="url(#clip740)" style="stroke:#000000; stroke-linecap:round; stroke-linejoin:round; stroke-width:4; stroke-opacity:1; fill:none" points="175.445,999.9 194.343,999.9 "/>
<polyline clip-path="url(#clip740)" style="stroke:#000000; stroke-linecap:round; stroke-linejoin:round; stroke-width:4; stroke-opacity:1; fill:none" points="175.445,807.731 194.343,807.731 "/>
<polyline clip-path="url(#clip740)" style="stroke:#000000; stroke-linecap:round; stroke-linejoin:round; stroke-width:4; stroke-opacity:1; fill:none" points="175.445,615.562 194.343,615.562 "/>
<polyline clip-path="url(#clip740)" style="stroke:#000000; stroke-linecap:round; stroke-linejoin:round; stroke-width:4; stroke-opacity:1; fill:none" points="175.445,423.393 194.343,423.393 "/>
<polyline clip-path="url(#clip740)" style="stroke:#000000; stroke-linecap:round; stroke-linejoin:round; stroke-width:4; stroke-opacity:1; fill:none" points="175.445,231.223 194.343,231.223 "/>
<path clip-path="url(#clip740)" d="M127.501 1370.04 Q123.89 1370.04 122.061 1373.6 Q120.255 1377.14 120.255 1384.27 Q120.255 1391.38 122.061 1394.94 Q123.89 1398.49 127.501 1398.49 Q131.135 1398.49 132.941 1394.94 Q134.769 1391.38 134.769 1384.27 Q134.769 1377.14 132.941 1373.6 Q131.135 1370.04 127.501 1370.04 M127.501 1366.33 Q133.311 1366.33 136.367 1370.94 Q139.445 1375.52 139.445 1384.27 Q139.445 1393 136.367 1397.61 Q133.311 1402.19 127.501 1402.19 Q121.691 1402.19 118.612 1397.61 Q115.556 1393 115.556 1384.27 Q115.556 1375.52 118.612 1370.94 Q121.691 1366.33 127.501 1366.33 Z" fill="#000000" fill-rule="nonzero" fill-opacity="1" /><path clip-path="url(#clip740)" d="M119.538 1205.41 L127.177 1205.41 L127.177 1179.05 L118.867 1180.72 L118.867 1176.46 L127.13 1174.79 L131.806 1174.79 L131.806 1205.41 L139.445 1205.41 L139.445 1209.35 L119.538 1209.35 L119.538 1205.41 Z" fill="#000000" fill-rule="nonzero" fill-opacity="1" /><path clip-path="url(#clip740)" d="M123.126 1013.24 L139.445 1013.24 L139.445 1017.18 L117.501 1017.18 L117.501 1013.24 Q120.163 1010.49 124.746 1005.86 Q129.353 1001.21 130.533 999.865 Q132.779 997.342 133.658 995.606 Q134.561 993.847 134.561 992.157 Q134.561 989.402 132.617 987.666 Q130.695 985.93 127.593 985.93 Q125.394 985.93 122.941 986.694 Q120.51 987.458 117.732 989.009 L117.732 984.287 Q120.556 983.152 123.01 982.574 Q125.464 981.995 127.501 981.995 Q132.871 981.995 136.066 984.68 Q139.26 987.365 139.26 991.856 Q139.26 993.986 138.45 995.907 Q137.663 997.805 135.556 1000.4 Q134.978 1001.07 131.876 1004.29 Q128.774 1007.48 123.126 1013.24 Z" fill="#000000" fill-rule="nonzero" fill-opacity="1" /><path clip-path="url(#clip740)" d="M132.316 806.377 Q135.672 807.094 137.547 809.363 Q139.445 811.631 139.445 814.965 Q139.445 820.08 135.927 822.881 Q132.408 825.682 125.927 825.682 Q123.751 825.682 121.436 825.242 Q119.144 824.826 116.691 823.969 L116.691 819.455 Q118.635 820.59 120.95 821.168 Q123.265 821.747 125.788 821.747 Q130.186 821.747 132.478 820.011 Q134.792 818.275 134.792 814.965 Q134.792 811.909 132.64 810.196 Q130.51 808.46 126.691 808.46 L122.663 808.46 L122.663 804.617 L126.876 804.617 Q130.325 804.617 132.154 803.252 Q133.982 801.863 133.982 799.27 Q133.982 796.608 132.084 795.196 Q130.209 793.761 126.691 793.761 Q124.769 793.761 122.57 794.178 Q120.371 794.594 117.732 795.474 L117.732 791.307 Q120.394 790.567 122.709 790.196 Q125.047 789.826 127.107 789.826 Q132.431 789.826 135.533 792.256 Q138.635 794.664 138.635 798.784 Q138.635 801.655 136.992 803.645 Q135.348 805.613 132.316 806.377 Z" fill="#000000" fill-rule="nonzero" fill-opacity="1" /><path clip-path="url(#clip740)" d="M129.862 602.356 L118.056 620.805 L129.862 620.805 L129.862 602.356 M128.635 598.282 L134.515 598.282 L134.515 620.805 L139.445 620.805 L139.445 624.694 L134.515 624.694 L134.515 632.842 L129.862 632.842 L129.862 624.694 L114.26 624.694 L114.26 620.18 L128.635 598.282 Z" fill="#000000" fill-rule="nonzero" fill-opacity="1" /><path clip-path="url(#clip740)" d="M118.543 406.113 L136.899 406.113 L136.899 410.048 L122.825 410.048 L122.825 418.52 Q123.843 418.173 124.862 418.011 Q125.88 417.826 126.899 417.826 Q132.686 417.826 136.066 420.997 Q139.445 424.168 139.445 429.585 Q139.445 435.163 135.973 438.265 Q132.501 441.344 126.181 441.344 Q124.005 441.344 121.737 440.974 Q119.492 440.603 117.084 439.862 L117.084 435.163 Q119.168 436.298 121.39 436.853 Q123.612 437.409 126.089 437.409 Q130.093 437.409 132.431 435.302 Q134.769 433.196 134.769 429.585 Q134.769 425.974 132.431 423.867 Q130.093 421.761 126.089 421.761 Q124.214 421.761 122.339 422.177 Q120.487 422.594 118.543 423.474 L118.543 406.113 Z" fill="#000000" fill-rule="nonzero" fill-opacity="1" /><path clip-path="url(#clip740)" d="M127.917 229.36 Q124.769 229.36 122.918 231.513 Q121.089 233.666 121.089 237.416 Q121.089 241.142 122.918 243.318 Q124.769 245.471 127.917 245.471 Q131.066 245.471 132.894 243.318 Q134.746 241.142 134.746 237.416 Q134.746 233.666 132.894 231.513 Q131.066 229.36 127.917 229.36 M137.2 214.707 L137.2 218.967 Q135.441 218.133 133.635 217.693 Q131.853 217.254 130.093 217.254 Q125.464 217.254 123.01 220.379 Q120.58 223.504 120.232 229.823 Q121.598 227.809 123.658 226.744 Q125.718 225.656 128.195 225.656 Q133.404 225.656 136.413 228.828 Q139.445 231.976 139.445 237.416 Q139.445 242.74 136.297 245.957 Q133.149 249.175 127.917 249.175 Q121.922 249.175 118.751 244.591 Q115.58 239.985 115.58 231.258 Q115.58 223.064 119.468 218.203 Q123.357 213.318 129.908 213.318 Q131.667 213.318 133.45 213.666 Q135.255 214.013 137.2 214.707 Z" fill="#000000" fill-rule="nonzero" fill-opacity="1" /><path clip-path="url(#clip740)" d="M30.8561 720.775 Q31.307 720.775 32.3698 721.064 L57.5548 727.377 Q63.1586 728.762 67.0877 733.27 Q71.0168 737.747 71.0168 742.836 Q71.0168 745.895 69.3743 747.86 Q67.764 749.824 65.2842 749.824 Q63.0942 749.824 62.0314 748.665 Q61.0008 747.505 61.0008 746.121 Q61.0008 745.67 61.1296 745.187 Q61.2584 744.703 61.8059 744.188 Q62.3534 743.673 63.2874 743.673 Q64.8011 743.673 65.9927 744.993 Q66.5402 745.637 66.669 746.249 Q66.7978 746.829 66.7978 747.827 Q67.6996 747.441 68.3115 746.732 Q68.9234 746.024 69.1489 745.219 Q69.4065 744.414 69.4709 743.898 Q69.5675 743.351 69.5675 742.836 Q69.5675 738.713 65.413 735.557 Q64.157 734.623 62.9009 733.947 Q61.6771 733.238 60.1634 732.723 Q58.682 732.208 57.8768 731.982 Q57.0717 731.725 55.2359 731.274 Q58.2311 734.269 58.2311 737.94 Q58.2311 739.486 57.8124 740.871 Q57.3937 742.224 56.5242 743.415 Q55.6224 744.607 54.0443 745.315 Q52.4662 745.992 50.3728 745.992 Q48.1506 745.992 45.1233 745.122 Q42.0959 744.253 36.5243 742.159 Q33.4004 741.032 31.8867 741.032 Q31.146 741.032 30.6951 741.193 Q30.212 741.354 30.051 741.676 Q29.8577 741.998 29.8255 742.191 Q29.7933 742.352 29.7933 742.675 Q29.7933 744.575 31.7257 746.346 Q33.658 748.117 37.9736 749.341 Q38.7787 749.599 38.972 749.76 Q39.1652 749.921 39.1652 750.404 Q39.133 751.209 38.4889 751.209 Q38.2312 751.209 37.2329 750.919 Q36.2023 750.629 34.6886 749.953 Q33.1427 749.245 31.7579 748.278 Q30.3408 747.312 29.3424 745.798 Q28.344 744.253 28.344 742.481 Q28.344 740.066 29.9221 738.584 Q31.468 737.071 33.7546 737.071 Q34.6886 737.071 35.5259 737.328 Q36.3311 737.554 38.4889 738.391 Q47.1845 741.773 51.4356 741.773 Q52.4662 741.773 53.3358 741.612 Q54.1731 741.418 55.0105 741 Q55.8156 740.581 56.2987 739.744 Q56.7496 738.874 56.7496 737.683 Q56.7496 736.169 56.0411 734.752 Q55.3003 733.303 54.302 732.401 Q53.3036 731.467 52.4662 730.919 Q51.5967 730.34 51.1458 730.211 L39.294 727.248 L34.0123 725.927 Q31.146 725.316 30.4374 725.026 Q29.7611 724.639 29.4068 723.963 Q29.0526 723.287 29.0526 722.707 Q29.0526 721.902 29.5357 721.354 Q30.0187 720.775 30.8561 720.775 Z" fill="#000000" fill-rule="nonzero" fill-opacity="1" /><polyline clip-path="url(#clip742)" style="stroke:#009af9; stroke-linecap:round; stroke-linejoin:round; stroke-width:8; stroke-opacity:1; fill:none" stroke-dasharray="32, 20" points="237.067,1192.07 241.079,1198.97 245.091,1198.7 249.103,1194.34 253.115,1195.25 257.126,1195.84 261.138,1193.08 265.15,1200.33 269.162,1183.05 273.174,1188.1 277.186,1192.5 281.198,1188.74 285.209,1196.55 289.221,1204.14 293.233,1196.37 297.245,1175.21 301.257,1163.56 305.269,1151.09 309.28,1131.06 313.292,1128.09 317.304,1134.83 321.316,1124.11 325.328,1122.63 329.34,1131.44 333.352,1121.29 337.363,1131.86 341.375,1127.98 345.387,1133.43 349.399,1136.55 353.411,1147.18 357.423,1142.39 361.435,1130.96 365.446,1131.27 369.458,1129.06 373.47,1121.12 377.482,1114.6 381.494,1112.83 385.506,1117.35 389.517,1111.72 393.529,1112.01 397.541,1105.91 401.553,1107.12 405.565,1115.22 409.577,1092.53 413.589,1082.21 417.6,1077.49 421.612,1097.78 425.624,1086.32 429.636,1074.43 433.648,1049.62 437.66,1058.45 441.672,1065.71 445.683,1065.34 449.695,1081.7 453.707,1096.88 457.719,1106.39 461.731,1088.37 465.743,1100.39 469.754,1081.19 473.766,1093.71 477.778,1083.6 481.79,1073.51 485.802,1056.25 489.814,1047.05 493.826,1035.08 497.837,1033.08 501.849,1030.01 505.861,1030.37 509.873,1019.03 513.885,1013.79 517.897,1013.13 521.908,1030.18 525.92,1049.31 529.932,1055.29 533.944,1051.25 537.956,1068.22 541.968,1068.68 545.98,1087.36 549.991,1087.47 554.003,1085.29 558.015,1082.15 562.027,1098.79 566.039,1085.46 570.051,1092.95 574.063,1089.14 578.074,1090.38 582.086,1071.03 586.098,1076.4 590.11,1100.18 594.122,1097.32 598.134,1093.07 602.145,1098.31 606.157,1094.43 610.169,1100.12 614.181,1090.1 618.193,1091.59 622.205,1086.72 626.217,1076.8 630.228,1058.87 634.24,1055.98 638.252,1037.28 642.264,1022.3 646.276,1012.82 650.288,997.973 654.3,1000.23 658.311,1005.23 662.323,990.863 666.335,1000.02 670.347,998.649 674.359,1002.05 678.371,989.767 682.382,985.796 686.394,978.485 690.406,976.786 694.418,977.175 698.43,989.484 702.442,997.814 706.454,1009.82 710.465,1001.89 714.477,999.193 718.489,989.928 722.501,1014.22 726.513,995.234 730.525,989.997 734.536,1009.24 738.548,999.829 742.56,1006.29 746.572,1014.6 750.584,998.853 754.596,982.163 758.608,990.456 762.619,962.935 766.631,970.441 770.643,964.971 774.655,983.369 778.667,976.009 782.679,978.062 786.691,983.118 790.702,967.447 794.714,955.685 798.726,964.006 802.738,976.921 806.75,987.066 810.762,991.068 814.773,977.838 818.785,998.697 822.797,1006.7 826.809,1035.95 830.821,1038.57 834.833,1024.89 838.845,1036.54 842.856,1051.55 846.868,1050.16 850.88,1033.58 854.892,1013.79 858.904,1029.58 862.916,1035.86 866.928,1026.62 870.939,1024.57 874.951,1059.65 878.963,1047.86 882.975,1055.45 886.987,1045.74 890.999,1021.06 895.01,1032.1 899.022,1018.06 903.034,1030.7 907.046,1007.25 911.058,1005.69 915.07,1013.02 919.082,999.213 923.093,998.607 927.105,984.794 931.117,961.201 935.129,952.33 939.141,942.292 943.153,928.144 947.164,945.254 951.176,937.929 955.188,982.444 959.2,972.358 963.212,969.216 967.224,976.652 971.236,999.387 975.247,1000.48 979.259,1014.09 983.271,993.774 987.283,989.021 991.295,1005.19 995.307,989.756 999.319,1006.36 1003.33,1022.36 1007.34,1040.12 1011.35,1020.21 1015.37,1013.67 1019.38,990.672 1023.39,1013.62 1027.4,1005.28 1031.41,1025.74 1035.43,1003.31 1039.44,1013.3 1043.45,1023.75 1047.46,1024.1 1051.47,1000.77 1055.48,1009.48 1059.5,1010.5 1063.51,1029.39 1067.52,1025.91 1071.53,1042.4 1075.54,1051.1 1079.56,1033.97 1083.57,1039.77 1087.58,1031.09 1091.59,1037.84 1095.6,1023.11 1099.61,1013.13 1103.63,1014.75 1107.64,1007 1111.65,1002.36 1115.66,1016.81 1119.67,1019.49 1123.69,1017.49 1127.7,1029.4 1131.71,1025.29 1135.72,1013.69 1139.73,1021.13 1143.75,1015.13 1147.76,1028.61 1151.77,1021.42 1155.78,1010.21 1159.79,1023.54 1163.8,1031.34 1167.82,1016.79 1171.83,1008.21 1175.84,998.433 1179.85,988.105 1183.86,997.604 1187.88,992.287 1191.89,992.839 1195.9,987.922 1199.91,992.723 1203.92,982.542 1207.93,993.652 1211.95,990.179 1215.96,1004.08 1219.97,1003.46 1223.98,983.831 1227.99,991.043 1232.01,983.221 1236.02,971.927 1240.03,970.596 1244.04,981.081 1248.05,962.74 1252.07,952.11 1256.08,976.364 1260.09,974.574 1264.1,984.216 1268.11,985.908 1272.12,990.402 1276.14,996.191 1280.15,992.605 1284.16,1009.28 1288.17,989.706 1292.18,987.066 1296.2,970.498 1300.21,972.343 1304.22,969.716 1308.23,971.654 1312.24,975.192 1316.25,980.084 1320.27,980.342 1324.28,993.01 1328.29,1025.48 1332.3,1028.24 1336.31,1031.38 1340.33,1033.65 1344.34,1034.57 1348.35,1049.57 1352.36,1037.05 1356.37,1013.91 1360.38,1023.75 1364.4,1007.2 1368.41,1013.5 1372.42,986.462 1376.43,963.89 1380.44,977.632 1384.46,973.469 1388.47,999.978 1392.48,988.6 1396.49,1000.24 1400.5,1006.33 1404.52,998.878 1408.53,1014.2 1412.54,1010.14 1416.55,988.542 1420.56,983.875 1424.57,973.12 1428.59,990.196 1432.6,953.07 1436.61,948.938 1440.62,922.363 1444.63,898.765 1448.65,908.517 1452.66,871.274 1456.67,847.959 1460.68,874.59 1464.69,886.218 1468.7,887.737 1472.72,896.932 1476.73,878.482 1480.74,866.822 1484.75,880.98 1488.76,865.239 1492.78,865.977 1496.79,858.43 1500.8,862.008 1504.81,861.678 1508.82,865.485 1512.84,876.547 1516.85,926.518 1520.86,912.77 1524.87,915.436 1528.88,901.342 1532.89,913.753 1536.91,919.515 1540.92,914.781 1544.93,906.346 1548.94,923.381 1552.95,941.516 1556.97,935.057 1560.98,930.119 1564.99,935.386 1569,931.527 1573.01,932.33 1577.02,922.238 1581.04,911.751 1585.05,900.427 1589.06,920.973 1593.07,916.681 1597.08,907.338 1601.1,887.918 1605.11,868.595 1609.12,851.802 1613.13,854.273 1617.14,856.374 1621.16,874.853 1625.17,848.396 1629.18,876.555 1633.19,879.105 1637.2,873.085 1641.21,867.017 1645.23,848.745 1649.24,838.451 1653.25,808.846 1657.26,805.893 1661.27,800.859 1665.29,781.299 1669.3,769.686 1673.31,789.216 1677.32,774.344 1681.33,755.18 1685.34,802.742 1689.36,811.957 1693.37,808.191 1697.38,823.873 1701.39,766.161 1705.4,759.896 1709.42,784.282 1713.43,790.135 1717.44,771.782 1721.45,776.751 1725.46,762.73 1729.48,753.589 1733.49,769.519 1737.5,740.986 1741.51,718.476 1745.52,710.325 1749.53,739.111 1753.55,780.312 1757.56,742.82 1761.57,750.207 1765.58,758.961 1769.59,754.643 1773.61,751.727 1777.62,709.933 1781.63,692.671 1785.64,670.247 1789.65,609.994 1793.66,602.039 1797.68,586.405 1801.69,590.868 1805.7,643.302 1809.71,610.663 1813.72,615.92 1817.74,620.183 1821.75,612.692 1825.76,598.225 1829.77,629.905 1833.78,643.252 1837.79,651.349 1841.81,631.148 1845.82,636.971 1849.83,631.453 1853.84,621.809 1857.85,576.591 1861.87,542.652 1865.88,495.23 1869.89,501.63 1873.9,513.769 1877.91,547.455 1881.93,518.79 1885.94,545.204 1889.95,528.769 1893.96,527.696 1897.97,538.061 1901.98,520.911 1906,553.735 1910.01,538.325 1914.02,578.553 1918.03,611.002 1922.04,584.566 1926.06,632.529 1930.07,660.888 1934.08,630.732 1938.09,611.129 1942.1,553.954 1946.11,489.514 1950.13,493.784 1954.14,456.672 1958.15,491.37 1962.16,441.021 1966.17,479.839 1970.19,519.031 1974.2,544.151 1978.21,586.482 1982.22,546.516 1986.23,507 1990.25,462.578 1994.26,453.366 1998.27,462.273 2002.28,449.206 2006.29,400.15 2010.3,385.402 2014.32,367.323 2018.33,380.351 2022.34,448.656 2026.35,540.203 2030.36,572.721 2034.38,611.698 2038.39,609.06 2042.4,580.537 2046.41,580.503 2050.42,604.348 2054.43,598.353 2058.45,591.729 2062.46,627.657 2066.47,581.729 2070.48,620.204 2074.49,666.359 2078.51,638.027 2082.52,587.95 2086.53,552.787 2090.54,561.191 2094.55,552.801 2098.57,564.435 2102.58,593.028 2106.59,611.349 2110.6,601.353 2114.61,576.201 2118.62,508.183 2122.64,518.558 2126.65,520.699 2130.66,478.208 2134.67,447.458 2138.68,393.431 2142.7,392.209 2146.71,373.461 2150.72,347.876 2154.73,323.729 2158.74,275.664 2162.75,269.151 2166.77,239.413 2170.78,245.506 2174.79,231.107 2178.8,263.545 2182.81,264.065 2186.83,276.192 2190.84,318.63 2194.85,315.008 2198.86,316.113 2202.87,278.141 2206.89,153.004 2210.9,86.1857 2214.91,112.673 2218.92,126.476 2222.93,167.278 2226.94,236.636 2230.96,234.413 2234.97,274.924 2238.98,251.787 2242.99,245.545 2247,215.804 2251.02,203.44 2255.03,233.127 2259.04,242.08 2263.05,213.334 2267.06,200.53 2271.07,195.614 2275.09,173.817 2279.1,179.374 2283.11,177.203 2287.12,186.427 2291.13,188.382 "/>
<polyline clip-path="url(#clip742)" style="stroke:#e26f46; stroke-linecap:round; stroke-linejoin:round; stroke-width:8; stroke-opacity:1; fill:none" stroke-dasharray="32, 16, 4, 16" points="237.067,1384.24 241.079,1384.24 245.091,1384.24 249.103,1384.24 253.115,1384.24 257.126,1384.24 261.138,1384.24 265.15,1384.24 269.162,1384.24 273.174,1384.24 277.186,1384.24 281.198,1384.24 285.209,1384.24 289.221,1384.24 293.233,1384.24 297.245,1384.24 301.257,1384.24 305.269,1384.24 309.28,1384.24 313.292,1384.24 317.304,1384.24 321.316,1384.24 325.328,1384.24 329.34,1266.79 333.352,1266.79 337.363,1266.79 341.375,1266.79 345.387,1266.79 349.399,1266.79 353.411,1266.79 357.423,1266.79 361.435,1266.79 365.446,1266.79 369.458,1266.79 373.47,1266.79 377.482,1266.79 381.494,1266.79 385.506,1266.79 389.517,1266.79 393.529,1266.79 397.541,1266.79 401.553,1266.79 405.565,1266.79 409.577,1266.79 413.589,1266.79 417.6,1266.79 421.612,1266.79 425.624,1266.79 429.636,1266.79 433.648,1266.79 437.66,1266.79 441.672,1266.79 445.683,1266.79 449.695,1266.79 453.707,1266.79 457.719,1266.79 461.731,1266.79 465.743,1266.79 469.754,1266.79 473.766,1251.47 477.778,1251.47 481.79,1251.47 485.802,1251.47 489.814,1251.47 493.826,1251.47 497.837,1251.47 501.849,1251.47 505.861,1251.47 509.873,1251.47 513.885,1251.47 517.897,1251.47 521.908,1251.47 525.92,1251.47 529.932,1251.47 533.944,1251.47 537.956,1251.47 541.968,1251.47 545.98,1251.47 549.991,1251.47 554.003,1251.47 558.015,1251.47 562.027,1273.89 566.039,1273.89 570.051,1273.89 574.063,1273.89 578.074,1273.89 582.086,1273.89 586.098,1273.89 590.11,1273.89 594.122,1273.89 598.134,1273.89 602.145,1273.89 606.157,1273.89 610.169,1273.89 614.181,1273.89 618.193,1273.89 622.205,1273.89 626.217,1273.89 630.228,1273.89 634.24,1273.89 638.252,1273.89 642.264,1273.89 646.276,1273.89 650.288,1273.89 654.3,1273.89 658.311,1273.89 662.323,1273.89 666.335,1273.89 670.347,1273.89 674.359,1273.89 678.371,1273.89 682.382,1273.89 686.394,1273.89 690.406,1273.89 694.418,1273.89 698.43,1273.89 702.442,1273.89 706.454,1273.89 710.465,1273.89 714.477,1273.89 718.489,1273.89 722.501,1273.89 726.513,1273.89 730.525,1273.89 734.536,1273.89 738.548,1273.89 742.56,1273.89 746.572,1273.89 750.584,1273.89 754.596,1273.89 758.608,1273.89 762.619,1273.89 766.631,1273.89 770.643,1273.89 774.655,1273.89 778.667,1273.89 782.679,1273.89 786.691,1273.89 790.702,1273.89 794.714,1273.89 798.726,1273.89 802.738,1273.89 806.75,1273.89 810.762,1273.89 814.773,1273.89 818.785,1273.89 822.797,1273.89 826.809,1273.89 830.821,1273.89 834.833,1273.89 838.845,1273.89 842.856,1273.89 846.868,1273.89 850.88,1273.89 854.892,1273.89 858.904,1273.89 862.916,1273.89 866.928,1273.89 870.939,1273.89 874.951,1273.89 878.963,1273.89 882.975,1273.89 886.987,1273.89 890.999,1273.89 895.01,1273.89 899.022,1273.89 903.034,1273.89 907.046,1273.89 911.058,1273.89 915.07,1273.89 919.082,1273.89 923.093,1273.89 927.105,1273.89 931.117,1273.89 935.129,1273.89 939.141,1273.89 943.153,1273.89 947.164,1273.89 951.176,1273.89 955.188,1273.89 959.2,1273.89 963.212,1273.89 967.224,1251.31 971.236,1251.31 975.247,1251.31 979.259,1251.31 983.271,1251.31 987.283,1251.31 991.295,1251.31 995.307,1251.31 999.319,1251.31 1003.33,1251.31 1007.34,1251.31 1011.35,1251.31 1015.37,1251.31 1019.38,1251.31 1023.39,1251.31 1027.4,1251.31 1031.41,1251.31 1035.43,1251.31 1039.44,1251.31 1043.45,1251.31 1047.46,1251.31 1051.47,1251.31 1055.48,1251.31 1059.5,1251.31 1063.51,1251.31 1067.52,1251.31 1071.53,1251.31 1075.54,1251.31 1079.56,1251.31 1083.57,1251.31 1087.58,1251.31 1091.59,1251.31 1095.6,1251.31 1099.61,1251.31 1103.63,1251.31 1107.64,1251.31 1111.65,1251.31 1115.66,1251.31 1119.67,1251.31 1123.69,1251.31 1127.7,1251.31 1131.71,1251.31 1135.72,1251.31 1139.73,1251.31 1143.75,1251.31 1147.76,1251.31 1151.77,1251.31 1155.78,1251.31 1159.79,1251.31 1163.8,1251.31 1167.82,1251.31 1171.83,1251.31 1175.84,1251.31 1179.85,1251.31 1183.86,1251.31 1187.88,1305.1 1191.89,1305.1 1195.9,1305.1 1199.91,1305.1 1203.92,1305.1 1207.93,1305.1 1211.95,1305.1 1215.96,1305.1 1219.97,1305.1 1223.98,1305.1 1227.99,1305.1 1232.01,1305.1 1236.02,1305.1 1240.03,1305.1 1244.04,1305.1 1248.05,1305.1 1252.07,1305.1 1256.08,1305.1 1260.09,1305.1 1264.1,1305.1 1268.11,1305.1 1272.12,1305.1 1276.14,1262.25 1280.15,1262.25 1284.16,1262.25 1288.17,1262.25 1292.18,1262.25 1296.2,1262.25 1300.21,1262.25 1304.22,1262.25 1308.23,1262.25 1312.24,1262.25 1316.25,1262.25 1320.27,1262.25 1324.28,1262.25 1328.29,1262.25 1332.3,1262.25 1336.31,1262.25 1340.33,1262.25 1344.34,1262.25 1348.35,1262.25 1352.36,1262.25 1356.37,1262.25 1360.38,1262.25 1364.4,1337.16 1368.41,1337.16 1372.42,1337.16 1376.43,1337.16 1380.44,1337.16 1384.46,1337.16 1388.47,1337.16 1392.48,1337.16 1396.49,1337.16 1400.5,1337.16 1404.52,1337.16 1408.53,1337.16 1412.54,1337.16 1416.55,1337.16 1420.56,1337.16 1424.57,1337.16 1428.59,1337.16 1432.6,1337.16 1436.61,1337.16 1440.62,1337.16 1444.63,1337.16 1448.65,1337.16 1452.66,1337.16 1456.67,1337.16 1460.68,1337.16 1464.69,1337.16 1468.7,1337.16 1472.72,1337.16 1476.73,1337.16 1480.74,1337.16 1484.75,1337.16 1488.76,1337.16 1492.78,1337.16 1496.79,1337.16 1500.8,1337.16 1504.81,1337.16 1508.82,1337.16 1512.84,1337.16 1516.85,1337.16 1520.86,1262.95 1524.87,1262.95 1528.88,1262.95 1532.89,1262.95 1536.91,1262.95 1540.92,1262.95 1544.93,1262.95 1548.94,1262.95 1552.95,1262.95 1556.97,1262.95 1560.98,1262.95 1564.99,1262.95 1569,1262.95 1573.01,1262.95 1577.02,1262.95 1581.04,1262.95 1585.05,1262.95 1589.06,1262.95 1593.07,1262.95 1597.08,1262.95 1601.1,1262.95 1605.11,1262.95 1609.12,1262.95 1613.13,1262.95 1617.14,1262.95 1621.16,1262.95 1625.17,1262.95 1629.18,1262.95 1633.19,1262.95 1637.2,1262.95 1641.21,1262.95 1645.23,1262.95 1649.24,1262.95 1653.25,1262.95 1657.26,1262.95 1661.27,1262.95 1665.29,1262.95 1669.3,1262.95 1673.31,1262.95 1677.32,1262.95 1681.33,1262.95 1685.34,1262.95 1689.36,1262.95 1693.37,1262.95 1697.38,1292.9 1701.39,1292.9 1705.4,1292.9 1709.42,1292.9 1713.43,1292.9 1717.44,1292.9 1721.45,1292.9 1725.46,1292.9 1729.48,1292.9 1733.49,1292.9 1737.5,1292.9 1741.51,1292.9 1745.52,1292.9 1749.53,1292.9 1753.55,1292.9 1757.56,1292.9 1761.57,1292.9 1765.58,1292.9 1769.59,1292.9 1773.61,1292.9 1777.62,1292.9 1781.63,1292.9 1785.64,1292.9 1789.65,1292.9 1793.66,1292.9 1797.68,1292.9 1801.69,1292.9 1805.7,1292.9 1809.71,1292.9 1813.72,1292.9 1817.74,1292.9 1821.75,1292.9 1825.76,1292.9 1829.77,1292.9 1833.78,1292.9 1837.79,1292.9 1841.81,1292.9 1845.82,1292.9 1849.83,1311.23 1853.84,1311.23 1857.85,1311.23 1861.87,1311.23 1865.88,1311.23 1869.89,1311.23 1873.9,1311.23 1877.91,1311.23 1881.93,1311.23 1885.94,1311.23 1889.95,1311.23 1893.96,1311.23 1897.97,1311.23 1901.98,1311.23 1906,1311.23 1910.01,1311.23 1914.02,1311.23 1918.03,1311.23 1922.04,1311.23 1926.06,1311.23 1930.07,1311.23 1934.08,1311.23 1938.09,1311.23 1942.1,1311.23 1946.11,1311.23 1950.13,1311.23 1954.14,1311.23 1958.15,1311.23 1962.16,1311.23 1966.17,1311.23 1970.19,1311.23 1974.2,1311.23 1978.21,1311.23 1982.22,1311.23 1986.23,1311.23 1990.25,1311.23 1994.26,1311.23 1998.27,1322.72 2002.28,1322.72 2006.29,1322.72 2010.3,1322.72 2014.32,1322.72 2018.33,1322.72 2022.34,1322.72 2026.35,1322.72 2030.36,1322.72 2034.38,1322.72 2038.39,1322.72 2042.4,1322.72 2046.41,1322.72 2050.42,1322.72 2054.43,1322.72 2058.45,1322.72 2062.46,1322.72 2066.47,1322.72 2070.48,1322.72 2074.49,1322.72 2078.51,1322.72 2082.52,1322.72 2086.53,1322.72 2090.54,1322.72 2094.55,1322.72 2098.57,1322.72 2102.58,1322.72 2106.59,1322.72 2110.6,1322.72 2114.61,1322.72 2118.62,1322.72 2122.64,1322.72 2126.65,1322.72 2130.66,1322.72 2134.67,1322.72 2138.68,1322.72 2142.7,1322.72 2146.71,1322.72 2150.72,1322.72 2154.73,1322.72 2158.74,1322.72 2162.75,1322.72 2166.77,1322.72 2170.78,1322.72 2174.79,1322.72 2178.8,1322.72 2182.81,1322.72 2186.83,1322.72 2190.84,1322.72 2194.85,1315.63 2198.86,1315.63 2202.87,1315.63 2206.89,1315.63 2210.9,1315.63 2214.91,1315.63 2218.92,1315.63 2222.93,1315.63 2226.94,1315.63 2230.96,1315.63 2234.97,1315.63 2238.98,1315.63 2242.99,1315.63 2247,1315.63 2251.02,1315.63 2255.03,1315.63 2259.04,1315.63 2263.05,1315.63 2267.06,1315.63 2271.07,1315.63 2275.09,1315.63 2279.1,1315.63 2283.11,1315.63 2287.12,1315.63 2291.13,1315.63 "/>
<path clip-path="url(#clip740)" d="M248.022 248.629 L537.906 248.629 L537.906 93.1086 L248.022 93.1086  Z" fill="#ffffff" fill-rule="evenodd" fill-opacity="1"/>
<polyline clip-path="url(#clip740)" style="stroke:#000000; stroke-linecap:round; stroke-linejoin:round; stroke-width:4; stroke-opacity:1; fill:none" points="248.022,248.629 537.906,248.629 537.906,93.1086 248.022,93.1086 248.022,248.629 "/>
<polyline clip-path="url(#clip740)" style="stroke:#009af9; stroke-linecap:round; stroke-linejoin:round; stroke-width:8; stroke-opacity:1; fill:none" stroke-dasharray="32, 20" points="272.215,144.949 417.369,144.949 "/>
<path clip-path="url(#clip740)" d="M442.093 127.669 L469.246 127.669 L469.246 131.233 L447.394 158.293 L469.778 158.293 L469.778 162.229 L441.561 162.229 L441.561 158.664 L463.413 131.604 L442.093 131.604 L442.093 127.669 Z" fill="#000000" fill-rule="nonzero" fill-opacity="1" /><path clip-path="url(#clip740)" d="M496.075 170.099 L496.075 173.409 L471.445 173.409 L471.445 170.099 L496.075 170.099 Z" fill="#000000" fill-rule="nonzero" fill-opacity="1" /><path clip-path="url(#clip740)" d="M504.292 128.942 L504.292 136.303 L513.065 136.303 L513.065 139.613 L504.292 139.613 L504.292 153.687 Q504.292 156.858 505.149 157.761 Q506.028 158.664 508.69 158.664 L513.065 158.664 L513.065 162.229 L508.69 162.229 Q503.76 162.229 501.885 160.4 Q500.01 158.548 500.01 153.687 L500.01 139.613 L496.885 139.613 L496.885 136.303 L500.01 136.303 L500.01 128.942 L504.292 128.942 Z" fill="#000000" fill-rule="nonzero" fill-opacity="1" /><polyline clip-path="url(#clip740)" style="stroke:#e26f46; stroke-linecap:round; stroke-linejoin:round; stroke-width:8; stroke-opacity:1; fill:none" stroke-dasharray="32, 16, 4, 16" points="272.215,196.789 417.369,196.789 "/>
<path clip-path="url(#clip740)" d="M441.561 179.509 L446.237 179.509 L446.237 193.675 L463.228 193.675 L463.228 179.509 L467.903 179.509 L467.903 214.069 L463.228 214.069 L463.228 197.61 L446.237 197.61 L446.237 214.069 L441.561 214.069 L441.561 179.509 Z" fill="#000000" fill-rule="nonzero" fill-opacity="1" /><path clip-path="url(#clip740)" d="M496.723 221.939 L496.723 225.249 L472.093 225.249 L472.093 221.939 L496.723 221.939 Z" fill="#000000" fill-rule="nonzero" fill-opacity="1" /><path clip-path="url(#clip740)" d="M504.94 180.782 L504.94 188.143 L513.713 188.143 L513.713 191.453 L504.94 191.453 L504.94 205.527 Q504.94 208.698 505.797 209.601 Q506.676 210.504 509.338 210.504 L513.713 210.504 L513.713 214.069 L509.338 214.069 Q504.408 214.069 502.533 212.24 Q500.658 210.388 500.658 205.527 L500.658 191.453 L497.533 191.453 L497.533 188.143 L500.658 188.143 L500.658 180.782 L504.94 180.782 Z" fill="#000000" fill-rule="nonzero" fill-opacity="1" /></svg>
