<?xml version="1.0" encoding="utf-8"?>
<svg xmlns="http://www.w3.org/2000/svg" xmlns:xlink="http://www.w3.org/1999/xlink" width="600" height="400" viewBox="0 0 2400 1600">
<defs>
  <clipPath id="clip700">
    <rect x="0" y="0" width="2400" height="1600"/>
  </clipPath>
</defs>
<path clip-path="url(#clip700)" d="M0 1600 L2400 1600 L2400 0 L0 0  Z" fill="#ffffff" fill-rule="evenodd" fill-opacity="1"/>
<defs>
  <clipPath id="clip701">
    <rect x="480" y="0" width="1681" height="1600"/>
  </clipPath>
</defs>
<path clip-path="url(#clip700)" d="M175.445 1423.18 L2352.76 1423.18 L2352.76 47.2441 L175.445 47.2441  Z" fill="#ffffff" fill-rule="evenodd" fill-opacity="1"/>
<defs>
  <clipPath id="clip702">
    <rect x="175" y="47" width="2178" height="1377"/>
  </clipPath>
</defs>
<polyline clip-path="url(#clip702)" style="stroke:#000000; stroke-linecap:round; stroke-linejoin:round; stroke-width:2; stroke-opacity:0.1; fill:none" points="237.067,1423.18 237.067,47.2441 "/>
<polyline clip-path="url(#clip702)" style="stroke:#000000; stroke-linecap:round; stroke-linejoin:round; stroke-width:2; stroke-opacity:0.1; fill:none" points="750.584,1423.18 750.584,47.2441 "/>
<polyline clip-path="url(#clip702)" style="stroke:#000000; stroke-linecap:round; stroke-linejoin:round; stroke-width:2; stroke-opacity:0.1; fill:none" points="1264.1,1423.18 1264.1,47.2441 "/>
<polyline clip-path="url(#clip702)" style="stroke:#000000; stroke-linecap:round; stroke-linejoin:round; stroke-width:2; stroke-opacity:0.1; fill:none" points="1777.62,1423.18 1777.62,47.2441 "/>
<polyline clip-path="url(#clip702)" style="stroke:#000000; stroke-linecap:round; stroke-linejoin:round; stroke-width:2; stroke-opacity:0.1; fill:none" points="2291.13,1423.18 2291.13,47.2441 "/>
<polyline clip-path="url(#clip700)" style="stroke:#000000; stroke-linecap:round; stroke-linejoin:round; stroke-width:4; stroke-opacity:1; fill:none" points="175.445,1423.18 2352.76,1423.18 "/>
<polyline clip-path="url(#clip700)" style="stroke:#000000; stroke-linecap:round; stroke-linejoin:round; stroke-width:4; stroke-opacity:1; fill:none" points="237.067,1423.18 237.067,1404.28 "/>
<polyline clip-path="url(#clip700)" style="stroke:#000000; stroke-linecap:round; stroke-linejoin:round; stroke-width:4; stroke-opacity:1; fill:none" points="750.584,1423.18 750.584,1404.28 "/>
<polyline clip-path="url(#clip700)" style="stroke:#000000; stroke-linecap:round; stroke-linejoin:round; stroke-width:4; stroke-opacity:1; fill:none" points="1264.1,1423.18 1264.1,1404.28 "/>
<polyline clip-path="url(#clip700)" style="stroke:#000000; stroke-linecap:round; stroke-linejoin:round; stroke-width:4; stroke-opacity:1; fill:none" points="1777.62,1423.18 1777.62,1404.28 "/>
<polyline clip-path="url(#clip700)" style="stroke:#000000; stroke-linecap:round; stroke-linejoin:round; stroke-width:4; stroke-opacity:1; fill:none" points="2291.13,1423.18 2291.13,1404.28 "/>
<path clip-path="url(#clip700)" d="M214.452 1454.1 Q210.84 1454.1 209.012 1457.66 Q207.206 1461.2 207.206 1468.33 Q207.206 1475.44 209.012 1479.01 Q210.84 1482.55 214.452 1482.55 Q218.086 1482.55 219.891 1479.01 Q221.72 1475.44 221.72 1468.33 Q221.72 1461.2 219.891 1457.66 Q218.086 1454.1 214.452 1454.1 M214.452 1450.39 Q220.262 1450.39 223.317 1455 Q226.396 1459.58 226.396 1468.33 Q226.396 1477.06 223.317 1481.67 Q220.262 1486.25 214.452 1486.25 Q208.641 1486.25 205.563 1481.67 Q202.507 1477.06 202.507 1468.33 Q202.507 1459.58 205.563 1455 Q208.641 1450.39 214.452 1450.39 Z" fill="#000000" fill-rule="nonzero" fill-opacity="1" /><path clip-path="url(#clip700)" d="M234.614 1479.7 L239.498 1479.7 L239.498 1485.58 L234.614 1485.58 L234.614 1479.7 Z" fill="#000000" fill-rule="nonzero" fill-opacity="1" /><path clip-path="url(#clip700)" d="M259.683 1454.1 Q256.072 1454.1 254.243 1457.66 Q252.437 1461.2 252.437 1468.33 Q252.437 1475.44 254.243 1479.01 Q256.072 1482.55 259.683 1482.55 Q263.317 1482.55 265.123 1479.01 Q266.951 1475.44 266.951 1468.33 Q266.951 1461.2 265.123 1457.66 Q263.317 1454.1 259.683 1454.1 M259.683 1450.39 Q265.493 1450.39 268.549 1455 Q271.627 1459.58 271.627 1468.33 Q271.627 1477.06 268.549 1481.67 Q265.493 1486.25 259.683 1486.25 Q253.873 1486.25 250.794 1481.67 Q247.738 1477.06 247.738 1468.33 Q247.738 1459.58 250.794 1455 Q253.873 1450.39 259.683 1450.39 Z" fill="#000000" fill-rule="nonzero" fill-opacity="1" /><path clip-path="url(#clip700)" d="M728.466 1454.1 Q724.855 1454.1 723.026 1457.66 Q721.221 1461.2 721.221 1468.33 Q721.221 1475.44 723.026 1479.01 Q724.855 1482.55 728.466 1482.55 Q732.1 1482.55 733.906 1479.01 Q735.734 1475.44 735.734 1468.33 Q735.734 1461.2 733.906 1457.66 Q732.1 1454.1 728.466 1454.1 M728.466 1450.39 Q734.276 1450.39 737.332 1455 Q740.41 1459.58 740.41 1468.33 Q740.41 1477.06 737.332 1481.67 Q734.276 1486.25 728.466 1486.25 Q722.656 1486.25 719.577 1481.67 Q716.522 1477.06 716.522 1468.33 Q716.522 1459.58 719.577 1455 Q722.656 1450.39 728.466 1450.39 Z" fill="#000000" fill-rule="nonzero" fill-opacity="1" /><path clip-path="url(#clip700)" d="M748.628 1479.7 L753.512 1479.7 L753.512 1485.58 L748.628 1485.58 L748.628 1479.7 Z" fill="#000000" fill-rule="nonzero" fill-opacity="1" /><path clip-path="url(#clip700)" d="M763.744 1451.02 L782.1 1451.02 L782.1 1454.96 L768.026 1454.96 L768.026 1463.43 Q769.044 1463.08 770.063 1462.92 Q771.081 1462.73 772.1 1462.73 Q777.887 1462.73 781.267 1465.9 Q784.646 1469.08 784.646 1474.49 Q784.646 1480.07 781.174 1483.17 Q777.702 1486.25 771.382 1486.25 Q769.206 1486.25 766.938 1485.88 Q764.693 1485.51 762.285 1484.77 L762.285 1480.07 Q764.369 1481.2 766.591 1481.76 Q768.813 1482.32 771.29 1482.32 Q775.294 1482.32 777.632 1480.21 Q779.97 1478.1 779.97 1474.49 Q779.97 1470.88 777.632 1468.77 Q775.294 1466.67 771.29 1466.67 Q769.415 1466.67 767.54 1467.08 Q765.688 1467.5 763.744 1468.38 L763.744 1451.02 Z" fill="#000000" fill-rule="nonzero" fill-opacity="1" /><path clip-path="url(#clip700)" d="M1231.25 1481.64 L1238.89 1481.64 L1238.89 1455.28 L1230.58 1456.95 L1230.58 1452.69 L1238.85 1451.02 L1243.52 1451.02 L1243.52 1481.64 L1251.16 1481.64 L1251.16 1485.58 L1231.25 1485.58 L1231.25 1481.64 Z" fill="#000000" fill-rule="nonzero" fill-opacity="1" /><path clip-path="url(#clip700)" d="M1260.61 1479.7 L1265.49 1479.7 L1265.49 1485.58 L1260.61 1485.58 L1260.61 1479.7 Z" fill="#000000" fill-rule="nonzero" fill-opacity="1" /><path clip-path="url(#clip700)" d="M1285.67 1454.1 Q1282.06 1454.1 1280.23 1457.66 Q1278.43 1461.2 1278.43 1468.33 Q1278.43 1475.44 1280.23 1479.01 Q1282.06 1482.55 1285.67 1482.55 Q1289.31 1482.55 1291.11 1479.01 Q1292.94 1475.44 1292.94 1468.33 Q1292.94 1461.2 1291.11 1457.66 Q1289.31 1454.1 1285.67 1454.1 M1285.67 1450.39 Q1291.48 1450.39 1294.54 1455 Q1297.62 1459.58 1297.62 1468.33 Q1297.62 1477.06 1294.54 1481.67 Q1291.48 1486.25 1285.67 1486.25 Q1279.86 1486.25 1276.79 1481.67 Q1273.73 1477.06 1273.73 1468.33 Q1273.73 1459.58 1276.79 1455 Q1279.86 1450.39 1285.67 1450.39 Z" fill="#000000" fill-rule="nonzero" fill-opacity="1" /><path clip-path="url(#clip700)" d="M1745.27 1481.64 L1752.91 1481.64 L1752.91 1455.28 L1744.6 1456.95 L1744.6 1452.69 L1752.86 1451.02 L1757.54 1451.02 L1757.54 1481.64 L1765.18 1481.64 L1765.18 1485.58 L1745.27 1485.58 L1745.27 1481.64 Z" fill="#000000" fill-rule="nonzero" fill-opacity="1" /><path clip-path="url(#clip700)" d="M1774.62 1479.7 L1779.5 1479.7 L1779.5 1485.58 L1774.62 1485.58 L1774.62 1479.7 Z" fill="#000000" fill-rule="nonzero" fill-opacity="1" /><path clip-path="url(#clip700)" d="M1789.74 1451.02 L1808.09 1451.02 L1808.09 1454.96 L1794.02 1454.96 L1794.02 1463.43 Q1795.04 1463.08 1796.05 1462.92 Q1797.07 1462.73 1798.09 1462.73 Q1803.88 1462.73 1807.26 1465.9 Q1810.64 1469.08 1810.64 1474.49 Q1810.64 1480.07 1807.17 1483.17 Q1803.69 1486.25 1797.37 1486.25 Q1795.2 1486.25 1792.93 1485.88 Q1790.68 1485.51 1788.28 1484.77 L1788.28 1480.07 Q1790.36 1481.2 1792.58 1481.76 Q1794.8 1482.32 1797.28 1482.32 Q1801.29 1482.32 1803.62 1480.21 Q1805.96 1478.1 1805.96 1474.49 Q1805.96 1470.88 1803.62 1468.77 Q1801.29 1466.67 1797.28 1466.67 Q1795.41 1466.67 1793.53 1467.08 Q1791.68 1467.5 1789.74 1468.38 L1789.74 1451.02 Z" fill="#000000" fill-rule="nonzero" fill-opacity="1" /><path clip-path="url(#clip700)" d="M2262.37 1481.64 L2278.69 1481.64 L2278.69 1485.58 L2256.75 1485.58 L2256.75 1481.64 Q2259.41 1478.89 2263.99 1474.26 Q2268.6 1469.61 2269.78 1468.27 Q2272.03 1465.74 2272.9 1464.01 Q2273.81 1462.25 2273.81 1460.56 Q2273.81 1457.8 2271.86 1456.07 Q2269.94 1454.33 2266.84 1454.33 Q2264.64 1454.33 2262.19 1455.09 Q2259.76 1455.86 2256.98 1457.41 L2256.98 1452.69 Q2259.8 1451.55 2262.26 1450.97 Q2264.71 1450.39 2266.75 1450.39 Q2272.12 1450.39 2275.31 1453.08 Q2278.51 1455.77 2278.51 1460.26 Q2278.51 1462.39 2277.7 1464.31 Q2276.91 1466.2 2274.8 1468.8 Q2274.22 1469.47 2271.12 1472.69 Q2268.02 1475.88 2262.37 1481.64 Z" fill="#000000" fill-rule="nonzero" fill-opacity="1" /><path clip-path="url(#clip700)" d="M2288.51 1479.7 L2293.39 1479.7 L2293.39 1485.58 L2288.51 1485.58 L2288.51 1479.7 Z" fill="#000000" fill-rule="nonzero" fill-opacity="1" /><path clip-path="url(#clip700)" d="M2313.58 1454.1 Q2309.96 1454.1 2308.14 1457.66 Q2306.33 1461.2 2306.33 1468.33 Q2306.33 1475.44 2308.14 1479.01 Q2309.96 1482.55 2313.58 1482.55 Q2317.21 1482.55 2319.02 1479.01 Q2320.84 1475.44 2320.84 1468.33 Q2320.84 1461.2 2319.02 1457.66 Q2317.21 1454.1 2313.58 1454.1 M2313.58 1450.39 Q2319.39 1450.39 2322.44 1455 Q2325.52 1459.58 2325.52 1468.33 Q2325.52 1477.06 2322.44 1481.67 Q2319.39 1486.25 2313.58 1486.25 Q2307.77 1486.25 2304.69 1481.67 Q2301.63 1477.06 2301.63 1468.33 Q2301.63 1459.58 2304.69 1455 Q2307.77 1450.39 2313.58 1450.39 Z" fill="#000000" fill-rule="nonzero" fill-opacity="1" /><path clip-path="url(#clip700)" d="M1272.57 1531.91 Q1272.57 1532.81 1272.15 1533.04 Q1271.73 1533.23 1270.57 1533.23 L1264.39 1533.23 L1259.5 1552.69 Q1259.11 1554.39 1259.11 1555.84 Q1259.11 1557.45 1259.59 1558.16 Q1260.11 1558.87 1261.17 1558.87 Q1263.26 1558.87 1265.52 1556.97 Q1267.81 1555.07 1269.74 1550.43 Q1270 1549.82 1270.12 1549.69 Q1270.28 1549.53 1270.7 1549.53 Q1271.51 1549.53 1271.51 1550.17 Q1271.51 1550.4 1271.06 1551.43 Q1270.64 1552.46 1269.71 1553.97 Q1268.8 1555.49 1267.61 1556.9 Q1266.45 1558.32 1264.68 1559.35 Q1262.91 1560.35 1261.01 1560.35 Q1258.34 1560.35 1256.63 1558.64 Q1254.95 1556.94 1254.95 1554.26 Q1254.95 1553.39 1255.63 1550.62 Q1256.31 1547.82 1259.98 1533.23 L1254.15 1533.23 Q1253.34 1533.23 1253.02 1533.2 Q1252.73 1533.17 1252.51 1533.01 Q1252.31 1532.81 1252.31 1532.43 Q1252.31 1531.82 1252.57 1531.56 Q1252.83 1531.27 1253.15 1531.24 Q1253.51 1531.17 1254.31 1531.17 L1260.49 1531.17 L1263.07 1520.71 Q1263.33 1519.67 1263.97 1519.09 Q1264.65 1518.48 1265.04 1518.42 Q1265.42 1518.32 1265.71 1518.32 Q1266.58 1518.32 1267.1 1518.81 Q1267.61 1519.26 1267.61 1520.09 Q1267.61 1520.54 1264.91 1531.17 L1270.7 1531.17 Q1271.44 1531.17 1271.73 1531.2 Q1272.06 1531.24 1272.31 1531.4 Q1272.57 1531.56 1272.57 1531.91 Z" fill="#000000" fill-rule="nonzero" fill-opacity="1" /><polyline clip-path="url(#clip702)" style="stroke:#000000; stroke-linecap:round; stroke-linejoin:round; stroke-width:2; stroke-opacity:0.1; fill:none" points="175.445,1384.24 2352.76,1384.24 "/>
<polyline clip-path="url(#clip702)" style="stroke:#000000; stroke-linecap:round; stroke-linejoin:round; stroke-width:2; stroke-opacity:0.1; fill:none" points="175.445,1069.92 2352.76,1069.92 "/>
<polyline clip-path="url(#clip702)" style="stroke:#000000; stroke-linecap:round; stroke-linejoin:round; stroke-width:2; stroke-opacity:0.1; fill:none" points="175.445,755.61 2352.76,755.61 "/>
<polyline clip-path="url(#clip702)" style="stroke:#000000; stroke-linecap:round; stroke-linejoin:round; stroke-width:2; stroke-opacity:0.1; fill:none" points="175.445,441.296 2352.76,441.296 "/>
<polyline clip-path="url(#clip702)" style="stroke:#000000; stroke-linecap:round; stroke-linejoin:round; stroke-width:2; stroke-opacity:0.1; fill:none" points="175.445,126.982 2352.76,126.982 "/>
<polyline clip-path="url(#clip700)" style="stroke:#000000; stroke-linecap:round; stroke-linejoin:round; stroke-width:4; stroke-opacity:1; fill:none" points="175.445,1423.18 175.445,47.2441 "/>
<polyline clip-path="url(#clip700)" style="stroke:#000000; stroke-linecap:round; stroke-linejoin:round; stroke-width:4; stroke-opacity:1; fill:none" points="175.445,1384.24 194.343,1384.24 "/>
<polyline clip-path="url(#clip700)" style="stroke:#000000; stroke-linecap:round; stroke-linejoin:round; stroke-width:4; stroke-opacity:1; fill:none" points="175.445,1069.92 194.343,1069.92 "/>
<polyline clip-path="url(#clip700)" style="stroke:#000000; stroke-linecap:round; stroke-linejoin:round; stroke-width:4; stroke-opacity:1; fill:none" points="175.445,755.61 194.343,755.61 "/>
<polyline clip-path="url(#clip700)" style="stroke:#000000; stroke-linecap:round; stroke-linejoin:round; stroke-width:4; stroke-opacity:1; fill:none" points="175.445,441.296 194.343,441.296 "/>
<polyline clip-path="url(#clip700)" style="stroke:#000000; stroke-linecap:round; stroke-linejoin:round; stroke-width:4; stroke-opacity:1; fill:none" points="175.445,126.982 194.343,126.982 "/>
<path clip-path="url(#clip700)" d="M127.501 1370.04 Q123.89 1370.04 122.061 1373.6 Q120.255 1377.14 120.255 1384.27 Q120.255 1391.38 122.061 1394.94 Q123.89 1398.49 127.501 1398.49 Q131.135 1398.49 132.941 1394.94 Q134.769 1391.38 134.769 1384.27 Q134.769 1377.14 132.941 1373.6 Q131.135 1370.04 127.501 1370.04 M127.501 1366.33 Q133.311 1366.33 136.367 1370.94 Q139.445 1375.52 139.445 1384.27 Q139.445 1393 136.367 1397.61 Q133.311 1402.19 127.501 1402.19 Q121.691 1402.19 118.612 1397.61 Q115.556 1393 115.556 1384.27 Q115.556 1375.52 118.612 1370.94 Q121.691 1366.33 127.501 1366.33 Z" fill="#000000" fill-rule="nonzero" fill-opacity="1" /><path clip-path="url(#clip700)" d="M119.538 1083.27 L127.177 1083.27 L127.177 1056.9 L118.867 1058.57 L118.867 1054.31 L127.13 1052.64 L131.806 1052.64 L131.806 1083.27 L139.445 1083.27 L139.445 1087.2 L119.538 1087.2 L119.538 1083.27 Z" fill="#000000" fill-rule="nonzero" fill-opacity="1" /><path clip-path="url(#clip700)" d="M123.126 768.955 L139.445 768.955 L139.445 772.89 L117.501 772.89 L117.501 768.955 Q120.163 766.201 124.746 761.571 Q129.353 756.918 130.533 755.576 Q132.779 753.052 133.658 751.316 Q134.561 749.557 134.561 747.867 Q134.561 745.113 132.617 743.377 Q130.695 741.64 127.593 741.64 Q125.394 741.64 122.941 742.404 Q120.51 743.168 117.732 744.719 L117.732 739.997 Q120.556 738.863 123.01 738.284 Q125.464 737.705 127.501 737.705 Q132.871 737.705 136.066 740.39 Q139.26 743.076 139.26 747.566 Q139.26 749.696 138.45 751.617 Q137.663 753.515 135.556 756.108 Q134.978 756.779 131.876 759.997 Q128.774 763.191 123.126 768.955 Z" fill="#000000" fill-rule="nonzero" fill-opacity="1" /><path clip-path="url(#clip700)" d="M132.316 439.942 Q135.672 440.66 137.547 442.928 Q139.445 445.197 139.445 448.53 Q139.445 453.646 135.927 456.447 Q132.408 459.248 125.927 459.248 Q123.751 459.248 121.436 458.808 Q119.144 458.391 116.691 457.535 L116.691 453.021 Q118.635 454.155 120.95 454.734 Q123.265 455.312 125.788 455.312 Q130.186 455.312 132.478 453.576 Q134.792 451.84 134.792 448.53 Q134.792 445.475 132.64 443.762 Q130.51 442.025 126.691 442.025 L122.663 442.025 L122.663 438.183 L126.876 438.183 Q130.325 438.183 132.154 436.817 Q133.982 435.428 133.982 432.836 Q133.982 430.174 132.084 428.762 Q130.209 427.326 126.691 427.326 Q124.769 427.326 122.57 427.743 Q120.371 428.16 117.732 429.039 L117.732 424.873 Q120.394 424.132 122.709 423.762 Q125.047 423.391 127.107 423.391 Q132.431 423.391 135.533 425.822 Q138.635 428.229 138.635 432.35 Q138.635 435.22 136.992 437.211 Q135.348 439.178 132.316 439.942 Z" fill="#000000" fill-rule="nonzero" fill-opacity="1" /><path clip-path="url(#clip700)" d="M129.862 113.776 L118.056 132.225 L129.862 132.225 L129.862 113.776 M128.635 109.702 L134.515 109.702 L134.515 132.225 L139.445 132.225 L139.445 136.114 L134.515 136.114 L134.515 144.262 L129.862 144.262 L129.862 136.114 L114.26 136.114 L114.26 131.6 L128.635 109.702 Z" fill="#000000" fill-rule="nonzero" fill-opacity="1" /><path clip-path="url(#clip700)" d="M30.8561 720.775 Q31.307 720.775 32.3698 721.064 L57.5548 727.377 Q63.1586 728.762 67.0877 733.27 Q71.0168 737.747 71.0168 742.836 Q71.0168 745.895 69.3743 747.86 Q67.764 749.824 65.2842 749.824 Q63.0942 749.824 62.0314 748.665 Q61.0008 747.505 61.0008 746.121 Q61.0008 745.67 61.1296 745.187 Q61.2584 744.703 61.8059 744.188 Q62.3534 743.673 63.2874 743.673 Q64.8011 743.673 65.9927 744.993 Q66.5402 745.637 66.669 746.249 Q66.7978 746.829 66.7978 747.827 Q67.6996 747.441 68.3115 746.732 Q68.9234 746.024 69.1489 745.219 Q69.4065 744.414 69.4709 743.898 Q69.5675 743.351 69.5675 742.836 Q69.5675 738.713 65.413 735.557 Q64.157 734.623 62.9009 733.947 Q61.6771 733.238 60.1634 732.723 Q58.682 732.208 57.8768 731.982 Q57.0717 731.725 55.2359 731.274 Q58.2311 734.269 58.2311 737.94 Q58.2311 739.486 57.8124 740.871 Q57.3937 742.224 56.5242 743.415 Q55.6224 744.607 54.0443 745.315 Q52.4662 745.992 50.3728 745.992 Q48.1506 745.992 45.1233 745.122 Q42.0959 744.253 36.5243 742.159 Q33.4004 741.032 31.8867 741.032 Q31.146 741.032 30.6951 741.193 Q30.212 741.354 30.051 741.676 Q29.8577 741.998 29.8255 742.191 Q29.7933 742.352 29.7933 742.675 Q29.7933 744.575 31.7257 746.346 Q33.658 748.117 37.9736 749.341 Q38.7787 749.599 38.972 749.76 Q39.1652 749.921 39.1652 750.404 Q39.133 751.209 38.4889 751.209 Q38.2312 751.209 37.2329 750.919 Q36.2023 750.629 34.6886 749.953 Q33.1427 749.245 31.7579 748.278 Q30.3408 747.312 29.3424 745.798 Q28.344 744.253 28.344 742.481 Q28.344 740.066 29.9221 738.584 Q31.468 737.071 33.7546 737.071 Q34.6886 737.071 35.5259 737.328 Q36.3311 737.554 38.4889 738.391 Q47.1845 741.773 51.4356 741.773 Q52.4662 741.773 53.3358 741.612 Q54.1731 741.418 55.0105 741 Q55.8156 740.581 56.2987 739.744 Q56.7496 738.874 56.7496 737.683 Q56.7496 736.169 56.0411 734.752 Q55.3003 733.303 54.302 732.401 Q53.3036 731.467 52.4662 730.919 Q51.5967 730.34 51.1458 730.211 L39.294 727.248 L34.0123 725.927 Q31.146 725.316 30.4374 725.026 Q29.7611 724.639 29.4068 723.963 Q29.0526 723.287 29.0526 722.707 Q29.0526 721.902 29.5357 721.354 Q30.0187 720.775 30.8561 720.775 Z" fill="#000000" fill-rule="nonzero" fill-opacity="1" /><polyline clip-path="url(#clip702)" style="stroke:#009af9; stroke-linecap:round; stroke-linejoin:round; stroke-width:4; stroke-opacity:1; fill:none" points="237.067,1384.24 241.079,1384.24 245.091,1384.24 249.103,1384.24 253.115,1384.24 257.126,1384.24 261.138,683.99 265.15,1009.83 269.162,86.1857 273.174,1384.24 277.186,1263.73 281.198,919.247 285.209,1384.24 289.221,1384.24 293.233,1384.24 297.245,1172.75 301.257,1365 305.269,1246.75 309.28,1384.24 313.292,1332.94 317.304,1384.24 321.316,1365.1 325.328,1384.24 329.34,1384.24 333.352,1384.24 337.363,1384.24 341.375,1262.93 345.387,1299.4 349.399,1138.27 353.411,1353.15 357.423,467.33 361.435,731.162 365.446,1188.75 369.458,1384.24 373.47,1247.51 377.482,1256.03 381.494,1258.62 385.506,873.204 389.517,1141.21 393.529,1200.24 397.541,1384.24 401.553,1211.37 405.565,828.436 409.577,881.497 413.589,1384.24 417.6,1384.24 421.612,828.88 425.624,1384.24 429.636,1384.24 433.648,1384.24 437.66,1307.26 441.672,1008.67 445.683,1333.79 449.695,1384.24 453.707,1384.24 457.719,1065.46 461.731,1384.24 465.743,1384.24 469.754,1384.24 473.766,653.6 477.778,1170.23 481.79,1384.24 485.802,1304.04 489.814,1384.24 493.826,1003.47 497.837,1360.86 501.849,1384.24 505.861,1144.24 509.873,1384.24 513.885,1384.24 517.897,1041.61 521.908,1191.17 525.92,905.397 529.932,1030.38 533.944,1361.89 537.956,1115.76 541.968,1384.24 545.98,1318.72 549.991,1384.24 554.003,1154.2 558.015,899.674 562.027,1384.24 566.039,1384.24 570.051,1384.24 574.063,1384.24 578.074,1384.24 582.086,1384.24 586.098,1278.87 590.11,1246.75 594.122,1066.16 598.134,1298.39 602.145,1028.89 606.157,850.371 610.169,1384.24 614.181,1384.24 618.193,1384.24 622.205,1309.54 626.217,1384.24 630.228,1222.54 634.24,1337.63 638.252,1384.24 642.264,1278.5 646.276,1317.96 650.288,1161.49 654.3,1347.73 658.311,1384.24 662.323,1384.24 666.335,1384.24 670.347,1015.41 674.359,955.103 678.371,1311.98 682.382,1229.72 686.394,1250.41 690.406,1384.24 694.418,1384.24 698.43,1384.24 702.442,1384.24 706.454,1384.24 710.465,1384.24 714.477,1384.24 718.489,1384.24 722.501,906.497 726.513,1338.63 730.525,1384.24 734.536,1384.24 738.548,1384.24 742.56,1384.24 746.572,1384.24 750.584,1332.93 754.596,1348.37 758.608,1358.66 762.619,1217.38 766.631,1384.24 770.643,1246.17 774.655,1384.24 778.667,1384.24 782.679,1384.24 786.691,1384.24 790.702,1384.24 794.714,1384.24 798.726,1376.31 802.738,1384.24 806.75,1384.24 810.762,1273.55 814.773,1384.24 818.785,1384.24 822.797,1384.24 826.809,1384.24 830.821,1384.24 834.833,1384.24 838.845,1384.24 842.856,1177.33 846.868,1182.37 850.88,1199.08 854.892,1152.16 858.904,1384.24 862.916,1384.24 866.928,1169.44 870.939,1326.98 874.951,1340.19 878.963,1384.24 882.975,1384.24 886.987,1384.24 890.999,1384.24 895.01,1384.24 899.022,1384.24 903.034,1374.58 907.046,1299.46 911.058,1293.07 915.07,1384.24 919.082,1384.24 923.093,1384.24 927.105,1384.24 931.117,1384.24 935.129,1384.24 939.141,1289.64 943.153,1384.24 947.164,1384.24 951.176,1384.24 955.188,1384.24 959.2,1384.24 963.212,1384.24 967.224,1384.24 971.236,1384.24 975.247,1384.24 979.259,1384.24 983.271,1336.49 987.283,1384.24 991.295,1372.74 995.307,1384.24 999.319,1384.24 1003.33,1384.24 1007.34,1384.24 1011.35,1361.17 1015.37,1384.24 1019.38,1334.7 1023.39,1384.24 1027.4,1368.65 1031.41,1351.41 1035.43,1267.38 1039.44,1185.16 1043.45,1353.16 1047.46,1384.24 1051.47,1384.24 1055.48,1384.24 1059.5,1384.24 1063.51,1384.24 1067.52,1316.89 1071.53,1384.24 1075.54,1384.24 1079.56,1384.24 1083.57,1306.54 1087.58,1384.24 1091.59,1365.85 1095.6,1282.81 1099.61,1291.68 1103.63,1195.02 1107.64,1345.49 1111.65,1179.12 1115.66,1250.44 1119.67,1275.6 1123.69,1324.21 1127.7,1211.14 1131.71,1384.24 1135.72,1384.24 1139.73,1384.24 1143.75,1384.24 1147.76,1277.34 1151.77,1384.24 1155.78,1384.24 1159.79,1384.24 1163.8,1384.24 1167.82,1384.24 1171.83,1380.18 1175.84,1384.24 1179.85,1384.24 1183.86,1384.24 1187.88,1371.16 1191.89,1355.48 1195.9,1384.24 1199.91,1264.19 1203.92,1384.24 1207.93,1384.24 1211.95,1372.84 1215.96,1384.24 1219.97,1384.24 1223.98,1384.24 1227.99,1384.24 1232.01,1140.05 1236.02,1384.24 1240.03,1384.24 1244.04,1384.24 1248.05,1384.24 1252.07,1384.24 1256.08,1384.24 1260.09,1384.24 1264.1,1384.24 1268.11,1267.67 1272.12,1384.24 1276.14,1289.26 1280.15,1384.24 1284.16,1384.24 1288.17,1384.24 1292.18,1384.24 1296.2,1244.95 1300.21,1155.39 1304.22,1293.38 1308.23,1324.32 1312.24,1328.74 1316.25,1219.6 1320.27,1362.08 1324.28,1250.91 1328.29,1331.79 1332.3,1384.24 1336.31,1384.24 1340.33,1362.8 1344.34,1319.92 1348.35,1324.82 1352.36,1280.51 1356.37,1384.24 1360.38,1384.24 1364.4,1376.23 1368.41,1370.5 1372.42,1279.43 1376.43,1384.24 1380.44,1384.24 1384.46,1384.24 1388.47,1384.24 1392.48,1384.24 1396.49,1384.24 1400.5,1384.24 1404.52,1384.24 1408.53,1384.24 1412.54,1219.74 1416.55,1294.5 1420.56,1302.9 1424.57,1272.08 1428.59,1211.2 1432.6,1193.25 1436.61,1283.13 1440.62,1093.32 1444.63,1179.24 1448.65,1384.24 1452.66,1282.45 1456.67,1297.58 1460.68,971.886 1464.69,1332.99 1468.7,1384.24 1472.72,1384.24 1476.73,1384.24 1480.74,1384.24 1484.75,1384.24 1488.76,1384.24 1492.78,1247.89 1496.79,1384.24 1500.8,1278.45 1504.81,1217.71 1508.82,1243.9 1512.84,1368.8 1516.85,1244.62 1520.86,1267.23 1524.87,1384.24 1528.88,1359.08 1532.89,1384.24 1536.91,1384.24 1540.92,1344.68 1544.93,1270.85 1548.94,1384.24 1552.95,1368.01 1556.97,1345.67 1560.98,1273.28 1564.99,1277.46 1569,1384.24 1573.01,1384.24 1577.02,1347.04 1581.04,1384.24 1585.05,1384.24 1589.06,1295.81 1593.07,1349.85 1597.08,1311.83 1601.1,1167.33 1605.11,1208.04 1609.12,1241.21 1613.13,1257.94 1617.14,1318.54 1621.16,1384.24 1625.17,1254.32 1629.18,1320.78 1633.19,1384.24 1637.2,1384.24 1641.21,1384.24 1645.23,1384.24 1649.24,1384.24 1653.25,1384.24 1657.26,1384.24 1661.27,1384.24 1665.29,1369 1669.3,1384.24 1673.31,1384.24 1677.32,1384.24 1681.33,1358.68 1685.34,1384.24 1689.36,1384.24 1693.37,1384.24 1697.38,1384.24 1701.39,1384.24 1705.4,1358.23 1709.42,1384.24 1713.43,1328.94 1717.44,1369.95 1721.45,1384.24 1725.46,1384.24 1729.48,1332.72 1733.49,1246.35 1737.5,1275.16 1741.51,1379.23 1745.52,1307.02 1749.53,1243.19 1753.55,1304.31 1757.56,1384.24 1761.57,1259.82 1765.58,1302.15 1769.59,1384.24 1773.61,1384.24 1777.62,1384.24 1781.63,1384.24 1785.64,1384.24 1789.65,1340.7 1793.66,1273.13 1797.68,1356.82 1801.69,1216.41 1805.7,1269.13 1809.71,1384.24 1813.72,1384.24 1817.74,1347.32 1821.75,1370.19 1825.76,1238.65 1829.77,1255.87 1833.78,1140.66 1837.79,1368.81 1841.81,1384.24 1845.82,1384.24 1849.83,1384.24 1853.84,1384.24 1857.85,1384.24 1861.87,1384.24 1865.88,1384.24 1869.89,1284.68 1873.9,1384.24 1877.91,1384.24 1881.93,1384.24 1885.94,1384.24 1889.95,1384.24 1893.96,1384.24 1897.97,1384.24 1901.98,1384.24 1906,1292.7 1910.01,1332.78 1914.02,1295.46 1918.03,1302.44 1922.04,1340.89 1926.06,1242.31 1930.07,1384.24 1934.08,1384.24 1938.09,1384.24 1942.1,1384.24 1946.11,1358.29 1950.13,1384.24 1954.14,1275.63 1958.15,1182.62 1962.16,1221.98 1966.17,1371.62 1970.19,1326.43 1974.2,1384.24 1978.21,1371.72 1982.22,1352.07 1986.23,1384.24 1990.25,1312.24 1994.26,1384.24 1998.27,1384.24 2002.28,1315.67 2006.29,1384.24 2010.3,1384.24 2014.32,1384.24 2018.33,1384.24 2022.34,1384.24 2026.35,1384.24 2030.36,1373.11 2034.38,1384.24 2038.39,1384.24 2042.4,1384.24 2046.41,1384.24 2050.42,1368.17 2054.43,1384.24 2058.45,1306.77 2062.46,1306.19 2066.47,1300.88 2070.48,1253.38 2074.49,1360.24 2078.51,1254.25 2082.52,1384.24 2086.53,1384.24 2090.54,1384.24 2094.55,1349.41 2098.57,1384.24 2102.58,1384.24 2106.59,1384.24 2110.6,1384.24 2114.61,1320.24 2118.62,1379.5 2122.64,1377.77 2126.65,1205.29 2130.66,1357.23 2134.67,1336.5 2138.68,1315.51 2142.7,1151.26 2146.71,1339.23 2150.72,1228.9 2154.73,1256.34 2158.74,1292.66 2162.75,1384.24 2166.77,1384.24 2170.78,1384.24 2174.79,1384.24 2178.8,1384.24 2182.81,1384.24 2186.83,1384.24 2190.84,1384.24 2194.85,1384.24 2198.86,1384.24 2202.87,1384.24 2206.89,1384.24 2210.9,1384.24 2214.91,1348.92 2218.92,1384.24 2222.93,1384.24 2226.94,1384.24 2230.96,1340.17 2234.97,1309.47 2238.98,1159.96 2242.99,1323.62 2247,1384.24 2251.02,1384.24 2255.03,1384.24 2259.04,1384.24 2263.05,1371.6 2267.06,1384.24 2271.07,1332.69 2275.09,1288.59 2279.1,1279.21 2283.11,1279.7 2287.12,1384.24 2291.13,1384.24 "/>
<path clip-path="url(#clip700)" d="M1943.19 196.789 L2280.18 196.789 L2280.18 93.1086 L1943.19 93.1086  Z" fill="#ffffff" fill-rule="evenodd" fill-opacity="1"/>
<polyline clip-path="url(#clip700)" style="stroke:#000000; stroke-linecap:round; stroke-linejoin:round; stroke-width:4; stroke-opacity:1; fill:none" points="1943.19,196.789 2280.18,196.789 2280.18,93.1086 1943.19,93.1086 1943.19,196.789 "/>
<polyline clip-path="url(#clip700)" style="stroke:#009af9; stroke-linecap:round; stroke-linejoin:round; stroke-width:4; stroke-opacity:1; fill:none" points="1967.38,144.949 2112.54,144.949 "/>
<path clip-path="url(#clip700)" d="M2158.44 146.581 L2158.44 162.229 L2154.18 162.229 L2154.18 146.719 Q2154.18 143.039 2152.75 141.21 Q2151.31 139.382 2148.44 139.382 Q2144.99 139.382 2143 141.581 Q2141.01 143.78 2141.01 147.576 L2141.01 162.229 L2136.73 162.229 L2136.73 136.303 L2141.01 136.303 L2141.01 140.331 Q2142.54 137.993 2144.6 136.835 Q2146.68 135.678 2149.39 135.678 Q2153.86 135.678 2156.15 138.456 Q2158.44 141.21 2158.44 146.581 Z" fill="#000000" fill-rule="nonzero" fill-opacity="1" /><path clip-path="url(#clip700)" d="M2176.98 139.289 Q2173.56 139.289 2171.57 141.974 Q2169.57 144.636 2169.57 149.289 Q2169.57 153.942 2171.54 156.627 Q2173.53 159.289 2176.98 159.289 Q2180.39 159.289 2182.38 156.604 Q2184.37 153.918 2184.37 149.289 Q2184.37 144.682 2182.38 141.997 Q2180.39 139.289 2176.98 139.289 M2176.98 135.678 Q2182.54 135.678 2185.71 139.289 Q2188.88 142.9 2188.88 149.289 Q2188.88 155.655 2185.71 159.289 Q2182.54 162.9 2176.98 162.9 Q2171.4 162.9 2168.23 159.289 Q2165.08 155.655 2165.08 149.289 Q2165.08 142.9 2168.23 139.289 Q2171.4 135.678 2176.98 135.678 Z" fill="#000000" fill-rule="nonzero" fill-opacity="1" /><path clip-path="url(#clip700)" d="M2195.94 136.303 L2200.2 136.303 L2200.2 162.229 L2195.94 162.229 L2195.94 136.303 M2195.94 126.21 L2200.2 126.21 L2200.2 131.604 L2195.94 131.604 L2195.94 126.21 Z" fill="#000000" fill-rule="nonzero" fill-opacity="1" /><path clip-path="url(#clip700)" d="M2225.64 137.067 L2225.64 141.094 Q2223.83 140.169 2221.89 139.706 Q2219.95 139.243 2217.86 139.243 Q2214.69 139.243 2213.09 140.215 Q2211.52 141.187 2211.52 143.131 Q2211.52 144.613 2212.65 145.469 Q2213.79 146.303 2217.21 147.067 L2218.67 147.391 Q2223.21 148.363 2225.11 150.145 Q2227.03 151.905 2227.03 155.076 Q2227.03 158.687 2224.16 160.793 Q2221.31 162.9 2216.31 162.9 Q2214.23 162.9 2211.96 162.483 Q2209.71 162.09 2207.21 161.28 L2207.21 156.881 Q2209.57 158.108 2211.87 158.733 Q2214.16 159.335 2216.4 159.335 Q2219.41 159.335 2221.03 158.317 Q2222.65 157.275 2222.65 155.4 Q2222.65 153.664 2221.47 152.738 Q2220.32 151.812 2216.36 150.956 L2214.88 150.608 Q2210.92 149.775 2209.16 148.062 Q2207.4 146.326 2207.4 143.317 Q2207.4 139.659 2209.99 137.669 Q2212.58 135.678 2217.35 135.678 Q2219.71 135.678 2221.8 136.025 Q2223.88 136.372 2225.64 137.067 Z" fill="#000000" fill-rule="nonzero" fill-opacity="1" /><path clip-path="url(#clip700)" d="M2255.99 148.201 L2255.99 150.284 L2236.4 150.284 Q2236.68 154.682 2239.04 156.997 Q2241.43 159.289 2245.66 159.289 Q2248.12 159.289 2250.41 158.687 Q2252.72 158.085 2254.99 156.881 L2254.99 160.909 Q2252.7 161.881 2250.29 162.391 Q2247.88 162.9 2245.41 162.9 Q2239.2 162.9 2235.57 159.289 Q2231.96 155.678 2231.96 149.52 Q2231.96 143.155 2235.38 139.428 Q2238.83 135.678 2244.67 135.678 Q2249.9 135.678 2252.93 139.057 Q2255.99 142.414 2255.99 148.201 M2251.73 146.951 Q2251.68 143.456 2249.76 141.372 Q2247.86 139.289 2244.71 139.289 Q2241.15 139.289 2239 141.303 Q2236.87 143.317 2236.54 146.974 L2251.73 146.951 Z" fill="#000000" fill-rule="nonzero" fill-opacity="1" /></svg>
