<?xml version="1.0" encoding="utf-8"?>
<svg xmlns="http://www.w3.org/2000/svg" xmlns:xlink="http://www.w3.org/1999/xlink" width="600" height="400" viewBox="0 0 2400 1600">
<defs>
  <clipPath id="clip640">
    <rect x="0" y="0" width="2400" height="1600"/>
  </clipPath>
</defs>
<path clip-path="url(#clip640)" d="M0 1600 L2400 1600 L2400 0 L0 0  Z" fill="#ffffff" fill-rule="evenodd" fill-opacity="1"/>
<defs>
  <clipPath id="clip641">
    <rect x="480" y="0" width="1681" height="1600"/>
  </clipPath>
</defs>
<path clip-path="url(#clip640)" d="M210.376 1423.18 L2352.76 1423.18 L2352.76 47.2441 L210.376 47.2441  Z" fill="#ffffff" fill-rule="evenodd" fill-opacity="1"/>
<defs>
  <clipPath id="clip642">
    <rect x="210" y="47" width="2143" height="1377"/>
  </clipPath>
</defs>
<polyline clip-path="url(#clip642)" style="stroke:#000000; stroke-linecap:round; stroke-linejoin:round; stroke-width:2; stroke-opacity:0.1; fill:none" points="271.009,1423.18 271.009,47.2441 "/>
<polyline clip-path="url(#clip642)" style="stroke:#000000; stroke-linecap:round; stroke-linejoin:round; stroke-width:2; stroke-opacity:0.1; fill:none" points="776.287,1423.18 776.287,47.2441 "/>
<polyline clip-path="url(#clip642)" style="stroke:#000000; stroke-linecap:round; stroke-linejoin:round; stroke-width:2; stroke-opacity:0.1; fill:none" points="1281.57,1423.18 1281.57,47.2441 "/>
<polyline clip-path="url(#clip642)" style="stroke:#000000; stroke-linecap:round; stroke-linejoin:round; stroke-width:2; stroke-opacity:0.1; fill:none" points="1786.84,1423.18 1786.84,47.2441 "/>
<polyline clip-path="url(#clip642)" style="stroke:#000000; stroke-linecap:round; stroke-linejoin:round; stroke-width:2; stroke-opacity:0.1; fill:none" points="2292.12,1423.18 2292.12,47.2441 "/>
<polyline clip-path="url(#clip640)" style="stroke:#000000; stroke-linecap:round; stroke-linejoin:round; stroke-width:4; stroke-opacity:1; fill:none" points="210.376,1423.18 2352.76,1423.18 "/>
<polyline clip-path="url(#clip640)" style="stroke:#000000; stroke-linecap:round; stroke-linejoin:round; stroke-width:4; stroke-opacity:1; fill:none" points="271.009,1423.18 271.009,1404.28 "/>
<polyline clip-path="url(#clip640)" style="stroke:#000000; stroke-linecap:round; stroke-linejoin:round; stroke-width:4; stroke-opacity:1; fill:none" points="776.287,1423.18 776.287,1404.28 "/>
<polyline clip-path="url(#clip640)" style="stroke:#000000; stroke-linecap:round; stroke-linejoin:round; stroke-width:4; stroke-opacity:1; fill:none" points="1281.57,1423.18 1281.57,1404.28 "/>
<polyline clip-path="url(#clip640)" style="stroke:#000000; stroke-linecap:round; stroke-linejoin:round; stroke-width:4; stroke-opacity:1; fill:none" points="1786.84,1423.18 1786.84,1404.28 "/>
<polyline clip-path="url(#clip640)" style="stroke:#000000; stroke-linecap:round; stroke-linejoin:round; stroke-width:4; stroke-opacity:1; fill:none" points="2292.12,1423.18 2292.12,1404.28 "/>
<path clip-path="url(#clip640)" d="M248.393 1454.1 Q244.782 1454.1 242.954 1457.66 Q241.148 1461.2 241.148 1468.33 Q241.148 1475.44 242.954 1479.01 Q244.782 1482.55 248.393 1482.55 Q252.028 1482.55 253.833 1479.01 Q255.662 1475.44 255.662 1468.33 Q255.662 1461.2 253.833 1457.66 Q252.028 1454.1 248.393 1454.1 M248.393 1450.39 Q254.204 1450.39 257.259 1455 Q260.338 1459.58 260.338 1468.33 Q260.338 1477.06 257.259 1481.67 Q254.204 1486.25 248.393 1486.25 Q242.583 1486.25 239.505 1481.67 Q236.449 1477.06 236.449 1468.33 Q236.449 1459.58 239.505 1455 Q242.583 1450.39 248.393 1450.39 Z" fill="#000000" fill-rule="nonzero" fill-opacity="1" /><path clip-path="url(#clip640)" d="M268.555 1479.7 L273.44 1479.7 L273.44 1485.58 L268.555 1485.58 L268.555 1479.7 Z" fill="#000000" fill-rule="nonzero" fill-opacity="1" /><path clip-path="url(#clip640)" d="M293.625 1454.1 Q290.014 1454.1 288.185 1457.66 Q286.379 1461.2 286.379 1468.33 Q286.379 1475.44 288.185 1479.01 Q290.014 1482.55 293.625 1482.55 Q297.259 1482.55 299.064 1479.01 Q300.893 1475.44 300.893 1468.33 Q300.893 1461.2 299.064 1457.66 Q297.259 1454.1 293.625 1454.1 M293.625 1450.39 Q299.435 1450.39 302.49 1455 Q305.569 1459.58 305.569 1468.33 Q305.569 1477.06 302.49 1481.67 Q299.435 1486.25 293.625 1486.25 Q287.814 1486.25 284.736 1481.67 Q281.68 1477.06 281.68 1468.33 Q281.68 1459.58 284.736 1455 Q287.814 1450.39 293.625 1450.39 Z" fill="#000000" fill-rule="nonzero" fill-opacity="1" /><path clip-path="url(#clip640)" d="M754.169 1454.1 Q750.558 1454.1 748.73 1457.66 Q746.924 1461.2 746.924 1468.33 Q746.924 1475.44 748.73 1479.01 Q750.558 1482.55 754.169 1482.55 Q757.804 1482.55 759.609 1479.01 Q761.438 1475.44 761.438 1468.33 Q761.438 1461.2 759.609 1457.66 Q757.804 1454.1 754.169 1454.1 M754.169 1450.39 Q759.98 1450.39 763.035 1455 Q766.114 1459.58 766.114 1468.33 Q766.114 1477.06 763.035 1481.67 Q759.98 1486.25 754.169 1486.25 Q748.359 1486.25 745.281 1481.67 Q742.225 1477.06 742.225 1468.33 Q742.225 1459.58 745.281 1455 Q748.359 1450.39 754.169 1450.39 Z" fill="#000000" fill-rule="nonzero" fill-opacity="1" /><path clip-path="url(#clip640)" d="M774.331 1479.7 L779.216 1479.7 L779.216 1485.58 L774.331 1485.58 L774.331 1479.7 Z" fill="#000000" fill-rule="nonzero" fill-opacity="1" /><path clip-path="url(#clip640)" d="M789.447 1451.02 L807.803 1451.02 L807.803 1454.96 L793.729 1454.96 L793.729 1463.43 Q794.748 1463.08 795.766 1462.92 Q796.785 1462.73 797.803 1462.73 Q803.59 1462.73 806.97 1465.9 Q810.35 1469.08 810.35 1474.49 Q810.35 1480.07 806.877 1483.17 Q803.405 1486.25 797.086 1486.25 Q794.91 1486.25 792.641 1485.88 Q790.396 1485.51 787.989 1484.77 L787.989 1480.07 Q790.072 1481.2 792.294 1481.76 Q794.516 1482.32 796.993 1482.32 Q800.998 1482.32 803.336 1480.21 Q805.674 1478.1 805.674 1474.49 Q805.674 1470.88 803.336 1468.77 Q800.998 1466.67 796.993 1466.67 Q795.118 1466.67 793.243 1467.08 Q791.391 1467.5 789.447 1468.38 L789.447 1451.02 Z" fill="#000000" fill-rule="nonzero" fill-opacity="1" /><path clip-path="url(#clip640)" d="M1248.72 1481.64 L1256.36 1481.64 L1256.36 1455.28 L1248.05 1456.95 L1248.05 1452.69 L1256.31 1451.02 L1260.99 1451.02 L1260.99 1481.64 L1268.63 1481.64 L1268.63 1485.58 L1248.72 1485.58 L1248.72 1481.64 Z" fill="#000000" fill-rule="nonzero" fill-opacity="1" /><path clip-path="url(#clip640)" d="M1278.07 1479.7 L1282.95 1479.7 L1282.95 1485.58 L1278.07 1485.58 L1278.07 1479.7 Z" fill="#000000" fill-rule="nonzero" fill-opacity="1" /><path clip-path="url(#clip640)" d="M1303.14 1454.1 Q1299.53 1454.1 1297.7 1457.66 Q1295.89 1461.2 1295.89 1468.33 Q1295.89 1475.44 1297.7 1479.01 Q1299.53 1482.55 1303.14 1482.55 Q1306.77 1482.55 1308.58 1479.01 Q1310.41 1475.44 1310.41 1468.33 Q1310.41 1461.2 1308.58 1457.66 Q1306.77 1454.1 1303.14 1454.1 M1303.14 1450.39 Q1308.95 1450.39 1312.01 1455 Q1315.08 1459.58 1315.08 1468.33 Q1315.08 1477.06 1312.01 1481.67 Q1308.95 1486.25 1303.14 1486.25 Q1297.33 1486.25 1294.25 1481.67 Q1291.2 1477.06 1291.2 1468.33 Q1291.2 1459.58 1294.25 1455 Q1297.33 1450.39 1303.14 1450.39 Z" fill="#000000" fill-rule="nonzero" fill-opacity="1" /><path clip-path="url(#clip640)" d="M1754.49 1481.64 L1762.13 1481.64 L1762.13 1455.28 L1753.82 1456.95 L1753.82 1452.69 L1762.09 1451.02 L1766.76 1451.02 L1766.76 1481.64 L1774.4 1481.64 L1774.4 1485.58 L1754.49 1485.58 L1754.49 1481.64 Z" fill="#000000" fill-rule="nonzero" fill-opacity="1" /><path clip-path="url(#clip640)" d="M1783.85 1479.7 L1788.73 1479.7 L1788.73 1485.58 L1783.85 1485.58 L1783.85 1479.7 Z" fill="#000000" fill-rule="nonzero" fill-opacity="1" /><path clip-path="url(#clip640)" d="M1798.96 1451.02 L1817.32 1451.02 L1817.32 1454.96 L1803.24 1454.96 L1803.24 1463.43 Q1804.26 1463.08 1805.28 1462.92 Q1806.3 1462.73 1807.32 1462.73 Q1813.11 1462.73 1816.49 1465.9 Q1819.86 1469.08 1819.86 1474.49 Q1819.86 1480.07 1816.39 1483.17 Q1812.92 1486.25 1806.6 1486.25 Q1804.43 1486.25 1802.16 1485.88 Q1799.91 1485.51 1797.5 1484.77 L1797.5 1480.07 Q1799.59 1481.2 1801.81 1481.76 Q1804.03 1482.32 1806.51 1482.32 Q1810.51 1482.32 1812.85 1480.21 Q1815.19 1478.1 1815.19 1474.49 Q1815.19 1470.88 1812.85 1468.77 Q1810.51 1466.67 1806.51 1466.67 Q1804.63 1466.67 1802.76 1467.08 Q1800.91 1467.5 1798.96 1468.38 L1798.96 1451.02 Z" fill="#000000" fill-rule="nonzero" fill-opacity="1" /><path clip-path="url(#clip640)" d="M2263.36 1481.64 L2279.68 1481.64 L2279.68 1485.58 L2257.74 1485.58 L2257.74 1481.64 Q2260.4 1478.89 2264.98 1474.26 Q2269.59 1469.61 2270.77 1468.27 Q2273.01 1465.74 2273.89 1464.01 Q2274.8 1462.25 2274.8 1460.56 Q2274.8 1457.8 2272.85 1456.07 Q2270.93 1454.33 2267.83 1454.33 Q2265.63 1454.33 2263.18 1455.09 Q2260.75 1455.86 2257.97 1457.41 L2257.97 1452.69 Q2260.79 1451.55 2263.25 1450.97 Q2265.7 1450.39 2267.74 1450.39 Q2273.11 1450.39 2276.3 1453.08 Q2279.5 1455.77 2279.5 1460.26 Q2279.5 1462.39 2278.69 1464.31 Q2277.9 1466.2 2275.79 1468.8 Q2275.21 1469.47 2272.11 1472.69 Q2269.01 1475.88 2263.36 1481.64 Z" fill="#000000" fill-rule="nonzero" fill-opacity="1" /><path clip-path="url(#clip640)" d="M2289.5 1479.7 L2294.38 1479.7 L2294.38 1485.58 L2289.5 1485.58 L2289.5 1479.7 Z" fill="#000000" fill-rule="nonzero" fill-opacity="1" /><path clip-path="url(#clip640)" d="M2314.56 1454.1 Q2310.95 1454.1 2309.12 1457.66 Q2307.32 1461.2 2307.32 1468.33 Q2307.32 1475.44 2309.12 1479.01 Q2310.95 1482.55 2314.56 1482.55 Q2318.2 1482.55 2320 1479.01 Q2321.83 1475.44 2321.83 1468.33 Q2321.83 1461.2 2320 1457.66 Q2318.2 1454.1 2314.56 1454.1 M2314.56 1450.39 Q2320.37 1450.39 2323.43 1455 Q2326.51 1459.58 2326.51 1468.33 Q2326.51 1477.06 2323.43 1481.67 Q2320.37 1486.25 2314.56 1486.25 Q2308.75 1486.25 2305.68 1481.67 Q2302.62 1477.06 2302.62 1468.33 Q2302.62 1459.58 2305.68 1455 Q2308.75 1450.39 2314.56 1450.39 Z" fill="#000000" fill-rule="nonzero" fill-opacity="1" /><path clip-path="url(#clip640)" d="M1290.04 1531.91 Q1290.04 1532.81 1289.62 1533.04 Q1289.2 1533.23 1288.04 1533.23 L1281.86 1533.23 L1276.96 1552.69 Q1276.57 1554.39 1276.57 1555.84 Q1276.57 1557.45 1277.06 1558.16 Q1277.57 1558.87 1278.64 1558.87 Q1280.73 1558.87 1282.98 1556.97 Q1285.27 1555.07 1287.2 1550.43 Q1287.46 1549.82 1287.59 1549.69 Q1287.75 1549.53 1288.17 1549.53 Q1288.97 1549.53 1288.97 1550.17 Q1288.97 1550.4 1288.52 1551.43 Q1288.1 1552.46 1287.17 1553.97 Q1286.27 1555.49 1285.08 1556.9 Q1283.92 1558.32 1282.15 1559.35 Q1280.37 1560.35 1278.47 1560.35 Q1275.8 1560.35 1274.09 1558.64 Q1272.42 1556.94 1272.42 1554.26 Q1272.42 1553.39 1273.1 1550.62 Q1273.77 1547.82 1277.44 1533.23 L1271.61 1533.23 Q1270.81 1533.23 1270.49 1533.2 Q1270.2 1533.17 1269.97 1533.01 Q1269.78 1532.81 1269.78 1532.43 Q1269.78 1531.82 1270.04 1531.56 Q1270.29 1531.27 1270.62 1531.24 Q1270.97 1531.17 1271.78 1531.17 L1277.96 1531.17 L1280.54 1520.71 Q1280.79 1519.67 1281.44 1519.09 Q1282.11 1518.48 1282.5 1518.42 Q1282.89 1518.32 1283.18 1518.32 Q1284.05 1518.32 1284.56 1518.81 Q1285.08 1519.26 1285.08 1520.09 Q1285.08 1520.54 1282.37 1531.17 L1288.17 1531.17 Q1288.91 1531.17 1289.2 1531.2 Q1289.52 1531.24 1289.78 1531.4 Q1290.04 1531.56 1290.04 1531.91 Z" fill="#000000" fill-rule="nonzero" fill-opacity="1" /><polyline clip-path="url(#clip642)" style="stroke:#000000; stroke-linecap:round; stroke-linejoin:round; stroke-width:2; stroke-opacity:0.1; fill:none" points="210.376,1202.45 2352.76,1202.45 "/>
<polyline clip-path="url(#clip642)" style="stroke:#000000; stroke-linecap:round; stroke-linejoin:round; stroke-width:2; stroke-opacity:0.1; fill:none" points="210.376,823.132 2352.76,823.132 "/>
<polyline clip-path="url(#clip642)" style="stroke:#000000; stroke-linecap:round; stroke-linejoin:round; stroke-width:2; stroke-opacity:0.1; fill:none" points="210.376,443.81 2352.76,443.81 "/>
<polyline clip-path="url(#clip642)" style="stroke:#000000; stroke-linecap:round; stroke-linejoin:round; stroke-width:2; stroke-opacity:0.1; fill:none" points="210.376,64.4888 2352.76,64.4888 "/>
<polyline clip-path="url(#clip640)" style="stroke:#000000; stroke-linecap:round; stroke-linejoin:round; stroke-width:4; stroke-opacity:1; fill:none" points="210.376,1423.18 210.376,47.2441 "/>
<polyline clip-path="url(#clip640)" style="stroke:#000000; stroke-linecap:round; stroke-linejoin:round; stroke-width:4; stroke-opacity:1; fill:none" points="210.376,1202.45 229.273,1202.45 "/>
<polyline clip-path="url(#clip640)" style="stroke:#000000; stroke-linecap:round; stroke-linejoin:round; stroke-width:4; stroke-opacity:1; fill:none" points="210.376,823.132 229.273,823.132 "/>
<polyline clip-path="url(#clip640)" style="stroke:#000000; stroke-linecap:round; stroke-linejoin:round; stroke-width:4; stroke-opacity:1; fill:none" points="210.376,443.81 229.273,443.81 "/>
<polyline clip-path="url(#clip640)" style="stroke:#000000; stroke-linecap:round; stroke-linejoin:round; stroke-width:4; stroke-opacity:1; fill:none" points="210.376,64.4888 229.273,64.4888 "/>
<path clip-path="url(#clip640)" d="M114.26 1202.9 L143.936 1202.9 L143.936 1206.84 L114.26 1206.84 L114.26 1202.9 Z" fill="#000000" fill-rule="nonzero" fill-opacity="1" /><path clip-path="url(#clip640)" d="M158.056 1215.8 L174.376 1215.8 L174.376 1219.73 L152.431 1219.73 L152.431 1215.8 Q155.093 1213.04 159.677 1208.41 Q164.283 1203.76 165.464 1202.42 Q167.709 1199.9 168.589 1198.16 Q169.491 1196.4 169.491 1194.71 Q169.491 1191.96 167.547 1190.22 Q165.626 1188.48 162.524 1188.48 Q160.325 1188.48 157.871 1189.25 Q155.44 1190.01 152.663 1191.56 L152.663 1186.84 Q155.487 1185.71 157.94 1185.13 Q160.394 1184.55 162.431 1184.55 Q167.802 1184.55 170.996 1187.23 Q174.19 1189.92 174.19 1194.41 Q174.19 1196.54 173.38 1198.46 Q172.593 1200.36 170.487 1202.95 Q169.908 1203.62 166.806 1206.84 Q163.704 1210.03 158.056 1215.8 Z" fill="#000000" fill-rule="nonzero" fill-opacity="1" /><path clip-path="url(#clip640)" d="M162.431 808.93 Q158.82 808.93 156.991 812.495 Q155.186 816.037 155.186 823.166 Q155.186 830.273 156.991 833.838 Q158.82 837.379 162.431 837.379 Q166.065 837.379 167.871 833.838 Q169.7 830.273 169.7 823.166 Q169.7 816.037 167.871 812.495 Q166.065 808.93 162.431 808.93 M162.431 805.227 Q168.241 805.227 171.297 809.833 Q174.376 814.416 174.376 823.166 Q174.376 831.893 171.297 836.5 Q168.241 841.083 162.431 841.083 Q156.621 841.083 153.542 836.5 Q150.487 831.893 150.487 823.166 Q150.487 814.416 153.542 809.833 Q156.621 805.227 162.431 805.227 Z" fill="#000000" fill-rule="nonzero" fill-opacity="1" /><path clip-path="url(#clip640)" d="M158.056 457.155 L174.376 457.155 L174.376 461.09 L152.431 461.09 L152.431 457.155 Q155.093 454.4 159.677 449.771 Q164.283 445.118 165.464 443.776 Q167.709 441.252 168.589 439.516 Q169.491 437.757 169.491 436.067 Q169.491 433.313 167.547 431.577 Q165.626 429.84 162.524 429.84 Q160.325 429.84 157.871 430.604 Q155.44 431.368 152.663 432.919 L152.663 428.197 Q155.487 427.063 157.94 426.484 Q160.394 425.905 162.431 425.905 Q167.802 425.905 170.996 428.59 Q174.19 431.276 174.19 435.766 Q174.19 437.896 173.38 439.817 Q172.593 441.715 170.487 444.308 Q169.908 444.979 166.806 448.197 Q163.704 451.391 158.056 457.155 Z" fill="#000000" fill-rule="nonzero" fill-opacity="1" /><path clip-path="url(#clip640)" d="M164.792 51.2829 L152.987 69.7318 L164.792 69.7318 L164.792 51.2829 M163.565 47.2088 L169.445 47.2088 L169.445 69.7318 L174.376 69.7318 L174.376 73.6207 L169.445 73.6207 L169.445 81.7688 L164.792 81.7688 L164.792 73.6207 L149.191 73.6207 L149.191 69.1068 L163.565 47.2088 Z" fill="#000000" fill-rule="nonzero" fill-opacity="1" /><path clip-path="url(#clip640)" d="M30.8561 720.775 Q31.307 720.775 32.3698 721.064 L57.5548 727.377 Q63.1586 728.762 67.0877 733.27 Q71.0168 737.747 71.0168 742.836 Q71.0168 745.895 69.3743 747.86 Q67.764 749.824 65.2842 749.824 Q63.0942 749.824 62.0314 748.665 Q61.0008 747.505 61.0008 746.121 Q61.0008 745.67 61.1296 745.187 Q61.2584 744.703 61.8059 744.188 Q62.3534 743.673 63.2874 743.673 Q64.8011 743.673 65.9927 744.993 Q66.5402 745.637 66.669 746.249 Q66.7978 746.829 66.7978 747.827 Q67.6996 747.441 68.3115 746.732 Q68.9234 746.024 69.1489 745.219 Q69.4065 744.414 69.4709 743.898 Q69.5675 743.351 69.5675 742.836 Q69.5675 738.713 65.413 735.557 Q64.157 734.623 62.9009 733.947 Q61.6771 733.238 60.1634 732.723 Q58.682 732.208 57.8768 731.982 Q57.0717 731.725 55.2359 731.274 Q58.2311 734.269 58.2311 737.94 Q58.2311 739.486 57.8124 740.871 Q57.3937 742.224 56.5242 743.415 Q55.6224 744.607 54.0443 745.315 Q52.4662 745.992 50.3728 745.992 Q48.1506 745.992 45.1233 745.122 Q42.0959 744.253 36.5243 742.159 Q33.4004 741.032 31.8867 741.032 Q31.146 741.032 30.6951 741.193 Q30.212 741.354 30.051 741.676 Q29.8577 741.998 29.8255 742.191 Q29.7933 742.352 29.7933 742.675 Q29.7933 744.575 31.7257 746.346 Q33.658 748.117 37.9736 749.341 Q38.7787 749.599 38.972 749.76 Q39.1652 749.921 39.1652 750.404 Q39.133 751.209 38.4889 751.209 Q38.2312 751.209 37.2329 750.919 Q36.2023 750.629 34.6886 749.953 Q33.1427 749.245 31.7579 748.278 Q30.3408 747.312 29.3424 745.798 Q28.344 744.253 28.344 742.481 Q28.344 740.066 29.9221 738.584 Q31.468 737.071 33.7546 737.071 Q34.6886 737.071 35.5259 737.328 Q36.3311 737.554 38.4889 738.391 Q47.1845 741.773 51.4356 741.773 Q52.4662 741.773 53.3358 741.612 Q54.1731 741.418 55.0105 741 Q55.8156 740.581 56.2987 739.744 Q56.7496 738.874 56.7496 737.683 Q56.7496 736.169 56.0411 734.752 Q55.3003 733.303 54.302 732.401 Q53.3036 731.467 52.4662 730.919 Q51.5967 730.34 51.1458 730.211 L39.294 727.248 L34.0123 725.927 Q31.146 725.316 30.4374 725.026 Q29.7611 724.639 29.4068 723.963 Q29.0526 723.287 29.0526 722.707 Q29.0526 721.902 29.5357 721.354 Q30.0187 720.775 30.8561 720.775 Z" fill="#000000" fill-rule="nonzero" fill-opacity="1" /><polyline clip-path="url(#clip642)" style="stroke:#009af9; stroke-linecap:round; stroke-linejoin:round; stroke-width:4; stroke-opacity:1; fill:none" points="271.009,823.132 274.956,932.012 278.904,1119.71 282.851,1232.68 286.799,1047.34 290.746,842.78 294.694,666.719 298.641,738.039 302.589,522.967 306.536,911.922 310.484,794.286 314.431,709.903 318.379,900.857 322.326,871.56 326.274,955.73 330.221,767.991 334.169,818.03 338.116,786.048 342.064,977.975 346.011,808.821 349.959,907.345 353.906,817.611 357.854,1041.83 361.801,1138.32 365.749,901.943 369.696,840.832 373.644,785.104 377.591,796.094 381.539,743.45 385.486,812.896 389.434,516.231 393.381,600.957 397.329,755.542 401.276,975.678 405.224,774.308 409.171,776.611 413.119,776.815 417.066,631.69 421.014,730.633 424.961,751.984 428.908,1080.09 432.856,754.156 436.803,597.864 440.751,616.173 444.698,1006.86 448.646,870.469 452.593,583.675 456.541,1041.17 460.488,1216.91 464.436,964.93 468.383,787.857 472.331,648.423 476.278,799.31 480.226,966.533 484.173,929.722 488.121,665.75 492.068,1266.63 496.016,913.604 499.963,1104.49 503.911,440.732 507.858,709.5 511.806,886.112 515.753,779.313 519.701,922.599 523.648,609.116 527.596,809.807 531.543,898.335 535.491,682.469 539.438,851.955 543.386,1038.42 547.333,613.877 551.281,703.608 555.228,522.675 559.176,598.104 563.123,808.73 567.071,647.805 571.018,952.912 574.966,779.211 578.913,825.971 582.86,664.879 586.808,485.477 590.755,938.245 594.703,939.958 598.65,913.402 602.598,848.57 606.545,844.227 610.493,932.64 614.44,743.022 618.388,717.326 622.335,575.386 626.283,755.464 630.23,539.704 634.178,392.29 638.125,1053.73 642.073,964.171 646.02,843.613 649.968,760.006 653.915,843.753 657.863,683.384 661.81,782.4 665.758,917.056 669.705,728.683 673.653,763.286 677.6,619.834 681.548,789.459 685.495,914.762 689.443,1055.43 693.39,855.841 697.338,468.485 701.285,406.293 705.233,752.237 709.18,670.01 713.128,689.193 717.075,883.975 721.023,996.263 724.97,1243.9 728.918,1014.82 732.865,999.303 736.812,901.593 740.76,879.953 744.707,844.554 748.655,302.874 752.602,773.016 756.55,987.293 760.497,1211.49 764.445,1185.15 768.392,966.61 772.34,1114.28 776.287,763.781 780.235,781.296 784.182,793.055 788.13,625.33 792.077,880.819 796.025,656.841 799.972,1059.51 803.92,961.17 807.867,850.155 811.815,1013.45 815.762,1034.98 819.71,858.541 823.657,813.066 827.605,863.423 831.552,884.312 835.5,679.608 839.447,874.259 843.395,847.252 847.342,989.799 851.29,871.854 855.237,1211.26 859.185,1182.34 863.132,837.102 867.08,540.303 871.027,545.466 874.975,566.888 878.922,499.995 882.87,974.592 886.817,1124.39 890.764,518.724 894.712,741.524 898.659,760 902.607,859.58 906.554,887.345 910.502,1245.21 914.449,1191.4 918.397,939.422 922.344,891.314 926.292,808.764 930.239,696.337 934.187,686.104 938.134,830.189 942.082,983.063 946.029,862.551 949.977,823.476 953.924,887.805 957.872,923.615 961.819,676.206 965.767,924.6 969.714,872.458 973.662,1112.83 977.609,882.731 981.557,994.378 985.504,859.911 989.452,1088.13 993.399,832.76 997.347,1083.32 1001.29,826.256 1005.24,745.556 1009.19,932.099 1013.14,804.315 1017.08,859.082 1021.03,832.236 1024.98,834.424 1028.93,992.096 1032.87,784.71 1036.82,984.827 1040.77,740.067 1044.72,860.818 1048.66,796.822 1052.61,767.569 1056.56,624.708 1060.51,484.097 1064.45,770.039 1068.4,858.651 1072.35,971.37 1076.3,877.293 1080.24,924.368 1084.19,852.889 1088.14,706.134 1092.09,1120.65 1096.03,965.88 1099.98,1006.73 1103.93,686.762 1107.88,837.967 1111.82,790.7 1115.77,643.822 1119.72,659.118 1123.67,487.065 1127.61,754.152 1131.56,457.183 1135.51,583.893 1139.46,628.461 1143.4,715.337 1147.35,511.663 1151.3,883.974 1155.25,872.258 1159.19,871.276 1163.14,882.6 1167.09,628.877 1171.04,974.485 1174.98,1255.42 1178.93,1203.84 1182.88,1165.84 1186.83,1173.19 1190.77,815.685 1194.72,966.637 1198.67,947.923 1202.62,839.313 1206.56,798.954 1210.51,769.875 1214.46,823.902 1218.41,656.199 1222.35,886.797 1226.3,834.412 1230.25,806.994 1234.2,991.38 1238.14,900.835 1242.09,832.769 1246.04,938.419 1249.99,467.709 1253.93,838.334 1257.88,986.089 1261.83,1042.35 1265.78,956.037 1269.72,1017.51 1273.67,1116.63 1277.62,1237.53 1281.57,929.485 1285.51,645.552 1289.46,942.25 1293.41,677.093 1297.36,1038.06 1301.3,889.423 1305.25,1067.99 1309.2,1070.67 1313.15,604.162 1317.09,461.824 1321.04,679.081 1324.99,727.743 1328.94,734.431 1332.88,558.938 1336.83,787.433 1340.78,607.514 1344.73,737.996 1348.67,890.542 1352.62,909.418 1356.57,787.948 1360.52,717.181 1364.46,724.906 1368.41,651.063 1372.36,869.081 1376.31,913.18 1380.25,809.713 1384.2,800.038 1388.15,646.39 1392.1,1154.88 1396.04,1253.13 1399.99,1321.47 1403.94,1171.72 1407.89,1161.77 1411.83,1384.24 1415.78,1287.18 1419.73,1090.32 1423.68,894.393 1427.62,537.548 1431.57,666.928 1435.52,681.178 1439.47,626.892 1443.41,519.61 1447.36,487.291 1451.31,644.909 1455.26,309.087 1459.2,460.055 1463.15,852.03 1467.1,642.024 1471.05,668.602 1474.99,86.1857 1478.94,731.345 1482.89,948.084 1486.84,985.549 1490.78,866.213 1494.73,1054.48 1498.68,947.942 1502.63,990.168 1506.57,575.456 1510.52,871.149 1514.47,630.258 1518.41,518.957 1522.36,566.347 1526.31,794.841 1530.26,566.774 1534.2,607.919 1538.15,919.108 1542.1,776.708 1546.05,882.512 1549.99,997.503 1553.94,749.792 1557.89,612.586 1561.84,858.983 1565.78,792.914 1569.73,751.205 1573.68,615.901 1577.63,623.439 1581.57,1020.62 1585.52,1166.28 1589.47,753.28 1593.42,925.13 1597.36,915.656 1601.31,656.458 1605.26,758.23 1609.21,686.325 1613.15,412.834 1617.1,489.451 1621.05,551.958 1625,583.413 1628.94,698.297 1632.89,867.439 1636.84,575.743 1640.79,702.168 1644.73,913.425 1648.68,940.959 1652.63,890.917 1656.58,876.389 1660.52,860.263 1664.47,897.039 1668.42,1194.07 1672.37,1260.01 1676.31,793.843 1680.26,885.39 1684.21,903.535 1688.16,829.165 1692.1,773.827 1696.05,1012.5 1700,939.129 1703.95,929.888 1707.89,1164.84 1711.84,1194.37 1715.79,772.741 1719.74,928.075 1723.68,715.833 1727.63,795.386 1731.58,1098.92 1735.53,861.306 1739.47,722.904 1743.42,554.719 1747.37,610.653 1751.32,813.364 1755.26,672.545 1759.21,547.888 1763.16,667.077 1767.11,992.215 1771.05,579.932 1775,662.593 1778.95,932.591 1782.9,997.082 1786.84,1089.62 1790.79,873.978 1794.74,944.626 1798.69,737.726 1802.63,605.062 1806.58,769.297 1810.53,493.424 1814.48,596.9 1818.42,893.733 1822.37,965.792 1826.32,750.47 1830.27,795.476 1834.21,536.373 1838.16,570.206 1842.11,342.995 1846.06,792.708 1850,869.085 1853.95,971.722 1857.9,854.518 1861.85,961.828 1865.79,1221.62 1869.74,909.024 1873.69,1027.57 1877.64,626.252 1881.58,965.188 1885.53,1109.58 1889.48,962.552 1893.43,974.844 1897.37,948.318 1901.32,934.288 1905.27,983.155 1909.22,913.302 1913.16,641.612 1917.11,721.076 1921.06,647.002 1925.01,660.792 1928.95,737.085 1932.9,541.322 1936.85,843.849 1940.8,960.037 1944.74,908.771 1948.69,950.684 1952.64,771.54 1956.59,1058.07 1960.53,607.142 1964.48,422.063 1968.43,500.301 1972.38,798.021 1976.32,708.059 1980.27,994.29 1984.22,798.203 1988.17,759.061 1992.11,894.878 1996.06,679.686 2000.01,1002.92 2003.96,828.476 2007.9,686.437 2011.85,935.958 2015.8,882.341 2019.75,951.191 2023.69,831.219 2027.64,887.276 2031.59,944.774 2035.54,800.922 2039.48,881.441 2043.43,971.786 2047.38,1026.42 2051.33,1001.79 2055.27,791.037 2059.22,838.794 2063.17,668.365 2067.12,667.2 2071.06,656.563 2075.01,561.621 2078.96,775.156 2082.91,563.284 2086.85,984.767 2090.8,1060.67 2094.75,1093.69 2098.7,753.488 2102.64,1173.94 2106.59,1090.95 2110.54,960.533 2114.49,1070.39 2118.43,695.074 2122.38,813.656 2126.33,810.182 2130.28,464.962 2134.22,769.077 2138.17,727.563 2142.12,685.528 2146.07,356.633 2150.01,733.004 2153.96,512.041 2157.91,566.975 2161.86,639.7 2165.8,877.923 2169.75,832.365 2173.7,1098.51 2177.65,1043.23 2181.59,982.234 2185.54,961.512 2189.49,874.071 2193.44,832.663 2197.38,1014.57 2201.33,1110.34 2205.28,1116.54 2209.23,1123.3 2213.17,1040.77 2217.12,752.318 2221.07,1005.83 2225.02,1005.31 2228.96,853.211 2232.91,734.751 2236.86,673.177 2240.81,373.292 2244.75,701.55 2248.7,902.165 2252.65,1206.68 2256.6,1328.98 2260.54,1040.09 2264.49,797.766 2268.44,884.136 2272.39,719.694 2276.33,631.214 2280.28,612.379 2284.23,613.339 2288.18,841.018 2292.12,997.113 "/>
<polyline clip-path="url(#clip642)" style="stroke:#e26f46; stroke-linecap:round; stroke-linejoin:round; stroke-width:4; stroke-opacity:1; fill:none" points="271.009,254.15 274.956,264.054 278.904,273.767 282.851,283.292 286.799,292.633 290.746,301.794 294.694,310.777 298.641,319.586 302.589,328.225 306.536,336.697 310.484,345.005 314.431,353.152 318.379,361.142 322.326,368.977 326.274,376.661 330.221,384.196 334.169,391.585 338.116,398.831 342.064,405.937 346.011,412.906 349.959,419.74 353.906,426.442 357.854,433.014 361.801,439.459 365.749,445.78 369.696,451.978 373.644,458.056 377.591,464.017 381.539,469.862 385.486,475.594 389.434,481.216 393.381,486.729 397.329,492.135 401.276,497.436 405.224,502.635 409.171,507.734 413.119,512.734 417.066,517.637 421.014,522.445 424.961,527.16 428.908,531.784 432.856,536.319 436.803,540.766 440.751,545.127 444.698,549.403 448.646,553.597 452.593,557.71 456.541,561.743 460.488,565.699 464.436,569.577 468.383,573.381 472.331,577.111 476.278,580.769 480.226,584.356 484.173,587.874 488.121,591.324 492.068,594.707 496.016,598.024 499.963,601.278 503.911,604.468 507.858,607.597 511.806,610.666 515.753,613.675 519.701,616.625 523.648,619.519 527.596,622.357 531.543,625.14 535.491,627.869 539.438,630.545 543.386,633.169 547.333,635.743 551.281,638.267 555.228,640.742 559.176,643.169 563.123,645.549 567.071,647.884 571.018,650.173 574.966,652.418 578.913,654.619 582.86,656.778 586.808,658.895 590.755,660.971 594.703,663.007 598.65,665.004 602.598,666.961 606.545,668.882 610.493,670.765 614.44,672.611 618.388,674.422 622.335,676.198 626.283,677.939 630.23,679.647 634.178,681.322 638.125,682.964 642.073,684.575 646.02,686.154 649.968,687.703 653.915,689.222 657.863,690.711 661.81,692.172 665.758,693.605 669.705,695.009 673.653,696.387 677.6,697.738 681.548,699.063 685.495,700.362 689.443,701.636 693.39,702.885 697.338,704.111 701.285,705.312 705.233,706.491 709.18,707.646 713.128,708.779 717.075,709.891 721.023,710.98 724.97,712.049 728.918,713.097 732.865,714.125 736.812,715.133 740.76,716.121 744.707,717.09 748.655,718.041 752.602,718.973 756.55,719.887 760.497,720.783 764.445,721.663 768.392,722.525 772.34,723.37 776.287,724.199 780.235,725.012 784.182,725.809 788.13,726.591 792.077,727.358 796.025,728.11 799.972,728.847 803.92,729.57 807.867,730.28 811.815,730.975 815.762,731.657 819.71,732.326 823.657,732.982 827.605,733.625 831.552,734.255 835.5,734.874 839.447,735.48 843.395,736.075 847.342,736.659 851.29,737.231 855.237,737.792 859.185,738.342 863.132,738.881 867.08,739.41 871.027,739.929 874.975,740.438 878.922,740.937 882.87,741.426 886.817,741.906 890.764,742.376 894.712,742.838 898.659,743.29 902.607,743.734 906.554,744.169 910.502,744.596 914.449,745.015 918.397,745.425 922.344,745.827 926.292,746.222 930.239,746.609 934.187,746.989 938.134,747.361 942.082,747.726 946.029,748.084 949.977,748.435 953.924,748.779 957.872,749.117 961.819,749.448 965.767,749.773 969.714,750.091 973.662,750.403 977.609,750.709 981.557,751.01 985.504,751.304 989.452,751.593 993.399,751.876 997.347,752.154 1001.29,752.426 1005.24,752.693 1009.19,752.955 1013.14,753.212 1017.08,753.464 1021.03,753.711 1024.98,753.953 1028.93,754.19 1032.87,754.423 1036.82,754.652 1040.77,754.876 1044.72,755.095 1048.66,755.311 1052.61,755.522 1056.56,755.729 1060.51,755.932 1064.45,756.132 1068.4,756.327 1072.35,756.519 1076.3,756.707 1080.24,756.891 1084.19,757.072 1088.14,757.249 1092.09,757.423 1096.03,757.593 1099.98,757.76 1103.93,757.924 1107.88,758.085 1111.82,758.242 1115.77,758.397 1119.72,758.548 1123.67,758.697 1127.61,758.843 1131.56,758.986 1135.51,759.126 1139.46,759.263 1143.4,759.398 1147.35,759.53 1151.3,759.66 1155.25,759.787 1159.19,759.912 1163.14,760.034 1167.09,760.154 1171.04,760.272 1174.98,760.387 1178.93,760.5 1182.88,760.611 1186.83,760.72 1190.77,760.826 1194.72,760.931 1198.67,761.034 1202.62,761.134 1206.56,761.233 1210.51,761.329 1214.46,740.328 1218.41,740.829 1222.35,741.32 1226.3,741.802 1230.25,742.275 1234.2,742.738 1238.14,743.192 1242.09,743.638 1246.04,744.075 1249.99,744.504 1253.93,744.924 1257.88,745.336 1261.83,745.74 1265.78,746.137 1269.72,746.525 1273.67,746.907 1277.62,747.28 1281.57,747.647 1285.51,748.006 1289.46,748.359 1293.41,748.705 1297.36,749.044 1301.3,749.376 1305.25,749.702 1309.2,750.022 1313.15,750.336 1317.09,750.643 1321.04,750.945 1324.99,751.24 1328.94,751.53 1332.88,751.815 1336.83,752.094 1340.78,752.367 1344.73,752.635 1348.67,752.898 1352.62,753.156 1356.57,753.409 1360.52,753.657 1364.46,753.9 1368.41,754.139 1372.36,754.373 1376.31,754.602 1380.25,754.827 1384.2,755.048 1388.15,755.264 1392.1,755.476 1396.04,755.685 1399.99,755.889 1403.94,756.089 1407.89,756.285 1411.83,756.477 1415.78,756.666 1419.73,756.851 1423.68,757.032 1427.62,757.21 1431.57,757.385 1435.52,757.556 1439.47,757.724 1443.41,757.889 1447.36,758.05 1451.31,758.208 1455.26,758.363 1459.2,758.516 1463.15,758.665 1467.1,758.811 1471.05,758.955 1474.99,759.096 1478.94,759.234 1482.89,759.369 1486.84,759.502 1490.78,759.632 1494.73,759.76 1498.68,759.885 1502.63,760.008 1506.57,760.128 1510.52,760.246 1514.47,760.362 1518.41,760.476 1522.36,760.587 1526.31,760.696 1530.26,760.803 1534.2,760.908 1538.15,761.011 1542.1,761.112 1546.05,761.211 1549.99,761.309 1553.94,761.404 1557.89,761.497 1561.84,761.589 1565.78,761.679 1569.73,761.767 1573.68,761.853 1577.63,761.938 1581.57,762.021 1585.52,762.102 1589.47,762.182 1593.42,762.261 1597.36,762.338 1601.31,762.413 1605.26,762.487 1609.21,762.559 1613.15,762.63 1617.1,762.7 1621.05,762.768 1625,762.835 1628.94,762.901 1632.89,762.966 1636.84,763.029 1640.79,763.091 1644.73,763.152 1648.68,763.211 1652.63,763.27 1656.58,763.327 1660.52,763.383 1664.47,763.438 1668.42,763.492 1672.37,763.545 1676.31,763.597 1680.26,763.648 1684.21,763.698 1688.16,763.747 1692.1,763.795 1696.05,763.843 1700,763.889 1703.95,763.934 1707.89,763.979 1711.84,764.022 1715.79,764.065 1719.74,764.107 1723.68,764.148 1727.63,764.188 1731.58,764.228 1735.53,764.267 1739.47,764.305 1743.42,764.342 1747.37,764.379 1751.32,764.415 1755.26,764.45 1759.21,764.484 1763.16,764.518 1767.11,764.551 1771.05,764.584 1775,764.616 1778.95,764.647 1782.9,764.678 1786.84,764.708 1790.79,764.737 1794.74,764.766 1798.69,764.795 1802.63,764.822 1806.58,764.85 1810.53,764.877 1814.48,764.903 1818.42,764.928 1822.37,764.954 1826.32,764.978 1830.27,765.003 1834.21,765.027 1838.16,765.05 1842.11,765.073 1846.06,765.095 1850,765.117 1853.95,765.139 1857.9,765.16 1861.85,765.181 1865.79,765.201 1869.74,765.221 1873.69,765.241 1877.64,765.26 1881.58,765.279 1885.53,765.297 1889.48,765.315 1893.43,765.333 1897.37,765.35 1901.32,765.368 1905.27,765.384 1909.22,765.401 1913.16,765.417 1917.11,765.433 1921.06,765.448 1925.01,765.463 1928.95,765.478 1932.9,765.493 1936.85,765.507 1940.8,765.521 1944.74,765.535 1948.69,765.548 1952.64,765.562 1956.59,765.575 1960.53,765.587 1964.48,765.6 1968.43,765.612 1972.38,765.624 1976.32,765.636 1980.27,765.648 1984.22,765.659 1988.17,765.67 1992.11,765.681 1996.06,765.692 2000.01,765.702 2003.96,765.712 2007.9,765.722 2011.85,765.732 2015.8,765.742 2019.75,765.752 2023.69,765.761 2027.64,765.77 2031.59,765.779 2035.54,765.788 2039.48,765.796 2043.43,765.805 2047.38,765.813 2051.33,765.821 2055.27,765.829 2059.22,765.837 2063.17,765.845 2067.12,765.852 2071.06,765.86 2075.01,765.867 2078.96,765.874 2082.91,765.881 2086.85,765.888 2090.8,765.894 2094.75,765.901 2098.7,765.907 2102.64,765.914 2106.59,765.92 2110.54,765.926 2114.49,765.932 2118.43,765.938 2122.38,765.943 2126.33,765.949 2130.28,765.955 2134.22,765.96 2138.17,765.965 2142.12,765.97 2146.07,765.975 2150.01,765.98 2153.96,765.985 2157.91,765.99 2161.86,765.995 2165.8,765.999 2169.75,766.004 2173.7,766.008 2177.65,766.013 2181.59,766.017 2185.54,766.021 2189.49,766.025 2193.44,766.029 2197.38,766.033 2201.33,766.037 2205.28,766.041 2209.23,766.045 2213.17,766.048 2217.12,766.052 2221.07,766.055 2225.02,766.059 2228.96,766.062 2232.91,766.066 2236.86,766.069 2240.81,766.072 2244.75,766.075 2248.7,766.078 2252.65,766.081 2256.6,766.084 2260.54,766.087 2264.49,766.09 2268.44,766.093 2272.39,766.095 2276.33,766.098 2280.28,766.101 2284.23,766.103 2288.18,766.106 2292.12,766.108 "/>
<path clip-path="url(#clip640)" d="M1890.97 248.629 L2281.34 248.629 L2281.34 93.1086 L1890.97 93.1086  Z" fill="#ffffff" fill-rule="evenodd" fill-opacity="1"/>
<polyline clip-path="url(#clip640)" style="stroke:#000000; stroke-linecap:round; stroke-linejoin:round; stroke-width:4; stroke-opacity:1; fill:none" points="1890.97,248.629 2281.34,248.629 2281.34,93.1086 1890.97,93.1086 1890.97,248.629 "/>
<polyline clip-path="url(#clip640)" style="stroke:#009af9; stroke-linecap:round; stroke-linejoin:round; stroke-width:4; stroke-opacity:1; fill:none" points="1914.78,144.949 2057.6,144.949 "/>
<path clip-path="url(#clip640)" d="M2097.42 130.84 Q2092.33 130.84 2089.32 134.636 Q2086.34 138.432 2086.34 144.983 Q2086.34 151.511 2089.32 155.307 Q2092.33 159.104 2097.42 159.104 Q2102.52 159.104 2105.48 155.307 Q2108.47 151.511 2108.47 144.983 Q2108.47 138.432 2105.48 134.636 Q2102.52 130.84 2097.42 130.84 M2097.42 127.044 Q2104.69 127.044 2109.04 131.928 Q2113.4 136.789 2113.4 144.983 Q2113.4 153.155 2109.04 158.039 Q2104.69 162.9 2097.42 162.9 Q2090.13 162.9 2085.76 158.039 Q2081.41 153.178 2081.41 144.983 Q2081.41 136.789 2085.76 131.928 Q2090.13 127.044 2097.42 127.044 Z" fill="#000000" fill-rule="nonzero" fill-opacity="1" /><path clip-path="url(#clip640)" d="M2120.18 127.669 L2124.88 127.669 L2124.88 148.664 Q2124.88 154.219 2126.89 156.673 Q2128.91 159.104 2133.42 159.104 Q2137.91 159.104 2139.92 156.673 Q2141.94 154.219 2141.94 148.664 L2141.94 127.669 L2146.64 127.669 L2146.64 149.243 Q2146.64 156.002 2143.28 159.451 Q2139.95 162.9 2133.42 162.9 Q2126.87 162.9 2123.51 159.451 Q2120.18 156.002 2120.18 149.243 L2120.18 127.669 Z" fill="#000000" fill-rule="nonzero" fill-opacity="1" /><polyline clip-path="url(#clip640)" style="stroke:#e26f46; stroke-linecap:round; stroke-linejoin:round; stroke-width:4; stroke-opacity:1; fill:none" points="1914.78,196.789 2057.6,196.789 "/>
<path clip-path="url(#clip640)" d="M2081.41 179.509 L2086.08 179.509 L2086.08 193.675 L2103.07 193.675 L2103.07 179.509 L2107.75 179.509 L2107.75 214.069 L2103.07 214.069 L2103.07 197.61 L2086.08 197.61 L2086.08 214.069 L2081.41 214.069 L2081.41 179.509 Z" fill="#000000" fill-rule="nonzero" fill-opacity="1" /><path clip-path="url(#clip640)" d="M2128.65 201.036 Q2123.49 201.036 2121.5 202.217 Q2119.51 203.397 2119.51 206.245 Q2119.51 208.513 2120.99 209.856 Q2122.49 211.175 2125.06 211.175 Q2128.6 211.175 2130.73 208.675 Q2132.89 206.152 2132.89 201.985 L2132.89 201.036 L2128.65 201.036 M2137.15 199.277 L2137.15 214.069 L2132.89 214.069 L2132.89 210.133 Q2131.43 212.495 2129.25 213.629 Q2127.08 214.74 2123.93 214.74 Q2119.95 214.74 2117.59 212.518 Q2115.25 210.272 2115.25 206.522 Q2115.25 202.147 2118.16 199.925 Q2121.1 197.703 2126.91 197.703 L2132.89 197.703 L2132.89 197.286 Q2132.89 194.347 2130.94 192.749 Q2129.02 191.129 2125.53 191.129 Q2123.3 191.129 2121.2 191.661 Q2119.09 192.194 2117.15 193.259 L2117.15 189.323 Q2119.48 188.421 2121.68 187.981 Q2123.88 187.518 2125.97 187.518 Q2131.59 187.518 2134.37 190.434 Q2137.15 193.351 2137.15 199.277 Z" fill="#000000" fill-rule="nonzero" fill-opacity="1" /><path clip-path="url(#clip640)" d="M2143.44 188.143 L2147.7 188.143 L2153.03 208.374 L2158.33 188.143 L2163.35 188.143 L2168.67 208.374 L2173.97 188.143 L2178.23 188.143 L2171.45 214.069 L2166.43 214.069 L2160.85 192.819 L2155.25 214.069 L2150.22 214.069 L2143.44 188.143 Z" fill="#000000" fill-rule="nonzero" fill-opacity="1" /><path clip-path="url(#clip640)" d="M2184.53 178.05 L2188.81 178.05 L2188.81 199.323 L2201.52 188.143 L2206.96 188.143 L2193.21 200.272 L2207.54 214.069 L2201.98 214.069 L2188.81 201.407 L2188.81 214.069 L2184.53 214.069 L2184.53 178.05 Z" fill="#000000" fill-rule="nonzero" fill-opacity="1" /><path clip-path="url(#clip640)" d="M2232.63 200.041 L2232.63 202.124 L2213.05 202.124 Q2213.33 206.522 2215.69 208.837 Q2218.07 211.129 2222.31 211.129 Q2224.76 211.129 2227.05 210.527 Q2229.37 209.925 2231.64 208.721 L2231.64 212.749 Q2229.34 213.721 2226.94 214.231 Q2224.53 214.74 2222.05 214.74 Q2215.85 214.74 2212.22 211.129 Q2208.6 207.518 2208.6 201.36 Q2208.6 194.995 2212.03 191.268 Q2215.48 187.518 2221.31 187.518 Q2226.54 187.518 2229.58 190.897 Q2232.63 194.254 2232.63 200.041 M2228.37 198.791 Q2228.33 195.296 2226.4 193.212 Q2224.51 191.129 2221.36 191.129 Q2217.79 191.129 2215.64 193.143 Q2213.51 195.157 2213.19 198.814 L2228.37 198.791 Z" fill="#000000" fill-rule="nonzero" fill-opacity="1" /><path clip-path="url(#clip640)" d="M2256.15 188.907 L2256.15 192.934 Q2254.34 192.009 2252.4 191.546 Q2250.46 191.083 2248.37 191.083 Q2245.2 191.083 2243.6 192.055 Q2242.03 193.027 2242.03 194.971 Q2242.03 196.453 2243.16 197.309 Q2244.3 198.143 2247.72 198.907 L2249.18 199.231 Q2253.72 200.203 2255.62 201.985 Q2257.54 203.745 2257.54 206.916 Q2257.54 210.527 2254.67 212.633 Q2251.82 214.74 2246.82 214.74 Q2244.74 214.74 2242.47 214.323 Q2240.22 213.93 2237.72 213.12 L2237.72 208.721 Q2240.09 209.948 2242.38 210.573 Q2244.67 211.175 2246.91 211.175 Q2249.92 211.175 2251.54 210.157 Q2253.16 209.115 2253.16 207.24 Q2253.16 205.504 2251.98 204.578 Q2250.83 203.652 2246.87 202.796 L2245.39 202.448 Q2241.43 201.615 2239.67 199.902 Q2237.91 198.166 2237.91 195.157 Q2237.91 191.499 2240.5 189.509 Q2243.09 187.518 2247.86 187.518 Q2250.22 187.518 2252.31 187.865 Q2254.39 188.212 2256.15 188.907 Z" fill="#000000" fill-rule="nonzero" fill-opacity="1" /></svg>
