<?xml version="1.0" encoding="utf-8"?>
<svg xmlns="http://www.w3.org/2000/svg" xmlns:xlink="http://www.w3.org/1999/xlink" width="600" height="400" viewBox="0 0 2400 1600">
<defs>
  <clipPath id="clip760">
    <rect x="0" y="0" width="2400" height="1600"/>
  </clipPath>
</defs>
<path clip-path="url(#clip760)" d="M0 1600 L2400 1600 L2400 0 L0 0  Z" fill="#ffffff" fill-rule="evenodd" fill-opacity="1"/>
<defs>
  <clipPath id="clip761">
    <rect x="480" y="0" width="1681" height="1600"/>
  </clipPath>
</defs>
<path clip-path="url(#clip760)" d="M220.057 1410.9 L2352.76 1410.9 L2352.76 47.2441 L220.057 47.2441  Z" fill="#ffffff" fill-rule="evenodd" fill-opacity="1"/>
<defs>
  <clipPath id="clip762">
    <rect x="220" y="47" width="2134" height="1365"/>
  </clipPath>
</defs>
<polyline clip-path="url(#clip762)" style="stroke:#000000; stroke-linecap:round; stroke-linejoin:round; stroke-width:2; stroke-opacity:0.1; fill:none" points="962.55,1410.9 962.55,47.2441 "/>
<polyline clip-path="url(#clip762)" style="stroke:#000000; stroke-linecap:round; stroke-linejoin:round; stroke-width:2; stroke-opacity:0.1; fill:none" points="1798.01,1410.9 1798.01,47.2441 "/>
<polyline clip-path="url(#clip760)" style="stroke:#000000; stroke-linecap:round; stroke-linejoin:round; stroke-width:4; stroke-opacity:1; fill:none" points="220.057,1410.9 2352.76,1410.9 "/>
<polyline clip-path="url(#clip760)" style="stroke:#000000; stroke-linecap:round; stroke-linejoin:round; stroke-width:4; stroke-opacity:1; fill:none" points="962.55,1410.9 962.55,1392 "/>
<polyline clip-path="url(#clip760)" style="stroke:#000000; stroke-linecap:round; stroke-linejoin:round; stroke-width:4; stroke-opacity:1; fill:none" points="1798.01,1410.9 1798.01,1392 "/>
<path clip-path="url(#clip760)" d="M893.792 1485.02 L901.431 1485.02 L901.431 1458.66 L893.121 1460.32 L893.121 1456.06 L901.384 1454.4 L906.06 1454.4 L906.06 1485.02 L913.699 1485.02 L913.699 1488.96 L893.792 1488.96 L893.792 1485.02 Z" fill="#000000" fill-rule="nonzero" fill-opacity="1" /><path clip-path="url(#clip760)" d="M933.143 1457.48 Q929.532 1457.48 927.704 1461.04 Q925.898 1464.58 925.898 1471.71 Q925.898 1478.82 927.704 1482.38 Q929.532 1485.92 933.143 1485.92 Q936.778 1485.92 938.583 1482.38 Q940.412 1478.82 940.412 1471.71 Q940.412 1464.58 938.583 1461.04 Q936.778 1457.48 933.143 1457.48 M933.143 1453.77 Q938.954 1453.77 942.009 1458.38 Q945.088 1462.96 945.088 1471.71 Q945.088 1480.44 942.009 1485.04 Q938.954 1489.63 933.143 1489.63 Q927.333 1489.63 924.255 1485.04 Q921.199 1480.44 921.199 1471.71 Q921.199 1462.96 924.255 1458.38 Q927.333 1453.77 933.143 1453.77 Z" fill="#000000" fill-rule="nonzero" fill-opacity="1" /><path clip-path="url(#clip760)" d="M945.088 1447.87 L969.199 1447.87 L969.199 1451.07 L945.088 1451.07 L945.088 1447.87 Z" fill="#000000" fill-rule="nonzero" fill-opacity="1" /><path clip-path="url(#clip760)" d="M980.672 1458.35 L993.932 1458.35 L993.932 1461.55 L976.102 1461.55 L976.102 1458.35 Q978.265 1456.11 981.989 1452.35 Q985.731 1448.57 986.691 1447.48 Q988.515 1445.43 989.23 1444.02 Q989.963 1442.59 989.963 1441.22 Q989.963 1438.98 988.383 1437.57 Q986.822 1436.16 984.302 1436.16 Q982.515 1436.16 980.522 1436.78 Q978.547 1437.4 976.29 1438.66 L976.29 1434.82 Q978.584 1433.9 980.578 1433.43 Q982.572 1432.96 984.227 1432.96 Q988.59 1432.96 991.186 1435.14 Q993.781 1437.32 993.781 1440.97 Q993.781 1442.7 993.123 1444.26 Q992.483 1445.8 990.772 1447.91 Q990.302 1448.46 987.781 1451.07 Q985.261 1453.67 980.672 1458.35 Z" fill="#000000" fill-rule="nonzero" fill-opacity="1" /><path clip-path="url(#clip760)" d="M1001.91 1456.77 L1005.87 1456.77 L1005.87 1461.55 L1001.91 1461.55 L1001.91 1456.77 Z" fill="#000000" fill-rule="nonzero" fill-opacity="1" /><path clip-path="url(#clip760)" d="M1022.27 1435.97 Q1019.34 1435.97 1017.86 1438.86 Q1016.39 1441.74 1016.39 1447.53 Q1016.39 1453.31 1017.86 1456.2 Q1019.34 1459.08 1022.27 1459.08 Q1025.23 1459.08 1026.69 1456.2 Q1028.18 1453.31 1028.18 1447.53 Q1028.18 1441.74 1026.69 1438.86 Q1025.23 1435.97 1022.27 1435.97 M1022.27 1432.96 Q1027 1432.96 1029.48 1436.7 Q1031.98 1440.43 1031.98 1447.53 Q1031.98 1454.62 1029.48 1458.37 Q1027 1462.09 1022.27 1462.09 Q1017.55 1462.09 1015.05 1458.37 Q1012.57 1454.62 1012.57 1447.53 Q1012.57 1440.43 1015.05 1436.7 Q1017.55 1432.96 1022.27 1432.96 Z" fill="#000000" fill-rule="nonzero" fill-opacity="1" /><path clip-path="url(#clip760)" d="M1729.65 1485.02 L1737.29 1485.02 L1737.29 1458.66 L1728.98 1460.32 L1728.98 1456.06 L1737.25 1454.4 L1741.92 1454.4 L1741.92 1485.02 L1749.56 1485.02 L1749.56 1488.96 L1729.65 1488.96 L1729.65 1485.02 Z" fill="#000000" fill-rule="nonzero" fill-opacity="1" /><path clip-path="url(#clip760)" d="M1769 1457.48 Q1765.39 1457.48 1763.56 1461.04 Q1761.76 1464.58 1761.76 1471.71 Q1761.76 1478.82 1763.56 1482.38 Q1765.39 1485.92 1769 1485.92 Q1772.64 1485.92 1774.44 1482.38 Q1776.27 1478.82 1776.27 1471.71 Q1776.27 1464.58 1774.44 1461.04 Q1772.64 1457.48 1769 1457.48 M1769 1453.77 Q1774.81 1453.77 1777.87 1458.38 Q1780.95 1462.96 1780.95 1471.71 Q1780.95 1480.44 1777.87 1485.04 Q1774.81 1489.63 1769 1489.63 Q1763.19 1489.63 1760.12 1485.04 Q1757.06 1480.44 1757.06 1471.71 Q1757.06 1462.96 1760.12 1458.38 Q1763.19 1453.77 1769 1453.77 Z" fill="#000000" fill-rule="nonzero" fill-opacity="1" /><path clip-path="url(#clip760)" d="M1780.95 1447.87 L1805.06 1447.87 L1805.06 1451.07 L1780.95 1451.07 L1780.95 1447.87 Z" fill="#000000" fill-rule="nonzero" fill-opacity="1" /><path clip-path="url(#clip760)" d="M1813.92 1458.35 L1820.13 1458.35 L1820.13 1436.93 L1813.37 1438.28 L1813.37 1434.82 L1820.09 1433.47 L1823.89 1433.47 L1823.89 1458.35 L1830.09 1458.35 L1830.09 1461.55 L1813.92 1461.55 L1813.92 1458.35 Z" fill="#000000" fill-rule="nonzero" fill-opacity="1" /><path clip-path="url(#clip760)" d="M1837.77 1456.77 L1841.74 1456.77 L1841.74 1461.55 L1837.77 1461.55 L1837.77 1456.77 Z" fill="#000000" fill-rule="nonzero" fill-opacity="1" /><path clip-path="url(#clip760)" d="M1850.05 1433.47 L1864.96 1433.47 L1864.96 1436.66 L1853.53 1436.66 L1853.53 1443.55 Q1854.36 1443.27 1855.18 1443.13 Q1856.01 1442.98 1856.84 1442.98 Q1861.54 1442.98 1864.29 1445.56 Q1867.03 1448.14 1867.03 1452.54 Q1867.03 1457.07 1864.21 1459.59 Q1861.39 1462.09 1856.26 1462.09 Q1854.49 1462.09 1852.64 1461.79 Q1850.82 1461.49 1848.86 1460.89 L1848.86 1457.07 Q1850.56 1457.99 1852.36 1458.44 Q1854.17 1458.89 1856.18 1458.89 Q1859.43 1458.89 1861.33 1457.18 Q1863.23 1455.47 1863.23 1452.54 Q1863.23 1449.6 1861.33 1447.89 Q1859.43 1446.18 1856.18 1446.18 Q1854.66 1446.18 1853.13 1446.52 Q1851.63 1446.86 1850.05 1447.57 L1850.05 1433.47 Z" fill="#000000" fill-rule="nonzero" fill-opacity="1" /><path clip-path="url(#clip760)" d="M1247.95 1568.04 Q1247.95 1567.79 1248.82 1566.11 Q1249.69 1564.41 1252.75 1558.32 Q1255.81 1552.2 1258.97 1545.79 L1270.34 1522.92 Q1271.14 1521.48 1272.17 1521.48 Q1273.11 1521.48 1273.53 1522.05 Q1273.94 1522.63 1275.88 1526.53 Q1276.88 1528.43 1277.46 1529.66 L1296.1 1566.98 Q1296.42 1567.79 1296.46 1568.04 Q1296.46 1568.69 1295.33 1568.69 L1249.69 1568.69 Q1247.95 1568.69 1247.95 1568.04 M1252.3 1563.66 L1287.79 1563.66 L1270.05 1528.05 L1252.3 1563.66 Z" fill="#000000" fill-rule="nonzero" fill-opacity="1" /><path clip-path="url(#clip760)" d="M1321.54 1540.99 Q1321.54 1541.89 1321.12 1542.12 Q1320.71 1542.31 1319.55 1542.31 L1313.36 1542.31 L1308.47 1561.76 Q1308.08 1563.47 1308.08 1564.92 Q1308.08 1566.53 1308.56 1567.24 Q1309.08 1567.95 1310.14 1567.95 Q1312.24 1567.95 1314.49 1566.05 Q1316.78 1564.15 1318.71 1559.51 Q1318.97 1558.9 1319.1 1558.77 Q1319.26 1558.61 1319.68 1558.61 Q1320.48 1558.61 1320.48 1559.25 Q1320.48 1559.48 1320.03 1560.51 Q1319.61 1561.54 1318.68 1563.05 Q1317.77 1564.57 1316.58 1565.98 Q1315.42 1567.4 1313.65 1568.43 Q1311.88 1569.43 1309.98 1569.43 Q1307.31 1569.43 1305.6 1567.72 Q1303.93 1566.02 1303.93 1563.34 Q1303.93 1562.47 1304.6 1559.7 Q1305.28 1556.9 1308.95 1542.31 L1303.12 1542.31 Q1302.32 1542.31 1301.99 1542.28 Q1301.7 1542.25 1301.48 1542.09 Q1301.29 1541.89 1301.29 1541.51 Q1301.29 1540.9 1301.54 1540.64 Q1301.8 1540.35 1302.12 1540.32 Q1302.48 1540.25 1303.28 1540.25 L1309.47 1540.25 L1312.04 1529.78 Q1312.3 1528.75 1312.94 1528.17 Q1313.62 1527.56 1314.01 1527.5 Q1314.39 1527.4 1314.68 1527.4 Q1315.55 1527.4 1316.07 1527.88 Q1316.58 1528.34 1316.58 1529.17 Q1316.58 1529.62 1313.88 1540.25 L1319.68 1540.25 Q1320.42 1540.25 1320.71 1540.28 Q1321.03 1540.32 1321.29 1540.48 Q1321.54 1540.64 1321.54 1540.99 Z" fill="#000000" fill-rule="nonzero" fill-opacity="1" /><polyline clip-path="url(#clip762)" style="stroke:#000000; stroke-linecap:round; stroke-linejoin:round; stroke-width:2; stroke-opacity:0.1; fill:none" points="220.057,1085.46 2352.76,1085.46 "/>
<polyline clip-path="url(#clip762)" style="stroke:#000000; stroke-linecap:round; stroke-linejoin:round; stroke-width:2; stroke-opacity:0.1; fill:none" points="220.057,265.895 2352.76,265.895 "/>
<polyline clip-path="url(#clip760)" style="stroke:#000000; stroke-linecap:round; stroke-linejoin:round; stroke-width:4; stroke-opacity:1; fill:none" points="220.057,1410.9 220.057,47.2441 "/>
<polyline clip-path="url(#clip760)" style="stroke:#000000; stroke-linecap:round; stroke-linejoin:round; stroke-width:4; stroke-opacity:1; fill:none" points="220.057,1085.46 238.955,1085.46 "/>
<polyline clip-path="url(#clip760)" style="stroke:#000000; stroke-linecap:round; stroke-linejoin:round; stroke-width:4; stroke-opacity:1; fill:none" points="220.057,265.895 238.955,265.895 "/>
<path clip-path="url(#clip760)" d="M116.041 1105.26 L123.68 1105.26 L123.68 1078.89 L115.37 1080.56 L115.37 1076.3 L123.634 1074.63 L128.31 1074.63 L128.31 1105.26 L135.948 1105.26 L135.948 1109.19 L116.041 1109.19 L116.041 1105.26 Z" fill="#000000" fill-rule="nonzero" fill-opacity="1" /><path clip-path="url(#clip760)" d="M155.393 1077.71 Q151.782 1077.71 149.953 1081.27 Q148.147 1084.82 148.147 1091.95 Q148.147 1099.05 149.953 1102.62 Q151.782 1106.16 155.393 1106.16 Q159.027 1106.16 160.833 1102.62 Q162.661 1099.05 162.661 1091.95 Q162.661 1084.82 160.833 1081.27 Q159.027 1077.71 155.393 1077.71 M155.393 1074.01 Q161.203 1074.01 164.258 1078.61 Q167.337 1083.2 167.337 1091.95 Q167.337 1100.67 164.258 1105.28 Q161.203 1109.86 155.393 1109.86 Q149.583 1109.86 146.504 1105.28 Q143.448 1100.67 143.448 1091.95 Q143.448 1083.2 146.504 1078.61 Q149.583 1074.01 155.393 1074.01 Z" fill="#000000" fill-rule="nonzero" fill-opacity="1" /><path clip-path="url(#clip760)" d="M167.883 1078.58 L174.089 1078.58 L174.089 1057.16 L167.337 1058.51 L167.337 1055.05 L174.052 1053.7 L177.851 1053.7 L177.851 1078.58 L184.057 1078.58 L184.057 1081.78 L167.883 1081.78 L167.883 1078.58 Z" fill="#000000" fill-rule="nonzero" fill-opacity="1" /><path clip-path="url(#clip760)" d="M114.931 285.688 L122.57 285.688 L122.57 259.322 L114.26 260.989 L114.26 256.73 L122.524 255.063 L127.2 255.063 L127.2 285.688 L134.839 285.688 L134.839 289.623 L114.931 289.623 L114.931 285.688 Z" fill="#000000" fill-rule="nonzero" fill-opacity="1" /><path clip-path="url(#clip760)" d="M154.283 258.142 Q150.672 258.142 148.843 261.706 Q147.038 265.248 147.038 272.378 Q147.038 279.484 148.843 283.049 Q150.672 286.591 154.283 286.591 Q157.917 286.591 159.723 283.049 Q161.552 279.484 161.552 272.378 Q161.552 265.248 159.723 261.706 Q157.917 258.142 154.283 258.142 M154.283 254.438 Q160.093 254.438 163.149 259.044 Q166.227 263.628 166.227 272.378 Q166.227 281.105 163.149 285.711 Q160.093 290.294 154.283 290.294 Q148.473 290.294 145.394 285.711 Q142.339 281.105 142.339 272.378 Q142.339 263.628 145.394 259.044 Q148.473 254.438 154.283 254.438 Z" fill="#000000" fill-rule="nonzero" fill-opacity="1" /><path clip-path="url(#clip760)" d="M170.798 259.015 L184.057 259.015 L184.057 262.213 L166.227 262.213 L166.227 259.015 Q168.39 256.777 172.114 253.016 Q175.857 249.235 176.816 248.144 Q178.641 246.094 179.355 244.684 Q180.089 243.254 180.089 241.881 Q180.089 239.643 178.509 238.233 Q176.948 236.822 174.428 236.822 Q172.641 236.822 170.647 237.443 Q168.672 238.063 166.416 239.324 L166.416 235.487 Q168.71 234.565 170.704 234.095 Q172.697 233.625 174.352 233.625 Q178.716 233.625 181.311 235.806 Q183.907 237.988 183.907 241.637 Q183.907 243.367 183.249 244.928 Q182.609 246.471 180.898 248.577 Q180.427 249.122 177.907 251.737 Q175.387 254.332 170.798 259.015 Z" fill="#000000" fill-rule="nonzero" fill-opacity="1" /><path clip-path="url(#clip760)" d="M49.4968 798.693 Q43.281 798.693 38.8688 794.699 Q34.4566 790.706 34.4566 784.973 Q34.4566 779.176 38.2247 776.181 Q41.9928 773.154 47.4034 773.154 Q48.4018 773.154 48.595 773.411 Q48.7882 773.669 48.7882 774.796 L48.7882 793.218 Q55.5192 793.218 58.6754 791.221 Q63.0876 788.451 63.0876 783.782 Q63.0876 783.138 62.9588 782.365 Q62.83 781.592 62.2825 780.014 Q61.7028 778.435 60.1891 777.051 Q58.6754 775.666 56.2922 774.861 Q55.3582 774.667 55.3904 774.023 Q55.3904 773.154 56.1634 773.154 Q56.7431 773.154 58.0635 773.798 Q59.3517 774.41 60.8976 775.601 Q62.4435 776.793 63.6029 779.112 Q64.7623 781.398 64.7623 784.168 Q64.7623 789.965 60.3823 794.345 Q55.9701 798.693 49.4968 798.693 M47.4034 793.154 L47.4034 777.502 Q46.0185 777.502 44.4726 777.759 Q42.9268 777.985 40.8012 778.693 Q38.6434 779.369 37.2907 780.98 Q35.9381 782.59 35.9381 784.973 Q35.9381 786.036 36.389 787.195 Q36.8398 788.323 37.9348 789.708 Q39.0298 791.092 41.5097 792.059 Q43.9895 793.025 47.4034 793.154 Z" fill="#000000" fill-rule="nonzero" fill-opacity="1" /><path clip-path="url(#clip760)" d="M64.0216 771.017 L61.9926 771.017 Q61.9926 767.507 61.5739 766.702 Q61.1231 765.864 58.9975 765.864 L41.3165 765.864 Q38.8688 765.864 38.2569 766.734 Q37.645 767.571 37.645 771.017 L35.5838 771.017 L34.8753 761.839 L42.1216 761.839 Q39.2875 760.905 37.0975 758.94 Q34.8753 756.943 34.8753 753.723 Q34.8753 751.597 36.0669 750.244 Q37.2585 748.86 38.901 748.86 Q40.3503 748.86 41.091 749.761 Q41.7996 750.631 41.7996 751.694 Q41.7996 752.885 41.0588 753.723 Q40.2859 754.528 38.9654 754.528 Q38.1603 754.528 37.5484 754.174 Q36.9043 753.787 36.6788 753.497 Q36.4534 753.207 36.389 753.014 Q36.3246 753.143 36.3246 753.723 Q36.3246 757.362 39.9638 759.455 Q43.5709 761.517 48.7238 761.517 L58.8687 761.517 Q60.7688 761.517 61.3807 760.744 Q61.9926 759.938 61.9926 756.492 L61.9926 755.108 L64.0216 755.108 Q63.8284 757.748 63.8284 763.481 Q63.8284 764.286 63.8606 765.542 Q63.8928 766.798 63.9572 768.441 Q64.0216 770.083 64.0216 771.017 Z" fill="#000000" fill-rule="nonzero" fill-opacity="1" /><path clip-path="url(#clip760)" d="M64.0216 744.136 L61.9926 744.136 Q61.9926 740.626 61.5739 739.821 Q61.1231 738.983 58.9975 738.983 L41.3165 738.983 Q38.8688 738.983 38.2569 739.853 Q37.645 740.69 37.645 744.136 L35.5838 744.136 L34.8753 734.958 L42.1216 734.958 Q39.2875 734.024 37.0975 732.059 Q34.8753 730.062 34.8753 726.842 Q34.8753 724.716 36.0669 723.364 Q37.2585 721.979 38.901 721.979 Q40.3503 721.979 41.091 722.881 Q41.7996 723.75 41.7996 724.813 Q41.7996 726.005 41.0588 726.842 Q40.2859 727.647 38.9654 727.647 Q38.1603 727.647 37.5484 727.293 Q36.9043 726.906 36.6788 726.616 Q36.4534 726.327 36.389 726.133 Q36.3246 726.262 36.3246 726.842 Q36.3246 730.481 39.9638 732.575 Q43.5709 734.636 48.7238 734.636 L58.8687 734.636 Q60.7688 734.636 61.3807 733.863 Q61.9926 733.058 61.9926 729.612 L61.9926 728.227 L64.0216 728.227 Q63.8284 730.868 63.8284 736.6 Q63.8284 737.405 63.8606 738.661 Q63.8928 739.917 63.9572 741.56 Q64.0216 743.202 64.0216 744.136 Z" fill="#000000" fill-rule="nonzero" fill-opacity="1" /><path clip-path="url(#clip760)" d="M60.479 711.963 Q56.1634 716.311 49.9154 716.311 Q43.6353 716.311 39.0621 712.059 Q34.4566 707.776 34.4566 701.657 Q34.4566 695.667 39.0298 691.383 Q43.5709 687.068 49.9154 687.068 Q56.1312 687.068 60.4467 691.416 Q64.7623 695.731 64.7623 701.721 Q64.7623 707.583 60.479 711.963 M49.3679 710.836 Q55.7769 710.836 58.6754 709.161 Q63.0876 706.584 63.0876 701.657 Q63.0876 699.209 61.7672 697.18 Q60.4467 695.119 58.2245 693.992 Q55.326 692.543 49.3679 692.543 Q43.0234 692.543 40.2215 694.282 Q35.9381 696.858 35.9381 701.721 Q35.9381 703.847 37.0653 705.94 Q38.1603 708.002 40.3503 709.258 Q43.2488 710.836 49.3679 710.836 Z" fill="#000000" fill-rule="nonzero" fill-opacity="1" /><path clip-path="url(#clip760)" d="M64.0216 684.967 L61.9926 684.967 Q61.9926 681.456 61.5739 680.651 Q61.1231 679.814 58.9975 679.814 L41.3165 679.814 Q38.8688 679.814 38.2569 680.683 Q37.645 681.521 37.645 684.967 L35.5838 684.967 L34.8753 675.788 L42.1216 675.788 Q39.2875 674.854 37.0975 672.889 Q34.8753 670.893 34.8753 667.672 Q34.8753 665.546 36.0669 664.194 Q37.2585 662.809 38.901 662.809 Q40.3503 662.809 41.091 663.711 Q41.7996 664.58 41.7996 665.643 Q41.7996 666.835 41.0588 667.672 Q40.2859 668.477 38.9654 668.477 Q38.1603 668.477 37.5484 668.123 Q36.9043 667.736 36.6788 667.447 Q36.4534 667.157 36.389 666.963 Q36.3246 667.092 36.3246 667.672 Q36.3246 671.311 39.9638 673.405 Q43.5709 675.466 48.7238 675.466 L58.8687 675.466 Q60.7688 675.466 61.3807 674.693 Q61.9926 673.888 61.9926 670.442 L61.9926 669.057 L64.0216 669.057 Q63.8284 671.698 63.8284 677.43 Q63.8284 678.236 63.8606 679.492 Q63.8928 680.748 63.9572 682.39 Q64.0216 684.033 64.0216 684.967 Z" fill="#000000" fill-rule="nonzero" fill-opacity="1" /><polyline clip-path="url(#clip762)" style="stroke:#009af9; stroke-linecap:round; stroke-linejoin:round; stroke-width:4; stroke-opacity:1; fill:none" points="2292.4,180.499 1286.41,705.978 280.417,1231.46 "/>
<polyline clip-path="url(#clip762)" style="stroke:#000000; stroke-linecap:round; stroke-linejoin:round; stroke-width:4; stroke-opacity:1; fill:none" points="2292.4,321.552 2292.4,85.838 "/>
<polyline clip-path="url(#clip762)" style="stroke:#000000; stroke-linecap:round; stroke-linejoin:round; stroke-width:4; stroke-opacity:1; fill:none" points="1286.41,834.758 1286.41,599.321 "/>
<polyline clip-path="url(#clip762)" style="stroke:#000000; stroke-linecap:round; stroke-linejoin:round; stroke-width:4; stroke-opacity:1; fill:none" points="280.417,1372.3 280.417,1136.9 "/>
<line clip-path="url(#clip762)" x1="2308.4" y1="321.552" x2="2276.4" y2="321.552" style="stroke:#000000; stroke-width:4; stroke-opacity:1"/>
<line clip-path="url(#clip762)" x1="2308.4" y1="85.838" x2="2276.4" y2="85.838" style="stroke:#000000; stroke-width:4; stroke-opacity:1"/>
<line clip-path="url(#clip762)" x1="1302.41" y1="834.758" x2="1270.41" y2="834.758" style="stroke:#000000; stroke-width:4; stroke-opacity:1"/>
<line clip-path="url(#clip762)" x1="1302.41" y1="599.321" x2="1270.41" y2="599.321" style="stroke:#000000; stroke-width:4; stroke-opacity:1"/>
<line clip-path="url(#clip762)" x1="296.417" y1="1372.3" x2="264.417" y2="1372.3" style="stroke:#000000; stroke-width:4; stroke-opacity:1"/>
<line clip-path="url(#clip762)" x1="296.417" y1="1136.9" x2="264.417" y2="1136.9" style="stroke:#000000; stroke-width:4; stroke-opacity:1"/>
<circle clip-path="url(#clip762)" cx="2292.4" cy="184.529" r="14.4" fill="#e26f46" fill-rule="evenodd" fill-opacity="1" stroke="#000000" stroke-opacity="1" stroke-width="3.2"/>
<circle clip-path="url(#clip762)" cx="1286.41" cy="697.918" r="14.4" fill="#e26f46" fill-rule="evenodd" fill-opacity="1" stroke="#000000" stroke-opacity="1" stroke-width="3.2"/>
<circle clip-path="url(#clip762)" cx="280.417" cy="1235.49" r="14.4" fill="#e26f46" fill-rule="evenodd" fill-opacity="1" stroke="#000000" stroke-opacity="1" stroke-width="3.2"/>
<path clip-path="url(#clip760)" d="M291.147 248.219 L1511.49 248.219 L1511.49 92.6992 L291.147 92.6992  Z" fill="#ffffff" fill-rule="evenodd" fill-opacity="1"/>
<polyline clip-path="url(#clip760)" style="stroke:#000000; stroke-linecap:round; stroke-linejoin:round; stroke-width:4; stroke-opacity:1; fill:none" points="291.147,248.219 1511.49,248.219 1511.49,92.6992 291.147,92.6992 291.147,248.219 "/>
<polyline clip-path="url(#clip760)" style="stroke:#009af9; stroke-linecap:round; stroke-linejoin:round; stroke-width:4; stroke-opacity:1; fill:none" points="314.844,144.539 457.024,144.539 "/>
<path clip-path="url(#clip760)" d="M514.777 133.915 L511.755 146.142 Q511.544 146.915 511.404 147.008 Q511.287 147.102 510.912 147.102 Q510.186 147.102 510.186 146.61 Q510.186 146.563 510.256 145.954 Q510.326 145.322 510.326 144.174 Q510.326 139.935 508.265 137.428 Q506.227 134.922 502.597 134.922 Q499.458 134.922 496.296 136.515 Q493.158 138.108 490.909 140.708 Q489.223 142.675 487.981 145.158 Q486.763 147.641 486.178 149.913 Q485.616 152.185 485.358 153.894 Q485.1 155.604 485.1 156.846 Q485.1 158.649 485.475 160.172 Q485.873 161.694 486.576 162.772 Q487.279 163.826 488.169 164.645 Q489.082 165.442 490.136 165.91 Q491.214 166.379 492.291 166.613 Q493.369 166.824 494.493 166.824 Q499.013 166.824 503.323 163.31 Q506.743 160.429 508.172 155.721 Q508.289 155.253 508.78 155.253 Q509.366 155.253 509.366 155.721 Q509.366 155.815 509.249 156.283 Q509.132 156.729 508.78 157.642 Q508.429 158.532 507.89 159.539 Q507.352 160.546 506.345 161.811 Q505.337 163.076 504.096 164.177 Q501.988 166.004 499.318 167.152 Q496.648 168.299 493.72 168.299 Q490.066 168.299 487.115 166.683 Q484.164 165.067 482.43 162.045 Q480.72 159.024 480.72 155.159 Q480.72 151.084 482.594 147.078 Q484.468 143.073 487.443 140.099 Q490.417 137.124 494.352 135.274 Q498.287 133.423 502.222 133.423 Q503.721 133.423 505.056 133.821 Q506.391 134.22 507.188 134.711 Q508.008 135.203 508.734 135.929 Q509.46 136.632 509.694 136.96 Q509.952 137.288 510.186 137.686 L513.535 134.009 Q514.121 133.423 514.261 133.423 Q514.542 133.423 514.66 133.587 Q514.777 133.751 514.777 133.915 Z" fill="#000000" fill-rule="nonzero" fill-opacity="1" /><path clip-path="url(#clip760)" d="M518.515 166.777 Q518.515 166.589 519.148 165.371 Q519.78 164.13 522.005 159.703 Q524.231 155.253 526.526 150.592 L534.794 133.962 Q535.38 132.908 536.129 132.908 Q536.808 132.908 537.113 133.329 Q537.417 133.751 538.823 136.585 Q539.549 137.967 539.97 138.857 L553.532 166.004 Q553.766 166.589 553.79 166.777 Q553.79 167.245 552.97 167.245 L519.78 167.245 Q518.515 167.245 518.515 166.777 M521.678 163.591 L547.489 163.591 L534.583 137.686 L521.678 163.591 Z" fill="#000000" fill-rule="nonzero" fill-opacity="1" /><path clip-path="url(#clip760)" d="M572.793 147.102 Q572.793 147.758 572.488 147.922 Q572.184 148.062 571.341 148.062 L566.844 148.062 L563.283 162.209 Q563.002 163.451 563.002 164.505 Q563.002 165.676 563.354 166.191 Q563.728 166.706 564.501 166.706 Q566.024 166.706 567.663 165.325 Q569.326 163.943 570.732 160.57 Q570.919 160.125 571.013 160.031 Q571.13 159.914 571.434 159.914 Q572.02 159.914 572.02 160.382 Q572.02 160.546 571.692 161.296 Q571.388 162.045 570.708 163.146 Q570.052 164.247 569.186 165.278 Q568.343 166.308 567.054 167.058 Q565.766 167.784 564.384 167.784 Q562.44 167.784 561.199 166.543 Q559.981 165.301 559.981 163.357 Q559.981 162.725 560.473 160.71 Q560.965 158.673 563.635 148.062 L559.395 148.062 Q558.81 148.062 558.575 148.039 Q558.365 148.015 558.201 147.898 Q558.06 147.758 558.06 147.477 Q558.06 147.032 558.248 146.844 Q558.435 146.633 558.669 146.61 Q558.927 146.563 559.512 146.563 L564.009 146.563 L565.883 138.951 Q566.071 138.201 566.539 137.78 Q567.031 137.335 567.312 137.288 Q567.593 137.218 567.804 137.218 Q568.436 137.218 568.811 137.569 Q569.186 137.897 569.186 138.506 Q569.186 138.834 567.218 146.563 L571.434 146.563 Q571.973 146.563 572.184 146.587 Q572.418 146.61 572.606 146.727 Q572.793 146.844 572.793 147.102 Z" fill="#000000" fill-rule="nonzero" fill-opacity="1" /><path clip-path="url(#clip760)" d="M595.302 125.999 Q595.302 128.392 594.088 130.704 Q592.892 133.016 591.006 134.442 Q589.121 135.852 587.202 135.852 Q586.055 135.852 585.284 135.229 Q584.53 134.59 584.12 133.688 Q583.808 134.803 583.136 137.476 Q582.464 140.148 582.464 140.41 Q582.464 140.558 582.497 140.624 Q582.529 140.689 582.677 140.771 Q582.825 140.87 583.185 140.902 Q583.546 140.952 584.153 140.952 Q584.464 140.952 584.579 140.952 Q584.71 140.968 584.825 141.05 Q584.956 141.132 584.956 141.312 Q584.956 141.984 584.349 141.984 Q583.808 141.984 582.693 141.935 Q581.578 141.886 581.021 141.886 Q580.546 141.886 579.595 141.935 Q578.644 141.984 578.201 141.984 Q577.758 141.984 577.758 141.591 Q577.758 141.361 577.824 141.214 Q577.873 141.083 578.004 141.017 Q578.135 140.968 578.25 140.952 Q578.349 140.952 578.545 140.952 Q579.299 140.952 579.627 140.82 Q579.955 140.706 580.07 140.46 Q580.201 140.23 580.349 139.574 L584.12 124.621 Q584.349 123.621 584.349 122.916 Q584.349 122.031 584.071 121.703 Q583.792 121.375 583.3 121.375 Q582.447 121.375 581.89 122.392 Q581.333 123.408 580.857 125.376 Q580.71 125.917 580.611 126.031 Q580.529 126.146 580.283 126.146 Q579.873 126.13 579.873 125.802 Q579.873 125.72 580.005 125.195 Q580.136 124.654 580.382 123.867 Q580.644 123.064 580.923 122.556 Q581.087 122.211 581.234 121.982 Q581.382 121.752 581.677 121.391 Q581.988 121.031 582.431 120.834 Q582.874 120.637 583.415 120.637 Q584.464 120.637 585.333 121.26 Q586.202 121.883 586.432 123.146 Q587.366 122.047 588.514 121.342 Q589.662 120.637 590.826 120.637 Q592.76 120.637 594.023 122.146 Q595.302 123.638 595.302 125.999 M592.875 124.523 Q592.875 123.031 592.301 122.211 Q591.744 121.375 590.727 121.375 Q589.465 121.375 588.006 122.654 Q586.563 123.867 586.268 124.998 L584.612 131.573 L584.513 132.114 Q584.513 132.213 584.563 132.508 Q584.628 132.786 584.808 133.246 Q585.005 133.705 585.268 134.115 Q585.546 134.508 586.038 134.803 Q586.546 135.098 587.169 135.098 Q588.17 135.098 589.252 134.213 Q590.35 133.328 591.17 131.655 Q591.678 130.573 592.268 128.245 Q592.875 125.9 592.875 124.523 Z" fill="#000000" fill-rule="nonzero" fill-opacity="1" /><path clip-path="url(#clip760)" d="M632.909 131.227 L632.909 134.769 L628.835 134.769 Q626.543 134.769 625.64 135.694 Q624.761 136.62 624.761 139.028 L624.761 141.319 L631.775 141.319 L631.775 144.63 L624.761 144.63 L624.761 167.245 L620.478 167.245 L620.478 144.63 L616.404 144.63 L616.404 141.319 L620.478 141.319 L620.478 139.514 Q620.478 135.185 622.492 133.218 Q624.506 131.227 628.881 131.227 L632.909 131.227 Z" fill="#000000" fill-rule="nonzero" fill-opacity="1" /><path clip-path="url(#clip760)" d="M636.474 141.319 L640.733 141.319 L640.733 167.245 L636.474 167.245 L636.474 141.319 M636.474 131.227 L640.733 131.227 L640.733 136.62 L636.474 136.62 L636.474 131.227 Z" fill="#000000" fill-rule="nonzero" fill-opacity="1" /><path clip-path="url(#clip760)" d="M653.858 133.958 L653.858 141.319 L662.631 141.319 L662.631 144.63 L653.858 144.63 L653.858 158.704 Q653.858 161.875 654.714 162.778 Q655.594 163.68 658.256 163.68 L662.631 163.68 L662.631 167.245 L658.256 167.245 Q653.325 167.245 651.45 165.417 Q649.575 163.565 649.575 158.704 L649.575 144.63 L646.45 144.63 L646.45 141.319 L649.575 141.319 L649.575 133.958 L653.858 133.958 Z" fill="#000000" fill-rule="nonzero" fill-opacity="1" /><path clip-path="url(#clip760)" d="M680.825 141.319 L685.085 141.319 L690.409 161.551 L695.709 141.319 L700.733 141.319 L706.057 161.551 L711.358 141.319 L715.617 141.319 L708.834 167.245 L703.811 167.245 L698.233 145.995 L692.631 167.245 L687.608 167.245 L680.825 141.319 Z" fill="#000000" fill-rule="nonzero" fill-opacity="1" /><path clip-path="url(#clip760)" d="M722.075 141.319 L726.334 141.319 L726.334 167.245 L722.075 167.245 L722.075 141.319 M722.075 131.227 L726.334 131.227 L726.334 136.62 L722.075 136.62 L722.075 131.227 Z" fill="#000000" fill-rule="nonzero" fill-opacity="1" /><path clip-path="url(#clip760)" d="M739.459 133.958 L739.459 141.319 L748.232 141.319 L748.232 144.63 L739.459 144.63 L739.459 158.704 Q739.459 161.875 740.316 162.778 Q741.195 163.68 743.857 163.68 L748.232 163.68 L748.232 167.245 L743.857 167.245 Q738.927 167.245 737.052 165.417 Q735.177 163.565 735.177 158.704 L735.177 144.63 L732.052 144.63 L732.052 141.319 L735.177 141.319 L735.177 133.958 L739.459 133.958 Z" fill="#000000" fill-rule="nonzero" fill-opacity="1" /><path clip-path="url(#clip760)" d="M775.385 151.597 L775.385 167.245 L771.126 167.245 L771.126 151.736 Q771.126 148.055 769.691 146.227 Q768.255 144.398 765.385 144.398 Q761.936 144.398 759.945 146.597 Q757.955 148.796 757.955 152.592 L757.955 167.245 L753.672 167.245 L753.672 131.227 L757.955 131.227 L757.955 145.347 Q759.482 143.009 761.542 141.852 Q763.626 140.694 766.334 140.694 Q770.802 140.694 773.093 143.472 Q775.385 146.227 775.385 151.597 Z" fill="#000000" fill-rule="nonzero" fill-opacity="1" /><path clip-path="url(#clip760)" d="M803.07 163.356 L803.07 177.106 L798.788 177.106 L798.788 141.319 L803.07 141.319 L803.07 145.255 Q804.413 142.94 806.45 141.829 Q808.51 140.694 811.357 140.694 Q816.079 140.694 819.019 144.444 Q821.982 148.194 821.982 154.305 Q821.982 160.417 819.019 164.167 Q816.079 167.916 811.357 167.916 Q808.51 167.916 806.45 166.805 Q804.413 165.671 803.07 163.356 M817.561 154.305 Q817.561 149.606 815.616 146.944 Q813.695 144.259 810.315 144.259 Q806.936 144.259 804.991 146.944 Q803.07 149.606 803.07 154.305 Q803.07 159.004 804.991 161.69 Q806.936 164.352 810.315 164.352 Q813.695 164.352 815.616 161.69 Q817.561 159.004 817.561 154.305 Z" fill="#000000" fill-rule="nonzero" fill-opacity="1" /><path clip-path="url(#clip760)" d="M844.667 145.718 L874.343 145.718 L874.343 149.606 L844.667 149.606 L844.667 145.718 M844.667 155.162 L874.343 155.162 L874.343 159.097 L844.667 159.097 L844.667 155.162 Z" fill="#000000" fill-rule="nonzero" fill-opacity="1" /><path clip-path="url(#clip760)" d="M900.315 163.31 L907.954 163.31 L907.954 136.944 L899.644 138.611 L899.644 134.352 L907.907 132.685 L912.583 132.685 L912.583 163.31 L920.222 163.31 L920.222 167.245 L900.315 167.245 L900.315 163.31 Z" fill="#000000" fill-rule="nonzero" fill-opacity="1" /><path clip-path="url(#clip760)" d="M929.667 161.366 L934.551 161.366 L934.551 167.245 L929.667 167.245 L929.667 161.366 Z" fill="#000000" fill-rule="nonzero" fill-opacity="1" /><path clip-path="url(#clip760)" d="M954.736 135.764 Q951.125 135.764 949.296 139.329 Q947.491 142.87 947.491 150 Q947.491 157.106 949.296 160.671 Q951.125 164.213 954.736 164.213 Q958.37 164.213 960.176 160.671 Q962.004 157.106 962.004 150 Q962.004 142.87 960.176 139.329 Q958.37 135.764 954.736 135.764 M954.736 132.06 Q960.546 132.06 963.602 136.667 Q966.68 141.25 966.68 150 Q966.68 158.727 963.602 163.333 Q960.546 167.916 954.736 167.916 Q948.926 167.916 945.847 163.333 Q942.792 158.727 942.792 150 Q942.792 141.25 945.847 136.667 Q948.926 132.06 954.736 132.06 Z" fill="#000000" fill-rule="nonzero" fill-opacity="1" /><path clip-path="url(#clip760)" d="M985.476 148.102 Q982.328 148.102 980.476 150.255 Q978.648 152.407 978.648 156.157 Q978.648 159.884 980.476 162.06 Q982.328 164.213 985.476 164.213 Q988.625 164.213 990.453 162.06 Q992.305 159.884 992.305 156.157 Q992.305 152.407 990.453 150.255 Q988.625 148.102 985.476 148.102 M994.759 133.449 L994.759 137.708 Q993 136.875 991.194 136.435 Q989.412 135.995 987.652 135.995 Q983.023 135.995 980.569 139.12 Q978.139 142.245 977.791 148.565 Q979.157 146.551 981.217 145.486 Q983.277 144.398 985.754 144.398 Q990.963 144.398 993.972 147.569 Q997.004 150.718 997.004 156.157 Q997.004 161.481 993.856 164.699 Q990.708 167.916 985.476 167.916 Q979.481 167.916 976.31 163.333 Q973.139 158.727 973.139 150 Q973.139 141.806 977.027 136.944 Q980.916 132.06 987.467 132.06 Q989.226 132.06 991.009 132.407 Q992.814 132.755 994.759 133.449 Z" fill="#000000" fill-rule="nonzero" fill-opacity="1" /><path clip-path="url(#clip760)" d="M1005.55 142.731 L1010.43 142.731 L1010.43 148.611 L1005.55 148.611 L1005.55 142.731 M1005.55 161.366 L1010.43 161.366 L1010.43 165.347 L1006.63 172.754 L1003.65 172.754 L1005.55 165.347 L1005.55 161.366 Z" fill="#000000" fill-rule="nonzero" fill-opacity="1" /><path clip-path="url(#clip760)" d="M1036.24 166.528 L1036.24 162.268 Q1038 163.102 1039.8 163.542 Q1041.61 163.981 1043.35 163.981 Q1047.98 163.981 1050.41 160.879 Q1052.86 157.755 1053.21 151.412 Q1051.86 153.403 1049.8 154.467 Q1047.74 155.532 1045.24 155.532 Q1040.06 155.532 1037.03 152.407 Q1034.02 149.259 1034.02 143.819 Q1034.02 138.495 1037.17 135.278 Q1040.31 132.06 1045.55 132.06 Q1051.54 132.06 1054.69 136.667 Q1057.86 141.25 1057.86 150 Q1057.86 158.171 1053.97 163.055 Q1050.11 167.916 1043.55 167.916 Q1041.8 167.916 1039.99 167.569 Q1038.18 167.222 1036.24 166.528 M1045.55 151.875 Q1048.69 151.875 1050.52 149.722 Q1052.37 147.569 1052.37 143.819 Q1052.37 140.093 1050.52 137.94 Q1048.69 135.764 1045.55 135.764 Q1042.4 135.764 1040.55 137.94 Q1038.72 140.093 1038.72 143.819 Q1038.72 147.569 1040.55 149.722 Q1042.4 151.875 1045.55 151.875 Z" fill="#000000" fill-rule="nonzero" fill-opacity="1" /><path clip-path="url(#clip760)" d="M1066.31 132.685 L1084.67 132.685 L1084.67 136.62 L1070.59 136.62 L1070.59 145.093 Q1071.61 144.745 1072.63 144.583 Q1073.65 144.398 1074.67 144.398 Q1080.45 144.398 1083.83 147.569 Q1087.21 150.741 1087.21 156.157 Q1087.21 161.736 1083.74 164.838 Q1080.27 167.916 1073.95 167.916 Q1071.77 167.916 1069.5 167.546 Q1067.26 167.176 1064.85 166.435 L1064.85 161.736 Q1066.93 162.87 1069.16 163.426 Q1071.38 163.981 1073.86 163.981 Q1077.86 163.981 1080.2 161.875 Q1082.54 159.768 1082.54 156.157 Q1082.54 152.546 1080.2 150.44 Q1077.86 148.333 1073.86 148.333 Q1071.98 148.333 1070.11 148.75 Q1068.25 149.167 1066.31 150.046 L1066.31 132.685 Z" fill="#000000" fill-rule="nonzero" fill-opacity="1" /><path clip-path="url(#clip760)" d="M1125.82 152.037 Q1123.81 152.037 1122.65 153.75 Q1121.52 155.463 1121.52 158.518 Q1121.52 161.528 1122.65 163.264 Q1123.81 164.977 1125.82 164.977 Q1127.79 164.977 1128.92 163.264 Q1130.08 161.528 1130.08 158.518 Q1130.08 155.486 1128.92 153.773 Q1127.79 152.037 1125.82 152.037 M1125.82 149.097 Q1129.48 149.097 1131.63 151.643 Q1133.79 154.19 1133.79 158.518 Q1133.79 162.847 1131.61 165.393 Q1129.46 167.916 1125.82 167.916 Q1122.12 167.916 1119.97 165.393 Q1117.81 162.847 1117.81 158.518 Q1117.81 154.167 1119.97 151.643 Q1122.14 149.097 1125.82 149.097 M1101.93 135 Q1099.94 135 1098.79 136.736 Q1097.65 138.449 1097.65 141.458 Q1097.65 144.514 1098.79 146.227 Q1099.92 147.94 1101.93 147.94 Q1103.95 147.94 1105.08 146.227 Q1106.24 144.514 1106.24 141.458 Q1106.24 138.472 1105.08 136.736 Q1103.92 135 1101.93 135 M1122.84 132.06 L1126.54 132.06 L1104.92 167.916 L1101.22 167.916 L1122.84 132.06 M1101.93 132.06 Q1105.59 132.06 1107.77 134.606 Q1109.94 137.13 1109.94 141.458 Q1109.94 145.833 1107.77 148.356 Q1105.61 150.88 1101.93 150.88 Q1098.25 150.88 1096.1 148.356 Q1093.97 145.81 1093.97 141.458 Q1093.97 137.153 1096.12 134.606 Q1098.28 132.06 1101.93 132.06 Z" fill="#000000" fill-rule="nonzero" fill-opacity="1" /><path clip-path="url(#clip760)" d="M1182 135.347 L1182 140.278 Q1179.64 138.079 1176.96 136.991 Q1174.29 135.903 1171.29 135.903 Q1165.36 135.903 1162.21 139.537 Q1159.06 143.148 1159.06 150 Q1159.06 156.829 1162.21 160.463 Q1165.36 164.074 1171.29 164.074 Q1174.29 164.074 1176.96 162.986 Q1179.64 161.898 1182 159.699 L1182 164.583 Q1179.55 166.25 1176.79 167.083 Q1174.06 167.916 1171.01 167.916 Q1163.16 167.916 1158.65 163.125 Q1154.13 158.31 1154.13 150 Q1154.13 141.667 1158.65 136.875 Q1163.16 132.06 1171.01 132.06 Q1174.11 132.06 1176.84 132.894 Q1179.6 133.704 1182 135.347 Z" fill="#000000" fill-rule="nonzero" fill-opacity="1" /><path clip-path="url(#clip760)" d="M1189.23 132.685 L1193.9 132.685 L1193.9 167.245 L1189.23 167.245 L1189.23 132.685 Z" fill="#000000" fill-rule="nonzero" fill-opacity="1" /><path clip-path="url(#clip760)" d="M1217.7 131.227 L1227.51 131.227 L1227.51 134.537 L1221.96 134.537 L1221.96 170.185 L1227.51 170.185 L1227.51 173.495 L1217.7 173.495 L1217.7 131.227 Z" fill="#000000" fill-rule="nonzero" fill-opacity="1" /><path clip-path="url(#clip760)" d="M1247.19 135.764 Q1243.58 135.764 1241.75 139.329 Q1239.94 142.87 1239.94 150 Q1239.94 157.106 1241.75 160.671 Q1243.58 164.213 1247.19 164.213 Q1250.82 164.213 1252.63 160.671 Q1254.46 157.106 1254.46 150 Q1254.46 142.87 1252.63 139.329 Q1250.82 135.764 1247.19 135.764 M1247.19 132.06 Q1253 132.06 1256.05 136.667 Q1259.13 141.25 1259.13 150 Q1259.13 158.727 1256.05 163.333 Q1253 167.916 1247.19 167.916 Q1241.38 167.916 1238.3 163.333 Q1235.24 158.727 1235.24 150 Q1235.24 141.25 1238.3 136.667 Q1241.38 132.06 1247.19 132.06 Z" fill="#000000" fill-rule="nonzero" fill-opacity="1" /><path clip-path="url(#clip760)" d="M1267.35 161.366 L1272.23 161.366 L1272.23 167.245 L1267.35 167.245 L1267.35 161.366 Z" fill="#000000" fill-rule="nonzero" fill-opacity="1" /><path clip-path="url(#clip760)" d="M1282.56 166.528 L1282.56 162.268 Q1284.32 163.102 1286.12 163.542 Q1287.93 163.981 1289.66 163.981 Q1294.29 163.981 1296.72 160.879 Q1299.18 157.755 1299.53 151.412 Q1298.18 153.403 1296.12 154.467 Q1294.06 155.532 1291.56 155.532 Q1286.38 155.532 1283.35 152.407 Q1280.34 149.259 1280.34 143.819 Q1280.34 138.495 1283.48 135.278 Q1286.63 132.06 1291.86 132.06 Q1297.86 132.06 1301.01 136.667 Q1304.18 141.25 1304.18 150 Q1304.18 158.171 1300.29 163.055 Q1296.42 167.916 1289.87 167.916 Q1288.11 167.916 1286.31 167.569 Q1284.5 167.222 1282.56 166.528 M1291.86 151.875 Q1295.01 151.875 1296.84 149.722 Q1298.69 147.569 1298.69 143.819 Q1298.69 140.093 1296.84 137.94 Q1295.01 135.764 1291.86 135.764 Q1288.72 135.764 1286.86 137.94 Q1285.04 140.093 1285.04 143.819 Q1285.04 147.569 1286.86 149.722 Q1288.72 151.875 1291.86 151.875 Z" fill="#000000" fill-rule="nonzero" fill-opacity="1" /><path clip-path="url(#clip760)" d="M1312.63 132.685 L1330.98 132.685 L1330.98 136.62 L1316.91 136.62 L1316.91 145.093 Q1317.93 144.745 1318.95 144.583 Q1319.97 144.398 1320.98 144.398 Q1326.77 144.398 1330.15 147.569 Q1333.53 150.741 1333.53 156.157 Q1333.53 161.736 1330.06 164.838 Q1326.59 167.916 1320.27 167.916 Q1318.09 167.916 1315.82 167.546 Q1313.58 167.176 1311.17 166.435 L1311.17 161.736 Q1313.25 162.87 1315.47 163.426 Q1317.7 163.981 1320.17 163.981 Q1324.18 163.981 1326.52 161.875 Q1328.85 159.768 1328.85 156.157 Q1328.85 152.546 1326.52 150.44 Q1324.18 148.333 1320.17 148.333 Q1318.3 148.333 1316.42 148.75 Q1314.57 149.167 1312.63 150.046 L1312.63 132.685 Z" fill="#000000" fill-rule="nonzero" fill-opacity="1" /><path clip-path="url(#clip760)" d="M1343.23 161.366 L1348.11 161.366 L1348.11 165.347 L1344.32 172.754 L1341.33 172.754 L1343.23 165.347 L1343.23 161.366 Z" fill="#000000" fill-rule="nonzero" fill-opacity="1" /><path clip-path="url(#clip760)" d="M1373.69 163.31 L1381.33 163.31 L1381.33 136.944 L1373.02 138.611 L1373.02 134.352 L1381.28 132.685 L1385.96 132.685 L1385.96 163.31 L1393.6 163.31 L1393.6 167.245 L1373.69 167.245 L1373.69 163.31 Z" fill="#000000" fill-rule="nonzero" fill-opacity="1" /><path clip-path="url(#clip760)" d="M1403.04 161.366 L1407.93 161.366 L1407.93 167.245 L1403.04 167.245 L1403.04 161.366 Z" fill="#000000" fill-rule="nonzero" fill-opacity="1" /><path clip-path="url(#clip760)" d="M1418.92 163.31 L1426.56 163.31 L1426.56 136.944 L1418.25 138.611 L1418.25 134.352 L1426.52 132.685 L1431.19 132.685 L1431.19 163.31 L1438.83 163.31 L1438.83 167.245 L1418.92 167.245 L1418.92 163.31 Z" fill="#000000" fill-rule="nonzero" fill-opacity="1" /><path clip-path="url(#clip760)" d="M1458.27 150.833 Q1454.94 150.833 1453.02 152.616 Q1451.12 154.398 1451.12 157.523 Q1451.12 160.648 1453.02 162.43 Q1454.94 164.213 1458.27 164.213 Q1461.61 164.213 1463.53 162.43 Q1465.45 160.625 1465.45 157.523 Q1465.45 154.398 1463.53 152.616 Q1461.63 150.833 1458.27 150.833 M1453.6 148.843 Q1450.59 148.102 1448.9 146.042 Q1447.23 143.981 1447.23 141.018 Q1447.23 136.875 1450.17 134.468 Q1453.14 132.06 1458.27 132.06 Q1463.44 132.06 1466.38 134.468 Q1469.32 136.875 1469.32 141.018 Q1469.32 143.981 1467.63 146.042 Q1465.96 148.102 1462.97 148.843 Q1466.35 149.63 1468.23 151.921 Q1470.13 154.213 1470.13 157.523 Q1470.13 162.546 1467.05 165.231 Q1463.99 167.916 1458.27 167.916 Q1452.56 167.916 1449.48 165.231 Q1446.42 162.546 1446.42 157.523 Q1446.42 154.213 1448.32 151.921 Q1450.22 149.63 1453.6 148.843 M1451.89 141.458 Q1451.89 144.143 1453.55 145.648 Q1455.24 147.153 1458.27 147.153 Q1461.28 147.153 1462.97 145.648 Q1464.69 144.143 1464.69 141.458 Q1464.69 138.773 1462.97 137.269 Q1461.28 135.764 1458.27 135.764 Q1455.24 135.764 1453.55 137.269 Q1451.89 138.773 1451.89 141.458 Z" fill="#000000" fill-rule="nonzero" fill-opacity="1" /><path clip-path="url(#clip760)" d="M1487.79 131.227 L1487.79 173.495 L1477.97 173.495 L1477.97 170.185 L1483.51 170.185 L1483.51 134.537 L1477.97 134.537 L1477.97 131.227 L1487.79 131.227 Z" fill="#000000" fill-rule="nonzero" fill-opacity="1" /><circle clip-path="url(#clip760)" cx="385.934" cy="196.379" r="20.48" fill="#e26f46" fill-rule="evenodd" fill-opacity="1" stroke="#000000" stroke-opacity="1" stroke-width="4.55111"/>
<path clip-path="url(#clip760)" d="M499.146 188.497 L499.146 192.525 Q497.341 191.599 495.396 191.136 Q493.452 190.673 491.368 190.673 Q488.197 190.673 486.6 191.645 Q485.026 192.618 485.026 194.562 Q485.026 196.044 486.16 196.9 Q487.294 197.733 490.72 198.497 L492.179 198.821 Q496.716 199.794 498.614 201.576 Q500.535 203.335 500.535 206.506 Q500.535 210.118 497.665 212.224 Q494.818 214.33 489.818 214.33 Q487.734 214.33 485.466 213.914 Q483.22 213.52 480.72 212.71 L480.72 208.312 Q483.082 209.539 485.373 210.164 Q487.665 210.766 489.91 210.766 Q492.919 210.766 494.54 209.747 Q496.16 208.706 496.16 206.831 Q496.16 205.094 494.98 204.168 Q493.822 203.243 489.864 202.386 L488.382 202.039 Q484.424 201.206 482.665 199.493 Q480.906 197.756 480.906 194.747 Q480.906 191.09 483.498 189.099 Q486.091 187.108 490.859 187.108 Q493.22 187.108 495.304 187.456 Q497.387 187.803 499.146 188.497 Z" fill="#000000" fill-rule="nonzero" fill-opacity="1" /><path clip-path="url(#clip760)" d="M511.53 180.372 L511.53 187.733 L520.304 187.733 L520.304 191.044 L511.53 191.044 L511.53 205.118 Q511.53 208.289 512.387 209.192 Q513.267 210.094 515.929 210.094 L520.304 210.094 L520.304 213.659 L515.929 213.659 Q510.998 213.659 509.123 211.83 Q507.248 209.979 507.248 205.118 L507.248 191.044 L504.123 191.044 L504.123 187.733 L507.248 187.733 L507.248 180.372 L511.53 180.372 Z" fill="#000000" fill-rule="nonzero" fill-opacity="1" /><path clip-path="url(#clip760)" d="M540.928 191.715 Q540.211 191.298 539.354 191.113 Q538.521 190.905 537.503 190.905 Q533.891 190.905 531.947 193.266 Q530.026 195.604 530.026 200.002 L530.026 213.659 L525.743 213.659 L525.743 187.733 L530.026 187.733 L530.026 191.761 Q531.368 189.4 533.521 188.266 Q535.674 187.108 538.753 187.108 Q539.192 187.108 539.725 187.178 Q540.257 187.224 540.905 187.34 L540.928 191.715 Z" fill="#000000" fill-rule="nonzero" fill-opacity="1" /><path clip-path="url(#clip760)" d="M554.401 190.719 Q550.975 190.719 548.984 193.405 Q546.993 196.067 546.993 200.719 Q546.993 205.372 548.961 208.057 Q550.952 210.719 554.401 210.719 Q557.803 210.719 559.794 208.034 Q561.785 205.349 561.785 200.719 Q561.785 196.113 559.794 193.428 Q557.803 190.719 554.401 190.719 M554.401 187.108 Q559.956 187.108 563.127 190.719 Q566.299 194.331 566.299 200.719 Q566.299 207.085 563.127 210.719 Q559.956 214.33 554.401 214.33 Q548.822 214.33 545.651 210.719 Q542.502 207.085 542.502 200.719 Q542.502 194.331 545.651 190.719 Q548.822 187.108 554.401 187.108 Z" fill="#000000" fill-rule="nonzero" fill-opacity="1" /><path clip-path="url(#clip760)" d="M594.91 198.011 L594.91 213.659 L590.65 213.659 L590.65 198.15 Q590.65 194.469 589.215 192.641 Q587.78 190.812 584.91 190.812 Q581.461 190.812 579.47 193.011 Q577.479 195.21 577.479 199.006 L577.479 213.659 L573.197 213.659 L573.197 187.733 L577.479 187.733 L577.479 191.761 Q579.007 189.423 581.067 188.266 Q583.15 187.108 585.859 187.108 Q590.326 187.108 592.618 189.886 Q594.91 192.641 594.91 198.011 Z" fill="#000000" fill-rule="nonzero" fill-opacity="1" /><path clip-path="url(#clip760)" d="M620.465 200.395 Q620.465 195.766 618.544 193.219 Q616.646 190.673 613.197 190.673 Q609.771 190.673 607.849 193.219 Q605.951 195.766 605.951 200.395 Q605.951 205.002 607.849 207.548 Q609.771 210.094 613.197 210.094 Q616.646 210.094 618.544 207.548 Q620.465 205.002 620.465 200.395 M624.724 210.442 Q624.724 217.062 621.784 220.28 Q618.845 223.52 612.78 223.52 Q610.535 223.52 608.544 223.173 Q606.553 222.849 604.678 222.155 L604.678 218.011 Q606.553 219.03 608.382 219.516 Q610.21 220.002 612.109 220.002 Q616.298 220.002 618.382 217.803 Q620.465 215.627 620.465 211.205 L620.465 209.099 Q619.146 211.391 617.085 212.525 Q615.025 213.659 612.155 213.659 Q607.386 213.659 604.47 210.025 Q601.553 206.391 601.553 200.395 Q601.553 194.377 604.47 190.743 Q607.386 187.108 612.155 187.108 Q615.025 187.108 617.085 188.243 Q619.146 189.377 620.465 191.669 L620.465 187.733 L624.724 187.733 L624.724 210.442 Z" fill="#000000" fill-rule="nonzero" fill-opacity="1" /><path clip-path="url(#clip760)" d="M670.743 199.631 L670.743 201.715 L651.159 201.715 Q651.437 206.113 653.798 208.428 Q656.182 210.719 660.419 210.719 Q662.872 210.719 665.164 210.118 Q667.479 209.516 669.747 208.312 L669.747 212.34 Q667.456 213.312 665.048 213.821 Q662.641 214.33 660.164 214.33 Q653.96 214.33 650.326 210.719 Q646.715 207.108 646.715 200.951 Q646.715 194.585 650.141 190.858 Q653.59 187.108 659.423 187.108 Q664.655 187.108 667.687 190.488 Q670.743 193.844 670.743 199.631 M666.483 198.381 Q666.437 194.886 664.516 192.803 Q662.618 190.719 659.469 190.719 Q655.905 190.719 653.752 192.733 Q651.622 194.747 651.298 198.405 L666.483 198.381 Z" fill="#000000" fill-rule="nonzero" fill-opacity="1" /><path clip-path="url(#clip760)" d="M692.756 191.715 Q692.039 191.298 691.182 191.113 Q690.349 190.905 689.33 190.905 Q685.719 190.905 683.775 193.266 Q681.854 195.604 681.854 200.002 L681.854 213.659 L677.571 213.659 L677.571 187.733 L681.854 187.733 L681.854 191.761 Q683.196 189.4 685.349 188.266 Q687.502 187.108 690.58 187.108 Q691.02 187.108 691.553 187.178 Q692.085 187.224 692.733 187.34 L692.756 191.715 Z" fill="#000000" fill-rule="nonzero" fill-opacity="1" /><path clip-path="url(#clip760)" d="M711.414 191.715 Q710.696 191.298 709.84 191.113 Q709.006 190.905 707.988 190.905 Q704.377 190.905 702.432 193.266 Q700.511 195.604 700.511 200.002 L700.511 213.659 L696.229 213.659 L696.229 187.733 L700.511 187.733 L700.511 191.761 Q701.853 189.4 704.006 188.266 Q706.159 187.108 709.238 187.108 Q709.678 187.108 710.21 187.178 Q710.742 187.224 711.39 187.34 L711.414 191.715 Z" fill="#000000" fill-rule="nonzero" fill-opacity="1" /><path clip-path="url(#clip760)" d="M724.886 190.719 Q721.46 190.719 719.469 193.405 Q717.478 196.067 717.478 200.719 Q717.478 205.372 719.446 208.057 Q721.437 210.719 724.886 210.719 Q728.289 210.719 730.279 208.034 Q732.27 205.349 732.27 200.719 Q732.27 196.113 730.279 193.428 Q728.289 190.719 724.886 190.719 M724.886 187.108 Q730.441 187.108 733.613 190.719 Q736.784 194.331 736.784 200.719 Q736.784 207.085 733.613 210.719 Q730.441 214.33 724.886 214.33 Q719.307 214.33 716.136 210.719 Q712.988 207.085 712.988 200.719 Q712.988 194.331 716.136 190.719 Q719.307 187.108 724.886 187.108 Z" fill="#000000" fill-rule="nonzero" fill-opacity="1" /><path clip-path="url(#clip760)" d="M758.867 191.715 Q758.149 191.298 757.293 191.113 Q756.46 190.905 755.441 190.905 Q751.83 190.905 749.886 193.266 Q747.964 195.604 747.964 200.002 L747.964 213.659 L743.682 213.659 L743.682 187.733 L747.964 187.733 L747.964 191.761 Q749.307 189.4 751.46 188.266 Q753.612 187.108 756.691 187.108 Q757.131 187.108 757.663 187.178 Q758.196 187.224 758.844 187.34 L758.867 191.715 Z" fill="#000000" fill-rule="nonzero" fill-opacity="1" /><path clip-path="url(#clip760)" d="M779.862 188.497 L779.862 192.525 Q778.057 191.599 776.112 191.136 Q774.168 190.673 772.085 190.673 Q768.913 190.673 767.316 191.645 Q765.742 192.618 765.742 194.562 Q765.742 196.044 766.876 196.9 Q768.011 197.733 771.436 198.497 L772.895 198.821 Q777.432 199.794 779.33 201.576 Q781.251 203.335 781.251 206.506 Q781.251 210.118 778.381 212.224 Q775.534 214.33 770.534 214.33 Q768.45 214.33 766.182 213.914 Q763.936 213.52 761.436 212.71 L761.436 208.312 Q763.798 209.539 766.089 210.164 Q768.381 210.766 770.626 210.766 Q773.636 210.766 775.256 209.747 Q776.876 208.706 776.876 206.831 Q776.876 205.094 775.696 204.168 Q774.538 203.243 770.58 202.386 L769.098 202.039 Q765.14 201.206 763.381 199.493 Q761.622 197.756 761.622 194.747 Q761.622 191.09 764.214 189.099 Q766.807 187.108 771.575 187.108 Q773.936 187.108 776.02 187.456 Q778.103 187.803 779.862 188.497 Z" fill="#000000" fill-rule="nonzero" fill-opacity="1" /></svg>
