<?xml version="1.0" encoding="utf-8"?>
<svg xmlns="http://www.w3.org/2000/svg" xmlns:xlink="http://www.w3.org/1999/xlink" width="600" height="400" viewBox="0 0 2400 1600">
<defs>
  <clipPath id="clip460">
    <rect x="0" y="0" width="2400" height="1600"/>
  </clipPath>
</defs>
<path clip-path="url(#clip460)" d="M0 1600 L2400 1600 L2400 0 L0 0  Z" fill="#ffffff" fill-rule="evenodd" fill-opacity="1"/>
<defs>
  <clipPath id="clip461">
    <rect x="480" y="0" width="1681" height="1600"/>
  </clipPath>
</defs>
<path clip-path="url(#clip460)" d="M288.311 1410.9 L2352.76 1410.9 L2352.76 47.2441 L288.311 47.2441  Z" fill="#ffffff" fill-rule="evenodd" fill-opacity="1"/>
<defs>
  <clipPath id="clip462">
    <rect x="288" y="47" width="2065" height="1365"/>
  </clipPath>
</defs>
<polyline clip-path="url(#clip462)" style="stroke:#000000; stroke-linecap:round; stroke-linejoin:round; stroke-width:2; stroke-opacity:0.1; fill:none" points="1227.14,1410.9 1227.14,47.2441 "/>
<polyline clip-path="url(#clip462)" style="stroke:#000000; stroke-linecap:round; stroke-linejoin:round; stroke-width:2; stroke-opacity:0.1; fill:none" points="2305.43,1410.9 2305.43,47.2441 "/>
<polyline clip-path="url(#clip460)" style="stroke:#000000; stroke-linecap:round; stroke-linejoin:round; stroke-width:4; stroke-opacity:1; fill:none" points="288.311,1410.9 2352.76,1410.9 "/>
<polyline clip-path="url(#clip460)" style="stroke:#000000; stroke-linecap:round; stroke-linejoin:round; stroke-width:4; stroke-opacity:1; fill:none" points="1227.14,1410.9 1227.14,1392 "/>
<polyline clip-path="url(#clip460)" style="stroke:#000000; stroke-linecap:round; stroke-linejoin:round; stroke-width:4; stroke-opacity:1; fill:none" points="2305.43,1410.9 2305.43,1392 "/>
<path clip-path="url(#clip460)" d="M1158.38 1485.02 L1166.02 1485.02 L1166.02 1458.66 L1157.71 1460.32 L1157.71 1456.06 L1165.98 1454.4 L1170.65 1454.4 L1170.65 1485.02 L1178.29 1485.02 L1178.29 1488.96 L1158.38 1488.96 L1158.38 1485.02 Z" fill="#000000" fill-rule="nonzero" fill-opacity="1" /><path clip-path="url(#clip460)" d="M1197.74 1457.48 Q1194.12 1457.48 1192.3 1461.04 Q1190.49 1464.58 1190.49 1471.71 Q1190.49 1478.82 1192.3 1482.38 Q1194.12 1485.92 1197.74 1485.92 Q1201.37 1485.92 1203.18 1482.38 Q1205 1478.82 1205 1471.71 Q1205 1464.58 1203.18 1461.04 Q1201.37 1457.48 1197.74 1457.48 M1197.74 1453.77 Q1203.55 1453.77 1206.6 1458.38 Q1209.68 1462.96 1209.68 1471.71 Q1209.68 1480.44 1206.6 1485.04 Q1203.55 1489.63 1197.74 1489.63 Q1191.93 1489.63 1188.85 1485.04 Q1185.79 1480.44 1185.79 1471.71 Q1185.79 1462.96 1188.85 1458.38 Q1191.93 1453.77 1197.74 1453.77 Z" fill="#000000" fill-rule="nonzero" fill-opacity="1" /><path clip-path="url(#clip460)" d="M1209.68 1447.87 L1233.79 1447.87 L1233.79 1451.07 L1209.68 1451.07 L1209.68 1447.87 Z" fill="#000000" fill-rule="nonzero" fill-opacity="1" /><path clip-path="url(#clip460)" d="M1245.26 1458.35 L1258.52 1458.35 L1258.52 1461.55 L1240.69 1461.55 L1240.69 1458.35 Q1242.86 1456.11 1246.58 1452.35 Q1250.32 1448.57 1251.28 1447.48 Q1253.11 1445.43 1253.82 1444.02 Q1254.56 1442.59 1254.56 1441.22 Q1254.56 1438.98 1252.98 1437.57 Q1251.41 1436.16 1248.89 1436.16 Q1247.11 1436.16 1245.11 1436.78 Q1243.14 1437.4 1240.88 1438.66 L1240.88 1434.82 Q1243.18 1433.9 1245.17 1433.43 Q1247.16 1432.96 1248.82 1432.96 Q1253.18 1432.96 1255.78 1435.14 Q1258.37 1437.32 1258.37 1440.97 Q1258.37 1442.7 1257.72 1444.26 Q1257.08 1445.8 1255.36 1447.91 Q1254.89 1448.46 1252.37 1451.07 Q1249.85 1453.67 1245.26 1458.35 Z" fill="#000000" fill-rule="nonzero" fill-opacity="1" /><path clip-path="url(#clip460)" d="M1266.5 1456.77 L1270.47 1456.77 L1270.47 1461.55 L1266.5 1461.55 L1266.5 1456.77 Z" fill="#000000" fill-rule="nonzero" fill-opacity="1" /><path clip-path="url(#clip460)" d="M1286.87 1435.97 Q1283.93 1435.97 1282.45 1438.86 Q1280.98 1441.74 1280.98 1447.53 Q1280.98 1453.31 1282.45 1456.2 Q1283.93 1459.08 1286.87 1459.08 Q1289.82 1459.08 1291.29 1456.2 Q1292.77 1453.31 1292.77 1447.53 Q1292.77 1441.74 1291.29 1438.86 Q1289.82 1435.97 1286.87 1435.97 M1286.87 1432.96 Q1291.59 1432.96 1294.07 1436.7 Q1296.57 1440.43 1296.57 1447.53 Q1296.57 1454.62 1294.07 1458.37 Q1291.59 1462.09 1286.87 1462.09 Q1282.15 1462.09 1279.64 1458.37 Q1277.16 1454.62 1277.16 1447.53 Q1277.16 1440.43 1279.64 1436.7 Q1282.15 1432.96 1286.87 1432.96 Z" fill="#000000" fill-rule="nonzero" fill-opacity="1" /><path clip-path="url(#clip460)" d="M2237.08 1485.02 L2244.72 1485.02 L2244.72 1458.66 L2236.41 1460.32 L2236.41 1456.06 L2244.67 1454.4 L2249.35 1454.4 L2249.35 1485.02 L2256.99 1485.02 L2256.99 1488.96 L2237.08 1488.96 L2237.08 1485.02 Z" fill="#000000" fill-rule="nonzero" fill-opacity="1" /><path clip-path="url(#clip460)" d="M2276.43 1457.48 Q2272.82 1457.48 2270.99 1461.04 Q2269.19 1464.58 2269.19 1471.71 Q2269.19 1478.82 2270.99 1482.38 Q2272.82 1485.92 2276.43 1485.92 Q2280.07 1485.92 2281.87 1482.38 Q2283.7 1478.82 2283.7 1471.71 Q2283.7 1464.58 2281.87 1461.04 Q2280.07 1457.48 2276.43 1457.48 M2276.43 1453.77 Q2282.24 1453.77 2285.3 1458.38 Q2288.38 1462.96 2288.38 1471.71 Q2288.38 1480.44 2285.3 1485.04 Q2282.24 1489.63 2276.43 1489.63 Q2270.62 1489.63 2267.54 1485.04 Q2264.49 1480.44 2264.49 1471.71 Q2264.49 1462.96 2267.54 1458.38 Q2270.62 1453.77 2276.43 1453.77 Z" fill="#000000" fill-rule="nonzero" fill-opacity="1" /><path clip-path="url(#clip460)" d="M2288.38 1447.87 L2312.49 1447.87 L2312.49 1451.07 L2288.38 1451.07 L2288.38 1447.87 Z" fill="#000000" fill-rule="nonzero" fill-opacity="1" /><path clip-path="url(#clip460)" d="M2321.35 1458.35 L2327.55 1458.35 L2327.55 1436.93 L2320.8 1438.28 L2320.8 1434.82 L2327.52 1433.47 L2331.31 1433.47 L2331.31 1458.35 L2337.52 1458.35 L2337.52 1461.55 L2321.35 1461.55 L2321.35 1458.35 Z" fill="#000000" fill-rule="nonzero" fill-opacity="1" /><path clip-path="url(#clip460)" d="M2345.19 1456.77 L2349.16 1456.77 L2349.16 1461.55 L2345.19 1461.55 L2345.19 1456.77 Z" fill="#000000" fill-rule="nonzero" fill-opacity="1" /><path clip-path="url(#clip460)" d="M2357.48 1433.47 L2372.39 1433.47 L2372.39 1436.66 L2360.96 1436.66 L2360.96 1443.55 Q2361.78 1443.27 2362.61 1443.13 Q2363.44 1442.98 2364.27 1442.98 Q2368.97 1442.98 2371.71 1445.56 Q2374.46 1448.14 2374.46 1452.54 Q2374.46 1457.07 2371.64 1459.59 Q2368.82 1462.09 2363.68 1462.09 Q2361.92 1462.09 2360.07 1461.79 Q2358.25 1461.49 2356.29 1460.89 L2356.29 1457.07 Q2357.98 1457.99 2359.79 1458.44 Q2361.6 1458.89 2363.61 1458.89 Q2366.86 1458.89 2368.76 1457.18 Q2370.66 1455.47 2370.66 1452.54 Q2370.66 1449.6 2368.76 1447.89 Q2366.86 1446.18 2363.61 1446.18 Q2362.08 1446.18 2360.56 1446.52 Q2359.06 1446.86 2357.48 1447.57 L2357.48 1433.47 Z" fill="#000000" fill-rule="nonzero" fill-opacity="1" /><path clip-path="url(#clip460)" d="M1282.08 1568.04 Q1282.08 1567.79 1282.95 1566.11 Q1283.82 1564.41 1286.88 1558.32 Q1289.94 1552.2 1293.1 1545.79 L1304.46 1522.92 Q1305.27 1521.48 1306.3 1521.48 Q1307.23 1521.48 1307.65 1522.05 Q1308.07 1522.63 1310 1526.53 Q1311 1528.43 1311.58 1529.66 L1330.23 1566.98 Q1330.55 1567.79 1330.58 1568.04 Q1330.58 1568.69 1329.46 1568.69 L1283.82 1568.69 Q1282.08 1568.69 1282.08 1568.04 M1286.43 1563.66 L1321.92 1563.66 L1304.17 1528.05 L1286.43 1563.66 Z" fill="#000000" fill-rule="nonzero" fill-opacity="1" /><path clip-path="url(#clip460)" d="M1355.67 1540.99 Q1355.67 1541.89 1355.25 1542.12 Q1354.83 1542.31 1353.67 1542.31 L1347.49 1542.31 L1342.59 1561.76 Q1342.21 1563.47 1342.21 1564.92 Q1342.21 1566.53 1342.69 1567.24 Q1343.21 1567.95 1344.27 1567.95 Q1346.36 1567.95 1348.62 1566.05 Q1350.9 1564.15 1352.84 1559.51 Q1353.09 1558.9 1353.22 1558.77 Q1353.38 1558.61 1353.8 1558.61 Q1354.61 1558.61 1354.61 1559.25 Q1354.61 1559.48 1354.16 1560.51 Q1353.74 1561.54 1352.8 1563.05 Q1351.9 1564.57 1350.71 1565.98 Q1349.55 1567.4 1347.78 1568.43 Q1346.01 1569.43 1344.11 1569.43 Q1341.43 1569.43 1339.73 1567.72 Q1338.05 1566.02 1338.05 1563.34 Q1338.05 1562.47 1338.73 1559.7 Q1339.41 1556.9 1343.08 1542.31 L1337.25 1542.31 Q1336.44 1542.31 1336.12 1542.28 Q1335.83 1542.25 1335.61 1542.09 Q1335.41 1541.89 1335.41 1541.51 Q1335.41 1540.9 1335.67 1540.64 Q1335.93 1540.35 1336.25 1540.32 Q1336.6 1540.25 1337.41 1540.25 L1343.59 1540.25 L1346.17 1529.78 Q1346.43 1528.75 1347.07 1528.17 Q1347.75 1527.56 1348.13 1527.5 Q1348.52 1527.4 1348.81 1527.4 Q1349.68 1527.4 1350.19 1527.88 Q1350.71 1528.34 1350.71 1529.17 Q1350.71 1529.62 1348 1540.25 L1353.8 1540.25 Q1354.54 1540.25 1354.83 1540.28 Q1355.15 1540.32 1355.41 1540.48 Q1355.67 1540.64 1355.67 1540.99 Z" fill="#000000" fill-rule="nonzero" fill-opacity="1" /><polyline clip-path="url(#clip462)" style="stroke:#000000; stroke-linecap:round; stroke-linejoin:round; stroke-width:2; stroke-opacity:0.1; fill:none" points="288.311,1087.56 2352.76,1087.56 "/>
<polyline clip-path="url(#clip462)" style="stroke:#000000; stroke-linecap:round; stroke-linejoin:round; stroke-width:2; stroke-opacity:0.1; fill:none" points="288.311,524.621 2352.76,524.621 "/>
<polyline clip-path="url(#clip460)" style="stroke:#000000; stroke-linecap:round; stroke-linejoin:round; stroke-width:4; stroke-opacity:1; fill:none" points="288.311,1410.9 288.311,47.2441 "/>
<polyline clip-path="url(#clip460)" style="stroke:#000000; stroke-linecap:round; stroke-linejoin:round; stroke-width:4; stroke-opacity:1; fill:none" points="288.311,1087.56 307.208,1087.56 "/>
<polyline clip-path="url(#clip460)" style="stroke:#000000; stroke-linecap:round; stroke-linejoin:round; stroke-width:4; stroke-opacity:1; fill:none" points="288.311,524.621 307.208,524.621 "/>
<path clip-path="url(#clip460)" d="M114.931 1107.35 L122.57 1107.35 L122.57 1080.99 L114.26 1082.66 L114.26 1078.4 L122.524 1076.73 L127.2 1076.73 L127.2 1107.35 L134.839 1107.35 L134.839 1111.29 L114.931 1111.29 L114.931 1107.35 Z" fill="#000000" fill-rule="nonzero" fill-opacity="1" /><path clip-path="url(#clip460)" d="M154.283 1079.81 Q150.672 1079.81 148.843 1083.37 Q147.038 1086.92 147.038 1094.04 Q147.038 1101.15 148.843 1104.72 Q150.672 1108.26 154.283 1108.26 Q157.917 1108.26 159.723 1104.72 Q161.552 1101.15 161.552 1094.04 Q161.552 1086.92 159.723 1083.37 Q157.917 1079.81 154.283 1079.81 M154.283 1076.11 Q160.093 1076.11 163.149 1080.71 Q166.227 1085.29 166.227 1094.04 Q166.227 1102.77 163.149 1107.38 Q160.093 1111.96 154.283 1111.96 Q148.473 1111.96 145.394 1107.38 Q142.339 1102.77 142.339 1094.04 Q142.339 1085.29 145.394 1080.71 Q148.473 1076.11 154.283 1076.11 Z" fill="#000000" fill-rule="nonzero" fill-opacity="1" /><path clip-path="url(#clip460)" d="M166.227 1070.21 L190.339 1070.21 L190.339 1073.4 L166.227 1073.4 L166.227 1070.21 Z" fill="#000000" fill-rule="nonzero" fill-opacity="1" /><path clip-path="url(#clip460)" d="M206.664 1058.3 Q203.73 1058.3 202.244 1061.2 Q200.777 1064.08 200.777 1069.87 Q200.777 1075.64 202.244 1078.54 Q203.73 1081.42 206.664 1081.42 Q209.617 1081.42 211.084 1078.54 Q212.57 1075.64 212.57 1069.87 Q212.57 1064.08 211.084 1061.2 Q209.617 1058.3 206.664 1058.3 M206.664 1055.29 Q211.385 1055.29 213.868 1059.03 Q216.369 1062.76 216.369 1069.87 Q216.369 1076.96 213.868 1080.7 Q211.385 1084.43 206.664 1084.43 Q201.943 1084.43 199.442 1080.7 Q196.959 1076.96 196.959 1069.87 Q196.959 1062.76 199.442 1059.03 Q201.943 1055.29 206.664 1055.29 Z" fill="#000000" fill-rule="nonzero" fill-opacity="1" /><path clip-path="url(#clip460)" d="M223.046 1079.1 L227.014 1079.1 L227.014 1083.88 L223.046 1083.88 L223.046 1079.1 Z" fill="#000000" fill-rule="nonzero" fill-opacity="1" /><path clip-path="url(#clip460)" d="M235.327 1055.8 L250.242 1055.8 L250.242 1059 L238.807 1059 L238.807 1065.88 Q239.634 1065.6 240.462 1065.47 Q241.289 1065.32 242.117 1065.32 Q246.819 1065.32 249.565 1067.89 Q252.311 1070.47 252.311 1074.87 Q252.311 1079.4 249.489 1081.92 Q246.668 1084.43 241.534 1084.43 Q239.766 1084.43 237.923 1084.12 Q236.098 1083.82 234.142 1083.22 L234.142 1079.4 Q235.835 1080.33 237.641 1080.78 Q239.446 1081.23 241.459 1081.23 Q244.712 1081.23 246.612 1079.52 Q248.511 1077.8 248.511 1074.87 Q248.511 1071.94 246.612 1070.23 Q244.712 1068.51 241.459 1068.51 Q239.935 1068.51 238.412 1068.85 Q236.907 1069.19 235.327 1069.91 L235.327 1055.8 Z" fill="#000000" fill-rule="nonzero" fill-opacity="1" /><path clip-path="url(#clip460)" d="M144.855 544.414 L152.493 544.414 L152.493 518.048 L144.183 519.715 L144.183 515.456 L152.447 513.789 L157.123 513.789 L157.123 544.414 L164.762 544.414 L164.762 548.349 L144.855 548.349 L144.855 544.414 Z" fill="#000000" fill-rule="nonzero" fill-opacity="1" /><path clip-path="url(#clip460)" d="M184.206 516.868 Q180.595 516.868 178.766 520.432 Q176.961 523.974 176.961 531.104 Q176.961 538.21 178.766 541.775 Q180.595 545.317 184.206 545.317 Q187.84 545.317 189.646 541.775 Q191.475 538.21 191.475 531.104 Q191.475 523.974 189.646 520.432 Q187.84 516.868 184.206 516.868 M184.206 513.164 Q190.016 513.164 193.072 517.77 Q196.151 522.354 196.151 531.104 Q196.151 539.83 193.072 544.437 Q190.016 549.02 184.206 549.02 Q178.396 549.02 175.317 544.437 Q172.262 539.83 172.262 531.104 Q172.262 522.354 175.317 517.77 Q178.396 513.164 184.206 513.164 Z" fill="#000000" fill-rule="nonzero" fill-opacity="1" /><path clip-path="url(#clip460)" d="M205.855 495.36 Q202.921 495.36 201.436 498.256 Q199.969 501.134 199.969 506.927 Q199.969 512.701 201.436 515.597 Q202.921 518.475 205.855 518.475 Q208.808 518.475 210.275 515.597 Q211.761 512.701 211.761 506.927 Q211.761 501.134 210.275 498.256 Q208.808 495.36 205.855 495.36 M205.855 492.351 Q210.576 492.351 213.059 496.093 Q215.56 499.817 215.56 506.927 Q215.56 514.017 213.059 517.76 Q210.576 521.484 205.855 521.484 Q201.135 521.484 198.633 517.76 Q196.151 514.017 196.151 506.927 Q196.151 499.817 198.633 496.093 Q201.135 492.351 205.855 492.351 Z" fill="#000000" fill-rule="nonzero" fill-opacity="1" /><path clip-path="url(#clip460)" d="M222.237 516.161 L226.205 516.161 L226.205 520.939 L222.237 520.939 L222.237 516.161 Z" fill="#000000" fill-rule="nonzero" fill-opacity="1" /><path clip-path="url(#clip460)" d="M242.606 495.36 Q239.672 495.36 238.186 498.256 Q236.719 501.134 236.719 506.927 Q236.719 512.701 238.186 515.597 Q239.672 518.475 242.606 518.475 Q245.559 518.475 247.026 515.597 Q248.511 512.701 248.511 506.927 Q248.511 501.134 247.026 498.256 Q245.559 495.36 242.606 495.36 M242.606 492.351 Q247.327 492.351 249.809 496.093 Q252.311 499.817 252.311 506.927 Q252.311 514.017 249.809 517.76 Q247.327 521.484 242.606 521.484 Q237.885 521.484 235.384 517.76 Q232.901 514.017 232.901 506.927 Q232.901 499.817 235.384 496.093 Q237.885 492.351 242.606 492.351 Z" fill="#000000" fill-rule="nonzero" fill-opacity="1" /><path clip-path="url(#clip460)" d="M49.4968 798.693 Q43.281 798.693 38.8688 794.699 Q34.4566 790.706 34.4566 784.973 Q34.4566 779.176 38.2247 776.181 Q41.9928 773.154 47.4034 773.154 Q48.4018 773.154 48.595 773.411 Q48.7882 773.669 48.7882 774.796 L48.7882 793.218 Q55.5192 793.218 58.6754 791.221 Q63.0876 788.451 63.0876 783.782 Q63.0876 783.138 62.9588 782.365 Q62.83 781.592 62.2825 780.014 Q61.7028 778.435 60.1891 777.051 Q58.6754 775.666 56.2922 774.861 Q55.3582 774.667 55.3904 774.023 Q55.3904 773.154 56.1634 773.154 Q56.7431 773.154 58.0635 773.798 Q59.3517 774.41 60.8976 775.601 Q62.4435 776.793 63.6029 779.112 Q64.7623 781.398 64.7623 784.168 Q64.7623 789.965 60.3823 794.345 Q55.9701 798.693 49.4968 798.693 M47.4034 793.154 L47.4034 777.502 Q46.0185 777.502 44.4726 777.759 Q42.9268 777.985 40.8012 778.693 Q38.6434 779.369 37.2907 780.98 Q35.9381 782.59 35.9381 784.973 Q35.9381 786.036 36.389 787.195 Q36.8398 788.323 37.9348 789.708 Q39.0298 791.092 41.5097 792.059 Q43.9895 793.025 47.4034 793.154 Z" fill="#000000" fill-rule="nonzero" fill-opacity="1" /><path clip-path="url(#clip460)" d="M64.0216 771.017 L61.9926 771.017 Q61.9926 767.507 61.5739 766.702 Q61.1231 765.864 58.9975 765.864 L41.3165 765.864 Q38.8688 765.864 38.2569 766.734 Q37.645 767.571 37.645 771.017 L35.5838 771.017 L34.8753 761.839 L42.1216 761.839 Q39.2875 760.905 37.0975 758.94 Q34.8753 756.943 34.8753 753.723 Q34.8753 751.597 36.0669 750.244 Q37.2585 748.86 38.901 748.86 Q40.3503 748.86 41.091 749.761 Q41.7996 750.631 41.7996 751.694 Q41.7996 752.885 41.0588 753.723 Q40.2859 754.528 38.9654 754.528 Q38.1603 754.528 37.5484 754.174 Q36.9043 753.787 36.6788 753.497 Q36.4534 753.207 36.389 753.014 Q36.3246 753.143 36.3246 753.723 Q36.3246 757.362 39.9638 759.455 Q43.5709 761.517 48.7238 761.517 L58.8687 761.517 Q60.7688 761.517 61.3807 760.744 Q61.9926 759.938 61.9926 756.492 L61.9926 755.108 L64.0216 755.108 Q63.8284 757.748 63.8284 763.481 Q63.8284 764.286 63.8606 765.542 Q63.8928 766.798 63.9572 768.441 Q64.0216 770.083 64.0216 771.017 Z" fill="#000000" fill-rule="nonzero" fill-opacity="1" /><path clip-path="url(#clip460)" d="M64.0216 744.136 L61.9926 744.136 Q61.9926 740.626 61.5739 739.821 Q61.1231 738.983 58.9975 738.983 L41.3165 738.983 Q38.8688 738.983 38.2569 739.853 Q37.645 740.69 37.645 744.136 L35.5838 744.136 L34.8753 734.958 L42.1216 734.958 Q39.2875 734.024 37.0975 732.059 Q34.8753 730.062 34.8753 726.842 Q34.8753 724.716 36.0669 723.364 Q37.2585 721.979 38.901 721.979 Q40.3503 721.979 41.091 722.881 Q41.7996 723.75 41.7996 724.813 Q41.7996 726.005 41.0588 726.842 Q40.2859 727.647 38.9654 727.647 Q38.1603 727.647 37.5484 727.293 Q36.9043 726.906 36.6788 726.616 Q36.4534 726.327 36.389 726.133 Q36.3246 726.262 36.3246 726.842 Q36.3246 730.481 39.9638 732.575 Q43.5709 734.636 48.7238 734.636 L58.8687 734.636 Q60.7688 734.636 61.3807 733.863 Q61.9926 733.058 61.9926 729.612 L61.9926 728.227 L64.0216 728.227 Q63.8284 730.868 63.8284 736.6 Q63.8284 737.405 63.8606 738.661 Q63.8928 739.917 63.9572 741.56 Q64.0216 743.202 64.0216 744.136 Z" fill="#000000" fill-rule="nonzero" fill-opacity="1" /><path clip-path="url(#clip460)" d="M60.479 711.963 Q56.1634 716.311 49.9154 716.311 Q43.6353 716.311 39.0621 712.059 Q34.4566 707.776 34.4566 701.657 Q34.4566 695.667 39.0298 691.383 Q43.5709 687.068 49.9154 687.068 Q56.1312 687.068 60.4467 691.416 Q64.7623 695.731 64.7623 701.721 Q64.7623 707.583 60.479 711.963 M49.3679 710.836 Q55.7769 710.836 58.6754 709.161 Q63.0876 706.584 63.0876 701.657 Q63.0876 699.209 61.7672 697.18 Q60.4467 695.119 58.2245 693.992 Q55.326 692.543 49.3679 692.543 Q43.0234 692.543 40.2215 694.282 Q35.9381 696.858 35.9381 701.721 Q35.9381 703.847 37.0653 705.94 Q38.1603 708.002 40.3503 709.258 Q43.2488 710.836 49.3679 710.836 Z" fill="#000000" fill-rule="nonzero" fill-opacity="1" /><path clip-path="url(#clip460)" d="M64.0216 684.967 L61.9926 684.967 Q61.9926 681.456 61.5739 680.651 Q61.1231 679.814 58.9975 679.814 L41.3165 679.814 Q38.8688 679.814 38.2569 680.683 Q37.645 681.521 37.645 684.967 L35.5838 684.967 L34.8753 675.788 L42.1216 675.788 Q39.2875 674.854 37.0975 672.889 Q34.8753 670.893 34.8753 667.672 Q34.8753 665.546 36.0669 664.194 Q37.2585 662.809 38.901 662.809 Q40.3503 662.809 41.091 663.711 Q41.7996 664.58 41.7996 665.643 Q41.7996 666.835 41.0588 667.672 Q40.2859 668.477 38.9654 668.477 Q38.1603 668.477 37.5484 668.123 Q36.9043 667.736 36.6788 667.447 Q36.4534 667.157 36.389 666.963 Q36.3246 667.092 36.3246 667.672 Q36.3246 671.311 39.9638 673.405 Q43.5709 675.466 48.7238 675.466 L58.8687 675.466 Q60.7688 675.466 61.3807 674.693 Q61.9926 673.888 61.9926 670.442 L61.9926 669.057 L64.0216 669.057 Q63.8284 671.698 63.8284 677.43 Q63.8284 678.236 63.8606 679.492 Q63.8928 680.748 63.9572 682.39 Q64.0216 684.033 64.0216 684.967 Z" fill="#000000" fill-rule="nonzero" fill-opacity="1" /><polyline clip-path="url(#clip462)" style="stroke:#009af9; stroke-linecap:round; stroke-linejoin:round; stroke-width:4; stroke-opacity:1; fill:none" points="2294.33,168.048 1645.13,542.787 995.935,917.527 346.738,1292.27 "/>
<polyline clip-path="url(#clip462)" style="stroke:#000000; stroke-linecap:round; stroke-linejoin:round; stroke-width:4; stroke-opacity:1; fill:none" points="2294.33,255.831 2294.33,85.838 "/>
<polyline clip-path="url(#clip462)" style="stroke:#000000; stroke-linecap:round; stroke-linejoin:round; stroke-width:4; stroke-opacity:1; fill:none" points="1645.13,627.778 1645.13,471.82 "/>
<polyline clip-path="url(#clip462)" style="stroke:#000000; stroke-linecap:round; stroke-linejoin:round; stroke-width:4; stroke-opacity:1; fill:none" points="995.935,1016.57 995.935,855.749 "/>
<polyline clip-path="url(#clip462)" style="stroke:#000000; stroke-linecap:round; stroke-linejoin:round; stroke-width:4; stroke-opacity:1; fill:none" points="346.738,1372.3 346.738,1209.16 "/>
<line clip-path="url(#clip462)" x1="2310.33" y1="255.831" x2="2278.33" y2="255.831" style="stroke:#000000; stroke-width:4; stroke-opacity:1"/>
<line clip-path="url(#clip462)" x1="2310.33" y1="85.838" x2="2278.33" y2="85.838" style="stroke:#000000; stroke-width:4; stroke-opacity:1"/>
<line clip-path="url(#clip462)" x1="1661.13" y1="627.778" x2="1629.13" y2="627.778" style="stroke:#000000; stroke-width:4; stroke-opacity:1"/>
<line clip-path="url(#clip462)" x1="1661.13" y1="471.82" x2="1629.13" y2="471.82" style="stroke:#000000; stroke-width:4; stroke-opacity:1"/>
<line clip-path="url(#clip462)" x1="1011.93" y1="1016.57" x2="979.935" y2="1016.57" style="stroke:#000000; stroke-width:4; stroke-opacity:1"/>
<line clip-path="url(#clip462)" x1="1011.93" y1="855.749" x2="979.935" y2="855.749" style="stroke:#000000; stroke-width:4; stroke-opacity:1"/>
<line clip-path="url(#clip462)" x1="362.738" y1="1372.3" x2="330.738" y2="1372.3" style="stroke:#000000; stroke-width:4; stroke-opacity:1"/>
<line clip-path="url(#clip462)" x1="362.738" y1="1209.16" x2="330.738" y2="1209.16" style="stroke:#000000; stroke-width:4; stroke-opacity:1"/>
<circle clip-path="url(#clip462)" cx="2294.33" cy="163.484" r="14.4" fill="#e26f46" fill-rule="evenodd" fill-opacity="1" stroke="#000000" stroke-opacity="1" stroke-width="3.2"/>
<circle clip-path="url(#clip462)" cx="1645.13" cy="543.607" r="14.4" fill="#e26f46" fill-rule="evenodd" fill-opacity="1" stroke="#000000" stroke-opacity="1" stroke-width="3.2"/>
<circle clip-path="url(#clip462)" cx="995.935" cy="929.578" r="14.4" fill="#e26f46" fill-rule="evenodd" fill-opacity="1" stroke="#000000" stroke-opacity="1" stroke-width="3.2"/>
<circle clip-path="url(#clip462)" cx="346.738" cy="1283.96" r="14.4" fill="#e26f46" fill-rule="evenodd" fill-opacity="1" stroke="#000000" stroke-opacity="1" stroke-width="3.2"/>
<path clip-path="url(#clip460)" d="M357.125 248.219 L1570.64 248.219 L1570.64 92.6992 L357.125 92.6992  Z" fill="#ffffff" fill-rule="evenodd" fill-opacity="1"/>
<polyline clip-path="url(#clip460)" style="stroke:#000000; stroke-linecap:round; stroke-linejoin:round; stroke-width:4; stroke-opacity:1; fill:none" points="357.125,248.219 1570.64,248.219 1570.64,92.6992 357.125,92.6992 357.125,248.219 "/>
<polyline clip-path="url(#clip460)" style="stroke:#009af9; stroke-linecap:round; stroke-linejoin:round; stroke-width:4; stroke-opacity:1; fill:none" points="380.064,144.539 517.693,144.539 "/>
<path clip-path="url(#clip460)" d="M574.688 133.915 L571.666 146.142 Q571.456 146.915 571.315 147.008 Q571.198 147.102 570.823 147.102 Q570.097 147.102 570.097 146.61 Q570.097 146.563 570.167 145.954 Q570.238 145.322 570.238 144.174 Q570.238 139.935 568.177 137.428 Q566.139 134.922 562.508 134.922 Q559.37 134.922 556.208 136.515 Q553.069 138.108 550.82 140.708 Q549.134 142.675 547.893 145.158 Q546.675 147.641 546.089 149.913 Q545.527 152.185 545.269 153.894 Q545.012 155.604 545.012 156.846 Q545.012 158.649 545.386 160.172 Q545.785 161.694 546.487 162.772 Q547.19 163.826 548.08 164.645 Q548.994 165.442 550.048 165.91 Q551.125 166.379 552.202 166.613 Q553.28 166.824 554.404 166.824 Q558.925 166.824 563.234 163.31 Q566.654 160.429 568.083 155.721 Q568.2 155.253 568.692 155.253 Q569.277 155.253 569.277 155.721 Q569.277 155.815 569.16 156.283 Q569.043 156.729 568.692 157.642 Q568.34 158.532 567.802 159.539 Q567.263 160.546 566.256 161.811 Q565.249 163.076 564.007 164.177 Q561.899 166.004 559.229 167.152 Q556.559 168.299 553.631 168.299 Q549.977 168.299 547.026 166.683 Q544.075 165.067 542.342 162.045 Q540.632 159.024 540.632 155.159 Q540.632 151.084 542.506 147.078 Q544.379 143.073 547.354 140.099 Q550.329 137.124 554.264 135.274 Q558.199 133.423 562.134 133.423 Q563.633 133.423 564.968 133.821 Q566.303 134.22 567.099 134.711 Q567.919 135.203 568.645 135.929 Q569.371 136.632 569.605 136.96 Q569.863 137.288 570.097 137.686 L573.447 134.009 Q574.032 133.423 574.173 133.423 Q574.454 133.423 574.571 133.587 Q574.688 133.751 574.688 133.915 Z" fill="#000000" fill-rule="nonzero" fill-opacity="1" /><path clip-path="url(#clip460)" d="M578.427 166.777 Q578.427 166.589 579.059 165.371 Q579.692 164.13 581.917 159.703 Q584.142 155.253 586.437 150.592 L594.705 133.962 Q595.291 132.908 596.04 132.908 Q596.72 132.908 597.024 133.329 Q597.329 133.751 598.734 136.585 Q599.46 137.967 599.882 138.857 L613.443 166.004 Q613.678 166.589 613.701 166.777 Q613.701 167.245 612.881 167.245 L579.692 167.245 Q578.427 167.245 578.427 166.777 M581.589 163.591 L607.4 163.591 L594.495 137.686 L581.589 163.591 Z" fill="#000000" fill-rule="nonzero" fill-opacity="1" /><path clip-path="url(#clip460)" d="M632.704 147.102 Q632.704 147.758 632.4 147.922 Q632.095 148.062 631.252 148.062 L626.755 148.062 L623.195 162.209 Q622.914 163.451 622.914 164.505 Q622.914 165.676 623.265 166.191 Q623.64 166.706 624.413 166.706 Q625.935 166.706 627.575 165.325 Q629.238 163.943 630.643 160.57 Q630.83 160.125 630.924 160.031 Q631.041 159.914 631.346 159.914 Q631.931 159.914 631.931 160.382 Q631.931 160.546 631.603 161.296 Q631.299 162.045 630.62 163.146 Q629.964 164.247 629.097 165.278 Q628.254 166.308 626.966 167.058 Q625.677 167.784 624.296 167.784 Q622.351 167.784 621.11 166.543 Q619.892 165.301 619.892 163.357 Q619.892 162.725 620.384 160.71 Q620.876 158.673 623.546 148.062 L619.307 148.062 Q618.721 148.062 618.487 148.039 Q618.276 148.015 618.112 147.898 Q617.971 147.758 617.971 147.477 Q617.971 147.032 618.159 146.844 Q618.346 146.633 618.58 146.61 Q618.838 146.563 619.424 146.563 L623.921 146.563 L625.795 138.951 Q625.982 138.201 626.45 137.78 Q626.942 137.335 627.223 137.288 Q627.504 137.218 627.715 137.218 Q628.348 137.218 628.722 137.569 Q629.097 137.897 629.097 138.506 Q629.097 138.834 627.13 146.563 L631.346 146.563 Q631.884 146.563 632.095 146.587 Q632.329 146.61 632.517 146.727 Q632.704 146.844 632.704 147.102 Z" fill="#000000" fill-rule="nonzero" fill-opacity="1" /><path clip-path="url(#clip460)" d="M655.213 125.999 Q655.213 128.392 654 130.704 Q652.803 133.016 650.917 134.442 Q649.032 135.852 647.114 135.852 Q645.966 135.852 645.195 135.229 Q644.441 134.59 644.031 133.688 Q643.72 134.803 643.047 137.476 Q642.375 140.148 642.375 140.41 Q642.375 140.558 642.408 140.624 Q642.441 140.689 642.588 140.771 Q642.736 140.87 643.097 140.902 Q643.457 140.952 644.064 140.952 Q644.375 140.952 644.49 140.952 Q644.621 140.968 644.736 141.05 Q644.867 141.132 644.867 141.312 Q644.867 141.984 644.261 141.984 Q643.72 141.984 642.605 141.935 Q641.49 141.886 640.932 141.886 Q640.457 141.886 639.506 141.935 Q638.555 141.984 638.112 141.984 Q637.67 141.984 637.67 141.591 Q637.67 141.361 637.735 141.214 Q637.784 141.083 637.916 141.017 Q638.047 140.968 638.161 140.952 Q638.26 140.952 638.457 140.952 Q639.211 140.952 639.539 140.82 Q639.867 140.706 639.981 140.46 Q640.113 140.23 640.26 139.574 L644.031 124.621 Q644.261 123.621 644.261 122.916 Q644.261 122.031 643.982 121.703 Q643.703 121.375 643.211 121.375 Q642.359 121.375 641.801 122.392 Q641.244 123.408 640.768 125.376 Q640.621 125.917 640.522 126.031 Q640.44 126.146 640.195 126.146 Q639.785 126.13 639.785 125.802 Q639.785 125.72 639.916 125.195 Q640.047 124.654 640.293 123.867 Q640.555 123.064 640.834 122.556 Q640.998 122.211 641.145 121.982 Q641.293 121.752 641.588 121.391 Q641.9 121.031 642.342 120.834 Q642.785 120.637 643.326 120.637 Q644.375 120.637 645.244 121.26 Q646.113 121.883 646.343 123.146 Q647.277 122.047 648.425 121.342 Q649.573 120.637 650.737 120.637 Q652.672 120.637 653.934 122.146 Q655.213 123.638 655.213 125.999 M652.786 124.523 Q652.786 123.031 652.213 122.211 Q651.655 121.375 650.639 121.375 Q649.376 121.375 647.917 122.654 Q646.474 123.867 646.179 124.998 L644.523 131.573 L644.425 132.114 Q644.425 132.213 644.474 132.508 Q644.539 132.786 644.72 133.246 Q644.917 133.705 645.179 134.115 Q645.458 134.508 645.949 134.803 Q646.458 135.098 647.081 135.098 Q648.081 135.098 649.163 134.213 Q650.262 133.328 651.081 131.655 Q651.59 130.573 652.18 128.245 Q652.786 125.9 652.786 124.523 Z" fill="#000000" fill-rule="nonzero" fill-opacity="1" /><path clip-path="url(#clip460)" d="M692.82 131.227 L692.82 134.769 L688.746 134.769 Q686.455 134.769 685.552 135.694 Q684.672 136.62 684.672 139.028 L684.672 141.319 L691.686 141.319 L691.686 144.63 L684.672 144.63 L684.672 167.245 L680.39 167.245 L680.39 144.63 L676.316 144.63 L676.316 141.319 L680.39 141.319 L680.39 139.514 Q680.39 135.185 682.404 133.218 Q684.417 131.227 688.792 131.227 L692.82 131.227 Z" fill="#000000" fill-rule="nonzero" fill-opacity="1" /><path clip-path="url(#clip460)" d="M696.385 141.319 L700.644 141.319 L700.644 167.245 L696.385 167.245 L696.385 141.319 M696.385 131.227 L700.644 131.227 L700.644 136.62 L696.385 136.62 L696.385 131.227 Z" fill="#000000" fill-rule="nonzero" fill-opacity="1" /><path clip-path="url(#clip460)" d="M713.769 133.958 L713.769 141.319 L722.542 141.319 L722.542 144.63 L713.769 144.63 L713.769 158.704 Q713.769 161.875 714.626 162.778 Q715.505 163.68 718.167 163.68 L722.542 163.68 L722.542 167.245 L718.167 167.245 Q713.237 167.245 711.362 165.417 Q709.487 163.565 709.487 158.704 L709.487 144.63 L706.362 144.63 L706.362 141.319 L709.487 141.319 L709.487 133.958 L713.769 133.958 Z" fill="#000000" fill-rule="nonzero" fill-opacity="1" /><path clip-path="url(#clip460)" d="M740.737 141.319 L744.996 141.319 L750.32 161.551 L755.621 141.319 L760.644 141.319 L765.968 161.551 L771.269 141.319 L775.528 141.319 L768.746 167.245 L763.723 167.245 L758.144 145.995 L752.542 167.245 L747.519 167.245 L740.737 141.319 Z" fill="#000000" fill-rule="nonzero" fill-opacity="1" /><path clip-path="url(#clip460)" d="M781.986 141.319 L786.246 141.319 L786.246 167.245 L781.986 167.245 L781.986 141.319 M781.986 131.227 L786.246 131.227 L786.246 136.62 L781.986 136.62 L781.986 131.227 Z" fill="#000000" fill-rule="nonzero" fill-opacity="1" /><path clip-path="url(#clip460)" d="M799.371 133.958 L799.371 141.319 L808.144 141.319 L808.144 144.63 L799.371 144.63 L799.371 158.704 Q799.371 161.875 800.227 162.778 Q801.107 163.68 803.769 163.68 L808.144 163.68 L808.144 167.245 L803.769 167.245 Q798.838 167.245 796.963 165.417 Q795.088 163.565 795.088 158.704 L795.088 144.63 L791.963 144.63 L791.963 141.319 L795.088 141.319 L795.088 133.958 L799.371 133.958 Z" fill="#000000" fill-rule="nonzero" fill-opacity="1" /><path clip-path="url(#clip460)" d="M835.296 151.597 L835.296 167.245 L831.037 167.245 L831.037 151.736 Q831.037 148.055 829.602 146.227 Q828.167 144.398 825.296 144.398 Q821.847 144.398 819.857 146.597 Q817.866 148.796 817.866 152.592 L817.866 167.245 L813.583 167.245 L813.583 131.227 L817.866 131.227 L817.866 145.347 Q819.394 143.009 821.454 141.852 Q823.537 140.694 826.245 140.694 Q830.713 140.694 833.005 143.472 Q835.296 146.227 835.296 151.597 Z" fill="#000000" fill-rule="nonzero" fill-opacity="1" /><path clip-path="url(#clip460)" d="M862.981 163.356 L862.981 177.106 L858.699 177.106 L858.699 141.319 L862.981 141.319 L862.981 145.255 Q864.324 142.94 866.361 141.829 Q868.421 140.694 871.268 140.694 Q875.991 140.694 878.93 144.444 Q881.893 148.194 881.893 154.305 Q881.893 160.417 878.93 164.167 Q875.991 167.916 871.268 167.916 Q868.421 167.916 866.361 166.805 Q864.324 165.671 862.981 163.356 M877.472 154.305 Q877.472 149.606 875.528 146.944 Q873.606 144.259 870.227 144.259 Q866.847 144.259 864.903 146.944 Q862.981 149.606 862.981 154.305 Q862.981 159.004 864.903 161.69 Q866.847 164.352 870.227 164.352 Q873.606 164.352 875.528 161.69 Q877.472 159.004 877.472 154.305 Z" fill="#000000" fill-rule="nonzero" fill-opacity="1" /><path clip-path="url(#clip460)" d="M904.578 145.718 L934.254 145.718 L934.254 149.606 L904.578 149.606 L904.578 145.718 M904.578 155.162 L934.254 155.162 L934.254 159.097 L904.578 159.097 L904.578 155.162 Z" fill="#000000" fill-rule="nonzero" fill-opacity="1" /><path clip-path="url(#clip460)" d="M960.226 163.31 L967.865 163.31 L967.865 136.944 L959.555 138.611 L959.555 134.352 L967.819 132.685 L972.495 132.685 L972.495 163.31 L980.133 163.31 L980.133 167.245 L960.226 167.245 L960.226 163.31 Z" fill="#000000" fill-rule="nonzero" fill-opacity="1" /><path clip-path="url(#clip460)" d="M989.578 161.366 L994.462 161.366 L994.462 167.245 L989.578 167.245 L989.578 161.366 Z" fill="#000000" fill-rule="nonzero" fill-opacity="1" /><path clip-path="url(#clip460)" d="M1005.46 163.31 L1013.1 163.31 L1013.1 136.944 L1004.79 138.611 L1004.79 134.352 L1013.05 132.685 L1017.73 132.685 L1017.73 163.31 L1025.36 163.31 L1025.36 167.245 L1005.46 167.245 L1005.46 163.31 Z" fill="#000000" fill-rule="nonzero" fill-opacity="1" /><path clip-path="url(#clip460)" d="M1035.62 163.31 L1043.26 163.31 L1043.26 136.944 L1034.95 138.611 L1034.95 134.352 L1043.21 132.685 L1047.89 132.685 L1047.89 163.31 L1055.53 163.31 L1055.53 167.245 L1035.62 167.245 L1035.62 163.31 Z" fill="#000000" fill-rule="nonzero" fill-opacity="1" /><path clip-path="url(#clip460)" d="M1065.46 142.731 L1070.34 142.731 L1070.34 148.611 L1065.46 148.611 L1065.46 142.731 M1065.46 161.366 L1070.34 161.366 L1070.34 165.347 L1066.55 172.754 L1063.56 172.754 L1065.46 165.347 L1065.46 161.366 Z" fill="#000000" fill-rule="nonzero" fill-opacity="1" /><path clip-path="url(#clip460)" d="M1096.15 166.528 L1096.15 162.268 Q1097.91 163.102 1099.72 163.542 Q1101.52 163.981 1103.26 163.981 Q1107.89 163.981 1110.32 160.879 Q1112.77 157.755 1113.12 151.412 Q1111.78 153.403 1109.72 154.467 Q1107.66 155.532 1105.16 155.532 Q1099.97 155.532 1096.94 152.407 Q1093.93 149.259 1093.93 143.819 Q1093.93 138.495 1097.08 135.278 Q1100.23 132.06 1105.46 132.06 Q1111.45 132.06 1114.6 136.667 Q1117.77 141.25 1117.77 150 Q1117.77 158.171 1113.88 163.055 Q1110.02 167.916 1103.47 167.916 Q1101.71 167.916 1099.9 167.569 Q1098.1 167.222 1096.15 166.528 M1105.46 151.875 Q1108.61 151.875 1110.43 149.722 Q1112.29 147.569 1112.29 143.819 Q1112.29 140.093 1110.43 137.94 Q1108.61 135.764 1105.46 135.764 Q1102.31 135.764 1100.46 137.94 Q1098.63 140.093 1098.63 143.819 Q1098.63 147.569 1100.46 149.722 Q1102.31 151.875 1105.46 151.875 Z" fill="#000000" fill-rule="nonzero" fill-opacity="1" /><path clip-path="url(#clip460)" d="M1126.22 132.685 L1144.58 132.685 L1144.58 136.62 L1130.5 136.62 L1130.5 145.093 Q1131.52 144.745 1132.54 144.583 Q1133.56 144.398 1134.58 144.398 Q1140.36 144.398 1143.74 147.569 Q1147.12 150.741 1147.12 156.157 Q1147.12 161.736 1143.65 164.838 Q1140.18 167.916 1133.86 167.916 Q1131.68 167.916 1129.42 167.546 Q1127.17 167.176 1124.76 166.435 L1124.76 161.736 Q1126.85 162.87 1129.07 163.426 Q1131.29 163.981 1133.77 163.981 Q1137.77 163.981 1140.11 161.875 Q1142.45 159.768 1142.45 156.157 Q1142.45 152.546 1140.11 150.44 Q1137.77 148.333 1133.77 148.333 Q1131.89 148.333 1130.02 148.75 Q1128.17 149.167 1126.22 150.046 L1126.22 132.685 Z" fill="#000000" fill-rule="nonzero" fill-opacity="1" /><path clip-path="url(#clip460)" d="M1185.73 152.037 Q1183.72 152.037 1182.56 153.75 Q1181.43 155.463 1181.43 158.518 Q1181.43 161.528 1182.56 163.264 Q1183.72 164.977 1185.73 164.977 Q1187.7 164.977 1188.84 163.264 Q1189.99 161.528 1189.99 158.518 Q1189.99 155.486 1188.84 153.773 Q1187.7 152.037 1185.73 152.037 M1185.73 149.097 Q1189.39 149.097 1191.54 151.643 Q1193.7 154.19 1193.7 158.518 Q1193.7 162.847 1191.52 165.393 Q1189.37 167.916 1185.73 167.916 Q1182.03 167.916 1179.88 165.393 Q1177.73 162.847 1177.73 158.518 Q1177.73 154.167 1179.88 151.643 Q1182.05 149.097 1185.73 149.097 M1161.85 135 Q1159.85 135 1158.7 136.736 Q1157.56 138.449 1157.56 141.458 Q1157.56 144.514 1158.7 146.227 Q1159.83 147.94 1161.85 147.94 Q1163.86 147.94 1164.99 146.227 Q1166.15 144.514 1166.15 141.458 Q1166.15 138.472 1164.99 136.736 Q1163.84 135 1161.85 135 M1182.75 132.06 L1186.45 132.06 L1164.83 167.916 L1161.13 167.916 L1182.75 132.06 M1161.85 132.06 Q1165.5 132.06 1167.68 134.606 Q1169.85 137.13 1169.85 141.458 Q1169.85 145.833 1167.68 148.356 Q1165.53 150.88 1161.85 150.88 Q1158.16 150.88 1156.01 148.356 Q1153.88 145.81 1153.88 141.458 Q1153.88 137.153 1156.04 134.606 Q1158.19 132.06 1161.85 132.06 Z" fill="#000000" fill-rule="nonzero" fill-opacity="1" /><path clip-path="url(#clip460)" d="M1241.91 135.347 L1241.91 140.278 Q1239.55 138.079 1236.87 136.991 Q1234.21 135.903 1231.2 135.903 Q1225.27 135.903 1222.12 139.537 Q1218.97 143.148 1218.97 150 Q1218.97 156.829 1222.12 160.463 Q1225.27 164.074 1231.2 164.074 Q1234.21 164.074 1236.87 162.986 Q1239.55 161.898 1241.91 159.699 L1241.91 164.583 Q1239.46 166.25 1236.71 167.083 Q1233.97 167.916 1230.92 167.916 Q1223.07 167.916 1218.56 163.125 Q1214.04 158.31 1214.04 150 Q1214.04 141.667 1218.56 136.875 Q1223.07 132.06 1230.92 132.06 Q1234.02 132.06 1236.75 132.894 Q1239.51 133.704 1241.91 135.347 Z" fill="#000000" fill-rule="nonzero" fill-opacity="1" /><path clip-path="url(#clip460)" d="M1249.14 132.685 L1253.81 132.685 L1253.81 167.245 L1249.14 167.245 L1249.14 132.685 Z" fill="#000000" fill-rule="nonzero" fill-opacity="1" /><path clip-path="url(#clip460)" d="M1277.61 131.227 L1287.42 131.227 L1287.42 134.537 L1281.87 134.537 L1281.87 170.185 L1287.42 170.185 L1287.42 173.495 L1277.61 173.495 L1277.61 131.227 Z" fill="#000000" fill-rule="nonzero" fill-opacity="1" /><path clip-path="url(#clip460)" d="M1297.91 163.31 L1305.55 163.31 L1305.55 136.944 L1297.24 138.611 L1297.24 134.352 L1305.5 132.685 L1310.18 132.685 L1310.18 163.31 L1317.82 163.31 L1317.82 167.245 L1297.91 167.245 L1297.91 163.31 Z" fill="#000000" fill-rule="nonzero" fill-opacity="1" /><path clip-path="url(#clip460)" d="M1327.26 161.366 L1332.15 161.366 L1332.15 167.245 L1327.26 167.245 L1327.26 161.366 Z" fill="#000000" fill-rule="nonzero" fill-opacity="1" /><path clip-path="url(#clip460)" d="M1352.33 135.764 Q1348.72 135.764 1346.89 139.329 Q1345.09 142.87 1345.09 150 Q1345.09 157.106 1346.89 160.671 Q1348.72 164.213 1352.33 164.213 Q1355.96 164.213 1357.77 160.671 Q1359.6 157.106 1359.6 150 Q1359.6 142.87 1357.77 139.329 Q1355.96 135.764 1352.33 135.764 M1352.33 132.06 Q1358.14 132.06 1361.2 136.667 Q1364.27 141.25 1364.27 150 Q1364.27 158.727 1361.2 163.333 Q1358.14 167.916 1352.33 167.916 Q1346.52 167.916 1343.44 163.333 Q1340.39 158.727 1340.39 150 Q1340.39 141.25 1343.44 136.667 Q1346.52 132.06 1352.33 132.06 Z" fill="#000000" fill-rule="nonzero" fill-opacity="1" /><path clip-path="url(#clip460)" d="M1376.52 163.31 L1392.84 163.31 L1392.84 167.245 L1370.9 167.245 L1370.9 163.31 Q1373.56 160.555 1378.14 155.926 Q1382.75 151.273 1383.93 149.93 Q1386.17 147.407 1387.05 145.671 Q1387.96 143.912 1387.96 142.222 Q1387.96 139.468 1386.01 137.731 Q1384.09 135.995 1380.99 135.995 Q1378.79 135.995 1376.34 136.759 Q1373.9 137.523 1371.13 139.074 L1371.13 134.352 Q1373.95 133.218 1376.4 132.639 Q1378.86 132.06 1380.9 132.06 Q1386.27 132.06 1389.46 134.745 Q1392.65 137.431 1392.65 141.921 Q1392.65 144.051 1391.84 145.972 Q1391.06 147.87 1388.95 150.463 Q1388.37 151.134 1385.27 154.352 Q1382.17 157.546 1376.52 163.31 Z" fill="#000000" fill-rule="nonzero" fill-opacity="1" /><path clip-path="url(#clip460)" d="M1403.14 161.366 L1408.02 161.366 L1408.02 165.347 L1404.23 172.754 L1401.24 172.754 L1403.14 165.347 L1403.14 161.366 Z" fill="#000000" fill-rule="nonzero" fill-opacity="1" /><path clip-path="url(#clip460)" d="M1433.6 163.31 L1441.24 163.31 L1441.24 136.944 L1432.93 138.611 L1432.93 134.352 L1441.2 132.685 L1445.87 132.685 L1445.87 163.31 L1453.51 163.31 L1453.51 167.245 L1433.6 167.245 L1433.6 163.31 Z" fill="#000000" fill-rule="nonzero" fill-opacity="1" /><path clip-path="url(#clip460)" d="M1462.95 161.366 L1467.84 161.366 L1467.84 167.245 L1462.95 167.245 L1462.95 161.366 Z" fill="#000000" fill-rule="nonzero" fill-opacity="1" /><path clip-path="url(#clip460)" d="M1478.83 163.31 L1486.47 163.31 L1486.47 136.944 L1478.16 138.611 L1478.16 134.352 L1486.43 132.685 L1491.1 132.685 L1491.1 163.31 L1498.74 163.31 L1498.74 167.245 L1478.83 167.245 L1478.83 163.31 Z" fill="#000000" fill-rule="nonzero" fill-opacity="1" /><path clip-path="url(#clip460)" d="M1508.33 166.528 L1508.33 162.268 Q1510.08 163.102 1511.89 163.542 Q1513.7 163.981 1515.43 163.981 Q1520.06 163.981 1522.49 160.879 Q1524.95 157.755 1525.29 151.412 Q1523.95 153.403 1521.89 154.467 Q1519.83 155.532 1517.33 155.532 Q1512.14 155.532 1509.11 152.407 Q1506.1 149.259 1506.1 143.819 Q1506.1 138.495 1509.25 135.278 Q1512.4 132.06 1517.63 132.06 Q1523.63 132.06 1526.77 136.667 Q1529.95 141.25 1529.95 150 Q1529.95 158.171 1526.06 163.055 Q1522.19 167.916 1515.64 167.916 Q1513.88 167.916 1512.08 167.569 Q1510.27 167.222 1508.33 166.528 M1517.63 151.875 Q1520.78 151.875 1522.61 149.722 Q1524.46 147.569 1524.46 143.819 Q1524.46 140.093 1522.61 137.94 Q1520.78 135.764 1517.63 135.764 Q1514.48 135.764 1512.63 137.94 Q1510.8 140.093 1510.8 143.819 Q1510.8 147.569 1512.63 149.722 Q1514.48 151.875 1517.63 151.875 Z" fill="#000000" fill-rule="nonzero" fill-opacity="1" /><path clip-path="url(#clip460)" d="M1547.7 131.227 L1547.7 173.495 L1537.89 173.495 L1537.89 170.185 L1543.42 170.185 L1543.42 134.537 L1537.89 134.537 L1537.89 131.227 L1547.7 131.227 Z" fill="#000000" fill-rule="nonzero" fill-opacity="1" /><circle clip-path="url(#clip460)" cx="448.879" cy="196.379" r="20.48" fill="#e26f46" fill-rule="evenodd" fill-opacity="1" stroke="#000000" stroke-opacity="1" stroke-width="4.55111"/>
<path clip-path="url(#clip460)" d="M559.058 188.497 L559.058 192.525 Q557.252 191.599 555.308 191.136 Q553.363 190.673 551.28 190.673 Q548.109 190.673 546.511 191.645 Q544.937 192.618 544.937 194.562 Q544.937 196.044 546.072 196.9 Q547.206 197.733 550.632 198.497 L552.09 198.821 Q556.627 199.794 558.525 201.576 Q560.446 203.335 560.446 206.506 Q560.446 210.118 557.576 212.224 Q554.729 214.33 549.729 214.33 Q547.646 214.33 545.377 213.914 Q543.132 213.52 540.632 212.71 L540.632 208.312 Q542.993 209.539 545.284 210.164 Q547.576 210.766 549.821 210.766 Q552.831 210.766 554.451 209.747 Q556.071 208.706 556.071 206.831 Q556.071 205.094 554.891 204.168 Q553.734 203.243 549.775 202.386 L548.294 202.039 Q544.335 201.206 542.576 199.493 Q540.817 197.756 540.817 194.747 Q540.817 191.09 543.409 189.099 Q546.002 187.108 550.771 187.108 Q553.132 187.108 555.215 187.456 Q557.298 187.803 559.058 188.497 Z" fill="#000000" fill-rule="nonzero" fill-opacity="1" /><path clip-path="url(#clip460)" d="M571.442 180.372 L571.442 187.733 L580.215 187.733 L580.215 191.044 L571.442 191.044 L571.442 205.118 Q571.442 208.289 572.298 209.192 Q573.178 210.094 575.84 210.094 L580.215 210.094 L580.215 213.659 L575.84 213.659 Q570.909 213.659 569.034 211.83 Q567.159 209.979 567.159 205.118 L567.159 191.044 L564.034 191.044 L564.034 187.733 L567.159 187.733 L567.159 180.372 L571.442 180.372 Z" fill="#000000" fill-rule="nonzero" fill-opacity="1" /><path clip-path="url(#clip460)" d="M600.84 191.715 Q600.122 191.298 599.266 191.113 Q598.432 190.905 597.414 190.905 Q593.803 190.905 591.858 193.266 Q589.937 195.604 589.937 200.002 L589.937 213.659 L585.655 213.659 L585.655 187.733 L589.937 187.733 L589.937 191.761 Q591.28 189.4 593.432 188.266 Q595.585 187.108 598.664 187.108 Q599.104 187.108 599.636 187.178 Q600.168 187.224 600.817 187.34 L600.84 191.715 Z" fill="#000000" fill-rule="nonzero" fill-opacity="1" /><path clip-path="url(#clip460)" d="M614.312 190.719 Q610.886 190.719 608.895 193.405 Q606.905 196.067 606.905 200.719 Q606.905 205.372 608.872 208.057 Q610.863 210.719 614.312 210.719 Q617.715 210.719 619.705 208.034 Q621.696 205.349 621.696 200.719 Q621.696 196.113 619.705 193.428 Q617.715 190.719 614.312 190.719 M614.312 187.108 Q619.867 187.108 623.039 190.719 Q626.21 194.331 626.21 200.719 Q626.21 207.085 623.039 210.719 Q619.867 214.33 614.312 214.33 Q608.733 214.33 605.562 210.719 Q602.414 207.085 602.414 200.719 Q602.414 194.331 605.562 190.719 Q608.733 187.108 614.312 187.108 Z" fill="#000000" fill-rule="nonzero" fill-opacity="1" /><path clip-path="url(#clip460)" d="M654.821 198.011 L654.821 213.659 L650.562 213.659 L650.562 198.15 Q650.562 194.469 649.127 192.641 Q647.691 190.812 644.821 190.812 Q641.372 190.812 639.381 193.011 Q637.39 195.21 637.39 199.006 L637.39 213.659 L633.108 213.659 L633.108 187.733 L637.39 187.733 L637.39 191.761 Q638.918 189.423 640.978 188.266 Q643.062 187.108 645.77 187.108 Q650.238 187.108 652.529 189.886 Q654.821 192.641 654.821 198.011 Z" fill="#000000" fill-rule="nonzero" fill-opacity="1" /><path clip-path="url(#clip460)" d="M680.376 200.395 Q680.376 195.766 678.455 193.219 Q676.557 190.673 673.108 190.673 Q669.682 190.673 667.761 193.219 Q665.863 195.766 665.863 200.395 Q665.863 205.002 667.761 207.548 Q669.682 210.094 673.108 210.094 Q676.557 210.094 678.455 207.548 Q680.376 205.002 680.376 200.395 M684.636 210.442 Q684.636 217.062 681.696 220.28 Q678.756 223.52 672.691 223.52 Q670.446 223.52 668.455 223.173 Q666.464 222.849 664.589 222.155 L664.589 218.011 Q666.464 219.03 668.293 219.516 Q670.122 220.002 672.02 220.002 Q676.21 220.002 678.293 217.803 Q680.376 215.627 680.376 211.205 L680.376 209.099 Q679.057 211.391 676.997 212.525 Q674.937 213.659 672.066 213.659 Q667.298 213.659 664.381 210.025 Q661.464 206.391 661.464 200.395 Q661.464 194.377 664.381 190.743 Q667.298 187.108 672.066 187.108 Q674.937 187.108 676.997 188.243 Q679.057 189.377 680.376 191.669 L680.376 187.733 L684.636 187.733 L684.636 210.442 Z" fill="#000000" fill-rule="nonzero" fill-opacity="1" /><path clip-path="url(#clip460)" d="M730.654 199.631 L730.654 201.715 L711.071 201.715 Q711.348 206.113 713.709 208.428 Q716.094 210.719 720.33 210.719 Q722.784 210.719 725.075 210.118 Q727.39 209.516 729.658 208.312 L729.658 212.34 Q727.367 213.312 724.959 213.821 Q722.552 214.33 720.075 214.33 Q713.872 214.33 710.237 210.719 Q706.626 207.108 706.626 200.951 Q706.626 194.585 710.052 190.858 Q713.501 187.108 719.334 187.108 Q724.566 187.108 727.598 190.488 Q730.654 193.844 730.654 199.631 M726.395 198.381 Q726.348 194.886 724.427 192.803 Q722.529 190.719 719.381 190.719 Q715.816 190.719 713.663 192.733 Q711.534 194.747 711.21 198.405 L726.395 198.381 Z" fill="#000000" fill-rule="nonzero" fill-opacity="1" /><path clip-path="url(#clip460)" d="M752.668 191.715 Q751.95 191.298 751.094 191.113 Q750.26 190.905 749.242 190.905 Q745.631 190.905 743.686 193.266 Q741.765 195.604 741.765 200.002 L741.765 213.659 L737.483 213.659 L737.483 187.733 L741.765 187.733 L741.765 191.761 Q743.107 189.4 745.26 188.266 Q747.413 187.108 750.492 187.108 Q750.932 187.108 751.464 187.178 Q751.996 187.224 752.644 187.34 L752.668 191.715 Z" fill="#000000" fill-rule="nonzero" fill-opacity="1" /><path clip-path="url(#clip460)" d="M771.325 191.715 Q770.607 191.298 769.751 191.113 Q768.918 190.905 767.899 190.905 Q764.288 190.905 762.343 193.266 Q760.422 195.604 760.422 200.002 L760.422 213.659 L756.14 213.659 L756.14 187.733 L760.422 187.733 L760.422 191.761 Q761.765 189.4 763.918 188.266 Q766.07 187.108 769.149 187.108 Q769.589 187.108 770.121 187.178 Q770.654 187.224 771.302 187.34 L771.325 191.715 Z" fill="#000000" fill-rule="nonzero" fill-opacity="1" /><path clip-path="url(#clip460)" d="M784.797 190.719 Q781.371 190.719 779.38 193.405 Q777.39 196.067 777.39 200.719 Q777.39 205.372 779.357 208.057 Q781.348 210.719 784.797 210.719 Q788.2 210.719 790.191 208.034 Q792.181 205.349 792.181 200.719 Q792.181 196.113 790.191 193.428 Q788.2 190.719 784.797 190.719 M784.797 187.108 Q790.353 187.108 793.524 190.719 Q796.695 194.331 796.695 200.719 Q796.695 207.085 793.524 210.719 Q790.353 214.33 784.797 214.33 Q779.218 214.33 776.047 210.719 Q772.899 207.085 772.899 200.719 Q772.899 194.331 776.047 190.719 Q779.218 187.108 784.797 187.108 Z" fill="#000000" fill-rule="nonzero" fill-opacity="1" /><path clip-path="url(#clip460)" d="M818.778 191.715 Q818.061 191.298 817.204 191.113 Q816.371 190.905 815.352 190.905 Q811.741 190.905 809.797 193.266 Q807.876 195.604 807.876 200.002 L807.876 213.659 L803.593 213.659 L803.593 187.733 L807.876 187.733 L807.876 191.761 Q809.218 189.4 811.371 188.266 Q813.524 187.108 816.602 187.108 Q817.042 187.108 817.575 187.178 Q818.107 187.224 818.755 187.34 L818.778 191.715 Z" fill="#000000" fill-rule="nonzero" fill-opacity="1" /><path clip-path="url(#clip460)" d="M839.774 188.497 L839.774 192.525 Q837.968 191.599 836.024 191.136 Q834.079 190.673 831.996 190.673 Q828.825 190.673 827.227 191.645 Q825.653 192.618 825.653 194.562 Q825.653 196.044 826.788 196.9 Q827.922 197.733 831.348 198.497 L832.806 198.821 Q837.343 199.794 839.241 201.576 Q841.163 203.335 841.163 206.506 Q841.163 210.118 838.292 212.224 Q835.445 214.33 830.445 214.33 Q828.362 214.33 826.093 213.914 Q823.848 213.52 821.348 212.71 L821.348 208.312 Q823.709 209.539 826.001 210.164 Q828.292 210.766 830.538 210.766 Q833.547 210.766 835.167 209.747 Q836.788 208.706 836.788 206.831 Q836.788 205.094 835.607 204.168 Q834.45 203.243 830.491 202.386 L829.01 202.039 Q825.051 201.206 823.292 199.493 Q821.533 197.756 821.533 194.747 Q821.533 191.09 824.126 189.099 Q826.718 187.108 831.487 187.108 Q833.848 187.108 835.931 187.456 Q838.014 187.803 839.774 188.497 Z" fill="#000000" fill-rule="nonzero" fill-opacity="1" /></svg>
