<?xml version="1.0" encoding="utf-8"?>
<svg xmlns="http://www.w3.org/2000/svg" xmlns:xlink="http://www.w3.org/1999/xlink" width="600" height="400" viewBox="0 0 2400 1600">
<defs>
  <clipPath id="clip020">
    <rect x="0" y="0" width="2400" height="1600"/>
  </clipPath>
</defs>
<path clip-path="url(#clip020)" d="M0 1600 L2400 1600 L2400 0 L0 0  Z" fill="#ffffff" fill-rule="evenodd" fill-opacity="1"/>
<defs>
  <clipPath id="clip021">
    <rect x="480" y="0" width="1681" height="1600"/>
  </clipPath>
</defs>
<path clip-path="url(#clip020)" d="M249.542 1423.18 L2352.76 1423.18 L2352.76 47.2441 L249.542 47.2441  Z" fill="#ffffff" fill-rule="evenodd" fill-opacity="1"/>
<defs>
  <clipPath id="clip022">
    <rect x="249" y="47" width="2104" height="1377"/>
  </clipPath>
</defs>
<polyline clip-path="url(#clip022)" style="stroke:#000000; stroke-linecap:round; stroke-linejoin:round; stroke-width:2; stroke-opacity:0.1; fill:none" points="309.067,1423.18 309.067,47.2441 "/>
<polyline clip-path="url(#clip022)" style="stroke:#000000; stroke-linecap:round; stroke-linejoin:round; stroke-width:2; stroke-opacity:0.1; fill:none" points="805.108,1423.18 805.108,47.2441 "/>
<polyline clip-path="url(#clip022)" style="stroke:#000000; stroke-linecap:round; stroke-linejoin:round; stroke-width:2; stroke-opacity:0.1; fill:none" points="1301.15,1423.18 1301.15,47.2441 "/>
<polyline clip-path="url(#clip022)" style="stroke:#000000; stroke-linecap:round; stroke-linejoin:round; stroke-width:2; stroke-opacity:0.1; fill:none" points="1797.19,1423.18 1797.19,47.2441 "/>
<polyline clip-path="url(#clip022)" style="stroke:#000000; stroke-linecap:round; stroke-linejoin:round; stroke-width:2; stroke-opacity:0.1; fill:none" points="2293.23,1423.18 2293.23,47.2441 "/>
<polyline clip-path="url(#clip020)" style="stroke:#000000; stroke-linecap:round; stroke-linejoin:round; stroke-width:4; stroke-opacity:1; fill:none" points="249.542,1423.18 2352.76,1423.18 "/>
<polyline clip-path="url(#clip020)" style="stroke:#000000; stroke-linecap:round; stroke-linejoin:round; stroke-width:4; stroke-opacity:1; fill:none" points="309.067,1423.18 309.067,1404.28 "/>
<polyline clip-path="url(#clip020)" style="stroke:#000000; stroke-linecap:round; stroke-linejoin:round; stroke-width:4; stroke-opacity:1; fill:none" points="805.108,1423.18 805.108,1404.28 "/>
<polyline clip-path="url(#clip020)" style="stroke:#000000; stroke-linecap:round; stroke-linejoin:round; stroke-width:4; stroke-opacity:1; fill:none" points="1301.15,1423.18 1301.15,1404.28 "/>
<polyline clip-path="url(#clip020)" style="stroke:#000000; stroke-linecap:round; stroke-linejoin:round; stroke-width:4; stroke-opacity:1; fill:none" points="1797.19,1423.18 1797.19,1404.28 "/>
<polyline clip-path="url(#clip020)" style="stroke:#000000; stroke-linecap:round; stroke-linejoin:round; stroke-width:4; stroke-opacity:1; fill:none" points="2293.23,1423.18 2293.23,1404.28 "/>
<path clip-path="url(#clip020)" d="M271.37 1454.1 Q267.759 1454.1 265.931 1457.66 Q264.125 1461.2 264.125 1468.33 Q264.125 1475.44 265.931 1479.01 Q267.759 1482.55 271.37 1482.55 Q275.005 1482.55 276.81 1479.01 Q278.639 1475.44 278.639 1468.33 Q278.639 1461.2 276.81 1457.66 Q275.005 1454.1 271.37 1454.1 M271.37 1450.39 Q277.181 1450.39 280.236 1455 Q283.315 1459.58 283.315 1468.33 Q283.315 1477.06 280.236 1481.67 Q277.181 1486.25 271.37 1486.25 Q265.56 1486.25 262.482 1481.67 Q259.426 1477.06 259.426 1468.33 Q259.426 1459.58 262.482 1455 Q265.56 1450.39 271.37 1450.39 Z" fill="#000000" fill-rule="nonzero" fill-opacity="1" /><path clip-path="url(#clip020)" d="M291.532 1479.7 L296.417 1479.7 L296.417 1485.58 L291.532 1485.58 L291.532 1479.7 Z" fill="#000000" fill-rule="nonzero" fill-opacity="1" /><path clip-path="url(#clip020)" d="M316.602 1454.1 Q312.991 1454.1 311.162 1457.66 Q309.356 1461.2 309.356 1468.33 Q309.356 1475.44 311.162 1479.01 Q312.991 1482.55 316.602 1482.55 Q320.236 1482.55 322.041 1479.01 Q323.87 1475.44 323.87 1468.33 Q323.87 1461.2 322.041 1457.66 Q320.236 1454.1 316.602 1454.1 M316.602 1450.39 Q322.412 1450.39 325.467 1455 Q328.546 1459.58 328.546 1468.33 Q328.546 1477.06 325.467 1481.67 Q322.412 1486.25 316.602 1486.25 Q310.791 1486.25 307.713 1481.67 Q304.657 1477.06 304.657 1468.33 Q304.657 1459.58 307.713 1455 Q310.791 1450.39 316.602 1450.39 Z" fill="#000000" fill-rule="nonzero" fill-opacity="1" /><path clip-path="url(#clip020)" d="M346.764 1454.1 Q343.152 1454.1 341.324 1457.66 Q339.518 1461.2 339.518 1468.33 Q339.518 1475.44 341.324 1479.01 Q343.152 1482.55 346.764 1482.55 Q350.398 1482.55 352.203 1479.01 Q354.032 1475.44 354.032 1468.33 Q354.032 1461.2 352.203 1457.66 Q350.398 1454.1 346.764 1454.1 M346.764 1450.39 Q352.574 1450.39 355.629 1455 Q358.708 1459.58 358.708 1468.33 Q358.708 1477.06 355.629 1481.67 Q352.574 1486.25 346.764 1486.25 Q340.953 1486.25 337.875 1481.67 Q334.819 1477.06 334.819 1468.33 Q334.819 1459.58 337.875 1455 Q340.953 1450.39 346.764 1450.39 Z" fill="#000000" fill-rule="nonzero" fill-opacity="1" /><path clip-path="url(#clip020)" d="M767.909 1454.1 Q764.298 1454.1 762.469 1457.66 Q760.664 1461.2 760.664 1468.33 Q760.664 1475.44 762.469 1479.01 Q764.298 1482.55 767.909 1482.55 Q771.543 1482.55 773.349 1479.01 Q775.178 1475.44 775.178 1468.33 Q775.178 1461.2 773.349 1457.66 Q771.543 1454.1 767.909 1454.1 M767.909 1450.39 Q773.719 1450.39 776.775 1455 Q779.853 1459.58 779.853 1468.33 Q779.853 1477.06 776.775 1481.67 Q773.719 1486.25 767.909 1486.25 Q762.099 1486.25 759.02 1481.67 Q755.965 1477.06 755.965 1468.33 Q755.965 1459.58 759.02 1455 Q762.099 1450.39 767.909 1450.39 Z" fill="#000000" fill-rule="nonzero" fill-opacity="1" /><path clip-path="url(#clip020)" d="M788.071 1479.7 L792.955 1479.7 L792.955 1485.58 L788.071 1485.58 L788.071 1479.7 Z" fill="#000000" fill-rule="nonzero" fill-opacity="1" /><path clip-path="url(#clip020)" d="M807.168 1481.64 L823.487 1481.64 L823.487 1485.58 L801.543 1485.58 L801.543 1481.64 Q804.205 1478.89 808.788 1474.26 Q813.395 1469.61 814.576 1468.27 Q816.821 1465.74 817.7 1464.01 Q818.603 1462.25 818.603 1460.56 Q818.603 1457.8 816.659 1456.07 Q814.738 1454.33 811.636 1454.33 Q809.437 1454.33 806.983 1455.09 Q804.552 1455.86 801.775 1457.41 L801.775 1452.69 Q804.599 1451.55 807.052 1450.97 Q809.506 1450.39 811.543 1450.39 Q816.913 1450.39 820.108 1453.08 Q823.302 1455.77 823.302 1460.26 Q823.302 1462.39 822.492 1464.31 Q821.705 1466.2 819.599 1468.8 Q819.02 1469.47 815.918 1472.69 Q812.816 1475.88 807.168 1481.64 Z" fill="#000000" fill-rule="nonzero" fill-opacity="1" /><path clip-path="url(#clip020)" d="M833.349 1451.02 L851.705 1451.02 L851.705 1454.96 L837.631 1454.96 L837.631 1463.43 Q838.649 1463.08 839.668 1462.92 Q840.686 1462.73 841.705 1462.73 Q847.492 1462.73 850.872 1465.9 Q854.251 1469.08 854.251 1474.49 Q854.251 1480.07 850.779 1483.17 Q847.307 1486.25 840.987 1486.25 Q838.811 1486.25 836.543 1485.88 Q834.298 1485.51 831.89 1484.77 L831.89 1480.07 Q833.974 1481.2 836.196 1481.76 Q838.418 1482.32 840.895 1482.32 Q844.899 1482.32 847.237 1480.21 Q849.575 1478.1 849.575 1474.49 Q849.575 1470.88 847.237 1468.77 Q844.899 1466.67 840.895 1466.67 Q839.02 1466.67 837.145 1467.08 Q835.293 1467.5 833.349 1468.38 L833.349 1451.02 Z" fill="#000000" fill-rule="nonzero" fill-opacity="1" /><path clip-path="url(#clip020)" d="M1263.45 1454.1 Q1259.84 1454.1 1258.01 1457.66 Q1256.21 1461.2 1256.21 1468.33 Q1256.21 1475.44 1258.01 1479.01 Q1259.84 1482.55 1263.45 1482.55 Q1267.09 1482.55 1268.89 1479.01 Q1270.72 1475.44 1270.72 1468.33 Q1270.72 1461.2 1268.89 1457.66 Q1267.09 1454.1 1263.45 1454.1 M1263.45 1450.39 Q1269.26 1450.39 1272.32 1455 Q1275.4 1459.58 1275.4 1468.33 Q1275.4 1477.06 1272.32 1481.67 Q1269.26 1486.25 1263.45 1486.25 Q1257.64 1486.25 1254.56 1481.67 Q1251.51 1477.06 1251.51 1468.33 Q1251.51 1459.58 1254.56 1455 Q1257.64 1450.39 1263.45 1450.39 Z" fill="#000000" fill-rule="nonzero" fill-opacity="1" /><path clip-path="url(#clip020)" d="M1283.61 1479.7 L1288.5 1479.7 L1288.5 1485.58 L1283.61 1485.58 L1283.61 1479.7 Z" fill="#000000" fill-rule="nonzero" fill-opacity="1" /><path clip-path="url(#clip020)" d="M1298.73 1451.02 L1317.09 1451.02 L1317.09 1454.96 L1303.01 1454.96 L1303.01 1463.43 Q1304.03 1463.08 1305.05 1462.92 Q1306.07 1462.73 1307.09 1462.73 Q1312.87 1462.73 1316.25 1465.9 Q1319.63 1469.08 1319.63 1474.49 Q1319.63 1480.07 1316.16 1483.17 Q1312.69 1486.25 1306.37 1486.25 Q1304.19 1486.25 1301.92 1485.88 Q1299.68 1485.51 1297.27 1484.77 L1297.27 1480.07 Q1299.35 1481.2 1301.58 1481.76 Q1303.8 1482.32 1306.28 1482.32 Q1310.28 1482.32 1312.62 1480.21 Q1314.96 1478.1 1314.96 1474.49 Q1314.96 1470.88 1312.62 1468.77 Q1310.28 1466.67 1306.28 1466.67 Q1304.4 1466.67 1302.53 1467.08 Q1300.67 1467.5 1298.73 1468.38 L1298.73 1451.02 Z" fill="#000000" fill-rule="nonzero" fill-opacity="1" /><path clip-path="url(#clip020)" d="M1338.85 1454.1 Q1335.23 1454.1 1333.41 1457.66 Q1331.6 1461.2 1331.6 1468.33 Q1331.6 1475.44 1333.41 1479.01 Q1335.23 1482.55 1338.85 1482.55 Q1342.48 1482.55 1344.29 1479.01 Q1346.11 1475.44 1346.11 1468.33 Q1346.11 1461.2 1344.29 1457.66 Q1342.48 1454.1 1338.85 1454.1 M1338.85 1450.39 Q1344.66 1450.39 1347.71 1455 Q1350.79 1459.58 1350.79 1468.33 Q1350.79 1477.06 1347.71 1481.67 Q1344.66 1486.25 1338.85 1486.25 Q1333.04 1486.25 1329.96 1481.67 Q1326.9 1477.06 1326.9 1468.33 Q1326.9 1459.58 1329.96 1455 Q1333.04 1450.39 1338.85 1450.39 Z" fill="#000000" fill-rule="nonzero" fill-opacity="1" /><path clip-path="url(#clip020)" d="M1759.99 1454.1 Q1756.38 1454.1 1754.55 1457.66 Q1752.75 1461.2 1752.75 1468.33 Q1752.75 1475.44 1754.55 1479.01 Q1756.38 1482.55 1759.99 1482.55 Q1763.63 1482.55 1765.43 1479.01 Q1767.26 1475.44 1767.26 1468.33 Q1767.26 1461.2 1765.43 1457.66 Q1763.63 1454.1 1759.99 1454.1 M1759.99 1450.39 Q1765.8 1450.39 1768.86 1455 Q1771.94 1459.58 1771.94 1468.33 Q1771.94 1477.06 1768.86 1481.67 Q1765.8 1486.25 1759.99 1486.25 Q1754.18 1486.25 1751.1 1481.67 Q1748.05 1477.06 1748.05 1468.33 Q1748.05 1459.58 1751.1 1455 Q1754.18 1450.39 1759.99 1450.39 Z" fill="#000000" fill-rule="nonzero" fill-opacity="1" /><path clip-path="url(#clip020)" d="M1780.15 1479.7 L1785.04 1479.7 L1785.04 1485.58 L1780.15 1485.58 L1780.15 1479.7 Z" fill="#000000" fill-rule="nonzero" fill-opacity="1" /><path clip-path="url(#clip020)" d="M1794.04 1451.02 L1816.26 1451.02 L1816.26 1453.01 L1803.72 1485.58 L1798.83 1485.58 L1810.64 1454.96 L1794.04 1454.96 L1794.04 1451.02 Z" fill="#000000" fill-rule="nonzero" fill-opacity="1" /><path clip-path="url(#clip020)" d="M1825.43 1451.02 L1843.79 1451.02 L1843.79 1454.96 L1829.71 1454.96 L1829.71 1463.43 Q1830.73 1463.08 1831.75 1462.92 Q1832.77 1462.73 1833.79 1462.73 Q1839.57 1462.73 1842.95 1465.9 Q1846.33 1469.08 1846.33 1474.49 Q1846.33 1480.07 1842.86 1483.17 Q1839.39 1486.25 1833.07 1486.25 Q1830.89 1486.25 1828.62 1485.88 Q1826.38 1485.51 1823.97 1484.77 L1823.97 1480.07 Q1826.06 1481.2 1828.28 1481.76 Q1830.5 1482.32 1832.98 1482.32 Q1836.98 1482.32 1839.32 1480.21 Q1841.66 1478.1 1841.66 1474.49 Q1841.66 1470.88 1839.32 1468.77 Q1836.98 1466.67 1832.98 1466.67 Q1831.1 1466.67 1829.23 1467.08 Q1827.38 1467.5 1825.43 1468.38 L1825.43 1451.02 Z" fill="#000000" fill-rule="nonzero" fill-opacity="1" /><path clip-path="url(#clip020)" d="M2245.3 1481.64 L2252.94 1481.64 L2252.94 1455.28 L2244.63 1456.95 L2244.63 1452.69 L2252.9 1451.02 L2257.57 1451.02 L2257.57 1481.64 L2265.21 1481.64 L2265.21 1485.58 L2245.3 1485.58 L2245.3 1481.64 Z" fill="#000000" fill-rule="nonzero" fill-opacity="1" /><path clip-path="url(#clip020)" d="M2274.65 1479.7 L2279.54 1479.7 L2279.54 1485.58 L2274.65 1485.58 L2274.65 1479.7 Z" fill="#000000" fill-rule="nonzero" fill-opacity="1" /><path clip-path="url(#clip020)" d="M2299.72 1454.1 Q2296.11 1454.1 2294.28 1457.66 Q2292.48 1461.2 2292.48 1468.33 Q2292.48 1475.44 2294.28 1479.01 Q2296.11 1482.55 2299.72 1482.55 Q2303.36 1482.55 2305.16 1479.01 Q2306.99 1475.44 2306.99 1468.33 Q2306.99 1461.2 2305.16 1457.66 Q2303.36 1454.1 2299.72 1454.1 M2299.72 1450.39 Q2305.53 1450.39 2308.59 1455 Q2311.67 1459.58 2311.67 1468.33 Q2311.67 1477.06 2308.59 1481.67 Q2305.53 1486.25 2299.72 1486.25 Q2293.91 1486.25 2290.84 1481.67 Q2287.78 1477.06 2287.78 1468.33 Q2287.78 1459.58 2290.84 1455 Q2293.91 1450.39 2299.72 1450.39 Z" fill="#000000" fill-rule="nonzero" fill-opacity="1" /><path clip-path="url(#clip020)" d="M2329.89 1454.1 Q2326.27 1454.1 2324.45 1457.66 Q2322.64 1461.2 2322.64 1468.33 Q2322.64 1475.44 2324.45 1479.01 Q2326.27 1482.55 2329.89 1482.55 Q2333.52 1482.55 2335.33 1479.01 Q2337.15 1475.44 2337.15 1468.33 Q2337.15 1461.2 2335.33 1457.66 Q2333.52 1454.1 2329.89 1454.1 M2329.89 1450.39 Q2335.7 1450.39 2338.75 1455 Q2341.83 1459.58 2341.83 1468.33 Q2341.83 1477.06 2338.75 1481.67 Q2335.7 1486.25 2329.89 1486.25 Q2324.08 1486.25 2321 1481.67 Q2317.94 1477.06 2317.94 1468.33 Q2317.94 1459.58 2321 1455 Q2324.08 1450.39 2329.89 1450.39 Z" fill="#000000" fill-rule="nonzero" fill-opacity="1" /><path clip-path="url(#clip020)" d="M1309.62 1531.91 Q1309.62 1532.81 1309.2 1533.04 Q1308.78 1533.23 1307.62 1533.23 L1301.44 1533.23 L1296.54 1552.69 Q1296.16 1554.39 1296.16 1555.84 Q1296.16 1557.45 1296.64 1558.16 Q1297.16 1558.87 1298.22 1558.87 Q1300.31 1558.87 1302.57 1556.97 Q1304.85 1555.07 1306.79 1550.43 Q1307.04 1549.82 1307.17 1549.69 Q1307.33 1549.53 1307.75 1549.53 Q1308.56 1549.53 1308.56 1550.17 Q1308.56 1550.4 1308.11 1551.43 Q1307.69 1552.46 1306.75 1553.97 Q1305.85 1555.49 1304.66 1556.9 Q1303.5 1558.32 1301.73 1559.35 Q1299.96 1560.35 1298.06 1560.35 Q1295.38 1560.35 1293.68 1558.64 Q1292 1556.94 1292 1554.26 Q1292 1553.39 1292.68 1550.62 Q1293.36 1547.82 1297.03 1533.23 L1291.2 1533.23 Q1290.39 1533.23 1290.07 1533.2 Q1289.78 1533.17 1289.56 1533.01 Q1289.36 1532.81 1289.36 1532.43 Q1289.36 1531.82 1289.62 1531.56 Q1289.88 1531.27 1290.2 1531.24 Q1290.55 1531.17 1291.36 1531.17 L1297.54 1531.17 L1300.12 1520.71 Q1300.38 1519.67 1301.02 1519.09 Q1301.7 1518.48 1302.08 1518.42 Q1302.47 1518.32 1302.76 1518.32 Q1303.63 1518.32 1304.14 1518.81 Q1304.66 1519.26 1304.66 1520.09 Q1304.66 1520.54 1301.95 1531.17 L1307.75 1531.17 Q1308.49 1531.17 1308.78 1531.2 Q1309.1 1531.24 1309.36 1531.4 Q1309.62 1531.56 1309.62 1531.91 Z" fill="#000000" fill-rule="nonzero" fill-opacity="1" /><polyline clip-path="url(#clip022)" style="stroke:#000000; stroke-linecap:round; stroke-linejoin:round; stroke-width:2; stroke-opacity:0.1; fill:none" points="249.542,1290.87 2352.76,1290.87 "/>
<polyline clip-path="url(#clip022)" style="stroke:#000000; stroke-linecap:round; stroke-linejoin:round; stroke-width:2; stroke-opacity:0.1; fill:none" points="249.542,989.702 2352.76,989.702 "/>
<polyline clip-path="url(#clip022)" style="stroke:#000000; stroke-linecap:round; stroke-linejoin:round; stroke-width:2; stroke-opacity:0.1; fill:none" points="249.542,688.53 2352.76,688.53 "/>
<polyline clip-path="url(#clip022)" style="stroke:#000000; stroke-linecap:round; stroke-linejoin:round; stroke-width:2; stroke-opacity:0.1; fill:none" points="249.542,387.358 2352.76,387.358 "/>
<polyline clip-path="url(#clip022)" style="stroke:#000000; stroke-linecap:round; stroke-linejoin:round; stroke-width:2; stroke-opacity:0.1; fill:none" points="249.542,86.1855 2352.76,86.1855 "/>
<polyline clip-path="url(#clip020)" style="stroke:#000000; stroke-linecap:round; stroke-linejoin:round; stroke-width:4; stroke-opacity:1; fill:none" points="249.542,1423.18 249.542,47.2441 "/>
<polyline clip-path="url(#clip020)" style="stroke:#000000; stroke-linecap:round; stroke-linejoin:round; stroke-width:4; stroke-opacity:1; fill:none" points="249.542,1290.87 268.44,1290.87 "/>
<polyline clip-path="url(#clip020)" style="stroke:#000000; stroke-linecap:round; stroke-linejoin:round; stroke-width:4; stroke-opacity:1; fill:none" points="249.542,989.702 268.44,989.702 "/>
<polyline clip-path="url(#clip020)" style="stroke:#000000; stroke-linecap:round; stroke-linejoin:round; stroke-width:4; stroke-opacity:1; fill:none" points="249.542,688.53 268.44,688.53 "/>
<polyline clip-path="url(#clip020)" style="stroke:#000000; stroke-linecap:round; stroke-linejoin:round; stroke-width:4; stroke-opacity:1; fill:none" points="249.542,387.358 268.44,387.358 "/>
<polyline clip-path="url(#clip020)" style="stroke:#000000; stroke-linecap:round; stroke-linejoin:round; stroke-width:4; stroke-opacity:1; fill:none" points="249.542,86.1855 268.44,86.1855 "/>
<path clip-path="url(#clip020)" d="M126.205 1276.67 Q122.593 1276.67 120.765 1280.24 Q118.959 1283.78 118.959 1290.91 Q118.959 1298.02 120.765 1301.58 Q122.593 1305.12 126.205 1305.12 Q129.839 1305.12 131.644 1301.58 Q133.473 1298.02 133.473 1290.91 Q133.473 1283.78 131.644 1280.24 Q129.839 1276.67 126.205 1276.67 M126.205 1272.97 Q132.015 1272.97 135.07 1277.58 Q138.149 1282.16 138.149 1290.91 Q138.149 1299.64 135.07 1304.24 Q132.015 1308.83 126.205 1308.83 Q120.394 1308.83 117.316 1304.24 Q114.26 1299.64 114.26 1290.91 Q114.26 1282.16 117.316 1277.58 Q120.394 1272.97 126.205 1272.97 Z" fill="#000000" fill-rule="nonzero" fill-opacity="1" /><path clip-path="url(#clip020)" d="M146.366 1302.27 L151.251 1302.27 L151.251 1308.15 L146.366 1308.15 L146.366 1302.27 Z" fill="#000000" fill-rule="nonzero" fill-opacity="1" /><path clip-path="url(#clip020)" d="M171.436 1276.67 Q167.825 1276.67 165.996 1280.24 Q164.19 1283.78 164.19 1290.91 Q164.19 1298.02 165.996 1301.58 Q167.825 1305.12 171.436 1305.12 Q175.07 1305.12 176.876 1301.58 Q178.704 1298.02 178.704 1290.91 Q178.704 1283.78 176.876 1280.24 Q175.07 1276.67 171.436 1276.67 M171.436 1272.97 Q177.246 1272.97 180.301 1277.58 Q183.38 1282.16 183.38 1290.91 Q183.38 1299.64 180.301 1304.24 Q177.246 1308.83 171.436 1308.83 Q165.626 1308.83 162.547 1304.24 Q159.491 1299.64 159.491 1290.91 Q159.491 1282.16 162.547 1277.58 Q165.626 1272.97 171.436 1272.97 Z" fill="#000000" fill-rule="nonzero" fill-opacity="1" /><path clip-path="url(#clip020)" d="M201.598 1276.67 Q197.987 1276.67 196.158 1280.24 Q194.352 1283.78 194.352 1290.91 Q194.352 1298.02 196.158 1301.58 Q197.987 1305.12 201.598 1305.12 Q205.232 1305.12 207.037 1301.58 Q208.866 1298.02 208.866 1290.91 Q208.866 1283.78 207.037 1280.24 Q205.232 1276.67 201.598 1276.67 M201.598 1272.97 Q207.408 1272.97 210.463 1277.58 Q213.542 1282.16 213.542 1290.91 Q213.542 1299.64 210.463 1304.24 Q207.408 1308.83 201.598 1308.83 Q195.787 1308.83 192.709 1304.24 Q189.653 1299.64 189.653 1290.91 Q189.653 1282.16 192.709 1277.58 Q195.787 1272.97 201.598 1272.97 Z" fill="#000000" fill-rule="nonzero" fill-opacity="1" /><path clip-path="url(#clip020)" d="M127.2 975.501 Q123.589 975.501 121.76 979.066 Q119.955 982.607 119.955 989.737 Q119.955 996.843 121.76 1000.41 Q123.589 1003.95 127.2 1003.95 Q130.834 1003.95 132.64 1000.41 Q134.468 996.843 134.468 989.737 Q134.468 982.607 132.64 979.066 Q130.834 975.501 127.2 975.501 M127.2 971.797 Q133.01 971.797 136.066 976.404 Q139.144 980.987 139.144 989.737 Q139.144 998.464 136.066 1003.07 Q133.01 1007.65 127.2 1007.65 Q121.39 1007.65 118.311 1003.07 Q115.256 998.464 115.256 989.737 Q115.256 980.987 118.311 976.404 Q121.39 971.797 127.2 971.797 Z" fill="#000000" fill-rule="nonzero" fill-opacity="1" /><path clip-path="url(#clip020)" d="M147.362 1001.1 L152.246 1001.1 L152.246 1006.98 L147.362 1006.98 L147.362 1001.1 Z" fill="#000000" fill-rule="nonzero" fill-opacity="1" /><path clip-path="url(#clip020)" d="M166.459 1003.05 L182.778 1003.05 L182.778 1006.98 L160.834 1006.98 L160.834 1003.05 Q163.496 1000.29 168.079 995.663 Q172.686 991.01 173.866 989.667 Q176.112 987.144 176.991 985.408 Q177.894 983.649 177.894 981.959 Q177.894 979.204 175.95 977.468 Q174.028 975.732 170.927 975.732 Q168.727 975.732 166.274 976.496 Q163.843 977.26 161.065 978.811 L161.065 974.089 Q163.89 972.955 166.343 972.376 Q168.797 971.797 170.834 971.797 Q176.204 971.797 179.399 974.482 Q182.593 977.167 182.593 981.658 Q182.593 983.788 181.783 985.709 Q180.996 987.607 178.889 990.2 Q178.311 990.871 175.209 994.089 Q172.107 997.283 166.459 1003.05 Z" fill="#000000" fill-rule="nonzero" fill-opacity="1" /><path clip-path="url(#clip020)" d="M192.639 972.422 L210.996 972.422 L210.996 976.357 L196.922 976.357 L196.922 984.829 Q197.94 984.482 198.959 984.32 Q199.977 984.135 200.996 984.135 Q206.783 984.135 210.162 987.306 Q213.542 990.478 213.542 995.894 Q213.542 1001.47 210.07 1004.57 Q206.598 1007.65 200.278 1007.65 Q198.102 1007.65 195.834 1007.28 Q193.588 1006.91 191.181 1006.17 L191.181 1001.47 Q193.264 1002.61 195.487 1003.16 Q197.709 1003.72 200.186 1003.72 Q204.19 1003.72 206.528 1001.61 Q208.866 999.505 208.866 995.894 Q208.866 992.283 206.528 990.177 Q204.19 988.07 200.186 988.07 Q198.311 988.07 196.436 988.487 Q194.584 988.903 192.639 989.783 L192.639 972.422 Z" fill="#000000" fill-rule="nonzero" fill-opacity="1" /><path clip-path="url(#clip020)" d="M126.205 674.329 Q122.593 674.329 120.765 677.893 Q118.959 681.435 118.959 688.565 Q118.959 695.671 120.765 699.236 Q122.593 702.778 126.205 702.778 Q129.839 702.778 131.644 699.236 Q133.473 695.671 133.473 688.565 Q133.473 681.435 131.644 677.893 Q129.839 674.329 126.205 674.329 M126.205 670.625 Q132.015 670.625 135.07 675.231 Q138.149 679.815 138.149 688.565 Q138.149 697.291 135.07 701.898 Q132.015 706.481 126.205 706.481 Q120.394 706.481 117.316 701.898 Q114.26 697.291 114.26 688.565 Q114.26 679.815 117.316 675.231 Q120.394 670.625 126.205 670.625 Z" fill="#000000" fill-rule="nonzero" fill-opacity="1" /><path clip-path="url(#clip020)" d="M146.366 699.93 L151.251 699.93 L151.251 705.81 L146.366 705.81 L146.366 699.93 Z" fill="#000000" fill-rule="nonzero" fill-opacity="1" /><path clip-path="url(#clip020)" d="M161.482 671.25 L179.839 671.25 L179.839 675.185 L165.765 675.185 L165.765 683.657 Q166.783 683.31 167.802 683.148 Q168.82 682.963 169.839 682.963 Q175.626 682.963 179.005 686.134 Q182.385 689.305 182.385 694.722 Q182.385 700.301 178.913 703.403 Q175.44 706.481 169.121 706.481 Q166.945 706.481 164.677 706.111 Q162.431 705.74 160.024 705 L160.024 700.301 Q162.107 701.435 164.329 701.99 Q166.552 702.546 169.028 702.546 Q173.033 702.546 175.371 700.44 Q177.709 698.333 177.709 694.722 Q177.709 691.111 175.371 689.004 Q173.033 686.898 169.028 686.898 Q167.153 686.898 165.278 687.315 Q163.427 687.731 161.482 688.611 L161.482 671.25 Z" fill="#000000" fill-rule="nonzero" fill-opacity="1" /><path clip-path="url(#clip020)" d="M201.598 674.329 Q197.987 674.329 196.158 677.893 Q194.352 681.435 194.352 688.565 Q194.352 695.671 196.158 699.236 Q197.987 702.778 201.598 702.778 Q205.232 702.778 207.037 699.236 Q208.866 695.671 208.866 688.565 Q208.866 681.435 207.037 677.893 Q205.232 674.329 201.598 674.329 M201.598 670.625 Q207.408 670.625 210.463 675.231 Q213.542 679.815 213.542 688.565 Q213.542 697.291 210.463 701.898 Q207.408 706.481 201.598 706.481 Q195.787 706.481 192.709 701.898 Q189.653 697.291 189.653 688.565 Q189.653 679.815 192.709 675.231 Q195.787 670.625 201.598 670.625 Z" fill="#000000" fill-rule="nonzero" fill-opacity="1" /><path clip-path="url(#clip020)" d="M127.2 373.156 Q123.589 373.156 121.76 376.721 Q119.955 380.263 119.955 387.392 Q119.955 394.499 121.76 398.064 Q123.589 401.605 127.2 401.605 Q130.834 401.605 132.64 398.064 Q134.468 394.499 134.468 387.392 Q134.468 380.263 132.64 376.721 Q130.834 373.156 127.2 373.156 M127.2 369.453 Q133.01 369.453 136.066 374.059 Q139.144 378.643 139.144 387.392 Q139.144 396.119 136.066 400.726 Q133.01 405.309 127.2 405.309 Q121.39 405.309 118.311 400.726 Q115.256 396.119 115.256 387.392 Q115.256 378.643 118.311 374.059 Q121.39 369.453 127.2 369.453 Z" fill="#000000" fill-rule="nonzero" fill-opacity="1" /><path clip-path="url(#clip020)" d="M147.362 398.758 L152.246 398.758 L152.246 404.638 L147.362 404.638 L147.362 398.758 Z" fill="#000000" fill-rule="nonzero" fill-opacity="1" /><path clip-path="url(#clip020)" d="M161.251 370.078 L183.473 370.078 L183.473 372.068 L170.927 404.638 L166.042 404.638 L177.848 374.013 L161.251 374.013 L161.251 370.078 Z" fill="#000000" fill-rule="nonzero" fill-opacity="1" /><path clip-path="url(#clip020)" d="M192.639 370.078 L210.996 370.078 L210.996 374.013 L196.922 374.013 L196.922 382.485 Q197.94 382.138 198.959 381.976 Q199.977 381.791 200.996 381.791 Q206.783 381.791 210.162 384.962 Q213.542 388.133 213.542 393.55 Q213.542 399.129 210.07 402.23 Q206.598 405.309 200.278 405.309 Q198.102 405.309 195.834 404.939 Q193.588 404.568 191.181 403.828 L191.181 399.129 Q193.264 400.263 195.487 400.818 Q197.709 401.374 200.186 401.374 Q204.19 401.374 206.528 399.267 Q208.866 397.161 208.866 393.55 Q208.866 389.939 206.528 387.832 Q204.19 385.726 200.186 385.726 Q198.311 385.726 196.436 386.142 Q194.584 386.559 192.639 387.439 L192.639 370.078 Z" fill="#000000" fill-rule="nonzero" fill-opacity="1" /><path clip-path="url(#clip020)" d="M117.015 99.5304 L124.654 99.5304 L124.654 73.1648 L116.343 74.8314 L116.343 70.5722 L124.607 68.9055 L129.283 68.9055 L129.283 99.5304 L136.922 99.5304 L136.922 103.466 L117.015 103.466 L117.015 99.5304 Z" fill="#000000" fill-rule="nonzero" fill-opacity="1" /><path clip-path="url(#clip020)" d="M146.366 97.5859 L151.251 97.5859 L151.251 103.466 L146.366 103.466 L146.366 97.5859 Z" fill="#000000" fill-rule="nonzero" fill-opacity="1" /><path clip-path="url(#clip020)" d="M171.436 71.9842 Q167.825 71.9842 165.996 75.549 Q164.19 79.0907 164.19 86.2203 Q164.19 93.3267 165.996 96.8915 Q167.825 100.433 171.436 100.433 Q175.07 100.433 176.876 96.8915 Q178.704 93.3267 178.704 86.2203 Q178.704 79.0907 176.876 75.549 Q175.07 71.9842 171.436 71.9842 M171.436 68.2806 Q177.246 68.2806 180.301 72.887 Q183.38 77.4703 183.38 86.2203 Q183.38 94.9471 180.301 99.5535 Q177.246 104.137 171.436 104.137 Q165.626 104.137 162.547 99.5535 Q159.491 94.9471 159.491 86.2203 Q159.491 77.4703 162.547 72.887 Q165.626 68.2806 171.436 68.2806 Z" fill="#000000" fill-rule="nonzero" fill-opacity="1" /><path clip-path="url(#clip020)" d="M201.598 71.9842 Q197.987 71.9842 196.158 75.549 Q194.352 79.0907 194.352 86.2203 Q194.352 93.3267 196.158 96.8915 Q197.987 100.433 201.598 100.433 Q205.232 100.433 207.037 96.8915 Q208.866 93.3267 208.866 86.2203 Q208.866 79.0907 207.037 75.549 Q205.232 71.9842 201.598 71.9842 M201.598 68.2806 Q207.408 68.2806 210.463 72.887 Q213.542 77.4703 213.542 86.2203 Q213.542 94.9471 210.463 99.5535 Q207.408 104.137 201.598 104.137 Q195.787 104.137 192.709 99.5535 Q189.653 94.9471 189.653 86.2203 Q189.653 77.4703 192.709 72.887 Q195.787 68.2806 201.598 68.2806 Z" fill="#000000" fill-rule="nonzero" fill-opacity="1" /><path clip-path="url(#clip020)" d="M30.8561 720.775 Q31.307 720.775 32.3698 721.064 L57.5548 727.377 Q63.1586 728.762 67.0877 733.27 Q71.0168 737.747 71.0168 742.836 Q71.0168 745.895 69.3743 747.86 Q67.764 749.824 65.2842 749.824 Q63.0942 749.824 62.0314 748.665 Q61.0008 747.505 61.0008 746.121 Q61.0008 745.67 61.1296 745.187 Q61.2584 744.703 61.8059 744.188 Q62.3534 743.673 63.2874 743.673 Q64.8011 743.673 65.9927 744.993 Q66.5402 745.637 66.669 746.249 Q66.7978 746.829 66.7978 747.827 Q67.6996 747.441 68.3115 746.732 Q68.9234 746.024 69.1489 745.219 Q69.4065 744.414 69.4709 743.898 Q69.5675 743.351 69.5675 742.836 Q69.5675 738.713 65.413 735.557 Q64.157 734.623 62.9009 733.947 Q61.6771 733.238 60.1634 732.723 Q58.682 732.208 57.8768 731.982 Q57.0717 731.725 55.2359 731.274 Q58.2311 734.269 58.2311 737.94 Q58.2311 739.486 57.8124 740.871 Q57.3937 742.224 56.5242 743.415 Q55.6224 744.607 54.0443 745.315 Q52.4662 745.992 50.3728 745.992 Q48.1506 745.992 45.1233 745.122 Q42.0959 744.253 36.5243 742.159 Q33.4004 741.032 31.8867 741.032 Q31.146 741.032 30.6951 741.193 Q30.212 741.354 30.051 741.676 Q29.8577 741.998 29.8255 742.191 Q29.7933 742.352 29.7933 742.675 Q29.7933 744.575 31.7257 746.346 Q33.658 748.117 37.9736 749.341 Q38.7787 749.599 38.972 749.76 Q39.1652 749.921 39.1652 750.404 Q39.133 751.209 38.4889 751.209 Q38.2312 751.209 37.2329 750.919 Q36.2023 750.629 34.6886 749.953 Q33.1427 749.245 31.7579 748.278 Q30.3408 747.312 29.3424 745.798 Q28.344 744.253 28.344 742.481 Q28.344 740.066 29.9221 738.584 Q31.468 737.071 33.7546 737.071 Q34.6886 737.071 35.5259 737.328 Q36.3311 737.554 38.4889 738.391 Q47.1845 741.773 51.4356 741.773 Q52.4662 741.773 53.3358 741.612 Q54.1731 741.418 55.0105 741 Q55.8156 740.581 56.2987 739.744 Q56.7496 738.874 56.7496 737.683 Q56.7496 736.169 56.0411 734.752 Q55.3003 733.303 54.302 732.401 Q53.3036 731.467 52.4662 730.919 Q51.5967 730.34 51.1458 730.211 L39.294 727.248 L34.0123 725.927 Q31.146 725.316 30.4374 725.026 Q29.7611 724.639 29.4068 723.963 Q29.0526 723.287 29.0526 722.707 Q29.0526 721.902 29.5357 721.354 Q30.0187 720.775 30.8561 720.775 Z" fill="#000000" fill-rule="nonzero" fill-opacity="1" /><polyline clip-path="url(#clip022)" style="stroke:#e26f46; stroke-linecap:round; stroke-linejoin:round; stroke-width:8; stroke-opacity:1; fill:none" stroke-dasharray="32, 20" points="309.067,277.164 312.942,281.135 316.818,290.633 320.693,291.782 324.568,284.307 328.444,268.748 332.319,266.574 336.194,262.734 340.07,263.663 343.945,253.992 347.82,255.672 351.695,246.043 355.571,241.671 359.446,231.661 363.321,235.935 367.197,234.412 371.072,229.531 374.947,224.132 378.823,228.207 382.698,218.665 386.573,208.239 390.449,212.118 394.324,208.224 398.199,203.617 402.075,205.726 405.95,205.171 409.825,198.47 413.701,205.29 417.576,199.696 421.451,191.454 425.327,187.649 429.202,183.638 433.077,181.279 436.953,180.009 440.828,189.49 444.703,186.831 448.578,195.903 452.454,194.938 456.329,191.769 460.204,199.887 464.08,197.119 467.955,190.161 471.83,195.145 475.706,201.189 479.581,197.715 483.456,194.701 487.332,187.134 491.207,188.01 495.082,192.161 498.958,190.899 502.833,200.187 506.708,194.49 510.584,187.781 514.459,186.392 518.334,184.012 522.21,191.876 526.085,200.226 529.96,203.164 533.836,200.257 537.711,202.171 541.586,202.993 545.461,199.14 549.337,205.748 553.212,220.509 557.087,218.201 560.963,223.605 564.838,227.171 568.713,221.657 572.589,216.164 576.464,219.415 580.339,222.577 584.215,219.639 588.09,216.66 591.965,210.881 595.841,210.859 599.716,210.675 603.591,210.768 607.467,212.581 611.342,209.759 615.217,213.154 619.093,204.971 622.968,204.773 626.843,210.751 630.719,205.857 634.594,208.853 638.469,212.663 642.345,211.675 646.22,213.425 650.095,214.677 653.97,213.632 657.846,220.743 661.721,218.303 665.596,222.039 669.472,228.838 673.347,231.111 677.222,222.165 681.098,218.379 684.973,218.146 688.848,227.265 692.724,228.32 696.599,222.088 700.474,232.204 704.35,236.422 708.225,235.552 712.1,238.234 715.976,247.612 719.851,251.972 723.726,257.034 727.602,248.587 731.477,251.965 735.352,245.499 739.228,242.908 743.103,238.232 746.978,230.066 750.853,221.903 754.729,225.394 758.604,227.145 762.479,227.215 766.355,227.038 770.23,221.967 774.105,215.848 777.981,222.405 781.856,205.049 785.731,205.88 789.607,205.272 793.482,197.999 797.357,199.597 801.233,195.862 805.108,201.446 808.983,200.687 812.859,200.54 816.734,195.543 820.609,196.083 824.485,192.665 828.36,192.61 832.235,184.853 836.111,186.933 839.986,190.111 843.861,189.137 847.736,185.623 851.612,185.875 855.487,185.29 859.362,177.175 863.238,173.356 867.113,166.665 870.988,169.21 874.864,174.557 878.739,171.676 882.614,166.91 886.49,159.138 890.365,157.465 894.24,160.385 898.116,158.323 901.991,162.883 905.866,158.434 909.742,162.414 913.617,155.794 917.492,159.456 921.368,150.913 925.243,152.668 929.118,150.549 932.994,149.849 936.869,153.353 940.744,156.325 944.619,155.161 948.495,162.238 952.37,157.539 956.245,160.367 960.121,162.878 963.996,168.037 967.871,164.085 971.747,167.912 975.622,163.158 979.497,157.889 983.373,156.244 987.248,155.758 991.123,156.321 994.999,155.336 998.874,156.358 1002.75,157.735 1006.62,161.46 1010.5,162.389 1014.38,155.674 1018.25,156.237 1022.13,151.127 1026,151.884 1029.88,150.354 1033.75,146.712 1037.63,143.712 1041.5,143.169 1045.38,140.863 1049.25,144.103 1053.13,136.859 1057,137.368 1060.88,137.774 1064.75,137.975 1068.63,140.93 1072.51,145.546 1076.38,159.823 1080.26,157.687 1084.13,155.673 1088.01,156.225 1091.88,158.065 1095.76,156.988 1099.63,153.836 1103.51,158.284 1107.38,151.208 1111.26,157.106 1115.13,153.14 1119.01,146.954 1122.88,153.457 1126.76,146.132 1130.63,141.441 1134.51,137.59 1138.39,132.846 1142.26,130.7 1146.14,134.288 1150.01,130.16 1153.89,131.004 1157.76,133.348 1161.64,127.796 1165.51,119.98 1169.39,119.466 1173.26,116.684 1177.14,117.945 1181.01,116.226 1184.89,116.23 1188.76,111.403 1192.64,109.338 1196.52,107.556 1200.39,104.38 1204.27,103.647 1208.14,101.143 1212.02,100.46 1215.89,104.138 1219.77,103.634 1223.64,101.562 1227.52,102.072 1231.39,102.083 1235.27,97.5869 1239.14,93.6237 1243.02,94.8482 1246.89,92.5981 1250.77,91.4221 1254.65,89.7354 1258.52,90.3189 1262.4,91.1211 1266.27,91.9029 1270.15,92.6579 1274.02,91.501 1277.9,90.1762 1281.77,90.163 1285.65,91.7661 1289.52,91.6437 1293.4,91.4914 1297.27,90.1442 1301.15,88.4623 1305.02,87.0172 1308.9,86.6529 1312.77,86.9872 1316.65,86.8528 1320.53,87.504 1324.4,88.6093 1328.28,86.8542 1332.15,86.3573 1336.03,86.1857 1339.9,86.6041 1343.78,86.7614 1347.65,87.1742 1351.53,86.4981 1355.4,87.0425 1359.28,86.2478 1363.15,86.2058 1367.03,86.191 1370.9,86.5579 1374.78,86.5485 1378.66,86.6355 1382.53,86.8011 1386.41,87.505 1390.28,87.1023 1394.16,88.2041 1398.03,89.185 1401.91,90.2652 1405.78,90.5672 1409.66,89.8645 1413.53,91.6079 1417.41,93.6678 1421.28,92.6519 1425.16,90.7476 1429.03,94.1621 1432.91,92.3849 1436.79,96.3478 1440.66,97.2372 1444.54,101.815 1448.41,102.833 1452.29,106.746 1456.16,112.687 1460.04,117.942 1463.91,117.934 1467.79,118.228 1471.66,119.505 1475.54,115.828 1479.41,122.282 1483.29,121.53 1487.16,126.094 1491.04,125.752 1494.91,127.694 1498.79,121.305 1502.67,125.786 1506.54,117.964 1510.42,124.773 1514.29,131.596 1518.17,124.225 1522.04,125.592 1525.92,129.157 1529.79,126.558 1533.67,129.501 1537.54,130.835 1541.42,137.42 1545.29,139.1 1549.17,145.849 1553.04,138.755 1556.92,136.499 1560.8,132.099 1564.67,133.817 1568.55,138.046 1572.42,139.632 1576.3,130.029 1580.17,132.446 1584.05,131.679 1587.92,134.1 1591.8,133.755 1595.67,129.379 1599.55,128.533 1603.42,132.407 1607.3,134.105 1611.17,135.227 1615.05,124.003 1618.93,133.411 1622.8,143.197 1626.68,143.995 1630.55,154.188 1634.43,161.418 1638.3,160.26 1642.18,161.993 1646.05,154.022 1649.93,153.388 1653.8,159.48 1657.68,166.109 1661.55,156.129 1665.43,154.412 1669.3,161.268 1673.18,152.567 1677.06,154.842 1680.93,154.619 1684.81,157.976 1688.68,154.102 1692.56,156.705 1696.43,158.756 1700.31,159.061 1704.18,169.011 1708.06,170.78 1711.93,177.161 1715.81,171.578 1719.68,180.951 1723.56,187.527 1727.43,191.019 1731.31,188.082 1735.18,184.085 1739.06,195.372 1742.94,200.63 1746.81,205.936 1750.69,200.678 1754.56,231.031 1758.44,233.479 1762.31,226.625 1766.19,221.938 1770.06,224.304 1773.94,240.209 1777.81,231.273 1781.69,233.853 1785.56,241.451 1789.44,251.422 1793.31,241.002 1797.19,266.186 1801.07,253.933 1804.94,273.987 1808.82,257.101 1812.69,278.148 1816.57,283.631 1820.44,300.954 1824.32,289.041 1828.19,296.266 1832.07,315.827 1835.94,326.981 1839.82,343.249 1843.69,357.275 1847.57,366.102 1851.44,357.098 1855.32,338.239 1859.2,359.891 1863.07,354.066 1866.95,357.058 1870.82,352.688 1874.7,355.024 1878.57,351.782 1882.45,365.534 1886.32,373.07 1890.2,394.505 1894.07,393.732 1897.95,396.277 1901.82,439.266 1905.7,461.991 1909.57,462.414 1913.45,490.055 1917.32,535.037 1921.2,533.612 1925.08,541.397 1928.95,533.449 1932.83,533.813 1936.7,532.583 1940.58,572.358 1944.45,562.566 1948.33,590.307 1952.2,583.033 1956.08,603.094 1959.95,584.424 1963.83,592.65 1967.7,584.294 1971.58,584.075 1975.45,582.761 1979.33,590.899 1983.21,596.555 1987.08,591.268 1990.96,570.057 1994.83,567.266 1998.71,550.951 2002.58,538.866 2006.46,525.871 2010.33,512.604 2014.21,526.002 2018.08,525.843 2021.96,515.558 2025.83,541.704 2029.71,541.281 2033.58,524.011 2037.46,540.681 2041.34,529.108 2045.21,561.769 2049.09,625.056 2052.96,692.745 2056.84,721.888 2060.71,740.524 2064.59,741.829 2068.46,757.576 2072.34,729.107 2076.21,699.821 2080.09,739.648 2083.96,754.381 2087.84,757.663 2091.71,755.214 2095.59,757.511 2099.46,734.209 2103.34,760.113 2107.22,797.165 2111.09,809.128 2114.97,840.611 2118.84,802.045 2122.72,836.233 2126.59,890.915 2130.47,866.901 2134.34,887.636 2138.22,897.823 2142.09,879.25 2145.97,860.718 2149.84,860.979 2153.72,861.636 2157.59,870.411 2161.47,896.056 2165.35,895.514 2169.22,971.52 2173.1,1002.76 2176.97,1008.82 2180.85,1021.14 2184.72,1031.46 2188.6,1069.58 2192.47,1111.34 2196.35,1090.73 2200.22,1136.63 2204.1,1176.08 2207.97,1177.49 2211.85,1171.14 2215.72,1210.49 2219.6,1270.28 2223.48,1278.74 2227.35,1293.6 2231.23,1293.09 2235.1,1245.11 2238.98,1266.6 2242.85,1280.29 2246.73,1277.66 2250.6,1349.09 2254.48,1384.24 2258.35,1350.16 2262.23,1370.93 2266.1,1350.17 2269.98,1343.05 2273.85,1343.17 2277.73,1358.3 2281.61,1315.2 2285.48,1263.07 2289.36,1256.83 2293.23,1279.59 "/>
<path clip-path="url(#clip020)" d="M319.649 1377.32 L918.58 1377.32 L918.58 1273.64 L319.649 1273.64  Z" fill="#ffffff" fill-rule="evenodd" fill-opacity="1"/>
<polyline clip-path="url(#clip020)" style="stroke:#000000; stroke-linecap:round; stroke-linejoin:round; stroke-width:4; stroke-opacity:1; fill:none" points="319.649,1377.32 918.58,1377.32 918.58,1273.64 319.649,1273.64 319.649,1377.32 "/>
<polyline clip-path="url(#clip020)" style="stroke:#e26f46; stroke-linecap:round; stroke-linejoin:round; stroke-width:8; stroke-opacity:1; fill:none" stroke-dasharray="32, 20" points="343.018,1325.48 483.232,1325.48 "/>
<path clip-path="url(#clip020)" d="M525.027 1317.59 L525.027 1321.62 Q523.222 1320.7 521.277 1320.23 Q519.333 1319.77 517.25 1319.77 Q514.078 1319.77 512.481 1320.74 Q510.907 1321.71 510.907 1323.66 Q510.907 1325.14 512.041 1326 Q513.176 1326.83 516.601 1327.59 L518.06 1327.92 Q522.597 1328.89 524.495 1330.67 Q526.416 1332.43 526.416 1335.6 Q526.416 1339.21 523.546 1341.32 Q520.699 1343.43 515.699 1343.43 Q513.615 1343.43 511.347 1343.01 Q509.101 1342.62 506.602 1341.81 L506.602 1337.41 Q508.963 1338.63 511.254 1339.26 Q513.546 1339.86 515.791 1339.86 Q518.801 1339.86 520.421 1338.84 Q522.041 1337.8 522.041 1335.93 Q522.041 1334.19 520.861 1333.26 Q519.703 1332.34 515.745 1331.48 L514.264 1331.14 Q510.305 1330.3 508.546 1328.59 Q506.787 1326.85 506.787 1323.84 Q506.787 1320.19 509.379 1318.2 Q511.972 1316.2 516.74 1316.2 Q519.101 1316.2 521.185 1316.55 Q523.268 1316.9 525.027 1317.59 Z" fill="#000000" fill-rule="nonzero" fill-opacity="1" /><path clip-path="url(#clip020)" d="M533.199 1316.83 L537.458 1316.83 L537.458 1342.76 L533.199 1342.76 L533.199 1316.83 M533.199 1306.74 L537.458 1306.74 L537.458 1312.13 L533.199 1312.13 L533.199 1306.74 Z" fill="#000000" fill-rule="nonzero" fill-opacity="1" /><path clip-path="url(#clip020)" d="M567.921 1327.11 L567.921 1342.76 L563.661 1342.76 L563.661 1327.25 Q563.661 1323.57 562.226 1321.74 Q560.791 1319.91 557.921 1319.91 Q554.472 1319.91 552.481 1322.11 Q550.49 1324.31 550.49 1328.1 L550.49 1342.76 L546.208 1342.76 L546.208 1316.83 L550.49 1316.83 L550.49 1320.86 Q552.018 1318.52 554.078 1317.36 Q556.161 1316.2 558.87 1316.2 Q563.337 1316.2 565.629 1318.98 Q567.921 1321.74 567.921 1327.11 Z" fill="#000000" fill-rule="nonzero" fill-opacity="1" /><path clip-path="url(#clip020)" d="M601.532 1319.82 Q598.106 1319.82 596.115 1322.5 Q594.124 1325.16 594.124 1329.82 Q594.124 1334.47 596.092 1337.15 Q598.082 1339.82 601.532 1339.82 Q604.934 1339.82 606.925 1337.13 Q608.916 1334.45 608.916 1329.82 Q608.916 1325.21 606.925 1322.52 Q604.934 1319.82 601.532 1319.82 M601.532 1316.2 Q607.087 1316.2 610.258 1319.82 Q613.43 1323.43 613.43 1329.82 Q613.43 1336.18 610.258 1339.82 Q607.087 1343.43 601.532 1343.43 Q595.953 1343.43 592.782 1339.82 Q589.633 1336.18 589.633 1329.82 Q589.633 1323.43 592.782 1319.82 Q595.953 1316.2 601.532 1316.2 Z" fill="#000000" fill-rule="nonzero" fill-opacity="1" /><path clip-path="url(#clip020)" d="M633.615 1306.74 L633.615 1310.28 L629.541 1310.28 Q627.249 1310.28 626.346 1311.2 Q625.467 1312.13 625.467 1314.54 L625.467 1316.83 L632.48 1316.83 L632.48 1320.14 L625.467 1320.14 L625.467 1342.76 L621.184 1342.76 L621.184 1320.14 L617.11 1320.14 L617.11 1316.83 L621.184 1316.83 L621.184 1315.02 Q621.184 1310.7 623.198 1308.73 Q625.212 1306.74 629.587 1306.74 L633.615 1306.74 Z" fill="#000000" fill-rule="nonzero" fill-opacity="1" /><path clip-path="url(#clip020)" d="M669.309 1329.49 Q669.309 1324.86 667.388 1322.32 Q665.49 1319.77 662.04 1319.77 Q658.615 1319.77 656.693 1322.32 Q654.795 1324.86 654.795 1329.49 Q654.795 1334.1 656.693 1336.64 Q658.615 1339.19 662.04 1339.19 Q665.49 1339.19 667.388 1336.64 Q669.309 1334.1 669.309 1329.49 M673.568 1339.54 Q673.568 1346.16 670.628 1349.38 Q667.689 1352.62 661.624 1352.62 Q659.378 1352.62 657.388 1352.27 Q655.397 1351.95 653.522 1351.25 L653.522 1347.11 Q655.397 1348.13 657.226 1348.61 Q659.054 1349.1 660.953 1349.1 Q665.142 1349.1 667.226 1346.9 Q669.309 1344.72 669.309 1340.3 L669.309 1338.2 Q667.99 1340.49 665.929 1341.62 Q663.869 1342.76 660.999 1342.76 Q656.23 1342.76 653.314 1339.12 Q650.397 1335.49 650.397 1329.49 Q650.397 1323.47 653.314 1319.84 Q656.23 1316.2 660.999 1316.2 Q663.869 1316.2 665.929 1317.34 Q667.99 1318.47 669.309 1320.76 L669.309 1316.83 L673.568 1316.83 L673.568 1339.54 Z" fill="#000000" fill-rule="nonzero" fill-opacity="1" /><path clip-path="url(#clip020)" d="M687.202 1326.25 L687.202 1338.91 L694.702 1338.91 Q698.475 1338.91 700.281 1337.36 Q702.11 1335.79 702.11 1332.57 Q702.11 1329.33 700.281 1327.8 Q698.475 1326.25 694.702 1326.25 L687.202 1326.25 M687.202 1312.04 L687.202 1322.45 L694.124 1322.45 Q697.55 1322.45 699.216 1321.18 Q700.906 1319.89 700.906 1317.25 Q700.906 1314.63 699.216 1313.33 Q697.55 1312.04 694.124 1312.04 L687.202 1312.04 M682.526 1308.2 L694.471 1308.2 Q699.818 1308.2 702.712 1310.42 Q705.605 1312.64 705.605 1316.74 Q705.605 1319.91 704.124 1321.78 Q702.642 1323.66 699.772 1324.12 Q703.221 1324.86 705.119 1327.22 Q707.04 1329.56 707.04 1333.08 Q707.04 1337.71 703.892 1340.23 Q700.744 1342.76 694.934 1342.76 L682.526 1342.76 L682.526 1308.2 Z" fill="#000000" fill-rule="nonzero" fill-opacity="1" /><path clip-path="url(#clip020)" d="M735.049 1321.81 Q736.647 1318.94 738.869 1317.57 Q741.091 1316.2 744.1 1316.2 Q748.151 1316.2 750.35 1319.05 Q752.549 1321.88 752.549 1327.11 L752.549 1342.76 L748.267 1342.76 L748.267 1327.25 Q748.267 1323.52 746.947 1321.71 Q745.628 1319.91 742.92 1319.91 Q739.61 1319.91 737.688 1322.11 Q735.767 1324.31 735.767 1328.1 L735.767 1342.76 L731.485 1342.76 L731.485 1327.25 Q731.485 1323.5 730.165 1321.71 Q728.846 1319.91 726.091 1319.91 Q722.827 1319.91 720.906 1322.13 Q718.985 1324.33 718.985 1328.1 L718.985 1342.76 L714.702 1342.76 L714.702 1316.83 L718.985 1316.83 L718.985 1320.86 Q720.443 1318.47 722.48 1317.34 Q724.517 1316.2 727.318 1316.2 Q730.142 1316.2 732.11 1317.64 Q734.1 1319.07 735.049 1321.81 Z" fill="#000000" fill-rule="nonzero" fill-opacity="1" /><path clip-path="url(#clip020)" d="M797.665 1327.11 L797.665 1342.76 L793.406 1342.76 L793.406 1327.25 Q793.406 1323.57 791.97 1321.74 Q790.535 1319.91 787.665 1319.91 Q784.216 1319.91 782.225 1322.11 Q780.234 1324.31 780.234 1328.1 L780.234 1342.76 L775.952 1342.76 L775.952 1316.83 L780.234 1316.83 L780.234 1320.86 Q781.762 1318.52 783.822 1317.36 Q785.906 1316.2 788.614 1316.2 Q793.081 1316.2 795.373 1318.98 Q797.665 1321.74 797.665 1327.11 Z" fill="#000000" fill-rule="nonzero" fill-opacity="1" /><path clip-path="url(#clip020)" d="M816.206 1319.82 Q812.78 1319.82 810.79 1322.5 Q808.799 1325.16 808.799 1329.82 Q808.799 1334.47 810.767 1337.15 Q812.757 1339.82 816.206 1339.82 Q819.609 1339.82 821.6 1337.13 Q823.591 1334.45 823.591 1329.82 Q823.591 1325.21 821.6 1322.52 Q819.609 1319.82 816.206 1319.82 M816.206 1316.2 Q821.762 1316.2 824.933 1319.82 Q828.104 1323.43 828.104 1329.82 Q828.104 1336.18 824.933 1339.82 Q821.762 1343.43 816.206 1343.43 Q810.628 1343.43 807.456 1339.82 Q804.308 1336.18 804.308 1329.82 Q804.308 1323.43 807.456 1319.82 Q810.628 1316.2 816.206 1316.2 Z" fill="#000000" fill-rule="nonzero" fill-opacity="1" /><path clip-path="url(#clip020)" d="M835.165 1316.83 L839.424 1316.83 L839.424 1342.76 L835.165 1342.76 L835.165 1316.83 M835.165 1306.74 L839.424 1306.74 L839.424 1312.13 L835.165 1312.13 L835.165 1306.74 Z" fill="#000000" fill-rule="nonzero" fill-opacity="1" /><path clip-path="url(#clip020)" d="M864.863 1317.59 L864.863 1321.62 Q863.058 1320.7 861.113 1320.23 Q859.169 1319.77 857.086 1319.77 Q853.914 1319.77 852.317 1320.74 Q850.743 1321.71 850.743 1323.66 Q850.743 1325.14 851.877 1326 Q853.012 1326.83 856.438 1327.59 L857.896 1327.92 Q862.433 1328.89 864.331 1330.67 Q866.252 1332.43 866.252 1335.6 Q866.252 1339.21 863.382 1341.32 Q860.535 1343.43 855.535 1343.43 Q853.451 1343.43 851.183 1343.01 Q848.938 1342.62 846.438 1341.81 L846.438 1337.41 Q848.799 1338.63 851.09 1339.26 Q853.382 1339.86 855.627 1339.86 Q858.637 1339.86 860.257 1338.84 Q861.877 1337.8 861.877 1335.93 Q861.877 1334.19 860.697 1333.26 Q859.539 1332.34 855.581 1331.48 L854.1 1331.14 Q850.141 1330.3 848.382 1328.59 Q846.623 1326.85 846.623 1323.84 Q846.623 1320.19 849.215 1318.2 Q851.808 1316.2 856.576 1316.2 Q858.938 1316.2 861.021 1316.55 Q863.104 1316.9 864.863 1317.59 Z" fill="#000000" fill-rule="nonzero" fill-opacity="1" /><path clip-path="url(#clip020)" d="M895.211 1328.73 L895.211 1330.81 L875.627 1330.81 Q875.905 1335.21 878.266 1337.52 Q880.65 1339.82 884.887 1339.82 Q887.34 1339.82 889.632 1339.21 Q891.947 1338.61 894.215 1337.41 L894.215 1341.44 Q891.924 1342.41 889.516 1342.92 Q887.109 1343.43 884.632 1343.43 Q878.428 1343.43 874.794 1339.82 Q871.183 1336.2 871.183 1330.05 Q871.183 1323.68 874.609 1319.95 Q878.058 1316.2 883.891 1316.2 Q889.123 1316.2 892.155 1319.58 Q895.211 1322.94 895.211 1328.73 M890.951 1327.48 Q890.905 1323.98 888.984 1321.9 Q887.086 1319.82 883.937 1319.82 Q880.373 1319.82 878.22 1321.83 Q876.09 1323.84 875.766 1327.5 L890.951 1327.48 Z" fill="#000000" fill-rule="nonzero" fill-opacity="1" /></svg>
