<?xml version="1.0" encoding="utf-8"?>
<svg xmlns="http://www.w3.org/2000/svg" xmlns:xlink="http://www.w3.org/1999/xlink" width="600" height="400" viewBox="0 0 2400 1600">
<defs>
  <clipPath id="clip960">
    <rect x="0" y="0" width="2400" height="1600"/>
  </clipPath>
</defs>
<path clip-path="url(#clip960)" d="M0 1600 L2400 1600 L2400 0 L0 0  Z" fill="#ffffff" fill-rule="evenodd" fill-opacity="1"/>
<defs>
  <clipPath id="clip961">
    <rect x="480" y="0" width="1681" height="1600"/>
  </clipPath>
</defs>
<path clip-path="url(#clip960)" d="M219.033 1423.18 L2352.76 1423.18 L2352.76 47.2441 L219.033 47.2441  Z" fill="#ffffff" fill-rule="evenodd" fill-opacity="1"/>
<defs>
  <clipPath id="clip962">
    <rect x="219" y="47" width="2135" height="1377"/>
  </clipPath>
</defs>
<polyline clip-path="url(#clip962)" style="stroke:#000000; stroke-linecap:round; stroke-linejoin:round; stroke-width:2; stroke-opacity:0.1; fill:none" points="279.421,1423.18 279.421,47.2441 "/>
<polyline clip-path="url(#clip962)" style="stroke:#000000; stroke-linecap:round; stroke-linejoin:round; stroke-width:2; stroke-opacity:0.1; fill:none" points="782.658,1423.18 782.658,47.2441 "/>
<polyline clip-path="url(#clip962)" style="stroke:#000000; stroke-linecap:round; stroke-linejoin:round; stroke-width:2; stroke-opacity:0.1; fill:none" points="1285.89,1423.18 1285.89,47.2441 "/>
<polyline clip-path="url(#clip962)" style="stroke:#000000; stroke-linecap:round; stroke-linejoin:round; stroke-width:2; stroke-opacity:0.1; fill:none" points="1789.13,1423.18 1789.13,47.2441 "/>
<polyline clip-path="url(#clip962)" style="stroke:#000000; stroke-linecap:round; stroke-linejoin:round; stroke-width:2; stroke-opacity:0.1; fill:none" points="2292.37,1423.18 2292.37,47.2441 "/>
<polyline clip-path="url(#clip960)" style="stroke:#000000; stroke-linecap:round; stroke-linejoin:round; stroke-width:4; stroke-opacity:1; fill:none" points="219.033,1423.18 2352.76,1423.18 "/>
<polyline clip-path="url(#clip960)" style="stroke:#000000; stroke-linecap:round; stroke-linejoin:round; stroke-width:4; stroke-opacity:1; fill:none" points="279.421,1423.18 279.421,1404.28 "/>
<polyline clip-path="url(#clip960)" style="stroke:#000000; stroke-linecap:round; stroke-linejoin:round; stroke-width:4; stroke-opacity:1; fill:none" points="782.658,1423.18 782.658,1404.28 "/>
<polyline clip-path="url(#clip960)" style="stroke:#000000; stroke-linecap:round; stroke-linejoin:round; stroke-width:4; stroke-opacity:1; fill:none" points="1285.89,1423.18 1285.89,1404.28 "/>
<polyline clip-path="url(#clip960)" style="stroke:#000000; stroke-linecap:round; stroke-linejoin:round; stroke-width:4; stroke-opacity:1; fill:none" points="1789.13,1423.18 1789.13,1404.28 "/>
<polyline clip-path="url(#clip960)" style="stroke:#000000; stroke-linecap:round; stroke-linejoin:round; stroke-width:4; stroke-opacity:1; fill:none" points="2292.37,1423.18 2292.37,1404.28 "/>
<path clip-path="url(#clip960)" d="M241.725 1454.1 Q238.114 1454.1 236.285 1457.66 Q234.479 1461.2 234.479 1468.33 Q234.479 1475.44 236.285 1479.01 Q238.114 1482.55 241.725 1482.55 Q245.359 1482.55 247.165 1479.01 Q248.993 1475.44 248.993 1468.33 Q248.993 1461.2 247.165 1457.66 Q245.359 1454.1 241.725 1454.1 M241.725 1450.39 Q247.535 1450.39 250.59 1455 Q253.669 1459.58 253.669 1468.33 Q253.669 1477.06 250.59 1481.67 Q247.535 1486.25 241.725 1486.25 Q235.915 1486.25 232.836 1481.67 Q229.78 1477.06 229.78 1468.33 Q229.78 1459.58 232.836 1455 Q235.915 1450.39 241.725 1450.39 Z" fill="#000000" fill-rule="nonzero" fill-opacity="1" /><path clip-path="url(#clip960)" d="M261.887 1479.7 L266.771 1479.7 L266.771 1485.58 L261.887 1485.58 L261.887 1479.7 Z" fill="#000000" fill-rule="nonzero" fill-opacity="1" /><path clip-path="url(#clip960)" d="M286.956 1454.1 Q283.345 1454.1 281.516 1457.66 Q279.711 1461.2 279.711 1468.33 Q279.711 1475.44 281.516 1479.01 Q283.345 1482.55 286.956 1482.55 Q290.59 1482.55 292.396 1479.01 Q294.224 1475.44 294.224 1468.33 Q294.224 1461.2 292.396 1457.66 Q290.59 1454.1 286.956 1454.1 M286.956 1450.39 Q292.766 1450.39 295.822 1455 Q298.9 1459.58 298.9 1468.33 Q298.9 1477.06 295.822 1481.67 Q292.766 1486.25 286.956 1486.25 Q281.146 1486.25 278.067 1481.67 Q275.012 1477.06 275.012 1468.33 Q275.012 1459.58 278.067 1455 Q281.146 1450.39 286.956 1450.39 Z" fill="#000000" fill-rule="nonzero" fill-opacity="1" /><path clip-path="url(#clip960)" d="M317.118 1454.1 Q313.507 1454.1 311.678 1457.66 Q309.873 1461.2 309.873 1468.33 Q309.873 1475.44 311.678 1479.01 Q313.507 1482.55 317.118 1482.55 Q320.752 1482.55 322.558 1479.01 Q324.386 1475.44 324.386 1468.33 Q324.386 1461.2 322.558 1457.66 Q320.752 1454.1 317.118 1454.1 M317.118 1450.39 Q322.928 1450.39 325.984 1455 Q329.062 1459.58 329.062 1468.33 Q329.062 1477.06 325.984 1481.67 Q322.928 1486.25 317.118 1486.25 Q311.308 1486.25 308.229 1481.67 Q305.173 1477.06 305.173 1468.33 Q305.173 1459.58 308.229 1455 Q311.308 1450.39 317.118 1450.39 Z" fill="#000000" fill-rule="nonzero" fill-opacity="1" /><path clip-path="url(#clip960)" d="M745.459 1454.1 Q741.848 1454.1 740.019 1457.66 Q738.214 1461.2 738.214 1468.33 Q738.214 1475.44 740.019 1479.01 Q741.848 1482.55 745.459 1482.55 Q749.093 1482.55 750.899 1479.01 Q752.727 1475.44 752.727 1468.33 Q752.727 1461.2 750.899 1457.66 Q749.093 1454.1 745.459 1454.1 M745.459 1450.39 Q751.269 1450.39 754.325 1455 Q757.403 1459.58 757.403 1468.33 Q757.403 1477.06 754.325 1481.67 Q751.269 1486.25 745.459 1486.25 Q739.649 1486.25 736.57 1481.67 Q733.515 1477.06 733.515 1468.33 Q733.515 1459.58 736.57 1455 Q739.649 1450.39 745.459 1450.39 Z" fill="#000000" fill-rule="nonzero" fill-opacity="1" /><path clip-path="url(#clip960)" d="M765.621 1479.7 L770.505 1479.7 L770.505 1485.58 L765.621 1485.58 L765.621 1479.7 Z" fill="#000000" fill-rule="nonzero" fill-opacity="1" /><path clip-path="url(#clip960)" d="M784.718 1481.64 L801.037 1481.64 L801.037 1485.58 L779.093 1485.58 L779.093 1481.64 Q781.755 1478.89 786.338 1474.26 Q790.945 1469.61 792.125 1468.27 Q794.371 1465.74 795.25 1464.01 Q796.153 1462.25 796.153 1460.56 Q796.153 1457.8 794.209 1456.07 Q792.287 1454.33 789.186 1454.33 Q786.987 1454.33 784.533 1455.09 Q782.102 1455.86 779.325 1457.41 L779.325 1452.69 Q782.149 1451.55 784.602 1450.97 Q787.056 1450.39 789.093 1450.39 Q794.463 1450.39 797.658 1453.08 Q800.852 1455.77 800.852 1460.26 Q800.852 1462.39 800.042 1464.31 Q799.255 1466.2 797.149 1468.8 Q796.57 1469.47 793.468 1472.69 Q790.366 1475.88 784.718 1481.64 Z" fill="#000000" fill-rule="nonzero" fill-opacity="1" /><path clip-path="url(#clip960)" d="M810.898 1451.02 L829.255 1451.02 L829.255 1454.96 L815.181 1454.96 L815.181 1463.43 Q816.199 1463.08 817.218 1462.92 Q818.236 1462.73 819.255 1462.73 Q825.042 1462.73 828.422 1465.9 Q831.801 1469.08 831.801 1474.49 Q831.801 1480.07 828.329 1483.17 Q824.857 1486.25 818.537 1486.25 Q816.361 1486.25 814.093 1485.88 Q811.848 1485.51 809.44 1484.77 L809.44 1480.07 Q811.523 1481.2 813.746 1481.76 Q815.968 1482.32 818.445 1482.32 Q822.449 1482.32 824.787 1480.21 Q827.125 1478.1 827.125 1474.49 Q827.125 1470.88 824.787 1468.77 Q822.449 1466.67 818.445 1466.67 Q816.57 1466.67 814.695 1467.08 Q812.843 1467.5 810.898 1468.38 L810.898 1451.02 Z" fill="#000000" fill-rule="nonzero" fill-opacity="1" /><path clip-path="url(#clip960)" d="M1248.2 1454.1 Q1244.59 1454.1 1242.76 1457.66 Q1240.95 1461.2 1240.95 1468.33 Q1240.95 1475.44 1242.76 1479.01 Q1244.59 1482.55 1248.2 1482.55 Q1251.83 1482.55 1253.64 1479.01 Q1255.47 1475.44 1255.47 1468.33 Q1255.47 1461.2 1253.64 1457.66 Q1251.83 1454.1 1248.2 1454.1 M1248.2 1450.39 Q1254.01 1450.39 1257.06 1455 Q1260.14 1459.58 1260.14 1468.33 Q1260.14 1477.06 1257.06 1481.67 Q1254.01 1486.25 1248.2 1486.25 Q1242.39 1486.25 1239.31 1481.67 Q1236.25 1477.06 1236.25 1468.33 Q1236.25 1459.58 1239.31 1455 Q1242.39 1450.39 1248.2 1450.39 Z" fill="#000000" fill-rule="nonzero" fill-opacity="1" /><path clip-path="url(#clip960)" d="M1268.36 1479.7 L1273.24 1479.7 L1273.24 1485.58 L1268.36 1485.58 L1268.36 1479.7 Z" fill="#000000" fill-rule="nonzero" fill-opacity="1" /><path clip-path="url(#clip960)" d="M1283.48 1451.02 L1301.83 1451.02 L1301.83 1454.96 L1287.76 1454.96 L1287.76 1463.43 Q1288.78 1463.08 1289.79 1462.92 Q1290.81 1462.73 1291.83 1462.73 Q1297.62 1462.73 1301 1465.9 Q1304.38 1469.08 1304.38 1474.49 Q1304.38 1480.07 1300.91 1483.17 Q1297.43 1486.25 1291.11 1486.25 Q1288.94 1486.25 1286.67 1485.88 Q1284.42 1485.51 1282.02 1484.77 L1282.02 1480.07 Q1284.1 1481.2 1286.32 1481.76 Q1288.54 1482.32 1291.02 1482.32 Q1295.03 1482.32 1297.36 1480.21 Q1299.7 1478.1 1299.7 1474.49 Q1299.7 1470.88 1297.36 1468.77 Q1295.03 1466.67 1291.02 1466.67 Q1289.15 1466.67 1287.27 1467.08 Q1285.42 1467.5 1283.48 1468.38 L1283.48 1451.02 Z" fill="#000000" fill-rule="nonzero" fill-opacity="1" /><path clip-path="url(#clip960)" d="M1323.59 1454.1 Q1319.98 1454.1 1318.15 1457.66 Q1316.35 1461.2 1316.35 1468.33 Q1316.35 1475.44 1318.15 1479.01 Q1319.98 1482.55 1323.59 1482.55 Q1327.23 1482.55 1329.03 1479.01 Q1330.86 1475.44 1330.86 1468.33 Q1330.86 1461.2 1329.03 1457.66 Q1327.23 1454.1 1323.59 1454.1 M1323.59 1450.39 Q1329.4 1450.39 1332.46 1455 Q1335.54 1459.58 1335.54 1468.33 Q1335.54 1477.06 1332.46 1481.67 Q1329.4 1486.25 1323.59 1486.25 Q1317.78 1486.25 1314.7 1481.67 Q1311.65 1477.06 1311.65 1468.33 Q1311.65 1459.58 1314.7 1455 Q1317.78 1450.39 1323.59 1450.39 Z" fill="#000000" fill-rule="nonzero" fill-opacity="1" /><path clip-path="url(#clip960)" d="M1751.93 1454.1 Q1748.32 1454.1 1746.49 1457.66 Q1744.69 1461.2 1744.69 1468.33 Q1744.69 1475.44 1746.49 1479.01 Q1748.32 1482.55 1751.93 1482.55 Q1755.57 1482.55 1757.37 1479.01 Q1759.2 1475.44 1759.2 1468.33 Q1759.2 1461.2 1757.37 1457.66 Q1755.57 1454.1 1751.93 1454.1 M1751.93 1450.39 Q1757.74 1450.39 1760.8 1455 Q1763.88 1459.58 1763.88 1468.33 Q1763.88 1477.06 1760.8 1481.67 Q1757.74 1486.25 1751.93 1486.25 Q1746.12 1486.25 1743.04 1481.67 Q1739.99 1477.06 1739.99 1468.33 Q1739.99 1459.58 1743.04 1455 Q1746.12 1450.39 1751.93 1450.39 Z" fill="#000000" fill-rule="nonzero" fill-opacity="1" /><path clip-path="url(#clip960)" d="M1772.09 1479.7 L1776.98 1479.7 L1776.98 1485.58 L1772.09 1485.58 L1772.09 1479.7 Z" fill="#000000" fill-rule="nonzero" fill-opacity="1" /><path clip-path="url(#clip960)" d="M1785.98 1451.02 L1808.2 1451.02 L1808.2 1453.01 L1795.66 1485.58 L1790.77 1485.58 L1802.58 1454.96 L1785.98 1454.96 L1785.98 1451.02 Z" fill="#000000" fill-rule="nonzero" fill-opacity="1" /><path clip-path="url(#clip960)" d="M1817.37 1451.02 L1835.73 1451.02 L1835.73 1454.96 L1821.65 1454.96 L1821.65 1463.43 Q1822.67 1463.08 1823.69 1462.92 Q1824.71 1462.73 1825.73 1462.73 Q1831.52 1462.73 1834.89 1465.9 Q1838.27 1469.08 1838.27 1474.49 Q1838.27 1480.07 1834.8 1483.17 Q1831.33 1486.25 1825.01 1486.25 Q1822.83 1486.25 1820.57 1485.88 Q1818.32 1485.51 1815.91 1484.77 L1815.91 1480.07 Q1818 1481.2 1820.22 1481.76 Q1822.44 1482.32 1824.92 1482.32 Q1828.92 1482.32 1831.26 1480.21 Q1833.6 1478.1 1833.6 1474.49 Q1833.6 1470.88 1831.26 1468.77 Q1828.92 1466.67 1824.92 1466.67 Q1823.04 1466.67 1821.17 1467.08 Q1819.32 1467.5 1817.37 1468.38 L1817.37 1451.02 Z" fill="#000000" fill-rule="nonzero" fill-opacity="1" /><path clip-path="url(#clip960)" d="M2244.44 1481.64 L2252.08 1481.64 L2252.08 1455.28 L2243.77 1456.95 L2243.77 1452.69 L2252.03 1451.02 L2256.71 1451.02 L2256.71 1481.64 L2264.35 1481.64 L2264.35 1485.58 L2244.44 1485.58 L2244.44 1481.64 Z" fill="#000000" fill-rule="nonzero" fill-opacity="1" /><path clip-path="url(#clip960)" d="M2273.79 1479.7 L2278.68 1479.7 L2278.68 1485.58 L2273.79 1485.58 L2273.79 1479.7 Z" fill="#000000" fill-rule="nonzero" fill-opacity="1" /><path clip-path="url(#clip960)" d="M2298.86 1454.1 Q2295.25 1454.1 2293.42 1457.66 Q2291.62 1461.2 2291.62 1468.33 Q2291.62 1475.44 2293.42 1479.01 Q2295.25 1482.55 2298.86 1482.55 Q2302.49 1482.55 2304.3 1479.01 Q2306.13 1475.44 2306.13 1468.33 Q2306.13 1461.2 2304.3 1457.66 Q2302.49 1454.1 2298.86 1454.1 M2298.86 1450.39 Q2304.67 1450.39 2307.73 1455 Q2310.8 1459.58 2310.8 1468.33 Q2310.8 1477.06 2307.73 1481.67 Q2304.67 1486.25 2298.86 1486.25 Q2293.05 1486.25 2289.97 1481.67 Q2286.92 1477.06 2286.92 1468.33 Q2286.92 1459.58 2289.97 1455 Q2293.05 1450.39 2298.86 1450.39 Z" fill="#000000" fill-rule="nonzero" fill-opacity="1" /><path clip-path="url(#clip960)" d="M2329.02 1454.1 Q2325.41 1454.1 2323.58 1457.66 Q2321.78 1461.2 2321.78 1468.33 Q2321.78 1475.44 2323.58 1479.01 Q2325.41 1482.55 2329.02 1482.55 Q2332.66 1482.55 2334.46 1479.01 Q2336.29 1475.44 2336.29 1468.33 Q2336.29 1461.2 2334.46 1457.66 Q2332.66 1454.1 2329.02 1454.1 M2329.02 1450.39 Q2334.83 1450.39 2337.89 1455 Q2340.97 1459.58 2340.97 1468.33 Q2340.97 1477.06 2337.89 1481.67 Q2334.83 1486.25 2329.02 1486.25 Q2323.21 1486.25 2320.13 1481.67 Q2317.08 1477.06 2317.08 1468.33 Q2317.08 1459.58 2320.13 1455 Q2323.21 1450.39 2329.02 1450.39 Z" fill="#000000" fill-rule="nonzero" fill-opacity="1" /><path clip-path="url(#clip960)" d="M1294.37 1531.91 Q1294.37 1532.81 1293.95 1533.04 Q1293.53 1533.23 1292.37 1533.23 L1286.19 1533.23 L1281.29 1552.69 Q1280.9 1554.39 1280.9 1555.84 Q1280.9 1557.45 1281.39 1558.16 Q1281.9 1558.87 1282.96 1558.87 Q1285.06 1558.87 1287.31 1556.97 Q1289.6 1555.07 1291.53 1550.43 Q1291.79 1549.82 1291.92 1549.69 Q1292.08 1549.53 1292.5 1549.53 Q1293.3 1549.53 1293.3 1550.17 Q1293.3 1550.4 1292.85 1551.43 Q1292.43 1552.46 1291.5 1553.97 Q1290.6 1555.49 1289.41 1556.9 Q1288.25 1558.32 1286.47 1559.35 Q1284.7 1560.35 1282.8 1560.35 Q1280.13 1560.35 1278.42 1558.64 Q1276.75 1556.94 1276.75 1554.26 Q1276.75 1553.39 1277.43 1550.62 Q1278.1 1547.82 1281.77 1533.23 L1275.94 1533.23 Q1275.14 1533.23 1274.82 1533.2 Q1274.53 1533.17 1274.3 1533.01 Q1274.11 1532.81 1274.11 1532.43 Q1274.11 1531.82 1274.37 1531.56 Q1274.62 1531.27 1274.95 1531.24 Q1275.3 1531.17 1276.1 1531.17 L1282.29 1531.17 L1284.86 1520.71 Q1285.12 1519.67 1285.77 1519.09 Q1286.44 1518.48 1286.83 1518.42 Q1287.22 1518.32 1287.51 1518.32 Q1288.38 1518.32 1288.89 1518.81 Q1289.41 1519.26 1289.41 1520.09 Q1289.41 1520.54 1286.7 1531.17 L1292.5 1531.17 Q1293.24 1531.17 1293.53 1531.2 Q1293.85 1531.24 1294.11 1531.4 Q1294.37 1531.56 1294.37 1531.91 Z" fill="#000000" fill-rule="nonzero" fill-opacity="1" /><polyline clip-path="url(#clip962)" style="stroke:#000000; stroke-linecap:round; stroke-linejoin:round; stroke-width:2; stroke-opacity:0.1; fill:none" points="219.033,1371.45 2352.76,1371.45 "/>
<polyline clip-path="url(#clip962)" style="stroke:#000000; stroke-linecap:round; stroke-linejoin:round; stroke-width:2; stroke-opacity:0.1; fill:none" points="219.033,1081.87 2352.76,1081.87 "/>
<polyline clip-path="url(#clip962)" style="stroke:#000000; stroke-linecap:round; stroke-linejoin:round; stroke-width:2; stroke-opacity:0.1; fill:none" points="219.033,792.286 2352.76,792.286 "/>
<polyline clip-path="url(#clip962)" style="stroke:#000000; stroke-linecap:round; stroke-linejoin:round; stroke-width:2; stroke-opacity:0.1; fill:none" points="219.033,502.704 2352.76,502.704 "/>
<polyline clip-path="url(#clip962)" style="stroke:#000000; stroke-linecap:round; stroke-linejoin:round; stroke-width:2; stroke-opacity:0.1; fill:none" points="219.033,213.122 2352.76,213.122 "/>
<polyline clip-path="url(#clip960)" style="stroke:#000000; stroke-linecap:round; stroke-linejoin:round; stroke-width:4; stroke-opacity:1; fill:none" points="219.033,1423.18 219.033,47.2441 "/>
<polyline clip-path="url(#clip960)" style="stroke:#000000; stroke-linecap:round; stroke-linejoin:round; stroke-width:4; stroke-opacity:1; fill:none" points="219.033,1371.45 237.931,1371.45 "/>
<polyline clip-path="url(#clip960)" style="stroke:#000000; stroke-linecap:round; stroke-linejoin:round; stroke-width:4; stroke-opacity:1; fill:none" points="219.033,1081.87 237.931,1081.87 "/>
<polyline clip-path="url(#clip960)" style="stroke:#000000; stroke-linecap:round; stroke-linejoin:round; stroke-width:4; stroke-opacity:1; fill:none" points="219.033,792.286 237.931,792.286 "/>
<polyline clip-path="url(#clip960)" style="stroke:#000000; stroke-linecap:round; stroke-linejoin:round; stroke-width:4; stroke-opacity:1; fill:none" points="219.033,502.704 237.931,502.704 "/>
<polyline clip-path="url(#clip960)" style="stroke:#000000; stroke-linecap:round; stroke-linejoin:round; stroke-width:4; stroke-opacity:1; fill:none" points="219.033,213.122 237.931,213.122 "/>
<path clip-path="url(#clip960)" d="M116.668 1384.79 L124.306 1384.79 L124.306 1358.43 L115.996 1360.1 L115.996 1355.84 L124.26 1354.17 L128.936 1354.17 L128.936 1384.79 L136.575 1384.79 L136.575 1388.73 L116.668 1388.73 L116.668 1384.79 Z" fill="#000000" fill-rule="nonzero" fill-opacity="1" /><path clip-path="url(#clip960)" d="M146.019 1382.85 L150.903 1382.85 L150.903 1388.73 L146.019 1388.73 L146.019 1382.85 Z" fill="#000000" fill-rule="nonzero" fill-opacity="1" /><path clip-path="url(#clip960)" d="M171.089 1357.25 Q167.477 1357.25 165.649 1360.81 Q163.843 1364.36 163.843 1371.48 Q163.843 1378.59 165.649 1382.16 Q167.477 1385.7 171.089 1385.7 Q174.723 1385.7 176.528 1382.16 Q178.357 1378.59 178.357 1371.48 Q178.357 1364.36 176.528 1360.81 Q174.723 1357.25 171.089 1357.25 M171.089 1353.54 Q176.899 1353.54 179.954 1358.15 Q183.033 1362.73 183.033 1371.48 Q183.033 1380.21 179.954 1384.82 Q176.899 1389.4 171.089 1389.4 Q165.278 1389.4 162.2 1384.82 Q159.144 1380.21 159.144 1371.48 Q159.144 1362.73 162.2 1358.15 Q165.278 1353.54 171.089 1353.54 Z" fill="#000000" fill-rule="nonzero" fill-opacity="1" /><path clip-path="url(#clip960)" d="M117.663 1095.21 L125.302 1095.21 L125.302 1068.85 L116.992 1070.51 L116.992 1066.25 L125.255 1064.59 L129.931 1064.59 L129.931 1095.21 L137.57 1095.21 L137.57 1099.15 L117.663 1099.15 L117.663 1095.21 Z" fill="#000000" fill-rule="nonzero" fill-opacity="1" /><path clip-path="url(#clip960)" d="M147.015 1093.27 L151.899 1093.27 L151.899 1099.15 L147.015 1099.15 L147.015 1093.27 Z" fill="#000000" fill-rule="nonzero" fill-opacity="1" /><path clip-path="url(#clip960)" d="M162.13 1064.59 L180.487 1064.59 L180.487 1068.52 L166.413 1068.52 L166.413 1077 Q167.431 1076.65 168.45 1076.49 Q169.468 1076.3 170.487 1076.3 Q176.274 1076.3 179.653 1079.47 Q183.033 1082.64 183.033 1088.06 Q183.033 1093.64 179.561 1096.74 Q176.089 1099.82 169.769 1099.82 Q167.593 1099.82 165.325 1099.45 Q163.079 1099.08 160.672 1098.34 L160.672 1093.64 Q162.755 1094.77 164.977 1095.33 Q167.2 1095.88 169.677 1095.88 Q173.681 1095.88 176.019 1093.78 Q178.357 1091.67 178.357 1088.06 Q178.357 1084.45 176.019 1082.34 Q173.681 1080.24 169.677 1080.24 Q167.802 1080.24 165.927 1080.65 Q164.075 1081.07 162.13 1081.95 L162.13 1064.59 Z" fill="#000000" fill-rule="nonzero" fill-opacity="1" /><path clip-path="url(#clip960)" d="M119.885 805.631 L136.204 805.631 L136.204 809.566 L114.26 809.566 L114.26 805.631 Q116.922 802.876 121.505 798.246 Q126.112 793.594 127.292 792.251 Q129.538 789.728 130.417 787.992 Q131.32 786.233 131.32 784.543 Q131.32 781.788 129.376 780.052 Q127.455 778.316 124.353 778.316 Q122.154 778.316 119.7 779.08 Q117.269 779.844 114.492 781.395 L114.492 776.672 Q117.316 775.538 119.769 774.959 Q122.223 774.381 124.26 774.381 Q129.63 774.381 132.825 777.066 Q136.019 779.751 136.019 784.242 Q136.019 786.371 135.209 788.293 Q134.422 790.191 132.316 792.783 Q131.737 793.455 128.635 796.672 Q125.533 799.867 119.885 805.631 Z" fill="#000000" fill-rule="nonzero" fill-opacity="1" /><path clip-path="url(#clip960)" d="M146.019 803.686 L150.903 803.686 L150.903 809.566 L146.019 809.566 L146.019 803.686 Z" fill="#000000" fill-rule="nonzero" fill-opacity="1" /><path clip-path="url(#clip960)" d="M171.089 778.084 Q167.477 778.084 165.649 781.649 Q163.843 785.191 163.843 792.32 Q163.843 799.427 165.649 802.992 Q167.477 806.533 171.089 806.533 Q174.723 806.533 176.528 802.992 Q178.357 799.427 178.357 792.32 Q178.357 785.191 176.528 781.649 Q174.723 778.084 171.089 778.084 M171.089 774.381 Q176.899 774.381 179.954 778.987 Q183.033 783.571 183.033 792.32 Q183.033 801.047 179.954 805.654 Q176.899 810.237 171.089 810.237 Q165.278 810.237 162.2 805.654 Q159.144 801.047 159.144 792.32 Q159.144 783.571 162.2 778.987 Q165.278 774.381 171.089 774.381 Z" fill="#000000" fill-rule="nonzero" fill-opacity="1" /><path clip-path="url(#clip960)" d="M120.88 516.049 L137.2 516.049 L137.2 519.984 L115.256 519.984 L115.256 516.049 Q117.918 513.294 122.501 508.664 Q127.107 504.012 128.288 502.669 Q130.533 500.146 131.413 498.41 Q132.316 496.65 132.316 494.961 Q132.316 492.206 130.371 490.47 Q128.45 488.734 125.348 488.734 Q123.149 488.734 120.695 489.498 Q118.265 490.262 115.487 491.813 L115.487 487.09 Q118.311 485.956 120.765 485.377 Q123.218 484.799 125.255 484.799 Q130.626 484.799 133.82 487.484 Q137.015 490.169 137.015 494.66 Q137.015 496.789 136.204 498.711 Q135.417 500.609 133.311 503.201 Q132.732 503.873 129.63 507.09 Q126.529 510.285 120.88 516.049 Z" fill="#000000" fill-rule="nonzero" fill-opacity="1" /><path clip-path="url(#clip960)" d="M147.015 514.104 L151.899 514.104 L151.899 519.984 L147.015 519.984 L147.015 514.104 Z" fill="#000000" fill-rule="nonzero" fill-opacity="1" /><path clip-path="url(#clip960)" d="M162.13 485.424 L180.487 485.424 L180.487 489.359 L166.413 489.359 L166.413 497.831 Q167.431 497.484 168.45 497.322 Q169.468 497.137 170.487 497.137 Q176.274 497.137 179.653 500.308 Q183.033 503.479 183.033 508.896 Q183.033 514.474 179.561 517.576 Q176.089 520.655 169.769 520.655 Q167.593 520.655 165.325 520.285 Q163.079 519.914 160.672 519.174 L160.672 514.474 Q162.755 515.609 164.977 516.164 Q167.2 516.72 169.677 516.72 Q173.681 516.72 176.019 514.613 Q178.357 512.507 178.357 508.896 Q178.357 505.285 176.019 503.178 Q173.681 501.072 169.677 501.072 Q167.802 501.072 165.927 501.488 Q164.075 501.905 162.13 502.785 L162.13 485.424 Z" fill="#000000" fill-rule="nonzero" fill-opacity="1" /><path clip-path="url(#clip960)" d="M130.024 211.767 Q133.38 212.485 135.255 214.754 Q137.154 217.022 137.154 220.355 Q137.154 225.471 133.635 228.272 Q130.117 231.073 123.635 231.073 Q121.459 231.073 119.144 230.633 Q116.853 230.216 114.399 229.36 L114.399 224.846 Q116.343 225.98 118.658 226.559 Q120.973 227.138 123.496 227.138 Q127.894 227.138 130.186 225.402 Q132.501 223.666 132.501 220.355 Q132.501 217.3 130.348 215.587 Q128.218 213.851 124.399 213.851 L120.371 213.851 L120.371 210.008 L124.584 210.008 Q128.033 210.008 129.862 208.642 Q131.691 207.254 131.691 204.661 Q131.691 201.999 129.792 200.587 Q127.917 199.152 124.399 199.152 Q122.478 199.152 120.279 199.568 Q118.08 199.985 115.441 200.865 L115.441 196.698 Q118.103 195.957 120.418 195.587 Q122.755 195.217 124.816 195.217 Q130.14 195.217 133.242 197.647 Q136.343 200.055 136.343 204.175 Q136.343 207.045 134.7 209.036 Q133.056 211.004 130.024 211.767 Z" fill="#000000" fill-rule="nonzero" fill-opacity="1" /><path clip-path="url(#clip960)" d="M146.019 224.522 L150.903 224.522 L150.903 230.402 L146.019 230.402 L146.019 224.522 Z" fill="#000000" fill-rule="nonzero" fill-opacity="1" /><path clip-path="url(#clip960)" d="M171.089 198.92 Q167.477 198.92 165.649 202.485 Q163.843 206.027 163.843 213.156 Q163.843 220.263 165.649 223.828 Q167.477 227.369 171.089 227.369 Q174.723 227.369 176.528 223.828 Q178.357 220.263 178.357 213.156 Q178.357 206.027 176.528 202.485 Q174.723 198.92 171.089 198.92 M171.089 195.217 Q176.899 195.217 179.954 199.823 Q183.033 204.406 183.033 213.156 Q183.033 221.883 179.954 226.49 Q176.899 231.073 171.089 231.073 Q165.278 231.073 162.2 226.49 Q159.144 221.883 159.144 213.156 Q159.144 204.406 162.2 199.823 Q165.278 195.217 171.089 195.217 Z" fill="#000000" fill-rule="nonzero" fill-opacity="1" /><path clip-path="url(#clip960)" d="M30.8561 720.775 Q31.307 720.775 32.3698 721.064 L57.5548 727.377 Q63.1586 728.762 67.0877 733.27 Q71.0168 737.747 71.0168 742.836 Q71.0168 745.895 69.3743 747.86 Q67.764 749.824 65.2842 749.824 Q63.0942 749.824 62.0314 748.665 Q61.0008 747.505 61.0008 746.121 Q61.0008 745.67 61.1296 745.187 Q61.2584 744.703 61.8059 744.188 Q62.3534 743.673 63.2874 743.673 Q64.8011 743.673 65.9927 744.993 Q66.5402 745.637 66.669 746.249 Q66.7978 746.829 66.7978 747.827 Q67.6996 747.441 68.3115 746.732 Q68.9234 746.024 69.1489 745.219 Q69.4065 744.414 69.4709 743.898 Q69.5675 743.351 69.5675 742.836 Q69.5675 738.713 65.413 735.557 Q64.157 734.623 62.9009 733.947 Q61.6771 733.238 60.1634 732.723 Q58.682 732.208 57.8768 731.982 Q57.0717 731.725 55.2359 731.274 Q58.2311 734.269 58.2311 737.94 Q58.2311 739.486 57.8124 740.871 Q57.3937 742.224 56.5242 743.415 Q55.6224 744.607 54.0443 745.315 Q52.4662 745.992 50.3728 745.992 Q48.1506 745.992 45.1233 745.122 Q42.0959 744.253 36.5243 742.159 Q33.4004 741.032 31.8867 741.032 Q31.146 741.032 30.6951 741.193 Q30.212 741.354 30.051 741.676 Q29.8577 741.998 29.8255 742.191 Q29.7933 742.352 29.7933 742.675 Q29.7933 744.575 31.7257 746.346 Q33.658 748.117 37.9736 749.341 Q38.7787 749.599 38.972 749.76 Q39.1652 749.921 39.1652 750.404 Q39.133 751.209 38.4889 751.209 Q38.2312 751.209 37.2329 750.919 Q36.2023 750.629 34.6886 749.953 Q33.1427 749.245 31.7579 748.278 Q30.3408 747.312 29.3424 745.798 Q28.344 744.253 28.344 742.481 Q28.344 740.066 29.9221 738.584 Q31.468 737.071 33.7546 737.071 Q34.6886 737.071 35.5259 737.328 Q36.3311 737.554 38.4889 738.391 Q47.1845 741.773 51.4356 741.773 Q52.4662 741.773 53.3358 741.612 Q54.1731 741.418 55.0105 741 Q55.8156 740.581 56.2987 739.744 Q56.7496 738.874 56.7496 737.683 Q56.7496 736.169 56.0411 734.752 Q55.3003 733.303 54.302 732.401 Q53.3036 731.467 52.4662 730.919 Q51.5967 730.34 51.1458 730.211 L39.294 727.248 L34.0123 725.927 Q31.146 725.316 30.4374 725.026 Q29.7611 724.639 29.4068 723.963 Q29.0526 723.287 29.0526 722.707 Q29.0526 721.902 29.5357 721.354 Q30.0187 720.775 30.8561 720.775 Z" fill="#000000" fill-rule="nonzero" fill-opacity="1" /><polyline clip-path="url(#clip962)" style="stroke:#e26f46; stroke-linecap:round; stroke-linejoin:round; stroke-width:8; stroke-opacity:1; fill:none" stroke-dasharray="32, 20" points="279.421,1371.45 283.353,1374.97 287.284,1383.25 291.216,1384.24 295.147,1377.75 299.079,1363.88 303.011,1361.9 306.942,1358.38 310.874,1359.24 314.805,1350.22 318.737,1351.8 322.668,1342.63 326.6,1338.38 330.531,1328.44 334.463,1332.72 338.394,1331.2 342.326,1326.28 346.257,1320.74 350.189,1324.93 354.12,1315.03 358.052,1303.83 361.984,1308.05 365.915,1303.81 369.847,1298.71 373.778,1301.06 377.71,1300.44 381.641,1292.91 385.573,1300.57 389.504,1294.3 393.436,1284.78 397.367,1280.27 401.299,1275.42 405.23,1272.53 409.162,1270.95 413.094,1282.46 417.025,1279.29 420.957,1289.96 424.888,1288.85 428.82,1285.15 432.751,1294.52 436.683,1291.36 440.614,1283.26 444.546,1289.09 448.477,1295.99 452.409,1292.04 456.34,1288.57 460.272,1279.65 464.203,1280.7 468.135,1285.61 472.067,1284.13 475.998,1294.86 479.93,1288.33 483.861,1280.43 487.793,1278.76 491.724,1275.88 495.656,1285.28 499.587,1294.9 503.519,1298.21 507.45,1294.94 511.382,1297.09 515.313,1298.02 519.245,1293.67 523.177,1301.08 527.108,1316.97 531.04,1314.54 534.971,1320.2 538.903,1323.87 542.834,1318.17 546.766,1312.38 550.697,1315.82 554.629,1319.13 558.56,1316.06 562.492,1312.91 566.423,1306.71 570.355,1306.68 574.286,1306.48 578.218,1306.58 582.15,1308.55 586.081,1305.49 590.013,1309.16 593.944,1300.22 597.876,1300 601.807,1306.57 605.739,1301.2 609.67,1304.5 613.602,1308.63 617.533,1307.57 621.465,1309.45 625.396,1310.8 629.328,1309.68 633.26,1317.22 637.191,1314.65 641.123,1318.57 645.054,1325.57 648.986,1327.88 652.917,1318.7 656.849,1314.73 660.78,1314.48 664.712,1323.97 668.643,1325.05 672.575,1318.62 676.506,1328.98 680.438,1333.2 684.369,1332.34 688.301,1335 692.233,1344.14 696.164,1348.31 700.096,1353.08 704.027,1345.08 707.959,1348.3 711.89,1342.1 715.822,1339.59 719.753,1335 723.685,1326.82 727.616,1318.43 731.548,1322.05 735.479,1323.84 739.411,1323.92 743.343,1323.74 747.274,1318.49 751.206,1312.05 755.137,1318.95 759.069,1300.31 763,1301.23 766.932,1300.55 770.863,1292.37 774.795,1294.19 778.726,1289.92 782.658,1296.28 786.589,1295.42 790.521,1295.26 794.452,1289.55 798.384,1290.17 802.316,1286.2 806.247,1286.14 810.179,1276.9 814.11,1279.41 818.042,1283.2 821.973,1282.04 825.905,1277.83 829.836,1278.14 833.768,1277.43 837.699,1267.41 841.631,1262.54 845.562,1253.76 849.494,1257.14 853.426,1264.08 857.357,1260.37 861.289,1254.09 865.22,1243.45 869.152,1241.09 873.083,1245.2 877.015,1242.31 880.946,1248.64 884.878,1242.46 888.809,1248 892.741,1238.71 896.672,1243.9 900.604,1231.58 904.535,1234.17 908.467,1231.04 912.399,1229.99 916.33,1235.18 920.262,1239.47 924.193,1237.8 928.125,1247.76 932.056,1241.2 935.988,1245.17 939.919,1248.64 943.851,1255.59 947.782,1250.28 951.714,1255.42 955.645,1249.02 959.577,1241.69 963.509,1239.35 967.44,1238.66 971.372,1239.46 975.303,1238.05 979.235,1239.52 983.166,1241.48 987.098,1246.69 991.029,1247.97 994.961,1238.54 998.892,1239.34 1002.82,1231.9 1006.76,1233.02 1010.69,1230.75 1014.62,1225.23 1018.55,1220.57 1022.48,1219.71 1026.41,1216.03 1030.34,1221.18 1034.28,1209.44 1038.21,1210.3 1042.14,1210.97 1046.07,1211.3 1050,1216.14 1053.93,1223.43 1057.87,1244.41 1061.8,1241.41 1065.73,1238.54 1069.66,1239.33 1073.59,1241.94 1077.52,1240.42 1081.45,1235.88 1085.39,1242.25 1089.32,1232.02 1093.25,1240.58 1097.18,1234.86 1101.11,1225.61 1105.04,1235.33 1108.98,1224.34 1112.91,1216.96 1116.84,1210.66 1120.77,1202.59 1124.7,1198.8 1128.63,1205.08 1132.56,1197.83 1136.5,1199.34 1140.43,1203.46 1144.36,1193.53 1148.29,1178.37 1152.22,1177.32 1156.15,1171.46 1160.09,1174.15 1164.02,1170.48 1167.95,1170.48 1171.88,1159.58 1175.81,1154.6 1179.74,1150.12 1183.67,1141.65 1187.61,1139.59 1191.54,1132.23 1195.47,1130.11 1199.4,1140.98 1203.33,1139.56 1207.26,1133.5 1211.2,1135.03 1215.13,1135.06 1219.06,1120.61 1222.99,1105.26 1226.92,1110.36 1230.85,1100.65 1234.78,1094.89 1238.72,1085.34 1242.65,1088.86 1246.58,1093.31 1250.51,1097.31 1254.44,1100.93 1258.37,1095.29 1262.31,1088.02 1266.24,1087.94 1270.17,1096.63 1274.1,1096.02 1278.03,1095.24 1281.96,1087.83 1285.89,1076.48 1289.83,1062.39 1293.76,1057 1297.69,1062 1301.62,1060.14 1305.55,1067.96 1309.48,1077.61 1313.42,1060.16 1317.35,1050.65 1321.28,1041.13 1325.21,1025.6 1329.14,1022.96 1333.07,1017.4 1337,1027.67 1340.94,1019.02 1344.87,1034.98 1348.8,1037.51 1352.73,1042.61 1356.66,1026.47 1360.59,1026.65 1364.53,1025.04 1368.46,1022.35 1372.39,1013.76 1376.32,1018.27 1380.25,1007.33 1384.18,999.987 1388.11,993.188 1392.05,991.454 1395.98,995.591 1399.91,985.894 1403.84,976.282 1407.77,980.83 1411.7,990.446 1415.64,974.18 1419.57,982.084 1423.5,965.585 1427.43,962.355 1431.36,947.472 1435.29,944.47 1439.22,933.711 1443.16,919.158 1447.09,907.588 1451.02,907.606 1454.95,906.987 1458.88,904.333 1462.81,912.119 1466.75,898.729 1470.68,900.226 1474.61,891.373 1478.54,892.018 1482.47,888.389 1486.4,900.675 1490.33,891.954 1494.27,907.543 1498.2,893.882 1502.13,881.34 1506.06,894.934 1509.99,892.322 1513.92,885.71 1517.86,890.501 1521.79,885.086 1525.72,882.691 1529.65,871.349 1533.58,868.572 1537.51,857.827 1541.44,869.138 1545.38,872.891 1549.31,880.453 1553.24,877.459 1557.17,870.308 1561.1,867.7 1565.03,884.134 1568.96,879.844 1572.9,881.192 1576.83,876.972 1580.76,877.567 1584.69,885.306 1588.62,886.846 1592.55,879.912 1596.49,876.963 1600.42,875.043 1604.35,895.364 1608.28,878.161 1612.21,861.975 1616.14,860.717 1620.07,845.339 1624.01,835.102 1627.94,836.709 1631.87,834.309 1635.8,845.579 1639.73,846.502 1643.66,837.797 1647.6,828.713 1651.53,842.541 1655.46,845.014 1659.39,835.309 1663.32,847.705 1667.25,844.392 1671.18,844.714 1675.12,839.912 1679.05,845.463 1682.98,841.718 1686.91,838.812 1690.84,838.384 1694.77,824.852 1698.71,822.529 1702.64,814.342 1706.57,821.489 1710.5,809.609 1714.43,801.607 1718.36,797.46 1722.29,800.944 1726.23,805.764 1730.16,792.38 1734.09,786.372 1738.02,780.44 1741.95,786.318 1745.88,753.931 1749.82,751.465 1753.75,758.418 1757.68,763.266 1761.61,760.81 1765.54,744.783 1769.47,753.686 1773.4,751.09 1777.34,743.565 1781.27,733.945 1785.2,744.005 1789.13,720.18 1793.06,731.565 1796.99,713.118 1800.93,728.585 1804.86,709.405 1808.79,704.57 1812.72,689.678 1816.65,699.858 1820.58,693.653 1824.51,677.32 1828.45,668.286 1832.38,655.437 1836.31,644.644 1840.24,637.976 1844.17,644.778 1848.1,659.355 1852.04,642.658 1855.97,647.091 1859.9,644.808 1863.83,648.146 1867.76,646.359 1871.69,648.841 1875.62,638.402 1879.56,632.777 1883.49,617.114 1887.42,617.671 1891.35,615.841 1895.28,585.831 1899.21,570.583 1903.15,570.303 1907.08,552.262 1911.01,523.921 1914.94,524.801 1918.87,520.004 1922.8,524.902 1926.73,524.677 1930.67,525.438 1934.6,501.231 1938.53,507.118 1942.46,490.553 1946.39,494.863 1950.32,483.031 1954.26,494.037 1958.19,489.17 1962.12,494.114 1966.05,494.244 1969.98,495.025 1973.91,490.203 1977.84,486.869 1981.78,489.985 1985.71,502.61 1989.64,504.287 1993.57,514.161 1997.5,521.56 2001.43,529.602 2005.37,537.908 2009.3,529.521 2013.23,529.62 2017.16,536.05 2021.09,519.816 2025.02,520.076 2028.95,530.761 2032.89,520.445 2036.82,527.591 2040.75,507.6 2044.68,470.267 2048.61,432.029 2052.54,416.013 2056.48,405.895 2060.41,405.19 2064.34,396.716 2068.27,412.082 2072.2,428.117 2076.13,406.368 2080.06,398.43 2084,396.669 2087.93,397.983 2091.86,396.751 2095.79,409.313 2099.72,395.356 2103.65,375.674 2107.59,369.384 2111.52,352.97 2115.45,373.105 2119.38,355.241 2123.31,327.12 2127.24,339.406 2131.17,328.792 2135.11,323.603 2139.04,333.076 2142.97,342.585 2146.9,342.451 2150.83,342.113 2154.76,337.604 2158.7,324.502 2162.63,324.778 2166.56,286.506 2170.49,270.985 2174.42,267.987 2178.35,261.901 2182.28,256.816 2186.22,238.113 2190.15,217.753 2194.08,227.788 2198.01,205.472 2201.94,186.39 2205.87,185.706 2209.81,188.776 2213.74,169.793 2217.67,141.016 2221.6,136.949 2225.53,129.807 2229.46,130.049 2233.39,153.125 2237.33,142.785 2241.26,136.207 2245.19,137.468 2249.12,103.116 2253.05,86.1857 2256.98,102.603 2260.92,92.5996 2264.85,102.6 2268.78,106.023 2272.71,105.969 2276.64,98.6835 2280.57,119.421 2284.5,144.485 2288.44,147.486 2292.37,136.543 "/>
<path clip-path="url(#clip960)" d="M290.157 196.789 L748.343 196.789 L748.343 93.1086 L290.157 93.1086  Z" fill="#ffffff" fill-rule="evenodd" fill-opacity="1"/>
<polyline clip-path="url(#clip960)" style="stroke:#000000; stroke-linecap:round; stroke-linejoin:round; stroke-width:4; stroke-opacity:1; fill:none" points="290.157,196.789 748.343,196.789 748.343,93.1086 290.157,93.1086 290.157,196.789 "/>
<polyline clip-path="url(#clip960)" style="stroke:#e26f46; stroke-linecap:round; stroke-linejoin:round; stroke-width:8; stroke-opacity:1; fill:none" stroke-dasharray="32, 20" points="313.865,144.949 456.113,144.949 "/>
<path clip-path="url(#clip960)" d="M498.733 148.965 Q498.733 144.335 496.812 141.789 Q494.914 139.243 491.465 139.243 Q488.039 139.243 486.118 141.789 Q484.219 144.335 484.219 148.965 Q484.219 153.571 486.118 156.118 Q488.039 158.664 491.465 158.664 Q494.914 158.664 496.812 156.118 Q498.733 153.571 498.733 148.965 M502.992 159.011 Q502.992 165.631 500.053 168.849 Q497.113 172.09 491.048 172.09 Q488.803 172.09 486.812 171.742 Q484.821 171.418 482.946 170.724 L482.946 166.58 Q484.821 167.599 486.65 168.085 Q488.479 168.571 490.377 168.571 Q494.567 168.571 496.65 166.372 Q498.733 164.196 498.733 159.775 L498.733 157.668 Q497.414 159.96 495.354 161.094 Q493.293 162.229 490.423 162.229 Q485.655 162.229 482.738 158.594 Q479.821 154.96 479.821 148.965 Q479.821 142.946 482.738 139.312 Q485.655 135.678 490.423 135.678 Q493.293 135.678 495.354 136.812 Q497.414 137.946 498.733 140.238 L498.733 136.303 L502.992 136.303 L502.992 159.011 Z" fill="#000000" fill-rule="nonzero" fill-opacity="1" /><path clip-path="url(#clip960)" d="M516.627 145.724 L516.627 158.386 L524.127 158.386 Q527.9 158.386 529.705 156.835 Q531.534 155.261 531.534 152.043 Q531.534 148.803 529.705 147.275 Q527.9 145.724 524.127 145.724 L516.627 145.724 M516.627 131.511 L516.627 141.928 L523.548 141.928 Q526.974 141.928 528.64 140.655 Q530.33 139.358 530.33 136.719 Q530.33 134.104 528.64 132.807 Q526.974 131.511 523.548 131.511 L516.627 131.511 M511.951 127.669 L523.895 127.669 Q529.242 127.669 532.136 129.891 Q535.029 132.113 535.029 136.21 Q535.029 139.382 533.548 141.257 Q532.066 143.131 529.196 143.594 Q532.645 144.335 534.543 146.696 Q536.465 149.034 536.465 152.553 Q536.465 157.182 533.316 159.705 Q530.168 162.229 524.358 162.229 L511.951 162.229 L511.951 127.669 Z" fill="#000000" fill-rule="nonzero" fill-opacity="1" /><path clip-path="url(#clip960)" d="M564.474 141.28 Q566.071 138.409 568.293 137.044 Q570.515 135.678 573.525 135.678 Q577.575 135.678 579.774 138.525 Q581.974 141.349 581.974 146.581 L581.974 162.229 L577.691 162.229 L577.691 146.719 Q577.691 142.993 576.372 141.187 Q575.052 139.382 572.344 139.382 Q569.034 139.382 567.112 141.581 Q565.191 143.78 565.191 147.576 L565.191 162.229 L560.909 162.229 L560.909 146.719 Q560.909 142.969 559.589 141.187 Q558.27 139.382 555.515 139.382 Q552.251 139.382 550.33 141.604 Q548.409 143.803 548.409 147.576 L548.409 162.229 L544.127 162.229 L544.127 136.303 L548.409 136.303 L548.409 140.331 Q549.867 137.946 551.904 136.812 Q553.941 135.678 556.742 135.678 Q559.566 135.678 561.534 137.113 Q563.525 138.548 564.474 141.28 Z" fill="#000000" fill-rule="nonzero" fill-opacity="1" /><path clip-path="url(#clip960)" d="M627.089 146.581 L627.089 162.229 L622.83 162.229 L622.83 146.719 Q622.83 143.039 621.395 141.21 Q619.959 139.382 617.089 139.382 Q613.64 139.382 611.649 141.581 Q609.659 143.78 609.659 147.576 L609.659 162.229 L605.376 162.229 L605.376 136.303 L609.659 136.303 L609.659 140.331 Q611.186 137.993 613.247 136.835 Q615.33 135.678 618.038 135.678 Q622.506 135.678 624.797 138.456 Q627.089 141.21 627.089 146.581 Z" fill="#000000" fill-rule="nonzero" fill-opacity="1" /><path clip-path="url(#clip960)" d="M645.631 139.289 Q642.205 139.289 640.214 141.974 Q638.223 144.636 638.223 149.289 Q638.223 153.942 640.191 156.627 Q642.182 159.289 645.631 159.289 Q649.033 159.289 651.024 156.604 Q653.015 153.918 653.015 149.289 Q653.015 144.682 651.024 141.997 Q649.033 139.289 645.631 139.289 M645.631 135.678 Q651.186 135.678 654.357 139.289 Q657.529 142.9 657.529 149.289 Q657.529 155.655 654.357 159.289 Q651.186 162.9 645.631 162.9 Q640.052 162.9 636.881 159.289 Q633.733 155.655 633.733 149.289 Q633.733 142.9 636.881 139.289 Q640.052 135.678 645.631 135.678 Z" fill="#000000" fill-rule="nonzero" fill-opacity="1" /><path clip-path="url(#clip960)" d="M664.589 136.303 L668.848 136.303 L668.848 162.229 L664.589 162.229 L664.589 136.303 M664.589 126.21 L668.848 126.21 L668.848 131.604 L664.589 131.604 L664.589 126.21 Z" fill="#000000" fill-rule="nonzero" fill-opacity="1" /><path clip-path="url(#clip960)" d="M694.288 137.067 L694.288 141.094 Q692.482 140.169 690.538 139.706 Q688.593 139.243 686.51 139.243 Q683.339 139.243 681.742 140.215 Q680.167 141.187 680.167 143.131 Q680.167 144.613 681.302 145.469 Q682.436 146.303 685.862 147.067 L687.32 147.391 Q691.857 148.363 693.755 150.145 Q695.677 151.905 695.677 155.076 Q695.677 158.687 692.806 160.793 Q689.959 162.9 684.959 162.9 Q682.876 162.9 680.607 162.483 Q678.362 162.09 675.862 161.28 L675.862 156.881 Q678.223 158.108 680.515 158.733 Q682.806 159.335 685.052 159.335 Q688.061 159.335 689.681 158.317 Q691.302 157.275 691.302 155.4 Q691.302 153.664 690.121 152.738 Q688.964 151.812 685.005 150.956 L683.524 150.608 Q679.566 149.775 677.806 148.062 Q676.047 146.326 676.047 143.317 Q676.047 139.659 678.64 137.669 Q681.232 135.678 686.001 135.678 Q688.362 135.678 690.445 136.025 Q692.528 136.372 694.288 137.067 Z" fill="#000000" fill-rule="nonzero" fill-opacity="1" /><path clip-path="url(#clip960)" d="M724.635 148.201 L724.635 150.284 L705.052 150.284 Q705.329 154.682 707.69 156.997 Q710.075 159.289 714.311 159.289 Q716.764 159.289 719.056 158.687 Q721.371 158.085 723.639 156.881 L723.639 160.909 Q721.348 161.881 718.94 162.391 Q716.533 162.9 714.056 162.9 Q707.852 162.9 704.218 159.289 Q700.607 155.678 700.607 149.52 Q700.607 143.155 704.033 139.428 Q707.482 135.678 713.315 135.678 Q718.547 135.678 721.579 139.057 Q724.635 142.414 724.635 148.201 M720.376 146.951 Q720.329 143.456 718.408 141.372 Q716.51 139.289 713.362 139.289 Q709.797 139.289 707.644 141.303 Q705.515 143.317 705.19 146.974 L720.376 146.951 Z" fill="#000000" fill-rule="nonzero" fill-opacity="1" /></svg>
