<?xml version="1.0" encoding="utf-8"?>
<svg xmlns="http://www.w3.org/2000/svg" xmlns:xlink="http://www.w3.org/1999/xlink" width="600" height="400" viewBox="0 0 2400 1600">
<defs>
  <clipPath id="clip500">
    <rect x="0" y="0" width="2400" height="1600"/>
  </clipPath>
</defs>
<path clip-path="url(#clip500)" d="M0 1600 L2400 1600 L2400 0 L0 0  Z" fill="#ffffff" fill-rule="evenodd" fill-opacity="1"/>
<defs>
  <clipPath id="clip501">
    <rect x="480" y="0" width="1681" height="1600"/>
  </clipPath>
</defs>
<path clip-path="url(#clip500)" d="M210.746 1423.18 L2352.76 1423.18 L2352.76 47.2441 L210.746 47.2441  Z" fill="#ffffff" fill-rule="evenodd" fill-opacity="1"/>
<defs>
  <clipPath id="clip502">
    <rect x="210" y="47" width="2143" height="1377"/>
  </clipPath>
</defs>
<polyline clip-path="url(#clip502)" style="stroke:#000000; stroke-linecap:round; stroke-linejoin:round; stroke-width:2; stroke-opacity:0.1; fill:none" points="271.369,1423.18 271.369,47.2441 "/>
<polyline clip-path="url(#clip502)" style="stroke:#000000; stroke-linecap:round; stroke-linejoin:round; stroke-width:2; stroke-opacity:0.1; fill:none" points="776.56,1423.18 776.56,47.2441 "/>
<polyline clip-path="url(#clip502)" style="stroke:#000000; stroke-linecap:round; stroke-linejoin:round; stroke-width:2; stroke-opacity:0.1; fill:none" points="1281.75,1423.18 1281.75,47.2441 "/>
<polyline clip-path="url(#clip502)" style="stroke:#000000; stroke-linecap:round; stroke-linejoin:round; stroke-width:2; stroke-opacity:0.1; fill:none" points="1786.94,1423.18 1786.94,47.2441 "/>
<polyline clip-path="url(#clip502)" style="stroke:#000000; stroke-linecap:round; stroke-linejoin:round; stroke-width:2; stroke-opacity:0.1; fill:none" points="2292.13,1423.18 2292.13,47.2441 "/>
<polyline clip-path="url(#clip502)" style="stroke:#000000; stroke-linecap:round; stroke-linejoin:round; stroke-width:2; stroke-opacity:0.1; fill:none" points="210.746,1303.42 2352.76,1303.42 "/>
<polyline clip-path="url(#clip502)" style="stroke:#000000; stroke-linecap:round; stroke-linejoin:round; stroke-width:2; stroke-opacity:0.1; fill:none" points="210.746,923.859 2352.76,923.859 "/>
<polyline clip-path="url(#clip502)" style="stroke:#000000; stroke-linecap:round; stroke-linejoin:round; stroke-width:2; stroke-opacity:0.1; fill:none" points="210.746,544.3 2352.76,544.3 "/>
<polyline clip-path="url(#clip502)" style="stroke:#000000; stroke-linecap:round; stroke-linejoin:round; stroke-width:2; stroke-opacity:0.1; fill:none" points="210.746,164.74 2352.76,164.74 "/>
<polyline clip-path="url(#clip500)" style="stroke:#000000; stroke-linecap:round; stroke-linejoin:round; stroke-width:4; stroke-opacity:1; fill:none" points="210.746,1423.18 2352.76,1423.18 "/>
<polyline clip-path="url(#clip500)" style="stroke:#000000; stroke-linecap:round; stroke-linejoin:round; stroke-width:4; stroke-opacity:1; fill:none" points="271.369,1423.18 271.369,1404.28 "/>
<polyline clip-path="url(#clip500)" style="stroke:#000000; stroke-linecap:round; stroke-linejoin:round; stroke-width:4; stroke-opacity:1; fill:none" points="776.56,1423.18 776.56,1404.28 "/>
<polyline clip-path="url(#clip500)" style="stroke:#000000; stroke-linecap:round; stroke-linejoin:round; stroke-width:4; stroke-opacity:1; fill:none" points="1281.75,1423.18 1281.75,1404.28 "/>
<polyline clip-path="url(#clip500)" style="stroke:#000000; stroke-linecap:round; stroke-linejoin:round; stroke-width:4; stroke-opacity:1; fill:none" points="1786.94,1423.18 1786.94,1404.28 "/>
<polyline clip-path="url(#clip500)" style="stroke:#000000; stroke-linecap:round; stroke-linejoin:round; stroke-width:4; stroke-opacity:1; fill:none" points="2292.13,1423.18 2292.13,1404.28 "/>
<path clip-path="url(#clip500)" d="M233.672 1454.1 Q230.061 1454.1 228.233 1457.66 Q226.427 1461.2 226.427 1468.33 Q226.427 1475.44 228.233 1479.01 Q230.061 1482.55 233.672 1482.55 Q237.307 1482.55 239.112 1479.01 Q240.941 1475.44 240.941 1468.33 Q240.941 1461.2 239.112 1457.66 Q237.307 1454.1 233.672 1454.1 M233.672 1450.39 Q239.482 1450.39 242.538 1455 Q245.617 1459.58 245.617 1468.33 Q245.617 1477.06 242.538 1481.67 Q239.482 1486.25 233.672 1486.25 Q227.862 1486.25 224.783 1481.67 Q221.728 1477.06 221.728 1468.33 Q221.728 1459.58 224.783 1455 Q227.862 1450.39 233.672 1450.39 Z" fill="#000000" fill-rule="nonzero" fill-opacity="1" /><path clip-path="url(#clip500)" d="M253.834 1479.7 L258.718 1479.7 L258.718 1485.58 L253.834 1485.58 L253.834 1479.7 Z" fill="#000000" fill-rule="nonzero" fill-opacity="1" /><path clip-path="url(#clip500)" d="M278.904 1454.1 Q275.292 1454.1 273.464 1457.66 Q271.658 1461.2 271.658 1468.33 Q271.658 1475.44 273.464 1479.01 Q275.292 1482.55 278.904 1482.55 Q282.538 1482.55 284.343 1479.01 Q286.172 1475.44 286.172 1468.33 Q286.172 1461.2 284.343 1457.66 Q282.538 1454.1 278.904 1454.1 M278.904 1450.39 Q284.714 1450.39 287.769 1455 Q290.848 1459.58 290.848 1468.33 Q290.848 1477.06 287.769 1481.67 Q284.714 1486.25 278.904 1486.25 Q273.093 1486.25 270.015 1481.67 Q266.959 1477.06 266.959 1468.33 Q266.959 1459.58 270.015 1455 Q273.093 1450.39 278.904 1450.39 Z" fill="#000000" fill-rule="nonzero" fill-opacity="1" /><path clip-path="url(#clip500)" d="M309.065 1454.1 Q305.454 1454.1 303.626 1457.66 Q301.82 1461.2 301.82 1468.33 Q301.82 1475.44 303.626 1479.01 Q305.454 1482.55 309.065 1482.55 Q312.7 1482.55 314.505 1479.01 Q316.334 1475.44 316.334 1468.33 Q316.334 1461.2 314.505 1457.66 Q312.7 1454.1 309.065 1454.1 M309.065 1450.39 Q314.876 1450.39 317.931 1455 Q321.01 1459.58 321.01 1468.33 Q321.01 1477.06 317.931 1481.67 Q314.876 1486.25 309.065 1486.25 Q303.255 1486.25 300.177 1481.67 Q297.121 1477.06 297.121 1468.33 Q297.121 1459.58 300.177 1455 Q303.255 1450.39 309.065 1450.39 Z" fill="#000000" fill-rule="nonzero" fill-opacity="1" /><path clip-path="url(#clip500)" d="M739.361 1454.1 Q735.75 1454.1 733.921 1457.66 Q732.116 1461.2 732.116 1468.33 Q732.116 1475.44 733.921 1479.01 Q735.75 1482.55 739.361 1482.55 Q742.995 1482.55 744.801 1479.01 Q746.63 1475.44 746.63 1468.33 Q746.63 1461.2 744.801 1457.66 Q742.995 1454.1 739.361 1454.1 M739.361 1450.39 Q745.171 1450.39 748.227 1455 Q751.305 1459.58 751.305 1468.33 Q751.305 1477.06 748.227 1481.67 Q745.171 1486.25 739.361 1486.25 Q733.551 1486.25 730.472 1481.67 Q727.417 1477.06 727.417 1468.33 Q727.417 1459.58 730.472 1455 Q733.551 1450.39 739.361 1450.39 Z" fill="#000000" fill-rule="nonzero" fill-opacity="1" /><path clip-path="url(#clip500)" d="M759.523 1479.7 L764.407 1479.7 L764.407 1485.58 L759.523 1485.58 L759.523 1479.7 Z" fill="#000000" fill-rule="nonzero" fill-opacity="1" /><path clip-path="url(#clip500)" d="M778.62 1481.64 L794.939 1481.64 L794.939 1485.58 L772.995 1485.58 L772.995 1481.64 Q775.657 1478.89 780.24 1474.26 Q784.847 1469.61 786.027 1468.27 Q788.273 1465.74 789.152 1464.01 Q790.055 1462.25 790.055 1460.56 Q790.055 1457.8 788.111 1456.07 Q786.189 1454.33 783.088 1454.33 Q780.889 1454.33 778.435 1455.09 Q776.004 1455.86 773.227 1457.41 L773.227 1452.69 Q776.051 1451.55 778.504 1450.97 Q780.958 1450.39 782.995 1450.39 Q788.365 1450.39 791.56 1453.08 Q794.754 1455.77 794.754 1460.26 Q794.754 1462.39 793.944 1464.31 Q793.157 1466.2 791.051 1468.8 Q790.472 1469.47 787.37 1472.69 Q784.268 1475.88 778.62 1481.64 Z" fill="#000000" fill-rule="nonzero" fill-opacity="1" /><path clip-path="url(#clip500)" d="M804.8 1451.02 L823.157 1451.02 L823.157 1454.96 L809.083 1454.96 L809.083 1463.43 Q810.101 1463.08 811.12 1462.92 Q812.138 1462.73 813.157 1462.73 Q818.944 1462.73 822.324 1465.9 Q825.703 1469.08 825.703 1474.49 Q825.703 1480.07 822.231 1483.17 Q818.759 1486.25 812.439 1486.25 Q810.263 1486.25 807.995 1485.88 Q805.75 1485.51 803.342 1484.77 L803.342 1480.07 Q805.425 1481.2 807.648 1481.76 Q809.87 1482.32 812.347 1482.32 Q816.351 1482.32 818.689 1480.21 Q821.027 1478.1 821.027 1474.49 Q821.027 1470.88 818.689 1468.77 Q816.351 1466.67 812.347 1466.67 Q810.472 1466.67 808.597 1467.08 Q806.745 1467.5 804.8 1468.38 L804.8 1451.02 Z" fill="#000000" fill-rule="nonzero" fill-opacity="1" /><path clip-path="url(#clip500)" d="M1244.05 1454.1 Q1240.44 1454.1 1238.61 1457.66 Q1236.81 1461.2 1236.81 1468.33 Q1236.81 1475.44 1238.61 1479.01 Q1240.44 1482.55 1244.05 1482.55 Q1247.69 1482.55 1249.49 1479.01 Q1251.32 1475.44 1251.32 1468.33 Q1251.32 1461.2 1249.49 1457.66 Q1247.69 1454.1 1244.05 1454.1 M1244.05 1450.39 Q1249.86 1450.39 1252.92 1455 Q1256 1459.58 1256 1468.33 Q1256 1477.06 1252.92 1481.67 Q1249.86 1486.25 1244.05 1486.25 Q1238.24 1486.25 1235.17 1481.67 Q1232.11 1477.06 1232.11 1468.33 Q1232.11 1459.58 1235.17 1455 Q1238.24 1450.39 1244.05 1450.39 Z" fill="#000000" fill-rule="nonzero" fill-opacity="1" /><path clip-path="url(#clip500)" d="M1264.22 1479.7 L1269.1 1479.7 L1269.1 1485.58 L1264.22 1485.58 L1264.22 1479.7 Z" fill="#000000" fill-rule="nonzero" fill-opacity="1" /><path clip-path="url(#clip500)" d="M1279.33 1451.02 L1297.69 1451.02 L1297.69 1454.96 L1283.61 1454.96 L1283.61 1463.43 Q1284.63 1463.08 1285.65 1462.92 Q1286.67 1462.73 1287.69 1462.73 Q1293.48 1462.73 1296.86 1465.9 Q1300.23 1469.08 1300.23 1474.49 Q1300.23 1480.07 1296.76 1483.17 Q1293.29 1486.25 1286.97 1486.25 Q1284.79 1486.25 1282.53 1485.88 Q1280.28 1485.51 1277.87 1484.77 L1277.87 1480.07 Q1279.96 1481.2 1282.18 1481.76 Q1284.4 1482.32 1286.88 1482.32 Q1290.88 1482.32 1293.22 1480.21 Q1295.56 1478.1 1295.56 1474.49 Q1295.56 1470.88 1293.22 1468.77 Q1290.88 1466.67 1286.88 1466.67 Q1285 1466.67 1283.13 1467.08 Q1281.28 1467.5 1279.33 1468.38 L1279.33 1451.02 Z" fill="#000000" fill-rule="nonzero" fill-opacity="1" /><path clip-path="url(#clip500)" d="M1319.45 1454.1 Q1315.84 1454.1 1314.01 1457.66 Q1312.2 1461.2 1312.2 1468.33 Q1312.2 1475.44 1314.01 1479.01 Q1315.84 1482.55 1319.45 1482.55 Q1323.08 1482.55 1324.89 1479.01 Q1326.72 1475.44 1326.72 1468.33 Q1326.72 1461.2 1324.89 1457.66 Q1323.08 1454.1 1319.45 1454.1 M1319.45 1450.39 Q1325.26 1450.39 1328.31 1455 Q1331.39 1459.58 1331.39 1468.33 Q1331.39 1477.06 1328.31 1481.67 Q1325.26 1486.25 1319.45 1486.25 Q1313.64 1486.25 1310.56 1481.67 Q1307.5 1477.06 1307.5 1468.33 Q1307.5 1459.58 1310.56 1455 Q1313.64 1450.39 1319.45 1450.39 Z" fill="#000000" fill-rule="nonzero" fill-opacity="1" /><path clip-path="url(#clip500)" d="M1749.74 1454.1 Q1746.13 1454.1 1744.3 1457.66 Q1742.5 1461.2 1742.5 1468.33 Q1742.5 1475.44 1744.3 1479.01 Q1746.13 1482.55 1749.74 1482.55 Q1753.38 1482.55 1755.18 1479.01 Q1757.01 1475.44 1757.01 1468.33 Q1757.01 1461.2 1755.18 1457.66 Q1753.38 1454.1 1749.74 1454.1 M1749.74 1450.39 Q1755.55 1450.39 1758.61 1455 Q1761.69 1459.58 1761.69 1468.33 Q1761.69 1477.06 1758.61 1481.67 Q1755.55 1486.25 1749.74 1486.25 Q1743.93 1486.25 1740.85 1481.67 Q1737.8 1477.06 1737.8 1468.33 Q1737.8 1459.58 1740.85 1455 Q1743.93 1450.39 1749.74 1450.39 Z" fill="#000000" fill-rule="nonzero" fill-opacity="1" /><path clip-path="url(#clip500)" d="M1769.91 1479.7 L1774.79 1479.7 L1774.79 1485.58 L1769.91 1485.58 L1769.91 1479.7 Z" fill="#000000" fill-rule="nonzero" fill-opacity="1" /><path clip-path="url(#clip500)" d="M1783.79 1451.02 L1806.02 1451.02 L1806.02 1453.01 L1793.47 1485.58 L1788.59 1485.58 L1800.39 1454.96 L1783.79 1454.96 L1783.79 1451.02 Z" fill="#000000" fill-rule="nonzero" fill-opacity="1" /><path clip-path="url(#clip500)" d="M1815.18 1451.02 L1833.54 1451.02 L1833.54 1454.96 L1819.46 1454.96 L1819.46 1463.43 Q1820.48 1463.08 1821.5 1462.92 Q1822.52 1462.73 1823.54 1462.73 Q1829.33 1462.73 1832.71 1465.9 Q1836.09 1469.08 1836.09 1474.49 Q1836.09 1480.07 1832.61 1483.17 Q1829.14 1486.25 1822.82 1486.25 Q1820.65 1486.25 1818.38 1485.88 Q1816.13 1485.51 1813.72 1484.77 L1813.72 1480.07 Q1815.81 1481.2 1818.03 1481.76 Q1820.25 1482.32 1822.73 1482.32 Q1826.73 1482.32 1829.07 1480.21 Q1831.41 1478.1 1831.41 1474.49 Q1831.41 1470.88 1829.07 1468.77 Q1826.73 1466.67 1822.73 1466.67 Q1820.85 1466.67 1818.98 1467.08 Q1817.13 1467.5 1815.18 1468.38 L1815.18 1451.02 Z" fill="#000000" fill-rule="nonzero" fill-opacity="1" /><path clip-path="url(#clip500)" d="M2244.2 1481.64 L2251.84 1481.64 L2251.84 1455.28 L2243.53 1456.95 L2243.53 1452.69 L2251.8 1451.02 L2256.47 1451.02 L2256.47 1481.64 L2264.11 1481.64 L2264.11 1485.58 L2244.2 1485.58 L2244.2 1481.64 Z" fill="#000000" fill-rule="nonzero" fill-opacity="1" /><path clip-path="url(#clip500)" d="M2273.56 1479.7 L2278.44 1479.7 L2278.44 1485.58 L2273.56 1485.58 L2273.56 1479.7 Z" fill="#000000" fill-rule="nonzero" fill-opacity="1" /><path clip-path="url(#clip500)" d="M2298.63 1454.1 Q2295.01 1454.1 2293.19 1457.66 Q2291.38 1461.2 2291.38 1468.33 Q2291.38 1475.44 2293.19 1479.01 Q2295.01 1482.55 2298.63 1482.55 Q2302.26 1482.55 2304.07 1479.01 Q2305.89 1475.44 2305.89 1468.33 Q2305.89 1461.2 2304.07 1457.66 Q2302.26 1454.1 2298.63 1454.1 M2298.63 1450.39 Q2304.44 1450.39 2307.49 1455 Q2310.57 1459.58 2310.57 1468.33 Q2310.57 1477.06 2307.49 1481.67 Q2304.44 1486.25 2298.63 1486.25 Q2292.82 1486.25 2289.74 1481.67 Q2286.68 1477.06 2286.68 1468.33 Q2286.68 1459.58 2289.74 1455 Q2292.82 1450.39 2298.63 1450.39 Z" fill="#000000" fill-rule="nonzero" fill-opacity="1" /><path clip-path="url(#clip500)" d="M2328.79 1454.1 Q2325.18 1454.1 2323.35 1457.66 Q2321.54 1461.2 2321.54 1468.33 Q2321.54 1475.44 2323.35 1479.01 Q2325.18 1482.55 2328.79 1482.55 Q2332.42 1482.55 2334.23 1479.01 Q2336.06 1475.44 2336.06 1468.33 Q2336.06 1461.2 2334.23 1457.66 Q2332.42 1454.1 2328.79 1454.1 M2328.79 1450.39 Q2334.6 1450.39 2337.65 1455 Q2340.73 1459.58 2340.73 1468.33 Q2340.73 1477.06 2337.65 1481.67 Q2334.6 1486.25 2328.79 1486.25 Q2322.98 1486.25 2319.9 1481.67 Q2316.84 1477.06 2316.84 1468.33 Q2316.84 1459.58 2319.9 1455 Q2322.98 1450.39 2328.79 1450.39 Z" fill="#000000" fill-rule="nonzero" fill-opacity="1" /><path clip-path="url(#clip500)" d="M1290.22 1531.91 Q1290.22 1532.81 1289.8 1533.04 Q1289.38 1533.23 1288.23 1533.23 L1282.04 1533.23 L1277.15 1552.69 Q1276.76 1554.39 1276.76 1555.84 Q1276.76 1557.45 1277.24 1558.16 Q1277.76 1558.87 1278.82 1558.87 Q1280.91 1558.87 1283.17 1556.97 Q1285.46 1555.07 1287.39 1550.43 Q1287.65 1549.82 1287.77 1549.69 Q1287.94 1549.53 1288.35 1549.53 Q1289.16 1549.53 1289.16 1550.17 Q1289.16 1550.4 1288.71 1551.43 Q1288.29 1552.46 1287.36 1553.97 Q1286.45 1555.49 1285.26 1556.9 Q1284.1 1558.32 1282.33 1559.35 Q1280.56 1560.35 1278.66 1560.35 Q1275.99 1560.35 1274.28 1558.64 Q1272.61 1556.94 1272.61 1554.26 Q1272.61 1553.39 1273.28 1550.62 Q1273.96 1547.82 1277.63 1533.23 L1271.8 1533.23 Q1271 1533.23 1270.67 1533.2 Q1270.38 1533.17 1270.16 1533.01 Q1269.96 1532.81 1269.96 1532.43 Q1269.96 1531.82 1270.22 1531.56 Q1270.48 1531.27 1270.8 1531.24 Q1271.16 1531.17 1271.96 1531.17 L1278.14 1531.17 L1280.72 1520.71 Q1280.98 1519.67 1281.62 1519.09 Q1282.3 1518.48 1282.69 1518.42 Q1283.07 1518.32 1283.36 1518.32 Q1284.23 1518.32 1284.75 1518.81 Q1285.26 1519.26 1285.26 1520.09 Q1285.26 1520.54 1282.56 1531.17 L1288.35 1531.17 Q1289.09 1531.17 1289.38 1531.2 Q1289.71 1531.24 1289.96 1531.4 Q1290.22 1531.56 1290.22 1531.91 Z" fill="#000000" fill-rule="nonzero" fill-opacity="1" /><polyline clip-path="url(#clip500)" style="stroke:#000000; stroke-linecap:round; stroke-linejoin:round; stroke-width:4; stroke-opacity:1; fill:none" points="210.746,1423.18 210.746,47.2441 "/>
<polyline clip-path="url(#clip500)" style="stroke:#000000; stroke-linecap:round; stroke-linejoin:round; stroke-width:4; stroke-opacity:1; fill:none" points="210.746,1303.42 229.644,1303.42 "/>
<polyline clip-path="url(#clip500)" style="stroke:#000000; stroke-linecap:round; stroke-linejoin:round; stroke-width:4; stroke-opacity:1; fill:none" points="210.746,923.859 229.644,923.859 "/>
<polyline clip-path="url(#clip500)" style="stroke:#000000; stroke-linecap:round; stroke-linejoin:round; stroke-width:4; stroke-opacity:1; fill:none" points="210.746,544.3 229.644,544.3 "/>
<polyline clip-path="url(#clip500)" style="stroke:#000000; stroke-linecap:round; stroke-linejoin:round; stroke-width:4; stroke-opacity:1; fill:none" points="210.746,164.74 229.644,164.74 "/>
<path clip-path="url(#clip500)" d="M114.631 1303.87 L144.306 1303.87 L144.306 1307.81 L114.631 1307.81 L114.631 1303.87 Z" fill="#000000" fill-rule="nonzero" fill-opacity="1" /><path clip-path="url(#clip500)" d="M158.427 1316.76 L174.746 1316.76 L174.746 1320.7 L152.802 1320.7 L152.802 1316.76 Q155.464 1314.01 160.047 1309.38 Q164.653 1304.73 165.834 1303.38 Q168.079 1300.86 168.959 1299.12 Q169.862 1297.37 169.862 1295.68 Q169.862 1292.92 167.917 1291.18 Q165.996 1289.45 162.894 1289.45 Q160.695 1289.45 158.241 1290.21 Q155.811 1290.98 153.033 1292.53 L153.033 1287.81 Q155.857 1286.67 158.311 1286.09 Q160.765 1285.51 162.802 1285.51 Q168.172 1285.51 171.366 1288.2 Q174.561 1290.88 174.561 1295.37 Q174.561 1297.5 173.751 1299.43 Q172.964 1301.32 170.857 1303.92 Q170.278 1304.59 167.177 1307.81 Q164.075 1311 158.427 1316.76 Z" fill="#000000" fill-rule="nonzero" fill-opacity="1" /><path clip-path="url(#clip500)" d="M114.26 924.311 L143.936 924.311 L143.936 928.246 L114.26 928.246 L114.26 924.311 Z" fill="#000000" fill-rule="nonzero" fill-opacity="1" /><path clip-path="url(#clip500)" d="M154.839 937.204 L162.477 937.204 L162.477 910.838 L154.167 912.505 L154.167 908.246 L162.431 906.579 L167.107 906.579 L167.107 937.204 L174.746 937.204 L174.746 941.139 L154.839 941.139 L154.839 937.204 Z" fill="#000000" fill-rule="nonzero" fill-opacity="1" /><path clip-path="url(#clip500)" d="M162.802 530.098 Q159.19 530.098 157.362 533.663 Q155.556 537.205 155.556 544.335 Q155.556 551.441 157.362 555.006 Q159.19 558.547 162.802 558.547 Q166.436 558.547 168.241 555.006 Q170.07 551.441 170.07 544.335 Q170.07 537.205 168.241 533.663 Q166.436 530.098 162.802 530.098 M162.802 526.395 Q168.612 526.395 171.667 531.001 Q174.746 535.585 174.746 544.335 Q174.746 553.061 171.667 557.668 Q168.612 562.251 162.802 562.251 Q156.991 562.251 153.913 557.668 Q150.857 553.061 150.857 544.335 Q150.857 535.585 153.913 531.001 Q156.991 526.395 162.802 526.395 Z" fill="#000000" fill-rule="nonzero" fill-opacity="1" /><path clip-path="url(#clip500)" d="M154.839 178.085 L162.477 178.085 L162.477 151.72 L154.167 153.386 L154.167 149.127 L162.431 147.46 L167.107 147.46 L167.107 178.085 L174.746 178.085 L174.746 182.02 L154.839 182.02 L154.839 178.085 Z" fill="#000000" fill-rule="nonzero" fill-opacity="1" /><path clip-path="url(#clip500)" d="M30.8561 720.775 Q31.307 720.775 32.3698 721.064 L57.5548 727.377 Q63.1586 728.762 67.0877 733.27 Q71.0168 737.747 71.0168 742.836 Q71.0168 745.895 69.3743 747.86 Q67.764 749.824 65.2842 749.824 Q63.0942 749.824 62.0314 748.665 Q61.0008 747.505 61.0008 746.121 Q61.0008 745.67 61.1296 745.187 Q61.2584 744.703 61.8059 744.188 Q62.3534 743.673 63.2874 743.673 Q64.8011 743.673 65.9927 744.993 Q66.5402 745.637 66.669 746.249 Q66.7978 746.829 66.7978 747.827 Q67.6996 747.441 68.3115 746.732 Q68.9234 746.024 69.1489 745.219 Q69.4065 744.414 69.4709 743.898 Q69.5675 743.351 69.5675 742.836 Q69.5675 738.713 65.413 735.557 Q64.157 734.623 62.9009 733.947 Q61.6771 733.238 60.1634 732.723 Q58.682 732.208 57.8768 731.982 Q57.0717 731.725 55.2359 731.274 Q58.2311 734.269 58.2311 737.94 Q58.2311 739.486 57.8124 740.871 Q57.3937 742.224 56.5242 743.415 Q55.6224 744.607 54.0443 745.315 Q52.4662 745.992 50.3728 745.992 Q48.1506 745.992 45.1233 745.122 Q42.0959 744.253 36.5243 742.159 Q33.4004 741.032 31.8867 741.032 Q31.146 741.032 30.6951 741.193 Q30.212 741.354 30.051 741.676 Q29.8577 741.998 29.8255 742.191 Q29.7933 742.352 29.7933 742.675 Q29.7933 744.575 31.7257 746.346 Q33.658 748.117 37.9736 749.341 Q38.7787 749.599 38.972 749.76 Q39.1652 749.921 39.1652 750.404 Q39.133 751.209 38.4889 751.209 Q38.2312 751.209 37.2329 750.919 Q36.2023 750.629 34.6886 749.953 Q33.1427 749.245 31.7579 748.278 Q30.3408 747.312 29.3424 745.798 Q28.344 744.253 28.344 742.481 Q28.344 740.066 29.9221 738.584 Q31.468 737.071 33.7546 737.071 Q34.6886 737.071 35.5259 737.328 Q36.3311 737.554 38.4889 738.391 Q47.1845 741.773 51.4356 741.773 Q52.4662 741.773 53.3358 741.612 Q54.1731 741.418 55.0105 741 Q55.8156 740.581 56.2987 739.744 Q56.7496 738.874 56.7496 737.683 Q56.7496 736.169 56.0411 734.752 Q55.3003 733.303 54.302 732.401 Q53.3036 731.467 52.4662 730.919 Q51.5967 730.34 51.1458 730.211 L39.294 727.248 L34.0123 725.927 Q31.146 725.316 30.4374 725.026 Q29.7611 724.639 29.4068 723.963 Q29.0526 723.287 29.0526 722.707 Q29.0526 721.902 29.5357 721.354 Q30.0187 720.775 30.8561 720.775 Z" fill="#000000" fill-rule="nonzero" fill-opacity="1" /><polyline clip-path="url(#clip502)" style="stroke:#ff7e0d; stroke-linecap:round; stroke-linejoin:round; stroke-width:8; stroke-opacity:1; fill:none" stroke-dasharray="32, 20" points="271.369,544.3 275.316,792.374 279.262,513.307 283.209,620.514 287.156,736.466 291.103,580.507 295.05,672.815 298.997,521.192 302.943,719.677 306.89,565.938 310.837,508.696 314.784,964.205 318.731,664.013 322.677,823.402 326.624,873.821 330.571,769.878 334.518,801.862 338.465,1015.01 342.411,1118.51 346.358,799.544 350.305,780.286 354.252,1047.93 358.199,1077.05 362.145,724.672 366.092,971.257 370.039,1022.62 373.986,678.409 377.933,636.689 381.879,846.088 385.826,848.231 389.773,910.908 393.72,633.53 397.667,541.493 401.613,1034.81 405.56,844.861 409.507,675.204 413.454,825.174 417.401,888.181 421.347,1054.84 425.294,1197.29 429.241,1004.19 433.188,984.956 437.135,1265.72 441.081,1068.06 445.028,977.402 448.975,1042.6 452.922,907.365 456.869,805.483 460.816,996.908 464.762,931.976 468.709,777.078 472.656,1042.17 476.603,994.919 480.55,560.301 484.496,1181.08 488.443,853.09 492.39,1063.82 496.337,887.152 500.284,604.035 504.23,812.123 508.177,681.02 512.124,731.026 516.071,562.461 520.018,458.729 523.964,717.471 527.911,722.562 531.858,612.266 535.805,555.683 539.752,736.931 543.698,809.504 547.645,675.916 551.592,599.376 555.539,803.273 559.486,555.026 563.432,733.378 567.379,601.751 571.326,832.797 575.273,915.543 579.22,776.411 583.166,918.222 587.113,1181.01 591.06,881.736 595.007,839.989 598.954,772.378 602.9,891.828 606.847,872.663 610.794,942.537 614.741,908.227 618.688,689.346 622.635,823.387 626.581,420.778 630.528,674.158 634.475,759.385 638.422,778.551 642.369,963.323 646.315,809.174 650.262,879.462 654.209,838.461 658.156,765.083 662.103,787.207 666.049,650.923 669.996,495.052 673.943,853.001 677.89,363.621 681.837,521.783 685.783,709.246 689.73,465.676 693.677,558.367 697.624,737.487 701.571,443.387 705.517,737.186 709.464,780.095 713.411,904.268 717.358,663.747 721.305,540.222 725.251,465.502 729.198,696.373 733.145,643.37 737.092,618.102 741.039,838.021 744.985,790.969 748.932,804.236 752.879,553.59 756.826,632.385 760.773,572.429 764.719,434.487 768.666,885.55 772.613,703.946 776.56,664.894 780.507,1062.55 784.454,793.567 788.4,734.525 792.347,858.235 796.294,745.485 800.241,665.467 804.188,445.585 808.134,459.395 812.081,732.884 816.028,488.795 819.975,708.394 823.922,854.303 827.868,740.157 831.815,885.104 835.762,922.431 839.709,787.621 843.656,510.173 847.602,612.184 851.549,556.357 855.496,619.986 859.443,684.428 863.39,711.809 867.336,758.802 871.283,562.606 875.23,653.91 879.177,688.263 883.124,279.091 887.07,426.23 891.017,648.011 894.964,534.419 898.911,397.444 902.858,674.279 906.804,673.998 910.751,757.245 914.698,958.976 918.645,694.02 922.592,514.853 926.538,684.758 930.485,934.434 934.432,981.137 938.379,929.766 942.326,505.108 946.273,994.3 950.219,819.271 954.166,704.445 958.113,975.161 962.06,1056.34 966.007,948.87 969.953,932.806 973.9,965.054 977.847,777.719 981.794,1057.3 985.741,900.391 989.687,1048.39 993.634,1085.51 997.581,975.857 1001.53,989.315 1005.47,1384.24 1009.42,1020.63 1013.37,1238.84 1017.31,1055.43 1021.26,1294.64 1025.21,1045.52 1029.16,1042.37 1033.1,783.943 1037.05,899.106 1041,701.341 1044.94,867.586 1048.89,852.242 1052.84,739.133 1056.78,883.853 1060.73,888.075 1064.68,533.971 1068.62,462.426 1072.57,752.408 1076.52,652.627 1080.46,631.399 1084.41,482.848 1088.36,303.079 1092.3,634.221 1096.25,871.917 1100.2,466.495 1104.14,444.52 1108.09,623.349 1112.04,674.876 1115.99,787.162 1119.93,892.03 1123.88,770.732 1127.83,668.717 1131.77,691.623 1135.72,700.698 1139.67,701.69 1143.61,574.309 1147.56,845.417 1151.51,793.629 1155.45,1138.61 1159.4,989.839 1163.35,837.957 1167.29,798.439 1171.24,830.124 1175.19,978.205 1179.13,936.23 1183.08,886.821 1187.03,1101.49 1190.97,633.365 1194.92,1014.73 1198.87,1016.86 1202.81,807.03 1206.76,1028.38 1210.71,869.881 1214.66,910.429 1218.6,829.975 1222.55,804.284 1226.5,1041.81 1230.44,840.222 1234.39,735.606 1238.34,840.701 1242.28,700.317 1246.23,671.007 1250.18,1061.61 1254.12,895.019 1258.07,702.028 1262.02,836.826 1265.96,863.112 1269.91,952.743 1273.86,719.797 1277.8,828.635 1281.75,766.953 1285.7,857.812 1289.64,526.338 1293.59,744.928 1297.54,859.912 1301.48,925.907 1305.43,750.145 1309.38,305.85 1313.33,660.225 1317.27,681.183 1321.22,881.206 1325.17,921.891 1329.11,645.241 1333.06,1246.91 1337.01,687.166 1340.95,409.563 1344.9,1026.78 1348.85,800.292 1352.79,552.127 1356.74,753.49 1360.69,995.186 1364.63,946.875 1368.58,598.99 1372.53,917.877 1376.47,927.185 1380.42,597.756 1384.37,849.536 1388.31,380.223 1392.26,707.839 1396.21,765.293 1400.16,612.848 1404.1,833.661 1408.05,997.23 1412,546.868 1415.94,483.213 1419.89,801.425 1423.84,842.709 1427.78,745.858 1431.73,725.844 1435.68,791.974 1439.62,786.825 1443.57,669.513 1447.52,753.225 1451.46,675.271 1455.41,742.322 1459.36,739.722 1463.3,894.797 1467.25,865.128 1471.2,748.235 1475.14,658.434 1479.09,826.143 1483.04,876.876 1486.98,560.114 1490.93,623.422 1494.88,549.229 1498.83,662.27 1502.77,459.95 1506.72,698.356 1510.67,494.53 1514.61,535.387 1518.56,520.233 1522.51,678.597 1526.45,485.476 1530.4,676.004 1534.35,526.913 1538.29,769.099 1542.24,555.28 1546.19,699.721 1550.13,857.671 1554.08,819.542 1558.03,547.124 1561.97,745.693 1565.92,537.743 1569.87,623.693 1573.81,776.14 1577.76,906.326 1581.71,887.826 1585.65,1104.33 1589.6,939.88 1593.55,765.222 1597.5,660.74 1601.44,812.567 1605.39,871.575 1609.34,615.567 1613.28,858.248 1617.23,926.312 1621.18,1228.54 1625.12,791.42 1629.07,987.125 1633.02,1063.16 1636.96,1017.07 1640.91,1046.36 1644.86,876.097 1648.8,777.11 1652.75,922.392 1656.7,949.86 1660.64,836.636 1664.59,954.933 1668.54,980.15 1672.48,1010.04 1676.43,889.861 1680.38,882.845 1684.33,727.477 1688.27,663.774 1692.22,808.196 1696.17,677.842 1700.11,483.58 1704.06,806.226 1708.01,384.716 1711.95,633.748 1715.9,645.629 1719.85,497.508 1723.79,410.799 1727.74,557.226 1731.69,636.121 1735.63,407.961 1739.58,719.516 1743.53,947.654 1747.47,678.051 1751.42,918.007 1755.37,576.712 1759.31,718.312 1763.26,1045.54 1767.21,573.829 1771.15,634.613 1775.1,765.03 1779.05,674.524 1783,808.79 1786.94,425.43 1790.89,445.916 1794.84,615.074 1798.78,469.632 1802.73,492.905 1806.68,794.558 1810.62,563.776 1814.57,639.64 1818.52,825.215 1822.46,537.244 1826.41,731.446 1830.36,703.661 1834.3,357.47 1838.25,774.067 1842.2,202.87 1846.14,549.903 1850.09,458.568 1854.04,86.1857 1857.98,408.825 1861.93,504.458 1865.88,433.994 1869.82,198.083 1873.77,681.244 1877.72,736.802 1881.67,756.962 1885.61,763.198 1889.56,524.615 1893.51,615.692 1897.45,451.12 1901.4,663.856 1905.35,680.712 1909.29,306.463 1913.24,540.383 1917.19,834.275 1921.13,809.298 1925.08,449.756 1929.03,767.695 1932.97,743.883 1936.92,243.893 1940.87,599.472 1944.81,494.541 1948.76,656.138 1952.71,530.511 1956.65,402.202 1960.6,528.331 1964.55,858.697 1968.49,502.23 1972.44,600.951 1976.39,768.489 1980.34,538.395 1984.28,144.353 1988.23,244.363 1992.18,492.366 1996.12,539.201 2000.07,666.092 2004.02,642.22 2007.96,650.084 2011.91,535.889 2015.86,752.13 2019.8,558.72 2023.75,813.748 2027.7,397.396 2031.64,636.769 2035.59,711.433 2039.54,471.156 2043.48,259.766 2047.43,557.446 2051.38,372.841 2055.32,635.929 2059.27,549.36 2063.22,818.914 2067.17,705.003 2071.11,1003.23 2075.06,1009.61 2079.01,879.823 2082.95,752.121 2086.9,968.747 2090.85,773.811 2094.79,875.441 2098.74,781.024 2102.69,775.663 2106.63,870.024 2110.58,847.839 2114.53,1027.71 2118.47,1156.21 2122.42,694.085 2126.37,1155.39 2130.31,918.545 2134.26,1010.57 2138.21,845.378 2142.15,908.971 2146.1,863.657 2150.05,811.325 2153.99,1020.91 2157.94,1093.48 2161.89,1105.17 2165.84,1297.48 2169.78,1156.78 2173.73,1030.84 2177.68,544.717 2181.62,989.621 2185.57,1039.03 2189.52,1032.7 2193.46,1001.23 2197.41,989.426 2201.36,1125.11 2205.3,723.33 2209.25,587.61 2213.2,904.164 2217.14,851.379 2221.09,1096.66 2225.04,1132.23 2228.98,836.809 2232.93,1041.26 2236.88,649.017 2240.82,1233.6 2244.77,1093.9 2248.72,776.947 2252.66,797.383 2256.61,751.099 2260.56,707.982 2264.51,760.616 2268.45,706.453 2272.4,482.912 2276.35,778.678 2280.29,563.073 2284.24,576.849 2288.19,624.395 2292.13,670.707 "/>
<path clip-path="url(#clip500)" d="M282.146 196.789 L615.606 196.789 L615.606 93.1086 L282.146 93.1086  Z" fill="#ffffff" fill-rule="evenodd" fill-opacity="1"/>
<polyline clip-path="url(#clip500)" style="stroke:#000000; stroke-linecap:round; stroke-linejoin:round; stroke-width:4; stroke-opacity:1; fill:none" points="282.146,196.789 615.606,196.789 615.606,93.1086 282.146,93.1086 282.146,196.789 "/>
<polyline clip-path="url(#clip500)" style="stroke:#ff7e0d; stroke-linecap:round; stroke-linejoin:round; stroke-width:8; stroke-opacity:1; fill:none" stroke-dasharray="32, 20" points="305.946,144.949 448.747,144.949 "/>
<path clip-path="url(#clip500)" d="M494.26 146.581 L494.26 162.229 L490.001 162.229 L490.001 146.719 Q490.001 143.039 488.566 141.21 Q487.13 139.382 484.26 139.382 Q480.811 139.382 478.82 141.581 Q476.83 143.78 476.83 147.576 L476.83 162.229 L472.547 162.229 L472.547 136.303 L476.83 136.303 L476.83 140.331 Q478.357 137.993 480.417 136.835 Q482.501 135.678 485.209 135.678 Q489.677 135.678 491.968 138.456 Q494.26 141.21 494.26 146.581 Z" fill="#000000" fill-rule="nonzero" fill-opacity="1" /><path clip-path="url(#clip500)" d="M512.802 139.289 Q509.376 139.289 507.385 141.974 Q505.394 144.636 505.394 149.289 Q505.394 153.942 507.362 156.627 Q509.353 159.289 512.802 159.289 Q516.204 159.289 518.195 156.604 Q520.186 153.918 520.186 149.289 Q520.186 144.682 518.195 141.997 Q516.204 139.289 512.802 139.289 M512.802 135.678 Q518.357 135.678 521.528 139.289 Q524.7 142.9 524.7 149.289 Q524.7 155.655 521.528 159.289 Q518.357 162.9 512.802 162.9 Q507.223 162.9 504.052 159.289 Q500.903 155.655 500.903 149.289 Q500.903 142.9 504.052 139.289 Q507.223 135.678 512.802 135.678 Z" fill="#000000" fill-rule="nonzero" fill-opacity="1" /><path clip-path="url(#clip500)" d="M531.76 136.303 L536.019 136.303 L536.019 162.229 L531.76 162.229 L531.76 136.303 M531.76 126.21 L536.019 126.21 L536.019 131.604 L531.76 131.604 L531.76 126.21 Z" fill="#000000" fill-rule="nonzero" fill-opacity="1" /><path clip-path="url(#clip500)" d="M561.459 137.067 L561.459 141.094 Q559.653 140.169 557.709 139.706 Q555.764 139.243 553.681 139.243 Q550.51 139.243 548.912 140.215 Q547.338 141.187 547.338 143.131 Q547.338 144.613 548.473 145.469 Q549.607 146.303 553.033 147.067 L554.491 147.391 Q559.028 148.363 560.926 150.145 Q562.848 151.905 562.848 155.076 Q562.848 158.687 559.977 160.793 Q557.13 162.9 552.13 162.9 Q550.047 162.9 547.778 162.483 Q545.533 162.09 543.033 161.28 L543.033 156.881 Q545.394 158.108 547.686 158.733 Q549.977 159.335 552.223 159.335 Q555.232 159.335 556.852 158.317 Q558.473 157.275 558.473 155.4 Q558.473 153.664 557.292 152.738 Q556.135 151.812 552.176 150.956 L550.695 150.608 Q546.737 149.775 544.977 148.062 Q543.218 146.326 543.218 143.317 Q543.218 139.659 545.811 137.669 Q548.403 135.678 553.172 135.678 Q555.533 135.678 557.616 136.025 Q559.699 136.372 561.459 137.067 Z" fill="#000000" fill-rule="nonzero" fill-opacity="1" /><path clip-path="url(#clip500)" d="M591.806 148.201 L591.806 150.284 L572.223 150.284 Q572.5 154.682 574.861 156.997 Q577.246 159.289 581.482 159.289 Q583.935 159.289 586.227 158.687 Q588.542 158.085 590.81 156.881 L590.81 160.909 Q588.519 161.881 586.111 162.391 Q583.704 162.9 581.227 162.9 Q575.023 162.9 571.389 159.289 Q567.778 155.678 567.778 149.52 Q567.778 143.155 571.204 139.428 Q574.653 135.678 580.486 135.678 Q585.718 135.678 588.75 139.057 Q591.806 142.414 591.806 148.201 M587.547 146.951 Q587.5 143.456 585.579 141.372 Q583.681 139.289 580.533 139.289 Q576.968 139.289 574.815 141.303 Q572.686 143.317 572.361 146.974 L587.547 146.951 Z" fill="#000000" fill-rule="nonzero" fill-opacity="1" /></svg>
