<?xml version="1.0" encoding="utf-8"?>
<svg xmlns="http://www.w3.org/2000/svg" xmlns:xlink="http://www.w3.org/1999/xlink" width="600" height="400" viewBox="0 0 2400 1600">
<defs>
  <clipPath id="clip560">
    <rect x="0" y="0" width="2400" height="1600"/>
  </clipPath>
</defs>
<path clip-path="url(#clip560)" d="M0 1600 L2400 1600 L2400 0 L0 0  Z" fill="#ffffff" fill-rule="evenodd" fill-opacity="1"/>
<defs>
  <clipPath id="clip561">
    <rect x="480" y="0" width="1681" height="1600"/>
  </clipPath>
</defs>
<path clip-path="url(#clip560)" d="M245.222 1427.5 L2352.76 1427.5 L2352.76 47.2441 L245.222 47.2441  Z" fill="#ffffff" fill-rule="evenodd" fill-opacity="1"/>
<defs>
  <clipPath id="clip562">
    <rect x="245" y="47" width="2109" height="1381"/>
  </clipPath>
</defs>
<polyline clip-path="url(#clip562)" style="stroke:#000000; stroke-linecap:round; stroke-linejoin:round; stroke-width:2; stroke-opacity:0.1; fill:none" points="304.869,1427.5 304.869,47.2441 "/>
<polyline clip-path="url(#clip562)" style="stroke:#000000; stroke-linecap:round; stroke-linejoin:round; stroke-width:2; stroke-opacity:0.1; fill:none" points="801.929,1427.5 801.929,47.2441 "/>
<polyline clip-path="url(#clip562)" style="stroke:#000000; stroke-linecap:round; stroke-linejoin:round; stroke-width:2; stroke-opacity:0.1; fill:none" points="1298.99,1427.5 1298.99,47.2441 "/>
<polyline clip-path="url(#clip562)" style="stroke:#000000; stroke-linecap:round; stroke-linejoin:round; stroke-width:2; stroke-opacity:0.1; fill:none" points="1796.05,1427.5 1796.05,47.2441 "/>
<polyline clip-path="url(#clip562)" style="stroke:#000000; stroke-linecap:round; stroke-linejoin:round; stroke-width:2; stroke-opacity:0.1; fill:none" points="2293.11,1427.5 2293.11,47.2441 "/>
<polyline clip-path="url(#clip562)" style="stroke:#000000; stroke-linecap:round; stroke-linejoin:round; stroke-width:2; stroke-opacity:0.1; fill:none" points="245.222,1321.33 2352.76,1321.33 "/>
<polyline clip-path="url(#clip562)" style="stroke:#000000; stroke-linecap:round; stroke-linejoin:round; stroke-width:2; stroke-opacity:0.1; fill:none" points="245.222,1055.89 2352.76,1055.89 "/>
<polyline clip-path="url(#clip562)" style="stroke:#000000; stroke-linecap:round; stroke-linejoin:round; stroke-width:2; stroke-opacity:0.1; fill:none" points="245.222,790.459 2352.76,790.459 "/>
<polyline clip-path="url(#clip562)" style="stroke:#000000; stroke-linecap:round; stroke-linejoin:round; stroke-width:2; stroke-opacity:0.1; fill:none" points="245.222,525.025 2352.76,525.025 "/>
<polyline clip-path="url(#clip562)" style="stroke:#000000; stroke-linecap:round; stroke-linejoin:round; stroke-width:2; stroke-opacity:0.1; fill:none" points="245.222,259.591 2352.76,259.591 "/>
<polyline clip-path="url(#clip560)" style="stroke:#000000; stroke-linecap:round; stroke-linejoin:round; stroke-width:4; stroke-opacity:1; fill:none" points="245.222,1427.5 2352.76,1427.5 "/>
<polyline clip-path="url(#clip560)" style="stroke:#000000; stroke-linecap:round; stroke-linejoin:round; stroke-width:4; stroke-opacity:1; fill:none" points="304.869,1427.5 304.869,1408.6 "/>
<polyline clip-path="url(#clip560)" style="stroke:#000000; stroke-linecap:round; stroke-linejoin:round; stroke-width:4; stroke-opacity:1; fill:none" points="801.929,1427.5 801.929,1408.6 "/>
<polyline clip-path="url(#clip560)" style="stroke:#000000; stroke-linecap:round; stroke-linejoin:round; stroke-width:4; stroke-opacity:1; fill:none" points="1298.99,1427.5 1298.99,1408.6 "/>
<polyline clip-path="url(#clip560)" style="stroke:#000000; stroke-linecap:round; stroke-linejoin:round; stroke-width:4; stroke-opacity:1; fill:none" points="1796.05,1427.5 1796.05,1408.6 "/>
<polyline clip-path="url(#clip560)" style="stroke:#000000; stroke-linecap:round; stroke-linejoin:round; stroke-width:4; stroke-opacity:1; fill:none" points="2293.11,1427.5 2293.11,1408.6 "/>
<path clip-path="url(#clip560)" d="M267.173 1458.42 Q263.562 1458.42 261.733 1461.98 Q259.927 1465.52 259.927 1472.65 Q259.927 1479.76 261.733 1483.33 Q263.562 1486.87 267.173 1486.87 Q270.807 1486.87 272.612 1483.33 Q274.441 1479.76 274.441 1472.65 Q274.441 1465.52 272.612 1461.98 Q270.807 1458.42 267.173 1458.42 M267.173 1454.71 Q272.983 1454.71 276.038 1459.32 Q279.117 1463.9 279.117 1472.65 Q279.117 1481.38 276.038 1485.99 Q272.983 1490.57 267.173 1490.57 Q261.363 1490.57 258.284 1485.99 Q255.228 1481.38 255.228 1472.65 Q255.228 1463.9 258.284 1459.32 Q261.363 1454.71 267.173 1454.71 Z" fill="#000000" fill-rule="nonzero" fill-opacity="1" /><path clip-path="url(#clip560)" d="M287.335 1484.02 L292.219 1484.02 L292.219 1489.9 L287.335 1489.9 L287.335 1484.02 Z" fill="#000000" fill-rule="nonzero" fill-opacity="1" /><path clip-path="url(#clip560)" d="M312.404 1458.42 Q308.793 1458.42 306.964 1461.98 Q305.159 1465.52 305.159 1472.65 Q305.159 1479.76 306.964 1483.33 Q308.793 1486.87 312.404 1486.87 Q316.038 1486.87 317.844 1483.33 Q319.672 1479.76 319.672 1472.65 Q319.672 1465.52 317.844 1461.98 Q316.038 1458.42 312.404 1458.42 M312.404 1454.71 Q318.214 1454.71 321.27 1459.32 Q324.348 1463.9 324.348 1472.65 Q324.348 1481.38 321.27 1485.99 Q318.214 1490.57 312.404 1490.57 Q306.594 1490.57 303.515 1485.99 Q300.46 1481.38 300.46 1472.65 Q300.46 1463.9 303.515 1459.32 Q306.594 1454.71 312.404 1454.71 Z" fill="#000000" fill-rule="nonzero" fill-opacity="1" /><path clip-path="url(#clip560)" d="M342.566 1458.42 Q338.955 1458.42 337.126 1461.98 Q335.32 1465.52 335.32 1472.65 Q335.32 1479.76 337.126 1483.33 Q338.955 1486.87 342.566 1486.87 Q346.2 1486.87 348.006 1483.33 Q349.834 1479.76 349.834 1472.65 Q349.834 1465.52 348.006 1461.98 Q346.2 1458.42 342.566 1458.42 M342.566 1454.71 Q348.376 1454.71 351.431 1459.32 Q354.51 1463.9 354.51 1472.65 Q354.51 1481.38 351.431 1485.99 Q348.376 1490.57 342.566 1490.57 Q336.756 1490.57 333.677 1485.99 Q330.621 1481.38 330.621 1472.65 Q330.621 1463.9 333.677 1459.32 Q336.756 1454.71 342.566 1454.71 Z" fill="#000000" fill-rule="nonzero" fill-opacity="1" /><path clip-path="url(#clip560)" d="M764.73 1458.42 Q761.119 1458.42 759.29 1461.98 Q757.485 1465.52 757.485 1472.65 Q757.485 1479.76 759.29 1483.33 Q761.119 1486.87 764.73 1486.87 Q768.364 1486.87 770.17 1483.33 Q771.999 1479.76 771.999 1472.65 Q771.999 1465.52 770.17 1461.98 Q768.364 1458.42 764.73 1458.42 M764.73 1454.71 Q770.54 1454.71 773.596 1459.32 Q776.675 1463.9 776.675 1472.65 Q776.675 1481.38 773.596 1485.99 Q770.54 1490.57 764.73 1490.57 Q758.92 1490.57 755.841 1485.99 Q752.786 1481.38 752.786 1472.65 Q752.786 1463.9 755.841 1459.32 Q758.92 1454.71 764.73 1454.71 Z" fill="#000000" fill-rule="nonzero" fill-opacity="1" /><path clip-path="url(#clip560)" d="M784.892 1484.02 L789.776 1484.02 L789.776 1489.9 L784.892 1489.9 L784.892 1484.02 Z" fill="#000000" fill-rule="nonzero" fill-opacity="1" /><path clip-path="url(#clip560)" d="M803.989 1485.96 L820.309 1485.96 L820.309 1489.9 L798.364 1489.9 L798.364 1485.96 Q801.026 1483.21 805.61 1478.58 Q810.216 1473.93 811.397 1472.59 Q813.642 1470.06 814.522 1468.33 Q815.424 1466.57 815.424 1464.88 Q815.424 1462.12 813.48 1460.39 Q811.559 1458.65 808.457 1458.65 Q806.258 1458.65 803.804 1459.41 Q801.374 1460.18 798.596 1461.73 L798.596 1457.01 Q801.42 1455.87 803.874 1455.29 Q806.327 1454.71 808.364 1454.71 Q813.735 1454.71 816.929 1457.4 Q820.123 1460.09 820.123 1464.58 Q820.123 1466.71 819.313 1468.63 Q818.526 1470.52 816.42 1473.12 Q815.841 1473.79 812.739 1477.01 Q809.637 1480.2 803.989 1485.96 Z" fill="#000000" fill-rule="nonzero" fill-opacity="1" /><path clip-path="url(#clip560)" d="M830.17 1455.34 L848.526 1455.34 L848.526 1459.28 L834.452 1459.28 L834.452 1467.75 Q835.471 1467.4 836.489 1467.24 Q837.508 1467.05 838.526 1467.05 Q844.313 1467.05 847.693 1470.22 Q851.072 1473.4 851.072 1478.81 Q851.072 1484.39 847.6 1487.49 Q844.128 1490.57 837.809 1490.57 Q835.633 1490.57 833.364 1490.2 Q831.119 1489.83 828.711 1489.09 L828.711 1484.39 Q830.795 1485.52 833.017 1486.08 Q835.239 1486.64 837.716 1486.64 Q841.721 1486.64 844.058 1484.53 Q846.396 1482.42 846.396 1478.81 Q846.396 1475.2 844.058 1473.09 Q841.721 1470.99 837.716 1470.99 Q835.841 1470.99 833.966 1471.4 Q832.114 1471.82 830.17 1472.7 L830.17 1455.34 Z" fill="#000000" fill-rule="nonzero" fill-opacity="1" /><path clip-path="url(#clip560)" d="M1261.29 1458.42 Q1257.68 1458.42 1255.85 1461.98 Q1254.05 1465.52 1254.05 1472.65 Q1254.05 1479.76 1255.85 1483.33 Q1257.68 1486.87 1261.29 1486.87 Q1264.93 1486.87 1266.73 1483.33 Q1268.56 1479.76 1268.56 1472.65 Q1268.56 1465.52 1266.73 1461.98 Q1264.93 1458.42 1261.29 1458.42 M1261.29 1454.71 Q1267.1 1454.71 1270.16 1459.32 Q1273.24 1463.9 1273.24 1472.65 Q1273.24 1481.38 1270.16 1485.99 Q1267.1 1490.57 1261.29 1490.57 Q1255.48 1490.57 1252.4 1485.99 Q1249.35 1481.38 1249.35 1472.65 Q1249.35 1463.9 1252.4 1459.32 Q1255.48 1454.71 1261.29 1454.71 Z" fill="#000000" fill-rule="nonzero" fill-opacity="1" /><path clip-path="url(#clip560)" d="M1281.45 1484.02 L1286.34 1484.02 L1286.34 1489.9 L1281.45 1489.9 L1281.45 1484.02 Z" fill="#000000" fill-rule="nonzero" fill-opacity="1" /><path clip-path="url(#clip560)" d="M1296.57 1455.34 L1314.93 1455.34 L1314.93 1459.28 L1300.85 1459.28 L1300.85 1467.75 Q1301.87 1467.4 1302.89 1467.24 Q1303.91 1467.05 1304.93 1467.05 Q1310.71 1467.05 1314.09 1470.22 Q1317.47 1473.4 1317.47 1478.81 Q1317.47 1484.39 1314 1487.49 Q1310.53 1490.57 1304.21 1490.57 Q1302.03 1490.57 1299.76 1490.2 Q1297.52 1489.83 1295.11 1489.09 L1295.11 1484.39 Q1297.19 1485.52 1299.42 1486.08 Q1301.64 1486.64 1304.12 1486.64 Q1308.12 1486.64 1310.46 1484.53 Q1312.8 1482.42 1312.8 1478.81 Q1312.8 1475.2 1310.46 1473.09 Q1308.12 1470.99 1304.12 1470.99 Q1302.24 1470.99 1300.37 1471.4 Q1298.51 1471.82 1296.57 1472.7 L1296.57 1455.34 Z" fill="#000000" fill-rule="nonzero" fill-opacity="1" /><path clip-path="url(#clip560)" d="M1336.69 1458.42 Q1333.07 1458.42 1331.25 1461.98 Q1329.44 1465.52 1329.44 1472.65 Q1329.44 1479.76 1331.25 1483.33 Q1333.07 1486.87 1336.69 1486.87 Q1340.32 1486.87 1342.13 1483.33 Q1343.95 1479.76 1343.95 1472.65 Q1343.95 1465.52 1342.13 1461.98 Q1340.32 1458.42 1336.69 1458.42 M1336.69 1454.71 Q1342.5 1454.71 1345.55 1459.32 Q1348.63 1463.9 1348.63 1472.65 Q1348.63 1481.38 1345.55 1485.99 Q1342.5 1490.57 1336.69 1490.57 Q1330.88 1490.57 1327.8 1485.99 Q1324.74 1481.38 1324.74 1472.65 Q1324.74 1463.9 1327.8 1459.32 Q1330.88 1454.71 1336.69 1454.71 Z" fill="#000000" fill-rule="nonzero" fill-opacity="1" /><path clip-path="url(#clip560)" d="M1758.85 1458.42 Q1755.24 1458.42 1753.41 1461.98 Q1751.6 1465.52 1751.6 1472.65 Q1751.6 1479.76 1753.41 1483.33 Q1755.24 1486.87 1758.85 1486.87 Q1762.48 1486.87 1764.29 1483.33 Q1766.12 1479.76 1766.12 1472.65 Q1766.12 1465.52 1764.29 1461.98 Q1762.48 1458.42 1758.85 1458.42 M1758.85 1454.71 Q1764.66 1454.71 1767.72 1459.32 Q1770.79 1463.9 1770.79 1472.65 Q1770.79 1481.38 1767.72 1485.99 Q1764.66 1490.57 1758.85 1490.57 Q1753.04 1490.57 1749.96 1485.99 Q1746.91 1481.38 1746.91 1472.65 Q1746.91 1463.9 1749.96 1459.32 Q1753.04 1454.71 1758.85 1454.71 Z" fill="#000000" fill-rule="nonzero" fill-opacity="1" /><path clip-path="url(#clip560)" d="M1779.01 1484.02 L1783.9 1484.02 L1783.9 1489.9 L1779.01 1489.9 L1779.01 1484.02 Z" fill="#000000" fill-rule="nonzero" fill-opacity="1" /><path clip-path="url(#clip560)" d="M1792.9 1455.34 L1815.12 1455.34 L1815.12 1457.33 L1802.58 1489.9 L1797.69 1489.9 L1809.5 1459.28 L1792.9 1459.28 L1792.9 1455.34 Z" fill="#000000" fill-rule="nonzero" fill-opacity="1" /><path clip-path="url(#clip560)" d="M1824.29 1455.34 L1842.65 1455.34 L1842.65 1459.28 L1828.57 1459.28 L1828.57 1467.75 Q1829.59 1467.4 1830.61 1467.24 Q1831.63 1467.05 1832.65 1467.05 Q1838.43 1467.05 1841.81 1470.22 Q1845.19 1473.4 1845.19 1478.81 Q1845.19 1484.39 1841.72 1487.49 Q1838.25 1490.57 1831.93 1490.57 Q1829.75 1490.57 1827.48 1490.2 Q1825.24 1489.83 1822.83 1489.09 L1822.83 1484.39 Q1824.91 1485.52 1827.14 1486.08 Q1829.36 1486.64 1831.84 1486.64 Q1835.84 1486.64 1838.18 1484.53 Q1840.52 1482.42 1840.52 1478.81 Q1840.52 1475.2 1838.18 1473.09 Q1835.84 1470.99 1831.84 1470.99 Q1829.96 1470.99 1828.09 1471.4 Q1826.23 1471.82 1824.29 1472.7 L1824.29 1455.34 Z" fill="#000000" fill-rule="nonzero" fill-opacity="1" /><path clip-path="url(#clip560)" d="M2245.18 1485.96 L2252.82 1485.96 L2252.82 1459.6 L2244.51 1461.27 L2244.51 1457.01 L2252.77 1455.34 L2257.45 1455.34 L2257.45 1485.96 L2265.09 1485.96 L2265.09 1489.9 L2245.18 1489.9 L2245.18 1485.96 Z" fill="#000000" fill-rule="nonzero" fill-opacity="1" /><path clip-path="url(#clip560)" d="M2274.53 1484.02 L2279.42 1484.02 L2279.42 1489.9 L2274.53 1489.9 L2274.53 1484.02 Z" fill="#000000" fill-rule="nonzero" fill-opacity="1" /><path clip-path="url(#clip560)" d="M2299.6 1458.42 Q2295.99 1458.42 2294.16 1461.98 Q2292.36 1465.52 2292.36 1472.65 Q2292.36 1479.76 2294.16 1483.33 Q2295.99 1486.87 2299.6 1486.87 Q2303.24 1486.87 2305.04 1483.33 Q2306.87 1479.76 2306.87 1472.65 Q2306.87 1465.52 2305.04 1461.98 Q2303.24 1458.42 2299.6 1458.42 M2299.6 1454.71 Q2305.41 1454.71 2308.47 1459.32 Q2311.55 1463.9 2311.55 1472.65 Q2311.55 1481.38 2308.47 1485.99 Q2305.41 1490.57 2299.6 1490.57 Q2293.79 1490.57 2290.71 1485.99 Q2287.66 1481.38 2287.66 1472.65 Q2287.66 1463.9 2290.71 1459.32 Q2293.79 1454.71 2299.6 1454.71 Z" fill="#000000" fill-rule="nonzero" fill-opacity="1" /><path clip-path="url(#clip560)" d="M2329.76 1458.42 Q2326.15 1458.42 2324.32 1461.98 Q2322.52 1465.52 2322.52 1472.65 Q2322.52 1479.76 2324.32 1483.33 Q2326.15 1486.87 2329.76 1486.87 Q2333.4 1486.87 2335.2 1483.33 Q2337.03 1479.76 2337.03 1472.65 Q2337.03 1465.52 2335.2 1461.98 Q2333.4 1458.42 2329.76 1458.42 M2329.76 1454.71 Q2335.57 1454.71 2338.63 1459.32 Q2341.71 1463.9 2341.71 1472.65 Q2341.71 1481.38 2338.63 1485.99 Q2335.57 1490.57 2329.76 1490.57 Q2323.95 1490.57 2320.87 1485.99 Q2317.82 1481.38 2317.82 1472.65 Q2317.82 1463.9 2320.87 1459.32 Q2323.95 1454.71 2329.76 1454.71 Z" fill="#000000" fill-rule="nonzero" fill-opacity="1" /><path clip-path="url(#clip560)" d="M1282.52 1523.98 L1288.37 1523.98 L1288.37 1541.69 L1309.61 1541.69 L1309.61 1523.98 L1315.45 1523.98 L1315.45 1567.18 L1309.61 1567.18 L1309.61 1546.61 L1288.37 1546.61 L1288.37 1567.18 L1282.52 1567.18 L1282.52 1523.98 Z" fill="#000000" fill-rule="nonzero" fill-opacity="1" /><polyline clip-path="url(#clip560)" style="stroke:#000000; stroke-linecap:round; stroke-linejoin:round; stroke-width:4; stroke-opacity:1; fill:none" points="245.222,1427.5 245.222,47.2441 "/>
<polyline clip-path="url(#clip560)" style="stroke:#000000; stroke-linecap:round; stroke-linejoin:round; stroke-width:4; stroke-opacity:1; fill:none" points="245.222,1321.33 264.12,1321.33 "/>
<polyline clip-path="url(#clip560)" style="stroke:#000000; stroke-linecap:round; stroke-linejoin:round; stroke-width:4; stroke-opacity:1; fill:none" points="245.222,1055.89 264.12,1055.89 "/>
<polyline clip-path="url(#clip560)" style="stroke:#000000; stroke-linecap:round; stroke-linejoin:round; stroke-width:4; stroke-opacity:1; fill:none" points="245.222,790.459 264.12,790.459 "/>
<polyline clip-path="url(#clip560)" style="stroke:#000000; stroke-linecap:round; stroke-linejoin:round; stroke-width:4; stroke-opacity:1; fill:none" points="245.222,525.025 264.12,525.025 "/>
<polyline clip-path="url(#clip560)" style="stroke:#000000; stroke-linecap:round; stroke-linejoin:round; stroke-width:4; stroke-opacity:1; fill:none" points="245.222,259.591 264.12,259.591 "/>
<path clip-path="url(#clip560)" d="M121.885 1307.13 Q118.273 1307.13 116.445 1310.69 Q114.639 1314.23 114.639 1321.36 Q114.639 1328.47 116.445 1332.03 Q118.273 1335.57 121.885 1335.57 Q125.519 1335.57 127.324 1332.03 Q129.153 1328.47 129.153 1321.36 Q129.153 1314.23 127.324 1310.69 Q125.519 1307.13 121.885 1307.13 M121.885 1303.42 Q127.695 1303.42 130.75 1308.03 Q133.829 1312.61 133.829 1321.36 Q133.829 1330.09 130.75 1334.69 Q127.695 1339.28 121.885 1339.28 Q116.074 1339.28 112.996 1334.69 Q109.94 1330.09 109.94 1321.36 Q109.94 1312.61 112.996 1308.03 Q116.074 1303.42 121.885 1303.42 Z" fill="#000000" fill-rule="nonzero" fill-opacity="1" /><path clip-path="url(#clip560)" d="M142.046 1332.73 L146.931 1332.73 L146.931 1338.61 L142.046 1338.61 L142.046 1332.73 Z" fill="#000000" fill-rule="nonzero" fill-opacity="1" /><path clip-path="url(#clip560)" d="M167.116 1307.13 Q163.505 1307.13 161.676 1310.69 Q159.87 1314.23 159.87 1321.36 Q159.87 1328.47 161.676 1332.03 Q163.505 1335.57 167.116 1335.57 Q170.75 1335.57 172.556 1332.03 Q174.384 1328.47 174.384 1321.36 Q174.384 1314.23 172.556 1310.69 Q170.75 1307.13 167.116 1307.13 M167.116 1303.42 Q172.926 1303.42 175.981 1308.03 Q179.06 1312.61 179.06 1321.36 Q179.06 1330.09 175.981 1334.69 Q172.926 1339.28 167.116 1339.28 Q161.306 1339.28 158.227 1334.69 Q155.171 1330.09 155.171 1321.36 Q155.171 1312.61 158.227 1308.03 Q161.306 1303.42 167.116 1303.42 Z" fill="#000000" fill-rule="nonzero" fill-opacity="1" /><path clip-path="url(#clip560)" d="M197.278 1307.13 Q193.667 1307.13 191.838 1310.69 Q190.032 1314.23 190.032 1321.36 Q190.032 1328.47 191.838 1332.03 Q193.667 1335.57 197.278 1335.57 Q200.912 1335.57 202.717 1332.03 Q204.546 1328.47 204.546 1321.36 Q204.546 1314.23 202.717 1310.69 Q200.912 1307.13 197.278 1307.13 M197.278 1303.42 Q203.088 1303.42 206.143 1308.03 Q209.222 1312.61 209.222 1321.36 Q209.222 1330.09 206.143 1334.69 Q203.088 1339.28 197.278 1339.28 Q191.467 1339.28 188.389 1334.69 Q185.333 1330.09 185.333 1321.36 Q185.333 1312.61 188.389 1308.03 Q191.467 1303.42 197.278 1303.42 Z" fill="#000000" fill-rule="nonzero" fill-opacity="1" /><path clip-path="url(#clip560)" d="M122.88 1041.69 Q119.269 1041.69 117.44 1045.26 Q115.635 1048.8 115.635 1055.93 Q115.635 1063.03 117.44 1066.6 Q119.269 1070.14 122.88 1070.14 Q126.514 1070.14 128.32 1066.6 Q130.148 1063.03 130.148 1055.93 Q130.148 1048.8 128.32 1045.26 Q126.514 1041.69 122.88 1041.69 M122.88 1037.99 Q128.69 1037.99 131.746 1042.59 Q134.824 1047.18 134.824 1055.93 Q134.824 1064.65 131.746 1069.26 Q128.69 1073.84 122.88 1073.84 Q117.07 1073.84 113.991 1069.26 Q110.936 1064.65 110.936 1055.93 Q110.936 1047.18 113.991 1042.59 Q117.07 1037.99 122.88 1037.99 Z" fill="#000000" fill-rule="nonzero" fill-opacity="1" /><path clip-path="url(#clip560)" d="M143.042 1067.29 L147.926 1067.29 L147.926 1073.17 L143.042 1073.17 L143.042 1067.29 Z" fill="#000000" fill-rule="nonzero" fill-opacity="1" /><path clip-path="url(#clip560)" d="M162.139 1069.24 L178.458 1069.24 L178.458 1073.17 L156.514 1073.17 L156.514 1069.24 Q159.176 1066.48 163.759 1061.85 Q168.366 1057.2 169.546 1055.86 Q171.792 1053.33 172.671 1051.6 Q173.574 1049.84 173.574 1048.15 Q173.574 1045.39 171.63 1043.66 Q169.708 1041.92 166.607 1041.92 Q164.407 1041.92 161.954 1042.69 Q159.523 1043.45 156.745 1045 L156.745 1040.28 Q159.57 1039.14 162.023 1038.57 Q164.477 1037.99 166.514 1037.99 Q171.884 1037.99 175.079 1040.67 Q178.273 1043.36 178.273 1047.85 Q178.273 1049.98 177.463 1051.9 Q176.676 1053.8 174.569 1056.39 Q173.991 1057.06 170.889 1060.28 Q167.787 1063.47 162.139 1069.24 Z" fill="#000000" fill-rule="nonzero" fill-opacity="1" /><path clip-path="url(#clip560)" d="M188.319 1038.61 L206.676 1038.61 L206.676 1042.55 L192.602 1042.55 L192.602 1051.02 Q193.62 1050.67 194.639 1050.51 Q195.657 1050.33 196.676 1050.33 Q202.463 1050.33 205.842 1053.5 Q209.222 1056.67 209.222 1062.08 Q209.222 1067.66 205.75 1070.77 Q202.278 1073.84 195.958 1073.84 Q193.782 1073.84 191.514 1073.47 Q189.268 1073.1 186.861 1072.36 L186.861 1067.66 Q188.944 1068.8 191.167 1069.35 Q193.389 1069.91 195.866 1069.91 Q199.87 1069.91 202.208 1067.8 Q204.546 1065.7 204.546 1062.08 Q204.546 1058.47 202.208 1056.37 Q199.87 1054.26 195.866 1054.26 Q193.991 1054.26 192.116 1054.68 Q190.264 1055.09 188.319 1055.97 L188.319 1038.61 Z" fill="#000000" fill-rule="nonzero" fill-opacity="1" /><path clip-path="url(#clip560)" d="M121.885 776.257 Q118.273 776.257 116.445 779.822 Q114.639 783.364 114.639 790.493 Q114.639 797.6 116.445 801.165 Q118.273 804.706 121.885 804.706 Q125.519 804.706 127.324 801.165 Q129.153 797.6 129.153 790.493 Q129.153 783.364 127.324 779.822 Q125.519 776.257 121.885 776.257 M121.885 772.554 Q127.695 772.554 130.75 777.16 Q133.829 781.743 133.829 790.493 Q133.829 799.22 130.75 803.827 Q127.695 808.41 121.885 808.41 Q116.074 808.41 112.996 803.827 Q109.94 799.22 109.94 790.493 Q109.94 781.743 112.996 777.16 Q116.074 772.554 121.885 772.554 Z" fill="#000000" fill-rule="nonzero" fill-opacity="1" /><path clip-path="url(#clip560)" d="M142.046 801.859 L146.931 801.859 L146.931 807.739 L142.046 807.739 L142.046 801.859 Z" fill="#000000" fill-rule="nonzero" fill-opacity="1" /><path clip-path="url(#clip560)" d="M157.162 773.179 L175.519 773.179 L175.519 777.114 L161.445 777.114 L161.445 785.586 Q162.463 785.239 163.482 785.077 Q164.5 784.892 165.519 784.892 Q171.306 784.892 174.685 788.063 Q178.065 791.234 178.065 796.651 Q178.065 802.229 174.593 805.331 Q171.12 808.41 164.801 808.41 Q162.625 808.41 160.357 808.04 Q158.111 807.669 155.704 806.929 L155.704 802.229 Q157.787 803.364 160.009 803.919 Q162.232 804.475 164.708 804.475 Q168.713 804.475 171.051 802.368 Q173.389 800.262 173.389 796.651 Q173.389 793.04 171.051 790.933 Q168.713 788.827 164.708 788.827 Q162.833 788.827 160.958 789.243 Q159.107 789.66 157.162 790.54 L157.162 773.179 Z" fill="#000000" fill-rule="nonzero" fill-opacity="1" /><path clip-path="url(#clip560)" d="M197.278 776.257 Q193.667 776.257 191.838 779.822 Q190.032 783.364 190.032 790.493 Q190.032 797.6 191.838 801.165 Q193.667 804.706 197.278 804.706 Q200.912 804.706 202.717 801.165 Q204.546 797.6 204.546 790.493 Q204.546 783.364 202.717 779.822 Q200.912 776.257 197.278 776.257 M197.278 772.554 Q203.088 772.554 206.143 777.16 Q209.222 781.743 209.222 790.493 Q209.222 799.22 206.143 803.827 Q203.088 808.41 197.278 808.41 Q191.467 808.41 188.389 803.827 Q185.333 799.22 185.333 790.493 Q185.333 781.743 188.389 777.16 Q191.467 772.554 197.278 772.554 Z" fill="#000000" fill-rule="nonzero" fill-opacity="1" /><path clip-path="url(#clip560)" d="M122.88 510.824 Q119.269 510.824 117.44 514.388 Q115.635 517.93 115.635 525.06 Q115.635 532.166 117.44 535.731 Q119.269 539.273 122.88 539.273 Q126.514 539.273 128.32 535.731 Q130.148 532.166 130.148 525.06 Q130.148 517.93 128.32 514.388 Q126.514 510.824 122.88 510.824 M122.88 507.12 Q128.69 507.12 131.746 511.726 Q134.824 516.31 134.824 525.06 Q134.824 533.786 131.746 538.393 Q128.69 542.976 122.88 542.976 Q117.07 542.976 113.991 538.393 Q110.936 533.786 110.936 525.06 Q110.936 516.31 113.991 511.726 Q117.07 507.12 122.88 507.12 Z" fill="#000000" fill-rule="nonzero" fill-opacity="1" /><path clip-path="url(#clip560)" d="M143.042 536.425 L147.926 536.425 L147.926 542.305 L143.042 542.305 L143.042 536.425 Z" fill="#000000" fill-rule="nonzero" fill-opacity="1" /><path clip-path="url(#clip560)" d="M156.931 507.745 L179.153 507.745 L179.153 509.736 L166.607 542.305 L161.722 542.305 L173.528 511.68 L156.931 511.68 L156.931 507.745 Z" fill="#000000" fill-rule="nonzero" fill-opacity="1" /><path clip-path="url(#clip560)" d="M188.319 507.745 L206.676 507.745 L206.676 511.68 L192.602 511.68 L192.602 520.152 Q193.62 519.805 194.639 519.643 Q195.657 519.458 196.676 519.458 Q202.463 519.458 205.842 522.629 Q209.222 525.8 209.222 531.217 Q209.222 536.796 205.75 539.898 Q202.278 542.976 195.958 542.976 Q193.782 542.976 191.514 542.606 Q189.268 542.235 186.861 541.495 L186.861 536.796 Q188.944 537.93 191.167 538.486 Q193.389 539.041 195.866 539.041 Q199.87 539.041 202.208 536.935 Q204.546 534.828 204.546 531.217 Q204.546 527.606 202.208 525.499 Q199.87 523.393 195.866 523.393 Q193.991 523.393 192.116 523.81 Q190.264 524.226 188.319 525.106 L188.319 507.745 Z" fill="#000000" fill-rule="nonzero" fill-opacity="1" /><path clip-path="url(#clip560)" d="M112.695 272.936 L120.334 272.936 L120.334 246.57 L112.023 248.237 L112.023 243.978 L120.287 242.311 L124.963 242.311 L124.963 272.936 L132.602 272.936 L132.602 276.871 L112.695 276.871 L112.695 272.936 Z" fill="#000000" fill-rule="nonzero" fill-opacity="1" /><path clip-path="url(#clip560)" d="M142.046 270.992 L146.931 270.992 L146.931 276.871 L142.046 276.871 L142.046 270.992 Z" fill="#000000" fill-rule="nonzero" fill-opacity="1" /><path clip-path="url(#clip560)" d="M167.116 245.39 Q163.505 245.39 161.676 248.955 Q159.87 252.496 159.87 259.626 Q159.87 266.732 161.676 270.297 Q163.505 273.839 167.116 273.839 Q170.75 273.839 172.556 270.297 Q174.384 266.732 174.384 259.626 Q174.384 252.496 172.556 248.955 Q170.75 245.39 167.116 245.39 M167.116 241.686 Q172.926 241.686 175.981 246.293 Q179.06 250.876 179.06 259.626 Q179.06 268.353 175.981 272.959 Q172.926 277.542 167.116 277.542 Q161.306 277.542 158.227 272.959 Q155.171 268.353 155.171 259.626 Q155.171 250.876 158.227 246.293 Q161.306 241.686 167.116 241.686 Z" fill="#000000" fill-rule="nonzero" fill-opacity="1" /><path clip-path="url(#clip560)" d="M197.278 245.39 Q193.667 245.39 191.838 248.955 Q190.032 252.496 190.032 259.626 Q190.032 266.732 191.838 270.297 Q193.667 273.839 197.278 273.839 Q200.912 273.839 202.717 270.297 Q204.546 266.732 204.546 259.626 Q204.546 252.496 202.717 248.955 Q200.912 245.39 197.278 245.39 M197.278 241.686 Q203.088 241.686 206.143 246.293 Q209.222 250.876 209.222 259.626 Q209.222 268.353 206.143 272.959 Q203.088 277.542 197.278 277.542 Q191.467 277.542 188.389 272.959 Q185.333 268.353 185.333 259.626 Q185.333 250.876 188.389 246.293 Q191.467 241.686 197.278 241.686 Z" fill="#000000" fill-rule="nonzero" fill-opacity="1" /><path clip-path="url(#clip560)" d="M56.1191 746.515 L73.3065 746.515 L73.3065 751.868 L28.5729 751.868 L28.5729 746.515 L33.4919 746.515 Q30.5984 744.837 29.2095 742.291 Q27.7917 739.716 27.7917 736.157 Q27.7917 730.254 32.4792 726.579 Q37.1666 722.876 44.8055 722.876 Q52.4443 722.876 57.1318 726.579 Q61.8193 730.254 61.8193 736.157 Q61.8193 739.716 60.4304 742.291 Q59.0126 744.837 56.1191 746.515 M44.8055 728.402 Q38.9317 728.402 35.6041 730.833 Q32.2477 733.234 32.2477 737.459 Q32.2477 741.683 35.6041 744.114 Q38.9317 746.515 44.8055 746.515 Q50.6793 746.515 54.0358 744.114 Q57.3633 741.683 57.3633 737.459 Q57.3633 733.234 54.0358 730.833 Q50.6793 728.402 44.8055 728.402 Z" fill="#000000" fill-rule="nonzero" fill-opacity="1" /><polyline clip-path="url(#clip562)" style="stroke:#000000; stroke-linecap:round; stroke-linejoin:round; stroke-width:4; stroke-opacity:1; fill:none" points="503.693,702.648 503.693,581.161 "/>
<polyline clip-path="url(#clip562)" style="stroke:#000000; stroke-linecap:round; stroke-linejoin:round; stroke-width:4; stroke-opacity:1; fill:none" points="702.517,598.284 702.517,467.21 "/>
<polyline clip-path="url(#clip562)" style="stroke:#000000; stroke-linecap:round; stroke-linejoin:round; stroke-width:4; stroke-opacity:1; fill:none" points="901.341,540.19 901.341,415.202 "/>
<polyline clip-path="url(#clip562)" style="stroke:#000000; stroke-linecap:round; stroke-linejoin:round; stroke-width:4; stroke-opacity:1; fill:none" points="1100.17,402.255 1100.17,282.744 "/>
<polyline clip-path="url(#clip562)" style="stroke:#000000; stroke-linecap:round; stroke-linejoin:round; stroke-width:4; stroke-opacity:1; fill:none" points="1298.99,313.889 1298.99,188.861 "/>
<polyline clip-path="url(#clip562)" style="stroke:#000000; stroke-linecap:round; stroke-linejoin:round; stroke-width:4; stroke-opacity:1; fill:none" points="1696.64,317.535 1696.64,188.079 "/>
<polyline clip-path="url(#clip562)" style="stroke:#000000; stroke-linecap:round; stroke-linejoin:round; stroke-width:4; stroke-opacity:1; fill:none" points="2094.28,323.147 2094.28,184.163 "/>
<line clip-path="url(#clip562)" x1="519.693" y1="702.648" x2="487.693" y2="702.648" style="stroke:#000000; stroke-width:4; stroke-opacity:1"/>
<line clip-path="url(#clip562)" x1="519.693" y1="581.161" x2="487.693" y2="581.161" style="stroke:#000000; stroke-width:4; stroke-opacity:1"/>
<line clip-path="url(#clip562)" x1="718.517" y1="598.284" x2="686.517" y2="598.284" style="stroke:#000000; stroke-width:4; stroke-opacity:1"/>
<line clip-path="url(#clip562)" x1="718.517" y1="467.21" x2="686.517" y2="467.21" style="stroke:#000000; stroke-width:4; stroke-opacity:1"/>
<line clip-path="url(#clip562)" x1="917.341" y1="540.19" x2="885.341" y2="540.19" style="stroke:#000000; stroke-width:4; stroke-opacity:1"/>
<line clip-path="url(#clip562)" x1="917.341" y1="415.202" x2="885.341" y2="415.202" style="stroke:#000000; stroke-width:4; stroke-opacity:1"/>
<line clip-path="url(#clip562)" x1="1116.17" y1="402.255" x2="1084.17" y2="402.255" style="stroke:#000000; stroke-width:4; stroke-opacity:1"/>
<line clip-path="url(#clip562)" x1="1116.17" y1="282.744" x2="1084.17" y2="282.744" style="stroke:#000000; stroke-width:4; stroke-opacity:1"/>
<line clip-path="url(#clip562)" x1="1314.99" y1="313.889" x2="1282.99" y2="313.889" style="stroke:#000000; stroke-width:4; stroke-opacity:1"/>
<line clip-path="url(#clip562)" x1="1314.99" y1="188.861" x2="1282.99" y2="188.861" style="stroke:#000000; stroke-width:4; stroke-opacity:1"/>
<line clip-path="url(#clip562)" x1="1712.64" y1="317.535" x2="1680.64" y2="317.535" style="stroke:#000000; stroke-width:4; stroke-opacity:1"/>
<line clip-path="url(#clip562)" x1="1712.64" y1="188.079" x2="1680.64" y2="188.079" style="stroke:#000000; stroke-width:4; stroke-opacity:1"/>
<line clip-path="url(#clip562)" x1="2110.28" y1="323.147" x2="2078.28" y2="323.147" style="stroke:#000000; stroke-width:4; stroke-opacity:1"/>
<line clip-path="url(#clip562)" x1="2110.28" y1="184.163" x2="2078.28" y2="184.163" style="stroke:#000000; stroke-width:4; stroke-opacity:1"/>
<circle clip-path="url(#clip562)" cx="503.693" cy="641.706" r="14.4" fill="#009af9" fill-rule="evenodd" fill-opacity="1" stroke="#000000" stroke-opacity="1" stroke-width="3.2"/>
<circle clip-path="url(#clip562)" cx="702.517" cy="532.583" r="14.4" fill="#009af9" fill-rule="evenodd" fill-opacity="1" stroke="#000000" stroke-opacity="1" stroke-width="3.2"/>
<circle clip-path="url(#clip562)" cx="901.341" cy="477.507" r="14.4" fill="#009af9" fill-rule="evenodd" fill-opacity="1" stroke="#000000" stroke-opacity="1" stroke-width="3.2"/>
<circle clip-path="url(#clip562)" cx="1100.17" cy="342.513" r="14.4" fill="#009af9" fill-rule="evenodd" fill-opacity="1" stroke="#000000" stroke-opacity="1" stroke-width="3.2"/>
<circle clip-path="url(#clip562)" cx="1298.99" cy="251.341" r="14.4" fill="#009af9" fill-rule="evenodd" fill-opacity="1" stroke="#000000" stroke-opacity="1" stroke-width="3.2"/>
<circle clip-path="url(#clip562)" cx="1696.64" cy="252.833" r="14.4" fill="#009af9" fill-rule="evenodd" fill-opacity="1" stroke="#000000" stroke-opacity="1" stroke-width="3.2"/>
<circle clip-path="url(#clip562)" cx="2094.28" cy="253.659" r="14.4" fill="#009af9" fill-rule="evenodd" fill-opacity="1" stroke="#000000" stroke-opacity="1" stroke-width="3.2"/>
<polyline clip-path="url(#clip562)" style="stroke:#e26f46; stroke-linecap:round; stroke-linejoin:round; stroke-width:4; stroke-opacity:1; fill:none" stroke-dasharray="16, 10" points="304.869,790.459 1298.99,259.591 2293.11,259.591 "/>
<polyline clip-path="url(#clip562)" style="stroke:#3da44d; stroke-linecap:round; stroke-linejoin:round; stroke-width:4; stroke-opacity:1; fill:none" stroke-dasharray="2, 4" points="304.869,1321.33 1298.99,790.459 2293.11,259.591 "/>
<path clip-path="url(#clip560)" d="M1839.44 1381.49 L2282.5 1381.49 L2282.5 1174.13 L1839.44 1174.13  Z" fill="#ffffff" fill-rule="evenodd" fill-opacity="1"/>
<polyline clip-path="url(#clip560)" style="stroke:#000000; stroke-linecap:round; stroke-linejoin:round; stroke-width:4; stroke-opacity:1; fill:none" points="1839.44,1381.49 2282.5,1381.49 2282.5,1174.13 1839.44,1174.13 1839.44,1381.49 "/>
<circle clip-path="url(#clip560)" cx="1933.11" cy="1225.97" r="20.48" fill="#009af9" fill-rule="evenodd" fill-opacity="1" stroke="#000000" stroke-opacity="1" stroke-width="4.55111"/>
<path clip-path="url(#clip560)" d="M2047.28 1218.32 L2047.28 1222.3 Q2045.48 1221.31 2043.65 1220.82 Q2041.84 1220.31 2039.99 1220.31 Q2035.85 1220.31 2033.56 1222.95 Q2031.26 1225.57 2031.26 1230.31 Q2031.26 1235.06 2033.56 1237.7 Q2035.85 1240.31 2039.99 1240.31 Q2041.84 1240.31 2043.65 1239.83 Q2045.48 1239.32 2047.28 1238.32 L2047.28 1242.26 Q2045.5 1243.09 2043.58 1243.51 Q2041.68 1243.92 2039.53 1243.92 Q2033.67 1243.92 2030.22 1240.24 Q2026.77 1236.56 2026.77 1230.31 Q2026.77 1223.97 2030.25 1220.33 Q2033.74 1216.7 2039.81 1216.7 Q2041.77 1216.7 2043.65 1217.12 Q2045.52 1217.51 2047.28 1218.32 Z" fill="#000000" fill-rule="nonzero" fill-opacity="1" /><path clip-path="url(#clip560)" d="M2064.74 1220.31 Q2061.31 1220.31 2059.32 1223 Q2057.33 1225.66 2057.33 1230.31 Q2057.33 1234.96 2059.3 1237.65 Q2061.29 1240.31 2064.74 1240.31 Q2068.14 1240.31 2070.13 1237.63 Q2072.12 1234.94 2072.12 1230.31 Q2072.12 1225.71 2070.13 1223.02 Q2068.14 1220.31 2064.74 1220.31 M2064.74 1216.7 Q2070.29 1216.7 2073.46 1220.31 Q2076.64 1223.92 2076.64 1230.31 Q2076.64 1236.68 2073.46 1240.31 Q2070.29 1243.92 2064.74 1243.92 Q2059.16 1243.92 2055.99 1240.31 Q2052.84 1236.68 2052.84 1230.31 Q2052.84 1223.92 2055.99 1220.31 Q2059.16 1216.7 2064.74 1216.7 Z" fill="#000000" fill-rule="nonzero" fill-opacity="1" /><path clip-path="url(#clip560)" d="M2103.88 1222.3 Q2105.48 1219.43 2107.7 1218.07 Q2109.92 1216.7 2112.93 1216.7 Q2116.98 1216.7 2119.18 1219.55 Q2121.38 1222.37 2121.38 1227.6 L2121.38 1243.25 L2117.1 1243.25 L2117.1 1227.74 Q2117.1 1224.02 2115.78 1222.21 Q2114.46 1220.4 2111.75 1220.4 Q2108.44 1220.4 2106.52 1222.6 Q2104.6 1224.8 2104.6 1228.6 L2104.6 1243.25 L2100.32 1243.25 L2100.32 1227.74 Q2100.32 1223.99 2099 1222.21 Q2097.68 1220.4 2094.92 1220.4 Q2091.66 1220.4 2089.74 1222.63 Q2087.82 1224.83 2087.82 1228.6 L2087.82 1243.25 L2083.53 1243.25 L2083.53 1217.33 L2087.82 1217.33 L2087.82 1221.35 Q2089.27 1218.97 2091.31 1217.83 Q2093.35 1216.7 2096.15 1216.7 Q2098.97 1216.7 2100.94 1218.14 Q2102.93 1219.57 2103.88 1222.3 Z" fill="#000000" fill-rule="nonzero" fill-opacity="1" /><path clip-path="url(#clip560)" d="M2134 1239.36 L2134 1253.11 L2129.71 1253.11 L2129.71 1217.33 L2134 1217.33 L2134 1221.26 Q2135.34 1218.95 2137.38 1217.83 Q2139.44 1216.7 2142.28 1216.7 Q2147.01 1216.7 2149.94 1220.45 Q2152.91 1224.2 2152.91 1230.31 Q2152.91 1236.42 2149.94 1240.17 Q2147.01 1243.92 2142.28 1243.92 Q2139.44 1243.92 2137.38 1242.81 Q2135.34 1241.68 2134 1239.36 M2148.49 1230.31 Q2148.49 1225.61 2146.54 1222.95 Q2144.62 1220.27 2141.24 1220.27 Q2137.86 1220.27 2135.92 1222.95 Q2134 1225.61 2134 1230.31 Q2134 1235.01 2135.92 1237.7 Q2137.86 1240.36 2141.24 1240.36 Q2144.62 1240.36 2146.54 1237.7 Q2148.49 1235.01 2148.49 1230.31 Z" fill="#000000" fill-rule="nonzero" fill-opacity="1" /><path clip-path="url(#clip560)" d="M2159.53 1233.02 L2159.53 1217.33 L2163.79 1217.33 L2163.79 1232.86 Q2163.79 1236.54 2165.22 1238.39 Q2166.66 1240.22 2169.53 1240.22 Q2172.98 1240.22 2174.97 1238.02 Q2176.98 1235.82 2176.98 1232.02 L2176.98 1217.33 L2181.24 1217.33 L2181.24 1243.25 L2176.98 1243.25 L2176.98 1239.27 Q2175.43 1241.63 2173.37 1242.79 Q2171.33 1243.92 2168.63 1243.92 Q2164.16 1243.92 2161.84 1241.14 Q2159.53 1238.37 2159.53 1233.02 M2170.25 1216.7 L2170.25 1216.7 Z" fill="#000000" fill-rule="nonzero" fill-opacity="1" /><path clip-path="url(#clip560)" d="M2194.23 1209.96 L2194.23 1217.33 L2203 1217.33 L2203 1220.64 L2194.23 1220.64 L2194.23 1234.71 Q2194.23 1237.88 2195.08 1238.78 Q2195.96 1239.69 2198.63 1239.69 L2203 1239.69 L2203 1243.25 L2198.63 1243.25 Q2193.69 1243.25 2191.82 1241.42 Q2189.94 1239.57 2189.94 1234.71 L2189.94 1220.64 L2186.82 1220.64 L2186.82 1217.33 L2189.94 1217.33 L2189.94 1209.96 L2194.23 1209.96 Z" fill="#000000" fill-rule="nonzero" fill-opacity="1" /><path clip-path="url(#clip560)" d="M2230.78 1229.22 L2230.78 1231.31 L2211.19 1231.31 Q2211.47 1235.71 2213.83 1238.02 Q2216.22 1240.31 2220.45 1240.31 Q2222.91 1240.31 2225.2 1239.71 Q2227.51 1239.11 2229.78 1237.9 L2229.78 1241.93 Q2227.49 1242.9 2225.08 1243.41 Q2222.68 1243.92 2220.2 1243.92 Q2214 1243.92 2210.36 1240.31 Q2206.75 1236.7 2206.75 1230.54 Q2206.75 1224.18 2210.18 1220.45 Q2213.63 1216.7 2219.46 1216.7 Q2224.69 1216.7 2227.72 1220.08 Q2230.78 1223.44 2230.78 1229.22 M2226.52 1227.97 Q2226.47 1224.48 2224.55 1222.39 Q2222.65 1220.31 2219.5 1220.31 Q2215.94 1220.31 2213.79 1222.33 Q2211.66 1224.34 2211.33 1228 L2226.52 1227.97 Z" fill="#000000" fill-rule="nonzero" fill-opacity="1" /><path clip-path="url(#clip560)" d="M2254.83 1221.26 L2254.83 1207.23 L2259.09 1207.23 L2259.09 1243.25 L2254.83 1243.25 L2254.83 1239.36 Q2253.49 1241.68 2251.43 1242.81 Q2249.39 1243.92 2246.52 1243.92 Q2241.82 1243.92 2238.86 1240.17 Q2235.92 1236.42 2235.92 1230.31 Q2235.92 1224.2 2238.86 1220.45 Q2241.82 1216.7 2246.52 1216.7 Q2249.39 1216.7 2251.43 1217.83 Q2253.49 1218.95 2254.83 1221.26 M2240.31 1230.31 Q2240.31 1235.01 2242.24 1237.7 Q2244.18 1240.36 2247.56 1240.36 Q2250.94 1240.36 2252.88 1237.7 Q2254.83 1235.01 2254.83 1230.31 Q2254.83 1225.61 2252.88 1222.95 Q2250.94 1220.27 2247.56 1220.27 Q2244.18 1220.27 2242.24 1222.95 Q2240.31 1225.61 2240.31 1230.31 Z" fill="#000000" fill-rule="nonzero" fill-opacity="1" /><polyline clip-path="url(#clip560)" style="stroke:#e26f46; stroke-linecap:round; stroke-linejoin:round; stroke-width:4; stroke-opacity:1; fill:none" stroke-dasharray="16, 10" points="1862.85,1277.81 2003.36,1277.81 "/>
<path clip-path="url(#clip560)" d="M2047.28 1270.16 L2047.28 1274.14 Q2045.48 1273.15 2043.65 1272.66 Q2041.84 1272.15 2039.99 1272.15 Q2035.85 1272.15 2033.56 1274.79 Q2031.26 1277.41 2031.26 1282.15 Q2031.26 1286.9 2033.56 1289.54 Q2035.85 1292.15 2039.99 1292.15 Q2041.84 1292.15 2043.65 1291.67 Q2045.48 1291.16 2047.28 1290.16 L2047.28 1294.1 Q2045.5 1294.93 2043.58 1295.35 Q2041.68 1295.76 2039.53 1295.76 Q2033.67 1295.76 2030.22 1292.08 Q2026.77 1288.4 2026.77 1282.15 Q2026.77 1275.81 2030.25 1272.17 Q2033.74 1268.54 2039.81 1268.54 Q2041.77 1268.54 2043.65 1268.96 Q2045.52 1269.35 2047.28 1270.16 Z" fill="#000000" fill-rule="nonzero" fill-opacity="1" /><path clip-path="url(#clip560)" d="M2054.25 1284.86 L2054.25 1269.17 L2058.51 1269.17 L2058.51 1284.7 Q2058.51 1288.38 2059.95 1290.23 Q2061.38 1292.06 2064.25 1292.06 Q2067.7 1292.06 2069.69 1289.86 Q2071.7 1287.66 2071.7 1283.86 L2071.7 1269.17 L2075.96 1269.17 L2075.96 1295.09 L2071.7 1295.09 L2071.7 1291.11 Q2070.15 1293.47 2068.09 1294.63 Q2066.06 1295.76 2063.35 1295.76 Q2058.88 1295.76 2056.57 1292.98 Q2054.25 1290.21 2054.25 1284.86 M2064.97 1268.54 L2064.97 1268.54 Z" fill="#000000" fill-rule="nonzero" fill-opacity="1" /><path clip-path="url(#clip560)" d="M2099.76 1273.15 Q2099.04 1272.73 2098.19 1272.55 Q2097.35 1272.34 2096.33 1272.34 Q2092.72 1272.34 2090.78 1274.7 Q2088.86 1277.04 2088.86 1281.43 L2088.86 1295.09 L2084.57 1295.09 L2084.57 1269.17 L2088.86 1269.17 L2088.86 1273.19 Q2090.2 1270.83 2092.35 1269.7 Q2094.51 1268.54 2097.58 1268.54 Q2098.02 1268.54 2098.56 1268.61 Q2099.09 1268.66 2099.74 1268.77 L2099.76 1273.15 Z" fill="#000000" fill-rule="nonzero" fill-opacity="1" /><path clip-path="url(#clip560)" d="M2118.42 1273.15 Q2117.7 1272.73 2116.84 1272.55 Q2116.01 1272.34 2114.99 1272.34 Q2111.38 1272.34 2109.44 1274.7 Q2107.51 1277.04 2107.51 1281.43 L2107.51 1295.09 L2103.23 1295.09 L2103.23 1269.17 L2107.51 1269.17 L2107.51 1273.19 Q2108.86 1270.83 2111.01 1269.7 Q2113.16 1268.54 2116.24 1268.54 Q2116.68 1268.54 2117.21 1268.61 Q2117.75 1268.66 2118.39 1268.77 L2118.42 1273.15 Z" fill="#000000" fill-rule="nonzero" fill-opacity="1" /><path clip-path="url(#clip560)" d="M2144.02 1281.06 L2144.02 1283.15 L2124.44 1283.15 Q2124.71 1287.55 2127.07 1289.86 Q2129.46 1292.15 2133.69 1292.15 Q2136.15 1292.15 2138.44 1291.55 Q2140.76 1290.95 2143.02 1289.74 L2143.02 1293.77 Q2140.73 1294.74 2138.32 1295.25 Q2135.92 1295.76 2133.44 1295.76 Q2127.24 1295.76 2123.6 1292.15 Q2119.99 1288.54 2119.99 1282.38 Q2119.99 1276.02 2123.42 1272.29 Q2126.87 1268.54 2132.7 1268.54 Q2137.93 1268.54 2140.96 1271.92 Q2144.02 1275.28 2144.02 1281.06 M2139.76 1279.81 Q2139.71 1276.32 2137.79 1274.23 Q2135.89 1272.15 2132.75 1272.15 Q2129.18 1272.15 2127.03 1274.17 Q2124.9 1276.18 2124.57 1279.84 L2139.76 1279.81 Z" fill="#000000" fill-rule="nonzero" fill-opacity="1" /><path clip-path="url(#clip560)" d="M2172.56 1279.44 L2172.56 1295.09 L2168.3 1295.09 L2168.3 1279.58 Q2168.3 1275.9 2166.87 1274.07 Q2165.43 1272.24 2162.56 1272.24 Q2159.11 1272.24 2157.12 1274.44 Q2155.13 1276.64 2155.13 1280.44 L2155.13 1295.09 L2150.85 1295.09 L2150.85 1269.17 L2155.13 1269.17 L2155.13 1273.19 Q2156.66 1270.86 2158.72 1269.7 Q2160.8 1268.54 2163.51 1268.54 Q2167.98 1268.54 2170.27 1271.32 Q2172.56 1274.07 2172.56 1279.44 Z" fill="#000000" fill-rule="nonzero" fill-opacity="1" /><path clip-path="url(#clip560)" d="M2185.27 1261.8 L2185.27 1269.17 L2194.04 1269.17 L2194.04 1272.48 L2185.27 1272.48 L2185.27 1286.55 Q2185.27 1289.72 2186.13 1290.62 Q2187 1291.53 2189.67 1291.53 L2194.04 1291.53 L2194.04 1295.09 L2189.67 1295.09 Q2184.74 1295.09 2182.86 1293.26 Q2180.99 1291.41 2180.99 1286.55 L2180.99 1272.48 L2177.86 1272.48 L2177.86 1269.17 L2180.99 1269.17 L2180.99 1261.8 L2185.27 1261.8 Z" fill="#000000" fill-rule="nonzero" fill-opacity="1" /><polyline clip-path="url(#clip560)" style="stroke:#3da44d; stroke-linecap:round; stroke-linejoin:round; stroke-width:4; stroke-opacity:1; fill:none" stroke-dasharray="2, 4" points="1862.85,1329.65 2003.36,1329.65 "/>
<path clip-path="url(#clip560)" d="M2031.06 1343.04 L2031.06 1356.79 L2026.77 1356.79 L2026.77 1321.01 L2031.06 1321.01 L2031.06 1324.94 Q2032.4 1322.63 2034.44 1321.51 Q2036.5 1320.38 2039.34 1320.38 Q2044.07 1320.38 2047.01 1324.13 Q2049.97 1327.88 2049.97 1333.99 Q2049.97 1340.1 2047.01 1343.85 Q2044.07 1347.6 2039.34 1347.6 Q2036.5 1347.6 2034.44 1346.49 Q2032.4 1345.36 2031.06 1343.04 M2045.55 1333.99 Q2045.55 1329.29 2043.6 1326.63 Q2041.68 1323.95 2038.3 1323.95 Q2034.92 1323.95 2032.98 1326.63 Q2031.06 1329.29 2031.06 1333.99 Q2031.06 1338.69 2032.98 1341.38 Q2034.92 1344.04 2038.3 1344.04 Q2041.68 1344.04 2043.6 1341.38 Q2045.55 1338.69 2045.55 1333.99 Z" fill="#000000" fill-rule="nonzero" fill-opacity="1" /><path clip-path="url(#clip560)" d="M2072.05 1324.99 Q2071.33 1324.57 2070.48 1324.39 Q2069.64 1324.18 2068.63 1324.18 Q2065.01 1324.18 2063.07 1326.54 Q2061.15 1328.88 2061.15 1333.27 L2061.15 1346.93 L2056.87 1346.93 L2056.87 1321.01 L2061.15 1321.01 L2061.15 1325.03 Q2062.49 1322.67 2064.64 1321.54 Q2066.8 1320.38 2069.88 1320.38 Q2070.32 1320.38 2070.85 1320.45 Q2071.38 1320.5 2072.03 1320.61 L2072.05 1324.99 Z" fill="#000000" fill-rule="nonzero" fill-opacity="1" /><path clip-path="url(#clip560)" d="M2097.65 1332.9 L2097.65 1334.99 L2078.07 1334.99 Q2078.35 1339.39 2080.71 1341.7 Q2083.09 1343.99 2087.33 1343.99 Q2089.78 1343.99 2092.07 1343.39 Q2094.39 1342.79 2096.66 1341.58 L2096.66 1345.61 Q2094.37 1346.58 2091.96 1347.09 Q2089.55 1347.6 2087.07 1347.6 Q2080.87 1347.6 2077.24 1343.99 Q2073.63 1340.38 2073.63 1334.22 Q2073.63 1327.86 2077.05 1324.13 Q2080.5 1320.38 2086.33 1320.38 Q2091.57 1320.38 2094.6 1323.76 Q2097.65 1327.12 2097.65 1332.9 M2093.39 1331.65 Q2093.35 1328.16 2091.43 1326.07 Q2089.53 1323.99 2086.38 1323.99 Q2082.82 1323.99 2080.66 1326.01 Q2078.53 1328.02 2078.21 1331.68 L2093.39 1331.65 Z" fill="#000000" fill-rule="nonzero" fill-opacity="1" /><path clip-path="url(#clip560)" d="M2101.59 1321.01 L2106.1 1321.01 L2114.2 1342.76 L2122.31 1321.01 L2126.82 1321.01 L2117.1 1346.93 L2111.31 1346.93 L2101.59 1321.01 Z" fill="#000000" fill-rule="nonzero" fill-opacity="1" /><path clip-path="url(#clip560)" d="M2132.7 1321.01 L2136.96 1321.01 L2136.96 1346.93 L2132.7 1346.93 L2132.7 1321.01 M2132.7 1310.91 L2136.96 1310.91 L2136.96 1316.31 L2132.7 1316.31 L2132.7 1310.91 Z" fill="#000000" fill-rule="nonzero" fill-opacity="1" /><path clip-path="url(#clip560)" d="M2155.92 1323.99 Q2152.49 1323.99 2150.5 1326.68 Q2148.51 1329.34 2148.51 1333.99 Q2148.51 1338.64 2150.48 1341.33 Q2152.47 1343.99 2155.92 1343.99 Q2159.32 1343.99 2161.31 1341.31 Q2163.3 1338.62 2163.3 1333.99 Q2163.3 1329.39 2161.31 1326.7 Q2159.32 1323.99 2155.92 1323.99 M2155.92 1320.38 Q2161.47 1320.38 2164.64 1323.99 Q2167.82 1327.6 2167.82 1333.99 Q2167.82 1340.36 2164.64 1343.99 Q2161.47 1347.6 2155.92 1347.6 Q2150.34 1347.6 2147.17 1343.99 Q2144.02 1340.36 2144.02 1333.99 Q2144.02 1327.6 2147.17 1323.99 Q2150.34 1320.38 2155.92 1320.38 Z" fill="#000000" fill-rule="nonzero" fill-opacity="1" /><path clip-path="url(#clip560)" d="M2174.44 1336.7 L2174.44 1321.01 L2178.69 1321.01 L2178.69 1336.54 Q2178.69 1340.22 2180.13 1342.07 Q2181.57 1343.9 2184.44 1343.9 Q2187.88 1343.9 2189.88 1341.7 Q2191.89 1339.5 2191.89 1335.7 L2191.89 1321.01 L2196.15 1321.01 L2196.15 1346.93 L2191.89 1346.93 L2191.89 1342.95 Q2190.34 1345.31 2188.28 1346.47 Q2186.24 1347.6 2183.53 1347.6 Q2179.07 1347.6 2176.75 1344.82 Q2174.44 1342.05 2174.44 1336.7 M2185.15 1320.38 L2185.15 1320.38 Z" fill="#000000" fill-rule="nonzero" fill-opacity="1" /><path clip-path="url(#clip560)" d="M2221.45 1321.77 L2221.45 1325.8 Q2219.64 1324.87 2217.7 1324.41 Q2215.75 1323.95 2213.67 1323.95 Q2210.5 1323.95 2208.9 1324.92 Q2207.33 1325.89 2207.33 1327.83 Q2207.33 1329.32 2208.46 1330.17 Q2209.6 1331.01 2213.02 1331.77 L2214.48 1332.09 Q2219.02 1333.07 2220.92 1334.85 Q2222.84 1336.61 2222.84 1339.78 Q2222.84 1343.39 2219.97 1345.5 Q2217.12 1347.6 2212.12 1347.6 Q2210.04 1347.6 2207.77 1347.19 Q2205.52 1346.79 2203.02 1345.98 L2203.02 1341.58 Q2205.38 1342.81 2207.68 1343.44 Q2209.97 1344.04 2212.21 1344.04 Q2215.22 1344.04 2216.84 1343.02 Q2218.46 1341.98 2218.46 1340.1 Q2218.46 1338.37 2217.28 1337.44 Q2216.13 1336.51 2212.17 1335.66 L2210.69 1335.31 Q2206.73 1334.48 2204.97 1332.76 Q2203.21 1331.03 2203.21 1328.02 Q2203.21 1324.36 2205.8 1322.37 Q2208.39 1320.38 2213.16 1320.38 Q2215.52 1320.38 2217.61 1320.73 Q2219.69 1321.07 2221.45 1321.77 Z" fill="#000000" fill-rule="nonzero" fill-opacity="1" /></svg>
