<?xml version="1.0" encoding="utf-8"?>
<svg xmlns="http://www.w3.org/2000/svg" xmlns:xlink="http://www.w3.org/1999/xlink" width="600" height="400" viewBox="0 0 2400 1600">
<defs>
  <clipPath id="clip380">
    <rect x="0" y="0" width="2400" height="1600"/>
  </clipPath>
</defs>
<path clip-path="url(#clip380)" d="M0 1600 L2400 1600 L2400 0 L0 0  Z" fill="#ffffff" fill-rule="evenodd" fill-opacity="1"/>
<defs>
  <clipPath id="clip381">
    <rect x="480" y="0" width="1681" height="1600"/>
  </clipPath>
</defs>
<path clip-path="url(#clip380)" d="M289.251 1410.9 L2352.76 1410.9 L2352.76 47.2441 L289.251 47.2441  Z" fill="#ffffff" fill-rule="evenodd" fill-opacity="1"/>
<defs>
  <clipPath id="clip382">
    <rect x="289" y="47" width="2065" height="1365"/>
  </clipPath>
</defs>
<polyline clip-path="url(#clip382)" style="stroke:#000000; stroke-linecap:round; stroke-linejoin:round; stroke-width:2; stroke-opacity:0.1; fill:none" points="798.755,1410.9 798.755,47.2441 "/>
<polyline clip-path="url(#clip382)" style="stroke:#000000; stroke-linecap:round; stroke-linejoin:round; stroke-width:2; stroke-opacity:0.1; fill:none" points="1337.66,1410.9 1337.66,47.2441 "/>
<polyline clip-path="url(#clip382)" style="stroke:#000000; stroke-linecap:round; stroke-linejoin:round; stroke-width:2; stroke-opacity:0.1; fill:none" points="1876.56,1410.9 1876.56,47.2441 "/>
<polyline clip-path="url(#clip382)" style="stroke:#000000; stroke-linecap:round; stroke-linejoin:round; stroke-width:2; stroke-opacity:0.1; fill:none" points="289.251,1078.03 2352.76,1078.03 "/>
<polyline clip-path="url(#clip382)" style="stroke:#000000; stroke-linecap:round; stroke-linejoin:round; stroke-width:2; stroke-opacity:0.1; fill:none" points="289.251,689.321 2352.76,689.321 "/>
<polyline clip-path="url(#clip382)" style="stroke:#000000; stroke-linecap:round; stroke-linejoin:round; stroke-width:2; stroke-opacity:0.1; fill:none" points="289.251,300.615 2352.76,300.615 "/>
<polyline clip-path="url(#clip380)" style="stroke:#000000; stroke-linecap:round; stroke-linejoin:round; stroke-width:4; stroke-opacity:1; fill:none" points="289.251,1410.9 2352.76,1410.9 "/>
<polyline clip-path="url(#clip380)" style="stroke:#000000; stroke-linecap:round; stroke-linejoin:round; stroke-width:4; stroke-opacity:1; fill:none" points="798.755,1410.9 798.755,1392 "/>
<polyline clip-path="url(#clip380)" style="stroke:#000000; stroke-linecap:round; stroke-linejoin:round; stroke-width:4; stroke-opacity:1; fill:none" points="1337.66,1410.9 1337.66,1392 "/>
<polyline clip-path="url(#clip380)" style="stroke:#000000; stroke-linecap:round; stroke-linejoin:round; stroke-width:4; stroke-opacity:1; fill:none" points="1876.56,1410.9 1876.56,1392 "/>
<path clip-path="url(#clip380)" d="M717.743 1485.02 L725.382 1485.02 L725.382 1458.66 L717.072 1460.32 L717.072 1456.06 L725.336 1454.4 L730.012 1454.4 L730.012 1485.02 L737.651 1485.02 L737.651 1488.96 L717.743 1488.96 L717.743 1485.02 Z" fill="#000000" fill-rule="nonzero" fill-opacity="1" /><path clip-path="url(#clip380)" d="M757.095 1457.48 Q753.484 1457.48 751.655 1461.04 Q749.85 1464.58 749.85 1471.71 Q749.85 1478.82 751.655 1482.38 Q753.484 1485.92 757.095 1485.92 Q760.729 1485.92 762.535 1482.38 Q764.363 1478.82 764.363 1471.71 Q764.363 1464.58 762.535 1461.04 Q760.729 1457.48 757.095 1457.48 M757.095 1453.77 Q762.905 1453.77 765.961 1458.38 Q769.039 1462.96 769.039 1471.71 Q769.039 1480.44 765.961 1485.04 Q762.905 1489.63 757.095 1489.63 Q751.285 1489.63 748.206 1485.04 Q745.151 1480.44 745.151 1471.71 Q745.151 1462.96 748.206 1458.38 Q751.285 1453.77 757.095 1453.77 Z" fill="#000000" fill-rule="nonzero" fill-opacity="1" /><path clip-path="url(#clip380)" d="M769.039 1447.87 L793.151 1447.87 L793.151 1451.07 L769.039 1451.07 L769.039 1447.87 Z" fill="#000000" fill-rule="nonzero" fill-opacity="1" /><path clip-path="url(#clip380)" d="M804.624 1458.35 L817.883 1458.35 L817.883 1461.55 L800.053 1461.55 L800.053 1458.35 Q802.216 1456.11 805.94 1452.35 Q809.683 1448.57 810.642 1447.48 Q812.466 1445.43 813.181 1444.02 Q813.915 1442.59 813.915 1441.22 Q813.915 1438.98 812.335 1437.57 Q810.774 1436.16 808.254 1436.16 Q806.467 1436.16 804.473 1436.78 Q802.498 1437.4 800.241 1438.66 L800.241 1434.82 Q802.536 1433.9 804.53 1433.43 Q806.523 1432.96 808.178 1432.96 Q812.542 1432.96 815.137 1435.14 Q817.733 1437.32 817.733 1440.97 Q817.733 1442.7 817.074 1444.26 Q816.435 1445.8 814.723 1447.91 Q814.253 1448.46 811.733 1451.07 Q809.213 1453.67 804.624 1458.35 Z" fill="#000000" fill-rule="nonzero" fill-opacity="1" /><path clip-path="url(#clip380)" d="M825.858 1456.77 L829.826 1456.77 L829.826 1461.55 L825.858 1461.55 L825.858 1456.77 Z" fill="#000000" fill-rule="nonzero" fill-opacity="1" /><path clip-path="url(#clip380)" d="M838.139 1433.47 L853.054 1433.47 L853.054 1436.66 L841.619 1436.66 L841.619 1443.55 Q842.446 1443.27 843.274 1443.13 Q844.101 1442.98 844.929 1442.98 Q849.631 1442.98 852.377 1445.56 Q855.122 1448.14 855.122 1452.54 Q855.122 1457.07 852.301 1459.59 Q849.48 1462.09 844.346 1462.09 Q842.578 1462.09 840.735 1461.79 Q838.91 1461.49 836.954 1460.89 L836.954 1457.07 Q838.647 1457.99 840.452 1458.44 Q842.258 1458.89 844.27 1458.89 Q847.524 1458.89 849.424 1457.18 Q851.323 1455.47 851.323 1452.54 Q851.323 1449.6 849.424 1447.89 Q847.524 1446.18 844.27 1446.18 Q842.747 1446.18 841.224 1446.52 Q839.719 1446.86 838.139 1447.57 L838.139 1433.47 Z" fill="#000000" fill-rule="nonzero" fill-opacity="1" /><path clip-path="url(#clip380)" d="M870.733 1435.97 Q867.799 1435.97 866.313 1438.86 Q864.846 1441.74 864.846 1447.53 Q864.846 1453.31 866.313 1456.2 Q867.799 1459.08 870.733 1459.08 Q873.686 1459.08 875.153 1456.2 Q876.639 1453.31 876.639 1447.53 Q876.639 1441.74 875.153 1438.86 Q873.686 1435.97 870.733 1435.97 M870.733 1432.96 Q875.454 1432.96 877.936 1436.7 Q880.438 1440.43 880.438 1447.53 Q880.438 1454.62 877.936 1458.37 Q875.454 1462.09 870.733 1462.09 Q866.012 1462.09 863.511 1458.37 Q861.028 1454.62 861.028 1447.53 Q861.028 1440.43 863.511 1436.7 Q866.012 1432.96 870.733 1432.96 Z" fill="#000000" fill-rule="nonzero" fill-opacity="1" /><path clip-path="url(#clip380)" d="M1257.05 1485.02 L1264.69 1485.02 L1264.69 1458.66 L1256.38 1460.32 L1256.38 1456.06 L1264.64 1454.4 L1269.32 1454.4 L1269.32 1485.02 L1276.96 1485.02 L1276.96 1488.96 L1257.05 1488.96 L1257.05 1485.02 Z" fill="#000000" fill-rule="nonzero" fill-opacity="1" /><path clip-path="url(#clip380)" d="M1296.4 1457.48 Q1292.79 1457.48 1290.96 1461.04 Q1289.15 1464.58 1289.15 1471.71 Q1289.15 1478.82 1290.96 1482.38 Q1292.79 1485.92 1296.4 1485.92 Q1300.03 1485.92 1301.84 1482.38 Q1303.67 1478.82 1303.67 1471.71 Q1303.67 1464.58 1301.84 1461.04 Q1300.03 1457.48 1296.4 1457.48 M1296.4 1453.77 Q1302.21 1453.77 1305.27 1458.38 Q1308.34 1462.96 1308.34 1471.71 Q1308.34 1480.44 1305.27 1485.04 Q1302.21 1489.63 1296.4 1489.63 Q1290.59 1489.63 1287.51 1485.04 Q1284.46 1480.44 1284.46 1471.71 Q1284.46 1462.96 1287.51 1458.38 Q1290.59 1453.77 1296.4 1453.77 Z" fill="#000000" fill-rule="nonzero" fill-opacity="1" /><path clip-path="url(#clip380)" d="M1308.34 1447.87 L1332.46 1447.87 L1332.46 1451.07 L1308.34 1451.07 L1308.34 1447.87 Z" fill="#000000" fill-rule="nonzero" fill-opacity="1" /><path clip-path="url(#clip380)" d="M1343.93 1458.35 L1357.19 1458.35 L1357.19 1461.55 L1339.36 1461.55 L1339.36 1458.35 Q1341.52 1456.11 1345.25 1452.35 Q1348.99 1448.57 1349.95 1447.48 Q1351.77 1445.43 1352.49 1444.02 Q1353.22 1442.59 1353.22 1441.22 Q1353.22 1438.98 1351.64 1437.57 Q1350.08 1436.16 1347.56 1436.16 Q1345.77 1436.16 1343.78 1436.78 Q1341.8 1437.4 1339.55 1438.66 L1339.55 1434.82 Q1341.84 1433.9 1343.83 1433.43 Q1345.83 1432.96 1347.48 1432.96 Q1351.85 1432.96 1354.44 1435.14 Q1357.04 1437.32 1357.04 1440.97 Q1357.04 1442.7 1356.38 1444.26 Q1355.74 1445.8 1354.03 1447.91 Q1353.56 1448.46 1351.04 1451.07 Q1348.52 1453.67 1343.93 1458.35 Z" fill="#000000" fill-rule="nonzero" fill-opacity="1" /><path clip-path="url(#clip380)" d="M1365.16 1456.77 L1369.13 1456.77 L1369.13 1461.55 L1365.16 1461.55 L1365.16 1456.77 Z" fill="#000000" fill-rule="nonzero" fill-opacity="1" /><path clip-path="url(#clip380)" d="M1380.68 1458.35 L1393.94 1458.35 L1393.94 1461.55 L1376.11 1461.55 L1376.11 1458.35 Q1378.27 1456.11 1382 1452.35 Q1385.74 1448.57 1386.7 1447.48 Q1388.52 1445.43 1389.24 1444.02 Q1389.97 1442.59 1389.97 1441.22 Q1389.97 1438.98 1388.39 1437.57 Q1386.83 1436.16 1384.31 1436.16 Q1382.52 1436.16 1380.53 1436.78 Q1378.55 1437.4 1376.3 1438.66 L1376.3 1434.82 Q1378.59 1433.9 1380.58 1433.43 Q1382.58 1432.96 1384.23 1432.96 Q1388.6 1432.96 1391.19 1435.14 Q1393.79 1437.32 1393.79 1440.97 Q1393.79 1442.7 1393.13 1444.26 Q1392.49 1445.8 1390.78 1447.91 Q1390.31 1448.46 1387.79 1451.07 Q1385.27 1453.67 1380.68 1458.35 Z" fill="#000000" fill-rule="nonzero" fill-opacity="1" /><path clip-path="url(#clip380)" d="M1401.95 1433.47 L1416.87 1433.47 L1416.87 1436.66 L1405.43 1436.66 L1405.43 1443.55 Q1406.26 1443.27 1407.09 1443.13 Q1407.91 1442.98 1408.74 1442.98 Q1413.44 1442.98 1416.19 1445.56 Q1418.93 1448.14 1418.93 1452.54 Q1418.93 1457.07 1416.11 1459.59 Q1413.29 1462.09 1408.16 1462.09 Q1406.39 1462.09 1404.55 1461.79 Q1402.72 1461.49 1400.77 1460.89 L1400.77 1457.07 Q1402.46 1457.99 1404.26 1458.44 Q1406.07 1458.89 1408.08 1458.89 Q1411.34 1458.89 1413.24 1457.18 Q1415.13 1455.47 1415.13 1452.54 Q1415.13 1449.6 1413.24 1447.89 Q1411.34 1446.18 1408.08 1446.18 Q1406.56 1446.18 1405.03 1446.52 Q1403.53 1446.86 1401.95 1447.57 L1401.95 1433.47 Z" fill="#000000" fill-rule="nonzero" fill-opacity="1" /><path clip-path="url(#clip380)" d="M1795.54 1485.02 L1803.18 1485.02 L1803.18 1458.66 L1794.87 1460.32 L1794.87 1456.06 L1803.14 1454.4 L1807.81 1454.4 L1807.81 1485.02 L1815.45 1485.02 L1815.45 1488.96 L1795.54 1488.96 L1795.54 1485.02 Z" fill="#000000" fill-rule="nonzero" fill-opacity="1" /><path clip-path="url(#clip380)" d="M1834.9 1457.48 Q1831.28 1457.48 1829.46 1461.04 Q1827.65 1464.58 1827.65 1471.71 Q1827.65 1478.82 1829.46 1482.38 Q1831.28 1485.92 1834.9 1485.92 Q1838.53 1485.92 1840.34 1482.38 Q1842.16 1478.82 1842.16 1471.71 Q1842.16 1464.58 1840.34 1461.04 Q1838.53 1457.48 1834.9 1457.48 M1834.9 1453.77 Q1840.71 1453.77 1843.76 1458.38 Q1846.84 1462.96 1846.84 1471.71 Q1846.84 1480.44 1843.76 1485.04 Q1840.71 1489.63 1834.9 1489.63 Q1829.09 1489.63 1826.01 1485.04 Q1822.95 1480.44 1822.95 1471.71 Q1822.95 1462.96 1826.01 1458.38 Q1829.09 1453.77 1834.9 1453.77 Z" fill="#000000" fill-rule="nonzero" fill-opacity="1" /><path clip-path="url(#clip380)" d="M1846.84 1447.87 L1870.95 1447.87 L1870.95 1451.07 L1846.84 1451.07 L1846.84 1447.87 Z" fill="#000000" fill-rule="nonzero" fill-opacity="1" /><path clip-path="url(#clip380)" d="M1882.42 1458.35 L1895.68 1458.35 L1895.68 1461.55 L1877.85 1461.55 L1877.85 1458.35 Q1880.02 1456.11 1883.74 1452.35 Q1887.48 1448.57 1888.44 1447.48 Q1890.27 1445.43 1890.98 1444.02 Q1891.72 1442.59 1891.72 1441.22 Q1891.72 1438.98 1890.14 1437.57 Q1888.57 1436.16 1886.05 1436.16 Q1884.27 1436.16 1882.27 1436.78 Q1880.3 1437.4 1878.04 1438.66 L1878.04 1434.82 Q1880.34 1433.9 1882.33 1433.43 Q1884.32 1432.96 1885.98 1432.96 Q1890.34 1432.96 1892.94 1435.14 Q1895.53 1437.32 1895.53 1440.97 Q1895.53 1442.7 1894.88 1444.26 Q1894.24 1445.8 1892.52 1447.91 Q1892.05 1448.46 1889.53 1451.07 Q1887.01 1453.67 1882.42 1458.35 Z" fill="#000000" fill-rule="nonzero" fill-opacity="1" /><path clip-path="url(#clip380)" d="M1903.66 1456.77 L1907.63 1456.77 L1907.63 1461.55 L1903.66 1461.55 L1903.66 1456.77 Z" fill="#000000" fill-rule="nonzero" fill-opacity="1" /><path clip-path="url(#clip380)" d="M1924.03 1435.97 Q1921.09 1435.97 1919.61 1438.86 Q1918.14 1441.74 1918.14 1447.53 Q1918.14 1453.31 1919.61 1456.2 Q1921.09 1459.08 1924.03 1459.08 Q1926.98 1459.08 1928.45 1456.2 Q1929.93 1453.31 1929.93 1447.53 Q1929.93 1441.74 1928.45 1438.86 Q1926.98 1435.97 1924.03 1435.97 M1924.03 1432.96 Q1928.75 1432.96 1931.23 1436.7 Q1933.73 1440.43 1933.73 1447.53 Q1933.73 1454.62 1931.23 1458.37 Q1928.75 1462.09 1924.03 1462.09 Q1919.31 1462.09 1916.81 1458.37 Q1914.32 1454.62 1914.32 1447.53 Q1914.32 1440.43 1916.81 1436.7 Q1919.31 1432.96 1924.03 1432.96 Z" fill="#000000" fill-rule="nonzero" fill-opacity="1" /><path clip-path="url(#clip380)" d="M1948.53 1435.97 Q1945.6 1435.97 1944.11 1438.86 Q1942.65 1441.74 1942.65 1447.53 Q1942.65 1453.31 1944.11 1456.2 Q1945.6 1459.08 1948.53 1459.08 Q1951.49 1459.08 1952.95 1456.2 Q1954.44 1453.31 1954.44 1447.53 Q1954.44 1441.74 1952.95 1438.86 Q1951.49 1435.97 1948.53 1435.97 M1948.53 1432.96 Q1953.25 1432.96 1955.74 1436.7 Q1958.24 1440.43 1958.24 1447.53 Q1958.24 1454.62 1955.74 1458.37 Q1953.25 1462.09 1948.53 1462.09 Q1943.81 1462.09 1941.31 1458.37 Q1938.83 1454.62 1938.83 1447.53 Q1938.83 1440.43 1941.31 1436.7 Q1943.81 1432.96 1948.53 1432.96 Z" fill="#000000" fill-rule="nonzero" fill-opacity="1" /><path clip-path="url(#clip380)" d="M1282.55 1568.04 Q1282.55 1567.79 1283.42 1566.11 Q1284.29 1564.41 1287.35 1558.32 Q1290.41 1552.2 1293.57 1545.79 L1304.93 1522.92 Q1305.74 1521.48 1306.77 1521.48 Q1307.7 1521.48 1308.12 1522.05 Q1308.54 1522.63 1310.47 1526.53 Q1311.47 1528.43 1312.05 1529.66 L1330.7 1566.98 Q1331.02 1567.79 1331.05 1568.04 Q1331.05 1568.69 1329.93 1568.69 L1284.29 1568.69 Q1282.55 1568.69 1282.55 1568.04 M1286.9 1563.66 L1322.39 1563.66 L1304.64 1528.05 L1286.9 1563.66 Z" fill="#000000" fill-rule="nonzero" fill-opacity="1" /><path clip-path="url(#clip380)" d="M1356.14 1540.99 Q1356.14 1541.89 1355.72 1542.12 Q1355.3 1542.31 1354.14 1542.31 L1347.96 1542.31 L1343.06 1561.76 Q1342.68 1563.47 1342.68 1564.92 Q1342.68 1566.53 1343.16 1567.24 Q1343.68 1567.95 1344.74 1567.95 Q1346.83 1567.95 1349.09 1566.05 Q1351.37 1564.15 1353.31 1559.51 Q1353.56 1558.9 1353.69 1558.77 Q1353.85 1558.61 1354.27 1558.61 Q1355.08 1558.61 1355.08 1559.25 Q1355.08 1559.48 1354.63 1560.51 Q1354.21 1561.54 1353.27 1563.05 Q1352.37 1564.57 1351.18 1565.98 Q1350.02 1567.4 1348.25 1568.43 Q1346.48 1569.43 1344.58 1569.43 Q1341.9 1569.43 1340.2 1567.72 Q1338.52 1566.02 1338.52 1563.34 Q1338.52 1562.47 1339.2 1559.7 Q1339.88 1556.9 1343.55 1542.31 L1337.72 1542.31 Q1336.91 1542.31 1336.59 1542.28 Q1336.3 1542.25 1336.08 1542.09 Q1335.88 1541.89 1335.88 1541.51 Q1335.88 1540.9 1336.14 1540.64 Q1336.4 1540.35 1336.72 1540.32 Q1337.07 1540.25 1337.88 1540.25 L1344.06 1540.25 L1346.64 1529.78 Q1346.9 1528.75 1347.54 1528.17 Q1348.22 1527.56 1348.6 1527.5 Q1348.99 1527.4 1349.28 1527.4 Q1350.15 1527.4 1350.66 1527.88 Q1351.18 1528.34 1351.18 1529.17 Q1351.18 1529.62 1348.47 1540.25 L1354.27 1540.25 Q1355.01 1540.25 1355.3 1540.28 Q1355.62 1540.32 1355.88 1540.48 Q1356.14 1540.64 1356.14 1540.99 Z" fill="#000000" fill-rule="nonzero" fill-opacity="1" /><polyline clip-path="url(#clip380)" style="stroke:#000000; stroke-linecap:round; stroke-linejoin:round; stroke-width:4; stroke-opacity:1; fill:none" points="289.251,1410.9 289.251,47.2441 "/>
<polyline clip-path="url(#clip380)" style="stroke:#000000; stroke-linecap:round; stroke-linejoin:round; stroke-width:4; stroke-opacity:1; fill:none" points="289.251,1078.03 308.149,1078.03 "/>
<polyline clip-path="url(#clip380)" style="stroke:#000000; stroke-linecap:round; stroke-linejoin:round; stroke-width:4; stroke-opacity:1; fill:none" points="289.251,689.321 308.149,689.321 "/>
<polyline clip-path="url(#clip380)" style="stroke:#000000; stroke-linecap:round; stroke-linejoin:round; stroke-width:4; stroke-opacity:1; fill:none" points="289.251,300.615 308.149,300.615 "/>
<path clip-path="url(#clip380)" d="M115.063 1097.82 L122.702 1097.82 L122.702 1071.45 L114.392 1073.12 L114.392 1068.86 L122.656 1067.19 L127.332 1067.19 L127.332 1097.82 L134.97 1097.82 L134.97 1101.75 L115.063 1101.75 L115.063 1097.82 Z" fill="#000000" fill-rule="nonzero" fill-opacity="1" /><path clip-path="url(#clip380)" d="M154.415 1070.27 Q150.804 1070.27 148.975 1073.84 Q147.169 1077.38 147.169 1084.51 Q147.169 1091.62 148.975 1095.18 Q150.804 1098.72 154.415 1098.72 Q158.049 1098.72 159.855 1095.18 Q161.683 1091.62 161.683 1084.51 Q161.683 1077.38 159.855 1073.84 Q158.049 1070.27 154.415 1070.27 M154.415 1066.57 Q160.225 1066.57 163.28 1071.18 Q166.359 1075.76 166.359 1084.51 Q166.359 1093.24 163.28 1097.84 Q160.225 1102.43 154.415 1102.43 Q148.605 1102.43 145.526 1097.84 Q142.47 1093.24 142.47 1084.51 Q142.47 1075.76 145.526 1071.18 Q148.605 1066.57 154.415 1066.57 Z" fill="#000000" fill-rule="nonzero" fill-opacity="1" /><path clip-path="url(#clip380)" d="M166.359 1060.67 L190.471 1060.67 L190.471 1063.87 L166.359 1063.87 L166.359 1060.67 Z" fill="#000000" fill-rule="nonzero" fill-opacity="1" /><path clip-path="url(#clip380)" d="M201.943 1071.15 L215.203 1071.15 L215.203 1074.34 L197.373 1074.34 L197.373 1071.15 Q199.536 1068.91 203.26 1065.15 Q207.003 1061.37 207.962 1060.28 Q209.786 1058.23 210.501 1056.82 Q211.234 1055.39 211.234 1054.01 Q211.234 1051.77 209.655 1050.36 Q208.094 1048.95 205.573 1048.95 Q203.787 1048.95 201.793 1049.57 Q199.818 1050.19 197.561 1051.45 L197.561 1047.62 Q199.856 1046.7 201.849 1046.23 Q203.843 1045.76 205.498 1045.76 Q209.861 1045.76 212.457 1047.94 Q215.052 1050.12 215.052 1053.77 Q215.052 1055.5 214.394 1057.06 Q213.755 1058.6 212.043 1060.71 Q211.573 1061.25 209.053 1063.87 Q206.533 1066.46 201.943 1071.15 Z" fill="#000000" fill-rule="nonzero" fill-opacity="1" /><path clip-path="url(#clip380)" d="M223.177 1069.57 L227.146 1069.57 L227.146 1074.34 L223.177 1074.34 L223.177 1069.57 Z" fill="#000000" fill-rule="nonzero" fill-opacity="1" /><path clip-path="url(#clip380)" d="M243.546 1048.77 Q240.612 1048.77 239.126 1051.66 Q237.659 1054.54 237.659 1060.33 Q237.659 1066.11 239.126 1069 Q240.612 1071.88 243.546 1071.88 Q246.499 1071.88 247.966 1069 Q249.452 1066.11 249.452 1060.33 Q249.452 1054.54 247.966 1051.66 Q246.499 1048.77 243.546 1048.77 M243.546 1045.76 Q248.267 1045.76 250.75 1049.5 Q253.251 1053.22 253.251 1060.33 Q253.251 1067.42 250.75 1071.17 Q248.267 1074.89 243.546 1074.89 Q238.825 1074.89 236.324 1071.17 Q233.841 1067.42 233.841 1060.33 Q233.841 1053.22 236.324 1049.5 Q238.825 1045.76 243.546 1045.76 Z" fill="#000000" fill-rule="nonzero" fill-opacity="1" /><path clip-path="url(#clip380)" d="M115.138 709.113 L122.777 709.113 L122.777 682.748 L114.467 684.414 L114.467 680.155 L122.731 678.488 L127.407 678.488 L127.407 709.113 L135.046 709.113 L135.046 713.048 L115.138 713.048 L115.138 709.113 Z" fill="#000000" fill-rule="nonzero" fill-opacity="1" /><path clip-path="url(#clip380)" d="M154.49 681.567 Q150.879 681.567 149.05 685.132 Q147.245 688.674 147.245 695.803 Q147.245 702.91 149.05 706.474 Q150.879 710.016 154.49 710.016 Q158.124 710.016 159.93 706.474 Q161.758 702.91 161.758 695.803 Q161.758 688.674 159.93 685.132 Q158.124 681.567 154.49 681.567 M154.49 677.863 Q160.3 677.863 163.356 682.47 Q166.434 687.053 166.434 695.803 Q166.434 704.53 163.356 709.136 Q160.3 713.72 154.49 713.72 Q148.68 713.72 145.601 709.136 Q142.546 704.53 142.546 695.803 Q142.546 687.053 145.601 682.47 Q148.68 677.863 154.49 677.863 Z" fill="#000000" fill-rule="nonzero" fill-opacity="1" /><path clip-path="url(#clip380)" d="M166.434 671.965 L190.546 671.965 L190.546 675.162 L166.434 675.162 L166.434 671.965 Z" fill="#000000" fill-rule="nonzero" fill-opacity="1" /><path clip-path="url(#clip380)" d="M199.404 682.441 L205.611 682.441 L205.611 661.019 L198.859 662.373 L198.859 658.912 L205.573 657.558 L209.372 657.558 L209.372 682.441 L215.579 682.441 L215.579 685.638 L199.404 685.638 L199.404 682.441 Z" fill="#000000" fill-rule="nonzero" fill-opacity="1" /><path clip-path="url(#clip380)" d="M223.253 680.861 L227.221 680.861 L227.221 685.638 L223.253 685.638 L223.253 680.861 Z" fill="#000000" fill-rule="nonzero" fill-opacity="1" /><path clip-path="url(#clip380)" d="M243.621 672.303 Q240.913 672.303 239.352 673.751 Q237.81 675.2 237.81 677.739 Q237.81 680.278 239.352 681.726 Q240.913 683.174 243.621 683.174 Q246.33 683.174 247.891 681.726 Q249.452 680.259 249.452 677.739 Q249.452 675.2 247.891 673.751 Q246.349 672.303 243.621 672.303 M239.822 670.686 Q237.377 670.084 236.004 668.41 Q234.65 666.736 234.65 664.329 Q234.65 660.962 237.039 659.006 Q239.446 657.05 243.621 657.05 Q247.816 657.05 250.204 659.006 Q252.593 660.962 252.593 664.329 Q252.593 666.736 251.22 668.41 Q249.866 670.084 247.439 670.686 Q250.185 671.325 251.709 673.187 Q253.251 675.049 253.251 677.739 Q253.251 681.82 250.75 684.002 Q248.267 686.183 243.621 686.183 Q238.976 686.183 236.474 684.002 Q233.992 681.82 233.992 677.739 Q233.992 675.049 235.534 673.187 Q237.076 671.325 239.822 670.686 M238.43 664.686 Q238.43 666.868 239.785 668.09 Q241.158 669.313 243.621 669.313 Q246.066 669.313 247.439 668.09 Q248.831 666.868 248.831 664.686 Q248.831 662.504 247.439 661.282 Q246.066 660.059 243.621 660.059 Q241.158 660.059 239.785 661.282 Q238.43 662.504 238.43 664.686 Z" fill="#000000" fill-rule="nonzero" fill-opacity="1" /><path clip-path="url(#clip380)" d="M114.931 320.407 L122.57 320.407 L122.57 294.042 L114.26 295.708 L114.26 291.449 L122.524 289.783 L127.2 289.783 L127.2 320.407 L134.839 320.407 L134.839 324.343 L114.931 324.343 L114.931 320.407 Z" fill="#000000" fill-rule="nonzero" fill-opacity="1" /><path clip-path="url(#clip380)" d="M154.283 292.861 Q150.672 292.861 148.843 296.426 Q147.038 299.968 147.038 307.097 Q147.038 314.204 148.843 317.768 Q150.672 321.31 154.283 321.31 Q157.917 321.31 159.723 317.768 Q161.552 314.204 161.552 307.097 Q161.552 299.968 159.723 296.426 Q157.917 292.861 154.283 292.861 M154.283 289.158 Q160.093 289.158 163.149 293.764 Q166.227 298.347 166.227 307.097 Q166.227 315.824 163.149 320.431 Q160.093 325.014 154.283 325.014 Q148.473 325.014 145.394 320.431 Q142.339 315.824 142.339 307.097 Q142.339 298.347 145.394 293.764 Q148.473 289.158 154.283 289.158 Z" fill="#000000" fill-rule="nonzero" fill-opacity="1" /><path clip-path="url(#clip380)" d="M166.227 283.259 L190.339 283.259 L190.339 286.456 L166.227 286.456 L166.227 283.259 Z" fill="#000000" fill-rule="nonzero" fill-opacity="1" /><path clip-path="url(#clip380)" d="M199.197 293.735 L205.404 293.735 L205.404 272.313 L198.652 273.667 L198.652 270.206 L205.366 268.852 L209.166 268.852 L209.166 293.735 L215.372 293.735 L215.372 296.932 L199.197 296.932 L199.197 293.735 Z" fill="#000000" fill-rule="nonzero" fill-opacity="1" /><path clip-path="url(#clip380)" d="M223.046 292.155 L227.014 292.155 L227.014 296.932 L223.046 296.932 L223.046 292.155 Z" fill="#000000" fill-rule="nonzero" fill-opacity="1" /><path clip-path="url(#clip380)" d="M243.885 281.378 Q241.327 281.378 239.822 283.127 Q238.336 284.876 238.336 287.923 Q238.336 290.951 239.822 292.719 Q241.327 294.468 243.885 294.468 Q246.443 294.468 247.928 292.719 Q249.433 290.951 249.433 287.923 Q249.433 284.876 247.928 283.127 Q246.443 281.378 243.885 281.378 M251.427 269.473 L251.427 272.933 Q249.997 272.256 248.53 271.899 Q247.082 271.542 245.653 271.542 Q241.891 271.542 239.898 274.081 Q237.923 276.62 237.641 281.754 Q238.75 280.118 240.424 279.253 Q242.098 278.369 244.11 278.369 Q248.342 278.369 250.787 280.946 Q253.251 283.503 253.251 287.923 Q253.251 292.249 250.693 294.863 Q248.135 297.478 243.885 297.478 Q239.014 297.478 236.437 293.754 Q233.86 290.011 233.86 282.92 Q233.86 276.262 237.02 272.313 Q240.18 268.344 245.502 268.344 Q246.932 268.344 248.38 268.626 Q249.847 268.909 251.427 269.473 Z" fill="#000000" fill-rule="nonzero" fill-opacity="1" /><path clip-path="url(#clip380)" d="M49.4968 798.693 Q43.281 798.693 38.8688 794.699 Q34.4566 790.706 34.4566 784.973 Q34.4566 779.176 38.2247 776.181 Q41.9928 773.154 47.4034 773.154 Q48.4018 773.154 48.595 773.411 Q48.7882 773.669 48.7882 774.796 L48.7882 793.218 Q55.5192 793.218 58.6754 791.221 Q63.0876 788.451 63.0876 783.782 Q63.0876 783.138 62.9588 782.365 Q62.83 781.592 62.2825 780.014 Q61.7028 778.435 60.1891 777.051 Q58.6754 775.666 56.2922 774.861 Q55.3582 774.667 55.3904 774.023 Q55.3904 773.154 56.1634 773.154 Q56.7431 773.154 58.0635 773.798 Q59.3517 774.41 60.8976 775.601 Q62.4435 776.793 63.6029 779.112 Q64.7623 781.398 64.7623 784.168 Q64.7623 789.965 60.3823 794.345 Q55.9701 798.693 49.4968 798.693 M47.4034 793.154 L47.4034 777.502 Q46.0185 777.502 44.4726 777.759 Q42.9268 777.985 40.8012 778.693 Q38.6434 779.369 37.2907 780.98 Q35.9381 782.59 35.9381 784.973 Q35.9381 786.036 36.389 787.195 Q36.8398 788.323 37.9348 789.708 Q39.0298 791.092 41.5097 792.059 Q43.9895 793.025 47.4034 793.154 Z" fill="#000000" fill-rule="nonzero" fill-opacity="1" /><path clip-path="url(#clip380)" d="M64.0216 771.017 L61.9926 771.017 Q61.9926 767.507 61.5739 766.702 Q61.1231 765.864 58.9975 765.864 L41.3165 765.864 Q38.8688 765.864 38.2569 766.734 Q37.645 767.571 37.645 771.017 L35.5838 771.017 L34.8753 761.839 L42.1216 761.839 Q39.2875 760.905 37.0975 758.94 Q34.8753 756.943 34.8753 753.723 Q34.8753 751.597 36.0669 750.244 Q37.2585 748.86 38.901 748.86 Q40.3503 748.86 41.091 749.761 Q41.7996 750.631 41.7996 751.694 Q41.7996 752.885 41.0588 753.723 Q40.2859 754.528 38.9654 754.528 Q38.1603 754.528 37.5484 754.174 Q36.9043 753.787 36.6788 753.497 Q36.4534 753.207 36.389 753.014 Q36.3246 753.143 36.3246 753.723 Q36.3246 757.362 39.9638 759.455 Q43.5709 761.517 48.7238 761.517 L58.8687 761.517 Q60.7688 761.517 61.3807 760.744 Q61.9926 759.938 61.9926 756.492 L61.9926 755.108 L64.0216 755.108 Q63.8284 757.748 63.8284 763.481 Q63.8284 764.286 63.8606 765.542 Q63.8928 766.798 63.9572 768.441 Q64.0216 770.083 64.0216 771.017 Z" fill="#000000" fill-rule="nonzero" fill-opacity="1" /><path clip-path="url(#clip380)" d="M64.0216 744.136 L61.9926 744.136 Q61.9926 740.626 61.5739 739.821 Q61.1231 738.983 58.9975 738.983 L41.3165 738.983 Q38.8688 738.983 38.2569 739.853 Q37.645 740.69 37.645 744.136 L35.5838 744.136 L34.8753 734.958 L42.1216 734.958 Q39.2875 734.024 37.0975 732.059 Q34.8753 730.062 34.8753 726.842 Q34.8753 724.716 36.0669 723.364 Q37.2585 721.979 38.901 721.979 Q40.3503 721.979 41.091 722.881 Q41.7996 723.75 41.7996 724.813 Q41.7996 726.005 41.0588 726.842 Q40.2859 727.647 38.9654 727.647 Q38.1603 727.647 37.5484 727.293 Q36.9043 726.906 36.6788 726.616 Q36.4534 726.327 36.389 726.133 Q36.3246 726.262 36.3246 726.842 Q36.3246 730.481 39.9638 732.575 Q43.5709 734.636 48.7238 734.636 L58.8687 734.636 Q60.7688 734.636 61.3807 733.863 Q61.9926 733.058 61.9926 729.612 L61.9926 728.227 L64.0216 728.227 Q63.8284 730.868 63.8284 736.6 Q63.8284 737.405 63.8606 738.661 Q63.8928 739.917 63.9572 741.56 Q64.0216 743.202 64.0216 744.136 Z" fill="#000000" fill-rule="nonzero" fill-opacity="1" /><path clip-path="url(#clip380)" d="M60.479 711.963 Q56.1634 716.311 49.9154 716.311 Q43.6353 716.311 39.0621 712.059 Q34.4566 707.776 34.4566 701.657 Q34.4566 695.667 39.0298 691.383 Q43.5709 687.068 49.9154 687.068 Q56.1312 687.068 60.4467 691.416 Q64.7623 695.731 64.7623 701.721 Q64.7623 707.583 60.479 711.963 M49.3679 710.836 Q55.7769 710.836 58.6754 709.161 Q63.0876 706.584 63.0876 701.657 Q63.0876 699.209 61.7672 697.18 Q60.4467 695.119 58.2245 693.992 Q55.326 692.543 49.3679 692.543 Q43.0234 692.543 40.2215 694.282 Q35.9381 696.858 35.9381 701.721 Q35.9381 703.847 37.0653 705.94 Q38.1603 708.002 40.3503 709.258 Q43.2488 710.836 49.3679 710.836 Z" fill="#000000" fill-rule="nonzero" fill-opacity="1" /><path clip-path="url(#clip380)" d="M64.0216 684.967 L61.9926 684.967 Q61.9926 681.456 61.5739 680.651 Q61.1231 679.814 58.9975 679.814 L41.3165 679.814 Q38.8688 679.814 38.2569 680.683 Q37.645 681.521 37.645 684.967 L35.5838 684.967 L34.8753 675.788 L42.1216 675.788 Q39.2875 674.854 37.0975 672.889 Q34.8753 670.893 34.8753 667.672 Q34.8753 665.546 36.0669 664.194 Q37.2585 662.809 38.901 662.809 Q40.3503 662.809 41.091 663.711 Q41.7996 664.58 41.7996 665.643 Q41.7996 666.835 41.0588 667.672 Q40.2859 668.477 38.9654 668.477 Q38.1603 668.477 37.5484 668.123 Q36.9043 667.736 36.6788 667.447 Q36.4534 667.157 36.389 666.963 Q36.3246 667.092 36.3246 667.672 Q36.3246 671.311 39.9638 673.405 Q43.5709 675.466 48.7238 675.466 L58.8687 675.466 Q60.7688 675.466 61.3807 674.693 Q61.9926 673.888 61.9926 670.442 L61.9926 669.057 L64.0216 669.057 Q63.8284 671.698 63.8284 677.43 Q63.8284 678.236 63.8606 679.492 Q63.8928 680.748 63.9572 682.39 Q64.0216 684.033 64.0216 684.967 Z" fill="#000000" fill-rule="nonzero" fill-opacity="1" /><polyline clip-path="url(#clip382)" style="stroke:#1f77b4; stroke-linecap:round; stroke-linejoin:round; stroke-width:4; stroke-opacity:1; fill:none" points="2294.35,167.327 1645.45,541.826 996.553,916.325 347.652,1290.82 "/>
<polyline clip-path="url(#clip382)" style="stroke:#000000; stroke-linecap:round; stroke-linejoin:round; stroke-width:4; stroke-opacity:1; fill:none" points="2294.35,264.511 2294.35,85.838 "/>
<polyline clip-path="url(#clip382)" style="stroke:#000000; stroke-linecap:round; stroke-linejoin:round; stroke-width:4; stroke-opacity:1; fill:none" points="1645.45,615.672 1645.45,444.691 "/>
<polyline clip-path="url(#clip382)" style="stroke:#000000; stroke-linecap:round; stroke-linejoin:round; stroke-width:4; stroke-opacity:1; fill:none" points="996.553,1034.84 996.553,852.713 "/>
<polyline clip-path="url(#clip382)" style="stroke:#000000; stroke-linecap:round; stroke-linejoin:round; stroke-width:4; stroke-opacity:1; fill:none" points="347.652,1372.3 347.652,1198.83 "/>
<line clip-path="url(#clip382)" x1="2310.35" y1="264.511" x2="2278.35" y2="264.511" style="stroke:#000000; stroke-width:4; stroke-opacity:1"/>
<line clip-path="url(#clip382)" x1="2310.35" y1="85.838" x2="2278.35" y2="85.838" style="stroke:#000000; stroke-width:4; stroke-opacity:1"/>
<line clip-path="url(#clip382)" x1="1661.45" y1="615.672" x2="1629.45" y2="615.672" style="stroke:#000000; stroke-width:4; stroke-opacity:1"/>
<line clip-path="url(#clip382)" x1="1661.45" y1="444.691" x2="1629.45" y2="444.691" style="stroke:#000000; stroke-width:4; stroke-opacity:1"/>
<line clip-path="url(#clip382)" x1="1012.55" y1="1034.84" x2="980.553" y2="1034.84" style="stroke:#000000; stroke-width:4; stroke-opacity:1"/>
<line clip-path="url(#clip382)" x1="1012.55" y1="852.713" x2="980.553" y2="852.713" style="stroke:#000000; stroke-width:4; stroke-opacity:1"/>
<line clip-path="url(#clip382)" x1="363.652" y1="1372.3" x2="331.652" y2="1372.3" style="stroke:#000000; stroke-width:4; stroke-opacity:1"/>
<line clip-path="url(#clip382)" x1="363.652" y1="1198.83" x2="331.652" y2="1198.83" style="stroke:#000000; stroke-width:4; stroke-opacity:1"/>
<circle clip-path="url(#clip382)" cx="2294.35" cy="170.456" r="14.4" fill="#ff7e0d" fill-rule="evenodd" fill-opacity="1" stroke="#000000" stroke-opacity="1" stroke-width="3.2"/>
<circle clip-path="url(#clip382)" cx="1645.45" cy="525.859" r="14.4" fill="#ff7e0d" fill-rule="evenodd" fill-opacity="1" stroke="#000000" stroke-opacity="1" stroke-width="3.2"/>
<circle clip-path="url(#clip382)" cx="996.553" cy="938.872" r="14.4" fill="#ff7e0d" fill-rule="evenodd" fill-opacity="1" stroke="#000000" stroke-opacity="1" stroke-width="3.2"/>
<circle clip-path="url(#clip382)" cx="347.652" cy="1281.12" r="14.4" fill="#ff7e0d" fill-rule="evenodd" fill-opacity="1" stroke="#000000" stroke-opacity="1" stroke-width="3.2"/>
<path clip-path="url(#clip380)" d="M358.035 248.219 L1541.29 248.219 L1541.29 92.6992 L358.035 92.6992  Z" fill="#ffffff" fill-rule="evenodd" fill-opacity="1"/>
<polyline clip-path="url(#clip380)" style="stroke:#000000; stroke-linecap:round; stroke-linejoin:round; stroke-width:4; stroke-opacity:1; fill:none" points="358.035,248.219 1541.29,248.219 1541.29,92.6992 358.035,92.6992 358.035,248.219 "/>
<polyline clip-path="url(#clip380)" style="stroke:#1f77b4; stroke-linecap:round; stroke-linejoin:round; stroke-width:4; stroke-opacity:1; fill:none" points="380.962,144.539 518.529,144.539 "/>
<path clip-path="url(#clip380)" d="M575.513 133.915 L572.492 146.142 Q572.281 146.915 572.141 147.008 Q572.023 147.102 571.649 147.102 Q570.923 147.102 570.923 146.61 Q570.923 146.563 570.993 145.954 Q571.063 145.322 571.063 144.174 Q571.063 139.935 569.002 137.428 Q566.964 134.922 563.334 134.922 Q560.195 134.922 557.033 136.515 Q553.894 138.108 551.646 140.708 Q549.96 142.675 548.718 145.158 Q547.5 147.641 546.915 149.913 Q546.352 152.185 546.095 153.894 Q545.837 155.604 545.837 156.846 Q545.837 158.649 546.212 160.172 Q546.61 161.694 547.313 162.772 Q548.015 163.826 548.906 164.645 Q549.819 165.442 550.873 165.91 Q551.95 166.379 553.028 166.613 Q554.105 166.824 555.23 166.824 Q559.75 166.824 564.06 163.31 Q567.48 160.429 568.908 155.721 Q569.025 155.253 569.517 155.253 Q570.103 155.253 570.103 155.721 Q570.103 155.815 569.986 156.283 Q569.869 156.729 569.517 157.642 Q569.166 158.532 568.627 159.539 Q568.088 160.546 567.081 161.811 Q566.074 163.076 564.833 164.177 Q562.725 166.004 560.055 167.152 Q557.384 168.299 554.457 168.299 Q550.803 168.299 547.852 166.683 Q544.9 165.067 543.167 162.045 Q541.457 159.024 541.457 155.159 Q541.457 151.084 543.331 147.078 Q545.205 143.073 548.179 140.099 Q551.154 137.124 555.089 135.274 Q559.024 133.423 562.959 133.423 Q564.458 133.423 565.793 133.821 Q567.128 134.22 567.925 134.711 Q568.744 135.203 569.47 135.929 Q570.197 136.632 570.431 136.96 Q570.688 137.288 570.923 137.686 L574.272 134.009 Q574.858 133.423 574.998 133.423 Q575.279 133.423 575.396 133.587 Q575.513 133.751 575.513 133.915 Z" fill="#000000" fill-rule="nonzero" fill-opacity="1" /><path clip-path="url(#clip380)" d="M579.252 166.777 Q579.252 166.589 579.885 165.371 Q580.517 164.13 582.742 159.703 Q584.967 155.253 587.263 150.592 L595.531 133.962 Q596.116 132.908 596.866 132.908 Q597.545 132.908 597.85 133.329 Q598.154 133.751 599.56 136.585 Q600.286 137.967 600.707 138.857 L614.269 166.004 Q614.503 166.589 614.526 166.777 Q614.526 167.245 613.707 167.245 L580.517 167.245 Q579.252 167.245 579.252 166.777 M582.414 163.591 L608.226 163.591 L595.32 137.686 L582.414 163.591 Z" fill="#000000" fill-rule="nonzero" fill-opacity="1" /><path clip-path="url(#clip380)" d="M633.53 147.102 Q633.53 147.758 633.225 147.922 Q632.921 148.062 632.077 148.062 L627.58 148.062 L624.02 162.209 Q623.739 163.451 623.739 164.505 Q623.739 165.676 624.09 166.191 Q624.465 166.706 625.238 166.706 Q626.761 166.706 628.4 165.325 Q630.063 163.943 631.468 160.57 Q631.656 160.125 631.75 160.031 Q631.867 159.914 632.171 159.914 Q632.757 159.914 632.757 160.382 Q632.757 160.546 632.429 161.296 Q632.124 162.045 631.445 163.146 Q630.789 164.247 629.923 165.278 Q629.079 166.308 627.791 167.058 Q626.503 167.784 625.121 167.784 Q623.177 167.784 621.936 166.543 Q620.718 165.301 620.718 163.357 Q620.718 162.725 621.209 160.71 Q621.701 158.673 624.371 148.062 L620.132 148.062 Q619.546 148.062 619.312 148.039 Q619.101 148.015 618.937 147.898 Q618.797 147.758 618.797 147.477 Q618.797 147.032 618.984 146.844 Q619.172 146.633 619.406 146.61 Q619.664 146.563 620.249 146.563 L624.746 146.563 L626.62 138.951 Q626.807 138.201 627.276 137.78 Q627.768 137.335 628.049 137.288 Q628.33 137.218 628.541 137.218 Q629.173 137.218 629.548 137.569 Q629.923 137.897 629.923 138.506 Q629.923 138.834 627.955 146.563 L632.171 146.563 Q632.71 146.563 632.921 146.587 Q633.155 146.61 633.342 146.727 Q633.53 146.844 633.53 147.102 Z" fill="#000000" fill-rule="nonzero" fill-opacity="1" /><path clip-path="url(#clip380)" d="M656.038 125.999 Q656.038 128.392 654.825 130.704 Q653.628 133.016 651.743 134.442 Q649.857 135.852 647.939 135.852 Q646.791 135.852 646.021 135.229 Q645.266 134.59 644.857 133.688 Q644.545 134.803 643.873 137.476 Q643.201 140.148 643.201 140.41 Q643.201 140.558 643.233 140.624 Q643.266 140.689 643.414 140.771 Q643.561 140.87 643.922 140.902 Q644.283 140.952 644.889 140.952 Q645.201 140.952 645.316 140.952 Q645.447 140.968 645.562 141.05 Q645.693 141.132 645.693 141.312 Q645.693 141.984 645.086 141.984 Q644.545 141.984 643.43 141.935 Q642.315 141.886 641.758 141.886 Q641.282 141.886 640.331 141.935 Q639.38 141.984 638.938 141.984 Q638.495 141.984 638.495 141.591 Q638.495 141.361 638.561 141.214 Q638.61 141.083 638.741 141.017 Q638.872 140.968 638.987 140.952 Q639.085 140.952 639.282 140.952 Q640.036 140.952 640.364 140.82 Q640.692 140.706 640.807 140.46 Q640.938 140.23 641.086 139.574 L644.857 124.621 Q645.086 123.621 645.086 122.916 Q645.086 122.031 644.807 121.703 Q644.529 121.375 644.037 121.375 Q643.184 121.375 642.627 122.392 Q642.069 123.408 641.594 125.376 Q641.446 125.917 641.348 126.031 Q641.266 126.146 641.02 126.146 Q640.61 126.13 640.61 125.802 Q640.61 125.72 640.741 125.195 Q640.872 124.654 641.118 123.867 Q641.381 123.064 641.659 122.556 Q641.823 122.211 641.971 121.982 Q642.119 121.752 642.414 121.391 Q642.725 121.031 643.168 120.834 Q643.611 120.637 644.152 120.637 Q645.201 120.637 646.07 121.26 Q646.939 121.883 647.168 123.146 Q648.103 122.047 649.251 121.342 Q650.398 120.637 651.562 120.637 Q653.497 120.637 654.76 122.146 Q656.038 123.638 656.038 125.999 M653.612 124.523 Q653.612 123.031 653.038 122.211 Q652.481 121.375 651.464 121.375 Q650.202 121.375 648.742 122.654 Q647.3 123.867 647.004 124.998 L645.348 131.573 L645.25 132.114 Q645.25 132.213 645.299 132.508 Q645.365 132.786 645.545 133.246 Q645.742 133.705 646.004 134.115 Q646.283 134.508 646.775 134.803 Q647.283 135.098 647.906 135.098 Q648.906 135.098 649.988 134.213 Q651.087 133.328 651.907 131.655 Q652.415 130.573 653.005 128.245 Q653.612 125.9 653.612 124.523 Z" fill="#000000" fill-rule="nonzero" fill-opacity="1" /><path clip-path="url(#clip380)" d="M693.646 131.227 L693.646 134.769 L689.572 134.769 Q687.28 134.769 686.377 135.694 Q685.498 136.62 685.498 139.028 L685.498 141.319 L692.511 141.319 L692.511 144.63 L685.498 144.63 L685.498 167.245 L681.215 167.245 L681.215 144.63 L677.141 144.63 L677.141 141.319 L681.215 141.319 L681.215 139.514 Q681.215 135.185 683.229 133.218 Q685.243 131.227 689.618 131.227 L693.646 131.227 Z" fill="#000000" fill-rule="nonzero" fill-opacity="1" /><path clip-path="url(#clip380)" d="M697.21 141.319 L701.47 141.319 L701.47 167.245 L697.21 167.245 L697.21 141.319 M697.21 131.227 L701.47 131.227 L701.47 136.62 L697.21 136.62 L697.21 131.227 Z" fill="#000000" fill-rule="nonzero" fill-opacity="1" /><path clip-path="url(#clip380)" d="M714.595 133.958 L714.595 141.319 L723.368 141.319 L723.368 144.63 L714.595 144.63 L714.595 158.704 Q714.595 161.875 715.451 162.778 Q716.331 163.68 718.993 163.68 L723.368 163.68 L723.368 167.245 L718.993 167.245 Q714.062 167.245 712.187 165.417 Q710.312 163.565 710.312 158.704 L710.312 144.63 L707.187 144.63 L707.187 141.319 L710.312 141.319 L710.312 133.958 L714.595 133.958 Z" fill="#000000" fill-rule="nonzero" fill-opacity="1" /><path clip-path="url(#clip380)" d="M741.562 141.319 L745.821 141.319 L751.145 161.551 L756.446 141.319 L761.469 141.319 L766.793 161.551 L772.094 141.319 L776.354 141.319 L769.571 167.245 L764.548 167.245 L758.969 145.995 L753.368 167.245 L748.344 167.245 L741.562 141.319 Z" fill="#000000" fill-rule="nonzero" fill-opacity="1" /><path clip-path="url(#clip380)" d="M782.812 141.319 L787.071 141.319 L787.071 167.245 L782.812 167.245 L782.812 141.319 M782.812 131.227 L787.071 131.227 L787.071 136.62 L782.812 136.62 L782.812 131.227 Z" fill="#000000" fill-rule="nonzero" fill-opacity="1" /><path clip-path="url(#clip380)" d="M800.196 133.958 L800.196 141.319 L808.969 141.319 L808.969 144.63 L800.196 144.63 L800.196 158.704 Q800.196 161.875 801.052 162.778 Q801.932 163.68 804.594 163.68 L808.969 163.68 L808.969 167.245 L804.594 167.245 Q799.664 167.245 797.789 165.417 Q795.914 163.565 795.914 158.704 L795.914 144.63 L792.789 144.63 L792.789 141.319 L795.914 141.319 L795.914 133.958 L800.196 133.958 Z" fill="#000000" fill-rule="nonzero" fill-opacity="1" /><path clip-path="url(#clip380)" d="M836.122 151.597 L836.122 167.245 L831.863 167.245 L831.863 151.736 Q831.863 148.055 830.427 146.227 Q828.992 144.398 826.122 144.398 Q822.673 144.398 820.682 146.597 Q818.691 148.796 818.691 152.592 L818.691 167.245 L814.409 167.245 L814.409 131.227 L818.691 131.227 L818.691 145.347 Q820.219 143.009 822.279 141.852 Q824.363 140.694 827.071 140.694 Q831.538 140.694 833.83 143.472 Q836.122 146.227 836.122 151.597 Z" fill="#000000" fill-rule="nonzero" fill-opacity="1" /><path clip-path="url(#clip380)" d="M863.807 163.356 L863.807 177.106 L859.524 177.106 L859.524 141.319 L863.807 141.319 L863.807 145.255 Q865.149 142.94 867.186 141.829 Q869.247 140.694 872.094 140.694 Q876.816 140.694 879.756 144.444 Q882.719 148.194 882.719 154.305 Q882.719 160.417 879.756 164.167 Q876.816 167.916 872.094 167.916 Q869.247 167.916 867.186 166.805 Q865.149 165.671 863.807 163.356 M878.297 154.305 Q878.297 149.606 876.353 146.944 Q874.432 144.259 871.052 144.259 Q867.673 144.259 865.728 146.944 Q863.807 149.606 863.807 154.305 Q863.807 159.004 865.728 161.69 Q867.673 164.352 871.052 164.352 Q874.432 164.352 876.353 161.69 Q878.297 159.004 878.297 154.305 Z" fill="#000000" fill-rule="nonzero" fill-opacity="1" /><path clip-path="url(#clip380)" d="M905.404 145.718 L935.08 145.718 L935.08 149.606 L905.404 149.606 L905.404 145.718 M905.404 155.162 L935.08 155.162 L935.08 159.097 L905.404 159.097 L905.404 155.162 Z" fill="#000000" fill-rule="nonzero" fill-opacity="1" /><path clip-path="url(#clip380)" d="M970.241 135.764 Q966.63 135.764 964.802 139.329 Q962.996 142.87 962.996 150 Q962.996 157.106 964.802 160.671 Q966.63 164.213 970.241 164.213 Q973.876 164.213 975.681 160.671 Q977.51 157.106 977.51 150 Q977.51 142.87 975.681 139.329 Q973.876 135.764 970.241 135.764 M970.241 132.06 Q976.052 132.06 979.107 136.667 Q982.186 141.25 982.186 150 Q982.186 158.727 979.107 163.333 Q976.052 167.916 970.241 167.916 Q964.431 167.916 961.353 163.333 Q958.297 158.727 958.297 150 Q958.297 141.25 961.353 136.667 Q964.431 132.06 970.241 132.06 Z" fill="#000000" fill-rule="nonzero" fill-opacity="1" /><path clip-path="url(#clip380)" d="M990.403 161.366 L995.288 161.366 L995.288 167.245 L990.403 167.245 L990.403 161.366 Z" fill="#000000" fill-rule="nonzero" fill-opacity="1" /><path clip-path="url(#clip380)" d="M1016.05 148.102 Q1012.9 148.102 1011.05 150.255 Q1009.22 152.407 1009.22 156.157 Q1009.22 159.884 1011.05 162.06 Q1012.9 164.213 1016.05 164.213 Q1019.2 164.213 1021.03 162.06 Q1022.88 159.884 1022.88 156.157 Q1022.88 152.407 1021.03 150.255 Q1019.2 148.102 1016.05 148.102 M1025.33 133.449 L1025.33 137.708 Q1023.57 136.875 1021.77 136.435 Q1019.99 135.995 1018.23 135.995 Q1013.6 135.995 1011.14 139.12 Q1008.71 142.245 1008.37 148.565 Q1009.73 146.551 1011.79 145.486 Q1013.85 144.398 1016.33 144.398 Q1021.54 144.398 1024.55 147.569 Q1027.58 150.718 1027.58 156.157 Q1027.58 161.481 1024.43 164.699 Q1021.28 167.916 1016.05 167.916 Q1010.06 167.916 1006.88 163.333 Q1003.71 158.727 1003.71 150 Q1003.71 141.806 1007.6 136.944 Q1011.49 132.06 1018.04 132.06 Q1019.8 132.06 1021.58 132.407 Q1023.39 132.755 1025.33 133.449 Z" fill="#000000" fill-rule="nonzero" fill-opacity="1" /><path clip-path="url(#clip380)" d="M1048.48 136.759 L1036.68 155.208 L1048.48 155.208 L1048.48 136.759 M1047.25 132.685 L1053.13 132.685 L1053.13 155.208 L1058.07 155.208 L1058.07 159.097 L1053.13 159.097 L1053.13 167.245 L1048.48 167.245 L1048.48 159.097 L1032.88 159.097 L1032.88 154.583 L1047.25 132.685 Z" fill="#000000" fill-rule="nonzero" fill-opacity="1" /><path clip-path="url(#clip380)" d="M1066.28 142.731 L1071.17 142.731 L1071.17 148.611 L1066.28 148.611 L1066.28 142.731 M1066.28 161.366 L1071.17 161.366 L1071.17 165.347 L1067.37 172.754 L1064.38 172.754 L1066.28 165.347 L1066.28 161.366 Z" fill="#000000" fill-rule="nonzero" fill-opacity="1" /><path clip-path="url(#clip380)" d="M1096.98 166.528 L1096.98 162.268 Q1098.74 163.102 1100.54 163.542 Q1102.35 163.981 1104.08 163.981 Q1108.71 163.981 1111.14 160.879 Q1113.6 157.755 1113.94 151.412 Q1112.6 153.403 1110.54 154.467 Q1108.48 155.532 1105.98 155.532 Q1100.8 155.532 1097.76 152.407 Q1094.75 149.259 1094.75 143.819 Q1094.75 138.495 1097.9 135.278 Q1101.05 132.06 1106.28 132.06 Q1112.28 132.06 1115.43 136.667 Q1118.6 141.25 1118.6 150 Q1118.6 158.171 1114.71 163.055 Q1110.84 167.916 1104.29 167.916 Q1102.53 167.916 1100.73 167.569 Q1098.92 167.222 1096.98 166.528 M1106.28 151.875 Q1109.43 151.875 1111.26 149.722 Q1113.11 147.569 1113.11 143.819 Q1113.11 140.093 1111.26 137.94 Q1109.43 135.764 1106.28 135.764 Q1103.13 135.764 1101.28 137.94 Q1099.45 140.093 1099.45 143.819 Q1099.45 147.569 1101.28 149.722 Q1103.13 151.875 1106.28 151.875 Z" fill="#000000" fill-rule="nonzero" fill-opacity="1" /><path clip-path="url(#clip380)" d="M1127.05 132.685 L1145.4 132.685 L1145.4 136.62 L1131.33 136.62 L1131.33 145.093 Q1132.35 144.745 1133.37 144.583 Q1134.38 144.398 1135.4 144.398 Q1141.19 144.398 1144.57 147.569 Q1147.95 150.741 1147.95 156.157 Q1147.95 161.736 1144.48 164.838 Q1141 167.916 1134.68 167.916 Q1132.51 167.916 1130.24 167.546 Q1128 167.176 1125.59 166.435 L1125.59 161.736 Q1127.67 162.87 1129.89 163.426 Q1132.12 163.981 1134.59 163.981 Q1138.6 163.981 1140.93 161.875 Q1143.27 159.768 1143.27 156.157 Q1143.27 152.546 1140.93 150.44 Q1138.6 148.333 1134.59 148.333 Q1132.72 148.333 1130.84 148.75 Q1128.99 149.167 1127.05 150.046 L1127.05 132.685 Z" fill="#000000" fill-rule="nonzero" fill-opacity="1" /><path clip-path="url(#clip380)" d="M1186.56 152.037 Q1184.55 152.037 1183.39 153.75 Q1182.25 155.463 1182.25 158.518 Q1182.25 161.528 1183.39 163.264 Q1184.55 164.977 1186.56 164.977 Q1188.53 164.977 1189.66 163.264 Q1190.82 161.528 1190.82 158.518 Q1190.82 155.486 1189.66 153.773 Q1188.53 152.037 1186.56 152.037 M1186.56 149.097 Q1190.22 149.097 1192.37 151.643 Q1194.52 154.19 1194.52 158.518 Q1194.52 162.847 1192.35 165.393 Q1190.19 167.916 1186.56 167.916 Q1182.86 167.916 1180.7 165.393 Q1178.55 162.847 1178.55 158.518 Q1178.55 154.167 1180.7 151.643 Q1182.88 149.097 1186.56 149.097 M1162.67 135 Q1160.68 135 1159.52 136.736 Q1158.39 138.449 1158.39 141.458 Q1158.39 144.514 1159.52 146.227 Q1160.66 147.94 1162.67 147.94 Q1164.68 147.94 1165.82 146.227 Q1166.98 144.514 1166.98 141.458 Q1166.98 138.472 1165.82 136.736 Q1164.66 135 1162.67 135 M1183.57 132.06 L1187.28 132.06 L1165.66 167.916 L1161.95 167.916 L1183.57 132.06 M1162.67 132.06 Q1166.33 132.06 1168.5 134.606 Q1170.68 137.13 1170.68 141.458 Q1170.68 145.833 1168.5 148.356 Q1166.35 150.88 1162.67 150.88 Q1158.99 150.88 1156.84 148.356 Q1154.71 145.81 1154.71 141.458 Q1154.71 137.153 1156.86 134.606 Q1159.01 132.06 1162.67 132.06 Z" fill="#000000" fill-rule="nonzero" fill-opacity="1" /><path clip-path="url(#clip380)" d="M1242.74 135.347 L1242.74 140.278 Q1240.38 138.079 1237.69 136.991 Q1235.03 135.903 1232.02 135.903 Q1226.1 135.903 1222.95 139.537 Q1219.8 143.148 1219.8 150 Q1219.8 156.829 1222.95 160.463 Q1226.1 164.074 1232.02 164.074 Q1235.03 164.074 1237.69 162.986 Q1240.38 161.898 1242.74 159.699 L1242.74 164.583 Q1240.29 166.25 1237.53 167.083 Q1234.8 167.916 1231.74 167.916 Q1223.9 167.916 1219.38 163.125 Q1214.87 158.31 1214.87 150 Q1214.87 141.667 1219.38 136.875 Q1223.9 132.06 1231.74 132.06 Q1234.85 132.06 1237.58 132.894 Q1240.33 133.704 1242.74 135.347 Z" fill="#000000" fill-rule="nonzero" fill-opacity="1" /><path clip-path="url(#clip380)" d="M1249.96 132.685 L1254.64 132.685 L1254.64 167.245 L1249.96 167.245 L1249.96 132.685 Z" fill="#000000" fill-rule="nonzero" fill-opacity="1" /><path clip-path="url(#clip380)" d="M1278.43 131.227 L1288.25 131.227 L1288.25 134.537 L1282.69 134.537 L1282.69 170.185 L1288.25 170.185 L1288.25 173.495 L1278.43 173.495 L1278.43 131.227 Z" fill="#000000" fill-rule="nonzero" fill-opacity="1" /><path clip-path="url(#clip380)" d="M1307.92 135.764 Q1304.31 135.764 1302.48 139.329 Q1300.68 142.87 1300.68 150 Q1300.68 157.106 1302.48 160.671 Q1304.31 164.213 1307.92 164.213 Q1311.56 164.213 1313.36 160.671 Q1315.19 157.106 1315.19 150 Q1315.19 142.87 1313.36 139.329 Q1311.56 135.764 1307.92 135.764 M1307.92 132.06 Q1313.73 132.06 1316.79 136.667 Q1319.87 141.25 1319.87 150 Q1319.87 158.727 1316.79 163.333 Q1313.73 167.916 1307.92 167.916 Q1302.11 167.916 1299.04 163.333 Q1295.98 158.727 1295.98 150 Q1295.98 141.25 1299.04 136.667 Q1302.11 132.06 1307.92 132.06 Z" fill="#000000" fill-rule="nonzero" fill-opacity="1" /><path clip-path="url(#clip380)" d="M1328.09 161.366 L1332.97 161.366 L1332.97 167.245 L1328.09 167.245 L1328.09 161.366 Z" fill="#000000" fill-rule="nonzero" fill-opacity="1" /><path clip-path="url(#clip380)" d="M1343.2 132.685 L1361.56 132.685 L1361.56 136.62 L1347.48 136.62 L1347.48 145.093 Q1348.5 144.745 1349.52 144.583 Q1350.54 144.398 1351.56 144.398 Q1357.35 144.398 1360.73 147.569 Q1364.11 150.741 1364.11 156.157 Q1364.11 161.736 1360.63 164.838 Q1357.16 167.916 1350.84 167.916 Q1348.67 167.916 1346.4 167.546 Q1344.15 167.176 1341.74 166.435 L1341.74 161.736 Q1343.83 162.87 1346.05 163.426 Q1348.27 163.981 1350.75 163.981 Q1354.75 163.981 1357.09 161.875 Q1359.43 159.768 1359.43 156.157 Q1359.43 152.546 1357.09 150.44 Q1354.75 148.333 1350.75 148.333 Q1348.87 148.333 1347 148.75 Q1345.15 149.167 1343.2 150.046 L1343.2 132.685 Z" fill="#000000" fill-rule="nonzero" fill-opacity="1" /><path clip-path="url(#clip380)" d="M1383.32 150.833 Q1379.98 150.833 1378.06 152.616 Q1376.17 154.398 1376.17 157.523 Q1376.17 160.648 1378.06 162.43 Q1379.98 164.213 1383.32 164.213 Q1386.65 164.213 1388.57 162.43 Q1390.49 160.625 1390.49 157.523 Q1390.49 154.398 1388.57 152.616 Q1386.67 150.833 1383.32 150.833 M1378.64 148.843 Q1375.63 148.102 1373.94 146.042 Q1372.28 143.981 1372.28 141.018 Q1372.28 136.875 1375.22 134.468 Q1378.18 132.06 1383.32 132.06 Q1388.48 132.06 1391.42 134.468 Q1394.36 136.875 1394.36 141.018 Q1394.36 143.981 1392.67 146.042 Q1391 148.102 1388.02 148.843 Q1391.4 149.63 1393.27 151.921 Q1395.17 154.213 1395.17 157.523 Q1395.17 162.546 1392.09 165.231 Q1389.04 167.916 1383.32 167.916 Q1377.6 167.916 1374.52 165.231 Q1371.47 162.546 1371.47 157.523 Q1371.47 154.213 1373.36 151.921 Q1375.26 149.63 1378.64 148.843 M1376.93 141.458 Q1376.93 144.143 1378.6 145.648 Q1380.29 147.153 1383.32 147.153 Q1386.33 147.153 1388.02 145.648 Q1389.73 144.143 1389.73 141.458 Q1389.73 138.773 1388.02 137.269 Q1386.33 135.764 1383.32 135.764 Q1380.29 135.764 1378.6 137.269 Q1376.93 138.773 1376.93 141.458 Z" fill="#000000" fill-rule="nonzero" fill-opacity="1" /><path clip-path="url(#clip380)" d="M1403.97 161.366 L1408.85 161.366 L1408.85 165.347 L1405.05 172.754 L1402.07 172.754 L1403.97 165.347 L1403.97 161.366 Z" fill="#000000" fill-rule="nonzero" fill-opacity="1" /><path clip-path="url(#clip380)" d="M1443.62 135.764 Q1440.01 135.764 1438.18 139.329 Q1436.37 142.87 1436.37 150 Q1436.37 157.106 1438.18 160.671 Q1440.01 164.213 1443.62 164.213 Q1447.25 164.213 1449.06 160.671 Q1450.89 157.106 1450.89 150 Q1450.89 142.87 1449.06 139.329 Q1447.25 135.764 1443.62 135.764 M1443.62 132.06 Q1449.43 132.06 1452.48 136.667 Q1455.56 141.25 1455.56 150 Q1455.56 158.727 1452.48 163.333 Q1449.43 167.916 1443.62 167.916 Q1437.81 167.916 1434.73 163.333 Q1431.67 158.727 1431.67 150 Q1431.67 141.25 1434.73 136.667 Q1437.81 132.06 1443.62 132.06 Z" fill="#000000" fill-rule="nonzero" fill-opacity="1" /><path clip-path="url(#clip380)" d="M1463.78 161.366 L1468.66 161.366 L1468.66 167.245 L1463.78 167.245 L1463.78 161.366 Z" fill="#000000" fill-rule="nonzero" fill-opacity="1" /><path clip-path="url(#clip380)" d="M1477.67 132.685 L1499.89 132.685 L1499.89 134.676 L1487.35 167.245 L1482.46 167.245 L1494.27 136.62 L1477.67 136.62 L1477.67 132.685 Z" fill="#000000" fill-rule="nonzero" fill-opacity="1" /><path clip-path="url(#clip380)" d="M1518.36 131.227 L1518.36 173.495 L1508.55 173.495 L1508.55 170.185 L1514.08 170.185 L1514.08 134.537 L1508.55 134.537 L1508.55 131.227 L1518.36 131.227 Z" fill="#000000" fill-rule="nonzero" fill-opacity="1" /><circle clip-path="url(#clip380)" cx="449.746" cy="196.379" r="20.48" fill="#ff7e0d" fill-rule="evenodd" fill-opacity="1" stroke="#000000" stroke-opacity="1" stroke-width="4.55111"/>
<path clip-path="url(#clip380)" d="M559.883 188.497 L559.883 192.525 Q558.077 191.599 556.133 191.136 Q554.189 190.673 552.105 190.673 Q548.934 190.673 547.337 191.645 Q545.763 192.618 545.763 194.562 Q545.763 196.044 546.897 196.9 Q548.031 197.733 551.457 198.497 L552.915 198.821 Q557.452 199.794 559.351 201.576 Q561.272 203.335 561.272 206.506 Q561.272 210.118 558.402 212.224 Q555.554 214.33 550.554 214.33 Q548.471 214.33 546.203 213.914 Q543.957 213.52 541.457 212.71 L541.457 208.312 Q543.818 209.539 546.11 210.164 Q548.402 210.766 550.647 210.766 Q553.656 210.766 555.277 209.747 Q556.897 208.706 556.897 206.831 Q556.897 205.094 555.716 204.168 Q554.559 203.243 550.601 202.386 L549.119 202.039 Q545.161 201.206 543.402 199.493 Q541.642 197.756 541.642 194.747 Q541.642 191.09 544.235 189.099 Q546.828 187.108 551.596 187.108 Q553.957 187.108 556.04 187.456 Q558.124 187.803 559.883 188.497 Z" fill="#000000" fill-rule="nonzero" fill-opacity="1" /><path clip-path="url(#clip380)" d="M572.267 180.372 L572.267 187.733 L581.04 187.733 L581.04 191.044 L572.267 191.044 L572.267 205.118 Q572.267 208.289 573.124 209.192 Q574.003 210.094 576.665 210.094 L581.04 210.094 L581.04 213.659 L576.665 213.659 Q571.735 213.659 569.86 211.83 Q567.985 209.979 567.985 205.118 L567.985 191.044 L564.86 191.044 L564.86 187.733 L567.985 187.733 L567.985 180.372 L572.267 180.372 Z" fill="#000000" fill-rule="nonzero" fill-opacity="1" /><path clip-path="url(#clip380)" d="M601.665 191.715 Q600.948 191.298 600.091 191.113 Q599.258 190.905 598.239 190.905 Q594.628 190.905 592.684 193.266 Q590.762 195.604 590.762 200.002 L590.762 213.659 L586.48 213.659 L586.48 187.733 L590.762 187.733 L590.762 191.761 Q592.105 189.4 594.258 188.266 Q596.411 187.108 599.489 187.108 Q599.929 187.108 600.461 187.178 Q600.994 187.224 601.642 187.34 L601.665 191.715 Z" fill="#000000" fill-rule="nonzero" fill-opacity="1" /><path clip-path="url(#clip380)" d="M615.137 190.719 Q611.711 190.719 609.721 193.405 Q607.73 196.067 607.73 200.719 Q607.73 205.372 609.698 208.057 Q611.688 210.719 615.137 210.719 Q618.54 210.719 620.531 208.034 Q622.522 205.349 622.522 200.719 Q622.522 196.113 620.531 193.428 Q618.54 190.719 615.137 190.719 M615.137 187.108 Q620.693 187.108 623.864 190.719 Q627.035 194.331 627.035 200.719 Q627.035 207.085 623.864 210.719 Q620.693 214.33 615.137 214.33 Q609.559 214.33 606.387 210.719 Q603.239 207.085 603.239 200.719 Q603.239 194.331 606.387 190.719 Q609.559 187.108 615.137 187.108 Z" fill="#000000" fill-rule="nonzero" fill-opacity="1" /><path clip-path="url(#clip380)" d="M655.646 198.011 L655.646 213.659 L651.387 213.659 L651.387 198.15 Q651.387 194.469 649.952 192.641 Q648.517 190.812 645.646 190.812 Q642.197 190.812 640.207 193.011 Q638.216 195.21 638.216 199.006 L638.216 213.659 L633.934 213.659 L633.934 187.733 L638.216 187.733 L638.216 191.761 Q639.744 189.423 641.804 188.266 Q643.887 187.108 646.595 187.108 Q651.063 187.108 653.355 189.886 Q655.646 192.641 655.646 198.011 Z" fill="#000000" fill-rule="nonzero" fill-opacity="1" /><path clip-path="url(#clip380)" d="M681.202 200.395 Q681.202 195.766 679.281 193.219 Q677.382 190.673 673.933 190.673 Q670.507 190.673 668.586 193.219 Q666.688 195.766 666.688 200.395 Q666.688 205.002 668.586 207.548 Q670.507 210.094 673.933 210.094 Q677.382 210.094 679.281 207.548 Q681.202 205.002 681.202 200.395 M685.461 210.442 Q685.461 217.062 682.521 220.28 Q679.581 223.52 673.517 223.52 Q671.271 223.52 669.281 223.173 Q667.29 222.849 665.415 222.155 L665.415 218.011 Q667.29 219.03 669.119 219.516 Q670.947 220.002 672.845 220.002 Q677.035 220.002 679.118 217.803 Q681.202 215.627 681.202 211.205 L681.202 209.099 Q679.882 211.391 677.822 212.525 Q675.762 213.659 672.892 213.659 Q668.123 213.659 665.207 210.025 Q662.29 206.391 662.29 200.395 Q662.29 194.377 665.207 190.743 Q668.123 187.108 672.892 187.108 Q675.762 187.108 677.822 188.243 Q679.882 189.377 681.202 191.669 L681.202 187.733 L685.461 187.733 L685.461 210.442 Z" fill="#000000" fill-rule="nonzero" fill-opacity="1" /><path clip-path="url(#clip380)" d="M731.479 199.631 L731.479 201.715 L711.896 201.715 Q712.174 206.113 714.535 208.428 Q716.919 210.719 721.155 210.719 Q723.609 210.719 725.901 210.118 Q728.215 209.516 730.484 208.312 L730.484 212.34 Q728.192 213.312 725.785 213.821 Q723.377 214.33 720.901 214.33 Q714.697 214.33 711.063 210.719 Q707.452 207.108 707.452 200.951 Q707.452 194.585 710.878 190.858 Q714.327 187.108 720.16 187.108 Q725.391 187.108 728.424 190.488 Q731.479 193.844 731.479 199.631 M727.22 198.381 Q727.174 194.886 725.252 192.803 Q723.354 190.719 720.206 190.719 Q716.641 190.719 714.489 192.733 Q712.359 194.747 712.035 198.405 L727.22 198.381 Z" fill="#000000" fill-rule="nonzero" fill-opacity="1" /><path clip-path="url(#clip380)" d="M753.493 191.715 Q752.775 191.298 751.919 191.113 Q751.086 190.905 750.067 190.905 Q746.456 190.905 744.512 193.266 Q742.59 195.604 742.59 200.002 L742.59 213.659 L738.308 213.659 L738.308 187.733 L742.59 187.733 L742.59 191.761 Q743.933 189.4 746.086 188.266 Q748.238 187.108 751.317 187.108 Q751.757 187.108 752.289 187.178 Q752.822 187.224 753.47 187.34 L753.493 191.715 Z" fill="#000000" fill-rule="nonzero" fill-opacity="1" /><path clip-path="url(#clip380)" d="M772.15 191.715 Q771.433 191.298 770.576 191.113 Q769.743 190.905 768.724 190.905 Q765.113 190.905 763.169 193.266 Q761.248 195.604 761.248 200.002 L761.248 213.659 L756.965 213.659 L756.965 187.733 L761.248 187.733 L761.248 191.761 Q762.59 189.4 764.743 188.266 Q766.896 187.108 769.974 187.108 Q770.414 187.108 770.947 187.178 Q771.479 187.224 772.127 187.34 L772.15 191.715 Z" fill="#000000" fill-rule="nonzero" fill-opacity="1" /><path clip-path="url(#clip380)" d="M785.623 190.719 Q782.197 190.719 780.206 193.405 Q778.215 196.067 778.215 200.719 Q778.215 205.372 780.183 208.057 Q782.173 210.719 785.623 210.719 Q789.025 210.719 791.016 208.034 Q793.007 205.349 793.007 200.719 Q793.007 196.113 791.016 193.428 Q789.025 190.719 785.623 190.719 M785.623 187.108 Q791.178 187.108 794.349 190.719 Q797.521 194.331 797.521 200.719 Q797.521 207.085 794.349 210.719 Q791.178 214.33 785.623 214.33 Q780.044 214.33 776.873 210.719 Q773.724 207.085 773.724 200.719 Q773.724 194.331 776.873 190.719 Q780.044 187.108 785.623 187.108 Z" fill="#000000" fill-rule="nonzero" fill-opacity="1" /><path clip-path="url(#clip380)" d="M819.604 191.715 Q818.886 191.298 818.03 191.113 Q817.196 190.905 816.178 190.905 Q812.567 190.905 810.622 193.266 Q808.701 195.604 808.701 200.002 L808.701 213.659 L804.419 213.659 L804.419 187.733 L808.701 187.733 L808.701 191.761 Q810.044 189.4 812.196 188.266 Q814.349 187.108 817.428 187.108 Q817.868 187.108 818.4 187.178 Q818.933 187.224 819.581 187.34 L819.604 191.715 Z" fill="#000000" fill-rule="nonzero" fill-opacity="1" /><path clip-path="url(#clip380)" d="M840.599 188.497 L840.599 192.525 Q838.794 191.599 836.849 191.136 Q834.905 190.673 832.821 190.673 Q829.65 190.673 828.053 191.645 Q826.479 192.618 826.479 194.562 Q826.479 196.044 827.613 196.9 Q828.747 197.733 832.173 198.497 L833.632 198.821 Q838.169 199.794 840.067 201.576 Q841.988 203.335 841.988 206.506 Q841.988 210.118 839.118 212.224 Q836.27 214.33 831.27 214.33 Q829.187 214.33 826.919 213.914 Q824.673 213.52 822.173 212.71 L822.173 208.312 Q824.534 209.539 826.826 210.164 Q829.118 210.766 831.363 210.766 Q834.372 210.766 835.993 209.747 Q837.613 208.706 837.613 206.831 Q837.613 205.094 836.432 204.168 Q835.275 203.243 831.317 202.386 L829.835 202.039 Q825.877 201.206 824.118 199.493 Q822.358 197.756 822.358 194.747 Q822.358 191.09 824.951 189.099 Q827.544 187.108 832.312 187.108 Q834.673 187.108 836.757 187.456 Q838.84 187.803 840.599 188.497 Z" fill="#000000" fill-rule="nonzero" fill-opacity="1" /></svg>
