<?xml version="1.0" encoding="utf-8"?>
<svg xmlns="http://www.w3.org/2000/svg" xmlns:xlink="http://www.w3.org/1999/xlink" width="600" height="400" viewBox="0 0 2400 1600">
<defs>
  <clipPath id="clip000">
    <rect x="0" y="0" width="2400" height="1600"/>
  </clipPath>
</defs>
<path clip-path="url(#clip000)" d="M0 1600 L2400 1600 L2400 0 L0 0  Z" fill="#ffffff" fill-rule="evenodd" fill-opacity="1"/>
<defs>
  <clipPath id="clip001">
    <rect x="480" y="0" width="1681" height="1600"/>
  </clipPath>
</defs>
<path clip-path="url(#clip000)" d="M247.459 1423.18 L2352.76 1423.18 L2352.76 47.2441 L247.459 47.2441  Z" fill="#ffffff" fill-rule="evenodd" fill-opacity="1"/>
<defs>
  <clipPath id="clip002">
    <rect x="247" y="47" width="2106" height="1377"/>
  </clipPath>
</defs>
<polyline clip-path="url(#clip002)" style="stroke:#000000; stroke-linecap:round; stroke-linejoin:round; stroke-width:2; stroke-opacity:0.1; fill:none" points="307.043,1423.18 307.043,47.2441 "/>
<polyline clip-path="url(#clip002)" style="stroke:#000000; stroke-linecap:round; stroke-linejoin:round; stroke-width:2; stroke-opacity:0.1; fill:none" points="803.575,1423.18 803.575,47.2441 "/>
<polyline clip-path="url(#clip002)" style="stroke:#000000; stroke-linecap:round; stroke-linejoin:round; stroke-width:2; stroke-opacity:0.1; fill:none" points="1300.11,1423.18 1300.11,47.2441 "/>
<polyline clip-path="url(#clip002)" style="stroke:#000000; stroke-linecap:round; stroke-linejoin:round; stroke-width:2; stroke-opacity:0.1; fill:none" points="1796.64,1423.18 1796.64,47.2441 "/>
<polyline clip-path="url(#clip002)" style="stroke:#000000; stroke-linecap:round; stroke-linejoin:round; stroke-width:2; stroke-opacity:0.1; fill:none" points="2293.17,1423.18 2293.17,47.2441 "/>
<polyline clip-path="url(#clip002)" style="stroke:#000000; stroke-linecap:round; stroke-linejoin:round; stroke-width:2; stroke-opacity:0.1; fill:none" points="247.459,1384.24 2352.76,1384.24 "/>
<polyline clip-path="url(#clip002)" style="stroke:#000000; stroke-linecap:round; stroke-linejoin:round; stroke-width:2; stroke-opacity:0.1; fill:none" points="247.459,1074.69 2352.76,1074.69 "/>
<polyline clip-path="url(#clip002)" style="stroke:#000000; stroke-linecap:round; stroke-linejoin:round; stroke-width:2; stroke-opacity:0.1; fill:none" points="247.459,765.136 2352.76,765.136 "/>
<polyline clip-path="url(#clip002)" style="stroke:#000000; stroke-linecap:round; stroke-linejoin:round; stroke-width:2; stroke-opacity:0.1; fill:none" points="247.459,455.585 2352.76,455.585 "/>
<polyline clip-path="url(#clip002)" style="stroke:#000000; stroke-linecap:round; stroke-linejoin:round; stroke-width:2; stroke-opacity:0.1; fill:none" points="247.459,146.035 2352.76,146.035 "/>
<polyline clip-path="url(#clip000)" style="stroke:#000000; stroke-linecap:round; stroke-linejoin:round; stroke-width:4; stroke-opacity:1; fill:none" points="247.459,1423.18 2352.76,1423.18 "/>
<polyline clip-path="url(#clip000)" style="stroke:#000000; stroke-linecap:round; stroke-linejoin:round; stroke-width:4; stroke-opacity:1; fill:none" points="307.043,1423.18 307.043,1404.28 "/>
<polyline clip-path="url(#clip000)" style="stroke:#000000; stroke-linecap:round; stroke-linejoin:round; stroke-width:4; stroke-opacity:1; fill:none" points="803.575,1423.18 803.575,1404.28 "/>
<polyline clip-path="url(#clip000)" style="stroke:#000000; stroke-linecap:round; stroke-linejoin:round; stroke-width:4; stroke-opacity:1; fill:none" points="1300.11,1423.18 1300.11,1404.28 "/>
<polyline clip-path="url(#clip000)" style="stroke:#000000; stroke-linecap:round; stroke-linejoin:round; stroke-width:4; stroke-opacity:1; fill:none" points="1796.64,1423.18 1796.64,1404.28 "/>
<polyline clip-path="url(#clip000)" style="stroke:#000000; stroke-linecap:round; stroke-linejoin:round; stroke-width:4; stroke-opacity:1; fill:none" points="2293.17,1423.18 2293.17,1404.28 "/>
<path clip-path="url(#clip000)" d="M284.427 1454.1 Q280.816 1454.1 278.987 1457.66 Q277.182 1461.2 277.182 1468.33 Q277.182 1475.44 278.987 1479.01 Q280.816 1482.55 284.427 1482.55 Q288.061 1482.55 289.867 1479.01 Q291.695 1475.44 291.695 1468.33 Q291.695 1461.2 289.867 1457.66 Q288.061 1454.1 284.427 1454.1 M284.427 1450.39 Q290.237 1450.39 293.293 1455 Q296.371 1459.58 296.371 1468.33 Q296.371 1477.06 293.293 1481.67 Q290.237 1486.25 284.427 1486.25 Q278.617 1486.25 275.538 1481.67 Q272.483 1477.06 272.483 1468.33 Q272.483 1459.58 275.538 1455 Q278.617 1450.39 284.427 1450.39 Z" fill="#000000" fill-rule="nonzero" fill-opacity="1" /><path clip-path="url(#clip000)" d="M304.589 1479.7 L309.473 1479.7 L309.473 1485.58 L304.589 1485.58 L304.589 1479.7 Z" fill="#000000" fill-rule="nonzero" fill-opacity="1" /><path clip-path="url(#clip000)" d="M329.658 1454.1 Q326.047 1454.1 324.218 1457.66 Q322.413 1461.2 322.413 1468.33 Q322.413 1475.44 324.218 1479.01 Q326.047 1482.55 329.658 1482.55 Q333.292 1482.55 335.098 1479.01 Q336.927 1475.44 336.927 1468.33 Q336.927 1461.2 335.098 1457.66 Q333.292 1454.1 329.658 1454.1 M329.658 1450.39 Q335.468 1450.39 338.524 1455 Q341.603 1459.58 341.603 1468.33 Q341.603 1477.06 338.524 1481.67 Q335.468 1486.25 329.658 1486.25 Q323.848 1486.25 320.769 1481.67 Q317.714 1477.06 317.714 1468.33 Q317.714 1459.58 320.769 1455 Q323.848 1450.39 329.658 1450.39 Z" fill="#000000" fill-rule="nonzero" fill-opacity="1" /><path clip-path="url(#clip000)" d="M781.457 1454.1 Q777.846 1454.1 776.017 1457.66 Q774.212 1461.2 774.212 1468.33 Q774.212 1475.44 776.017 1479.01 Q777.846 1482.55 781.457 1482.55 Q785.091 1482.55 786.897 1479.01 Q788.725 1475.44 788.725 1468.33 Q788.725 1461.2 786.897 1457.66 Q785.091 1454.1 781.457 1454.1 M781.457 1450.39 Q787.267 1450.39 790.323 1455 Q793.401 1459.58 793.401 1468.33 Q793.401 1477.06 790.323 1481.67 Q787.267 1486.25 781.457 1486.25 Q775.647 1486.25 772.568 1481.67 Q769.513 1477.06 769.513 1468.33 Q769.513 1459.58 772.568 1455 Q775.647 1450.39 781.457 1450.39 Z" fill="#000000" fill-rule="nonzero" fill-opacity="1" /><path clip-path="url(#clip000)" d="M801.619 1479.7 L806.503 1479.7 L806.503 1485.58 L801.619 1485.58 L801.619 1479.7 Z" fill="#000000" fill-rule="nonzero" fill-opacity="1" /><path clip-path="url(#clip000)" d="M816.735 1451.02 L835.091 1451.02 L835.091 1454.96 L821.017 1454.96 L821.017 1463.43 Q822.036 1463.08 823.054 1462.92 Q824.073 1462.73 825.091 1462.73 Q830.878 1462.73 834.258 1465.9 Q837.637 1469.08 837.637 1474.49 Q837.637 1480.07 834.165 1483.17 Q830.693 1486.25 824.373 1486.25 Q822.198 1486.25 819.929 1485.88 Q817.684 1485.51 815.276 1484.77 L815.276 1480.07 Q817.36 1481.2 819.582 1481.76 Q821.804 1482.32 824.281 1482.32 Q828.285 1482.32 830.623 1480.21 Q832.961 1478.1 832.961 1474.49 Q832.961 1470.88 830.623 1468.77 Q828.285 1466.67 824.281 1466.67 Q822.406 1466.67 820.531 1467.08 Q818.679 1467.5 816.735 1468.38 L816.735 1451.02 Z" fill="#000000" fill-rule="nonzero" fill-opacity="1" /><path clip-path="url(#clip000)" d="M1267.26 1481.64 L1274.9 1481.64 L1274.9 1455.28 L1266.59 1456.95 L1266.59 1452.69 L1274.85 1451.02 L1279.53 1451.02 L1279.53 1481.64 L1287.17 1481.64 L1287.17 1485.58 L1267.26 1485.58 L1267.26 1481.64 Z" fill="#000000" fill-rule="nonzero" fill-opacity="1" /><path clip-path="url(#clip000)" d="M1296.61 1479.7 L1301.5 1479.7 L1301.5 1485.58 L1296.61 1485.58 L1296.61 1479.7 Z" fill="#000000" fill-rule="nonzero" fill-opacity="1" /><path clip-path="url(#clip000)" d="M1321.68 1454.1 Q1318.07 1454.1 1316.24 1457.66 Q1314.44 1461.2 1314.44 1468.33 Q1314.44 1475.44 1316.24 1479.01 Q1318.07 1482.55 1321.68 1482.55 Q1325.32 1482.55 1327.12 1479.01 Q1328.95 1475.44 1328.95 1468.33 Q1328.95 1461.2 1327.12 1457.66 Q1325.32 1454.1 1321.68 1454.1 M1321.68 1450.39 Q1327.49 1450.39 1330.55 1455 Q1333.63 1459.58 1333.63 1468.33 Q1333.63 1477.06 1330.55 1481.67 Q1327.49 1486.25 1321.68 1486.25 Q1315.87 1486.25 1312.79 1481.67 Q1309.74 1477.06 1309.74 1468.33 Q1309.74 1459.58 1312.79 1455 Q1315.87 1450.39 1321.68 1450.39 Z" fill="#000000" fill-rule="nonzero" fill-opacity="1" /><path clip-path="url(#clip000)" d="M1764.29 1481.64 L1771.93 1481.64 L1771.93 1455.28 L1763.62 1456.95 L1763.62 1452.69 L1771.88 1451.02 L1776.56 1451.02 L1776.56 1481.64 L1784.2 1481.64 L1784.2 1485.58 L1764.29 1485.58 L1764.29 1481.64 Z" fill="#000000" fill-rule="nonzero" fill-opacity="1" /><path clip-path="url(#clip000)" d="M1793.64 1479.7 L1798.53 1479.7 L1798.53 1485.58 L1793.64 1485.58 L1793.64 1479.7 Z" fill="#000000" fill-rule="nonzero" fill-opacity="1" /><path clip-path="url(#clip000)" d="M1808.76 1451.02 L1827.11 1451.02 L1827.11 1454.96 L1813.04 1454.96 L1813.04 1463.43 Q1814.06 1463.08 1815.08 1462.92 Q1816.1 1462.73 1817.11 1462.73 Q1822.9 1462.73 1826.28 1465.9 Q1829.66 1469.08 1829.66 1474.49 Q1829.66 1480.07 1826.19 1483.17 Q1822.72 1486.25 1816.4 1486.25 Q1814.22 1486.25 1811.95 1485.88 Q1809.71 1485.51 1807.3 1484.77 L1807.3 1480.07 Q1809.38 1481.2 1811.6 1481.76 Q1813.83 1482.32 1816.3 1482.32 Q1820.31 1482.32 1822.65 1480.21 Q1824.98 1478.1 1824.98 1474.49 Q1824.98 1470.88 1822.65 1468.77 Q1820.31 1466.67 1816.3 1466.67 Q1814.43 1466.67 1812.55 1467.08 Q1810.7 1467.5 1808.76 1468.38 L1808.76 1451.02 Z" fill="#000000" fill-rule="nonzero" fill-opacity="1" /><path clip-path="url(#clip000)" d="M2264.41 1481.64 L2280.73 1481.64 L2280.73 1485.58 L2258.79 1485.58 L2258.79 1481.64 Q2261.45 1478.89 2266.03 1474.26 Q2270.64 1469.61 2271.82 1468.27 Q2274.06 1465.74 2274.94 1464.01 Q2275.85 1462.25 2275.85 1460.56 Q2275.85 1457.8 2273.9 1456.07 Q2271.98 1454.33 2268.88 1454.33 Q2266.68 1454.33 2264.23 1455.09 Q2261.79 1455.86 2259.02 1457.41 L2259.02 1452.69 Q2261.84 1451.55 2264.29 1450.97 Q2266.75 1450.39 2268.79 1450.39 Q2274.16 1450.39 2277.35 1453.08 Q2280.54 1455.77 2280.54 1460.26 Q2280.54 1462.39 2279.73 1464.31 Q2278.95 1466.2 2276.84 1468.8 Q2276.26 1469.47 2273.16 1472.69 Q2270.06 1475.88 2264.41 1481.64 Z" fill="#000000" fill-rule="nonzero" fill-opacity="1" /><path clip-path="url(#clip000)" d="M2290.54 1479.7 L2295.43 1479.7 L2295.43 1485.58 L2290.54 1485.58 L2290.54 1479.7 Z" fill="#000000" fill-rule="nonzero" fill-opacity="1" /><path clip-path="url(#clip000)" d="M2315.61 1454.1 Q2312 1454.1 2310.17 1457.66 Q2308.37 1461.2 2308.37 1468.33 Q2308.37 1475.44 2310.17 1479.01 Q2312 1482.55 2315.61 1482.55 Q2319.25 1482.55 2321.05 1479.01 Q2322.88 1475.44 2322.88 1468.33 Q2322.88 1461.2 2321.05 1457.66 Q2319.25 1454.1 2315.61 1454.1 M2315.61 1450.39 Q2321.42 1450.39 2324.48 1455 Q2327.56 1459.58 2327.56 1468.33 Q2327.56 1477.06 2324.48 1481.67 Q2321.42 1486.25 2315.61 1486.25 Q2309.8 1486.25 2306.73 1481.67 Q2303.67 1477.06 2303.67 1468.33 Q2303.67 1459.58 2306.73 1455 Q2309.8 1450.39 2315.61 1450.39 Z" fill="#000000" fill-rule="nonzero" fill-opacity="1" /><path clip-path="url(#clip000)" d="M1308.58 1531.91 Q1308.58 1532.81 1308.16 1533.04 Q1307.74 1533.23 1306.58 1533.23 L1300.4 1533.23 L1295.5 1552.69 Q1295.12 1554.39 1295.12 1555.84 Q1295.12 1557.45 1295.6 1558.16 Q1296.11 1558.87 1297.18 1558.87 Q1299.27 1558.87 1301.53 1556.97 Q1303.81 1555.07 1305.74 1550.43 Q1306 1549.82 1306.13 1549.69 Q1306.29 1549.53 1306.71 1549.53 Q1307.52 1549.53 1307.52 1550.17 Q1307.52 1550.4 1307.06 1551.43 Q1306.65 1552.46 1305.71 1553.97 Q1304.81 1555.49 1303.62 1556.9 Q1302.46 1558.32 1300.69 1559.35 Q1298.92 1560.35 1297.02 1560.35 Q1294.34 1560.35 1292.64 1558.64 Q1290.96 1556.94 1290.96 1554.26 Q1290.96 1553.39 1291.64 1550.62 Q1292.31 1547.82 1295.99 1533.23 L1290.16 1533.23 Q1289.35 1533.23 1289.03 1533.2 Q1288.74 1533.17 1288.51 1533.01 Q1288.32 1532.81 1288.32 1532.43 Q1288.32 1531.82 1288.58 1531.56 Q1288.84 1531.27 1289.16 1531.24 Q1289.51 1531.17 1290.32 1531.17 L1296.5 1531.17 L1299.08 1520.71 Q1299.34 1519.67 1299.98 1519.09 Q1300.66 1518.48 1301.04 1518.42 Q1301.43 1518.32 1301.72 1518.32 Q1302.59 1518.32 1303.1 1518.81 Q1303.62 1519.26 1303.62 1520.09 Q1303.62 1520.54 1300.91 1531.17 L1306.71 1531.17 Q1307.45 1531.17 1307.74 1531.2 Q1308.06 1531.24 1308.32 1531.4 Q1308.58 1531.56 1308.58 1531.91 Z" fill="#000000" fill-rule="nonzero" fill-opacity="1" /><polyline clip-path="url(#clip000)" style="stroke:#000000; stroke-linecap:round; stroke-linejoin:round; stroke-width:4; stroke-opacity:1; fill:none" points="247.459,1423.18 247.459,47.2441 "/>
<polyline clip-path="url(#clip000)" style="stroke:#000000; stroke-linecap:round; stroke-linejoin:round; stroke-width:4; stroke-opacity:1; fill:none" points="247.459,1384.24 266.356,1384.24 "/>
<polyline clip-path="url(#clip000)" style="stroke:#000000; stroke-linecap:round; stroke-linejoin:round; stroke-width:4; stroke-opacity:1; fill:none" points="247.459,1074.69 266.356,1074.69 "/>
<polyline clip-path="url(#clip000)" style="stroke:#000000; stroke-linecap:round; stroke-linejoin:round; stroke-width:4; stroke-opacity:1; fill:none" points="247.459,765.136 266.356,765.136 "/>
<polyline clip-path="url(#clip000)" style="stroke:#000000; stroke-linecap:round; stroke-linejoin:round; stroke-width:4; stroke-opacity:1; fill:none" points="247.459,455.585 266.356,455.585 "/>
<polyline clip-path="url(#clip000)" style="stroke:#000000; stroke-linecap:round; stroke-linejoin:round; stroke-width:4; stroke-opacity:1; fill:none" points="247.459,146.035 266.356,146.035 "/>
<path clip-path="url(#clip000)" d="M154.283 1370.04 Q150.672 1370.04 148.843 1373.6 Q147.038 1377.14 147.038 1384.27 Q147.038 1391.38 148.843 1394.94 Q150.672 1398.49 154.283 1398.49 Q157.917 1398.49 159.723 1394.94 Q161.552 1391.38 161.552 1384.27 Q161.552 1377.14 159.723 1373.6 Q157.917 1370.04 154.283 1370.04 M154.283 1366.33 Q160.093 1366.33 163.149 1370.94 Q166.227 1375.52 166.227 1384.27 Q166.227 1393 163.149 1397.61 Q160.093 1402.19 154.283 1402.19 Q148.473 1402.19 145.394 1397.61 Q142.339 1393 142.339 1384.27 Q142.339 1375.52 145.394 1370.94 Q148.473 1366.33 154.283 1366.33 Z" fill="#000000" fill-rule="nonzero" fill-opacity="1" /><path clip-path="url(#clip000)" d="M174.445 1395.64 L179.329 1395.64 L179.329 1401.52 L174.445 1401.52 L174.445 1395.64 Z" fill="#000000" fill-rule="nonzero" fill-opacity="1" /><path clip-path="url(#clip000)" d="M199.514 1370.04 Q195.903 1370.04 194.075 1373.6 Q192.269 1377.14 192.269 1384.27 Q192.269 1391.38 194.075 1394.94 Q195.903 1398.49 199.514 1398.49 Q203.149 1398.49 204.954 1394.94 Q206.783 1391.38 206.783 1384.27 Q206.783 1377.14 204.954 1373.6 Q203.149 1370.04 199.514 1370.04 M199.514 1366.33 Q205.324 1366.33 208.38 1370.94 Q211.459 1375.52 211.459 1384.27 Q211.459 1393 208.38 1397.61 Q205.324 1402.19 199.514 1402.19 Q193.704 1402.19 190.625 1397.61 Q187.57 1393 187.57 1384.27 Q187.57 1375.52 190.625 1370.94 Q193.704 1366.33 199.514 1366.33 Z" fill="#000000" fill-rule="nonzero" fill-opacity="1" /><path clip-path="url(#clip000)" d="M149.306 1088.03 L165.626 1088.03 L165.626 1091.97 L143.681 1091.97 L143.681 1088.03 Q146.343 1085.28 150.927 1080.65 Q155.533 1076 156.714 1074.65 Q158.959 1072.13 159.839 1070.39 Q160.741 1068.63 160.741 1066.94 Q160.741 1064.19 158.797 1062.45 Q156.876 1060.72 153.774 1060.72 Q151.575 1060.72 149.121 1061.48 Q146.691 1062.25 143.913 1063.8 L143.913 1059.07 Q146.737 1057.94 149.191 1057.36 Q151.644 1056.78 153.681 1056.78 Q159.052 1056.78 162.246 1059.47 Q165.44 1062.15 165.44 1066.64 Q165.44 1068.77 164.63 1070.69 Q163.843 1072.59 161.737 1075.19 Q161.158 1075.86 158.056 1079.07 Q154.954 1082.27 149.306 1088.03 Z" fill="#000000" fill-rule="nonzero" fill-opacity="1" /><path clip-path="url(#clip000)" d="M175.44 1086.09 L180.325 1086.09 L180.325 1091.97 L175.44 1091.97 L175.44 1086.09 Z" fill="#000000" fill-rule="nonzero" fill-opacity="1" /><path clip-path="url(#clip000)" d="M190.556 1057.41 L208.912 1057.41 L208.912 1061.34 L194.838 1061.34 L194.838 1069.81 Q195.857 1069.47 196.875 1069.31 Q197.894 1069.12 198.912 1069.12 Q204.699 1069.12 208.079 1072.29 Q211.459 1075.46 211.459 1080.88 Q211.459 1086.46 207.987 1089.56 Q204.514 1092.64 198.195 1092.64 Q196.019 1092.64 193.75 1092.27 Q191.505 1091.9 189.098 1091.16 L189.098 1086.46 Q191.181 1087.59 193.403 1088.15 Q195.625 1088.7 198.102 1088.7 Q202.107 1088.7 204.445 1086.6 Q206.783 1084.49 206.783 1080.88 Q206.783 1077.27 204.445 1075.16 Q202.107 1073.06 198.102 1073.06 Q196.227 1073.06 194.352 1073.47 Q192.5 1073.89 190.556 1074.77 L190.556 1057.41 Z" fill="#000000" fill-rule="nonzero" fill-opacity="1" /><path clip-path="url(#clip000)" d="M144.329 747.856 L162.686 747.856 L162.686 751.792 L148.612 751.792 L148.612 760.264 Q149.63 759.917 150.649 759.754 Q151.667 759.569 152.686 759.569 Q158.473 759.569 161.852 762.741 Q165.232 765.912 165.232 771.329 Q165.232 776.907 161.76 780.009 Q158.288 783.088 151.968 783.088 Q149.792 783.088 147.524 782.717 Q145.279 782.347 142.871 781.606 L142.871 776.907 Q144.954 778.041 147.177 778.597 Q149.399 779.153 151.876 779.153 Q155.88 779.153 158.218 777.046 Q160.556 774.94 160.556 771.329 Q160.556 767.717 158.218 765.611 Q155.88 763.504 151.876 763.504 Q150.001 763.504 148.126 763.921 Q146.274 764.338 144.329 765.217 L144.329 747.856 Z" fill="#000000" fill-rule="nonzero" fill-opacity="1" /><path clip-path="url(#clip000)" d="M174.445 776.537 L179.329 776.537 L179.329 782.416 L174.445 782.416 L174.445 776.537 Z" fill="#000000" fill-rule="nonzero" fill-opacity="1" /><path clip-path="url(#clip000)" d="M199.514 750.935 Q195.903 750.935 194.075 754.5 Q192.269 758.042 192.269 765.171 Q192.269 772.278 194.075 775.842 Q195.903 779.384 199.514 779.384 Q203.149 779.384 204.954 775.842 Q206.783 772.278 206.783 765.171 Q206.783 758.042 204.954 754.5 Q203.149 750.935 199.514 750.935 M199.514 747.231 Q205.324 747.231 208.38 751.838 Q211.459 756.421 211.459 765.171 Q211.459 773.898 208.38 778.504 Q205.324 783.088 199.514 783.088 Q193.704 783.088 190.625 778.504 Q187.57 773.898 187.57 765.171 Q187.57 756.421 190.625 751.838 Q193.704 747.231 199.514 747.231 Z" fill="#000000" fill-rule="nonzero" fill-opacity="1" /><path clip-path="url(#clip000)" d="M144.098 438.305 L166.32 438.305 L166.32 440.296 L153.774 472.865 L148.89 472.865 L160.695 442.241 L144.098 442.241 L144.098 438.305 Z" fill="#000000" fill-rule="nonzero" fill-opacity="1" /><path clip-path="url(#clip000)" d="M175.44 466.986 L180.325 466.986 L180.325 472.865 L175.44 472.865 L175.44 466.986 Z" fill="#000000" fill-rule="nonzero" fill-opacity="1" /><path clip-path="url(#clip000)" d="M190.556 438.305 L208.912 438.305 L208.912 442.241 L194.838 442.241 L194.838 450.713 Q195.857 450.366 196.875 450.204 Q197.894 450.018 198.912 450.018 Q204.699 450.018 208.079 453.19 Q211.459 456.361 211.459 461.778 Q211.459 467.356 207.987 470.458 Q204.514 473.537 198.195 473.537 Q196.019 473.537 193.75 473.166 Q191.505 472.796 189.098 472.055 L189.098 467.356 Q191.181 468.49 193.403 469.046 Q195.625 469.602 198.102 469.602 Q202.107 469.602 204.445 467.495 Q206.783 465.389 206.783 461.778 Q206.783 458.166 204.445 456.06 Q202.107 453.954 198.102 453.954 Q196.227 453.954 194.352 454.37 Q192.5 454.787 190.556 455.666 L190.556 438.305 Z" fill="#000000" fill-rule="nonzero" fill-opacity="1" /><path clip-path="url(#clip000)" d="M114.931 159.379 L122.57 159.379 L122.57 133.014 L114.26 134.68 L114.26 130.421 L122.524 128.755 L127.2 128.755 L127.2 159.379 L134.839 159.379 L134.839 163.315 L114.931 163.315 L114.931 159.379 Z" fill="#000000" fill-rule="nonzero" fill-opacity="1" /><path clip-path="url(#clip000)" d="M154.283 131.833 Q150.672 131.833 148.843 135.398 Q147.038 138.94 147.038 146.069 Q147.038 153.176 148.843 156.741 Q150.672 160.282 154.283 160.282 Q157.917 160.282 159.723 156.741 Q161.552 153.176 161.552 146.069 Q161.552 138.94 159.723 135.398 Q157.917 131.833 154.283 131.833 M154.283 128.13 Q160.093 128.13 163.149 132.736 Q166.227 137.319 166.227 146.069 Q166.227 154.796 163.149 159.403 Q160.093 163.986 154.283 163.986 Q148.473 163.986 145.394 159.403 Q142.339 154.796 142.339 146.069 Q142.339 137.319 145.394 132.736 Q148.473 128.13 154.283 128.13 Z" fill="#000000" fill-rule="nonzero" fill-opacity="1" /><path clip-path="url(#clip000)" d="M174.445 157.435 L179.329 157.435 L179.329 163.315 L174.445 163.315 L174.445 157.435 Z" fill="#000000" fill-rule="nonzero" fill-opacity="1" /><path clip-path="url(#clip000)" d="M199.514 131.833 Q195.903 131.833 194.075 135.398 Q192.269 138.94 192.269 146.069 Q192.269 153.176 194.075 156.741 Q195.903 160.282 199.514 160.282 Q203.149 160.282 204.954 156.741 Q206.783 153.176 206.783 146.069 Q206.783 138.94 204.954 135.398 Q203.149 131.833 199.514 131.833 M199.514 128.13 Q205.324 128.13 208.38 132.736 Q211.459 137.319 211.459 146.069 Q211.459 154.796 208.38 159.403 Q205.324 163.986 199.514 163.986 Q193.704 163.986 190.625 159.403 Q187.57 154.796 187.57 146.069 Q187.57 137.319 190.625 132.736 Q193.704 128.13 199.514 128.13 Z" fill="#000000" fill-rule="nonzero" fill-opacity="1" /><path clip-path="url(#clip000)" d="M30.8561 720.775 Q31.307 720.775 32.3698 721.064 L57.5548 727.377 Q63.1586 728.762 67.0877 733.27 Q71.0168 737.747 71.0168 742.836 Q71.0168 745.895 69.3743 747.86 Q67.764 749.824 65.2842 749.824 Q63.0942 749.824 62.0314 748.665 Q61.0008 747.505 61.0008 746.121 Q61.0008 745.67 61.1296 745.187 Q61.2584 744.703 61.8059 744.188 Q62.3534 743.673 63.2874 743.673 Q64.8011 743.673 65.9927 744.993 Q66.5402 745.637 66.669 746.249 Q66.7978 746.829 66.7978 747.827 Q67.6996 747.441 68.3115 746.732 Q68.9234 746.024 69.1489 745.219 Q69.4065 744.414 69.4709 743.898 Q69.5675 743.351 69.5675 742.836 Q69.5675 738.713 65.413 735.557 Q64.157 734.623 62.9009 733.947 Q61.6771 733.238 60.1634 732.723 Q58.682 732.208 57.8768 731.982 Q57.0717 731.725 55.2359 731.274 Q58.2311 734.269 58.2311 737.94 Q58.2311 739.486 57.8124 740.871 Q57.3937 742.224 56.5242 743.415 Q55.6224 744.607 54.0443 745.315 Q52.4662 745.992 50.3728 745.992 Q48.1506 745.992 45.1233 745.122 Q42.0959 744.253 36.5243 742.159 Q33.4004 741.032 31.8867 741.032 Q31.146 741.032 30.6951 741.193 Q30.212 741.354 30.051 741.676 Q29.8577 741.998 29.8255 742.191 Q29.7933 742.352 29.7933 742.675 Q29.7933 744.575 31.7257 746.346 Q33.658 748.117 37.9736 749.341 Q38.7787 749.599 38.972 749.76 Q39.1652 749.921 39.1652 750.404 Q39.133 751.209 38.4889 751.209 Q38.2312 751.209 37.2329 750.919 Q36.2023 750.629 34.6886 749.953 Q33.1427 749.245 31.7579 748.278 Q30.3408 747.312 29.3424 745.798 Q28.344 744.253 28.344 742.481 Q28.344 740.066 29.9221 738.584 Q31.468 737.071 33.7546 737.071 Q34.6886 737.071 35.5259 737.328 Q36.3311 737.554 38.4889 738.391 Q47.1845 741.773 51.4356 741.773 Q52.4662 741.773 53.3358 741.612 Q54.1731 741.418 55.0105 741 Q55.8156 740.581 56.2987 739.744 Q56.7496 738.874 56.7496 737.683 Q56.7496 736.169 56.0411 734.752 Q55.3003 733.303 54.302 732.401 Q53.3036 731.467 52.4662 730.919 Q51.5967 730.34 51.1458 730.211 L39.294 727.248 L34.0123 725.927 Q31.146 725.316 30.4374 725.026 Q29.7611 724.639 29.4068 723.963 Q29.0526 723.287 29.0526 722.707 Q29.0526 721.902 29.5357 721.354 Q30.0187 720.775 30.8561 720.775 Z" fill="#000000" fill-rule="nonzero" fill-opacity="1" /><polyline clip-path="url(#clip002)" style="stroke:#009af9; stroke-linecap:round; stroke-linejoin:round; stroke-width:4; stroke-opacity:1; fill:none" points="307.043,1384.24 310.922,1384.24 314.801,1384.24 318.68,1384.24 322.559,1384.24 326.438,1384.24 330.318,1067.65 334.197,1215.61 338.076,801.747 341.955,1384.24 345.834,1330.52 349.713,1177.62 353.593,1384.24 357.472,1384.24 361.351,1384.24 365.23,1291.26 369.109,1375.8 372.988,1324.04 376.867,1384.24 380.747,1361.86 384.626,1384.24 388.505,1375.91 392.384,1384.24 396.263,1384.24 400.142,1384.24 404.022,1384.24 407.901,1331.62 411.78,1347.44 415.659,1277.54 419.538,1370.75 423.417,986.159 427.297,1100.5 431.176,1299.23 435.055,1384.24 438.934,1324.64 442.813,1328.28 446.692,1329.31 450.571,1160.4 454.451,1277.57 458.33,1303.3 462.209,1384.24 466.088,1307.83 469.967,1137.89 473.846,1160.76 477.726,1384.24 481.605,1384.24 485.484,1134.96 489.363,1384.24 493.242,1384.24 497.121,1384.24 501.001,1349.15 504.88,1212.34 508.759,1355.67 512.638,1384.24 516.517,1384.24 520.396,1203.26 524.275,1384.24 528.155,1384.24 532.034,1384.24 535.913,967.134 539.792,1261.85 543.671,1384.24 547.55,1338.19 551.43,1384.24 555.309,1164.56 559.188,1370.72 563.067,1384.24 566.946,1244.64 570.825,1384.24 574.705,1384.24 578.584,1183.05 582.463,1270.48 586.342,1101.1 590.221,1174.23 594.1,1370.93 597.98,1223.66 601.859,1384.24 605.738,1344.73 609.617,1384.24 613.496,1244.31 617.375,1088.16 621.254,1384.24 625.134,1384.24 629.013,1384.24 632.892,1384.24 636.771,1384.24 640.65,1384.24 644.529,1317.62 648.409,1296.86 652.288,1181 656.167,1329.09 660.046,1154.72 663.925,1037.51 667.804,1384.24 671.684,1384.24 675.563,1384.24 679.442,1334.61 683.321,1384.24 687.2,1275.56 691.079,1352.73 694.958,1384.24 698.838,1311.9 702.717,1338.62 706.596,1230 710.475,1358.81 714.354,1384.24 718.233,1384.24 722.113,1384.24 725.992,1120.94 729.871,1076 733.75,1332.02 737.629,1271.88 741.508,1286.31 745.388,1384.24 749.267,1384.24 753.146,1384.24 757.025,1384.24 760.904,1384.24 764.783,1384.24 768.663,1384.24 772.542,1384.24 776.421,1014.69 780.3,1348.74 784.179,1384.24 788.058,1384.24 791.937,1384.24 795.817,1384.24 799.696,1384.24 803.575,1342.83 807.454,1355.11 811.333,1363.35 815.212,1247.13 819.092,1384.24 822.971,1269.45 826.85,1384.24 830.729,1384.24 834.608,1384.24 838.487,1384.24 842.367,1384.24 846.246,1384.24 850.125,1377.38 854.004,1384.24 857.883,1384.24 861.762,1286.86 865.641,1384.24 869.521,1384.24 873.4,1384.24 877.279,1384.24 881.158,1384.24 885.037,1384.24 888.916,1384.24 892.796,935.809 896.675,952.019 900.554,992.541 904.433,899.06 908.312,1384.24 912.191,1384.24 916.071,950.477 919.95,1269.91 923.829,1297.26 927.708,1384.24 931.587,1384.24 935.466,1384.24 939.346,1384.24 943.225,1384.24 947.104,1384.24 950.983,1366.51 954.862,1230.06 958.741,1220.02 962.62,1384.24 966.5,1384.24 970.379,1384.24 974.258,1384.24 978.137,1384.24 982.016,1384.24 985.895,1224.1 989.775,1384.24 993.654,1384.24 997.533,1384.24 1001.41,1384.24 1005.29,1384.24 1009.17,1384.24 1013.05,1384.24 1016.93,1384.24 1020.81,1384.24 1024.69,1384.24 1028.57,1276.67 1032.45,1384.24 1036.32,1358.99 1040.2,1384.24 1044.08,1384.24 1047.96,1384.24 1051.84,1384.24 1055.72,1336.55 1059.6,1384.24 1063.48,1284.13 1067.36,1384.24 1071.24,1353.42 1075.12,1320.06 1079,1158.14 1082.87,1003.06 1086.75,1325.33 1090.63,1384.24 1094.51,1384.24 1098.39,1384.24 1102.27,1384.24 1106.15,1384.24 1110.03,1263.69 1113.91,1384.24 1117.79,1384.24 1121.67,1384.24 1125.55,1249.88 1129.42,1384.24 1133.3,1352.95 1137.18,1213.01 1141.06,1229.18 1144.94,1069.61 1148.82,1320.27 1152.7,1048.06 1156.58,1166.47 1160.46,1208.62 1164.34,1287.84 1168.22,1108.08 1172.1,1384.24 1175.97,1384.24 1179.85,1384.24 1183.73,1384.24 1187.61,1218.76 1191.49,1384.24 1195.37,1384.24 1199.25,1384.24 1203.13,1384.24 1207.01,1384.24 1210.89,1378.16 1214.77,1384.24 1218.64,1384.24 1222.52,1384.24 1226.4,1364.98 1230.28,1342.05 1234.16,1384.24 1238.04,1253.49 1241.92,1384.24 1245.8,1384.24 1249.68,1371.8 1253.56,1384.24 1257.44,1384.24 1261.32,1384.24 1265.19,1384.24 1269.07,1116.62 1272.95,1384.24 1276.83,1384.24 1280.71,1384.24 1284.59,1384.24 1288.47,1384.24 1292.35,1384.24 1296.23,1384.24 1300.11,1384.24 1303.99,1255.17 1307.87,1384.24 1311.74,1278.81 1315.62,1384.24 1319.5,1384.24 1323.38,1384.24 1327.26,1384.24 1331.14,1228.55 1335.02,1128.07 1338.9,1282.39 1342.78,1316.97 1346.66,1321.85 1350.54,1198.87 1354.42,1359.25 1358.29,1233.68 1362.17,1324.93 1366.05,1384.24 1369.93,1384.24 1373.81,1359.89 1377.69,1311.05 1381.57,1316.52 1385.45,1265.85 1389.33,1384.24 1393.21,1384.24 1397.09,1375.06 1400.97,1368.46 1404.84,1263.7 1408.72,1384.24 1412.6,1384.24 1416.48,1384.24 1420.36,1384.24 1424.24,1384.24 1428.12,1384.24 1432,1384.24 1435.88,1384.24 1439.76,1384.24 1443.64,1192.2 1447.52,1279.33 1451.39,1289.01 1455.27,1252.74 1459.15,1181.07 1463.03,1159.68 1466.91,1265.19 1470.79,1041.22 1474.67,1142.19 1478.55,1384.24 1482.43,1263.73 1486.31,1281.5 1490.19,915.321 1494.07,1332.74 1497.94,1384.24 1501.82,1384.24 1505.7,1384.24 1509.58,1384.24 1513.46,1384.24 1517.34,1384.24 1521.22,1220.74 1525.1,1384.24 1528.98,1257.06 1532.86,1183.78 1536.74,1215.11 1540.62,1365.62 1544.49,1215.58 1548.37,1242.73 1552.25,1384.24 1556.13,1353.75 1560.01,1384.24 1563.89,1384.24 1567.77,1336.13 1571.65,1246.2 1575.53,1384.24 1579.41,1364.44 1583.29,1337.14 1587.17,1248.6 1591.04,1253.59 1594.92,1384.24 1598.8,1384.24 1602.68,1338.59 1606.56,1384.24 1610.44,1384.24 1614.32,1275.42 1618.2,1341.88 1622.08,1294.97 1625.96,1116.6 1629.84,1166.64 1633.71,1207.45 1637.59,1228 1641.47,1302.9 1645.35,1384.24 1649.23,1223.12 1653.11,1305.48 1656.99,1384.24 1660.87,1384.24 1664.75,1384.24 1668.63,1384.24 1672.51,1384.24 1676.39,1384.24 1680.26,1384.24 1684.14,1384.24 1688.02,1365.2 1691.9,1384.24 1695.78,1384.24 1699.66,1384.24 1703.54,1352.21 1707.42,1384.24 1711.3,1384.24 1715.18,1384.24 1719.06,1384.24 1722.94,1384.24 1726.81,1351.54 1730.69,1384.24 1734.57,1314.62 1738.45,1366.24 1742.33,1384.24 1746.21,1384.24 1750.09,1319.24 1753.97,1210.19 1757.85,1246.47 1761.73,1377.91 1765.61,1286.62 1769.49,1205.83 1773.36,1283.1 1777.24,1384.24 1781.12,1226.64 1785,1280.22 1788.88,1384.24 1792.76,1384.24 1796.64,1384.24 1800.52,1384.24 1804.4,1384.24 1808.28,1328.92 1812.16,1243.01 1816.04,1349.38 1819.91,1170.74 1823.79,1237.75 1827.67,1384.24 1831.55,1384.24 1835.43,1337.2 1839.31,1366.34 1843.19,1198.61 1847.07,1220.52 1850.95,1073.46 1854.83,1364.55 1858.71,1384.24 1862.59,1384.24 1866.46,1384.24 1870.34,1384.24 1874.22,1384.24 1878.1,1384.24 1881.98,1384.24 1885.86,1256.85 1889.74,1384.24 1893.62,1384.24 1897.5,1384.24 1901.38,1384.24 1905.26,1384.24 1909.14,1384.24 1913.01,1384.24 1916.89,1384.24 1920.77,1266.82 1924.65,1054.36 1928.53,828.948 1932.41,884.945 1936.29,1126.02 1940.17,558.979 1944.05,1384.24 1947.93,1384.24 1951.81,1384.24 1955.69,1384.24 1959.56,1250.19 1963.44,1384.24 1967.32,848.575 1971.2,412.2 1975.08,86.1857 1978.96,1285.88 1982.84,945.078 1986.72,1384.24 1990.6,1274.79 1994.48,1110.32 1998.36,1384.24 2002.24,802.503 2006.11,1384.24 2009.99,1384.24 2013.87,871.582 2017.75,1384.24 2021.63,1384.24 2025.51,1384.24 2029.39,1384.24 2033.27,1384.24 2037.15,1384.24 2041.03,1314.49 2044.91,1384.24 2048.79,1384.24 2052.66,1384.24 2056.54,1384.24 2060.42,1295.03 2064.3,1384.24 2068.18,974.04 2072.06,980.567 2075.94,962.984 2079.82,738.023 2083.7,1268.38 2087.58,770.861 2091.46,1384.24 2095.33,1384.24 2099.21,1384.24 2103.09,1233.87 2106.97,1384.24 2110.85,1384.24 2114.73,1384.24 2118.61,1384.24 2122.49,1135.77 2126.37,1366.23 2130.25,1360.13 2134.13,730.77 2138.01,1287.58 2141.88,1216.7 2145.76,1147.69 2149.64,519.433 2153.52,1220.51 2157.4,830.292 2161.28,937.05 2165.16,1070.22 2169.04,1384.24 2172.92,1384.24 2176.8,1384.24 2180.68,1384.24 2184.56,1384.24 2188.43,1384.24 2192.31,1384.24 2196.19,1384.24 2200.07,1384.24 2203.95,1384.24 2207.83,1384.24 2211.71,1384.24 2215.59,1384.24 2219.47,1289.75 2223.35,1384.24 2227.23,1384.24 2231.11,1384.24 2234.98,1273.46 2238.86,1199.08 2242.74,836.924 2246.62,1238.45 2250.5,1384.24 2254.38,1384.24 2258.26,1384.24 2262.14,1384.24 2266.02,1355.85 2269.9,1384.24 2273.78,1271.44 2277.66,1177.57 2281.53,1160.08 2285.41,1163.8 2289.29,1384.24 2293.17,1384.24 "/>
<path clip-path="url(#clip000)" d="M317.635 196.789 L647.424 196.789 L647.424 93.1086 L317.635 93.1086  Z" fill="#ffffff" fill-rule="evenodd" fill-opacity="1"/>
<polyline clip-path="url(#clip000)" style="stroke:#000000; stroke-linecap:round; stroke-linejoin:round; stroke-width:4; stroke-opacity:1; fill:none" points="317.635,196.789 647.424,196.789 647.424,93.1086 317.635,93.1086 317.635,196.789 "/>
<polyline clip-path="url(#clip000)" style="stroke:#009af9; stroke-linecap:round; stroke-linejoin:round; stroke-width:4; stroke-opacity:1; fill:none" points="341.027,144.949 481.381,144.949 "/>
<path clip-path="url(#clip000)" d="M526.486 146.581 L526.486 162.229 L522.226 162.229 L522.226 146.719 Q522.226 143.039 520.791 141.21 Q519.356 139.382 516.486 139.382 Q513.037 139.382 511.046 141.581 Q509.055 143.78 509.055 147.576 L509.055 162.229 L504.773 162.229 L504.773 136.303 L509.055 136.303 L509.055 140.331 Q510.583 137.993 512.643 136.835 Q514.726 135.678 517.435 135.678 Q521.902 135.678 524.194 138.456 Q526.486 141.21 526.486 146.581 Z" fill="#000000" fill-rule="nonzero" fill-opacity="1" /><path clip-path="url(#clip000)" d="M545.027 139.289 Q541.601 139.289 539.611 141.974 Q537.62 144.636 537.62 149.289 Q537.62 153.942 539.587 156.627 Q541.578 159.289 545.027 159.289 Q548.43 159.289 550.421 156.604 Q552.411 153.918 552.411 149.289 Q552.411 144.682 550.421 141.997 Q548.43 139.289 545.027 139.289 M545.027 135.678 Q550.583 135.678 553.754 139.289 Q556.925 142.9 556.925 149.289 Q556.925 155.655 553.754 159.289 Q550.583 162.9 545.027 162.9 Q539.449 162.9 536.277 159.289 Q533.129 155.655 533.129 149.289 Q533.129 142.9 536.277 139.289 Q539.449 135.678 545.027 135.678 Z" fill="#000000" fill-rule="nonzero" fill-opacity="1" /><path clip-path="url(#clip000)" d="M563.985 136.303 L568.245 136.303 L568.245 162.229 L563.985 162.229 L563.985 136.303 M563.985 126.21 L568.245 126.21 L568.245 131.604 L563.985 131.604 L563.985 126.21 Z" fill="#000000" fill-rule="nonzero" fill-opacity="1" /><path clip-path="url(#clip000)" d="M593.684 137.067 L593.684 141.094 Q591.879 140.169 589.934 139.706 Q587.99 139.243 585.907 139.243 Q582.735 139.243 581.138 140.215 Q579.564 141.187 579.564 143.131 Q579.564 144.613 580.698 145.469 Q581.833 146.303 585.258 147.067 L586.717 147.391 Q591.254 148.363 593.152 150.145 Q595.073 151.905 595.073 155.076 Q595.073 158.687 592.203 160.793 Q589.356 162.9 584.356 162.9 Q582.272 162.9 580.004 162.483 Q577.759 162.09 575.259 161.28 L575.259 156.881 Q577.62 158.108 579.911 158.733 Q582.203 159.335 584.448 159.335 Q587.458 159.335 589.078 158.317 Q590.698 157.275 590.698 155.4 Q590.698 153.664 589.518 152.738 Q588.36 151.812 584.402 150.956 L582.921 150.608 Q578.962 149.775 577.203 148.062 Q575.444 146.326 575.444 143.317 Q575.444 139.659 578.036 137.669 Q580.629 135.678 585.397 135.678 Q587.758 135.678 589.842 136.025 Q591.925 136.372 593.684 137.067 Z" fill="#000000" fill-rule="nonzero" fill-opacity="1" /><path clip-path="url(#clip000)" d="M624.031 148.201 L624.031 150.284 L604.448 150.284 Q604.726 154.682 607.087 156.997 Q609.471 159.289 613.707 159.289 Q616.161 159.289 618.453 158.687 Q620.768 158.085 623.036 156.881 L623.036 160.909 Q620.744 161.881 618.337 162.391 Q615.93 162.9 613.453 162.9 Q607.249 162.9 603.615 159.289 Q600.004 155.678 600.004 149.52 Q600.004 143.155 603.43 139.428 Q606.879 135.678 612.712 135.678 Q617.944 135.678 620.976 139.057 Q624.031 142.414 624.031 148.201 M619.772 146.951 Q619.726 143.456 617.805 141.372 Q615.906 139.289 612.758 139.289 Q609.194 139.289 607.041 141.303 Q604.911 143.317 604.587 146.974 L619.772 146.951 Z" fill="#000000" fill-rule="nonzero" fill-opacity="1" /></svg>
