<?xml version="1.0" encoding="utf-8"?>
<svg xmlns="http://www.w3.org/2000/svg" xmlns:xlink="http://www.w3.org/1999/xlink" width="600" height="400" viewBox="0 0 2400 1600">
<defs>
  <clipPath id="clip880">
    <rect x="0" y="0" width="2400" height="1600"/>
  </clipPath>
</defs>
<path clip-path="url(#clip880)" d="M0 1600 L2400 1600 L2400 0 L0 0  Z" fill="#ffffff" fill-rule="evenodd" fill-opacity="1"/>
<defs>
  <clipPath id="clip881">
    <rect x="480" y="0" width="1681" height="1600"/>
  </clipPath>
</defs>
<path clip-path="url(#clip880)" d="M156.112 1486.45 L2352.76 1486.45 L2352.76 47.2441 L156.112 47.2441  Z" fill="#ffffff" fill-rule="evenodd" fill-opacity="1"/>
<defs>
  <clipPath id="clip882">
    <rect x="156" y="47" width="2198" height="1440"/>
  </clipPath>
</defs>
<polyline clip-path="url(#clip882)" style="stroke:#000000; stroke-linecap:round; stroke-linejoin:round; stroke-width:2; stroke-opacity:0.1; fill:none" points="218.281,1486.45 218.281,47.2441 "/>
<polyline clip-path="url(#clip882)" style="stroke:#000000; stroke-linecap:round; stroke-linejoin:round; stroke-width:2; stroke-opacity:0.1; fill:none" points="736.358,1486.45 736.358,47.2441 "/>
<polyline clip-path="url(#clip882)" style="stroke:#000000; stroke-linecap:round; stroke-linejoin:round; stroke-width:2; stroke-opacity:0.1; fill:none" points="1254.43,1486.45 1254.43,47.2441 "/>
<polyline clip-path="url(#clip882)" style="stroke:#000000; stroke-linecap:round; stroke-linejoin:round; stroke-width:2; stroke-opacity:0.1; fill:none" points="1772.51,1486.45 1772.51,47.2441 "/>
<polyline clip-path="url(#clip882)" style="stroke:#000000; stroke-linecap:round; stroke-linejoin:round; stroke-width:2; stroke-opacity:0.1; fill:none" points="2290.59,1486.45 2290.59,47.2441 "/>
<polyline clip-path="url(#clip882)" style="stroke:#000000; stroke-linecap:round; stroke-linejoin:round; stroke-width:2; stroke-opacity:0.1; fill:none" points="156.112,1355.71 2352.76,1355.71 "/>
<polyline clip-path="url(#clip882)" style="stroke:#000000; stroke-linecap:round; stroke-linejoin:round; stroke-width:2; stroke-opacity:0.1; fill:none" points="156.112,1102.29 2352.76,1102.29 "/>
<polyline clip-path="url(#clip882)" style="stroke:#000000; stroke-linecap:round; stroke-linejoin:round; stroke-width:2; stroke-opacity:0.1; fill:none" points="156.112,848.876 2352.76,848.876 "/>
<polyline clip-path="url(#clip882)" style="stroke:#000000; stroke-linecap:round; stroke-linejoin:round; stroke-width:2; stroke-opacity:0.1; fill:none" points="156.112,595.462 2352.76,595.462 "/>
<polyline clip-path="url(#clip882)" style="stroke:#000000; stroke-linecap:round; stroke-linejoin:round; stroke-width:2; stroke-opacity:0.1; fill:none" points="156.112,342.047 2352.76,342.047 "/>
<polyline clip-path="url(#clip882)" style="stroke:#000000; stroke-linecap:round; stroke-linejoin:round; stroke-width:2; stroke-opacity:0.1; fill:none" points="156.112,88.6324 2352.76,88.6324 "/>
<polyline clip-path="url(#clip880)" style="stroke:#000000; stroke-linecap:round; stroke-linejoin:round; stroke-width:4; stroke-opacity:1; fill:none" points="156.112,1486.45 2352.76,1486.45 "/>
<polyline clip-path="url(#clip880)" style="stroke:#000000; stroke-linecap:round; stroke-linejoin:round; stroke-width:4; stroke-opacity:1; fill:none" points="218.281,1486.45 218.281,1467.55 "/>
<polyline clip-path="url(#clip880)" style="stroke:#000000; stroke-linecap:round; stroke-linejoin:round; stroke-width:4; stroke-opacity:1; fill:none" points="736.358,1486.45 736.358,1467.55 "/>
<polyline clip-path="url(#clip880)" style="stroke:#000000; stroke-linecap:round; stroke-linejoin:round; stroke-width:4; stroke-opacity:1; fill:none" points="1254.43,1486.45 1254.43,1467.55 "/>
<polyline clip-path="url(#clip880)" style="stroke:#000000; stroke-linecap:round; stroke-linejoin:round; stroke-width:4; stroke-opacity:1; fill:none" points="1772.51,1486.45 1772.51,1467.55 "/>
<polyline clip-path="url(#clip880)" style="stroke:#000000; stroke-linecap:round; stroke-linejoin:round; stroke-width:4; stroke-opacity:1; fill:none" points="2290.59,1486.45 2290.59,1467.55 "/>
<path clip-path="url(#clip880)" d="M180.585 1517.37 Q176.974 1517.37 175.145 1520.93 Q173.339 1524.47 173.339 1531.6 Q173.339 1538.71 175.145 1542.27 Q176.974 1545.82 180.585 1545.82 Q184.219 1545.82 186.025 1542.27 Q187.853 1538.71 187.853 1531.6 Q187.853 1524.47 186.025 1520.93 Q184.219 1517.37 180.585 1517.37 M180.585 1513.66 Q186.395 1513.66 189.45 1518.27 Q192.529 1522.85 192.529 1531.6 Q192.529 1540.33 189.45 1544.94 Q186.395 1549.52 180.585 1549.52 Q174.775 1549.52 171.696 1544.94 Q168.64 1540.33 168.64 1531.6 Q168.64 1522.85 171.696 1518.27 Q174.775 1513.66 180.585 1513.66 Z" fill="#000000" fill-rule="nonzero" fill-opacity="1" /><path clip-path="url(#clip880)" d="M200.747 1542.97 L205.631 1542.97 L205.631 1548.85 L200.747 1548.85 L200.747 1542.97 Z" fill="#000000" fill-rule="nonzero" fill-opacity="1" /><path clip-path="url(#clip880)" d="M225.816 1517.37 Q222.205 1517.37 220.376 1520.93 Q218.571 1524.47 218.571 1531.6 Q218.571 1538.71 220.376 1542.27 Q222.205 1545.82 225.816 1545.82 Q229.45 1545.82 231.256 1542.27 Q233.084 1538.71 233.084 1531.6 Q233.084 1524.47 231.256 1520.93 Q229.45 1517.37 225.816 1517.37 M225.816 1513.66 Q231.626 1513.66 234.682 1518.27 Q237.76 1522.85 237.76 1531.6 Q237.76 1540.33 234.682 1544.94 Q231.626 1549.52 225.816 1549.52 Q220.006 1549.52 216.927 1544.94 Q213.872 1540.33 213.872 1531.6 Q213.872 1522.85 216.927 1518.27 Q220.006 1513.66 225.816 1513.66 Z" fill="#000000" fill-rule="nonzero" fill-opacity="1" /><path clip-path="url(#clip880)" d="M255.978 1517.37 Q252.367 1517.37 250.538 1520.93 Q248.733 1524.47 248.733 1531.6 Q248.733 1538.71 250.538 1542.27 Q252.367 1545.82 255.978 1545.82 Q259.612 1545.82 261.418 1542.27 Q263.246 1538.71 263.246 1531.6 Q263.246 1524.47 261.418 1520.93 Q259.612 1517.37 255.978 1517.37 M255.978 1513.66 Q261.788 1513.66 264.844 1518.27 Q267.922 1522.85 267.922 1531.6 Q267.922 1540.33 264.844 1544.94 Q261.788 1549.52 255.978 1549.52 Q250.168 1549.52 247.089 1544.94 Q244.033 1540.33 244.033 1531.6 Q244.033 1522.85 247.089 1518.27 Q250.168 1513.66 255.978 1513.66 Z" fill="#000000" fill-rule="nonzero" fill-opacity="1" /><path clip-path="url(#clip880)" d="M699.159 1517.37 Q695.548 1517.37 693.719 1520.93 Q691.913 1524.47 691.913 1531.6 Q691.913 1538.71 693.719 1542.27 Q695.548 1545.82 699.159 1545.82 Q702.793 1545.82 704.599 1542.27 Q706.427 1538.71 706.427 1531.6 Q706.427 1524.47 704.599 1520.93 Q702.793 1517.37 699.159 1517.37 M699.159 1513.66 Q704.969 1513.66 708.024 1518.27 Q711.103 1522.85 711.103 1531.6 Q711.103 1540.33 708.024 1544.94 Q704.969 1549.52 699.159 1549.52 Q693.349 1549.52 690.27 1544.94 Q687.214 1540.33 687.214 1531.6 Q687.214 1522.85 690.27 1518.27 Q693.349 1513.66 699.159 1513.66 Z" fill="#000000" fill-rule="nonzero" fill-opacity="1" /><path clip-path="url(#clip880)" d="M719.321 1542.97 L724.205 1542.97 L724.205 1548.85 L719.321 1548.85 L719.321 1542.97 Z" fill="#000000" fill-rule="nonzero" fill-opacity="1" /><path clip-path="url(#clip880)" d="M738.418 1544.91 L754.737 1544.91 L754.737 1548.85 L732.793 1548.85 L732.793 1544.91 Q735.455 1542.16 740.038 1537.53 Q744.645 1532.88 745.825 1531.53 Q748.071 1529.01 748.95 1527.27 Q749.853 1525.51 749.853 1523.82 Q749.853 1521.07 747.909 1519.33 Q745.987 1517.6 742.885 1517.6 Q740.686 1517.6 738.233 1518.36 Q735.802 1519.13 733.024 1520.68 L733.024 1515.95 Q735.848 1514.82 738.302 1514.24 Q740.756 1513.66 742.793 1513.66 Q748.163 1513.66 751.358 1516.35 Q754.552 1519.03 754.552 1523.52 Q754.552 1525.65 753.742 1527.57 Q752.955 1529.47 750.848 1532.07 Q750.27 1532.74 747.168 1535.95 Q744.066 1539.15 738.418 1544.91 Z" fill="#000000" fill-rule="nonzero" fill-opacity="1" /><path clip-path="url(#clip880)" d="M764.598 1514.29 L782.955 1514.29 L782.955 1518.22 L768.881 1518.22 L768.881 1526.7 Q769.899 1526.35 770.918 1526.19 Q771.936 1526 772.955 1526 Q778.742 1526 782.121 1529.17 Q785.501 1532.34 785.501 1537.76 Q785.501 1543.34 782.029 1546.44 Q778.557 1549.52 772.237 1549.52 Q770.061 1549.52 767.793 1549.15 Q765.547 1548.78 763.14 1548.04 L763.14 1543.34 Q765.223 1544.47 767.445 1545.03 Q769.668 1545.58 772.144 1545.58 Q776.149 1545.58 778.487 1543.48 Q780.825 1541.37 780.825 1537.76 Q780.825 1534.15 778.487 1532.04 Q776.149 1529.94 772.144 1529.94 Q770.27 1529.94 768.395 1530.35 Q766.543 1530.77 764.598 1531.65 L764.598 1514.29 Z" fill="#000000" fill-rule="nonzero" fill-opacity="1" /><path clip-path="url(#clip880)" d="M1216.74 1517.37 Q1213.13 1517.37 1211.3 1520.93 Q1209.49 1524.47 1209.49 1531.6 Q1209.49 1538.71 1211.3 1542.27 Q1213.13 1545.82 1216.74 1545.82 Q1220.37 1545.82 1222.18 1542.27 Q1224.01 1538.71 1224.01 1531.6 Q1224.01 1524.47 1222.18 1520.93 Q1220.37 1517.37 1216.74 1517.37 M1216.74 1513.66 Q1222.55 1513.66 1225.6 1518.27 Q1228.68 1522.85 1228.68 1531.6 Q1228.68 1540.33 1225.6 1544.94 Q1222.55 1549.52 1216.74 1549.52 Q1210.93 1549.52 1207.85 1544.94 Q1204.79 1540.33 1204.79 1531.6 Q1204.79 1522.85 1207.85 1518.27 Q1210.93 1513.66 1216.74 1513.66 Z" fill="#000000" fill-rule="nonzero" fill-opacity="1" /><path clip-path="url(#clip880)" d="M1236.9 1542.97 L1241.78 1542.97 L1241.78 1548.85 L1236.9 1548.85 L1236.9 1542.97 Z" fill="#000000" fill-rule="nonzero" fill-opacity="1" /><path clip-path="url(#clip880)" d="M1252.02 1514.29 L1270.37 1514.29 L1270.37 1518.22 L1256.3 1518.22 L1256.3 1526.7 Q1257.32 1526.35 1258.33 1526.19 Q1259.35 1526 1260.37 1526 Q1266.16 1526 1269.54 1529.17 Q1272.92 1532.34 1272.92 1537.76 Q1272.92 1543.34 1269.45 1546.44 Q1265.97 1549.52 1259.65 1549.52 Q1257.48 1549.52 1255.21 1549.15 Q1252.96 1548.78 1250.56 1548.04 L1250.56 1543.34 Q1252.64 1544.47 1254.86 1545.03 Q1257.08 1545.58 1259.56 1545.58 Q1263.57 1545.58 1265.9 1543.48 Q1268.24 1541.37 1268.24 1537.76 Q1268.24 1534.15 1265.9 1532.04 Q1263.57 1529.94 1259.56 1529.94 Q1257.69 1529.94 1255.81 1530.35 Q1253.96 1530.77 1252.02 1531.65 L1252.02 1514.29 Z" fill="#000000" fill-rule="nonzero" fill-opacity="1" /><path clip-path="url(#clip880)" d="M1292.13 1517.37 Q1288.52 1517.37 1286.69 1520.93 Q1284.89 1524.47 1284.89 1531.6 Q1284.89 1538.71 1286.69 1542.27 Q1288.52 1545.82 1292.13 1545.82 Q1295.76 1545.82 1297.57 1542.27 Q1299.4 1538.71 1299.4 1531.6 Q1299.4 1524.47 1297.57 1520.93 Q1295.76 1517.37 1292.13 1517.37 M1292.13 1513.66 Q1297.94 1513.66 1301 1518.27 Q1304.07 1522.85 1304.07 1531.6 Q1304.07 1540.33 1301 1544.94 Q1297.94 1549.52 1292.13 1549.52 Q1286.32 1549.52 1283.24 1544.94 Q1280.19 1540.33 1280.19 1531.6 Q1280.19 1522.85 1283.24 1518.27 Q1286.32 1513.66 1292.13 1513.66 Z" fill="#000000" fill-rule="nonzero" fill-opacity="1" /><path clip-path="url(#clip880)" d="M1735.31 1517.37 Q1731.7 1517.37 1729.87 1520.93 Q1728.07 1524.47 1728.07 1531.6 Q1728.07 1538.71 1729.87 1542.27 Q1731.7 1545.82 1735.31 1545.82 Q1738.95 1545.82 1740.75 1542.27 Q1742.58 1538.71 1742.58 1531.6 Q1742.58 1524.47 1740.75 1520.93 Q1738.95 1517.37 1735.31 1517.37 M1735.31 1513.66 Q1741.12 1513.66 1744.18 1518.27 Q1747.26 1522.85 1747.26 1531.6 Q1747.26 1540.33 1744.18 1544.94 Q1741.12 1549.52 1735.31 1549.52 Q1729.5 1549.52 1726.42 1544.94 Q1723.37 1540.33 1723.37 1531.6 Q1723.37 1522.85 1726.42 1518.27 Q1729.5 1513.66 1735.31 1513.66 Z" fill="#000000" fill-rule="nonzero" fill-opacity="1" /><path clip-path="url(#clip880)" d="M1755.47 1542.97 L1760.36 1542.97 L1760.36 1548.85 L1755.47 1548.85 L1755.47 1542.97 Z" fill="#000000" fill-rule="nonzero" fill-opacity="1" /><path clip-path="url(#clip880)" d="M1769.36 1514.29 L1791.58 1514.29 L1791.58 1516.28 L1779.04 1548.85 L1774.15 1548.85 L1785.96 1518.22 L1769.36 1518.22 L1769.36 1514.29 Z" fill="#000000" fill-rule="nonzero" fill-opacity="1" /><path clip-path="url(#clip880)" d="M1800.75 1514.29 L1819.11 1514.29 L1819.11 1518.22 L1805.03 1518.22 L1805.03 1526.7 Q1806.05 1526.35 1807.07 1526.19 Q1808.09 1526 1809.11 1526 Q1814.89 1526 1818.27 1529.17 Q1821.65 1532.34 1821.65 1537.76 Q1821.65 1543.34 1818.18 1546.44 Q1814.71 1549.52 1808.39 1549.52 Q1806.21 1549.52 1803.95 1549.15 Q1801.7 1548.78 1799.29 1548.04 L1799.29 1543.34 Q1801.38 1544.47 1803.6 1545.03 Q1805.82 1545.58 1808.3 1545.58 Q1812.3 1545.58 1814.64 1543.48 Q1816.98 1541.37 1816.98 1537.76 Q1816.98 1534.15 1814.64 1532.04 Q1812.3 1529.94 1808.3 1529.94 Q1806.42 1529.94 1804.55 1530.35 Q1802.7 1530.77 1800.75 1531.65 L1800.75 1514.29 Z" fill="#000000" fill-rule="nonzero" fill-opacity="1" /><path clip-path="url(#clip880)" d="M2242.66 1544.91 L2250.3 1544.91 L2250.3 1518.55 L2241.99 1520.21 L2241.99 1515.95 L2250.25 1514.29 L2254.93 1514.29 L2254.93 1544.91 L2262.57 1544.91 L2262.57 1548.85 L2242.66 1548.85 L2242.66 1544.91 Z" fill="#000000" fill-rule="nonzero" fill-opacity="1" /><path clip-path="url(#clip880)" d="M2272.01 1542.97 L2276.89 1542.97 L2276.89 1548.85 L2272.01 1548.85 L2272.01 1542.97 Z" fill="#000000" fill-rule="nonzero" fill-opacity="1" /><path clip-path="url(#clip880)" d="M2297.08 1517.37 Q2293.47 1517.37 2291.64 1520.93 Q2289.83 1524.47 2289.83 1531.6 Q2289.83 1538.71 2291.64 1542.27 Q2293.47 1545.82 2297.08 1545.82 Q2300.71 1545.82 2302.52 1542.27 Q2304.35 1538.71 2304.35 1531.6 Q2304.35 1524.47 2302.52 1520.93 Q2300.71 1517.37 2297.08 1517.37 M2297.08 1513.66 Q2302.89 1513.66 2305.95 1518.27 Q2309.02 1522.85 2309.02 1531.6 Q2309.02 1540.33 2305.95 1544.94 Q2302.89 1549.52 2297.08 1549.52 Q2291.27 1549.52 2288.19 1544.94 Q2285.14 1540.33 2285.14 1531.6 Q2285.14 1522.85 2288.19 1518.27 Q2291.27 1513.66 2297.08 1513.66 Z" fill="#000000" fill-rule="nonzero" fill-opacity="1" /><path clip-path="url(#clip880)" d="M2327.24 1517.37 Q2323.63 1517.37 2321.8 1520.93 Q2320 1524.47 2320 1531.6 Q2320 1538.71 2321.8 1542.27 Q2323.63 1545.82 2327.24 1545.82 Q2330.88 1545.82 2332.68 1542.27 Q2334.51 1538.71 2334.51 1531.6 Q2334.51 1524.47 2332.68 1520.93 Q2330.88 1517.37 2327.24 1517.37 M2327.24 1513.66 Q2333.05 1513.66 2336.11 1518.27 Q2339.19 1522.85 2339.19 1531.6 Q2339.19 1540.33 2336.11 1544.94 Q2333.05 1549.52 2327.24 1549.52 Q2321.43 1549.52 2318.35 1544.94 Q2315.3 1540.33 2315.3 1531.6 Q2315.3 1522.85 2318.35 1518.27 Q2321.43 1513.66 2327.24 1513.66 Z" fill="#000000" fill-rule="nonzero" fill-opacity="1" /><polyline clip-path="url(#clip880)" style="stroke:#000000; stroke-linecap:round; stroke-linejoin:round; stroke-width:4; stroke-opacity:1; fill:none" points="156.112,1486.45 156.112,47.2441 "/>
<polyline clip-path="url(#clip880)" style="stroke:#000000; stroke-linecap:round; stroke-linejoin:round; stroke-width:4; stroke-opacity:1; fill:none" points="156.112,1355.71 175.01,1355.71 "/>
<polyline clip-path="url(#clip880)" style="stroke:#000000; stroke-linecap:round; stroke-linejoin:round; stroke-width:4; stroke-opacity:1; fill:none" points="156.112,1102.29 175.01,1102.29 "/>
<polyline clip-path="url(#clip880)" style="stroke:#000000; stroke-linecap:round; stroke-linejoin:round; stroke-width:4; stroke-opacity:1; fill:none" points="156.112,848.876 175.01,848.876 "/>
<polyline clip-path="url(#clip880)" style="stroke:#000000; stroke-linecap:round; stroke-linejoin:round; stroke-width:4; stroke-opacity:1; fill:none" points="156.112,595.462 175.01,595.462 "/>
<polyline clip-path="url(#clip880)" style="stroke:#000000; stroke-linecap:round; stroke-linejoin:round; stroke-width:4; stroke-opacity:1; fill:none" points="156.112,342.047 175.01,342.047 "/>
<polyline clip-path="url(#clip880)" style="stroke:#000000; stroke-linecap:round; stroke-linejoin:round; stroke-width:4; stroke-opacity:1; fill:none" points="156.112,88.6324 175.01,88.6324 "/>
<path clip-path="url(#clip880)" d="M62.9365 1341.5 Q59.3254 1341.5 57.4967 1345.07 Q55.6912 1348.61 55.6912 1355.74 Q55.6912 1362.85 57.4967 1366.41 Q59.3254 1369.95 62.9365 1369.95 Q66.5707 1369.95 68.3763 1366.41 Q70.205 1362.85 70.205 1355.74 Q70.205 1348.61 68.3763 1345.07 Q66.5707 1341.5 62.9365 1341.5 M62.9365 1337.8 Q68.7467 1337.8 71.8022 1342.41 Q74.8809 1346.99 74.8809 1355.74 Q74.8809 1364.47 71.8022 1369.07 Q68.7467 1373.66 62.9365 1373.66 Q57.1264 1373.66 54.0477 1369.07 Q50.9921 1364.47 50.9921 1355.74 Q50.9921 1346.99 54.0477 1342.41 Q57.1264 1337.8 62.9365 1337.8 Z" fill="#000000" fill-rule="nonzero" fill-opacity="1" /><path clip-path="url(#clip880)" d="M83.0984 1367.11 L87.9827 1367.11 L87.9827 1372.99 L83.0984 1372.99 L83.0984 1367.11 Z" fill="#000000" fill-rule="nonzero" fill-opacity="1" /><path clip-path="url(#clip880)" d="M108.168 1341.5 Q104.557 1341.5 102.728 1345.07 Q100.922 1348.61 100.922 1355.74 Q100.922 1362.85 102.728 1366.41 Q104.557 1369.95 108.168 1369.95 Q111.802 1369.95 113.608 1366.41 Q115.436 1362.85 115.436 1355.74 Q115.436 1348.61 113.608 1345.07 Q111.802 1341.5 108.168 1341.5 M108.168 1337.8 Q113.978 1337.8 117.033 1342.41 Q120.112 1346.99 120.112 1355.74 Q120.112 1364.47 117.033 1369.07 Q113.978 1373.66 108.168 1373.66 Q102.358 1373.66 99.2789 1369.07 Q96.2234 1364.47 96.2234 1355.74 Q96.2234 1346.99 99.2789 1342.41 Q102.358 1337.8 108.168 1337.8 Z" fill="#000000" fill-rule="nonzero" fill-opacity="1" /><path clip-path="url(#clip880)" d="M63.9319 1088.09 Q60.3208 1088.09 58.4921 1091.65 Q56.6865 1095.2 56.6865 1102.33 Q56.6865 1109.43 58.4921 1113 Q60.3208 1116.54 63.9319 1116.54 Q67.5661 1116.54 69.3717 1113 Q71.2004 1109.43 71.2004 1102.33 Q71.2004 1095.2 69.3717 1091.65 Q67.5661 1088.09 63.9319 1088.09 M63.9319 1084.39 Q69.742 1084.39 72.7976 1088.99 Q75.8763 1093.58 75.8763 1102.33 Q75.8763 1111.05 72.7976 1115.66 Q69.742 1120.24 63.9319 1120.24 Q58.1217 1120.24 55.043 1115.66 Q51.9875 1111.05 51.9875 1102.33 Q51.9875 1093.58 55.043 1088.99 Q58.1217 1084.39 63.9319 1084.39 Z" fill="#000000" fill-rule="nonzero" fill-opacity="1" /><path clip-path="url(#clip880)" d="M84.0938 1113.69 L88.978 1113.69 L88.978 1119.57 L84.0938 1119.57 L84.0938 1113.69 Z" fill="#000000" fill-rule="nonzero" fill-opacity="1" /><path clip-path="url(#clip880)" d="M99.2095 1085.01 L117.566 1085.01 L117.566 1088.95 L103.492 1088.95 L103.492 1097.42 Q104.51 1097.07 105.529 1096.91 Q106.547 1096.72 107.566 1096.72 Q113.353 1096.72 116.733 1099.9 Q120.112 1103.07 120.112 1108.48 Q120.112 1114.06 116.64 1117.16 Q113.168 1120.24 106.848 1120.24 Q104.672 1120.24 102.404 1119.87 Q100.159 1119.5 97.7511 1118.76 L97.7511 1114.06 Q99.8345 1115.2 102.057 1115.75 Q104.279 1116.31 106.756 1116.31 Q110.76 1116.31 113.098 1114.2 Q115.436 1112.09 115.436 1108.48 Q115.436 1104.87 113.098 1102.77 Q110.76 1100.66 106.756 1100.66 Q104.881 1100.66 103.006 1101.08 Q101.154 1101.49 99.2095 1102.37 L99.2095 1085.01 Z" fill="#000000" fill-rule="nonzero" fill-opacity="1" /><path clip-path="url(#clip880)" d="M53.7467 862.221 L61.3856 862.221 L61.3856 835.856 L53.0754 837.522 L53.0754 833.263 L61.3393 831.596 L66.0152 831.596 L66.0152 862.221 L73.654 862.221 L73.654 866.156 L53.7467 866.156 L53.7467 862.221 Z" fill="#000000" fill-rule="nonzero" fill-opacity="1" /><path clip-path="url(#clip880)" d="M83.0984 860.277 L87.9827 860.277 L87.9827 866.156 L83.0984 866.156 L83.0984 860.277 Z" fill="#000000" fill-rule="nonzero" fill-opacity="1" /><path clip-path="url(#clip880)" d="M108.168 834.675 Q104.557 834.675 102.728 838.24 Q100.922 841.781 100.922 848.911 Q100.922 856.018 102.728 859.582 Q104.557 863.124 108.168 863.124 Q111.802 863.124 113.608 859.582 Q115.436 856.018 115.436 848.911 Q115.436 841.781 113.608 838.24 Q111.802 834.675 108.168 834.675 M108.168 830.971 Q113.978 830.971 117.033 835.578 Q120.112 840.161 120.112 848.911 Q120.112 857.638 117.033 862.244 Q113.978 866.828 108.168 866.828 Q102.358 866.828 99.2789 862.244 Q96.2234 857.638 96.2234 848.911 Q96.2234 840.161 99.2789 835.578 Q102.358 830.971 108.168 830.971 Z" fill="#000000" fill-rule="nonzero" fill-opacity="1" /><path clip-path="url(#clip880)" d="M54.7421 608.807 L62.381 608.807 L62.381 582.441 L54.0708 584.108 L54.0708 579.848 L62.3347 578.182 L67.0106 578.182 L67.0106 608.807 L74.6494 608.807 L74.6494 612.742 L54.7421 612.742 L54.7421 608.807 Z" fill="#000000" fill-rule="nonzero" fill-opacity="1" /><path clip-path="url(#clip880)" d="M84.0938 606.862 L88.978 606.862 L88.978 612.742 L84.0938 612.742 L84.0938 606.862 Z" fill="#000000" fill-rule="nonzero" fill-opacity="1" /><path clip-path="url(#clip880)" d="M99.2095 578.182 L117.566 578.182 L117.566 582.117 L103.492 582.117 L103.492 590.589 Q104.51 590.242 105.529 590.08 Q106.547 589.895 107.566 589.895 Q113.353 589.895 116.733 593.066 Q120.112 596.237 120.112 601.654 Q120.112 607.232 116.64 610.334 Q113.168 613.413 106.848 613.413 Q104.672 613.413 102.404 613.043 Q100.159 612.672 97.7511 611.932 L97.7511 607.232 Q99.8345 608.367 102.057 608.922 Q104.279 609.478 106.756 609.478 Q110.76 609.478 113.098 607.371 Q115.436 605.265 115.436 601.654 Q115.436 598.043 113.098 595.936 Q110.76 593.83 106.756 593.83 Q104.881 593.83 103.006 594.246 Q101.154 594.663 99.2095 595.543 L99.2095 578.182 Z" fill="#000000" fill-rule="nonzero" fill-opacity="1" /><path clip-path="url(#clip880)" d="M56.9643 355.392 L73.2837 355.392 L73.2837 359.327 L51.3393 359.327 L51.3393 355.392 Q54.0014 352.637 58.5847 348.008 Q63.1911 343.355 64.3717 342.012 Q66.617 339.489 67.4967 337.753 Q68.3994 335.994 68.3994 334.304 Q68.3994 331.549 66.455 329.813 Q64.5337 328.077 61.4319 328.077 Q59.2328 328.077 56.7791 328.841 Q54.3486 329.605 51.5708 331.156 L51.5708 326.434 Q54.3949 325.299 56.8486 324.721 Q59.3023 324.142 61.3393 324.142 Q66.7096 324.142 69.9041 326.827 Q73.0985 329.512 73.0985 334.003 Q73.0985 336.133 72.2883 338.054 Q71.5013 339.952 69.3948 342.545 Q68.8161 343.216 65.7143 346.434 Q62.6124 349.628 56.9643 355.392 Z" fill="#000000" fill-rule="nonzero" fill-opacity="1" /><path clip-path="url(#clip880)" d="M83.0984 353.447 L87.9827 353.447 L87.9827 359.327 L83.0984 359.327 L83.0984 353.447 Z" fill="#000000" fill-rule="nonzero" fill-opacity="1" /><path clip-path="url(#clip880)" d="M108.168 327.846 Q104.557 327.846 102.728 331.411 Q100.922 334.952 100.922 342.082 Q100.922 349.188 102.728 352.753 Q104.557 356.295 108.168 356.295 Q111.802 356.295 113.608 352.753 Q115.436 349.188 115.436 342.082 Q115.436 334.952 113.608 331.411 Q111.802 327.846 108.168 327.846 M108.168 324.142 Q113.978 324.142 117.033 328.749 Q120.112 333.332 120.112 342.082 Q120.112 350.809 117.033 355.415 Q113.978 359.998 108.168 359.998 Q102.358 359.998 99.2789 355.415 Q96.2234 350.809 96.2234 342.082 Q96.2234 333.332 99.2789 328.749 Q102.358 324.142 108.168 324.142 Z" fill="#000000" fill-rule="nonzero" fill-opacity="1" /><path clip-path="url(#clip880)" d="M57.9597 101.977 L74.279 101.977 L74.279 105.912 L52.3347 105.912 L52.3347 101.977 Q54.9967 99.2227 59.58 94.593 Q64.1865 89.9403 65.367 88.5977 Q67.6124 86.0746 68.492 84.3385 Q69.3948 82.5792 69.3948 80.8894 Q69.3948 78.1348 67.4504 76.3987 Q65.5291 74.6626 62.4272 74.6626 Q60.2282 74.6626 57.7745 75.4265 Q55.344 76.1904 52.5662 77.7413 L52.5662 73.0191 Q55.3903 71.8848 57.8439 71.3061 Q60.2976 70.7274 62.3347 70.7274 Q67.705 70.7274 70.8994 73.4126 Q74.0939 76.0978 74.0939 80.5885 Q74.0939 82.7181 73.2837 84.6394 Q72.4966 86.5375 70.3902 89.1301 Q69.8115 89.8014 66.7096 93.019 Q63.6078 96.2134 57.9597 101.977 Z" fill="#000000" fill-rule="nonzero" fill-opacity="1" /><path clip-path="url(#clip880)" d="M84.0938 100.033 L88.978 100.033 L88.978 105.912 L84.0938 105.912 L84.0938 100.033 Z" fill="#000000" fill-rule="nonzero" fill-opacity="1" /><path clip-path="url(#clip880)" d="M99.2095 71.3524 L117.566 71.3524 L117.566 75.2876 L103.492 75.2876 L103.492 83.7598 Q104.51 83.4126 105.529 83.2505 Q106.547 83.0653 107.566 83.0653 Q113.353 83.0653 116.733 86.2366 Q120.112 89.4079 120.112 94.8245 Q120.112 100.403 116.64 103.505 Q113.168 106.584 106.848 106.584 Q104.672 106.584 102.404 106.213 Q100.159 105.843 97.7511 105.102 L97.7511 100.403 Q99.8345 101.537 102.057 102.093 Q104.279 102.649 106.756 102.649 Q110.76 102.649 113.098 100.542 Q115.436 98.4356 115.436 94.8245 Q115.436 91.2134 113.098 89.107 Q110.76 87.0005 106.756 87.0005 Q104.881 87.0005 103.006 87.4172 Q101.154 87.8338 99.2095 88.7134 L99.2095 71.3524 Z" fill="#000000" fill-rule="nonzero" fill-opacity="1" /><polyline clip-path="url(#clip882)" style="stroke:#009af9; stroke-linecap:round; stroke-linejoin:round; stroke-width:4; stroke-opacity:1; fill:none" points="218.281,1355.71 239.004,1355.21 259.727,1353.71 280.45,1351.22 301.174,1347.74 321.897,1343.3 342.62,1337.91 363.343,1331.59 384.066,1324.36 404.789,1316.26 425.512,1307.31 446.235,1297.55 466.958,1287.02 487.681,1275.77 508.404,1263.82 529.127,1251.24 549.85,1238.08 570.573,1224.37 591.296,1210.19 612.019,1195.58 632.742,1180.6 653.465,1165.31 674.188,1149.78 694.912,1134.05 715.635,1118.2 736.358,1102.29 757.081,1086.38 777.804,1070.53 798.527,1054.81 819.25,1039.27 839.973,1023.98 860.696,1009 881.419,994.392 902.142,980.208 922.865,966.505 943.588,953.338 964.311,940.758 985.034,928.817 1005.76,917.56 1026.48,907.032 1047.2,897.274 1067.93,888.326 1088.65,880.222 1109.37,872.995 1130.1,866.672 1150.82,861.279 1171.54,856.838 1192.26,853.365 1212.99,850.875 1233.71,849.376 1254.43,848.876 1275.16,849.376 1295.88,850.875 1316.6,853.365 1337.33,856.838 1358.05,861.279 1378.77,866.672 1399.5,872.995 1420.22,880.222 1440.94,888.326 1461.66,897.274 1482.39,907.032 1503.11,917.56 1523.83,928.817 1544.56,940.758 1565.28,953.338 1586,966.505 1606.73,980.208 1627.45,994.392 1648.17,1009 1668.9,1023.98 1689.62,1039.27 1710.34,1054.81 1731.06,1070.53 1751.79,1086.38 1772.51,1102.29 1793.23,1118.2 1813.96,1134.05 1834.68,1149.78 1855.4,1165.31 1876.13,1180.6 1896.85,1195.58 1917.57,1210.19 1938.29,1224.37 1959.02,1238.08 1979.74,1251.24 2000.46,1263.82 2021.19,1275.77 2041.91,1287.02 2062.63,1297.55 2083.36,1307.31 2104.08,1316.26 2124.8,1324.36 2145.53,1331.59 2166.25,1337.91 2186.97,1343.3 2207.69,1347.74 2228.42,1351.22 2249.14,1353.71 2269.86,1355.21 2290.59,1355.71 "/>
<polyline clip-path="url(#clip882)" style="stroke:#e26f46; stroke-linecap:round; stroke-linejoin:round; stroke-width:4; stroke-opacity:1; fill:none" points="218.281,1265.7 239.004,1260.88 259.727,1246.5 280.45,1222.8 301.174,1190.16 321.897,1149.11 342.62,1100.31 363.343,1044.56 384.066,982.758 404.789,915.918 425.512,845.123 446.235,771.528 466.958,696.335 487.681,620.773 508.404,546.082 529.127,473.489 549.85,404.192 570.573,339.34 591.296,280.013 612.019,227.206 632.742,181.813 653.465,144.612 674.188,116.255 694.912,97.2549 715.635,87.9763 736.358,88.6324 757.081,99.2798 777.804,119.817 798.527,149.988 819.25,189.381 839.973,237.442 860.696,293.476 881.419,356.662 902.142,426.066 922.865,500.652 943.588,579.302 964.311,660.831 985.034,744.005 1005.76,827.564 1026.48,910.236 1047.2,990.762 1067.93,1067.91 1088.65,1140.51 1109.37,1207.44 1130.1,1267.69 1150.82,1320.32 1171.54,1364.52 1192.26,1399.63 1212.99,1425.1 1233.71,1440.54 1254.43,1445.72 1275.16,1440.54 1295.88,1425.1 1316.6,1399.63 1337.33,1364.52 1358.05,1320.32 1378.77,1267.69 1399.5,1207.44 1420.22,1140.51 1440.94,1067.91 1461.66,990.762 1482.39,910.236 1503.11,827.564 1523.83,744.005 1544.56,660.831 1565.28,579.302 1586,500.652 1606.73,426.066 1627.45,356.662 1648.17,293.476 1668.9,237.442 1689.62,189.381 1710.34,149.988 1731.06,119.817 1751.79,99.2798 1772.51,88.6324 1793.23,87.9763 1813.96,97.2549 1834.68,116.255 1855.4,144.612 1876.13,181.813 1896.85,227.206 1917.57,280.013 1938.29,339.34 1959.02,404.192 1979.74,473.489 2000.46,546.082 2021.19,620.773 2041.91,696.335 2062.63,771.528 2083.36,845.123 2104.08,915.918 2124.8,982.758 2145.53,1044.56 2166.25,1100.31 2186.97,1149.11 2207.69,1190.16 2228.42,1222.8 2249.14,1246.5 2269.86,1260.88 2290.59,1265.7 "/>
<path clip-path="url(#clip880)" d="M1938.83 250.738 L2279.53 250.738 L2279.53 95.2176 L1938.83 95.2176  Z" fill="#ffffff" fill-rule="evenodd" fill-opacity="1"/>
<polyline clip-path="url(#clip880)" style="stroke:#000000; stroke-linecap:round; stroke-linejoin:round; stroke-width:4; stroke-opacity:1; fill:none" points="1938.83,250.738 2279.53,250.738 2279.53,95.2176 1938.83,95.2176 1938.83,250.738 "/>
<polyline clip-path="url(#clip880)" style="stroke:#009af9; stroke-linecap:round; stroke-linejoin:round; stroke-width:4; stroke-opacity:1; fill:none" points="1963.24,147.058 2109.68,147.058 "/>
<path clip-path="url(#clip880)" d="M2134.09 154.106 L2134.09 138.412 L2138.35 138.412 L2138.35 153.944 Q2138.35 157.625 2139.78 159.476 Q2141.22 161.305 2144.09 161.305 Q2147.54 161.305 2149.53 159.106 Q2151.54 156.907 2151.54 153.111 L2151.54 138.412 L2155.8 138.412 L2155.8 164.338 L2151.54 164.338 L2151.54 160.356 Q2149.99 162.717 2147.93 163.875 Q2145.89 165.009 2143.18 165.009 Q2138.72 165.009 2136.4 162.231 Q2134.09 159.453 2134.09 154.106 M2144.8 137.787 L2144.8 137.787 Z" fill="#000000" fill-rule="nonzero" fill-opacity="1" /><polyline clip-path="url(#clip880)" style="stroke:#e26f46; stroke-linecap:round; stroke-linejoin:round; stroke-width:4; stroke-opacity:1; fill:none" points="1963.24,198.898 2109.68,198.898 "/>
<path clip-path="url(#clip880)" d="M2153 194.187 L2153 180.159 L2157.26 180.159 L2157.26 216.178 L2153 216.178 L2153 212.289 Q2151.66 214.603 2149.6 215.738 Q2147.56 216.849 2144.69 216.849 Q2139.99 216.849 2137.03 213.099 Q2134.09 209.349 2134.09 203.238 Q2134.09 197.127 2137.03 193.377 Q2139.99 189.627 2144.69 189.627 Q2147.56 189.627 2149.6 190.761 Q2151.66 191.872 2153 194.187 M2138.48 203.238 Q2138.48 207.937 2140.41 210.622 Q2142.35 213.284 2145.73 213.284 Q2149.11 213.284 2151.05 210.622 Q2153 207.937 2153 203.238 Q2153 198.539 2151.05 195.877 Q2149.11 193.192 2145.73 193.192 Q2142.35 193.192 2140.41 195.877 Q2138.48 198.539 2138.48 203.238 Z" fill="#000000" fill-rule="nonzero" fill-opacity="1" /><path clip-path="url(#clip880)" d="M2165.59 205.946 L2165.59 190.252 L2169.85 190.252 L2169.85 205.784 Q2169.85 209.465 2171.29 211.316 Q2172.72 213.145 2175.59 213.145 Q2179.04 213.145 2181.03 210.946 Q2183.04 208.747 2183.04 204.951 L2183.04 190.252 L2187.3 190.252 L2187.3 216.178 L2183.04 216.178 L2183.04 212.196 Q2181.49 214.557 2179.43 215.715 Q2177.4 216.849 2174.69 216.849 Q2170.22 216.849 2167.91 214.071 Q2165.59 211.293 2165.59 205.946 M2176.31 189.627 L2176.31 189.627 Z" fill="#000000" fill-rule="nonzero" fill-opacity="1" /><path clip-path="url(#clip880)" d="M2203.65 181.618 L2207.58 181.618 L2195.54 220.576 L2191.61 220.576 L2203.65 181.618 Z" fill="#000000" fill-rule="nonzero" fill-opacity="1" /><path clip-path="url(#clip880)" d="M2229.11 194.187 L2229.11 180.159 L2233.37 180.159 L2233.37 216.178 L2229.11 216.178 L2229.11 212.289 Q2227.77 214.603 2225.71 215.738 Q2223.67 216.849 2220.8 216.849 Q2216.1 216.849 2213.14 213.099 Q2210.2 209.349 2210.2 203.238 Q2210.2 197.127 2213.14 193.377 Q2216.1 189.627 2220.8 189.627 Q2223.67 189.627 2225.71 190.761 Q2227.77 191.872 2229.11 194.187 M2214.6 203.238 Q2214.6 207.937 2216.52 210.622 Q2218.46 213.284 2221.84 213.284 Q2225.22 213.284 2227.16 210.622 Q2229.11 207.937 2229.11 203.238 Q2229.11 198.539 2227.16 195.877 Q2225.22 193.192 2221.84 193.192 Q2218.46 193.192 2216.52 195.877 Q2214.6 198.539 2214.6 203.238 Z" fill="#000000" fill-rule="nonzero" fill-opacity="1" /><path clip-path="url(#clip880)" d="M2246.35 182.891 L2246.35 190.252 L2255.13 190.252 L2255.13 193.562 L2246.35 193.562 L2246.35 207.636 Q2246.35 210.807 2247.21 211.71 Q2248.09 212.613 2250.75 212.613 L2255.13 212.613 L2255.13 216.178 L2250.75 216.178 Q2245.82 216.178 2243.95 214.349 Q2242.07 212.497 2242.07 207.636 L2242.07 193.562 L2238.95 193.562 L2238.95 190.252 L2242.07 190.252 L2242.07 182.891 L2246.35 182.891 Z" fill="#000000" fill-rule="nonzero" fill-opacity="1" /></svg>
