<?xml version="1.0" encoding="utf-8"?>
<svg xmlns="http://www.w3.org/2000/svg" xmlns:xlink="http://www.w3.org/1999/xlink" width="600" height="400" viewBox="0 0 2400 1600">
<defs>
  <clipPath id="clip940">
    <rect x="0" y="0" width="2400" height="1600"/>
  </clipPath>
</defs>
<path clip-path="url(#clip940)" d="M0 1600 L2400 1600 L2400 0 L0 0  Z" fill="#ffffff" fill-rule="evenodd" fill-opacity="1"/>
<defs>
  <clipPath id="clip941">
    <rect x="480" y="0" width="1681" height="1600"/>
  </clipPath>
</defs>
<path clip-path="url(#clip940)" d="M219.38 1423.18 L2352.76 1423.18 L2352.76 47.2441 L219.38 47.2441  Z" fill="#ffffff" fill-rule="evenodd" fill-opacity="1"/>
<defs>
  <clipPath id="clip942">
    <rect x="219" y="47" width="2134" height="1377"/>
  </clipPath>
</defs>
<polyline clip-path="url(#clip942)" style="stroke:#000000; stroke-linecap:round; stroke-linejoin:round; stroke-width:2; stroke-opacity:0.1; fill:none" points="279.759,1423.18 279.759,47.2441 "/>
<polyline clip-path="url(#clip942)" style="stroke:#000000; stroke-linecap:round; stroke-linejoin:round; stroke-width:2; stroke-opacity:0.1; fill:none" points="782.913,1423.18 782.913,47.2441 "/>
<polyline clip-path="url(#clip942)" style="stroke:#000000; stroke-linecap:round; stroke-linejoin:round; stroke-width:2; stroke-opacity:0.1; fill:none" points="1286.07,1423.18 1286.07,47.2441 "/>
<polyline clip-path="url(#clip942)" style="stroke:#000000; stroke-linecap:round; stroke-linejoin:round; stroke-width:2; stroke-opacity:0.1; fill:none" points="1789.22,1423.18 1789.22,47.2441 "/>
<polyline clip-path="url(#clip942)" style="stroke:#000000; stroke-linecap:round; stroke-linejoin:round; stroke-width:2; stroke-opacity:0.1; fill:none" points="2292.38,1423.18 2292.38,47.2441 "/>
<polyline clip-path="url(#clip942)" style="stroke:#000000; stroke-linecap:round; stroke-linejoin:round; stroke-width:2; stroke-opacity:0.1; fill:none" points="219.38,1150.2 2352.76,1150.2 "/>
<polyline clip-path="url(#clip942)" style="stroke:#000000; stroke-linecap:round; stroke-linejoin:round; stroke-width:2; stroke-opacity:0.1; fill:none" points="219.38,870.514 2352.76,870.514 "/>
<polyline clip-path="url(#clip942)" style="stroke:#000000; stroke-linecap:round; stroke-linejoin:round; stroke-width:2; stroke-opacity:0.1; fill:none" points="219.38,590.828 2352.76,590.828 "/>
<polyline clip-path="url(#clip942)" style="stroke:#000000; stroke-linecap:round; stroke-linejoin:round; stroke-width:2; stroke-opacity:0.1; fill:none" points="219.38,311.141 2352.76,311.141 "/>
<polyline clip-path="url(#clip940)" style="stroke:#000000; stroke-linecap:round; stroke-linejoin:round; stroke-width:4; stroke-opacity:1; fill:none" points="219.38,1423.18 2352.76,1423.18 "/>
<polyline clip-path="url(#clip940)" style="stroke:#000000; stroke-linecap:round; stroke-linejoin:round; stroke-width:4; stroke-opacity:1; fill:none" points="279.759,1423.18 279.759,1404.28 "/>
<polyline clip-path="url(#clip940)" style="stroke:#000000; stroke-linecap:round; stroke-linejoin:round; stroke-width:4; stroke-opacity:1; fill:none" points="782.913,1423.18 782.913,1404.28 "/>
<polyline clip-path="url(#clip940)" style="stroke:#000000; stroke-linecap:round; stroke-linejoin:round; stroke-width:4; stroke-opacity:1; fill:none" points="1286.07,1423.18 1286.07,1404.28 "/>
<polyline clip-path="url(#clip940)" style="stroke:#000000; stroke-linecap:round; stroke-linejoin:round; stroke-width:4; stroke-opacity:1; fill:none" points="1789.22,1423.18 1789.22,1404.28 "/>
<polyline clip-path="url(#clip940)" style="stroke:#000000; stroke-linecap:round; stroke-linejoin:round; stroke-width:4; stroke-opacity:1; fill:none" points="2292.38,1423.18 2292.38,1404.28 "/>
<path clip-path="url(#clip940)" d="M257.143 1454.1 Q253.532 1454.1 251.703 1457.66 Q249.898 1461.2 249.898 1468.33 Q249.898 1475.44 251.703 1479.01 Q253.532 1482.55 257.143 1482.55 Q260.777 1482.55 262.583 1479.01 Q264.412 1475.44 264.412 1468.33 Q264.412 1461.2 262.583 1457.66 Q260.777 1454.1 257.143 1454.1 M257.143 1450.39 Q262.953 1450.39 266.009 1455 Q269.087 1459.58 269.087 1468.33 Q269.087 1477.06 266.009 1481.67 Q262.953 1486.25 257.143 1486.25 Q251.333 1486.25 248.254 1481.67 Q245.199 1477.06 245.199 1468.33 Q245.199 1459.58 248.254 1455 Q251.333 1450.39 257.143 1450.39 Z" fill="#000000" fill-rule="nonzero" fill-opacity="1" /><path clip-path="url(#clip940)" d="M277.305 1479.7 L282.189 1479.7 L282.189 1485.58 L277.305 1485.58 L277.305 1479.7 Z" fill="#000000" fill-rule="nonzero" fill-opacity="1" /><path clip-path="url(#clip940)" d="M302.374 1454.1 Q298.763 1454.1 296.935 1457.66 Q295.129 1461.2 295.129 1468.33 Q295.129 1475.44 296.935 1479.01 Q298.763 1482.55 302.374 1482.55 Q306.009 1482.55 307.814 1479.01 Q309.643 1475.44 309.643 1468.33 Q309.643 1461.2 307.814 1457.66 Q306.009 1454.1 302.374 1454.1 M302.374 1450.39 Q308.184 1450.39 311.24 1455 Q314.319 1459.58 314.319 1468.33 Q314.319 1477.06 311.24 1481.67 Q308.184 1486.25 302.374 1486.25 Q296.564 1486.25 293.485 1481.67 Q290.43 1477.06 290.43 1468.33 Q290.43 1459.58 293.485 1455 Q296.564 1450.39 302.374 1450.39 Z" fill="#000000" fill-rule="nonzero" fill-opacity="1" /><path clip-path="url(#clip940)" d="M760.795 1454.1 Q757.184 1454.1 755.356 1457.66 Q753.55 1461.2 753.55 1468.33 Q753.55 1475.44 755.356 1479.01 Q757.184 1482.55 760.795 1482.55 Q764.43 1482.55 766.235 1479.01 Q768.064 1475.44 768.064 1468.33 Q768.064 1461.2 766.235 1457.66 Q764.43 1454.1 760.795 1454.1 M760.795 1450.39 Q766.606 1450.39 769.661 1455 Q772.74 1459.58 772.74 1468.33 Q772.74 1477.06 769.661 1481.67 Q766.606 1486.25 760.795 1486.25 Q754.985 1486.25 751.907 1481.67 Q748.851 1477.06 748.851 1468.33 Q748.851 1459.58 751.907 1455 Q754.985 1450.39 760.795 1450.39 Z" fill="#000000" fill-rule="nonzero" fill-opacity="1" /><path clip-path="url(#clip940)" d="M780.957 1479.7 L785.842 1479.7 L785.842 1485.58 L780.957 1485.58 L780.957 1479.7 Z" fill="#000000" fill-rule="nonzero" fill-opacity="1" /><path clip-path="url(#clip940)" d="M796.073 1451.02 L814.429 1451.02 L814.429 1454.96 L800.355 1454.96 L800.355 1463.43 Q801.374 1463.08 802.392 1462.92 Q803.411 1462.73 804.429 1462.73 Q810.216 1462.73 813.596 1465.9 Q816.976 1469.08 816.976 1474.49 Q816.976 1480.07 813.503 1483.17 Q810.031 1486.25 803.712 1486.25 Q801.536 1486.25 799.267 1485.88 Q797.022 1485.51 794.615 1484.77 L794.615 1480.07 Q796.698 1481.2 798.92 1481.76 Q801.142 1482.32 803.619 1482.32 Q807.624 1482.32 809.962 1480.21 Q812.3 1478.1 812.3 1474.49 Q812.3 1470.88 809.962 1468.77 Q807.624 1466.67 803.619 1466.67 Q801.744 1466.67 799.869 1467.08 Q798.017 1467.5 796.073 1468.38 L796.073 1451.02 Z" fill="#000000" fill-rule="nonzero" fill-opacity="1" /><path clip-path="url(#clip940)" d="M1253.22 1481.64 L1260.86 1481.64 L1260.86 1455.28 L1252.55 1456.95 L1252.55 1452.69 L1260.81 1451.02 L1265.49 1451.02 L1265.49 1481.64 L1273.13 1481.64 L1273.13 1485.58 L1253.22 1485.58 L1253.22 1481.64 Z" fill="#000000" fill-rule="nonzero" fill-opacity="1" /><path clip-path="url(#clip940)" d="M1282.57 1479.7 L1287.46 1479.7 L1287.46 1485.58 L1282.57 1485.58 L1282.57 1479.7 Z" fill="#000000" fill-rule="nonzero" fill-opacity="1" /><path clip-path="url(#clip940)" d="M1307.64 1454.1 Q1304.03 1454.1 1302.2 1457.66 Q1300.4 1461.2 1300.4 1468.33 Q1300.4 1475.44 1302.2 1479.01 Q1304.03 1482.55 1307.64 1482.55 Q1311.28 1482.55 1313.08 1479.01 Q1314.91 1475.44 1314.91 1468.33 Q1314.91 1461.2 1313.08 1457.66 Q1311.28 1454.1 1307.64 1454.1 M1307.64 1450.39 Q1313.45 1450.39 1316.51 1455 Q1319.59 1459.58 1319.59 1468.33 Q1319.59 1477.06 1316.51 1481.67 Q1313.45 1486.25 1307.64 1486.25 Q1301.83 1486.25 1298.75 1481.67 Q1295.7 1477.06 1295.7 1468.33 Q1295.7 1459.58 1298.75 1455 Q1301.83 1450.39 1307.64 1450.39 Z" fill="#000000" fill-rule="nonzero" fill-opacity="1" /><path clip-path="url(#clip940)" d="M1756.87 1481.64 L1764.51 1481.64 L1764.51 1455.28 L1756.2 1456.95 L1756.2 1452.69 L1764.47 1451.02 L1769.14 1451.02 L1769.14 1481.64 L1776.78 1481.64 L1776.78 1485.58 L1756.87 1485.58 L1756.87 1481.64 Z" fill="#000000" fill-rule="nonzero" fill-opacity="1" /><path clip-path="url(#clip940)" d="M1786.23 1479.7 L1791.11 1479.7 L1791.11 1485.58 L1786.23 1485.58 L1786.23 1479.7 Z" fill="#000000" fill-rule="nonzero" fill-opacity="1" /><path clip-path="url(#clip940)" d="M1801.34 1451.02 L1819.7 1451.02 L1819.7 1454.96 L1805.62 1454.96 L1805.62 1463.43 Q1806.64 1463.08 1807.66 1462.92 Q1808.68 1462.73 1809.7 1462.73 Q1815.48 1462.73 1818.86 1465.9 Q1822.24 1469.08 1822.24 1474.49 Q1822.24 1480.07 1818.77 1483.17 Q1815.3 1486.25 1808.98 1486.25 Q1806.8 1486.25 1804.54 1485.88 Q1802.29 1485.51 1799.88 1484.77 L1799.88 1480.07 Q1801.97 1481.2 1804.19 1481.76 Q1806.41 1482.32 1808.89 1482.32 Q1812.89 1482.32 1815.23 1480.21 Q1817.57 1478.1 1817.57 1474.49 Q1817.57 1470.88 1815.23 1468.77 Q1812.89 1466.67 1808.89 1466.67 Q1807.01 1466.67 1805.14 1467.08 Q1803.29 1467.5 1801.34 1468.38 L1801.34 1451.02 Z" fill="#000000" fill-rule="nonzero" fill-opacity="1" /><path clip-path="url(#clip940)" d="M2263.62 1481.64 L2279.94 1481.64 L2279.94 1485.58 L2257.99 1485.58 L2257.99 1481.64 Q2260.65 1478.89 2265.24 1474.26 Q2269.84 1469.61 2271.02 1468.27 Q2273.27 1465.74 2274.15 1464.01 Q2275.05 1462.25 2275.05 1460.56 Q2275.05 1457.8 2273.11 1456.07 Q2271.19 1454.33 2268.08 1454.33 Q2265.88 1454.33 2263.43 1455.09 Q2261 1455.86 2258.22 1457.41 L2258.22 1452.69 Q2261.05 1451.55 2263.5 1450.97 Q2265.95 1450.39 2267.99 1450.39 Q2273.36 1450.39 2276.56 1453.08 Q2279.75 1455.77 2279.75 1460.26 Q2279.75 1462.39 2278.94 1464.31 Q2278.15 1466.2 2276.05 1468.8 Q2275.47 1469.47 2272.37 1472.69 Q2269.26 1475.88 2263.62 1481.64 Z" fill="#000000" fill-rule="nonzero" fill-opacity="1" /><path clip-path="url(#clip940)" d="M2289.75 1479.7 L2294.63 1479.7 L2294.63 1485.58 L2289.75 1485.58 L2289.75 1479.7 Z" fill="#000000" fill-rule="nonzero" fill-opacity="1" /><path clip-path="url(#clip940)" d="M2314.82 1454.1 Q2311.21 1454.1 2309.38 1457.66 Q2307.57 1461.2 2307.57 1468.33 Q2307.57 1475.44 2309.38 1479.01 Q2311.21 1482.55 2314.82 1482.55 Q2318.45 1482.55 2320.26 1479.01 Q2322.09 1475.44 2322.09 1468.33 Q2322.09 1461.2 2320.26 1457.66 Q2318.45 1454.1 2314.82 1454.1 M2314.82 1450.39 Q2320.63 1450.39 2323.69 1455 Q2326.76 1459.58 2326.76 1468.33 Q2326.76 1477.06 2323.69 1481.67 Q2320.63 1486.25 2314.82 1486.25 Q2309.01 1486.25 2305.93 1481.67 Q2302.87 1477.06 2302.87 1468.33 Q2302.87 1459.58 2305.93 1455 Q2309.01 1450.39 2314.82 1450.39 Z" fill="#000000" fill-rule="nonzero" fill-opacity="1" /><path clip-path="url(#clip940)" d="M1294.54 1531.91 Q1294.54 1532.81 1294.12 1533.04 Q1293.7 1533.23 1292.54 1533.23 L1286.36 1533.23 L1281.46 1552.69 Q1281.08 1554.39 1281.08 1555.84 Q1281.08 1557.45 1281.56 1558.16 Q1282.08 1558.87 1283.14 1558.87 Q1285.23 1558.87 1287.49 1556.97 Q1289.77 1555.07 1291.7 1550.43 Q1291.96 1549.82 1292.09 1549.69 Q1292.25 1549.53 1292.67 1549.53 Q1293.48 1549.53 1293.48 1550.17 Q1293.48 1550.4 1293.03 1551.43 Q1292.61 1552.46 1291.67 1553.97 Q1290.77 1555.49 1289.58 1556.9 Q1288.42 1558.32 1286.65 1559.35 Q1284.88 1560.35 1282.98 1560.35 Q1280.3 1560.35 1278.6 1558.64 Q1276.92 1556.94 1276.92 1554.26 Q1276.92 1553.39 1277.6 1550.62 Q1278.28 1547.82 1281.95 1533.23 L1276.12 1533.23 Q1275.31 1533.23 1274.99 1533.2 Q1274.7 1533.17 1274.47 1533.01 Q1274.28 1532.81 1274.28 1532.43 Q1274.28 1531.82 1274.54 1531.56 Q1274.8 1531.27 1275.12 1531.24 Q1275.47 1531.17 1276.28 1531.17 L1282.46 1531.17 L1285.04 1520.71 Q1285.3 1519.67 1285.94 1519.09 Q1286.62 1518.48 1287 1518.42 Q1287.39 1518.32 1287.68 1518.32 Q1288.55 1518.32 1289.06 1518.81 Q1289.58 1519.26 1289.58 1520.09 Q1289.58 1520.54 1286.87 1531.17 L1292.67 1531.17 Q1293.41 1531.17 1293.7 1531.2 Q1294.02 1531.24 1294.28 1531.4 Q1294.54 1531.56 1294.54 1531.91 Z" fill="#000000" fill-rule="nonzero" fill-opacity="1" /><polyline clip-path="url(#clip940)" style="stroke:#000000; stroke-linecap:round; stroke-linejoin:round; stroke-width:4; stroke-opacity:1; fill:none" points="219.38,1423.18 219.38,47.2441 "/>
<polyline clip-path="url(#clip940)" style="stroke:#000000; stroke-linecap:round; stroke-linejoin:round; stroke-width:4; stroke-opacity:1; fill:none" points="219.38,1150.2 238.278,1150.2 "/>
<polyline clip-path="url(#clip940)" style="stroke:#000000; stroke-linecap:round; stroke-linejoin:round; stroke-width:4; stroke-opacity:1; fill:none" points="219.38,870.514 238.278,870.514 "/>
<polyline clip-path="url(#clip940)" style="stroke:#000000; stroke-linecap:round; stroke-linejoin:round; stroke-width:4; stroke-opacity:1; fill:none" points="219.38,590.828 238.278,590.828 "/>
<polyline clip-path="url(#clip940)" style="stroke:#000000; stroke-linecap:round; stroke-linejoin:round; stroke-width:4; stroke-opacity:1; fill:none" points="219.38,311.141 238.278,311.141 "/>
<path clip-path="url(#clip940)" d="M126.205 1136 Q122.593 1136 120.765 1139.56 Q118.959 1143.11 118.959 1150.24 Q118.959 1157.34 120.765 1160.91 Q122.593 1164.45 126.205 1164.45 Q129.839 1164.45 131.644 1160.91 Q133.473 1157.34 133.473 1150.24 Q133.473 1143.11 131.644 1139.56 Q129.839 1136 126.205 1136 M126.205 1132.3 Q132.015 1132.3 135.07 1136.9 Q138.149 1141.49 138.149 1150.24 Q138.149 1158.96 135.07 1163.57 Q132.015 1168.15 126.205 1168.15 Q120.394 1168.15 117.316 1163.57 Q114.26 1158.96 114.26 1150.24 Q114.26 1141.49 117.316 1136.9 Q120.394 1132.3 126.205 1132.3 Z" fill="#000000" fill-rule="nonzero" fill-opacity="1" /><path clip-path="url(#clip940)" d="M146.366 1161.6 L151.251 1161.6 L151.251 1167.48 L146.366 1167.48 L146.366 1161.6 Z" fill="#000000" fill-rule="nonzero" fill-opacity="1" /><path clip-path="url(#clip940)" d="M171.436 1136 Q167.825 1136 165.996 1139.56 Q164.19 1143.11 164.19 1150.24 Q164.19 1157.34 165.996 1160.91 Q167.825 1164.45 171.436 1164.45 Q175.07 1164.45 176.876 1160.91 Q178.704 1157.34 178.704 1150.24 Q178.704 1143.11 176.876 1139.56 Q175.07 1136 171.436 1136 M171.436 1132.3 Q177.246 1132.3 180.301 1136.9 Q183.38 1141.49 183.38 1150.24 Q183.38 1158.96 180.301 1163.57 Q177.246 1168.15 171.436 1168.15 Q165.626 1168.15 162.547 1163.57 Q159.491 1158.96 159.491 1150.24 Q159.491 1141.49 162.547 1136.9 Q165.626 1132.3 171.436 1132.3 Z" fill="#000000" fill-rule="nonzero" fill-opacity="1" /><path clip-path="url(#clip940)" d="M121.228 883.859 L137.547 883.859 L137.547 887.794 L115.603 887.794 L115.603 883.859 Q118.265 881.105 122.848 876.475 Q127.455 871.822 128.635 870.48 Q130.88 867.957 131.76 866.22 Q132.663 864.461 132.663 862.771 Q132.663 860.017 130.718 858.281 Q128.797 856.545 125.695 856.545 Q123.496 856.545 121.043 857.308 Q118.612 858.072 115.834 859.623 L115.834 854.901 Q118.658 853.767 121.112 853.188 Q123.566 852.609 125.603 852.609 Q130.973 852.609 134.167 855.295 Q137.362 857.98 137.362 862.471 Q137.362 864.6 136.552 866.521 Q135.765 868.42 133.658 871.012 Q133.08 871.683 129.978 874.901 Q126.876 878.095 121.228 883.859 Z" fill="#000000" fill-rule="nonzero" fill-opacity="1" /><path clip-path="url(#clip940)" d="M147.362 881.915 L152.246 881.915 L152.246 887.794 L147.362 887.794 L147.362 881.915 Z" fill="#000000" fill-rule="nonzero" fill-opacity="1" /><path clip-path="url(#clip940)" d="M162.477 853.234 L180.834 853.234 L180.834 857.17 L166.76 857.17 L166.76 865.642 Q167.778 865.295 168.797 865.133 Q169.815 864.947 170.834 864.947 Q176.621 864.947 180.001 868.119 Q183.38 871.29 183.38 876.707 Q183.38 882.285 179.908 885.387 Q176.436 888.466 170.116 888.466 Q167.94 888.466 165.672 888.095 Q163.427 887.725 161.019 886.984 L161.019 882.285 Q163.102 883.419 165.325 883.975 Q167.547 884.531 170.024 884.531 Q174.028 884.531 176.366 882.424 Q178.704 880.318 178.704 876.707 Q178.704 873.095 176.366 870.989 Q174.028 868.883 170.024 868.883 Q168.149 868.883 166.274 869.299 Q164.422 869.716 162.477 870.595 L162.477 853.234 Z" fill="#000000" fill-rule="nonzero" fill-opacity="1" /><path clip-path="url(#clip940)" d="M116.251 573.548 L134.607 573.548 L134.607 577.483 L120.533 577.483 L120.533 585.955 Q121.552 585.608 122.57 585.446 Q123.589 585.261 124.607 585.261 Q130.394 585.261 133.774 588.432 Q137.154 591.603 137.154 597.02 Q137.154 602.599 133.681 605.7 Q130.209 608.779 123.89 608.779 Q121.714 608.779 119.445 608.409 Q117.2 608.038 114.793 607.298 L114.793 602.599 Q116.876 603.733 119.098 604.288 Q121.32 604.844 123.797 604.844 Q127.802 604.844 130.14 602.737 Q132.478 600.631 132.478 597.02 Q132.478 593.409 130.14 591.302 Q127.802 589.196 123.797 589.196 Q121.922 589.196 120.047 589.612 Q118.195 590.029 116.251 590.909 L116.251 573.548 Z" fill="#000000" fill-rule="nonzero" fill-opacity="1" /><path clip-path="url(#clip940)" d="M146.366 602.228 L151.251 602.228 L151.251 608.108 L146.366 608.108 L146.366 602.228 Z" fill="#000000" fill-rule="nonzero" fill-opacity="1" /><path clip-path="url(#clip940)" d="M171.436 576.626 Q167.825 576.626 165.996 580.191 Q164.19 583.733 164.19 590.862 Q164.19 597.969 165.996 601.534 Q167.825 605.075 171.436 605.075 Q175.07 605.075 176.876 601.534 Q178.704 597.969 178.704 590.862 Q178.704 583.733 176.876 580.191 Q175.07 576.626 171.436 576.626 M171.436 572.923 Q177.246 572.923 180.301 577.529 Q183.38 582.113 183.38 590.862 Q183.38 599.589 180.301 604.196 Q177.246 608.779 171.436 608.779 Q165.626 608.779 162.547 604.196 Q159.491 599.589 159.491 590.862 Q159.491 582.113 162.547 577.529 Q165.626 572.923 171.436 572.923 Z" fill="#000000" fill-rule="nonzero" fill-opacity="1" /><path clip-path="url(#clip940)" d="M116.019 293.861 L138.242 293.861 L138.242 295.852 L125.695 328.421 L120.811 328.421 L132.617 297.796 L116.019 297.796 L116.019 293.861 Z" fill="#000000" fill-rule="nonzero" fill-opacity="1" /><path clip-path="url(#clip940)" d="M147.362 322.541 L152.246 322.541 L152.246 328.421 L147.362 328.421 L147.362 322.541 Z" fill="#000000" fill-rule="nonzero" fill-opacity="1" /><path clip-path="url(#clip940)" d="M162.477 293.861 L180.834 293.861 L180.834 297.796 L166.76 297.796 L166.76 306.268 Q167.778 305.921 168.797 305.759 Q169.815 305.574 170.834 305.574 Q176.621 305.574 180.001 308.745 Q183.38 311.917 183.38 317.333 Q183.38 322.912 179.908 326.014 Q176.436 329.092 170.116 329.092 Q167.94 329.092 165.672 328.722 Q163.427 328.352 161.019 327.611 L161.019 322.912 Q163.102 324.046 165.325 324.602 Q167.547 325.157 170.024 325.157 Q174.028 325.157 176.366 323.051 Q178.704 320.944 178.704 317.333 Q178.704 313.722 176.366 311.616 Q174.028 309.509 170.024 309.509 Q168.149 309.509 166.274 309.926 Q164.422 310.342 162.477 311.222 L162.477 293.861 Z" fill="#000000" fill-rule="nonzero" fill-opacity="1" /><path clip-path="url(#clip940)" d="M30.8561 720.775 Q31.307 720.775 32.3698 721.064 L57.5548 727.377 Q63.1586 728.762 67.0877 733.27 Q71.0168 737.747 71.0168 742.836 Q71.0168 745.895 69.3743 747.86 Q67.764 749.824 65.2842 749.824 Q63.0942 749.824 62.0314 748.665 Q61.0008 747.505 61.0008 746.121 Q61.0008 745.67 61.1296 745.187 Q61.2584 744.703 61.8059 744.188 Q62.3534 743.673 63.2874 743.673 Q64.8011 743.673 65.9927 744.993 Q66.5402 745.637 66.669 746.249 Q66.7978 746.829 66.7978 747.827 Q67.6996 747.441 68.3115 746.732 Q68.9234 746.024 69.1489 745.219 Q69.4065 744.414 69.4709 743.898 Q69.5675 743.351 69.5675 742.836 Q69.5675 738.713 65.413 735.557 Q64.157 734.623 62.9009 733.947 Q61.6771 733.238 60.1634 732.723 Q58.682 732.208 57.8768 731.982 Q57.0717 731.725 55.2359 731.274 Q58.2311 734.269 58.2311 737.94 Q58.2311 739.486 57.8124 740.871 Q57.3937 742.224 56.5242 743.415 Q55.6224 744.607 54.0443 745.315 Q52.4662 745.992 50.3728 745.992 Q48.1506 745.992 45.1233 745.122 Q42.0959 744.253 36.5243 742.159 Q33.4004 741.032 31.8867 741.032 Q31.146 741.032 30.6951 741.193 Q30.212 741.354 30.051 741.676 Q29.8577 741.998 29.8255 742.191 Q29.7933 742.352 29.7933 742.675 Q29.7933 744.575 31.7257 746.346 Q33.658 748.117 37.9736 749.341 Q38.7787 749.599 38.972 749.76 Q39.1652 749.921 39.1652 750.404 Q39.133 751.209 38.4889 751.209 Q38.2312 751.209 37.2329 750.919 Q36.2023 750.629 34.6886 749.953 Q33.1427 749.245 31.7579 748.278 Q30.3408 747.312 29.3424 745.798 Q28.344 744.253 28.344 742.481 Q28.344 740.066 29.9221 738.584 Q31.468 737.071 33.7546 737.071 Q34.6886 737.071 35.5259 737.328 Q36.3311 737.554 38.4889 738.391 Q47.1845 741.773 51.4356 741.773 Q52.4662 741.773 53.3358 741.612 Q54.1731 741.418 55.0105 741 Q55.8156 740.581 56.2987 739.744 Q56.7496 738.874 56.7496 737.683 Q56.7496 736.169 56.0411 734.752 Q55.3003 733.303 54.302 732.401 Q53.3036 731.467 52.4662 730.919 Q51.5967 730.34 51.1458 730.211 L39.294 727.248 L34.0123 725.927 Q31.146 725.316 30.4374 725.026 Q29.7611 724.639 29.4068 723.963 Q29.0526 723.287 29.0526 722.707 Q29.0526 721.902 29.5357 721.354 Q30.0187 720.775 30.8561 720.775 Z" fill="#000000" fill-rule="nonzero" fill-opacity="1" /><polyline clip-path="url(#clip942)" style="stroke:#009af9; stroke-linecap:round; stroke-linejoin:round; stroke-width:4; stroke-opacity:1; fill:none" points="279.759,1150.2 283.69,1195.62 287.621,1273.9 291.551,1321.02 295.482,1243.72 299.413,1158.4 303.344,1084.96 307.275,1114.71 311.206,1025 315.137,1187.24 319.068,1138.17 322.999,1102.97 326.929,1182.62 330.86,1170.4 334.791,1205.51 338.722,1127.2 342.653,1148.07 346.584,1134.73 350.515,1214.79 354.446,1144.23 358.377,1185.33 362.308,1147.9 366.238,1241.42 370.169,1281.66 374.1,1183.07 378.031,1157.58 381.962,1134.34 385.893,1138.92 389.824,1116.97 393.755,1145.93 397.686,1022.19 401.616,1057.53 405.547,1122.01 409.478,1213.83 413.409,1129.84 417.34,1130.8 421.271,1130.88 425.202,1070.35 429.133,1111.62 433.064,1120.53 436.995,1257.38 440.925,1121.43 444.856,1056.24 448.787,1063.88 452.718,1226.84 456.649,1169.95 460.58,1050.32 464.511,1241.14 468.442,1314.45 472.373,1209.35 476.304,1135.49 480.234,1077.33 484.165,1140.27 488.096,1210.01 492.027,1194.66 495.958,1084.56 499.889,1335.18 503.82,1187.94 507.751,1267.56 511.682,990.702 515.612,1102.81 519.543,1176.47 523.474,1131.92 527.405,1191.69 531.336,1060.94 535.267,1144.64 539.198,1181.57 543.129,1091.53 547.06,1162.22 550.991,1240 554.921,1062.92 558.852,1100.35 562.783,1024.88 566.714,1056.34 570.645,1144.19 574.576,1077.07 578.507,1204.33 582.438,1131.88 586.369,1151.39 590.299,1084.19 594.23,1009.37 598.161,1198.21 602.092,1198.93 606.023,1187.85 609.954,1160.81 613.885,1159 617.816,1195.88 621.747,1116.79 625.678,1106.07 629.608,1046.87 633.539,1121.98 637.47,1031.98 641.401,970.498 645.332,1246.38 649.263,1209.03 653.194,1158.74 657.125,1123.87 661.056,1158.8 664.987,1091.91 668.917,1133.21 672.848,1189.38 676.779,1110.81 680.71,1125.24 684.641,1065.41 688.572,1136.16 692.503,1188.42 696.434,1247.09 700.365,1163.84 704.295,1002.28 708.226,976.338 712.157,1120.63 716.088,1086.33 720.019,1094.34 723.95,1175.58 727.881,1222.41 731.812,1325.7 735.743,1230.15 739.674,1223.68 743.604,1182.93 747.535,1173.9 751.466,1159.14 755.397,933.202 759.328,1129.3 763.259,1218.67 767.19,1312.18 771.121,1301.2 775.052,1210.05 778.982,1271.64 782.913,1125.45 786.844,1132.75 790.775,1137.66 794.706,1067.7 798.637,1174.26 802.568,1080.84 806.499,1248.79 810.43,1207.78 814.361,1161.47 818.291,1229.58 822.222,1238.56 826.153,1164.97 830.084,1146 834.015,1167.01 837.946,1175.72 841.877,1090.34 845.808,1171.53 849.739,1160.26 853.669,1219.72 857.6,1170.52 861.531,1312.09 865.462,1300.03 869.393,1156.03 873.324,1032.23 877.255,1034.39 881.186,1043.32 885.117,1015.42 889.048,1213.38 892.978,1275.86 896.909,1023.23 900.84,1116.16 904.771,1123.87 908.702,1165.4 912.633,1176.98 916.564,1326.25 920.495,1303.81 924.426,1198.71 928.357,1178.64 932.287,1144.21 936.218,1097.32 940.149,1093.05 944.08,1153.14 948.011,1216.91 951.942,1166.64 955.873,1150.34 959.804,1177.18 963.735,1192.11 967.665,1088.92 971.596,1192.52 975.527,1170.78 979.458,1271.03 983.389,1175.06 987.32,1221.63 991.251,1165.54 995.182,1260.73 999.113,1154.22 1003.04,1258.73 1006.97,1151.5 1010.91,1117.84 1014.84,1195.65 1018.77,1142.35 1022.7,1165.2 1026.63,1154 1030.56,1154.91 1034.49,1220.68 1038.42,1134.18 1042.35,1217.64 1046.28,1115.55 1050.21,1165.92 1054.15,1139.23 1058.08,1127.03 1062.01,1067.44 1065.94,1008.79 1069.87,1128.06 1073.8,1165.02 1077.73,1212.03 1081.66,1172.79 1085.59,1192.43 1089.52,1162.61 1093.45,1101.4 1097.39,1274.3 1101.32,1209.74 1105.25,1226.78 1109.18,1093.32 1113.11,1156.39 1117.04,1136.67 1120.97,1075.41 1124.9,1081.79 1128.83,1010.03 1132.76,1121.43 1136.69,997.564 1140.62,1050.41 1144.56,1069 1148.49,1105.24 1152.42,1020.29 1156.35,1175.58 1160.28,1170.69 1164.21,1170.28 1168.14,1175.01 1172.07,1069.18 1176,1213.33 1179.93,1330.51 1183.86,1308.99 1187.8,1293.14 1191.73,1296.21 1195.66,1147.1 1199.59,1210.06 1203.52,1202.25 1207.45,1156.95 1211.38,1140.12 1215.31,1127.99 1219.24,1150.52 1223.17,1080.57 1227.1,1176.76 1231.04,1154.91 1234.97,1143.47 1238.9,1220.38 1242.83,1182.61 1246.76,1154.22 1250.69,1198.29 1254.62,1001.95 1258.55,1156.54 1262.48,1218.17 1266.41,1241.64 1270.34,1205.64 1274.28,1231.28 1278.21,1272.62 1282.14,1323.05 1286.07,1194.56 1290,1076.13 1293.93,1199.89 1297.86,1089.29 1301.79,1239.85 1305.72,1177.85 1309.65,1252.33 1313.58,1253.45 1317.52,1058.87 1321.45,999.5 1325.38,1090.12 1329.31,1110.41 1333.24,1113.2 1337.17,1040.01 1341.1,1135.31 1345.03,1060.27 1348.96,1114.69 1352.89,1178.32 1356.82,1186.19 1360.76,1135.53 1364.69,1106.01 1368.62,1109.23 1372.55,1078.43 1376.48,1169.37 1380.41,1187.76 1384.34,1144.6 1388.27,1140.57 1392.2,1076.48 1396.13,1288.57 1400.06,1329.55 1403.99,1358.06 1407.93,1295.6 1411.86,1291.45 1415.79,1384.24 1419.72,1343.75 1423.65,1261.65 1427.58,1179.92 1431.51,1031.08 1435.44,1085.05 1439.37,1090.99 1443.3,1068.35 1447.23,1023.6 1451.17,1010.12 1455.1,1075.86 1459.03,935.794 1462.96,998.762 1466.89,1162.25 1470.82,1074.66 1474.75,1085.75 1478.68,855.758 1482.61,1117.84 1486.54,1205.03 1490.47,1219.19 1494.41,1168.74 1498.34,1246.96 1502.27,1202.38 1506.2,1219.93 1510.13,1046.92 1514.06,1170.24 1517.99,1069.76 1521.92,1023.33 1525.85,1043.1 1529.78,1138.4 1533.71,1043.27 1537.65,1060.44 1541.58,1190.23 1545.51,1130.84 1549.44,1174.97 1553.37,1222.93 1557.3,1119.61 1561.23,1062.38 1565.16,1165.15 1569.09,1137.6 1573.02,1120.2 1576.95,1063.77 1580.89,1066.91 1584.82,1232.57 1588.75,1293.33 1592.68,1121.07 1596.61,1192.74 1600.54,1188.79 1604.47,1080.68 1608.4,1123.13 1612.33,1093.14 1616.26,979.066 1620.19,1011.02 1624.13,1037.09 1628.06,1050.21 1631.99,1098.13 1635.92,1168.68 1639.85,1047.02 1643.78,1099.75 1647.71,1187.86 1651.64,1199.35 1655.57,1178.47 1659.5,1172.41 1663.43,1165.69 1667.36,1181.03 1671.3,1304.92 1675.23,1332.42 1679.16,1137.98 1683.09,1176.17 1687.02,1183.74 1690.95,1152.72 1694.88,1129.64 1698.81,1229.19 1702.74,1198.58 1706.67,1194.73 1710.6,1292.73 1714.54,1305.05 1718.47,1129.18 1722.4,1193.97 1726.33,1105.45 1730.26,1138.63 1734.19,1265.23 1738.12,1166.12 1742.05,1108.4 1745.98,1038.25 1749.91,1061.58 1753.84,1146.13 1757.78,1087.39 1761.71,1035.4 1765.64,1085.11 1769.57,1220.73 1773.5,1048.76 1777.43,1083.24 1781.36,1195.86 1785.29,1222.76 1789.22,1261.35 1793.15,1171.41 1797.08,1200.88 1801.02,1114.58 1804.95,1059.24 1808.88,1127.75 1812.81,1012.68 1816.74,1055.84 1820.67,1179.65 1824.6,1209.7 1828.53,1119.89 1832.46,1138.67 1836.39,1030.59 1840.32,1044.71 1844.26,949.937 1848.19,1137.51 1852.12,1169.37 1856.05,1212.18 1859.98,1163.29 1863.91,1208.05 1867.84,1316.41 1871.77,1186.03 1875.7,1235.47 1879.63,1068.08 1883.56,1209.45 1887.5,1269.68 1891.43,1208.35 1895.36,1213.48 1899.29,1202.42 1903.22,1196.56 1907.15,1216.95 1911.08,1187.81 1915.01,1074.49 1918.94,1107.63 1922.87,1076.74 1926.8,1082.49 1930.73,1114.31 1934.67,1032.66 1938.6,1158.84 1942.53,1207.3 1946.46,1185.92 1950.39,1203.4 1954.32,1128.68 1958.25,1248.19 1962.18,1060.11 1966.11,982.916 1970.04,1015.55 1973.97,1139.73 1977.91,1102.2 1981.84,1221.59 1985.77,1139.8 1989.7,1123.48 1993.63,1180.13 1997.56,1090.37 2001.49,1225.19 2005.42,1152.43 2009.35,1093.19 2013.28,1197.26 2017.21,1174.9 2021.15,1203.61 2025.08,1153.57 2029.01,1176.96 2032.94,1200.94 2036.87,1140.94 2040.8,1174.52 2044.73,1212.2 2048.66,1234.99 2052.59,1224.72 2056.52,1136.81 2060.45,1156.73 2064.39,1085.65 2068.32,1085.16 2072.25,1080.73 2076.18,1041.13 2080.11,1130.19 2084.04,1041.82 2087.97,1217.62 2091.9,1249.28 2095.83,1263.05 2099.76,1121.15 2103.69,1296.52 2107.63,1261.91 2111.56,1207.51 2115.49,1253.33 2119.42,1096.79 2123.35,1146.25 2127.28,1144.8 2131.21,1000.81 2135.14,1127.65 2139.07,1110.34 2143,1092.81 2146.93,955.625 2150.87,1112.61 2154.8,1020.45 2158.73,1043.36 2162.66,1073.69 2166.59,1173.05 2170.52,1154.05 2174.45,1265.06 2178.38,1242 2182.31,1216.56 2186.24,1207.92 2190.17,1171.45 2194.1,1154.18 2198.04,1230.05 2201.97,1269.99 2205.9,1272.58 2209.83,1275.4 2213.76,1240.98 2217.69,1120.66 2221.62,1226.4 2225.55,1226.19 2229.48,1162.75 2233.41,1113.34 2237.34,1087.66 2241.28,962.573 2245.21,1099.49 2249.14,1183.17 2253.07,1310.18 2257,1361.19 2260.93,1240.7 2264.86,1139.62 2268.79,1175.65 2272.72,1107.06 2276.65,1070.15 2280.58,1062.3 2284.52,1062.7 2288.45,1157.66 2292.38,1222.77 "/>
<polyline clip-path="url(#clip942)" style="stroke:#e26f46; stroke-linecap:round; stroke-linejoin:round; stroke-width:4; stroke-opacity:1; fill:none" points="279.759,590.828 283.69,603.219 287.621,615.229 291.551,626.87 295.482,638.152 299.413,649.087 303.344,659.686 307.275,669.959 311.206,679.915 315.137,689.566 319.068,698.919 322.999,707.985 326.929,716.772 330.86,725.288 334.791,733.542 338.722,741.543 342.653,749.297 346.584,756.813 350.515,764.097 354.446,771.158 358.377,778.001 362.308,784.633 366.238,791.062 370.169,797.292 374.1,803.332 378.031,809.185 381.962,814.858 385.893,820.356 389.824,825.686 393.755,830.851 397.686,835.858 401.616,840.71 405.547,845.414 409.478,849.972 413.409,854.39 417.34,858.673 421.271,862.823 425.202,866.846 429.133,870.745 433.064,874.524 436.995,878.187 440.925,881.737 444.856,885.178 448.787,888.513 452.718,891.746 456.649,894.879 460.58,897.915 464.511,900.859 468.442,903.711 472.373,906.476 476.304,909.156 480.234,911.753 484.165,859.526 488.096,863.65 492.027,867.647 495.958,871.522 499.889,875.277 503.82,878.917 507.751,882.444 511.682,885.864 515.612,889.178 519.543,892.39 523.474,895.503 527.405,898.52 531.336,901.445 535.267,904.279 539.198,907.027 543.129,909.69 547.06,912.27 550.991,914.772 554.921,917.197 558.852,919.547 562.783,921.824 566.714,924.032 570.645,926.171 574.576,928.245 578.507,930.255 582.438,932.204 586.369,934.092 590.299,935.922 594.23,937.696 598.161,939.415 602.092,941.081 606.023,942.697 609.954,944.262 613.885,945.779 617.816,947.25 621.747,948.675 625.678,950.057 629.608,951.396 633.539,952.693 637.47,953.951 641.401,955.17 645.332,956.352 649.263,957.497 653.194,958.607 657.125,959.683 661.056,960.726 664.987,961.737 668.917,962.716 672.848,963.666 676.779,964.586 680.71,965.478 684.641,966.342 688.572,967.18 692.503,967.992 696.434,968.78 700.365,969.543 704.295,970.282 708.226,970.999 712.157,971.693 716.088,972.367 720.019,973.019 723.95,973.652 727.881,974.265 731.812,974.859 735.743,975.435 739.674,975.993 743.604,976.534 747.535,977.058 751.466,977.566 755.397,978.059 759.328,978.536 763.259,978.999 767.19,979.448 771.121,979.882 775.052,980.304 778.982,980.712 782.913,981.108 786.844,981.492 790.775,981.863 794.706,982.224 798.637,982.573 802.568,982.912 806.499,983.24 810.43,983.558 814.361,983.866 818.291,984.165 822.222,984.454 826.153,984.735 830.084,985.007 834.015,985.271 837.946,985.526 841.877,985.774 845.808,986.014 849.739,986.247 853.669,986.472 857.6,735.654 861.531,743.59 865.462,751.281 869.393,758.736 873.324,765.961 877.255,772.964 881.186,779.752 885.117,786.33 889.048,792.707 892.978,798.887 896.909,804.877 900.84,810.682 904.771,816.309 908.702,821.763 912.633,827.049 916.564,832.173 920.495,837.139 924.426,841.952 928.357,846.617 932.287,851.138 936.218,855.521 940.149,859.768 944.08,863.885 948.011,867.875 951.942,871.743 955.873,875.491 959.804,879.124 963.735,882.646 967.665,886.059 971.596,889.367 975.527,892.573 979.458,895.68 983.389,770.285 987.32,777.155 991.251,783.814 995.182,790.267 999.113,796.523 1003.04,802.585 1006.97,808.462 1010.91,814.157 1014.84,819.677 1018.77,825.027 1022.7,830.213 1026.63,835.239 1030.56,840.111 1034.49,844.832 1038.42,849.409 1042.35,853.844 1046.28,858.144 1050.21,862.31 1054.15,866.349 1058.08,870.263 1062.01,874.057 1065.94,877.735 1069.87,881.299 1073.8,884.753 1077.73,888.101 1081.66,891.346 1085.59,894.492 1089.52,897.54 1093.45,900.495 1097.39,903.359 1101.32,906.134 1105.25,908.825 1109.18,911.432 1113.11,913.96 1117.04,916.409 1120.97,918.783 1124.9,921.084 1128.83,923.315 1132.76,925.477 1136.69,927.572 1140.62,929.603 1144.56,931.571 1148.49,933.479 1152.42,935.328 1156.35,937.12 1160.28,938.857 1164.21,940.54 1168.14,942.172 1172.07,943.754 1176,945.286 1179.93,946.772 1183.86,948.212 1187.8,949.608 1191.73,950.961 1195.66,952.272 1199.59,953.543 1203.52,954.774 1207.45,955.968 1211.38,957.125 1215.31,958.247 1219.24,959.334 1223.17,960.387 1227.1,961.408 1231.04,962.398 1234.97,963.357 1238.9,964.287 1242.83,965.188 1246.76,966.062 1250.69,966.908 1254.62,967.729 1258.55,968.524 1262.48,969.295 1266.41,970.042 1270.34,970.766 1274.28,971.468 1278.21,972.148 1282.14,972.807 1286.07,973.446 1290,974.066 1293.93,974.666 1297.86,975.248 1301.79,975.812 1305.72,976.358 1309.65,976.888 1313.58,977.401 1317.52,977.899 1321.45,978.381 1325.38,978.849 1329.31,979.302 1333.24,979.741 1337.17,980.167 1341.1,980.579 1345.03,980.979 1348.96,981.367 1352.89,981.743 1356.82,982.107 1360.76,982.46 1364.69,982.802 1368.62,983.133 1372.55,983.454 1376.48,983.766 1380.41,984.068 1384.34,984.36 1388.27,984.644 1392.2,984.919 1396.13,985.185 1400.06,985.443 1403.99,985.693 1407.93,985.936 1411.86,986.171 1415.79,986.399 1419.72,986.62 1423.65,986.834 1427.58,987.041 1431.51,987.242 1435.44,987.437 1439.37,987.626 1443.3,987.809 1447.23,987.987 1451.17,988.159 1455.1,988.325 1459.03,988.487 1462.96,988.643 1466.89,988.795 1470.82,988.942 1474.75,989.085 1478.68,989.223 1482.61,989.357 1486.54,989.487 1490.47,989.613 1494.41,989.735 1498.34,989.853 1502.27,989.967 1506.2,990.078 1510.13,990.186 1514.06,990.29 1517.99,990.392 1521.92,990.489 1525.85,990.584 1529.78,990.677 1533.71,990.766 1537.65,990.852 1541.58,990.936 1545.51,991.017 1549.44,991.096 1553.37,991.172 1557.3,991.246 1561.23,991.318 1565.16,991.388 1569.09,991.455 1573.02,991.52 1576.95,991.583 1580.89,991.645 1584.82,991.704 1588.75,991.762 1592.68,991.818 1596.61,991.872 1600.54,991.924 1604.47,991.975 1608.4,992.024 1612.33,992.072 1616.26,992.118 1620.19,992.163 1624.13,992.207 1628.06,992.249 1631.99,992.29 1635.92,992.329 1639.85,992.368 1643.78,992.405 1647.71,992.441 1651.64,992.476 1655.57,992.51 1659.5,992.543 1663.43,992.574 1667.36,992.605 1671.3,992.635 1675.23,992.664 1679.16,992.692 1683.09,992.719 1687.02,992.746 1690.95,992.771 1694.88,992.796 1698.81,992.82 1702.74,992.843 1706.67,992.866 1710.6,992.888 1714.54,992.909 1718.47,992.929 1722.4,992.949 1726.33,992.969 1730.26,992.987 1734.19,993.006 1738.12,993.023 1742.05,993.04 1745.98,993.057 1749.91,993.073 1753.84,993.088 1757.78,993.103 1761.71,993.118 1765.64,993.132 1769.57,993.146 1773.5,993.159 1777.43,993.172 1781.36,993.184 1785.29,993.196 1789.22,993.208 1793.15,993.219 1797.08,993.23 1801.02,993.241 1804.95,993.251 1808.88,993.261 1812.81,993.271 1816.74,993.28 1820.67,993.289 1824.6,993.298 1828.53,993.307 1832.46,993.315 1836.39,993.323 1840.32,993.331 1844.26,993.339 1848.19,993.346 1852.12,993.353 1856.05,993.36 1859.98,993.367 1863.91,993.373 1867.84,993.379 1871.77,993.385 1875.7,993.391 1879.63,993.397 1883.56,993.402 1887.5,993.408 1891.43,993.413 1895.36,993.418 1899.29,993.423 1903.22,993.428 1907.15,993.432 1911.08,993.437 1915.01,993.441 1918.94,366.874 1922.87,386.156 1926.8,404.844 1930.73,422.958 1934.67,440.514 1938.6,457.53 1942.53,474.022 1946.46,490.007 1950.39,505.5 1954.32,520.517 1958.25,535.071 1962.18,549.178 1966.11,562.851 1970.04,175.774 1973.97,200.936 1977.91,225.323 1981.84,248.959 1985.77,86.1857 1989.7,114.103 1993.63,141.162 1997.56,167.388 2001.49,192.807 2005.42,217.444 2009.35,241.323 2013.28,264.468 2017.21,286.9 2021.15,308.642 2025.08,329.715 2029.01,350.14 2032.94,369.937 2036.87,389.124 2040.8,407.721 2044.73,425.746 2048.66,443.216 2052.59,460.149 2056.52,476.561 2060.45,492.468 2064.39,507.885 2068.32,522.828 2072.25,537.312 2076.18,551.35 2080.11,564.955 2084.04,578.143 2087.97,590.924 2091.9,603.313 2095.83,615.32 2099.76,626.958 2103.69,638.237 2107.63,649.17 2111.56,659.766 2115.49,670.036 2119.42,679.991 2123.35,689.639 2127.28,698.99 2131.21,708.053 2135.14,716.838 2139.07,725.352 2143,733.605 2146.93,700.939 2150.87,709.942 2154.8,718.669 2158.73,727.127 2162.66,735.325 2166.59,743.27 2170.52,750.971 2174.45,758.436 2178.38,765.67 2182.31,772.682 2186.24,779.478 2190.17,786.065 2194.1,792.45 2198.04,798.638 2201.97,804.635 2205.9,810.449 2209.83,816.083 2213.76,821.544 2217.69,826.837 2221.62,831.967 2225.55,836.939 2229.48,841.758 2233.41,846.429 2237.34,850.956 2241.28,855.344 2245.21,859.597 2249.14,863.719 2253.07,867.715 2257,871.587 2260.93,875.34 2264.86,878.978 2268.79,882.504 2272.72,885.921 2276.65,889.233 2280.58,892.444 2284.52,895.555 2288.45,898.571 2292.38,901.494 "/>
<path clip-path="url(#clip940)" d="M290.493 248.629 L679.964 248.629 L679.964 93.1086 L290.493 93.1086  Z" fill="#ffffff" fill-rule="evenodd" fill-opacity="1"/>
<polyline clip-path="url(#clip940)" style="stroke:#000000; stroke-linecap:round; stroke-linejoin:round; stroke-width:4; stroke-opacity:1; fill:none" points="290.493,248.629 679.964,248.629 679.964,93.1086 290.493,93.1086 290.493,248.629 "/>
<polyline clip-path="url(#clip940)" style="stroke:#009af9; stroke-linecap:round; stroke-linejoin:round; stroke-width:4; stroke-opacity:1; fill:none" points="314.197,144.949 456.422,144.949 "/>
<path clip-path="url(#clip940)" d="M496.145 130.84 Q491.052 130.84 488.043 134.636 Q485.057 138.432 485.057 144.983 Q485.057 151.511 488.043 155.307 Q491.052 159.104 496.145 159.104 Q501.237 159.104 504.2 155.307 Q507.186 151.511 507.186 144.983 Q507.186 138.432 504.2 134.636 Q501.237 130.84 496.145 130.84 M496.145 127.044 Q503.413 127.044 507.765 131.928 Q512.117 136.789 512.117 144.983 Q512.117 153.155 507.765 158.039 Q503.413 162.9 496.145 162.9 Q488.853 162.9 484.478 158.039 Q480.126 153.178 480.126 144.983 Q480.126 136.789 484.478 131.928 Q488.853 127.044 496.145 127.044 Z" fill="#000000" fill-rule="nonzero" fill-opacity="1" /><path clip-path="url(#clip940)" d="M518.899 127.669 L523.598 127.669 L523.598 148.664 Q523.598 154.219 525.612 156.673 Q527.626 159.104 532.14 159.104 Q536.63 159.104 538.644 156.673 Q540.658 154.219 540.658 148.664 L540.658 127.669 L545.357 127.669 L545.357 149.243 Q545.357 156.002 542.001 159.451 Q538.667 162.9 532.14 162.9 Q525.589 162.9 522.232 159.451 Q518.899 156.002 518.899 149.243 L518.899 127.669 Z" fill="#000000" fill-rule="nonzero" fill-opacity="1" /><polyline clip-path="url(#clip940)" style="stroke:#e26f46; stroke-linecap:round; stroke-linejoin:round; stroke-width:4; stroke-opacity:1; fill:none" points="314.197,196.789 456.422,196.789 "/>
<path clip-path="url(#clip940)" d="M480.126 179.509 L484.802 179.509 L484.802 193.675 L501.793 193.675 L501.793 179.509 L506.469 179.509 L506.469 214.069 L501.793 214.069 L501.793 197.61 L484.802 197.61 L484.802 214.069 L480.126 214.069 L480.126 179.509 Z" fill="#000000" fill-rule="nonzero" fill-opacity="1" /><path clip-path="url(#clip940)" d="M527.371 201.036 Q522.209 201.036 520.218 202.217 Q518.228 203.397 518.228 206.245 Q518.228 208.513 519.709 209.856 Q521.214 211.175 523.783 211.175 Q527.325 211.175 529.455 208.675 Q531.607 206.152 531.607 201.985 L531.607 201.036 L527.371 201.036 M535.867 199.277 L535.867 214.069 L531.607 214.069 L531.607 210.133 Q530.149 212.495 527.973 213.629 Q525.797 214.74 522.649 214.74 Q518.668 214.74 516.306 212.518 Q513.968 210.272 513.968 206.522 Q513.968 202.147 516.885 199.925 Q519.825 197.703 525.635 197.703 L531.607 197.703 L531.607 197.286 Q531.607 194.347 529.663 192.749 Q527.742 191.129 524.246 191.129 Q522.024 191.129 519.918 191.661 Q517.811 192.194 515.867 193.259 L515.867 189.323 Q518.205 188.421 520.404 187.981 Q522.603 187.518 524.686 187.518 Q530.311 187.518 533.089 190.434 Q535.867 193.351 535.867 199.277 Z" fill="#000000" fill-rule="nonzero" fill-opacity="1" /><path clip-path="url(#clip940)" d="M542.163 188.143 L546.422 188.143 L551.746 208.374 L557.047 188.143 L562.07 188.143 L567.394 208.374 L572.695 188.143 L576.954 188.143 L570.172 214.069 L565.149 214.069 L559.57 192.819 L553.968 214.069 L548.945 214.069 L542.163 188.143 Z" fill="#000000" fill-rule="nonzero" fill-opacity="1" /><path clip-path="url(#clip940)" d="M583.251 178.05 L587.533 178.05 L587.533 199.323 L600.241 188.143 L605.681 188.143 L591.931 200.272 L606.26 214.069 L600.704 214.069 L587.533 201.407 L587.533 214.069 L583.251 214.069 L583.251 178.05 Z" fill="#000000" fill-rule="nonzero" fill-opacity="1" /><path clip-path="url(#clip940)" d="M631.352 200.041 L631.352 202.124 L611.769 202.124 Q612.047 206.522 614.408 208.837 Q616.792 211.129 621.028 211.129 Q623.482 211.129 625.773 210.527 Q628.088 209.925 630.357 208.721 L630.357 212.749 Q628.065 213.721 625.658 214.231 Q623.25 214.74 620.773 214.74 Q614.57 214.74 610.936 211.129 Q607.324 207.518 607.324 201.36 Q607.324 194.995 610.75 191.268 Q614.199 187.518 620.033 187.518 Q625.264 187.518 628.297 190.897 Q631.352 194.254 631.352 200.041 M627.093 198.791 Q627.047 195.296 625.125 193.212 Q623.227 191.129 620.079 191.129 Q616.514 191.129 614.361 193.143 Q612.232 195.157 611.908 198.814 L627.093 198.791 Z" fill="#000000" fill-rule="nonzero" fill-opacity="1" /><path clip-path="url(#clip940)" d="M654.871 188.907 L654.871 192.934 Q653.065 192.009 651.121 191.546 Q649.176 191.083 647.093 191.083 Q643.922 191.083 642.324 192.055 Q640.75 193.027 640.75 194.971 Q640.75 196.453 641.884 197.309 Q643.019 198.143 646.445 198.907 L647.903 199.231 Q652.44 200.203 654.338 201.985 Q656.259 203.745 656.259 206.916 Q656.259 210.527 653.389 212.633 Q650.542 214.74 645.542 214.74 Q643.459 214.74 641.19 214.323 Q638.945 213.93 636.445 213.12 L636.445 208.721 Q638.806 209.948 641.097 210.573 Q643.389 211.175 645.634 211.175 Q648.644 211.175 650.264 210.157 Q651.884 209.115 651.884 207.24 Q651.884 205.504 650.704 204.578 Q649.546 203.652 645.588 202.796 L644.107 202.448 Q640.148 201.615 638.389 199.902 Q636.63 198.166 636.63 195.157 Q636.63 191.499 639.222 189.509 Q641.815 187.518 646.584 187.518 Q648.945 187.518 651.028 187.865 Q653.111 188.212 654.871 188.907 Z" fill="#000000" fill-rule="nonzero" fill-opacity="1" /></svg>
