<?xml version="1.0" encoding="utf-8"?>
<svg xmlns="http://www.w3.org/2000/svg" xmlns:xlink="http://www.w3.org/1999/xlink" width="600" height="400" viewBox="0 0 2400 1600">
<defs>
  <clipPath id="clip560">
    <rect x="0" y="0" width="2400" height="1600"/>
  </clipPath>
</defs>
<path clip-path="url(#clip560)" d="M0 1600 L2400 1600 L2400 0 L0 0  Z" fill="#ffffff" fill-rule="evenodd" fill-opacity="1"/>
<defs>
  <clipPath id="clip561">
    <rect x="480" y="0" width="1681" height="1600"/>
  </clipPath>
</defs>
<path clip-path="url(#clip560)" d="M245.222 1427.5 L2352.76 1427.5 L2352.76 47.2441 L245.222 47.2441  Z" fill="#ffffff" fill-rule="evenodd" fill-opacity="1"/>
<defs>
  <clipPath id="clip562">
    <rect x="245" y="47" width="2109" height="1381"/>
  </clipPath>
</defs>
<polyline clip-path="url(#clip562)" style="stroke:#000000; stroke-linecap:round; stroke-linejoin:round; stroke-width:2; stroke-opacity:0.1; fill:none" points="304.869,1427.5 304.869,47.2441 "/>
<polyline clip-path="url(#clip562)" style="stroke:#000000; stroke-linecap:round; stroke-linejoin:round; stroke-width:2; stroke-opacity:0.1; fill:none" points="801.929,1427.5 801.929,47.2441 "/>
<polyline clip-path="url(#clip562)" style="stroke:#000000; stroke-linecap:round; stroke-linejoin:round; stroke-width:2; stroke-opacity:0.1; fill:none" points="1298.99,1427.5 1298.99,47.2441 "/>
<polyline clip-path="url(#clip562)" style="stroke:#000000; stroke-linecap:round; stroke-linejoin:round; stroke-width:2; stroke-opacity:0.1; fill:none" points="1796.05,1427.5 1796.05,47.2441 "/>
<polyline clip-path="url(#clip562)" style="stroke:#000000; stroke-linecap:round; stroke-linejoin:round; stroke-width:2; stroke-opacity:0.1; fill:none" points="2293.11,1427.5 2293.11,47.2441 "/>
<polyline clip-path="url(#clip560)" style="stroke:#000000; stroke-linecap:round; stroke-linejoin:round; stroke-width:4; stroke-opacity:1; fill:none" points="245.222,1427.5 2352.76,1427.5 "/>
<polyline clip-path="url(#clip560)" style="stroke:#000000; stroke-linecap:round; stroke-linejoin:round; stroke-width:4; stroke-opacity:1; fill:none" points="304.869,1427.5 304.869,1408.6 "/>
<polyline clip-path="url(#clip560)" style="stroke:#000000; stroke-linecap:round; stroke-linejoin:round; stroke-width:4; stroke-opacity:1; fill:none" points="801.929,1427.5 801.929,1408.6 "/>
<polyline clip-path="url(#clip560)" style="stroke:#000000; stroke-linecap:round; stroke-linejoin:round; stroke-width:4; stroke-opacity:1; fill:none" points="1298.99,1427.5 1298.99,1408.6 "/>
<polyline clip-path="url(#clip560)" style="stroke:#000000; stroke-linecap:round; stroke-linejoin:round; stroke-width:4; stroke-opacity:1; fill:none" points="1796.05,1427.5 1796.05,1408.6 "/>
<polyline clip-path="url(#clip560)" style="stroke:#000000; stroke-linecap:round; stroke-linejoin:round; stroke-width:4; stroke-opacity:1; fill:none" points="2293.11,1427.5 2293.11,1408.6 "/>
<path clip-path="url(#clip560)" d="M267.173 1458.42 Q263.562 1458.42 261.733 1461.98 Q259.927 1465.52 259.927 1472.65 Q259.927 1479.76 261.733 1483.33 Q263.562 1486.87 267.173 1486.87 Q270.807 1486.87 272.612 1483.33 Q274.441 1479.76 274.441 1472.65 Q274.441 1465.52 272.612 1461.98 Q270.807 1458.42 267.173 1458.42 M267.173 1454.71 Q272.983 1454.71 276.038 1459.32 Q279.117 1463.9 279.117 1472.65 Q279.117 1481.38 276.038 1485.99 Q272.983 1490.57 267.173 1490.57 Q261.363 1490.57 258.284 1485.99 Q255.228 1481.38 255.228 1472.65 Q255.228 1463.9 258.284 1459.32 Q261.363 1454.71 267.173 1454.71 Z" fill="#000000" fill-rule="nonzero" fill-opacity="1" /><path clip-path="url(#clip560)" d="M287.335 1484.02 L292.219 1484.02 L292.219 1489.9 L287.335 1489.9 L287.335 1484.02 Z" fill="#000000" fill-rule="nonzero" fill-opacity="1" /><path clip-path="url(#clip560)" d="M312.404 1458.42 Q308.793 1458.42 306.964 1461.98 Q305.159 1465.52 305.159 1472.65 Q305.159 1479.76 306.964 1483.33 Q308.793 1486.87 312.404 1486.87 Q316.038 1486.87 317.844 1483.33 Q319.672 1479.76 319.672 1472.65 Q319.672 1465.52 317.844 1461.98 Q316.038 1458.42 312.404 1458.42 M312.404 1454.71 Q318.214 1454.71 321.27 1459.32 Q324.348 1463.9 324.348 1472.65 Q324.348 1481.38 321.27 1485.99 Q318.214 1490.57 312.404 1490.57 Q306.594 1490.57 303.515 1485.99 Q300.46 1481.38 300.46 1472.65 Q300.46 1463.9 303.515 1459.32 Q306.594 1454.71 312.404 1454.71 Z" fill="#000000" fill-rule="nonzero" fill-opacity="1" /><path clip-path="url(#clip560)" d="M342.566 1458.42 Q338.955 1458.42 337.126 1461.98 Q335.32 1465.52 335.32 1472.65 Q335.32 1479.76 337.126 1483.33 Q338.955 1486.87 342.566 1486.87 Q346.2 1486.87 348.006 1483.33 Q349.834 1479.76 349.834 1472.65 Q349.834 1465.52 348.006 1461.98 Q346.2 1458.42 342.566 1458.42 M342.566 1454.71 Q348.376 1454.71 351.431 1459.32 Q354.51 1463.9 354.51 1472.65 Q354.51 1481.38 351.431 1485.99 Q348.376 1490.57 342.566 1490.57 Q336.756 1490.57 333.677 1485.99 Q330.621 1481.38 330.621 1472.65 Q330.621 1463.9 333.677 1459.32 Q336.756 1454.71 342.566 1454.71 Z" fill="#000000" fill-rule="nonzero" fill-opacity="1" /><path clip-path="url(#clip560)" d="M764.73 1458.42 Q761.119 1458.42 759.29 1461.98 Q757.485 1465.52 757.485 1472.65 Q757.485 1479.76 759.29 1483.33 Q761.119 1486.87 764.73 1486.87 Q768.364 1486.87 770.17 1483.33 Q771.999 1479.76 771.999 1472.65 Q771.999 1465.52 770.17 1461.98 Q768.364 1458.42 764.73 1458.42 M764.73 1454.71 Q770.54 1454.71 773.596 1459.32 Q776.675 1463.9 776.675 1472.65 Q776.675 1481.38 773.596 1485.99 Q770.54 1490.57 764.73 1490.57 Q758.92 1490.57 755.841 1485.99 Q752.786 1481.38 752.786 1472.65 Q752.786 1463.9 755.841 1459.32 Q758.92 1454.71 764.73 1454.71 Z" fill="#000000" fill-rule="nonzero" fill-opacity="1" /><path clip-path="url(#clip560)" d="M784.892 1484.02 L789.776 1484.02 L789.776 1489.9 L784.892 1489.9 L784.892 1484.02 Z" fill="#000000" fill-rule="nonzero" fill-opacity="1" /><path clip-path="url(#clip560)" d="M803.989 1485.96 L820.309 1485.96 L820.309 1489.9 L798.364 1489.9 L798.364 1485.96 Q801.026 1483.21 805.61 1478.58 Q810.216 1473.93 811.397 1472.59 Q813.642 1470.06 814.522 1468.33 Q815.424 1466.57 815.424 1464.88 Q815.424 1462.12 813.48 1460.39 Q811.559 1458.65 808.457 1458.65 Q806.258 1458.65 803.804 1459.41 Q801.374 1460.18 798.596 1461.73 L798.596 1457.01 Q801.42 1455.87 803.874 1455.29 Q806.327 1454.71 808.364 1454.71 Q813.735 1454.71 816.929 1457.4 Q820.123 1460.09 820.123 1464.58 Q820.123 1466.71 819.313 1468.63 Q818.526 1470.52 816.42 1473.12 Q815.841 1473.79 812.739 1477.01 Q809.637 1480.2 803.989 1485.96 Z" fill="#000000" fill-rule="nonzero" fill-opacity="1" /><path clip-path="url(#clip560)" d="M830.17 1455.34 L848.526 1455.34 L848.526 1459.28 L834.452 1459.28 L834.452 1467.75 Q835.471 1467.4 836.489 1467.24 Q837.508 1467.05 838.526 1467.05 Q844.313 1467.05 847.693 1470.22 Q851.072 1473.4 851.072 1478.81 Q851.072 1484.39 847.6 1487.49 Q844.128 1490.57 837.809 1490.57 Q835.633 1490.57 833.364 1490.2 Q831.119 1489.83 828.711 1489.09 L828.711 1484.39 Q830.795 1485.52 833.017 1486.08 Q835.239 1486.64 837.716 1486.64 Q841.721 1486.64 844.058 1484.53 Q846.396 1482.42 846.396 1478.81 Q846.396 1475.2 844.058 1473.09 Q841.721 1470.99 837.716 1470.99 Q835.841 1470.99 833.966 1471.4 Q832.114 1471.82 830.17 1472.7 L830.17 1455.34 Z" fill="#000000" fill-rule="nonzero" fill-opacity="1" /><path clip-path="url(#clip560)" d="M1261.29 1458.42 Q1257.68 1458.42 1255.85 1461.98 Q1254.05 1465.52 1254.05 1472.65 Q1254.05 1479.76 1255.85 1483.33 Q1257.68 1486.87 1261.29 1486.87 Q1264.93 1486.87 1266.73 1483.33 Q1268.56 1479.76 1268.56 1472.65 Q1268.56 1465.52 1266.73 1461.98 Q1264.93 1458.42 1261.29 1458.42 M1261.29 1454.71 Q1267.1 1454.71 1270.16 1459.32 Q1273.24 1463.9 1273.24 1472.65 Q1273.24 1481.38 1270.16 1485.99 Q1267.1 1490.57 1261.29 1490.57 Q1255.48 1490.57 1252.4 1485.99 Q1249.35 1481.38 1249.35 1472.65 Q1249.35 1463.9 1252.4 1459.32 Q1255.48 1454.71 1261.29 1454.71 Z" fill="#000000" fill-rule="nonzero" fill-opacity="1" /><path clip-path="url(#clip560)" d="M1281.45 1484.02 L1286.34 1484.02 L1286.34 1489.9 L1281.45 1489.9 L1281.45 1484.02 Z" fill="#000000" fill-rule="nonzero" fill-opacity="1" /><path clip-path="url(#clip560)" d="M1296.57 1455.34 L1314.93 1455.34 L1314.93 1459.28 L1300.85 1459.28 L1300.85 1467.75 Q1301.87 1467.4 1302.89 1467.24 Q1303.91 1467.05 1304.93 1467.05 Q1310.71 1467.05 1314.09 1470.22 Q1317.47 1473.4 1317.47 1478.81 Q1317.47 1484.39 1314 1487.49 Q1310.53 1490.57 1304.21 1490.57 Q1302.03 1490.57 1299.76 1490.2 Q1297.52 1489.83 1295.11 1489.09 L1295.11 1484.39 Q1297.19 1485.52 1299.42 1486.08 Q1301.64 1486.64 1304.12 1486.64 Q1308.12 1486.64 1310.46 1484.53 Q1312.8 1482.42 1312.8 1478.81 Q1312.8 1475.2 1310.46 1473.09 Q1308.12 1470.99 1304.12 1470.99 Q1302.24 1470.99 1300.37 1471.4 Q1298.51 1471.82 1296.57 1472.7 L1296.57 1455.34 Z" fill="#000000" fill-rule="nonzero" fill-opacity="1" /><path clip-path="url(#clip560)" d="M1336.69 1458.42 Q1333.07 1458.42 1331.25 1461.98 Q1329.44 1465.52 1329.44 1472.65 Q1329.44 1479.76 1331.25 1483.33 Q1333.07 1486.87 1336.69 1486.87 Q1340.32 1486.87 1342.13 1483.33 Q1343.95 1479.76 1343.95 1472.65 Q1343.95 1465.52 1342.13 1461.98 Q1340.32 1458.42 1336.69 1458.42 M1336.69 1454.71 Q1342.5 1454.71 1345.55 1459.32 Q1348.63 1463.9 1348.63 1472.65 Q1348.63 1481.38 1345.55 1485.99 Q1342.5 1490.57 1336.69 1490.57 Q1330.88 1490.57 1327.8 1485.99 Q1324.74 1481.38 1324.74 1472.65 Q1324.74 1463.9 1327.8 1459.32 Q1330.88 1454.71 1336.69 1454.71 Z" fill="#000000" fill-rule="nonzero" fill-opacity="1" /><path clip-path="url(#clip560)" d="M1758.85 1458.42 Q1755.24 1458.42 1753.41 1461.98 Q1751.6 1465.52 1751.6 1472.65 Q1751.6 1479.76 1753.41 1483.33 Q1755.24 1486.87 1758.85 1486.87 Q1762.48 1486.87 1764.29 1483.33 Q1766.12 1479.76 1766.12 1472.65 Q1766.12 1465.52 1764.29 1461.98 Q1762.48 1458.42 1758.85 1458.42 M1758.85 1454.71 Q1764.66 1454.71 1767.72 1459.32 Q1770.79 1463.9 1770.79 1472.65 Q1770.79 1481.38 1767.72 1485.99 Q1764.66 1490.57 1758.85 1490.57 Q1753.04 1490.57 1749.96 1485.99 Q1746.91 1481.38 1746.91 1472.65 Q1746.91 1463.9 1749.96 1459.32 Q1753.04 1454.71 1758.85 1454.71 Z" fill="#000000" fill-rule="nonzero" fill-opacity="1" /><path clip-path="url(#clip560)" d="M1779.01 1484.02 L1783.9 1484.02 L1783.9 1489.9 L1779.01 1489.9 L1779.01 1484.02 Z" fill="#000000" fill-rule="nonzero" fill-opacity="1" /><path clip-path="url(#clip560)" d="M1792.9 1455.34 L1815.12 1455.34 L1815.12 1457.33 L1802.58 1489.9 L1797.69 1489.9 L1809.5 1459.28 L1792.9 1459.28 L1792.9 1455.34 Z" fill="#000000" fill-rule="nonzero" fill-opacity="1" /><path clip-path="url(#clip560)" d="M1824.29 1455.34 L1842.65 1455.34 L1842.65 1459.28 L1828.57 1459.28 L1828.57 1467.75 Q1829.59 1467.4 1830.61 1467.24 Q1831.63 1467.05 1832.65 1467.05 Q1838.43 1467.05 1841.81 1470.22 Q1845.19 1473.4 1845.19 1478.81 Q1845.19 1484.39 1841.72 1487.49 Q1838.25 1490.57 1831.93 1490.57 Q1829.75 1490.57 1827.48 1490.2 Q1825.24 1489.83 1822.83 1489.09 L1822.83 1484.39 Q1824.91 1485.52 1827.14 1486.08 Q1829.36 1486.64 1831.84 1486.64 Q1835.84 1486.64 1838.18 1484.53 Q1840.52 1482.42 1840.52 1478.81 Q1840.52 1475.2 1838.18 1473.09 Q1835.84 1470.99 1831.84 1470.99 Q1829.96 1470.99 1828.09 1471.4 Q1826.23 1471.82 1824.29 1472.7 L1824.29 1455.34 Z" fill="#000000" fill-rule="nonzero" fill-opacity="1" /><path clip-path="url(#clip560)" d="M2245.18 1485.96 L2252.82 1485.96 L2252.82 1459.6 L2244.51 1461.27 L2244.51 1457.01 L2252.77 1455.34 L2257.45 1455.34 L2257.45 1485.96 L2265.09 1485.96 L2265.09 1489.9 L2245.18 1489.9 L2245.18 1485.96 Z" fill="#000000" fill-rule="nonzero" fill-opacity="1" /><path clip-path="url(#clip560)" d="M2274.53 1484.02 L2279.42 1484.02 L2279.42 1489.9 L2274.53 1489.9 L2274.53 1484.02 Z" fill="#000000" fill-rule="nonzero" fill-opacity="1" /><path clip-path="url(#clip560)" d="M2299.6 1458.42 Q2295.99 1458.42 2294.16 1461.98 Q2292.36 1465.52 2292.36 1472.65 Q2292.36 1479.76 2294.16 1483.33 Q2295.99 1486.87 2299.6 1486.87 Q2303.24 1486.87 2305.04 1483.33 Q2306.87 1479.76 2306.87 1472.65 Q2306.87 1465.52 2305.04 1461.98 Q2303.24 1458.42 2299.6 1458.42 M2299.6 1454.71 Q2305.41 1454.71 2308.47 1459.32 Q2311.55 1463.9 2311.55 1472.65 Q2311.55 1481.38 2308.47 1485.99 Q2305.41 1490.57 2299.6 1490.57 Q2293.79 1490.57 2290.71 1485.99 Q2287.66 1481.38 2287.66 1472.65 Q2287.66 1463.9 2290.71 1459.32 Q2293.79 1454.71 2299.6 1454.71 Z" fill="#000000" fill-rule="nonzero" fill-opacity="1" /><path clip-path="url(#clip560)" d="M2329.76 1458.42 Q2326.15 1458.42 2324.32 1461.98 Q2322.52 1465.52 2322.52 1472.65 Q2322.52 1479.76 2324.32 1483.33 Q2326.15 1486.87 2329.76 1486.87 Q2333.4 1486.87 2335.2 1483.33 Q2337.03 1479.76 2337.03 1472.65 Q2337.03 1465.52 2335.2 1461.98 Q2333.4 1458.42 2329.76 1458.42 M2329.76 1454.71 Q2335.57 1454.71 2338.63 1459.32 Q2341.71 1463.9 2341.71 1472.65 Q2341.71 1481.38 2338.63 1485.99 Q2335.57 1490.57 2329.76 1490.57 Q2323.95 1490.57 2320.87 1485.99 Q2317.82 1481.38 2317.82 1472.65 Q2317.82 1463.9 2320.87 1459.32 Q2323.95 1454.71 2329.76 1454.71 Z" fill="#000000" fill-rule="nonzero" fill-opacity="1" /><path clip-path="url(#clip560)" d="M1282.52 1523.98 L1288.37 1523.98 L1288.37 1541.69 L1309.61 1541.69 L1309.61 1523.98 L1315.45 1523.98 L1315.45 1567.18 L1309.61 1567.18 L1309.61 1546.61 L1288.37 1546.61 L1288.37 1567.18 L1282.52 1567.18 L1282.52 1523.98 Z" fill="#000000" fill-rule="nonzero" fill-opacity="1" /><polyline clip-path="url(#clip562)" style="stroke:#000000; stroke-linecap:round; stroke-linejoin:round; stroke-width:2; stroke-opacity:0.1; fill:none" points="245.222,1321.33 2352.76,1321.33 "/>
<polyline clip-path="url(#clip562)" style="stroke:#000000; stroke-linecap:round; stroke-linejoin:round; stroke-width:2; stroke-opacity:0.1; fill:none" points="245.222,1055.89 2352.76,1055.89 "/>
<polyline clip-path="url(#clip562)" style="stroke:#000000; stroke-linecap:round; stroke-linejoin:round; stroke-width:2; stroke-opacity:0.1; fill:none" points="245.222,790.459 2352.76,790.459 "/>
<polyline clip-path="url(#clip562)" style="stroke:#000000; stroke-linecap:round; stroke-linejoin:round; stroke-width:2; stroke-opacity:0.1; fill:none" points="245.222,525.025 2352.76,525.025 "/>
<polyline clip-path="url(#clip562)" style="stroke:#000000; stroke-linecap:round; stroke-linejoin:round; stroke-width:2; stroke-opacity:0.1; fill:none" points="245.222,259.591 2352.76,259.591 "/>
<polyline clip-path="url(#clip560)" style="stroke:#000000; stroke-linecap:round; stroke-linejoin:round; stroke-width:4; stroke-opacity:1; fill:none" points="245.222,1427.5 245.222,47.2441 "/>
<polyline clip-path="url(#clip560)" style="stroke:#000000; stroke-linecap:round; stroke-linejoin:round; stroke-width:4; stroke-opacity:1; fill:none" points="245.222,1321.33 264.12,1321.33 "/>
<polyline clip-path="url(#clip560)" style="stroke:#000000; stroke-linecap:round; stroke-linejoin:round; stroke-width:4; stroke-opacity:1; fill:none" points="245.222,1055.89 264.12,1055.89 "/>
<polyline clip-path="url(#clip560)" style="stroke:#000000; stroke-linecap:round; stroke-linejoin:round; stroke-width:4; stroke-opacity:1; fill:none" points="245.222,790.459 264.12,790.459 "/>
<polyline clip-path="url(#clip560)" style="stroke:#000000; stroke-linecap:round; stroke-linejoin:round; stroke-width:4; stroke-opacity:1; fill:none" points="245.222,525.025 264.12,525.025 "/>
<polyline clip-path="url(#clip560)" style="stroke:#000000; stroke-linecap:round; stroke-linejoin:round; stroke-width:4; stroke-opacity:1; fill:none" points="245.222,259.591 264.12,259.591 "/>
<path clip-path="url(#clip560)" d="M121.885 1307.13 Q118.273 1307.13 116.445 1310.69 Q114.639 1314.23 114.639 1321.36 Q114.639 1328.47 116.445 1332.03 Q118.273 1335.57 121.885 1335.57 Q125.519 1335.57 127.324 1332.03 Q129.153 1328.47 129.153 1321.36 Q129.153 1314.23 127.324 1310.69 Q125.519 1307.13 121.885 1307.13 M121.885 1303.42 Q127.695 1303.42 130.75 1308.03 Q133.829 1312.61 133.829 1321.36 Q133.829 1330.09 130.75 1334.69 Q127.695 1339.28 121.885 1339.28 Q116.074 1339.28 112.996 1334.69 Q109.94 1330.09 109.94 1321.36 Q109.94 1312.61 112.996 1308.03 Q116.074 1303.42 121.885 1303.42 Z" fill="#000000" fill-rule="nonzero" fill-opacity="1" /><path clip-path="url(#clip560)" d="M142.046 1332.73 L146.931 1332.73 L146.931 1338.61 L142.046 1338.61 L142.046 1332.73 Z" fill="#000000" fill-rule="nonzero" fill-opacity="1" /><path clip-path="url(#clip560)" d="M167.116 1307.13 Q163.505 1307.13 161.676 1310.69 Q159.87 1314.23 159.87 1321.36 Q159.87 1328.47 161.676 1332.03 Q163.505 1335.57 167.116 1335.57 Q170.75 1335.57 172.556 1332.03 Q174.384 1328.47 174.384 1321.36 Q174.384 1314.23 172.556 1310.69 Q170.75 1307.13 167.116 1307.13 M167.116 1303.42 Q172.926 1303.42 175.981 1308.03 Q179.06 1312.61 179.06 1321.36 Q179.06 1330.09 175.981 1334.69 Q172.926 1339.28 167.116 1339.28 Q161.306 1339.28 158.227 1334.69 Q155.171 1330.09 155.171 1321.36 Q155.171 1312.61 158.227 1308.03 Q161.306 1303.42 167.116 1303.42 Z" fill="#000000" fill-rule="nonzero" fill-opacity="1" /><path clip-path="url(#clip560)" d="M197.278 1307.13 Q193.667 1307.13 191.838 1310.69 Q190.032 1314.23 190.032 1321.36 Q190.032 1328.47 191.838 1332.03 Q193.667 1335.57 197.278 1335.57 Q200.912 1335.57 202.717 1332.03 Q204.546 1328.47 204.546 1321.36 Q204.546 1314.23 202.717 1310.69 Q200.912 1307.13 197.278 1307.13 M197.278 1303.42 Q203.088 1303.42 206.143 1308.03 Q209.222 1312.61 209.222 1321.36 Q209.222 1330.09 206.143 1334.69 Q203.088 1339.28 197.278 1339.28 Q191.467 1339.28 188.389 1334.69 Q185.333 1330.09 185.333 1321.36 Q185.333 1312.61 188.389 1308.03 Q191.467 1303.42 197.278 1303.42 Z" fill="#000000" fill-rule="nonzero" fill-opacity="1" /><path clip-path="url(#clip560)" d="M122.88 1041.69 Q119.269 1041.69 117.44 1045.26 Q115.635 1048.8 115.635 1055.93 Q115.635 1063.03 117.44 1066.6 Q119.269 1070.14 122.88 1070.14 Q126.514 1070.14 128.32 1066.6 Q130.148 1063.03 130.148 1055.93 Q130.148 1048.8 128.32 1045.26 Q126.514 1041.69 122.88 1041.69 M122.88 1037.99 Q128.69 1037.99 131.746 1042.59 Q134.824 1047.18 134.824 1055.93 Q134.824 1064.65 131.746 1069.26 Q128.69 1073.84 122.88 1073.84 Q117.07 1073.84 113.991 1069.26 Q110.936 1064.65 110.936 1055.93 Q110.936 1047.18 113.991 1042.59 Q117.07 1037.99 122.88 1037.99 Z" fill="#000000" fill-rule="nonzero" fill-opacity="1" /><path clip-path="url(#clip560)" d="M143.042 1067.29 L147.926 1067.29 L147.926 1073.17 L143.042 1073.17 L143.042 1067.29 Z" fill="#000000" fill-rule="nonzero" fill-opacity="1" /><path clip-path="url(#clip560)" d="M162.139 1069.24 L178.458 1069.24 L178.458 1073.17 L156.514 1073.17 L156.514 1069.24 Q159.176 1066.48 163.759 1061.85 Q168.366 1057.2 169.546 1055.86 Q171.792 1053.33 172.671 1051.6 Q173.574 1049.84 173.574 1048.15 Q173.574 1045.39 171.63 1043.66 Q169.708 1041.92 166.607 1041.92 Q164.407 1041.92 161.954 1042.69 Q159.523 1043.45 156.745 1045 L156.745 1040.28 Q159.57 1039.14 162.023 1038.57 Q164.477 1037.99 166.514 1037.99 Q171.884 1037.99 175.079 1040.67 Q178.273 1043.36 178.273 1047.85 Q178.273 1049.98 177.463 1051.9 Q176.676 1053.8 174.569 1056.39 Q173.991 1057.06 170.889 1060.28 Q167.787 1063.47 162.139 1069.24 Z" fill="#000000" fill-rule="nonzero" fill-opacity="1" /><path clip-path="url(#clip560)" d="M188.319 1038.61 L206.676 1038.61 L206.676 1042.55 L192.602 1042.55 L192.602 1051.02 Q193.62 1050.67 194.639 1050.51 Q195.657 1050.33 196.676 1050.33 Q202.463 1050.33 205.842 1053.5 Q209.222 1056.67 209.222 1062.08 Q209.222 1067.66 205.75 1070.77 Q202.278 1073.84 195.958 1073.84 Q193.782 1073.84 191.514 1073.47 Q189.268 1073.1 186.861 1072.36 L186.861 1067.66 Q188.944 1068.8 191.167 1069.35 Q193.389 1069.91 195.866 1069.91 Q199.87 1069.91 202.208 1067.8 Q204.546 1065.7 204.546 1062.08 Q204.546 1058.47 202.208 1056.37 Q199.87 1054.26 195.866 1054.26 Q193.991 1054.26 192.116 1054.68 Q190.264 1055.09 188.319 1055.97 L188.319 1038.61 Z" fill="#000000" fill-rule="nonzero" fill-opacity="1" /><path clip-path="url(#clip560)" d="M121.885 776.257 Q118.273 776.257 116.445 779.822 Q114.639 783.364 114.639 790.493 Q114.639 797.6 116.445 801.165 Q118.273 804.706 121.885 804.706 Q125.519 804.706 127.324 801.165 Q129.153 797.6 129.153 790.493 Q129.153 783.364 127.324 779.822 Q125.519 776.257 121.885 776.257 M121.885 772.554 Q127.695 772.554 130.75 777.16 Q133.829 781.743 133.829 790.493 Q133.829 799.22 130.75 803.827 Q127.695 808.41 121.885 808.41 Q116.074 808.41 112.996 803.827 Q109.94 799.22 109.94 790.493 Q109.94 781.743 112.996 777.16 Q116.074 772.554 121.885 772.554 Z" fill="#000000" fill-rule="nonzero" fill-opacity="1" /><path clip-path="url(#clip560)" d="M142.046 801.859 L146.931 801.859 L146.931 807.739 L142.046 807.739 L142.046 801.859 Z" fill="#000000" fill-rule="nonzero" fill-opacity="1" /><path clip-path="url(#clip560)" d="M157.162 773.179 L175.519 773.179 L175.519 777.114 L161.445 777.114 L161.445 785.586 Q162.463 785.239 163.482 785.077 Q164.5 784.892 165.519 784.892 Q171.306 784.892 174.685 788.063 Q178.065 791.234 178.065 796.651 Q178.065 802.229 174.593 805.331 Q171.12 808.41 164.801 808.41 Q162.625 808.41 160.357 808.04 Q158.111 807.669 155.704 806.929 L155.704 802.229 Q157.787 803.364 160.009 803.919 Q162.232 804.475 164.708 804.475 Q168.713 804.475 171.051 802.368 Q173.389 800.262 173.389 796.651 Q173.389 793.04 171.051 790.933 Q168.713 788.827 164.708 788.827 Q162.833 788.827 160.958 789.243 Q159.107 789.66 157.162 790.54 L157.162 773.179 Z" fill="#000000" fill-rule="nonzero" fill-opacity="1" /><path clip-path="url(#clip560)" d="M197.278 776.257 Q193.667 776.257 191.838 779.822 Q190.032 783.364 190.032 790.493 Q190.032 797.6 191.838 801.165 Q193.667 804.706 197.278 804.706 Q200.912 804.706 202.717 801.165 Q204.546 797.6 204.546 790.493 Q204.546 783.364 202.717 779.822 Q200.912 776.257 197.278 776.257 M197.278 772.554 Q203.088 772.554 206.143 777.16 Q209.222 781.743 209.222 790.493 Q209.222 799.22 206.143 803.827 Q203.088 808.41 197.278 808.41 Q191.467 808.41 188.389 803.827 Q185.333 799.22 185.333 790.493 Q185.333 781.743 188.389 777.16 Q191.467 772.554 197.278 772.554 Z" fill="#000000" fill-rule="nonzero" fill-opacity="1" /><path clip-path="url(#clip560)" d="M122.88 510.824 Q119.269 510.824 117.44 514.388 Q115.635 517.93 115.635 525.06 Q115.635 532.166 117.44 535.731 Q119.269 539.273 122.88 539.273 Q126.514 539.273 128.32 535.731 Q130.148 532.166 130.148 525.06 Q130.148 517.93 128.32 514.388 Q126.514 510.824 122.88 510.824 M122.88 507.12 Q128.69 507.12 131.746 511.726 Q134.824 516.31 134.824 525.06 Q134.824 533.786 131.746 538.393 Q128.69 542.976 122.88 542.976 Q117.07 542.976 113.991 538.393 Q110.936 533.786 110.936 525.06 Q110.936 516.31 113.991 511.726 Q117.07 507.12 122.88 507.12 Z" fill="#000000" fill-rule="nonzero" fill-opacity="1" /><path clip-path="url(#clip560)" d="M143.042 536.425 L147.926 536.425 L147.926 542.305 L143.042 542.305 L143.042 536.425 Z" fill="#000000" fill-rule="nonzero" fill-opacity="1" /><path clip-path="url(#clip560)" d="M156.931 507.745 L179.153 507.745 L179.153 509.736 L166.607 542.305 L161.722 542.305 L173.528 511.68 L156.931 511.68 L156.931 507.745 Z" fill="#000000" fill-rule="nonzero" fill-opacity="1" /><path clip-path="url(#clip560)" d="M188.319 507.745 L206.676 507.745 L206.676 511.68 L192.602 511.68 L192.602 520.152 Q193.62 519.805 194.639 519.643 Q195.657 519.458 196.676 519.458 Q202.463 519.458 205.842 522.629 Q209.222 525.8 209.222 531.217 Q209.222 536.796 205.75 539.898 Q202.278 542.976 195.958 542.976 Q193.782 542.976 191.514 542.606 Q189.268 542.235 186.861 541.495 L186.861 536.796 Q188.944 537.93 191.167 538.486 Q193.389 539.041 195.866 539.041 Q199.87 539.041 202.208 536.935 Q204.546 534.828 204.546 531.217 Q204.546 527.606 202.208 525.499 Q199.87 523.393 195.866 523.393 Q193.991 523.393 192.116 523.81 Q190.264 524.226 188.319 525.106 L188.319 507.745 Z" fill="#000000" fill-rule="nonzero" fill-opacity="1" /><path clip-path="url(#clip560)" d="M112.695 272.936 L120.334 272.936 L120.334 246.57 L112.023 248.237 L112.023 243.978 L120.287 242.311 L124.963 242.311 L124.963 272.936 L132.602 272.936 L132.602 276.871 L112.695 276.871 L112.695 272.936 Z" fill="#000000" fill-rule="nonzero" fill-opacity="1" /><path clip-path="url(#clip560)" d="M142.046 270.992 L146.931 270.992 L146.931 276.871 L142.046 276.871 L142.046 270.992 Z" fill="#000000" fill-rule="nonzero" fill-opacity="1" /><path clip-path="url(#clip560)" d="M167.116 245.39 Q163.505 245.39 161.676 248.955 Q159.87 252.496 159.87 259.626 Q159.87 266.732 161.676 270.297 Q163.505 273.839 167.116 273.839 Q170.75 273.839 172.556 270.297 Q174.384 266.732 174.384 259.626 Q174.384 252.496 172.556 248.955 Q170.75 245.39 167.116 245.39 M167.116 241.686 Q172.926 241.686 175.981 246.293 Q179.06 250.876 179.06 259.626 Q179.06 268.353 175.981 272.959 Q172.926 277.542 167.116 277.542 Q161.306 277.542 158.227 272.959 Q155.171 268.353 155.171 259.626 Q155.171 250.876 158.227 246.293 Q161.306 241.686 167.116 241.686 Z" fill="#000000" fill-rule="nonzero" fill-opacity="1" /><path clip-path="url(#clip560)" d="M197.278 245.39 Q193.667 245.39 191.838 248.955 Q190.032 252.496 190.032 259.626 Q190.032 266.732 191.838 270.297 Q193.667 273.839 197.278 273.839 Q200.912 273.839 202.717 270.297 Q204.546 266.732 204.546 259.626 Q204.546 252.496 202.717 248.955 Q200.912 245.39 197.278 245.39 M197.278 241.686 Q203.088 241.686 206.143 246.293 Q209.222 250.876 209.222 259.626 Q209.222 268.353 206.143 272.959 Q203.088 277.542 197.278 277.542 Q191.467 277.542 188.389 272.959 Q185.333 268.353 185.333 259.626 Q185.333 250.876 188.389 246.293 Q191.467 241.686 197.278 241.686 Z" fill="#000000" fill-rule="nonzero" fill-opacity="1" /><path clip-path="url(#clip560)" d="M56.1191 746.515 L73.3065 746.515 L73.3065 751.868 L28.5729 751.868 L28.5729 746.515 L33.4919 746.515 Q30.5984 744.837 29.2095 742.291 Q27.7917 739.716 27.7917 736.157 Q27.7917 730.254 32.4792 726.579 Q37.1666 722.876 44.8055 722.876 Q52.4443 722.876 57.1318 726.579 Q61.8193 730.254 61.8193 736.157 Q61.8193 739.716 60.4304 742.291 Q59.0126 744.837 56.1191 746.515 M44.8055 728.402 Q38.9317 728.402 35.6041 730.833 Q32.2477 733.234 32.2477 737.459 Q32.2477 741.683 35.6041 744.114 Q38.9317 746.515 44.8055 746.515 Q50.6793 746.515 54.0358 744.114 Q57.3633 741.683 57.3633 737.459 Q57.3633 733.234 54.0358 730.833 Q50.6793 728.402 44.8055 728.402 Z" fill="#000000" fill-rule="nonzero" fill-opacity="1" /><polyline clip-path="url(#clip562)" style="stroke:#000000; stroke-linecap:round; stroke-linejoin:round; stroke-width:4; stroke-opacity:1; fill:none" points="503.693,728.484 503.693,600.128 "/>
<polyline clip-path="url(#clip562)" style="stroke:#000000; stroke-linecap:round; stroke-linejoin:round; stroke-width:4; stroke-opacity:1; fill:none" points="702.517,628.434 702.517,496.247 "/>
<polyline clip-path="url(#clip562)" style="stroke:#000000; stroke-linecap:round; stroke-linejoin:round; stroke-width:4; stroke-opacity:1; fill:none" points="901.341,523.881 901.341,399.027 "/>
<polyline clip-path="url(#clip562)" style="stroke:#000000; stroke-linecap:round; stroke-linejoin:round; stroke-width:4; stroke-opacity:1; fill:none" points="1100.17,448.533 1100.17,320.288 "/>
<polyline clip-path="url(#clip562)" style="stroke:#000000; stroke-linecap:round; stroke-linejoin:round; stroke-width:4; stroke-opacity:1; fill:none" points="1298.99,324.474 1298.99,200.279 "/>
<polyline clip-path="url(#clip562)" style="stroke:#000000; stroke-linecap:round; stroke-linejoin:round; stroke-width:4; stroke-opacity:1; fill:none" points="1696.64,317.329 1696.64,198.487 "/>
<polyline clip-path="url(#clip562)" style="stroke:#000000; stroke-linecap:round; stroke-linejoin:round; stroke-width:4; stroke-opacity:1; fill:none" points="2094.28,326.616 2094.28,188.377 "/>
<line clip-path="url(#clip562)" x1="519.693" y1="728.484" x2="487.693" y2="728.484" style="stroke:#000000; stroke-width:4; stroke-opacity:1"/>
<line clip-path="url(#clip562)" x1="519.693" y1="600.128" x2="487.693" y2="600.128" style="stroke:#000000; stroke-width:4; stroke-opacity:1"/>
<line clip-path="url(#clip562)" x1="718.517" y1="628.434" x2="686.517" y2="628.434" style="stroke:#000000; stroke-width:4; stroke-opacity:1"/>
<line clip-path="url(#clip562)" x1="718.517" y1="496.247" x2="686.517" y2="496.247" style="stroke:#000000; stroke-width:4; stroke-opacity:1"/>
<line clip-path="url(#clip562)" x1="917.341" y1="523.881" x2="885.341" y2="523.881" style="stroke:#000000; stroke-width:4; stroke-opacity:1"/>
<line clip-path="url(#clip562)" x1="917.341" y1="399.027" x2="885.341" y2="399.027" style="stroke:#000000; stroke-width:4; stroke-opacity:1"/>
<line clip-path="url(#clip562)" x1="1116.17" y1="448.533" x2="1084.17" y2="448.533" style="stroke:#000000; stroke-width:4; stroke-opacity:1"/>
<line clip-path="url(#clip562)" x1="1116.17" y1="320.288" x2="1084.17" y2="320.288" style="stroke:#000000; stroke-width:4; stroke-opacity:1"/>
<line clip-path="url(#clip562)" x1="1314.99" y1="324.474" x2="1282.99" y2="324.474" style="stroke:#000000; stroke-width:4; stroke-opacity:1"/>
<line clip-path="url(#clip562)" x1="1314.99" y1="200.279" x2="1282.99" y2="200.279" style="stroke:#000000; stroke-width:4; stroke-opacity:1"/>
<line clip-path="url(#clip562)" x1="1712.64" y1="317.329" x2="1680.64" y2="317.329" style="stroke:#000000; stroke-width:4; stroke-opacity:1"/>
<line clip-path="url(#clip562)" x1="1712.64" y1="198.487" x2="1680.64" y2="198.487" style="stroke:#000000; stroke-width:4; stroke-opacity:1"/>
<line clip-path="url(#clip562)" x1="2110.28" y1="326.616" x2="2078.28" y2="326.616" style="stroke:#000000; stroke-width:4; stroke-opacity:1"/>
<line clip-path="url(#clip562)" x1="2110.28" y1="188.377" x2="2078.28" y2="188.377" style="stroke:#000000; stroke-width:4; stroke-opacity:1"/>
<circle clip-path="url(#clip562)" cx="503.693" cy="664.294" r="14.4" fill="#009af9" fill-rule="evenodd" fill-opacity="1" stroke="#000000" stroke-opacity="1" stroke-width="3.2"/>
<circle clip-path="url(#clip562)" cx="702.517" cy="562.29" r="14.4" fill="#009af9" fill-rule="evenodd" fill-opacity="1" stroke="#000000" stroke-opacity="1" stroke-width="3.2"/>
<circle clip-path="url(#clip562)" cx="901.341" cy="461.525" r="14.4" fill="#009af9" fill-rule="evenodd" fill-opacity="1" stroke="#000000" stroke-opacity="1" stroke-width="3.2"/>
<circle clip-path="url(#clip562)" cx="1100.17" cy="384.236" r="14.4" fill="#009af9" fill-rule="evenodd" fill-opacity="1" stroke="#000000" stroke-opacity="1" stroke-width="3.2"/>
<circle clip-path="url(#clip562)" cx="1298.99" cy="262.343" r="14.4" fill="#009af9" fill-rule="evenodd" fill-opacity="1" stroke="#000000" stroke-opacity="1" stroke-width="3.2"/>
<circle clip-path="url(#clip562)" cx="1696.64" cy="258.513" r="14.4" fill="#009af9" fill-rule="evenodd" fill-opacity="1" stroke="#000000" stroke-opacity="1" stroke-width="3.2"/>
<circle clip-path="url(#clip562)" cx="2094.28" cy="257.485" r="14.4" fill="#009af9" fill-rule="evenodd" fill-opacity="1" stroke="#000000" stroke-opacity="1" stroke-width="3.2"/>
<polyline clip-path="url(#clip562)" style="stroke:#e26f46; stroke-linecap:round; stroke-linejoin:round; stroke-width:4; stroke-opacity:1; fill:none" stroke-dasharray="16, 10" points="304.869,790.459 324.752,779.841 344.634,769.224 364.516,758.607 384.399,747.989 404.281,737.372 424.164,726.755 444.046,716.137 463.928,705.52 483.811,694.903 503.693,684.285 523.576,673.668 543.458,663.051 563.34,652.433 583.223,641.816 603.105,631.198 622.988,620.581 642.87,609.964 662.752,599.346 682.635,588.729 702.517,578.112 722.4,567.494 742.282,556.877 762.164,546.26 782.047,535.642 801.929,525.025 821.811,514.408 841.694,503.79 861.576,493.173 881.459,482.556 901.341,471.938 921.223,461.321 941.106,450.703 960.988,440.086 980.871,429.469 1000.75,418.851 1020.64,408.234 1040.52,397.617 1060.4,386.999 1080.28,376.382 1100.17,365.765 1120.05,355.147 1139.93,344.53 1159.81,333.913 1179.69,323.295 1199.58,312.678 1219.46,302.061 1239.34,291.443 1259.22,280.826 1279.11,270.208 1298.99,259.591 1318.87,259.591 1338.75,259.591 1358.64,259.591 1378.52,259.591 1398.4,259.591 1418.28,259.591 1438.17,259.591 1458.05,259.591 1477.93,259.591 1497.81,259.591 1517.7,259.591 1537.58,259.591 1557.46,259.591 1577.34,259.591 1597.22,259.591 1617.11,259.591 1636.99,259.591 1656.87,259.591 1676.75,259.591 1696.64,259.591 1716.52,259.591 1736.4,259.591 1756.28,259.591 1776.17,259.591 1796.05,259.591 1815.93,259.591 1835.81,259.591 1855.7,259.591 1875.58,259.591 1895.46,259.591 1915.34,259.591 1935.23,259.591 1955.11,259.591 1974.99,259.591 1994.87,259.591 2014.76,259.591 2034.64,259.591 2054.52,259.591 2074.4,259.591 2094.28,259.591 2114.17,259.591 2134.05,259.591 2153.93,259.591 2173.81,259.591 2193.7,259.591 2213.58,259.591 2233.46,259.591 2253.34,259.591 2273.23,259.591 2293.11,259.591 "/>
<path clip-path="url(#clip560)" d="M315.473 248.773 L758.54 248.773 L758.54 93.2526 L315.473 93.2526  Z" fill="#ffffff" fill-rule="evenodd" fill-opacity="1"/>
<polyline clip-path="url(#clip560)" style="stroke:#000000; stroke-linecap:round; stroke-linejoin:round; stroke-width:4; stroke-opacity:1; fill:none" points="315.473,248.773 758.54,248.773 758.54,93.2526 315.473,93.2526 315.473,248.773 "/>
<circle clip-path="url(#clip560)" cx="409.141" cy="145.093" r="20.48" fill="#009af9" fill-rule="evenodd" fill-opacity="1" stroke="#000000" stroke-opacity="1" stroke-width="4.55111"/>
<path clip-path="url(#clip560)" d="M523.319 137.442 L523.319 141.424 Q521.513 140.428 519.684 139.942 Q517.879 139.433 516.027 139.433 Q511.884 139.433 509.592 142.072 Q507.3 144.688 507.3 149.433 Q507.3 154.178 509.592 156.817 Q511.884 159.433 516.027 159.433 Q517.879 159.433 519.684 158.947 Q521.513 158.437 523.319 157.442 L523.319 161.377 Q521.536 162.211 519.615 162.627 Q517.717 163.044 515.564 163.044 Q509.708 163.044 506.259 159.363 Q502.81 155.683 502.81 149.433 Q502.81 143.09 506.282 139.456 Q509.777 135.822 515.842 135.822 Q517.809 135.822 519.684 136.239 Q521.559 136.632 523.319 137.442 Z" fill="#000000" fill-rule="nonzero" fill-opacity="1" /><path clip-path="url(#clip560)" d="M540.772 139.433 Q537.346 139.433 535.356 142.118 Q533.365 144.78 533.365 149.433 Q533.365 154.086 535.332 156.771 Q537.323 159.433 540.772 159.433 Q544.175 159.433 546.166 156.748 Q548.156 154.062 548.156 149.433 Q548.156 144.826 546.166 142.141 Q544.175 139.433 540.772 139.433 M540.772 135.822 Q546.328 135.822 549.499 139.433 Q552.67 143.044 552.67 149.433 Q552.67 155.799 549.499 159.433 Q546.328 163.044 540.772 163.044 Q535.194 163.044 532.022 159.433 Q528.874 155.799 528.874 149.433 Q528.874 143.044 532.022 139.433 Q535.194 135.822 540.772 135.822 Z" fill="#000000" fill-rule="nonzero" fill-opacity="1" /><path clip-path="url(#clip560)" d="M579.916 141.424 Q581.513 138.553 583.735 137.188 Q585.957 135.822 588.966 135.822 Q593.017 135.822 595.216 138.669 Q597.415 141.493 597.415 146.725 L597.415 162.373 L593.133 162.373 L593.133 146.863 Q593.133 143.137 591.814 141.331 Q590.494 139.526 587.786 139.526 Q584.476 139.526 582.554 141.725 Q580.633 143.924 580.633 147.72 L580.633 162.373 L576.351 162.373 L576.351 146.863 Q576.351 143.113 575.031 141.331 Q573.712 139.526 570.957 139.526 Q567.693 139.526 565.772 141.748 Q563.851 143.947 563.851 147.72 L563.851 162.373 L559.568 162.373 L559.568 136.447 L563.851 136.447 L563.851 140.475 Q565.309 138.09 567.346 136.956 Q569.383 135.822 572.184 135.822 Q575.008 135.822 576.976 137.257 Q578.967 138.692 579.916 141.424 Z" fill="#000000" fill-rule="nonzero" fill-opacity="1" /><path clip-path="url(#clip560)" d="M610.031 158.484 L610.031 172.234 L605.749 172.234 L605.749 136.447 L610.031 136.447 L610.031 140.382 Q611.374 138.067 613.411 136.956 Q615.471 135.822 618.318 135.822 Q623.04 135.822 625.98 139.572 Q628.943 143.322 628.943 149.433 Q628.943 155.544 625.98 159.294 Q623.04 163.044 618.318 163.044 Q615.471 163.044 613.411 161.933 Q611.374 160.799 610.031 158.484 M624.522 149.433 Q624.522 144.734 622.577 142.072 Q620.656 139.387 617.276 139.387 Q613.897 139.387 611.952 142.072 Q610.031 144.734 610.031 149.433 Q610.031 154.132 611.952 156.817 Q613.897 159.479 617.276 159.479 Q620.656 159.479 622.577 156.817 Q624.522 154.132 624.522 149.433 Z" fill="#000000" fill-rule="nonzero" fill-opacity="1" /><path clip-path="url(#clip560)" d="M635.563 152.141 L635.563 136.447 L639.823 136.447 L639.823 151.979 Q639.823 155.66 641.258 157.512 Q642.693 159.34 645.563 159.34 Q649.012 159.34 651.003 157.141 Q653.017 154.942 653.017 151.146 L653.017 136.447 L657.276 136.447 L657.276 162.373 L653.017 162.373 L653.017 158.391 Q651.466 160.752 649.406 161.91 Q647.369 163.044 644.661 163.044 Q640.193 163.044 637.878 160.266 Q635.563 157.488 635.563 152.141 M646.281 135.822 L646.281 135.822 Z" fill="#000000" fill-rule="nonzero" fill-opacity="1" /><path clip-path="url(#clip560)" d="M670.262 129.086 L670.262 136.447 L679.035 136.447 L679.035 139.757 L670.262 139.757 L670.262 153.831 Q670.262 157.002 671.119 157.905 Q671.998 158.808 674.66 158.808 L679.035 158.808 L679.035 162.373 L674.66 162.373 Q669.73 162.373 667.855 160.544 Q665.98 158.692 665.98 153.831 L665.98 139.757 L662.855 139.757 L662.855 136.447 L665.98 136.447 L665.98 129.086 L670.262 129.086 Z" fill="#000000" fill-rule="nonzero" fill-opacity="1" /><path clip-path="url(#clip560)" d="M706.813 148.345 L706.813 150.428 L687.23 150.428 Q687.508 154.826 689.869 157.141 Q692.253 159.433 696.489 159.433 Q698.943 159.433 701.234 158.831 Q703.549 158.229 705.818 157.025 L705.818 161.053 Q703.526 162.025 701.119 162.535 Q698.711 163.044 696.234 163.044 Q690.031 163.044 686.396 159.433 Q682.785 155.822 682.785 149.664 Q682.785 143.299 686.211 139.572 Q689.66 135.822 695.494 135.822 Q700.725 135.822 703.758 139.201 Q706.813 142.558 706.813 148.345 M702.554 147.095 Q702.508 143.6 700.586 141.516 Q698.688 139.433 695.54 139.433 Q691.975 139.433 689.822 141.447 Q687.693 143.461 687.369 147.118 L702.554 147.095 Z" fill="#000000" fill-rule="nonzero" fill-opacity="1" /><path clip-path="url(#clip560)" d="M730.864 140.382 L730.864 126.354 L735.123 126.354 L735.123 162.373 L730.864 162.373 L730.864 158.484 Q729.521 160.799 727.461 161.933 Q725.424 163.044 722.554 163.044 Q717.855 163.044 714.892 159.294 Q711.952 155.544 711.952 149.433 Q711.952 143.322 714.892 139.572 Q717.855 135.822 722.554 135.822 Q725.424 135.822 727.461 136.956 Q729.521 138.067 730.864 140.382 M716.35 149.433 Q716.35 154.132 718.271 156.817 Q720.216 159.479 723.595 159.479 Q726.975 159.479 728.919 156.817 Q730.864 154.132 730.864 149.433 Q730.864 144.734 728.919 142.072 Q726.975 139.387 723.595 139.387 Q720.216 139.387 718.271 142.072 Q716.35 144.734 716.35 149.433 Z" fill="#000000" fill-rule="nonzero" fill-opacity="1" /><polyline clip-path="url(#clip560)" style="stroke:#e26f46; stroke-linecap:round; stroke-linejoin:round; stroke-width:4; stroke-opacity:1; fill:none" stroke-dasharray="16, 10" points="338.89,196.933 479.392,196.933 "/>
<path clip-path="url(#clip560)" d="M526.837 200.185 L526.837 202.268 L507.254 202.268 Q507.532 206.666 509.893 208.981 Q512.277 211.273 516.513 211.273 Q518.967 211.273 521.258 210.671 Q523.573 210.069 525.842 208.865 L525.842 212.893 Q523.55 213.865 521.143 214.375 Q518.735 214.884 516.259 214.884 Q510.055 214.884 506.421 211.273 Q502.81 207.662 502.81 201.504 Q502.81 195.139 506.235 191.412 Q509.684 187.662 515.518 187.662 Q520.749 187.662 523.782 191.041 Q526.837 194.398 526.837 200.185 M522.578 198.935 Q522.532 195.44 520.61 193.356 Q518.712 191.273 515.564 191.273 Q511.999 191.273 509.847 193.287 Q507.717 195.301 507.393 198.958 L522.578 198.935 Z" fill="#000000" fill-rule="nonzero" fill-opacity="1" /><path clip-path="url(#clip560)" d="M554.545 188.287 L545.17 200.903 L555.031 214.213 L550.008 214.213 L542.462 204.027 L534.916 214.213 L529.893 214.213 L539.962 200.648 L530.749 188.287 L535.772 188.287 L542.647 197.523 L549.522 188.287 L554.545 188.287 Z" fill="#000000" fill-rule="nonzero" fill-opacity="1" /><path clip-path="url(#clip560)" d="M565.17 210.324 L565.17 224.074 L560.888 224.074 L560.888 188.287 L565.17 188.287 L565.17 192.222 Q566.513 189.907 568.55 188.796 Q570.61 187.662 573.457 187.662 Q578.179 187.662 581.119 191.412 Q584.082 195.162 584.082 201.273 Q584.082 207.384 581.119 211.134 Q578.179 214.884 573.457 214.884 Q570.61 214.884 568.55 213.773 Q566.513 212.639 565.17 210.324 M579.661 201.273 Q579.661 196.574 577.717 193.912 Q575.795 191.227 572.416 191.227 Q569.036 191.227 567.092 193.912 Q565.17 196.574 565.17 201.273 Q565.17 205.972 567.092 208.657 Q569.036 211.319 572.416 211.319 Q575.795 211.319 577.717 208.657 Q579.661 205.972 579.661 201.273 Z" fill="#000000" fill-rule="nonzero" fill-opacity="1" /><path clip-path="url(#clip560)" d="M613.318 200.185 L613.318 202.268 L593.735 202.268 Q594.013 206.666 596.374 208.981 Q598.758 211.273 602.994 211.273 Q605.448 211.273 607.739 210.671 Q610.054 210.069 612.323 208.865 L612.323 212.893 Q610.031 213.865 607.624 214.375 Q605.216 214.884 602.74 214.884 Q596.536 214.884 592.902 211.273 Q589.291 207.662 589.291 201.504 Q589.291 195.139 592.716 191.412 Q596.165 187.662 601.999 187.662 Q607.23 187.662 610.263 191.041 Q613.318 194.398 613.318 200.185 M609.059 198.935 Q609.013 195.44 607.091 193.356 Q605.193 191.273 602.045 191.273 Q598.48 191.273 596.328 193.287 Q594.198 195.301 593.874 198.958 L609.059 198.935 Z" fill="#000000" fill-rule="nonzero" fill-opacity="1" /><path clip-path="url(#clip560)" d="M638.966 189.282 L638.966 193.264 Q637.161 192.268 635.332 191.782 Q633.526 191.273 631.675 191.273 Q627.531 191.273 625.239 193.912 Q622.948 196.528 622.948 201.273 Q622.948 206.018 625.239 208.657 Q627.531 211.273 631.675 211.273 Q633.526 211.273 635.332 210.787 Q637.161 210.277 638.966 209.282 L638.966 213.217 Q637.184 214.051 635.263 214.467 Q633.364 214.884 631.212 214.884 Q625.355 214.884 621.906 211.203 Q618.457 207.523 618.457 201.273 Q618.457 194.93 621.929 191.296 Q625.425 187.662 631.489 187.662 Q633.457 187.662 635.332 188.079 Q637.207 188.472 638.966 189.282 Z" fill="#000000" fill-rule="nonzero" fill-opacity="1" /><path clip-path="url(#clip560)" d="M650.586 180.926 L650.586 188.287 L659.36 188.287 L659.36 191.597 L650.586 191.597 L650.586 205.671 Q650.586 208.842 651.443 209.745 Q652.323 210.648 654.985 210.648 L659.36 210.648 L659.36 214.213 L654.985 214.213 Q650.054 214.213 648.179 212.384 Q646.304 210.532 646.304 205.671 L646.304 191.597 L643.179 191.597 L643.179 188.287 L646.304 188.287 L646.304 180.926 L650.586 180.926 Z" fill="#000000" fill-rule="nonzero" fill-opacity="1" /><path clip-path="url(#clip560)" d="M687.137 200.185 L687.137 202.268 L667.554 202.268 Q667.832 206.666 670.193 208.981 Q672.577 211.273 676.813 211.273 Q679.267 211.273 681.559 210.671 Q683.873 210.069 686.142 208.865 L686.142 212.893 Q683.85 213.865 681.443 214.375 Q679.035 214.884 676.559 214.884 Q670.355 214.884 666.721 211.273 Q663.11 207.662 663.11 201.504 Q663.11 195.139 666.535 191.412 Q669.985 187.662 675.818 187.662 Q681.049 187.662 684.082 191.041 Q687.137 194.398 687.137 200.185 M682.878 198.935 Q682.832 195.44 680.91 193.356 Q679.012 191.273 675.864 191.273 Q672.299 191.273 670.147 193.287 Q668.017 195.301 667.693 198.958 L682.878 198.935 Z" fill="#000000" fill-rule="nonzero" fill-opacity="1" /><path clip-path="url(#clip560)" d="M711.188 192.222 L711.188 178.194 L715.447 178.194 L715.447 214.213 L711.188 214.213 L711.188 210.324 Q709.845 212.639 707.785 213.773 Q705.748 214.884 702.878 214.884 Q698.179 214.884 695.216 211.134 Q692.276 207.384 692.276 201.273 Q692.276 195.162 695.216 191.412 Q698.179 187.662 702.878 187.662 Q705.748 187.662 707.785 188.796 Q709.845 189.907 711.188 192.222 M696.674 201.273 Q696.674 205.972 698.595 208.657 Q700.54 211.319 703.92 211.319 Q707.299 211.319 709.244 208.657 Q711.188 205.972 711.188 201.273 Q711.188 196.574 709.244 193.912 Q707.299 191.227 703.92 191.227 Q700.54 191.227 698.595 193.912 Q696.674 196.574 696.674 201.273 Z" fill="#000000" fill-rule="nonzero" fill-opacity="1" /></svg>
