<?xml version="1.0" encoding="utf-8"?>
<svg xmlns="http://www.w3.org/2000/svg" xmlns:xlink="http://www.w3.org/1999/xlink" width="600" height="400" viewBox="0 0 2400 1600">
<defs>
  <clipPath id="clip500">
    <rect x="0" y="0" width="2400" height="1600"/>
  </clipPath>
</defs>
<path clip-path="url(#clip500)" d="M0 1600 L2400 1600 L2400 0 L0 0  Z" fill="#ffffff" fill-rule="evenodd" fill-opacity="1"/>
<defs>
  <clipPath id="clip501">
    <rect x="480" y="0" width="1681" height="1600"/>
  </clipPath>
</defs>
<path clip-path="url(#clip500)" d="M257.204 1423.18 L2352.76 1423.18 L2352.76 47.2441 L257.204 47.2441  Z" fill="#ffffff" fill-rule="evenodd" fill-opacity="1"/>
<defs>
  <clipPath id="clip502">
    <rect x="257" y="47" width="2097" height="1377"/>
  </clipPath>
</defs>
<polyline clip-path="url(#clip502)" style="stroke:#000000; stroke-linecap:round; stroke-linejoin:round; stroke-width:2; stroke-opacity:0.1; fill:none" points="316.512,1423.18 316.512,47.2441 "/>
<polyline clip-path="url(#clip502)" style="stroke:#000000; stroke-linecap:round; stroke-linejoin:round; stroke-width:2; stroke-opacity:0.1; fill:none" points="810.746,1423.18 810.746,47.2441 "/>
<polyline clip-path="url(#clip502)" style="stroke:#000000; stroke-linecap:round; stroke-linejoin:round; stroke-width:2; stroke-opacity:0.1; fill:none" points="1304.98,1423.18 1304.98,47.2441 "/>
<polyline clip-path="url(#clip502)" style="stroke:#000000; stroke-linecap:round; stroke-linejoin:round; stroke-width:2; stroke-opacity:0.1; fill:none" points="1799.21,1423.18 1799.21,47.2441 "/>
<polyline clip-path="url(#clip502)" style="stroke:#000000; stroke-linecap:round; stroke-linejoin:round; stroke-width:2; stroke-opacity:0.1; fill:none" points="2293.45,1423.18 2293.45,47.2441 "/>
<polyline clip-path="url(#clip500)" style="stroke:#000000; stroke-linecap:round; stroke-linejoin:round; stroke-width:4; stroke-opacity:1; fill:none" points="257.204,1423.18 2352.76,1423.18 "/>
<polyline clip-path="url(#clip500)" style="stroke:#000000; stroke-linecap:round; stroke-linejoin:round; stroke-width:4; stroke-opacity:1; fill:none" points="316.512,1423.18 316.512,1404.28 "/>
<polyline clip-path="url(#clip500)" style="stroke:#000000; stroke-linecap:round; stroke-linejoin:round; stroke-width:4; stroke-opacity:1; fill:none" points="810.746,1423.18 810.746,1404.28 "/>
<polyline clip-path="url(#clip500)" style="stroke:#000000; stroke-linecap:round; stroke-linejoin:round; stroke-width:4; stroke-opacity:1; fill:none" points="1304.98,1423.18 1304.98,1404.28 "/>
<polyline clip-path="url(#clip500)" style="stroke:#000000; stroke-linecap:round; stroke-linejoin:round; stroke-width:4; stroke-opacity:1; fill:none" points="1799.21,1423.18 1799.21,1404.28 "/>
<polyline clip-path="url(#clip500)" style="stroke:#000000; stroke-linecap:round; stroke-linejoin:round; stroke-width:4; stroke-opacity:1; fill:none" points="2293.45,1423.18 2293.45,1404.28 "/>
<path clip-path="url(#clip500)" d="M278.816 1454.1 Q275.204 1454.1 273.376 1457.66 Q271.57 1461.2 271.57 1468.33 Q271.57 1475.44 273.376 1479.01 Q275.204 1482.55 278.816 1482.55 Q282.45 1482.55 284.255 1479.01 Q286.084 1475.44 286.084 1468.33 Q286.084 1461.2 284.255 1457.66 Q282.45 1454.1 278.816 1454.1 M278.816 1450.39 Q284.626 1450.39 287.681 1455 Q290.76 1459.58 290.76 1468.33 Q290.76 1477.06 287.681 1481.67 Q284.626 1486.25 278.816 1486.25 Q273.005 1486.25 269.927 1481.67 Q266.871 1477.06 266.871 1468.33 Q266.871 1459.58 269.927 1455 Q273.005 1450.39 278.816 1450.39 Z" fill="#000000" fill-rule="nonzero" fill-opacity="1" /><path clip-path="url(#clip500)" d="M298.977 1479.7 L303.862 1479.7 L303.862 1485.58 L298.977 1485.58 L298.977 1479.7 Z" fill="#000000" fill-rule="nonzero" fill-opacity="1" /><path clip-path="url(#clip500)" d="M324.047 1454.1 Q320.436 1454.1 318.607 1457.66 Q316.801 1461.2 316.801 1468.33 Q316.801 1475.44 318.607 1479.01 Q320.436 1482.55 324.047 1482.55 Q327.681 1482.55 329.487 1479.01 Q331.315 1475.44 331.315 1468.33 Q331.315 1461.2 329.487 1457.66 Q327.681 1454.1 324.047 1454.1 M324.047 1450.39 Q329.857 1450.39 332.912 1455 Q335.991 1459.58 335.991 1468.33 Q335.991 1477.06 332.912 1481.67 Q329.857 1486.25 324.047 1486.25 Q318.237 1486.25 315.158 1481.67 Q312.102 1477.06 312.102 1468.33 Q312.102 1459.58 315.158 1455 Q318.237 1450.39 324.047 1450.39 Z" fill="#000000" fill-rule="nonzero" fill-opacity="1" /><path clip-path="url(#clip500)" d="M354.209 1454.1 Q350.598 1454.1 348.769 1457.66 Q346.963 1461.2 346.963 1468.33 Q346.963 1475.44 348.769 1479.01 Q350.598 1482.55 354.209 1482.55 Q357.843 1482.55 359.648 1479.01 Q361.477 1475.44 361.477 1468.33 Q361.477 1461.2 359.648 1457.66 Q357.843 1454.1 354.209 1454.1 M354.209 1450.39 Q360.019 1450.39 363.074 1455 Q366.153 1459.58 366.153 1468.33 Q366.153 1477.06 363.074 1481.67 Q360.019 1486.25 354.209 1486.25 Q348.399 1486.25 345.32 1481.67 Q342.264 1477.06 342.264 1468.33 Q342.264 1459.58 345.32 1455 Q348.399 1450.39 354.209 1450.39 Z" fill="#000000" fill-rule="nonzero" fill-opacity="1" /><path clip-path="url(#clip500)" d="M773.547 1454.1 Q769.936 1454.1 768.107 1457.66 Q766.302 1461.2 766.302 1468.33 Q766.302 1475.44 768.107 1479.01 Q769.936 1482.55 773.547 1482.55 Q777.181 1482.55 778.987 1479.01 Q780.816 1475.44 780.816 1468.33 Q780.816 1461.2 778.987 1457.66 Q777.181 1454.1 773.547 1454.1 M773.547 1450.39 Q779.357 1450.39 782.413 1455 Q785.492 1459.58 785.492 1468.33 Q785.492 1477.06 782.413 1481.67 Q779.357 1486.25 773.547 1486.25 Q767.737 1486.25 764.658 1481.67 Q761.603 1477.06 761.603 1468.33 Q761.603 1459.58 764.658 1455 Q767.737 1450.39 773.547 1450.39 Z" fill="#000000" fill-rule="nonzero" fill-opacity="1" /><path clip-path="url(#clip500)" d="M793.709 1479.7 L798.593 1479.7 L798.593 1485.58 L793.709 1485.58 L793.709 1479.7 Z" fill="#000000" fill-rule="nonzero" fill-opacity="1" /><path clip-path="url(#clip500)" d="M812.806 1481.64 L829.126 1481.64 L829.126 1485.58 L807.181 1485.58 L807.181 1481.64 Q809.843 1478.89 814.427 1474.26 Q819.033 1469.61 820.214 1468.27 Q822.459 1465.74 823.339 1464.01 Q824.241 1462.25 824.241 1460.56 Q824.241 1457.8 822.297 1456.07 Q820.376 1454.33 817.274 1454.33 Q815.075 1454.33 812.621 1455.09 Q810.19 1455.86 807.413 1457.41 L807.413 1452.69 Q810.237 1451.55 812.69 1450.97 Q815.144 1450.39 817.181 1450.39 Q822.552 1450.39 825.746 1453.08 Q828.94 1455.77 828.94 1460.26 Q828.94 1462.39 828.13 1464.31 Q827.343 1466.2 825.237 1468.8 Q824.658 1469.47 821.556 1472.69 Q818.454 1475.88 812.806 1481.64 Z" fill="#000000" fill-rule="nonzero" fill-opacity="1" /><path clip-path="url(#clip500)" d="M838.987 1451.02 L857.343 1451.02 L857.343 1454.96 L843.269 1454.96 L843.269 1463.43 Q844.288 1463.08 845.306 1462.92 Q846.325 1462.73 847.343 1462.73 Q853.13 1462.73 856.51 1465.9 Q859.889 1469.08 859.889 1474.49 Q859.889 1480.07 856.417 1483.17 Q852.945 1486.25 846.625 1486.25 Q844.45 1486.25 842.181 1485.88 Q839.936 1485.51 837.528 1484.77 L837.528 1480.07 Q839.612 1481.2 841.834 1481.76 Q844.056 1482.32 846.533 1482.32 Q850.537 1482.32 852.875 1480.21 Q855.213 1478.1 855.213 1474.49 Q855.213 1470.88 852.875 1468.77 Q850.537 1466.67 846.533 1466.67 Q844.658 1466.67 842.783 1467.08 Q840.931 1467.5 838.987 1468.38 L838.987 1451.02 Z" fill="#000000" fill-rule="nonzero" fill-opacity="1" /><path clip-path="url(#clip500)" d="M1267.28 1454.1 Q1263.67 1454.1 1261.84 1457.66 Q1260.04 1461.2 1260.04 1468.33 Q1260.04 1475.44 1261.84 1479.01 Q1263.67 1482.55 1267.28 1482.55 Q1270.92 1482.55 1272.72 1479.01 Q1274.55 1475.44 1274.55 1468.33 Q1274.55 1461.2 1272.72 1457.66 Q1270.92 1454.1 1267.28 1454.1 M1267.28 1450.39 Q1273.09 1450.39 1276.15 1455 Q1279.23 1459.58 1279.23 1468.33 Q1279.23 1477.06 1276.15 1481.67 Q1273.09 1486.25 1267.28 1486.25 Q1261.47 1486.25 1258.39 1481.67 Q1255.34 1477.06 1255.34 1468.33 Q1255.34 1459.58 1258.39 1455 Q1261.47 1450.39 1267.28 1450.39 Z" fill="#000000" fill-rule="nonzero" fill-opacity="1" /><path clip-path="url(#clip500)" d="M1287.45 1479.7 L1292.33 1479.7 L1292.33 1485.58 L1287.45 1485.58 L1287.45 1479.7 Z" fill="#000000" fill-rule="nonzero" fill-opacity="1" /><path clip-path="url(#clip500)" d="M1302.56 1451.02 L1320.92 1451.02 L1320.92 1454.96 L1306.84 1454.96 L1306.84 1463.43 Q1307.86 1463.08 1308.88 1462.92 Q1309.9 1462.73 1310.92 1462.73 Q1316.7 1462.73 1320.08 1465.9 Q1323.46 1469.08 1323.46 1474.49 Q1323.46 1480.07 1319.99 1483.17 Q1316.52 1486.25 1310.2 1486.25 Q1308.02 1486.25 1305.76 1485.88 Q1303.51 1485.51 1301.1 1484.77 L1301.1 1480.07 Q1303.19 1481.2 1305.41 1481.76 Q1307.63 1482.32 1310.11 1482.32 Q1314.11 1482.32 1316.45 1480.21 Q1318.79 1478.1 1318.79 1474.49 Q1318.79 1470.88 1316.45 1468.77 Q1314.11 1466.67 1310.11 1466.67 Q1308.23 1466.67 1306.36 1467.08 Q1304.51 1467.5 1302.56 1468.38 L1302.56 1451.02 Z" fill="#000000" fill-rule="nonzero" fill-opacity="1" /><path clip-path="url(#clip500)" d="M1342.68 1454.1 Q1339.07 1454.1 1337.24 1457.66 Q1335.43 1461.2 1335.43 1468.33 Q1335.43 1475.44 1337.24 1479.01 Q1339.07 1482.55 1342.68 1482.55 Q1346.31 1482.55 1348.12 1479.01 Q1349.95 1475.44 1349.95 1468.33 Q1349.95 1461.2 1348.12 1457.66 Q1346.31 1454.1 1342.68 1454.1 M1342.68 1450.39 Q1348.49 1450.39 1351.54 1455 Q1354.62 1459.58 1354.62 1468.33 Q1354.62 1477.06 1351.54 1481.67 Q1348.49 1486.25 1342.68 1486.25 Q1336.87 1486.25 1333.79 1481.67 Q1330.73 1477.06 1330.73 1468.33 Q1330.73 1459.58 1333.79 1455 Q1336.87 1450.39 1342.68 1450.39 Z" fill="#000000" fill-rule="nonzero" fill-opacity="1" /><path clip-path="url(#clip500)" d="M1762.02 1454.1 Q1758.4 1454.1 1756.58 1457.66 Q1754.77 1461.2 1754.77 1468.33 Q1754.77 1475.44 1756.58 1479.01 Q1758.4 1482.55 1762.02 1482.55 Q1765.65 1482.55 1767.45 1479.01 Q1769.28 1475.44 1769.28 1468.33 Q1769.28 1461.2 1767.45 1457.66 Q1765.65 1454.1 1762.02 1454.1 M1762.02 1450.39 Q1767.83 1450.39 1770.88 1455 Q1773.96 1459.58 1773.96 1468.33 Q1773.96 1477.06 1770.88 1481.67 Q1767.83 1486.25 1762.02 1486.25 Q1756.2 1486.25 1753.13 1481.67 Q1750.07 1477.06 1750.07 1468.33 Q1750.07 1459.58 1753.13 1455 Q1756.2 1450.39 1762.02 1450.39 Z" fill="#000000" fill-rule="nonzero" fill-opacity="1" /><path clip-path="url(#clip500)" d="M1782.18 1479.7 L1787.06 1479.7 L1787.06 1485.58 L1782.18 1485.58 L1782.18 1479.7 Z" fill="#000000" fill-rule="nonzero" fill-opacity="1" /><path clip-path="url(#clip500)" d="M1796.07 1451.02 L1818.29 1451.02 L1818.29 1453.01 L1805.74 1485.58 L1800.86 1485.58 L1812.66 1454.96 L1796.07 1454.96 L1796.07 1451.02 Z" fill="#000000" fill-rule="nonzero" fill-opacity="1" /><path clip-path="url(#clip500)" d="M1827.45 1451.02 L1845.81 1451.02 L1845.81 1454.96 L1831.74 1454.96 L1831.74 1463.43 Q1832.76 1463.08 1833.77 1462.92 Q1834.79 1462.73 1835.81 1462.73 Q1841.6 1462.73 1844.98 1465.9 Q1848.36 1469.08 1848.36 1474.49 Q1848.36 1480.07 1844.88 1483.17 Q1841.41 1486.25 1835.09 1486.25 Q1832.92 1486.25 1830.65 1485.88 Q1828.4 1485.51 1826 1484.77 L1826 1480.07 Q1828.08 1481.2 1830.3 1481.76 Q1832.52 1482.32 1835 1482.32 Q1839.01 1482.32 1841.34 1480.21 Q1843.68 1478.1 1843.68 1474.49 Q1843.68 1470.88 1841.34 1468.77 Q1839.01 1466.67 1835 1466.67 Q1833.13 1466.67 1831.25 1467.08 Q1829.4 1467.5 1827.45 1468.38 L1827.45 1451.02 Z" fill="#000000" fill-rule="nonzero" fill-opacity="1" /><path clip-path="url(#clip500)" d="M2245.52 1481.64 L2253.16 1481.64 L2253.16 1455.28 L2244.85 1456.95 L2244.85 1452.69 L2253.11 1451.02 L2257.79 1451.02 L2257.79 1481.64 L2265.43 1481.64 L2265.43 1485.58 L2245.52 1485.58 L2245.52 1481.64 Z" fill="#000000" fill-rule="nonzero" fill-opacity="1" /><path clip-path="url(#clip500)" d="M2274.87 1479.7 L2279.76 1479.7 L2279.76 1485.58 L2274.87 1485.58 L2274.87 1479.7 Z" fill="#000000" fill-rule="nonzero" fill-opacity="1" /><path clip-path="url(#clip500)" d="M2299.94 1454.1 Q2296.33 1454.1 2294.5 1457.66 Q2292.7 1461.2 2292.7 1468.33 Q2292.7 1475.44 2294.5 1479.01 Q2296.33 1482.55 2299.94 1482.55 Q2303.58 1482.55 2305.38 1479.01 Q2307.21 1475.44 2307.21 1468.33 Q2307.21 1461.2 2305.38 1457.66 Q2303.58 1454.1 2299.94 1454.1 M2299.94 1450.39 Q2305.75 1450.39 2308.81 1455 Q2311.89 1459.58 2311.89 1468.33 Q2311.89 1477.06 2308.81 1481.67 Q2305.75 1486.25 2299.94 1486.25 Q2294.13 1486.25 2291.05 1481.67 Q2288 1477.06 2288 1468.33 Q2288 1459.58 2291.05 1455 Q2294.13 1450.39 2299.94 1450.39 Z" fill="#000000" fill-rule="nonzero" fill-opacity="1" /><path clip-path="url(#clip500)" d="M2330.1 1454.1 Q2326.49 1454.1 2324.66 1457.66 Q2322.86 1461.2 2322.86 1468.33 Q2322.86 1475.44 2324.66 1479.01 Q2326.49 1482.55 2330.1 1482.55 Q2333.74 1482.55 2335.54 1479.01 Q2337.37 1475.44 2337.37 1468.33 Q2337.37 1461.2 2335.54 1457.66 Q2333.74 1454.1 2330.1 1454.1 M2330.1 1450.39 Q2335.91 1450.39 2338.97 1455 Q2342.05 1459.58 2342.05 1468.33 Q2342.05 1477.06 2338.97 1481.67 Q2335.91 1486.25 2330.1 1486.25 Q2324.29 1486.25 2321.21 1481.67 Q2318.16 1477.06 2318.16 1468.33 Q2318.16 1459.58 2321.21 1455 Q2324.29 1450.39 2330.1 1450.39 Z" fill="#000000" fill-rule="nonzero" fill-opacity="1" /><path clip-path="url(#clip500)" d="M1313.45 1531.91 Q1313.45 1532.81 1313.03 1533.04 Q1312.61 1533.23 1311.45 1533.23 L1305.27 1533.23 L1300.38 1552.69 Q1299.99 1554.39 1299.99 1555.84 Q1299.99 1557.45 1300.47 1558.16 Q1300.99 1558.87 1302.05 1558.87 Q1304.14 1558.87 1306.4 1556.97 Q1308.68 1555.07 1310.62 1550.43 Q1310.87 1549.82 1311 1549.69 Q1311.16 1549.53 1311.58 1549.53 Q1312.39 1549.53 1312.39 1550.17 Q1312.39 1550.4 1311.94 1551.43 Q1311.52 1552.46 1310.58 1553.97 Q1309.68 1555.49 1308.49 1556.9 Q1307.33 1558.32 1305.56 1559.35 Q1303.79 1560.35 1301.89 1560.35 Q1299.22 1560.35 1297.51 1558.64 Q1295.83 1556.94 1295.83 1554.26 Q1295.83 1553.39 1296.51 1550.62 Q1297.19 1547.82 1300.86 1533.23 L1295.03 1533.23 Q1294.22 1533.23 1293.9 1533.2 Q1293.61 1533.17 1293.39 1533.01 Q1293.19 1532.81 1293.19 1532.43 Q1293.19 1531.82 1293.45 1531.56 Q1293.71 1531.27 1294.03 1531.24 Q1294.39 1531.17 1295.19 1531.17 L1301.37 1531.17 L1303.95 1520.71 Q1304.21 1519.67 1304.85 1519.09 Q1305.53 1518.48 1305.91 1518.42 Q1306.3 1518.32 1306.59 1518.32 Q1307.46 1518.32 1307.98 1518.81 Q1308.49 1519.26 1308.49 1520.09 Q1308.49 1520.54 1305.79 1531.17 L1311.58 1531.17 Q1312.32 1531.17 1312.61 1531.2 Q1312.94 1531.24 1313.19 1531.4 Q1313.45 1531.56 1313.45 1531.91 Z" fill="#000000" fill-rule="nonzero" fill-opacity="1" /><polyline clip-path="url(#clip502)" style="stroke:#000000; stroke-linecap:round; stroke-linejoin:round; stroke-width:2; stroke-opacity:0.1; fill:none" points="257.204,1275.86 2352.76,1275.86 "/>
<polyline clip-path="url(#clip502)" style="stroke:#000000; stroke-linecap:round; stroke-linejoin:round; stroke-width:2; stroke-opacity:0.1; fill:none" points="257.204,1096.5 2352.76,1096.5 "/>
<polyline clip-path="url(#clip502)" style="stroke:#000000; stroke-linecap:round; stroke-linejoin:round; stroke-width:2; stroke-opacity:0.1; fill:none" points="257.204,917.13 2352.76,917.13 "/>
<polyline clip-path="url(#clip502)" style="stroke:#000000; stroke-linecap:round; stroke-linejoin:round; stroke-width:2; stroke-opacity:0.1; fill:none" points="257.204,737.764 2352.76,737.764 "/>
<polyline clip-path="url(#clip502)" style="stroke:#000000; stroke-linecap:round; stroke-linejoin:round; stroke-width:2; stroke-opacity:0.1; fill:none" points="257.204,558.398 2352.76,558.398 "/>
<polyline clip-path="url(#clip502)" style="stroke:#000000; stroke-linecap:round; stroke-linejoin:round; stroke-width:2; stroke-opacity:0.1; fill:none" points="257.204,379.031 2352.76,379.031 "/>
<polyline clip-path="url(#clip502)" style="stroke:#000000; stroke-linecap:round; stroke-linejoin:round; stroke-width:2; stroke-opacity:0.1; fill:none" points="257.204,199.665 2352.76,199.665 "/>
<polyline clip-path="url(#clip500)" style="stroke:#000000; stroke-linecap:round; stroke-linejoin:round; stroke-width:4; stroke-opacity:1; fill:none" points="257.204,1423.18 257.204,47.2441 "/>
<polyline clip-path="url(#clip500)" style="stroke:#000000; stroke-linecap:round; stroke-linejoin:round; stroke-width:4; stroke-opacity:1; fill:none" points="257.204,1275.86 276.102,1275.86 "/>
<polyline clip-path="url(#clip500)" style="stroke:#000000; stroke-linecap:round; stroke-linejoin:round; stroke-width:4; stroke-opacity:1; fill:none" points="257.204,1096.5 276.102,1096.5 "/>
<polyline clip-path="url(#clip500)" style="stroke:#000000; stroke-linecap:round; stroke-linejoin:round; stroke-width:4; stroke-opacity:1; fill:none" points="257.204,917.13 276.102,917.13 "/>
<polyline clip-path="url(#clip500)" style="stroke:#000000; stroke-linecap:round; stroke-linejoin:round; stroke-width:4; stroke-opacity:1; fill:none" points="257.204,737.764 276.102,737.764 "/>
<polyline clip-path="url(#clip500)" style="stroke:#000000; stroke-linecap:round; stroke-linejoin:round; stroke-width:4; stroke-opacity:1; fill:none" points="257.204,558.398 276.102,558.398 "/>
<polyline clip-path="url(#clip500)" style="stroke:#000000; stroke-linecap:round; stroke-linejoin:round; stroke-width:4; stroke-opacity:1; fill:none" points="257.204,379.031 276.102,379.031 "/>
<polyline clip-path="url(#clip500)" style="stroke:#000000; stroke-linecap:round; stroke-linejoin:round; stroke-width:4; stroke-opacity:1; fill:none" points="257.204,199.665 276.102,199.665 "/>
<path clip-path="url(#clip500)" d="M115.256 1276.31 L144.931 1276.31 L144.931 1280.25 L115.256 1280.25 L115.256 1276.31 Z" fill="#000000" fill-rule="nonzero" fill-opacity="1" /><path clip-path="url(#clip500)" d="M155.834 1289.21 L163.473 1289.21 L163.473 1262.84 L155.163 1264.51 L155.163 1260.25 L163.427 1258.58 L168.102 1258.58 L168.102 1289.21 L175.741 1289.21 L175.741 1293.14 L155.834 1293.14 L155.834 1289.21 Z" fill="#000000" fill-rule="nonzero" fill-opacity="1" /><path clip-path="url(#clip500)" d="M185.186 1287.26 L190.07 1287.26 L190.07 1293.14 L185.186 1293.14 L185.186 1287.26 Z" fill="#000000" fill-rule="nonzero" fill-opacity="1" /><path clip-path="url(#clip500)" d="M200.301 1258.58 L218.658 1258.58 L218.658 1262.52 L204.584 1262.52 L204.584 1270.99 Q205.602 1270.64 206.621 1270.48 Q207.639 1270.3 208.658 1270.3 Q214.445 1270.3 217.824 1273.47 Q221.204 1276.64 221.204 1282.06 Q221.204 1287.63 217.732 1290.74 Q214.26 1293.81 207.94 1293.81 Q205.764 1293.81 203.496 1293.44 Q201.25 1293.07 198.843 1292.33 L198.843 1287.63 Q200.926 1288.77 203.149 1289.32 Q205.371 1289.88 207.848 1289.88 Q211.852 1289.88 214.19 1287.77 Q216.528 1285.67 216.528 1282.06 Q216.528 1278.44 214.19 1276.34 Q211.852 1274.23 207.848 1274.23 Q205.973 1274.23 204.098 1274.65 Q202.246 1275.06 200.301 1275.94 L200.301 1258.58 Z" fill="#000000" fill-rule="nonzero" fill-opacity="1" /><path clip-path="url(#clip500)" d="M114.26 1096.95 L143.936 1096.95 L143.936 1100.88 L114.26 1100.88 L114.26 1096.95 Z" fill="#000000" fill-rule="nonzero" fill-opacity="1" /><path clip-path="url(#clip500)" d="M154.839 1109.84 L162.477 1109.84 L162.477 1083.48 L154.167 1085.14 L154.167 1080.88 L162.431 1079.22 L167.107 1079.22 L167.107 1109.84 L174.746 1109.84 L174.746 1113.78 L154.839 1113.78 L154.839 1109.84 Z" fill="#000000" fill-rule="nonzero" fill-opacity="1" /><path clip-path="url(#clip500)" d="M184.19 1107.9 L189.075 1107.9 L189.075 1113.78 L184.19 1113.78 L184.19 1107.9 Z" fill="#000000" fill-rule="nonzero" fill-opacity="1" /><path clip-path="url(#clip500)" d="M209.26 1082.3 Q205.649 1082.3 203.82 1085.86 Q202.014 1089.4 202.014 1096.53 Q202.014 1103.64 203.82 1107.2 Q205.649 1110.74 209.26 1110.74 Q212.894 1110.74 214.699 1107.2 Q216.528 1103.64 216.528 1096.53 Q216.528 1089.4 214.699 1085.86 Q212.894 1082.3 209.26 1082.3 M209.26 1078.59 Q215.07 1078.59 218.125 1083.2 Q221.204 1087.78 221.204 1096.53 Q221.204 1105.26 218.125 1109.86 Q215.07 1114.45 209.26 1114.45 Q203.449 1114.45 200.371 1109.86 Q197.315 1105.26 197.315 1096.53 Q197.315 1087.78 200.371 1083.2 Q203.449 1078.59 209.26 1078.59 Z" fill="#000000" fill-rule="nonzero" fill-opacity="1" /><path clip-path="url(#clip500)" d="M115.256 917.582 L144.931 917.582 L144.931 921.517 L115.256 921.517 L115.256 917.582 Z" fill="#000000" fill-rule="nonzero" fill-opacity="1" /><path clip-path="url(#clip500)" d="M165.024 902.929 Q161.413 902.929 159.584 906.494 Q157.778 910.035 157.778 917.165 Q157.778 924.272 159.584 927.836 Q161.413 931.378 165.024 931.378 Q168.658 931.378 170.464 927.836 Q172.292 924.272 172.292 917.165 Q172.292 910.035 170.464 906.494 Q168.658 902.929 165.024 902.929 M165.024 899.225 Q170.834 899.225 173.889 903.832 Q176.968 908.415 176.968 917.165 Q176.968 925.892 173.889 930.498 Q170.834 935.082 165.024 935.082 Q159.214 935.082 156.135 930.498 Q153.079 925.892 153.079 917.165 Q153.079 908.415 156.135 903.832 Q159.214 899.225 165.024 899.225 Z" fill="#000000" fill-rule="nonzero" fill-opacity="1" /><path clip-path="url(#clip500)" d="M185.186 928.531 L190.07 928.531 L190.07 934.41 L185.186 934.41 L185.186 928.531 Z" fill="#000000" fill-rule="nonzero" fill-opacity="1" /><path clip-path="url(#clip500)" d="M200.301 899.85 L218.658 899.85 L218.658 903.786 L204.584 903.786 L204.584 912.258 Q205.602 911.91 206.621 911.748 Q207.639 911.563 208.658 911.563 Q214.445 911.563 217.824 914.735 Q221.204 917.906 221.204 923.322 Q221.204 928.901 217.732 932.003 Q214.26 935.082 207.94 935.082 Q205.764 935.082 203.496 934.711 Q201.25 934.341 198.843 933.6 L198.843 928.901 Q200.926 930.035 203.149 930.591 Q205.371 931.146 207.848 931.146 Q211.852 931.146 214.19 929.04 Q216.528 926.934 216.528 923.322 Q216.528 919.711 214.19 917.605 Q211.852 915.498 207.848 915.498 Q205.973 915.498 204.098 915.915 Q202.246 916.332 200.301 917.211 L200.301 899.85 Z" fill="#000000" fill-rule="nonzero" fill-opacity="1" /><path clip-path="url(#clip500)" d="M164.028 723.563 Q160.417 723.563 158.589 727.127 Q156.783 730.669 156.783 737.799 Q156.783 744.905 158.589 748.47 Q160.417 752.012 164.028 752.012 Q167.663 752.012 169.468 748.47 Q171.297 744.905 171.297 737.799 Q171.297 730.669 169.468 727.127 Q167.663 723.563 164.028 723.563 M164.028 719.859 Q169.839 719.859 172.894 724.465 Q175.973 729.049 175.973 737.799 Q175.973 746.526 172.894 751.132 Q169.839 755.715 164.028 755.715 Q158.218 755.715 155.14 751.132 Q152.084 746.526 152.084 737.799 Q152.084 729.049 155.14 724.465 Q158.218 719.859 164.028 719.859 Z" fill="#000000" fill-rule="nonzero" fill-opacity="1" /><path clip-path="url(#clip500)" d="M184.19 749.164 L189.075 749.164 L189.075 755.044 L184.19 755.044 L184.19 749.164 Z" fill="#000000" fill-rule="nonzero" fill-opacity="1" /><path clip-path="url(#clip500)" d="M209.26 723.563 Q205.649 723.563 203.82 727.127 Q202.014 730.669 202.014 737.799 Q202.014 744.905 203.82 748.47 Q205.649 752.012 209.26 752.012 Q212.894 752.012 214.699 748.47 Q216.528 744.905 216.528 737.799 Q216.528 730.669 214.699 727.127 Q212.894 723.563 209.26 723.563 M209.26 719.859 Q215.07 719.859 218.125 724.465 Q221.204 729.049 221.204 737.799 Q221.204 746.526 218.125 751.132 Q215.07 755.715 209.26 755.715 Q203.449 755.715 200.371 751.132 Q197.315 746.526 197.315 737.799 Q197.315 729.049 200.371 724.465 Q203.449 719.859 209.26 719.859 Z" fill="#000000" fill-rule="nonzero" fill-opacity="1" /><path clip-path="url(#clip500)" d="M165.024 544.196 Q161.413 544.196 159.584 547.761 Q157.778 551.303 157.778 558.432 Q157.778 565.539 159.584 569.104 Q161.413 572.645 165.024 572.645 Q168.658 572.645 170.464 569.104 Q172.292 565.539 172.292 558.432 Q172.292 551.303 170.464 547.761 Q168.658 544.196 165.024 544.196 M165.024 540.493 Q170.834 540.493 173.889 545.099 Q176.968 549.682 176.968 558.432 Q176.968 567.159 173.889 571.766 Q170.834 576.349 165.024 576.349 Q159.214 576.349 156.135 571.766 Q153.079 567.159 153.079 558.432 Q153.079 549.682 156.135 545.099 Q159.214 540.493 165.024 540.493 Z" fill="#000000" fill-rule="nonzero" fill-opacity="1" /><path clip-path="url(#clip500)" d="M185.186 569.798 L190.07 569.798 L190.07 575.678 L185.186 575.678 L185.186 569.798 Z" fill="#000000" fill-rule="nonzero" fill-opacity="1" /><path clip-path="url(#clip500)" d="M200.301 541.118 L218.658 541.118 L218.658 545.053 L204.584 545.053 L204.584 553.525 Q205.602 553.178 206.621 553.016 Q207.639 552.831 208.658 552.831 Q214.445 552.831 217.824 556.002 Q221.204 559.173 221.204 564.59 Q221.204 570.168 217.732 573.27 Q214.26 576.349 207.94 576.349 Q205.764 576.349 203.496 575.979 Q201.25 575.608 198.843 574.867 L198.843 570.168 Q200.926 571.303 203.149 571.858 Q205.371 572.414 207.848 572.414 Q211.852 572.414 214.19 570.307 Q216.528 568.201 216.528 564.59 Q216.528 560.979 214.19 558.872 Q211.852 556.766 207.848 556.766 Q205.973 556.766 204.098 557.182 Q202.246 557.599 200.301 558.479 L200.301 541.118 Z" fill="#000000" fill-rule="nonzero" fill-opacity="1" /><path clip-path="url(#clip500)" d="M154.839 392.376 L162.477 392.376 L162.477 366.011 L154.167 367.677 L154.167 363.418 L162.431 361.751 L167.107 361.751 L167.107 392.376 L174.746 392.376 L174.746 396.311 L154.839 396.311 L154.839 392.376 Z" fill="#000000" fill-rule="nonzero" fill-opacity="1" /><path clip-path="url(#clip500)" d="M184.19 390.432 L189.075 390.432 L189.075 396.311 L184.19 396.311 L184.19 390.432 Z" fill="#000000" fill-rule="nonzero" fill-opacity="1" /><path clip-path="url(#clip500)" d="M209.26 364.83 Q205.649 364.83 203.82 368.395 Q202.014 371.936 202.014 379.066 Q202.014 386.172 203.82 389.737 Q205.649 393.279 209.26 393.279 Q212.894 393.279 214.699 389.737 Q216.528 386.172 216.528 379.066 Q216.528 371.936 214.699 368.395 Q212.894 364.83 209.26 364.83 M209.26 361.126 Q215.07 361.126 218.125 365.733 Q221.204 370.316 221.204 379.066 Q221.204 387.793 218.125 392.399 Q215.07 396.983 209.26 396.983 Q203.449 396.983 200.371 392.399 Q197.315 387.793 197.315 379.066 Q197.315 370.316 200.371 365.733 Q203.449 361.126 209.26 361.126 Z" fill="#000000" fill-rule="nonzero" fill-opacity="1" /><path clip-path="url(#clip500)" d="M155.834 213.01 L163.473 213.01 L163.473 186.644 L155.163 188.311 L155.163 184.052 L163.427 182.385 L168.102 182.385 L168.102 213.01 L175.741 213.01 L175.741 216.945 L155.834 216.945 L155.834 213.01 Z" fill="#000000" fill-rule="nonzero" fill-opacity="1" /><path clip-path="url(#clip500)" d="M185.186 211.065 L190.07 211.065 L190.07 216.945 L185.186 216.945 L185.186 211.065 Z" fill="#000000" fill-rule="nonzero" fill-opacity="1" /><path clip-path="url(#clip500)" d="M200.301 182.385 L218.658 182.385 L218.658 186.32 L204.584 186.32 L204.584 194.792 Q205.602 194.445 206.621 194.283 Q207.639 194.098 208.658 194.098 Q214.445 194.098 217.824 197.269 Q221.204 200.44 221.204 205.857 Q221.204 211.436 217.732 214.538 Q214.26 217.616 207.94 217.616 Q205.764 217.616 203.496 217.246 Q201.25 216.876 198.843 216.135 L198.843 211.436 Q200.926 212.57 203.149 213.126 Q205.371 213.681 207.848 213.681 Q211.852 213.681 214.19 211.575 Q216.528 209.468 216.528 205.857 Q216.528 202.246 214.19 200.14 Q211.852 198.033 207.848 198.033 Q205.973 198.033 204.098 198.45 Q202.246 198.866 200.301 199.746 L200.301 182.385 Z" fill="#000000" fill-rule="nonzero" fill-opacity="1" /><path clip-path="url(#clip500)" d="M30.8561 720.775 Q31.307 720.775 32.3698 721.064 L57.5548 727.377 Q63.1586 728.762 67.0877 733.27 Q71.0168 737.747 71.0168 742.836 Q71.0168 745.895 69.3743 747.86 Q67.764 749.824 65.2842 749.824 Q63.0942 749.824 62.0314 748.665 Q61.0008 747.505 61.0008 746.121 Q61.0008 745.67 61.1296 745.187 Q61.2584 744.703 61.8059 744.188 Q62.3534 743.673 63.2874 743.673 Q64.8011 743.673 65.9927 744.993 Q66.5402 745.637 66.669 746.249 Q66.7978 746.829 66.7978 747.827 Q67.6996 747.441 68.3115 746.732 Q68.9234 746.024 69.1489 745.219 Q69.4065 744.414 69.4709 743.898 Q69.5675 743.351 69.5675 742.836 Q69.5675 738.713 65.413 735.557 Q64.157 734.623 62.9009 733.947 Q61.6771 733.238 60.1634 732.723 Q58.682 732.208 57.8768 731.982 Q57.0717 731.725 55.2359 731.274 Q58.2311 734.269 58.2311 737.94 Q58.2311 739.486 57.8124 740.871 Q57.3937 742.224 56.5242 743.415 Q55.6224 744.607 54.0443 745.315 Q52.4662 745.992 50.3728 745.992 Q48.1506 745.992 45.1233 745.122 Q42.0959 744.253 36.5243 742.159 Q33.4004 741.032 31.8867 741.032 Q31.146 741.032 30.6951 741.193 Q30.212 741.354 30.051 741.676 Q29.8577 741.998 29.8255 742.191 Q29.7933 742.352 29.7933 742.675 Q29.7933 744.575 31.7257 746.346 Q33.658 748.117 37.9736 749.341 Q38.7787 749.599 38.972 749.76 Q39.1652 749.921 39.1652 750.404 Q39.133 751.209 38.4889 751.209 Q38.2312 751.209 37.2329 750.919 Q36.2023 750.629 34.6886 749.953 Q33.1427 749.245 31.7579 748.278 Q30.3408 747.312 29.3424 745.798 Q28.344 744.253 28.344 742.481 Q28.344 740.066 29.9221 738.584 Q31.468 737.071 33.7546 737.071 Q34.6886 737.071 35.5259 737.328 Q36.3311 737.554 38.4889 738.391 Q47.1845 741.773 51.4356 741.773 Q52.4662 741.773 53.3358 741.612 Q54.1731 741.418 55.0105 741 Q55.8156 740.581 56.2987 739.744 Q56.7496 738.874 56.7496 737.683 Q56.7496 736.169 56.0411 734.752 Q55.3003 733.303 54.302 732.401 Q53.3036 731.467 52.4662 730.919 Q51.5967 730.34 51.1458 730.211 L39.294 727.248 L34.0123 725.927 Q31.146 725.316 30.4374 725.026 Q29.7611 724.639 29.4068 723.963 Q29.0526 723.287 29.0526 722.707 Q29.0526 721.902 29.5357 721.354 Q30.0187 720.775 30.8561 720.775 Z" fill="#000000" fill-rule="nonzero" fill-opacity="1" /><polyline clip-path="url(#clip502)" style="stroke:#e26f46; stroke-linecap:round; stroke-linejoin:round; stroke-width:8; stroke-opacity:1; fill:none" stroke-dasharray="32, 20" points="316.512,737.764 320.373,900.299 324.235,634.424 328.096,771.127 331.957,682.458 335.818,723.1 339.679,820.977 343.541,439.148 347.402,629.038 351.263,894.938 355.124,423.842 358.985,692.206 362.847,697.316 366.708,558.445 370.569,615.966 374.43,643.784 378.291,668.219 382.153,816.153 386.014,636.08 389.875,744.902 393.736,713.323 397.597,590.111 401.459,718.612 405.32,620.84 409.181,535.504 413.042,656.679 416.903,524.66 420.765,750.609 424.626,389.286 428.487,527.231 432.348,787.837 436.209,617.068 440.071,381.563 443.932,880.175 447.793,793.414 451.654,774.641 455.515,728.998 459.377,980.99 463.238,1120.69 467.099,1126.9 470.96,1079.38 474.821,1020.24 478.683,960.697 482.544,958.381 486.405,821.119 490.266,891.935 494.127,648.083 497.989,1005.78 501.85,1000.48 505.711,1012.68 509.572,925.587 513.433,887.289 517.295,1097.33 521.156,946.228 525.017,786.893 528.878,862.543 532.739,660.256 536.601,904.858 540.462,1241.11 544.323,1090.52 548.184,1204.93 552.045,1197.06 555.907,1103 559.768,1196 563.629,761.241 567.49,947.441 571.351,1162.46 575.213,1069.97 579.074,927.051 582.935,1096.63 586.796,984.225 590.657,936.055 594.519,1131.64 598.38,963.862 602.241,1056.14 606.102,1265.71 609.963,1141.91 613.825,1048.53 617.686,1016.37 621.547,1234.34 625.408,1261.57 629.27,1125.16 633.131,1240.85 636.992,896.047 640.853,905.484 644.714,908.324 648.576,821.825 652.437,1061.9 656.298,917.278 660.159,1066.27 664.02,964.69 667.882,785.422 671.743,949.988 675.604,938.061 679.465,755.968 683.326,840.693 687.188,767.713 691.049,892.264 694.91,890.436 698.771,800.321 702.632,885.868 706.494,1080.69 710.355,820.864 714.216,1021.12 718.077,1315.55 721.938,1184.2 725.8,932.344 729.661,1155.17 733.522,1092.83 737.383,1219 741.244,947.842 745.106,1177.43 748.967,1022.68 752.828,1125.48 756.689,980.775 760.55,765.486 764.412,1050.34 768.273,1068.07 772.134,986.108 775.995,1106.52 779.856,1117.71 783.718,1015.08 787.579,968.318 791.44,1049.14 795.301,883.901 799.162,799.975 803.024,956.453 806.885,1273.99 810.746,930.921 814.607,966.926 818.468,1214 822.33,1249.64 826.191,918.062 830.052,999.176 833.913,1209.03 837.774,1163.47 841.636,1204.75 845.497,863.704 849.358,1208.82 853.219,1018.09 857.08,897.865 860.942,1070.68 864.803,894.74 868.664,718.253 872.525,873.892 876.386,1205.26 880.248,1048.5 884.109,859.996 887.97,1088.84 891.831,837.517 895.692,1187.17 899.554,1093.95 903.415,1059.53 907.276,1022.42 911.137,1030.59 914.999,488.735 918.86,923.793 922.721,1050.29 926.582,875.876 930.443,927.837 934.305,827.813 938.166,904.59 942.027,1368.53 945.888,1096.42 949.749,897.399 953.611,1200.68 957.472,1052.61 961.333,1243.93 965.194,1168.35 969.055,932.261 972.917,1182.6 976.778,969.232 980.639,961.501 984.5,1142.06 988.361,750.282 992.223,972.522 996.084,1087.02 999.945,1153.92 1003.81,1065.64 1007.67,1384.24 1011.53,923.868 1015.39,1219.6 1019.25,1088.38 1023.11,867.906 1026.97,1096.23 1030.83,1244.95 1034.7,875.778 1038.56,998.772 1042.42,1013.85 1046.28,675.783 1050.14,1027.26 1054,771.133 1057.86,794.297 1061.72,737.717 1065.59,927.316 1069.45,613.402 1073.31,1036.08 1077.17,777.1 1081.03,745.616 1084.89,817.397 1088.75,1008.47 1092.61,952.376 1096.48,667.312 1100.34,905.773 1104.2,818.661 1108.06,848.065 1111.92,592.049 1115.78,443.457 1119.64,547.582 1123.5,876.537 1127.36,772.038 1131.23,910.638 1135.09,869.369 1138.95,659.056 1142.81,680.913 1146.67,571.823 1150.53,637.417 1154.39,817.098 1158.25,673.887 1162.12,787.525 1165.98,744.941 1169.84,949.713 1173.7,810.834 1177.56,787.666 1181.42,792.774 1185.28,756.644 1189.14,517.108 1193.01,781.983 1196.87,697.581 1200.73,847.962 1204.59,742.821 1208.45,757.839 1212.31,849.748 1216.17,599.418 1220.03,931.62 1223.89,939.152 1227.76,878.975 1231.62,741.453 1235.48,758.593 1239.34,915.231 1243.2,612.547 1247.06,673.741 1250.92,788.771 1254.78,672.478 1258.65,744.66 1262.51,793.671 1266.37,830.211 1270.23,665.209 1274.09,519.25 1277.95,695.257 1281.81,692.749 1285.67,698.4 1289.54,690.882 1293.4,539.113 1297.26,720.581 1301.12,676.733 1304.98,816.854 1308.84,517.341 1312.7,836.768 1316.56,759.828 1320.42,762.119 1324.29,405.171 1328.15,442.319 1332.01,706.641 1335.87,648.649 1339.73,1131.77 1343.59,1017.63 1347.45,515.383 1351.31,620.636 1355.18,1059.33 1359.04,515.136 1362.9,478.546 1366.76,976.405 1370.62,805.544 1374.48,636.703 1378.34,676.374 1382.2,981.898 1386.07,752.658 1389.93,684.785 1393.79,629.569 1397.65,950.198 1401.51,745.35 1405.37,960.433 1409.23,657.941 1413.09,537.425 1416.95,672.309 1420.82,529.215 1424.68,464.46 1428.54,413.641 1432.4,839.694 1436.26,495.827 1440.12,718.562 1443.98,387.043 1447.84,725.74 1451.71,536.34 1455.57,665.938 1459.43,662.331 1463.29,719.229 1467.15,501.404 1471.01,889.196 1474.87,826.609 1478.73,633.646 1482.6,410.737 1486.46,396.161 1490.32,580.545 1494.18,623.624 1498.04,616.596 1501.9,567.835 1505.76,535.114 1509.62,695.405 1513.48,540.385 1517.35,492.577 1521.21,713.125 1525.07,748.134 1528.93,430.655 1532.79,634.219 1536.65,622.822 1540.51,746.133 1544.37,499.638 1548.24,538.784 1552.1,747.71 1555.96,552.926 1559.82,474.286 1563.68,458.208 1567.54,494.74 1571.4,843.837 1575.26,569.467 1579.13,618.39 1582.99,631.279 1586.85,503.343 1590.71,560.617 1594.57,381.336 1598.43,475.082 1602.29,602.833 1606.15,624.278 1610.01,523.1 1613.88,909.658 1617.74,652.214 1621.6,838.736 1625.46,757.47 1629.32,823.123 1633.18,813.938 1637.04,807.048 1640.9,574.149 1644.77,599.064 1648.63,637.229 1652.49,382.037 1656.35,543.902 1660.21,462.017 1664.07,548.84 1667.93,903.409 1671.79,844.609 1675.66,646.934 1679.52,505.825 1683.38,957.034 1687.24,684.925 1691.1,687.534 1694.96,580.18 1698.82,801.174 1702.68,759.685 1706.55,946.734 1710.41,917.59 1714.27,451.328 1718.13,870.122 1721.99,457.292 1725.85,606.735 1729.71,506.19 1733.57,631.507 1737.43,652.406 1741.3,653.968 1745.16,651.054 1749.02,663.053 1752.88,836.014 1756.74,362.192 1760.6,766.284 1764.46,553.022 1768.32,724.442 1772.19,572.944 1776.05,412.758 1779.91,512.716 1783.77,625.041 1787.63,501.207 1791.49,300.182 1795.35,625.417 1799.21,439.853 1803.08,709.546 1806.94,480.446 1810.8,442.251 1814.66,567.824 1818.52,866.446 1822.38,534.452 1826.24,985.169 1830.1,715.018 1833.96,607.043 1837.83,835.99 1841.69,860.403 1845.55,423.474 1849.41,804.191 1853.27,576.479 1857.13,572.898 1860.99,669.165 1864.85,362.11 1868.72,551.825 1872.58,305.676 1876.44,335.837 1880.3,300.876 1884.16,251.501 1888.02,195.668 1891.88,419.48 1895.74,490.323 1899.61,463.659 1903.47,460.931 1907.33,704.14 1911.19,562.976 1915.05,369.83 1918.91,826.801 1922.77,704.791 1926.63,291.825 1930.49,347.46 1934.36,395.067 1938.22,425.653 1942.08,369.68 1945.94,532.33 1949.8,661.696 1953.66,613.89 1957.52,697.799 1961.38,493.609 1965.25,670.17 1969.11,756.962 1972.97,856.888 1976.83,506.322 1980.69,699.581 1984.55,800.099 1988.41,462.514 1992.27,234.177 1996.14,361.021 2000,604.08 2003.86,583.048 2007.72,807.248 2011.58,426.323 2015.44,496.544 2019.3,625.399 2023.16,464.984 2027.02,465.239 2030.89,558.402 2034.75,699.506 2038.61,841.21 2042.47,890.462 2046.33,867.493 2050.19,1011.28 2054.05,649.145 2057.91,886.854 2061.78,722.154 2065.64,751.723 2069.5,514.663 2073.36,732.663 2077.22,333.973 2081.08,453.779 2084.94,528.045 2088.8,693.777 2092.67,708.333 2096.53,623.72 2100.39,591.665 2104.25,343.929 2108.11,444.362 2111.97,352.92 2115.83,503.682 2119.69,818.29 2123.55,533.001 2127.42,378.97 2131.28,739.541 2135.14,437.513 2139,466.677 2142.86,395.868 2146.72,551.223 2150.58,589.783 2154.44,334.639 2158.31,448.372 2162.17,364.897 2166.03,554.424 2169.89,683.288 2173.75,617.305 2177.61,496.649 2181.47,245.539 2185.33,280.348 2189.2,286.085 2193.06,395.236 2196.92,520.217 2200.78,453.785 2204.64,514.839 2208.5,651.959 2212.36,834.274 2216.22,392.716 2220.08,561.108 2223.95,432.383 2227.81,312.279 2231.67,541.801 2235.53,328.316 2239.39,522.006 2243.25,86.1857 2247.11,193.657 2250.97,571.103 2254.84,345.696 2258.7,670.847 2262.56,509.274 2266.42,503.121 2270.28,341.715 2274.14,289.806 2278,433.223 2281.86,299.238 2285.73,387.522 2289.59,342.13 2293.45,441.681 "/>
<path clip-path="url(#clip500)" d="M1954.09 1377.32 L2282.9 1377.32 L2282.9 1273.64 L1954.09 1273.64  Z" fill="#ffffff" fill-rule="evenodd" fill-opacity="1"/>
<polyline clip-path="url(#clip500)" style="stroke:#000000; stroke-linecap:round; stroke-linejoin:round; stroke-width:4; stroke-opacity:1; fill:none" points="1954.09,1377.32 2282.9,1377.32 2282.9,1273.64 1954.09,1273.64 1954.09,1377.32 "/>
<polyline clip-path="url(#clip500)" style="stroke:#e26f46; stroke-linecap:round; stroke-linejoin:round; stroke-width:8; stroke-opacity:1; fill:none" stroke-dasharray="32, 20" points="1977.37,1325.48 2117.08,1325.48 "/>
<path clip-path="url(#clip500)" d="M2162.07 1327.11 L2162.07 1342.76 L2157.82 1342.76 L2157.82 1327.25 Q2157.82 1323.57 2156.38 1321.74 Q2154.94 1319.91 2152.07 1319.91 Q2148.63 1319.91 2146.63 1322.11 Q2144.64 1324.31 2144.64 1328.1 L2144.64 1342.76 L2140.36 1342.76 L2140.36 1316.83 L2144.64 1316.83 L2144.64 1320.86 Q2146.17 1318.52 2148.23 1317.36 Q2150.32 1316.2 2153.02 1316.2 Q2157.49 1316.2 2159.78 1318.98 Q2162.07 1321.74 2162.07 1327.11 Z" fill="#000000" fill-rule="nonzero" fill-opacity="1" /><path clip-path="url(#clip500)" d="M2180.62 1319.82 Q2177.19 1319.82 2175.2 1322.5 Q2173.21 1325.16 2173.21 1329.82 Q2173.21 1334.47 2175.18 1337.15 Q2177.17 1339.82 2180.62 1339.82 Q2184.02 1339.82 2186.01 1337.13 Q2188 1334.45 2188 1329.82 Q2188 1325.21 2186.01 1322.52 Q2184.02 1319.82 2180.62 1319.82 M2180.62 1316.2 Q2186.17 1316.2 2189.34 1319.82 Q2192.51 1323.43 2192.51 1329.82 Q2192.51 1336.18 2189.34 1339.82 Q2186.17 1343.43 2180.62 1343.43 Q2175.04 1343.43 2171.87 1339.82 Q2168.72 1336.18 2168.72 1329.82 Q2168.72 1323.43 2171.87 1319.82 Q2175.04 1316.2 2180.62 1316.2 Z" fill="#000000" fill-rule="nonzero" fill-opacity="1" /><path clip-path="url(#clip500)" d="M2199.57 1316.83 L2203.83 1316.83 L2203.83 1342.76 L2199.57 1342.76 L2199.57 1316.83 M2199.57 1306.74 L2203.83 1306.74 L2203.83 1312.13 L2199.57 1312.13 L2199.57 1306.74 Z" fill="#000000" fill-rule="nonzero" fill-opacity="1" /><path clip-path="url(#clip500)" d="M2229.27 1317.59 L2229.27 1321.62 Q2227.47 1320.7 2225.52 1320.23 Q2223.58 1319.77 2221.5 1319.77 Q2218.32 1319.77 2216.73 1320.74 Q2215.15 1321.71 2215.15 1323.66 Q2215.15 1325.14 2216.29 1326 Q2217.42 1326.83 2220.85 1327.59 L2222.31 1327.92 Q2226.84 1328.89 2228.74 1330.67 Q2230.66 1332.43 2230.66 1335.6 Q2230.66 1339.21 2227.79 1341.32 Q2224.94 1343.43 2219.94 1343.43 Q2217.86 1343.43 2215.59 1343.01 Q2213.35 1342.62 2210.85 1341.81 L2210.85 1337.41 Q2213.21 1338.63 2215.5 1339.26 Q2217.79 1339.86 2220.04 1339.86 Q2223.05 1339.86 2224.67 1338.84 Q2226.29 1337.8 2226.29 1335.93 Q2226.29 1334.19 2225.11 1333.26 Q2223.95 1332.34 2219.99 1331.48 L2218.51 1331.14 Q2214.55 1330.3 2212.79 1328.59 Q2211.03 1326.85 2211.03 1323.84 Q2211.03 1320.19 2213.63 1318.2 Q2216.22 1316.2 2220.99 1316.2 Q2223.35 1316.2 2225.43 1316.55 Q2227.51 1316.9 2229.27 1317.59 Z" fill="#000000" fill-rule="nonzero" fill-opacity="1" /><path clip-path="url(#clip500)" d="M2259.62 1328.73 L2259.62 1330.81 L2240.04 1330.81 Q2240.31 1335.21 2242.68 1337.52 Q2245.06 1339.82 2249.3 1339.82 Q2251.75 1339.82 2254.04 1339.21 Q2256.36 1338.61 2258.62 1337.41 L2258.62 1341.44 Q2256.33 1342.41 2253.93 1342.92 Q2251.52 1343.43 2249.04 1343.43 Q2242.84 1343.43 2239.2 1339.82 Q2235.59 1336.2 2235.59 1330.05 Q2235.59 1323.68 2239.02 1319.95 Q2242.47 1316.2 2248.3 1316.2 Q2253.53 1316.2 2256.56 1319.58 Q2259.62 1322.94 2259.62 1328.73 M2255.36 1327.48 Q2255.31 1323.98 2253.39 1321.9 Q2251.5 1319.82 2248.35 1319.82 Q2244.78 1319.82 2242.63 1321.83 Q2240.5 1323.84 2240.18 1327.5 L2255.36 1327.48 Z" fill="#000000" fill-rule="nonzero" fill-opacity="1" /></svg>
