<?xml version="1.0" encoding="utf-8"?>
<svg xmlns="http://www.w3.org/2000/svg" xmlns:xlink="http://www.w3.org/1999/xlink" width="600" height="400" viewBox="0 0 2400 1600">
<defs>
  <clipPath id="clip380">
    <rect x="0" y="0" width="2400" height="1600"/>
  </clipPath>
</defs>
<path clip-path="url(#clip380)" d="M0 1600 L2400 1600 L2400 0 L0 0  Z" fill="#ffffff" fill-rule="evenodd" fill-opacity="1"/>
<defs>
  <clipPath id="clip381">
    <rect x="480" y="0" width="1681" height="1600"/>
  </clipPath>
</defs>
<path clip-path="url(#clip380)" d="M313.626 1410.9 L2352.76 1410.9 L2352.76 47.2441 L313.626 47.2441  Z" fill="#ffffff" fill-rule="evenodd" fill-opacity="1"/>
<defs>
  <clipPath id="clip382">
    <rect x="313" y="47" width="2040" height="1365"/>
  </clipPath>
</defs>
<polyline clip-path="url(#clip382)" style="stroke:#000000; stroke-linecap:round; stroke-linejoin:round; stroke-width:2; stroke-opacity:0.1; fill:none" points="817.111,1410.9 817.111,47.2441 "/>
<polyline clip-path="url(#clip382)" style="stroke:#000000; stroke-linecap:round; stroke-linejoin:round; stroke-width:2; stroke-opacity:0.1; fill:none" points="1349.65,1410.9 1349.65,47.2441 "/>
<polyline clip-path="url(#clip382)" style="stroke:#000000; stroke-linecap:round; stroke-linejoin:round; stroke-width:2; stroke-opacity:0.1; fill:none" points="1882.18,1410.9 1882.18,47.2441 "/>
<polyline clip-path="url(#clip380)" style="stroke:#000000; stroke-linecap:round; stroke-linejoin:round; stroke-width:4; stroke-opacity:1; fill:none" points="313.626,1410.9 2352.76,1410.9 "/>
<polyline clip-path="url(#clip380)" style="stroke:#000000; stroke-linecap:round; stroke-linejoin:round; stroke-width:4; stroke-opacity:1; fill:none" points="817.111,1410.9 817.111,1392 "/>
<polyline clip-path="url(#clip380)" style="stroke:#000000; stroke-linecap:round; stroke-linejoin:round; stroke-width:4; stroke-opacity:1; fill:none" points="1349.65,1410.9 1349.65,1392 "/>
<polyline clip-path="url(#clip380)" style="stroke:#000000; stroke-linecap:round; stroke-linejoin:round; stroke-width:4; stroke-opacity:1; fill:none" points="1882.18,1410.9 1882.18,1392 "/>
<path clip-path="url(#clip380)" d="M736.1 1485.02 L743.739 1485.02 L743.739 1458.66 L735.428 1460.32 L735.428 1456.06 L743.692 1454.4 L748.368 1454.4 L748.368 1485.02 L756.007 1485.02 L756.007 1488.96 L736.1 1488.96 L736.1 1485.02 Z" fill="#000000" fill-rule="nonzero" fill-opacity="1" /><path clip-path="url(#clip380)" d="M775.451 1457.48 Q771.84 1457.48 770.012 1461.04 Q768.206 1464.58 768.206 1471.71 Q768.206 1478.82 770.012 1482.38 Q771.84 1485.92 775.451 1485.92 Q779.086 1485.92 780.891 1482.38 Q782.72 1478.82 782.72 1471.71 Q782.72 1464.58 780.891 1461.04 Q779.086 1457.48 775.451 1457.48 M775.451 1453.77 Q781.262 1453.77 784.317 1458.38 Q787.396 1462.96 787.396 1471.71 Q787.396 1480.44 784.317 1485.04 Q781.262 1489.63 775.451 1489.63 Q769.641 1489.63 766.563 1485.04 Q763.507 1480.44 763.507 1471.71 Q763.507 1462.96 766.563 1458.38 Q769.641 1453.77 775.451 1453.77 Z" fill="#000000" fill-rule="nonzero" fill-opacity="1" /><path clip-path="url(#clip380)" d="M787.396 1447.87 L811.507 1447.87 L811.507 1451.07 L787.396 1451.07 L787.396 1447.87 Z" fill="#000000" fill-rule="nonzero" fill-opacity="1" /><path clip-path="url(#clip380)" d="M822.98 1458.35 L836.24 1458.35 L836.24 1461.55 L818.41 1461.55 L818.41 1458.35 Q820.573 1456.11 824.297 1452.35 Q828.039 1448.57 828.999 1447.48 Q830.823 1445.43 831.538 1444.02 Q832.271 1442.59 832.271 1441.22 Q832.271 1438.98 830.691 1437.57 Q829.13 1436.16 826.61 1436.16 Q824.823 1436.16 822.83 1436.78 Q820.855 1437.4 818.598 1438.66 L818.598 1434.82 Q820.892 1433.9 822.886 1433.43 Q824.88 1432.96 826.535 1432.96 Q830.898 1432.96 833.494 1435.14 Q836.089 1437.32 836.089 1440.97 Q836.089 1442.7 835.431 1444.26 Q834.791 1445.8 833.08 1447.91 Q832.61 1448.46 830.089 1451.07 Q827.569 1453.67 822.98 1458.35 Z" fill="#000000" fill-rule="nonzero" fill-opacity="1" /><path clip-path="url(#clip380)" d="M844.214 1456.77 L848.182 1456.77 L848.182 1461.55 L844.214 1461.55 L844.214 1456.77 Z" fill="#000000" fill-rule="nonzero" fill-opacity="1" /><path clip-path="url(#clip380)" d="M856.495 1433.47 L871.41 1433.47 L871.41 1436.66 L859.975 1436.66 L859.975 1443.55 Q860.802 1443.27 861.63 1443.13 Q862.458 1442.98 863.285 1442.98 Q867.987 1442.98 870.733 1445.56 Q873.479 1448.14 873.479 1452.54 Q873.479 1457.07 870.658 1459.59 Q867.837 1462.09 862.702 1462.09 Q860.934 1462.09 859.091 1461.79 Q857.267 1461.49 855.311 1460.89 L855.311 1457.07 Q857.003 1457.99 858.809 1458.44 Q860.614 1458.89 862.627 1458.89 Q865.881 1458.89 867.78 1457.18 Q869.68 1455.47 869.68 1452.54 Q869.68 1449.6 867.78 1447.89 Q865.881 1446.18 862.627 1446.18 Q861.103 1446.18 859.58 1446.52 Q858.075 1446.86 856.495 1447.57 L856.495 1433.47 Z" fill="#000000" fill-rule="nonzero" fill-opacity="1" /><path clip-path="url(#clip380)" d="M889.089 1435.97 Q886.155 1435.97 884.67 1438.86 Q883.203 1441.74 883.203 1447.53 Q883.203 1453.31 884.67 1456.2 Q886.155 1459.08 889.089 1459.08 Q892.042 1459.08 893.509 1456.2 Q894.995 1453.31 894.995 1447.53 Q894.995 1441.74 893.509 1438.86 Q892.042 1435.97 889.089 1435.97 M889.089 1432.96 Q893.81 1432.96 896.293 1436.7 Q898.794 1440.43 898.794 1447.53 Q898.794 1454.62 896.293 1458.37 Q893.81 1462.09 889.089 1462.09 Q884.369 1462.09 881.867 1458.37 Q879.385 1454.62 879.385 1447.53 Q879.385 1440.43 881.867 1436.7 Q884.369 1432.96 889.089 1432.96 Z" fill="#000000" fill-rule="nonzero" fill-opacity="1" /><path clip-path="url(#clip380)" d="M1269.04 1485.02 L1276.68 1485.02 L1276.68 1458.66 L1268.37 1460.32 L1268.37 1456.06 L1276.63 1454.4 L1281.31 1454.4 L1281.31 1485.02 L1288.95 1485.02 L1288.95 1488.96 L1269.04 1488.96 L1269.04 1485.02 Z" fill="#000000" fill-rule="nonzero" fill-opacity="1" /><path clip-path="url(#clip380)" d="M1308.39 1457.48 Q1304.78 1457.48 1302.95 1461.04 Q1301.15 1464.58 1301.15 1471.71 Q1301.15 1478.82 1302.95 1482.38 Q1304.78 1485.92 1308.39 1485.92 Q1312.02 1485.92 1313.83 1482.38 Q1315.66 1478.82 1315.66 1471.71 Q1315.66 1464.58 1313.83 1461.04 Q1312.02 1457.48 1308.39 1457.48 M1308.39 1453.77 Q1314.2 1453.77 1317.26 1458.38 Q1320.33 1462.96 1320.33 1471.71 Q1320.33 1480.44 1317.26 1485.04 Q1314.2 1489.63 1308.39 1489.63 Q1302.58 1489.63 1299.5 1485.04 Q1296.45 1480.44 1296.45 1471.71 Q1296.45 1462.96 1299.5 1458.38 Q1302.58 1453.77 1308.39 1453.77 Z" fill="#000000" fill-rule="nonzero" fill-opacity="1" /><path clip-path="url(#clip380)" d="M1320.33 1447.87 L1344.45 1447.87 L1344.45 1451.07 L1320.33 1451.07 L1320.33 1447.87 Z" fill="#000000" fill-rule="nonzero" fill-opacity="1" /><path clip-path="url(#clip380)" d="M1355.92 1458.35 L1369.18 1458.35 L1369.18 1461.55 L1351.35 1461.55 L1351.35 1458.35 Q1353.51 1456.11 1357.24 1452.35 Q1360.98 1448.57 1361.94 1447.48 Q1363.76 1445.43 1364.48 1444.02 Q1365.21 1442.59 1365.21 1441.22 Q1365.21 1438.98 1363.63 1437.57 Q1362.07 1436.16 1359.55 1436.16 Q1357.76 1436.16 1355.77 1436.78 Q1353.79 1437.4 1351.54 1438.66 L1351.54 1434.82 Q1353.83 1433.9 1355.83 1433.43 Q1357.82 1432.96 1359.47 1432.96 Q1363.84 1432.96 1366.43 1435.14 Q1369.03 1437.32 1369.03 1440.97 Q1369.03 1442.7 1368.37 1444.26 Q1367.73 1445.8 1366.02 1447.91 Q1365.55 1448.46 1363.03 1451.07 Q1360.51 1453.67 1355.92 1458.35 Z" fill="#000000" fill-rule="nonzero" fill-opacity="1" /><path clip-path="url(#clip380)" d="M1377.15 1456.77 L1381.12 1456.77 L1381.12 1461.55 L1377.15 1461.55 L1377.15 1456.77 Z" fill="#000000" fill-rule="nonzero" fill-opacity="1" /><path clip-path="url(#clip380)" d="M1392.67 1458.35 L1405.93 1458.35 L1405.93 1461.55 L1388.1 1461.55 L1388.1 1458.35 Q1390.26 1456.11 1393.99 1452.35 Q1397.73 1448.57 1398.69 1447.48 Q1400.51 1445.43 1401.23 1444.02 Q1401.96 1442.59 1401.96 1441.22 Q1401.96 1438.98 1400.38 1437.57 Q1398.82 1436.16 1396.3 1436.16 Q1394.51 1436.16 1392.52 1436.78 Q1390.54 1437.4 1388.29 1438.66 L1388.29 1434.82 Q1390.58 1433.9 1392.58 1433.43 Q1394.57 1432.96 1396.22 1432.96 Q1400.59 1432.96 1403.18 1435.14 Q1405.78 1437.32 1405.78 1440.97 Q1405.78 1442.7 1405.12 1444.26 Q1404.48 1445.8 1402.77 1447.91 Q1402.3 1448.46 1399.78 1451.07 Q1397.26 1453.67 1392.67 1458.35 Z" fill="#000000" fill-rule="nonzero" fill-opacity="1" /><path clip-path="url(#clip380)" d="M1413.94 1433.47 L1428.86 1433.47 L1428.86 1436.66 L1417.42 1436.66 L1417.42 1443.55 Q1418.25 1443.27 1419.08 1443.13 Q1419.9 1442.98 1420.73 1442.98 Q1425.43 1442.98 1428.18 1445.56 Q1430.92 1448.14 1430.92 1452.54 Q1430.92 1457.07 1428.1 1459.59 Q1425.28 1462.09 1420.15 1462.09 Q1418.38 1462.09 1416.54 1461.79 Q1414.71 1461.49 1412.76 1460.89 L1412.76 1457.07 Q1414.45 1457.99 1416.25 1458.44 Q1418.06 1458.89 1420.07 1458.89 Q1423.33 1458.89 1425.23 1457.18 Q1427.13 1455.47 1427.13 1452.54 Q1427.13 1449.6 1425.23 1447.89 Q1423.33 1446.18 1420.07 1446.18 Q1418.55 1446.18 1417.03 1446.52 Q1415.52 1446.86 1413.94 1447.57 L1413.94 1433.47 Z" fill="#000000" fill-rule="nonzero" fill-opacity="1" /><path clip-path="url(#clip380)" d="M1801.17 1485.02 L1808.81 1485.02 L1808.81 1458.66 L1800.5 1460.32 L1800.5 1456.06 L1808.76 1454.4 L1813.44 1454.4 L1813.44 1485.02 L1821.08 1485.02 L1821.08 1488.96 L1801.17 1488.96 L1801.17 1485.02 Z" fill="#000000" fill-rule="nonzero" fill-opacity="1" /><path clip-path="url(#clip380)" d="M1840.52 1457.48 Q1836.91 1457.48 1835.08 1461.04 Q1833.28 1464.58 1833.28 1471.71 Q1833.28 1478.82 1835.08 1482.38 Q1836.91 1485.92 1840.52 1485.92 Q1844.16 1485.92 1845.96 1482.38 Q1847.79 1478.82 1847.79 1471.71 Q1847.79 1464.58 1845.96 1461.04 Q1844.16 1457.48 1840.52 1457.48 M1840.52 1453.77 Q1846.33 1453.77 1849.39 1458.38 Q1852.47 1462.96 1852.47 1471.71 Q1852.47 1480.44 1849.39 1485.04 Q1846.33 1489.63 1840.52 1489.63 Q1834.71 1489.63 1831.63 1485.04 Q1828.58 1480.44 1828.58 1471.71 Q1828.58 1462.96 1831.63 1458.38 Q1834.71 1453.77 1840.52 1453.77 Z" fill="#000000" fill-rule="nonzero" fill-opacity="1" /><path clip-path="url(#clip380)" d="M1852.47 1447.87 L1876.58 1447.87 L1876.58 1451.07 L1852.47 1451.07 L1852.47 1447.87 Z" fill="#000000" fill-rule="nonzero" fill-opacity="1" /><path clip-path="url(#clip380)" d="M1888.05 1458.35 L1901.31 1458.35 L1901.31 1461.55 L1883.48 1461.55 L1883.48 1458.35 Q1885.64 1456.11 1889.37 1452.35 Q1893.11 1448.57 1894.07 1447.48 Q1895.89 1445.43 1896.61 1444.02 Q1897.34 1442.59 1897.34 1441.22 Q1897.34 1438.98 1895.76 1437.57 Q1894.2 1436.16 1891.68 1436.16 Q1889.89 1436.16 1887.9 1436.78 Q1885.92 1437.4 1883.67 1438.66 L1883.67 1434.82 Q1885.96 1433.9 1887.96 1433.43 Q1889.95 1432.96 1891.6 1432.96 Q1895.97 1432.96 1898.56 1435.14 Q1901.16 1437.32 1901.16 1440.97 Q1901.16 1442.7 1900.5 1444.26 Q1899.86 1445.8 1898.15 1447.91 Q1897.68 1448.46 1895.16 1451.07 Q1892.64 1453.67 1888.05 1458.35 Z" fill="#000000" fill-rule="nonzero" fill-opacity="1" /><path clip-path="url(#clip380)" d="M1909.28 1456.77 L1913.25 1456.77 L1913.25 1461.55 L1909.28 1461.55 L1909.28 1456.77 Z" fill="#000000" fill-rule="nonzero" fill-opacity="1" /><path clip-path="url(#clip380)" d="M1929.65 1435.97 Q1926.72 1435.97 1925.23 1438.86 Q1923.77 1441.74 1923.77 1447.53 Q1923.77 1453.31 1925.23 1456.2 Q1926.72 1459.08 1929.65 1459.08 Q1932.61 1459.08 1934.07 1456.2 Q1935.56 1453.31 1935.56 1447.53 Q1935.56 1441.74 1934.07 1438.86 Q1932.61 1435.97 1929.65 1435.97 M1929.65 1432.96 Q1934.37 1432.96 1936.86 1436.7 Q1939.36 1440.43 1939.36 1447.53 Q1939.36 1454.62 1936.86 1458.37 Q1934.37 1462.09 1929.65 1462.09 Q1924.93 1462.09 1922.43 1458.37 Q1919.95 1454.62 1919.95 1447.53 Q1919.95 1440.43 1922.43 1436.7 Q1924.93 1432.96 1929.65 1432.96 Z" fill="#000000" fill-rule="nonzero" fill-opacity="1" /><path clip-path="url(#clip380)" d="M1954.16 1435.97 Q1951.23 1435.97 1949.74 1438.86 Q1948.27 1441.74 1948.27 1447.53 Q1948.27 1453.31 1949.74 1456.2 Q1951.23 1459.08 1954.16 1459.08 Q1957.11 1459.08 1958.58 1456.2 Q1960.06 1453.31 1960.06 1447.53 Q1960.06 1441.74 1958.58 1438.86 Q1957.11 1435.97 1954.16 1435.97 M1954.16 1432.96 Q1958.88 1432.96 1961.36 1436.7 Q1963.86 1440.43 1963.86 1447.53 Q1963.86 1454.62 1961.36 1458.37 Q1958.88 1462.09 1954.16 1462.09 Q1949.44 1462.09 1946.94 1458.37 Q1944.45 1454.62 1944.45 1447.53 Q1944.45 1440.43 1946.94 1436.7 Q1949.44 1432.96 1954.16 1432.96 Z" fill="#000000" fill-rule="nonzero" fill-opacity="1" /><path clip-path="url(#clip380)" d="M1294.74 1568.04 Q1294.74 1567.79 1295.61 1566.11 Q1296.48 1564.41 1299.54 1558.32 Q1302.6 1552.2 1305.75 1545.79 L1317.12 1522.92 Q1317.93 1521.48 1318.96 1521.48 Q1319.89 1521.48 1320.31 1522.05 Q1320.73 1522.63 1322.66 1526.53 Q1323.66 1528.43 1324.24 1529.66 L1342.89 1566.98 Q1343.21 1567.79 1343.24 1568.04 Q1343.24 1568.69 1342.11 1568.69 L1296.48 1568.69 Q1294.74 1568.69 1294.74 1568.04 M1299.09 1563.66 L1334.58 1563.66 L1316.83 1528.05 L1299.09 1563.66 Z" fill="#000000" fill-rule="nonzero" fill-opacity="1" /><path clip-path="url(#clip380)" d="M1368.33 1540.99 Q1368.33 1541.89 1367.91 1542.12 Q1367.49 1542.31 1366.33 1542.31 L1360.15 1542.31 L1355.25 1561.76 Q1354.87 1563.47 1354.87 1564.92 Q1354.87 1566.53 1355.35 1567.24 Q1355.86 1567.95 1356.93 1567.95 Q1359.02 1567.95 1361.27 1566.05 Q1363.56 1564.15 1365.49 1559.51 Q1365.75 1558.9 1365.88 1558.77 Q1366.04 1558.61 1366.46 1558.61 Q1367.26 1558.61 1367.26 1559.25 Q1367.26 1559.48 1366.81 1560.51 Q1366.4 1561.54 1365.46 1563.05 Q1364.56 1564.57 1363.37 1565.98 Q1362.21 1567.4 1360.44 1568.43 Q1358.67 1569.43 1356.77 1569.43 Q1354.09 1569.43 1352.39 1567.72 Q1350.71 1566.02 1350.71 1563.34 Q1350.71 1562.47 1351.39 1559.7 Q1352.06 1556.9 1355.73 1542.31 L1349.91 1542.31 Q1349.1 1542.31 1348.78 1542.28 Q1348.49 1542.25 1348.26 1542.09 Q1348.07 1541.89 1348.07 1541.51 Q1348.07 1540.9 1348.33 1540.64 Q1348.59 1540.35 1348.91 1540.32 Q1349.26 1540.25 1350.07 1540.25 L1356.25 1540.25 L1358.83 1529.78 Q1359.08 1528.75 1359.73 1528.17 Q1360.4 1527.56 1360.79 1527.5 Q1361.18 1527.4 1361.47 1527.4 Q1362.34 1527.4 1362.85 1527.88 Q1363.37 1528.34 1363.37 1529.17 Q1363.37 1529.62 1360.66 1540.25 L1366.46 1540.25 Q1367.2 1540.25 1367.49 1540.28 Q1367.81 1540.32 1368.07 1540.48 Q1368.33 1540.64 1368.33 1540.99 Z" fill="#000000" fill-rule="nonzero" fill-opacity="1" /><polyline clip-path="url(#clip382)" style="stroke:#000000; stroke-linecap:round; stroke-linejoin:round; stroke-width:2; stroke-opacity:0.1; fill:none" points="313.626,988.39 2352.76,988.39 "/>
<polyline clip-path="url(#clip382)" style="stroke:#000000; stroke-linecap:round; stroke-linejoin:round; stroke-width:2; stroke-opacity:0.1; fill:none" points="313.626,501.463 2352.76,501.463 "/>
<polyline clip-path="url(#clip380)" style="stroke:#000000; stroke-linecap:round; stroke-linejoin:round; stroke-width:4; stroke-opacity:1; fill:none" points="313.626,1410.9 313.626,47.2441 "/>
<polyline clip-path="url(#clip380)" style="stroke:#000000; stroke-linecap:round; stroke-linejoin:round; stroke-width:4; stroke-opacity:1; fill:none" points="313.626,988.39 332.524,988.39 "/>
<polyline clip-path="url(#clip380)" style="stroke:#000000; stroke-linecap:round; stroke-linejoin:round; stroke-width:4; stroke-opacity:1; fill:none" points="313.626,501.463 332.524,501.463 "/>
<path clip-path="url(#clip380)" d="M114.931 1008.18 L122.57 1008.18 L122.57 981.817 L114.26 983.483 L114.26 979.224 L122.524 977.557 L127.2 977.557 L127.2 1008.18 L134.839 1008.18 L134.839 1012.12 L114.931 1012.12 L114.931 1008.18 Z" fill="#000000" fill-rule="nonzero" fill-opacity="1" /><path clip-path="url(#clip380)" d="M154.283 980.636 Q150.672 980.636 148.843 984.201 Q147.038 987.742 147.038 994.872 Q147.038 1001.98 148.843 1005.54 Q150.672 1009.08 154.283 1009.08 Q157.917 1009.08 159.723 1005.54 Q161.552 1001.98 161.552 994.872 Q161.552 987.742 159.723 984.201 Q157.917 980.636 154.283 980.636 M154.283 976.932 Q160.093 976.932 163.149 981.539 Q166.227 986.122 166.227 994.872 Q166.227 1003.6 163.149 1008.21 Q160.093 1012.79 154.283 1012.79 Q148.473 1012.79 145.394 1008.21 Q142.339 1003.6 142.339 994.872 Q142.339 986.122 145.394 981.539 Q148.473 976.932 154.283 976.932 Z" fill="#000000" fill-rule="nonzero" fill-opacity="1" /><path clip-path="url(#clip380)" d="M166.227 971.034 L190.339 971.034 L190.339 974.231 L166.227 974.231 L166.227 971.034 Z" fill="#000000" fill-rule="nonzero" fill-opacity="1" /><path clip-path="url(#clip380)" d="M201.812 981.51 L215.071 981.51 L215.071 984.707 L197.241 984.707 L197.241 981.51 Q199.404 979.271 203.128 975.51 Q206.871 971.73 207.83 970.639 Q209.655 968.589 210.369 967.178 Q211.103 965.749 211.103 964.376 Q211.103 962.138 209.523 960.727 Q207.962 959.316 205.442 959.316 Q203.655 959.316 201.661 959.937 Q199.686 960.558 197.43 961.818 L197.43 957.981 Q199.724 957.059 201.718 956.589 Q203.711 956.119 205.366 956.119 Q209.73 956.119 212.325 958.301 Q214.921 960.483 214.921 964.131 Q214.921 965.862 214.263 967.423 Q213.623 968.965 211.912 971.071 Q211.441 971.617 208.921 974.231 Q206.401 976.826 201.812 981.51 Z" fill="#000000" fill-rule="nonzero" fill-opacity="1" /><path clip-path="url(#clip380)" d="M223.046 979.93 L227.014 979.93 L227.014 984.707 L223.046 984.707 L223.046 979.93 Z" fill="#000000" fill-rule="nonzero" fill-opacity="1" /><path clip-path="url(#clip380)" d="M243.415 959.128 Q240.481 959.128 238.995 962.025 Q237.528 964.902 237.528 970.695 Q237.528 976.469 238.995 979.366 Q240.481 982.243 243.415 982.243 Q246.367 982.243 247.834 979.366 Q249.32 976.469 249.32 970.695 Q249.32 964.902 247.834 962.025 Q246.367 959.128 243.415 959.128 M243.415 956.119 Q248.135 956.119 250.618 959.862 Q253.119 963.586 253.119 970.695 Q253.119 977.786 250.618 981.528 Q248.135 985.252 243.415 985.252 Q238.694 985.252 236.192 981.528 Q233.71 977.786 233.71 970.695 Q233.71 963.586 236.192 959.862 Q238.694 956.119 243.415 956.119 Z" fill="#000000" fill-rule="nonzero" fill-opacity="1" /><path clip-path="url(#clip380)" d="M267.921 959.128 Q264.987 959.128 263.501 962.025 Q262.034 964.902 262.034 970.695 Q262.034 976.469 263.501 979.366 Q264.987 982.243 267.921 982.243 Q270.874 982.243 272.341 979.366 Q273.827 976.469 273.827 970.695 Q273.827 964.902 272.341 962.025 Q270.874 959.128 267.921 959.128 M267.921 956.119 Q272.642 956.119 275.124 959.862 Q277.626 963.586 277.626 970.695 Q277.626 977.786 275.124 981.528 Q272.642 985.252 267.921 985.252 Q263.2 985.252 260.699 981.528 Q258.216 977.786 258.216 970.695 Q258.216 963.586 260.699 959.862 Q263.2 956.119 267.921 956.119 Z" fill="#000000" fill-rule="nonzero" fill-opacity="1" /><path clip-path="url(#clip380)" d="M115.74 521.256 L123.379 521.256 L123.379 494.89 L115.069 496.557 L115.069 492.298 L123.333 490.631 L128.009 490.631 L128.009 521.256 L135.647 521.256 L135.647 525.191 L115.74 525.191 L115.74 521.256 Z" fill="#000000" fill-rule="nonzero" fill-opacity="1" /><path clip-path="url(#clip380)" d="M155.092 493.71 Q151.481 493.71 149.652 497.274 Q147.846 500.816 147.846 507.946 Q147.846 515.052 149.652 518.617 Q151.481 522.159 155.092 522.159 Q158.726 522.159 160.532 518.617 Q162.36 515.052 162.36 507.946 Q162.36 500.816 160.532 497.274 Q158.726 493.71 155.092 493.71 M155.092 490.006 Q160.902 490.006 163.958 494.612 Q167.036 499.196 167.036 507.946 Q167.036 516.672 163.958 521.279 Q160.902 525.862 155.092 525.862 Q149.282 525.862 146.203 521.279 Q143.147 516.672 143.147 507.946 Q143.147 499.196 146.203 494.612 Q149.282 490.006 155.092 490.006 Z" fill="#000000" fill-rule="nonzero" fill-opacity="1" /><path clip-path="url(#clip380)" d="M167.036 484.107 L191.148 484.107 L191.148 487.305 L167.036 487.305 L167.036 484.107 Z" fill="#000000" fill-rule="nonzero" fill-opacity="1" /><path clip-path="url(#clip380)" d="M200.006 494.583 L206.213 494.583 L206.213 473.161 L199.461 474.515 L199.461 471.055 L206.175 469.701 L209.974 469.701 L209.974 494.583 L216.181 494.583 L216.181 497.781 L200.006 497.781 L200.006 494.583 Z" fill="#000000" fill-rule="nonzero" fill-opacity="1" /><path clip-path="url(#clip380)" d="M223.854 493.003 L227.823 493.003 L227.823 497.781 L223.854 497.781 L223.854 493.003 Z" fill="#000000" fill-rule="nonzero" fill-opacity="1" /><path clip-path="url(#clip380)" d="M235.139 469.701 L253.195 469.701 L253.195 471.318 L243.001 497.781 L239.032 497.781 L248.624 472.898 L235.139 472.898 L235.139 469.701 Z" fill="#000000" fill-rule="nonzero" fill-opacity="1" /><path clip-path="url(#clip380)" d="M260.642 469.701 L275.557 469.701 L275.557 472.898 L264.122 472.898 L264.122 479.782 Q264.949 479.499 265.777 479.368 Q266.605 479.217 267.432 479.217 Q272.134 479.217 274.88 481.794 Q277.626 484.371 277.626 488.772 Q277.626 493.304 274.805 495.825 Q271.984 498.326 266.849 498.326 Q265.081 498.326 263.238 498.025 Q261.414 497.724 259.458 497.122 L259.458 493.304 Q261.15 494.226 262.956 494.677 Q264.761 495.129 266.774 495.129 Q270.028 495.129 271.927 493.417 Q273.827 491.706 273.827 488.772 Q273.827 485.838 271.927 484.126 Q270.028 482.415 266.774 482.415 Q265.25 482.415 263.727 482.753 Q262.222 483.092 260.642 483.806 L260.642 469.701 Z" fill="#000000" fill-rule="nonzero" fill-opacity="1" /><path clip-path="url(#clip380)" d="M49.4968 798.693 Q43.281 798.693 38.8688 794.699 Q34.4566 790.706 34.4566 784.973 Q34.4566 779.176 38.2247 776.181 Q41.9928 773.154 47.4034 773.154 Q48.4018 773.154 48.595 773.411 Q48.7882 773.669 48.7882 774.796 L48.7882 793.218 Q55.5192 793.218 58.6754 791.221 Q63.0876 788.451 63.0876 783.782 Q63.0876 783.138 62.9588 782.365 Q62.83 781.592 62.2825 780.014 Q61.7028 778.435 60.1891 777.051 Q58.6754 775.666 56.2922 774.861 Q55.3582 774.667 55.3904 774.023 Q55.3904 773.154 56.1634 773.154 Q56.7431 773.154 58.0635 773.798 Q59.3517 774.41 60.8976 775.601 Q62.4435 776.793 63.6029 779.112 Q64.7623 781.398 64.7623 784.168 Q64.7623 789.965 60.3823 794.345 Q55.9701 798.693 49.4968 798.693 M47.4034 793.154 L47.4034 777.502 Q46.0185 777.502 44.4726 777.759 Q42.9268 777.985 40.8012 778.693 Q38.6434 779.369 37.2907 780.98 Q35.9381 782.59 35.9381 784.973 Q35.9381 786.036 36.389 787.195 Q36.8398 788.323 37.9348 789.708 Q39.0298 791.092 41.5097 792.059 Q43.9895 793.025 47.4034 793.154 Z" fill="#000000" fill-rule="nonzero" fill-opacity="1" /><path clip-path="url(#clip380)" d="M64.0216 771.017 L61.9926 771.017 Q61.9926 767.507 61.5739 766.702 Q61.1231 765.864 58.9975 765.864 L41.3165 765.864 Q38.8688 765.864 38.2569 766.734 Q37.645 767.571 37.645 771.017 L35.5838 771.017 L34.8753 761.839 L42.1216 761.839 Q39.2875 760.905 37.0975 758.94 Q34.8753 756.943 34.8753 753.723 Q34.8753 751.597 36.0669 750.244 Q37.2585 748.86 38.901 748.86 Q40.3503 748.86 41.091 749.761 Q41.7996 750.631 41.7996 751.694 Q41.7996 752.885 41.0588 753.723 Q40.2859 754.528 38.9654 754.528 Q38.1603 754.528 37.5484 754.174 Q36.9043 753.787 36.6788 753.497 Q36.4534 753.207 36.389 753.014 Q36.3246 753.143 36.3246 753.723 Q36.3246 757.362 39.9638 759.455 Q43.5709 761.517 48.7238 761.517 L58.8687 761.517 Q60.7688 761.517 61.3807 760.744 Q61.9926 759.938 61.9926 756.492 L61.9926 755.108 L64.0216 755.108 Q63.8284 757.748 63.8284 763.481 Q63.8284 764.286 63.8606 765.542 Q63.8928 766.798 63.9572 768.441 Q64.0216 770.083 64.0216 771.017 Z" fill="#000000" fill-rule="nonzero" fill-opacity="1" /><path clip-path="url(#clip380)" d="M64.0216 744.136 L61.9926 744.136 Q61.9926 740.626 61.5739 739.821 Q61.1231 738.983 58.9975 738.983 L41.3165 738.983 Q38.8688 738.983 38.2569 739.853 Q37.645 740.69 37.645 744.136 L35.5838 744.136 L34.8753 734.958 L42.1216 734.958 Q39.2875 734.024 37.0975 732.059 Q34.8753 730.062 34.8753 726.842 Q34.8753 724.716 36.0669 723.364 Q37.2585 721.979 38.901 721.979 Q40.3503 721.979 41.091 722.881 Q41.7996 723.75 41.7996 724.813 Q41.7996 726.005 41.0588 726.842 Q40.2859 727.647 38.9654 727.647 Q38.1603 727.647 37.5484 727.293 Q36.9043 726.906 36.6788 726.616 Q36.4534 726.327 36.389 726.133 Q36.3246 726.262 36.3246 726.842 Q36.3246 730.481 39.9638 732.575 Q43.5709 734.636 48.7238 734.636 L58.8687 734.636 Q60.7688 734.636 61.3807 733.863 Q61.9926 733.058 61.9926 729.612 L61.9926 728.227 L64.0216 728.227 Q63.8284 730.868 63.8284 736.6 Q63.8284 737.405 63.8606 738.661 Q63.8928 739.917 63.9572 741.56 Q64.0216 743.202 64.0216 744.136 Z" fill="#000000" fill-rule="nonzero" fill-opacity="1" /><path clip-path="url(#clip380)" d="M60.479 711.963 Q56.1634 716.311 49.9154 716.311 Q43.6353 716.311 39.0621 712.059 Q34.4566 707.776 34.4566 701.657 Q34.4566 695.667 39.0298 691.383 Q43.5709 687.068 49.9154 687.068 Q56.1312 687.068 60.4467 691.416 Q64.7623 695.731 64.7623 701.721 Q64.7623 707.583 60.479 711.963 M49.3679 710.836 Q55.7769 710.836 58.6754 709.161 Q63.0876 706.584 63.0876 701.657 Q63.0876 699.209 61.7672 697.18 Q60.4467 695.119 58.2245 693.992 Q55.326 692.543 49.3679 692.543 Q43.0234 692.543 40.2215 694.282 Q35.9381 696.858 35.9381 701.721 Q35.9381 703.847 37.0653 705.94 Q38.1603 708.002 40.3503 709.258 Q43.2488 710.836 49.3679 710.836 Z" fill="#000000" fill-rule="nonzero" fill-opacity="1" /><path clip-path="url(#clip380)" d="M64.0216 684.967 L61.9926 684.967 Q61.9926 681.456 61.5739 680.651 Q61.1231 679.814 58.9975 679.814 L41.3165 679.814 Q38.8688 679.814 38.2569 680.683 Q37.645 681.521 37.645 684.967 L35.5838 684.967 L34.8753 675.788 L42.1216 675.788 Q39.2875 674.854 37.0975 672.889 Q34.8753 670.893 34.8753 667.672 Q34.8753 665.546 36.0669 664.194 Q37.2585 662.809 38.901 662.809 Q40.3503 662.809 41.091 663.711 Q41.7996 664.58 41.7996 665.643 Q41.7996 666.835 41.0588 667.672 Q40.2859 668.477 38.9654 668.477 Q38.1603 668.477 37.5484 668.123 Q36.9043 667.736 36.6788 667.447 Q36.4534 667.157 36.389 666.963 Q36.3246 667.092 36.3246 667.672 Q36.3246 671.311 39.9638 673.405 Q43.5709 675.466 48.7238 675.466 L58.8687 675.466 Q60.7688 675.466 61.3807 674.693 Q61.9926 673.888 61.9926 670.442 L61.9926 669.057 L64.0216 669.057 Q63.8284 671.698 63.8284 677.43 Q63.8284 678.236 63.8606 679.492 Q63.8928 680.748 63.9572 682.39 Q64.0216 684.033 64.0216 684.967 Z" fill="#000000" fill-rule="nonzero" fill-opacity="1" /><polyline clip-path="url(#clip382)" style="stroke:#009af9; stroke-linecap:round; stroke-linejoin:round; stroke-width:4; stroke-opacity:1; fill:none" points="2295.04,200.156 1653.81,562.987 1012.57,925.817 371.337,1288.65 "/>
<polyline clip-path="url(#clip382)" style="stroke:#000000; stroke-linecap:round; stroke-linejoin:round; stroke-width:4; stroke-opacity:1; fill:none" points="2295.04,267.86 2295.04,85.838 "/>
<polyline clip-path="url(#clip382)" style="stroke:#000000; stroke-linecap:round; stroke-linejoin:round; stroke-width:4; stroke-opacity:1; fill:none" points="1653.81,707.297 1653.81,518.269 "/>
<polyline clip-path="url(#clip382)" style="stroke:#000000; stroke-linecap:round; stroke-linejoin:round; stroke-width:4; stroke-opacity:1; fill:none" points="1012.57,1017.6 1012.57,834.931 "/>
<polyline clip-path="url(#clip382)" style="stroke:#000000; stroke-linecap:round; stroke-linejoin:round; stroke-width:4; stroke-opacity:1; fill:none" points="371.337,1372.3 371.337,1190.97 "/>
<line clip-path="url(#clip382)" x1="2311.04" y1="267.86" x2="2279.04" y2="267.86" style="stroke:#000000; stroke-width:4; stroke-opacity:1"/>
<line clip-path="url(#clip382)" x1="2311.04" y1="85.838" x2="2279.04" y2="85.838" style="stroke:#000000; stroke-width:4; stroke-opacity:1"/>
<line clip-path="url(#clip382)" x1="1669.81" y1="707.297" x2="1637.81" y2="707.297" style="stroke:#000000; stroke-width:4; stroke-opacity:1"/>
<line clip-path="url(#clip382)" x1="1669.81" y1="518.269" x2="1637.81" y2="518.269" style="stroke:#000000; stroke-width:4; stroke-opacity:1"/>
<line clip-path="url(#clip382)" x1="1028.57" y1="1017.6" x2="996.573" y2="1017.6" style="stroke:#000000; stroke-width:4; stroke-opacity:1"/>
<line clip-path="url(#clip382)" x1="1028.57" y1="834.931" x2="996.573" y2="834.931" style="stroke:#000000; stroke-width:4; stroke-opacity:1"/>
<line clip-path="url(#clip382)" x1="387.337" y1="1372.3" x2="355.337" y2="1372.3" style="stroke:#000000; stroke-width:4; stroke-opacity:1"/>
<line clip-path="url(#clip382)" x1="387.337" y1="1190.97" x2="355.337" y2="1190.97" style="stroke:#000000; stroke-width:4; stroke-opacity:1"/>
<circle clip-path="url(#clip382)" cx="2295.04" cy="171.962" r="14.4" fill="#e26f46" fill-rule="evenodd" fill-opacity="1" stroke="#000000" stroke-opacity="1" stroke-width="3.2"/>
<circle clip-path="url(#clip382)" cx="1653.81" cy="607.514" r="14.4" fill="#e26f46" fill-rule="evenodd" fill-opacity="1" stroke="#000000" stroke-opacity="1" stroke-width="3.2"/>
<circle clip-path="url(#clip382)" cx="1012.57" cy="921.343" r="14.4" fill="#e26f46" fill-rule="evenodd" fill-opacity="1" stroke="#000000" stroke-opacity="1" stroke-width="3.2"/>
<circle clip-path="url(#clip382)" cx="371.337" cy="1276.79" r="14.4" fill="#e26f46" fill-rule="evenodd" fill-opacity="1" stroke="#000000" stroke-opacity="1" stroke-width="3.2"/>
<path clip-path="url(#clip380)" d="M381.597 248.219 L1592.58 248.219 L1592.58 92.6992 L381.597 92.6992  Z" fill="#ffffff" fill-rule="evenodd" fill-opacity="1"/>
<polyline clip-path="url(#clip380)" style="stroke:#000000; stroke-linecap:round; stroke-linejoin:round; stroke-width:4; stroke-opacity:1; fill:none" points="381.597,248.219 1592.58,248.219 1592.58,92.6992 381.597,92.6992 381.597,248.219 "/>
<polyline clip-path="url(#clip380)" style="stroke:#009af9; stroke-linecap:round; stroke-linejoin:round; stroke-width:4; stroke-opacity:1; fill:none" points="404.254,144.539 540.196,144.539 "/>
<path clip-path="url(#clip380)" d="M596.909 133.915 L593.888 146.142 Q593.677 146.915 593.536 147.008 Q593.419 147.102 593.044 147.102 Q592.318 147.102 592.318 146.61 Q592.318 146.563 592.389 145.954 Q592.459 145.322 592.459 144.174 Q592.459 139.935 590.398 137.428 Q588.36 134.922 584.729 134.922 Q581.591 134.922 578.429 136.515 Q575.29 138.108 573.042 140.708 Q571.355 142.675 570.114 145.158 Q568.896 147.641 568.31 149.913 Q567.748 152.185 567.491 153.894 Q567.233 155.604 567.233 156.846 Q567.233 158.649 567.608 160.172 Q568.006 161.694 568.709 162.772 Q569.411 163.826 570.301 164.645 Q571.215 165.442 572.269 165.91 Q573.346 166.379 574.424 166.613 Q575.501 166.824 576.625 166.824 Q581.146 166.824 585.456 163.31 Q588.875 160.429 590.304 155.721 Q590.421 155.253 590.913 155.253 Q591.499 155.253 591.499 155.721 Q591.499 155.815 591.381 156.283 Q591.264 156.729 590.913 157.642 Q590.562 158.532 590.023 159.539 Q589.484 160.546 588.477 161.811 Q587.47 163.076 586.228 164.177 Q584.12 166.004 581.45 167.152 Q578.78 168.299 575.852 168.299 Q572.198 168.299 569.247 166.683 Q566.296 165.067 564.563 162.045 Q562.853 159.024 562.853 155.159 Q562.853 151.084 564.727 147.078 Q566.6 143.073 569.575 140.099 Q572.55 137.124 576.485 135.274 Q580.42 133.423 584.355 133.423 Q585.854 133.423 587.189 133.821 Q588.524 134.22 589.32 134.711 Q590.14 135.203 590.866 135.929 Q591.592 136.632 591.826 136.96 Q592.084 137.288 592.318 137.686 L595.668 134.009 Q596.253 133.423 596.394 133.423 Q596.675 133.423 596.792 133.587 Q596.909 133.751 596.909 133.915 Z" fill="#000000" fill-rule="nonzero" fill-opacity="1" /><path clip-path="url(#clip380)" d="M600.648 166.777 Q600.648 166.589 601.28 165.371 Q601.913 164.13 604.138 159.703 Q606.363 155.253 608.658 150.592 L616.927 133.962 Q617.512 132.908 618.262 132.908 Q618.941 132.908 619.245 133.329 Q619.55 133.751 620.955 136.585 Q621.681 137.967 622.103 138.857 L635.665 166.004 Q635.899 166.589 635.922 166.777 Q635.922 167.245 635.102 167.245 L601.913 167.245 Q600.648 167.245 600.648 166.777 M603.81 163.591 L629.622 163.591 L616.716 137.686 L603.81 163.591 Z" fill="#000000" fill-rule="nonzero" fill-opacity="1" /><path clip-path="url(#clip380)" d="M654.925 147.102 Q654.925 147.758 654.621 147.922 Q654.316 148.062 653.473 148.062 L648.976 148.062 L645.416 162.209 Q645.135 163.451 645.135 164.505 Q645.135 165.676 645.486 166.191 Q645.861 166.706 646.634 166.706 Q648.156 166.706 649.796 165.325 Q651.459 163.943 652.864 160.57 Q653.052 160.125 653.145 160.031 Q653.262 159.914 653.567 159.914 Q654.152 159.914 654.152 160.382 Q654.152 160.546 653.825 161.296 Q653.52 162.045 652.841 163.146 Q652.185 164.247 651.318 165.278 Q650.475 166.308 649.187 167.058 Q647.899 167.784 646.517 167.784 Q644.573 167.784 643.331 166.543 Q642.113 165.301 642.113 163.357 Q642.113 162.725 642.605 160.71 Q643.097 158.673 645.767 148.062 L641.528 148.062 Q640.942 148.062 640.708 148.039 Q640.497 148.015 640.333 147.898 Q640.193 147.758 640.193 147.477 Q640.193 147.032 640.38 146.844 Q640.567 146.633 640.802 146.61 Q641.059 146.563 641.645 146.563 L646.142 146.563 L648.016 138.951 Q648.203 138.201 648.672 137.78 Q649.163 137.335 649.445 137.288 Q649.726 137.218 649.936 137.218 Q650.569 137.218 650.944 137.569 Q651.318 137.897 651.318 138.506 Q651.318 138.834 649.351 146.563 L653.567 146.563 Q654.106 146.563 654.316 146.587 Q654.551 146.61 654.738 146.727 Q654.925 146.844 654.925 147.102 Z" fill="#000000" fill-rule="nonzero" fill-opacity="1" /><path clip-path="url(#clip380)" d="M677.434 125.999 Q677.434 128.392 676.221 130.704 Q675.024 133.016 673.139 134.442 Q671.253 135.852 669.335 135.852 Q668.187 135.852 667.416 135.229 Q666.662 134.59 666.252 133.688 Q665.941 134.803 665.269 137.476 Q664.596 140.148 664.596 140.41 Q664.596 140.558 664.629 140.624 Q664.662 140.689 664.809 140.771 Q664.957 140.87 665.318 140.902 Q665.678 140.952 666.285 140.952 Q666.597 140.952 666.711 140.952 Q666.843 140.968 666.957 141.05 Q667.088 141.132 667.088 141.312 Q667.088 141.984 666.482 141.984 Q665.941 141.984 664.826 141.935 Q663.711 141.886 663.154 141.886 Q662.678 141.886 661.727 141.935 Q660.776 141.984 660.333 141.984 Q659.891 141.984 659.891 141.591 Q659.891 141.361 659.956 141.214 Q660.006 141.083 660.137 141.017 Q660.268 140.968 660.383 140.952 Q660.481 140.952 660.678 140.952 Q661.432 140.952 661.76 140.82 Q662.088 140.706 662.203 140.46 Q662.334 140.23 662.481 139.574 L666.252 124.621 Q666.482 123.621 666.482 122.916 Q666.482 122.031 666.203 121.703 Q665.924 121.375 665.433 121.375 Q664.58 121.375 664.022 122.392 Q663.465 123.408 662.99 125.376 Q662.842 125.917 662.744 126.031 Q662.662 126.146 662.416 126.146 Q662.006 126.13 662.006 125.802 Q662.006 125.72 662.137 125.195 Q662.268 124.654 662.514 123.867 Q662.776 123.064 663.055 122.556 Q663.219 122.211 663.367 121.982 Q663.514 121.752 663.809 121.391 Q664.121 121.031 664.564 120.834 Q665.006 120.637 665.547 120.637 Q666.597 120.637 667.466 121.26 Q668.335 121.883 668.564 123.146 Q669.499 122.047 670.646 121.342 Q671.794 120.637 672.958 120.637 Q674.893 120.637 676.155 122.146 Q677.434 123.638 677.434 125.999 M675.008 124.523 Q675.008 123.031 674.434 122.211 Q673.876 121.375 672.86 121.375 Q671.597 121.375 670.138 122.654 Q668.695 123.867 668.4 124.998 L666.744 131.573 L666.646 132.114 Q666.646 132.213 666.695 132.508 Q666.761 132.786 666.941 133.246 Q667.138 133.705 667.4 134.115 Q667.679 134.508 668.171 134.803 Q668.679 135.098 669.302 135.098 Q670.302 135.098 671.384 134.213 Q672.483 133.328 673.302 131.655 Q673.811 130.573 674.401 128.245 Q675.008 125.9 675.008 124.523 Z" fill="#000000" fill-rule="nonzero" fill-opacity="1" /><path clip-path="url(#clip380)" d="M715.041 131.227 L715.041 134.769 L710.967 134.769 Q708.676 134.769 707.773 135.694 Q706.893 136.62 706.893 139.028 L706.893 141.319 L713.907 141.319 L713.907 144.63 L706.893 144.63 L706.893 167.245 L702.611 167.245 L702.611 144.63 L698.537 144.63 L698.537 141.319 L702.611 141.319 L702.611 139.514 Q702.611 135.185 704.625 133.218 Q706.639 131.227 711.014 131.227 L715.041 131.227 Z" fill="#000000" fill-rule="nonzero" fill-opacity="1" /><path clip-path="url(#clip380)" d="M718.606 141.319 L722.865 141.319 L722.865 167.245 L718.606 167.245 L718.606 141.319 M718.606 131.227 L722.865 131.227 L722.865 136.62 L718.606 136.62 L718.606 131.227 Z" fill="#000000" fill-rule="nonzero" fill-opacity="1" /><path clip-path="url(#clip380)" d="M735.99 133.958 L735.99 141.319 L744.763 141.319 L744.763 144.63 L735.99 144.63 L735.99 158.704 Q735.99 161.875 736.847 162.778 Q737.726 163.68 740.388 163.68 L744.763 163.68 L744.763 167.245 L740.388 167.245 Q735.458 167.245 733.583 165.417 Q731.708 163.565 731.708 158.704 L731.708 144.63 L728.583 144.63 L728.583 141.319 L731.708 141.319 L731.708 133.958 L735.99 133.958 Z" fill="#000000" fill-rule="nonzero" fill-opacity="1" /><path clip-path="url(#clip380)" d="M762.958 141.319 L767.217 141.319 L772.541 161.551 L777.842 141.319 L782.865 141.319 L788.189 161.551 L793.49 141.319 L797.749 141.319 L790.967 167.245 L785.944 167.245 L780.365 145.995 L774.763 167.245 L769.74 167.245 L762.958 141.319 Z" fill="#000000" fill-rule="nonzero" fill-opacity="1" /><path clip-path="url(#clip380)" d="M804.208 141.319 L808.467 141.319 L808.467 167.245 L804.208 167.245 L804.208 141.319 M804.208 131.227 L808.467 131.227 L808.467 136.62 L804.208 136.62 L804.208 131.227 Z" fill="#000000" fill-rule="nonzero" fill-opacity="1" /><path clip-path="url(#clip380)" d="M821.592 133.958 L821.592 141.319 L830.365 141.319 L830.365 144.63 L821.592 144.63 L821.592 158.704 Q821.592 161.875 822.448 162.778 Q823.328 163.68 825.99 163.68 L830.365 163.68 L830.365 167.245 L825.99 167.245 Q821.059 167.245 819.184 165.417 Q817.309 163.565 817.309 158.704 L817.309 144.63 L814.184 144.63 L814.184 141.319 L817.309 141.319 L817.309 133.958 L821.592 133.958 Z" fill="#000000" fill-rule="nonzero" fill-opacity="1" /><path clip-path="url(#clip380)" d="M857.517 151.597 L857.517 167.245 L853.258 167.245 L853.258 151.736 Q853.258 148.055 851.823 146.227 Q850.388 144.398 847.518 144.398 Q844.068 144.398 842.078 146.597 Q840.087 148.796 840.087 152.592 L840.087 167.245 L835.805 167.245 L835.805 131.227 L840.087 131.227 L840.087 145.347 Q841.615 143.009 843.675 141.852 Q845.758 140.694 848.467 140.694 Q852.934 140.694 855.226 143.472 Q857.517 146.227 857.517 151.597 Z" fill="#000000" fill-rule="nonzero" fill-opacity="1" /><path clip-path="url(#clip380)" d="M885.203 163.356 L885.203 177.106 L880.92 177.106 L880.92 141.319 L885.203 141.319 L885.203 145.255 Q886.545 142.94 888.582 141.829 Q890.642 140.694 893.49 140.694 Q898.212 140.694 901.152 144.444 Q904.114 148.194 904.114 154.305 Q904.114 160.417 901.152 164.167 Q898.212 167.916 893.49 167.916 Q890.642 167.916 888.582 166.805 Q886.545 165.671 885.203 163.356 M899.693 154.305 Q899.693 149.606 897.749 146.944 Q895.827 144.259 892.448 144.259 Q889.068 144.259 887.124 146.944 Q885.203 149.606 885.203 154.305 Q885.203 159.004 887.124 161.69 Q889.068 164.352 892.448 164.352 Q895.827 164.352 897.749 161.69 Q899.693 159.004 899.693 154.305 Z" fill="#000000" fill-rule="nonzero" fill-opacity="1" /><path clip-path="url(#clip380)" d="M926.8 145.718 L956.475 145.718 L956.475 149.606 L926.8 149.606 L926.8 145.718 M926.8 155.162 L956.475 155.162 L956.475 159.097 L926.8 159.097 L926.8 155.162 Z" fill="#000000" fill-rule="nonzero" fill-opacity="1" /><path clip-path="url(#clip380)" d="M991.637 135.764 Q988.026 135.764 986.197 139.329 Q984.392 142.87 984.392 150 Q984.392 157.106 986.197 160.671 Q988.026 164.213 991.637 164.213 Q995.271 164.213 997.077 160.671 Q998.906 157.106 998.906 150 Q998.906 142.87 997.077 139.329 Q995.271 135.764 991.637 135.764 M991.637 132.06 Q997.447 132.06 1000.5 136.667 Q1003.58 141.25 1003.58 150 Q1003.58 158.727 1000.5 163.333 Q997.447 167.916 991.637 167.916 Q985.827 167.916 982.748 163.333 Q979.693 158.727 979.693 150 Q979.693 141.25 982.748 136.667 Q985.827 132.06 991.637 132.06 Z" fill="#000000" fill-rule="nonzero" fill-opacity="1" /><path clip-path="url(#clip380)" d="M1011.8 161.366 L1016.68 161.366 L1016.68 167.245 L1011.8 167.245 L1011.8 161.366 Z" fill="#000000" fill-rule="nonzero" fill-opacity="1" /><path clip-path="url(#clip380)" d="M1037.45 148.102 Q1034.3 148.102 1032.45 150.255 Q1030.62 152.407 1030.62 156.157 Q1030.62 159.884 1032.45 162.06 Q1034.3 164.213 1037.45 164.213 Q1040.6 164.213 1042.42 162.06 Q1044.28 159.884 1044.28 156.157 Q1044.28 152.407 1042.42 150.255 Q1040.6 148.102 1037.45 148.102 M1046.73 133.449 L1046.73 137.708 Q1044.97 136.875 1043.16 136.435 Q1041.38 135.995 1039.62 135.995 Q1034.99 135.995 1032.54 139.12 Q1030.11 142.245 1029.76 148.565 Q1031.13 146.551 1033.19 145.486 Q1035.25 144.398 1037.72 144.398 Q1042.93 144.398 1045.94 147.569 Q1048.97 150.718 1048.97 156.157 Q1048.97 161.481 1045.83 164.699 Q1042.68 167.916 1037.45 167.916 Q1031.45 167.916 1028.28 163.333 Q1025.11 158.727 1025.11 150 Q1025.11 141.806 1029 136.944 Q1032.89 132.06 1039.44 132.06 Q1041.2 132.06 1042.98 132.407 Q1044.78 132.755 1046.73 133.449 Z" fill="#000000" fill-rule="nonzero" fill-opacity="1" /><path clip-path="url(#clip380)" d="M1061.06 163.31 L1077.38 163.31 L1077.38 167.245 L1055.43 167.245 L1055.43 163.31 Q1058.1 160.555 1062.68 155.926 Q1067.28 151.273 1068.47 149.93 Q1070.71 147.407 1071.59 145.671 Q1072.49 143.912 1072.49 142.222 Q1072.49 139.468 1070.55 137.731 Q1068.63 135.995 1065.53 135.995 Q1063.33 135.995 1060.87 136.759 Q1058.44 137.523 1055.66 139.074 L1055.66 134.352 Q1058.49 133.218 1060.94 132.639 Q1063.4 132.06 1065.43 132.06 Q1070.8 132.06 1074 134.745 Q1077.19 137.431 1077.19 141.921 Q1077.19 144.051 1076.38 145.972 Q1075.6 147.87 1073.49 150.463 Q1072.91 151.134 1069.81 154.352 Q1066.71 157.546 1061.06 163.31 Z" fill="#000000" fill-rule="nonzero" fill-opacity="1" /><path clip-path="url(#clip380)" d="M1087.68 142.731 L1092.56 142.731 L1092.56 148.611 L1087.68 148.611 L1087.68 142.731 M1087.68 161.366 L1092.56 161.366 L1092.56 165.347 L1088.77 172.754 L1085.78 172.754 L1087.68 165.347 L1087.68 161.366 Z" fill="#000000" fill-rule="nonzero" fill-opacity="1" /><path clip-path="url(#clip380)" d="M1118.37 166.528 L1118.37 162.268 Q1120.13 163.102 1121.94 163.542 Q1123.74 163.981 1125.48 163.981 Q1130.11 163.981 1132.54 160.879 Q1134.99 157.755 1135.34 151.412 Q1134 153.403 1131.94 154.467 Q1129.88 155.532 1127.38 155.532 Q1122.19 155.532 1119.16 152.407 Q1116.15 149.259 1116.15 143.819 Q1116.15 138.495 1119.3 135.278 Q1122.45 132.06 1127.68 132.06 Q1133.67 132.06 1136.82 136.667 Q1139.99 141.25 1139.99 150 Q1139.99 158.171 1136.1 163.055 Q1132.24 167.916 1125.69 167.916 Q1123.93 167.916 1122.12 167.569 Q1120.32 167.222 1118.37 166.528 M1127.68 151.875 Q1130.83 151.875 1132.65 149.722 Q1134.51 147.569 1134.51 143.819 Q1134.51 140.093 1132.65 137.94 Q1130.83 135.764 1127.68 135.764 Q1124.53 135.764 1122.68 137.94 Q1120.85 140.093 1120.85 143.819 Q1120.85 147.569 1122.68 149.722 Q1124.53 151.875 1127.68 151.875 Z" fill="#000000" fill-rule="nonzero" fill-opacity="1" /><path clip-path="url(#clip380)" d="M1148.44 132.685 L1166.8 132.685 L1166.8 136.62 L1152.72 136.62 L1152.72 145.093 Q1153.74 144.745 1154.76 144.583 Q1155.78 144.398 1156.8 144.398 Q1162.59 144.398 1165.96 147.569 Q1169.34 150.741 1169.34 156.157 Q1169.34 161.736 1165.87 164.838 Q1162.4 167.916 1156.08 167.916 Q1153.9 167.916 1151.64 167.546 Q1149.39 167.176 1146.98 166.435 L1146.98 161.736 Q1149.07 162.87 1151.29 163.426 Q1153.51 163.981 1155.99 163.981 Q1159.99 163.981 1162.33 161.875 Q1164.67 159.768 1164.67 156.157 Q1164.67 152.546 1162.33 150.44 Q1159.99 148.333 1155.99 148.333 Q1154.11 148.333 1152.24 148.75 Q1150.39 149.167 1148.44 150.046 L1148.44 132.685 Z" fill="#000000" fill-rule="nonzero" fill-opacity="1" /><path clip-path="url(#clip380)" d="M1207.96 152.037 Q1205.94 152.037 1204.78 153.75 Q1203.65 155.463 1203.65 158.518 Q1203.65 161.528 1204.78 163.264 Q1205.94 164.977 1207.96 164.977 Q1209.92 164.977 1211.06 163.264 Q1212.21 161.528 1212.21 158.518 Q1212.21 155.486 1211.06 153.773 Q1209.92 152.037 1207.96 152.037 M1207.96 149.097 Q1211.61 149.097 1213.77 151.643 Q1215.92 154.19 1215.92 158.518 Q1215.92 162.847 1213.74 165.393 Q1211.59 167.916 1207.96 167.916 Q1204.25 167.916 1202.1 165.393 Q1199.95 162.847 1199.95 158.518 Q1199.95 154.167 1202.1 151.643 Q1204.27 149.097 1207.96 149.097 M1184.07 135 Q1182.08 135 1180.92 136.736 Q1179.78 138.449 1179.78 141.458 Q1179.78 144.514 1180.92 146.227 Q1182.05 147.94 1184.07 147.94 Q1186.08 147.94 1187.21 146.227 Q1188.37 144.514 1188.37 141.458 Q1188.37 138.472 1187.21 136.736 Q1186.06 135 1184.07 135 M1204.97 132.06 L1208.67 132.06 L1187.05 167.916 L1183.35 167.916 L1204.97 132.06 M1184.07 132.06 Q1187.72 132.06 1189.9 134.606 Q1192.08 137.13 1192.08 141.458 Q1192.08 145.833 1189.9 148.356 Q1187.75 150.88 1184.07 150.88 Q1180.39 150.88 1178.23 148.356 Q1176.1 145.81 1176.1 141.458 Q1176.1 137.153 1178.26 134.606 Q1180.41 132.06 1184.07 132.06 Z" fill="#000000" fill-rule="nonzero" fill-opacity="1" /><path clip-path="url(#clip380)" d="M1264.14 135.347 L1264.14 140.278 Q1261.77 138.079 1259.09 136.991 Q1256.43 135.903 1253.42 135.903 Q1247.49 135.903 1244.34 139.537 Q1241.2 143.148 1241.2 150 Q1241.2 156.829 1244.34 160.463 Q1247.49 164.074 1253.42 164.074 Q1256.43 164.074 1259.09 162.986 Q1261.77 161.898 1264.14 159.699 L1264.14 164.583 Q1261.68 166.25 1258.93 167.083 Q1256.2 167.916 1253.14 167.916 Q1245.29 167.916 1240.78 163.125 Q1236.27 158.31 1236.27 150 Q1236.27 141.667 1240.78 136.875 Q1245.29 132.06 1253.14 132.06 Q1256.24 132.06 1258.97 132.894 Q1261.73 133.704 1264.14 135.347 Z" fill="#000000" fill-rule="nonzero" fill-opacity="1" /><path clip-path="url(#clip380)" d="M1271.36 132.685 L1276.03 132.685 L1276.03 167.245 L1271.36 167.245 L1271.36 132.685 Z" fill="#000000" fill-rule="nonzero" fill-opacity="1" /><path clip-path="url(#clip380)" d="M1299.83 131.227 L1309.64 131.227 L1309.64 134.537 L1304.09 134.537 L1304.09 170.185 L1309.64 170.185 L1309.64 173.495 L1299.83 173.495 L1299.83 131.227 Z" fill="#000000" fill-rule="nonzero" fill-opacity="1" /><path clip-path="url(#clip380)" d="M1329.32 135.764 Q1325.71 135.764 1323.88 139.329 Q1322.08 142.87 1322.08 150 Q1322.08 157.106 1323.88 160.671 Q1325.71 164.213 1329.32 164.213 Q1332.95 164.213 1334.76 160.671 Q1336.59 157.106 1336.59 150 Q1336.59 142.87 1334.76 139.329 Q1332.95 135.764 1329.32 135.764 M1329.32 132.06 Q1335.13 132.06 1338.19 136.667 Q1341.26 141.25 1341.26 150 Q1341.26 158.727 1338.19 163.333 Q1335.13 167.916 1329.32 167.916 Q1323.51 167.916 1320.43 163.333 Q1317.38 158.727 1317.38 150 Q1317.38 141.25 1320.43 136.667 Q1323.51 132.06 1329.32 132.06 Z" fill="#000000" fill-rule="nonzero" fill-opacity="1" /><path clip-path="url(#clip380)" d="M1349.48 161.366 L1354.37 161.366 L1354.37 167.245 L1349.48 167.245 L1349.48 161.366 Z" fill="#000000" fill-rule="nonzero" fill-opacity="1" /><path clip-path="url(#clip380)" d="M1364.6 132.685 L1382.95 132.685 L1382.95 136.62 L1368.88 136.62 L1368.88 145.093 Q1369.9 144.745 1370.92 144.583 Q1371.94 144.398 1372.95 144.398 Q1378.74 144.398 1382.12 147.569 Q1385.5 150.741 1385.5 156.157 Q1385.5 161.736 1382.03 164.838 Q1378.56 167.916 1372.24 167.916 Q1370.06 167.916 1367.79 167.546 Q1365.55 167.176 1363.14 166.435 L1363.14 161.736 Q1365.22 162.87 1367.45 163.426 Q1369.67 163.981 1372.14 163.981 Q1376.15 163.981 1378.49 161.875 Q1380.82 159.768 1380.82 156.157 Q1380.82 152.546 1378.49 150.44 Q1376.15 148.333 1372.14 148.333 Q1370.27 148.333 1368.39 148.75 Q1366.54 149.167 1364.6 150.046 L1364.6 132.685 Z" fill="#000000" fill-rule="nonzero" fill-opacity="1" /><path clip-path="url(#clip380)" d="M1405.29 148.102 Q1402.14 148.102 1400.29 150.255 Q1398.46 152.407 1398.46 156.157 Q1398.46 159.884 1400.29 162.06 Q1402.14 164.213 1405.29 164.213 Q1408.44 164.213 1410.27 162.06 Q1412.12 159.884 1412.12 156.157 Q1412.12 152.407 1410.27 150.255 Q1408.44 148.102 1405.29 148.102 M1414.57 133.449 L1414.57 137.708 Q1412.82 136.875 1411.01 136.435 Q1409.23 135.995 1407.47 135.995 Q1402.84 135.995 1400.38 139.12 Q1397.95 142.245 1397.61 148.565 Q1398.97 146.551 1401.03 145.486 Q1403.09 144.398 1405.57 144.398 Q1410.78 144.398 1413.79 147.569 Q1416.82 150.718 1416.82 156.157 Q1416.82 161.481 1413.67 164.699 Q1410.52 167.916 1405.29 167.916 Q1399.3 167.916 1396.13 163.333 Q1392.95 158.727 1392.95 150 Q1392.95 141.806 1396.84 136.944 Q1400.73 132.06 1407.28 132.06 Q1409.04 132.06 1410.82 132.407 Q1412.63 132.755 1414.57 133.449 Z" fill="#000000" fill-rule="nonzero" fill-opacity="1" /><path clip-path="url(#clip380)" d="M1425.36 161.366 L1430.25 161.366 L1430.25 165.347 L1426.45 172.754 L1423.46 172.754 L1425.36 165.347 L1425.36 161.366 Z" fill="#000000" fill-rule="nonzero" fill-opacity="1" /><path clip-path="url(#clip380)" d="M1465.01 135.764 Q1461.4 135.764 1459.57 139.329 Q1457.77 142.87 1457.77 150 Q1457.77 157.106 1459.57 160.671 Q1461.4 164.213 1465.01 164.213 Q1468.65 164.213 1470.45 160.671 Q1472.28 157.106 1472.28 150 Q1472.28 142.87 1470.45 139.329 Q1468.65 135.764 1465.01 135.764 M1465.01 132.06 Q1470.82 132.06 1473.88 136.667 Q1476.96 141.25 1476.96 150 Q1476.96 158.727 1473.88 163.333 Q1470.82 167.916 1465.01 167.916 Q1459.2 167.916 1456.13 163.333 Q1453.07 158.727 1453.07 150 Q1453.07 141.25 1456.13 136.667 Q1459.2 132.06 1465.01 132.06 Z" fill="#000000" fill-rule="nonzero" fill-opacity="1" /><path clip-path="url(#clip380)" d="M1485.18 161.366 L1490.06 161.366 L1490.06 167.245 L1485.18 167.245 L1485.18 161.366 Z" fill="#000000" fill-rule="nonzero" fill-opacity="1" /><path clip-path="url(#clip380)" d="M1510.82 148.102 Q1507.68 148.102 1505.82 150.255 Q1504 152.407 1504 156.157 Q1504 159.884 1505.82 162.06 Q1507.68 164.213 1510.82 164.213 Q1513.97 164.213 1515.8 162.06 Q1517.65 159.884 1517.65 156.157 Q1517.65 152.407 1515.8 150.255 Q1513.97 148.102 1510.82 148.102 M1520.11 133.449 L1520.11 137.708 Q1518.35 136.875 1516.54 136.435 Q1514.76 135.995 1513 135.995 Q1508.37 135.995 1505.92 139.12 Q1503.49 142.245 1503.14 148.565 Q1504.5 146.551 1506.56 145.486 Q1508.63 144.398 1511.1 144.398 Q1516.31 144.398 1519.32 147.569 Q1522.35 150.718 1522.35 156.157 Q1522.35 161.481 1519.2 164.699 Q1516.06 167.916 1510.82 167.916 Q1504.83 167.916 1501.66 163.333 Q1498.49 158.727 1498.49 150 Q1498.49 141.806 1502.38 136.944 Q1506.26 132.06 1512.81 132.06 Q1514.57 132.06 1516.36 132.407 Q1518.16 132.755 1520.11 133.449 Z" fill="#000000" fill-rule="nonzero" fill-opacity="1" /><path clip-path="url(#clip380)" d="M1540.41 150.833 Q1537.07 150.833 1535.15 152.616 Q1533.25 154.398 1533.25 157.523 Q1533.25 160.648 1535.15 162.43 Q1537.07 164.213 1540.41 164.213 Q1543.74 164.213 1545.66 162.43 Q1547.58 160.625 1547.58 157.523 Q1547.58 154.398 1545.66 152.616 Q1543.76 150.833 1540.41 150.833 M1535.73 148.843 Q1532.72 148.102 1531.03 146.042 Q1529.37 143.981 1529.37 141.018 Q1529.37 136.875 1532.31 134.468 Q1535.27 132.06 1540.41 132.06 Q1545.57 132.06 1548.51 134.468 Q1551.45 136.875 1551.45 141.018 Q1551.45 143.981 1549.76 146.042 Q1548.09 148.102 1545.11 148.843 Q1548.49 149.63 1550.36 151.921 Q1552.26 154.213 1552.26 157.523 Q1552.26 162.546 1549.18 165.231 Q1546.12 167.916 1540.41 167.916 Q1534.69 167.916 1531.61 165.231 Q1528.56 162.546 1528.56 157.523 Q1528.56 154.213 1530.45 151.921 Q1532.35 149.63 1535.73 148.843 M1534.02 141.458 Q1534.02 144.143 1535.69 145.648 Q1537.37 147.153 1540.41 147.153 Q1543.42 147.153 1545.11 145.648 Q1546.82 144.143 1546.82 141.458 Q1546.82 138.773 1545.11 137.269 Q1543.42 135.764 1540.41 135.764 Q1537.37 135.764 1535.69 137.269 Q1534.02 138.773 1534.02 141.458 Z" fill="#000000" fill-rule="nonzero" fill-opacity="1" /><path clip-path="url(#clip380)" d="M1569.92 131.227 L1569.92 173.495 L1560.11 173.495 L1560.11 170.185 L1565.64 170.185 L1565.64 134.537 L1560.11 134.537 L1560.11 131.227 L1569.92 131.227 Z" fill="#000000" fill-rule="nonzero" fill-opacity="1" /><circle clip-path="url(#clip380)" cx="472.225" cy="196.379" r="20.48" fill="#e26f46" fill-rule="evenodd" fill-opacity="1" stroke="#000000" stroke-opacity="1" stroke-width="4.55111"/>
<path clip-path="url(#clip380)" d="M581.279 188.497 L581.279 192.525 Q579.473 191.599 577.529 191.136 Q575.584 190.673 573.501 190.673 Q570.33 190.673 568.732 191.645 Q567.158 192.618 567.158 194.562 Q567.158 196.044 568.293 196.9 Q569.427 197.733 572.853 198.497 L574.311 198.821 Q578.848 199.794 580.746 201.576 Q582.668 203.335 582.668 206.506 Q582.668 210.118 579.797 212.224 Q576.95 214.33 571.95 214.33 Q569.867 214.33 567.598 213.914 Q565.353 213.52 562.853 212.71 L562.853 208.312 Q565.214 209.539 567.506 210.164 Q569.797 210.766 572.043 210.766 Q575.052 210.766 576.672 209.747 Q578.293 208.706 578.293 206.831 Q578.293 205.094 577.112 204.168 Q575.955 203.243 571.996 202.386 L570.515 202.039 Q566.557 201.206 564.797 199.493 Q563.038 197.756 563.038 194.747 Q563.038 191.09 565.631 189.099 Q568.223 187.108 572.992 187.108 Q575.353 187.108 577.436 187.456 Q579.519 187.803 581.279 188.497 Z" fill="#000000" fill-rule="nonzero" fill-opacity="1" /><path clip-path="url(#clip380)" d="M593.663 180.372 L593.663 187.733 L602.436 187.733 L602.436 191.044 L593.663 191.044 L593.663 205.118 Q593.663 208.289 594.519 209.192 Q595.399 210.094 598.061 210.094 L602.436 210.094 L602.436 213.659 L598.061 213.659 Q593.131 213.659 591.256 211.83 Q589.381 209.979 589.381 205.118 L589.381 191.044 L586.256 191.044 L586.256 187.733 L589.381 187.733 L589.381 180.372 L593.663 180.372 Z" fill="#000000" fill-rule="nonzero" fill-opacity="1" /><path clip-path="url(#clip380)" d="M623.061 191.715 Q622.343 191.298 621.487 191.113 Q620.654 190.905 619.635 190.905 Q616.024 190.905 614.079 193.266 Q612.158 195.604 612.158 200.002 L612.158 213.659 L607.876 213.659 L607.876 187.733 L612.158 187.733 L612.158 191.761 Q613.501 189.4 615.654 188.266 Q617.806 187.108 620.885 187.108 Q621.325 187.108 621.857 187.178 Q622.39 187.224 623.038 187.34 L623.061 191.715 Z" fill="#000000" fill-rule="nonzero" fill-opacity="1" /><path clip-path="url(#clip380)" d="M636.533 190.719 Q633.107 190.719 631.116 193.405 Q629.126 196.067 629.126 200.719 Q629.126 205.372 631.093 208.057 Q633.084 210.719 636.533 210.719 Q639.936 210.719 641.927 208.034 Q643.917 205.349 643.917 200.719 Q643.917 196.113 641.927 193.428 Q639.936 190.719 636.533 190.719 M636.533 187.108 Q642.089 187.108 645.26 190.719 Q648.431 194.331 648.431 200.719 Q648.431 207.085 645.26 210.719 Q642.089 214.33 636.533 214.33 Q630.954 214.33 627.783 210.719 Q624.635 207.085 624.635 200.719 Q624.635 194.331 627.783 190.719 Q630.954 187.108 636.533 187.108 Z" fill="#000000" fill-rule="nonzero" fill-opacity="1" /><path clip-path="url(#clip380)" d="M677.042 198.011 L677.042 213.659 L672.783 213.659 L672.783 198.15 Q672.783 194.469 671.348 192.641 Q669.913 190.812 667.042 190.812 Q663.593 190.812 661.602 193.011 Q659.612 195.21 659.612 199.006 L659.612 213.659 L655.329 213.659 L655.329 187.733 L659.612 187.733 L659.612 191.761 Q661.139 189.423 663.2 188.266 Q665.283 187.108 667.991 187.108 Q672.459 187.108 674.75 189.886 Q677.042 192.641 677.042 198.011 Z" fill="#000000" fill-rule="nonzero" fill-opacity="1" /><path clip-path="url(#clip380)" d="M702.598 200.395 Q702.598 195.766 700.676 193.219 Q698.778 190.673 695.329 190.673 Q691.903 190.673 689.982 193.219 Q688.084 195.766 688.084 200.395 Q688.084 205.002 689.982 207.548 Q691.903 210.094 695.329 210.094 Q698.778 210.094 700.676 207.548 Q702.598 205.002 702.598 200.395 M706.857 210.442 Q706.857 217.062 703.917 220.28 Q700.977 223.52 694.912 223.52 Q692.667 223.52 690.676 223.173 Q688.686 222.849 686.811 222.155 L686.811 218.011 Q688.686 219.03 690.514 219.516 Q692.343 220.002 694.241 220.002 Q698.431 220.002 700.514 217.803 Q702.598 215.627 702.598 211.205 L702.598 209.099 Q701.278 211.391 699.218 212.525 Q697.158 213.659 694.287 213.659 Q689.519 213.659 686.602 210.025 Q683.686 206.391 683.686 200.395 Q683.686 194.377 686.602 190.743 Q689.519 187.108 694.287 187.108 Q697.158 187.108 699.218 188.243 Q701.278 189.377 702.598 191.669 L702.598 187.733 L706.857 187.733 L706.857 210.442 Z" fill="#000000" fill-rule="nonzero" fill-opacity="1" /><path clip-path="url(#clip380)" d="M752.875 199.631 L752.875 201.715 L733.292 201.715 Q733.57 206.113 735.931 208.428 Q738.315 210.719 742.551 210.719 Q745.005 210.719 747.296 210.118 Q749.611 209.516 751.88 208.312 L751.88 212.34 Q749.588 213.312 747.181 213.821 Q744.773 214.33 742.296 214.33 Q736.093 214.33 732.458 210.719 Q728.847 207.108 728.847 200.951 Q728.847 194.585 732.273 190.858 Q735.722 187.108 741.556 187.108 Q746.787 187.108 749.819 190.488 Q752.875 193.844 752.875 199.631 M748.616 198.381 Q748.569 194.886 746.648 192.803 Q744.75 190.719 741.602 190.719 Q738.037 190.719 735.884 192.733 Q733.755 194.747 733.431 198.405 L748.616 198.381 Z" fill="#000000" fill-rule="nonzero" fill-opacity="1" /><path clip-path="url(#clip380)" d="M774.889 191.715 Q774.171 191.298 773.315 191.113 Q772.481 190.905 771.463 190.905 Q767.852 190.905 765.907 193.266 Q763.986 195.604 763.986 200.002 L763.986 213.659 L759.704 213.659 L759.704 187.733 L763.986 187.733 L763.986 191.761 Q765.329 189.4 767.481 188.266 Q769.634 187.108 772.713 187.108 Q773.153 187.108 773.685 187.178 Q774.218 187.224 774.866 187.34 L774.889 191.715 Z" fill="#000000" fill-rule="nonzero" fill-opacity="1" /><path clip-path="url(#clip380)" d="M793.546 191.715 Q792.829 191.298 791.972 191.113 Q791.139 190.905 790.12 190.905 Q786.509 190.905 784.565 193.266 Q782.643 195.604 782.643 200.002 L782.643 213.659 L778.361 213.659 L778.361 187.733 L782.643 187.733 L782.643 191.761 Q783.986 189.4 786.139 188.266 Q788.291 187.108 791.37 187.108 Q791.81 187.108 792.342 187.178 Q792.875 187.224 793.523 187.34 L793.546 191.715 Z" fill="#000000" fill-rule="nonzero" fill-opacity="1" /><path clip-path="url(#clip380)" d="M807.018 190.719 Q803.592 190.719 801.602 193.405 Q799.611 196.067 799.611 200.719 Q799.611 205.372 801.578 208.057 Q803.569 210.719 807.018 210.719 Q810.421 210.719 812.412 208.034 Q814.402 205.349 814.402 200.719 Q814.402 196.113 812.412 193.428 Q810.421 190.719 807.018 190.719 M807.018 187.108 Q812.574 187.108 815.745 190.719 Q818.916 194.331 818.916 200.719 Q818.916 207.085 815.745 210.719 Q812.574 214.33 807.018 214.33 Q801.44 214.33 798.268 210.719 Q795.12 207.085 795.12 200.719 Q795.12 194.331 798.268 190.719 Q801.44 187.108 807.018 187.108 Z" fill="#000000" fill-rule="nonzero" fill-opacity="1" /><path clip-path="url(#clip380)" d="M841 191.715 Q840.282 191.298 839.425 191.113 Q838.592 190.905 837.574 190.905 Q833.963 190.905 832.018 193.266 Q830.097 195.604 830.097 200.002 L830.097 213.659 L825.814 213.659 L825.814 187.733 L830.097 187.733 L830.097 191.761 Q831.439 189.4 833.592 188.266 Q835.745 187.108 838.824 187.108 Q839.263 187.108 839.796 187.178 Q840.328 187.224 840.976 187.34 L841 191.715 Z" fill="#000000" fill-rule="nonzero" fill-opacity="1" /><path clip-path="url(#clip380)" d="M861.995 188.497 L861.995 192.525 Q860.189 191.599 858.245 191.136 Q856.3 190.673 854.217 190.673 Q851.046 190.673 849.449 191.645 Q847.875 192.618 847.875 194.562 Q847.875 196.044 849.009 196.9 Q850.143 197.733 853.569 198.497 L855.027 198.821 Q859.564 199.794 861.462 201.576 Q863.384 203.335 863.384 206.506 Q863.384 210.118 860.513 212.224 Q857.666 214.33 852.666 214.33 Q850.583 214.33 848.314 213.914 Q846.069 213.52 843.569 212.71 L843.569 208.312 Q845.93 209.539 848.222 210.164 Q850.513 210.766 852.759 210.766 Q855.768 210.766 857.388 209.747 Q859.009 208.706 859.009 206.831 Q859.009 205.094 857.828 204.168 Q856.671 203.243 852.712 202.386 L851.231 202.039 Q847.273 201.206 845.513 199.493 Q843.754 197.756 843.754 194.747 Q843.754 191.09 846.347 189.099 Q848.939 187.108 853.708 187.108 Q856.069 187.108 858.152 187.456 Q860.236 187.803 861.995 188.497 Z" fill="#000000" fill-rule="nonzero" fill-opacity="1" /></svg>
