<?xml version="1.0" encoding="utf-8"?>
<svg xmlns="http://www.w3.org/2000/svg" xmlns:xlink="http://www.w3.org/1999/xlink" width="600" height="400" viewBox="0 0 2400 1600">
<defs>
  <clipPath id="clip760">
    <rect x="0" y="0" width="2400" height="1600"/>
  </clipPath>
</defs>
<path clip-path="url(#clip760)" d="M0 1600 L2400 1600 L2400 0 L0 0  Z" fill="#ffffff" fill-rule="evenodd" fill-opacity="1"/>
<defs>
  <clipPath id="clip761">
    <rect x="480" y="0" width="1681" height="1600"/>
  </clipPath>
</defs>
<path clip-path="url(#clip760)" d="M257.69 1423.18 L2352.76 1423.18 L2352.76 47.2441 L257.69 47.2441  Z" fill="#ffffff" fill-rule="evenodd" fill-opacity="1"/>
<defs>
  <clipPath id="clip762">
    <rect x="257" y="47" width="2096" height="1377"/>
  </clipPath>
</defs>
<polyline clip-path="url(#clip762)" style="stroke:#000000; stroke-linecap:round; stroke-linejoin:round; stroke-width:2; stroke-opacity:0.1; fill:none" points="316.984,1423.18 316.984,47.2441 "/>
<polyline clip-path="url(#clip762)" style="stroke:#000000; stroke-linecap:round; stroke-linejoin:round; stroke-width:2; stroke-opacity:0.1; fill:none" points="811.104,1423.18 811.104,47.2441 "/>
<polyline clip-path="url(#clip762)" style="stroke:#000000; stroke-linecap:round; stroke-linejoin:round; stroke-width:2; stroke-opacity:0.1; fill:none" points="1305.22,1423.18 1305.22,47.2441 "/>
<polyline clip-path="url(#clip762)" style="stroke:#000000; stroke-linecap:round; stroke-linejoin:round; stroke-width:2; stroke-opacity:0.1; fill:none" points="1799.34,1423.18 1799.34,47.2441 "/>
<polyline clip-path="url(#clip762)" style="stroke:#000000; stroke-linecap:round; stroke-linejoin:round; stroke-width:2; stroke-opacity:0.1; fill:none" points="2293.46,1423.18 2293.46,47.2441 "/>
<polyline clip-path="url(#clip762)" style="stroke:#000000; stroke-linecap:round; stroke-linejoin:round; stroke-width:2; stroke-opacity:0.1; fill:none" points="257.69,1309.78 2352.76,1309.78 "/>
<polyline clip-path="url(#clip762)" style="stroke:#000000; stroke-linecap:round; stroke-linejoin:round; stroke-width:2; stroke-opacity:0.1; fill:none" points="257.69,1003.88 2352.76,1003.88 "/>
<polyline clip-path="url(#clip762)" style="stroke:#000000; stroke-linecap:round; stroke-linejoin:round; stroke-width:2; stroke-opacity:0.1; fill:none" points="257.69,697.983 2352.76,697.983 "/>
<polyline clip-path="url(#clip762)" style="stroke:#000000; stroke-linecap:round; stroke-linejoin:round; stroke-width:2; stroke-opacity:0.1; fill:none" points="257.69,392.084 2352.76,392.084 "/>
<polyline clip-path="url(#clip762)" style="stroke:#000000; stroke-linecap:round; stroke-linejoin:round; stroke-width:2; stroke-opacity:0.1; fill:none" points="257.69,86.1857 2352.76,86.1857 "/>
<polyline clip-path="url(#clip760)" style="stroke:#000000; stroke-linecap:round; stroke-linejoin:round; stroke-width:4; stroke-opacity:1; fill:none" points="257.69,1423.18 2352.76,1423.18 "/>
<polyline clip-path="url(#clip760)" style="stroke:#000000; stroke-linecap:round; stroke-linejoin:round; stroke-width:4; stroke-opacity:1; fill:none" points="316.984,1423.18 316.984,1404.28 "/>
<polyline clip-path="url(#clip760)" style="stroke:#000000; stroke-linecap:round; stroke-linejoin:round; stroke-width:4; stroke-opacity:1; fill:none" points="811.104,1423.18 811.104,1404.28 "/>
<polyline clip-path="url(#clip760)" style="stroke:#000000; stroke-linecap:round; stroke-linejoin:round; stroke-width:4; stroke-opacity:1; fill:none" points="1305.22,1423.18 1305.22,1404.28 "/>
<polyline clip-path="url(#clip760)" style="stroke:#000000; stroke-linecap:round; stroke-linejoin:round; stroke-width:4; stroke-opacity:1; fill:none" points="1799.34,1423.18 1799.34,1404.28 "/>
<polyline clip-path="url(#clip760)" style="stroke:#000000; stroke-linecap:round; stroke-linejoin:round; stroke-width:4; stroke-opacity:1; fill:none" points="2293.46,1423.18 2293.46,1404.28 "/>
<path clip-path="url(#clip760)" d="M279.288 1454.1 Q275.677 1454.1 273.848 1457.66 Q272.043 1461.2 272.043 1468.33 Q272.043 1475.44 273.848 1479.01 Q275.677 1482.55 279.288 1482.55 Q282.922 1482.55 284.728 1479.01 Q286.556 1475.44 286.556 1468.33 Q286.556 1461.2 284.728 1457.66 Q282.922 1454.1 279.288 1454.1 M279.288 1450.39 Q285.098 1450.39 288.154 1455 Q291.232 1459.58 291.232 1468.33 Q291.232 1477.06 288.154 1481.67 Q285.098 1486.25 279.288 1486.25 Q273.478 1486.25 270.399 1481.67 Q267.344 1477.06 267.344 1468.33 Q267.344 1459.58 270.399 1455 Q273.478 1450.39 279.288 1450.39 Z" fill="#000000" fill-rule="nonzero" fill-opacity="1" /><path clip-path="url(#clip760)" d="M299.45 1479.7 L304.334 1479.7 L304.334 1485.58 L299.45 1485.58 L299.45 1479.7 Z" fill="#000000" fill-rule="nonzero" fill-opacity="1" /><path clip-path="url(#clip760)" d="M324.519 1454.1 Q320.908 1454.1 319.079 1457.66 Q317.274 1461.2 317.274 1468.33 Q317.274 1475.44 319.079 1479.01 Q320.908 1482.55 324.519 1482.55 Q328.153 1482.55 329.959 1479.01 Q331.788 1475.44 331.788 1468.33 Q331.788 1461.2 329.959 1457.66 Q328.153 1454.1 324.519 1454.1 M324.519 1450.39 Q330.329 1450.39 333.385 1455 Q336.464 1459.58 336.464 1468.33 Q336.464 1477.06 333.385 1481.67 Q330.329 1486.25 324.519 1486.25 Q318.709 1486.25 315.63 1481.67 Q312.575 1477.06 312.575 1468.33 Q312.575 1459.58 315.63 1455 Q318.709 1450.39 324.519 1450.39 Z" fill="#000000" fill-rule="nonzero" fill-opacity="1" /><path clip-path="url(#clip760)" d="M354.681 1454.1 Q351.07 1454.1 349.241 1457.66 Q347.436 1461.2 347.436 1468.33 Q347.436 1475.44 349.241 1479.01 Q351.07 1482.55 354.681 1482.55 Q358.315 1482.55 360.121 1479.01 Q361.949 1475.44 361.949 1468.33 Q361.949 1461.2 360.121 1457.66 Q358.315 1454.1 354.681 1454.1 M354.681 1450.39 Q360.491 1450.39 363.547 1455 Q366.625 1459.58 366.625 1468.33 Q366.625 1477.06 363.547 1481.67 Q360.491 1486.25 354.681 1486.25 Q348.871 1486.25 345.792 1481.67 Q342.737 1477.06 342.737 1468.33 Q342.737 1459.58 345.792 1455 Q348.871 1450.39 354.681 1450.39 Z" fill="#000000" fill-rule="nonzero" fill-opacity="1" /><path clip-path="url(#clip760)" d="M773.905 1454.1 Q770.294 1454.1 768.465 1457.66 Q766.66 1461.2 766.66 1468.33 Q766.66 1475.44 768.465 1479.01 Q770.294 1482.55 773.905 1482.55 Q777.539 1482.55 779.345 1479.01 Q781.173 1475.44 781.173 1468.33 Q781.173 1461.2 779.345 1457.66 Q777.539 1454.1 773.905 1454.1 M773.905 1450.39 Q779.715 1450.39 782.771 1455 Q785.849 1459.58 785.849 1468.33 Q785.849 1477.06 782.771 1481.67 Q779.715 1486.25 773.905 1486.25 Q768.095 1486.25 765.016 1481.67 Q761.96 1477.06 761.96 1468.33 Q761.96 1459.58 765.016 1455 Q768.095 1450.39 773.905 1450.39 Z" fill="#000000" fill-rule="nonzero" fill-opacity="1" /><path clip-path="url(#clip760)" d="M794.067 1479.7 L798.951 1479.7 L798.951 1485.58 L794.067 1485.58 L794.067 1479.7 Z" fill="#000000" fill-rule="nonzero" fill-opacity="1" /><path clip-path="url(#clip760)" d="M813.164 1481.64 L829.483 1481.64 L829.483 1485.58 L807.539 1485.58 L807.539 1481.64 Q810.201 1478.89 814.784 1474.26 Q819.391 1469.61 820.571 1468.27 Q822.817 1465.74 823.696 1464.01 Q824.599 1462.25 824.599 1460.56 Q824.599 1457.8 822.655 1456.07 Q820.733 1454.33 817.631 1454.33 Q815.432 1454.33 812.979 1455.09 Q810.548 1455.86 807.77 1457.41 L807.77 1452.69 Q810.594 1451.55 813.048 1450.97 Q815.502 1450.39 817.539 1450.39 Q822.909 1450.39 826.104 1453.08 Q829.298 1455.77 829.298 1460.26 Q829.298 1462.39 828.488 1464.31 Q827.701 1466.2 825.594 1468.8 Q825.016 1469.47 821.914 1472.69 Q818.812 1475.88 813.164 1481.64 Z" fill="#000000" fill-rule="nonzero" fill-opacity="1" /><path clip-path="url(#clip760)" d="M839.344 1451.02 L857.701 1451.02 L857.701 1454.96 L843.627 1454.96 L843.627 1463.43 Q844.645 1463.08 845.664 1462.92 Q846.682 1462.73 847.701 1462.73 Q853.488 1462.73 856.867 1465.9 Q860.247 1469.08 860.247 1474.49 Q860.247 1480.07 856.775 1483.17 Q853.303 1486.25 846.983 1486.25 Q844.807 1486.25 842.539 1485.88 Q840.293 1485.51 837.886 1484.77 L837.886 1480.07 Q839.969 1481.2 842.192 1481.76 Q844.414 1482.32 846.891 1482.32 Q850.895 1482.32 853.233 1480.21 Q855.571 1478.1 855.571 1474.49 Q855.571 1470.88 853.233 1468.77 Q850.895 1466.67 846.891 1466.67 Q845.016 1466.67 843.141 1467.08 Q841.289 1467.5 839.344 1468.38 L839.344 1451.02 Z" fill="#000000" fill-rule="nonzero" fill-opacity="1" /><path clip-path="url(#clip760)" d="M1267.53 1454.1 Q1263.92 1454.1 1262.09 1457.66 Q1260.28 1461.2 1260.28 1468.33 Q1260.28 1475.44 1262.09 1479.01 Q1263.92 1482.55 1267.53 1482.55 Q1271.16 1482.55 1272.97 1479.01 Q1274.79 1475.44 1274.79 1468.33 Q1274.79 1461.2 1272.97 1457.66 Q1271.16 1454.1 1267.53 1454.1 M1267.53 1450.39 Q1273.34 1450.39 1276.39 1455 Q1279.47 1459.58 1279.47 1468.33 Q1279.47 1477.06 1276.39 1481.67 Q1273.34 1486.25 1267.53 1486.25 Q1261.72 1486.25 1258.64 1481.67 Q1255.58 1477.06 1255.58 1468.33 Q1255.58 1459.58 1258.64 1455 Q1261.72 1450.39 1267.53 1450.39 Z" fill="#000000" fill-rule="nonzero" fill-opacity="1" /><path clip-path="url(#clip760)" d="M1287.69 1479.7 L1292.57 1479.7 L1292.57 1485.58 L1287.69 1485.58 L1287.69 1479.7 Z" fill="#000000" fill-rule="nonzero" fill-opacity="1" /><path clip-path="url(#clip760)" d="M1302.8 1451.02 L1321.16 1451.02 L1321.16 1454.96 L1307.09 1454.96 L1307.09 1463.43 Q1308.1 1463.08 1309.12 1462.92 Q1310.14 1462.73 1311.16 1462.73 Q1316.95 1462.73 1320.33 1465.9 Q1323.71 1469.08 1323.71 1474.49 Q1323.71 1480.07 1320.23 1483.17 Q1316.76 1486.25 1310.44 1486.25 Q1308.27 1486.25 1306 1485.88 Q1303.75 1485.51 1301.35 1484.77 L1301.35 1480.07 Q1303.43 1481.2 1305.65 1481.76 Q1307.87 1482.32 1310.35 1482.32 Q1314.35 1482.32 1316.69 1480.21 Q1319.03 1478.1 1319.03 1474.49 Q1319.03 1470.88 1316.69 1468.77 Q1314.35 1466.67 1310.35 1466.67 Q1308.48 1466.67 1306.6 1467.08 Q1304.75 1467.5 1302.8 1468.38 L1302.8 1451.02 Z" fill="#000000" fill-rule="nonzero" fill-opacity="1" /><path clip-path="url(#clip760)" d="M1342.92 1454.1 Q1339.31 1454.1 1337.48 1457.66 Q1335.67 1461.2 1335.67 1468.33 Q1335.67 1475.44 1337.48 1479.01 Q1339.31 1482.55 1342.92 1482.55 Q1346.55 1482.55 1348.36 1479.01 Q1350.19 1475.44 1350.19 1468.33 Q1350.19 1461.2 1348.36 1457.66 Q1346.55 1454.1 1342.92 1454.1 M1342.92 1450.39 Q1348.73 1450.39 1351.79 1455 Q1354.86 1459.58 1354.86 1468.33 Q1354.86 1477.06 1351.79 1481.67 Q1348.73 1486.25 1342.92 1486.25 Q1337.11 1486.25 1334.03 1481.67 Q1330.98 1477.06 1330.98 1468.33 Q1330.98 1459.58 1334.03 1455 Q1337.11 1450.39 1342.92 1450.39 Z" fill="#000000" fill-rule="nonzero" fill-opacity="1" /><path clip-path="url(#clip760)" d="M1762.14 1454.1 Q1758.53 1454.1 1756.7 1457.66 Q1754.9 1461.2 1754.9 1468.33 Q1754.9 1475.44 1756.7 1479.01 Q1758.53 1482.55 1762.14 1482.55 Q1765.78 1482.55 1767.58 1479.01 Q1769.41 1475.44 1769.41 1468.33 Q1769.41 1461.2 1767.58 1457.66 Q1765.78 1454.1 1762.14 1454.1 M1762.14 1450.39 Q1767.95 1450.39 1771.01 1455 Q1774.09 1459.58 1774.09 1468.33 Q1774.09 1477.06 1771.01 1481.67 Q1767.95 1486.25 1762.14 1486.25 Q1756.33 1486.25 1753.25 1481.67 Q1750.2 1477.06 1750.2 1468.33 Q1750.2 1459.58 1753.25 1455 Q1756.33 1450.39 1762.14 1450.39 Z" fill="#000000" fill-rule="nonzero" fill-opacity="1" /><path clip-path="url(#clip760)" d="M1782.31 1479.7 L1787.19 1479.7 L1787.19 1485.58 L1782.31 1485.58 L1782.31 1479.7 Z" fill="#000000" fill-rule="nonzero" fill-opacity="1" /><path clip-path="url(#clip760)" d="M1796.19 1451.02 L1818.42 1451.02 L1818.42 1453.01 L1805.87 1485.58 L1800.99 1485.58 L1812.79 1454.96 L1796.19 1454.96 L1796.19 1451.02 Z" fill="#000000" fill-rule="nonzero" fill-opacity="1" /><path clip-path="url(#clip760)" d="M1827.58 1451.02 L1845.94 1451.02 L1845.94 1454.96 L1831.87 1454.96 L1831.87 1463.43 Q1832.88 1463.08 1833.9 1462.92 Q1834.92 1462.73 1835.94 1462.73 Q1841.73 1462.73 1845.11 1465.9 Q1848.49 1469.08 1848.49 1474.49 Q1848.49 1480.07 1845.01 1483.17 Q1841.54 1486.25 1835.22 1486.25 Q1833.05 1486.25 1830.78 1485.88 Q1828.53 1485.51 1826.12 1484.77 L1826.12 1480.07 Q1828.21 1481.2 1830.43 1481.76 Q1832.65 1482.32 1835.13 1482.32 Q1839.13 1482.32 1841.47 1480.21 Q1843.81 1478.1 1843.81 1474.49 Q1843.81 1470.88 1841.47 1468.77 Q1839.13 1466.67 1835.13 1466.67 Q1833.25 1466.67 1831.38 1467.08 Q1829.53 1467.5 1827.58 1468.38 L1827.58 1451.02 Z" fill="#000000" fill-rule="nonzero" fill-opacity="1" /><path clip-path="url(#clip760)" d="M2245.53 1481.64 L2253.17 1481.64 L2253.17 1455.28 L2244.86 1456.95 L2244.86 1452.69 L2253.13 1451.02 L2257.8 1451.02 L2257.8 1481.64 L2265.44 1481.64 L2265.44 1485.58 L2245.53 1485.58 L2245.53 1481.64 Z" fill="#000000" fill-rule="nonzero" fill-opacity="1" /><path clip-path="url(#clip760)" d="M2274.89 1479.7 L2279.77 1479.7 L2279.77 1485.58 L2274.89 1485.58 L2274.89 1479.7 Z" fill="#000000" fill-rule="nonzero" fill-opacity="1" /><path clip-path="url(#clip760)" d="M2299.95 1454.1 Q2296.34 1454.1 2294.51 1457.66 Q2292.71 1461.2 2292.71 1468.33 Q2292.71 1475.44 2294.51 1479.01 Q2296.34 1482.55 2299.95 1482.55 Q2303.59 1482.55 2305.39 1479.01 Q2307.22 1475.44 2307.22 1468.33 Q2307.22 1461.2 2305.39 1457.66 Q2303.59 1454.1 2299.95 1454.1 M2299.95 1450.39 Q2305.76 1450.39 2308.82 1455 Q2311.9 1459.58 2311.9 1468.33 Q2311.9 1477.06 2308.82 1481.67 Q2305.76 1486.25 2299.95 1486.25 Q2294.14 1486.25 2291.07 1481.67 Q2288.01 1477.06 2288.01 1468.33 Q2288.01 1459.58 2291.07 1455 Q2294.14 1450.39 2299.95 1450.39 Z" fill="#000000" fill-rule="nonzero" fill-opacity="1" /><path clip-path="url(#clip760)" d="M2330.12 1454.1 Q2326.51 1454.1 2324.68 1457.66 Q2322.87 1461.2 2322.87 1468.33 Q2322.87 1475.44 2324.68 1479.01 Q2326.51 1482.55 2330.12 1482.55 Q2333.75 1482.55 2335.56 1479.01 Q2337.38 1475.44 2337.38 1468.33 Q2337.38 1461.2 2335.56 1457.66 Q2333.75 1454.1 2330.12 1454.1 M2330.12 1450.39 Q2335.93 1450.39 2338.98 1455 Q2342.06 1459.58 2342.06 1468.33 Q2342.06 1477.06 2338.98 1481.67 Q2335.93 1486.25 2330.12 1486.25 Q2324.31 1486.25 2321.23 1481.67 Q2318.17 1477.06 2318.17 1468.33 Q2318.17 1459.58 2321.23 1455 Q2324.31 1450.39 2330.12 1450.39 Z" fill="#000000" fill-rule="nonzero" fill-opacity="1" /><path clip-path="url(#clip760)" d="M1313.69 1531.91 Q1313.69 1532.81 1313.28 1533.04 Q1312.86 1533.23 1311.7 1533.23 L1305.51 1533.23 L1300.62 1552.69 Q1300.23 1554.39 1300.23 1555.84 Q1300.23 1557.45 1300.72 1558.16 Q1301.23 1558.87 1302.29 1558.87 Q1304.39 1558.87 1306.64 1556.97 Q1308.93 1555.07 1310.86 1550.43 Q1311.12 1549.82 1311.25 1549.69 Q1311.41 1549.53 1311.83 1549.53 Q1312.63 1549.53 1312.63 1550.17 Q1312.63 1550.4 1312.18 1551.43 Q1311.76 1552.46 1310.83 1553.97 Q1309.93 1555.49 1308.73 1556.9 Q1307.57 1558.32 1305.8 1559.35 Q1304.03 1560.35 1302.13 1560.35 Q1299.46 1560.35 1297.75 1558.64 Q1296.08 1556.94 1296.08 1554.26 Q1296.08 1553.39 1296.75 1550.62 Q1297.43 1547.82 1301.1 1533.23 L1295.27 1533.23 Q1294.47 1533.23 1294.15 1533.2 Q1293.86 1533.17 1293.63 1533.01 Q1293.44 1532.81 1293.44 1532.43 Q1293.44 1531.82 1293.69 1531.56 Q1293.95 1531.27 1294.27 1531.24 Q1294.63 1531.17 1295.43 1531.17 L1301.62 1531.17 L1304.19 1520.71 Q1304.45 1519.67 1305.1 1519.09 Q1305.77 1518.48 1306.16 1518.42 Q1306.54 1518.32 1306.83 1518.32 Q1307.7 1518.32 1308.22 1518.81 Q1308.73 1519.26 1308.73 1520.09 Q1308.73 1520.54 1306.03 1531.17 L1311.83 1531.17 Q1312.57 1531.17 1312.86 1531.2 Q1313.18 1531.24 1313.44 1531.4 Q1313.69 1531.56 1313.69 1531.91 Z" fill="#000000" fill-rule="nonzero" fill-opacity="1" /><polyline clip-path="url(#clip760)" style="stroke:#000000; stroke-linecap:round; stroke-linejoin:round; stroke-width:4; stroke-opacity:1; fill:none" points="257.69,1423.18 257.69,47.2441 "/>
<polyline clip-path="url(#clip760)" style="stroke:#000000; stroke-linecap:round; stroke-linejoin:round; stroke-width:4; stroke-opacity:1; fill:none" points="257.69,1309.78 276.588,1309.78 "/>
<polyline clip-path="url(#clip760)" style="stroke:#000000; stroke-linecap:round; stroke-linejoin:round; stroke-width:4; stroke-opacity:1; fill:none" points="257.69,1003.88 276.588,1003.88 "/>
<polyline clip-path="url(#clip760)" style="stroke:#000000; stroke-linecap:round; stroke-linejoin:round; stroke-width:4; stroke-opacity:1; fill:none" points="257.69,697.983 276.588,697.983 "/>
<polyline clip-path="url(#clip760)" style="stroke:#000000; stroke-linecap:round; stroke-linejoin:round; stroke-width:4; stroke-opacity:1; fill:none" points="257.69,392.084 276.588,392.084 "/>
<polyline clip-path="url(#clip760)" style="stroke:#000000; stroke-linecap:round; stroke-linejoin:round; stroke-width:4; stroke-opacity:1; fill:none" points="257.69,86.1857 276.588,86.1857 "/>
<path clip-path="url(#clip760)" d="M114.839 1310.23 L144.515 1310.23 L144.515 1314.17 L114.839 1314.17 L114.839 1310.23 Z" fill="#000000" fill-rule="nonzero" fill-opacity="1" /><path clip-path="url(#clip760)" d="M164.607 1295.58 Q160.996 1295.58 159.167 1299.14 Q157.362 1302.69 157.362 1309.82 Q157.362 1316.92 159.167 1320.49 Q160.996 1324.03 164.607 1324.03 Q168.241 1324.03 170.047 1320.49 Q171.876 1316.92 171.876 1309.82 Q171.876 1302.69 170.047 1299.14 Q168.241 1295.58 164.607 1295.58 M164.607 1291.88 Q170.417 1291.88 173.473 1296.48 Q176.551 1301.07 176.551 1309.82 Q176.551 1318.54 173.473 1323.15 Q170.417 1327.73 164.607 1327.73 Q158.797 1327.73 155.718 1323.15 Q152.663 1318.54 152.663 1309.82 Q152.663 1301.07 155.718 1296.48 Q158.797 1291.88 164.607 1291.88 Z" fill="#000000" fill-rule="nonzero" fill-opacity="1" /><path clip-path="url(#clip760)" d="M184.769 1321.18 L189.653 1321.18 L189.653 1327.06 L184.769 1327.06 L184.769 1321.18 Z" fill="#000000" fill-rule="nonzero" fill-opacity="1" /><path clip-path="url(#clip760)" d="M209.838 1310.65 Q206.505 1310.65 204.584 1312.43 Q202.686 1314.21 202.686 1317.34 Q202.686 1320.46 204.584 1322.25 Q206.505 1324.03 209.838 1324.03 Q213.172 1324.03 215.093 1322.25 Q217.014 1320.44 217.014 1317.34 Q217.014 1314.21 215.093 1312.43 Q213.195 1310.65 209.838 1310.65 M205.162 1308.66 Q202.153 1307.92 200.463 1305.86 Q198.797 1303.8 198.797 1300.83 Q198.797 1296.69 201.737 1294.28 Q204.699 1291.88 209.838 1291.88 Q215 1291.88 217.94 1294.28 Q220.88 1296.69 220.88 1300.83 Q220.88 1303.8 219.19 1305.86 Q217.523 1307.92 214.537 1308.66 Q217.917 1309.45 219.792 1311.74 Q221.69 1314.03 221.69 1317.34 Q221.69 1322.36 218.611 1325.05 Q215.556 1327.73 209.838 1327.73 Q204.121 1327.73 201.042 1325.05 Q197.987 1322.36 197.987 1317.34 Q197.987 1314.03 199.885 1311.74 Q201.783 1309.45 205.162 1308.66 M203.449 1301.27 Q203.449 1303.96 205.116 1305.46 Q206.806 1306.97 209.838 1306.97 Q212.848 1306.97 214.537 1305.46 Q216.25 1303.96 216.25 1301.27 Q216.25 1298.59 214.537 1297.08 Q212.848 1295.58 209.838 1295.58 Q206.806 1295.58 205.116 1297.08 Q203.449 1298.59 203.449 1301.27 Z" fill="#000000" fill-rule="nonzero" fill-opacity="1" /><path clip-path="url(#clip760)" d="M114.584 1004.33 L144.26 1004.33 L144.26 1008.27 L114.584 1008.27 L114.584 1004.33 Z" fill="#000000" fill-rule="nonzero" fill-opacity="1" /><path clip-path="url(#clip760)" d="M164.352 989.681 Q160.741 989.681 158.913 993.245 Q157.107 996.787 157.107 1003.92 Q157.107 1011.02 158.913 1014.59 Q160.741 1018.13 164.352 1018.13 Q167.987 1018.13 169.792 1014.59 Q171.621 1011.02 171.621 1003.92 Q171.621 996.787 169.792 993.245 Q167.987 989.681 164.352 989.681 M164.352 985.977 Q170.163 985.977 173.218 990.583 Q176.297 995.167 176.297 1003.92 Q176.297 1012.64 173.218 1017.25 Q170.163 1021.83 164.352 1021.83 Q158.542 1021.83 155.464 1017.25 Q152.408 1012.64 152.408 1003.92 Q152.408 995.167 155.464 990.583 Q158.542 985.977 164.352 985.977 Z" fill="#000000" fill-rule="nonzero" fill-opacity="1" /><path clip-path="url(#clip760)" d="M184.514 1015.28 L189.399 1015.28 L189.399 1021.16 L184.514 1021.16 L184.514 1015.28 Z" fill="#000000" fill-rule="nonzero" fill-opacity="1" /><path clip-path="url(#clip760)" d="M210.162 1002.02 Q207.014 1002.02 205.162 1004.17 Q203.334 1006.32 203.334 1010.07 Q203.334 1013.8 205.162 1015.98 Q207.014 1018.13 210.162 1018.13 Q213.311 1018.13 215.139 1015.98 Q216.991 1013.8 216.991 1010.07 Q216.991 1006.32 215.139 1004.17 Q213.311 1002.02 210.162 1002.02 M219.445 987.366 L219.445 991.625 Q217.686 990.792 215.88 990.352 Q214.098 989.912 212.338 989.912 Q207.709 989.912 205.255 993.037 Q202.824 996.162 202.477 1002.48 Q203.843 1000.47 205.903 999.403 Q207.963 998.315 210.44 998.315 Q215.649 998.315 218.658 1001.49 Q221.69 1004.63 221.69 1010.07 Q221.69 1015.4 218.542 1018.62 Q215.394 1021.83 210.162 1021.83 Q204.167 1021.83 200.996 1017.25 Q197.825 1012.64 197.825 1003.92 Q197.825 995.722 201.713 990.861 Q205.602 985.977 212.153 985.977 Q213.912 985.977 215.695 986.324 Q217.5 986.671 219.445 987.366 Z" fill="#000000" fill-rule="nonzero" fill-opacity="1" /><path clip-path="url(#clip760)" d="M114.26 698.435 L143.936 698.435 L143.936 702.37 L114.26 702.37 L114.26 698.435 Z" fill="#000000" fill-rule="nonzero" fill-opacity="1" /><path clip-path="url(#clip760)" d="M164.028 683.782 Q160.417 683.782 158.589 687.347 Q156.783 690.888 156.783 698.018 Q156.783 705.124 158.589 708.689 Q160.417 712.231 164.028 712.231 Q167.663 712.231 169.468 708.689 Q171.297 705.124 171.297 698.018 Q171.297 690.888 169.468 687.347 Q167.663 683.782 164.028 683.782 M164.028 680.078 Q169.839 680.078 172.894 684.685 Q175.973 689.268 175.973 698.018 Q175.973 706.745 172.894 711.351 Q169.839 715.934 164.028 715.934 Q158.218 715.934 155.14 711.351 Q152.084 706.745 152.084 698.018 Q152.084 689.268 155.14 684.685 Q158.218 680.078 164.028 680.078 Z" fill="#000000" fill-rule="nonzero" fill-opacity="1" /><path clip-path="url(#clip760)" d="M184.19 709.384 L189.075 709.384 L189.075 715.263 L184.19 715.263 L184.19 709.384 Z" fill="#000000" fill-rule="nonzero" fill-opacity="1" /><path clip-path="url(#clip760)" d="M212.107 684.777 L200.301 703.226 L212.107 703.226 L212.107 684.777 M210.88 680.703 L216.76 680.703 L216.76 703.226 L221.69 703.226 L221.69 707.115 L216.76 707.115 L216.76 715.263 L212.107 715.263 L212.107 707.115 L196.505 707.115 L196.505 702.601 L210.88 680.703 Z" fill="#000000" fill-rule="nonzero" fill-opacity="1" /><path clip-path="url(#clip760)" d="M116.343 392.536 L146.019 392.536 L146.019 396.471 L116.343 396.471 L116.343 392.536 Z" fill="#000000" fill-rule="nonzero" fill-opacity="1" /><path clip-path="url(#clip760)" d="M166.112 377.883 Q162.501 377.883 160.672 381.448 Q158.866 384.99 158.866 392.119 Q158.866 399.226 160.672 402.79 Q162.501 406.332 166.112 406.332 Q169.746 406.332 171.552 402.79 Q173.38 399.226 173.38 392.119 Q173.38 384.99 171.552 381.448 Q169.746 377.883 166.112 377.883 M166.112 374.179 Q171.922 374.179 174.977 378.786 Q178.056 383.369 178.056 392.119 Q178.056 400.846 174.977 405.452 Q171.922 410.036 166.112 410.036 Q160.302 410.036 157.223 405.452 Q154.167 400.846 154.167 392.119 Q154.167 383.369 157.223 378.786 Q160.302 374.179 166.112 374.179 Z" fill="#000000" fill-rule="nonzero" fill-opacity="1" /><path clip-path="url(#clip760)" d="M186.274 403.485 L191.158 403.485 L191.158 409.364 L186.274 409.364 L186.274 403.485 Z" fill="#000000" fill-rule="nonzero" fill-opacity="1" /><path clip-path="url(#clip760)" d="M205.371 405.429 L221.69 405.429 L221.69 409.364 L199.746 409.364 L199.746 405.429 Q202.408 402.675 206.991 398.045 Q211.598 393.392 212.778 392.05 Q215.024 389.527 215.903 387.79 Q216.806 386.031 216.806 384.341 Q216.806 381.587 214.861 379.851 Q212.94 378.115 209.838 378.115 Q207.639 378.115 205.186 378.878 Q202.755 379.642 199.977 381.193 L199.977 376.471 Q202.801 375.337 205.255 374.758 Q207.709 374.179 209.746 374.179 Q215.116 374.179 218.311 376.865 Q221.505 379.55 221.505 384.04 Q221.505 386.17 220.695 388.091 Q219.908 389.99 217.801 392.582 Q217.223 393.253 214.121 396.471 Q211.019 399.665 205.371 405.429 Z" fill="#000000" fill-rule="nonzero" fill-opacity="1" /><path clip-path="url(#clip760)" d="M164.515 71.9844 Q160.903 71.9844 159.075 75.5492 Q157.269 79.0908 157.269 86.2204 Q157.269 93.3268 159.075 96.8916 Q160.903 100.433 164.515 100.433 Q168.149 100.433 169.954 96.8916 Q171.783 93.3268 171.783 86.2204 Q171.783 79.0908 169.954 75.5492 Q168.149 71.9844 164.515 71.9844 M164.515 68.2807 Q170.325 68.2807 173.38 72.8871 Q176.459 77.4704 176.459 86.2204 Q176.459 94.9472 173.38 99.5537 Q170.325 104.137 164.515 104.137 Q158.704 104.137 155.626 99.5537 Q152.57 94.9472 152.57 86.2204 Q152.57 77.4704 155.626 72.8871 Q158.704 68.2807 164.515 68.2807 Z" fill="#000000" fill-rule="nonzero" fill-opacity="1" /><path clip-path="url(#clip760)" d="M184.676 97.5861 L189.561 97.5861 L189.561 103.466 L184.676 103.466 L184.676 97.5861 Z" fill="#000000" fill-rule="nonzero" fill-opacity="1" /><path clip-path="url(#clip760)" d="M209.746 71.9844 Q206.135 71.9844 204.306 75.5492 Q202.5 79.0908 202.5 86.2204 Q202.5 93.3268 204.306 96.8916 Q206.135 100.433 209.746 100.433 Q213.38 100.433 215.186 96.8916 Q217.014 93.3268 217.014 86.2204 Q217.014 79.0908 215.186 75.5492 Q213.38 71.9844 209.746 71.9844 M209.746 68.2807 Q215.556 68.2807 218.611 72.8871 Q221.69 77.4704 221.69 86.2204 Q221.69 94.9472 218.611 99.5537 Q215.556 104.137 209.746 104.137 Q203.936 104.137 200.857 99.5537 Q197.801 94.9472 197.801 86.2204 Q197.801 77.4704 200.857 72.8871 Q203.936 68.2807 209.746 68.2807 Z" fill="#000000" fill-rule="nonzero" fill-opacity="1" /><path clip-path="url(#clip760)" d="M30.8561 720.775 Q31.307 720.775 32.3698 721.064 L57.5548 727.377 Q63.1586 728.762 67.0877 733.27 Q71.0168 737.747 71.0168 742.836 Q71.0168 745.895 69.3743 747.86 Q67.764 749.824 65.2842 749.824 Q63.0942 749.824 62.0314 748.665 Q61.0008 747.505 61.0008 746.121 Q61.0008 745.67 61.1296 745.187 Q61.2584 744.703 61.8059 744.188 Q62.3534 743.673 63.2874 743.673 Q64.8011 743.673 65.9927 744.993 Q66.5402 745.637 66.669 746.249 Q66.7978 746.829 66.7978 747.827 Q67.6996 747.441 68.3115 746.732 Q68.9234 746.024 69.1489 745.219 Q69.4065 744.414 69.4709 743.898 Q69.5675 743.351 69.5675 742.836 Q69.5675 738.713 65.413 735.557 Q64.157 734.623 62.9009 733.947 Q61.6771 733.238 60.1634 732.723 Q58.682 732.208 57.8768 731.982 Q57.0717 731.725 55.2359 731.274 Q58.2311 734.269 58.2311 737.94 Q58.2311 739.486 57.8124 740.871 Q57.3937 742.224 56.5242 743.415 Q55.6224 744.607 54.0443 745.315 Q52.4662 745.992 50.3728 745.992 Q48.1506 745.992 45.1233 745.122 Q42.0959 744.253 36.5243 742.159 Q33.4004 741.032 31.8867 741.032 Q31.146 741.032 30.6951 741.193 Q30.212 741.354 30.051 741.676 Q29.8577 741.998 29.8255 742.191 Q29.7933 742.352 29.7933 742.675 Q29.7933 744.575 31.7257 746.346 Q33.658 748.117 37.9736 749.341 Q38.7787 749.599 38.972 749.76 Q39.1652 749.921 39.1652 750.404 Q39.133 751.209 38.4889 751.209 Q38.2312 751.209 37.2329 750.919 Q36.2023 750.629 34.6886 749.953 Q33.1427 749.245 31.7579 748.278 Q30.3408 747.312 29.3424 745.798 Q28.344 744.253 28.344 742.481 Q28.344 740.066 29.9221 738.584 Q31.468 737.071 33.7546 737.071 Q34.6886 737.071 35.5259 737.328 Q36.3311 737.554 38.4889 738.391 Q47.1845 741.773 51.4356 741.773 Q52.4662 741.773 53.3358 741.612 Q54.1731 741.418 55.0105 741 Q55.8156 740.581 56.2987 739.744 Q56.7496 738.874 56.7496 737.683 Q56.7496 736.169 56.0411 734.752 Q55.3003 733.303 54.302 732.401 Q53.3036 731.467 52.4662 730.919 Q51.5967 730.34 51.1458 730.211 L39.294 727.248 L34.0123 725.927 Q31.146 725.316 30.4374 725.026 Q29.7611 724.639 29.4068 723.963 Q29.0526 723.287 29.0526 722.707 Q29.0526 721.902 29.5357 721.354 Q30.0187 720.775 30.8561 720.775 Z" fill="#000000" fill-rule="nonzero" fill-opacity="1" /><polyline clip-path="url(#clip762)" style="stroke:#ff7e0d; stroke-linecap:round; stroke-linejoin:round; stroke-width:8; stroke-opacity:1; fill:none" stroke-dasharray="32, 20" points="316.984,86.1857 320.845,250.725 324.705,208.944 328.565,189.337 332.426,218.495 336.286,291.176 340.146,347.349 344.007,420.155 347.867,478.556 351.727,517.801 355.588,520.362 359.448,512.77 363.308,500.44 367.168,348.359 371.029,402.793 374.889,492.197 378.749,443.263 382.61,432.002 386.47,621.055 390.33,648.368 394.191,747.91 398.051,833.625 401.911,849.487 405.772,891.965 409.632,986.792 413.492,880.869 417.352,880.27 421.213,898.791 425.073,901.462 428.933,904.659 432.794,1034.06 436.654,1124.44 440.514,1228.13 444.375,1139.93 448.235,1156 452.095,1132.57 455.956,1071.99 459.816,1019.28 463.676,1070.01 467.536,1087.68 471.397,1067.23 475.257,976.16 479.117,954.549 482.978,846.137 486.838,746.331 490.698,746.563 494.559,668.794 498.419,640.222 502.279,567.517 506.139,633.871 510,570.072 513.86,570.416 517.72,573.232 521.581,543.373 525.441,627.882 529.301,727.452 533.162,639.755 537.022,707.329 540.882,660.917 544.743,745.317 548.603,640.548 552.463,680.152 556.323,762.84 560.184,721.232 564.044,604.015 567.904,677.661 571.765,718.413 575.625,693.496 579.485,802.231 583.346,847.331 587.206,810.716 591.066,827.55 594.927,852.835 598.787,906.909 602.647,872.232 606.507,904.416 610.368,830.257 614.228,840.724 618.088,820.093 621.949,976.977 625.809,945.097 629.669,1038.89 633.53,1016.59 637.39,1063.59 641.25,1096.94 645.111,1189.8 648.971,1119.49 652.831,1022.91 656.691,1027.65 660.552,1035.43 664.412,1084.47 668.272,1073.06 672.133,990.032 675.993,1083.25 679.853,1015.87 683.714,1097.11 687.574,1001.05 691.434,947.249 695.295,1027.57 699.155,1047.13 703.015,1043.35 706.875,1037.08 710.736,997.696 714.596,1143.41 718.456,1108.82 722.317,1088.04 726.177,1025.77 730.037,1053.05 733.898,984.329 737.758,945.313 741.618,1042.53 745.479,1040.77 749.339,1021.41 753.199,1038.74 757.059,962.923 760.92,1009.46 764.78,916.015 768.64,882.058 772.501,860.445 776.361,873.914 780.221,906.452 784.082,1038.11 787.942,1017.05 791.802,1025.16 795.663,789.389 799.523,763.457 803.383,712.787 807.243,848.069 811.104,829.308 814.964,745.285 818.824,794.424 822.685,818.877 826.545,856.27 830.405,849.595 834.266,742.353 838.126,728.596 841.986,809.705 845.846,937.957 849.707,953.281 853.567,990.558 857.427,919.712 861.288,933.639 865.148,966.371 869.008,993.249 872.869,1094.55 876.729,1155.07 880.589,1136.06 884.45,1083.74 888.31,1075.65 892.17,1086.87 896.03,1008.83 899.891,928.983 903.751,976.304 907.611,957.509 911.472,952.771 915.332,859.13 919.192,855.914 923.053,885.158 926.913,896.711 930.773,787.229 934.634,820.248 938.494,838.745 942.354,768.822 946.214,798.613 950.075,884.743 953.935,904.632 957.795,936.104 961.656,880.672 965.516,914.571 969.376,914.395 973.237,858.916 977.097,812.009 980.957,805.308 984.818,748.021 988.678,823.281 992.538,761.094 996.398,780.532 1000.26,768.6 1004.12,755.078 1007.98,821.094 1011.84,926.499 1015.7,991.606 1019.56,997.031 1023.42,998.721 1027.28,1088.7 1031.14,1028.09 1035,888.091 1038.86,959.096 1042.72,1009.29 1046.58,1172.27 1050.44,1186.35 1054.3,1103.18 1058.16,1117.02 1062.02,1095.32 1065.88,1094.38 1069.74,1115.57 1073.6,1061.92 1077.46,1199.56 1081.33,1222.01 1085.19,1184.76 1089.05,1242.05 1092.91,1128.28 1096.77,1091.58 1100.63,970.598 1104.49,935.408 1108.35,972.66 1112.21,882.271 1116.07,946.589 1119.93,923.46 1123.79,819.535 1127.65,721.572 1131.51,657.391 1135.37,695.725 1139.23,669.174 1143.09,657.762 1146.95,690.378 1150.81,662.948 1154.67,595.908 1158.53,565.802 1162.39,538.343 1166.25,502.054 1170.11,576.515 1173.97,521.35 1177.83,585.132 1181.69,749.255 1185.55,913.617 1189.41,1031.26 1193.27,993.997 1197.13,936.453 1200.99,934.852 1204.86,854.566 1208.72,786.354 1212.58,707.306 1216.44,794.999 1220.3,829.673 1224.16,843.72 1228.02,804.942 1231.88,869.396 1235.74,858.951 1239.6,966.532 1243.46,944.781 1247.32,918.232 1251.18,853.801 1255.04,851.425 1258.9,816.537 1262.76,810.7 1266.62,781.18 1270.48,862.848 1274.34,871.234 1278.2,1037.77 1282.06,1084.82 1285.92,1101.86 1289.78,1043.67 1293.64,1013.56 1297.5,1110.26 1301.36,1084.16 1305.22,1259.88 1309.08,1241.5 1312.94,1384.24 1316.8,1337.31 1320.66,1212.11 1324.52,1102.22 1328.38,1037.51 1332.25,1042.24 1336.11,981.592 1339.97,907.502 1343.83,949.022 1347.69,931.475 1351.55,872.031 1355.41,860.476 1359.27,788.36 1363.13,725.634 1366.99,729.432 1370.85,691.739 1374.71,642.941 1378.57,605.979 1382.43,580.271 1386.29,543.149 1390.15,585.833 1394.01,537.023 1397.87,533.608 1401.73,597.436 1405.59,568.463 1409.45,552.341 1413.31,574.098 1417.17,638.533 1421.03,475.562 1424.89,545.001 1428.75,612.814 1432.61,667.809 1436.47,632.955 1440.33,611.741 1444.19,635.873 1448.05,629.586 1451.91,581.059 1455.77,597.304 1459.64,691.011 1463.5,701.482 1467.36,747.723 1471.22,786.869 1475.08,713.946 1478.94,748.32 1482.8,700.839 1486.66,765.156 1490.52,814.942 1494.38,761.73 1498.24,709.294 1502.1,802.077 1505.96,789.702 1509.82,713.133 1513.68,725.667 1517.54,703.513 1521.4,690.548 1525.26,652.969 1529.12,544.125 1532.98,569.31 1536.84,574.289 1540.7,620.638 1544.56,569.197 1548.42,666.603 1552.28,598.313 1556.14,559.147 1560,584.215 1563.86,590.462 1567.72,620.345 1571.58,623.546 1575.44,612.42 1579.3,629.697 1583.17,582.198 1587.03,570.345 1590.89,600.361 1594.75,600.361 1598.61,569.628 1602.47,649.354 1606.33,740.911 1610.19,698.247 1614.05,822.531 1617.91,1041.56 1621.77,1081.38 1625.63,1073.24 1629.49,1189.94 1633.35,1119.21 1637.21,1138.85 1641.07,1091.88 1644.93,1104.76 1648.79,1036.39 1652.65,1008.4 1656.51,1040.71 1660.37,1003.18 1664.23,1006 1668.09,957.921 1671.95,920.524 1675.81,1002.87 1679.67,1099.34 1683.53,975.3 1687.39,922.497 1691.25,863.214 1695.11,877.601 1698.97,734.965 1702.83,805.122 1706.69,893.453 1710.56,904.015 1714.42,902.94 1718.28,1027.22 1722.14,1139.64 1726,1056.84 1729.86,1032.94 1733.72,1011.68 1737.58,1031.77 1741.44,1046.65 1745.3,995.799 1749.16,906.059 1753.02,879.584 1756.88,890.475 1760.74,880.657 1764.6,743.821 1768.46,652.247 1772.32,665.072 1776.18,669.601 1780.04,587.429 1783.9,613.693 1787.76,591.231 1791.62,481.822 1795.48,433.128 1799.34,519.785 1803.2,580.367 1807.06,652.495 1810.92,533.683 1814.78,580.589 1818.64,551.01 1822.5,520.494 1826.36,632.595 1830.22,530.2 1834.09,492.413 1837.95,427.885 1841.81,411.63 1845.67,372.424 1849.53,399.362 1853.39,389.542 1857.25,506.215 1861.11,570.071 1864.97,554.668 1868.83,507.65 1872.69,494.678 1876.55,534.619 1880.41,529.439 1884.27,560.938 1888.13,600.363 1891.99,602.2 1895.85,608.465 1899.71,560.631 1903.57,577.066 1907.43,644.937 1911.29,610.377 1915.15,729.962 1919.01,564.182 1922.87,426.553 1926.73,437.651 1930.59,296.588 1934.45,340.585 1938.31,351.322 1942.17,367.208 1946.03,424.543 1949.89,438.495 1953.75,493.336 1957.61,521.473 1961.48,541.197 1965.34,458.424 1969.2,465.174 1973.06,484.296 1976.92,537.502 1980.78,438.419 1984.64,394.936 1988.5,409.519 1992.36,471.291 1996.22,575.09 2000.08,497.895 2003.94,411.661 2007.8,413.698 2011.66,423.263 2015.52,497.981 2019.38,448.349 2023.24,486.542 2027.1,388.392 2030.96,581.38 2034.82,552.699 2038.68,626.776 2042.54,601.224 2046.4,662.954 2050.26,556.333 2054.12,503.469 2057.98,506.716 2061.84,397.478 2065.7,325.679 2069.56,266.934 2073.42,198.813 2077.28,251.533 2081.14,256.654 2085.01,352.304 2088.87,358.773 2092.73,286.726 2096.59,328.414 2100.45,354.71 2104.31,500.896 2108.17,497.101 2112.03,548.915 2115.89,506.465 2119.75,492.53 2123.61,585.789 2127.47,411.577 2131.33,396.194 2135.19,561.985 2139.05,605.466 2142.91,714.997 2146.77,698.958 2150.63,798.046 2154.49,881.586 2158.35,994.11 2162.21,896.965 2166.07,993.911 2169.93,1046.63 2173.79,950.623 2177.65,960.981 2181.51,968.78 2185.37,904.887 2189.23,961.763 2193.09,982.414 2196.95,1011.23 2200.81,1060.66 2204.67,961.034 2208.53,908.485 2212.4,893.071 2216.26,874.874 2220.12,930 2223.98,953.744 2227.84,858.117 2231.7,963.021 2235.56,890.604 2239.42,817.576 2243.28,874.494 2247.14,896.565 2251,822.462 2254.86,816.566 2258.72,819.555 2262.58,867.424 2266.44,841.538 2270.3,833.923 2274.16,780.896 2278.02,763.174 2281.88,846.638 2285.74,893.568 2289.6,741.19 2293.46,629.668 "/>
<path clip-path="url(#clip760)" d="M1769.48 1377.32 L2282.92 1377.32 L2282.92 1273.64 L1769.48 1273.64  Z" fill="#ffffff" fill-rule="evenodd" fill-opacity="1"/>
<polyline clip-path="url(#clip760)" style="stroke:#000000; stroke-linecap:round; stroke-linejoin:round; stroke-width:4; stroke-opacity:1; fill:none" points="1769.48,1377.32 2282.92,1377.32 2282.92,1273.64 1769.48,1273.64 1769.48,1377.32 "/>
<polyline clip-path="url(#clip760)" style="stroke:#ff7e0d; stroke-linecap:round; stroke-linejoin:round; stroke-width:8; stroke-opacity:1; fill:none" stroke-dasharray="32, 20" points="1792.76,1325.48 1932.43,1325.48 "/>
<path clip-path="url(#clip760)" d="M1955.71 1308.2 L1960.43 1308.2 L1967.7 1337.41 L1974.94 1308.2 L1980.2 1308.2 L1987.47 1337.41 L1994.71 1308.2 L1999.46 1308.2 L1990.78 1342.76 L1984.9 1342.76 L1977.61 1312.76 L1970.25 1342.76 L1964.37 1342.76 L1955.71 1308.2 Z" fill="#000000" fill-rule="nonzero" fill-opacity="1" /><path clip-path="url(#clip760)" d="M2004.43 1316.83 L2008.69 1316.83 L2008.69 1342.76 L2004.43 1342.76 L2004.43 1316.83 M2004.43 1306.74 L2008.69 1306.74 L2008.69 1312.13 L2004.43 1312.13 L2004.43 1306.74 Z" fill="#000000" fill-rule="nonzero" fill-opacity="1" /><path clip-path="url(#clip760)" d="M2039.78 1328.73 L2039.78 1330.81 L2020.2 1330.81 Q2020.48 1335.21 2022.84 1337.52 Q2025.22 1339.82 2029.46 1339.82 Q2031.91 1339.82 2034.2 1339.21 Q2036.52 1338.61 2038.79 1337.41 L2038.79 1341.44 Q2036.49 1342.41 2034.09 1342.92 Q2031.68 1343.43 2029.2 1343.43 Q2023 1343.43 2019.37 1339.82 Q2015.75 1336.2 2015.75 1330.05 Q2015.75 1323.68 2019.18 1319.95 Q2022.63 1316.2 2028.46 1316.2 Q2033.69 1316.2 2036.73 1319.58 Q2039.78 1322.94 2039.78 1328.73 M2035.52 1327.48 Q2035.48 1323.98 2033.56 1321.9 Q2031.66 1319.82 2028.51 1319.82 Q2024.94 1319.82 2022.79 1321.83 Q2020.66 1323.84 2020.34 1327.5 L2035.52 1327.48 Z" fill="#000000" fill-rule="nonzero" fill-opacity="1" /><path clip-path="url(#clip760)" d="M2068.32 1327.11 L2068.32 1342.76 L2064.06 1342.76 L2064.06 1327.25 Q2064.06 1323.57 2062.63 1321.74 Q2061.19 1319.91 2058.32 1319.91 Q2054.87 1319.91 2052.88 1322.11 Q2050.89 1324.31 2050.89 1328.1 L2050.89 1342.76 L2046.61 1342.76 L2046.61 1316.83 L2050.89 1316.83 L2050.89 1320.86 Q2052.42 1318.52 2054.48 1317.36 Q2056.56 1316.2 2059.27 1316.2 Q2063.74 1316.2 2066.03 1318.98 Q2068.32 1321.74 2068.32 1327.11 Z" fill="#000000" fill-rule="nonzero" fill-opacity="1" /><path clip-path="url(#clip760)" d="M2098.99 1328.73 L2098.99 1330.81 L2079.41 1330.81 Q2079.69 1335.21 2082.05 1337.52 Q2084.43 1339.82 2088.67 1339.82 Q2091.12 1339.82 2093.42 1339.21 Q2095.73 1338.61 2098 1337.41 L2098 1341.44 Q2095.71 1342.41 2093.3 1342.92 Q2090.89 1343.43 2088.42 1343.43 Q2082.21 1343.43 2078.58 1339.82 Q2074.97 1336.2 2074.97 1330.05 Q2074.97 1323.68 2078.39 1319.95 Q2081.84 1316.2 2087.68 1316.2 Q2092.91 1316.2 2095.94 1319.58 Q2098.99 1322.94 2098.99 1328.73 M2094.74 1327.48 Q2094.69 1323.98 2092.77 1321.9 Q2090.87 1319.82 2087.72 1319.82 Q2084.16 1319.82 2082 1321.83 Q2079.87 1323.84 2079.55 1327.5 L2094.74 1327.48 Z" fill="#000000" fill-rule="nonzero" fill-opacity="1" /><path clip-path="url(#clip760)" d="M2121.01 1320.81 Q2120.29 1320.39 2119.43 1320.21 Q2118.6 1320 2117.58 1320 Q2113.97 1320 2112.03 1322.36 Q2110.11 1324.7 2110.11 1329.1 L2110.11 1342.76 L2105.82 1342.76 L2105.82 1316.83 L2110.11 1316.83 L2110.11 1320.86 Q2111.45 1318.5 2113.6 1317.36 Q2115.75 1316.2 2118.83 1316.2 Q2119.27 1316.2 2119.8 1316.27 Q2120.34 1316.32 2120.99 1316.44 L2121.01 1320.81 Z" fill="#000000" fill-rule="nonzero" fill-opacity="1" /><path clip-path="url(#clip760)" d="M2162.1 1327.11 L2162.1 1342.76 L2157.84 1342.76 L2157.84 1327.25 Q2157.84 1323.57 2156.4 1321.74 Q2154.97 1319.91 2152.1 1319.91 Q2148.65 1319.91 2146.66 1322.11 Q2144.67 1324.31 2144.67 1328.1 L2144.67 1342.76 L2140.38 1342.76 L2140.38 1316.83 L2144.67 1316.83 L2144.67 1320.86 Q2146.19 1318.52 2148.25 1317.36 Q2150.34 1316.2 2153.05 1316.2 Q2157.51 1316.2 2159.8 1318.98 Q2162.1 1321.74 2162.1 1327.11 Z" fill="#000000" fill-rule="nonzero" fill-opacity="1" /><path clip-path="url(#clip760)" d="M2180.64 1319.82 Q2177.21 1319.82 2175.22 1322.5 Q2173.23 1325.16 2173.23 1329.82 Q2173.23 1334.47 2175.2 1337.15 Q2177.19 1339.82 2180.64 1339.82 Q2184.04 1339.82 2186.03 1337.13 Q2188.02 1334.45 2188.02 1329.82 Q2188.02 1325.21 2186.03 1322.52 Q2184.04 1319.82 2180.64 1319.82 M2180.64 1316.2 Q2186.19 1316.2 2189.36 1319.82 Q2192.54 1323.43 2192.54 1329.82 Q2192.54 1336.18 2189.36 1339.82 Q2186.19 1343.43 2180.64 1343.43 Q2175.06 1343.43 2171.89 1339.82 Q2168.74 1336.18 2168.74 1329.82 Q2168.74 1323.43 2171.89 1319.82 Q2175.06 1316.2 2180.64 1316.2 Z" fill="#000000" fill-rule="nonzero" fill-opacity="1" /><path clip-path="url(#clip760)" d="M2199.6 1316.83 L2203.86 1316.83 L2203.86 1342.76 L2199.6 1342.76 L2199.6 1316.83 M2199.6 1306.74 L2203.86 1306.74 L2203.86 1312.13 L2199.6 1312.13 L2199.6 1306.74 Z" fill="#000000" fill-rule="nonzero" fill-opacity="1" /><path clip-path="url(#clip760)" d="M2229.29 1317.59 L2229.29 1321.62 Q2227.49 1320.7 2225.54 1320.23 Q2223.6 1319.77 2221.52 1319.77 Q2218.35 1319.77 2216.75 1320.74 Q2215.17 1321.71 2215.17 1323.66 Q2215.17 1325.14 2216.31 1326 Q2217.44 1326.83 2220.87 1327.59 L2222.33 1327.92 Q2226.86 1328.89 2228.76 1330.67 Q2230.68 1332.43 2230.68 1335.6 Q2230.68 1339.21 2227.81 1341.32 Q2224.97 1343.43 2219.97 1343.43 Q2217.88 1343.43 2215.61 1343.01 Q2213.37 1342.62 2210.87 1341.81 L2210.87 1337.41 Q2213.23 1338.63 2215.52 1339.26 Q2217.81 1339.86 2220.06 1339.86 Q2223.07 1339.86 2224.69 1338.84 Q2226.31 1337.8 2226.31 1335.93 Q2226.31 1334.19 2225.13 1333.26 Q2223.97 1332.34 2220.01 1331.48 L2218.53 1331.14 Q2214.57 1330.3 2212.81 1328.59 Q2211.05 1326.85 2211.05 1323.84 Q2211.05 1320.19 2213.65 1318.2 Q2216.24 1316.2 2221.01 1316.2 Q2223.37 1316.2 2225.45 1316.55 Q2227.54 1316.9 2229.29 1317.59 Z" fill="#000000" fill-rule="nonzero" fill-opacity="1" /><path clip-path="url(#clip760)" d="M2259.64 1328.73 L2259.64 1330.81 L2240.06 1330.81 Q2240.34 1335.21 2242.7 1337.52 Q2245.08 1339.82 2249.32 1339.82 Q2251.77 1339.82 2254.06 1339.21 Q2256.38 1338.61 2258.65 1337.41 L2258.65 1341.44 Q2256.35 1342.41 2253.95 1342.92 Q2251.54 1343.43 2249.06 1343.43 Q2242.86 1343.43 2239.23 1339.82 Q2235.61 1336.2 2235.61 1330.05 Q2235.61 1323.68 2239.04 1319.95 Q2242.49 1316.2 2248.32 1316.2 Q2253.55 1316.2 2256.59 1319.58 Q2259.64 1322.94 2259.64 1328.73 M2255.38 1327.48 Q2255.34 1323.98 2253.42 1321.9 Q2251.52 1319.82 2248.37 1319.82 Q2244.8 1319.82 2242.65 1321.83 Q2240.52 1323.84 2240.2 1327.5 L2255.38 1327.48 Z" fill="#000000" fill-rule="nonzero" fill-opacity="1" /></svg>
