<?xml version="1.0" encoding="utf-8"?>
<svg xmlns="http://www.w3.org/2000/svg" xmlns:xlink="http://www.w3.org/1999/xlink" width="600" height="400" viewBox="0 0 2400 1600">
<defs>
  <clipPath id="clip740">
    <rect x="0" y="0" width="2400" height="1600"/>
  </clipPath>
</defs>
<path clip-path="url(#clip740)" d="M0 1600 L2400 1600 L2400 0 L0 0  Z" fill="#ffffff" fill-rule="evenodd" fill-opacity="1"/>
<defs>
  <clipPath id="clip741">
    <rect x="480" y="0" width="1681" height="1600"/>
  </clipPath>
</defs>
<path clip-path="url(#clip740)" d="M169.121 1423.18 L2352.76 1423.18 L2352.76 149.392 L169.121 149.392  Z" fill="#ffffff" fill-rule="evenodd" fill-opacity="1"/>
<defs>
  <clipPath id="clip742">
    <rect x="169" y="149" width="2185" height="1275"/>
  </clipPath>
</defs>
<polyline clip-path="url(#clip742)" style="stroke:#000000; stroke-linecap:round; stroke-linejoin:round; stroke-width:2; stroke-opacity:0.1; fill:none" points="315.114,1423.18 315.114,149.392 "/>
<polyline clip-path="url(#clip742)" style="stroke:#000000; stroke-linecap:round; stroke-linejoin:round; stroke-width:2; stroke-opacity:0.1; fill:none" points="865.257,1423.18 865.257,149.392 "/>
<polyline clip-path="url(#clip742)" style="stroke:#000000; stroke-linecap:round; stroke-linejoin:round; stroke-width:2; stroke-opacity:0.1; fill:none" points="1415.4,1423.18 1415.4,149.392 "/>
<polyline clip-path="url(#clip742)" style="stroke:#000000; stroke-linecap:round; stroke-linejoin:round; stroke-width:2; stroke-opacity:0.1; fill:none" points="1965.54,1423.18 1965.54,149.392 "/>
<polyline clip-path="url(#clip742)" style="stroke:#000000; stroke-linecap:round; stroke-linejoin:round; stroke-width:2; stroke-opacity:0.1; fill:none" points="169.121,1423.18 2352.76,1423.18 "/>
<polyline clip-path="url(#clip742)" style="stroke:#000000; stroke-linecap:round; stroke-linejoin:round; stroke-width:2; stroke-opacity:0.1; fill:none" points="169.121,1093.18 2352.76,1093.18 "/>
<polyline clip-path="url(#clip742)" style="stroke:#000000; stroke-linecap:round; stroke-linejoin:round; stroke-width:2; stroke-opacity:0.1; fill:none" points="169.121,763.186 2352.76,763.186 "/>
<polyline clip-path="url(#clip742)" style="stroke:#000000; stroke-linecap:round; stroke-linejoin:round; stroke-width:2; stroke-opacity:0.1; fill:none" points="169.121,433.189 2352.76,433.189 "/>
<polyline clip-path="url(#clip740)" style="stroke:#000000; stroke-linecap:round; stroke-linejoin:round; stroke-width:4; stroke-opacity:1; fill:none" points="169.121,1423.18 2352.76,1423.18 "/>
<polyline clip-path="url(#clip740)" style="stroke:#000000; stroke-linecap:round; stroke-linejoin:round; stroke-width:4; stroke-opacity:1; fill:none" points="315.114,1423.18 315.114,1404.28 "/>
<polyline clip-path="url(#clip740)" style="stroke:#000000; stroke-linecap:round; stroke-linejoin:round; stroke-width:4; stroke-opacity:1; fill:none" points="865.257,1423.18 865.257,1404.28 "/>
<polyline clip-path="url(#clip740)" style="stroke:#000000; stroke-linecap:round; stroke-linejoin:round; stroke-width:4; stroke-opacity:1; fill:none" points="1415.4,1423.18 1415.4,1404.28 "/>
<polyline clip-path="url(#clip740)" style="stroke:#000000; stroke-linecap:round; stroke-linejoin:round; stroke-width:4; stroke-opacity:1; fill:none" points="1965.54,1423.18 1965.54,1404.28 "/>
<path clip-path="url(#clip740)" d="M277.417 1454.1 Q273.806 1454.1 271.977 1457.66 Q270.172 1461.2 270.172 1468.33 Q270.172 1475.44 271.977 1479.01 Q273.806 1482.55 277.417 1482.55 Q281.051 1482.55 282.857 1479.01 Q284.686 1475.44 284.686 1468.33 Q284.686 1461.2 282.857 1457.66 Q281.051 1454.1 277.417 1454.1 M277.417 1450.39 Q283.227 1450.39 286.283 1455 Q289.362 1459.58 289.362 1468.33 Q289.362 1477.06 286.283 1481.67 Q283.227 1486.25 277.417 1486.25 Q271.607 1486.25 268.528 1481.67 Q265.473 1477.06 265.473 1468.33 Q265.473 1459.58 268.528 1455 Q271.607 1450.39 277.417 1450.39 Z" fill="#000000" fill-rule="nonzero" fill-opacity="1" /><path clip-path="url(#clip740)" d="M297.579 1479.7 L302.463 1479.7 L302.463 1485.58 L297.579 1485.58 L297.579 1479.7 Z" fill="#000000" fill-rule="nonzero" fill-opacity="1" /><path clip-path="url(#clip740)" d="M312.787 1484.86 L312.787 1480.6 Q314.547 1481.44 316.352 1481.88 Q318.158 1482.32 319.894 1482.32 Q324.523 1482.32 326.954 1479.21 Q329.408 1476.09 329.755 1469.75 Q328.412 1471.74 326.352 1472.8 Q324.292 1473.87 321.792 1473.87 Q316.607 1473.87 313.574 1470.74 Q310.565 1467.59 310.565 1462.15 Q310.565 1456.83 313.713 1453.61 Q316.861 1450.39 322.093 1450.39 Q328.088 1450.39 331.236 1455 Q334.408 1459.58 334.408 1468.33 Q334.408 1476.51 330.519 1481.39 Q326.653 1486.25 320.102 1486.25 Q318.343 1486.25 316.537 1485.9 Q314.732 1485.56 312.787 1484.86 M322.093 1470.21 Q325.241 1470.21 327.07 1468.06 Q328.922 1465.9 328.922 1462.15 Q328.922 1458.43 327.07 1456.27 Q325.241 1454.1 322.093 1454.1 Q318.945 1454.1 317.093 1456.27 Q315.264 1458.43 315.264 1462.15 Q315.264 1465.9 317.093 1468.06 Q318.945 1470.21 322.093 1470.21 Z" fill="#000000" fill-rule="nonzero" fill-opacity="1" /><path clip-path="url(#clip740)" d="M352.81 1454.1 Q349.199 1454.1 347.371 1457.66 Q345.565 1461.2 345.565 1468.33 Q345.565 1475.44 347.371 1479.01 Q349.199 1482.55 352.81 1482.55 Q356.445 1482.55 358.25 1479.01 Q360.079 1475.44 360.079 1468.33 Q360.079 1461.2 358.25 1457.66 Q356.445 1454.1 352.81 1454.1 M352.81 1450.39 Q358.621 1450.39 361.676 1455 Q364.755 1459.58 364.755 1468.33 Q364.755 1477.06 361.676 1481.67 Q358.621 1486.25 352.81 1486.25 Q347 1486.25 343.922 1481.67 Q340.866 1477.06 340.866 1468.33 Q340.866 1459.58 343.922 1455 Q347 1450.39 352.81 1450.39 Z" fill="#000000" fill-rule="nonzero" fill-opacity="1" /><path clip-path="url(#clip740)" d="M828.058 1454.1 Q824.447 1454.1 822.618 1457.66 Q820.813 1461.2 820.813 1468.33 Q820.813 1475.44 822.618 1479.01 Q824.447 1482.55 828.058 1482.55 Q831.692 1482.55 833.498 1479.01 Q835.326 1475.44 835.326 1468.33 Q835.326 1461.2 833.498 1457.66 Q831.692 1454.1 828.058 1454.1 M828.058 1450.39 Q833.868 1450.39 836.924 1455 Q840.002 1459.58 840.002 1468.33 Q840.002 1477.06 836.924 1481.67 Q833.868 1486.25 828.058 1486.25 Q822.248 1486.25 819.169 1481.67 Q816.113 1477.06 816.113 1468.33 Q816.113 1459.58 819.169 1455 Q822.248 1450.39 828.058 1450.39 Z" fill="#000000" fill-rule="nonzero" fill-opacity="1" /><path clip-path="url(#clip740)" d="M848.22 1479.7 L853.104 1479.7 L853.104 1485.58 L848.22 1485.58 L848.22 1479.7 Z" fill="#000000" fill-rule="nonzero" fill-opacity="1" /><path clip-path="url(#clip740)" d="M863.428 1484.86 L863.428 1480.6 Q865.187 1481.44 866.993 1481.88 Q868.798 1482.32 870.534 1482.32 Q875.164 1482.32 877.595 1479.21 Q880.048 1476.09 880.396 1469.75 Q879.053 1471.74 876.993 1472.8 Q874.933 1473.87 872.433 1473.87 Q867.247 1473.87 864.215 1470.74 Q861.206 1467.59 861.206 1462.15 Q861.206 1456.83 864.354 1453.61 Q867.502 1450.39 872.734 1450.39 Q878.729 1450.39 881.877 1455 Q885.048 1459.58 885.048 1468.33 Q885.048 1476.51 881.159 1481.39 Q877.294 1486.25 870.743 1486.25 Q868.984 1486.25 867.178 1485.9 Q865.372 1485.56 863.428 1484.86 M872.734 1470.21 Q875.882 1470.21 877.71 1468.06 Q879.562 1465.9 879.562 1462.15 Q879.562 1458.43 877.71 1456.27 Q875.882 1454.1 872.734 1454.1 Q869.585 1454.1 867.734 1456.27 Q865.905 1458.43 865.905 1462.15 Q865.905 1465.9 867.734 1468.06 Q869.585 1470.21 872.734 1470.21 Z" fill="#000000" fill-rule="nonzero" fill-opacity="1" /><path clip-path="url(#clip740)" d="M893.497 1451.02 L911.854 1451.02 L911.854 1454.96 L897.78 1454.96 L897.78 1463.43 Q898.798 1463.08 899.817 1462.92 Q900.835 1462.73 901.854 1462.73 Q907.641 1462.73 911.02 1465.9 Q914.4 1469.08 914.4 1474.49 Q914.4 1480.07 910.928 1483.17 Q907.456 1486.25 901.136 1486.25 Q898.96 1486.25 896.692 1485.88 Q894.446 1485.51 892.039 1484.77 L892.039 1480.07 Q894.122 1481.2 896.345 1481.76 Q898.567 1482.32 901.044 1482.32 Q905.048 1482.32 907.386 1480.21 Q909.724 1478.1 909.724 1474.49 Q909.724 1470.88 907.386 1468.77 Q905.048 1466.67 901.044 1466.67 Q899.169 1466.67 897.294 1467.08 Q895.442 1467.5 893.497 1468.38 L893.497 1451.02 Z" fill="#000000" fill-rule="nonzero" fill-opacity="1" /><path clip-path="url(#clip740)" d="M1367.47 1481.64 L1375.11 1481.64 L1375.11 1455.28 L1366.8 1456.95 L1366.8 1452.69 L1375.06 1451.02 L1379.74 1451.02 L1379.74 1481.64 L1387.38 1481.64 L1387.38 1485.58 L1367.47 1485.58 L1367.47 1481.64 Z" fill="#000000" fill-rule="nonzero" fill-opacity="1" /><path clip-path="url(#clip740)" d="M1396.82 1479.7 L1401.71 1479.7 L1401.71 1485.58 L1396.82 1485.58 L1396.82 1479.7 Z" fill="#000000" fill-rule="nonzero" fill-opacity="1" /><path clip-path="url(#clip740)" d="M1421.89 1454.1 Q1418.28 1454.1 1416.45 1457.66 Q1414.65 1461.2 1414.65 1468.33 Q1414.65 1475.44 1416.45 1479.01 Q1418.28 1482.55 1421.89 1482.55 Q1425.53 1482.55 1427.33 1479.01 Q1429.16 1475.44 1429.16 1468.33 Q1429.16 1461.2 1427.33 1457.66 Q1425.53 1454.1 1421.89 1454.1 M1421.89 1450.39 Q1427.7 1450.39 1430.76 1455 Q1433.84 1459.58 1433.84 1468.33 Q1433.84 1477.06 1430.76 1481.67 Q1427.7 1486.25 1421.89 1486.25 Q1416.08 1486.25 1413 1481.67 Q1409.95 1477.06 1409.95 1468.33 Q1409.95 1459.58 1413 1455 Q1416.08 1450.39 1421.89 1450.39 Z" fill="#000000" fill-rule="nonzero" fill-opacity="1" /><path clip-path="url(#clip740)" d="M1452.05 1454.1 Q1448.44 1454.1 1446.61 1457.66 Q1444.81 1461.2 1444.81 1468.33 Q1444.81 1475.44 1446.61 1479.01 Q1448.44 1482.55 1452.05 1482.55 Q1455.69 1482.55 1457.49 1479.01 Q1459.32 1475.44 1459.32 1468.33 Q1459.32 1461.2 1457.49 1457.66 Q1455.69 1454.1 1452.05 1454.1 M1452.05 1450.39 Q1457.86 1450.39 1460.92 1455 Q1464 1459.58 1464 1468.33 Q1464 1477.06 1460.92 1481.67 Q1457.86 1486.25 1452.05 1486.25 Q1446.24 1486.25 1443.17 1481.67 Q1440.11 1477.06 1440.11 1468.33 Q1440.11 1459.58 1443.17 1455 Q1446.24 1450.39 1452.05 1450.39 Z" fill="#000000" fill-rule="nonzero" fill-opacity="1" /><path clip-path="url(#clip740)" d="M1918.11 1481.64 L1925.75 1481.64 L1925.75 1455.28 L1917.44 1456.95 L1917.44 1452.69 L1925.7 1451.02 L1930.38 1451.02 L1930.38 1481.64 L1938.02 1481.64 L1938.02 1485.58 L1918.11 1485.58 L1918.11 1481.64 Z" fill="#000000" fill-rule="nonzero" fill-opacity="1" /><path clip-path="url(#clip740)" d="M1947.46 1479.7 L1952.35 1479.7 L1952.35 1485.58 L1947.46 1485.58 L1947.46 1479.7 Z" fill="#000000" fill-rule="nonzero" fill-opacity="1" /><path clip-path="url(#clip740)" d="M1972.53 1454.1 Q1968.92 1454.1 1967.09 1457.66 Q1965.29 1461.2 1965.29 1468.33 Q1965.29 1475.44 1967.09 1479.01 Q1968.92 1482.55 1972.53 1482.55 Q1976.17 1482.55 1977.97 1479.01 Q1979.8 1475.44 1979.8 1468.33 Q1979.8 1461.2 1977.97 1457.66 Q1976.17 1454.1 1972.53 1454.1 M1972.53 1450.39 Q1978.34 1450.39 1981.4 1455 Q1984.48 1459.58 1984.48 1468.33 Q1984.48 1477.06 1981.4 1481.67 Q1978.34 1486.25 1972.53 1486.25 Q1966.72 1486.25 1963.64 1481.67 Q1960.59 1477.06 1960.59 1468.33 Q1960.59 1459.58 1963.64 1455 Q1966.72 1450.39 1972.53 1450.39 Z" fill="#000000" fill-rule="nonzero" fill-opacity="1" /><path clip-path="url(#clip740)" d="M1992.74 1451.02 L2011.1 1451.02 L2011.1 1454.96 L1997.02 1454.96 L1997.02 1463.43 Q1998.04 1463.08 1999.06 1462.92 Q2000.08 1462.73 2001.1 1462.73 Q2006.88 1462.73 2010.26 1465.9 Q2013.64 1469.08 2013.64 1474.49 Q2013.64 1480.07 2010.17 1483.17 Q2006.7 1486.25 2000.38 1486.25 Q1998.2 1486.25 1995.94 1485.88 Q1993.69 1485.51 1991.28 1484.77 L1991.28 1480.07 Q1993.37 1481.2 1995.59 1481.76 Q1997.81 1482.32 2000.29 1482.32 Q2004.29 1482.32 2006.63 1480.21 Q2008.97 1478.1 2008.97 1474.49 Q2008.97 1470.88 2006.63 1468.77 Q2004.29 1466.67 2000.29 1466.67 Q1998.41 1466.67 1996.54 1467.08 Q1994.69 1467.5 1992.74 1468.38 L1992.74 1451.02 Z" fill="#000000" fill-rule="nonzero" fill-opacity="1" /><path clip-path="url(#clip740)" d="M1259.12 1538.06 Q1257.95 1537.65 1256.77 1537.33 Q1253.62 1536.5 1250.24 1536.5 Q1244.42 1536.5 1241.17 1539.65 Q1238.15 1542.58 1237.58 1547.96 L1259.12 1547.96 L1259.12 1552.54 L1237.58 1552.54 Q1238.15 1557.92 1241.17 1560.85 Q1244.42 1564 1250.24 1564 Q1254.32 1564 1256.77 1563.17 L1259.12 1562.38 L1259.12 1567.69 L1256.61 1568.27 Q1253.3 1568.97 1249.89 1568.97 Q1241.36 1568.97 1236.4 1564 Q1231.4 1559.04 1231.4 1550.25 Q1231.4 1541.47 1236.4 1536.5 Q1241.36 1531.54 1249.89 1531.54 Q1253.11 1531.54 1256.61 1532.24 Q1257.88 1532.49 1259.12 1532.87 L1259.12 1538.06 Z" fill="#000000" fill-rule="nonzero" fill-opacity="1" /><path clip-path="url(#clip740)" d="M1272.87 1564.54 L1279.37 1564.54 L1279.37 1545.1 L1272.27 1546.4 L1272.27 1542.71 L1279.59 1541.47 L1283.95 1541.47 L1283.95 1564.54 L1290.48 1564.54 L1290.48 1568.04 L1272.87 1568.04 L1272.87 1564.54 Z" fill="#000000" fill-rule="nonzero" fill-opacity="1" /><polyline clip-path="url(#clip740)" style="stroke:#000000; stroke-linecap:round; stroke-linejoin:round; stroke-width:4; stroke-opacity:1; fill:none" points="169.121,1423.18 169.121,149.392 "/>
<polyline clip-path="url(#clip740)" style="stroke:#000000; stroke-linecap:round; stroke-linejoin:round; stroke-width:4; stroke-opacity:1; fill:none" points="169.121,1423.18 188.019,1423.18 "/>
<polyline clip-path="url(#clip740)" style="stroke:#000000; stroke-linecap:round; stroke-linejoin:round; stroke-width:4; stroke-opacity:1; fill:none" points="169.121,1093.18 188.019,1093.18 "/>
<polyline clip-path="url(#clip740)" style="stroke:#000000; stroke-linecap:round; stroke-linejoin:round; stroke-width:4; stroke-opacity:1; fill:none" points="169.121,763.186 188.019,763.186 "/>
<polyline clip-path="url(#clip740)" style="stroke:#000000; stroke-linecap:round; stroke-linejoin:round; stroke-width:4; stroke-opacity:1; fill:none" points="169.121,433.189 188.019,433.189 "/>
<path clip-path="url(#clip740)" d="M121.177 1408.98 Q117.566 1408.98 115.737 1412.54 Q113.932 1416.08 113.932 1423.21 Q113.932 1430.32 115.737 1433.89 Q117.566 1437.43 121.177 1437.43 Q124.811 1437.43 126.617 1433.89 Q128.445 1430.32 128.445 1423.21 Q128.445 1416.08 126.617 1412.54 Q124.811 1408.98 121.177 1408.98 M121.177 1405.27 Q126.987 1405.27 130.043 1409.88 Q133.121 1414.46 133.121 1423.21 Q133.121 1431.94 130.043 1436.55 Q126.987 1441.13 121.177 1441.13 Q115.367 1441.13 112.288 1436.55 Q109.233 1431.94 109.233 1423.21 Q109.233 1414.46 112.288 1409.88 Q115.367 1405.27 121.177 1405.27 Z" fill="#000000" fill-rule="nonzero" fill-opacity="1" /><path clip-path="url(#clip740)" d="M81.0614 1075.9 L99.4178 1075.9 L99.4178 1079.84 L85.3438 1079.84 L85.3438 1088.31 Q86.3623 1087.96 87.3808 1087.8 Q88.3993 1087.62 89.4178 1087.62 Q95.2049 1087.62 98.5845 1090.79 Q101.964 1093.96 101.964 1099.38 Q101.964 1104.95 98.4919 1108.06 Q95.0197 1111.13 88.7003 1111.13 Q86.5243 1111.13 84.2558 1110.76 Q82.0105 1110.39 79.6031 1109.65 L79.6031 1104.95 Q81.6864 1106.09 83.9086 1106.64 Q86.1308 1107.2 88.6077 1107.2 Q92.6123 1107.2 94.9502 1105.09 Q97.2882 1102.99 97.2882 1099.38 Q97.2882 1095.76 94.9502 1093.66 Q92.6123 1091.55 88.6077 1091.55 Q86.7327 1091.55 84.8577 1091.97 Q83.0058 1092.38 81.0614 1093.26 L81.0614 1075.9 Z" fill="#000000" fill-rule="nonzero" fill-opacity="1" /><path clip-path="url(#clip740)" d="M121.177 1078.98 Q117.566 1078.98 115.737 1082.55 Q113.932 1086.09 113.932 1093.22 Q113.932 1100.32 115.737 1103.89 Q117.566 1107.43 121.177 1107.43 Q124.811 1107.43 126.617 1103.89 Q128.445 1100.32 128.445 1093.22 Q128.445 1086.09 126.617 1082.55 Q124.811 1078.98 121.177 1078.98 M121.177 1075.28 Q126.987 1075.28 130.043 1079.88 Q133.121 1084.47 133.121 1093.22 Q133.121 1101.94 130.043 1106.55 Q126.987 1111.13 121.177 1111.13 Q115.367 1111.13 112.288 1106.55 Q109.233 1101.94 109.233 1093.22 Q109.233 1084.47 112.288 1079.88 Q115.367 1075.28 121.177 1075.28 Z" fill="#000000" fill-rule="nonzero" fill-opacity="1" /><path clip-path="url(#clip740)" d="M51.6634 776.531 L59.3023 776.531 L59.3023 750.165 L50.9921 751.832 L50.9921 747.573 L59.256 745.906 L63.9319 745.906 L63.9319 776.531 L71.5707 776.531 L71.5707 780.466 L51.6634 780.466 L51.6634 776.531 Z" fill="#000000" fill-rule="nonzero" fill-opacity="1" /><path clip-path="url(#clip740)" d="M91.0151 748.985 Q87.404 748.985 85.5753 752.55 Q83.7697 756.091 83.7697 763.221 Q83.7697 770.327 85.5753 773.892 Q87.404 777.434 91.0151 777.434 Q94.6493 777.434 96.4548 773.892 Q98.2835 770.327 98.2835 763.221 Q98.2835 756.091 96.4548 752.55 Q94.6493 748.985 91.0151 748.985 M91.0151 745.281 Q96.8252 745.281 99.8808 749.888 Q102.959 754.471 102.959 763.221 Q102.959 771.948 99.8808 776.554 Q96.8252 781.137 91.0151 781.137 Q85.2049 781.137 82.1262 776.554 Q79.0707 771.948 79.0707 763.221 Q79.0707 754.471 82.1262 749.888 Q85.2049 745.281 91.0151 745.281 Z" fill="#000000" fill-rule="nonzero" fill-opacity="1" /><path clip-path="url(#clip740)" d="M121.177 748.985 Q117.566 748.985 115.737 752.55 Q113.932 756.091 113.932 763.221 Q113.932 770.327 115.737 773.892 Q117.566 777.434 121.177 777.434 Q124.811 777.434 126.617 773.892 Q128.445 770.327 128.445 763.221 Q128.445 756.091 126.617 752.55 Q124.811 748.985 121.177 748.985 M121.177 745.281 Q126.987 745.281 130.043 749.888 Q133.121 754.471 133.121 763.221 Q133.121 771.948 130.043 776.554 Q126.987 781.137 121.177 781.137 Q115.367 781.137 112.288 776.554 Q109.233 771.948 109.233 763.221 Q109.233 754.471 112.288 749.888 Q115.367 745.281 121.177 745.281 Z" fill="#000000" fill-rule="nonzero" fill-opacity="1" /><path clip-path="url(#clip740)" d="M51.6634 446.534 L59.3023 446.534 L59.3023 420.169 L50.9921 421.835 L50.9921 417.576 L59.256 415.909 L63.9319 415.909 L63.9319 446.534 L71.5707 446.534 L71.5707 450.469 L51.6634 450.469 L51.6634 446.534 Z" fill="#000000" fill-rule="nonzero" fill-opacity="1" /><path clip-path="url(#clip740)" d="M81.0614 415.909 L99.4178 415.909 L99.4178 419.845 L85.3438 419.845 L85.3438 428.317 Q86.3623 427.97 87.3808 427.807 Q88.3993 427.622 89.4178 427.622 Q95.2049 427.622 98.5845 430.794 Q101.964 433.965 101.964 439.381 Q101.964 444.96 98.4919 448.062 Q95.0197 451.141 88.7003 451.141 Q86.5243 451.141 84.2558 450.77 Q82.0105 450.4 79.6031 449.659 L79.6031 444.96 Q81.6864 446.094 83.9086 446.65 Q86.1308 447.206 88.6077 447.206 Q92.6123 447.206 94.9502 445.099 Q97.2882 442.993 97.2882 439.381 Q97.2882 435.77 94.9502 433.664 Q92.6123 431.557 88.6077 431.557 Q86.7327 431.557 84.8577 431.974 Q83.0058 432.391 81.0614 433.27 L81.0614 415.909 Z" fill="#000000" fill-rule="nonzero" fill-opacity="1" /><path clip-path="url(#clip740)" d="M121.177 418.988 Q117.566 418.988 115.737 422.553 Q113.932 426.095 113.932 433.224 Q113.932 440.331 115.737 443.895 Q117.566 447.437 121.177 447.437 Q124.811 447.437 126.617 443.895 Q128.445 440.331 128.445 433.224 Q128.445 426.095 126.617 422.553 Q124.811 418.988 121.177 418.988 M121.177 415.284 Q126.987 415.284 130.043 419.891 Q133.121 424.474 133.121 433.224 Q133.121 441.951 130.043 446.557 Q126.987 451.141 121.177 451.141 Q115.367 451.141 112.288 446.557 Q109.233 441.951 109.233 433.224 Q109.233 424.474 112.288 419.891 Q115.367 415.284 121.177 415.284 Z" fill="#000000" fill-rule="nonzero" fill-opacity="1" /><path clip-path="url(#clip740)" d="M717.886 23.76 L723.731 23.76 L723.731 41.4682 L744.969 41.4682 L744.969 23.76 L750.814 23.76 L750.814 66.96 L744.969 66.96 L744.969 46.3872 L723.731 46.3872 L723.731 66.96 L717.886 66.96 L717.886 23.76 Z" fill="#000000" fill-rule="nonzero" fill-opacity="1" /><path clip-path="url(#clip740)" d="M762.214 34.5528 L767.538 34.5528 L767.538 66.96 L762.214 66.96 L762.214 34.5528 M762.214 21.9371 L767.538 21.9371 L767.538 28.679 L762.214 28.679 L762.214 21.9371 Z" fill="#000000" fill-rule="nonzero" fill-opacity="1" /><path clip-path="url(#clip740)" d="M799.338 35.5076 L799.338 40.5423 Q797.081 39.3849 794.651 38.8062 Q792.22 38.2275 789.616 38.2275 Q785.652 38.2275 783.655 39.4428 Q781.688 40.6581 781.688 43.0886 Q781.688 44.9404 783.106 46.011 Q784.523 47.0527 788.806 48.0076 L790.629 48.4126 Q796.3 49.6279 798.673 51.8559 Q801.074 54.055 801.074 58.0191 Q801.074 62.5329 797.486 65.166 Q793.927 67.7991 787.677 67.7991 Q785.073 67.7991 782.237 67.2783 Q779.431 66.7864 776.306 65.7737 L776.306 60.276 Q779.257 61.8096 782.122 62.5908 Q784.986 63.3431 787.793 63.3431 Q791.555 63.3431 793.58 62.07 Q795.605 60.7679 795.605 58.4242 Q795.605 56.254 794.13 55.0966 Q792.683 53.9392 787.735 52.8686 L785.883 52.4346 Q780.935 51.393 778.736 49.2518 Q776.537 47.0816 776.537 43.3201 Q776.537 38.7483 779.778 36.2599 Q783.019 33.7715 788.979 33.7715 Q791.931 33.7715 794.535 34.2055 Q797.139 34.6396 799.338 35.5076 Z" fill="#000000" fill-rule="nonzero" fill-opacity="1" /><path clip-path="url(#clip740)" d="M814.818 25.3514 L814.818 34.5528 L825.785 34.5528 L825.785 38.6905 L814.818 38.6905 L814.818 56.283 Q814.818 60.2471 815.889 61.3755 Q816.988 62.504 820.316 62.504 L825.785 62.504 L825.785 66.96 L820.316 66.96 Q814.153 66.96 811.809 64.6741 Q809.465 62.3593 809.465 56.283 L809.465 38.6905 L805.559 38.6905 L805.559 34.5528 L809.465 34.5528 L809.465 25.3514 L814.818 25.3514 Z" fill="#000000" fill-rule="nonzero" fill-opacity="1" /><path clip-path="url(#clip740)" d="M845.345 38.2854 Q841.062 38.2854 838.574 41.6418 Q836.086 44.9694 836.086 50.7853 Q836.086 56.6013 838.545 59.9577 Q841.033 63.2853 845.345 63.2853 Q849.598 63.2853 852.087 59.9288 Q854.575 56.5723 854.575 50.7853 Q854.575 45.0272 852.087 41.6708 Q849.598 38.2854 845.345 38.2854 M845.345 33.7715 Q852.289 33.7715 856.253 38.2854 Q860.217 42.7992 860.217 50.7853 Q860.217 58.7425 856.253 63.2853 Q852.289 67.7991 845.345 67.7991 Q838.371 67.7991 834.407 63.2853 Q830.472 58.7425 830.472 50.7853 Q830.472 42.7992 834.407 38.2854 Q838.371 33.7715 845.345 33.7715 Z" fill="#000000" fill-rule="nonzero" fill-opacity="1" /><path clip-path="url(#clip740)" d="M890.368 50.3802 Q890.368 44.5932 887.966 41.4104 Q885.593 38.2275 881.282 38.2275 Q877 38.2275 874.598 41.4104 Q872.225 44.5932 872.225 50.3802 Q872.225 56.1383 874.598 59.3212 Q877 62.504 881.282 62.504 Q885.593 62.504 887.966 59.3212 Q890.368 56.1383 890.368 50.3802 M895.692 62.938 Q895.692 71.2134 892.017 75.2354 Q888.342 79.2863 880.761 79.2863 Q877.955 79.2863 875.466 78.8523 Q872.978 78.4472 870.634 77.5792 L870.634 72.3998 Q872.978 73.6729 875.264 74.2806 Q877.549 74.8882 879.922 74.8882 Q885.159 74.8882 887.764 72.1394 Q890.368 69.4195 890.368 63.8929 L890.368 61.2598 Q888.718 64.1244 886.143 65.5422 Q883.568 66.96 879.98 66.96 Q874.019 66.96 870.374 62.4172 Q866.728 57.8744 866.728 50.3802 Q866.728 42.8571 870.374 38.3143 Q874.019 33.7715 879.98 33.7715 Q883.568 33.7715 886.143 35.1893 Q888.718 36.6072 890.368 39.4717 L890.368 34.5528 L895.692 34.5528 L895.692 62.938 Z" fill="#000000" fill-rule="nonzero" fill-opacity="1" /><path clip-path="url(#clip740)" d="M925.437 39.5296 Q924.54 39.0088 923.469 38.7773 Q922.428 38.5169 921.155 38.5169 Q916.641 38.5169 914.21 41.4682 Q911.809 44.3907 911.809 49.8883 L911.809 66.96 L906.456 66.96 L906.456 34.5528 L911.809 34.5528 L911.809 39.5875 Q913.487 36.6361 916.178 35.2183 Q918.869 33.7715 922.717 33.7715 Q923.267 33.7715 923.932 33.8583 Q924.598 33.9162 925.408 34.0609 L925.437 39.5296 Z" fill="#000000" fill-rule="nonzero" fill-opacity="1" /><path clip-path="url(#clip740)" d="M945.749 50.6696 Q939.297 50.6696 936.808 52.1453 Q934.32 53.621 934.32 57.18 Q934.32 60.0156 936.172 61.6938 Q938.053 63.3431 941.264 63.3431 Q945.691 63.3431 948.353 60.2181 Q951.044 57.0642 951.044 51.8559 L951.044 50.6696 L945.749 50.6696 M956.368 48.4705 L956.368 66.96 L951.044 66.96 L951.044 62.041 Q949.222 64.9924 946.502 66.4102 Q943.782 67.7991 939.847 67.7991 Q934.87 67.7991 931.918 65.0214 Q928.996 62.2147 928.996 57.5272 Q928.996 52.0585 932.642 49.2807 Q936.317 46.5029 943.579 46.5029 L951.044 46.5029 L951.044 45.9821 Q951.044 42.3074 948.614 40.3108 Q946.212 38.2854 941.843 38.2854 Q939.065 38.2854 936.432 38.9509 Q933.799 39.6164 931.369 40.9474 L931.369 36.0285 Q934.291 34.9 937.04 34.3502 Q939.789 33.7715 942.393 33.7715 Q949.424 33.7715 952.896 37.4173 Q956.368 41.0631 956.368 48.4705 Z" fill="#000000" fill-rule="nonzero" fill-opacity="1" /><path clip-path="url(#clip740)" d="M992.566 40.7738 Q994.563 37.1859 997.34 35.4787 Q1000.12 33.7715 1003.88 33.7715 Q1008.94 33.7715 1011.69 37.3305 Q1014.44 40.8606 1014.44 47.3999 L1014.44 66.96 L1009.09 66.96 L1009.09 47.5735 Q1009.09 42.915 1007.44 40.6581 Q1005.79 38.4011 1002.4 38.4011 Q998.266 38.4011 995.865 41.15 Q993.463 43.8988 993.463 48.6441 L993.463 66.96 L988.11 66.96 L988.11 47.5735 Q988.11 42.8861 986.461 40.6581 Q984.812 38.4011 981.368 38.4011 Q977.289 38.4011 974.887 41.1789 Q972.485 43.9277 972.485 48.6441 L972.485 66.96 L967.132 66.96 L967.132 34.5528 L972.485 34.5528 L972.485 39.5875 Q974.308 36.6072 976.854 35.1893 Q979.401 33.7715 982.902 33.7715 Q986.432 33.7715 988.891 35.5655 Q991.38 37.3595 992.566 40.7738 Z" fill="#000000" fill-rule="nonzero" fill-opacity="1" /><path clip-path="url(#clip740)" d="M1056.45 38.2854 Q1052.17 38.2854 1049.68 41.6418 Q1047.2 44.9694 1047.2 50.7853 Q1047.2 56.6013 1049.66 59.9577 Q1052.14 63.2853 1056.45 63.2853 Q1060.71 63.2853 1063.2 59.9288 Q1065.69 56.5723 1065.69 50.7853 Q1065.69 45.0272 1063.2 41.6708 Q1060.71 38.2854 1056.45 38.2854 M1056.45 33.7715 Q1063.4 33.7715 1067.36 38.2854 Q1071.33 42.7992 1071.33 50.7853 Q1071.33 58.7425 1067.36 63.2853 Q1063.4 67.7991 1056.45 67.7991 Q1049.48 67.7991 1045.52 63.2853 Q1041.58 58.7425 1041.58 50.7853 Q1041.58 42.7992 1045.52 38.2854 Q1049.48 33.7715 1056.45 33.7715 Z" fill="#000000" fill-rule="nonzero" fill-opacity="1" /><path clip-path="url(#clip740)" d="M1096.56 21.9371 L1096.56 26.3642 L1091.47 26.3642 Q1088.6 26.3642 1087.47 27.5216 Q1086.37 28.679 1086.37 31.6882 L1086.37 34.5528 L1095.14 34.5528 L1095.14 38.6905 L1086.37 38.6905 L1086.37 66.96 L1081.02 66.96 L1081.02 38.6905 L1075.93 38.6905 L1075.93 34.5528 L1081.02 34.5528 L1081.02 32.2958 Q1081.02 26.885 1083.54 24.4255 Q1086.06 21.9371 1091.52 21.9371 L1096.56 21.9371 Z" fill="#000000" fill-rule="nonzero" fill-opacity="1" /><path clip-path="url(#clip740)" d="M1125 62.0989 L1125 79.2863 L1119.65 79.2863 L1119.65 34.5528 L1125 34.5528 L1125 39.4717 Q1126.68 36.5782 1129.23 35.1893 Q1131.8 33.7715 1135.36 33.7715 Q1141.26 33.7715 1144.94 38.459 Q1148.64 43.1465 1148.64 50.7853 Q1148.64 58.4242 1144.94 63.1116 Q1141.26 67.7991 1135.36 67.7991 Q1131.8 67.7991 1129.23 66.4102 Q1126.68 64.9924 1125 62.0989 M1143.12 50.7853 Q1143.12 44.9115 1140.68 41.584 Q1138.28 38.2275 1134.06 38.2275 Q1129.83 38.2275 1127.4 41.584 Q1125 44.9115 1125 50.7853 Q1125 56.6591 1127.4 60.0156 Q1129.83 63.3431 1134.06 63.3431 Q1138.28 63.3431 1140.68 60.0156 Q1143.12 56.6591 1143.12 50.7853 Z" fill="#000000" fill-rule="nonzero" fill-opacity="1" /><path clip-path="url(#clip740)" d="M1189.09 21.995 Q1185.22 28.65 1183.33 35.1604 Q1181.45 41.6708 1181.45 48.3548 Q1181.45 55.0388 1183.33 61.607 Q1185.24 68.1463 1189.09 74.7725 L1184.46 74.7725 Q1180.12 67.9727 1177.95 61.4045 Q1175.81 54.8362 1175.81 48.3548 Q1175.81 41.9023 1177.95 35.3629 Q1180.09 28.8236 1184.46 21.995 L1189.09 21.995 Z" fill="#000000" fill-rule="nonzero" fill-opacity="1" /><path clip-path="url(#clip740)" d="M1224.65 40.7738 Q1226.65 37.1859 1229.43 35.4787 Q1232.21 33.7715 1235.97 33.7715 Q1241.03 33.7715 1243.78 37.3305 Q1246.53 40.8606 1246.53 47.3999 L1246.53 66.96 L1241.18 66.96 L1241.18 47.5735 Q1241.18 42.915 1239.53 40.6581 Q1237.88 38.4011 1234.49 38.4011 Q1230.35 38.4011 1227.95 41.15 Q1225.55 43.8988 1225.55 48.6441 L1225.55 66.96 L1220.2 66.96 L1220.2 47.5735 Q1220.2 42.8861 1218.55 40.6581 Q1216.9 38.4011 1213.46 38.4011 Q1209.38 38.4011 1206.97 41.1789 Q1204.57 43.9277 1204.57 48.6441 L1204.57 66.96 L1199.22 66.96 L1199.22 34.5528 L1204.57 34.5528 L1204.57 39.5875 Q1206.4 36.6072 1208.94 35.1893 Q1211.49 33.7715 1214.99 33.7715 Q1218.52 33.7715 1220.98 35.5655 Q1223.47 37.3595 1224.65 40.7738 Z" fill="#000000" fill-rule="nonzero" fill-opacity="1" /><path clip-path="url(#clip740)" d="M1257.84 40.0504 L1294.94 40.0504 L1294.94 44.9115 L1257.84 44.9115 L1257.84 40.0504 M1257.84 51.8559 L1294.94 51.8559 L1294.94 56.7749 L1257.84 56.7749 L1257.84 51.8559 Z" fill="#000000" fill-rule="nonzero" fill-opacity="1" /><path clip-path="url(#clip740)" d="M1308.57 62.041 L1318.11 62.041 L1318.11 29.084 L1307.73 31.1674 L1307.73 25.8433 L1318.06 23.76 L1323.9 23.76 L1323.9 62.041 L1333.45 62.041 L1333.45 66.96 L1308.57 66.96 L1308.57 62.041 Z" fill="#000000" fill-rule="nonzero" fill-opacity="1" /><path clip-path="url(#clip740)" d="M1358.48 43.0307 Q1354.54 43.0307 1352.23 45.7217 Q1349.94 48.4126 1349.94 53.1001 Q1349.94 57.7587 1352.23 60.4786 Q1354.54 63.1695 1358.48 63.1695 Q1362.41 63.1695 1364.7 60.4786 Q1367.01 57.7587 1367.01 53.1001 Q1367.01 48.4126 1364.7 45.7217 Q1362.41 43.0307 1358.48 43.0307 M1370.08 24.7149 L1370.08 30.0389 Q1367.88 28.9972 1365.63 28.4475 Q1363.4 27.8977 1361.2 27.8977 Q1355.41 27.8977 1352.34 31.8039 Q1349.31 35.7102 1348.87 43.6094 Q1350.58 41.0921 1353.15 39.7611 Q1355.73 38.4011 1358.83 38.4011 Q1365.34 38.4011 1369.1 42.3652 Q1372.89 46.3004 1372.89 53.1001 Q1372.89 59.7552 1368.95 63.7771 Q1365.02 67.7991 1358.48 67.7991 Q1350.98 67.7991 1347.02 62.07 Q1343.06 56.3119 1343.06 45.4034 Q1343.06 35.1604 1347.92 29.084 Q1352.78 22.9788 1360.97 22.9788 Q1363.17 22.9788 1365.39 23.4128 Q1367.65 23.8468 1370.08 24.7149 Z" fill="#000000" fill-rule="nonzero" fill-opacity="1" /><path clip-path="url(#clip740)" d="M1395.46 27.6084 Q1390.94 27.6084 1388.66 32.0644 Q1386.4 36.4914 1386.4 45.4034 Q1386.4 54.2865 1388.66 58.7425 Q1390.94 63.1695 1395.46 63.1695 Q1400 63.1695 1402.26 58.7425 Q1404.54 54.2865 1404.54 45.4034 Q1404.54 36.4914 1402.26 32.0644 Q1400 27.6084 1395.46 27.6084 M1395.46 22.9788 Q1402.72 22.9788 1406.54 28.7368 Q1410.39 34.466 1410.39 45.4034 Q1410.39 56.3119 1406.54 62.07 Q1402.72 67.7991 1395.46 67.7991 Q1388.19 67.7991 1384.35 62.07 Q1380.53 56.3119 1380.53 45.4034 Q1380.53 34.466 1384.35 28.7368 Q1388.19 22.9788 1395.46 22.9788 Z" fill="#000000" fill-rule="nonzero" fill-opacity="1" /><path clip-path="url(#clip740)" d="M1433.16 27.6084 Q1428.65 27.6084 1426.36 32.0644 Q1424.1 36.4914 1424.1 45.4034 Q1424.1 54.2865 1426.36 58.7425 Q1428.65 63.1695 1433.16 63.1695 Q1437.7 63.1695 1439.96 58.7425 Q1442.25 54.2865 1442.25 45.4034 Q1442.25 36.4914 1439.96 32.0644 Q1437.7 27.6084 1433.16 27.6084 M1433.16 22.9788 Q1440.42 22.9788 1444.24 28.7368 Q1448.09 34.466 1448.09 45.4034 Q1448.09 56.3119 1444.24 62.07 Q1440.42 67.7991 1433.16 67.7991 Q1425.9 67.7991 1422.05 62.07 Q1418.23 56.3119 1418.23 45.4034 Q1418.23 34.466 1422.05 28.7368 Q1425.9 22.9788 1433.16 22.9788 Z" fill="#000000" fill-rule="nonzero" fill-opacity="1" /><path clip-path="url(#clip740)" d="M1458.97 59.6105 L1465.08 59.6105 L1465.08 64.5873 L1460.33 73.8465 L1456.6 73.8465 L1458.97 64.5873 L1458.97 59.6105 Z" fill="#000000" fill-rule="nonzero" fill-opacity="1" /><path clip-path="url(#clip740)" d="M1522.22 47.3999 L1522.22 66.96 L1516.9 66.96 L1516.9 47.5735 Q1516.9 42.9729 1515.1 40.687 Q1513.31 38.4011 1509.72 38.4011 Q1505.41 38.4011 1502.92 41.15 Q1500.43 43.8988 1500.43 48.6441 L1500.43 66.96 L1495.08 66.96 L1495.08 34.5528 L1500.43 34.5528 L1500.43 39.5875 Q1502.34 36.665 1504.92 35.2183 Q1507.52 33.7715 1510.91 33.7715 Q1516.49 33.7715 1519.36 37.2437 Q1522.22 40.687 1522.22 47.3999 Z" fill="#000000" fill-rule="nonzero" fill-opacity="1" /><path clip-path="url(#clip740)" d="M1532.64 21.9371 L1537.99 21.9371 L1537.99 48.5284 L1553.88 34.5528 L1560.68 34.5528 L1543.49 49.7147 L1561.4 66.96 L1554.46 66.96 L1537.99 51.1325 L1537.99 66.96 L1532.64 66.96 L1532.64 21.9371 Z" fill="#000000" fill-rule="nonzero" fill-opacity="1" /><path clip-path="url(#clip740)" d="M1567.85 40.0504 L1604.95 40.0504 L1604.95 44.9115 L1567.85 44.9115 L1567.85 40.0504 M1567.85 51.8559 L1604.95 51.8559 L1604.95 56.7749 L1567.85 56.7749 L1567.85 51.8559 Z" fill="#000000" fill-rule="nonzero" fill-opacity="1" /><path clip-path="url(#clip740)" d="M1618.58 62.041 L1628.12 62.041 L1628.12 29.084 L1617.74 31.1674 L1617.74 25.8433 L1628.07 23.76 L1633.91 23.76 L1633.91 62.041 L1643.46 62.041 L1643.46 66.96 L1618.58 66.96 L1618.58 62.041 Z" fill="#000000" fill-rule="nonzero" fill-opacity="1" /><path clip-path="url(#clip740)" d="M1667.77 27.6084 Q1663.25 27.6084 1660.97 32.0644 Q1658.71 36.4914 1658.71 45.4034 Q1658.71 54.2865 1660.97 58.7425 Q1663.25 63.1695 1667.77 63.1695 Q1672.31 63.1695 1674.56 58.7425 Q1676.85 54.2865 1676.85 45.4034 Q1676.85 36.4914 1674.56 32.0644 Q1672.31 27.6084 1667.77 27.6084 M1667.77 22.9788 Q1675.03 22.9788 1678.85 28.7368 Q1682.7 34.466 1682.7 45.4034 Q1682.7 56.3119 1678.85 62.07 Q1675.03 67.7991 1667.77 67.7991 Q1660.5 67.7991 1656.65 62.07 Q1652.83 56.3119 1652.83 45.4034 Q1652.83 34.466 1656.65 28.7368 Q1660.5 22.9788 1667.77 22.9788 Z" fill="#000000" fill-rule="nonzero" fill-opacity="1" /><path clip-path="url(#clip740)" d="M1705.47 27.6084 Q1700.95 27.6084 1698.67 32.0644 Q1696.41 36.4914 1696.41 45.4034 Q1696.41 54.2865 1698.67 58.7425 Q1700.95 63.1695 1705.47 63.1695 Q1710.01 63.1695 1712.27 58.7425 Q1714.55 54.2865 1714.55 45.4034 Q1714.55 36.4914 1712.27 32.0644 Q1710.01 27.6084 1705.47 27.6084 M1705.47 22.9788 Q1712.73 22.9788 1716.55 28.7368 Q1720.4 34.466 1720.4 45.4034 Q1720.4 56.3119 1716.55 62.07 Q1712.73 67.7991 1705.47 67.7991 Q1698.2 67.7991 1694.36 62.07 Q1690.54 56.3119 1690.54 45.4034 Q1690.54 34.466 1694.36 28.7368 Q1698.2 22.9788 1705.47 22.9788 Z" fill="#000000" fill-rule="nonzero" fill-opacity="1" /><path clip-path="url(#clip740)" d="M1743.17 27.6084 Q1738.66 27.6084 1736.37 32.0644 Q1734.11 36.4914 1734.11 45.4034 Q1734.11 54.2865 1736.37 58.7425 Q1738.66 63.1695 1743.17 63.1695 Q1747.71 63.1695 1749.97 58.7425 Q1752.26 54.2865 1752.26 45.4034 Q1752.26 36.4914 1749.97 32.0644 Q1747.71 27.6084 1743.17 27.6084 M1743.17 22.9788 Q1750.43 22.9788 1754.25 28.7368 Q1758.1 34.466 1758.1 45.4034 Q1758.1 56.3119 1754.25 62.07 Q1750.43 67.7991 1743.17 67.7991 Q1735.91 67.7991 1732.06 62.07 Q1728.24 56.3119 1728.24 45.4034 Q1728.24 34.466 1732.06 28.7368 Q1735.91 22.9788 1743.17 22.9788 Z" fill="#000000" fill-rule="nonzero" fill-opacity="1" /><path clip-path="url(#clip740)" d="M1766.78 21.995 L1771.41 21.995 Q1775.75 28.8236 1777.89 35.3629 Q1780.06 41.9023 1780.06 48.3548 Q1780.06 54.8362 1777.89 61.4045 Q1775.75 67.9727 1771.41 74.7725 L1766.78 74.7725 Q1770.63 68.1463 1772.51 61.607 Q1774.42 55.0388 1774.42 48.3548 Q1774.42 41.6708 1772.51 35.1604 Q1770.63 28.65 1766.78 21.995 Z" fill="#000000" fill-rule="nonzero" fill-opacity="1" /><path clip-path="url(#clip740)" d="M1079.91 86.795 Q1076.03 93.45 1074.15 99.9604 Q1072.27 106.471 1072.27 113.155 Q1072.27 119.839 1074.15 126.407 Q1076.06 132.946 1079.91 139.572 L1075.28 139.572 Q1070.94 132.773 1068.77 126.204 Q1066.63 119.636 1066.63 113.155 Q1066.63 106.702 1068.77 100.163 Q1070.91 93.6236 1075.28 86.795 L1079.91 86.795 Z" fill="#000000" fill-rule="nonzero" fill-opacity="1" /><path clip-path="url(#clip740)" d="M1092 126.841 L1101.55 126.841 L1101.55 93.884 L1091.16 95.9674 L1091.16 90.6433 L1101.49 88.56 L1107.34 88.56 L1107.34 126.841 L1116.89 126.841 L1116.89 131.76 L1092 131.76 L1092 126.841 Z" fill="#000000" fill-rule="nonzero" fill-opacity="1" /><path clip-path="url(#clip740)" d="M1141.19 92.4084 Q1136.68 92.4084 1134.39 96.8644 Q1132.13 101.291 1132.13 110.203 Q1132.13 119.086 1134.39 123.542 Q1136.68 127.97 1141.19 127.97 Q1145.73 127.97 1147.99 123.542 Q1150.28 119.086 1150.28 110.203 Q1150.28 101.291 1147.99 96.8644 Q1145.73 92.4084 1141.19 92.4084 M1141.19 87.7788 Q1148.45 87.7788 1152.27 93.5368 Q1156.12 99.266 1156.12 110.203 Q1156.12 121.112 1152.27 126.87 Q1148.45 132.599 1141.19 132.599 Q1133.93 132.599 1130.08 126.87 Q1126.26 121.112 1126.26 110.203 Q1126.26 99.266 1130.08 93.5368 Q1133.93 87.7788 1141.19 87.7788 Z" fill="#000000" fill-rule="nonzero" fill-opacity="1" /><path clip-path="url(#clip740)" d="M1178.89 92.4084 Q1174.38 92.4084 1172.09 96.8644 Q1169.84 101.291 1169.84 110.203 Q1169.84 119.086 1172.09 123.542 Q1174.38 127.97 1178.89 127.97 Q1183.44 127.97 1185.69 123.542 Q1187.98 119.086 1187.98 110.203 Q1187.98 101.291 1185.69 96.8644 Q1183.44 92.4084 1178.89 92.4084 M1178.89 87.7788 Q1186.16 87.7788 1189.98 93.5368 Q1193.82 99.266 1193.82 110.203 Q1193.82 121.112 1189.98 126.87 Q1186.16 132.599 1178.89 132.599 Q1171.63 132.599 1167.78 126.87 Q1163.96 121.112 1163.96 110.203 Q1163.96 99.266 1167.78 93.5368 Q1171.63 87.7788 1178.89 87.7788 Z" fill="#000000" fill-rule="nonzero" fill-opacity="1" /><path clip-path="url(#clip740)" d="M1204.1 124.411 L1210.2 124.411 L1210.2 131.76 L1204.1 131.76 L1204.1 124.411 Z" fill="#000000" fill-rule="nonzero" fill-opacity="1" /><path clip-path="url(#clip740)" d="M1235.43 92.4084 Q1230.92 92.4084 1228.63 96.8644 Q1226.38 101.291 1226.38 110.203 Q1226.38 119.086 1228.63 123.542 Q1230.92 127.97 1235.43 127.97 Q1239.98 127.97 1242.23 123.542 Q1244.52 119.086 1244.52 110.203 Q1244.52 101.291 1242.23 96.8644 Q1239.98 92.4084 1235.43 92.4084 M1235.43 87.7788 Q1242.7 87.7788 1246.51 93.5368 Q1250.36 99.266 1250.36 110.203 Q1250.36 121.112 1246.51 126.87 Q1242.7 132.599 1235.43 132.599 Q1228.17 132.599 1224.32 126.87 Q1220.5 121.112 1220.5 110.203 Q1220.5 99.266 1224.32 93.5368 Q1228.17 87.7788 1235.43 87.7788 Z" fill="#000000" fill-rule="nonzero" fill-opacity="1" /><path clip-path="url(#clip740)" d="M1297.38 112.75 Q1294.86 112.75 1293.42 114.891 Q1292 117.032 1292 120.851 Q1292 124.613 1293.42 126.783 Q1294.86 128.924 1297.38 128.924 Q1299.84 128.924 1301.26 126.783 Q1302.71 124.613 1302.71 120.851 Q1302.71 117.061 1301.26 114.92 Q1299.84 112.75 1297.38 112.75 M1297.38 109.075 Q1301.95 109.075 1304.64 112.258 Q1307.34 115.441 1307.34 120.851 Q1307.34 126.262 1304.62 129.445 Q1301.93 132.599 1297.38 132.599 Q1292.75 132.599 1290.06 129.445 Q1287.37 126.262 1287.37 120.851 Q1287.37 115.412 1290.06 112.258 Q1292.78 109.075 1297.38 109.075 M1267.52 91.4535 Q1265.03 91.4535 1263.59 93.6236 Q1262.17 95.7648 1262.17 99.5264 Q1262.17 103.346 1263.59 105.487 Q1265 107.628 1267.52 107.628 Q1270.04 107.628 1271.46 105.487 Q1272.9 103.346 1272.9 99.5264 Q1272.9 95.7938 1271.46 93.6236 Q1270.01 91.4535 1267.52 91.4535 M1293.65 87.7788 L1298.28 87.7788 L1271.25 132.599 L1266.62 132.599 L1293.65 87.7788 M1267.52 87.7788 Q1272.09 87.7788 1274.81 90.9616 Q1277.53 94.1155 1277.53 99.5264 Q1277.53 104.995 1274.81 108.149 Q1272.12 111.303 1267.52 111.303 Q1262.92 111.303 1260.23 108.149 Q1257.57 104.966 1257.57 99.5264 Q1257.57 94.1445 1260.26 90.9616 Q1262.95 87.7788 1267.52 87.7788 Z" fill="#000000" fill-rule="nonzero" fill-opacity="1" /><path clip-path="url(#clip740)" d="M1335.03 99.3528 L1340.35 99.3528 L1340.35 131.76 L1335.03 131.76 L1335.03 99.3528 M1335.03 86.7371 L1340.35 86.7371 L1340.35 93.479 L1335.03 93.479 L1335.03 86.7371 Z" fill="#000000" fill-rule="nonzero" fill-opacity="1" /><path clip-path="url(#clip740)" d="M1378.43 112.2 L1378.43 131.76 L1373.11 131.76 L1373.11 112.374 Q1373.11 107.773 1371.31 105.487 Q1369.52 103.201 1365.93 103.201 Q1361.62 103.201 1359.13 105.95 Q1356.64 108.699 1356.64 113.444 L1356.64 131.76 L1351.29 131.76 L1351.29 99.3528 L1356.64 99.3528 L1356.64 104.387 Q1358.55 101.465 1361.13 100.018 Q1363.73 98.5715 1367.12 98.5715 Q1372.7 98.5715 1375.56 102.044 Q1378.43 105.487 1378.43 112.2 Z" fill="#000000" fill-rule="nonzero" fill-opacity="1" /><path clip-path="url(#clip740)" d="M1440.47 91.8875 L1440.47 98.0507 Q1437.51 95.3019 1434.16 93.9419 Q1430.83 92.582 1427.07 92.582 Q1419.66 92.582 1415.73 97.1248 Q1411.79 101.639 1411.79 110.203 Q1411.79 118.739 1415.73 123.282 Q1419.66 127.796 1427.07 127.796 Q1430.83 127.796 1434.16 126.436 Q1437.51 125.076 1440.47 122.327 L1440.47 128.432 Q1437.4 130.516 1433.96 131.557 Q1430.54 132.599 1426.72 132.599 Q1416.91 132.599 1411.27 126.61 Q1405.63 120.591 1405.63 110.203 Q1405.63 99.7868 1411.27 93.7972 Q1416.91 87.7788 1426.72 87.7788 Q1430.6 87.7788 1434.01 88.8204 Q1437.46 89.8331 1440.47 91.8875 Z" fill="#000000" fill-rule="nonzero" fill-opacity="1" /><path clip-path="url(#clip740)" d="M1449.49 88.56 L1455.34 88.56 L1455.34 131.76 L1449.49 131.76 L1449.49 88.56 Z" fill="#000000" fill-rule="nonzero" fill-opacity="1" /><path clip-path="url(#clip740)" d="M1465.9 86.795 L1470.53 86.795 Q1474.87 93.6236 1477.01 100.163 Q1479.18 106.702 1479.18 113.155 Q1479.18 119.636 1477.01 126.204 Q1474.87 132.773 1470.53 139.572 L1465.9 139.572 Q1469.75 132.946 1471.63 126.407 Q1473.54 119.839 1473.54 113.155 Q1473.54 106.471 1471.63 99.9604 Q1469.75 93.45 1465.9 86.795 Z" fill="#000000" fill-rule="nonzero" fill-opacity="1" /><path clip-path="url(#clip742)" d="M425.142 1416.58 L425.142 1423.18 L535.171 1423.18 L535.171 1416.58 L425.142 1416.58 L425.142 1416.58  Z" fill="#009af9" fill-rule="evenodd" fill-opacity="1"/>
<polyline clip-path="url(#clip742)" style="stroke:#000000; stroke-linecap:round; stroke-linejoin:round; stroke-width:4; stroke-opacity:1; fill:none" points="425.142,1416.58 425.142,1423.18 535.171,1423.18 535.171,1416.58 425.142,1416.58 "/>
<path clip-path="url(#clip742)" d="M535.171 1396.78 L535.171 1423.18 L645.2 1423.18 L645.2 1396.78 L535.171 1396.78 L535.171 1396.78  Z" fill="#009af9" fill-rule="evenodd" fill-opacity="1"/>
<polyline clip-path="url(#clip742)" style="stroke:#000000; stroke-linecap:round; stroke-linejoin:round; stroke-width:4; stroke-opacity:1; fill:none" points="535.171,1396.78 535.171,1423.18 645.2,1423.18 645.2,1396.78 535.171,1396.78 "/>
<path clip-path="url(#clip742)" d="M645.2 1291.18 L645.2 1423.18 L755.228 1423.18 L755.228 1291.18 L645.2 1291.18 L645.2 1291.18  Z" fill="#009af9" fill-rule="evenodd" fill-opacity="1"/>
<polyline clip-path="url(#clip742)" style="stroke:#000000; stroke-linecap:round; stroke-linejoin:round; stroke-width:4; stroke-opacity:1; fill:none" points="645.2,1291.18 645.2,1423.18 755.228,1423.18 755.228,1291.18 645.2,1291.18 "/>
<path clip-path="url(#clip742)" d="M755.228 1198.78 L755.228 1423.18 L865.257 1423.18 L865.257 1198.78 L755.228 1198.78 L755.228 1198.78  Z" fill="#009af9" fill-rule="evenodd" fill-opacity="1"/>
<polyline clip-path="url(#clip742)" style="stroke:#000000; stroke-linecap:round; stroke-linejoin:round; stroke-width:4; stroke-opacity:1; fill:none" points="755.228,1198.78 755.228,1423.18 865.257,1423.18 865.257,1198.78 755.228,1198.78 "/>
<path clip-path="url(#clip742)" d="M865.257 928.185 L865.257 1423.18 L975.285 1423.18 L975.285 928.185 L865.257 928.185 L865.257 928.185  Z" fill="#009af9" fill-rule="evenodd" fill-opacity="1"/>
<polyline clip-path="url(#clip742)" style="stroke:#000000; stroke-linecap:round; stroke-linejoin:round; stroke-width:4; stroke-opacity:1; fill:none" points="865.257,928.185 865.257,1423.18 975.285,1423.18 975.285,928.185 865.257,928.185 "/>
<path clip-path="url(#clip742)" d="M975.285 571.788 L975.285 1423.18 L1085.31 1423.18 L1085.31 571.788 L975.285 571.788 L975.285 571.788  Z" fill="#009af9" fill-rule="evenodd" fill-opacity="1"/>
<polyline clip-path="url(#clip742)" style="stroke:#000000; stroke-linecap:round; stroke-linejoin:round; stroke-width:4; stroke-opacity:1; fill:none" points="975.285,571.788 975.285,1423.18 1085.31,1423.18 1085.31,571.788 975.285,571.788 "/>
<path clip-path="url(#clip742)" d="M1085.31 327.59 L1085.31 1423.18 L1195.34 1423.18 L1195.34 327.59 L1085.31 327.59 L1085.31 327.59  Z" fill="#009af9" fill-rule="evenodd" fill-opacity="1"/>
<polyline clip-path="url(#clip742)" style="stroke:#000000; stroke-linecap:round; stroke-linejoin:round; stroke-width:4; stroke-opacity:1; fill:none" points="1085.31,327.59 1085.31,1423.18 1195.34,1423.18 1195.34,327.59 1085.31,327.59 "/>
<path clip-path="url(#clip742)" d="M1195.34 149.392 L1195.34 1423.18 L1305.37 1423.18 L1305.37 149.392 L1195.34 149.392 L1195.34 149.392  Z" fill="#009af9" fill-rule="evenodd" fill-opacity="1"/>
<polyline clip-path="url(#clip742)" style="stroke:#000000; stroke-linecap:round; stroke-linejoin:round; stroke-width:4; stroke-opacity:1; fill:none" points="1195.34,149.392 1195.34,1423.18 1305.37,1423.18 1305.37,149.392 1195.34,149.392 "/>
<path clip-path="url(#clip742)" d="M1305.37 373.79 L1305.37 1423.18 L1415.4 1423.18 L1415.4 373.79 L1305.37 373.79 L1305.37 373.79  Z" fill="#009af9" fill-rule="evenodd" fill-opacity="1"/>
<polyline clip-path="url(#clip742)" style="stroke:#000000; stroke-linecap:round; stroke-linejoin:round; stroke-width:4; stroke-opacity:1; fill:none" points="1305.37,373.79 1305.37,1423.18 1415.4,1423.18 1415.4,373.79 1305.37,373.79 "/>
<path clip-path="url(#clip742)" d="M1415.4 756.586 L1415.4 1423.18 L1525.43 1423.18 L1525.43 756.586 L1415.4 756.586 L1415.4 756.586  Z" fill="#009af9" fill-rule="evenodd" fill-opacity="1"/>
<polyline clip-path="url(#clip742)" style="stroke:#000000; stroke-linecap:round; stroke-linejoin:round; stroke-width:4; stroke-opacity:1; fill:none" points="1415.4,756.586 1415.4,1423.18 1525.43,1423.18 1525.43,756.586 1415.4,756.586 "/>
<path clip-path="url(#clip742)" d="M1525.43 941.384 L1525.43 1423.18 L1635.46 1423.18 L1635.46 941.384 L1525.43 941.384 L1525.43 941.384  Z" fill="#009af9" fill-rule="evenodd" fill-opacity="1"/>
<polyline clip-path="url(#clip742)" style="stroke:#000000; stroke-linecap:round; stroke-linejoin:round; stroke-width:4; stroke-opacity:1; fill:none" points="1525.43,941.384 1525.43,1423.18 1635.46,1423.18 1635.46,941.384 1525.43,941.384 "/>
<path clip-path="url(#clip742)" d="M1635.46 1218.58 L1635.46 1423.18 L1745.49 1423.18 L1745.49 1218.58 L1635.46 1218.58 L1635.46 1218.58  Z" fill="#009af9" fill-rule="evenodd" fill-opacity="1"/>
<polyline clip-path="url(#clip742)" style="stroke:#000000; stroke-linecap:round; stroke-linejoin:round; stroke-width:4; stroke-opacity:1; fill:none" points="1635.46,1218.58 1635.46,1423.18 1745.49,1423.18 1745.49,1218.58 1635.46,1218.58 "/>
<path clip-path="url(#clip742)" d="M1745.49 1363.78 L1745.49 1423.18 L1855.51 1423.18 L1855.51 1363.78 L1745.49 1363.78 L1745.49 1363.78  Z" fill="#009af9" fill-rule="evenodd" fill-opacity="1"/>
<polyline clip-path="url(#clip742)" style="stroke:#000000; stroke-linecap:round; stroke-linejoin:round; stroke-width:4; stroke-opacity:1; fill:none" points="1745.49,1363.78 1745.49,1423.18 1855.51,1423.18 1855.51,1363.78 1745.49,1363.78 "/>
<path clip-path="url(#clip742)" d="M1855.51 1396.78 L1855.51 1423.18 L1965.54 1423.18 L1965.54 1396.78 L1855.51 1396.78 L1855.51 1396.78  Z" fill="#009af9" fill-rule="evenodd" fill-opacity="1"/>
<polyline clip-path="url(#clip742)" style="stroke:#000000; stroke-linecap:round; stroke-linejoin:round; stroke-width:4; stroke-opacity:1; fill:none" points="1855.51,1396.78 1855.51,1423.18 1965.54,1423.18 1965.54,1396.78 1855.51,1396.78 "/>
<path clip-path="url(#clip742)" d="M1965.54 1416.58 L1965.54 1423.18 L2075.57 1423.18 L2075.57 1416.58 L1965.54 1416.58 L1965.54 1416.58  Z" fill="#009af9" fill-rule="evenodd" fill-opacity="1"/>
<polyline clip-path="url(#clip742)" style="stroke:#000000; stroke-linecap:round; stroke-linejoin:round; stroke-width:4; stroke-opacity:1; fill:none" points="1965.54,1416.58 1965.54,1423.18 2075.57,1423.18 2075.57,1416.58 1965.54,1416.58 "/>
<circle clip-path="url(#clip742)" style="fill:#009af9; stroke:none; fill-opacity:0" cx="480.157" cy="1416.58" r="2"/>
<circle clip-path="url(#clip742)" style="fill:#009af9; stroke:none; fill-opacity:0" cx="590.185" cy="1396.78" r="2"/>
<circle clip-path="url(#clip742)" style="fill:#009af9; stroke:none; fill-opacity:0" cx="700.214" cy="1291.18" r="2"/>
<circle clip-path="url(#clip742)" style="fill:#009af9; stroke:none; fill-opacity:0" cx="810.242" cy="1198.78" r="2"/>
<circle clip-path="url(#clip742)" style="fill:#009af9; stroke:none; fill-opacity:0" cx="920.271" cy="928.185" r="2"/>
<circle clip-path="url(#clip742)" style="fill:#009af9; stroke:none; fill-opacity:0" cx="1030.3" cy="571.788" r="2"/>
<circle clip-path="url(#clip742)" style="fill:#009af9; stroke:none; fill-opacity:0" cx="1140.33" cy="327.59" r="2"/>
<circle clip-path="url(#clip742)" style="fill:#009af9; stroke:none; fill-opacity:0" cx="1250.36" cy="149.392" r="2"/>
<circle clip-path="url(#clip742)" style="fill:#009af9; stroke:none; fill-opacity:0" cx="1360.39" cy="373.79" r="2"/>
<circle clip-path="url(#clip742)" style="fill:#009af9; stroke:none; fill-opacity:0" cx="1470.41" cy="756.586" r="2"/>
<circle clip-path="url(#clip742)" style="fill:#009af9; stroke:none; fill-opacity:0" cx="1580.44" cy="941.384" r="2"/>
<circle clip-path="url(#clip742)" style="fill:#009af9; stroke:none; fill-opacity:0" cx="1690.47" cy="1218.58" r="2"/>
<circle clip-path="url(#clip742)" style="fill:#009af9; stroke:none; fill-opacity:0" cx="1800.5" cy="1363.78" r="2"/>
<circle clip-path="url(#clip742)" style="fill:#009af9; stroke:none; fill-opacity:0" cx="1910.53" cy="1396.78" r="2"/>
<circle clip-path="url(#clip742)" style="fill:#009af9; stroke:none; fill-opacity:0" cx="2020.56" cy="1416.58" r="2"/>
<path clip-path="url(#clip742)" d="M1063.31 1409.98 L1063.31 1423.18 L1085.31 1423.18 L1085.31 1409.98 L1063.31 1409.98 L1063.31 1409.98  Z" fill="#e26f46" fill-rule="evenodd" fill-opacity="1"/>
<polyline clip-path="url(#clip742)" style="stroke:#000000; stroke-linecap:round; stroke-linejoin:round; stroke-width:4; stroke-opacity:1; fill:none" points="1063.31,1409.98 1063.31,1423.18 1085.31,1423.18 1085.31,1409.98 1063.31,1409.98 "/>
<path clip-path="url(#clip742)" d="M1085.31 1396.78 L1085.31 1423.18 L1107.32 1423.18 L1107.32 1396.78 L1085.31 1396.78 L1085.31 1396.78  Z" fill="#e26f46" fill-rule="evenodd" fill-opacity="1"/>
<polyline clip-path="url(#clip742)" style="stroke:#000000; stroke-linecap:round; stroke-linejoin:round; stroke-width:4; stroke-opacity:1; fill:none" points="1085.31,1396.78 1085.31,1423.18 1107.32,1423.18 1107.32,1396.78 1085.31,1396.78 "/>
<path clip-path="url(#clip742)" d="M1107.32 1330.78 L1107.32 1423.18 L1129.33 1423.18 L1129.33 1330.78 L1107.32 1330.78 L1107.32 1330.78  Z" fill="#e26f46" fill-rule="evenodd" fill-opacity="1"/>
<polyline clip-path="url(#clip742)" style="stroke:#000000; stroke-linecap:round; stroke-linejoin:round; stroke-width:4; stroke-opacity:1; fill:none" points="1107.32,1330.78 1107.32,1423.18 1129.33,1423.18 1129.33,1330.78 1107.32,1330.78 "/>
<path clip-path="url(#clip742)" d="M1129.33 1178.98 L1129.33 1423.18 L1151.33 1423.18 L1151.33 1178.98 L1129.33 1178.98 L1129.33 1178.98  Z" fill="#e26f46" fill-rule="evenodd" fill-opacity="1"/>
<polyline clip-path="url(#clip742)" style="stroke:#000000; stroke-linecap:round; stroke-linejoin:round; stroke-width:4; stroke-opacity:1; fill:none" points="1129.33,1178.98 1129.33,1423.18 1151.33,1423.18 1151.33,1178.98 1129.33,1178.98 "/>
<path clip-path="url(#clip742)" d="M1151.33 1027.18 L1151.33 1423.18 L1173.34 1423.18 L1173.34 1027.18 L1151.33 1027.18 L1151.33 1027.18  Z" fill="#e26f46" fill-rule="evenodd" fill-opacity="1"/>
<polyline clip-path="url(#clip742)" style="stroke:#000000; stroke-linecap:round; stroke-linejoin:round; stroke-width:4; stroke-opacity:1; fill:none" points="1151.33,1027.18 1151.33,1423.18 1173.34,1423.18 1173.34,1027.18 1151.33,1027.18 "/>
<path clip-path="url(#clip742)" d="M1173.34 730.187 L1173.34 1423.18 L1195.34 1423.18 L1195.34 730.187 L1173.34 730.187 L1173.34 730.187  Z" fill="#e26f46" fill-rule="evenodd" fill-opacity="1"/>
<polyline clip-path="url(#clip742)" style="stroke:#000000; stroke-linecap:round; stroke-linejoin:round; stroke-width:4; stroke-opacity:1; fill:none" points="1173.34,730.187 1173.34,1423.18 1195.34,1423.18 1195.34,730.187 1173.34,730.187 "/>
<path clip-path="url(#clip742)" d="M1195.34 459.589 L1195.34 1423.18 L1217.35 1423.18 L1217.35 459.589 L1195.34 459.589 L1195.34 459.589  Z" fill="#e26f46" fill-rule="evenodd" fill-opacity="1"/>
<polyline clip-path="url(#clip742)" style="stroke:#000000; stroke-linecap:round; stroke-linejoin:round; stroke-width:4; stroke-opacity:1; fill:none" points="1195.34,459.589 1195.34,1423.18 1217.35,1423.18 1217.35,459.589 1195.34,459.589 "/>
<path clip-path="url(#clip742)" d="M1217.35 261.591 L1217.35 1423.18 L1239.35 1423.18 L1239.35 261.591 L1217.35 261.591 L1217.35 261.591  Z" fill="#e26f46" fill-rule="evenodd" fill-opacity="1"/>
<polyline clip-path="url(#clip742)" style="stroke:#000000; stroke-linecap:round; stroke-linejoin:round; stroke-width:4; stroke-opacity:1; fill:none" points="1217.35,261.591 1217.35,1423.18 1239.35,1423.18 1239.35,261.591 1217.35,261.591 "/>
<path clip-path="url(#clip742)" d="M1239.35 353.99 L1239.35 1423.18 L1261.36 1423.18 L1261.36 353.99 L1239.35 353.99 L1239.35 353.99  Z" fill="#e26f46" fill-rule="evenodd" fill-opacity="1"/>
<polyline clip-path="url(#clip742)" style="stroke:#000000; stroke-linecap:round; stroke-linejoin:round; stroke-width:4; stroke-opacity:1; fill:none" points="1239.35,353.99 1239.35,1423.18 1261.36,1423.18 1261.36,353.99 1239.35,353.99 "/>
<path clip-path="url(#clip742)" d="M1261.36 637.787 L1261.36 1423.18 L1283.37 1423.18 L1283.37 637.787 L1261.36 637.787 L1261.36 637.787  Z" fill="#e26f46" fill-rule="evenodd" fill-opacity="1"/>
<polyline clip-path="url(#clip742)" style="stroke:#000000; stroke-linecap:round; stroke-linejoin:round; stroke-width:4; stroke-opacity:1; fill:none" points="1261.36,637.787 1261.36,1423.18 1283.37,1423.18 1283.37,637.787 1261.36,637.787 "/>
<path clip-path="url(#clip742)" d="M1283.37 881.985 L1283.37 1423.18 L1305.37 1423.18 L1305.37 881.985 L1283.37 881.985 L1283.37 881.985  Z" fill="#e26f46" fill-rule="evenodd" fill-opacity="1"/>
<polyline clip-path="url(#clip742)" style="stroke:#000000; stroke-linecap:round; stroke-linejoin:round; stroke-width:4; stroke-opacity:1; fill:none" points="1283.37,881.985 1283.37,1423.18 1305.37,1423.18 1305.37,881.985 1283.37,881.985 "/>
<path clip-path="url(#clip742)" d="M1305.37 1007.38 L1305.37 1423.18 L1327.38 1423.18 L1327.38 1007.38 L1305.37 1007.38 L1305.37 1007.38  Z" fill="#e26f46" fill-rule="evenodd" fill-opacity="1"/>
<polyline clip-path="url(#clip742)" style="stroke:#000000; stroke-linecap:round; stroke-linejoin:round; stroke-width:4; stroke-opacity:1; fill:none" points="1305.37,1007.38 1305.37,1423.18 1327.38,1423.18 1327.38,1007.38 1305.37,1007.38 "/>
<path clip-path="url(#clip742)" d="M1327.38 1330.78 L1327.38 1423.18 L1349.38 1423.18 L1349.38 1330.78 L1327.38 1330.78 L1327.38 1330.78  Z" fill="#e26f46" fill-rule="evenodd" fill-opacity="1"/>
<polyline clip-path="url(#clip742)" style="stroke:#000000; stroke-linecap:round; stroke-linejoin:round; stroke-width:4; stroke-opacity:1; fill:none" points="1327.38,1330.78 1327.38,1423.18 1349.38,1423.18 1349.38,1330.78 1327.38,1330.78 "/>
<path clip-path="url(#clip742)" d="M1349.38 1343.98 L1349.38 1423.18 L1371.39 1423.18 L1371.39 1343.98 L1349.38 1343.98 L1349.38 1343.98  Z" fill="#e26f46" fill-rule="evenodd" fill-opacity="1"/>
<polyline clip-path="url(#clip742)" style="stroke:#000000; stroke-linecap:round; stroke-linejoin:round; stroke-width:4; stroke-opacity:1; fill:none" points="1349.38,1343.98 1349.38,1423.18 1371.39,1423.18 1371.39,1343.98 1349.38,1343.98 "/>
<path clip-path="url(#clip742)" d="M1371.39 1403.38 L1371.39 1423.18 L1393.39 1423.18 L1393.39 1403.38 L1371.39 1403.38 L1371.39 1403.38  Z" fill="#e26f46" fill-rule="evenodd" fill-opacity="1"/>
<polyline clip-path="url(#clip742)" style="stroke:#000000; stroke-linecap:round; stroke-linejoin:round; stroke-width:4; stroke-opacity:1; fill:none" points="1371.39,1403.38 1371.39,1423.18 1393.39,1423.18 1393.39,1403.38 1371.39,1403.38 "/>
<path clip-path="url(#clip742)" d="M1393.39 1416.58 L1393.39 1423.18 L1415.4 1423.18 L1415.4 1416.58 L1393.39 1416.58 L1393.39 1416.58  Z" fill="#e26f46" fill-rule="evenodd" fill-opacity="1"/>
<polyline clip-path="url(#clip742)" style="stroke:#000000; stroke-linecap:round; stroke-linejoin:round; stroke-width:4; stroke-opacity:1; fill:none" points="1393.39,1416.58 1393.39,1423.18 1415.4,1423.18 1415.4,1416.58 1393.39,1416.58 "/>
<circle clip-path="url(#clip742)" style="fill:#e26f46; stroke:none; fill-opacity:0" cx="1074.31" cy="1409.98" r="2"/>
<circle clip-path="url(#clip742)" style="fill:#e26f46; stroke:none; fill-opacity:0" cx="1096.32" cy="1396.78" r="2"/>
<circle clip-path="url(#clip742)" style="fill:#e26f46; stroke:none; fill-opacity:0" cx="1118.32" cy="1330.78" r="2"/>
<circle clip-path="url(#clip742)" style="fill:#e26f46; stroke:none; fill-opacity:0" cx="1140.33" cy="1178.98" r="2"/>
<circle clip-path="url(#clip742)" style="fill:#e26f46; stroke:none; fill-opacity:0" cx="1162.33" cy="1027.18" r="2"/>
<circle clip-path="url(#clip742)" style="fill:#e26f46; stroke:none; fill-opacity:0" cx="1184.34" cy="730.187" r="2"/>
<circle clip-path="url(#clip742)" style="fill:#e26f46; stroke:none; fill-opacity:0" cx="1206.35" cy="459.589" r="2"/>
<circle clip-path="url(#clip742)" style="fill:#e26f46; stroke:none; fill-opacity:0" cx="1228.35" cy="261.591" r="2"/>
<circle clip-path="url(#clip742)" style="fill:#e26f46; stroke:none; fill-opacity:0" cx="1250.36" cy="353.99" r="2"/>
<circle clip-path="url(#clip742)" style="fill:#e26f46; stroke:none; fill-opacity:0" cx="1272.36" cy="637.787" r="2"/>
<circle clip-path="url(#clip742)" style="fill:#e26f46; stroke:none; fill-opacity:0" cx="1294.37" cy="881.985" r="2"/>
<circle clip-path="url(#clip742)" style="fill:#e26f46; stroke:none; fill-opacity:0" cx="1316.37" cy="1007.38" r="2"/>
<circle clip-path="url(#clip742)" style="fill:#e26f46; stroke:none; fill-opacity:0" cx="1338.38" cy="1330.78" r="2"/>
<circle clip-path="url(#clip742)" style="fill:#e26f46; stroke:none; fill-opacity:0" cx="1360.39" cy="1343.98" r="2"/>
<circle clip-path="url(#clip742)" style="fill:#e26f46; stroke:none; fill-opacity:0" cx="1382.39" cy="1403.38" r="2"/>
<circle clip-path="url(#clip742)" style="fill:#e26f46; stroke:none; fill-opacity:0" cx="1404.4" cy="1416.58" r="2"/>
<polyline clip-path="url(#clip742)" style="stroke:#3da44d; stroke-linecap:round; stroke-linejoin:round; stroke-width:16; stroke-opacity:1; fill:none" points="1234.65,2696.97 1234.65,-1124.4 "/>
<polyline clip-path="url(#clip742)" style="stroke:#c271d2; stroke-linecap:round; stroke-linejoin:round; stroke-width:4; stroke-opacity:1; fill:none" points="230.922,2696.97 230.922,-1124.4 "/>
<polyline clip-path="url(#clip742)" style="stroke:#c271d2; stroke-linecap:round; stroke-linejoin:round; stroke-width:4; stroke-opacity:1; fill:none" points="2290.95,2696.97 2290.95,-1124.4 "/>
<polyline clip-path="url(#clip742)" style="stroke:#ac8d18; stroke-linecap:round; stroke-linejoin:round; stroke-width:4; stroke-opacity:1; fill:none" points="1255.05,2696.97 1255.05,-1124.4 "/>
<path clip-path="url(#clip740)" d="M1435.31 502.892 L2279.97 502.892 L2279.97 191.852 L1435.31 191.852  Z" fill="#ffffff" fill-rule="evenodd" fill-opacity="1"/>
<polyline clip-path="url(#clip740)" style="stroke:#000000; stroke-linecap:round; stroke-linejoin:round; stroke-width:4; stroke-opacity:1; fill:none" points="1435.31,502.892 2279.97,502.892 2279.97,191.852 1435.31,191.852 1435.31,502.892 "/>
<path clip-path="url(#clip740)" d="M1459.57 264.428 L1605.15 264.428 L1605.15 222.956 L1459.57 222.956 L1459.57 264.428  Z" fill="#009af9" fill-rule="evenodd" fill-opacity="1"/>
<polyline clip-path="url(#clip740)" style="stroke:#000000; stroke-linecap:round; stroke-linejoin:round; stroke-width:4; stroke-opacity:1; fill:none" points="1459.57,264.428 1605.15,264.428 1605.15,222.956 1459.57,222.956 1459.57,264.428 "/>
<path clip-path="url(#clip740)" d="M1633.69 257.083 L1633.69 270.833 L1629.41 270.833 L1629.41 235.046 L1633.69 235.046 L1633.69 238.981 Q1635.04 236.666 1637.07 235.555 Q1639.13 234.421 1641.98 234.421 Q1646.7 234.421 1649.64 238.171 Q1652.61 241.921 1652.61 248.032 Q1652.61 254.143 1649.64 257.893 Q1646.7 261.643 1641.98 261.643 Q1639.13 261.643 1637.07 260.532 Q1635.04 259.398 1633.69 257.083 M1648.19 248.032 Q1648.19 243.333 1646.24 240.671 Q1644.32 237.986 1640.94 237.986 Q1637.56 237.986 1635.62 240.671 Q1633.69 243.333 1633.69 248.032 Q1633.69 252.731 1635.62 255.416 Q1637.56 258.078 1640.94 258.078 Q1644.32 258.078 1646.24 255.416 Q1648.19 252.731 1648.19 248.032 Z" fill="#000000" fill-rule="nonzero" fill-opacity="1" /><path clip-path="url(#clip740)" d="M1691.8 238.981 L1691.8 224.953 L1696.06 224.953 L1696.06 260.972 L1691.8 260.972 L1691.8 257.083 Q1690.45 259.398 1688.39 260.532 Q1686.36 261.643 1683.49 261.643 Q1678.79 261.643 1675.82 257.893 Q1672.88 254.143 1672.88 248.032 Q1672.88 241.921 1675.82 238.171 Q1678.79 234.421 1683.49 234.421 Q1686.36 234.421 1688.39 235.555 Q1690.45 236.666 1691.8 238.981 M1677.28 248.032 Q1677.28 252.731 1679.2 255.416 Q1681.15 258.078 1684.53 258.078 Q1687.91 258.078 1689.85 255.416 Q1691.8 252.731 1691.8 248.032 Q1691.8 243.333 1689.85 240.671 Q1687.91 237.986 1684.53 237.986 Q1681.15 237.986 1679.2 240.671 Q1677.28 243.333 1677.28 248.032 Z" fill="#000000" fill-rule="nonzero" fill-opacity="1" /><path clip-path="url(#clip740)" d="M1727 246.944 L1727 249.027 L1707.42 249.027 Q1707.7 253.425 1710.06 255.74 Q1712.44 258.032 1716.68 258.032 Q1719.13 258.032 1721.43 257.43 Q1723.74 256.828 1726.01 255.625 L1726.01 259.652 Q1723.72 260.624 1721.31 261.134 Q1718.9 261.643 1716.43 261.643 Q1710.22 261.643 1706.59 258.032 Q1702.98 254.421 1702.98 248.263 Q1702.98 241.898 1706.4 238.171 Q1709.85 234.421 1715.69 234.421 Q1720.92 234.421 1723.95 237.801 Q1727 241.157 1727 246.944 M1722.75 245.694 Q1722.7 242.199 1720.78 240.115 Q1718.88 238.032 1715.73 238.032 Q1712.17 238.032 1710.01 240.046 Q1707.88 242.06 1707.56 245.717 L1722.75 245.694 Z" fill="#000000" fill-rule="nonzero" fill-opacity="1" /><path clip-path="url(#clip740)" d="M1745.78 247.939 Q1740.62 247.939 1738.62 249.12 Q1736.63 250.3 1736.63 253.148 Q1736.63 255.416 1738.12 256.759 Q1739.62 258.078 1742.19 258.078 Q1745.73 258.078 1747.86 255.578 Q1750.01 253.055 1750.01 248.888 L1750.01 247.939 L1745.78 247.939 M1754.27 246.18 L1754.27 260.972 L1750.01 260.972 L1750.01 257.037 Q1748.56 259.398 1746.38 260.532 Q1744.2 261.643 1741.06 261.643 Q1737.07 261.643 1734.71 259.421 Q1732.37 257.175 1732.37 253.425 Q1732.37 249.05 1735.29 246.828 Q1738.23 244.606 1744.04 244.606 L1750.01 244.606 L1750.01 244.189 Q1750.01 241.25 1748.07 239.652 Q1746.15 238.032 1742.65 238.032 Q1740.43 238.032 1738.32 238.564 Q1736.22 239.097 1734.27 240.162 L1734.27 236.226 Q1736.61 235.324 1738.81 234.884 Q1741.01 234.421 1743.09 234.421 Q1748.72 234.421 1751.5 237.338 Q1754.27 240.254 1754.27 246.18 Z" fill="#000000" fill-rule="nonzero" fill-opacity="1" /><path clip-path="url(#clip740)" d="M1763.05 224.953 L1767.31 224.953 L1767.31 260.972 L1763.05 260.972 L1763.05 224.953 Z" fill="#000000" fill-rule="nonzero" fill-opacity="1" /><path clip-path="url(#clip740)" d="M1776.22 235.046 L1780.48 235.046 L1780.48 260.972 L1776.22 260.972 L1776.22 235.046 M1776.22 224.953 L1780.48 224.953 L1780.48 230.347 L1776.22 230.347 L1776.22 224.953 Z" fill="#000000" fill-rule="nonzero" fill-opacity="1" /><path clip-path="url(#clip740)" d="M1806.45 247.708 Q1806.45 243.078 1804.53 240.532 Q1802.63 237.986 1799.18 237.986 Q1795.75 237.986 1793.83 240.532 Q1791.93 243.078 1791.93 247.708 Q1791.93 252.314 1793.83 254.861 Q1795.75 257.407 1799.18 257.407 Q1802.63 257.407 1804.53 254.861 Q1806.45 252.314 1806.45 247.708 M1810.71 257.754 Q1810.71 264.374 1807.77 267.592 Q1804.83 270.833 1798.76 270.833 Q1796.52 270.833 1794.53 270.486 Q1792.54 270.161 1790.66 269.467 L1790.66 265.324 Q1792.54 266.342 1794.37 266.828 Q1796.19 267.314 1798.09 267.314 Q1802.28 267.314 1804.37 265.115 Q1806.45 262.939 1806.45 258.518 L1806.45 256.412 Q1805.13 258.703 1803.07 259.837 Q1801.01 260.972 1798.14 260.972 Q1793.37 260.972 1790.45 257.337 Q1787.54 253.703 1787.54 247.708 Q1787.54 241.689 1790.45 238.055 Q1793.37 234.421 1798.14 234.421 Q1801.01 234.421 1803.07 235.555 Q1805.13 236.689 1806.45 238.981 L1806.45 235.046 L1810.71 235.046 L1810.71 257.754 Z" fill="#000000" fill-rule="nonzero" fill-opacity="1" /><path clip-path="url(#clip740)" d="M1841.03 245.324 L1841.03 260.972 L1836.77 260.972 L1836.77 245.463 Q1836.77 241.782 1835.34 239.953 Q1833.9 238.125 1831.03 238.125 Q1827.58 238.125 1825.59 240.324 Q1823.6 242.523 1823.6 246.319 L1823.6 260.972 L1819.32 260.972 L1819.32 235.046 L1823.6 235.046 L1823.6 239.074 Q1825.13 236.736 1827.19 235.578 Q1829.27 234.421 1831.98 234.421 Q1836.45 234.421 1838.74 237.199 Q1841.03 239.953 1841.03 245.324 Z" fill="#000000" fill-rule="nonzero" fill-opacity="1" /><path clip-path="url(#clip740)" d="M1871.7 246.944 L1871.7 249.027 L1852.12 249.027 Q1852.4 253.425 1854.76 255.74 Q1857.14 258.032 1861.38 258.032 Q1863.83 258.032 1866.12 257.43 Q1868.44 256.828 1870.71 255.625 L1870.71 259.652 Q1868.42 260.624 1866.01 261.134 Q1863.6 261.643 1861.12 261.643 Q1854.92 261.643 1851.29 258.032 Q1847.68 254.421 1847.68 248.263 Q1847.68 241.898 1851.1 238.171 Q1854.55 234.421 1860.38 234.421 Q1865.61 234.421 1868.65 237.801 Q1871.7 241.157 1871.7 246.944 M1867.44 245.694 Q1867.4 242.199 1865.48 240.115 Q1863.58 238.032 1860.43 238.032 Q1856.87 238.032 1854.71 240.046 Q1852.58 242.06 1852.26 245.717 L1867.44 245.694 Z" fill="#000000" fill-rule="nonzero" fill-opacity="1" /><path clip-path="url(#clip740)" d="M1895.75 238.981 L1895.75 224.953 L1900.01 224.953 L1900.01 260.972 L1895.75 260.972 L1895.75 257.083 Q1894.41 259.398 1892.35 260.532 Q1890.31 261.643 1887.44 261.643 Q1882.74 261.643 1879.78 257.893 Q1876.84 254.143 1876.84 248.032 Q1876.84 241.921 1879.78 238.171 Q1882.74 234.421 1887.44 234.421 Q1890.31 234.421 1892.35 235.555 Q1894.41 236.666 1895.75 238.981 M1881.24 248.032 Q1881.24 252.731 1883.16 255.416 Q1885.11 258.078 1888.49 258.078 Q1891.86 258.078 1893.81 255.416 Q1895.75 252.731 1895.75 248.032 Q1895.75 243.333 1893.81 240.671 Q1891.86 237.986 1888.49 237.986 Q1885.11 237.986 1883.16 240.671 Q1881.24 243.333 1881.24 248.032 Z" fill="#000000" fill-rule="nonzero" fill-opacity="1" /><path clip-path="url(#clip740)" d="M1459.57 316.268 L1605.15 316.268 L1605.15 274.796 L1459.57 274.796 L1459.57 316.268  Z" fill="#e26f46" fill-rule="evenodd" fill-opacity="1"/>
<polyline clip-path="url(#clip740)" style="stroke:#000000; stroke-linecap:round; stroke-linejoin:round; stroke-width:4; stroke-opacity:1; fill:none" points="1459.57,316.268 1605.15,316.268 1605.15,274.796 1459.57,274.796 1459.57,316.268 "/>
<path clip-path="url(#clip740)" d="M1633.69 308.923 L1633.69 322.673 L1629.41 322.673 L1629.41 286.886 L1633.69 286.886 L1633.69 290.821 Q1635.04 288.506 1637.07 287.395 Q1639.13 286.261 1641.98 286.261 Q1646.7 286.261 1649.64 290.011 Q1652.61 293.761 1652.61 299.872 Q1652.61 305.983 1649.64 309.733 Q1646.7 313.483 1641.98 313.483 Q1639.13 313.483 1637.07 312.372 Q1635.04 311.238 1633.69 308.923 M1648.19 299.872 Q1648.19 295.173 1646.24 292.511 Q1644.32 289.826 1640.94 289.826 Q1637.56 289.826 1635.62 292.511 Q1633.69 295.173 1633.69 299.872 Q1633.69 304.571 1635.62 307.256 Q1637.56 309.918 1640.94 309.918 Q1644.32 309.918 1646.24 307.256 Q1648.19 304.571 1648.19 299.872 Z" fill="#000000" fill-rule="nonzero" fill-opacity="1" /><polyline clip-path="url(#clip740)" style="stroke:#3da44d; stroke-linecap:round; stroke-linejoin:round; stroke-width:16; stroke-opacity:1; fill:none" points="1459.57,347.372 1605.15,347.372 "/>
<path clip-path="url(#clip740)" d="M1633.69 360.763 L1633.69 374.513 L1629.41 374.513 L1629.41 338.726 L1633.69 338.726 L1633.69 342.661 Q1635.04 340.346 1637.07 339.235 Q1639.13 338.101 1641.98 338.101 Q1646.7 338.101 1649.64 341.851 Q1652.61 345.601 1652.61 351.712 Q1652.61 357.823 1649.64 361.573 Q1646.7 365.323 1641.98 365.323 Q1639.13 365.323 1637.07 364.212 Q1635.04 363.078 1633.69 360.763 M1648.19 351.712 Q1648.19 347.013 1646.24 344.351 Q1644.32 341.666 1640.94 341.666 Q1637.56 341.666 1635.62 344.351 Q1633.69 347.013 1633.69 351.712 Q1633.69 356.411 1635.62 359.096 Q1637.56 361.758 1640.94 361.758 Q1644.32 361.758 1646.24 359.096 Q1648.19 356.411 1648.19 351.712 Z" fill="#000000" fill-rule="nonzero" fill-opacity="1" /><path clip-path="url(#clip740)" d="M1694.92 343.703 Q1696.52 340.832 1698.74 339.467 Q1700.96 338.101 1703.97 338.101 Q1708.02 338.101 1710.22 340.948 Q1712.42 343.772 1712.42 349.004 L1712.42 364.652 L1708.14 364.652 L1708.14 349.143 Q1708.14 345.416 1706.82 343.61 Q1705.5 341.805 1702.79 341.805 Q1699.48 341.805 1697.56 344.004 Q1695.64 346.203 1695.64 349.999 L1695.64 364.652 L1691.36 364.652 L1691.36 349.143 Q1691.36 345.393 1690.04 343.61 Q1688.72 341.805 1685.96 341.805 Q1682.7 341.805 1680.78 344.027 Q1678.86 346.226 1678.86 349.999 L1678.86 364.652 L1674.57 364.652 L1674.57 338.726 L1678.86 338.726 L1678.86 342.754 Q1680.32 340.369 1682.35 339.235 Q1684.39 338.101 1687.19 338.101 Q1690.01 338.101 1691.98 339.536 Q1693.97 340.971 1694.92 343.703 Z" fill="#000000" fill-rule="nonzero" fill-opacity="1" /><path clip-path="url(#clip740)" d="M1743.09 350.624 L1743.09 352.707 L1723.51 352.707 Q1723.79 357.105 1726.15 359.42 Q1728.53 361.712 1732.77 361.712 Q1735.22 361.712 1737.51 361.11 Q1739.83 360.508 1742.1 359.305 L1742.1 363.332 Q1739.81 364.304 1737.4 364.814 Q1734.99 365.323 1732.51 365.323 Q1726.31 365.323 1722.68 361.712 Q1719.06 358.101 1719.06 351.943 Q1719.06 345.578 1722.49 341.851 Q1725.94 338.101 1731.77 338.101 Q1737 338.101 1740.04 341.481 Q1743.09 344.837 1743.09 350.624 M1738.83 349.374 Q1738.79 345.879 1736.87 343.795 Q1734.97 341.712 1731.82 341.712 Q1728.25 341.712 1726.1 343.726 Q1723.97 345.74 1723.65 349.397 L1738.83 349.374 Z" fill="#000000" fill-rule="nonzero" fill-opacity="1" /><path clip-path="url(#clip740)" d="M1761.87 351.619 Q1756.7 351.619 1754.71 352.8 Q1752.72 353.98 1752.72 356.828 Q1752.72 359.096 1754.2 360.439 Q1755.71 361.758 1758.28 361.758 Q1761.82 361.758 1763.95 359.258 Q1766.1 356.735 1766.1 352.568 L1766.1 351.619 L1761.87 351.619 M1770.36 349.86 L1770.36 364.652 L1766.1 364.652 L1766.1 360.717 Q1764.64 363.078 1762.47 364.212 Q1760.29 365.323 1757.14 365.323 Q1753.16 365.323 1750.8 363.101 Q1748.46 360.855 1748.46 357.105 Q1748.46 352.73 1751.38 350.508 Q1754.32 348.286 1760.13 348.286 L1766.1 348.286 L1766.1 347.869 Q1766.1 344.93 1764.16 343.332 Q1762.24 341.712 1758.74 341.712 Q1756.52 341.712 1754.41 342.244 Q1752.31 342.777 1750.36 343.842 L1750.36 339.906 Q1752.7 339.004 1754.9 338.564 Q1757.1 338.101 1759.18 338.101 Q1764.81 338.101 1767.58 341.018 Q1770.36 343.934 1770.36 349.86 Z" fill="#000000" fill-rule="nonzero" fill-opacity="1" /><path clip-path="url(#clip740)" d="M1800.68 349.004 L1800.68 364.652 L1796.43 364.652 L1796.43 349.143 Q1796.43 345.462 1794.99 343.633 Q1793.56 341.805 1790.68 341.805 Q1787.24 341.805 1785.25 344.004 Q1783.25 346.203 1783.25 349.999 L1783.25 364.652 L1778.97 364.652 L1778.97 338.726 L1783.25 338.726 L1783.25 342.754 Q1784.78 340.416 1786.84 339.258 Q1788.93 338.101 1791.63 338.101 Q1796.1 338.101 1798.39 340.879 Q1800.68 343.633 1800.68 349.004 Z" fill="#000000" fill-rule="nonzero" fill-opacity="1" /><polyline clip-path="url(#clip740)" style="stroke:#c271d2; stroke-linecap:round; stroke-linejoin:round; stroke-width:4; stroke-opacity:1; fill:none" points="1459.57,399.212 1605.15,399.212 "/>
<path clip-path="url(#clip740)" d="M1647.84 391.33 L1647.84 395.358 Q1646.03 394.432 1644.09 393.969 Q1642.14 393.506 1640.06 393.506 Q1636.89 393.506 1635.29 394.478 Q1633.72 395.45 1633.72 397.395 Q1633.72 398.876 1634.85 399.733 Q1635.99 400.566 1639.41 401.33 L1640.87 401.654 Q1645.41 402.626 1647.31 404.408 Q1649.23 406.168 1649.23 409.339 Q1649.23 412.95 1646.36 415.057 Q1643.51 417.163 1638.51 417.163 Q1636.43 417.163 1634.16 416.746 Q1631.91 416.353 1629.41 415.543 L1629.41 411.145 Q1631.77 412.371 1634.07 412.996 Q1636.36 413.598 1638.6 413.598 Q1641.61 413.598 1643.23 412.58 Q1644.85 411.538 1644.85 409.663 Q1644.85 407.927 1643.67 407.001 Q1642.51 406.075 1638.56 405.219 L1637.07 404.871 Q1633.12 404.038 1631.36 402.325 Q1629.6 400.589 1629.6 397.58 Q1629.6 393.922 1632.19 391.932 Q1634.78 389.941 1639.55 389.941 Q1641.91 389.941 1644 390.288 Q1646.08 390.635 1647.84 391.33 Z" fill="#000000" fill-rule="nonzero" fill-opacity="1" /><path clip-path="url(#clip740)" d="M1667.79 403.459 Q1662.63 403.459 1660.64 404.64 Q1658.65 405.82 1658.65 408.668 Q1658.65 410.936 1660.13 412.279 Q1661.63 413.598 1664.2 413.598 Q1667.75 413.598 1669.88 411.098 Q1672.03 408.575 1672.03 404.408 L1672.03 403.459 L1667.79 403.459 M1676.29 401.7 L1676.29 416.492 L1672.03 416.492 L1672.03 412.557 Q1670.57 414.918 1668.39 416.052 Q1666.22 417.163 1663.07 417.163 Q1659.09 417.163 1656.73 414.941 Q1654.39 412.695 1654.39 408.945 Q1654.39 404.57 1657.31 402.348 Q1660.25 400.126 1666.06 400.126 L1672.03 400.126 L1672.03 399.709 Q1672.03 396.77 1670.08 395.172 Q1668.16 393.552 1664.67 393.552 Q1662.44 393.552 1660.34 394.084 Q1658.23 394.617 1656.29 395.682 L1656.29 391.746 Q1658.63 390.844 1660.82 390.404 Q1663.02 389.941 1665.11 389.941 Q1670.73 389.941 1673.51 392.858 Q1676.29 395.774 1676.29 401.7 Z" fill="#000000" fill-rule="nonzero" fill-opacity="1" /><path clip-path="url(#clip740)" d="M1705.25 395.543 Q1706.84 392.672 1709.06 391.307 Q1711.29 389.941 1714.3 389.941 Q1718.35 389.941 1720.55 392.788 Q1722.75 395.612 1722.75 400.844 L1722.75 416.492 L1718.46 416.492 L1718.46 400.983 Q1718.46 397.256 1717.14 395.45 Q1715.82 393.645 1713.12 393.645 Q1709.81 393.645 1707.88 395.844 Q1705.96 398.043 1705.96 401.839 L1705.96 416.492 L1701.68 416.492 L1701.68 400.983 Q1701.68 397.233 1700.36 395.45 Q1699.04 393.645 1696.29 393.645 Q1693.02 393.645 1691.1 395.867 Q1689.18 398.066 1689.18 401.839 L1689.18 416.492 L1684.9 416.492 L1684.9 390.566 L1689.18 390.566 L1689.18 394.594 Q1690.64 392.209 1692.68 391.075 Q1694.71 389.941 1697.51 389.941 Q1700.34 389.941 1702.31 391.376 Q1704.3 392.811 1705.25 395.543 Z" fill="#000000" fill-rule="nonzero" fill-opacity="1" /><path clip-path="url(#clip740)" d="M1735.36 412.603 L1735.36 426.353 L1731.08 426.353 L1731.08 390.566 L1735.36 390.566 L1735.36 394.501 Q1736.7 392.186 1738.74 391.075 Q1740.8 389.941 1743.65 389.941 Q1748.37 389.941 1751.31 393.691 Q1754.27 397.441 1754.27 403.552 Q1754.27 409.663 1751.31 413.413 Q1748.37 417.163 1743.65 417.163 Q1740.8 417.163 1738.74 416.052 Q1736.7 414.918 1735.36 412.603 M1749.85 403.552 Q1749.85 398.853 1747.91 396.191 Q1745.99 393.506 1742.61 393.506 Q1739.23 393.506 1737.28 396.191 Q1735.36 398.853 1735.36 403.552 Q1735.36 408.251 1737.28 410.936 Q1739.23 413.598 1742.61 413.598 Q1745.99 413.598 1747.91 410.936 Q1749.85 408.251 1749.85 403.552 Z" fill="#000000" fill-rule="nonzero" fill-opacity="1" /><path clip-path="url(#clip740)" d="M1761.33 380.473 L1765.59 380.473 L1765.59 416.492 L1761.33 416.492 L1761.33 380.473 Z" fill="#000000" fill-rule="nonzero" fill-opacity="1" /><path clip-path="url(#clip740)" d="M1796.68 402.464 L1796.68 404.547 L1777.1 404.547 Q1777.37 408.945 1779.74 411.26 Q1782.12 413.552 1786.36 413.552 Q1788.81 413.552 1791.1 412.95 Q1793.42 412.348 1795.68 411.145 L1795.68 415.172 Q1793.39 416.144 1790.99 416.654 Q1788.58 417.163 1786.1 417.163 Q1779.9 417.163 1776.26 413.552 Q1772.65 409.941 1772.65 403.783 Q1772.65 397.418 1776.08 393.691 Q1779.53 389.941 1785.36 389.941 Q1790.59 389.941 1793.62 393.321 Q1796.68 396.677 1796.68 402.464 M1792.42 401.214 Q1792.37 397.719 1790.45 395.635 Q1788.56 393.552 1785.41 393.552 Q1781.84 393.552 1779.69 395.566 Q1777.56 397.58 1777.24 401.237 L1792.42 401.214 Z" fill="#000000" fill-rule="nonzero" fill-opacity="1" /><path clip-path="url(#clip740)" d="M1822.86 412.603 L1822.86 426.353 L1818.58 426.353 L1818.58 390.566 L1822.86 390.566 L1822.86 394.501 Q1824.2 392.186 1826.24 391.075 Q1828.3 389.941 1831.15 389.941 Q1835.87 389.941 1838.81 393.691 Q1841.77 397.441 1841.77 403.552 Q1841.77 409.663 1838.81 413.413 Q1835.87 417.163 1831.15 417.163 Q1828.3 417.163 1826.24 416.052 Q1824.2 414.918 1822.86 412.603 M1837.35 403.552 Q1837.35 398.853 1835.41 396.191 Q1833.49 393.506 1830.11 393.506 Q1826.73 393.506 1824.78 396.191 Q1822.86 398.853 1822.86 403.552 Q1822.86 408.251 1824.78 410.936 Q1826.73 413.598 1830.11 413.598 Q1833.49 413.598 1835.41 410.936 Q1837.35 408.251 1837.35 403.552 Z" fill="#000000" fill-rule="nonzero" fill-opacity="1" /><path clip-path="url(#clip740)" d="M1889.97 384.594 L1889.97 389.524 Q1887.61 387.325 1884.92 386.237 Q1882.26 385.149 1879.25 385.149 Q1873.32 385.149 1870.18 388.784 Q1867.03 392.395 1867.03 399.246 Q1867.03 406.075 1870.18 409.709 Q1873.32 413.32 1879.25 413.32 Q1882.26 413.32 1884.92 412.232 Q1887.61 411.145 1889.97 408.945 L1889.97 413.83 Q1887.51 415.496 1884.76 416.33 Q1882.03 417.163 1878.97 417.163 Q1871.12 417.163 1866.61 412.371 Q1862.1 407.557 1862.1 399.246 Q1862.1 390.913 1866.61 386.122 Q1871.12 381.307 1878.97 381.307 Q1882.07 381.307 1884.8 382.14 Q1887.56 382.95 1889.97 384.594 Z" fill="#000000" fill-rule="nonzero" fill-opacity="1" /><path clip-path="url(#clip740)" d="M1897.19 381.932 L1901.86 381.932 L1901.86 416.492 L1897.19 416.492 L1897.19 381.932 Z" fill="#000000" fill-rule="nonzero" fill-opacity="1" /><path clip-path="url(#clip740)" d="M1936.29 380.52 Q1933.18 385.844 1931.68 391.052 Q1930.17 396.26 1930.17 401.608 Q1930.17 406.955 1931.68 412.209 Q1933.21 417.441 1936.29 422.742 L1932.58 422.742 Q1929.11 417.302 1927.37 412.047 Q1925.66 406.793 1925.66 401.608 Q1925.66 396.446 1927.37 391.214 Q1929.09 385.983 1932.58 380.52 L1936.29 380.52 Z" fill="#000000" fill-rule="nonzero" fill-opacity="1" /><path clip-path="url(#clip740)" d="M1945.96 412.557 L1953.6 412.557 L1953.6 386.191 L1945.29 387.858 L1945.29 383.598 L1953.55 381.932 L1958.23 381.932 L1958.23 412.557 L1965.87 412.557 L1965.87 416.492 L1945.96 416.492 L1945.96 412.557 Z" fill="#000000" fill-rule="nonzero" fill-opacity="1" /><path clip-path="url(#clip740)" d="M1985.31 385.01 Q1981.7 385.01 1979.87 388.575 Q1978.07 392.117 1978.07 399.246 Q1978.07 406.353 1979.87 409.918 Q1981.7 413.459 1985.31 413.459 Q1988.95 413.459 1990.75 409.918 Q1992.58 406.353 1992.58 399.246 Q1992.58 392.117 1990.75 388.575 Q1988.95 385.01 1985.31 385.01 M1985.31 381.307 Q1991.12 381.307 1994.18 385.913 Q1997.26 390.496 1997.26 399.246 Q1997.26 407.973 1994.18 412.58 Q1991.12 417.163 1985.31 417.163 Q1979.5 417.163 1976.42 412.58 Q1973.37 407.973 1973.37 399.246 Q1973.37 390.496 1976.42 385.913 Q1979.5 381.307 1985.31 381.307 Z" fill="#000000" fill-rule="nonzero" fill-opacity="1" /><path clip-path="url(#clip740)" d="M2015.48 385.01 Q2011.86 385.01 2010.04 388.575 Q2008.23 392.117 2008.23 399.246 Q2008.23 406.353 2010.04 409.918 Q2011.86 413.459 2015.48 413.459 Q2019.11 413.459 2020.92 409.918 Q2022.74 406.353 2022.74 399.246 Q2022.74 392.117 2020.92 388.575 Q2019.11 385.01 2015.48 385.01 M2015.48 381.307 Q2021.29 381.307 2024.34 385.913 Q2027.42 390.496 2027.42 399.246 Q2027.42 407.973 2024.34 412.58 Q2021.29 417.163 2015.48 417.163 Q2009.67 417.163 2006.59 412.58 Q2003.53 407.973 2003.53 399.246 Q2003.53 390.496 2006.59 385.913 Q2009.67 381.307 2015.48 381.307 Z" fill="#000000" fill-rule="nonzero" fill-opacity="1" /><path clip-path="url(#clip740)" d="M2035.64 410.612 L2040.52 410.612 L2040.52 416.492 L2035.64 416.492 L2035.64 410.612 Z" fill="#000000" fill-rule="nonzero" fill-opacity="1" /><path clip-path="url(#clip740)" d="M2060.71 385.01 Q2057.1 385.01 2055.27 388.575 Q2053.46 392.117 2053.46 399.246 Q2053.46 406.353 2055.27 409.918 Q2057.1 413.459 2060.71 413.459 Q2064.34 413.459 2066.15 409.918 Q2067.98 406.353 2067.98 399.246 Q2067.98 392.117 2066.15 388.575 Q2064.34 385.01 2060.71 385.01 M2060.71 381.307 Q2066.52 381.307 2069.57 385.913 Q2072.65 390.496 2072.65 399.246 Q2072.65 407.973 2069.57 412.58 Q2066.52 417.163 2060.71 417.163 Q2054.9 417.163 2051.82 412.58 Q2048.76 407.973 2048.76 399.246 Q2048.76 390.496 2051.82 385.913 Q2054.9 381.307 2060.71 381.307 Z" fill="#000000" fill-rule="nonzero" fill-opacity="1" /><path clip-path="url(#clip740)" d="M2110.27 401.283 Q2108.25 401.283 2107.1 402.996 Q2105.96 404.709 2105.96 407.765 Q2105.96 410.774 2107.1 412.51 Q2108.25 414.223 2110.27 414.223 Q2112.23 414.223 2113.37 412.51 Q2114.53 410.774 2114.53 407.765 Q2114.53 404.733 2113.37 403.02 Q2112.23 401.283 2110.27 401.283 M2110.27 398.344 Q2113.92 398.344 2116.08 400.89 Q2118.23 403.436 2118.23 407.765 Q2118.23 412.094 2116.05 414.64 Q2113.9 417.163 2110.27 417.163 Q2106.56 417.163 2104.41 414.64 Q2102.26 412.094 2102.26 407.765 Q2102.26 403.413 2104.41 400.89 Q2106.59 398.344 2110.27 398.344 M2086.38 384.247 Q2084.39 384.247 2083.23 385.983 Q2082.1 387.696 2082.1 390.705 Q2082.1 393.76 2083.23 395.473 Q2084.36 397.186 2086.38 397.186 Q2088.39 397.186 2089.53 395.473 Q2090.68 393.76 2090.68 390.705 Q2090.68 387.719 2089.53 385.983 Q2088.37 384.247 2086.38 384.247 M2107.28 381.307 L2110.98 381.307 L2089.36 417.163 L2085.66 417.163 L2107.28 381.307 M2086.38 381.307 Q2090.04 381.307 2092.21 383.853 Q2094.39 386.376 2094.39 390.705 Q2094.39 395.08 2092.21 397.603 Q2090.06 400.126 2086.38 400.126 Q2082.7 400.126 2080.54 397.603 Q2078.41 395.057 2078.41 390.705 Q2078.41 386.399 2080.57 383.853 Q2082.72 381.307 2086.38 381.307 Z" fill="#000000" fill-rule="nonzero" fill-opacity="1" /><path clip-path="url(#clip740)" d="M2140.38 390.566 L2144.64 390.566 L2144.64 416.492 L2140.38 416.492 L2140.38 390.566 M2140.38 380.473 L2144.64 380.473 L2144.64 385.867 L2140.38 385.867 L2140.38 380.473 Z" fill="#000000" fill-rule="nonzero" fill-opacity="1" /><path clip-path="url(#clip740)" d="M2175.1 400.844 L2175.1 416.492 L2170.84 416.492 L2170.84 400.983 Q2170.84 397.302 2169.41 395.473 Q2167.97 393.645 2165.1 393.645 Q2161.66 393.645 2159.66 395.844 Q2157.67 398.043 2157.67 401.839 L2157.67 416.492 L2153.39 416.492 L2153.39 390.566 L2157.67 390.566 L2157.67 394.594 Q2159.2 392.256 2161.26 391.098 Q2163.34 389.941 2166.05 389.941 Q2170.52 389.941 2172.81 392.719 Q2175.1 395.473 2175.1 400.844 Z" fill="#000000" fill-rule="nonzero" fill-opacity="1" /><path clip-path="url(#clip740)" d="M2224.73 384.594 L2224.73 389.524 Q2222.37 387.325 2219.69 386.237 Q2217.03 385.149 2214.02 385.149 Q2208.09 385.149 2204.94 388.784 Q2201.79 392.395 2201.79 399.246 Q2201.79 406.075 2204.94 409.709 Q2208.09 413.32 2214.02 413.32 Q2217.03 413.32 2219.69 412.232 Q2222.37 411.145 2224.73 408.945 L2224.73 413.83 Q2222.28 415.496 2219.53 416.33 Q2216.79 417.163 2213.74 417.163 Q2205.89 417.163 2201.38 412.371 Q2196.86 407.557 2196.86 399.246 Q2196.86 390.913 2201.38 386.122 Q2205.89 381.307 2213.74 381.307 Q2216.84 381.307 2219.57 382.14 Q2222.33 382.95 2224.73 384.594 Z" fill="#000000" fill-rule="nonzero" fill-opacity="1" /><path clip-path="url(#clip740)" d="M2231.96 381.932 L2236.63 381.932 L2236.63 416.492 L2231.96 416.492 L2231.96 381.932 Z" fill="#000000" fill-rule="nonzero" fill-opacity="1" /><path clip-path="url(#clip740)" d="M2245.08 380.52 L2248.78 380.52 Q2252.26 385.983 2253.97 391.214 Q2255.71 396.446 2255.71 401.608 Q2255.71 406.793 2253.97 412.047 Q2252.26 417.302 2248.78 422.742 L2245.08 422.742 Q2248.16 417.441 2249.66 412.209 Q2251.19 406.955 2251.19 401.608 Q2251.19 396.26 2249.66 391.052 Q2248.16 385.844 2245.08 380.52 Z" fill="#000000" fill-rule="nonzero" fill-opacity="1" /><polyline clip-path="url(#clip740)" style="stroke:#ac8d18; stroke-linecap:round; stroke-linejoin:round; stroke-width:4; stroke-opacity:1; fill:none" points="1459.57,451.052 1605.15,451.052 "/>
<path clip-path="url(#clip740)" d="M1647.84 443.17 L1647.84 447.198 Q1646.03 446.272 1644.09 445.809 Q1642.14 445.346 1640.06 445.346 Q1636.89 445.346 1635.29 446.318 Q1633.72 447.29 1633.72 449.235 Q1633.72 450.716 1634.85 451.573 Q1635.99 452.406 1639.41 453.17 L1640.87 453.494 Q1645.41 454.466 1647.31 456.248 Q1649.23 458.008 1649.23 461.179 Q1649.23 464.79 1646.36 466.897 Q1643.51 469.003 1638.51 469.003 Q1636.43 469.003 1634.16 468.586 Q1631.91 468.193 1629.41 467.383 L1629.41 462.985 Q1631.77 464.211 1634.07 464.836 Q1636.36 465.438 1638.6 465.438 Q1641.61 465.438 1643.23 464.42 Q1644.85 463.378 1644.85 461.503 Q1644.85 459.767 1643.67 458.841 Q1642.51 457.915 1638.56 457.059 L1637.07 456.711 Q1633.12 455.878 1631.36 454.165 Q1629.6 452.429 1629.6 449.42 Q1629.6 445.762 1632.19 443.772 Q1634.78 441.781 1639.55 441.781 Q1641.91 441.781 1644 442.128 Q1646.08 442.475 1647.84 443.17 Z" fill="#000000" fill-rule="nonzero" fill-opacity="1" /><path clip-path="url(#clip740)" d="M1667.79 455.299 Q1662.63 455.299 1660.64 456.48 Q1658.65 457.66 1658.65 460.508 Q1658.65 462.776 1660.13 464.119 Q1661.63 465.438 1664.2 465.438 Q1667.75 465.438 1669.88 462.938 Q1672.03 460.415 1672.03 456.248 L1672.03 455.299 L1667.79 455.299 M1676.29 453.54 L1676.29 468.332 L1672.03 468.332 L1672.03 464.397 Q1670.57 466.758 1668.39 467.892 Q1666.22 469.003 1663.07 469.003 Q1659.09 469.003 1656.73 466.781 Q1654.39 464.535 1654.39 460.785 Q1654.39 456.41 1657.31 454.188 Q1660.25 451.966 1666.06 451.966 L1672.03 451.966 L1672.03 451.549 Q1672.03 448.61 1670.08 447.012 Q1668.16 445.392 1664.67 445.392 Q1662.44 445.392 1660.34 445.924 Q1658.23 446.457 1656.29 447.522 L1656.29 443.586 Q1658.63 442.684 1660.82 442.244 Q1663.02 441.781 1665.11 441.781 Q1670.73 441.781 1673.51 444.698 Q1676.29 447.614 1676.29 453.54 Z" fill="#000000" fill-rule="nonzero" fill-opacity="1" /><path clip-path="url(#clip740)" d="M1705.25 447.383 Q1706.84 444.512 1709.06 443.147 Q1711.29 441.781 1714.3 441.781 Q1718.35 441.781 1720.55 444.628 Q1722.75 447.452 1722.75 452.684 L1722.75 468.332 L1718.46 468.332 L1718.46 452.823 Q1718.46 449.096 1717.14 447.29 Q1715.82 445.485 1713.12 445.485 Q1709.81 445.485 1707.88 447.684 Q1705.96 449.883 1705.96 453.679 L1705.96 468.332 L1701.68 468.332 L1701.68 452.823 Q1701.68 449.073 1700.36 447.29 Q1699.04 445.485 1696.29 445.485 Q1693.02 445.485 1691.1 447.707 Q1689.18 449.906 1689.18 453.679 L1689.18 468.332 L1684.9 468.332 L1684.9 442.406 L1689.18 442.406 L1689.18 446.434 Q1690.64 444.049 1692.68 442.915 Q1694.71 441.781 1697.51 441.781 Q1700.34 441.781 1702.31 443.216 Q1704.3 444.651 1705.25 447.383 Z" fill="#000000" fill-rule="nonzero" fill-opacity="1" /><path clip-path="url(#clip740)" d="M1735.36 464.443 L1735.36 478.193 L1731.08 478.193 L1731.08 442.406 L1735.36 442.406 L1735.36 446.341 Q1736.7 444.026 1738.74 442.915 Q1740.8 441.781 1743.65 441.781 Q1748.37 441.781 1751.31 445.531 Q1754.27 449.281 1754.27 455.392 Q1754.27 461.503 1751.31 465.253 Q1748.37 469.003 1743.65 469.003 Q1740.8 469.003 1738.74 467.892 Q1736.7 466.758 1735.36 464.443 M1749.85 455.392 Q1749.85 450.693 1747.91 448.031 Q1745.99 445.346 1742.61 445.346 Q1739.23 445.346 1737.28 448.031 Q1735.36 450.693 1735.36 455.392 Q1735.36 460.091 1737.28 462.776 Q1739.23 465.438 1742.61 465.438 Q1745.99 465.438 1747.91 462.776 Q1749.85 460.091 1749.85 455.392 Z" fill="#000000" fill-rule="nonzero" fill-opacity="1" /><path clip-path="url(#clip740)" d="M1761.33 432.313 L1765.59 432.313 L1765.59 468.332 L1761.33 468.332 L1761.33 432.313 Z" fill="#000000" fill-rule="nonzero" fill-opacity="1" /><path clip-path="url(#clip740)" d="M1796.68 454.304 L1796.68 456.387 L1777.1 456.387 Q1777.37 460.785 1779.74 463.1 Q1782.12 465.392 1786.36 465.392 Q1788.81 465.392 1791.1 464.79 Q1793.42 464.188 1795.68 462.985 L1795.68 467.012 Q1793.39 467.984 1790.99 468.494 Q1788.58 469.003 1786.1 469.003 Q1779.9 469.003 1776.26 465.392 Q1772.65 461.781 1772.65 455.623 Q1772.65 449.258 1776.08 445.531 Q1779.53 441.781 1785.36 441.781 Q1790.59 441.781 1793.62 445.161 Q1796.68 448.517 1796.68 454.304 M1792.42 453.054 Q1792.37 449.559 1790.45 447.475 Q1788.56 445.392 1785.41 445.392 Q1781.84 445.392 1779.69 447.406 Q1777.56 449.42 1777.24 453.077 L1792.42 453.054 Z" fill="#000000" fill-rule="nonzero" fill-opacity="1" /><path clip-path="url(#clip740)" d="M1822.86 464.443 L1822.86 478.193 L1818.58 478.193 L1818.58 442.406 L1822.86 442.406 L1822.86 446.341 Q1824.2 444.026 1826.24 442.915 Q1828.3 441.781 1831.15 441.781 Q1835.87 441.781 1838.81 445.531 Q1841.77 449.281 1841.77 455.392 Q1841.77 461.503 1838.81 465.253 Q1835.87 469.003 1831.15 469.003 Q1828.3 469.003 1826.24 467.892 Q1824.2 466.758 1822.86 464.443 M1837.35 455.392 Q1837.35 450.693 1835.41 448.031 Q1833.49 445.346 1830.11 445.346 Q1826.73 445.346 1824.78 448.031 Q1822.86 450.693 1822.86 455.392 Q1822.86 460.091 1824.78 462.776 Q1826.73 465.438 1830.11 465.438 Q1833.49 465.438 1835.41 462.776 Q1837.35 460.091 1837.35 455.392 Z" fill="#000000" fill-rule="nonzero" fill-opacity="1" /></svg>
