<?xml version="1.0" encoding="utf-8"?>
<svg xmlns="http://www.w3.org/2000/svg" xmlns:xlink="http://www.w3.org/1999/xlink" width="600" height="400" viewBox="0 0 2400 1600">
<defs>
  <clipPath id="clip660">
    <rect x="0" y="0" width="2400" height="1600"/>
  </clipPath>
</defs>
<path clip-path="url(#clip660)" d="M0 1600 L2400 1600 L2400 0 L0 0  Z" fill="#ffffff" fill-rule="evenodd" fill-opacity="1"/>
<defs>
  <clipPath id="clip661">
    <rect x="480" y="0" width="1681" height="1600"/>
  </clipPath>
</defs>
<path clip-path="url(#clip660)" d="M257.69 1423.18 L2352.76 1423.18 L2352.76 47.2441 L257.69 47.2441  Z" fill="#ffffff" fill-rule="evenodd" fill-opacity="1"/>
<defs>
  <clipPath id="clip662">
    <rect x="257" y="47" width="2096" height="1377"/>
  </clipPath>
</defs>
<polyline clip-path="url(#clip662)" style="stroke:#000000; stroke-linecap:round; stroke-linejoin:round; stroke-width:2; stroke-opacity:0.1; fill:none" points="316.984,1423.18 316.984,47.2441 "/>
<polyline clip-path="url(#clip662)" style="stroke:#000000; stroke-linecap:round; stroke-linejoin:round; stroke-width:2; stroke-opacity:0.1; fill:none" points="811.104,1423.18 811.104,47.2441 "/>
<polyline clip-path="url(#clip662)" style="stroke:#000000; stroke-linecap:round; stroke-linejoin:round; stroke-width:2; stroke-opacity:0.1; fill:none" points="1305.22,1423.18 1305.22,47.2441 "/>
<polyline clip-path="url(#clip662)" style="stroke:#000000; stroke-linecap:round; stroke-linejoin:round; stroke-width:2; stroke-opacity:0.1; fill:none" points="1799.34,1423.18 1799.34,47.2441 "/>
<polyline clip-path="url(#clip662)" style="stroke:#000000; stroke-linecap:round; stroke-linejoin:round; stroke-width:2; stroke-opacity:0.1; fill:none" points="2293.46,1423.18 2293.46,47.2441 "/>
<polyline clip-path="url(#clip662)" style="stroke:#000000; stroke-linecap:round; stroke-linejoin:round; stroke-width:2; stroke-opacity:0.1; fill:none" points="257.69,1309.62 2352.76,1309.62 "/>
<polyline clip-path="url(#clip662)" style="stroke:#000000; stroke-linecap:round; stroke-linejoin:round; stroke-width:2; stroke-opacity:0.1; fill:none" points="257.69,1112.26 2352.76,1112.26 "/>
<polyline clip-path="url(#clip662)" style="stroke:#000000; stroke-linecap:round; stroke-linejoin:round; stroke-width:2; stroke-opacity:0.1; fill:none" points="257.69,914.893 2352.76,914.893 "/>
<polyline clip-path="url(#clip662)" style="stroke:#000000; stroke-linecap:round; stroke-linejoin:round; stroke-width:2; stroke-opacity:0.1; fill:none" points="257.69,717.528 2352.76,717.528 "/>
<polyline clip-path="url(#clip662)" style="stroke:#000000; stroke-linecap:round; stroke-linejoin:round; stroke-width:2; stroke-opacity:0.1; fill:none" points="257.69,520.163 2352.76,520.163 "/>
<polyline clip-path="url(#clip662)" style="stroke:#000000; stroke-linecap:round; stroke-linejoin:round; stroke-width:2; stroke-opacity:0.1; fill:none" points="257.69,322.798 2352.76,322.798 "/>
<polyline clip-path="url(#clip662)" style="stroke:#000000; stroke-linecap:round; stroke-linejoin:round; stroke-width:2; stroke-opacity:0.1; fill:none" points="257.69,125.433 2352.76,125.433 "/>
<polyline clip-path="url(#clip660)" style="stroke:#000000; stroke-linecap:round; stroke-linejoin:round; stroke-width:4; stroke-opacity:1; fill:none" points="257.69,1423.18 2352.76,1423.18 "/>
<polyline clip-path="url(#clip660)" style="stroke:#000000; stroke-linecap:round; stroke-linejoin:round; stroke-width:4; stroke-opacity:1; fill:none" points="316.984,1423.18 316.984,1404.28 "/>
<polyline clip-path="url(#clip660)" style="stroke:#000000; stroke-linecap:round; stroke-linejoin:round; stroke-width:4; stroke-opacity:1; fill:none" points="811.104,1423.18 811.104,1404.28 "/>
<polyline clip-path="url(#clip660)" style="stroke:#000000; stroke-linecap:round; stroke-linejoin:round; stroke-width:4; stroke-opacity:1; fill:none" points="1305.22,1423.18 1305.22,1404.28 "/>
<polyline clip-path="url(#clip660)" style="stroke:#000000; stroke-linecap:round; stroke-linejoin:round; stroke-width:4; stroke-opacity:1; fill:none" points="1799.34,1423.18 1799.34,1404.28 "/>
<polyline clip-path="url(#clip660)" style="stroke:#000000; stroke-linecap:round; stroke-linejoin:round; stroke-width:4; stroke-opacity:1; fill:none" points="2293.46,1423.18 2293.46,1404.28 "/>
<path clip-path="url(#clip660)" d="M279.288 1454.1 Q275.677 1454.1 273.848 1457.66 Q272.043 1461.2 272.043 1468.33 Q272.043 1475.44 273.848 1479.01 Q275.677 1482.55 279.288 1482.55 Q282.922 1482.55 284.728 1479.01 Q286.556 1475.44 286.556 1468.33 Q286.556 1461.2 284.728 1457.66 Q282.922 1454.1 279.288 1454.1 M279.288 1450.39 Q285.098 1450.39 288.154 1455 Q291.232 1459.58 291.232 1468.33 Q291.232 1477.06 288.154 1481.67 Q285.098 1486.25 279.288 1486.25 Q273.478 1486.25 270.399 1481.67 Q267.344 1477.06 267.344 1468.33 Q267.344 1459.58 270.399 1455 Q273.478 1450.39 279.288 1450.39 Z" fill="#000000" fill-rule="nonzero" fill-opacity="1" /><path clip-path="url(#clip660)" d="M299.45 1479.7 L304.334 1479.7 L304.334 1485.58 L299.45 1485.58 L299.45 1479.7 Z" fill="#000000" fill-rule="nonzero" fill-opacity="1" /><path clip-path="url(#clip660)" d="M324.519 1454.1 Q320.908 1454.1 319.079 1457.66 Q317.274 1461.2 317.274 1468.33 Q317.274 1475.44 319.079 1479.01 Q320.908 1482.55 324.519 1482.55 Q328.153 1482.55 329.959 1479.01 Q331.788 1475.44 331.788 1468.33 Q331.788 1461.2 329.959 1457.66 Q328.153 1454.1 324.519 1454.1 M324.519 1450.39 Q330.329 1450.39 333.385 1455 Q336.464 1459.58 336.464 1468.33 Q336.464 1477.06 333.385 1481.67 Q330.329 1486.25 324.519 1486.25 Q318.709 1486.25 315.63 1481.67 Q312.575 1477.06 312.575 1468.33 Q312.575 1459.58 315.63 1455 Q318.709 1450.39 324.519 1450.39 Z" fill="#000000" fill-rule="nonzero" fill-opacity="1" /><path clip-path="url(#clip660)" d="M354.681 1454.1 Q351.07 1454.1 349.241 1457.66 Q347.436 1461.2 347.436 1468.33 Q347.436 1475.44 349.241 1479.01 Q351.07 1482.55 354.681 1482.55 Q358.315 1482.55 360.121 1479.01 Q361.949 1475.44 361.949 1468.33 Q361.949 1461.2 360.121 1457.66 Q358.315 1454.1 354.681 1454.1 M354.681 1450.39 Q360.491 1450.39 363.547 1455 Q366.625 1459.58 366.625 1468.33 Q366.625 1477.06 363.547 1481.67 Q360.491 1486.25 354.681 1486.25 Q348.871 1486.25 345.792 1481.67 Q342.737 1477.06 342.737 1468.33 Q342.737 1459.58 345.792 1455 Q348.871 1450.39 354.681 1450.39 Z" fill="#000000" fill-rule="nonzero" fill-opacity="1" /><path clip-path="url(#clip660)" d="M773.905 1454.1 Q770.294 1454.1 768.465 1457.66 Q766.66 1461.2 766.66 1468.33 Q766.66 1475.44 768.465 1479.01 Q770.294 1482.55 773.905 1482.55 Q777.539 1482.55 779.345 1479.01 Q781.173 1475.44 781.173 1468.33 Q781.173 1461.2 779.345 1457.66 Q777.539 1454.1 773.905 1454.1 M773.905 1450.39 Q779.715 1450.39 782.771 1455 Q785.849 1459.58 785.849 1468.33 Q785.849 1477.06 782.771 1481.67 Q779.715 1486.25 773.905 1486.25 Q768.095 1486.25 765.016 1481.67 Q761.96 1477.06 761.96 1468.33 Q761.96 1459.58 765.016 1455 Q768.095 1450.39 773.905 1450.39 Z" fill="#000000" fill-rule="nonzero" fill-opacity="1" /><path clip-path="url(#clip660)" d="M794.067 1479.7 L798.951 1479.7 L798.951 1485.58 L794.067 1485.58 L794.067 1479.7 Z" fill="#000000" fill-rule="nonzero" fill-opacity="1" /><path clip-path="url(#clip660)" d="M813.164 1481.64 L829.483 1481.64 L829.483 1485.58 L807.539 1485.58 L807.539 1481.64 Q810.201 1478.89 814.784 1474.26 Q819.391 1469.61 820.571 1468.27 Q822.817 1465.74 823.696 1464.01 Q824.599 1462.25 824.599 1460.56 Q824.599 1457.8 822.655 1456.07 Q820.733 1454.33 817.631 1454.33 Q815.432 1454.33 812.979 1455.09 Q810.548 1455.86 807.77 1457.41 L807.77 1452.69 Q810.594 1451.55 813.048 1450.97 Q815.502 1450.39 817.539 1450.39 Q822.909 1450.39 826.104 1453.08 Q829.298 1455.77 829.298 1460.26 Q829.298 1462.39 828.488 1464.31 Q827.701 1466.2 825.594 1468.8 Q825.016 1469.47 821.914 1472.69 Q818.812 1475.88 813.164 1481.64 Z" fill="#000000" fill-rule="nonzero" fill-opacity="1" /><path clip-path="url(#clip660)" d="M839.344 1451.02 L857.701 1451.02 L857.701 1454.96 L843.627 1454.96 L843.627 1463.43 Q844.645 1463.08 845.664 1462.92 Q846.682 1462.73 847.701 1462.73 Q853.488 1462.73 856.867 1465.9 Q860.247 1469.08 860.247 1474.49 Q860.247 1480.07 856.775 1483.17 Q853.303 1486.25 846.983 1486.25 Q844.807 1486.25 842.539 1485.88 Q840.293 1485.51 837.886 1484.77 L837.886 1480.07 Q839.969 1481.2 842.192 1481.76 Q844.414 1482.32 846.891 1482.32 Q850.895 1482.32 853.233 1480.21 Q855.571 1478.1 855.571 1474.49 Q855.571 1470.88 853.233 1468.77 Q850.895 1466.67 846.891 1466.67 Q845.016 1466.67 843.141 1467.08 Q841.289 1467.5 839.344 1468.38 L839.344 1451.02 Z" fill="#000000" fill-rule="nonzero" fill-opacity="1" /><path clip-path="url(#clip660)" d="M1267.53 1454.1 Q1263.92 1454.1 1262.09 1457.66 Q1260.28 1461.2 1260.28 1468.33 Q1260.28 1475.44 1262.09 1479.01 Q1263.92 1482.55 1267.53 1482.55 Q1271.16 1482.55 1272.97 1479.01 Q1274.79 1475.44 1274.79 1468.33 Q1274.79 1461.2 1272.97 1457.66 Q1271.16 1454.1 1267.53 1454.1 M1267.53 1450.39 Q1273.34 1450.39 1276.39 1455 Q1279.47 1459.58 1279.47 1468.33 Q1279.47 1477.06 1276.39 1481.67 Q1273.34 1486.25 1267.53 1486.25 Q1261.72 1486.25 1258.64 1481.67 Q1255.58 1477.06 1255.58 1468.33 Q1255.58 1459.58 1258.64 1455 Q1261.72 1450.39 1267.53 1450.39 Z" fill="#000000" fill-rule="nonzero" fill-opacity="1" /><path clip-path="url(#clip660)" d="M1287.69 1479.7 L1292.57 1479.7 L1292.57 1485.58 L1287.69 1485.58 L1287.69 1479.7 Z" fill="#000000" fill-rule="nonzero" fill-opacity="1" /><path clip-path="url(#clip660)" d="M1302.8 1451.02 L1321.16 1451.02 L1321.16 1454.96 L1307.09 1454.96 L1307.09 1463.43 Q1308.1 1463.08 1309.12 1462.92 Q1310.14 1462.73 1311.16 1462.73 Q1316.95 1462.73 1320.33 1465.9 Q1323.71 1469.08 1323.71 1474.49 Q1323.71 1480.07 1320.23 1483.17 Q1316.76 1486.25 1310.44 1486.25 Q1308.27 1486.25 1306 1485.88 Q1303.75 1485.51 1301.35 1484.77 L1301.35 1480.07 Q1303.43 1481.2 1305.65 1481.76 Q1307.87 1482.32 1310.35 1482.32 Q1314.35 1482.32 1316.69 1480.21 Q1319.03 1478.1 1319.03 1474.49 Q1319.03 1470.88 1316.69 1468.77 Q1314.35 1466.67 1310.35 1466.67 Q1308.48 1466.67 1306.6 1467.08 Q1304.75 1467.5 1302.8 1468.38 L1302.8 1451.02 Z" fill="#000000" fill-rule="nonzero" fill-opacity="1" /><path clip-path="url(#clip660)" d="M1342.92 1454.1 Q1339.31 1454.1 1337.48 1457.66 Q1335.67 1461.2 1335.67 1468.33 Q1335.67 1475.44 1337.48 1479.01 Q1339.31 1482.55 1342.92 1482.55 Q1346.55 1482.55 1348.36 1479.01 Q1350.19 1475.44 1350.19 1468.33 Q1350.19 1461.2 1348.36 1457.66 Q1346.55 1454.1 1342.92 1454.1 M1342.92 1450.39 Q1348.73 1450.39 1351.79 1455 Q1354.86 1459.58 1354.86 1468.33 Q1354.86 1477.06 1351.79 1481.67 Q1348.73 1486.25 1342.92 1486.25 Q1337.11 1486.25 1334.03 1481.67 Q1330.98 1477.06 1330.98 1468.33 Q1330.98 1459.58 1334.03 1455 Q1337.11 1450.39 1342.92 1450.39 Z" fill="#000000" fill-rule="nonzero" fill-opacity="1" /><path clip-path="url(#clip660)" d="M1762.14 1454.1 Q1758.53 1454.1 1756.7 1457.66 Q1754.9 1461.2 1754.9 1468.33 Q1754.9 1475.44 1756.7 1479.01 Q1758.53 1482.55 1762.14 1482.55 Q1765.78 1482.55 1767.58 1479.01 Q1769.41 1475.44 1769.41 1468.33 Q1769.41 1461.2 1767.58 1457.66 Q1765.78 1454.1 1762.14 1454.1 M1762.14 1450.39 Q1767.95 1450.39 1771.01 1455 Q1774.09 1459.58 1774.09 1468.33 Q1774.09 1477.06 1771.01 1481.67 Q1767.95 1486.25 1762.14 1486.25 Q1756.33 1486.25 1753.25 1481.67 Q1750.2 1477.06 1750.2 1468.33 Q1750.2 1459.58 1753.25 1455 Q1756.33 1450.39 1762.14 1450.39 Z" fill="#000000" fill-rule="nonzero" fill-opacity="1" /><path clip-path="url(#clip660)" d="M1782.31 1479.7 L1787.19 1479.7 L1787.19 1485.58 L1782.31 1485.58 L1782.31 1479.7 Z" fill="#000000" fill-rule="nonzero" fill-opacity="1" /><path clip-path="url(#clip660)" d="M1796.19 1451.02 L1818.42 1451.02 L1818.42 1453.01 L1805.87 1485.58 L1800.99 1485.58 L1812.79 1454.96 L1796.19 1454.96 L1796.19 1451.02 Z" fill="#000000" fill-rule="nonzero" fill-opacity="1" /><path clip-path="url(#clip660)" d="M1827.58 1451.02 L1845.94 1451.02 L1845.94 1454.96 L1831.87 1454.96 L1831.87 1463.43 Q1832.88 1463.08 1833.9 1462.92 Q1834.92 1462.73 1835.94 1462.73 Q1841.73 1462.73 1845.11 1465.9 Q1848.49 1469.08 1848.49 1474.49 Q1848.49 1480.07 1845.01 1483.17 Q1841.54 1486.25 1835.22 1486.25 Q1833.05 1486.25 1830.78 1485.88 Q1828.53 1485.51 1826.12 1484.77 L1826.12 1480.07 Q1828.21 1481.2 1830.43 1481.76 Q1832.65 1482.32 1835.13 1482.32 Q1839.13 1482.32 1841.47 1480.21 Q1843.81 1478.1 1843.81 1474.49 Q1843.81 1470.88 1841.47 1468.77 Q1839.13 1466.67 1835.13 1466.67 Q1833.25 1466.67 1831.38 1467.08 Q1829.53 1467.5 1827.58 1468.38 L1827.58 1451.02 Z" fill="#000000" fill-rule="nonzero" fill-opacity="1" /><path clip-path="url(#clip660)" d="M2245.53 1481.64 L2253.17 1481.64 L2253.17 1455.28 L2244.86 1456.95 L2244.86 1452.69 L2253.13 1451.02 L2257.8 1451.02 L2257.8 1481.64 L2265.44 1481.64 L2265.44 1485.58 L2245.53 1485.58 L2245.53 1481.64 Z" fill="#000000" fill-rule="nonzero" fill-opacity="1" /><path clip-path="url(#clip660)" d="M2274.89 1479.7 L2279.77 1479.7 L2279.77 1485.58 L2274.89 1485.58 L2274.89 1479.7 Z" fill="#000000" fill-rule="nonzero" fill-opacity="1" /><path clip-path="url(#clip660)" d="M2299.95 1454.1 Q2296.34 1454.1 2294.51 1457.66 Q2292.71 1461.2 2292.71 1468.33 Q2292.71 1475.44 2294.51 1479.01 Q2296.34 1482.55 2299.95 1482.55 Q2303.59 1482.55 2305.39 1479.01 Q2307.22 1475.44 2307.22 1468.33 Q2307.22 1461.2 2305.39 1457.66 Q2303.59 1454.1 2299.95 1454.1 M2299.95 1450.39 Q2305.76 1450.39 2308.82 1455 Q2311.9 1459.58 2311.9 1468.33 Q2311.9 1477.06 2308.82 1481.67 Q2305.76 1486.25 2299.95 1486.25 Q2294.14 1486.25 2291.07 1481.67 Q2288.01 1477.06 2288.01 1468.33 Q2288.01 1459.58 2291.07 1455 Q2294.14 1450.39 2299.95 1450.39 Z" fill="#000000" fill-rule="nonzero" fill-opacity="1" /><path clip-path="url(#clip660)" d="M2330.12 1454.1 Q2326.51 1454.1 2324.68 1457.66 Q2322.87 1461.2 2322.87 1468.33 Q2322.87 1475.44 2324.68 1479.01 Q2326.51 1482.55 2330.12 1482.55 Q2333.75 1482.55 2335.56 1479.01 Q2337.38 1475.44 2337.38 1468.33 Q2337.38 1461.2 2335.56 1457.66 Q2333.75 1454.1 2330.12 1454.1 M2330.12 1450.39 Q2335.93 1450.39 2338.98 1455 Q2342.06 1459.58 2342.06 1468.33 Q2342.06 1477.06 2338.98 1481.67 Q2335.93 1486.25 2330.12 1486.25 Q2324.31 1486.25 2321.23 1481.67 Q2318.17 1477.06 2318.17 1468.33 Q2318.17 1459.58 2321.23 1455 Q2324.31 1450.39 2330.12 1450.39 Z" fill="#000000" fill-rule="nonzero" fill-opacity="1" /><path clip-path="url(#clip660)" d="M1313.69 1531.91 Q1313.69 1532.81 1313.28 1533.04 Q1312.86 1533.23 1311.7 1533.23 L1305.51 1533.23 L1300.62 1552.69 Q1300.23 1554.39 1300.23 1555.84 Q1300.23 1557.45 1300.72 1558.16 Q1301.23 1558.87 1302.29 1558.87 Q1304.39 1558.87 1306.64 1556.97 Q1308.93 1555.07 1310.86 1550.43 Q1311.12 1549.82 1311.25 1549.69 Q1311.41 1549.53 1311.83 1549.53 Q1312.63 1549.53 1312.63 1550.17 Q1312.63 1550.4 1312.18 1551.43 Q1311.76 1552.46 1310.83 1553.97 Q1309.93 1555.49 1308.73 1556.9 Q1307.57 1558.32 1305.8 1559.35 Q1304.03 1560.35 1302.13 1560.35 Q1299.46 1560.35 1297.75 1558.64 Q1296.08 1556.94 1296.08 1554.26 Q1296.08 1553.39 1296.75 1550.62 Q1297.43 1547.82 1301.1 1533.23 L1295.27 1533.23 Q1294.47 1533.23 1294.15 1533.2 Q1293.86 1533.17 1293.63 1533.01 Q1293.44 1532.81 1293.44 1532.43 Q1293.44 1531.82 1293.69 1531.56 Q1293.95 1531.27 1294.27 1531.24 Q1294.63 1531.17 1295.43 1531.17 L1301.62 1531.17 L1304.19 1520.71 Q1304.45 1519.67 1305.1 1519.09 Q1305.77 1518.48 1306.16 1518.42 Q1306.54 1518.32 1306.83 1518.32 Q1307.7 1518.32 1308.22 1518.81 Q1308.73 1519.26 1308.73 1520.09 Q1308.73 1520.54 1306.03 1531.17 L1311.83 1531.17 Q1312.57 1531.17 1312.86 1531.2 Q1313.18 1531.24 1313.44 1531.4 Q1313.69 1531.56 1313.69 1531.91 Z" fill="#000000" fill-rule="nonzero" fill-opacity="1" /><polyline clip-path="url(#clip660)" style="stroke:#000000; stroke-linecap:round; stroke-linejoin:round; stroke-width:4; stroke-opacity:1; fill:none" points="257.69,1423.18 257.69,47.2441 "/>
<polyline clip-path="url(#clip660)" style="stroke:#000000; stroke-linecap:round; stroke-linejoin:round; stroke-width:4; stroke-opacity:1; fill:none" points="257.69,1309.62 276.588,1309.62 "/>
<polyline clip-path="url(#clip660)" style="stroke:#000000; stroke-linecap:round; stroke-linejoin:round; stroke-width:4; stroke-opacity:1; fill:none" points="257.69,1112.26 276.588,1112.26 "/>
<polyline clip-path="url(#clip660)" style="stroke:#000000; stroke-linecap:round; stroke-linejoin:round; stroke-width:4; stroke-opacity:1; fill:none" points="257.69,914.893 276.588,914.893 "/>
<polyline clip-path="url(#clip660)" style="stroke:#000000; stroke-linecap:round; stroke-linejoin:round; stroke-width:4; stroke-opacity:1; fill:none" points="257.69,717.528 276.588,717.528 "/>
<polyline clip-path="url(#clip660)" style="stroke:#000000; stroke-linecap:round; stroke-linejoin:round; stroke-width:4; stroke-opacity:1; fill:none" points="257.69,520.163 276.588,520.163 "/>
<polyline clip-path="url(#clip660)" style="stroke:#000000; stroke-linecap:round; stroke-linejoin:round; stroke-width:4; stroke-opacity:1; fill:none" points="257.69,322.798 276.588,322.798 "/>
<polyline clip-path="url(#clip660)" style="stroke:#000000; stroke-linecap:round; stroke-linejoin:round; stroke-width:4; stroke-opacity:1; fill:none" points="257.69,125.433 276.588,125.433 "/>
<path clip-path="url(#clip660)" d="M116.343 1310.07 L146.019 1310.07 L146.019 1314.01 L116.343 1314.01 L116.343 1310.07 Z" fill="#000000" fill-rule="nonzero" fill-opacity="1" /><path clip-path="url(#clip660)" d="M156.922 1322.97 L164.561 1322.97 L164.561 1296.6 L156.251 1298.27 L156.251 1294.01 L164.515 1292.34 L169.19 1292.34 L169.19 1322.97 L176.829 1322.97 L176.829 1326.9 L156.922 1326.9 L156.922 1322.97 Z" fill="#000000" fill-rule="nonzero" fill-opacity="1" /><path clip-path="url(#clip660)" d="M186.274 1321.02 L191.158 1321.02 L191.158 1326.9 L186.274 1326.9 L186.274 1321.02 Z" fill="#000000" fill-rule="nonzero" fill-opacity="1" /><path clip-path="url(#clip660)" d="M205.371 1322.97 L221.69 1322.97 L221.69 1326.9 L199.746 1326.9 L199.746 1322.97 Q202.408 1320.21 206.991 1315.58 Q211.598 1310.93 212.778 1309.59 Q215.024 1307.07 215.903 1305.33 Q216.806 1303.57 216.806 1301.88 Q216.806 1299.13 214.861 1297.39 Q212.94 1295.65 209.838 1295.65 Q207.639 1295.65 205.186 1296.42 Q202.755 1297.18 199.977 1298.73 L199.977 1294.01 Q202.801 1292.88 205.255 1292.3 Q207.709 1291.72 209.746 1291.72 Q215.116 1291.72 218.311 1294.4 Q221.505 1297.09 221.505 1301.58 Q221.505 1303.71 220.695 1305.63 Q219.908 1307.53 217.801 1310.12 Q217.223 1310.79 214.121 1314.01 Q211.019 1317.2 205.371 1322.97 Z" fill="#000000" fill-rule="nonzero" fill-opacity="1" /><path clip-path="url(#clip660)" d="M114.746 1112.71 L144.422 1112.71 L144.422 1116.64 L114.746 1116.64 L114.746 1112.71 Z" fill="#000000" fill-rule="nonzero" fill-opacity="1" /><path clip-path="url(#clip660)" d="M155.325 1125.6 L162.964 1125.6 L162.964 1099.24 L154.653 1100.9 L154.653 1096.64 L162.917 1094.98 L167.593 1094.98 L167.593 1125.6 L175.232 1125.6 L175.232 1129.54 L155.325 1129.54 L155.325 1125.6 Z" fill="#000000" fill-rule="nonzero" fill-opacity="1" /><path clip-path="url(#clip660)" d="M184.676 1123.66 L189.561 1123.66 L189.561 1129.54 L184.676 1129.54 L184.676 1123.66 Z" fill="#000000" fill-rule="nonzero" fill-opacity="1" /><path clip-path="url(#clip660)" d="M209.746 1098.06 Q206.135 1098.06 204.306 1101.62 Q202.5 1105.16 202.5 1112.29 Q202.5 1119.4 204.306 1122.96 Q206.135 1126.51 209.746 1126.51 Q213.38 1126.51 215.186 1122.96 Q217.014 1119.4 217.014 1112.29 Q217.014 1105.16 215.186 1101.62 Q213.38 1098.06 209.746 1098.06 M209.746 1094.35 Q215.556 1094.35 218.611 1098.96 Q221.69 1103.54 221.69 1112.29 Q221.69 1121.02 218.611 1125.63 Q215.556 1130.21 209.746 1130.21 Q203.936 1130.21 200.857 1125.63 Q197.801 1121.02 197.801 1112.29 Q197.801 1103.54 200.857 1098.96 Q203.936 1094.35 209.746 1094.35 Z" fill="#000000" fill-rule="nonzero" fill-opacity="1" /><path clip-path="url(#clip660)" d="M114.839 915.344 L144.515 915.344 L144.515 919.28 L114.839 919.28 L114.839 915.344 Z" fill="#000000" fill-rule="nonzero" fill-opacity="1" /><path clip-path="url(#clip660)" d="M164.607 900.692 Q160.996 900.692 159.167 904.257 Q157.362 907.798 157.362 914.928 Q157.362 922.034 159.167 925.599 Q160.996 929.141 164.607 929.141 Q168.241 929.141 170.047 925.599 Q171.876 922.034 171.876 914.928 Q171.876 907.798 170.047 904.257 Q168.241 900.692 164.607 900.692 M164.607 896.988 Q170.417 896.988 173.473 901.595 Q176.551 906.178 176.551 914.928 Q176.551 923.655 173.473 928.261 Q170.417 932.844 164.607 932.844 Q158.797 932.844 155.718 928.261 Q152.663 923.655 152.663 914.928 Q152.663 906.178 155.718 901.595 Q158.797 896.988 164.607 896.988 Z" fill="#000000" fill-rule="nonzero" fill-opacity="1" /><path clip-path="url(#clip660)" d="M184.769 926.293 L189.653 926.293 L189.653 932.173 L184.769 932.173 L184.769 926.293 Z" fill="#000000" fill-rule="nonzero" fill-opacity="1" /><path clip-path="url(#clip660)" d="M209.838 915.761 Q206.505 915.761 204.584 917.544 Q202.686 919.326 202.686 922.451 Q202.686 925.576 204.584 927.358 Q206.505 929.141 209.838 929.141 Q213.172 929.141 215.093 927.358 Q217.014 925.553 217.014 922.451 Q217.014 919.326 215.093 917.544 Q213.195 915.761 209.838 915.761 M205.162 913.77 Q202.153 913.03 200.463 910.97 Q198.797 908.909 198.797 905.946 Q198.797 901.803 201.737 899.395 Q204.699 896.988 209.838 896.988 Q215 896.988 217.94 899.395 Q220.88 901.803 220.88 905.946 Q220.88 908.909 219.19 910.97 Q217.523 913.03 214.537 913.77 Q217.917 914.557 219.792 916.849 Q221.69 919.141 221.69 922.451 Q221.69 927.474 218.611 930.159 Q215.556 932.844 209.838 932.844 Q204.121 932.844 201.042 930.159 Q197.987 927.474 197.987 922.451 Q197.987 919.141 199.885 916.849 Q201.783 914.557 205.162 913.77 M203.449 906.386 Q203.449 909.071 205.116 910.576 Q206.806 912.081 209.838 912.081 Q212.848 912.081 214.537 910.576 Q216.25 909.071 216.25 906.386 Q216.25 903.701 214.537 902.196 Q212.848 900.692 209.838 900.692 Q206.806 900.692 205.116 902.196 Q203.449 903.701 203.449 906.386 Z" fill="#000000" fill-rule="nonzero" fill-opacity="1" /><path clip-path="url(#clip660)" d="M114.584 717.98 L144.26 717.98 L144.26 721.915 L114.584 721.915 L114.584 717.98 Z" fill="#000000" fill-rule="nonzero" fill-opacity="1" /><path clip-path="url(#clip660)" d="M164.352 703.327 Q160.741 703.327 158.913 706.892 Q157.107 710.433 157.107 717.563 Q157.107 724.669 158.913 728.234 Q160.741 731.776 164.352 731.776 Q167.987 731.776 169.792 728.234 Q171.621 724.669 171.621 717.563 Q171.621 710.433 169.792 706.892 Q167.987 703.327 164.352 703.327 M164.352 699.623 Q170.163 699.623 173.218 704.23 Q176.297 708.813 176.297 717.563 Q176.297 726.29 173.218 730.896 Q170.163 735.479 164.352 735.479 Q158.542 735.479 155.464 730.896 Q152.408 726.29 152.408 717.563 Q152.408 708.813 155.464 704.23 Q158.542 699.623 164.352 699.623 Z" fill="#000000" fill-rule="nonzero" fill-opacity="1" /><path clip-path="url(#clip660)" d="M184.514 728.929 L189.399 728.929 L189.399 734.808 L184.514 734.808 L184.514 728.929 Z" fill="#000000" fill-rule="nonzero" fill-opacity="1" /><path clip-path="url(#clip660)" d="M210.162 715.665 Q207.014 715.665 205.162 717.818 Q203.334 719.97 203.334 723.72 Q203.334 727.447 205.162 729.623 Q207.014 731.776 210.162 731.776 Q213.311 731.776 215.139 729.623 Q216.991 727.447 216.991 723.72 Q216.991 719.97 215.139 717.818 Q213.311 715.665 210.162 715.665 M219.445 701.012 L219.445 705.271 Q217.686 704.438 215.88 703.998 Q214.098 703.558 212.338 703.558 Q207.709 703.558 205.255 706.683 Q202.824 709.808 202.477 716.128 Q203.843 714.114 205.903 713.049 Q207.963 711.961 210.44 711.961 Q215.649 711.961 218.658 715.132 Q221.69 718.28 221.69 723.72 Q221.69 729.044 218.542 732.262 Q215.394 735.479 210.162 735.479 Q204.167 735.479 200.996 730.896 Q197.825 726.29 197.825 717.563 Q197.825 709.369 201.713 704.507 Q205.602 699.623 212.153 699.623 Q213.912 699.623 215.695 699.97 Q217.5 700.318 219.445 701.012 Z" fill="#000000" fill-rule="nonzero" fill-opacity="1" /><path clip-path="url(#clip660)" d="M114.26 520.615 L143.936 520.615 L143.936 524.55 L114.26 524.55 L114.26 520.615 Z" fill="#000000" fill-rule="nonzero" fill-opacity="1" /><path clip-path="url(#clip660)" d="M164.028 505.962 Q160.417 505.962 158.589 509.527 Q156.783 513.068 156.783 520.198 Q156.783 527.304 158.589 530.869 Q160.417 534.411 164.028 534.411 Q167.663 534.411 169.468 530.869 Q171.297 527.304 171.297 520.198 Q171.297 513.068 169.468 509.527 Q167.663 505.962 164.028 505.962 M164.028 502.258 Q169.839 502.258 172.894 506.865 Q175.973 511.448 175.973 520.198 Q175.973 528.925 172.894 533.531 Q169.839 538.115 164.028 538.115 Q158.218 538.115 155.14 533.531 Q152.084 528.925 152.084 520.198 Q152.084 511.448 155.14 506.865 Q158.218 502.258 164.028 502.258 Z" fill="#000000" fill-rule="nonzero" fill-opacity="1" /><path clip-path="url(#clip660)" d="M184.19 531.564 L189.075 531.564 L189.075 537.443 L184.19 537.443 L184.19 531.564 Z" fill="#000000" fill-rule="nonzero" fill-opacity="1" /><path clip-path="url(#clip660)" d="M212.107 506.957 L200.301 525.406 L212.107 525.406 L212.107 506.957 M210.88 502.883 L216.76 502.883 L216.76 525.406 L221.69 525.406 L221.69 529.295 L216.76 529.295 L216.76 537.443 L212.107 537.443 L212.107 529.295 L196.505 529.295 L196.505 524.781 L210.88 502.883 Z" fill="#000000" fill-rule="nonzero" fill-opacity="1" /><path clip-path="url(#clip660)" d="M116.343 323.25 L146.019 323.25 L146.019 327.185 L116.343 327.185 L116.343 323.25 Z" fill="#000000" fill-rule="nonzero" fill-opacity="1" /><path clip-path="url(#clip660)" d="M166.112 308.597 Q162.501 308.597 160.672 312.162 Q158.866 315.704 158.866 322.833 Q158.866 329.94 160.672 333.504 Q162.501 337.046 166.112 337.046 Q169.746 337.046 171.552 333.504 Q173.38 329.94 173.38 322.833 Q173.38 315.704 171.552 312.162 Q169.746 308.597 166.112 308.597 M166.112 304.893 Q171.922 304.893 174.977 309.5 Q178.056 314.083 178.056 322.833 Q178.056 331.56 174.977 336.166 Q171.922 340.75 166.112 340.75 Q160.302 340.75 157.223 336.166 Q154.167 331.56 154.167 322.833 Q154.167 314.083 157.223 309.5 Q160.302 304.893 166.112 304.893 Z" fill="#000000" fill-rule="nonzero" fill-opacity="1" /><path clip-path="url(#clip660)" d="M186.274 334.199 L191.158 334.199 L191.158 340.078 L186.274 340.078 L186.274 334.199 Z" fill="#000000" fill-rule="nonzero" fill-opacity="1" /><path clip-path="url(#clip660)" d="M205.371 336.143 L221.69 336.143 L221.69 340.078 L199.746 340.078 L199.746 336.143 Q202.408 333.389 206.991 328.759 Q211.598 324.106 212.778 322.764 Q215.024 320.241 215.903 318.504 Q216.806 316.745 216.806 315.055 Q216.806 312.301 214.861 310.565 Q212.94 308.829 209.838 308.829 Q207.639 308.829 205.186 309.592 Q202.755 310.356 199.977 311.907 L199.977 307.185 Q202.801 306.051 205.255 305.472 Q207.709 304.893 209.746 304.893 Q215.116 304.893 218.311 307.579 Q221.505 310.264 221.505 314.754 Q221.505 316.884 220.695 318.805 Q219.908 320.703 217.801 323.296 Q217.223 323.967 214.121 327.185 Q211.019 330.379 205.371 336.143 Z" fill="#000000" fill-rule="nonzero" fill-opacity="1" /><path clip-path="url(#clip660)" d="M164.515 111.232 Q160.903 111.232 159.075 114.797 Q157.269 118.339 157.269 125.468 Q157.269 132.575 159.075 136.139 Q160.903 139.681 164.515 139.681 Q168.149 139.681 169.954 136.139 Q171.783 132.575 171.783 125.468 Q171.783 118.339 169.954 114.797 Q168.149 111.232 164.515 111.232 M164.515 107.528 Q170.325 107.528 173.38 112.135 Q176.459 116.718 176.459 125.468 Q176.459 134.195 173.38 138.801 Q170.325 143.385 164.515 143.385 Q158.704 143.385 155.626 138.801 Q152.57 134.195 152.57 125.468 Q152.57 116.718 155.626 112.135 Q158.704 107.528 164.515 107.528 Z" fill="#000000" fill-rule="nonzero" fill-opacity="1" /><path clip-path="url(#clip660)" d="M184.676 136.834 L189.561 136.834 L189.561 142.713 L184.676 142.713 L184.676 136.834 Z" fill="#000000" fill-rule="nonzero" fill-opacity="1" /><path clip-path="url(#clip660)" d="M209.746 111.232 Q206.135 111.232 204.306 114.797 Q202.5 118.339 202.5 125.468 Q202.5 132.575 204.306 136.139 Q206.135 139.681 209.746 139.681 Q213.38 139.681 215.186 136.139 Q217.014 132.575 217.014 125.468 Q217.014 118.339 215.186 114.797 Q213.38 111.232 209.746 111.232 M209.746 107.528 Q215.556 107.528 218.611 112.135 Q221.69 116.718 221.69 125.468 Q221.69 134.195 218.611 138.801 Q215.556 143.385 209.746 143.385 Q203.936 143.385 200.857 138.801 Q197.801 134.195 197.801 125.468 Q197.801 116.718 200.857 112.135 Q203.936 107.528 209.746 107.528 Z" fill="#000000" fill-rule="nonzero" fill-opacity="1" /><path clip-path="url(#clip660)" d="M30.8561 720.775 Q31.307 720.775 32.3698 721.064 L57.5548 727.377 Q63.1586 728.762 67.0877 733.27 Q71.0168 737.747 71.0168 742.836 Q71.0168 745.895 69.3743 747.86 Q67.764 749.824 65.2842 749.824 Q63.0942 749.824 62.0314 748.665 Q61.0008 747.505 61.0008 746.121 Q61.0008 745.67 61.1296 745.187 Q61.2584 744.703 61.8059 744.188 Q62.3534 743.673 63.2874 743.673 Q64.8011 743.673 65.9927 744.993 Q66.5402 745.637 66.669 746.249 Q66.7978 746.829 66.7978 747.827 Q67.6996 747.441 68.3115 746.732 Q68.9234 746.024 69.1489 745.219 Q69.4065 744.414 69.4709 743.898 Q69.5675 743.351 69.5675 742.836 Q69.5675 738.713 65.413 735.557 Q64.157 734.623 62.9009 733.947 Q61.6771 733.238 60.1634 732.723 Q58.682 732.208 57.8768 731.982 Q57.0717 731.725 55.2359 731.274 Q58.2311 734.269 58.2311 737.94 Q58.2311 739.486 57.8124 740.871 Q57.3937 742.224 56.5242 743.415 Q55.6224 744.607 54.0443 745.315 Q52.4662 745.992 50.3728 745.992 Q48.1506 745.992 45.1233 745.122 Q42.0959 744.253 36.5243 742.159 Q33.4004 741.032 31.8867 741.032 Q31.146 741.032 30.6951 741.193 Q30.212 741.354 30.051 741.676 Q29.8577 741.998 29.8255 742.191 Q29.7933 742.352 29.7933 742.675 Q29.7933 744.575 31.7257 746.346 Q33.658 748.117 37.9736 749.341 Q38.7787 749.599 38.972 749.76 Q39.1652 749.921 39.1652 750.404 Q39.133 751.209 38.4889 751.209 Q38.2312 751.209 37.2329 750.919 Q36.2023 750.629 34.6886 749.953 Q33.1427 749.245 31.7579 748.278 Q30.3408 747.312 29.3424 745.798 Q28.344 744.253 28.344 742.481 Q28.344 740.066 29.9221 738.584 Q31.468 737.071 33.7546 737.071 Q34.6886 737.071 35.5259 737.328 Q36.3311 737.554 38.4889 738.391 Q47.1845 741.773 51.4356 741.773 Q52.4662 741.773 53.3358 741.612 Q54.1731 741.418 55.0105 741 Q55.8156 740.581 56.2987 739.744 Q56.7496 738.874 56.7496 737.683 Q56.7496 736.169 56.0411 734.752 Q55.3003 733.303 54.302 732.401 Q53.3036 731.467 52.4662 730.919 Q51.5967 730.34 51.1458 730.211 L39.294 727.248 L34.0123 725.927 Q31.146 725.316 30.4374 725.026 Q29.7611 724.639 29.4068 723.963 Q29.0526 723.287 29.0526 722.707 Q29.0526 721.902 29.5357 721.354 Q30.0187 720.775 30.8561 720.775 Z" fill="#000000" fill-rule="nonzero" fill-opacity="1" /><polyline clip-path="url(#clip662)" style="stroke:#ff7e0d; stroke-linecap:round; stroke-linejoin:round; stroke-width:8; stroke-opacity:1; fill:none" stroke-dasharray="32, 20" points="316.984,125.433 320.845,205.924 324.705,254.209 328.565,269.994 332.426,270.006 336.286,311.821 340.146,238.504 344.007,171.734 347.867,86.1857 351.727,148.619 355.588,142.544 359.448,101.092 363.308,201.769 367.168,268.927 371.029,205.915 374.889,179.838 378.749,141.243 382.61,145.341 386.47,88.8712 390.33,144.678 394.191,130.877 398.051,146.597 401.911,261.156 405.772,143.39 409.632,256.587 413.492,300.765 417.352,309.799 421.213,287.863 425.073,299.797 428.933,297.654 432.794,372.793 436.654,410.425 440.514,416.128 444.375,411.811 448.235,311.882 452.095,301.839 455.956,344.906 459.816,328.832 463.676,358.998 467.536,447.758 471.397,487.4 475.257,423.579 479.117,433.366 482.978,433.57 486.838,424.55 490.698,454.255 494.559,437.155 498.419,412.008 502.279,410.458 506.139,397.676 510,329.937 513.86,387.899 517.72,390.409 521.581,334.957 525.441,332.715 529.301,397.284 533.162,409.997 537.022,361.869 540.882,383.046 544.743,392.975 548.603,379.275 552.463,411.643 556.323,462.441 560.184,519.574 564.044,551.411 567.904,532.995 571.765,540.328 575.625,482.434 579.485,521.488 583.346,498.174 587.206,520.742 591.066,623.906 594.927,611.791 598.787,611.253 602.647,647.583 606.507,573.481 610.368,614.282 614.228,680.691 618.088,660.18 621.949,764.817 625.809,816.195 629.669,849.753 633.53,841.216 637.39,887.017 641.25,925.167 645.111,878.837 648.971,837.559 652.831,869.115 656.691,814.799 660.552,848.076 664.412,799.208 668.272,764.706 672.133,747.023 675.993,758.984 679.853,771.045 683.714,742.225 687.574,801.62 691.434,840.816 695.295,819.009 699.155,836.471 703.015,846.191 706.875,812.783 710.736,861.361 714.596,849.3 718.456,843.419 722.317,902.192 726.177,955.546 730.037,934.298 733.898,966.483 737.758,966.29 741.618,894.057 745.479,827.399 749.339,733.116 753.199,725.04 757.059,697.646 760.92,688.046 764.78,643.837 768.64,584.101 772.501,653.217 776.361,714.381 780.221,743.36 784.082,772.591 787.942,703.244 791.802,637.348 795.663,608.092 799.523,625.688 803.383,627.981 807.243,573.579 811.104,601.978 814.964,582.63 818.824,577.999 822.685,516.13 826.545,522.897 830.405,506.916 834.266,550.815 838.126,516.645 841.986,407.395 845.846,376.613 849.707,479.104 853.567,456.824 857.427,429.892 861.288,420.108 865.148,402.39 869.008,386.498 872.869,408.864 876.729,373.974 880.589,457.044 884.45,467.351 888.31,487.368 892.17,407.048 896.03,470.33 899.891,411.35 903.751,412.092 907.611,447.309 911.472,445.568 915.332,393.419 919.192,371.32 923.053,420.711 926.913,463.489 930.773,449.181 934.634,447.532 938.494,476.135 942.354,421.326 946.214,401.605 950.075,433.763 953.935,524.283 957.795,563.214 961.656,538.862 965.516,471.162 969.376,500.495 973.237,519.693 977.097,556.267 980.957,586.075 984.818,569.68 988.678,598.101 992.538,582.273 996.398,588.335 1000.26,630.844 1004.12,695.96 1007.98,756.68 1011.84,706.429 1015.7,700.448 1019.56,684.984 1023.42,646.313 1027.28,658.756 1031.14,707.39 1035,736.974 1038.86,612.233 1042.72,667.167 1046.58,733.24 1050.44,684.781 1054.3,701.517 1058.16,666.586 1062.02,654.979 1065.88,691.914 1069.74,620.242 1073.6,578.89 1077.46,594.441 1081.33,626.85 1085.19,638.404 1089.05,605.917 1092.91,554.415 1096.77,620.177 1100.63,552.244 1104.49,534.987 1108.35,497.996 1112.21,501.615 1116.07,462.022 1119.93,538.636 1123.79,590.978 1127.65,584.575 1131.51,697.502 1135.37,637.172 1139.23,629.091 1143.09,609.704 1146.95,568.334 1150.81,563.632 1154.67,571.646 1158.53,561.367 1162.39,624.675 1166.25,668.721 1170.11,602.143 1173.97,553.841 1177.83,568.686 1181.69,616.244 1185.55,724.624 1189.41,748.466 1193.27,800.776 1197.13,727.772 1200.99,610.097 1204.86,567.502 1208.72,564.097 1212.58,566.547 1216.44,598.666 1220.3,599.041 1224.16,687.891 1228.02,713.372 1231.88,677.526 1235.74,714.444 1239.6,724.7 1243.46,708.541 1247.32,744.576 1251.18,795.926 1255.04,789.269 1258.9,876.913 1262.76,793.188 1266.62,786.873 1270.48,720.75 1274.34,730.868 1278.2,698.353 1282.06,671.509 1285.92,750.242 1289.78,769.13 1293.64,808.741 1297.5,760.384 1301.36,835.717 1305.22,752.874 1309.08,733.273 1312.94,792.124 1316.8,805.143 1320.66,855.943 1324.52,784.969 1328.38,751.881 1332.25,691.501 1336.11,764.898 1339.97,782.914 1343.83,723.903 1347.69,742.473 1351.55,804.2 1355.41,858.837 1359.27,905.155 1363.13,972.582 1366.99,994.039 1370.85,900.314 1374.71,985.158 1378.57,1005.87 1382.43,1064.23 1386.29,1060.95 1390.15,1080.02 1394.01,1068.64 1397.87,1092.93 1401.73,1101.49 1405.59,1109.28 1409.45,1084.36 1413.31,1040.81 1417.17,1042.28 1421.03,1018.9 1424.89,1047.72 1428.75,980.686 1432.61,898.23 1436.47,916.584 1440.33,888.11 1444.19,893.869 1448.05,930.687 1451.91,911.258 1455.77,890.098 1459.64,939.786 1463.5,932.747 1467.36,918.054 1471.22,892.284 1475.08,853.694 1478.94,902.97 1482.8,895.182 1486.66,879.823 1490.52,919.066 1494.38,893.323 1498.24,878.599 1502.1,893.896 1505.96,902.045 1509.82,903.401 1513.68,894.1 1517.54,923.932 1521.4,948.891 1525.26,972.091 1529.12,1018.54 1532.98,985.24 1536.84,948.966 1540.7,1020.39 1544.56,1004.47 1548.42,944.261 1552.28,939.748 1556.14,949.815 1560,957.897 1563.86,972.505 1567.72,1001.17 1571.58,1061.91 1575.44,1022.8 1579.3,1026.64 1583.17,988.312 1587.03,953.912 1590.89,1015.76 1594.75,1016.55 1598.61,1031.68 1602.47,1049.01 1606.33,1078.96 1610.19,1110.54 1614.05,1128.37 1617.91,1106.82 1621.77,1199.48 1625.63,1122.97 1629.49,1088.67 1633.35,1043.67 1637.21,1013.01 1641.07,1032.24 1644.93,1017.53 1648.79,971.503 1652.65,986.835 1656.51,979.158 1660.37,966.436 1664.23,978.415 1668.09,973.237 1671.95,958.65 1675.81,907.178 1679.67,901.714 1683.53,917.7 1687.39,972.975 1691.25,944.087 1695.11,929.744 1698.97,929.925 1702.83,913.821 1706.69,884.356 1710.56,838.246 1714.42,835.777 1718.28,849.84 1722.14,873.426 1726,818.916 1729.86,861.618 1733.72,818.741 1737.58,891.216 1741.44,827.601 1745.3,876.146 1749.16,913.082 1753.02,876.099 1756.88,808.933 1760.74,830.549 1764.6,814.588 1768.46,818.092 1772.32,811.291 1776.18,802.587 1780.04,833.621 1783.9,759.084 1787.76,801.751 1791.62,746.558 1795.48,736.831 1799.34,729.41 1803.2,689.547 1807.06,646.311 1810.92,632.309 1814.78,573.15 1818.64,602.175 1822.5,591.173 1826.36,672.016 1830.22,659.54 1834.09,593.636 1837.95,604.985 1841.81,581.139 1845.67,589.072 1849.53,582.759 1853.39,519.28 1857.25,555.117 1861.11,585.977 1864.97,552.622 1868.83,593.253 1872.69,616.682 1876.55,673.394 1880.41,760.816 1884.27,780.004 1888.13,705.587 1891.99,715.507 1895.85,654.729 1899.71,708.49 1903.57,680.299 1907.43,667.769 1911.29,612.261 1915.15,583.455 1919.01,566.913 1922.87,636.139 1926.73,639.092 1930.59,747.239 1934.45,708.511 1938.31,662.068 1942.17,650.468 1946.03,718.669 1949.89,763.243 1953.75,763.779 1957.61,756.625 1961.48,775.48 1965.34,842.666 1969.2,860.955 1973.06,868.811 1976.92,855.893 1980.78,926.842 1984.64,948.046 1988.5,963.533 1992.36,973.298 1996.22,999.024 2000.08,1075.63 2003.94,1089.8 2007.8,1079.12 2011.66,1093.66 2015.52,1098.72 2019.38,1124.19 2023.24,1073.86 2027.1,1067.01 2030.96,1104.87 2034.82,1137.51 2038.68,1197.75 2042.54,1219.08 2046.4,1189.8 2050.26,1229.92 2054.12,1272.37 2057.98,1293.72 2061.84,1292.16 2065.7,1304.89 2069.56,1375.78 2073.42,1346.78 2077.28,1321.53 2081.14,1275.01 2085.01,1281.51 2088.87,1328.57 2092.73,1355.16 2096.59,1384.24 2100.45,1312.16 2104.31,1308.8 2108.17,1213.87 2112.03,1274.06 2115.89,1201.2 2119.75,1220.57 2123.61,1216.86 2127.47,1200.15 2131.33,1253.52 2135.19,1210.7 2139.05,1232.08 2142.91,1176.82 2146.77,1206.71 2150.63,1173.32 2154.49,1152.1 2158.35,1120.51 2162.21,1136.61 2166.07,1153.67 2169.93,1120.73 2173.79,1058.67 2177.65,1044.13 2181.51,1145.86 2185.37,1069.83 2189.23,1113.28 2193.09,1159.52 2196.95,1057.58 2200.81,1061.48 2204.67,1022.85 2208.53,1048.47 2212.4,1090.64 2216.26,1176.92 2220.12,1200.46 2223.98,1188 2227.84,1121.21 2231.7,1129.23 2235.56,1106.47 2239.42,1040.01 2243.28,1040.21 2247.14,1016.15 2251,994.997 2254.86,1015.49 2258.72,1022.74 2262.58,1036.93 2266.44,1056.77 2270.3,1141.53 2274.16,1166.37 2278.02,1179.68 2281.88,1175.21 2285.74,1192.46 2289.6,1164.75 2293.46,1155.06 "/>
<path clip-path="url(#clip660)" d="M1769.48 196.789 L2282.92 196.789 L2282.92 93.1086 L1769.48 93.1086  Z" fill="#ffffff" fill-rule="evenodd" fill-opacity="1"/>
<polyline clip-path="url(#clip660)" style="stroke:#000000; stroke-linecap:round; stroke-linejoin:round; stroke-width:4; stroke-opacity:1; fill:none" points="1769.48,196.789 2282.92,196.789 2282.92,93.1086 1769.48,93.1086 1769.48,196.789 "/>
<polyline clip-path="url(#clip660)" style="stroke:#ff7e0d; stroke-linecap:round; stroke-linejoin:round; stroke-width:8; stroke-opacity:1; fill:none" stroke-dasharray="32, 20" points="1792.76,144.949 1932.43,144.949 "/>
<path clip-path="url(#clip660)" d="M1955.71 127.669 L1960.43 127.669 L1967.7 156.881 L1974.94 127.669 L1980.2 127.669 L1987.47 156.881 L1994.71 127.669 L1999.46 127.669 L1990.78 162.229 L1984.9 162.229 L1977.61 132.229 L1970.25 162.229 L1964.37 162.229 L1955.71 127.669 Z" fill="#000000" fill-rule="nonzero" fill-opacity="1" /><path clip-path="url(#clip660)" d="M2004.43 136.303 L2008.69 136.303 L2008.69 162.229 L2004.43 162.229 L2004.43 136.303 M2004.43 126.21 L2008.69 126.21 L2008.69 131.604 L2004.43 131.604 L2004.43 126.21 Z" fill="#000000" fill-rule="nonzero" fill-opacity="1" /><path clip-path="url(#clip660)" d="M2039.78 148.201 L2039.78 150.284 L2020.2 150.284 Q2020.48 154.682 2022.84 156.997 Q2025.22 159.289 2029.46 159.289 Q2031.91 159.289 2034.2 158.687 Q2036.52 158.085 2038.79 156.881 L2038.79 160.909 Q2036.49 161.881 2034.09 162.391 Q2031.68 162.9 2029.2 162.9 Q2023 162.9 2019.37 159.289 Q2015.75 155.678 2015.75 149.52 Q2015.75 143.155 2019.18 139.428 Q2022.63 135.678 2028.46 135.678 Q2033.69 135.678 2036.73 139.057 Q2039.78 142.414 2039.78 148.201 M2035.52 146.951 Q2035.48 143.456 2033.56 141.372 Q2031.66 139.289 2028.51 139.289 Q2024.94 139.289 2022.79 141.303 Q2020.66 143.317 2020.34 146.974 L2035.52 146.951 Z" fill="#000000" fill-rule="nonzero" fill-opacity="1" /><path clip-path="url(#clip660)" d="M2068.32 146.581 L2068.32 162.229 L2064.06 162.229 L2064.06 146.719 Q2064.06 143.039 2062.63 141.21 Q2061.19 139.382 2058.32 139.382 Q2054.87 139.382 2052.88 141.581 Q2050.89 143.78 2050.89 147.576 L2050.89 162.229 L2046.61 162.229 L2046.61 136.303 L2050.89 136.303 L2050.89 140.331 Q2052.42 137.993 2054.48 136.835 Q2056.56 135.678 2059.27 135.678 Q2063.74 135.678 2066.03 138.456 Q2068.32 141.21 2068.32 146.581 Z" fill="#000000" fill-rule="nonzero" fill-opacity="1" /><path clip-path="url(#clip660)" d="M2098.99 148.201 L2098.99 150.284 L2079.41 150.284 Q2079.69 154.682 2082.05 156.997 Q2084.43 159.289 2088.67 159.289 Q2091.12 159.289 2093.42 158.687 Q2095.73 158.085 2098 156.881 L2098 160.909 Q2095.71 161.881 2093.3 162.391 Q2090.89 162.9 2088.42 162.9 Q2082.21 162.9 2078.58 159.289 Q2074.97 155.678 2074.97 149.52 Q2074.97 143.155 2078.39 139.428 Q2081.84 135.678 2087.68 135.678 Q2092.91 135.678 2095.94 139.057 Q2098.99 142.414 2098.99 148.201 M2094.74 146.951 Q2094.69 143.456 2092.77 141.372 Q2090.87 139.289 2087.72 139.289 Q2084.16 139.289 2082 141.303 Q2079.87 143.317 2079.55 146.974 L2094.74 146.951 Z" fill="#000000" fill-rule="nonzero" fill-opacity="1" /><path clip-path="url(#clip660)" d="M2121.01 140.284 Q2120.29 139.868 2119.43 139.682 Q2118.6 139.474 2117.58 139.474 Q2113.97 139.474 2112.03 141.835 Q2110.11 144.173 2110.11 148.571 L2110.11 162.229 L2105.82 162.229 L2105.82 136.303 L2110.11 136.303 L2110.11 140.331 Q2111.45 137.969 2113.6 136.835 Q2115.75 135.678 2118.83 135.678 Q2119.27 135.678 2119.8 135.747 Q2120.34 135.794 2120.99 135.909 L2121.01 140.284 Z" fill="#000000" fill-rule="nonzero" fill-opacity="1" /><path clip-path="url(#clip660)" d="M2162.1 146.581 L2162.1 162.229 L2157.84 162.229 L2157.84 146.719 Q2157.84 143.039 2156.4 141.21 Q2154.97 139.382 2152.1 139.382 Q2148.65 139.382 2146.66 141.581 Q2144.67 143.78 2144.67 147.576 L2144.67 162.229 L2140.38 162.229 L2140.38 136.303 L2144.67 136.303 L2144.67 140.331 Q2146.19 137.993 2148.25 136.835 Q2150.34 135.678 2153.05 135.678 Q2157.51 135.678 2159.8 138.456 Q2162.1 141.21 2162.1 146.581 Z" fill="#000000" fill-rule="nonzero" fill-opacity="1" /><path clip-path="url(#clip660)" d="M2180.64 139.289 Q2177.21 139.289 2175.22 141.974 Q2173.23 144.636 2173.23 149.289 Q2173.23 153.942 2175.2 156.627 Q2177.19 159.289 2180.64 159.289 Q2184.04 159.289 2186.03 156.604 Q2188.02 153.918 2188.02 149.289 Q2188.02 144.682 2186.03 141.997 Q2184.04 139.289 2180.64 139.289 M2180.64 135.678 Q2186.19 135.678 2189.36 139.289 Q2192.54 142.9 2192.54 149.289 Q2192.54 155.655 2189.36 159.289 Q2186.19 162.9 2180.64 162.9 Q2175.06 162.9 2171.89 159.289 Q2168.74 155.655 2168.74 149.289 Q2168.74 142.9 2171.89 139.289 Q2175.06 135.678 2180.64 135.678 Z" fill="#000000" fill-rule="nonzero" fill-opacity="1" /><path clip-path="url(#clip660)" d="M2199.6 136.303 L2203.86 136.303 L2203.86 162.229 L2199.6 162.229 L2199.6 136.303 M2199.6 126.21 L2203.86 126.21 L2203.86 131.604 L2199.6 131.604 L2199.6 126.21 Z" fill="#000000" fill-rule="nonzero" fill-opacity="1" /><path clip-path="url(#clip660)" d="M2229.29 137.067 L2229.29 141.094 Q2227.49 140.169 2225.54 139.706 Q2223.6 139.243 2221.52 139.243 Q2218.35 139.243 2216.75 140.215 Q2215.17 141.187 2215.17 143.131 Q2215.17 144.613 2216.31 145.469 Q2217.44 146.303 2220.87 147.067 L2222.33 147.391 Q2226.86 148.363 2228.76 150.145 Q2230.68 151.905 2230.68 155.076 Q2230.68 158.687 2227.81 160.793 Q2224.97 162.9 2219.97 162.9 Q2217.88 162.9 2215.61 162.483 Q2213.37 162.09 2210.87 161.28 L2210.87 156.881 Q2213.23 158.108 2215.52 158.733 Q2217.81 159.335 2220.06 159.335 Q2223.07 159.335 2224.69 158.317 Q2226.31 157.275 2226.31 155.4 Q2226.31 153.664 2225.13 152.738 Q2223.97 151.812 2220.01 150.956 L2218.53 150.608 Q2214.57 149.775 2212.81 148.062 Q2211.05 146.326 2211.05 143.317 Q2211.05 139.659 2213.65 137.669 Q2216.24 135.678 2221.01 135.678 Q2223.37 135.678 2225.45 136.025 Q2227.54 136.372 2229.29 137.067 Z" fill="#000000" fill-rule="nonzero" fill-opacity="1" /><path clip-path="url(#clip660)" d="M2259.64 148.201 L2259.64 150.284 L2240.06 150.284 Q2240.34 154.682 2242.7 156.997 Q2245.08 159.289 2249.32 159.289 Q2251.77 159.289 2254.06 158.687 Q2256.38 158.085 2258.65 156.881 L2258.65 160.909 Q2256.35 161.881 2253.95 162.391 Q2251.54 162.9 2249.06 162.9 Q2242.86 162.9 2239.23 159.289 Q2235.61 155.678 2235.61 149.52 Q2235.61 143.155 2239.04 139.428 Q2242.49 135.678 2248.32 135.678 Q2253.55 135.678 2256.59 139.057 Q2259.64 142.414 2259.64 148.201 M2255.38 146.951 Q2255.34 143.456 2253.42 141.372 Q2251.52 139.289 2248.37 139.289 Q2244.8 139.289 2242.65 141.303 Q2240.52 143.317 2240.2 146.974 L2255.38 146.951 Z" fill="#000000" fill-rule="nonzero" fill-opacity="1" /></svg>
