<?xml version="1.0" encoding="utf-8"?>
<svg xmlns="http://www.w3.org/2000/svg" xmlns:xlink="http://www.w3.org/1999/xlink" width="600" height="400" viewBox="0 0 2400 1600">
<defs>
  <clipPath id="clip160">
    <rect x="0" y="0" width="2400" height="1600"/>
  </clipPath>
</defs>
<path clip-path="url(#clip160)" d="M0 1600 L2400 1600 L2400 0 L0 0  Z" fill="#ffffff" fill-rule="evenodd" fill-opacity="1"/>
<defs>
  <clipPath id="clip161">
    <rect x="480" y="0" width="1681" height="1600"/>
  </clipPath>
</defs>
<path clip-path="url(#clip160)" d="M210.746 1423.18 L2352.76 1423.18 L2352.76 47.2441 L210.746 47.2441  Z" fill="#ffffff" fill-rule="evenodd" fill-opacity="1"/>
<defs>
  <clipPath id="clip162">
    <rect x="210" y="47" width="2143" height="1377"/>
  </clipPath>
</defs>
<polyline clip-path="url(#clip162)" style="stroke:#000000; stroke-linecap:round; stroke-linejoin:round; stroke-width:2; stroke-opacity:0.1; fill:none" points="271.369,1423.18 271.369,47.2441 "/>
<polyline clip-path="url(#clip162)" style="stroke:#000000; stroke-linecap:round; stroke-linejoin:round; stroke-width:2; stroke-opacity:0.1; fill:none" points="776.56,1423.18 776.56,47.2441 "/>
<polyline clip-path="url(#clip162)" style="stroke:#000000; stroke-linecap:round; stroke-linejoin:round; stroke-width:2; stroke-opacity:0.1; fill:none" points="1281.75,1423.18 1281.75,47.2441 "/>
<polyline clip-path="url(#clip162)" style="stroke:#000000; stroke-linecap:round; stroke-linejoin:round; stroke-width:2; stroke-opacity:0.1; fill:none" points="1786.94,1423.18 1786.94,47.2441 "/>
<polyline clip-path="url(#clip162)" style="stroke:#000000; stroke-linecap:round; stroke-linejoin:round; stroke-width:2; stroke-opacity:0.1; fill:none" points="2292.13,1423.18 2292.13,47.2441 "/>
<polyline clip-path="url(#clip160)" style="stroke:#000000; stroke-linecap:round; stroke-linejoin:round; stroke-width:4; stroke-opacity:1; fill:none" points="210.746,1423.18 2352.76,1423.18 "/>
<polyline clip-path="url(#clip160)" style="stroke:#000000; stroke-linecap:round; stroke-linejoin:round; stroke-width:4; stroke-opacity:1; fill:none" points="271.369,1423.18 271.369,1404.28 "/>
<polyline clip-path="url(#clip160)" style="stroke:#000000; stroke-linecap:round; stroke-linejoin:round; stroke-width:4; stroke-opacity:1; fill:none" points="776.56,1423.18 776.56,1404.28 "/>
<polyline clip-path="url(#clip160)" style="stroke:#000000; stroke-linecap:round; stroke-linejoin:round; stroke-width:4; stroke-opacity:1; fill:none" points="1281.75,1423.18 1281.75,1404.28 "/>
<polyline clip-path="url(#clip160)" style="stroke:#000000; stroke-linecap:round; stroke-linejoin:round; stroke-width:4; stroke-opacity:1; fill:none" points="1786.94,1423.18 1786.94,1404.28 "/>
<polyline clip-path="url(#clip160)" style="stroke:#000000; stroke-linecap:round; stroke-linejoin:round; stroke-width:4; stroke-opacity:1; fill:none" points="2292.13,1423.18 2292.13,1404.28 "/>
<path clip-path="url(#clip160)" d="M248.753 1454.1 Q245.142 1454.1 243.313 1457.66 Q241.508 1461.2 241.508 1468.33 Q241.508 1475.44 243.313 1479.01 Q245.142 1482.55 248.753 1482.55 Q252.387 1482.55 254.193 1479.01 Q256.022 1475.44 256.022 1468.33 Q256.022 1461.2 254.193 1457.66 Q252.387 1454.1 248.753 1454.1 M248.753 1450.39 Q254.563 1450.39 257.619 1455 Q260.698 1459.58 260.698 1468.33 Q260.698 1477.06 257.619 1481.67 Q254.563 1486.25 248.753 1486.25 Q242.943 1486.25 239.864 1481.67 Q236.809 1477.06 236.809 1468.33 Q236.809 1459.58 239.864 1455 Q242.943 1450.39 248.753 1450.39 Z" fill="#000000" fill-rule="nonzero" fill-opacity="1" /><path clip-path="url(#clip160)" d="M268.915 1479.7 L273.799 1479.7 L273.799 1485.58 L268.915 1485.58 L268.915 1479.7 Z" fill="#000000" fill-rule="nonzero" fill-opacity="1" /><path clip-path="url(#clip160)" d="M293.984 1454.1 Q290.373 1454.1 288.545 1457.66 Q286.739 1461.2 286.739 1468.33 Q286.739 1475.44 288.545 1479.01 Q290.373 1482.55 293.984 1482.55 Q297.619 1482.55 299.424 1479.01 Q301.253 1475.44 301.253 1468.33 Q301.253 1461.2 299.424 1457.66 Q297.619 1454.1 293.984 1454.1 M293.984 1450.39 Q299.795 1450.39 302.85 1455 Q305.929 1459.58 305.929 1468.33 Q305.929 1477.06 302.85 1481.67 Q299.795 1486.25 293.984 1486.25 Q288.174 1486.25 285.096 1481.67 Q282.04 1477.06 282.04 1468.33 Q282.04 1459.58 285.096 1455 Q288.174 1450.39 293.984 1450.39 Z" fill="#000000" fill-rule="nonzero" fill-opacity="1" /><path clip-path="url(#clip160)" d="M748.296 1481.64 L764.616 1481.64 L764.616 1485.58 L742.671 1485.58 L742.671 1481.64 Q745.333 1478.89 749.917 1474.26 Q754.523 1469.61 755.704 1468.27 Q757.949 1465.74 758.829 1464.01 Q759.731 1462.25 759.731 1460.56 Q759.731 1457.8 757.787 1456.07 Q755.866 1454.33 752.764 1454.33 Q750.565 1454.33 748.111 1455.09 Q745.68 1455.86 742.903 1457.41 L742.903 1452.69 Q745.727 1451.55 748.18 1450.97 Q750.634 1450.39 752.671 1450.39 Q758.041 1450.39 761.236 1453.08 Q764.43 1455.77 764.43 1460.26 Q764.43 1462.39 763.62 1464.31 Q762.833 1466.2 760.727 1468.8 Q760.148 1469.47 757.046 1472.69 Q753.944 1475.88 748.296 1481.64 Z" fill="#000000" fill-rule="nonzero" fill-opacity="1" /><path clip-path="url(#clip160)" d="M774.43 1479.7 L779.315 1479.7 L779.315 1485.58 L774.43 1485.58 L774.43 1479.7 Z" fill="#000000" fill-rule="nonzero" fill-opacity="1" /><path clip-path="url(#clip160)" d="M789.546 1451.02 L807.902 1451.02 L807.902 1454.96 L793.828 1454.96 L793.828 1463.43 Q794.847 1463.08 795.865 1462.92 Q796.884 1462.73 797.902 1462.73 Q803.689 1462.73 807.069 1465.9 Q810.449 1469.08 810.449 1474.49 Q810.449 1480.07 806.976 1483.17 Q803.504 1486.25 797.185 1486.25 Q795.009 1486.25 792.74 1485.88 Q790.495 1485.51 788.088 1484.77 L788.088 1480.07 Q790.171 1481.2 792.393 1481.76 Q794.615 1482.32 797.092 1482.32 Q801.097 1482.32 803.435 1480.21 Q805.773 1478.1 805.773 1474.49 Q805.773 1470.88 803.435 1468.77 Q801.097 1466.67 797.092 1466.67 Q795.217 1466.67 793.342 1467.08 Q791.49 1467.5 789.546 1468.38 L789.546 1451.02 Z" fill="#000000" fill-rule="nonzero" fill-opacity="1" /><path clip-path="url(#clip160)" d="M1248.92 1451.02 L1267.27 1451.02 L1267.27 1454.96 L1253.2 1454.96 L1253.2 1463.43 Q1254.22 1463.08 1255.23 1462.92 Q1256.25 1462.73 1257.27 1462.73 Q1263.06 1462.73 1266.44 1465.9 Q1269.82 1469.08 1269.82 1474.49 Q1269.82 1480.07 1266.35 1483.17 Q1262.87 1486.25 1256.55 1486.25 Q1254.38 1486.25 1252.11 1485.88 Q1249.86 1485.51 1247.46 1484.77 L1247.46 1480.07 Q1249.54 1481.2 1251.76 1481.76 Q1253.98 1482.32 1256.46 1482.32 Q1260.47 1482.32 1262.8 1480.21 Q1265.14 1478.1 1265.14 1474.49 Q1265.14 1470.88 1262.8 1468.77 Q1260.47 1466.67 1256.46 1466.67 Q1254.59 1466.67 1252.71 1467.08 Q1250.86 1467.5 1248.92 1468.38 L1248.92 1451.02 Z" fill="#000000" fill-rule="nonzero" fill-opacity="1" /><path clip-path="url(#clip160)" d="M1279.03 1479.7 L1283.92 1479.7 L1283.92 1485.58 L1279.03 1485.58 L1279.03 1479.7 Z" fill="#000000" fill-rule="nonzero" fill-opacity="1" /><path clip-path="url(#clip160)" d="M1304.1 1454.1 Q1300.49 1454.1 1298.66 1457.66 Q1296.86 1461.2 1296.86 1468.33 Q1296.86 1475.44 1298.66 1479.01 Q1300.49 1482.55 1304.1 1482.55 Q1307.73 1482.55 1309.54 1479.01 Q1311.37 1475.44 1311.37 1468.33 Q1311.37 1461.2 1309.54 1457.66 Q1307.73 1454.1 1304.1 1454.1 M1304.1 1450.39 Q1309.91 1450.39 1312.97 1455 Q1316.04 1459.58 1316.04 1468.33 Q1316.04 1477.06 1312.97 1481.67 Q1309.91 1486.25 1304.1 1486.25 Q1298.29 1486.25 1295.21 1481.67 Q1292.16 1477.06 1292.16 1468.33 Q1292.16 1459.58 1295.21 1455 Q1298.29 1450.39 1304.1 1450.39 Z" fill="#000000" fill-rule="nonzero" fill-opacity="1" /><path clip-path="url(#clip160)" d="M1753.26 1451.02 L1775.48 1451.02 L1775.48 1453.01 L1762.94 1485.58 L1758.05 1485.58 L1769.86 1454.96 L1753.26 1454.96 L1753.26 1451.02 Z" fill="#000000" fill-rule="nonzero" fill-opacity="1" /><path clip-path="url(#clip160)" d="M1784.6 1479.7 L1789.49 1479.7 L1789.49 1485.58 L1784.6 1485.58 L1784.6 1479.7 Z" fill="#000000" fill-rule="nonzero" fill-opacity="1" /><path clip-path="url(#clip160)" d="M1799.72 1451.02 L1818.08 1451.02 L1818.08 1454.96 L1804 1454.96 L1804 1463.43 Q1805.02 1463.08 1806.04 1462.92 Q1807.06 1462.73 1808.08 1462.73 Q1813.86 1462.73 1817.24 1465.9 Q1820.62 1469.08 1820.62 1474.49 Q1820.62 1480.07 1817.15 1483.17 Q1813.68 1486.25 1807.36 1486.25 Q1805.18 1486.25 1802.91 1485.88 Q1800.67 1485.51 1798.26 1484.77 L1798.26 1480.07 Q1800.34 1481.2 1802.57 1481.76 Q1804.79 1482.32 1807.27 1482.32 Q1811.27 1482.32 1813.61 1480.21 Q1815.95 1478.1 1815.95 1474.49 Q1815.95 1470.88 1813.61 1468.77 Q1811.27 1466.67 1807.27 1466.67 Q1805.39 1466.67 1803.52 1467.08 Q1801.66 1467.5 1799.72 1468.38 L1799.72 1451.02 Z" fill="#000000" fill-rule="nonzero" fill-opacity="1" /><path clip-path="url(#clip160)" d="M2244.2 1481.64 L2251.84 1481.64 L2251.84 1455.28 L2243.53 1456.95 L2243.53 1452.69 L2251.8 1451.02 L2256.47 1451.02 L2256.47 1481.64 L2264.11 1481.64 L2264.11 1485.58 L2244.2 1485.58 L2244.2 1481.64 Z" fill="#000000" fill-rule="nonzero" fill-opacity="1" /><path clip-path="url(#clip160)" d="M2283.56 1454.1 Q2279.95 1454.1 2278.12 1457.66 Q2276.31 1461.2 2276.31 1468.33 Q2276.31 1475.44 2278.12 1479.01 Q2279.95 1482.55 2283.56 1482.55 Q2287.19 1482.55 2289 1479.01 Q2290.83 1475.44 2290.83 1468.33 Q2290.83 1461.2 2289 1457.66 Q2287.19 1454.1 2283.56 1454.1 M2283.56 1450.39 Q2289.37 1450.39 2292.42 1455 Q2295.5 1459.58 2295.5 1468.33 Q2295.5 1477.06 2292.42 1481.67 Q2289.37 1486.25 2283.56 1486.25 Q2277.75 1486.25 2274.67 1481.67 Q2271.61 1477.06 2271.61 1468.33 Q2271.61 1459.58 2274.67 1455 Q2277.75 1450.39 2283.56 1450.39 Z" fill="#000000" fill-rule="nonzero" fill-opacity="1" /><path clip-path="url(#clip160)" d="M2303.72 1479.7 L2308.6 1479.7 L2308.6 1485.58 L2303.72 1485.58 L2303.72 1479.7 Z" fill="#000000" fill-rule="nonzero" fill-opacity="1" /><path clip-path="url(#clip160)" d="M2328.79 1454.1 Q2325.18 1454.1 2323.35 1457.66 Q2321.54 1461.2 2321.54 1468.33 Q2321.54 1475.44 2323.35 1479.01 Q2325.18 1482.55 2328.79 1482.55 Q2332.42 1482.55 2334.23 1479.01 Q2336.06 1475.44 2336.06 1468.33 Q2336.06 1461.2 2334.23 1457.66 Q2332.42 1454.1 2328.79 1454.1 M2328.79 1450.39 Q2334.6 1450.39 2337.65 1455 Q2340.73 1459.58 2340.73 1468.33 Q2340.73 1477.06 2337.65 1481.67 Q2334.6 1486.25 2328.79 1486.25 Q2322.98 1486.25 2319.9 1481.67 Q2316.84 1477.06 2316.84 1468.33 Q2316.84 1459.58 2319.9 1455 Q2322.98 1450.39 2328.79 1450.39 Z" fill="#000000" fill-rule="nonzero" fill-opacity="1" /><path clip-path="url(#clip160)" d="M1290.22 1531.91 Q1290.22 1532.81 1289.8 1533.04 Q1289.38 1533.23 1288.23 1533.23 L1282.04 1533.23 L1277.15 1552.69 Q1276.76 1554.39 1276.76 1555.84 Q1276.76 1557.45 1277.24 1558.16 Q1277.76 1558.87 1278.82 1558.87 Q1280.91 1558.87 1283.17 1556.97 Q1285.46 1555.07 1287.39 1550.43 Q1287.65 1549.82 1287.77 1549.69 Q1287.94 1549.53 1288.35 1549.53 Q1289.16 1549.53 1289.16 1550.17 Q1289.16 1550.4 1288.71 1551.43 Q1288.29 1552.46 1287.36 1553.97 Q1286.45 1555.49 1285.26 1556.9 Q1284.1 1558.32 1282.33 1559.35 Q1280.56 1560.35 1278.66 1560.35 Q1275.99 1560.35 1274.28 1558.64 Q1272.61 1556.94 1272.61 1554.26 Q1272.61 1553.39 1273.28 1550.62 Q1273.96 1547.82 1277.63 1533.23 L1271.8 1533.23 Q1271 1533.23 1270.67 1533.2 Q1270.38 1533.17 1270.16 1533.01 Q1269.96 1532.81 1269.96 1532.43 Q1269.96 1531.82 1270.22 1531.56 Q1270.48 1531.27 1270.8 1531.24 Q1271.16 1531.17 1271.96 1531.17 L1278.14 1531.17 L1280.72 1520.71 Q1280.98 1519.67 1281.62 1519.09 Q1282.3 1518.48 1282.69 1518.42 Q1283.07 1518.32 1283.36 1518.32 Q1284.23 1518.32 1284.75 1518.81 Q1285.26 1519.26 1285.26 1520.09 Q1285.26 1520.54 1282.56 1531.17 L1288.35 1531.17 Q1289.09 1531.17 1289.38 1531.2 Q1289.71 1531.24 1289.96 1531.4 Q1290.22 1531.56 1290.22 1531.91 Z" fill="#000000" fill-rule="nonzero" fill-opacity="1" /><polyline clip-path="url(#clip162)" style="stroke:#000000; stroke-linecap:round; stroke-linejoin:round; stroke-width:2; stroke-opacity:0.1; fill:none" points="210.746,1345.36 2352.76,1345.36 "/>
<polyline clip-path="url(#clip162)" style="stroke:#000000; stroke-linecap:round; stroke-linejoin:round; stroke-width:2; stroke-opacity:0.1; fill:none" points="210.746,1135.49 2352.76,1135.49 "/>
<polyline clip-path="url(#clip162)" style="stroke:#000000; stroke-linecap:round; stroke-linejoin:round; stroke-width:2; stroke-opacity:0.1; fill:none" points="210.746,925.633 2352.76,925.633 "/>
<polyline clip-path="url(#clip162)" style="stroke:#000000; stroke-linecap:round; stroke-linejoin:round; stroke-width:2; stroke-opacity:0.1; fill:none" points="210.746,715.771 2352.76,715.771 "/>
<polyline clip-path="url(#clip162)" style="stroke:#000000; stroke-linecap:round; stroke-linejoin:round; stroke-width:2; stroke-opacity:0.1; fill:none" points="210.746,505.909 2352.76,505.909 "/>
<polyline clip-path="url(#clip162)" style="stroke:#000000; stroke-linecap:round; stroke-linejoin:round; stroke-width:2; stroke-opacity:0.1; fill:none" points="210.746,296.048 2352.76,296.048 "/>
<polyline clip-path="url(#clip162)" style="stroke:#000000; stroke-linecap:round; stroke-linejoin:round; stroke-width:2; stroke-opacity:0.1; fill:none" points="210.746,86.1857 2352.76,86.1857 "/>
<polyline clip-path="url(#clip160)" style="stroke:#000000; stroke-linecap:round; stroke-linejoin:round; stroke-width:4; stroke-opacity:1; fill:none" points="210.746,1423.18 210.746,47.2441 "/>
<polyline clip-path="url(#clip160)" style="stroke:#000000; stroke-linecap:round; stroke-linejoin:round; stroke-width:4; stroke-opacity:1; fill:none" points="210.746,1345.36 229.644,1345.36 "/>
<polyline clip-path="url(#clip160)" style="stroke:#000000; stroke-linecap:round; stroke-linejoin:round; stroke-width:4; stroke-opacity:1; fill:none" points="210.746,1135.49 229.644,1135.49 "/>
<polyline clip-path="url(#clip160)" style="stroke:#000000; stroke-linecap:round; stroke-linejoin:round; stroke-width:4; stroke-opacity:1; fill:none" points="210.746,925.633 229.644,925.633 "/>
<polyline clip-path="url(#clip160)" style="stroke:#000000; stroke-linecap:round; stroke-linejoin:round; stroke-width:4; stroke-opacity:1; fill:none" points="210.746,715.771 229.644,715.771 "/>
<polyline clip-path="url(#clip160)" style="stroke:#000000; stroke-linecap:round; stroke-linejoin:round; stroke-width:4; stroke-opacity:1; fill:none" points="210.746,505.909 229.644,505.909 "/>
<polyline clip-path="url(#clip160)" style="stroke:#000000; stroke-linecap:round; stroke-linejoin:round; stroke-width:4; stroke-opacity:1; fill:none" points="210.746,296.048 229.644,296.048 "/>
<polyline clip-path="url(#clip160)" style="stroke:#000000; stroke-linecap:round; stroke-linejoin:round; stroke-width:4; stroke-opacity:1; fill:none" points="210.746,86.1857 229.644,86.1857 "/>
<path clip-path="url(#clip160)" d="M114.631 1345.81 L144.306 1345.81 L144.306 1349.74 L114.631 1349.74 L114.631 1345.81 Z" fill="#000000" fill-rule="nonzero" fill-opacity="1" /><path clip-path="url(#clip160)" d="M158.427 1358.7 L174.746 1358.7 L174.746 1362.64 L152.802 1362.64 L152.802 1358.7 Q155.464 1355.95 160.047 1351.32 Q164.653 1346.66 165.834 1345.32 Q168.079 1342.8 168.959 1341.06 Q169.862 1339.3 169.862 1337.61 Q169.862 1334.86 167.917 1333.12 Q165.996 1331.39 162.894 1331.39 Q160.695 1331.39 158.241 1332.15 Q155.811 1332.91 153.033 1334.47 L153.033 1329.74 Q155.857 1328.61 158.311 1328.03 Q160.765 1327.45 162.802 1327.45 Q168.172 1327.45 171.366 1330.14 Q174.561 1332.82 174.561 1337.31 Q174.561 1339.44 173.751 1341.36 Q172.964 1343.26 170.857 1345.85 Q170.278 1346.53 167.177 1349.74 Q164.075 1352.94 158.427 1358.7 Z" fill="#000000" fill-rule="nonzero" fill-opacity="1" /><path clip-path="url(#clip160)" d="M114.26 1135.95 L143.936 1135.95 L143.936 1139.88 L114.26 1139.88 L114.26 1135.95 Z" fill="#000000" fill-rule="nonzero" fill-opacity="1" /><path clip-path="url(#clip160)" d="M154.839 1148.84 L162.477 1148.84 L162.477 1122.47 L154.167 1124.14 L154.167 1119.88 L162.431 1118.21 L167.107 1118.21 L167.107 1148.84 L174.746 1148.84 L174.746 1152.77 L154.839 1152.77 L154.839 1148.84 Z" fill="#000000" fill-rule="nonzero" fill-opacity="1" /><path clip-path="url(#clip160)" d="M162.802 911.432 Q159.19 911.432 157.362 914.996 Q155.556 918.538 155.556 925.668 Q155.556 932.774 157.362 936.339 Q159.19 939.881 162.802 939.881 Q166.436 939.881 168.241 936.339 Q170.07 932.774 170.07 925.668 Q170.07 918.538 168.241 914.996 Q166.436 911.432 162.802 911.432 M162.802 907.728 Q168.612 907.728 171.667 912.334 Q174.746 916.918 174.746 925.668 Q174.746 934.395 171.667 939.001 Q168.612 943.584 162.802 943.584 Q156.991 943.584 153.913 939.001 Q150.857 934.395 150.857 925.668 Q150.857 916.918 153.913 912.334 Q156.991 907.728 162.802 907.728 Z" fill="#000000" fill-rule="nonzero" fill-opacity="1" /><path clip-path="url(#clip160)" d="M154.839 729.116 L162.477 729.116 L162.477 702.75 L154.167 704.417 L154.167 700.158 L162.431 698.491 L167.107 698.491 L167.107 729.116 L174.746 729.116 L174.746 733.051 L154.839 733.051 L154.839 729.116 Z" fill="#000000" fill-rule="nonzero" fill-opacity="1" /><path clip-path="url(#clip160)" d="M158.427 519.254 L174.746 519.254 L174.746 523.189 L152.802 523.189 L152.802 519.254 Q155.464 516.5 160.047 511.87 Q164.653 507.217 165.834 505.875 Q168.079 503.351 168.959 501.615 Q169.862 499.856 169.862 498.166 Q169.862 495.412 167.917 493.676 Q165.996 491.94 162.894 491.94 Q160.695 491.94 158.241 492.703 Q155.811 493.467 153.033 495.018 L153.033 490.296 Q155.857 489.162 158.311 488.583 Q160.765 488.004 162.802 488.004 Q168.172 488.004 171.366 490.69 Q174.561 493.375 174.561 497.865 Q174.561 499.995 173.751 501.916 Q172.964 503.814 170.857 506.407 Q170.278 507.078 167.177 510.296 Q164.075 513.49 158.427 519.254 Z" fill="#000000" fill-rule="nonzero" fill-opacity="1" /><path clip-path="url(#clip160)" d="M167.616 294.693 Q170.973 295.411 172.848 297.679 Q174.746 299.948 174.746 303.281 Q174.746 308.397 171.227 311.198 Q167.709 313.999 161.227 313.999 Q159.052 313.999 156.737 313.559 Q154.445 313.142 151.991 312.286 L151.991 307.772 Q153.936 308.906 156.251 309.485 Q158.565 310.064 161.089 310.064 Q165.487 310.064 167.778 308.328 Q170.093 306.591 170.093 303.281 Q170.093 300.226 167.94 298.513 Q165.811 296.777 161.991 296.777 L157.964 296.777 L157.964 292.934 L162.177 292.934 Q165.626 292.934 167.454 291.568 Q169.283 290.179 169.283 287.587 Q169.283 284.925 167.385 283.513 Q165.51 282.078 161.991 282.078 Q160.07 282.078 157.871 282.494 Q155.672 282.911 153.033 283.791 L153.033 279.624 Q155.695 278.883 158.01 278.513 Q160.348 278.143 162.408 278.143 Q167.732 278.143 170.834 280.573 Q173.936 282.98 173.936 287.101 Q173.936 289.971 172.292 291.962 Q170.649 293.929 167.616 294.693 Z" fill="#000000" fill-rule="nonzero" fill-opacity="1" /><path clip-path="url(#clip160)" d="M165.163 72.9797 L153.357 91.4287 L165.163 91.4287 L165.163 72.9797 M163.936 68.9057 L169.815 68.9057 L169.815 91.4287 L174.746 91.4287 L174.746 95.3176 L169.815 95.3176 L169.815 103.466 L165.163 103.466 L165.163 95.3176 L149.561 95.3176 L149.561 90.8037 L163.936 68.9057 Z" fill="#000000" fill-rule="nonzero" fill-opacity="1" /><path clip-path="url(#clip160)" d="M67.6255 924.041 Q63.2455 928.228 56.9975 928.228 Q50.7174 928.228 46.2086 924.106 Q41.6676 919.984 41.6676 913.929 Q41.6676 909.903 43.5999 906.876 Q45.5 903.848 48.7528 903.848 Q50.2021 903.848 51.0395 904.718 Q51.8446 905.555 51.8446 906.876 Q51.8446 908.261 51.0073 909.098 Q50.1377 909.903 48.8173 909.903 Q48.2375 909.903 47.6578 909.71 Q47.0781 909.517 46.4662 908.808 Q45.8543 908.067 45.7577 906.811 Q43.3423 909.162 43.3423 913.736 Q43.3423 913.8 43.3423 913.864 Q43.3423 917.214 46.4984 919.984 Q49.6546 922.753 56.8687 922.753 Q60.6368 922.753 63.4065 921.851 Q66.144 920.917 67.5611 919.404 Q68.9781 917.89 69.6544 916.409 Q70.2986 914.927 70.2986 913.478 Q70.2986 907.005 63.3743 904.815 Q62.7302 904.621 62.7302 903.977 Q62.7302 903.108 63.3743 903.108 Q63.6964 903.108 64.5337 903.365 Q65.3711 903.623 66.6915 904.428 Q68.0119 905.233 69.1714 906.393 Q70.2986 907.52 71.1359 909.549 Q71.9733 911.546 71.9733 914.058 Q71.9733 919.855 67.6255 924.041 Z" fill="#000000" fill-rule="nonzero" fill-opacity="1" /><path clip-path="url(#clip160)" d="M67.6899 895.413 Q63.3743 899.76 57.1264 899.76 Q50.8462 899.76 46.273 895.509 Q41.6676 891.226 41.6676 885.107 Q41.6676 879.117 46.2408 874.833 Q50.7818 870.518 57.1264 870.518 Q63.3421 870.518 67.6577 874.865 Q71.9733 879.181 71.9733 885.171 Q71.9733 891.033 67.6899 895.413 M56.5789 894.285 Q62.9878 894.285 65.8864 892.611 Q70.2986 890.034 70.2986 885.107 Q70.2986 882.659 68.9781 880.63 Q67.6577 878.569 65.4355 877.442 Q62.5369 875.993 56.5789 875.993 Q50.2343 875.993 47.4324 877.732 Q43.149 880.308 43.149 885.171 Q43.149 887.297 44.2762 889.39 Q45.3712 891.451 47.5612 892.707 Q50.4598 894.285 56.5789 894.285 Z" fill="#000000" fill-rule="nonzero" fill-opacity="1" /><path clip-path="url(#clip160)" d="M71.2325 868.416 L69.2036 868.416 Q69.2036 864.906 68.7849 864.101 Q68.334 863.296 66.2084 863.296 L48.5274 863.296 Q46.0798 863.296 45.4678 864.165 Q44.8559 865.003 44.8559 868.416 L42.7948 868.416 L42.0862 859.141 L49.0105 859.141 Q42.0862 856.049 42.0862 849.383 Q42.0862 844.423 44.5339 842.459 Q46.1764 841.009 48.0121 840.719 Q49.8478 840.397 54.6143 840.397 L67.2068 840.397 Q68.5917 840.333 68.9137 839.27 Q69.2036 838.207 69.2036 835.244 L71.2325 835.244 Q71.0393 841.975 71.0393 842.652 Q71.0393 843.167 71.2325 850.091 L69.2036 850.091 Q69.2036 846.581 68.7849 845.776 Q68.334 844.938 66.2084 844.938 L50.8462 844.938 Q47.4968 844.938 45.5323 845.969 Q43.5355 847 43.5355 849.834 Q43.5355 853.247 46.4018 855.985 Q49.2681 858.722 54.099 858.722 L66.2084 858.722 Q68.334 858.722 68.7849 857.917 Q69.2036 857.08 69.2036 853.602 L71.2325 853.602 Q71.0393 860.333 71.0393 860.977 Q71.0393 861.492 71.2325 868.416 Z" fill="#000000" fill-rule="nonzero" fill-opacity="1" /><path clip-path="url(#clip160)" d="M67.6255 826.409 Q63.2455 830.596 56.9975 830.596 Q50.7174 830.596 46.2086 826.473 Q41.6676 822.351 41.6676 816.296 Q41.6676 812.271 43.5999 809.243 Q45.5 806.216 48.7528 806.216 Q50.2021 806.216 51.0395 807.085 Q51.8446 807.923 51.8446 809.243 Q51.8446 810.628 51.0073 811.465 Q50.1377 812.271 48.8173 812.271 Q48.2375 812.271 47.6578 812.077 Q47.0781 811.884 46.4662 811.176 Q45.8543 810.435 45.7577 809.179 Q43.3423 811.53 43.3423 816.103 Q43.3423 816.168 43.3423 816.232 Q43.3423 819.581 46.4984 822.351 Q49.6546 825.121 56.8687 825.121 Q60.6368 825.121 63.4065 824.219 Q66.144 823.285 67.5611 821.771 Q68.9781 820.258 69.6544 818.776 Q70.2986 817.295 70.2986 815.845 Q70.2986 809.372 63.3743 807.182 Q62.7302 806.989 62.7302 806.345 Q62.7302 805.475 63.3743 805.475 Q63.6964 805.475 64.5337 805.733 Q65.3711 805.99 66.6915 806.796 Q68.0119 807.601 69.1714 808.76 Q70.2986 809.887 71.1359 811.916 Q71.9733 813.913 71.9733 816.425 Q71.9733 822.222 67.6255 826.409 Z" fill="#000000" fill-rule="nonzero" fill-opacity="1" /><path clip-path="url(#clip160)" d="M56.7077 801.864 Q50.492 801.864 46.0798 797.87 Q41.6676 793.877 41.6676 788.144 Q41.6676 782.347 45.4356 779.352 Q49.2037 776.325 54.6143 776.325 Q55.6127 776.325 55.8059 776.582 Q55.9992 776.84 55.9992 777.967 L55.9992 796.389 Q62.7302 796.389 65.8864 794.392 Q70.2986 791.623 70.2986 786.953 Q70.2986 786.309 70.1697 785.536 Q70.0409 784.763 69.4934 783.185 Q68.9137 781.607 67.4 780.222 Q65.8864 778.837 63.5031 778.032 Q62.5692 777.838 62.6014 777.194 Q62.6014 776.325 63.3743 776.325 Q63.954 776.325 65.2744 776.969 Q66.5627 777.581 68.1086 778.772 Q69.6544 779.964 70.8139 782.283 Q71.9733 784.569 71.9733 787.339 Q71.9733 793.136 67.5933 797.516 Q63.1811 801.864 56.7077 801.864 M54.6143 796.325 L54.6143 780.673 Q53.2295 780.673 51.6836 780.93 Q50.1377 781.156 48.0121 781.864 Q45.8543 782.54 44.5017 784.151 Q43.149 785.761 43.149 788.144 Q43.149 789.207 43.5999 790.367 Q44.0508 791.494 45.1458 792.879 Q46.2408 794.263 48.7206 795.23 Q51.2005 796.196 54.6143 796.325 Z" fill="#000000" fill-rule="nonzero" fill-opacity="1" /><path clip-path="url(#clip160)" d="M71.2325 774.188 L69.2036 774.188 Q69.2036 770.678 68.7849 769.873 Q68.334 769.068 66.2084 769.068 L48.5274 769.068 Q46.0798 769.068 45.4678 769.937 Q44.8559 770.774 44.8559 774.188 L42.7948 774.188 L42.0862 764.913 L49.0105 764.913 Q42.0862 761.821 42.0862 755.155 Q42.0862 750.195 44.5339 748.23 Q46.1764 746.781 48.0121 746.491 Q49.8478 746.169 54.6143 746.169 L67.2068 746.169 Q68.5917 746.105 68.9137 745.042 Q69.2036 743.979 69.2036 741.016 L71.2325 741.016 Q71.0393 747.747 71.0393 748.424 Q71.0393 748.939 71.2325 755.863 L69.2036 755.863 Q69.2036 752.353 68.7849 751.548 Q68.334 750.71 66.2084 750.71 L50.8462 750.71 Q47.4968 750.71 45.5323 751.741 Q43.5355 752.771 43.5355 755.606 Q43.5355 759.019 46.4018 761.757 Q49.2681 764.494 54.099 764.494 L66.2084 764.494 Q68.334 764.494 68.7849 763.689 Q69.2036 762.852 69.2036 759.374 L71.2325 759.374 Q71.0393 766.105 71.0393 766.749 Q71.0393 767.264 71.2325 774.188 Z" fill="#000000" fill-rule="nonzero" fill-opacity="1" /><path clip-path="url(#clip160)" d="M44.8559 737.688 L43.4067 737.688 Q43.2778 734.66 41.1523 732.663 Q38.9945 730.635 36.3536 729.958 Q33.7127 729.25 30.6531 729.185 L30.6531 727.543 L42.7948 727.543 L42.7948 718.106 L44.8559 718.106 L44.8559 727.543 L63.1811 727.543 Q70.2986 727.543 70.2986 723.098 Q70.2986 721.198 68.3662 719.942 Q66.4017 718.686 62.9234 718.686 L59.2842 718.686 L59.2842 717.044 L63.0522 717.044 Q66.6271 717.044 69.3002 718.686 Q71.9733 720.329 71.9733 723.581 Q71.9733 724.773 71.6512 725.965 Q71.3614 727.124 70.5884 728.67 Q69.7833 730.184 67.8509 731.15 Q65.8864 732.084 63.0522 732.084 L44.8559 732.084 L44.8559 737.688 Z" fill="#000000" fill-rule="nonzero" fill-opacity="1" /><path clip-path="url(#clip160)" d="M71.2325 713.152 L69.2036 713.152 Q69.2036 709.642 68.7849 708.837 Q68.334 707.999 66.2084 707.999 L48.5274 707.999 Q46.0798 707.999 45.4678 708.869 Q44.8559 709.706 44.8559 713.152 L42.7948 713.152 L42.0862 703.974 L49.3325 703.974 Q46.4984 703.04 44.3084 701.075 Q42.0862 699.078 42.0862 695.858 Q42.0862 693.732 43.2778 692.379 Q44.4695 690.995 46.112 690.995 Q47.5612 690.995 48.302 691.896 Q49.0105 692.766 49.0105 693.829 Q49.0105 695.02 48.2698 695.858 Q47.4968 696.663 46.1764 696.663 Q45.3712 696.663 44.7593 696.309 Q44.1152 695.922 43.8898 695.632 Q43.6643 695.342 43.5999 695.149 Q43.5355 695.278 43.5355 695.858 Q43.5355 699.497 47.1748 701.59 Q50.7818 703.651 55.9347 703.651 L66.0796 703.651 Q67.9797 703.651 68.5917 702.879 Q69.2036 702.073 69.2036 698.627 L69.2036 697.242 L71.2325 697.242 Q71.0393 699.883 71.0393 705.616 Q71.0393 706.421 71.0715 707.677 Q71.1037 708.933 71.1681 710.576 Q71.2325 712.218 71.2325 713.152 Z" fill="#000000" fill-rule="nonzero" fill-opacity="1" /><path clip-path="url(#clip160)" d="M64.9524 685.59 Q59.3486 685.59 56.3856 678.988 Q54.4855 675.027 54.0024 666.847 L51.587 666.847 Q47.4968 666.847 45.339 669.004 Q43.149 671.13 43.149 673.835 Q43.149 678.666 46.1764 680.985 Q46.2408 679.02 47.2392 678.312 Q48.2053 677.603 49.2037 677.603 Q50.5242 677.603 51.3937 678.441 Q52.2311 679.246 52.2311 680.631 Q52.2311 681.951 51.4259 682.821 Q50.5886 683.69 49.1393 683.69 Q45.9187 683.69 43.7931 680.792 Q41.6676 677.861 41.6676 673.706 Q41.6676 668.296 45.3068 664.689 Q46.434 663.562 47.8833 663.014 Q49.3325 662.434 50.2987 662.37 Q51.2327 662.306 53.1006 662.306 L66.2728 662.306 Q66.6593 662.306 67.3034 662.177 Q67.9475 662.048 68.7849 661.468 Q69.59 660.856 69.59 659.858 Q69.59 657.475 65.3711 657.507 L61.6674 657.507 L61.6674 655.832 L65.3711 655.832 Q68.8815 655.832 70.2664 657.7 Q71.619 659.536 71.619 661.243 Q71.619 663.433 70.0087 664.818 Q68.3984 666.202 66.2084 666.396 Q68.7205 667.394 70.363 669.681 Q71.9733 671.935 71.9733 675.027 Q71.9733 677.41 71.3614 679.665 Q70.7817 681.887 69.1392 683.755 Q67.4644 685.59 64.9524 685.59 M64.888 680.502 Q67.3356 680.502 68.9137 678.763 Q70.4918 677.024 70.4918 674.576 Q70.4918 671.806 68.3662 669.326 Q66.2084 666.847 61.9895 666.847 L55.3872 666.847 Q55.6449 674.157 58.5756 677.346 Q61.4742 680.502 64.888 680.502 Z" fill="#000000" fill-rule="nonzero" fill-opacity="1" /><path clip-path="url(#clip160)" d="M44.8559 654.246 L43.4067 654.246 Q43.2778 651.219 41.1523 649.222 Q38.9945 647.193 36.3536 646.517 Q33.7127 645.808 30.6531 645.744 L30.6531 644.101 L42.7948 644.101 L42.7948 634.665 L44.8559 634.665 L44.8559 644.101 L63.1811 644.101 Q70.2986 644.101 70.2986 639.657 Q70.2986 637.757 68.3662 636.501 Q66.4017 635.245 62.9234 635.245 L59.2842 635.245 L59.2842 633.602 L63.0522 633.602 Q66.6271 633.602 69.3002 635.245 Q71.9733 636.887 71.9733 640.14 Q71.9733 641.332 71.6512 642.523 Q71.3614 643.683 70.5884 645.229 Q69.7833 646.742 67.8509 647.709 Q65.8864 648.643 63.0522 648.643 L44.8559 648.643 L44.8559 654.246 Z" fill="#000000" fill-rule="nonzero" fill-opacity="1" /><path clip-path="url(#clip160)" d="M71.2325 629.711 L69.2036 629.711 Q69.2036 626.2 68.7849 625.395 Q68.334 624.59 66.2084 624.59 L48.463 624.59 Q46.0153 624.59 45.4356 625.428 Q44.8559 626.233 44.8559 629.453 L42.7948 629.453 L42.0862 620.242 L66.2728 620.242 Q68.2374 620.242 68.7205 619.534 Q69.2036 618.825 69.2036 615.605 L71.2325 615.605 Q71.0393 622.336 71.0393 622.465 Q71.0393 623.366 71.2325 629.711 M30.5887 626.941 Q29.2683 626.941 28.2055 625.943 Q27.1105 624.912 27.1105 623.463 Q27.1105 622.014 28.1089 620.983 Q29.0751 619.953 30.6209 619.953 Q32.1346 619.953 33.133 620.983 Q34.0992 622.014 34.0992 623.463 Q34.0992 624.977 33.0364 625.975 Q31.9736 626.941 30.5887 626.941 Z" fill="#000000" fill-rule="nonzero" fill-opacity="1" /><path clip-path="url(#clip160)" d="M67.6899 605.429 Q63.3743 609.776 57.1264 609.776 Q50.8462 609.776 46.273 605.525 Q41.6676 601.242 41.6676 595.123 Q41.6676 589.133 46.2408 584.849 Q50.7818 580.534 57.1264 580.534 Q63.3421 580.534 67.6577 584.881 Q71.9733 589.197 71.9733 595.187 Q71.9733 601.049 67.6899 605.429 M56.5789 604.301 Q62.9878 604.301 65.8864 602.627 Q70.2986 600.05 70.2986 595.123 Q70.2986 592.675 68.9781 590.646 Q67.6577 588.585 65.4355 587.458 Q62.5369 586.009 56.5789 586.009 Q50.2343 586.009 47.4324 587.748 Q43.149 590.324 43.149 595.187 Q43.149 597.313 44.2762 599.406 Q45.3712 601.467 47.5612 602.723 Q50.4598 604.301 56.5789 604.301 Z" fill="#000000" fill-rule="nonzero" fill-opacity="1" /><path clip-path="url(#clip160)" d="M71.2325 578.432 L69.2036 578.432 Q69.2036 574.922 68.7849 574.117 Q68.334 573.312 66.2084 573.312 L48.5274 573.312 Q46.0798 573.312 45.4678 574.181 Q44.8559 575.019 44.8559 578.432 L42.7948 578.432 L42.0862 569.157 L49.0105 569.157 Q42.0862 566.065 42.0862 559.399 Q42.0862 554.439 44.5339 552.474 Q46.1764 551.025 48.0121 550.735 Q49.8478 550.413 54.6143 550.413 L67.2068 550.413 Q68.5917 550.349 68.9137 549.286 Q69.2036 548.223 69.2036 545.26 L71.2325 545.26 Q71.0393 551.991 71.0393 552.668 Q71.0393 553.183 71.2325 560.107 L69.2036 560.107 Q69.2036 556.597 68.7849 555.792 Q68.334 554.954 66.2084 554.954 L50.8462 554.954 Q47.4968 554.954 45.5323 555.985 Q43.5355 557.016 43.5355 559.85 Q43.5355 563.263 46.4018 566.001 Q49.2681 568.738 54.099 568.738 L66.2084 568.738 Q68.334 568.738 68.7849 567.933 Q69.2036 567.096 69.2036 563.618 L71.2325 563.618 Q71.0393 570.349 71.0393 570.993 Q71.0393 571.508 71.2325 578.432 Z" fill="#000000" fill-rule="nonzero" fill-opacity="1" /><polyline clip-path="url(#clip162)" style="stroke:#009af9; stroke-linecap:round; stroke-linejoin:round; stroke-width:8; stroke-opacity:1; fill:none" points="271.369,86.1857 275.316,98.3924 279.262,110.422 283.209,122.276 287.156,133.958 291.103,145.47 295.05,156.814 298.997,167.994 302.943,179.01 306.89,189.867 310.837,200.566 314.784,211.109 318.731,221.499 322.677,231.737 326.624,241.827 330.571,251.77 334.518,261.568 338.465,271.224 342.411,280.739 346.358,290.116 350.305,299.356 354.252,308.462 358.199,317.435 362.145,326.278 366.092,334.992 370.039,343.579 373.986,352.041 377.933,360.38 381.879,368.598 385.826,376.696 389.773,384.676 393.72,392.539 397.667,400.289 401.613,407.925 405.56,415.45 409.507,422.866 413.454,430.173 417.401,437.374 421.347,444.47 425.294,451.463 429.241,458.353 433.188,465.143 437.135,471.835 441.081,478.428 445.028,484.925 448.975,491.328 452.922,497.637 456.869,503.854 460.816,509.98 464.762,516.015 468.709,521.962 472.656,527.822 476.603,533.596 480.55,539.285 484.496,544.891 488.443,550.415 492.39,555.858 496.337,561.22 500.284,566.504 504.23,571.71 508.177,576.84 512.124,581.893 516.071,586.872 520.018,591.778 523.964,596.611 527.911,601.372 531.858,606.063 535.805,610.682 539.752,615.227 543.698,619.704 547.645,624.113 551.592,628.456 555.539,632.734 559.486,636.937 563.432,641.074 567.379,645.148 571.326,649.159 575.273,653.107 579.22,656.994 583.166,660.819 587.113,664.582 591.06,668.285 595.007,671.928 598.954,675.512 602.9,679.039 606.847,682.507 610.794,685.917 614.741,689.267 618.688,692.56 622.635,695.796 626.581,698.977 630.528,702.102 634.475,705.172 638.422,708.188 642.369,711.148 646.315,714.054 650.262,716.906 654.209,719.703 658.156,722.442 662.103,725.126 666.049,727.757 669.996,730.334 673.943,732.857 677.89,735.327 681.837,737.743 685.783,740.059 689.73,742.311 693.677,744.507 697.624,746.647 701.571,748.731 705.517,750.758 709.464,752.728 713.411,754.641 717.358,756.496 721.305,758.27 725.251,759.956 729.198,761.582 733.145,763.148 737.092,764.653 741.039,766.096 744.985,767.476 748.932,768.794 752.879,770.049 756.826,771.24 760.773,772.366 764.719,773.428 768.666,774.423 772.613,775.353 776.56,776.216 780.507,777.012 784.454,777.741 788.4,778.4 792.347,778.936 796.294,779.289 800.241,779.487 804.188,779.605 808.134,779.641 812.081,779.495 816.028,779.216 819.975,778.843 823.922,778.372 827.868,777.792 831.815,777.002 835.762,776.096 839.709,775.069 843.656,773.913 847.602,772.621 851.549,771.183 855.496,769.504 859.443,767.363 863.39,765.03 867.336,762.492 871.283,759.729 875.23,756.725 879.177,753.459 883.124,749.908 887.07,746.051 891.017,741.863 894.964,737.317 898.911,732.385 902.858,727.039 906.804,721.25 910.751,714.996 914.698,708.254 918.645,701.007 922.592,693.249 926.538,684.98 930.485,676.213 934.432,666.977 938.379,657.314 942.326,647.279 946.273,636.942 950.219,626.377 954.166,615.666 958.113,604.885 962.06,593.753 966.007,582.644 969.953,571.64 973.9,560.77 977.847,550.051 981.794,539.486 985.741,529.074 989.687,518.817 993.634,508.726 997.581,498.834 1001.53,489.21 1005.47,479.968 1009.42,471.274 1013.37,463.344 1017.31,456.418 1021.26,450.723 1025.21,446.427 1029.16,443.605 1033.1,442.231 1037.05,442.196 1041,443.337 1044.94,445.471 1048.89,448.419 1052.84,452.02 1056.78,456.135 1060.73,460.65 1064.68,465.472 1068.62,470.526 1072.57,475.754 1076.52,481.107 1080.46,486.548 1084.41,492.048 1088.36,497.557 1092.3,503.075 1096.25,508.596 1100.2,514.11 1104.14,519.604 1108.09,525.071 1112.04,530.503 1115.99,535.895 1119.93,541.242 1123.88,546.542 1127.83,551.79 1131.77,556.984 1135.72,562.123 1139.67,567.206 1143.61,572.23 1147.56,577.195 1151.51,582.101 1155.45,586.947 1159.4,591.733 1163.35,596.458 1167.29,601.123 1171.24,605.728 1175.19,610.273 1179.13,614.758 1183.08,619.183 1187.03,623.55 1190.97,627.858 1194.92,632.108 1198.87,636.3 1202.81,640.435 1206.76,644.513 1210.71,648.535 1214.66,652.502 1218.6,656.414 1222.55,660.271 1226.5,664.075 1230.44,667.826 1234.39,671.525 1238.34,675.171 1242.28,678.767 1246.23,682.312 1250.18,685.807 1254.12,689.253 1258.07,692.65 1262.02,695.999 1265.96,699.3 1269.91,702.555 1273.86,705.764 1277.8,708.927 1281.75,712.045 1285.7,715.118 1289.64,718.148 1293.59,721.135 1297.54,724.079 1301.48,726.981 1305.43,729.841 1309.38,732.661 1313.33,735.44 1317.27,738.179 1321.22,740.879 1325.17,743.541 1329.11,746.164 1333.06,748.75 1337.01,751.298 1340.95,753.81 1344.9,756.286 1348.85,758.726 1352.79,761.131 1356.74,763.501 1360.69,765.837 1364.63,768.14 1368.58,770.409 1372.53,772.645 1376.47,774.848 1380.42,777.018 1384.37,779.158 1388.31,781.266 1392.26,783.344 1396.21,785.392 1400.16,787.41 1404.1,789.399 1408.05,791.359 1412,793.291 1415.94,795.195 1419.89,797.071 1423.84,798.92 1427.78,800.742 1431.73,802.538 1435.68,804.307 1439.62,806.051 1443.57,807.769 1447.52,809.462 1451.46,811.131 1455.41,812.775 1459.36,814.395 1463.3,815.991 1467.25,817.564 1471.2,819.113 1475.14,820.64 1479.09,822.145 1483.04,823.627 1486.98,825.087 1490.93,826.525 1494.88,827.942 1498.83,829.338 1502.77,830.713 1506.72,832.068 1510.67,833.401 1514.61,834.715 1518.56,836.009 1522.51,837.282 1526.45,838.537 1530.4,839.771 1534.35,840.987 1538.29,842.183 1542.24,843.36 1546.19,844.519 1550.13,845.658 1554.08,846.778 1558.03,847.88 1561.97,848.963 1565.92,850.027 1569.87,851.071 1573.81,852.096 1577.76,853.101 1581.71,854.085 1585.65,855.049 1589.6,855.991 1593.55,856.912 1597.5,857.81 1601.44,858.685 1605.39,859.535 1609.34,860.358 1613.28,861.152 1617.23,861.916 1621.18,862.645 1625.12,863.335 1629.07,863.982 1633.02,864.578 1636.96,865.115 1640.91,865.582 1644.86,865.962 1648.8,866.236 1652.75,866.378 1656.7,866.348 1660.64,866.091 1664.59,865.558 1668.54,864.658 1672.48,863.257 1676.43,861.175 1680.38,858.185 1684.33,854.038 1688.27,848.551 1692.22,841.683 1696.17,833.565 1700.11,824.449 1704.06,814.641 1708.01,804.308 1711.95,793.107 1715.9,782.014 1719.85,771.211 1723.79,760.839 1727.74,750.999 1731.69,741.765 1735.63,733.193 1739.58,725.319 1743.53,718.167 1747.47,711.743 1751.42,706.045 1755.37,701.056 1759.31,696.753 1763.26,693.101 1767.21,690.065 1771.15,687.602 1775.1,685.669 1779.05,684.222 1783,683.219 1786.94,682.618 1790.89,682.378 1794.84,682.462 1798.78,682.835 1802.73,683.464 1806.68,684.321 1810.62,685.3 1814.57,686.283 1818.52,687.356 1822.46,688.595 1826.41,689.982 1830.36,691.499 1834.3,693.129 1838.25,694.86 1842.2,696.677 1846.14,698.569 1850.09,700.526 1854.04,702.538 1857.98,704.598 1861.93,706.698 1865.88,708.832 1869.82,710.993 1873.77,713.176 1877.72,715.377 1881.67,717.591 1885.61,719.814 1889.56,722.043 1893.51,724.275 1897.45,726.506 1901.4,728.735 1905.35,730.959 1909.29,733.176 1913.24,735.384 1917.19,737.582 1921.13,739.767 1925.08,741.938 1929.03,744.09 1932.97,746.226 1936.92,748.345 1940.87,750.447 1944.81,752.531 1948.76,754.596 1952.71,756.641 1956.65,758.666 1960.6,760.67 1964.55,762.652 1968.49,764.612 1972.44,766.55 1976.39,768.465 1980.34,770.356 1984.28,772.223 1988.23,774.064 1992.18,775.88 1996.12,777.669 2000.07,779.43 2004.02,781.164 2007.96,782.869 2011.91,784.544 2015.86,786.189 2019.8,787.803 2023.75,789.385 2027.7,790.933 2031.64,792.448 2035.59,793.927 2039.54,795.368 2043.48,796.77 2047.43,798.13 2051.38,799.446 2055.32,800.715 2059.27,801.933 2063.22,803.095 2067.17,804.197 2071.11,805.231 2075.06,806.191 2079.01,807.069 2082.95,807.857 2086.9,808.549 2090.85,809.137 2094.79,809.61 2098.74,809.95 2102.69,810.133 2106.63,810.134 2110.58,809.93 2114.53,809.494 2118.47,808.798 2122.42,807.819 2126.37,806.525 2130.31,804.881 2134.26,802.852 2138.21,800.415 2142.15,797.567 2146.1,794.323 2150.05,790.59 2153.99,786.387 2157.94,781.924 2161.89,777.274 2165.84,772.513 2169.78,767.713 2173.73,762.943 2177.68,758.264 2181.62,753.732 2185.57,749.395 2189.52,745.284 2193.46,741.423 2197.41,737.836 2201.36,734.535 2205.3,731.527 2209.25,728.81 2213.2,726.387 2217.14,724.256 2221.09,722.409 2225.04,720.838 2228.98,719.53 2232.93,718.471 2236.88,717.65 2240.82,717.053 2244.77,716.667 2248.72,716.476 2252.66,716.467 2256.61,716.627 2260.56,716.941 2264.51,717.396 2268.45,717.979 2272.4,718.68 2276.35,719.486 2280.29,720.389 2284.24,721.378 2288.19,722.445 2292.13,723.583 "/>
<polyline clip-path="url(#clip162)" style="stroke:#e26f46; stroke-linecap:round; stroke-linejoin:round; stroke-width:8; stroke-opacity:1; fill:none" points="271.369,86.1857 275.316,98.3923 279.262,110.421 283.209,122.276 287.156,133.957 291.103,145.469 295.05,156.813 298.997,167.993 302.943,179.009 306.89,189.866 310.837,200.565 314.784,211.107 318.731,221.497 322.677,231.735 326.624,241.825 330.571,251.767 334.518,261.566 338.465,271.221 342.411,280.736 346.358,290.112 350.305,299.353 354.252,308.458 358.199,317.431 362.145,326.274 366.092,334.987 370.039,343.574 373.986,352.036 377.933,360.375 381.879,368.592 385.826,376.69 389.773,384.67 393.72,392.533 397.667,400.282 401.613,407.918 405.56,415.443 409.507,422.858 413.454,430.165 417.401,437.365 421.347,444.461 425.294,451.453 429.241,458.343 433.188,465.132 437.135,471.823 441.081,478.415 445.028,484.912 448.975,491.313 452.922,497.621 456.869,503.837 460.816,509.962 464.762,515.997 468.709,521.944 472.656,527.803 476.603,533.577 480.55,539.266 484.496,544.872 488.443,550.395 492.39,555.837 496.337,561.2 500.284,566.483 504.23,571.689 508.177,576.818 512.124,581.871 516.071,586.85 520.018,591.755 523.964,596.588 527.911,601.348 531.858,606.039 535.805,610.659 539.752,615.211 543.698,619.695 547.645,624.112 551.592,628.463 555.539,632.748 559.486,636.97 563.432,641.128 567.379,645.223 571.326,649.256 575.273,653.229 579.22,657.14 583.166,660.992 587.113,664.785 591.06,668.52 595.007,672.197 598.954,675.818 602.9,679.381 606.847,682.89 610.794,686.342 614.741,689.74 618.688,693.084 622.635,696.374 626.581,699.611 630.528,702.794 634.475,705.925 638.422,709.004 642.369,712.031 646.315,715.006 650.262,717.93 654.209,720.805 658.156,723.628 662.103,726.401 666.049,729.126 669.996,731.802 673.943,734.43 677.89,737.009 681.837,739.541 685.783,742.025 689.73,744.463 693.677,746.855 697.624,749.203 701.571,751.505 705.517,753.762 709.464,755.973 713.411,758.14 717.358,760.264 721.305,762.345 725.251,764.379 729.198,766.376 733.145,768.341 737.092,770.272 741.039,772.166 744.985,774.033 748.932,775.868 752.879,777.664 756.826,779.43 760.773,781.164 764.719,782.866 768.666,784.537 772.613,786.171 776.56,787.775 780.507,789.352 784.454,790.91 788.4,792.444 792.347,793.954 796.294,795.452 800.241,796.94 804.188,798.423 808.134,799.903 812.081,801.384 816.028,802.87 819.975,804.366 823.922,805.875 827.868,807.399 831.815,808.943 835.762,810.509 839.709,812.108 843.656,813.741 847.602,815.403 851.549,817.1 855.496,818.836 859.443,820.622 863.39,822.466 867.336,824.365 871.283,826.331 875.23,828.365 879.177,830.471 883.124,832.652 887.07,834.909 891.017,837.253 894.964,839.692 898.911,842.228 902.858,844.873 906.804,847.624 910.751,850.485 914.698,853.464 918.645,856.567 922.592,859.799 926.538,863.167 930.485,866.674 934.432,870.327 938.379,874.13 942.326,878.087 946.273,882.203 950.219,886.479 954.166,890.916 958.113,895.515 962.06,900.278 966.007,905.206 969.953,910.299 973.9,915.553 977.847,920.966 981.794,926.537 985.741,932.261 989.687,938.138 993.634,944.165 997.581,950.338 1001.53,956.655 1005.47,963.11 1009.42,969.697 1013.37,976.406 1017.31,983.223 1021.26,990.133 1025.21,997.117 1029.16,1004.15 1033.1,1011.22 1037.05,1018.29 1041,1025.36 1044.94,1032.41 1048.89,1039.41 1052.84,1046.37 1056.78,1053.27 1060.73,1060.1 1064.68,1066.87 1068.62,1073.57 1072.57,1080.19 1076.52,1086.73 1080.46,1093.19 1084.41,1099.57 1088.36,1105.87 1092.3,1112.08 1096.25,1118.22 1100.2,1124.27 1104.14,1130.25 1108.09,1136.14 1112.04,1141.95 1115.99,1147.68 1119.93,1153.33 1123.88,1158.9 1127.83,1164.39 1131.77,1169.81 1135.72,1175.15 1139.67,1180.41 1143.61,1185.59 1147.56,1190.7 1151.51,1195.74 1155.45,1200.7 1159.4,1205.58 1163.35,1210.4 1167.29,1215.15 1171.24,1219.82 1175.19,1224.43 1179.13,1228.97 1183.08,1233.44 1187.03,1237.84 1190.97,1242.18 1194.92,1246.45 1198.87,1250.65 1202.81,1254.79 1206.76,1258.86 1210.71,1262.87 1214.66,1266.81 1218.6,1270.69 1222.55,1274.51 1226.5,1278.27 1230.44,1281.96 1234.39,1285.6 1238.34,1289.17 1242.28,1292.68 1246.23,1296.14 1250.18,1299.53 1254.12,1302.87 1258.07,1306.15 1262.02,1309.37 1265.96,1312.53 1269.91,1315.63 1273.86,1318.66 1277.8,1321.65 1281.75,1324.57 1285.7,1327.43 1289.64,1330.23 1293.59,1332.96 1297.54,1335.64 1301.48,1338.26 1305.43,1340.82 1309.38,1343.33 1313.33,1345.77 1317.27,1348.16 1321.22,1350.48 1325.17,1352.75 1329.11,1354.95 1333.06,1357.09 1337.01,1359.16 1340.95,1361.16 1344.9,1363.09 1348.85,1364.96 1352.79,1366.76 1356.74,1368.48 1360.69,1370.13 1364.63,1371.7 1368.58,1373.19 1372.53,1374.58 1376.47,1375.89 1380.42,1377.12 1384.37,1378.27 1388.31,1379.36 1392.26,1380.34 1396.21,1381.18 1400.16,1381.91 1404.1,1382.53 1408.05,1383.06 1412,1383.5 1415.94,1383.83 1419.89,1384.1 1423.84,1384.23 1427.78,1384.24 1431.73,1384.12 1435.68,1383.9 1439.62,1383.55 1443.57,1383.1 1447.52,1382.51 1451.46,1381.81 1455.41,1380.99 1459.36,1380.01 1463.3,1378.88 1467.25,1377.61 1471.2,1376.17 1475.14,1374.55 1479.09,1372.75 1483.04,1370.8 1486.98,1368.67 1490.93,1366.36 1494.88,1363.85 1498.83,1361.14 1502.77,1358.22 1506.72,1355.08 1510.67,1351.8 1514.61,1348.35 1518.56,1344.71 1522.51,1340.86 1526.45,1336.81 1530.4,1332.62 1534.35,1328.25 1538.29,1323.6 1542.24,1318.58 1546.19,1313.39 1550.13,1308.1 1554.08,1302.5 1558.03,1296.66 1561.97,1290.7 1565.92,1284.49 1569.87,1277.88 1573.81,1271.11 1577.76,1264.17 1581.71,1257.04 1585.65,1249.83 1589.6,1242.52 1593.55,1235.06 1597.5,1227.49 1601.44,1219.66 1605.39,1211.72 1609.34,1203.65 1613.28,1195.45 1617.23,1187.09 1621.18,1178.56 1625.12,1169.88 1629.07,1161.06 1633.02,1152.06 1636.96,1142.88 1640.91,1133.58 1644.86,1124.06 1648.8,1114.42 1652.75,1104.83 1656.7,1095.31 1660.64,1085.81 1664.59,1076.21 1668.54,1066.37 1672.48,1056.4 1676.43,1046.41 1680.38,1036.64 1684.33,1027.46 1688.27,1019.39 1692.22,1012.68 1696.17,1007.4 1700.11,1003.53 1704.06,1000.93 1708.01,999.43 1711.95,998.888 1715.9,999.117 1719.85,999.957 1723.79,1001.26 1727.74,1002.91 1731.69,1004.85 1735.63,1007.02 1739.58,1009.4 1743.53,1011.95 1747.47,1014.65 1751.42,1017.48 1755.37,1020.41 1759.31,1023.44 1763.26,1026.54 1767.21,1029.7 1771.15,1032.91 1775.1,1036.17 1779.05,1039.46 1783,1042.77 1786.94,1046.09 1790.89,1049.42 1794.84,1052.74 1798.78,1056.05 1802.73,1059.35 1806.68,1062.63 1810.62,1065.89 1814.57,1069.12 1818.52,1072.34 1822.46,1075.53 1826.41,1078.7 1830.36,1081.84 1834.3,1084.95 1838.25,1088.02 1842.2,1091.05 1846.14,1094.03 1850.09,1096.97 1854.04,1099.88 1857.98,1102.74 1861.93,1105.55 1865.88,1108.31 1869.82,1111.02 1873.77,1113.68 1877.72,1116.28 1881.67,1118.83 1885.61,1121.32 1889.56,1123.75 1893.51,1126.13 1897.45,1128.44 1901.4,1130.69 1905.35,1132.87 1909.29,1134.97 1913.24,1137.02 1917.19,1139.02 1921.13,1140.95 1925.08,1142.81 1929.03,1144.57 1932.97,1146.25 1936.92,1147.86 1940.87,1149.4 1944.81,1150.88 1948.76,1152.25 1952.71,1153.52 1956.65,1154.71 1960.6,1155.8 1964.55,1156.82 1968.49,1157.76 1972.44,1158.56 1976.39,1159.24 1980.34,1159.79 1984.28,1160.18 1988.23,1160.38 1992.18,1160.42 1996.12,1160.28 2000.07,1159.98 2004.02,1159.52 2007.96,1158.9 2011.91,1158.13 2015.86,1157.17 2019.8,1156.04 2023.75,1154.73 2027.7,1153.25 2031.64,1151.6 2035.59,1149.75 2039.54,1147.68 2043.48,1145.38 2047.43,1142.9 2051.38,1140.25 2055.32,1137.32 2059.27,1134.15 2063.22,1130.76 2067.17,1127.05 2071.11,1123.21 2075.06,1119.14 2079.01,1114.95 2082.95,1110.71 2086.9,1106.55 2090.85,1102.37 2094.79,1098.02 2098.74,1093.42 2102.69,1088.52 2106.63,1083.59 2110.58,1078.7 2114.53,1073.81 2118.47,1069.03 2122.42,1064.49 2126.37,1059.99 2130.31,1055.52 2134.26,1051.3 2138.21,1047.36 2142.15,1043.81 2146.1,1040.76 2150.05,1038.21 2153.99,1036.13 2157.94,1034.51 2161.89,1033.34 2165.84,1032.59 2169.78,1032.21 2173.73,1032.18 2177.68,1032.46 2181.62,1033.02 2185.57,1033.83 2189.52,1034.8 2193.46,1035.97 2197.41,1037.32 2201.36,1038.79 2205.3,1040.35 2209.25,1042.03 2213.2,1043.83 2217.14,1045.72 2221.09,1047.68 2225.04,1049.71 2228.98,1051.77 2232.93,1053.89 2236.88,1056.05 2240.82,1058.24 2244.77,1060.45 2248.72,1062.68 2252.66,1064.91 2256.61,1067.14 2260.56,1069.36 2264.51,1071.55 2268.45,1073.71 2272.4,1075.84 2276.35,1077.95 2280.29,1080.02 2284.24,1082.05 2288.19,1084.04 2292.13,1085.98 "/>
<path clip-path="url(#clip160)" d="M1994.93 248.629 L2281.36 248.629 L2281.36 93.1086 L1994.93 93.1086  Z" fill="#ffffff" fill-rule="evenodd" fill-opacity="1"/>
<polyline clip-path="url(#clip160)" style="stroke:#000000; stroke-linecap:round; stroke-linejoin:round; stroke-width:4; stroke-opacity:1; fill:none" points="1994.93,248.629 2281.36,248.629 2281.36,93.1086 1994.93,93.1086 1994.93,248.629 "/>
<polyline clip-path="url(#clip160)" style="stroke:#009af9; stroke-linecap:round; stroke-linejoin:round; stroke-width:8; stroke-opacity:1; fill:none" points="2018.73,144.949 2161.53,144.949 "/>
<path clip-path="url(#clip160)" d="M2186.91 127.669 L2191.93 127.669 L2200.52 140.516 L2209.15 127.669 L2214.18 127.669 L2203.07 144.266 L2214.92 162.229 L2209.89 162.229 L2200.17 147.53 L2190.38 162.229 L2185.33 162.229 L2197.67 143.78 L2186.91 127.669 Z" fill="#000000" fill-rule="nonzero" fill-opacity="1" /><path clip-path="url(#clip160)" d="M2240.56 170.099 L2240.56 173.409 L2215.94 173.409 L2215.94 170.099 L2240.56 170.099 Z" fill="#000000" fill-rule="nonzero" fill-opacity="1" /><path clip-path="url(#clip160)" d="M2248.78 128.942 L2248.78 136.303 L2257.56 136.303 L2257.56 139.613 L2248.78 139.613 L2248.78 153.687 Q2248.78 156.858 2249.64 157.761 Q2250.52 158.664 2253.18 158.664 L2257.56 158.664 L2257.56 162.229 L2253.18 162.229 Q2248.25 162.229 2246.37 160.4 Q2244.5 158.548 2244.5 153.687 L2244.5 139.613 L2241.37 139.613 L2241.37 136.303 L2244.5 136.303 L2244.5 128.942 L2248.78 128.942 Z" fill="#000000" fill-rule="nonzero" fill-opacity="1" /><polyline clip-path="url(#clip160)" style="stroke:#e26f46; stroke-linecap:round; stroke-linejoin:round; stroke-width:8; stroke-opacity:1; fill:none" points="2018.73,196.789 2161.53,196.789 "/>
<path clip-path="url(#clip160)" d="M2185.33 179.509 L2190.36 179.509 L2199.94 193.722 L2209.45 179.509 L2214.48 179.509 L2202.25 197.61 L2202.25 214.069 L2197.56 214.069 L2197.56 197.61 L2185.33 179.509 Z" fill="#000000" fill-rule="nonzero" fill-opacity="1" /><path clip-path="url(#clip160)" d="M2238.55 221.939 L2238.55 225.249 L2213.92 225.249 L2213.92 221.939 L2238.55 221.939 Z" fill="#000000" fill-rule="nonzero" fill-opacity="1" /><path clip-path="url(#clip160)" d="M2246.77 180.782 L2246.77 188.143 L2255.54 188.143 L2255.54 191.453 L2246.77 191.453 L2246.77 205.527 Q2246.77 208.698 2247.62 209.601 Q2248.5 210.504 2251.17 210.504 L2255.54 210.504 L2255.54 214.069 L2251.17 214.069 Q2246.24 214.069 2244.36 212.24 Q2242.49 210.388 2242.49 205.527 L2242.49 191.453 L2239.36 191.453 L2239.36 188.143 L2242.49 188.143 L2242.49 180.782 L2246.77 180.782 Z" fill="#000000" fill-rule="nonzero" fill-opacity="1" /></svg>
