<?xml version="1.0" encoding="utf-8"?>
<svg xmlns="http://www.w3.org/2000/svg" xmlns:xlink="http://www.w3.org/1999/xlink" width="600" height="400" viewBox="0 0 2400 1600">
<defs>
  <clipPath id="clip280">
    <rect x="0" y="0" width="2400" height="1600"/>
  </clipPath>
</defs>
<path clip-path="url(#clip280)" d="M0 1600 L2400 1600 L2400 0 L0 0  Z" fill="#ffffff" fill-rule="evenodd" fill-opacity="1"/>
<defs>
  <clipPath id="clip281">
    <rect x="480" y="0" width="1681" height="1600"/>
  </clipPath>
</defs>
<path clip-path="url(#clip280)" d="M175.445 1423.18 L2352.76 1423.18 L2352.76 47.2441 L175.445 47.2441  Z" fill="#ffffff" fill-rule="evenodd" fill-opacity="1"/>
<defs>
  <clipPath id="clip282">
    <rect x="175" y="47" width="2178" height="1377"/>
  </clipPath>
</defs>
<polyline clip-path="url(#clip282)" style="stroke:#000000; stroke-linecap:round; stroke-linejoin:round; stroke-width:2; stroke-opacity:0.1; fill:none" points="237.067,1423.18 237.067,47.2441 "/>
<polyline clip-path="url(#clip282)" style="stroke:#000000; stroke-linecap:round; stroke-linejoin:round; stroke-width:2; stroke-opacity:0.1; fill:none" points="750.584,1423.18 750.584,47.2441 "/>
<polyline clip-path="url(#clip282)" style="stroke:#000000; stroke-linecap:round; stroke-linejoin:round; stroke-width:2; stroke-opacity:0.1; fill:none" points="1264.1,1423.18 1264.1,47.2441 "/>
<polyline clip-path="url(#clip282)" style="stroke:#000000; stroke-linecap:round; stroke-linejoin:round; stroke-width:2; stroke-opacity:0.1; fill:none" points="1777.62,1423.18 1777.62,47.2441 "/>
<polyline clip-path="url(#clip282)" style="stroke:#000000; stroke-linecap:round; stroke-linejoin:round; stroke-width:2; stroke-opacity:0.1; fill:none" points="2291.13,1423.18 2291.13,47.2441 "/>
<polyline clip-path="url(#clip280)" style="stroke:#000000; stroke-linecap:round; stroke-linejoin:round; stroke-width:4; stroke-opacity:1; fill:none" points="175.445,1423.18 2352.76,1423.18 "/>
<polyline clip-path="url(#clip280)" style="stroke:#000000; stroke-linecap:round; stroke-linejoin:round; stroke-width:4; stroke-opacity:1; fill:none" points="237.067,1423.18 237.067,1404.28 "/>
<polyline clip-path="url(#clip280)" style="stroke:#000000; stroke-linecap:round; stroke-linejoin:round; stroke-width:4; stroke-opacity:1; fill:none" points="750.584,1423.18 750.584,1404.28 "/>
<polyline clip-path="url(#clip280)" style="stroke:#000000; stroke-linecap:round; stroke-linejoin:round; stroke-width:4; stroke-opacity:1; fill:none" points="1264.1,1423.18 1264.1,1404.28 "/>
<polyline clip-path="url(#clip280)" style="stroke:#000000; stroke-linecap:round; stroke-linejoin:round; stroke-width:4; stroke-opacity:1; fill:none" points="1777.62,1423.18 1777.62,1404.28 "/>
<polyline clip-path="url(#clip280)" style="stroke:#000000; stroke-linecap:round; stroke-linejoin:round; stroke-width:4; stroke-opacity:1; fill:none" points="2291.13,1423.18 2291.13,1404.28 "/>
<path clip-path="url(#clip280)" d="M214.452 1454.1 Q210.84 1454.1 209.012 1457.66 Q207.206 1461.2 207.206 1468.33 Q207.206 1475.44 209.012 1479.01 Q210.84 1482.55 214.452 1482.55 Q218.086 1482.55 219.891 1479.01 Q221.72 1475.44 221.72 1468.33 Q221.72 1461.2 219.891 1457.66 Q218.086 1454.1 214.452 1454.1 M214.452 1450.39 Q220.262 1450.39 223.317 1455 Q226.396 1459.58 226.396 1468.33 Q226.396 1477.06 223.317 1481.67 Q220.262 1486.25 214.452 1486.25 Q208.641 1486.25 205.563 1481.67 Q202.507 1477.06 202.507 1468.33 Q202.507 1459.58 205.563 1455 Q208.641 1450.39 214.452 1450.39 Z" fill="#000000" fill-rule="nonzero" fill-opacity="1" /><path clip-path="url(#clip280)" d="M234.614 1479.7 L239.498 1479.7 L239.498 1485.58 L234.614 1485.58 L234.614 1479.7 Z" fill="#000000" fill-rule="nonzero" fill-opacity="1" /><path clip-path="url(#clip280)" d="M259.683 1454.1 Q256.072 1454.1 254.243 1457.66 Q252.437 1461.2 252.437 1468.33 Q252.437 1475.44 254.243 1479.01 Q256.072 1482.55 259.683 1482.55 Q263.317 1482.55 265.123 1479.01 Q266.951 1475.44 266.951 1468.33 Q266.951 1461.2 265.123 1457.66 Q263.317 1454.1 259.683 1454.1 M259.683 1450.39 Q265.493 1450.39 268.549 1455 Q271.627 1459.58 271.627 1468.33 Q271.627 1477.06 268.549 1481.67 Q265.493 1486.25 259.683 1486.25 Q253.873 1486.25 250.794 1481.67 Q247.738 1477.06 247.738 1468.33 Q247.738 1459.58 250.794 1455 Q253.873 1450.39 259.683 1450.39 Z" fill="#000000" fill-rule="nonzero" fill-opacity="1" /><path clip-path="url(#clip280)" d="M722.32 1481.64 L738.64 1481.64 L738.64 1485.58 L716.695 1485.58 L716.695 1481.64 Q719.357 1478.89 723.941 1474.26 Q728.547 1469.61 729.728 1468.27 Q731.973 1465.74 732.852 1464.01 Q733.755 1462.25 733.755 1460.56 Q733.755 1457.8 731.811 1456.07 Q729.89 1454.33 726.788 1454.33 Q724.589 1454.33 722.135 1455.09 Q719.704 1455.86 716.927 1457.41 L716.927 1452.69 Q719.751 1451.55 722.204 1450.97 Q724.658 1450.39 726.695 1450.39 Q732.065 1450.39 735.26 1453.08 Q738.454 1455.77 738.454 1460.26 Q738.454 1462.39 737.644 1464.31 Q736.857 1466.2 734.751 1468.8 Q734.172 1469.47 731.07 1472.69 Q727.968 1475.88 722.32 1481.64 Z" fill="#000000" fill-rule="nonzero" fill-opacity="1" /><path clip-path="url(#clip280)" d="M748.454 1479.7 L753.338 1479.7 L753.338 1485.58 L748.454 1485.58 L748.454 1479.7 Z" fill="#000000" fill-rule="nonzero" fill-opacity="1" /><path clip-path="url(#clip280)" d="M763.57 1451.02 L781.926 1451.02 L781.926 1454.96 L767.852 1454.96 L767.852 1463.43 Q768.871 1463.08 769.889 1462.92 Q770.908 1462.73 771.926 1462.73 Q777.713 1462.73 781.093 1465.9 Q784.473 1469.08 784.473 1474.49 Q784.473 1480.07 781 1483.17 Q777.528 1486.25 771.209 1486.25 Q769.033 1486.25 766.764 1485.88 Q764.519 1485.51 762.112 1484.77 L762.112 1480.07 Q764.195 1481.2 766.417 1481.76 Q768.639 1482.32 771.116 1482.32 Q775.121 1482.32 777.459 1480.21 Q779.797 1478.1 779.797 1474.49 Q779.797 1470.88 777.459 1468.77 Q775.121 1466.67 771.116 1466.67 Q769.241 1466.67 767.366 1467.08 Q765.514 1467.5 763.57 1468.38 L763.57 1451.02 Z" fill="#000000" fill-rule="nonzero" fill-opacity="1" /><path clip-path="url(#clip280)" d="M1231.27 1451.02 L1249.62 1451.02 L1249.62 1454.96 L1235.55 1454.96 L1235.55 1463.43 Q1236.57 1463.08 1237.58 1462.92 Q1238.6 1462.73 1239.62 1462.73 Q1245.41 1462.73 1248.79 1465.9 Q1252.17 1469.08 1252.17 1474.49 Q1252.17 1480.07 1248.7 1483.17 Q1245.22 1486.25 1238.9 1486.25 Q1236.73 1486.25 1234.46 1485.88 Q1232.21 1485.51 1229.81 1484.77 L1229.81 1480.07 Q1231.89 1481.2 1234.11 1481.76 Q1236.33 1482.32 1238.81 1482.32 Q1242.82 1482.32 1245.15 1480.21 Q1247.49 1478.1 1247.49 1474.49 Q1247.49 1470.88 1245.15 1468.77 Q1242.82 1466.67 1238.81 1466.67 Q1236.94 1466.67 1235.06 1467.08 Q1233.21 1467.5 1231.27 1468.38 L1231.27 1451.02 Z" fill="#000000" fill-rule="nonzero" fill-opacity="1" /><path clip-path="url(#clip280)" d="M1261.38 1479.7 L1266.26 1479.7 L1266.26 1485.58 L1261.38 1485.58 L1261.38 1479.7 Z" fill="#000000" fill-rule="nonzero" fill-opacity="1" /><path clip-path="url(#clip280)" d="M1286.45 1454.1 Q1282.84 1454.1 1281.01 1457.66 Q1279.2 1461.2 1279.2 1468.33 Q1279.2 1475.44 1281.01 1479.01 Q1282.84 1482.55 1286.45 1482.55 Q1290.08 1482.55 1291.89 1479.01 Q1293.72 1475.44 1293.72 1468.33 Q1293.72 1461.2 1291.89 1457.66 Q1290.08 1454.1 1286.45 1454.1 M1286.45 1450.39 Q1292.26 1450.39 1295.32 1455 Q1298.39 1459.58 1298.39 1468.33 Q1298.39 1477.06 1295.32 1481.67 Q1292.26 1486.25 1286.45 1486.25 Q1280.64 1486.25 1277.56 1481.67 Q1274.51 1477.06 1274.51 1468.33 Q1274.51 1459.58 1277.56 1455 Q1280.64 1450.39 1286.45 1450.39 Z" fill="#000000" fill-rule="nonzero" fill-opacity="1" /><path clip-path="url(#clip280)" d="M1743.94 1451.02 L1766.16 1451.02 L1766.16 1453.01 L1753.61 1485.58 L1748.73 1485.58 L1760.53 1454.96 L1743.94 1454.96 L1743.94 1451.02 Z" fill="#000000" fill-rule="nonzero" fill-opacity="1" /><path clip-path="url(#clip280)" d="M1775.28 1479.7 L1780.16 1479.7 L1780.16 1485.58 L1775.28 1485.58 L1775.28 1479.7 Z" fill="#000000" fill-rule="nonzero" fill-opacity="1" /><path clip-path="url(#clip280)" d="M1790.39 1451.02 L1808.75 1451.02 L1808.75 1454.96 L1794.68 1454.96 L1794.68 1463.43 Q1795.7 1463.08 1796.71 1462.92 Q1797.73 1462.73 1798.75 1462.73 Q1804.54 1462.73 1807.92 1465.9 Q1811.3 1469.08 1811.3 1474.49 Q1811.3 1480.07 1807.83 1483.17 Q1804.35 1486.25 1798.03 1486.25 Q1795.86 1486.25 1793.59 1485.88 Q1791.34 1485.51 1788.94 1484.77 L1788.94 1480.07 Q1791.02 1481.2 1793.24 1481.76 Q1795.46 1482.32 1797.94 1482.32 Q1801.95 1482.32 1804.28 1480.21 Q1806.62 1478.1 1806.62 1474.49 Q1806.62 1470.88 1804.28 1468.77 Q1801.95 1466.67 1797.94 1466.67 Q1796.07 1466.67 1794.19 1467.08 Q1792.34 1467.5 1790.39 1468.38 L1790.39 1451.02 Z" fill="#000000" fill-rule="nonzero" fill-opacity="1" /><path clip-path="url(#clip280)" d="M2243.21 1481.64 L2250.84 1481.64 L2250.84 1455.28 L2242.53 1456.95 L2242.53 1452.69 L2250.8 1451.02 L2255.47 1451.02 L2255.47 1481.64 L2263.11 1481.64 L2263.11 1485.58 L2243.21 1485.58 L2243.21 1481.64 Z" fill="#000000" fill-rule="nonzero" fill-opacity="1" /><path clip-path="url(#clip280)" d="M2282.56 1454.1 Q2278.95 1454.1 2277.12 1457.66 Q2275.31 1461.2 2275.31 1468.33 Q2275.31 1475.44 2277.12 1479.01 Q2278.95 1482.55 2282.56 1482.55 Q2286.19 1482.55 2288 1479.01 Q2289.83 1475.44 2289.83 1468.33 Q2289.83 1461.2 2288 1457.66 Q2286.19 1454.1 2282.56 1454.1 M2282.56 1450.39 Q2288.37 1450.39 2291.42 1455 Q2294.5 1459.58 2294.5 1468.33 Q2294.5 1477.06 2291.42 1481.67 Q2288.37 1486.25 2282.56 1486.25 Q2276.75 1486.25 2273.67 1481.67 Q2270.61 1477.06 2270.61 1468.33 Q2270.61 1459.58 2273.67 1455 Q2276.75 1450.39 2282.56 1450.39 Z" fill="#000000" fill-rule="nonzero" fill-opacity="1" /><path clip-path="url(#clip280)" d="M2302.72 1479.7 L2307.6 1479.7 L2307.6 1485.58 L2302.72 1485.58 L2302.72 1479.7 Z" fill="#000000" fill-rule="nonzero" fill-opacity="1" /><path clip-path="url(#clip280)" d="M2327.79 1454.1 Q2324.18 1454.1 2322.35 1457.66 Q2320.54 1461.2 2320.54 1468.33 Q2320.54 1475.44 2322.35 1479.01 Q2324.18 1482.55 2327.79 1482.55 Q2331.42 1482.55 2333.23 1479.01 Q2335.06 1475.44 2335.06 1468.33 Q2335.06 1461.2 2333.23 1457.66 Q2331.42 1454.1 2327.79 1454.1 M2327.79 1450.39 Q2333.6 1450.39 2336.65 1455 Q2339.73 1459.58 2339.73 1468.33 Q2339.73 1477.06 2336.65 1481.67 Q2333.6 1486.25 2327.79 1486.25 Q2321.98 1486.25 2318.9 1481.67 Q2315.84 1477.06 2315.84 1468.33 Q2315.84 1459.58 2318.9 1455 Q2321.98 1450.39 2327.79 1450.39 Z" fill="#000000" fill-rule="nonzero" fill-opacity="1" /><path clip-path="url(#clip280)" d="M1272.57 1531.91 Q1272.57 1532.81 1272.15 1533.04 Q1271.73 1533.23 1270.57 1533.23 L1264.39 1533.23 L1259.5 1552.69 Q1259.11 1554.39 1259.11 1555.84 Q1259.11 1557.45 1259.59 1558.16 Q1260.11 1558.87 1261.17 1558.87 Q1263.26 1558.87 1265.52 1556.97 Q1267.81 1555.07 1269.74 1550.43 Q1270 1549.82 1270.12 1549.69 Q1270.28 1549.53 1270.7 1549.53 Q1271.51 1549.53 1271.51 1550.17 Q1271.51 1550.4 1271.06 1551.43 Q1270.64 1552.46 1269.71 1553.97 Q1268.8 1555.49 1267.61 1556.9 Q1266.45 1558.32 1264.68 1559.35 Q1262.91 1560.35 1261.01 1560.35 Q1258.34 1560.35 1256.63 1558.64 Q1254.95 1556.94 1254.95 1554.26 Q1254.95 1553.39 1255.63 1550.62 Q1256.31 1547.82 1259.98 1533.23 L1254.15 1533.23 Q1253.34 1533.23 1253.02 1533.2 Q1252.73 1533.17 1252.51 1533.01 Q1252.31 1532.81 1252.31 1532.43 Q1252.31 1531.82 1252.57 1531.56 Q1252.83 1531.27 1253.15 1531.24 Q1253.51 1531.17 1254.31 1531.17 L1260.49 1531.17 L1263.07 1520.71 Q1263.33 1519.67 1263.97 1519.09 Q1264.65 1518.48 1265.04 1518.42 Q1265.42 1518.32 1265.71 1518.32 Q1266.58 1518.32 1267.1 1518.81 Q1267.61 1519.26 1267.61 1520.09 Q1267.61 1520.54 1264.91 1531.17 L1270.7 1531.17 Q1271.44 1531.17 1271.73 1531.2 Q1272.06 1531.24 1272.31 1531.4 Q1272.57 1531.56 1272.57 1531.91 Z" fill="#000000" fill-rule="nonzero" fill-opacity="1" /><polyline clip-path="url(#clip282)" style="stroke:#000000; stroke-linecap:round; stroke-linejoin:round; stroke-width:2; stroke-opacity:0.1; fill:none" points="175.445,1384.24 2352.76,1384.24 "/>
<polyline clip-path="url(#clip282)" style="stroke:#000000; stroke-linecap:round; stroke-linejoin:round; stroke-width:2; stroke-opacity:0.1; fill:none" points="175.445,1053.5 2352.76,1053.5 "/>
<polyline clip-path="url(#clip282)" style="stroke:#000000; stroke-linecap:round; stroke-linejoin:round; stroke-width:2; stroke-opacity:0.1; fill:none" points="175.445,722.765 2352.76,722.765 "/>
<polyline clip-path="url(#clip282)" style="stroke:#000000; stroke-linecap:round; stroke-linejoin:round; stroke-width:2; stroke-opacity:0.1; fill:none" points="175.445,392.028 2352.76,392.028 "/>
<polyline clip-path="url(#clip282)" style="stroke:#000000; stroke-linecap:round; stroke-linejoin:round; stroke-width:2; stroke-opacity:0.1; fill:none" points="175.445,61.2912 2352.76,61.2912 "/>
<polyline clip-path="url(#clip280)" style="stroke:#000000; stroke-linecap:round; stroke-linejoin:round; stroke-width:4; stroke-opacity:1; fill:none" points="175.445,1423.18 175.445,47.2441 "/>
<polyline clip-path="url(#clip280)" style="stroke:#000000; stroke-linecap:round; stroke-linejoin:round; stroke-width:4; stroke-opacity:1; fill:none" points="175.445,1384.24 194.343,1384.24 "/>
<polyline clip-path="url(#clip280)" style="stroke:#000000; stroke-linecap:round; stroke-linejoin:round; stroke-width:4; stroke-opacity:1; fill:none" points="175.445,1053.5 194.343,1053.5 "/>
<polyline clip-path="url(#clip280)" style="stroke:#000000; stroke-linecap:round; stroke-linejoin:round; stroke-width:4; stroke-opacity:1; fill:none" points="175.445,722.765 194.343,722.765 "/>
<polyline clip-path="url(#clip280)" style="stroke:#000000; stroke-linecap:round; stroke-linejoin:round; stroke-width:4; stroke-opacity:1; fill:none" points="175.445,392.028 194.343,392.028 "/>
<polyline clip-path="url(#clip280)" style="stroke:#000000; stroke-linecap:round; stroke-linejoin:round; stroke-width:4; stroke-opacity:1; fill:none" points="175.445,61.2912 194.343,61.2912 "/>
<path clip-path="url(#clip280)" d="M127.501 1370.04 Q123.89 1370.04 122.061 1373.6 Q120.255 1377.14 120.255 1384.27 Q120.255 1391.38 122.061 1394.94 Q123.89 1398.49 127.501 1398.49 Q131.135 1398.49 132.941 1394.94 Q134.769 1391.38 134.769 1384.27 Q134.769 1377.14 132.941 1373.6 Q131.135 1370.04 127.501 1370.04 M127.501 1366.33 Q133.311 1366.33 136.367 1370.94 Q139.445 1375.52 139.445 1384.27 Q139.445 1393 136.367 1397.61 Q133.311 1402.19 127.501 1402.19 Q121.691 1402.19 118.612 1397.61 Q115.556 1393 115.556 1384.27 Q115.556 1375.52 118.612 1370.94 Q121.691 1366.33 127.501 1366.33 Z" fill="#000000" fill-rule="nonzero" fill-opacity="1" /><path clip-path="url(#clip280)" d="M123.126 1066.85 L139.445 1066.85 L139.445 1070.78 L117.501 1070.78 L117.501 1066.85 Q120.163 1064.09 124.746 1059.46 Q129.353 1054.81 130.533 1053.47 Q132.779 1050.94 133.658 1049.21 Q134.561 1047.45 134.561 1045.76 Q134.561 1043 132.617 1041.27 Q130.695 1039.53 127.593 1039.53 Q125.394 1039.53 122.941 1040.3 Q120.51 1041.06 117.732 1042.61 L117.732 1037.89 Q120.556 1036.75 123.01 1036.18 Q125.464 1035.6 127.501 1035.6 Q132.871 1035.6 136.066 1038.28 Q139.26 1040.97 139.26 1045.46 Q139.26 1047.59 138.45 1049.51 Q137.663 1051.41 135.556 1054 Q134.978 1054.67 131.876 1057.89 Q128.774 1061.08 123.126 1066.85 Z" fill="#000000" fill-rule="nonzero" fill-opacity="1" /><path clip-path="url(#clip280)" d="M129.862 709.559 L118.056 728.008 L129.862 728.008 L129.862 709.559 M128.635 705.485 L134.515 705.485 L134.515 728.008 L139.445 728.008 L139.445 731.897 L134.515 731.897 L134.515 740.045 L129.862 740.045 L129.862 731.897 L114.26 731.897 L114.26 727.383 L128.635 705.485 Z" fill="#000000" fill-rule="nonzero" fill-opacity="1" /><path clip-path="url(#clip280)" d="M127.917 390.165 Q124.769 390.165 122.918 392.317 Q121.089 394.47 121.089 398.22 Q121.089 401.947 122.918 404.123 Q124.769 406.276 127.917 406.276 Q131.066 406.276 132.894 404.123 Q134.746 401.947 134.746 398.22 Q134.746 394.47 132.894 392.317 Q131.066 390.165 127.917 390.165 M137.2 375.512 L137.2 379.771 Q135.441 378.938 133.635 378.498 Q131.853 378.058 130.093 378.058 Q125.464 378.058 123.01 381.183 Q120.58 384.308 120.232 390.627 Q121.598 388.614 123.658 387.549 Q125.718 386.461 128.195 386.461 Q133.404 386.461 136.413 389.632 Q139.445 392.78 139.445 398.22 Q139.445 403.544 136.297 406.762 Q133.149 409.979 127.917 409.979 Q121.922 409.979 118.751 405.396 Q115.58 400.789 115.58 392.063 Q115.58 383.868 119.468 379.007 Q123.357 374.123 129.908 374.123 Q131.667 374.123 133.45 374.47 Q135.255 374.817 137.2 375.512 Z" fill="#000000" fill-rule="nonzero" fill-opacity="1" /><path clip-path="url(#clip280)" d="M127.593 62.1592 Q124.26 62.1592 122.339 63.9416 Q120.441 65.724 120.441 68.849 Q120.441 71.974 122.339 73.7564 Q124.26 75.5388 127.593 75.5388 Q130.927 75.5388 132.848 73.7564 Q134.769 71.9508 134.769 68.849 Q134.769 65.724 132.848 63.9416 Q130.95 62.1592 127.593 62.1592 M122.918 60.1685 Q119.908 59.4277 118.218 57.3676 Q116.552 55.3074 116.552 52.3445 Q116.552 48.201 119.492 45.7936 Q122.455 43.3862 127.593 43.3862 Q132.755 43.3862 135.695 45.7936 Q138.635 48.201 138.635 52.3445 Q138.635 55.3074 136.945 57.3676 Q135.279 59.4277 132.292 60.1685 Q135.672 60.9555 137.547 63.2472 Q139.445 65.5388 139.445 68.849 Q139.445 73.8721 136.367 76.5573 Q133.311 79.2425 127.593 79.2425 Q121.876 79.2425 118.797 76.5573 Q115.742 73.8721 115.742 68.849 Q115.742 65.5388 117.64 63.2472 Q119.538 60.9555 122.918 60.1685 M121.205 52.7843 Q121.205 55.4694 122.871 56.9741 Q124.561 58.4787 127.593 58.4787 Q130.603 58.4787 132.292 56.9741 Q134.005 55.4694 134.005 52.7843 Q134.005 50.0991 132.292 48.5945 Q130.603 47.0899 127.593 47.0899 Q124.561 47.0899 122.871 48.5945 Q121.205 50.0991 121.205 52.7843 Z" fill="#000000" fill-rule="nonzero" fill-opacity="1" /><path clip-path="url(#clip280)" d="M30.8561 720.775 Q31.307 720.775 32.3698 721.064 L57.5548 727.377 Q63.1586 728.762 67.0877 733.27 Q71.0168 737.747 71.0168 742.836 Q71.0168 745.895 69.3743 747.86 Q67.764 749.824 65.2842 749.824 Q63.0942 749.824 62.0314 748.665 Q61.0008 747.505 61.0008 746.121 Q61.0008 745.67 61.1296 745.187 Q61.2584 744.703 61.8059 744.188 Q62.3534 743.673 63.2874 743.673 Q64.8011 743.673 65.9927 744.993 Q66.5402 745.637 66.669 746.249 Q66.7978 746.829 66.7978 747.827 Q67.6996 747.441 68.3115 746.732 Q68.9234 746.024 69.1489 745.219 Q69.4065 744.414 69.4709 743.898 Q69.5675 743.351 69.5675 742.836 Q69.5675 738.713 65.413 735.557 Q64.157 734.623 62.9009 733.947 Q61.6771 733.238 60.1634 732.723 Q58.682 732.208 57.8768 731.982 Q57.0717 731.725 55.2359 731.274 Q58.2311 734.269 58.2311 737.94 Q58.2311 739.486 57.8124 740.871 Q57.3937 742.224 56.5242 743.415 Q55.6224 744.607 54.0443 745.315 Q52.4662 745.992 50.3728 745.992 Q48.1506 745.992 45.1233 745.122 Q42.0959 744.253 36.5243 742.159 Q33.4004 741.032 31.8867 741.032 Q31.146 741.032 30.6951 741.193 Q30.212 741.354 30.051 741.676 Q29.8577 741.998 29.8255 742.191 Q29.7933 742.352 29.7933 742.675 Q29.7933 744.575 31.7257 746.346 Q33.658 748.117 37.9736 749.341 Q38.7787 749.599 38.972 749.76 Q39.1652 749.921 39.1652 750.404 Q39.133 751.209 38.4889 751.209 Q38.2312 751.209 37.2329 750.919 Q36.2023 750.629 34.6886 749.953 Q33.1427 749.245 31.7579 748.278 Q30.3408 747.312 29.3424 745.798 Q28.344 744.253 28.344 742.481 Q28.344 740.066 29.9221 738.584 Q31.468 737.071 33.7546 737.071 Q34.6886 737.071 35.5259 737.328 Q36.3311 737.554 38.4889 738.391 Q47.1845 741.773 51.4356 741.773 Q52.4662 741.773 53.3358 741.612 Q54.1731 741.418 55.0105 741 Q55.8156 740.581 56.2987 739.744 Q56.7496 738.874 56.7496 737.683 Q56.7496 736.169 56.0411 734.752 Q55.3003 733.303 54.302 732.401 Q53.3036 731.467 52.4662 730.919 Q51.5967 730.34 51.1458 730.211 L39.294 727.248 L34.0123 725.927 Q31.146 725.316 30.4374 725.026 Q29.7611 724.639 29.4068 723.963 Q29.0526 723.287 29.0526 722.707 Q29.0526 721.902 29.5357 721.354 Q30.0187 720.775 30.8561 720.775 Z" fill="#000000" fill-rule="nonzero" fill-opacity="1" /><polyline clip-path="url(#clip282)" style="stroke:#009af9; stroke-linecap:round; stroke-linejoin:round; stroke-width:8; stroke-opacity:1; fill:none" stroke-dasharray="32, 20" points="237.067,1384.24 241.079,1384.24 245.091,1384.24 249.103,1384.24 253.115,1384.24 257.126,1384.24 261.138,1384.24 265.15,1384.24 269.162,1384.24 273.174,1384.24 277.186,1384.24 281.198,1384.24 285.209,1384.24 289.221,1384.24 293.233,1384.24 297.245,1384.24 301.257,1384.24 305.269,1384.24 309.28,1384.24 313.292,1384.24 317.304,1384.24 321.316,1384.24 325.328,1384.24 329.34,1384.24 333.352,1361.17 337.363,1361.17 341.375,1361.17 345.387,1361.17 349.399,1361.17 353.411,1361.17 357.423,1361.17 361.435,1361.17 365.446,1361.17 369.458,1361.17 373.47,1361.17 377.482,1361.17 381.494,1361.17 385.506,1361.17 389.517,1361.17 393.529,1361.17 397.541,1361.17 401.553,1361.17 405.565,1361.17 409.577,1361.17 413.589,1361.17 417.6,1361.17 421.612,1361.17 425.624,1361.17 429.636,1361.17 433.648,1332.7 437.66,1332.7 441.672,1332.7 445.683,1332.7 449.695,1332.7 453.707,1332.7 457.719,1332.7 461.731,1332.7 465.743,1332.7 469.754,1332.7 473.766,1332.7 477.778,1332.7 481.79,1332.7 485.802,1332.7 489.814,1332.7 493.826,1332.7 497.837,1332.7 501.849,1332.7 505.861,1274.31 509.873,1274.31 513.885,1274.31 517.897,1274.31 521.908,1274.31 525.92,1274.31 529.932,1211.99 533.944,1211.99 537.956,1211.99 541.968,1211.99 545.98,1211.99 549.991,1211.99 554.003,1211.99 558.015,1200.76 562.027,1200.76 566.039,1200.76 570.051,1200.76 574.063,1200.76 578.074,1200.76 582.086,1187.72 586.098,1187.72 590.11,1187.72 594.122,1187.72 598.134,1187.72 602.145,1187.72 606.157,1187.72 610.169,1187.72 614.181,1187.72 618.193,1187.72 622.205,1187.72 626.217,1179.86 630.228,1179.86 634.24,1179.86 638.252,1179.86 642.264,1179.86 646.276,1179.86 650.288,1179.86 654.3,1179.86 658.311,1126.29 662.323,1126.29 666.335,1126.29 670.347,1126.29 674.359,1126.29 678.371,1126.29 682.382,1126.29 686.394,1126.29 690.406,1126.29 694.418,1093.49 698.43,1093.49 702.442,1093.49 706.454,1093.49 710.465,1093.49 714.477,1093.49 718.489,1093.49 722.501,1093.49 726.513,1093.49 730.525,1093.49 734.536,1093.49 738.548,1093.49 742.56,1093.49 746.572,1093.49 750.584,1093.49 754.596,1093.49 758.608,1093.49 762.619,1093.49 766.631,1050.78 770.643,1025.02 774.655,1025.02 778.667,1025.02 782.679,1025.02 786.691,991.373 790.702,991.373 794.714,991.373 798.726,991.373 802.738,969.465 806.75,969.465 810.762,969.465 814.773,969.465 818.785,969.465 822.797,969.465 826.809,969.465 830.821,914.164 834.833,914.164 838.845,914.164 842.856,914.164 846.868,914.164 850.88,914.164 854.892,914.164 858.904,914.164 862.916,914.164 866.928,914.164 870.939,914.164 874.951,914.164 878.963,914.164 882.975,914.164 886.987,914.164 890.999,914.164 895.01,914.164 899.022,914.164 903.034,914.164 907.046,914.164 911.058,914.164 915.07,914.164 919.082,914.164 923.093,914.164 927.105,914.164 931.117,914.164 935.129,914.164 939.141,898.212 943.153,898.212 947.164,898.212 951.176,898.212 955.188,898.212 959.2,898.212 963.212,898.212 967.224,898.212 971.236,898.212 975.247,898.212 979.259,898.212 983.271,898.212 987.283,898.212 991.295,898.212 995.307,898.212 999.319,898.212 1003.33,898.212 1007.34,898.212 1011.35,898.212 1015.37,898.212 1019.38,898.212 1023.39,898.212 1027.4,898.212 1031.41,898.212 1035.43,898.212 1039.44,898.212 1043.45,898.212 1047.46,898.212 1051.47,898.212 1055.48,898.212 1059.5,898.212 1063.51,898.212 1067.52,867.054 1071.53,867.054 1075.54,867.054 1079.56,867.054 1083.57,867.054 1087.58,867.054 1091.59,867.054 1095.6,867.054 1099.61,867.054 1103.63,867.054 1107.64,867.054 1111.65,867.054 1115.66,867.054 1119.67,867.054 1123.69,867.054 1127.7,867.054 1131.71,867.054 1135.72,867.054 1139.73,867.054 1143.75,867.054 1147.76,867.054 1151.77,867.054 1155.78,867.054 1159.79,867.054 1163.8,867.054 1167.82,867.054 1171.83,867.054 1175.84,867.054 1179.85,867.054 1183.86,867.054 1187.88,867.054 1191.89,867.054 1195.9,867.054 1199.91,867.054 1203.92,867.054 1207.93,867.054 1211.95,867.054 1215.96,867.054 1219.97,867.054 1223.98,867.054 1227.99,867.054 1232.01,867.054 1236.02,867.054 1240.03,867.054 1244.04,867.054 1248.05,867.054 1252.07,867.054 1256.08,867.054 1260.09,867.054 1264.1,867.054 1268.11,867.054 1272.12,867.054 1276.14,867.054 1280.15,867.054 1284.16,867.054 1288.17,867.054 1292.18,867.054 1296.2,867.054 1300.21,867.054 1304.22,867.054 1308.23,867.054 1312.24,867.054 1316.25,867.054 1320.27,867.054 1324.28,867.054 1328.29,867.054 1332.3,867.054 1336.31,867.054 1340.33,867.054 1344.34,867.054 1348.35,867.054 1352.36,867.054 1356.37,798.867 1360.38,798.867 1364.4,798.867 1368.41,798.867 1372.42,798.867 1376.43,798.867 1380.44,798.867 1384.46,798.867 1388.47,798.867 1392.48,798.867 1396.49,798.867 1400.5,798.867 1404.52,798.867 1408.53,798.867 1412.54,798.867 1416.55,798.867 1420.56,798.867 1424.57,798.867 1428.59,798.867 1432.6,798.867 1436.61,798.867 1440.62,798.867 1444.63,798.867 1448.65,798.867 1452.66,798.867 1456.67,798.867 1460.68,798.867 1464.69,798.867 1468.7,798.867 1472.72,798.867 1476.73,798.867 1480.74,798.867 1484.75,798.867 1488.76,798.867 1492.78,798.867 1496.79,798.867 1500.8,798.867 1504.81,798.867 1508.82,798.867 1512.84,798.867 1516.85,798.867 1520.86,798.867 1524.87,798.867 1528.88,798.867 1532.89,798.867 1536.91,798.867 1540.92,798.867 1544.93,798.867 1548.94,798.867 1552.95,798.867 1556.97,798.867 1560.98,798.867 1564.99,781.651 1569,781.651 1573.01,781.651 1577.02,781.651 1581.04,781.651 1585.05,781.651 1589.06,781.651 1593.07,781.651 1597.08,781.651 1601.1,781.651 1605.11,781.651 1609.12,781.651 1613.13,781.651 1617.14,781.651 1621.16,781.651 1625.17,781.651 1629.18,781.651 1633.19,781.651 1637.2,781.651 1641.21,781.651 1645.23,765.839 1649.24,765.839 1653.25,765.839 1657.26,765.839 1661.27,765.839 1665.29,765.839 1669.3,765.839 1673.31,765.839 1677.32,765.839 1681.33,765.839 1685.34,765.839 1689.36,765.839 1693.37,765.839 1697.38,709.186 1701.39,709.186 1705.4,709.186 1709.42,709.186 1713.43,709.186 1717.44,709.186 1721.45,709.186 1725.46,709.186 1729.48,709.186 1733.49,709.186 1737.5,709.186 1741.51,709.186 1745.52,709.186 1749.53,709.186 1753.55,709.186 1757.56,709.186 1761.57,709.186 1765.58,709.186 1769.59,709.186 1773.61,709.186 1777.62,709.186 1781.63,709.186 1785.64,709.186 1789.65,709.186 1793.66,709.186 1797.68,709.186 1801.69,658.334 1805.7,577.921 1809.71,577.921 1813.72,577.921 1817.74,577.921 1821.75,577.921 1825.76,577.921 1829.77,577.921 1833.78,577.921 1837.79,577.921 1841.81,577.921 1845.82,577.921 1849.83,577.921 1853.84,577.921 1857.85,577.921 1861.87,577.921 1865.88,577.921 1869.89,577.921 1873.9,577.921 1877.91,577.921 1881.93,577.921 1885.94,577.921 1889.95,577.921 1893.96,577.921 1897.97,577.921 1901.98,577.921 1906,577.921 1910.01,577.921 1914.02,577.921 1918.03,565.328 1922.04,565.328 1926.06,565.328 1930.07,565.328 1934.08,565.328 1938.09,565.328 1942.1,565.328 1946.11,565.328 1950.13,565.328 1954.14,565.328 1958.15,565.328 1962.16,565.328 1966.17,565.328 1970.19,565.328 1974.2,565.328 1978.21,565.328 1982.22,565.328 1986.23,565.328 1990.25,565.328 1994.26,565.328 1998.27,565.328 2002.28,565.328 2006.29,565.328 2010.3,565.328 2014.32,565.328 2018.33,565.328 2022.34,565.328 2026.35,565.328 2030.36,565.328 2034.38,565.328 2038.39,565.328 2042.4,565.328 2046.41,565.328 2050.42,565.328 2054.43,565.328 2058.45,565.328 2062.46,565.328 2066.47,565.328 2070.48,565.328 2074.49,565.328 2078.51,565.328 2082.52,565.328 2086.53,565.328 2090.54,565.328 2094.55,565.328 2098.57,565.328 2102.58,565.328 2106.59,565.328 2110.6,565.328 2114.61,565.328 2118.62,565.328 2122.64,565.328 2126.65,565.328 2130.66,565.328 2134.67,565.328 2138.68,565.328 2142.7,565.328 2146.71,515.495 2150.72,515.495 2154.73,515.495 2158.74,515.495 2162.75,515.495 2166.77,515.495 2170.78,515.495 2174.79,515.495 2178.8,515.495 2182.81,515.495 2186.83,515.495 2190.84,515.495 2194.85,515.495 2198.86,515.495 2202.87,515.495 2206.89,515.495 2210.9,515.495 2214.91,515.495 2218.92,515.495 2222.93,515.495 2226.94,515.495 2230.96,515.495 2234.97,515.495 2238.98,515.495 2242.99,515.495 2247,515.495 2251.02,515.495 2255.03,515.495 2259.04,515.495 2263.05,515.495 2267.06,515.495 2271.07,515.495 2275.09,515.495 2279.1,515.495 2283.11,515.495 2287.12,515.495 2291.13,515.495 "/>
<polyline clip-path="url(#clip282)" style="stroke:#e26f46; stroke-linecap:round; stroke-linejoin:round; stroke-width:8; stroke-opacity:1; fill:none" stroke-dasharray="32, 16, 4, 16" points="237.067,1351.16 241.079,1350.8 245.091,1350.58 249.103,1350.26 253.115,1349.36 257.126,1349.53 261.138,1348.93 265.15,1348 269.162,1347.11 273.174,1348.11 277.186,1347.88 281.198,1347.41 285.209,1346.49 289.221,1346.64 293.233,1347.13 297.245,1348.88 301.257,1350.32 305.269,1349.97 309.28,1348.46 313.292,1349.36 317.304,1349.46 321.316,1347.74 325.328,1347.51 329.34,1347.02 333.352,1347.37 337.363,1346.34 341.375,1343.79 345.387,1342.16 349.399,1342.1 353.411,1340.76 357.423,1340.08 361.435,1339.84 365.446,1339.64 369.458,1339.27 373.47,1338.9 377.482,1338.59 381.494,1338.16 385.506,1337.48 389.517,1337.26 393.529,1337.04 397.541,1335.68 401.553,1334.76 405.565,1333.78 409.577,1334.32 413.589,1334.55 417.6,1334.09 421.612,1331.68 425.624,1330.48 429.636,1331.93 433.648,1328.01 437.66,1326.57 441.672,1325.65 445.683,1326.58 449.695,1325.31 453.707,1324.68 457.719,1326.14 461.731,1328.13 465.743,1330.45 469.754,1328.24 473.766,1325.7 477.778,1328.17 481.79,1327.62 485.802,1327.99 489.814,1328.21 493.826,1328.9 497.837,1327.96 501.849,1327.34 505.861,1327.23 509.873,1326.89 513.885,1326.47 517.897,1326.17 521.908,1325.45 525.92,1324.39 529.932,1324.33 533.944,1325.08 537.956,1323.94 541.968,1323.31 545.98,1322.59 549.991,1321.22 554.003,1319.59 558.015,1319.45 562.027,1319.76 566.039,1319.38 570.051,1317.19 574.063,1317.93 578.074,1315.93 582.086,1314.12 586.098,1312.61 590.11,1312.8 594.122,1310.52 598.134,1308.93 602.145,1305.3 606.157,1304.39 610.169,1302.94 614.181,1300.55 618.193,1300.65 622.205,1298.75 626.217,1297.35 630.228,1294.77 634.24,1293.97 638.252,1293.63 642.264,1293.21 646.276,1292.46 650.288,1291.93 654.3,1290.51 658.311,1290.24 662.323,1289.45 666.335,1289.87 670.347,1288.91 674.359,1288 678.371,1286.65 682.382,1284.7 686.394,1284.35 690.406,1283.83 694.418,1282.23 698.43,1278.22 702.442,1280.1 706.454,1287.97 710.465,1285.53 714.477,1289.18 718.489,1292.23 722.501,1291.65 726.513,1290.76 730.525,1290.45 734.536,1288.34 738.548,1286.75 742.56,1285.34 746.572,1282.89 750.584,1277.94 754.596,1278.3 758.608,1280.63 762.619,1277.72 766.631,1276.5 770.643,1276.47 774.655,1276.17 778.667,1275.42 782.679,1274.96 786.691,1274.19 790.702,1273.54 794.714,1273.86 798.726,1272.91 802.738,1272.04 806.75,1271.65 810.762,1269.56 814.773,1273.95 818.785,1272.58 822.797,1269.23 826.809,1267.01 830.821,1264.38 834.833,1262.5 838.845,1260.51 842.856,1256.12 846.868,1256.66 850.88,1252.17 854.892,1249.12 858.904,1244.05 862.916,1239.05 866.928,1240.79 870.939,1240.15 874.951,1244.9 878.963,1248.64 882.975,1244.33 886.987,1244.55 890.999,1247.89 895.01,1247.52 899.022,1250.43 903.034,1250.01 907.046,1250.3 911.058,1248.54 915.07,1248.16 919.082,1247.28 923.093,1246.57 927.105,1245.62 931.117,1244.27 935.129,1242.36 939.141,1240.1 943.153,1239.49 947.164,1234.71 951.176,1235.75 955.188,1234 959.2,1232.47 963.212,1230.21 967.224,1228.7 971.236,1228.31 975.247,1234.29 979.259,1231.25 983.271,1236.31 987.283,1234.73 991.295,1231.93 995.307,1234.79 999.319,1233.16 1003.33,1230.08 1007.34,1227.4 1011.35,1228.06 1015.37,1235.34 1019.38,1235.55 1023.39,1226.71 1027.4,1222.09 1031.41,1223.85 1035.43,1221.83 1039.44,1220.28 1043.45,1218.24 1047.46,1215.2 1051.47,1213.99 1055.48,1213.41 1059.5,1212.29 1063.51,1211.68 1067.52,1210.23 1071.53,1208.54 1075.54,1204.29 1079.56,1200.09 1083.57,1193.7 1087.58,1199.98 1091.59,1200.89 1095.6,1205.2 1099.61,1196.55 1103.63,1195.05 1107.64,1184.45 1111.65,1177.06 1115.66,1177.31 1119.67,1168.04 1123.69,1169.41 1127.7,1165.21 1131.71,1153.91 1135.72,1154.25 1139.73,1156.04 1143.75,1159.86 1147.76,1166.68 1151.77,1168.43 1155.78,1171.21 1159.79,1171.45 1163.8,1170.09 1167.82,1161.06 1171.83,1158.94 1175.84,1159.19 1179.85,1156.39 1183.86,1156.65 1187.88,1154.45 1191.89,1151.29 1195.9,1149.47 1199.91,1147.09 1203.92,1146.54 1207.93,1144.3 1211.95,1141.27 1215.96,1141.26 1219.97,1141.55 1223.98,1138.25 1227.99,1139.9 1232.01,1149.88 1236.02,1148.42 1240.03,1150.85 1244.04,1148.08 1248.05,1143.94 1252.07,1140.23 1256.08,1137.81 1260.09,1145.1 1264.1,1144.87 1268.11,1130.9 1272.12,1126.84 1276.14,1124.37 1280.15,1125.08 1284.16,1137.13 1288.17,1133.06 1292.18,1143.2 1296.2,1137.32 1300.21,1143.79 1304.22,1146.52 1308.23,1144.18 1312.24,1143.15 1316.25,1141.23 1320.27,1139.59 1324.28,1140.09 1328.29,1139.3 1332.3,1138.06 1336.31,1136.19 1340.33,1135.34 1344.34,1132.73 1348.35,1128.67 1352.36,1121.95 1356.37,1118.98 1360.38,1117.36 1364.4,1118.23 1368.41,1125.2 1372.42,1126.81 1376.43,1112.31 1380.44,1100.19 1384.46,1083.52 1388.47,1100 1392.48,1093.12 1396.49,1101.48 1400.5,1102.49 1404.52,1108.95 1408.53,1103.51 1412.54,1098.62 1416.55,1098.06 1420.56,1104.04 1424.57,1109.84 1428.59,1107.22 1432.6,1108.3 1436.61,1109.98 1440.62,1108.76 1444.63,1104.49 1448.65,1108.17 1452.66,1106.96 1456.67,1102.32 1460.68,1097.44 1464.69,1097.28 1468.7,1096.01 1472.72,1094.08 1476.73,1092.09 1480.74,1085.53 1484.75,1083.86 1488.76,1079.55 1492.78,1077.6 1496.79,1081.07 1500.8,1081.26 1504.81,1082.82 1508.82,1079.94 1512.84,1083.44 1516.85,1080.67 1520.86,1079.68 1524.87,1061.37 1528.88,1050.33 1532.89,1062.58 1536.91,1062.27 1540.92,1051.93 1544.93,1056.29 1548.94,1058.4 1552.95,1045.76 1556.97,1036.97 1560.98,1045.61 1564.99,1042.06 1569,1042.42 1573.01,1049.47 1577.02,1047.49 1581.04,1051.03 1585.05,1051.75 1589.06,1046.83 1593.07,1047.03 1597.08,1049.68 1601.1,1047.96 1605.11,1045.23 1609.12,1043.22 1613.13,1041.95 1617.14,1038.38 1621.16,1032.7 1625.17,1031.37 1629.18,1026.66 1633.19,1021.21 1637.2,1017.96 1641.21,1020.84 1645.23,1029.02 1649.24,1022.6 1653.25,1011.17 1657.26,985.372 1661.27,962.754 1665.29,955.609 1669.3,938.306 1673.31,938.935 1677.32,939.082 1681.33,946.808 1685.34,939.274 1689.36,922.357 1693.37,922.991 1697.38,911.925 1701.39,926.437 1705.4,922.32 1709.42,929.74 1713.43,927.955 1717.44,924.501 1721.45,917.183 1725.46,906.556 1729.48,903.292 1733.49,894.85 1737.5,892.606 1741.51,891.333 1745.52,887.801 1749.53,883.082 1753.55,879.39 1757.56,872.831 1761.57,870.876 1765.58,884.912 1769.59,884.841 1773.61,886.189 1777.62,884.105 1781.63,859.921 1785.64,825.05 1789.65,812.777 1793.66,817.891 1797.68,797.564 1801.69,798.911 1805.7,786.362 1809.71,790.527 1813.72,783.948 1817.74,791.024 1821.75,800.024 1825.76,793.105 1829.77,771.407 1833.78,761.565 1837.79,746.407 1841.81,747.904 1845.82,751.847 1849.83,753.331 1853.84,748.124 1857.85,742.146 1861.87,735.352 1865.88,734.397 1869.89,729.23 1873.9,723.682 1877.91,721.776 1881.93,717.866 1885.94,712.516 1889.95,709.947 1893.96,710.772 1897.97,688.176 1901.98,689.811 1906,703.423 1910.01,716.901 1914.02,709.171 1918.03,691.104 1922.04,685.792 1926.06,671.272 1930.07,686.676 1934.08,699.732 1938.09,686.885 1942.1,675.345 1946.11,667.362 1950.13,659.491 1954.14,671.696 1958.15,704.722 1962.16,677.171 1966.17,667.008 1970.19,640.949 1974.2,620.54 1978.21,589.28 1982.22,571.282 1986.23,542.084 1990.25,525.832 1994.26,518.746 1998.27,499.424 2002.28,495.931 2006.29,483.741 2010.3,475.02 2014.32,471.748 2018.33,463.93 2022.34,460.3 2026.35,455.341 2030.36,440.911 2034.38,425.243 2038.39,412.732 2042.4,428.523 2046.41,423.819 2050.42,374.291 2054.43,385.923 2058.45,348.187 2062.46,350.587 2066.47,356.063 2070.48,338.569 2074.49,349.844 2078.51,375.049 2082.52,410.521 2086.53,415.357 2090.54,402.099 2094.55,335.557 2098.57,330.269 2102.58,334.162 2106.59,327.547 2110.6,311.395 2114.61,339.922 2118.62,301.933 2122.64,274.656 2126.65,236.781 2130.66,216.892 2134.67,216.368 2138.68,197.417 2142.7,215.21 2146.71,210.545 2150.72,195.519 2154.73,187.916 2158.74,182.751 2162.75,184.721 2166.77,160.368 2170.78,160.586 2174.79,163.716 2178.8,171.018 2182.81,149.373 2186.83,109.037 2190.84,147.117 2194.85,131.454 2198.86,105.012 2202.87,86.1857 2206.89,86.2871 2210.9,143.983 2214.91,118.085 2218.92,153.67 2222.93,131.22 2226.94,125.406 2230.96,181.2 2234.97,183.004 2238.98,217.664 2242.99,206.595 2247,210.363 2251.02,224.403 2255.03,213.875 2259.04,197.526 2263.05,169.813 2267.06,159.398 2271.07,149.94 2275.09,139.937 2279.1,133.219 2283.11,115.294 2287.12,109.763 2291.13,98.8131 "/>
<path clip-path="url(#clip280)" d="M248.022 248.629 L520.104 248.629 L520.104 93.1086 L248.022 93.1086  Z" fill="#ffffff" fill-rule="evenodd" fill-opacity="1"/>
<polyline clip-path="url(#clip280)" style="stroke:#000000; stroke-linecap:round; stroke-linejoin:round; stroke-width:4; stroke-opacity:1; fill:none" points="248.022,248.629 520.104,248.629 520.104,93.1086 248.022,93.1086 248.022,248.629 "/>
<polyline clip-path="url(#clip280)" style="stroke:#009af9; stroke-linecap:round; stroke-linejoin:round; stroke-width:8; stroke-opacity:1; fill:none" stroke-dasharray="32, 20" points="272.215,144.949 417.369,144.949 "/>
<path clip-path="url(#clip280)" d="M474.469 154.558 Q474.469 155.003 474.282 155.237 Q474.118 155.448 473.954 155.495 Q473.814 155.518 473.603 155.518 Q472.994 155.518 470.886 155.448 Q468.778 155.378 468.169 155.378 Q467.185 155.378 465.171 155.448 Q463.156 155.518 462.173 155.518 Q461.517 155.518 461.517 154.98 Q461.517 154.628 461.587 154.441 Q461.657 154.23 461.845 154.16 Q462.056 154.066 462.173 154.066 Q462.313 154.043 462.665 154.043 Q463.133 154.043 463.625 153.996 Q464.117 153.926 464.726 153.785 Q465.335 153.645 465.71 153.293 Q466.108 152.942 466.108 152.45 Q466.108 152.239 465.944 150.506 Q465.78 148.773 465.569 146.758 Q465.358 144.721 465.335 144.44 L453.296 144.44 Q452.195 146.337 451.422 147.649 Q450.649 148.96 450.368 149.405 Q450.087 149.85 449.923 150.131 Q449.759 150.412 449.665 150.576 Q448.986 151.818 448.986 152.356 Q448.986 153.855 451.234 154.043 Q452.007 154.043 452.007 154.605 Q452.007 155.027 451.82 155.261 Q451.633 155.472 451.469 155.495 Q451.328 155.518 451.094 155.518 Q450.321 155.518 448.705 155.448 Q447.089 155.378 446.292 155.378 Q445.613 155.378 444.208 155.448 Q442.802 155.518 442.17 155.518 Q441.889 155.518 441.725 155.355 Q441.561 155.191 441.561 154.98 Q441.561 154.652 441.608 154.464 Q441.678 154.277 441.865 154.183 Q442.053 154.09 442.147 154.09 Q442.24 154.066 442.568 154.043 Q444.348 153.926 445.73 153.083 Q447.136 152.216 448.471 149.991 L465.147 121.978 Q465.311 121.696 465.428 121.556 Q465.546 121.415 465.78 121.298 Q466.037 121.181 466.412 121.181 Q466.998 121.181 467.115 121.369 Q467.232 121.532 467.302 122.329 L470.23 152.31 Q470.3 152.942 470.347 153.2 Q470.417 153.434 470.722 153.692 Q471.05 153.926 471.635 153.996 Q472.244 154.043 473.369 154.043 Q473.79 154.043 473.954 154.066 Q474.118 154.066 474.282 154.183 Q474.469 154.3 474.469 154.558 M465.194 142.941 L463.672 127.13 L454.209 142.941 L465.194 142.941 Z" fill="#000000" fill-rule="nonzero" fill-opacity="1" /><path clip-path="url(#clip280)" d="M489.572 153.907 Q489.572 154.366 489.359 154.48 Q489.146 154.579 488.555 154.579 L485.407 154.579 L482.915 164.482 Q482.719 165.351 482.719 166.089 Q482.719 166.908 482.965 167.269 Q483.227 167.63 483.768 167.63 Q484.834 167.63 485.981 166.662 Q487.145 165.695 488.129 163.334 Q488.26 163.023 488.326 162.957 Q488.408 162.875 488.621 162.875 Q489.031 162.875 489.031 163.203 Q489.031 163.318 488.801 163.842 Q488.588 164.367 488.113 165.138 Q487.654 165.908 487.047 166.63 Q486.457 167.351 485.555 167.876 Q484.653 168.384 483.686 168.384 Q482.325 168.384 481.456 167.515 Q480.604 166.646 480.604 165.285 Q480.604 164.843 480.948 163.432 Q481.292 162.006 483.161 154.579 L480.194 154.579 Q479.784 154.579 479.62 154.562 Q479.472 154.546 479.357 154.464 Q479.259 154.366 479.259 154.169 Q479.259 153.857 479.39 153.726 Q479.521 153.579 479.685 153.562 Q479.866 153.529 480.276 153.529 L483.424 153.529 L484.735 148.201 Q484.866 147.676 485.194 147.381 Q485.539 147.07 485.735 147.037 Q485.932 146.988 486.08 146.988 Q486.522 146.988 486.785 147.234 Q487.047 147.463 487.047 147.889 Q487.047 148.119 485.67 153.529 L488.621 153.529 Q488.998 153.529 489.146 153.546 Q489.31 153.562 489.441 153.644 Q489.572 153.726 489.572 153.907 Z" fill="#000000" fill-rule="nonzero" fill-opacity="1" /><polyline clip-path="url(#clip280)" style="stroke:#e26f46; stroke-linecap:round; stroke-linejoin:round; stroke-width:8; stroke-opacity:1; fill:none" stroke-dasharray="32, 16, 4, 16" points="272.215,196.789 417.369,196.789 "/>
<path clip-path="url(#clip280)" d="M475.805 180.446 Q475.805 182.624 474.306 184.591 Q472.83 186.535 470.581 187.777 Q468.333 188.995 465.78 189.463 Q469.223 189.861 471.214 191.735 Q473.228 193.609 473.228 196.232 Q473.228 197.989 472.198 199.839 Q471.19 201.666 469.457 203.165 Q467.747 204.664 465.218 205.625 Q462.711 206.585 459.971 206.585 L442.849 206.585 Q442.31 206.585 442.1 206.562 Q441.889 206.538 441.725 206.421 Q441.561 206.304 441.561 206.046 Q441.561 205.578 441.725 205.367 Q441.912 205.156 442.123 205.133 Q442.334 205.109 442.849 205.109 Q444.02 205.109 444.723 205.039 Q445.426 204.969 445.871 204.875 Q446.339 204.758 446.573 204.43 Q446.831 204.102 446.948 203.821 Q447.065 203.517 447.229 202.837 L453.647 177.073 Q453.834 176.3 453.834 176.183 Q453.834 175.738 453.553 175.621 Q453.296 175.48 452.546 175.41 L450.719 175.316 Q450.157 175.316 449.923 175.293 Q449.712 175.269 449.548 175.152 Q449.384 175.035 449.384 174.777 Q449.384 174.122 449.665 173.981 Q449.97 173.817 450.766 173.817 L466.881 173.817 Q471.026 173.817 473.415 175.738 Q475.805 177.635 475.805 180.446 M471.448 180.258 Q471.448 179.368 471.214 178.572 Q470.98 177.775 470.417 177.002 Q469.879 176.23 468.801 175.785 Q467.724 175.316 466.225 175.316 L460.018 175.316 Q458.495 175.316 458.121 175.597 Q457.769 175.855 457.441 177.143 L454.467 189.018 L461.47 189.018 Q463.601 189.018 465.475 188.245 Q467.372 187.472 468.661 186.231 Q469.949 184.966 470.698 183.397 Q471.448 181.828 471.448 180.258 M468.754 195.694 Q468.754 194.991 468.637 194.312 Q468.52 193.632 468.145 192.836 Q467.771 192.04 467.185 191.454 Q466.6 190.869 465.569 190.47 Q464.562 190.072 463.25 190.072 L454.186 190.072 L450.86 203.47 Q450.625 204.336 450.625 204.571 Q450.625 204.828 450.743 204.922 Q450.883 204.992 451.258 205.039 Q451.679 205.109 452.312 205.109 L458.823 205.109 Q460.884 205.109 462.758 204.313 Q464.632 203.493 465.92 202.182 Q467.232 200.87 467.981 199.16 Q468.754 197.45 468.754 195.694 Z" fill="#000000" fill-rule="nonzero" fill-opacity="1" /><path clip-path="url(#clip280)" d="M490.9 204.973 Q490.9 205.432 490.687 205.547 Q490.474 205.645 489.884 205.645 L486.736 205.645 L484.243 215.548 Q484.047 216.417 484.047 217.155 Q484.047 217.975 484.293 218.336 Q484.555 218.696 485.096 218.696 Q486.162 218.696 487.309 217.729 Q488.474 216.762 489.457 214.401 Q489.588 214.089 489.654 214.024 Q489.736 213.942 489.949 213.942 Q490.359 213.942 490.359 214.27 Q490.359 214.384 490.13 214.909 Q489.916 215.434 489.441 216.204 Q488.982 216.975 488.375 217.696 Q487.785 218.418 486.883 218.942 Q485.981 219.451 485.014 219.451 Q483.653 219.451 482.784 218.582 Q481.932 217.713 481.932 216.352 Q481.932 215.909 482.276 214.499 Q482.62 213.073 484.489 205.645 L481.522 205.645 Q481.112 205.645 480.948 205.629 Q480.8 205.613 480.686 205.531 Q480.587 205.432 480.587 205.235 Q480.587 204.924 480.718 204.793 Q480.85 204.645 481.013 204.629 Q481.194 204.596 481.604 204.596 L484.752 204.596 L486.063 199.267 Q486.195 198.743 486.522 198.448 Q486.867 198.136 487.064 198.103 Q487.26 198.054 487.408 198.054 Q487.851 198.054 488.113 198.3 Q488.375 198.53 488.375 198.956 Q488.375 199.185 486.998 204.596 L489.949 204.596 Q490.326 204.596 490.474 204.612 Q490.638 204.629 490.769 204.711 Q490.9 204.793 490.9 204.973 Z" fill="#000000" fill-rule="nonzero" fill-opacity="1" /></svg>
