<?xml version="1.0" encoding="utf-8"?>
<svg xmlns="http://www.w3.org/2000/svg" xmlns:xlink="http://www.w3.org/1999/xlink" width="800" height="400" viewBox="0 0 3200 1600">
<defs>
  <clipPath id="clip300">
    <rect x="0" y="0" width="3200" height="1600"/>
  </clipPath>
</defs>
<path clip-path="url(#clip300)" d="M0 1600 L3200 1600 L3200 0 L0 0  Z" fill="#ffffff" fill-rule="evenodd" fill-opacity="1"/>
<defs>
  <clipPath id="clip301">
    <rect x="640" y="0" width="2241" height="1600"/>
  </clipPath>
</defs>
<path clip-path="url(#clip300)" d="M253.324 1443.7 L3152.76 1443.7 L3152.76 88.9121 L253.324 88.9121  Z" fill="#ffffff" fill-rule="evenodd" fill-opacity="1"/>
<defs>
  <clipPath id="clip302">
    <rect x="253" y="88" width="2900" height="1356"/>
  </clipPath>
</defs>
<polyline clip-path="url(#clip302)" style="stroke:#000000; stroke-linecap:round; stroke-linejoin:round; stroke-width:2; stroke-opacity:0.1; fill:none" points="335.383,1443.7 335.383,88.9121 "/>
<polyline clip-path="url(#clip302)" style="stroke:#000000; stroke-linecap:round; stroke-linejoin:round; stroke-width:2; stroke-opacity:0.1; fill:none" points="1019.21,1443.7 1019.21,88.9121 "/>
<polyline clip-path="url(#clip302)" style="stroke:#000000; stroke-linecap:round; stroke-linejoin:round; stroke-width:2; stroke-opacity:0.1; fill:none" points="1703.04,1443.7 1703.04,88.9121 "/>
<polyline clip-path="url(#clip302)" style="stroke:#000000; stroke-linecap:round; stroke-linejoin:round; stroke-width:2; stroke-opacity:0.1; fill:none" points="2386.87,1443.7 2386.87,88.9121 "/>
<polyline clip-path="url(#clip302)" style="stroke:#000000; stroke-linecap:round; stroke-linejoin:round; stroke-width:2; stroke-opacity:0.1; fill:none" points="3070.7,1443.7 3070.7,88.9121 "/>
<polyline clip-path="url(#clip302)" style="stroke:#000000; stroke-linecap:round; stroke-linejoin:round; stroke-width:2; stroke-opacity:0.1; fill:none" points="253.324,1424.69 3152.76,1424.69 "/>
<polyline clip-path="url(#clip302)" style="stroke:#000000; stroke-linecap:round; stroke-linejoin:round; stroke-width:2; stroke-opacity:0.1; fill:none" points="253.324,1188.63 3152.76,1188.63 "/>
<polyline clip-path="url(#clip302)" style="stroke:#000000; stroke-linecap:round; stroke-linejoin:round; stroke-width:2; stroke-opacity:0.1; fill:none" points="253.324,952.583 3152.76,952.583 "/>
<polyline clip-path="url(#clip302)" style="stroke:#000000; stroke-linecap:round; stroke-linejoin:round; stroke-width:2; stroke-opacity:0.1; fill:none" points="253.324,716.532 3152.76,716.532 "/>
<polyline clip-path="url(#clip302)" style="stroke:#000000; stroke-linecap:round; stroke-linejoin:round; stroke-width:2; stroke-opacity:0.1; fill:none" points="253.324,480.481 3152.76,480.481 "/>
<polyline clip-path="url(#clip302)" style="stroke:#000000; stroke-linecap:round; stroke-linejoin:round; stroke-width:2; stroke-opacity:0.1; fill:none" points="253.324,244.43 3152.76,244.43 "/>
<polyline clip-path="url(#clip300)" style="stroke:#000000; stroke-linecap:round; stroke-linejoin:round; stroke-width:4; stroke-opacity:1; fill:none" points="253.324,1443.7 3152.76,1443.7 "/>
<polyline clip-path="url(#clip300)" style="stroke:#000000; stroke-linecap:round; stroke-linejoin:round; stroke-width:4; stroke-opacity:1; fill:none" points="335.383,1443.7 335.383,1424.8 "/>
<polyline clip-path="url(#clip300)" style="stroke:#000000; stroke-linecap:round; stroke-linejoin:round; stroke-width:4; stroke-opacity:1; fill:none" points="1019.21,1443.7 1019.21,1424.8 "/>
<polyline clip-path="url(#clip300)" style="stroke:#000000; stroke-linecap:round; stroke-linejoin:round; stroke-width:4; stroke-opacity:1; fill:none" points="1703.04,1443.7 1703.04,1424.8 "/>
<polyline clip-path="url(#clip300)" style="stroke:#000000; stroke-linecap:round; stroke-linejoin:round; stroke-width:4; stroke-opacity:1; fill:none" points="2386.87,1443.7 2386.87,1424.8 "/>
<polyline clip-path="url(#clip300)" style="stroke:#000000; stroke-linecap:round; stroke-linejoin:round; stroke-width:4; stroke-opacity:1; fill:none" points="3070.7,1443.7 3070.7,1424.8 "/>
<path clip-path="url(#clip300)" d="M312.768 1481.02 Q309.157 1481.02 307.328 1484.58 Q305.522 1488.12 305.522 1495.25 Q305.522 1502.36 307.328 1505.93 Q309.157 1509.47 312.768 1509.47 Q316.402 1509.47 318.208 1505.93 Q320.036 1502.36 320.036 1495.25 Q320.036 1488.12 318.208 1484.58 Q316.402 1481.02 312.768 1481.02 M312.768 1477.31 Q318.578 1477.31 321.633 1481.92 Q324.712 1486.5 324.712 1495.25 Q324.712 1503.98 321.633 1508.59 Q318.578 1513.17 312.768 1513.17 Q306.958 1513.17 303.879 1508.59 Q300.823 1503.98 300.823 1495.25 Q300.823 1486.5 303.879 1481.92 Q306.958 1477.31 312.768 1477.31 Z" fill="#000000" fill-rule="nonzero" fill-opacity="1" /><path clip-path="url(#clip300)" d="M332.93 1506.62 L337.814 1506.62 L337.814 1512.5 L332.93 1512.5 L332.93 1506.62 Z" fill="#000000" fill-rule="nonzero" fill-opacity="1" /><path clip-path="url(#clip300)" d="M357.999 1481.02 Q354.388 1481.02 352.559 1484.58 Q350.754 1488.12 350.754 1495.25 Q350.754 1502.36 352.559 1505.93 Q354.388 1509.47 357.999 1509.47 Q361.633 1509.47 363.439 1505.93 Q365.268 1502.36 365.268 1495.25 Q365.268 1488.12 363.439 1484.58 Q361.633 1481.02 357.999 1481.02 M357.999 1477.31 Q363.809 1477.31 366.865 1481.92 Q369.943 1486.5 369.943 1495.25 Q369.943 1503.98 366.865 1508.59 Q363.809 1513.17 357.999 1513.17 Q352.189 1513.17 349.11 1508.59 Q346.055 1503.98 346.055 1495.25 Q346.055 1486.5 349.11 1481.92 Q352.189 1477.31 357.999 1477.31 Z" fill="#000000" fill-rule="nonzero" fill-opacity="1" /><path clip-path="url(#clip300)" d="M997.094 1481.02 Q993.483 1481.02 991.654 1484.58 Q989.848 1488.12 989.848 1495.25 Q989.848 1502.36 991.654 1505.93 Q993.483 1509.47 997.094 1509.47 Q1000.73 1509.47 1002.53 1505.93 Q1004.36 1502.36 1004.36 1495.25 Q1004.36 1488.12 1002.53 1484.58 Q1000.73 1481.02 997.094 1481.02 M997.094 1477.31 Q1002.9 1477.31 1005.96 1481.92 Q1009.04 1486.5 1009.04 1495.25 Q1009.04 1503.98 1005.96 1508.59 Q1002.9 1513.17 997.094 1513.17 Q991.284 1513.17 988.205 1508.59 Q985.149 1503.98 985.149 1495.25 Q985.149 1486.5 988.205 1481.92 Q991.284 1477.31 997.094 1477.31 Z" fill="#000000" fill-rule="nonzero" fill-opacity="1" /><path clip-path="url(#clip300)" d="M1017.26 1506.62 L1022.14 1506.62 L1022.14 1512.5 L1017.26 1512.5 L1017.26 1506.62 Z" fill="#000000" fill-rule="nonzero" fill-opacity="1" /><path clip-path="url(#clip300)" d="M1032.37 1477.94 L1050.73 1477.94 L1050.73 1481.88 L1036.65 1481.88 L1036.65 1490.35 Q1037.67 1490 1038.69 1489.84 Q1039.71 1489.65 1040.73 1489.65 Q1046.51 1489.65 1049.89 1492.82 Q1053.27 1496 1053.27 1501.41 Q1053.27 1506.99 1049.8 1510.09 Q1046.33 1513.17 1040.01 1513.17 Q1037.83 1513.17 1035.57 1512.8 Q1033.32 1512.43 1030.91 1511.69 L1030.91 1506.99 Q1033 1508.12 1035.22 1508.68 Q1037.44 1509.24 1039.92 1509.24 Q1043.92 1509.24 1046.26 1507.13 Q1048.6 1505.02 1048.6 1501.41 Q1048.6 1497.8 1046.26 1495.69 Q1043.92 1493.59 1039.92 1493.59 Q1038.04 1493.59 1036.17 1494 Q1034.32 1494.42 1032.37 1495.3 L1032.37 1477.94 Z" fill="#000000" fill-rule="nonzero" fill-opacity="1" /><path clip-path="url(#clip300)" d="M1670.19 1508.56 L1677.83 1508.56 L1677.83 1482.2 L1669.52 1483.87 L1669.52 1479.61 L1677.79 1477.94 L1682.46 1477.94 L1682.46 1508.56 L1690.1 1508.56 L1690.1 1512.5 L1670.19 1512.5 L1670.19 1508.56 Z" fill="#000000" fill-rule="nonzero" fill-opacity="1" /><path clip-path="url(#clip300)" d="M1699.54 1506.62 L1704.43 1506.62 L1704.43 1512.5 L1699.54 1512.5 L1699.54 1506.62 Z" fill="#000000" fill-rule="nonzero" fill-opacity="1" /><path clip-path="url(#clip300)" d="M1724.61 1481.02 Q1721 1481.02 1719.17 1484.58 Q1717.37 1488.12 1717.37 1495.25 Q1717.37 1502.36 1719.17 1505.93 Q1721 1509.47 1724.61 1509.47 Q1728.25 1509.47 1730.05 1505.93 Q1731.88 1502.36 1731.88 1495.25 Q1731.88 1488.12 1730.05 1484.58 Q1728.25 1481.02 1724.61 1481.02 M1724.61 1477.31 Q1730.42 1477.31 1733.48 1481.92 Q1736.56 1486.5 1736.56 1495.25 Q1736.56 1503.98 1733.48 1508.59 Q1730.42 1513.17 1724.61 1513.17 Q1718.8 1513.17 1715.73 1508.59 Q1712.67 1503.98 1712.67 1495.25 Q1712.67 1486.5 1715.73 1481.92 Q1718.8 1477.31 1724.61 1477.31 Z" fill="#000000" fill-rule="nonzero" fill-opacity="1" /><path clip-path="url(#clip300)" d="M2354.52 1508.56 L2362.16 1508.56 L2362.16 1482.2 L2353.85 1483.87 L2353.85 1479.61 L2362.11 1477.94 L2366.79 1477.94 L2366.79 1508.56 L2374.43 1508.56 L2374.43 1512.5 L2354.52 1512.5 L2354.52 1508.56 Z" fill="#000000" fill-rule="nonzero" fill-opacity="1" /><path clip-path="url(#clip300)" d="M2383.87 1506.62 L2388.75 1506.62 L2388.75 1512.5 L2383.87 1512.5 L2383.87 1506.62 Z" fill="#000000" fill-rule="nonzero" fill-opacity="1" /><path clip-path="url(#clip300)" d="M2398.99 1477.94 L2417.34 1477.94 L2417.34 1481.88 L2403.27 1481.88 L2403.27 1490.35 Q2404.29 1490 2405.31 1489.84 Q2406.32 1489.65 2407.34 1489.65 Q2413.13 1489.65 2416.51 1492.82 Q2419.89 1496 2419.89 1501.41 Q2419.89 1506.99 2416.42 1510.09 Q2412.94 1513.17 2406.63 1513.17 Q2404.45 1513.17 2402.18 1512.8 Q2399.94 1512.43 2397.53 1511.69 L2397.53 1506.99 Q2399.61 1508.12 2401.83 1508.68 Q2404.06 1509.24 2406.53 1509.24 Q2410.54 1509.24 2412.88 1507.13 Q2415.21 1505.02 2415.21 1501.41 Q2415.21 1497.8 2412.88 1495.69 Q2410.54 1493.59 2406.53 1493.59 Q2404.66 1493.59 2402.78 1494 Q2400.93 1494.42 2398.99 1495.3 L2398.99 1477.94 Z" fill="#000000" fill-rule="nonzero" fill-opacity="1" /><path clip-path="url(#clip300)" d="M3041.94 1508.56 L3058.25 1508.56 L3058.25 1512.5 L3036.31 1512.5 L3036.31 1508.56 Q3038.97 1505.81 3043.56 1501.18 Q3048.16 1496.53 3049.34 1495.19 Q3051.59 1492.66 3052.47 1490.93 Q3053.37 1489.17 3053.37 1487.48 Q3053.37 1484.72 3051.43 1482.99 Q3049.5 1481.25 3046.4 1481.25 Q3044.2 1481.25 3041.75 1482.01 Q3039.32 1482.78 3036.54 1484.33 L3036.54 1479.61 Q3039.37 1478.47 3041.82 1477.89 Q3044.27 1477.31 3046.31 1477.31 Q3051.68 1477.31 3054.87 1480 Q3058.07 1482.69 3058.07 1487.18 Q3058.07 1489.31 3057.26 1491.23 Q3056.47 1493.12 3054.37 1495.72 Q3053.79 1496.39 3050.69 1499.61 Q3047.58 1502.8 3041.94 1508.56 Z" fill="#000000" fill-rule="nonzero" fill-opacity="1" /><path clip-path="url(#clip300)" d="M3068.07 1506.62 L3072.95 1506.62 L3072.95 1512.5 L3068.07 1512.5 L3068.07 1506.62 Z" fill="#000000" fill-rule="nonzero" fill-opacity="1" /><path clip-path="url(#clip300)" d="M3093.14 1481.02 Q3089.53 1481.02 3087.7 1484.58 Q3085.89 1488.12 3085.89 1495.25 Q3085.89 1502.36 3087.7 1505.93 Q3089.53 1509.47 3093.14 1509.47 Q3096.77 1509.47 3098.58 1505.93 Q3100.41 1502.36 3100.41 1495.25 Q3100.41 1488.12 3098.58 1484.58 Q3096.77 1481.02 3093.14 1481.02 M3093.14 1477.31 Q3098.95 1477.31 3102 1481.92 Q3105.08 1486.5 3105.08 1495.25 Q3105.08 1503.98 3102 1508.59 Q3098.95 1513.17 3093.14 1513.17 Q3087.33 1513.17 3084.25 1508.59 Q3081.19 1503.98 3081.19 1495.25 Q3081.19 1486.5 3084.25 1481.92 Q3087.33 1477.31 3093.14 1477.31 Z" fill="#000000" fill-rule="nonzero" fill-opacity="1" /><path clip-path="url(#clip300)" d="M1702.1 1554.79 L1702.1 1564.92 L1714.16 1564.92 L1714.16 1569.47 L1702.1 1569.47 L1702.1 1588.82 Q1702.1 1593.18 1703.28 1594.42 Q1704.49 1595.66 1708.15 1595.66 L1714.16 1595.66 L1714.16 1600.56 L1708.15 1600.56 Q1701.37 1600.56 1698.79 1598.05 Q1696.21 1595.5 1696.21 1588.82 L1696.21 1569.47 L1691.92 1569.47 L1691.92 1564.92 L1696.21 1564.92 L1696.21 1554.79 L1702.1 1554.79 Z" fill="#000000" fill-rule="nonzero" fill-opacity="1" /><polyline clip-path="url(#clip300)" style="stroke:#000000; stroke-linecap:round; stroke-linejoin:round; stroke-width:4; stroke-opacity:1; fill:none" points="253.324,1443.7 253.324,88.9121 "/>
<polyline clip-path="url(#clip300)" style="stroke:#000000; stroke-linecap:round; stroke-linejoin:round; stroke-width:4; stroke-opacity:1; fill:none" points="253.324,1424.69 272.222,1424.69 "/>
<polyline clip-path="url(#clip300)" style="stroke:#000000; stroke-linecap:round; stroke-linejoin:round; stroke-width:4; stroke-opacity:1; fill:none" points="253.324,1188.63 272.222,1188.63 "/>
<polyline clip-path="url(#clip300)" style="stroke:#000000; stroke-linecap:round; stroke-linejoin:round; stroke-width:4; stroke-opacity:1; fill:none" points="253.324,952.583 272.222,952.583 "/>
<polyline clip-path="url(#clip300)" style="stroke:#000000; stroke-linecap:round; stroke-linejoin:round; stroke-width:4; stroke-opacity:1; fill:none" points="253.324,716.532 272.222,716.532 "/>
<polyline clip-path="url(#clip300)" style="stroke:#000000; stroke-linecap:round; stroke-linejoin:round; stroke-width:4; stroke-opacity:1; fill:none" points="253.324,480.481 272.222,480.481 "/>
<polyline clip-path="url(#clip300)" style="stroke:#000000; stroke-linecap:round; stroke-linejoin:round; stroke-width:4; stroke-opacity:1; fill:none" points="253.324,244.43 272.222,244.43 "/>
<path clip-path="url(#clip300)" d="M99.3755 1425.14 L129.051 1425.14 L129.051 1429.07 L99.3755 1429.07 L99.3755 1425.14 Z" fill="#000000" fill-rule="nonzero" fill-opacity="1" /><path clip-path="url(#clip300)" d="M139.954 1438.03 L147.593 1438.03 L147.593 1411.66 L139.283 1413.33 L139.283 1409.07 L147.547 1407.41 L152.222 1407.41 L152.222 1438.03 L159.861 1438.03 L159.861 1441.97 L139.954 1441.97 L139.954 1438.03 Z" fill="#000000" fill-rule="nonzero" fill-opacity="1" /><path clip-path="url(#clip300)" d="M169.306 1436.09 L174.19 1436.09 L174.19 1441.97 L169.306 1441.97 L169.306 1436.09 Z" fill="#000000" fill-rule="nonzero" fill-opacity="1" /><path clip-path="url(#clip300)" d="M184.421 1407.41 L202.778 1407.41 L202.778 1411.34 L188.704 1411.34 L188.704 1419.81 Q189.722 1419.47 190.741 1419.3 Q191.759 1419.12 192.778 1419.12 Q198.565 1419.12 201.944 1422.29 Q205.324 1425.46 205.324 1430.88 Q205.324 1436.46 201.852 1439.56 Q198.38 1442.64 192.06 1442.64 Q189.884 1442.64 187.616 1442.27 Q185.37 1441.9 182.963 1441.15 L182.963 1436.46 Q185.046 1437.59 187.269 1438.15 Q189.491 1438.7 191.968 1438.7 Q195.972 1438.7 198.31 1436.59 Q200.648 1434.49 200.648 1430.88 Q200.648 1427.27 198.31 1425.16 Q195.972 1423.05 191.968 1423.05 Q190.093 1423.05 188.218 1423.47 Q186.366 1423.89 184.421 1424.77 L184.421 1407.41 Z" fill="#000000" fill-rule="nonzero" fill-opacity="1" /><path clip-path="url(#clip300)" d="M98.3802 1189.09 L128.056 1189.09 L128.056 1193.02 L98.3802 1193.02 L98.3802 1189.09 Z" fill="#000000" fill-rule="nonzero" fill-opacity="1" /><path clip-path="url(#clip300)" d="M138.959 1201.98 L146.597 1201.98 L146.597 1175.61 L138.287 1177.28 L138.287 1173.02 L146.551 1171.35 L151.227 1171.35 L151.227 1201.98 L158.866 1201.98 L158.866 1205.91 L138.959 1205.91 L138.959 1201.98 Z" fill="#000000" fill-rule="nonzero" fill-opacity="1" /><path clip-path="url(#clip300)" d="M168.31 1200.03 L173.195 1200.03 L173.195 1205.91 L168.31 1205.91 L168.31 1200.03 Z" fill="#000000" fill-rule="nonzero" fill-opacity="1" /><path clip-path="url(#clip300)" d="M193.38 1174.43 Q189.769 1174.43 187.94 1178 Q186.134 1181.54 186.134 1188.67 Q186.134 1195.78 187.94 1199.34 Q189.769 1202.88 193.38 1202.88 Q197.014 1202.88 198.819 1199.34 Q200.648 1195.78 200.648 1188.67 Q200.648 1181.54 198.819 1178 Q197.014 1174.43 193.38 1174.43 M193.38 1170.73 Q199.19 1170.73 202.245 1175.34 Q205.324 1179.92 205.324 1188.67 Q205.324 1197.4 202.245 1202 Q199.19 1206.59 193.38 1206.59 Q187.569 1206.59 184.491 1202 Q181.435 1197.4 181.435 1188.67 Q181.435 1179.92 184.491 1175.34 Q187.569 1170.73 193.38 1170.73 Z" fill="#000000" fill-rule="nonzero" fill-opacity="1" /><path clip-path="url(#clip300)" d="M99.3755 953.034 L129.051 953.034 L129.051 956.97 L99.3755 956.97 L99.3755 953.034 Z" fill="#000000" fill-rule="nonzero" fill-opacity="1" /><path clip-path="url(#clip300)" d="M149.144 938.382 Q145.533 938.382 143.704 941.947 Q141.898 945.488 141.898 952.618 Q141.898 959.724 143.704 963.289 Q145.533 966.831 149.144 966.831 Q152.778 966.831 154.584 963.289 Q156.412 959.724 156.412 952.618 Q156.412 945.488 154.584 941.947 Q152.778 938.382 149.144 938.382 M149.144 934.678 Q154.954 934.678 158.009 939.285 Q161.088 943.868 161.088 952.618 Q161.088 961.345 158.009 965.951 Q154.954 970.534 149.144 970.534 Q143.334 970.534 140.255 965.951 Q137.199 961.345 137.199 952.618 Q137.199 943.868 140.255 939.285 Q143.334 934.678 149.144 934.678 Z" fill="#000000" fill-rule="nonzero" fill-opacity="1" /><path clip-path="url(#clip300)" d="M169.306 963.983 L174.19 963.983 L174.19 969.863 L169.306 969.863 L169.306 963.983 Z" fill="#000000" fill-rule="nonzero" fill-opacity="1" /><path clip-path="url(#clip300)" d="M184.421 935.303 L202.778 935.303 L202.778 939.238 L188.704 939.238 L188.704 947.71 Q189.722 947.363 190.741 947.201 Q191.759 947.016 192.778 947.016 Q198.565 947.016 201.944 950.187 Q205.324 953.359 205.324 958.775 Q205.324 964.354 201.852 967.456 Q198.38 970.534 192.06 970.534 Q189.884 970.534 187.616 970.164 Q185.37 969.794 182.963 969.053 L182.963 964.354 Q185.046 965.488 187.269 966.044 Q189.491 966.599 191.968 966.599 Q195.972 966.599 198.31 964.493 Q200.648 962.386 200.648 958.775 Q200.648 955.164 198.31 953.058 Q195.972 950.951 191.968 950.951 Q190.093 950.951 188.218 951.368 Q186.366 951.784 184.421 952.664 L184.421 935.303 Z" fill="#000000" fill-rule="nonzero" fill-opacity="1" /><path clip-path="url(#clip300)" d="M148.148 702.331 Q144.537 702.331 142.709 705.896 Q140.903 709.437 140.903 716.567 Q140.903 723.673 142.709 727.238 Q144.537 730.78 148.148 730.78 Q151.783 730.78 153.588 727.238 Q155.417 723.673 155.417 716.567 Q155.417 709.437 153.588 705.896 Q151.783 702.331 148.148 702.331 M148.148 698.627 Q153.959 698.627 157.014 703.234 Q160.093 707.817 160.093 716.567 Q160.093 725.294 157.014 729.9 Q153.959 734.483 148.148 734.483 Q142.338 734.483 139.26 729.9 Q136.204 725.294 136.204 716.567 Q136.204 707.817 139.26 703.234 Q142.338 698.627 148.148 698.627 Z" fill="#000000" fill-rule="nonzero" fill-opacity="1" /><path clip-path="url(#clip300)" d="M168.31 727.932 L173.195 727.932 L173.195 733.812 L168.31 733.812 L168.31 727.932 Z" fill="#000000" fill-rule="nonzero" fill-opacity="1" /><path clip-path="url(#clip300)" d="M193.38 702.331 Q189.769 702.331 187.94 705.896 Q186.134 709.437 186.134 716.567 Q186.134 723.673 187.94 727.238 Q189.769 730.78 193.38 730.78 Q197.014 730.78 198.819 727.238 Q200.648 723.673 200.648 716.567 Q200.648 709.437 198.819 705.896 Q197.014 702.331 193.38 702.331 M193.38 698.627 Q199.19 698.627 202.245 703.234 Q205.324 707.817 205.324 716.567 Q205.324 725.294 202.245 729.9 Q199.19 734.483 193.38 734.483 Q187.569 734.483 184.491 729.9 Q181.435 725.294 181.435 716.567 Q181.435 707.817 184.491 703.234 Q187.569 698.627 193.38 698.627 Z" fill="#000000" fill-rule="nonzero" fill-opacity="1" /><path clip-path="url(#clip300)" d="M149.144 466.28 Q145.533 466.28 143.704 469.845 Q141.898 473.386 141.898 480.516 Q141.898 487.622 143.704 491.187 Q145.533 494.729 149.144 494.729 Q152.778 494.729 154.584 491.187 Q156.412 487.622 156.412 480.516 Q156.412 473.386 154.584 469.845 Q152.778 466.28 149.144 466.28 M149.144 462.576 Q154.954 462.576 158.009 467.183 Q161.088 471.766 161.088 480.516 Q161.088 489.243 158.009 493.849 Q154.954 498.432 149.144 498.432 Q143.334 498.432 140.255 493.849 Q137.199 489.243 137.199 480.516 Q137.199 471.766 140.255 467.183 Q143.334 462.576 149.144 462.576 Z" fill="#000000" fill-rule="nonzero" fill-opacity="1" /><path clip-path="url(#clip300)" d="M169.306 491.881 L174.19 491.881 L174.19 497.761 L169.306 497.761 L169.306 491.881 Z" fill="#000000" fill-rule="nonzero" fill-opacity="1" /><path clip-path="url(#clip300)" d="M184.421 463.201 L202.778 463.201 L202.778 467.136 L188.704 467.136 L188.704 475.608 Q189.722 475.261 190.741 475.099 Q191.759 474.914 192.778 474.914 Q198.565 474.914 201.944 478.085 Q205.324 481.257 205.324 486.673 Q205.324 492.252 201.852 495.354 Q198.38 498.432 192.06 498.432 Q189.884 498.432 187.616 498.062 Q185.37 497.692 182.963 496.951 L182.963 492.252 Q185.046 493.386 187.269 493.942 Q189.491 494.497 191.968 494.497 Q195.972 494.497 198.31 492.391 Q200.648 490.284 200.648 486.673 Q200.648 483.062 198.31 480.956 Q195.972 478.849 191.968 478.849 Q190.093 478.849 188.218 479.266 Q186.366 479.682 184.421 480.562 L184.421 463.201 Z" fill="#000000" fill-rule="nonzero" fill-opacity="1" /><path clip-path="url(#clip300)" d="M138.959 257.775 L146.597 257.775 L146.597 231.409 L138.287 233.076 L138.287 228.817 L146.551 227.15 L151.227 227.15 L151.227 257.775 L158.866 257.775 L158.866 261.71 L138.959 261.71 L138.959 257.775 Z" fill="#000000" fill-rule="nonzero" fill-opacity="1" /><path clip-path="url(#clip300)" d="M168.31 255.831 L173.195 255.831 L173.195 261.71 L168.31 261.71 L168.31 255.831 Z" fill="#000000" fill-rule="nonzero" fill-opacity="1" /><path clip-path="url(#clip300)" d="M193.38 230.229 Q189.769 230.229 187.94 233.794 Q186.134 237.335 186.134 244.465 Q186.134 251.571 187.94 255.136 Q189.769 258.678 193.38 258.678 Q197.014 258.678 198.819 255.136 Q200.648 251.571 200.648 244.465 Q200.648 237.335 198.819 233.794 Q197.014 230.229 193.38 230.229 M193.38 226.525 Q199.19 226.525 202.245 231.132 Q205.324 235.715 205.324 244.465 Q205.324 253.192 202.245 257.798 Q199.19 262.381 193.38 262.381 Q187.569 262.381 184.491 257.798 Q181.435 253.192 181.435 244.465 Q181.435 235.715 184.491 231.132 Q187.569 226.525 193.38 226.525 Z" fill="#000000" fill-rule="nonzero" fill-opacity="1" /><path clip-path="url(#clip300)" d="M-11.3958 796.384 L-11.3958 789.891 L28.7718 779.897 L-11.3958 769.934 L-11.3958 762.709 L28.7718 752.715 L-11.3958 742.753 L-11.3958 736.228 L36.1242 748.164 L36.1242 756.248 L-5.12562 766.274 L36.1242 776.396 L36.1242 784.48 L-11.3958 796.384 Z" fill="#000000" fill-rule="nonzero" fill-opacity="1" /><path clip-path="url(#clip300)" d="M696.159 8.04625 L696.159 12.6064 Q693.497 11.3333 691.136 10.7083 Q688.775 10.0833 686.576 10.0833 Q682.756 10.0833 680.673 11.5648 Q678.613 13.0462 678.613 15.7777 Q678.613 18.0693 679.978 19.2499 Q681.367 20.4073 685.21 21.1249 L688.034 21.7036 Q693.265 22.699 695.742 25.2221 Q698.242 27.7221 698.242 31.935 Q698.242 36.9581 694.862 39.5507 Q691.506 42.1433 685.001 42.1433 Q682.548 42.1433 679.77 41.5877 Q677.015 41.0322 674.052 39.9442 L674.052 35.1294 Q676.9 36.7267 679.631 37.5368 Q682.363 38.347 685.001 38.347 Q689.006 38.347 691.182 36.773 Q693.358 35.1989 693.358 32.2822 Q693.358 29.736 691.784 28.3008 Q690.233 26.8656 686.668 26.148 L683.821 25.5925 Q678.589 24.5508 676.251 22.3286 Q673.914 20.1064 673.914 16.1481 Q673.914 11.5648 677.131 8.92588 Q680.372 6.287 686.043 6.287 Q688.474 6.287 690.997 6.72682 Q693.52 7.16663 696.159 8.04625 Z" fill="#000000" fill-rule="nonzero" fill-opacity="1" /><path clip-path="url(#clip300)" d="M717.131 28.4397 Q711.969 28.4397 709.978 29.6202 Q707.987 30.8008 707.987 33.648 Q707.987 35.9165 709.469 37.2591 Q710.974 38.5785 713.543 38.5785 Q717.085 38.5785 719.214 36.0785 Q721.367 33.5554 721.367 29.3887 L721.367 28.4397 L717.131 28.4397 M725.626 26.6804 L725.626 41.472 L721.367 41.472 L721.367 37.5368 Q719.909 39.8979 717.733 41.0322 Q715.557 42.1433 712.409 42.1433 Q708.427 42.1433 706.066 39.9211 Q703.728 37.6757 703.728 33.9257 Q703.728 29.5508 706.645 27.3286 Q709.585 25.1063 715.395 25.1063 L721.367 25.1063 L721.367 24.6897 Q721.367 21.7499 719.423 20.1527 Q717.501 18.5323 714.006 18.5323 Q711.784 18.5323 709.677 19.0647 Q707.571 19.5971 705.626 20.6619 L705.626 16.7268 Q707.964 15.824 710.163 15.3842 Q712.362 14.9212 714.446 14.9212 Q720.071 14.9212 722.848 17.8379 Q725.626 20.7545 725.626 26.6804 Z" fill="#000000" fill-rule="nonzero" fill-opacity="1" /><path clip-path="url(#clip300)" d="M754.584 20.523 Q756.182 17.6527 758.404 16.2869 Q760.626 14.9212 763.635 14.9212 Q767.686 14.9212 769.885 17.7684 Q772.084 20.5925 772.084 25.8239 L772.084 41.472 L767.802 41.472 L767.802 25.9628 Q767.802 22.236 766.482 20.4304 Q765.163 18.6249 762.455 18.6249 Q759.145 18.6249 757.223 20.824 Q755.302 23.023 755.302 26.8193 L755.302 41.472 L751.02 41.472 L751.02 25.9628 Q751.02 22.2128 749.7 20.4304 Q748.381 18.6249 745.626 18.6249 Q742.362 18.6249 740.441 20.8471 Q738.52 23.0462 738.52 26.8193 L738.52 41.472 L734.237 41.472 L734.237 15.5462 L738.52 15.5462 L738.52 19.574 Q739.978 17.1897 742.015 16.0555 Q744.052 14.9212 746.853 14.9212 Q749.677 14.9212 751.645 16.3564 Q753.635 17.7916 754.584 20.523 Z" fill="#000000" fill-rule="nonzero" fill-opacity="1" /><path clip-path="url(#clip300)" d="M784.7 37.5831 L784.7 51.3331 L780.418 51.3331 L780.418 15.5462 L784.7 15.5462 L784.7 19.4814 Q786.043 17.1666 788.08 16.0555 Q790.14 14.9212 792.987 14.9212 Q797.709 14.9212 800.649 18.6712 Q803.612 22.4212 803.612 28.5323 Q803.612 34.6433 800.649 38.3933 Q797.709 42.1433 792.987 42.1433 Q790.14 42.1433 788.08 41.0322 Q786.043 39.8979 784.7 37.5831 M799.191 28.5323 Q799.191 23.8332 797.246 21.1712 Q795.325 18.486 791.945 18.486 Q788.566 18.486 786.621 21.1712 Q784.7 23.8332 784.7 28.5323 Q784.7 33.2313 786.621 35.9165 Q788.566 38.5785 791.945 38.5785 Q795.325 38.5785 797.246 35.9165 Q799.191 33.2313 799.191 28.5323 Z" fill="#000000" fill-rule="nonzero" fill-opacity="1" /><path clip-path="url(#clip300)" d="M810.672 5.45367 L814.931 5.45367 L814.931 41.472 L810.672 41.472 L810.672 5.45367 Z" fill="#000000" fill-rule="nonzero" fill-opacity="1" /><path clip-path="url(#clip300)" d="M846.019 27.4443 L846.019 29.5276 L826.436 29.5276 Q826.714 33.9257 829.075 36.2405 Q831.459 38.5322 835.695 38.5322 Q838.149 38.5322 840.44 37.9304 Q842.755 37.3285 845.024 36.1248 L845.024 40.1526 Q842.732 41.1248 840.325 41.634 Q837.917 42.1433 835.44 42.1433 Q829.237 42.1433 825.603 38.5322 Q821.991 34.9211 821.991 28.7637 Q821.991 22.398 825.417 18.6712 Q828.866 14.9212 834.7 14.9212 Q839.931 14.9212 842.964 18.3008 Q846.019 21.6573 846.019 27.4443 M841.76 26.1943 Q841.714 22.699 839.792 20.6156 Q837.894 18.5323 834.746 18.5323 Q831.181 18.5323 829.028 20.5462 Q826.899 22.5601 826.575 26.2175 L841.76 26.1943 Z" fill="#000000" fill-rule="nonzero" fill-opacity="1" /><path clip-path="url(#clip300)" d="M872.2 37.5831 L872.2 51.3331 L867.917 51.3331 L867.917 15.5462 L872.2 15.5462 L872.2 19.4814 Q873.542 17.1666 875.579 16.0555 Q877.639 14.9212 880.487 14.9212 Q885.209 14.9212 888.149 18.6712 Q891.111 22.4212 891.111 28.5323 Q891.111 34.6433 888.149 38.3933 Q885.209 42.1433 880.487 42.1433 Q877.639 42.1433 875.579 41.0322 Q873.542 39.8979 872.2 37.5831 M886.69 28.5323 Q886.69 23.8332 884.746 21.1712 Q882.824 18.486 879.445 18.486 Q876.065 18.486 874.121 21.1712 Q872.2 23.8332 872.2 28.5323 Q872.2 33.2313 874.121 35.9165 Q876.065 38.5785 879.445 38.5785 Q882.824 38.5785 884.746 35.9165 Q886.69 33.2313 886.69 28.5323 Z" fill="#000000" fill-rule="nonzero" fill-opacity="1" /><path clip-path="url(#clip300)" d="M909.954 28.4397 Q904.792 28.4397 902.801 29.6202 Q900.81 30.8008 900.81 33.648 Q900.81 35.9165 902.292 37.2591 Q903.797 38.5785 906.366 38.5785 Q909.908 38.5785 912.037 36.0785 Q914.19 33.5554 914.19 29.3887 L914.19 28.4397 L909.954 28.4397 M918.449 26.6804 L918.449 41.472 L914.19 41.472 L914.19 37.5368 Q912.732 39.8979 910.556 41.0322 Q908.38 42.1433 905.232 42.1433 Q901.25 42.1433 898.889 39.9211 Q896.551 37.6757 896.551 33.9257 Q896.551 29.5508 899.468 27.3286 Q902.408 25.1063 908.218 25.1063 L914.19 25.1063 L914.19 24.6897 Q914.19 21.7499 912.246 20.1527 Q910.324 18.5323 906.829 18.5323 Q904.607 18.5323 902.5 19.0647 Q900.394 19.5971 898.449 20.6619 L898.449 16.7268 Q900.787 15.824 902.986 15.3842 Q905.185 14.9212 907.269 14.9212 Q912.894 14.9212 915.672 17.8379 Q918.449 20.7545 918.449 26.6804 Z" fill="#000000" fill-rule="nonzero" fill-opacity="1" /><path clip-path="url(#clip300)" d="M931.435 8.18514 L931.435 15.5462 L940.208 15.5462 L940.208 18.8564 L931.435 18.8564 L931.435 32.9304 Q931.435 36.1017 932.292 37.0044 Q933.171 37.9072 935.833 37.9072 L940.208 37.9072 L940.208 41.472 L935.833 41.472 Q930.903 41.472 929.028 39.6433 Q927.153 37.7915 927.153 32.9304 L927.153 18.8564 L924.028 18.8564 L924.028 15.5462 L927.153 15.5462 L927.153 8.18514 L931.435 8.18514 Z" fill="#000000" fill-rule="nonzero" fill-opacity="1" /><path clip-path="url(#clip300)" d="M967.361 25.8239 L967.361 41.472 L963.102 41.472 L963.102 25.9628 Q963.102 22.2823 961.667 20.4536 Q960.231 18.6249 957.361 18.6249 Q953.912 18.6249 951.921 20.824 Q949.931 23.023 949.931 26.8193 L949.931 41.472 L945.648 41.472 L945.648 5.45367 L949.931 5.45367 L949.931 19.574 Q951.458 17.236 953.519 16.0786 Q955.602 14.9212 958.31 14.9212 Q962.778 14.9212 965.069 17.699 Q967.361 20.4536 967.361 25.8239 Z" fill="#000000" fill-rule="nonzero" fill-opacity="1" /><path clip-path="url(#clip300)" d="M992.384 16.3101 L992.384 20.3379 Q990.579 19.4119 988.634 18.949 Q986.69 18.486 984.606 18.486 Q981.435 18.486 979.838 19.4582 Q978.264 20.4304 978.264 22.3749 Q978.264 23.8564 979.398 24.7128 Q980.532 25.5462 983.958 26.31 L985.416 26.6341 Q989.954 27.6063 991.852 29.3887 Q993.773 31.148 993.773 34.3193 Q993.773 37.9304 990.903 40.0368 Q988.055 42.1433 983.055 42.1433 Q980.972 42.1433 978.704 41.7266 Q976.458 41.3331 973.958 40.5229 L973.958 36.1248 Q976.319 37.3517 978.611 37.9766 Q980.903 38.5785 983.148 38.5785 Q986.157 38.5785 987.778 37.56 Q989.398 36.5183 989.398 34.6433 Q989.398 32.9072 988.217 31.9813 Q987.06 31.0554 983.102 30.1989 L981.62 29.8517 Q977.662 29.0184 975.903 27.3054 Q974.143 25.5693 974.143 22.5601 Q974.143 18.9027 976.736 16.9119 Q979.329 14.9212 984.097 14.9212 Q986.458 14.9212 988.541 15.2684 Q990.625 15.6157 992.384 16.3101 Z" fill="#000000" fill-rule="nonzero" fill-opacity="1" /><path clip-path="url(#clip300)" d="M1025.67 18.5323 Q1022.25 18.5323 1020.25 21.2175 Q1018.26 23.8795 1018.26 28.5323 Q1018.26 33.185 1020.23 35.8702 Q1022.22 38.5322 1025.67 38.5322 Q1029.07 38.5322 1031.06 35.847 Q1033.06 33.1619 1033.06 28.5323 Q1033.06 23.9258 1031.06 21.2406 Q1029.07 18.5323 1025.67 18.5323 M1025.67 14.9212 Q1031.23 14.9212 1034.4 18.5323 Q1037.57 22.1434 1037.57 28.5323 Q1037.57 34.898 1034.4 38.5322 Q1031.23 42.1433 1025.67 42.1433 Q1020.09 42.1433 1016.92 38.5322 Q1013.77 34.898 1013.77 28.5323 Q1013.77 22.1434 1016.92 18.5323 Q1020.09 14.9212 1025.67 14.9212 Z" fill="#000000" fill-rule="nonzero" fill-opacity="1" /><path clip-path="url(#clip300)" d="M1057.75 5.45367 L1057.75 8.99532 L1053.68 8.99532 Q1051.39 8.99532 1050.49 9.92124 Q1049.61 10.8472 1049.61 13.2546 L1049.61 15.5462 L1056.62 15.5462 L1056.62 18.8564 L1049.61 18.8564 L1049.61 41.472 L1045.32 41.472 L1045.32 18.8564 L1041.25 18.8564 L1041.25 15.5462 L1045.32 15.5462 L1045.32 13.7407 Q1045.32 9.41199 1047.34 7.4444 Q1049.35 5.45367 1053.73 5.45367 L1057.75 5.45367 Z" fill="#000000" fill-rule="nonzero" fill-opacity="1" /><path clip-path="url(#clip300)" d="M1089.51 5.45367 L1089.51 8.99532 L1085.44 8.99532 Q1083.15 8.99532 1082.24 9.92124 Q1081.37 10.8472 1081.37 13.2546 L1081.37 15.5462 L1088.38 15.5462 L1088.38 18.8564 L1081.37 18.8564 L1081.37 41.472 L1077.08 41.472 L1077.08 18.8564 L1073.01 18.8564 L1073.01 15.5462 L1077.08 15.5462 L1077.08 13.7407 Q1077.08 9.41199 1079.1 7.4444 Q1081.11 5.45367 1085.49 5.45367 L1089.51 5.45367 Z" fill="#000000" fill-rule="nonzero" fill-opacity="1" /><path clip-path="url(#clip300)" d="M1108.1 19.5277 Q1107.38 19.111 1106.53 18.9258 Q1105.69 18.7175 1104.68 18.7175 Q1101.06 18.7175 1099.12 21.0786 Q1097.2 23.4165 1097.2 27.8147 L1097.2 41.472 L1092.92 41.472 L1092.92 15.5462 L1097.2 15.5462 L1097.2 19.574 Q1098.54 17.2129 1100.69 16.0786 Q1102.85 14.9212 1105.93 14.9212 Q1106.36 14.9212 1106.9 14.9907 Q1107.43 15.037 1108.08 15.1527 L1108.1 19.5277 Z" fill="#000000" fill-rule="nonzero" fill-opacity="1" /><path clip-path="url(#clip300)" d="M1124.35 28.4397 Q1119.19 28.4397 1117.2 29.6202 Q1115.21 30.8008 1115.21 33.648 Q1115.21 35.9165 1116.69 37.2591 Q1118.19 38.5785 1120.76 38.5785 Q1124.3 38.5785 1126.43 36.0785 Q1128.59 33.5554 1128.59 29.3887 L1128.59 28.4397 L1124.35 28.4397 M1132.85 26.6804 L1132.85 41.472 L1128.59 41.472 L1128.59 37.5368 Q1127.13 39.8979 1124.95 41.0322 Q1122.78 42.1433 1119.63 42.1433 Q1115.65 42.1433 1113.29 39.9211 Q1110.95 37.6757 1110.95 33.9257 Q1110.95 29.5508 1113.86 27.3286 Q1116.8 25.1063 1122.61 25.1063 L1128.59 25.1063 L1128.59 24.6897 Q1128.59 21.7499 1126.64 20.1527 Q1124.72 18.5323 1121.23 18.5323 Q1119 18.5323 1116.9 19.0647 Q1114.79 19.5971 1112.85 20.6619 L1112.85 16.7268 Q1115.18 15.824 1117.38 15.3842 Q1119.58 14.9212 1121.67 14.9212 Q1127.29 14.9212 1130.07 17.8379 Q1132.85 20.7545 1132.85 26.6804 Z" fill="#000000" fill-rule="nonzero" fill-opacity="1" /><path clip-path="url(#clip300)" d="M1160.28 16.5416 L1160.28 20.523 Q1158.47 19.5277 1156.64 19.0416 Q1154.84 18.5323 1152.99 18.5323 Q1148.84 18.5323 1146.55 21.1712 Q1144.26 23.7869 1144.26 28.5323 Q1144.26 33.2776 1146.55 35.9165 Q1148.84 38.5322 1152.99 38.5322 Q1154.84 38.5322 1156.64 38.0461 Q1158.47 37.5368 1160.28 36.5415 L1160.28 40.4766 Q1158.49 41.31 1156.57 41.7266 Q1154.67 42.1433 1152.52 42.1433 Q1146.67 42.1433 1143.22 38.4628 Q1139.77 34.7822 1139.77 28.5323 Q1139.77 22.1897 1143.24 18.5555 Q1146.74 14.9212 1152.8 14.9212 Q1154.77 14.9212 1156.64 15.3379 Q1158.52 15.7314 1160.28 16.5416 Z" fill="#000000" fill-rule="nonzero" fill-opacity="1" /><path clip-path="url(#clip300)" d="M1171.9 8.18514 L1171.9 15.5462 L1180.67 15.5462 L1180.67 18.8564 L1171.9 18.8564 L1171.9 32.9304 Q1171.9 36.1017 1172.75 37.0044 Q1173.63 37.9072 1176.3 37.9072 L1180.67 37.9072 L1180.67 41.472 L1176.3 41.472 Q1171.36 41.472 1169.49 39.6433 Q1167.61 37.7915 1167.61 32.9304 L1167.61 18.8564 L1164.49 18.8564 L1164.49 15.5462 L1167.61 15.5462 L1167.61 8.18514 L1171.9 8.18514 Z" fill="#000000" fill-rule="nonzero" fill-opacity="1" /><path clip-path="url(#clip300)" d="M1186.27 15.5462 L1190.53 15.5462 L1190.53 41.472 L1186.27 41.472 L1186.27 15.5462 M1186.27 5.45367 L1190.53 5.45367 L1190.53 10.8472 L1186.27 10.8472 L1186.27 5.45367 Z" fill="#000000" fill-rule="nonzero" fill-opacity="1" /><path clip-path="url(#clip300)" d="M1209.49 18.5323 Q1206.06 18.5323 1204.07 21.2175 Q1202.08 23.8795 1202.08 28.5323 Q1202.08 33.185 1204.05 35.8702 Q1206.04 38.5322 1209.49 38.5322 Q1212.89 38.5322 1214.88 35.847 Q1216.87 33.1619 1216.87 28.5323 Q1216.87 23.9258 1214.88 21.2406 Q1212.89 18.5323 1209.49 18.5323 M1209.49 14.9212 Q1215.04 14.9212 1218.22 18.5323 Q1221.39 22.1434 1221.39 28.5323 Q1221.39 34.898 1218.22 38.5322 Q1215.04 42.1433 1209.49 42.1433 Q1203.91 42.1433 1200.74 38.5322 Q1197.59 34.898 1197.59 28.5323 Q1197.59 22.1434 1200.74 18.5323 Q1203.91 14.9212 1209.49 14.9212 Z" fill="#000000" fill-rule="nonzero" fill-opacity="1" /><path clip-path="url(#clip300)" d="M1250 25.8239 L1250 41.472 L1245.74 41.472 L1245.74 25.9628 Q1245.74 22.2823 1244.3 20.4536 Q1242.87 18.6249 1240 18.6249 Q1236.55 18.6249 1234.56 20.824 Q1232.57 23.023 1232.57 26.8193 L1232.57 41.472 L1228.29 41.472 L1228.29 15.5462 L1232.57 15.5462 L1232.57 19.574 Q1234.1 17.236 1236.16 16.0786 Q1238.24 14.9212 1240.95 14.9212 Q1245.42 14.9212 1247.71 17.699 Q1250 20.4536 1250 25.8239 Z" fill="#000000" fill-rule="nonzero" fill-opacity="1" /><path clip-path="url(#clip300)" d="M1270.28 28.4397 Q1265.11 28.4397 1263.12 29.6202 Q1261.13 30.8008 1261.13 33.648 Q1261.13 35.9165 1262.61 37.2591 Q1264.12 38.5785 1266.69 38.5785 Q1270.23 38.5785 1272.36 36.0785 Q1274.51 33.5554 1274.51 29.3887 L1274.51 28.4397 L1270.28 28.4397 M1278.77 26.6804 L1278.77 41.472 L1274.51 41.472 L1274.51 37.5368 Q1273.05 39.8979 1270.88 41.0322 Q1268.7 42.1433 1265.55 42.1433 Q1261.57 42.1433 1259.21 39.9211 Q1256.87 37.6757 1256.87 33.9257 Q1256.87 29.5508 1259.79 27.3286 Q1262.73 25.1063 1268.54 25.1063 L1274.51 25.1063 L1274.51 24.6897 Q1274.51 21.7499 1272.57 20.1527 Q1270.65 18.5323 1267.15 18.5323 Q1264.93 18.5323 1262.82 19.0647 Q1260.72 19.5971 1258.77 20.6619 L1258.77 16.7268 Q1261.11 15.824 1263.31 15.3842 Q1265.51 14.9212 1267.59 14.9212 Q1273.22 14.9212 1275.99 17.8379 Q1278.77 20.7545 1278.77 26.6804 Z" fill="#000000" fill-rule="nonzero" fill-opacity="1" /><path clip-path="url(#clip300)" d="M1287.54 5.45367 L1291.8 5.45367 L1291.8 41.472 L1287.54 41.472 L1287.54 5.45367 Z" fill="#000000" fill-rule="nonzero" fill-opacity="1" /><path clip-path="url(#clip300)" d="M1320.65 24.9675 L1320.65 37.6294 L1328.15 37.6294 Q1331.92 37.6294 1333.72 36.0785 Q1335.55 34.5044 1335.55 31.2869 Q1335.55 28.0461 1333.72 26.5184 Q1331.92 24.9675 1328.15 24.9675 L1320.65 24.9675 M1320.65 10.7546 L1320.65 21.1712 L1327.57 21.1712 Q1330.99 21.1712 1332.66 19.898 Q1334.35 18.6018 1334.35 15.9629 Q1334.35 13.3472 1332.66 12.0509 Q1330.99 10.7546 1327.57 10.7546 L1320.65 10.7546 M1315.97 6.912 L1327.91 6.912 Q1333.26 6.912 1336.16 9.13421 Q1339.05 11.3564 1339.05 15.4536 Q1339.05 18.6249 1337.57 20.4999 Q1336.09 22.3749 1333.22 22.8378 Q1336.66 23.5786 1338.56 25.9397 Q1340.48 28.2776 1340.48 31.7961 Q1340.48 36.4257 1337.34 38.9489 Q1334.19 41.472 1328.38 41.472 L1315.97 41.472 L1315.97 6.912 Z" fill="#000000" fill-rule="nonzero" fill-opacity="1" /><path clip-path="url(#clip300)" d="M1363.33 19.5277 Q1362.61 19.111 1361.76 18.9258 Q1360.92 18.7175 1359.91 18.7175 Q1356.29 18.7175 1354.35 21.0786 Q1352.43 23.4165 1352.43 27.8147 L1352.43 41.472 L1348.15 41.472 L1348.15 15.5462 L1352.43 15.5462 L1352.43 19.574 Q1353.77 17.2129 1355.92 16.0786 Q1358.08 14.9212 1361.16 14.9212 Q1361.6 14.9212 1362.13 14.9907 Q1362.66 15.037 1363.31 15.1527 L1363.33 19.5277 Z" fill="#000000" fill-rule="nonzero" fill-opacity="1" /><path clip-path="url(#clip300)" d="M1376.8 18.5323 Q1373.38 18.5323 1371.39 21.2175 Q1369.4 23.8795 1369.4 28.5323 Q1369.4 33.185 1371.36 35.8702 Q1373.35 38.5322 1376.8 38.5322 Q1380.21 38.5322 1382.2 35.847 Q1384.19 33.1619 1384.19 28.5323 Q1384.19 23.9258 1382.2 21.2406 Q1380.21 18.5323 1376.8 18.5323 M1376.8 14.9212 Q1382.36 14.9212 1385.53 18.5323 Q1388.7 22.1434 1388.7 28.5323 Q1388.7 34.898 1385.53 38.5322 Q1382.36 42.1433 1376.8 42.1433 Q1371.22 42.1433 1368.05 38.5322 Q1364.91 34.898 1364.91 28.5323 Q1364.91 22.1434 1368.05 18.5323 Q1371.22 14.9212 1376.8 14.9212 Z" fill="#000000" fill-rule="nonzero" fill-opacity="1" /><path clip-path="url(#clip300)" d="M1393.28 15.5462 L1397.54 15.5462 L1402.87 35.7776 L1408.17 15.5462 L1413.19 15.5462 L1418.52 35.7776 L1423.82 15.5462 L1428.08 15.5462 L1421.29 41.472 L1416.27 41.472 L1410.69 20.2221 L1405.09 41.472 L1400.07 41.472 L1393.28 15.5462 Z" fill="#000000" fill-rule="nonzero" fill-opacity="1" /><path clip-path="url(#clip300)" d="M1456.09 25.8239 L1456.09 41.472 L1451.83 41.472 L1451.83 25.9628 Q1451.83 22.2823 1450.39 20.4536 Q1448.96 18.6249 1446.09 18.6249 Q1442.64 18.6249 1440.65 20.824 Q1438.65 23.023 1438.65 26.8193 L1438.65 41.472 L1434.37 41.472 L1434.37 15.5462 L1438.65 15.5462 L1438.65 19.574 Q1440.18 17.236 1442.24 16.0786 Q1444.33 14.9212 1447.03 14.9212 Q1451.5 14.9212 1453.79 17.699 Q1456.09 20.4536 1456.09 25.8239 Z" fill="#000000" fill-rule="nonzero" fill-opacity="1" /><path clip-path="url(#clip300)" d="M1464.58 15.5462 L1468.84 15.5462 L1468.84 41.472 L1464.58 41.472 L1464.58 15.5462 M1464.58 5.45367 L1468.84 5.45367 L1468.84 10.8472 L1464.58 10.8472 L1464.58 5.45367 Z" fill="#000000" fill-rule="nonzero" fill-opacity="1" /><path clip-path="url(#clip300)" d="M1489.53 28.4397 Q1484.37 28.4397 1482.38 29.6202 Q1480.39 30.8008 1480.39 33.648 Q1480.39 35.9165 1481.87 37.2591 Q1483.38 38.5785 1485.95 38.5785 Q1489.49 38.5785 1491.62 36.0785 Q1493.77 33.5554 1493.77 29.3887 L1493.77 28.4397 L1489.53 28.4397 M1498.03 26.6804 L1498.03 41.472 L1493.77 41.472 L1493.77 37.5368 Q1492.31 39.8979 1490.14 41.0322 Q1487.96 42.1433 1484.81 42.1433 Q1480.83 42.1433 1478.47 39.9211 Q1476.13 37.6757 1476.13 33.9257 Q1476.13 29.5508 1479.05 27.3286 Q1481.99 25.1063 1487.8 25.1063 L1493.77 25.1063 L1493.77 24.6897 Q1493.77 21.7499 1491.83 20.1527 Q1489.9 18.5323 1486.41 18.5323 Q1484.19 18.5323 1482.08 19.0647 Q1479.97 19.5971 1478.03 20.6619 L1478.03 16.7268 Q1480.37 15.824 1482.57 15.3842 Q1484.77 14.9212 1486.85 14.9212 Q1492.47 14.9212 1495.25 17.8379 Q1498.03 20.7545 1498.03 26.6804 Z" fill="#000000" fill-rule="nonzero" fill-opacity="1" /><path clip-path="url(#clip300)" d="M1528.35 25.8239 L1528.35 41.472 L1524.09 41.472 L1524.09 25.9628 Q1524.09 22.2823 1522.66 20.4536 Q1521.22 18.6249 1518.35 18.6249 Q1514.9 18.6249 1512.91 20.824 Q1510.92 23.023 1510.92 26.8193 L1510.92 41.472 L1506.64 41.472 L1506.64 15.5462 L1510.92 15.5462 L1510.92 19.574 Q1512.45 17.236 1514.51 16.0786 Q1516.59 14.9212 1519.3 14.9212 Q1523.77 14.9212 1526.06 17.699 Q1528.35 20.4536 1528.35 25.8239 Z" fill="#000000" fill-rule="nonzero" fill-opacity="1" /><path clip-path="url(#clip300)" d="M1572.1 20.523 Q1573.7 17.6527 1575.92 16.2869 Q1578.14 14.9212 1581.15 14.9212 Q1585.2 14.9212 1587.4 17.7684 Q1589.6 20.5925 1589.6 25.8239 L1589.6 41.472 L1585.32 41.472 L1585.32 25.9628 Q1585.32 22.236 1584 20.4304 Q1582.68 18.6249 1579.97 18.6249 Q1576.66 18.6249 1574.74 20.824 Q1572.82 23.023 1572.82 26.8193 L1572.82 41.472 L1568.54 41.472 L1568.54 25.9628 Q1568.54 22.2128 1567.22 20.4304 Q1565.9 18.6249 1563.14 18.6249 Q1559.88 18.6249 1557.96 20.8471 Q1556.04 23.0462 1556.04 26.8193 L1556.04 41.472 L1551.76 41.472 L1551.76 15.5462 L1556.04 15.5462 L1556.04 19.574 Q1557.5 17.1897 1559.53 16.0555 Q1561.57 14.9212 1564.37 14.9212 Q1567.2 14.9212 1569.16 16.3564 Q1571.15 17.7916 1572.1 20.523 Z" fill="#000000" fill-rule="nonzero" fill-opacity="1" /><path clip-path="url(#clip300)" d="M1608.14 18.5323 Q1604.72 18.5323 1602.73 21.2175 Q1600.74 23.8795 1600.74 28.5323 Q1600.74 33.185 1602.7 35.8702 Q1604.7 38.5322 1608.14 38.5322 Q1611.55 38.5322 1613.54 35.847 Q1615.53 33.1619 1615.53 28.5323 Q1615.53 23.9258 1613.54 21.2406 Q1611.55 18.5323 1608.14 18.5323 M1608.14 14.9212 Q1613.7 14.9212 1616.87 18.5323 Q1620.04 22.1434 1620.04 28.5323 Q1620.04 34.898 1616.87 38.5322 Q1613.7 42.1433 1608.14 42.1433 Q1602.57 42.1433 1599.39 38.5322 Q1596.25 34.898 1596.25 28.5323 Q1596.25 22.1434 1599.39 18.5323 Q1602.57 14.9212 1608.14 14.9212 Z" fill="#000000" fill-rule="nonzero" fill-opacity="1" /><path clip-path="url(#clip300)" d="M1631.32 8.18514 L1631.32 15.5462 L1640.09 15.5462 L1640.09 18.8564 L1631.32 18.8564 L1631.32 32.9304 Q1631.32 36.1017 1632.17 37.0044 Q1633.05 37.9072 1635.71 37.9072 L1640.09 37.9072 L1640.09 41.472 L1635.71 41.472 Q1630.78 41.472 1628.91 39.6433 Q1627.03 37.7915 1627.03 32.9304 L1627.03 18.8564 L1623.91 18.8564 L1623.91 15.5462 L1627.03 15.5462 L1627.03 8.18514 L1631.32 8.18514 Z" fill="#000000" fill-rule="nonzero" fill-opacity="1" /><path clip-path="url(#clip300)" d="M1645.69 15.5462 L1649.95 15.5462 L1649.95 41.472 L1645.69 41.472 L1645.69 15.5462 M1645.69 5.45367 L1649.95 5.45367 L1649.95 10.8472 L1645.69 10.8472 L1645.69 5.45367 Z" fill="#000000" fill-rule="nonzero" fill-opacity="1" /><path clip-path="url(#clip300)" d="M1668.91 18.5323 Q1665.48 18.5323 1663.49 21.2175 Q1661.5 23.8795 1661.5 28.5323 Q1661.5 33.185 1663.47 35.8702 Q1665.46 38.5322 1668.91 38.5322 Q1672.31 38.5322 1674.3 35.847 Q1676.29 33.1619 1676.29 28.5323 Q1676.29 23.9258 1674.3 21.2406 Q1672.31 18.5323 1668.91 18.5323 M1668.91 14.9212 Q1674.46 14.9212 1677.64 18.5323 Q1680.81 22.1434 1680.81 28.5323 Q1680.81 34.898 1677.64 38.5322 Q1674.46 42.1433 1668.91 42.1433 Q1663.33 42.1433 1660.16 38.5322 Q1657.01 34.898 1657.01 28.5323 Q1657.01 22.1434 1660.16 18.5323 Q1663.33 14.9212 1668.91 14.9212 Z" fill="#000000" fill-rule="nonzero" fill-opacity="1" /><path clip-path="url(#clip300)" d="M1709.42 25.8239 L1709.42 41.472 L1705.16 41.472 L1705.16 25.9628 Q1705.16 22.2823 1703.72 20.4536 Q1702.29 18.6249 1699.42 18.6249 Q1695.97 18.6249 1693.98 20.824 Q1691.99 23.023 1691.99 26.8193 L1691.99 41.472 L1687.7 41.472 L1687.7 15.5462 L1691.99 15.5462 L1691.99 19.574 Q1693.51 17.236 1695.57 16.0786 Q1697.66 14.9212 1700.37 14.9212 Q1704.83 14.9212 1707.13 17.699 Q1709.42 20.4536 1709.42 25.8239 Z" fill="#000000" fill-rule="nonzero" fill-opacity="1" /><path clip-path="url(#clip300)" d="M1743.03 18.5323 Q1739.6 18.5323 1737.61 21.2175 Q1735.62 23.8795 1735.62 28.5323 Q1735.62 33.185 1737.59 35.8702 Q1739.58 38.5322 1743.03 38.5322 Q1746.43 38.5322 1748.42 35.847 Q1750.41 33.1619 1750.41 28.5323 Q1750.41 23.9258 1748.42 21.2406 Q1746.43 18.5323 1743.03 18.5323 M1743.03 14.9212 Q1748.58 14.9212 1751.75 18.5323 Q1754.93 22.1434 1754.93 28.5323 Q1754.93 34.898 1751.75 38.5322 Q1748.58 42.1433 1743.03 42.1433 Q1737.45 42.1433 1734.28 38.5322 Q1731.13 34.898 1731.13 28.5323 Q1731.13 22.1434 1734.28 18.5323 Q1737.45 14.9212 1743.03 14.9212 Z" fill="#000000" fill-rule="nonzero" fill-opacity="1" /><path clip-path="url(#clip300)" d="M1775.11 5.45367 L1775.11 8.99532 L1771.04 8.99532 Q1768.75 8.99532 1767.84 9.92124 Q1766.96 10.8472 1766.96 13.2546 L1766.96 15.5462 L1773.98 15.5462 L1773.98 18.8564 L1766.96 18.8564 L1766.96 41.472 L1762.68 41.472 L1762.68 18.8564 L1758.61 18.8564 L1758.61 15.5462 L1762.68 15.5462 L1762.68 13.7407 Q1762.68 9.41199 1764.69 7.4444 Q1766.71 5.45367 1771.08 5.45367 L1775.11 5.45367 Z" fill="#000000" fill-rule="nonzero" fill-opacity="1" /><path clip-path="url(#clip300)" d="M1793.75 5.45367 L1798 5.45367 L1798 41.472 L1793.75 41.472 L1793.75 5.45367 Z" fill="#000000" fill-rule="nonzero" fill-opacity="1" /><path clip-path="url(#clip300)" d="M1829.09 27.4443 L1829.09 29.5276 L1809.51 29.5276 Q1809.79 33.9257 1812.15 36.2405 Q1814.53 38.5322 1818.77 38.5322 Q1821.22 38.5322 1823.51 37.9304 Q1825.83 37.3285 1828.1 36.1248 L1828.1 40.1526 Q1825.81 41.1248 1823.4 41.634 Q1820.99 42.1433 1818.51 42.1433 Q1812.31 42.1433 1808.68 38.5322 Q1805.06 34.9211 1805.06 28.7637 Q1805.06 22.398 1808.49 18.6712 Q1811.94 14.9212 1817.77 14.9212 Q1823 14.9212 1826.04 18.3008 Q1829.09 21.6573 1829.09 27.4443 M1824.83 26.1943 Q1824.79 22.699 1822.87 20.6156 Q1820.97 18.5323 1817.82 18.5323 Q1814.25 18.5323 1812.1 20.5462 Q1809.97 22.5601 1809.65 26.2175 L1824.83 26.1943 Z" fill="#000000" fill-rule="nonzero" fill-opacity="1" /><path clip-path="url(#clip300)" d="M1857.63 25.8239 L1857.63 41.472 L1853.37 41.472 L1853.37 25.9628 Q1853.37 22.2823 1851.94 20.4536 Q1850.5 18.6249 1847.63 18.6249 Q1844.19 18.6249 1842.19 20.824 Q1840.2 23.023 1840.2 26.8193 L1840.2 41.472 L1835.92 41.472 L1835.92 15.5462 L1840.2 15.5462 L1840.2 19.574 Q1841.73 17.236 1843.79 16.0786 Q1845.87 14.9212 1848.58 14.9212 Q1853.05 14.9212 1855.34 17.699 Q1857.63 20.4536 1857.63 25.8239 Z" fill="#000000" fill-rule="nonzero" fill-opacity="1" /><path clip-path="url(#clip300)" d="M1883.19 28.2082 Q1883.19 23.5786 1881.27 21.0323 Q1879.37 18.486 1875.92 18.486 Q1872.5 18.486 1870.57 21.0323 Q1868.68 23.5786 1868.68 28.2082 Q1868.68 32.8146 1870.57 35.3609 Q1872.5 37.9072 1875.92 37.9072 Q1879.37 37.9072 1881.27 35.3609 Q1883.19 32.8146 1883.19 28.2082 M1887.45 38.2544 Q1887.45 44.8748 1884.51 48.0923 Q1881.57 51.3331 1875.5 51.3331 Q1873.26 51.3331 1871.27 50.9858 Q1869.28 50.6618 1867.4 49.9673 L1867.4 45.8238 Q1869.28 46.8423 1871.11 47.3285 Q1872.93 47.8146 1874.83 47.8146 Q1879.02 47.8146 1881.11 45.6155 Q1883.19 43.4396 1883.19 39.0183 L1883.19 36.9118 Q1881.87 39.2035 1879.81 40.3377 Q1877.75 41.472 1874.88 41.472 Q1870.11 41.472 1867.19 37.8378 Q1864.28 34.2035 1864.28 28.2082 Q1864.28 22.1897 1867.19 18.5555 Q1870.11 14.9212 1874.88 14.9212 Q1877.75 14.9212 1879.81 16.0555 Q1881.87 17.1897 1883.19 19.4814 L1883.19 15.5462 L1887.45 15.5462 L1887.45 38.2544 Z" fill="#000000" fill-rule="nonzero" fill-opacity="1" /><path clip-path="url(#clip300)" d="M1900.43 8.18514 L1900.43 15.5462 L1909.21 15.5462 L1909.21 18.8564 L1900.43 18.8564 L1900.43 32.9304 Q1900.43 36.1017 1901.29 37.0044 Q1902.17 37.9072 1904.83 37.9072 L1909.21 37.9072 L1909.21 41.472 L1904.83 41.472 Q1899.9 41.472 1898.03 39.6433 Q1896.15 37.7915 1896.15 32.9304 L1896.15 18.8564 L1893.03 18.8564 L1893.03 15.5462 L1896.15 15.5462 L1896.15 8.18514 L1900.43 8.18514 Z" fill="#000000" fill-rule="nonzero" fill-opacity="1" /><path clip-path="url(#clip300)" d="M1936.36 25.8239 L1936.36 41.472 L1932.1 41.472 L1932.1 25.9628 Q1932.1 22.2823 1930.67 20.4536 Q1929.23 18.6249 1926.36 18.6249 Q1922.91 18.6249 1920.92 20.824 Q1918.93 23.023 1918.93 26.8193 L1918.93 41.472 L1914.65 41.472 L1914.65 5.45367 L1918.93 5.45367 L1918.93 19.574 Q1920.46 17.236 1922.52 16.0786 Q1924.6 14.9212 1927.31 14.9212 Q1931.78 14.9212 1934.07 17.699 Q1936.36 20.4536 1936.36 25.8239 Z" fill="#000000" fill-rule="nonzero" fill-opacity="1" /><path clip-path="url(#clip300)" d="M1960.57 6.912 L1978.93 6.912 L1978.93 10.8472 L1964.86 10.8472 L1964.86 19.3193 Q1965.87 18.9721 1966.89 18.8101 Q1967.91 18.6249 1968.93 18.6249 Q1974.72 18.6249 1978.1 21.7962 Q1981.48 24.9675 1981.48 30.3841 Q1981.48 35.9628 1978 39.0646 Q1974.53 42.1433 1968.21 42.1433 Q1966.04 42.1433 1963.77 41.7729 Q1961.52 41.4026 1959.11 40.6618 L1959.11 35.9628 Q1961.2 37.097 1963.42 37.6526 Q1965.64 38.2081 1968.12 38.2081 Q1972.12 38.2081 1974.46 36.1017 Q1976.8 33.9952 1976.8 30.3841 Q1976.8 26.773 1974.46 24.6665 Q1972.12 22.5601 1968.12 22.5601 Q1966.24 22.5601 1964.37 22.9767 Q1962.52 23.3934 1960.57 24.273 L1960.57 6.912 Z" fill="#000000" fill-rule="nonzero" fill-opacity="1" /><path clip-path="url(#clip300)" d="M1991.5 37.5368 L1999.14 37.5368 L1999.14 11.1712 L1990.83 12.8379 L1990.83 8.57866 L1999.09 6.912 L2003.77 6.912 L2003.77 37.5368 L2011.41 37.5368 L2011.41 41.472 L1991.5 41.472 L1991.5 37.5368 Z" fill="#000000" fill-rule="nonzero" fill-opacity="1" /><path clip-path="url(#clip300)" d="M2024.88 37.5368 L2041.2 37.5368 L2041.2 41.472 L2019.25 41.472 L2019.25 37.5368 Q2021.92 34.7822 2026.5 30.1526 Q2031.11 25.4999 2032.29 24.1573 Q2034.53 21.6341 2035.41 19.898 Q2036.31 18.1388 2036.31 16.449 Q2036.31 13.6944 2034.37 11.9583 Q2032.45 10.2222 2029.35 10.2222 Q2027.15 10.2222 2024.69 10.9861 Q2022.26 11.7499 2019.49 13.3009 L2019.49 8.57866 Q2022.31 7.4444 2024.76 6.8657 Q2027.22 6.287 2029.25 6.287 Q2034.62 6.287 2037.82 8.97217 Q2041.01 11.6573 2041.01 16.1481 Q2041.01 18.2777 2040.2 20.199 Q2039.42 22.0971 2037.31 24.6897 Q2036.73 25.361 2033.63 28.5786 Q2030.53 31.773 2024.88 37.5368 Z" fill="#000000" fill-rule="nonzero" fill-opacity="1" /><path clip-path="url(#clip300)" d="M2063 15.5462 L2067.26 15.5462 L2072.59 35.7776 L2077.89 15.5462 L2082.91 15.5462 L2088.23 35.7776 L2093.54 15.5462 L2097.79 15.5462 L2091.01 41.472 L2085.99 41.472 L2080.41 20.2221 L2074.81 41.472 L2069.79 41.472 L2063 15.5462 Z" fill="#000000" fill-rule="nonzero" fill-opacity="1" /><path clip-path="url(#clip300)" d="M2104.25 15.5462 L2108.51 15.5462 L2108.51 41.472 L2104.25 41.472 L2104.25 15.5462 M2104.25 5.45367 L2108.51 5.45367 L2108.51 10.8472 L2104.25 10.8472 L2104.25 5.45367 Z" fill="#000000" fill-rule="nonzero" fill-opacity="1" /><path clip-path="url(#clip300)" d="M2121.64 8.18514 L2121.64 15.5462 L2130.41 15.5462 L2130.41 18.8564 L2121.64 18.8564 L2121.64 32.9304 Q2121.64 36.1017 2122.49 37.0044 Q2123.37 37.9072 2126.04 37.9072 L2130.41 37.9072 L2130.41 41.472 L2126.04 41.472 Q2121.1 41.472 2119.23 39.6433 Q2117.35 37.7915 2117.35 32.9304 L2117.35 18.8564 L2114.23 18.8564 L2114.23 15.5462 L2117.35 15.5462 L2117.35 8.18514 L2121.64 8.18514 Z" fill="#000000" fill-rule="nonzero" fill-opacity="1" /><path clip-path="url(#clip300)" d="M2157.56 25.8239 L2157.56 41.472 L2153.3 41.472 L2153.3 25.9628 Q2153.3 22.2823 2151.87 20.4536 Q2150.43 18.6249 2147.56 18.6249 Q2144.11 18.6249 2142.12 20.824 Q2140.13 23.023 2140.13 26.8193 L2140.13 41.472 L2135.85 41.472 L2135.85 5.45367 L2140.13 5.45367 L2140.13 19.574 Q2141.66 17.236 2143.72 16.0786 Q2145.8 14.9212 2148.51 14.9212 Q2152.98 14.9212 2155.27 17.699 Q2157.56 20.4536 2157.56 25.8239 Z" fill="#000000" fill-rule="nonzero" fill-opacity="1" /><path clip-path="url(#clip300)" d="M2181.31 6.912 L2185.99 6.912 L2185.99 21.0786 L2202.98 21.0786 L2202.98 6.912 L2207.66 6.912 L2207.66 41.472 L2202.98 41.472 L2202.98 25.0138 L2185.99 25.0138 L2185.99 41.472 L2181.31 41.472 L2181.31 6.912 Z" fill="#000000" fill-rule="nonzero" fill-opacity="1" /><path clip-path="url(#clip300)" d="M2216.34 31.2406 L2216.34 15.5462 L2220.6 15.5462 L2220.6 31.0785 Q2220.6 34.7591 2222.03 36.6109 Q2223.47 38.4396 2226.34 38.4396 Q2229.78 38.4396 2231.78 36.2405 Q2233.79 34.0415 2233.79 30.2452 L2233.79 15.5462 L2238.05 15.5462 L2238.05 41.472 L2233.79 41.472 L2233.79 37.4905 Q2232.24 39.8516 2230.18 41.009 Q2228.14 42.1433 2225.43 42.1433 Q2220.97 42.1433 2218.65 39.3655 Q2216.34 36.5878 2216.34 31.2406 M2227.05 14.9212 L2227.05 14.9212 Z" fill="#000000" fill-rule="nonzero" fill-opacity="1" /><path clip-path="url(#clip300)" d="M2261.84 19.5277 Q2261.13 19.111 2260.27 18.9258 Q2259.44 18.7175 2258.42 18.7175 Q2254.81 18.7175 2252.86 21.0786 Q2250.94 23.4165 2250.94 27.8147 L2250.94 41.472 L2246.66 41.472 L2246.66 15.5462 L2250.94 15.5462 L2250.94 19.574 Q2252.28 17.2129 2254.44 16.0786 Q2256.59 14.9212 2259.67 14.9212 Q2260.11 14.9212 2260.64 14.9907 Q2261.17 15.037 2261.82 15.1527 L2261.84 19.5277 Z" fill="#000000" fill-rule="nonzero" fill-opacity="1" /><path clip-path="url(#clip300)" d="M2282.84 16.3101 L2282.84 20.3379 Q2281.03 19.4119 2279.09 18.949 Q2277.15 18.486 2275.06 18.486 Q2271.89 18.486 2270.29 19.4582 Q2268.72 20.4304 2268.72 22.3749 Q2268.72 23.8564 2269.85 24.7128 Q2270.99 25.5462 2274.41 26.31 L2275.87 26.6341 Q2280.41 27.6063 2282.31 29.3887 Q2284.23 31.148 2284.23 34.3193 Q2284.23 37.9304 2281.36 40.0368 Q2278.51 42.1433 2273.51 42.1433 Q2271.43 42.1433 2269.16 41.7266 Q2266.91 41.3331 2264.41 40.5229 L2264.41 36.1248 Q2266.78 37.3517 2269.07 37.9766 Q2271.36 38.5785 2273.6 38.5785 Q2276.61 38.5785 2278.23 37.56 Q2279.85 36.5183 2279.85 34.6433 Q2279.85 32.9072 2278.67 31.9813 Q2277.52 31.0554 2273.56 30.1989 L2272.08 29.8517 Q2268.12 29.0184 2266.36 27.3054 Q2264.6 25.5693 2264.6 22.5601 Q2264.6 18.9027 2267.19 16.9119 Q2269.78 14.9212 2274.55 14.9212 Q2276.91 14.9212 2279 15.2684 Q2281.08 15.6157 2282.84 16.3101 Z" fill="#000000" fill-rule="nonzero" fill-opacity="1" /><path clip-path="url(#clip300)" d="M2295.22 8.18514 L2295.22 15.5462 L2304 15.5462 L2304 18.8564 L2295.22 18.8564 L2295.22 32.9304 Q2295.22 36.1017 2296.08 37.0044 Q2296.96 37.9072 2299.62 37.9072 L2304 37.9072 L2304 41.472 L2299.62 41.472 Q2294.69 41.472 2292.82 39.6433 Q2290.94 37.7915 2290.94 32.9304 L2290.94 18.8564 L2287.82 18.8564 L2287.82 15.5462 L2290.94 15.5462 L2290.94 8.18514 L2295.22 8.18514 Z" fill="#000000" fill-rule="nonzero" fill-opacity="1" /><path clip-path="url(#clip300)" d="M2328.79 37.5831 L2328.79 51.3331 L2324.51 51.3331 L2324.51 15.5462 L2328.79 15.5462 L2328.79 19.4814 Q2330.13 17.1666 2332.17 16.0555 Q2334.23 14.9212 2337.08 14.9212 Q2341.8 14.9212 2344.74 18.6712 Q2347.7 22.4212 2347.7 28.5323 Q2347.7 34.6433 2344.74 38.3933 Q2341.8 42.1433 2337.08 42.1433 Q2334.23 42.1433 2332.17 41.0322 Q2330.13 39.8979 2328.79 37.5831 M2343.28 28.5323 Q2343.28 23.8332 2341.34 21.1712 Q2339.41 18.486 2336.03 18.486 Q2332.65 18.486 2330.71 21.1712 Q2328.79 23.8332 2328.79 28.5323 Q2328.79 33.2313 2330.71 35.9165 Q2332.65 38.5785 2336.03 38.5785 Q2339.41 38.5785 2341.34 35.9165 Q2343.28 33.2313 2343.28 28.5323 Z" fill="#000000" fill-rule="nonzero" fill-opacity="1" /><path clip-path="url(#clip300)" d="M2366.54 28.4397 Q2361.38 28.4397 2359.39 29.6202 Q2357.4 30.8008 2357.4 33.648 Q2357.4 35.9165 2358.88 37.2591 Q2360.39 38.5785 2362.96 38.5785 Q2366.5 38.5785 2368.63 36.0785 Q2370.78 33.5554 2370.78 29.3887 L2370.78 28.4397 L2366.54 28.4397 M2375.04 26.6804 L2375.04 41.472 L2370.78 41.472 L2370.78 37.5368 Q2369.32 39.8979 2367.15 41.0322 Q2364.97 42.1433 2361.82 42.1433 Q2357.84 42.1433 2355.48 39.9211 Q2353.14 37.6757 2353.14 33.9257 Q2353.14 29.5508 2356.06 27.3286 Q2359 25.1063 2364.81 25.1063 L2370.78 25.1063 L2370.78 24.6897 Q2370.78 21.7499 2368.84 20.1527 Q2366.91 18.5323 2363.42 18.5323 Q2361.2 18.5323 2359.09 19.0647 Q2356.98 19.5971 2355.04 20.6619 L2355.04 16.7268 Q2357.38 15.824 2359.58 15.3842 Q2361.77 14.9212 2363.86 14.9212 Q2369.48 14.9212 2372.26 17.8379 Q2375.04 20.7545 2375.04 26.6804 Z" fill="#000000" fill-rule="nonzero" fill-opacity="1" /><path clip-path="url(#clip300)" d="M2398.83 19.5277 Q2398.12 19.111 2397.26 18.9258 Q2396.43 18.7175 2395.41 18.7175 Q2391.8 18.7175 2389.85 21.0786 Q2387.93 23.4165 2387.93 27.8147 L2387.93 41.472 L2383.65 41.472 L2383.65 15.5462 L2387.93 15.5462 L2387.93 19.574 Q2389.27 17.2129 2391.43 16.0786 Q2393.58 14.9212 2396.66 14.9212 Q2397.1 14.9212 2397.63 14.9907 Q2398.16 15.037 2398.81 15.1527 L2398.83 19.5277 Z" fill="#000000" fill-rule="nonzero" fill-opacity="1" /><path clip-path="url(#clip300)" d="M2415.08 28.4397 Q2409.92 28.4397 2407.93 29.6202 Q2405.94 30.8008 2405.94 33.648 Q2405.94 35.9165 2407.42 37.2591 Q2408.93 38.5785 2411.5 38.5785 Q2415.04 38.5785 2417.17 36.0785 Q2419.32 33.5554 2419.32 29.3887 L2419.32 28.4397 L2415.08 28.4397 M2423.58 26.6804 L2423.58 41.472 L2419.32 41.472 L2419.32 37.5368 Q2417.86 39.8979 2415.69 41.0322 Q2413.51 42.1433 2410.36 42.1433 Q2406.38 42.1433 2404.02 39.9211 Q2401.68 37.6757 2401.68 33.9257 Q2401.68 29.5508 2404.6 27.3286 Q2407.54 25.1063 2413.35 25.1063 L2419.32 25.1063 L2419.32 24.6897 Q2419.32 21.7499 2417.38 20.1527 Q2415.46 18.5323 2411.96 18.5323 Q2409.74 18.5323 2407.63 19.0647 Q2405.52 19.5971 2403.58 20.6619 L2403.58 16.7268 Q2405.92 15.824 2408.12 15.3842 Q2410.32 14.9212 2412.4 14.9212 Q2418.02 14.9212 2420.8 17.8379 Q2423.58 20.7545 2423.58 26.6804 Z" fill="#000000" fill-rule="nonzero" fill-opacity="1" /><path clip-path="url(#clip300)" d="M2452.54 20.523 Q2454.14 17.6527 2456.36 16.2869 Q2458.58 14.9212 2461.59 14.9212 Q2465.64 14.9212 2467.84 17.7684 Q2470.04 20.5925 2470.04 25.8239 L2470.04 41.472 L2465.76 41.472 L2465.76 25.9628 Q2465.76 22.236 2464.44 20.4304 Q2463.12 18.6249 2460.41 18.6249 Q2457.1 18.6249 2455.18 20.824 Q2453.26 23.023 2453.26 26.8193 L2453.26 41.472 L2448.97 41.472 L2448.97 25.9628 Q2448.97 22.2128 2447.65 20.4304 Q2446.33 18.6249 2443.58 18.6249 Q2440.32 18.6249 2438.39 20.8471 Q2436.47 23.0462 2436.47 26.8193 L2436.47 41.472 L2432.19 41.472 L2432.19 15.5462 L2436.47 15.5462 L2436.47 19.574 Q2437.93 17.1897 2439.97 16.0555 Q2442.01 14.9212 2444.81 14.9212 Q2447.63 14.9212 2449.6 16.3564 Q2451.59 17.7916 2452.54 20.523 Z" fill="#000000" fill-rule="nonzero" fill-opacity="1" /><path clip-path="url(#clip300)" d="M2500.71 27.4443 L2500.71 29.5276 L2481.13 29.5276 Q2481.4 33.9257 2483.76 36.2405 Q2486.15 38.5322 2490.39 38.5322 Q2492.84 38.5322 2495.13 37.9304 Q2497.45 37.3285 2499.71 36.1248 L2499.71 40.1526 Q2497.42 41.1248 2495.01 41.634 Q2492.61 42.1433 2490.13 42.1433 Q2483.93 42.1433 2480.29 38.5322 Q2476.68 34.9211 2476.68 28.7637 Q2476.68 22.398 2480.11 18.6712 Q2483.56 14.9212 2489.39 14.9212 Q2494.62 14.9212 2497.65 18.3008 Q2500.71 21.6573 2500.71 27.4443 M2496.45 26.1943 Q2496.4 22.699 2494.48 20.6156 Q2492.58 18.5323 2489.44 18.5323 Q2485.87 18.5323 2483.72 20.5462 Q2481.59 22.5601 2481.26 26.2175 L2496.45 26.1943 Z" fill="#000000" fill-rule="nonzero" fill-opacity="1" /><path clip-path="url(#clip300)" d="M2511.91 8.18514 L2511.91 15.5462 L2520.69 15.5462 L2520.69 18.8564 L2511.91 18.8564 L2511.91 32.9304 Q2511.91 36.1017 2512.77 37.0044 Q2513.65 37.9072 2516.31 37.9072 L2520.69 37.9072 L2520.69 41.472 L2516.31 41.472 Q2511.38 41.472 2509.51 39.6433 Q2507.63 37.7915 2507.63 32.9304 L2507.63 18.8564 L2504.51 18.8564 L2504.51 15.5462 L2507.63 15.5462 L2507.63 8.18514 L2511.91 8.18514 Z" fill="#000000" fill-rule="nonzero" fill-opacity="1" /><path clip-path="url(#clip300)" d="M2548.46 27.4443 L2548.46 29.5276 L2528.88 29.5276 Q2529.16 33.9257 2531.52 36.2405 Q2533.9 38.5322 2538.14 38.5322 Q2540.59 38.5322 2542.89 37.9304 Q2545.2 37.3285 2547.47 36.1248 L2547.47 40.1526 Q2545.18 41.1248 2542.77 41.634 Q2540.36 42.1433 2537.89 42.1433 Q2531.68 42.1433 2528.05 38.5322 Q2524.44 34.9211 2524.44 28.7637 Q2524.44 22.398 2527.86 18.6712 Q2531.31 14.9212 2537.14 14.9212 Q2542.38 14.9212 2545.41 18.3008 Q2548.46 21.6573 2548.46 27.4443 M2544.2 26.1943 Q2544.16 22.699 2542.24 20.6156 Q2540.34 18.5323 2537.19 18.5323 Q2533.63 18.5323 2531.47 20.5462 Q2529.34 22.5601 2529.02 26.2175 L2544.2 26.1943 Z" fill="#000000" fill-rule="nonzero" fill-opacity="1" /><path clip-path="url(#clip300)" d="M2570.48 19.5277 Q2569.76 19.111 2568.9 18.9258 Q2568.07 18.7175 2567.05 18.7175 Q2563.44 18.7175 2561.5 21.0786 Q2559.57 23.4165 2559.57 27.8147 L2559.57 41.472 L2555.29 41.472 L2555.29 15.5462 L2559.57 15.5462 L2559.57 19.574 Q2560.92 17.2129 2563.07 16.0786 Q2565.22 14.9212 2568.3 14.9212 Q2568.74 14.9212 2569.27 14.9907 Q2569.81 15.037 2570.45 15.1527 L2570.48 19.5277 Z" fill="#000000" fill-rule="nonzero" fill-opacity="1" /><path clip-path="url(#clip300)" d="M2590.2 6.912 L2594.88 6.912 L2594.88 21.0786 L2611.87 21.0786 L2611.87 6.912 L2616.54 6.912 L2616.54 41.472 L2611.87 41.472 L2611.87 25.0138 L2594.88 25.0138 L2594.88 41.472 L2590.2 41.472 L2590.2 6.912 Z" fill="#000000" fill-rule="nonzero" fill-opacity="1" /><path clip-path="url(#clip300)" d="M2626.22 19.9443 L2655.89 19.9443 L2655.89 23.8332 L2626.22 23.8332 L2626.22 19.9443 M2626.22 29.3887 L2655.89 29.3887 L2655.89 33.3239 L2626.22 33.3239 L2626.22 29.3887 Z" fill="#000000" fill-rule="nonzero" fill-opacity="1" /><path clip-path="url(#clip300)" d="M2675.99 9.99069 Q2672.38 9.99069 2670.55 13.5555 Q2668.74 17.0971 2668.74 24.2267 Q2668.74 31.3332 2670.55 34.898 Q2672.38 38.4396 2675.99 38.4396 Q2679.62 38.4396 2681.43 34.898 Q2683.25 31.3332 2683.25 24.2267 Q2683.25 17.0971 2681.43 13.5555 Q2679.62 9.99069 2675.99 9.99069 M2675.99 6.287 Q2681.8 6.287 2684.85 10.8935 Q2687.93 15.4768 2687.93 24.2267 Q2687.93 32.9535 2684.85 37.56 Q2681.8 42.1433 2675.99 42.1433 Q2670.18 42.1433 2667.1 37.56 Q2664.04 32.9535 2664.04 24.2267 Q2664.04 15.4768 2667.1 10.8935 Q2670.18 6.287 2675.99 6.287 Z" fill="#000000" fill-rule="nonzero" fill-opacity="1" /><path clip-path="url(#clip300)" d="M2696.15 35.5924 L2701.03 35.5924 L2701.03 41.472 L2696.15 41.472 L2696.15 35.5924 Z" fill="#000000" fill-rule="nonzero" fill-opacity="1" /><path clip-path="url(#clip300)" d="M2711.26 6.912 L2729.62 6.912 L2729.62 10.8472 L2715.55 10.8472 L2715.55 19.3193 Q2716.56 18.9721 2717.58 18.8101 Q2718.6 18.6249 2719.62 18.6249 Q2725.41 18.6249 2728.79 21.7962 Q2732.17 24.9675 2732.17 30.3841 Q2732.17 35.9628 2728.69 39.0646 Q2725.22 42.1433 2718.9 42.1433 Q2716.73 42.1433 2714.46 41.7729 Q2712.21 41.4026 2709.81 40.6618 L2709.81 35.9628 Q2711.89 37.097 2714.11 37.6526 Q2716.33 38.2081 2718.81 38.2081 Q2722.81 38.2081 2725.15 36.1017 Q2727.49 33.9952 2727.49 30.3841 Q2727.49 26.773 2725.15 24.6665 Q2722.81 22.5601 2718.81 22.5601 Q2716.93 22.5601 2715.06 22.9767 Q2713.21 23.3934 2711.26 24.273 L2711.26 6.912 Z" fill="#000000" fill-rule="nonzero" fill-opacity="1" /><polyline clip-path="url(#clip302)" style="stroke:#009af9; stroke-linecap:round; stroke-linejoin:round; stroke-width:4; stroke-opacity:1; fill:none" points="335.383,716.532 340.726,694.463 346.068,740.258 351.411,710.784 356.753,719.693 362.095,745.748 367.438,788.537 372.78,751.108 378.123,771.201 383.465,811.648 388.808,843.42 394.15,845.755 399.492,824.806 404.835,813.872 410.177,798.891 415.52,770.087 420.862,758.65 426.204,778.925 431.547,790.873 436.889,821.707 442.232,836.838 447.574,824.732 452.916,802.462 458.259,743.085 463.601,706.732 468.944,697.25 474.286,690.954 479.628,678.489 484.971,700.042 490.313,709.28 495.656,740.452 500.998,669.647 506.34,684.343 511.683,700.658 517.025,745.643 522.368,749.093 527.71,742.754 533.053,745.219 538.395,814.184 543.737,772.201 549.08,789.325 554.422,725.727 559.765,733.939 565.107,774.104 570.449,748.025 575.792,756.844 581.134,777.843 586.477,775.062 591.819,738.308 597.161,733.267 602.504,787.571 607.846,790.21 613.189,794.96 618.531,766.667 623.873,754.767 629.216,736.08 634.558,695.502 639.901,726.497 645.243,729.398 650.586,717.468 655.928,732.262 661.27,679.438 666.613,700.493 671.955,682.249 677.298,636.308 682.64,656.286 687.982,655.117 693.325,683.957 698.667,706.678 704.01,683.223 709.352,643.183 714.694,644.224 720.037,638.388 725.379,665.468 730.722,667.182 736.064,639.059 741.406,633.27 746.749,644.747 752.091,626.774 757.434,635.559 762.776,639.755 768.119,630.799 773.461,626.539 778.803,638.701 784.146,654.467 789.488,667.288 794.831,627.627 800.173,597.665 805.515,664.665 810.858,730.15 816.2,765.732 821.543,768.889 826.885,764.67 832.227,787.294 837.57,829.531 842.912,802.893 848.255,828.795 853.597,762.813 858.939,751.899 864.282,783.73 869.624,776.836 874.967,767.748 880.309,735.253 885.651,750.024 890.994,775.167 896.336,749.76 901.679,738.5 907.021,699.005 912.364,702.413 917.706,704.261 923.048,730.807 928.391,671.833 933.733,676.418 939.076,665.231 944.418,645.293 949.76,634.415 955.103,605.867 960.445,619.514 965.788,677.101 971.13,707.871 976.472,701.51 981.815,734.115 987.157,740.985 992.5,770.253 997.842,815.838 1003.18,816.166 1008.53,864.44 1013.87,918.408 1019.21,916.842 1024.55,895.715 1029.9,941.137 1035.24,926.878 1040.58,936.182 1045.92,926.037 1051.27,920.786 1056.61,929.485 1061.95,966.214 1067.29,945.747 1072.64,903.591 1077.98,931.482 1083.32,943.857 1088.66,929.223 1094.01,900.717 1099.35,890.181 1104.69,906.565 1110.03,952.508 1115.38,961.162 1120.72,975.654 1126.06,984.788 1131.4,993.633 1136.74,1027.74 1142.09,1024.95 1147.43,1029.96 1152.77,1007.97 1158.11,1046.09 1163.46,1045.35 1168.8,1042.42 1174.14,1025.79 1179.48,989.037 1184.83,938.336 1190.17,962.271 1195.51,970.717 1200.85,966.218 1206.2,943.093 1211.54,908.434 1216.88,888.221 1222.22,901.522 1227.57,856.645 1232.91,858.189 1238.25,917.855 1243.59,889.753 1248.94,917.064 1254.28,900.309 1259.62,949.39 1264.96,953.687 1270.3,973.461 1275.65,961.694 1280.99,968.465 1286.33,1013.63 1291.67,1022.58 1297.02,976.399 1302.36,978.844 1307.7,980.443 1313.04,979.123 1318.39,1056.62 1323.73,1048.12 1329.07,1022.43 1334.41,996.732 1339.76,1017.37 1345.1,1009.22 1350.44,992.873 1355.78,985.562 1361.13,994.105 1366.47,1007.02 1371.81,1007.15 1377.15,950.487 1382.5,938.715 1387.84,949.85 1393.18,923.942 1398.52,866.463 1403.87,814.178 1409.21,820.454 1414.55,769.5 1419.89,755.083 1425.23,763.091 1430.58,750.322 1435.92,778.28 1441.26,771.639 1446.6,762.34 1451.95,772.602 1457.29,805.551 1462.63,800.28 1467.97,794.709 1473.32,842.863 1478.66,879.449 1484,900.1 1489.34,877.185 1494.69,876.815 1500.03,869.681 1505.37,866.436 1510.71,890.145 1516.06,901.61 1521.4,842.131 1526.74,875.902 1532.08,819.712 1537.43,829.499 1542.77,838.194 1548.11,832.871 1553.45,863.816 1558.79,921.618 1564.14,898.973 1569.48,881.48 1574.82,884.111 1580.16,824.553 1585.51,766.3 1590.85,676.778 1596.19,677.516 1601.53,668.496 1606.88,727.106 1612.22,760.354 1617.56,767.351 1622.9,789.575 1628.25,786.434 1633.59,833.867 1638.93,824.625 1644.27,877.337 1649.62,902.914 1654.96,909.013 1660.3,917.594 1665.64,893.303 1670.99,860.799 1676.33,859.825 1681.67,881.605 1687.01,840.783 1692.36,848.25 1697.7,875.423 1703.04,879.31 1708.38,887.961 1713.72,891.664 1719.07,869.872 1724.41,885.715 1729.75,860.2 1735.09,807.119 1740.44,803.345 1745.78,784.194 1751.12,788.453 1756.46,807.061 1761.81,796.938 1767.15,807.014 1772.49,758.576 1777.83,801.999 1783.18,772.38 1788.52,777.628 1793.86,814.22 1799.2,825.202 1804.55,806.729 1809.89,788.483 1815.23,830.026 1820.57,772.522 1825.92,758.501 1831.26,776.127 1836.6,788.429 1841.94,803.428 1847.28,840.398 1852.63,800.059 1857.97,792.159 1863.31,804.839 1868.65,804.228 1874,766.585 1879.34,751.563 1884.68,755.09 1890.02,737.927 1895.37,736.133 1900.71,711.101 1906.05,677.654 1911.39,661.421 1916.74,722.048 1922.08,707.413 1927.42,697.069 1932.76,648.808 1938.11,653.096 1943.45,667.398 1948.79,681.729 1954.13,714.307 1959.48,677.105 1964.82,685.594 1970.16,677.519 1975.5,719.267 1980.85,770.353 1986.19,781.972 1991.53,784.264 1996.87,791.105 2002.21,762.758 2007.56,725.113 2012.9,723.266 2018.24,708.98 2023.58,672.635 2028.93,659.6 2034.27,706.365 2039.61,690.487 2044.95,643.4 2050.3,623.96 2055.64,657.762 2060.98,664.378 2066.32,649.049 2071.67,629.339 2077.01,591.752 2082.35,571.354 2087.69,510.647 2093.04,539.795 2098.38,586.81 2103.72,597.576 2109.06,633.089 2114.41,631.905 2119.75,654.052 2125.09,681.225 2130.43,666.254 2135.78,660.916 2141.12,673.872 2146.46,633.52 2151.8,636 2157.14,663.441 2162.49,640.243 2167.83,607.645 2173.17,554.87 2178.51,496.873 2183.86,462.594 2189.2,483.884 2194.54,490.019 2199.88,514.799 2205.23,499.163 2210.57,510.48 2215.91,500.48 2221.25,430.043 2226.6,435.959 2231.94,431.959 2237.28,485.906 2242.62,475.99 2247.97,474.561 2253.31,392.572 2258.65,359.455 2263.99,386.029 2269.34,378.238 2274.68,372.774 2280.02,344.911 2285.36,332.246 2290.7,328.325 2296.05,372.155 2301.39,382.055 2306.73,385.628 2312.07,385.616 2317.42,369.321 2322.76,335.88 2328.1,318.926 2333.44,352.046 2338.79,353.129 2344.13,379.107 2349.47,403.203 2354.81,407.664 2360.16,431.409 2365.5,470.794 2370.84,506.694 2376.18,462.297 2381.53,508.104 2386.87,500.663 2392.21,521.348 2397.55,489.005 2402.9,482.508 2408.24,481.347 2413.58,414.696 2418.92,378.924 2424.27,312.524 2429.61,293.992 2434.95,311.611 2440.29,288.361 2445.63,281.715 2450.98,311.907 2456.32,291.348 2461.66,275.169 2467,300.303 2472.35,264.592 2477.69,271.811 2483.03,271.301 2488.37,284.504 2493.72,231.642 2499.06,242.444 2504.4,230.792 2509.74,253.698 2515.09,275.954 2520.43,272.39 2525.77,246.786 2531.11,266.894 2536.46,272.301 2541.8,198.503 2547.14,200.641 2552.48,189.365 2557.83,226.815 2563.17,197.352 2568.51,193.786 2573.85,208.532 2579.19,208.401 2584.54,258.028 2589.88,232.894 2595.22,223.411 2600.56,179.049 2605.91,171.28 2611.25,173.132 2616.59,177.494 2621.93,163.664 2627.28,213.549 2632.62,209.271 2637.96,183.589 2643.3,219.557 2648.65,220.187 2653.99,224.075 2659.33,215.346 2664.67,204.1 2670.02,188.89 2675.36,201.681 2680.7,160.726 2686.04,195.53 2691.39,226.307 2696.73,256.21 2702.07,288.841 2707.41,253.559 2712.76,338.92 2718.1,358.856 2723.44,331.644 2728.78,367.221 2734.12,288.583 2739.47,275.752 2744.81,272.703 2750.15,275.869 2755.49,272.209 2760.84,256.973 2766.18,271.298 2771.52,236.961 2776.86,253.939 2782.21,289.66 2787.55,267.604 2792.89,275.259 2798.23,274.228 2803.58,302.391 2808.92,343.512 2814.26,307.863 2819.6,270.111 2824.95,283.255 2830.29,217.107 2835.63,200.552 2840.97,206.986 2846.32,167.529 2851.66,155.856 2857,197.102 2862.34,217.738 2867.68,195.476 2873.03,195.793 2878.37,194.997 2883.71,224.105 2889.05,277.907 2894.4,266.083 2899.74,291.839 2905.08,305.075 2910.42,319.757 2915.77,296.796 2921.11,341.226 2926.45,351.891 2931.79,349.195 2937.14,344.882 2942.48,381.587 2947.82,359.542 2953.16,403.869 2958.51,459.975 2963.85,452.525 2969.19,470.138 2974.53,511.619 2979.88,483.157 2985.22,497.936 2990.56,500.247 2995.9,516.277 3001.25,477.67 3006.59,521.37 3011.93,584.702 3017.27,646.494 3022.61,612.341 3027.96,589.345 3033.3,592.747 3038.64,596.47 3043.98,548.431 3049.33,542.085 3054.67,531.179 3060.01,529.966 3065.35,466.624 3070.7,474.815 "/>
<polyline clip-path="url(#clip302)" style="stroke:#e26f46; stroke-linecap:round; stroke-linejoin:round; stroke-width:4; stroke-opacity:1; fill:none" points="335.383,716.532 340.726,707.314 346.068,694.108 351.411,743.047 356.753,767.755 362.095,780.732 367.438,793.499 372.78,797.927 378.123,836.341 383.465,825.724 388.808,798.887 394.15,825.943 399.492,822.882 404.835,814.696 410.177,803.736 415.52,764.226 420.862,807.641 426.204,825.915 431.547,825.806 436.889,801.842 442.232,813.486 447.574,890.536 452.916,915.699 458.259,901.081 463.601,957.042 468.944,986.271 474.286,966.002 479.628,909.246 484.971,926.28 490.313,885.621 495.656,847.239 500.998,829.8 506.34,858.179 511.683,793.589 517.025,784.131 522.368,799.885 527.71,823.254 533.053,831.497 538.395,837.886 543.737,871.907 549.08,857.086 554.422,855.452 559.765,898.753 565.107,885.332 570.449,930.724 575.792,920.447 581.134,879.943 586.477,906.325 591.819,939.183 597.161,931.534 602.504,977.805 607.846,936.701 613.189,933.287 618.531,892.117 623.873,888.405 629.216,893.462 634.558,854.976 639.901,838.788 645.243,850.045 650.586,827.836 655.928,842.115 661.27,824.043 666.613,797.959 671.955,772.481 677.298,760.848 682.64,792.62 687.982,761.186 693.325,831.189 698.667,853.278 704.01,856.436 709.352,833.267 714.694,838.158 720.037,820.254 725.379,804.147 730.722,803.527 736.064,771.423 741.406,755.711 746.749,870.012 752.091,860.464 757.434,850.464 762.776,891.45 768.119,908.681 773.461,922.159 778.803,945.394 784.146,927.385 789.488,883.819 794.831,856.374 800.173,835.544 805.515,796.755 810.858,751.165 816.2,781.381 821.543,771.799 826.885,740.972 832.227,749.417 837.57,758.962 842.912,731.843 848.255,776.295 853.597,730.111 858.939,713.886 864.282,765.504 869.624,731.927 874.967,798.219 880.309,791.858 885.651,854.132 890.994,854.031 896.336,902.79 901.679,913.315 907.021,919.052 912.364,931.28 917.706,849.368 923.048,833.303 928.391,832.45 933.733,845.087 939.076,856.361 944.418,818.434 949.76,796.279 955.103,747.105 960.445,720.284 965.788,707.793 971.13,702.078 976.472,690.734 981.815,726.171 987.157,754.426 992.5,758.105 997.842,744.955 1003.18,731.773 1008.53,745.375 1013.87,804.119 1019.21,834.072 1024.55,842.137 1029.9,782.879 1035.24,800.316 1040.58,775.283 1045.92,768.67 1051.27,778.033 1056.61,792.403 1061.95,846.607 1067.29,837.997 1072.64,859.278 1077.98,825.464 1083.32,811.886 1088.66,822.567 1094.01,782.863 1099.35,772.95 1104.69,761.442 1110.03,741.003 1115.38,790.434 1120.72,731.711 1126.06,710.749 1131.4,688.055 1136.74,745.841 1142.09,738.013 1147.43,710.414 1152.77,739.512 1158.11,733.101 1163.46,763.588 1168.8,757.081 1174.14,683.109 1179.48,696.022 1184.83,723.626 1190.17,666.095 1195.51,714.262 1200.85,702.007 1206.2,737.772 1211.54,744.333 1216.88,807.444 1222.22,814.018 1227.57,857.827 1232.91,833.222 1238.25,822.821 1243.59,844.802 1248.94,861.289 1254.28,853.322 1259.62,830.549 1264.96,881.469 1270.3,888.668 1275.65,886.121 1280.99,922.282 1286.33,925.546 1291.67,898.334 1297.02,884.341 1302.36,819.213 1307.7,823.666 1313.04,866.431 1318.39,837.612 1323.73,800.251 1329.07,854.465 1334.41,875.844 1339.76,904.119 1345.1,946.019 1350.44,867.086 1355.78,869.023 1361.13,852.408 1366.47,819.923 1371.81,846.458 1377.15,857.239 1382.5,912.741 1387.84,886.23 1393.18,882.76 1398.52,904.569 1403.87,917.853 1409.21,898.133 1414.55,881.418 1419.89,883.794 1425.23,926.908 1430.58,942.105 1435.92,901.929 1441.26,900.822 1446.6,922.213 1451.95,957.737 1457.29,910.253 1462.63,868.2 1467.97,842.55 1473.32,859.24 1478.66,817.499 1484,773.299 1489.34,852.05 1494.69,903.607 1500.03,928.882 1505.37,949.753 1510.71,945.197 1516.06,948.213 1521.4,1008.94 1526.74,1004.18 1532.08,948.722 1537.43,956.27 1542.77,982.627 1548.11,979.244 1553.45,1015.26 1558.79,1028.78 1564.14,1010.78 1569.48,951.226 1574.82,976.398 1580.16,1008.42 1585.51,1044.88 1590.85,1004.45 1596.19,966.967 1601.53,962.245 1606.88,988.658 1612.22,987.211 1617.56,1032.64 1622.9,1066.19 1628.25,1055.38 1633.59,1047.57 1638.93,1053.05 1644.27,1084.74 1649.62,1090 1654.96,1097.2 1660.3,1098.77 1665.64,1074.18 1670.99,1062.03 1676.33,1059.33 1681.67,1068.25 1687.01,1077.51 1692.36,1113.8 1697.7,1170.55 1703.04,1128.49 1708.38,1136.69 1713.72,1151.78 1719.07,1139.27 1724.41,1131.84 1729.75,1154.07 1735.09,1101.84 1740.44,1057.27 1745.78,1074.76 1751.12,1067.16 1756.46,1032.76 1761.81,1079.04 1767.15,1074.93 1772.49,1070.66 1777.83,1008.82 1783.18,987.287 1788.52,985.113 1793.86,987.385 1799.2,974.117 1804.55,994.464 1809.89,1014.57 1815.23,1042.52 1820.57,1048.53 1825.92,1084.99 1831.26,1115.25 1836.6,1143.66 1841.94,1148.26 1847.28,1127.66 1852.63,1096.69 1857.97,1096.44 1863.31,1084.21 1868.65,1080.34 1874,1053.08 1879.34,1093.98 1884.68,1097.57 1890.02,1056.07 1895.37,1030.53 1900.71,1027.19 1906.05,1063.6 1911.39,1030.44 1916.74,993.216 1922.08,1007.78 1927.42,1003.13 1932.76,992.392 1938.11,1007.54 1943.45,1025.63 1948.79,1025.18 1954.13,1022.91 1959.48,991.298 1964.82,988.407 1970.16,948.676 1975.5,999.102 1980.85,973.345 1986.19,998.73 1991.53,1003.87 1996.87,983.044 2002.21,1010.32 2007.56,973.134 2012.9,1032.73 2018.24,1086.69 2023.58,1038.27 2028.93,1053.28 2034.27,1099.84 2039.61,1110.23 2044.95,1086.61 2050.3,1108.36 2055.64,1175.02 2060.98,1177.53 2066.32,1207.7 2071.67,1213.83 2077.01,1199.25 2082.35,1224.05 2087.69,1213.78 2093.04,1220.51 2098.38,1229.66 2103.72,1242.67 2109.06,1243.53 2114.41,1249.51 2119.75,1243.34 2125.09,1175.77 2130.43,1177.29 2135.78,1162.65 2141.12,1145.89 2146.46,1140.04 2151.8,1143.33 2157.14,1133.56 2162.49,1144.8 2167.83,1159.88 2173.17,1194.53 2178.51,1198.13 2183.86,1170.6 2189.2,1192.44 2194.54,1262.61 2199.88,1222.83 2205.23,1185.31 2210.57,1164.84 2215.91,1135.21 2221.25,1119.88 2226.6,1111.03 2231.94,1108.76 2237.28,1066.12 2242.62,1067.63 2247.97,1102.02 2253.31,1081.32 2258.65,1051.35 2263.99,1057.59 2269.34,1080.14 2274.68,1090.12 2280.02,1163.35 2285.36,1182.61 2290.7,1209.93 2296.05,1212.07 2301.39,1181.06 2306.73,1150.38 2312.07,1157.98 2317.42,1159.84 2322.76,1183.93 2328.1,1187.39 2333.44,1165.47 2338.79,1189.54 2344.13,1251.3 2349.47,1277.23 2354.81,1283.49 2360.16,1313.5 2365.5,1321.05 2370.84,1286.49 2376.18,1253.58 2381.53,1253.07 2386.87,1211.81 2392.21,1218.72 2397.55,1222.58 2402.9,1244.48 2408.24,1305.98 2413.58,1315.86 2418.92,1353.12 2424.27,1349.34 2429.61,1336.82 2434.95,1381.03 2440.29,1405.36 2445.63,1378.77 2450.98,1394.13 2456.32,1358.81 2461.66,1282.27 2467,1280.63 2472.35,1315.02 2477.69,1289.26 2483.03,1235.5 2488.37,1254.69 2493.72,1250.52 2499.06,1209.46 2504.4,1195.31 2509.74,1176.57 2515.09,1179.01 2520.43,1214.4 2525.77,1260.24 2531.11,1198.06 2536.46,1226.31 2541.8,1250.83 2547.14,1291.58 2552.48,1266.44 2557.83,1265.28 2563.17,1312.28 2568.51,1296.92 2573.85,1313.38 2579.19,1318.42 2584.54,1258.07 2589.88,1260.88 2595.22,1214.35 2600.56,1237.8 2605.91,1235.33 2611.25,1194.42 2616.59,1201.91 2621.93,1221.97 2627.28,1232.53 2632.62,1248.86 2637.96,1219.71 2643.3,1234.33 2648.65,1231.15 2653.99,1242.76 2659.33,1215.97 2664.67,1182.79 2670.02,1177.73 2675.36,1150.97 2680.7,1153.46 2686.04,1179.06 2691.39,1143.35 2696.73,1098.84 2702.07,1082.75 2707.41,1064.18 2712.76,1066.38 2718.1,1092.96 2723.44,1132.88 2728.78,1177.89 2734.12,1169.43 2739.47,1175.05 2744.81,1192.21 2750.15,1198.25 2755.49,1191.19 2760.84,1236.7 2766.18,1250.51 2771.52,1280.23 2776.86,1290.07 2782.21,1234.68 2787.55,1243.04 2792.89,1241.42 2798.23,1227.13 2803.58,1238.41 2808.92,1301.14 2814.26,1303.86 2819.6,1281.79 2824.95,1280.39 2830.29,1305.67 2835.63,1334.45 2840.97,1307.34 2846.32,1284.53 2851.66,1283.93 2857,1237.49 2862.34,1240.37 2867.68,1259.87 2873.03,1219.62 2878.37,1170.03 2883.71,1141.1 2889.05,1164.06 2894.4,1193.3 2899.74,1215.92 2905.08,1230.39 2910.42,1203.53 2915.77,1165.25 2921.11,1197.92 2926.45,1178.64 2931.79,1205.6 2937.14,1235.84 2942.48,1208.64 2947.82,1191.14 2953.16,1164.71 2958.51,1157.52 2963.85,1148.63 2969.19,1142.82 2974.53,1145 2979.88,1148.73 2985.22,1168.46 2990.56,1159.06 2995.9,1107.12 3001.25,1070.46 3006.59,1049.21 3011.93,1059.17 3017.27,1096.42 3022.61,1086.77 3027.96,1090.79 3033.3,1063.81 3038.64,1090.42 3043.98,1106.93 3049.33,1122.75 3054.67,1128.09 3060.01,1121.73 3065.35,1123.37 3070.7,1108.75 "/>
<polyline clip-path="url(#clip302)" style="stroke:#3da44d; stroke-linecap:round; stroke-linejoin:round; stroke-width:4; stroke-opacity:1; fill:none" points="335.383,716.532 340.726,733.342 346.068,691.215 351.411,693.321 356.753,690.968 362.095,663.32 367.438,647.055 372.78,624.457 378.123,655.352 383.465,652.736 388.808,664.12 394.15,647.292 399.492,589.503 404.835,610.348 410.177,666.94 415.52,663.705 420.862,630.543 426.204,644.23 431.547,634.868 436.889,696.27 442.232,746.435 447.574,783.134 452.916,749.124 458.259,779.289 463.601,785.344 468.944,763.662 474.286,746.796 479.628,700.895 484.971,691.961 490.313,672.975 495.656,627.49 500.998,581.022 506.34,572.055 511.683,587.564 517.025,536.977 522.368,525.237 527.71,503.933 533.053,586.965 538.395,615.218 543.737,570.249 549.08,530.835 554.422,518.831 559.765,453.689 565.107,536.28 570.449,567.912 575.792,630.661 581.134,588.753 586.477,593.84 591.819,614.469 597.161,539.346 602.504,539.267 607.846,519.513 613.189,542.542 618.531,574.868 623.873,580.741 629.216,586.889 634.558,611.815 639.901,598.738 645.243,579.722 650.586,587.654 655.928,500.243 661.27,533.617 666.613,536.273 671.955,509.833 677.298,443.22 682.64,436.412 687.982,444.218 693.325,415.522 698.667,448.428 704.01,428.296 709.352,448.971 714.694,494.442 720.037,499.481 725.379,489.129 730.722,460.461 736.064,436.778 741.406,409.028 746.749,424.009 752.091,465.477 757.434,432.19 762.776,511.713 768.119,484.023 773.461,500.596 778.803,492.301 784.146,506.083 789.488,543.359 794.831,550.445 800.173,569.774 805.515,602.203 810.858,577.748 816.2,566.363 821.543,622.865 826.885,688.45 832.227,697.486 837.57,693.832 842.912,677.661 848.255,618.191 853.597,678.596 858.939,672.403 864.282,664.777 869.624,641.36 874.967,675.224 880.309,691.793 885.651,717.359 890.994,738.981 896.336,745.148 901.679,748.032 907.021,684.085 912.364,683.566 917.706,633.839 923.048,630.805 928.391,677.161 933.733,688.848 939.076,709.101 944.418,793.242 949.76,780.965 955.103,767.148 960.445,776.113 965.788,771.306 971.13,722.634 976.472,703.285 981.815,770.593 987.157,751.54 992.5,675.414 997.842,616.809 1003.18,613.481 1008.53,608.907 1013.87,535.04 1019.21,533.707 1024.55,527.152 1029.9,492.316 1035.24,552.87 1040.58,516.918 1045.92,528.584 1051.27,534.36 1056.61,507.24 1061.95,472.82 1067.29,461.507 1072.64,459.225 1077.98,465.103 1083.32,441.017 1088.66,425.825 1094.01,453.872 1099.35,441.876 1104.69,412.481 1110.03,461.917 1115.38,484.507 1120.72,541.352 1126.06,551.353 1131.4,579.138 1136.74,585.52 1142.09,562.083 1147.43,538.827 1152.77,514.421 1158.11,552.517 1163.46,569.263 1168.8,539.14 1174.14,518.978 1179.48,617.341 1184.83,611.174 1190.17,590.968 1195.51,601.881 1200.85,597.641 1206.2,574.828 1211.54,564.33 1216.88,618.979 1222.22,649.083 1227.57,636.836 1232.91,630.904 1238.25,598.905 1243.59,563.187 1248.94,555.693 1254.28,522.561 1259.62,519.641 1264.96,486.437 1270.3,420.098 1275.65,423.106 1280.99,402.94 1286.33,389.296 1291.67,362.882 1297.02,363.167 1302.36,346.025 1307.7,324.449 1313.04,303.454 1318.39,307.673 1323.73,302.892 1329.07,299.03 1334.41,304.653 1339.76,254.424 1345.1,276.177 1350.44,290.014 1355.78,260.387 1361.13,279.852 1366.47,310.66 1371.81,369.565 1377.15,356.808 1382.5,283.529 1387.84,307.56 1393.18,306.665 1398.52,246.454 1403.87,241.15 1409.21,255.924 1414.55,240.983 1419.89,191.839 1425.23,195.25 1430.58,192.259 1435.92,218.422 1441.26,192.297 1446.6,193.389 1451.95,227.312 1457.29,212.496 1462.63,219.417 1467.97,176.276 1473.32,200.042 1478.66,223.639 1484,170.634 1489.34,127.255 1494.69,168.437 1500.03,208.087 1505.37,245.355 1510.71,277.389 1516.06,263.307 1521.4,249.001 1526.74,283.229 1532.08,290.246 1537.43,287.412 1542.77,293.351 1548.11,303.296 1553.45,295.979 1558.79,328.927 1564.14,281.557 1569.48,269.342 1574.82,281.682 1580.16,297.83 1585.51,298.715 1590.85,289.219 1596.19,310.629 1601.53,287.605 1606.88,286.489 1612.22,299.079 1617.56,337.947 1622.9,331.914 1628.25,344.089 1633.59,340.325 1638.93,311.273 1644.27,298.204 1649.62,275.655 1654.96,295.008 1660.3,308.673 1665.64,317.825 1670.99,311.85 1676.33,325.209 1681.67,316.059 1687.01,362.919 1692.36,344.571 1697.7,349.339 1703.04,307.542 1708.38,350.179 1713.72,424.591 1719.07,451.884 1724.41,508.474 1729.75,489.379 1735.09,446.632 1740.44,453.934 1745.78,454.11 1751.12,471.461 1756.46,475.935 1761.81,422.127 1767.15,401.577 1772.49,363.663 1777.83,377.267 1783.18,393.156 1788.52,419.426 1793.86,366.496 1799.2,340.71 1804.55,310.317 1809.89,303.302 1815.23,262.108 1820.57,229.271 1825.92,239.184 1831.26,238.842 1836.6,231.668 1841.94,257.111 1847.28,283.624 1852.63,273.652 1857.97,332.903 1863.31,349.14 1868.65,323.306 1874,307.071 1879.34,367.401 1884.68,358.068 1890.02,357.018 1895.37,356.351 1900.71,329.858 1906.05,347.052 1911.39,302.291 1916.74,291.9 1922.08,268.155 1927.42,256.561 1932.76,284.914 1938.11,333.23 1943.45,328.275 1948.79,348.867 1954.13,375.704 1959.48,399.14 1964.82,437.914 1970.16,387.831 1975.5,398.357 1980.85,364.44 1986.19,381.587 1991.53,332.842 1996.87,325.062 2002.21,226.717 2007.56,230.104 2012.9,214.573 2018.24,287.313 2023.58,273.542 2028.93,291.664 2034.27,270.106 2039.61,300.932 2044.95,338.476 2050.3,330.035 2055.64,329.066 2060.98,369.463 2066.32,365.72 2071.67,351.777 2077.01,355.947 2082.35,369.883 2087.69,356.944 2093.04,369.643 2098.38,356.515 2103.72,386.002 2109.06,349.425 2114.41,384.988 2119.75,378.751 2125.09,400.534 2130.43,434.289 2135.78,465.084 2141.12,488.353 2146.46,473.871 2151.8,476.534 2157.14,468.741 2162.49,476.252 2167.83,490.626 2173.17,462.363 2178.51,483.146 2183.86,466.424 2189.2,465.689 2194.54,476.742 2199.88,478.816 2205.23,439.609 2210.57,432.764 2215.91,405.938 2221.25,440.505 2226.6,447.491 2231.94,430.982 2237.28,397.94 2242.62,401.189 2247.97,395.804 2253.31,375.573 2258.65,390.372 2263.99,392.991 2269.34,368.972 2274.68,364.547 2280.02,417.412 2285.36,418.159 2290.7,469.214 2296.05,457.806 2301.39,471.675 2306.73,476.93 2312.07,462.274 2317.42,483.115 2322.76,512.164 2328.1,471.263 2333.44,440.794 2338.79,390.231 2344.13,398.732 2349.47,382.512 2354.81,363.365 2360.16,455.256 2365.5,447.757 2370.84,454.959 2376.18,503.989 2381.53,431.632 2386.87,449.651 2392.21,464.671 2397.55,464.597 2402.9,471.295 2408.24,461.786 2413.58,471.979 2418.92,496.167 2424.27,530.481 2429.61,498.079 2434.95,458.368 2440.29,460.838 2445.63,489.076 2450.98,465.08 2456.32,475.591 2461.66,478.408 2467,517.525 2472.35,559.137 2477.69,517.788 2483.03,548.127 2488.37,597.392 2493.72,630.962 2499.06,640.945 2504.4,642.722 2509.74,664.71 2515.09,692.383 2520.43,656.885 2525.77,686.37 2531.11,691.95 2536.46,677.975 2541.8,698.497 2547.14,687.829 2552.48,748.487 2557.83,762.763 2563.17,706.453 2568.51,723.414 2573.85,755.013 2579.19,754.706 2584.54,790.767 2589.88,817.245 2595.22,828.711 2600.56,859.439 2605.91,872.805 2611.25,905.406 2616.59,850.962 2621.93,848.54 2627.28,841.78 2632.62,841.779 2637.96,875.265 2643.3,842.414 2648.65,829.251 2653.99,815.553 2659.33,838.433 2664.67,805.818 2670.02,833.478 2675.36,836.642 2680.7,833.429 2686.04,818.623 2691.39,809.969 2696.73,749.722 2702.07,751.926 2707.41,724.551 2712.76,727.543 2718.1,749.14 2723.44,763.648 2728.78,737.624 2734.12,747.573 2739.47,765.418 2744.81,789.692 2750.15,812.818 2755.49,761.271 2760.84,753.232 2766.18,741.881 2771.52,705.917 2776.86,626.572 2782.21,650.319 2787.55,641.442 2792.89,624.19 2798.23,631.193 2803.58,629.321 2808.92,642.148 2814.26,667.581 2819.6,686.963 2824.95,721.096 2830.29,710.342 2835.63,742.891 2840.97,772.748 2846.32,749.418 2851.66,735.916 2857,723.882 2862.34,711.183 2867.68,703.626 2873.03,713.944 2878.37,751.693 2883.71,770.621 2889.05,755.214 2894.4,744.878 2899.74,693.729 2905.08,691.336 2910.42,691.765 2915.77,683.682 2921.11,690.968 2926.45,759.227 2931.79,764.688 2937.14,732.221 2942.48,775.746 2947.82,757.721 2953.16,813.055 2958.51,854.656 2963.85,837.026 2969.19,813.272 2974.53,848.131 2979.88,822.997 2985.22,775.89 2990.56,733.377 2995.9,708.264 3001.25,725.096 3006.59,711.435 3011.93,735.991 3017.27,763.645 3022.61,719.543 3027.96,716.871 3033.3,666.197 3038.64,623.245 3043.98,622.477 3049.33,609.936 3054.67,645.432 3060.01,656.835 3065.35,647.349 3070.7,661.951 "/>
</svg>
