<?xml version="1.0" encoding="utf-8"?>
<svg xmlns="http://www.w3.org/2000/svg" xmlns:xlink="http://www.w3.org/1999/xlink" width="800" height="400" viewBox="0 0 3200 1600">
<defs>
  <clipPath id="clip240">
    <rect x="0" y="0" width="3200" height="1600"/>
  </clipPath>
</defs>
<path clip-path="url(#clip240)" d="M0 1600 L3200 1600 L3200 0 L0 0  Z" fill="#ffffff" fill-rule="evenodd" fill-opacity="1"/>
<defs>
  <clipPath id="clip241">
    <rect x="640" y="0" width="2241" height="1600"/>
  </clipPath>
</defs>
<path clip-path="url(#clip240)" d="M253.324 1443.7 L3152.76 1443.7 L3152.76 88.9121 L253.324 88.9121  Z" fill="#ffffff" fill-rule="evenodd" fill-opacity="1"/>
<defs>
  <clipPath id="clip242">
    <rect x="253" y="88" width="2900" height="1356"/>
  </clipPath>
</defs>
<polyline clip-path="url(#clip242)" style="stroke:#000000; stroke-linecap:round; stroke-linejoin:round; stroke-width:2; stroke-opacity:0.1; fill:none" points="335.383,1443.7 335.383,88.9121 "/>
<polyline clip-path="url(#clip242)" style="stroke:#000000; stroke-linecap:round; stroke-linejoin:round; stroke-width:2; stroke-opacity:0.1; fill:none" points="1019.21,1443.7 1019.21,88.9121 "/>
<polyline clip-path="url(#clip242)" style="stroke:#000000; stroke-linecap:round; stroke-linejoin:round; stroke-width:2; stroke-opacity:0.1; fill:none" points="1703.04,1443.7 1703.04,88.9121 "/>
<polyline clip-path="url(#clip242)" style="stroke:#000000; stroke-linecap:round; stroke-linejoin:round; stroke-width:2; stroke-opacity:0.1; fill:none" points="2386.87,1443.7 2386.87,88.9121 "/>
<polyline clip-path="url(#clip242)" style="stroke:#000000; stroke-linecap:round; stroke-linejoin:round; stroke-width:2; stroke-opacity:0.1; fill:none" points="3070.7,1443.7 3070.7,88.9121 "/>
<polyline clip-path="url(#clip242)" style="stroke:#000000; stroke-linecap:round; stroke-linejoin:round; stroke-width:2; stroke-opacity:0.1; fill:none" points="253.324,1173.1 3152.76,1173.1 "/>
<polyline clip-path="url(#clip242)" style="stroke:#000000; stroke-linecap:round; stroke-linejoin:round; stroke-width:2; stroke-opacity:0.1; fill:none" points="253.324,880.733 3152.76,880.733 "/>
<polyline clip-path="url(#clip242)" style="stroke:#000000; stroke-linecap:round; stroke-linejoin:round; stroke-width:2; stroke-opacity:0.1; fill:none" points="253.324,588.369 3152.76,588.369 "/>
<polyline clip-path="url(#clip242)" style="stroke:#000000; stroke-linecap:round; stroke-linejoin:round; stroke-width:2; stroke-opacity:0.1; fill:none" points="253.324,296.005 3152.76,296.005 "/>
<polyline clip-path="url(#clip240)" style="stroke:#000000; stroke-linecap:round; stroke-linejoin:round; stroke-width:4; stroke-opacity:1; fill:none" points="253.324,1443.7 3152.76,1443.7 "/>
<polyline clip-path="url(#clip240)" style="stroke:#000000; stroke-linecap:round; stroke-linejoin:round; stroke-width:4; stroke-opacity:1; fill:none" points="335.383,1443.7 335.383,1424.8 "/>
<polyline clip-path="url(#clip240)" style="stroke:#000000; stroke-linecap:round; stroke-linejoin:round; stroke-width:4; stroke-opacity:1; fill:none" points="1019.21,1443.7 1019.21,1424.8 "/>
<polyline clip-path="url(#clip240)" style="stroke:#000000; stroke-linecap:round; stroke-linejoin:round; stroke-width:4; stroke-opacity:1; fill:none" points="1703.04,1443.7 1703.04,1424.8 "/>
<polyline clip-path="url(#clip240)" style="stroke:#000000; stroke-linecap:round; stroke-linejoin:round; stroke-width:4; stroke-opacity:1; fill:none" points="2386.87,1443.7 2386.87,1424.8 "/>
<polyline clip-path="url(#clip240)" style="stroke:#000000; stroke-linecap:round; stroke-linejoin:round; stroke-width:4; stroke-opacity:1; fill:none" points="3070.7,1443.7 3070.7,1424.8 "/>
<path clip-path="url(#clip240)" d="M312.768 1481.02 Q309.157 1481.02 307.328 1484.58 Q305.522 1488.12 305.522 1495.25 Q305.522 1502.36 307.328 1505.93 Q309.157 1509.47 312.768 1509.47 Q316.402 1509.47 318.208 1505.93 Q320.036 1502.36 320.036 1495.25 Q320.036 1488.12 318.208 1484.58 Q316.402 1481.02 312.768 1481.02 M312.768 1477.31 Q318.578 1477.31 321.633 1481.92 Q324.712 1486.5 324.712 1495.25 Q324.712 1503.98 321.633 1508.59 Q318.578 1513.17 312.768 1513.17 Q306.958 1513.17 303.879 1508.59 Q300.823 1503.98 300.823 1495.25 Q300.823 1486.5 303.879 1481.92 Q306.958 1477.31 312.768 1477.31 Z" fill="#000000" fill-rule="nonzero" fill-opacity="1" /><path clip-path="url(#clip240)" d="M332.93 1506.62 L337.814 1506.62 L337.814 1512.5 L332.93 1512.5 L332.93 1506.62 Z" fill="#000000" fill-rule="nonzero" fill-opacity="1" /><path clip-path="url(#clip240)" d="M357.999 1481.02 Q354.388 1481.02 352.559 1484.58 Q350.754 1488.12 350.754 1495.25 Q350.754 1502.36 352.559 1505.93 Q354.388 1509.47 357.999 1509.47 Q361.633 1509.47 363.439 1505.93 Q365.268 1502.36 365.268 1495.25 Q365.268 1488.12 363.439 1484.58 Q361.633 1481.02 357.999 1481.02 M357.999 1477.31 Q363.809 1477.31 366.865 1481.92 Q369.943 1486.5 369.943 1495.25 Q369.943 1503.98 366.865 1508.59 Q363.809 1513.17 357.999 1513.17 Q352.189 1513.17 349.11 1508.59 Q346.055 1503.98 346.055 1495.25 Q346.055 1486.5 349.11 1481.92 Q352.189 1477.31 357.999 1477.31 Z" fill="#000000" fill-rule="nonzero" fill-opacity="1" /><path clip-path="url(#clip240)" d="M997.094 1481.02 Q993.483 1481.02 991.654 1484.58 Q989.848 1488.12 989.848 1495.25 Q989.848 1502.36 991.654 1505.93 Q993.483 1509.47 997.094 1509.47 Q1000.73 1509.47 1002.53 1505.93 Q1004.36 1502.36 1004.36 1495.25 Q1004.36 1488.12 1002.53 1484.58 Q1000.73 1481.02 997.094 1481.02 M997.094 1477.31 Q1002.9 1477.31 1005.96 1481.92 Q1009.04 1486.5 1009.04 1495.25 Q1009.04 1503.98 1005.96 1508.59 Q1002.9 1513.17 997.094 1513.17 Q991.284 1513.17 988.205 1508.59 Q985.149 1503.98 985.149 1495.25 Q985.149 1486.5 988.205 1481.92 Q991.284 1477.31 997.094 1477.31 Z" fill="#000000" fill-rule="nonzero" fill-opacity="1" /><path clip-path="url(#clip240)" d="M1017.26 1506.62 L1022.14 1506.62 L1022.14 1512.5 L1017.26 1512.5 L1017.26 1506.62 Z" fill="#000000" fill-rule="nonzero" fill-opacity="1" /><path clip-path="url(#clip240)" d="M1032.37 1477.94 L1050.73 1477.94 L1050.73 1481.88 L1036.65 1481.88 L1036.65 1490.35 Q1037.67 1490 1038.69 1489.84 Q1039.71 1489.65 1040.73 1489.65 Q1046.51 1489.65 1049.89 1492.82 Q1053.27 1496 1053.27 1501.41 Q1053.27 1506.99 1049.8 1510.09 Q1046.33 1513.17 1040.01 1513.17 Q1037.83 1513.17 1035.57 1512.8 Q1033.32 1512.43 1030.91 1511.69 L1030.91 1506.99 Q1033 1508.12 1035.22 1508.68 Q1037.44 1509.24 1039.92 1509.24 Q1043.92 1509.24 1046.26 1507.13 Q1048.6 1505.02 1048.6 1501.41 Q1048.6 1497.8 1046.26 1495.69 Q1043.92 1493.59 1039.92 1493.59 Q1038.04 1493.59 1036.17 1494 Q1034.32 1494.42 1032.37 1495.3 L1032.37 1477.94 Z" fill="#000000" fill-rule="nonzero" fill-opacity="1" /><path clip-path="url(#clip240)" d="M1670.19 1508.56 L1677.83 1508.56 L1677.83 1482.2 L1669.52 1483.87 L1669.52 1479.61 L1677.79 1477.94 L1682.46 1477.94 L1682.46 1508.56 L1690.1 1508.56 L1690.1 1512.5 L1670.19 1512.5 L1670.19 1508.56 Z" fill="#000000" fill-rule="nonzero" fill-opacity="1" /><path clip-path="url(#clip240)" d="M1699.54 1506.62 L1704.43 1506.62 L1704.43 1512.5 L1699.54 1512.5 L1699.54 1506.62 Z" fill="#000000" fill-rule="nonzero" fill-opacity="1" /><path clip-path="url(#clip240)" d="M1724.61 1481.02 Q1721 1481.02 1719.17 1484.58 Q1717.37 1488.12 1717.37 1495.25 Q1717.37 1502.36 1719.17 1505.93 Q1721 1509.47 1724.61 1509.47 Q1728.25 1509.47 1730.05 1505.93 Q1731.88 1502.36 1731.88 1495.25 Q1731.88 1488.12 1730.05 1484.58 Q1728.25 1481.02 1724.61 1481.02 M1724.61 1477.31 Q1730.42 1477.31 1733.48 1481.92 Q1736.56 1486.5 1736.56 1495.25 Q1736.56 1503.98 1733.48 1508.59 Q1730.42 1513.17 1724.61 1513.17 Q1718.8 1513.17 1715.73 1508.59 Q1712.67 1503.98 1712.67 1495.25 Q1712.67 1486.5 1715.73 1481.92 Q1718.8 1477.31 1724.61 1477.31 Z" fill="#000000" fill-rule="nonzero" fill-opacity="1" /><path clip-path="url(#clip240)" d="M2354.52 1508.56 L2362.16 1508.56 L2362.16 1482.2 L2353.85 1483.87 L2353.85 1479.61 L2362.11 1477.94 L2366.79 1477.94 L2366.79 1508.56 L2374.43 1508.56 L2374.43 1512.5 L2354.52 1512.5 L2354.52 1508.56 Z" fill="#000000" fill-rule="nonzero" fill-opacity="1" /><path clip-path="url(#clip240)" d="M2383.87 1506.62 L2388.75 1506.62 L2388.75 1512.5 L2383.87 1512.5 L2383.87 1506.62 Z" fill="#000000" fill-rule="nonzero" fill-opacity="1" /><path clip-path="url(#clip240)" d="M2398.99 1477.94 L2417.34 1477.94 L2417.34 1481.88 L2403.27 1481.88 L2403.27 1490.35 Q2404.29 1490 2405.31 1489.84 Q2406.32 1489.65 2407.34 1489.65 Q2413.13 1489.65 2416.51 1492.82 Q2419.89 1496 2419.89 1501.41 Q2419.89 1506.99 2416.42 1510.09 Q2412.94 1513.17 2406.63 1513.17 Q2404.45 1513.17 2402.18 1512.8 Q2399.94 1512.43 2397.53 1511.69 L2397.53 1506.99 Q2399.61 1508.12 2401.83 1508.68 Q2404.06 1509.24 2406.53 1509.24 Q2410.54 1509.24 2412.88 1507.13 Q2415.21 1505.02 2415.21 1501.41 Q2415.21 1497.8 2412.88 1495.69 Q2410.54 1493.59 2406.53 1493.59 Q2404.66 1493.59 2402.78 1494 Q2400.93 1494.42 2398.99 1495.3 L2398.99 1477.94 Z" fill="#000000" fill-rule="nonzero" fill-opacity="1" /><path clip-path="url(#clip240)" d="M3041.94 1508.56 L3058.25 1508.56 L3058.25 1512.5 L3036.31 1512.5 L3036.31 1508.56 Q3038.97 1505.81 3043.56 1501.18 Q3048.16 1496.53 3049.34 1495.19 Q3051.59 1492.66 3052.47 1490.93 Q3053.37 1489.17 3053.37 1487.48 Q3053.37 1484.72 3051.43 1482.99 Q3049.5 1481.25 3046.4 1481.25 Q3044.2 1481.25 3041.75 1482.01 Q3039.32 1482.78 3036.54 1484.33 L3036.54 1479.61 Q3039.37 1478.47 3041.82 1477.89 Q3044.27 1477.31 3046.31 1477.31 Q3051.68 1477.31 3054.87 1480 Q3058.07 1482.69 3058.07 1487.18 Q3058.07 1489.31 3057.26 1491.23 Q3056.47 1493.12 3054.37 1495.72 Q3053.79 1496.39 3050.69 1499.61 Q3047.58 1502.8 3041.94 1508.56 Z" fill="#000000" fill-rule="nonzero" fill-opacity="1" /><path clip-path="url(#clip240)" d="M3068.07 1506.62 L3072.95 1506.62 L3072.95 1512.5 L3068.07 1512.5 L3068.07 1506.62 Z" fill="#000000" fill-rule="nonzero" fill-opacity="1" /><path clip-path="url(#clip240)" d="M3093.14 1481.02 Q3089.53 1481.02 3087.7 1484.58 Q3085.89 1488.12 3085.89 1495.25 Q3085.89 1502.36 3087.7 1505.93 Q3089.53 1509.47 3093.14 1509.47 Q3096.77 1509.47 3098.58 1505.93 Q3100.41 1502.36 3100.41 1495.25 Q3100.41 1488.12 3098.58 1484.58 Q3096.77 1481.02 3093.14 1481.02 M3093.14 1477.31 Q3098.95 1477.31 3102 1481.92 Q3105.08 1486.5 3105.08 1495.25 Q3105.08 1503.98 3102 1508.59 Q3098.95 1513.17 3093.14 1513.17 Q3087.33 1513.17 3084.25 1508.59 Q3081.19 1503.98 3081.19 1495.25 Q3081.19 1486.5 3084.25 1481.92 Q3087.33 1477.31 3093.14 1477.31 Z" fill="#000000" fill-rule="nonzero" fill-opacity="1" /><path clip-path="url(#clip240)" d="M1702.1 1554.79 L1702.1 1564.92 L1714.16 1564.92 L1714.16 1569.47 L1702.1 1569.47 L1702.1 1588.82 Q1702.1 1593.18 1703.28 1594.42 Q1704.49 1595.66 1708.15 1595.66 L1714.16 1595.66 L1714.16 1600.56 L1708.15 1600.56 Q1701.37 1600.56 1698.79 1598.05 Q1696.21 1595.5 1696.21 1588.82 L1696.21 1569.47 L1691.92 1569.47 L1691.92 1564.92 L1696.21 1564.92 L1696.21 1554.79 L1702.1 1554.79 Z" fill="#000000" fill-rule="nonzero" fill-opacity="1" /><polyline clip-path="url(#clip240)" style="stroke:#000000; stroke-linecap:round; stroke-linejoin:round; stroke-width:4; stroke-opacity:1; fill:none" points="253.324,1443.7 253.324,88.9121 "/>
<polyline clip-path="url(#clip240)" style="stroke:#000000; stroke-linecap:round; stroke-linejoin:round; stroke-width:4; stroke-opacity:1; fill:none" points="253.324,1173.1 272.222,1173.1 "/>
<polyline clip-path="url(#clip240)" style="stroke:#000000; stroke-linecap:round; stroke-linejoin:round; stroke-width:4; stroke-opacity:1; fill:none" points="253.324,880.733 272.222,880.733 "/>
<polyline clip-path="url(#clip240)" style="stroke:#000000; stroke-linecap:round; stroke-linejoin:round; stroke-width:4; stroke-opacity:1; fill:none" points="253.324,588.369 272.222,588.369 "/>
<polyline clip-path="url(#clip240)" style="stroke:#000000; stroke-linecap:round; stroke-linejoin:round; stroke-width:4; stroke-opacity:1; fill:none" points="253.324,296.005 272.222,296.005 "/>
<path clip-path="url(#clip240)" d="M98.3802 1173.55 L128.056 1173.55 L128.056 1177.48 L98.3802 1177.48 L98.3802 1173.55 Z" fill="#000000" fill-rule="nonzero" fill-opacity="1" /><path clip-path="url(#clip240)" d="M138.959 1186.44 L146.597 1186.44 L146.597 1160.08 L138.287 1161.74 L138.287 1157.48 L146.551 1155.82 L151.227 1155.82 L151.227 1186.44 L158.866 1186.44 L158.866 1190.38 L138.959 1190.38 L138.959 1186.44 Z" fill="#000000" fill-rule="nonzero" fill-opacity="1" /><path clip-path="url(#clip240)" d="M168.31 1184.5 L173.195 1184.5 L173.195 1190.38 L168.31 1190.38 L168.31 1184.5 Z" fill="#000000" fill-rule="nonzero" fill-opacity="1" /><path clip-path="url(#clip240)" d="M193.38 1158.9 Q189.769 1158.9 187.94 1162.46 Q186.134 1166 186.134 1173.13 Q186.134 1180.24 187.94 1183.8 Q189.769 1187.34 193.38 1187.34 Q197.014 1187.34 198.819 1183.8 Q200.648 1180.24 200.648 1173.13 Q200.648 1166 198.819 1162.46 Q197.014 1158.9 193.38 1158.9 M193.38 1155.19 Q199.19 1155.19 202.245 1159.8 Q205.324 1164.38 205.324 1173.13 Q205.324 1181.86 202.245 1186.46 Q199.19 1191.05 193.38 1191.05 Q187.569 1191.05 184.491 1186.46 Q181.435 1181.86 181.435 1173.13 Q181.435 1164.38 184.491 1159.8 Q187.569 1155.19 193.38 1155.19 Z" fill="#000000" fill-rule="nonzero" fill-opacity="1" /><path clip-path="url(#clip240)" d="M99.3755 881.184 L129.051 881.184 L129.051 885.119 L99.3755 885.119 L99.3755 881.184 Z" fill="#000000" fill-rule="nonzero" fill-opacity="1" /><path clip-path="url(#clip240)" d="M149.144 866.532 Q145.533 866.532 143.704 870.096 Q141.898 873.638 141.898 880.768 Q141.898 887.874 143.704 891.439 Q145.533 894.981 149.144 894.981 Q152.778 894.981 154.584 891.439 Q156.412 887.874 156.412 880.768 Q156.412 873.638 154.584 870.096 Q152.778 866.532 149.144 866.532 M149.144 862.828 Q154.954 862.828 158.009 867.434 Q161.088 872.018 161.088 880.768 Q161.088 889.494 158.009 894.101 Q154.954 898.684 149.144 898.684 Q143.334 898.684 140.255 894.101 Q137.199 889.494 137.199 880.768 Q137.199 872.018 140.255 867.434 Q143.334 862.828 149.144 862.828 Z" fill="#000000" fill-rule="nonzero" fill-opacity="1" /><path clip-path="url(#clip240)" d="M169.306 892.133 L174.19 892.133 L174.19 898.013 L169.306 898.013 L169.306 892.133 Z" fill="#000000" fill-rule="nonzero" fill-opacity="1" /><path clip-path="url(#clip240)" d="M184.421 863.453 L202.778 863.453 L202.778 867.388 L188.704 867.388 L188.704 875.86 Q189.722 875.513 190.741 875.351 Q191.759 875.166 192.778 875.166 Q198.565 875.166 201.944 878.337 Q205.324 881.508 205.324 886.925 Q205.324 892.504 201.852 895.606 Q198.38 898.684 192.06 898.684 Q189.884 898.684 187.616 898.314 Q185.37 897.943 182.963 897.203 L182.963 892.504 Q185.046 893.638 187.269 894.193 Q189.491 894.749 191.968 894.749 Q195.972 894.749 198.31 892.643 Q200.648 890.536 200.648 886.925 Q200.648 883.314 198.31 881.207 Q195.972 879.101 191.968 879.101 Q190.093 879.101 188.218 879.518 Q186.366 879.934 184.421 880.814 L184.421 863.453 Z" fill="#000000" fill-rule="nonzero" fill-opacity="1" /><path clip-path="url(#clip240)" d="M148.148 574.168 Q144.537 574.168 142.709 577.733 Q140.903 581.274 140.903 588.404 Q140.903 595.51 142.709 599.075 Q144.537 602.617 148.148 602.617 Q151.783 602.617 153.588 599.075 Q155.417 595.51 155.417 588.404 Q155.417 581.274 153.588 577.733 Q151.783 574.168 148.148 574.168 M148.148 570.464 Q153.959 570.464 157.014 575.071 Q160.093 579.654 160.093 588.404 Q160.093 597.131 157.014 601.737 Q153.959 606.32 148.148 606.32 Q142.338 606.32 139.26 601.737 Q136.204 597.131 136.204 588.404 Q136.204 579.654 139.26 575.071 Q142.338 570.464 148.148 570.464 Z" fill="#000000" fill-rule="nonzero" fill-opacity="1" /><path clip-path="url(#clip240)" d="M168.31 599.77 L173.195 599.77 L173.195 605.649 L168.31 605.649 L168.31 599.77 Z" fill="#000000" fill-rule="nonzero" fill-opacity="1" /><path clip-path="url(#clip240)" d="M193.38 574.168 Q189.769 574.168 187.94 577.733 Q186.134 581.274 186.134 588.404 Q186.134 595.51 187.94 599.075 Q189.769 602.617 193.38 602.617 Q197.014 602.617 198.819 599.075 Q200.648 595.51 200.648 588.404 Q200.648 581.274 198.819 577.733 Q197.014 574.168 193.38 574.168 M193.38 570.464 Q199.19 570.464 202.245 575.071 Q205.324 579.654 205.324 588.404 Q205.324 597.131 202.245 601.737 Q199.19 606.32 193.38 606.32 Q187.569 606.32 184.491 601.737 Q181.435 597.131 181.435 588.404 Q181.435 579.654 184.491 575.071 Q187.569 570.464 193.38 570.464 Z" fill="#000000" fill-rule="nonzero" fill-opacity="1" /><path clip-path="url(#clip240)" d="M149.144 281.804 Q145.533 281.804 143.704 285.369 Q141.898 288.91 141.898 296.04 Q141.898 303.147 143.704 306.711 Q145.533 310.253 149.144 310.253 Q152.778 310.253 154.584 306.711 Q156.412 303.147 156.412 296.04 Q156.412 288.91 154.584 285.369 Q152.778 281.804 149.144 281.804 M149.144 278.1 Q154.954 278.1 158.009 282.707 Q161.088 287.29 161.088 296.04 Q161.088 304.767 158.009 309.373 Q154.954 313.957 149.144 313.957 Q143.334 313.957 140.255 309.373 Q137.199 304.767 137.199 296.04 Q137.199 287.29 140.255 282.707 Q143.334 278.1 149.144 278.1 Z" fill="#000000" fill-rule="nonzero" fill-opacity="1" /><path clip-path="url(#clip240)" d="M169.306 307.406 L174.19 307.406 L174.19 313.285 L169.306 313.285 L169.306 307.406 Z" fill="#000000" fill-rule="nonzero" fill-opacity="1" /><path clip-path="url(#clip240)" d="M184.421 278.725 L202.778 278.725 L202.778 282.661 L188.704 282.661 L188.704 291.133 Q189.722 290.785 190.741 290.623 Q191.759 290.438 192.778 290.438 Q198.565 290.438 201.944 293.61 Q205.324 296.781 205.324 302.197 Q205.324 307.776 201.852 310.878 Q198.38 313.957 192.06 313.957 Q189.884 313.957 187.616 313.586 Q185.37 313.216 182.963 312.475 L182.963 307.776 Q185.046 308.91 187.269 309.466 Q189.491 310.021 191.968 310.021 Q195.972 310.021 198.31 307.915 Q200.648 305.809 200.648 302.197 Q200.648 298.586 198.31 296.48 Q195.972 294.373 191.968 294.373 Q190.093 294.373 188.218 294.79 Q186.366 295.207 184.421 296.086 L184.421 278.725 Z" fill="#000000" fill-rule="nonzero" fill-opacity="1" /><path clip-path="url(#clip240)" d="M-11.3958 796.384 L-11.3958 789.891 L28.7718 779.897 L-11.3958 769.934 L-11.3958 762.709 L28.7718 752.715 L-11.3958 742.753 L-11.3958 736.228 L36.1242 748.164 L36.1242 756.248 L-5.12562 766.274 L36.1242 776.396 L36.1242 784.48 L-11.3958 796.384 Z" fill="#000000" fill-rule="nonzero" fill-opacity="1" /><path clip-path="url(#clip240)" d="M695.707 8.04625 L695.707 12.6064 Q693.045 11.3333 690.684 10.7083 Q688.323 10.0833 686.124 10.0833 Q682.305 10.0833 680.221 11.5648 Q678.161 13.0462 678.161 15.7777 Q678.161 18.0693 679.527 19.2499 Q680.916 20.4073 684.758 21.1249 L687.582 21.7036 Q692.814 22.699 695.291 25.2221 Q697.791 27.7221 697.791 31.935 Q697.791 36.9581 694.411 39.5507 Q691.055 42.1433 684.55 42.1433 Q682.096 42.1433 679.319 41.5877 Q676.564 41.0322 673.601 39.9442 L673.601 35.1294 Q676.448 36.7267 679.18 37.5368 Q681.911 38.347 684.55 38.347 Q688.555 38.347 690.731 36.773 Q692.906 35.1989 692.906 32.2822 Q692.906 29.736 691.332 28.3008 Q689.782 26.8656 686.217 26.148 L683.37 25.5925 Q678.138 24.5508 675.8 22.3286 Q673.462 20.1064 673.462 16.1481 Q673.462 11.5648 676.68 8.92588 Q679.92 6.287 685.592 6.287 Q688.022 6.287 690.545 6.72682 Q693.069 7.16663 695.707 8.04625 Z" fill="#000000" fill-rule="nonzero" fill-opacity="1" /><path clip-path="url(#clip240)" d="M716.68 28.4397 Q711.518 28.4397 709.527 29.6202 Q707.536 30.8008 707.536 33.648 Q707.536 35.9165 709.018 37.2591 Q710.522 38.5785 713.092 38.5785 Q716.633 38.5785 718.763 36.0785 Q720.916 33.5554 720.916 29.3887 L720.916 28.4397 L716.68 28.4397 M725.175 26.6804 L725.175 41.472 L720.916 41.472 L720.916 37.5368 Q719.457 39.8979 717.281 41.0322 Q715.105 42.1433 711.957 42.1433 Q707.976 42.1433 705.615 39.9211 Q703.277 37.6757 703.277 33.9257 Q703.277 29.5508 706.193 27.3286 Q709.133 25.1063 714.943 25.1063 L720.916 25.1063 L720.916 24.6897 Q720.916 21.7499 718.971 20.1527 Q717.05 18.5323 713.555 18.5323 Q711.332 18.5323 709.226 19.0647 Q707.119 19.5971 705.175 20.6619 L705.175 16.7268 Q707.513 15.824 709.712 15.3842 Q711.911 14.9212 713.994 14.9212 Q719.619 14.9212 722.397 17.8379 Q725.175 20.7545 725.175 26.6804 Z" fill="#000000" fill-rule="nonzero" fill-opacity="1" /><path clip-path="url(#clip240)" d="M754.133 20.523 Q755.73 17.6527 757.952 16.2869 Q760.175 14.9212 763.184 14.9212 Q767.235 14.9212 769.434 17.7684 Q771.633 20.5925 771.633 25.8239 L771.633 41.472 L767.351 41.472 L767.351 25.9628 Q767.351 22.236 766.031 20.4304 Q764.712 18.6249 762.003 18.6249 Q758.693 18.6249 756.772 20.824 Q754.851 23.023 754.851 26.8193 L754.851 41.472 L750.568 41.472 L750.568 25.9628 Q750.568 22.2128 749.249 20.4304 Q747.929 18.6249 745.175 18.6249 Q741.911 18.6249 739.99 20.8471 Q738.068 23.0462 738.068 26.8193 L738.068 41.472 L733.786 41.472 L733.786 15.5462 L738.068 15.5462 L738.068 19.574 Q739.527 17.1897 741.564 16.0555 Q743.601 14.9212 746.402 14.9212 Q749.226 14.9212 751.193 16.3564 Q753.184 17.7916 754.133 20.523 Z" fill="#000000" fill-rule="nonzero" fill-opacity="1" /><path clip-path="url(#clip240)" d="M784.249 37.5831 L784.249 51.3331 L779.966 51.3331 L779.966 15.5462 L784.249 15.5462 L784.249 19.4814 Q785.591 17.1666 787.628 16.0555 Q789.688 14.9212 792.536 14.9212 Q797.258 14.9212 800.198 18.6712 Q803.161 22.4212 803.161 28.5323 Q803.161 34.6433 800.198 38.3933 Q797.258 42.1433 792.536 42.1433 Q789.688 42.1433 787.628 41.0322 Q785.591 39.8979 784.249 37.5831 M798.739 28.5323 Q798.739 23.8332 796.795 21.1712 Q794.874 18.486 791.494 18.486 Q788.114 18.486 786.17 21.1712 Q784.249 23.8332 784.249 28.5323 Q784.249 33.2313 786.17 35.9165 Q788.114 38.5785 791.494 38.5785 Q794.874 38.5785 796.795 35.9165 Q798.739 33.2313 798.739 28.5323 Z" fill="#000000" fill-rule="nonzero" fill-opacity="1" /><path clip-path="url(#clip240)" d="M810.221 5.45367 L814.48 5.45367 L814.48 41.472 L810.221 41.472 L810.221 5.45367 Z" fill="#000000" fill-rule="nonzero" fill-opacity="1" /><path clip-path="url(#clip240)" d="M845.568 27.4443 L845.568 29.5276 L825.984 29.5276 Q826.262 33.9257 828.623 36.2405 Q831.008 38.5322 835.244 38.5322 Q837.697 38.5322 839.989 37.9304 Q842.304 37.3285 844.572 36.1248 L844.572 40.1526 Q842.281 41.1248 839.873 41.634 Q837.466 42.1433 834.989 42.1433 Q828.785 42.1433 825.151 38.5322 Q821.54 34.9211 821.54 28.7637 Q821.54 22.398 824.966 18.6712 Q828.415 14.9212 834.248 14.9212 Q839.48 14.9212 842.512 18.3008 Q845.568 21.6573 845.568 27.4443 M841.308 26.1943 Q841.262 22.699 839.341 20.6156 Q837.443 18.5323 834.295 18.5323 Q830.73 18.5323 828.577 20.5462 Q826.447 22.5601 826.123 26.2175 L841.308 26.1943 Z" fill="#000000" fill-rule="nonzero" fill-opacity="1" /><path clip-path="url(#clip240)" d="M871.748 37.5831 L871.748 51.3331 L867.466 51.3331 L867.466 15.5462 L871.748 15.5462 L871.748 19.4814 Q873.091 17.1666 875.128 16.0555 Q877.188 14.9212 880.035 14.9212 Q884.757 14.9212 887.697 18.6712 Q890.66 22.4212 890.66 28.5323 Q890.66 34.6433 887.697 38.3933 Q884.757 42.1433 880.035 42.1433 Q877.188 42.1433 875.128 41.0322 Q873.091 39.8979 871.748 37.5831 M886.239 28.5323 Q886.239 23.8332 884.294 21.1712 Q882.373 18.486 878.993 18.486 Q875.614 18.486 873.669 21.1712 Q871.748 23.8332 871.748 28.5323 Q871.748 33.2313 873.669 35.9165 Q875.614 38.5785 878.993 38.5785 Q882.373 38.5785 884.294 35.9165 Q886.239 33.2313 886.239 28.5323 Z" fill="#000000" fill-rule="nonzero" fill-opacity="1" /><path clip-path="url(#clip240)" d="M909.503 28.4397 Q904.341 28.4397 902.35 29.6202 Q900.359 30.8008 900.359 33.648 Q900.359 35.9165 901.841 37.2591 Q903.345 38.5785 905.915 38.5785 Q909.456 38.5785 911.586 36.0785 Q913.739 33.5554 913.739 29.3887 L913.739 28.4397 L909.503 28.4397 M917.998 26.6804 L917.998 41.472 L913.739 41.472 L913.739 37.5368 Q912.28 39.8979 910.104 41.0322 Q907.928 42.1433 904.78 42.1433 Q900.799 42.1433 898.438 39.9211 Q896.1 37.6757 896.1 33.9257 Q896.1 29.5508 899.016 27.3286 Q901.956 25.1063 907.766 25.1063 L913.739 25.1063 L913.739 24.6897 Q913.739 21.7499 911.794 20.1527 Q909.873 18.5323 906.378 18.5323 Q904.155 18.5323 902.049 19.0647 Q899.942 19.5971 897.998 20.6619 L897.998 16.7268 Q900.336 15.824 902.535 15.3842 Q904.734 14.9212 906.817 14.9212 Q912.442 14.9212 915.22 17.8379 Q917.998 20.7545 917.998 26.6804 Z" fill="#000000" fill-rule="nonzero" fill-opacity="1" /><path clip-path="url(#clip240)" d="M930.984 8.18514 L930.984 15.5462 L939.757 15.5462 L939.757 18.8564 L930.984 18.8564 L930.984 32.9304 Q930.984 36.1017 931.84 37.0044 Q932.72 37.9072 935.382 37.9072 L939.757 37.9072 L939.757 41.472 L935.382 41.472 Q930.452 41.472 928.577 39.6433 Q926.702 37.7915 926.702 32.9304 L926.702 18.8564 L923.577 18.8564 L923.577 15.5462 L926.702 15.5462 L926.702 8.18514 L930.984 8.18514 Z" fill="#000000" fill-rule="nonzero" fill-opacity="1" /><path clip-path="url(#clip240)" d="M966.91 25.8239 L966.91 41.472 L962.65 41.472 L962.65 25.9628 Q962.65 22.2823 961.215 20.4536 Q959.78 18.6249 956.91 18.6249 Q953.461 18.6249 951.47 20.824 Q949.479 23.023 949.479 26.8193 L949.479 41.472 L945.197 41.472 L945.197 5.45367 L949.479 5.45367 L949.479 19.574 Q951.007 17.236 953.067 16.0786 Q955.15 14.9212 957.859 14.9212 Q962.326 14.9212 964.618 17.699 Q966.91 20.4536 966.91 25.8239 Z" fill="#000000" fill-rule="nonzero" fill-opacity="1" /><path clip-path="url(#clip240)" d="M991.933 16.3101 L991.933 20.3379 Q990.127 19.4119 988.183 18.949 Q986.238 18.486 984.155 18.486 Q980.984 18.486 979.386 19.4582 Q977.812 20.4304 977.812 22.3749 Q977.812 23.8564 978.947 24.7128 Q980.081 25.5462 983.507 26.31 L984.965 26.6341 Q989.502 27.6063 991.4 29.3887 Q993.322 31.148 993.322 34.3193 Q993.322 37.9304 990.451 40.0368 Q987.604 42.1433 982.604 42.1433 Q980.521 42.1433 978.252 41.7266 Q976.007 41.3331 973.507 40.5229 L973.507 36.1248 Q975.868 37.3517 978.16 37.9766 Q980.451 38.5785 982.697 38.5785 Q985.706 38.5785 987.326 37.56 Q988.947 36.5183 988.947 34.6433 Q988.947 32.9072 987.766 31.9813 Q986.609 31.0554 982.65 30.1989 L981.169 29.8517 Q977.211 29.0184 975.451 27.3054 Q973.692 25.5693 973.692 22.5601 Q973.692 18.9027 976.285 16.9119 Q978.877 14.9212 983.646 14.9212 Q986.007 14.9212 988.09 15.2684 Q990.173 15.6157 991.933 16.3101 Z" fill="#000000" fill-rule="nonzero" fill-opacity="1" /><path clip-path="url(#clip240)" d="M1025.22 18.5323 Q1021.79 18.5323 1019.8 21.2175 Q1017.81 23.8795 1017.81 28.5323 Q1017.81 33.185 1019.78 35.8702 Q1021.77 38.5322 1025.22 38.5322 Q1028.62 38.5322 1030.61 35.847 Q1032.6 33.1619 1032.6 28.5323 Q1032.6 23.9258 1030.61 21.2406 Q1028.62 18.5323 1025.22 18.5323 M1025.22 14.9212 Q1030.78 14.9212 1033.95 18.5323 Q1037.12 22.1434 1037.12 28.5323 Q1037.12 34.898 1033.95 38.5322 Q1030.78 42.1433 1025.22 42.1433 Q1019.64 42.1433 1016.47 38.5322 Q1013.32 34.898 1013.32 28.5323 Q1013.32 22.1434 1016.47 18.5323 Q1019.64 14.9212 1025.22 14.9212 Z" fill="#000000" fill-rule="nonzero" fill-opacity="1" /><path clip-path="url(#clip240)" d="M1057.3 5.45367 L1057.3 8.99532 L1053.23 8.99532 Q1050.94 8.99532 1050.03 9.92124 Q1049.15 10.8472 1049.15 13.2546 L1049.15 15.5462 L1056.17 15.5462 L1056.17 18.8564 L1049.15 18.8564 L1049.15 41.472 L1044.87 41.472 L1044.87 18.8564 L1040.8 18.8564 L1040.8 15.5462 L1044.87 15.5462 L1044.87 13.7407 Q1044.87 9.41199 1046.89 7.4444 Q1048.9 5.45367 1053.27 5.45367 L1057.3 5.45367 Z" fill="#000000" fill-rule="nonzero" fill-opacity="1" /><path clip-path="url(#clip240)" d="M1089.06 5.45367 L1089.06 8.99532 L1084.99 8.99532 Q1082.7 8.99532 1081.79 9.92124 Q1080.91 10.8472 1080.91 13.2546 L1080.91 15.5462 L1087.93 15.5462 L1087.93 18.8564 L1080.91 18.8564 L1080.91 41.472 L1076.63 41.472 L1076.63 18.8564 L1072.56 18.8564 L1072.56 15.5462 L1076.63 15.5462 L1076.63 13.7407 Q1076.63 9.41199 1078.65 7.4444 Q1080.66 5.45367 1085.03 5.45367 L1089.06 5.45367 Z" fill="#000000" fill-rule="nonzero" fill-opacity="1" /><path clip-path="url(#clip240)" d="M1107.65 19.5277 Q1106.93 19.111 1106.08 18.9258 Q1105.24 18.7175 1104.22 18.7175 Q1100.61 18.7175 1098.67 21.0786 Q1096.75 23.4165 1096.75 27.8147 L1096.75 41.472 L1092.46 41.472 L1092.46 15.5462 L1096.75 15.5462 L1096.75 19.574 Q1098.09 17.2129 1100.24 16.0786 Q1102.4 14.9212 1105.47 14.9212 Q1105.91 14.9212 1106.45 14.9907 Q1106.98 15.037 1107.63 15.1527 L1107.65 19.5277 Z" fill="#000000" fill-rule="nonzero" fill-opacity="1" /><path clip-path="url(#clip240)" d="M1123.9 28.4397 Q1118.74 28.4397 1116.75 29.6202 Q1114.76 30.8008 1114.76 33.648 Q1114.76 35.9165 1116.24 37.2591 Q1117.74 38.5785 1120.31 38.5785 Q1123.85 38.5785 1125.98 36.0785 Q1128.14 33.5554 1128.14 29.3887 L1128.14 28.4397 L1123.9 28.4397 M1132.39 26.6804 L1132.39 41.472 L1128.14 41.472 L1128.14 37.5368 Q1126.68 39.8979 1124.5 41.0322 Q1122.33 42.1433 1119.18 42.1433 Q1115.2 42.1433 1112.83 39.9211 Q1110.5 37.6757 1110.5 33.9257 Q1110.5 29.5508 1113.41 27.3286 Q1116.35 25.1063 1122.16 25.1063 L1128.14 25.1063 L1128.14 24.6897 Q1128.14 21.7499 1126.19 20.1527 Q1124.27 18.5323 1120.77 18.5323 Q1118.55 18.5323 1116.45 19.0647 Q1114.34 19.5971 1112.39 20.6619 L1112.39 16.7268 Q1114.73 15.824 1116.93 15.3842 Q1119.13 14.9212 1121.21 14.9212 Q1126.84 14.9212 1129.62 17.8379 Q1132.39 20.7545 1132.39 26.6804 Z" fill="#000000" fill-rule="nonzero" fill-opacity="1" /><path clip-path="url(#clip240)" d="M1159.83 16.5416 L1159.83 20.523 Q1158.02 19.5277 1156.19 19.0416 Q1154.39 18.5323 1152.53 18.5323 Q1148.39 18.5323 1146.1 21.1712 Q1143.81 23.7869 1143.81 28.5323 Q1143.81 33.2776 1146.1 35.9165 Q1148.39 38.5322 1152.53 38.5322 Q1154.39 38.5322 1156.19 38.0461 Q1158.02 37.5368 1159.83 36.5415 L1159.83 40.4766 Q1158.04 41.31 1156.12 41.7266 Q1154.22 42.1433 1152.07 42.1433 Q1146.21 42.1433 1142.77 38.4628 Q1139.32 34.7822 1139.32 28.5323 Q1139.32 22.1897 1142.79 18.5555 Q1146.28 14.9212 1152.35 14.9212 Q1154.32 14.9212 1156.19 15.3379 Q1158.07 15.7314 1159.83 16.5416 Z" fill="#000000" fill-rule="nonzero" fill-opacity="1" /><path clip-path="url(#clip240)" d="M1171.45 8.18514 L1171.45 15.5462 L1180.22 15.5462 L1180.22 18.8564 L1171.45 18.8564 L1171.45 32.9304 Q1171.45 36.1017 1172.3 37.0044 Q1173.18 37.9072 1175.84 37.9072 L1180.22 37.9072 L1180.22 41.472 L1175.84 41.472 Q1170.91 41.472 1169.04 39.6433 Q1167.16 37.7915 1167.16 32.9304 L1167.16 18.8564 L1164.04 18.8564 L1164.04 15.5462 L1167.16 15.5462 L1167.16 8.18514 L1171.45 8.18514 Z" fill="#000000" fill-rule="nonzero" fill-opacity="1" /><path clip-path="url(#clip240)" d="M1185.82 15.5462 L1190.08 15.5462 L1190.08 41.472 L1185.82 41.472 L1185.82 15.5462 M1185.82 5.45367 L1190.08 5.45367 L1190.08 10.8472 L1185.82 10.8472 L1185.82 5.45367 Z" fill="#000000" fill-rule="nonzero" fill-opacity="1" /><path clip-path="url(#clip240)" d="M1209.04 18.5323 Q1205.61 18.5323 1203.62 21.2175 Q1201.63 23.8795 1201.63 28.5323 Q1201.63 33.185 1203.6 35.8702 Q1205.59 38.5322 1209.04 38.5322 Q1212.44 38.5322 1214.43 35.847 Q1216.42 33.1619 1216.42 28.5323 Q1216.42 23.9258 1214.43 21.2406 Q1212.44 18.5323 1209.04 18.5323 M1209.04 14.9212 Q1214.59 14.9212 1217.76 18.5323 Q1220.94 22.1434 1220.94 28.5323 Q1220.94 34.898 1217.76 38.5322 Q1214.59 42.1433 1209.04 42.1433 Q1203.46 42.1433 1200.29 38.5322 Q1197.14 34.898 1197.14 28.5323 Q1197.14 22.1434 1200.29 18.5323 Q1203.46 14.9212 1209.04 14.9212 Z" fill="#000000" fill-rule="nonzero" fill-opacity="1" /><path clip-path="url(#clip240)" d="M1249.55 25.8239 L1249.55 41.472 L1245.29 41.472 L1245.29 25.9628 Q1245.29 22.2823 1243.85 20.4536 Q1242.42 18.6249 1239.55 18.6249 Q1236.1 18.6249 1234.11 20.824 Q1232.12 23.023 1232.12 26.8193 L1232.12 41.472 L1227.83 41.472 L1227.83 15.5462 L1232.12 15.5462 L1232.12 19.574 Q1233.64 17.236 1235.7 16.0786 Q1237.79 14.9212 1240.5 14.9212 Q1244.96 14.9212 1247.26 17.699 Q1249.55 20.4536 1249.55 25.8239 Z" fill="#000000" fill-rule="nonzero" fill-opacity="1" /><path clip-path="url(#clip240)" d="M1269.82 28.4397 Q1264.66 28.4397 1262.67 29.6202 Q1260.68 30.8008 1260.68 33.648 Q1260.68 35.9165 1262.16 37.2591 Q1263.67 38.5785 1266.24 38.5785 Q1269.78 38.5785 1271.91 36.0785 Q1274.06 33.5554 1274.06 29.3887 L1274.06 28.4397 L1269.82 28.4397 M1278.32 26.6804 L1278.32 41.472 L1274.06 41.472 L1274.06 37.5368 Q1272.6 39.8979 1270.43 41.0322 Q1268.25 42.1433 1265.1 42.1433 Q1261.12 42.1433 1258.76 39.9211 Q1256.42 37.6757 1256.42 33.9257 Q1256.42 29.5508 1259.34 27.3286 Q1262.28 25.1063 1268.09 25.1063 L1274.06 25.1063 L1274.06 24.6897 Q1274.06 21.7499 1272.12 20.1527 Q1270.2 18.5323 1266.7 18.5323 Q1264.48 18.5323 1262.37 19.0647 Q1260.26 19.5971 1258.32 20.6619 L1258.32 16.7268 Q1260.66 15.824 1262.86 15.3842 Q1265.06 14.9212 1267.14 14.9212 Q1272.76 14.9212 1275.54 17.8379 Q1278.32 20.7545 1278.32 26.6804 Z" fill="#000000" fill-rule="nonzero" fill-opacity="1" /><path clip-path="url(#clip240)" d="M1287.09 5.45367 L1291.35 5.45367 L1291.35 41.472 L1287.09 41.472 L1287.09 5.45367 Z" fill="#000000" fill-rule="nonzero" fill-opacity="1" /><path clip-path="url(#clip240)" d="M1320.19 24.9675 L1320.19 37.6294 L1327.69 37.6294 Q1331.47 37.6294 1333.27 36.0785 Q1335.1 34.5044 1335.1 31.2869 Q1335.1 28.0461 1333.27 26.5184 Q1331.47 24.9675 1327.69 24.9675 L1320.19 24.9675 M1320.19 10.7546 L1320.19 21.1712 L1327.12 21.1712 Q1330.54 21.1712 1332.21 19.898 Q1333.9 18.6018 1333.9 15.9629 Q1333.9 13.3472 1332.21 12.0509 Q1330.54 10.7546 1327.12 10.7546 L1320.19 10.7546 M1315.52 6.912 L1327.46 6.912 Q1332.81 6.912 1335.7 9.13421 Q1338.6 11.3564 1338.6 15.4536 Q1338.6 18.6249 1337.12 20.4999 Q1335.63 22.3749 1332.76 22.8378 Q1336.21 23.5786 1338.11 25.9397 Q1340.03 28.2776 1340.03 31.7961 Q1340.03 36.4257 1336.88 38.9489 Q1333.74 41.472 1327.93 41.472 L1315.52 41.472 L1315.52 6.912 Z" fill="#000000" fill-rule="nonzero" fill-opacity="1" /><path clip-path="url(#clip240)" d="M1362.88 19.5277 Q1362.16 19.111 1361.31 18.9258 Q1360.47 18.7175 1359.45 18.7175 Q1355.84 18.7175 1353.9 21.0786 Q1351.98 23.4165 1351.98 27.8147 L1351.98 41.472 L1347.69 41.472 L1347.69 15.5462 L1351.98 15.5462 L1351.98 19.574 Q1353.32 17.2129 1355.47 16.0786 Q1357.63 14.9212 1360.7 14.9212 Q1361.14 14.9212 1361.68 14.9907 Q1362.21 15.037 1362.86 15.1527 L1362.88 19.5277 Z" fill="#000000" fill-rule="nonzero" fill-opacity="1" /><path clip-path="url(#clip240)" d="M1376.35 18.5323 Q1372.93 18.5323 1370.94 21.2175 Q1368.94 23.8795 1368.94 28.5323 Q1368.94 33.185 1370.91 35.8702 Q1372.9 38.5322 1376.35 38.5322 Q1379.75 38.5322 1381.75 35.847 Q1383.74 33.1619 1383.74 28.5323 Q1383.74 23.9258 1381.75 21.2406 Q1379.75 18.5323 1376.35 18.5323 M1376.35 14.9212 Q1381.91 14.9212 1385.08 18.5323 Q1388.25 22.1434 1388.25 28.5323 Q1388.25 34.898 1385.08 38.5322 Q1381.91 42.1433 1376.35 42.1433 Q1370.77 42.1433 1367.6 38.5322 Q1364.45 34.898 1364.45 28.5323 Q1364.45 22.1434 1367.6 18.5323 Q1370.77 14.9212 1376.35 14.9212 Z" fill="#000000" fill-rule="nonzero" fill-opacity="1" /><path clip-path="url(#clip240)" d="M1392.83 15.5462 L1397.09 15.5462 L1402.42 35.7776 L1407.72 15.5462 L1412.74 15.5462 L1418.06 35.7776 L1423.37 15.5462 L1427.62 15.5462 L1420.84 41.472 L1415.82 41.472 L1410.24 20.2221 L1404.64 41.472 L1399.62 41.472 L1392.83 15.5462 Z" fill="#000000" fill-rule="nonzero" fill-opacity="1" /><path clip-path="url(#clip240)" d="M1455.63 25.8239 L1455.63 41.472 L1451.37 41.472 L1451.37 25.9628 Q1451.37 22.2823 1449.94 20.4536 Q1448.5 18.6249 1445.63 18.6249 Q1442.18 18.6249 1440.19 20.824 Q1438.2 23.023 1438.2 26.8193 L1438.2 41.472 L1433.92 41.472 L1433.92 15.5462 L1438.2 15.5462 L1438.2 19.574 Q1439.73 17.236 1441.79 16.0786 Q1443.87 14.9212 1446.58 14.9212 Q1451.05 14.9212 1453.34 17.699 Q1455.63 20.4536 1455.63 25.8239 Z" fill="#000000" fill-rule="nonzero" fill-opacity="1" /><path clip-path="url(#clip240)" d="M1464.13 15.5462 L1468.39 15.5462 L1468.39 41.472 L1464.13 41.472 L1464.13 15.5462 M1464.13 5.45367 L1468.39 5.45367 L1468.39 10.8472 L1464.13 10.8472 L1464.13 5.45367 Z" fill="#000000" fill-rule="nonzero" fill-opacity="1" /><path clip-path="url(#clip240)" d="M1489.08 28.4397 Q1483.92 28.4397 1481.93 29.6202 Q1479.94 30.8008 1479.94 33.648 Q1479.94 35.9165 1481.42 37.2591 Q1482.93 38.5785 1485.49 38.5785 Q1489.04 38.5785 1491.17 36.0785 Q1493.32 33.5554 1493.32 29.3887 L1493.32 28.4397 L1489.08 28.4397 M1497.58 26.6804 L1497.58 41.472 L1493.32 41.472 L1493.32 37.5368 Q1491.86 39.8979 1489.68 41.0322 Q1487.51 42.1433 1484.36 42.1433 Q1480.38 42.1433 1478.02 39.9211 Q1475.68 37.6757 1475.68 33.9257 Q1475.68 29.5508 1478.6 27.3286 Q1481.54 25.1063 1487.35 25.1063 L1493.32 25.1063 L1493.32 24.6897 Q1493.32 21.7499 1491.37 20.1527 Q1489.45 18.5323 1485.96 18.5323 Q1483.74 18.5323 1481.63 19.0647 Q1479.52 19.5971 1477.58 20.6619 L1477.58 16.7268 Q1479.92 15.824 1482.12 15.3842 Q1484.31 14.9212 1486.4 14.9212 Q1492.02 14.9212 1494.8 17.8379 Q1497.58 20.7545 1497.58 26.6804 Z" fill="#000000" fill-rule="nonzero" fill-opacity="1" /><path clip-path="url(#clip240)" d="M1527.9 25.8239 L1527.9 41.472 L1523.64 41.472 L1523.64 25.9628 Q1523.64 22.2823 1522.21 20.4536 Q1520.77 18.6249 1517.9 18.6249 Q1514.45 18.6249 1512.46 20.824 Q1510.47 23.023 1510.47 26.8193 L1510.47 41.472 L1506.19 41.472 L1506.19 15.5462 L1510.47 15.5462 L1510.47 19.574 Q1512 17.236 1514.06 16.0786 Q1516.14 14.9212 1518.85 14.9212 Q1523.32 14.9212 1525.61 17.699 Q1527.9 20.4536 1527.9 25.8239 Z" fill="#000000" fill-rule="nonzero" fill-opacity="1" /><path clip-path="url(#clip240)" d="M1571.65 20.523 Q1573.25 17.6527 1575.47 16.2869 Q1577.69 14.9212 1580.7 14.9212 Q1584.75 14.9212 1586.95 17.7684 Q1589.15 20.5925 1589.15 25.8239 L1589.15 41.472 L1584.87 41.472 L1584.87 25.9628 Q1584.87 22.236 1583.55 20.4304 Q1582.23 18.6249 1579.52 18.6249 Q1576.21 18.6249 1574.29 20.824 Q1572.37 23.023 1572.37 26.8193 L1572.37 41.472 L1568.09 41.472 L1568.09 25.9628 Q1568.09 22.2128 1566.77 20.4304 Q1565.45 18.6249 1562.69 18.6249 Q1559.43 18.6249 1557.51 20.8471 Q1555.59 23.0462 1555.59 26.8193 L1555.59 41.472 L1551.3 41.472 L1551.3 15.5462 L1555.59 15.5462 L1555.59 19.574 Q1557.05 17.1897 1559.08 16.0555 Q1561.12 14.9212 1563.92 14.9212 Q1566.74 14.9212 1568.71 16.3564 Q1570.7 17.7916 1571.65 20.523 Z" fill="#000000" fill-rule="nonzero" fill-opacity="1" /><path clip-path="url(#clip240)" d="M1607.69 18.5323 Q1604.27 18.5323 1602.28 21.2175 Q1600.29 23.8795 1600.29 28.5323 Q1600.29 33.185 1602.25 35.8702 Q1604.24 38.5322 1607.69 38.5322 Q1611.1 38.5322 1613.09 35.847 Q1615.08 33.1619 1615.08 28.5323 Q1615.08 23.9258 1613.09 21.2406 Q1611.1 18.5323 1607.69 18.5323 M1607.69 14.9212 Q1613.25 14.9212 1616.42 18.5323 Q1619.59 22.1434 1619.59 28.5323 Q1619.59 34.898 1616.42 38.5322 Q1613.25 42.1433 1607.69 42.1433 Q1602.11 42.1433 1598.94 38.5322 Q1595.8 34.898 1595.8 28.5323 Q1595.8 22.1434 1598.94 18.5323 Q1602.11 14.9212 1607.69 14.9212 Z" fill="#000000" fill-rule="nonzero" fill-opacity="1" /><path clip-path="url(#clip240)" d="M1630.86 8.18514 L1630.86 15.5462 L1639.64 15.5462 L1639.64 18.8564 L1630.86 18.8564 L1630.86 32.9304 Q1630.86 36.1017 1631.72 37.0044 Q1632.6 37.9072 1635.26 37.9072 L1639.64 37.9072 L1639.64 41.472 L1635.26 41.472 Q1630.33 41.472 1628.46 39.6433 Q1626.58 37.7915 1626.58 32.9304 L1626.58 18.8564 L1623.46 18.8564 L1623.46 15.5462 L1626.58 15.5462 L1626.58 8.18514 L1630.86 8.18514 Z" fill="#000000" fill-rule="nonzero" fill-opacity="1" /><path clip-path="url(#clip240)" d="M1645.24 15.5462 L1649.5 15.5462 L1649.5 41.472 L1645.24 41.472 L1645.24 15.5462 M1645.24 5.45367 L1649.5 5.45367 L1649.5 10.8472 L1645.24 10.8472 L1645.24 5.45367 Z" fill="#000000" fill-rule="nonzero" fill-opacity="1" /><path clip-path="url(#clip240)" d="M1668.46 18.5323 Q1665.03 18.5323 1663.04 21.2175 Q1661.05 23.8795 1661.05 28.5323 Q1661.05 33.185 1663.02 35.8702 Q1665.01 38.5322 1668.46 38.5322 Q1671.86 38.5322 1673.85 35.847 Q1675.84 33.1619 1675.84 28.5323 Q1675.84 23.9258 1673.85 21.2406 Q1671.86 18.5323 1668.46 18.5323 M1668.46 14.9212 Q1674.01 14.9212 1677.18 18.5323 Q1680.35 22.1434 1680.35 28.5323 Q1680.35 34.898 1677.18 38.5322 Q1674.01 42.1433 1668.46 42.1433 Q1662.88 42.1433 1659.71 38.5322 Q1656.56 34.898 1656.56 28.5323 Q1656.56 22.1434 1659.71 18.5323 Q1662.88 14.9212 1668.46 14.9212 Z" fill="#000000" fill-rule="nonzero" fill-opacity="1" /><path clip-path="url(#clip240)" d="M1708.97 25.8239 L1708.97 41.472 L1704.71 41.472 L1704.71 25.9628 Q1704.71 22.2823 1703.27 20.4536 Q1701.84 18.6249 1698.97 18.6249 Q1695.52 18.6249 1693.53 20.824 Q1691.54 23.023 1691.54 26.8193 L1691.54 41.472 L1687.25 41.472 L1687.25 15.5462 L1691.54 15.5462 L1691.54 19.574 Q1693.06 17.236 1695.12 16.0786 Q1697.21 14.9212 1699.91 14.9212 Q1704.38 14.9212 1706.67 17.699 Q1708.97 20.4536 1708.97 25.8239 Z" fill="#000000" fill-rule="nonzero" fill-opacity="1" /><path clip-path="url(#clip240)" d="M1742.58 18.5323 Q1739.15 18.5323 1737.16 21.2175 Q1735.17 23.8795 1735.17 28.5323 Q1735.17 33.185 1737.14 35.8702 Q1739.13 38.5322 1742.58 38.5322 Q1745.98 38.5322 1747.97 35.847 Q1749.96 33.1619 1749.96 28.5323 Q1749.96 23.9258 1747.97 21.2406 Q1745.98 18.5323 1742.58 18.5323 M1742.58 14.9212 Q1748.13 14.9212 1751.3 18.5323 Q1754.47 22.1434 1754.47 28.5323 Q1754.47 34.898 1751.3 38.5322 Q1748.13 42.1433 1742.58 42.1433 Q1737 42.1433 1733.83 38.5322 Q1730.68 34.898 1730.68 28.5323 Q1730.68 22.1434 1733.83 18.5323 Q1737 14.9212 1742.58 14.9212 Z" fill="#000000" fill-rule="nonzero" fill-opacity="1" /><path clip-path="url(#clip240)" d="M1774.66 5.45367 L1774.66 8.99532 L1770.59 8.99532 Q1768.29 8.99532 1767.39 9.92124 Q1766.51 10.8472 1766.51 13.2546 L1766.51 15.5462 L1773.53 15.5462 L1773.53 18.8564 L1766.51 18.8564 L1766.51 41.472 L1762.23 41.472 L1762.23 18.8564 L1758.16 18.8564 L1758.16 15.5462 L1762.23 15.5462 L1762.23 13.7407 Q1762.23 9.41199 1764.24 7.4444 Q1766.26 5.45367 1770.63 5.45367 L1774.66 5.45367 Z" fill="#000000" fill-rule="nonzero" fill-opacity="1" /><path clip-path="url(#clip240)" d="M1793.29 5.45367 L1797.55 5.45367 L1797.55 41.472 L1793.29 41.472 L1793.29 5.45367 Z" fill="#000000" fill-rule="nonzero" fill-opacity="1" /><path clip-path="url(#clip240)" d="M1828.64 27.4443 L1828.64 29.5276 L1809.06 29.5276 Q1809.34 33.9257 1811.7 36.2405 Q1814.08 38.5322 1818.32 38.5322 Q1820.77 38.5322 1823.06 37.9304 Q1825.38 37.3285 1827.65 36.1248 L1827.65 40.1526 Q1825.35 41.1248 1822.95 41.634 Q1820.54 42.1433 1818.06 42.1433 Q1811.86 42.1433 1808.22 38.5322 Q1804.61 34.9211 1804.61 28.7637 Q1804.61 22.398 1808.04 18.6712 Q1811.49 14.9212 1817.32 14.9212 Q1822.55 14.9212 1825.59 18.3008 Q1828.64 21.6573 1828.64 27.4443 M1824.38 26.1943 Q1824.34 22.699 1822.41 20.6156 Q1820.52 18.5323 1817.37 18.5323 Q1813.8 18.5323 1811.65 20.5462 Q1809.52 22.5601 1809.2 26.2175 L1824.38 26.1943 Z" fill="#000000" fill-rule="nonzero" fill-opacity="1" /><path clip-path="url(#clip240)" d="M1857.18 25.8239 L1857.18 41.472 L1852.92 41.472 L1852.92 25.9628 Q1852.92 22.2823 1851.49 20.4536 Q1850.05 18.6249 1847.18 18.6249 Q1843.73 18.6249 1841.74 20.824 Q1839.75 23.023 1839.75 26.8193 L1839.75 41.472 L1835.47 41.472 L1835.47 15.5462 L1839.75 15.5462 L1839.75 19.574 Q1841.28 17.236 1843.34 16.0786 Q1845.42 14.9212 1848.13 14.9212 Q1852.6 14.9212 1854.89 17.699 Q1857.18 20.4536 1857.18 25.8239 Z" fill="#000000" fill-rule="nonzero" fill-opacity="1" /><path clip-path="url(#clip240)" d="M1882.74 28.2082 Q1882.74 23.5786 1880.82 21.0323 Q1878.92 18.486 1875.47 18.486 Q1872.04 18.486 1870.12 21.0323 Q1868.22 23.5786 1868.22 28.2082 Q1868.22 32.8146 1870.12 35.3609 Q1872.04 37.9072 1875.47 37.9072 Q1878.92 37.9072 1880.82 35.3609 Q1882.74 32.8146 1882.74 28.2082 M1887 38.2544 Q1887 44.8748 1884.06 48.0923 Q1881.12 51.3331 1875.05 51.3331 Q1872.81 51.3331 1870.82 50.9858 Q1868.83 50.6618 1866.95 49.9673 L1866.95 45.8238 Q1868.83 46.8423 1870.65 47.3285 Q1872.48 47.8146 1874.38 47.8146 Q1878.57 47.8146 1880.65 45.6155 Q1882.74 43.4396 1882.74 39.0183 L1882.74 36.9118 Q1881.42 39.2035 1879.36 40.3377 Q1877.3 41.472 1874.43 41.472 Q1869.66 41.472 1866.74 37.8378 Q1863.83 34.2035 1863.83 28.2082 Q1863.83 22.1897 1866.74 18.5555 Q1869.66 14.9212 1874.43 14.9212 Q1877.3 14.9212 1879.36 16.0555 Q1881.42 17.1897 1882.74 19.4814 L1882.74 15.5462 L1887 15.5462 L1887 38.2544 Z" fill="#000000" fill-rule="nonzero" fill-opacity="1" /><path clip-path="url(#clip240)" d="M1899.98 8.18514 L1899.98 15.5462 L1908.76 15.5462 L1908.76 18.8564 L1899.98 18.8564 L1899.98 32.9304 Q1899.98 36.1017 1900.84 37.0044 Q1901.72 37.9072 1904.38 37.9072 L1908.76 37.9072 L1908.76 41.472 L1904.38 41.472 Q1899.45 41.472 1897.58 39.6433 Q1895.7 37.7915 1895.7 32.9304 L1895.7 18.8564 L1892.58 18.8564 L1892.58 15.5462 L1895.7 15.5462 L1895.7 8.18514 L1899.98 8.18514 Z" fill="#000000" fill-rule="nonzero" fill-opacity="1" /><path clip-path="url(#clip240)" d="M1935.91 25.8239 L1935.91 41.472 L1931.65 41.472 L1931.65 25.9628 Q1931.65 22.2823 1930.21 20.4536 Q1928.78 18.6249 1925.91 18.6249 Q1922.46 18.6249 1920.47 20.824 Q1918.48 23.023 1918.48 26.8193 L1918.48 41.472 L1914.2 41.472 L1914.2 5.45367 L1918.48 5.45367 L1918.48 19.574 Q1920.01 17.236 1922.07 16.0786 Q1924.15 14.9212 1926.86 14.9212 Q1931.33 14.9212 1933.62 17.699 Q1935.91 20.4536 1935.91 25.8239 Z" fill="#000000" fill-rule="nonzero" fill-opacity="1" /><path clip-path="url(#clip240)" d="M1960.12 6.912 L1978.48 6.912 L1978.48 10.8472 L1964.4 10.8472 L1964.4 19.3193 Q1965.42 18.9721 1966.44 18.8101 Q1967.46 18.6249 1968.48 18.6249 Q1974.27 18.6249 1977.64 21.7962 Q1981.02 24.9675 1981.02 30.3841 Q1981.02 35.9628 1977.55 39.0646 Q1974.08 42.1433 1967.76 42.1433 Q1965.58 42.1433 1963.32 41.7729 Q1961.07 41.4026 1958.66 40.6618 L1958.66 35.9628 Q1960.75 37.097 1962.97 37.6526 Q1965.19 38.2081 1967.67 38.2081 Q1971.67 38.2081 1974.01 36.1017 Q1976.35 33.9952 1976.35 30.3841 Q1976.35 26.773 1974.01 24.6665 Q1971.67 22.5601 1967.67 22.5601 Q1965.79 22.5601 1963.92 22.9767 Q1962.07 23.3934 1960.12 24.273 L1960.12 6.912 Z" fill="#000000" fill-rule="nonzero" fill-opacity="1" /><path clip-path="url(#clip240)" d="M1991.05 37.5368 L1998.69 37.5368 L1998.69 11.1712 L1990.38 12.8379 L1990.38 8.57866 L1998.64 6.912 L2003.32 6.912 L2003.32 37.5368 L2010.95 37.5368 L2010.95 41.472 L1991.05 41.472 L1991.05 37.5368 Z" fill="#000000" fill-rule="nonzero" fill-opacity="1" /><path clip-path="url(#clip240)" d="M2024.43 37.5368 L2040.75 37.5368 L2040.75 41.472 L2018.8 41.472 L2018.8 37.5368 Q2021.46 34.7822 2026.05 30.1526 Q2030.65 25.4999 2031.83 24.1573 Q2034.08 21.6341 2034.96 19.898 Q2035.86 18.1388 2035.86 16.449 Q2035.86 13.6944 2033.92 11.9583 Q2032 10.2222 2028.89 10.2222 Q2026.7 10.2222 2024.24 10.9861 Q2021.81 11.7499 2019.03 13.3009 L2019.03 8.57866 Q2021.86 7.4444 2024.31 6.8657 Q2026.77 6.287 2028.8 6.287 Q2034.17 6.287 2037.37 8.97217 Q2040.56 11.6573 2040.56 16.1481 Q2040.56 18.2777 2039.75 20.199 Q2038.96 22.0971 2036.86 24.6897 Q2036.28 25.361 2033.18 28.5786 Q2030.08 31.773 2024.43 37.5368 Z" fill="#000000" fill-rule="nonzero" fill-opacity="1" /><path clip-path="url(#clip240)" d="M2062.55 15.5462 L2066.81 15.5462 L2072.14 35.7776 L2077.44 15.5462 L2082.46 15.5462 L2087.78 35.7776 L2093.08 15.5462 L2097.34 15.5462 L2090.56 41.472 L2085.54 41.472 L2079.96 20.2221 L2074.36 41.472 L2069.33 41.472 L2062.55 15.5462 Z" fill="#000000" fill-rule="nonzero" fill-opacity="1" /><path clip-path="url(#clip240)" d="M2103.8 15.5462 L2108.06 15.5462 L2108.06 41.472 L2103.8 41.472 L2103.8 15.5462 M2103.8 5.45367 L2108.06 5.45367 L2108.06 10.8472 L2103.8 10.8472 L2103.8 5.45367 Z" fill="#000000" fill-rule="nonzero" fill-opacity="1" /><path clip-path="url(#clip240)" d="M2121.19 8.18514 L2121.19 15.5462 L2129.96 15.5462 L2129.96 18.8564 L2121.19 18.8564 L2121.19 32.9304 Q2121.19 36.1017 2122.04 37.0044 Q2122.92 37.9072 2125.58 37.9072 L2129.96 37.9072 L2129.96 41.472 L2125.58 41.472 Q2120.65 41.472 2118.78 39.6433 Q2116.9 37.7915 2116.9 32.9304 L2116.9 18.8564 L2113.78 18.8564 L2113.78 15.5462 L2116.9 15.5462 L2116.9 8.18514 L2121.19 8.18514 Z" fill="#000000" fill-rule="nonzero" fill-opacity="1" /><path clip-path="url(#clip240)" d="M2157.11 25.8239 L2157.11 41.472 L2152.85 41.472 L2152.85 25.9628 Q2152.85 22.2823 2151.42 20.4536 Q2149.98 18.6249 2147.11 18.6249 Q2143.66 18.6249 2141.67 20.824 Q2139.68 23.023 2139.68 26.8193 L2139.68 41.472 L2135.4 41.472 L2135.4 5.45367 L2139.68 5.45367 L2139.68 19.574 Q2141.21 17.236 2143.27 16.0786 Q2145.35 14.9212 2148.06 14.9212 Q2152.53 14.9212 2154.82 17.699 Q2157.11 20.4536 2157.11 25.8239 Z" fill="#000000" fill-rule="nonzero" fill-opacity="1" /><path clip-path="url(#clip240)" d="M2180.86 6.912 L2185.54 6.912 L2185.54 21.0786 L2202.53 21.0786 L2202.53 6.912 L2207.2 6.912 L2207.2 41.472 L2202.53 41.472 L2202.53 25.0138 L2185.54 25.0138 L2185.54 41.472 L2180.86 41.472 L2180.86 6.912 Z" fill="#000000" fill-rule="nonzero" fill-opacity="1" /><path clip-path="url(#clip240)" d="M2215.88 31.2406 L2215.88 15.5462 L2220.14 15.5462 L2220.14 31.0785 Q2220.14 34.7591 2221.58 36.6109 Q2223.01 38.4396 2225.88 38.4396 Q2229.33 38.4396 2231.32 36.2405 Q2233.34 34.0415 2233.34 30.2452 L2233.34 15.5462 L2237.6 15.5462 L2237.6 41.472 L2233.34 41.472 L2233.34 37.4905 Q2231.79 39.8516 2229.73 41.009 Q2227.69 42.1433 2224.98 42.1433 Q2220.51 42.1433 2218.2 39.3655 Q2215.88 36.5878 2215.88 31.2406 M2226.6 14.9212 L2226.6 14.9212 Z" fill="#000000" fill-rule="nonzero" fill-opacity="1" /><path clip-path="url(#clip240)" d="M2261.39 19.5277 Q2260.68 19.111 2259.82 18.9258 Q2258.99 18.7175 2257.97 18.7175 Q2254.36 18.7175 2252.41 21.0786 Q2250.49 23.4165 2250.49 27.8147 L2250.49 41.472 L2246.21 41.472 L2246.21 15.5462 L2250.49 15.5462 L2250.49 19.574 Q2251.83 17.2129 2253.99 16.0786 Q2256.14 14.9212 2259.22 14.9212 Q2259.66 14.9212 2260.19 14.9907 Q2260.72 15.037 2261.37 15.1527 L2261.39 19.5277 Z" fill="#000000" fill-rule="nonzero" fill-opacity="1" /><path clip-path="url(#clip240)" d="M2282.39 16.3101 L2282.39 20.3379 Q2280.58 19.4119 2278.64 18.949 Q2276.69 18.486 2274.61 18.486 Q2271.44 18.486 2269.84 19.4582 Q2268.27 20.4304 2268.27 22.3749 Q2268.27 23.8564 2269.4 24.7128 Q2270.54 25.5462 2273.96 26.31 L2275.42 26.6341 Q2279.96 27.6063 2281.86 29.3887 Q2283.78 31.148 2283.78 34.3193 Q2283.78 37.9304 2280.91 40.0368 Q2278.06 42.1433 2273.06 42.1433 Q2270.98 42.1433 2268.71 41.7266 Q2266.46 41.3331 2263.96 40.5229 L2263.96 36.1248 Q2266.32 37.3517 2268.62 37.9766 Q2270.91 38.5785 2273.15 38.5785 Q2276.16 38.5785 2277.78 37.56 Q2279.4 36.5183 2279.4 34.6433 Q2279.4 32.9072 2278.22 31.9813 Q2277.06 31.0554 2273.11 30.1989 L2271.62 29.8517 Q2267.67 29.0184 2265.91 27.3054 Q2264.15 25.5693 2264.15 22.5601 Q2264.15 18.9027 2266.74 16.9119 Q2269.33 14.9212 2274.1 14.9212 Q2276.46 14.9212 2278.55 15.2684 Q2280.63 15.6157 2282.39 16.3101 Z" fill="#000000" fill-rule="nonzero" fill-opacity="1" /><path clip-path="url(#clip240)" d="M2294.77 8.18514 L2294.77 15.5462 L2303.55 15.5462 L2303.55 18.8564 L2294.77 18.8564 L2294.77 32.9304 Q2294.77 36.1017 2295.63 37.0044 Q2296.51 37.9072 2299.17 37.9072 L2303.55 37.9072 L2303.55 41.472 L2299.17 41.472 Q2294.24 41.472 2292.37 39.6433 Q2290.49 37.7915 2290.49 32.9304 L2290.49 18.8564 L2287.37 18.8564 L2287.37 15.5462 L2290.49 15.5462 L2290.49 8.18514 L2294.77 8.18514 Z" fill="#000000" fill-rule="nonzero" fill-opacity="1" /><path clip-path="url(#clip240)" d="M2328.34 37.5831 L2328.34 51.3331 L2324.06 51.3331 L2324.06 15.5462 L2328.34 15.5462 L2328.34 19.4814 Q2329.68 17.1666 2331.72 16.0555 Q2333.78 14.9212 2336.62 14.9212 Q2341.35 14.9212 2344.29 18.6712 Q2347.25 22.4212 2347.25 28.5323 Q2347.25 34.6433 2344.29 38.3933 Q2341.35 42.1433 2336.62 42.1433 Q2333.78 42.1433 2331.72 41.0322 Q2329.68 39.8979 2328.34 37.5831 M2342.83 28.5323 Q2342.83 23.8332 2340.88 21.1712 Q2338.96 18.486 2335.58 18.486 Q2332.2 18.486 2330.26 21.1712 Q2328.34 23.8332 2328.34 28.5323 Q2328.34 33.2313 2330.26 35.9165 Q2332.2 38.5785 2335.58 38.5785 Q2338.96 38.5785 2340.88 35.9165 Q2342.83 33.2313 2342.83 28.5323 Z" fill="#000000" fill-rule="nonzero" fill-opacity="1" /><path clip-path="url(#clip240)" d="M2366.09 28.4397 Q2360.93 28.4397 2358.94 29.6202 Q2356.95 30.8008 2356.95 33.648 Q2356.95 35.9165 2358.43 37.2591 Q2359.93 38.5785 2362.5 38.5785 Q2366.05 38.5785 2368.18 36.0785 Q2370.33 33.5554 2370.33 29.3887 L2370.33 28.4397 L2366.09 28.4397 M2374.59 26.6804 L2374.59 41.472 L2370.33 41.472 L2370.33 37.5368 Q2368.87 39.8979 2366.69 41.0322 Q2364.52 42.1433 2361.37 42.1433 Q2357.39 42.1433 2355.03 39.9211 Q2352.69 37.6757 2352.69 33.9257 Q2352.69 29.5508 2355.61 27.3286 Q2358.55 25.1063 2364.36 25.1063 L2370.33 25.1063 L2370.33 24.6897 Q2370.33 21.7499 2368.38 20.1527 Q2366.46 18.5323 2362.97 18.5323 Q2360.74 18.5323 2358.64 19.0647 Q2356.53 19.5971 2354.59 20.6619 L2354.59 16.7268 Q2356.93 15.824 2359.12 15.3842 Q2361.32 14.9212 2363.41 14.9212 Q2369.03 14.9212 2371.81 17.8379 Q2374.59 20.7545 2374.59 26.6804 Z" fill="#000000" fill-rule="nonzero" fill-opacity="1" /><path clip-path="url(#clip240)" d="M2398.38 19.5277 Q2397.67 19.111 2396.81 18.9258 Q2395.98 18.7175 2394.96 18.7175 Q2391.35 18.7175 2389.4 21.0786 Q2387.48 23.4165 2387.48 27.8147 L2387.48 41.472 L2383.2 41.472 L2383.2 15.5462 L2387.48 15.5462 L2387.48 19.574 Q2388.82 17.2129 2390.98 16.0786 Q2393.13 14.9212 2396.21 14.9212 Q2396.65 14.9212 2397.18 14.9907 Q2397.71 15.037 2398.36 15.1527 L2398.38 19.5277 Z" fill="#000000" fill-rule="nonzero" fill-opacity="1" /><path clip-path="url(#clip240)" d="M2414.63 28.4397 Q2409.47 28.4397 2407.48 29.6202 Q2405.49 30.8008 2405.49 33.648 Q2405.49 35.9165 2406.97 37.2591 Q2408.48 38.5785 2411.05 38.5785 Q2414.59 38.5785 2416.72 36.0785 Q2418.87 33.5554 2418.87 29.3887 L2418.87 28.4397 L2414.63 28.4397 M2423.13 26.6804 L2423.13 41.472 L2418.87 41.472 L2418.87 37.5368 Q2417.41 39.8979 2415.24 41.0322 Q2413.06 42.1433 2409.91 42.1433 Q2405.93 42.1433 2403.57 39.9211 Q2401.23 37.6757 2401.23 33.9257 Q2401.23 29.5508 2404.15 27.3286 Q2407.09 25.1063 2412.9 25.1063 L2418.87 25.1063 L2418.87 24.6897 Q2418.87 21.7499 2416.93 20.1527 Q2415 18.5323 2411.51 18.5323 Q2409.29 18.5323 2407.18 19.0647 Q2405.07 19.5971 2403.13 20.6619 L2403.13 16.7268 Q2405.47 15.824 2407.67 15.3842 Q2409.86 14.9212 2411.95 14.9212 Q2417.57 14.9212 2420.35 17.8379 Q2423.13 20.7545 2423.13 26.6804 Z" fill="#000000" fill-rule="nonzero" fill-opacity="1" /><path clip-path="url(#clip240)" d="M2452.09 20.523 Q2453.68 17.6527 2455.91 16.2869 Q2458.13 14.9212 2461.14 14.9212 Q2465.19 14.9212 2467.39 17.7684 Q2469.59 20.5925 2469.59 25.8239 L2469.59 41.472 L2465.3 41.472 L2465.3 25.9628 Q2465.3 22.236 2463.98 20.4304 Q2462.67 18.6249 2459.96 18.6249 Q2456.65 18.6249 2454.73 20.824 Q2452.8 23.023 2452.8 26.8193 L2452.8 41.472 L2448.52 41.472 L2448.52 25.9628 Q2448.52 22.2128 2447.2 20.4304 Q2445.88 18.6249 2443.13 18.6249 Q2439.86 18.6249 2437.94 20.8471 Q2436.02 23.0462 2436.02 26.8193 L2436.02 41.472 L2431.74 41.472 L2431.74 15.5462 L2436.02 15.5462 L2436.02 19.574 Q2437.48 17.1897 2439.52 16.0555 Q2441.55 14.9212 2444.36 14.9212 Q2447.18 14.9212 2449.15 16.3564 Q2451.14 17.7916 2452.09 20.523 Z" fill="#000000" fill-rule="nonzero" fill-opacity="1" /><path clip-path="url(#clip240)" d="M2500.26 27.4443 L2500.26 29.5276 L2480.67 29.5276 Q2480.95 33.9257 2483.31 36.2405 Q2485.7 38.5322 2489.93 38.5322 Q2492.39 38.5322 2494.68 37.9304 Q2496.99 37.3285 2499.26 36.1248 L2499.26 40.1526 Q2496.97 41.1248 2494.56 41.634 Q2492.16 42.1433 2489.68 42.1433 Q2483.48 42.1433 2479.84 38.5322 Q2476.23 34.9211 2476.23 28.7637 Q2476.23 22.398 2479.66 18.6712 Q2483.11 14.9212 2488.94 14.9212 Q2494.17 14.9212 2497.2 18.3008 Q2500.26 21.6573 2500.26 27.4443 M2496 26.1943 Q2495.95 22.699 2494.03 20.6156 Q2492.13 18.5323 2488.98 18.5323 Q2485.42 18.5323 2483.27 20.5462 Q2481.14 22.5601 2480.81 26.2175 L2496 26.1943 Z" fill="#000000" fill-rule="nonzero" fill-opacity="1" /><path clip-path="url(#clip240)" d="M2511.46 8.18514 L2511.46 15.5462 L2520.23 15.5462 L2520.23 18.8564 L2511.46 18.8564 L2511.46 32.9304 Q2511.46 36.1017 2512.32 37.0044 Q2513.2 37.9072 2515.86 37.9072 L2520.23 37.9072 L2520.23 41.472 L2515.86 41.472 Q2510.93 41.472 2509.05 39.6433 Q2507.18 37.7915 2507.18 32.9304 L2507.18 18.8564 L2504.05 18.8564 L2504.05 15.5462 L2507.18 15.5462 L2507.18 8.18514 L2511.46 8.18514 Z" fill="#000000" fill-rule="nonzero" fill-opacity="1" /><path clip-path="url(#clip240)" d="M2548.01 27.4443 L2548.01 29.5276 L2528.43 29.5276 Q2528.71 33.9257 2531.07 36.2405 Q2533.45 38.5322 2537.69 38.5322 Q2540.14 38.5322 2542.43 37.9304 Q2544.75 37.3285 2547.02 36.1248 L2547.02 40.1526 Q2544.73 41.1248 2542.32 41.634 Q2539.91 42.1433 2537.43 42.1433 Q2531.23 42.1433 2527.6 38.5322 Q2523.98 34.9211 2523.98 28.7637 Q2523.98 22.398 2527.41 18.6712 Q2530.86 14.9212 2536.69 14.9212 Q2541.92 14.9212 2544.96 18.3008 Q2548.01 21.6573 2548.01 27.4443 M2543.75 26.1943 Q2543.71 22.699 2541.79 20.6156 Q2539.89 18.5323 2536.74 18.5323 Q2533.17 18.5323 2531.02 20.5462 Q2528.89 22.5601 2528.57 26.2175 L2543.75 26.1943 Z" fill="#000000" fill-rule="nonzero" fill-opacity="1" /><path clip-path="url(#clip240)" d="M2570.03 19.5277 Q2569.31 19.111 2568.45 18.9258 Q2567.62 18.7175 2566.6 18.7175 Q2562.99 18.7175 2561.04 21.0786 Q2559.12 23.4165 2559.12 27.8147 L2559.12 41.472 L2554.84 41.472 L2554.84 15.5462 L2559.12 15.5462 L2559.12 19.574 Q2560.47 17.2129 2562.62 16.0786 Q2564.77 14.9212 2567.85 14.9212 Q2568.29 14.9212 2568.82 14.9907 Q2569.35 15.037 2570 15.1527 L2570.03 19.5277 Z" fill="#000000" fill-rule="nonzero" fill-opacity="1" /><path clip-path="url(#clip240)" d="M2589.75 6.912 L2594.42 6.912 L2594.42 21.0786 L2611.41 21.0786 L2611.41 6.912 L2616.09 6.912 L2616.09 41.472 L2611.41 41.472 L2611.41 25.0138 L2594.42 25.0138 L2594.42 41.472 L2589.75 41.472 L2589.75 6.912 Z" fill="#000000" fill-rule="nonzero" fill-opacity="1" /><path clip-path="url(#clip240)" d="M2625.77 19.9443 L2655.44 19.9443 L2655.44 23.8332 L2625.77 23.8332 L2625.77 19.9443 M2625.77 29.3887 L2655.44 29.3887 L2655.44 33.3239 L2625.77 33.3239 L2625.77 29.3887 Z" fill="#000000" fill-rule="nonzero" fill-opacity="1" /><path clip-path="url(#clip240)" d="M2675.53 9.99069 Q2671.92 9.99069 2670.09 13.5555 Q2668.29 17.0971 2668.29 24.2267 Q2668.29 31.3332 2670.09 34.898 Q2671.92 38.4396 2675.53 38.4396 Q2679.17 38.4396 2680.97 34.898 Q2682.8 31.3332 2682.8 24.2267 Q2682.8 17.0971 2680.97 13.5555 Q2679.17 9.99069 2675.53 9.99069 M2675.53 6.287 Q2681.34 6.287 2684.4 10.8935 Q2687.48 15.4768 2687.48 24.2267 Q2687.48 32.9535 2684.4 37.56 Q2681.34 42.1433 2675.53 42.1433 Q2669.72 42.1433 2666.65 37.56 Q2663.59 32.9535 2663.59 24.2267 Q2663.59 15.4768 2666.65 10.8935 Q2669.72 6.287 2675.53 6.287 Z" fill="#000000" fill-rule="nonzero" fill-opacity="1" /><path clip-path="url(#clip240)" d="M2695.7 35.5924 L2700.58 35.5924 L2700.58 41.472 L2695.7 41.472 L2695.7 35.5924 Z" fill="#000000" fill-rule="nonzero" fill-opacity="1" /><path clip-path="url(#clip240)" d="M2720.77 25.0601 Q2717.43 25.0601 2715.51 26.8424 Q2713.61 28.6248 2713.61 31.7498 Q2713.61 34.8748 2715.51 36.6572 Q2717.43 38.4396 2720.77 38.4396 Q2724.1 38.4396 2726.02 36.6572 Q2727.94 34.8517 2727.94 31.7498 Q2727.94 28.6248 2726.02 26.8424 Q2724.12 25.0601 2720.77 25.0601 M2716.09 23.0693 Q2713.08 22.3286 2711.39 20.2684 Q2709.72 18.2082 2709.72 15.2453 Q2709.72 11.1018 2712.66 8.6944 Q2715.63 6.287 2720.77 6.287 Q2725.93 6.287 2728.87 8.6944 Q2731.81 11.1018 2731.81 15.2453 Q2731.81 18.2082 2730.12 20.2684 Q2728.45 22.3286 2725.47 23.0693 Q2728.84 23.8564 2730.72 26.148 Q2732.62 28.4397 2732.62 31.7498 Q2732.62 36.773 2729.54 39.4581 Q2726.48 42.1433 2720.77 42.1433 Q2715.05 42.1433 2711.97 39.4581 Q2708.91 36.773 2708.91 31.7498 Q2708.91 28.4397 2710.81 26.148 Q2712.71 23.8564 2716.09 23.0693 M2714.38 15.6851 Q2714.38 18.3703 2716.04 19.8749 Q2717.73 21.3795 2720.77 21.3795 Q2723.78 21.3795 2725.47 19.8749 Q2727.18 18.3703 2727.18 15.6851 Q2727.18 12.9999 2725.47 11.4953 Q2723.78 9.99069 2720.77 9.99069 Q2717.73 9.99069 2716.04 11.4953 Q2714.38 12.9999 2714.38 15.6851 Z" fill="#000000" fill-rule="nonzero" fill-opacity="1" /><polyline clip-path="url(#clip242)" style="stroke:#009af9; stroke-linecap:round; stroke-linejoin:round; stroke-width:4; stroke-opacity:1; fill:none" points="335.383,588.369 340.726,593.611 346.068,595.086 351.411,599.923 356.753,613.307 362.095,618.072 367.438,622.573 372.78,619.108 378.123,618.065 383.465,622.591 388.808,632.693 394.15,631.09 399.492,634.618 404.835,631.823 410.177,634.348 415.52,647.282 420.862,661.541 426.204,678.058 431.547,690.885 436.889,695.677 442.232,700.049 447.574,696.313 452.916,695.016 458.259,706.381 463.601,708.948 468.944,715.649 474.286,710.948 479.628,712.563 484.971,717.638 490.313,715.902 495.656,711.215 500.998,711.965 506.34,708.546 511.683,705.892 517.025,704.234 522.368,715.218 527.71,724.324 533.053,727.607 538.395,731.003 543.737,732.702 549.08,727.703 554.422,728.203 559.765,739.283 565.107,741.988 570.449,737.569 575.792,743.098 581.134,754.591 586.477,759.256 591.819,763.677 597.161,772.026 602.504,778.015 607.846,794.522 613.189,803.31 618.531,806.978 623.873,809.589 629.216,813.103 634.558,815.149 639.901,831.961 645.243,830.112 650.586,837.722 655.928,840.355 661.27,838.03 666.613,839.727 671.955,847.331 677.298,848.942 682.64,853.232 687.982,854.258 693.325,860.993 698.667,854.756 704.01,846.889 709.352,838.811 714.694,835.428 720.037,844.139 725.379,844.447 730.722,848.801 736.064,852.442 741.406,854.944 746.749,843.777 752.091,829.912 757.434,827.805 762.776,821.042 768.119,832.482 773.461,848.416 778.803,853.782 784.146,851.65 789.488,849.253 794.831,851.386 800.173,854.533 805.515,856.631 810.858,861.9 816.2,871.877 821.543,869.612 826.885,872.092 832.227,878.486 837.57,881.429 842.912,870.216 848.255,862.358 853.597,857.719 858.939,852.7 864.282,835.933 869.624,831.075 874.967,838.264 880.309,832.03 885.651,824.87 890.994,816.74 896.336,808.69 901.679,794.963 907.021,790.592 912.364,795.484 917.706,799.484 923.048,788.877 928.391,786.389 933.733,782.023 939.076,779.069 944.418,773.397 949.76,770.495 955.103,755.997 960.445,750.024 965.788,751.865 971.13,755.007 976.472,761.782 981.815,762.316 987.157,768.919 992.5,778.719 997.842,787.72 1003.18,788.753 1008.53,786.691 1013.87,785.595 1019.21,797.413 1024.55,812.42 1029.9,826.754 1035.24,841.948 1040.58,846.784 1045.92,852.131 1051.27,843.801 1056.61,843.21 1061.95,837.399 1067.29,816.783 1072.64,814.907 1077.98,810.747 1083.32,802.295 1088.66,800.787 1094.01,797.613 1099.35,796.784 1104.69,792.94 1110.03,794.804 1115.38,790.076 1120.72,789.332 1126.06,790.526 1131.4,794.641 1136.74,790.604 1142.09,784.049 1147.43,790.684 1152.77,795.511 1158.11,790.588 1163.46,790.697 1168.8,789.673 1174.14,780.486 1179.48,784.354 1184.83,780.173 1190.17,779.032 1195.51,785.791 1200.85,793.787 1206.2,799.167 1211.54,801.894 1216.88,799.499 1222.22,796.084 1227.57,790.144 1232.91,784.132 1238.25,779.441 1243.59,775.769 1248.94,782.297 1254.28,789.398 1259.62,801.879 1264.96,804.582 1270.3,805.378 1275.65,809.047 1280.99,812.769 1286.33,814.095 1291.67,825.185 1297.02,835.697 1302.36,836.583 1307.7,822.533 1313.04,820.996 1318.39,826.105 1323.73,831.509 1329.07,827.559 1334.41,822.01 1339.76,819.304 1345.1,815.999 1350.44,819.769 1355.78,817.779 1361.13,824.17 1366.47,825.843 1371.81,837.673 1377.15,846.347 1382.5,857.821 1387.84,863.838 1393.18,877.901 1398.52,891.43 1403.87,903.844 1409.21,916.005 1414.55,914.098 1419.89,915.623 1425.23,917.689 1430.58,929.119 1435.92,936.812 1441.26,936.134 1446.6,936.577 1451.95,928.165 1457.29,926.902 1462.63,927.96 1467.97,917.91 1473.32,918.546 1478.66,922.076 1484,919.624 1489.34,910.907 1494.69,914.374 1500.03,911.586 1505.37,905.381 1510.71,907.093 1516.06,909.037 1521.4,912.481 1526.74,912.264 1532.08,917.268 1537.43,929.476 1542.77,941.077 1548.11,954.013 1553.45,970.189 1558.79,979.827 1564.14,991.032 1569.48,1003.56 1574.82,1019.29 1580.16,1034.29 1585.51,1033.09 1590.85,1034.29 1596.19,1043.44 1601.53,1043.39 1606.88,1048.05 1612.22,1048.94 1617.56,1065.33 1622.9,1076.71 1628.25,1081.03 1633.59,1076.81 1638.93,1072 1644.27,1068.08 1649.62,1067.29 1654.96,1065.11 1660.3,1067.54 1665.64,1062.48 1670.99,1063.34 1676.33,1072.21 1681.67,1062.61 1687.01,1073.78 1692.36,1068.55 1697.7,1076.02 1703.04,1082.38 1708.38,1094.86 1713.72,1098.06 1719.07,1106.28 1724.41,1115.82 1729.75,1115.85 1735.09,1120.82 1740.44,1125.81 1745.78,1138.82 1751.12,1149.3 1756.46,1161.6 1761.81,1169.8 1767.15,1187.53 1772.49,1187.75 1777.83,1204.06 1783.18,1213.8 1788.52,1217.69 1793.86,1223.51 1799.2,1236.35 1804.55,1247.33 1809.89,1243.19 1815.23,1241.33 1820.57,1246.75 1825.92,1244.68 1831.26,1254.71 1836.6,1259.76 1841.94,1259.55 1847.28,1263.95 1852.63,1263.18 1857.97,1271.1 1863.31,1284.35 1868.65,1281.14 1874,1279.93 1879.34,1292.48 1884.68,1295.83 1890.02,1290.66 1895.37,1291.85 1900.71,1294.54 1906.05,1299.63 1911.39,1306 1916.74,1314.52 1922.08,1314.96 1927.42,1309.87 1932.76,1312.67 1938.11,1313.74 1943.45,1307.79 1948.79,1307.52 1954.13,1313.6 1959.48,1303.48 1964.82,1303.19 1970.16,1321.91 1975.5,1328.37 1980.85,1338.19 1986.19,1335.25 1991.53,1338.77 1996.87,1335.13 2002.21,1340.71 2007.56,1351.77 2012.9,1356.34 2018.24,1358.92 2023.58,1358.62 2028.93,1360.85 2034.27,1357.48 2039.61,1364.54 2044.95,1368.1 2050.3,1371.25 2055.64,1375.95 2060.98,1373.17 2066.32,1370.7 2071.67,1372.68 2077.01,1365.99 2082.35,1360.54 2087.69,1349.48 2093.04,1342.16 2098.38,1348.62 2103.72,1355.22 2109.06,1356.65 2114.41,1363.77 2119.75,1366.11 2125.09,1368.33 2130.43,1362.41 2135.78,1359.39 2141.12,1358.9 2146.46,1366.8 2151.8,1358.52 2157.14,1357.84 2162.49,1356.2 2167.83,1349.12 2173.17,1338.98 2178.51,1338.58 2183.86,1334.13 2189.2,1337.31 2194.54,1336.03 2199.88,1334.92 2205.23,1340.15 2210.57,1351.59 2215.91,1352.43 2221.25,1350.74 2226.6,1342.55 2231.94,1349.92 2237.28,1353.5 2242.62,1362.61 2247.97,1371.98 2253.31,1375.99 2258.65,1382.45 2263.99,1387.62 2269.34,1392.07 2274.68,1399.39 2280.02,1405.36 2285.36,1401.99 2290.7,1395.56 2296.05,1387.13 2301.39,1385.86 2306.73,1388.38 2312.07,1385.41 2317.42,1375.81 2322.76,1357.89 2328.1,1357.31 2333.44,1356.32 2338.79,1352.44 2344.13,1354.94 2349.47,1358.05 2354.81,1351.22 2360.16,1345.82 2365.5,1344.11 2370.84,1347.22 2376.18,1341.35 2381.53,1345.46 2386.87,1342.89 2392.21,1347.21 2397.55,1348.11 2402.9,1347.91 2408.24,1343.62 2413.58,1337.11 2418.92,1340.07 2424.27,1334.4 2429.61,1330.31 2434.95,1323.4 2440.29,1313.7 2445.63,1309.41 2450.98,1304.02 2456.32,1308.42 2461.66,1309.75 2467,1314.49 2472.35,1319.93 2477.69,1315.21 2483.03,1322.5 2488.37,1324.42 2493.72,1321.84 2499.06,1324.8 2504.4,1320.42 2509.74,1310.37 2515.09,1306.85 2520.43,1303.27 2525.77,1300.17 2531.11,1296.98 2536.46,1289.18 2541.8,1289.18 2547.14,1279.43 2552.48,1276.44 2557.83,1281.13 2563.17,1276.08 2568.51,1266.87 2573.85,1264.49 2579.19,1257.11 2584.54,1256.25 2589.88,1261.8 2595.22,1261.45 2600.56,1256.18 2605.91,1251.15 2611.25,1247.27 2616.59,1250.89 2621.93,1252.23 2627.28,1245.14 2632.62,1245.64 2637.96,1232.11 2643.3,1223.98 2648.65,1218.97 2653.99,1213.25 2659.33,1202.32 2664.67,1197.26 2670.02,1200.86 2675.36,1206.1 2680.7,1212.36 2686.04,1221.39 2691.39,1225.65 2696.73,1238.21 2702.07,1246.83 2707.41,1246.65 2712.76,1246.15 2718.1,1243.37 2723.44,1239.86 2728.78,1237.88 2734.12,1240.37 2739.47,1241.22 2744.81,1238.11 2750.15,1247.15 2755.49,1258.5 2760.84,1265.88 2766.18,1274.72 2771.52,1270.75 2776.86,1261.51 2782.21,1250.18 2787.55,1245.3 2792.89,1235.93 2798.23,1237.88 2803.58,1232.79 2808.92,1217.65 2814.26,1219.14 2819.6,1219.77 2824.95,1220 2830.29,1224.45 2835.63,1228.05 2840.97,1226.12 2846.32,1216.11 2851.66,1208.33 2857,1211.12 2862.34,1200.44 2867.68,1198.11 2873.03,1190.09 2878.37,1189.12 2883.71,1176.17 2889.05,1158.44 2894.4,1153.91 2899.74,1155.99 2905.08,1161.43 2910.42,1159.87 2915.77,1156.44 2921.11,1155.03 2926.45,1153.62 2931.79,1154.19 2937.14,1150.13 2942.48,1147.44 2947.82,1149.02 2953.16,1156.53 2958.51,1162.39 2963.85,1161.45 2969.19,1166.04 2974.53,1172.02 2979.88,1166.11 2985.22,1170.88 2990.56,1166.01 2995.9,1169.75 3001.25,1176.02 3006.59,1185.21 3011.93,1183.13 3017.27,1190.22 3022.61,1193.78 3027.96,1191.82 3033.3,1193.26 3038.64,1198.86 3043.98,1194.43 3049.33,1203.41 3054.67,1207.35 3060.01,1209.37 3065.35,1205.76 3070.7,1214.02 "/>
<polyline clip-path="url(#clip242)" style="stroke:#e26f46; stroke-linecap:round; stroke-linejoin:round; stroke-width:4; stroke-opacity:1; fill:none" points="335.383,588.369 340.726,581.634 346.068,581.315 351.411,569.884 356.753,560.297 362.095,540.507 367.438,534.041 372.78,531.276 378.123,525.413 383.465,523.835 388.808,513.783 394.15,504.955 399.492,490.684 404.835,485.161 410.177,485.188 415.52,477.433 420.862,464.458 426.204,453.232 431.547,448.018 436.889,444.829 442.232,439.37 447.574,433.807 452.916,423.737 458.259,416.359 463.601,405.457 468.944,397.6 474.286,386.305 479.628,374.213 484.971,368.219 490.313,358.858 495.656,345.861 500.998,334.008 506.34,320.443 511.683,315.346 517.025,313.269 522.368,299.299 527.71,299.089 533.053,298.382 538.395,294.062 543.737,286.265 549.08,279.241 554.422,273.116 559.765,251.653 565.107,246.585 570.449,236.96 575.792,237.89 581.134,231.466 586.477,226.109 591.819,219.246 597.161,217.568 602.504,217.633 607.846,217.459 613.189,213.757 618.531,213.361 623.873,207.317 629.216,208.152 634.558,196.917 639.901,195.15 645.243,198.256 650.586,202.058 655.928,209.047 661.27,210.168 666.613,219.581 671.955,216.911 677.298,202.349 682.64,191.545 687.982,185.539 693.325,182.208 698.667,170.695 704.01,177.092 709.352,181.685 714.694,182.299 720.037,180.558 725.379,172.116 730.722,160.382 736.064,159.919 741.406,163.255 746.749,160.694 752.091,154.406 757.434,146.82 762.776,139.537 768.119,137.961 773.461,137.179 778.803,136.133 784.146,146.566 789.488,142.23 794.831,133.151 800.173,130.569 805.515,128.331 810.858,128.127 816.2,128.98 821.543,127.255 826.885,133.857 832.227,128.498 837.57,130.315 842.912,133.152 848.255,135.075 853.597,137.791 858.939,145.084 864.282,151.335 869.624,160.264 874.967,176.152 880.309,179.732 885.651,185.424 890.994,198.494 896.336,208.851 901.679,212.945 907.021,215.371 912.364,226.697 917.706,230.304 923.048,236.496 928.391,247.984 933.733,248.689 939.076,254.775 944.418,256.3 949.76,261.133 955.103,276.578 960.445,294.254 965.788,312.616 971.13,314.266 976.472,317.291 981.815,325.403 987.157,337.88 992.5,350.148 997.842,355.023 1003.18,363.706 1008.53,378.955 1013.87,395.837 1019.21,405.397 1024.55,418.584 1029.9,422.199 1035.24,434.125 1040.58,434.271 1045.92,453.606 1051.27,470.062 1056.61,487.569 1061.95,493.558 1067.29,490.891 1072.64,497.13 1077.98,508.52 1083.32,513.471 1088.66,527.529 1094.01,532.433 1099.35,536.848 1104.69,549.011 1110.03,554.964 1115.38,556.426 1120.72,567.415 1126.06,578.889 1131.4,577.446 1136.74,579.065 1142.09,580.006 1147.43,578.625 1152.77,582.706 1158.11,581.869 1163.46,581.719 1168.8,583.103 1174.14,577.039 1179.48,574.276 1184.83,572.329 1190.17,566.514 1195.51,561.613 1200.85,554.466 1206.2,557.471 1211.54,565.752 1216.88,570.159 1222.22,579.822 1227.57,587.655 1232.91,584.912 1238.25,596.444 1243.59,602.058 1248.94,612.437 1254.28,619.832 1259.62,632.043 1264.96,638.579 1270.3,629.188 1275.65,632.956 1280.99,630.606 1286.33,633.183 1291.67,643.837 1297.02,643.358 1302.36,642.008 1307.7,639.001 1313.04,642.069 1318.39,641.119 1323.73,638.954 1329.07,637.407 1334.41,642.306 1339.76,643.364 1345.1,645.816 1350.44,649.297 1355.78,656.556 1361.13,665.309 1366.47,666.015 1371.81,672.201 1377.15,682.212 1382.5,682.887 1387.84,679.71 1393.18,680.911 1398.52,688.554 1403.87,680.978 1409.21,684.618 1414.55,679.801 1419.89,678.285 1425.23,673.806 1430.58,669.71 1435.92,667.204 1441.26,668.131 1446.6,672.755 1451.95,682.025 1457.29,688.016 1462.63,698.56 1467.97,702.313 1473.32,701.554 1478.66,716.147 1484,726.458 1489.34,724.994 1494.69,724.518 1500.03,731.964 1505.37,733.501 1510.71,724.224 1516.06,722.651 1521.4,721.237 1526.74,719.512 1532.08,724.129 1537.43,731.472 1542.77,733.235 1548.11,732.013 1553.45,741.267 1558.79,743.335 1564.14,753.252 1569.48,756.685 1574.82,760.512 1580.16,764.112 1585.51,771.016 1590.85,767.609 1596.19,764.652 1601.53,758.322 1606.88,764.197 1612.22,765.264 1617.56,771.118 1622.9,770.861 1628.25,766.905 1633.59,763.34 1638.93,764.024 1644.27,761.02 1649.62,754.886 1654.96,748.707 1660.3,762.1 1665.64,762.825 1670.99,757.585 1676.33,758.389 1681.67,762.196 1687.01,768.545 1692.36,772.855 1697.7,786.18 1703.04,794.789 1708.38,804.792 1713.72,813.514 1719.07,809.669 1724.41,812.294 1729.75,816.851 1735.09,817.243 1740.44,823.93 1745.78,834.418 1751.12,839.207 1756.46,836.685 1761.81,839.669 1767.15,848.14 1772.49,847.036 1777.83,856.842 1783.18,861.677 1788.52,862.066 1793.86,855.363 1799.2,848.938 1804.55,850.962 1809.89,861.114 1815.23,861.063 1820.57,861.492 1825.92,866.957 1831.26,871.103 1836.6,875.252 1841.94,877.6 1847.28,875.523 1852.63,874.608 1857.97,873.787 1863.31,876.459 1868.65,883.208 1874,874.914 1879.34,874.034 1884.68,872.372 1890.02,869.945 1895.37,876.968 1900.71,873.722 1906.05,887.711 1911.39,895.853 1916.74,899.713 1922.08,908.074 1927.42,914.988 1932.76,915.678 1938.11,910.676 1943.45,917.023 1948.79,914.214 1954.13,907.783 1959.48,907.992 1964.82,913.494 1970.16,910.272 1975.5,911.236 1980.85,909.681 1986.19,907.847 1991.53,897.795 1996.87,892.13 2002.21,883.596 2007.56,884.754 2012.9,891.394 2018.24,891.187 2023.58,894.294 2028.93,887.862 2034.27,879.421 2039.61,873.968 2044.95,870.626 2050.3,872.278 2055.64,875.352 2060.98,878.039 2066.32,880.393 2071.67,882.518 2077.01,879.915 2082.35,876.124 2087.69,869.93 2093.04,871.494 2098.38,871.869 2103.72,875.585 2109.06,868.346 2114.41,869.283 2119.75,856.043 2125.09,841.812 2130.43,837.507 2135.78,829.601 2141.12,817.406 2146.46,814.898 2151.8,809.781 2157.14,803.664 2162.49,795.917 2167.83,789.997 2173.17,785.581 2178.51,787.573 2183.86,789.521 2189.2,790.827 2194.54,797.065 2199.88,785.742 2205.23,780.452 2210.57,775.66 2215.91,763.443 2221.25,754.454 2226.6,743.871 2231.94,731.174 2237.28,725.787 2242.62,717.422 2247.97,715.873 2253.31,714.742 2258.65,706.628 2263.99,702.497 2269.34,700.709 2274.68,698.243 2280.02,697.057 2285.36,695.887 2290.7,705.921 2296.05,713.944 2301.39,716.824 2306.73,723.091 2312.07,729.038 2317.42,729.866 2322.76,739.744 2328.1,748.988 2333.44,745.639 2338.79,753.128 2344.13,757.31 2349.47,765.903 2354.81,765.438 2360.16,774.84 2365.5,779.196 2370.84,779.919 2376.18,778.762 2381.53,780.043 2386.87,782.803 2392.21,793.314 2397.55,813.178 2402.9,829.909 2408.24,829.899 2413.58,831.801 2418.92,835.944 2424.27,837.71 2429.61,845.36 2434.95,843.357 2440.29,844.287 2445.63,845.827 2450.98,847.129 2456.32,848.885 2461.66,847.671 2467,848.914 2472.35,843.261 2477.69,841.002 2483.03,847.017 2488.37,852.588 2493.72,853.003 2499.06,857.381 2504.4,854.893 2509.74,858.141 2515.09,855.498 2520.43,851.925 2525.77,852.332 2531.11,848.576 2536.46,847.959 2541.8,845.099 2547.14,847.191 2552.48,842.682 2557.83,840.823 2563.17,832.551 2568.51,827.966 2573.85,817.66 2579.19,809.661 2584.54,805.979 2589.88,801.303 2595.22,794.736 2600.56,792.979 2605.91,789.782 2611.25,786.403 2616.59,778.617 2621.93,771.643 2627.28,766.456 2632.62,772.94 2637.96,773.286 2643.3,769.039 2648.65,762.827 2653.99,758.641 2659.33,753.235 2664.67,744.253 2670.02,741.975 2675.36,740.006 2680.7,742.643 2686.04,733.924 2691.39,736.298 2696.73,732.269 2702.07,725.418 2707.41,722.987 2712.76,712.875 2718.1,710.422 2723.44,710.001 2728.78,706.473 2734.12,697.667 2739.47,689.34 2744.81,680.482 2750.15,667.803 2755.49,660.894 2760.84,643.131 2766.18,627.704 2771.52,624.328 2776.86,615.914 2782.21,604.712 2787.55,594.509 2792.89,595.522 2798.23,596.625 2803.58,591.161 2808.92,578.188 2814.26,574.808 2819.6,566.333 2824.95,553.655 2830.29,546.4 2835.63,535.837 2840.97,522.438 2846.32,507.983 2851.66,498.733 2857,486.905 2862.34,475.047 2867.68,465.266 2873.03,458.028 2878.37,450.311 2883.71,444.476 2889.05,439.844 2894.4,436.412 2899.74,431.149 2905.08,417.248 2910.42,417.245 2915.77,415.293 2921.11,414.961 2926.45,417.705 2931.79,419.794 2937.14,419.128 2942.48,422.168 2947.82,422.652 2953.16,436.677 2958.51,430.575 2963.85,434.521 2969.19,438.749 2974.53,440.324 2979.88,439.684 2985.22,438.945 2990.56,439.415 2995.9,436.668 3001.25,440.104 3006.59,436.831 3011.93,424.345 3017.27,411.578 3022.61,407.333 3027.96,404.276 3033.3,403.656 3038.64,400.701 3043.98,401.784 3049.33,396.789 3054.67,377.451 3060.01,364.082 3065.35,360.867 3070.7,354.817 "/>
<polyline clip-path="url(#clip242)" style="stroke:#3da44d; stroke-linecap:round; stroke-linejoin:round; stroke-width:4; stroke-opacity:1; fill:none" points="335.383,588.369 340.726,581.269 346.068,579.773 351.411,567.577 356.753,563.85 362.095,555.892 367.438,548.862 372.78,555.134 378.123,556.737 383.465,558.731 388.808,575.871 394.15,586.177 399.492,593.708 404.835,597.143 410.177,603.871 415.52,605.38 420.862,606.269 426.204,612.092 431.547,608.32 436.889,614.926 442.232,625.209 447.574,632.998 452.916,650.14 458.259,660.635 463.601,671.472 468.944,685.854 474.286,694.186 479.628,702.963 484.971,717.843 490.313,733.689 495.656,743.875 500.998,745.124 506.34,751.022 511.683,756.096 517.025,764.94 522.368,759.253 527.71,757.787 533.053,756.794 538.395,760.107 543.737,757.629 549.08,760.292 554.422,764.198 559.765,763.824 565.107,763.951 570.449,756.825 575.792,762.182 581.134,759.222 586.477,761.678 591.819,758.189 597.161,753.322 602.504,761.171 607.846,757.547 613.189,761.601 618.531,762.317 623.873,755.292 629.216,750.363 634.558,744.534 639.901,735.88 645.243,735.419 650.586,728.916 655.928,727.725 661.27,714.754 666.613,715.985 671.955,707.824 677.298,707.395 682.64,703.396 687.982,709.234 693.325,724.604 698.667,734.911 704.01,734.652 709.352,730.621 714.694,731.488 720.037,739.895 725.379,729.73 730.722,719.917 736.064,715.385 741.406,716.151 746.749,719.567 752.091,730.261 757.434,743.543 762.776,748.984 768.119,758.8 773.461,763.437 778.803,773.978 784.146,772.881 789.488,774.711 794.831,774.886 800.173,768.891 805.515,763.341 810.858,758.213 816.2,757.207 821.543,753.94 826.885,753.143 832.227,758.445 837.57,755.947 842.912,758.158 848.255,753.903 853.597,744.874 858.939,732.685 864.282,723.912 869.624,720.621 874.967,718.739 880.309,727.841 885.651,716.479 890.994,709.665 896.336,716.886 901.679,709.974 907.021,704.64 912.364,696.672 917.706,701.522 923.048,696.325 928.391,687.658 933.733,678.885 939.076,666.702 944.418,652.673 949.76,645.466 955.103,654.768 960.445,660.57 965.788,659.744 971.13,659.4 976.472,654.282 981.815,658.023 987.157,651.708 992.5,656.975 997.842,655.735 1003.18,641.013 1008.53,630.393 1013.87,622.07 1019.21,614.793 1024.55,606.264 1029.9,603.171 1035.24,590.233 1040.58,584.514 1045.92,582.392 1051.27,576.755 1056.61,581.289 1061.95,578.1 1067.29,582.616 1072.64,591.872 1077.98,581.682 1083.32,579.479 1088.66,580.698 1094.01,586.874 1099.35,597.628 1104.69,596.577 1110.03,585.505 1115.38,581.899 1120.72,581.158 1126.06,580.282 1131.4,576.489 1136.74,577.333 1142.09,584.6 1147.43,579.252 1152.77,577.277 1158.11,574.606 1163.46,571.592 1168.8,581.211 1174.14,582.199 1179.48,586.472 1184.83,582.181 1190.17,580.492 1195.51,571.282 1200.85,573.153 1206.2,568.412 1211.54,566.614 1216.88,565.659 1222.22,561.902 1227.57,555.06 1232.91,547.647 1238.25,534.715 1243.59,524.127 1248.94,515.824 1254.28,508.83 1259.62,509.963 1264.96,509.809 1270.3,506.569 1275.65,496.693 1280.99,493.64 1286.33,497.528 1291.67,514.039 1297.02,517.51 1302.36,522.128 1307.7,516.29 1313.04,516.622 1318.39,503.082 1323.73,505.741 1329.07,503.725 1334.41,511.571 1339.76,521.713 1345.1,525.938 1350.44,525.036 1355.78,532.128 1361.13,535.728 1366.47,540.451 1371.81,548.039 1377.15,545.228 1382.5,548.812 1387.84,551.439 1393.18,554.32 1398.52,557.473 1403.87,561.034 1409.21,555.897 1414.55,551.744 1419.89,547.288 1425.23,541.581 1430.58,544.371 1435.92,539.268 1441.26,539.836 1446.6,538.987 1451.95,542.091 1457.29,543.598 1462.63,540.219 1467.97,550.201 1473.32,550.804 1478.66,554.49 1484,553.821 1489.34,547.471 1494.69,551.658 1500.03,564.722 1505.37,559.644 1510.71,563.637 1516.06,566.931 1521.4,578.727 1526.74,583.102 1532.08,584.673 1537.43,583.514 1542.77,591.385 1548.11,594.405 1553.45,594.073 1558.79,606.817 1564.14,610.692 1569.48,614.229 1574.82,615.146 1580.16,615.368 1585.51,608.062 1590.85,611.993 1596.19,609.272 1601.53,613.836 1606.88,616.533 1612.22,620.799 1617.56,625.043 1622.9,619.929 1628.25,623.076 1633.59,623.771 1638.93,618.852 1644.27,615.308 1649.62,610.634 1654.96,607.019 1660.3,611.681 1665.64,616.244 1670.99,622.749 1676.33,635.445 1681.67,639.722 1687.01,633.31 1692.36,624.393 1697.7,620.218 1703.04,620.3 1708.38,611.06 1713.72,612.147 1719.07,618.374 1724.41,623.197 1729.75,619.806 1735.09,619.349 1740.44,622.268 1745.78,615.729 1751.12,618.45 1756.46,614.516 1761.81,617.525 1767.15,626.06 1772.49,620.812 1777.83,621.901 1783.18,618.581 1788.52,614.446 1793.86,613.552 1799.2,607.563 1804.55,603.341 1809.89,608.563 1815.23,612.888 1820.57,620.366 1825.92,634.517 1831.26,648.112 1836.6,648.598 1841.94,659.001 1847.28,669.734 1852.63,680.132 1857.97,679.298 1863.31,684.354 1868.65,688.465 1874,688.307 1879.34,694.978 1884.68,704.319 1890.02,706.439 1895.37,707.616 1900.71,714.589 1906.05,717.143 1911.39,721.331 1916.74,725.997 1922.08,725.088 1927.42,735.679 1932.76,743.994 1938.11,759.696 1943.45,769.908 1948.79,783.274 1954.13,793.872 1959.48,799.881 1964.82,809.347 1970.16,818.439 1975.5,827.605 1980.85,822.933 1986.19,826.895 1991.53,825.762 1996.87,830.638 2002.21,833.854 2007.56,835.216 2012.9,841.128 2018.24,843.375 2023.58,852.326 2028.93,857.243 2034.27,852.492 2039.61,858.585 2044.95,866.251 2050.3,872.004 2055.64,893.069 2060.98,899.741 2066.32,904.725 2071.67,912.384 2077.01,925.184 2082.35,922.283 2087.69,914.995 2093.04,915.43 2098.38,913.997 2103.72,905.897 2109.06,904.161 2114.41,898.958 2119.75,903.087 2125.09,902.453 2130.43,901.123 2135.78,900.883 2141.12,891.227 2146.46,888.516 2151.8,887.244 2157.14,890.057 2162.49,888.995 2167.83,896.563 2173.17,901.365 2178.51,905.907 2183.86,917.183 2189.2,920.568 2194.54,921.902 2199.88,920.296 2205.23,929.171 2210.57,938.127 2215.91,949.117 2221.25,968.753 2226.6,990.947 2231.94,1011.83 2237.28,1017.22 2242.62,1024.83 2247.97,1032.15 2253.31,1031.48 2258.65,1035 2263.99,1041.99 2269.34,1027.39 2274.68,1021.92 2280.02,1024.57 2285.36,1030.36 2290.7,1035.36 2296.05,1042.37 2301.39,1041.72 2306.73,1044.75 2312.07,1062.04 2317.42,1070.4 2322.76,1080.53 2328.1,1086.34 2333.44,1104.72 2338.79,1106.05 2344.13,1116.91 2349.47,1127.14 2354.81,1133.34 2360.16,1135.6 2365.5,1135.51 2370.84,1146.05 2376.18,1153.88 2381.53,1160.42 2386.87,1163.82 2392.21,1171.67 2397.55,1181.45 2402.9,1191.95 2408.24,1201.52 2413.58,1199.63 2418.92,1207.37 2424.27,1217.87 2429.61,1212.97 2434.95,1215.7 2440.29,1217.63 2445.63,1217.11 2450.98,1217.86 2456.32,1217.38 2461.66,1211.11 2467,1206.8 2472.35,1210.66 2477.69,1212.96 2483.03,1216.7 2488.37,1214.97 2493.72,1221.46 2499.06,1224.84 2504.4,1219.74 2509.74,1221.45 2515.09,1223.16 2520.43,1223.03 2525.77,1227.85 2531.11,1232.44 2536.46,1233.76 2541.8,1224.99 2547.14,1226.3 2552.48,1219.62 2557.83,1210.78 2563.17,1220.69 2568.51,1225.55 2573.85,1219.64 2579.19,1222.53 2584.54,1230.55 2589.88,1231.33 2595.22,1242.03 2600.56,1247.66 2605.91,1257.78 2611.25,1271.63 2616.59,1260.86 2621.93,1265.97 2627.28,1272.24 2632.62,1276.8 2637.96,1278.88 2643.3,1269.01 2648.65,1254.4 2653.99,1259.71 2659.33,1253.98 2664.67,1253.11 2670.02,1255.11 2675.36,1260.56 2680.7,1259.63 2686.04,1262.01 2691.39,1259.73 2696.73,1259.01 2702.07,1261.92 2707.41,1261.83 2712.76,1261.6 2718.1,1266.39 2723.44,1267.95 2728.78,1270.4 2734.12,1279.98 2739.47,1278.21 2744.81,1277.52 2750.15,1269.23 2755.49,1270.9 2760.84,1268.17 2766.18,1261.79 2771.52,1256.21 2776.86,1244.28 2782.21,1244.71 2787.55,1237.43 2792.89,1238.48 2798.23,1229.83 2803.58,1218.83 2808.92,1224.74 2814.26,1225.66 2819.6,1228.51 2824.95,1226.06 2830.29,1226.61 2835.63,1220.54 2840.97,1225.72 2846.32,1218.75 2851.66,1218.35 2857,1216.09 2862.34,1213.64 2867.68,1216.62 2873.03,1211.19 2878.37,1205.46 2883.71,1208.04 2889.05,1215.92 2894.4,1228.76 2899.74,1232.9 2905.08,1230.51 2910.42,1226.03 2915.77,1222.16 2921.11,1230.03 2926.45,1227.96 2931.79,1226 2937.14,1218.94 2942.48,1225.9 2947.82,1223.34 2953.16,1235.96 2958.51,1249.14 2963.85,1260.66 2969.19,1276.95 2974.53,1281.72 2979.88,1284.98 2985.22,1285.78 2990.56,1287.86 2995.9,1289.31 3001.25,1284.63 3006.59,1290.25 3011.93,1286.13 3017.27,1297.23 3022.61,1311.14 3027.96,1314.22 3033.3,1309.92 3038.64,1312.22 3043.98,1313.89 3049.33,1309.13 3054.67,1305.8 3060.01,1304.38 3065.35,1302.75 3070.7,1296.14 "/>
</svg>
