<?xml version="1.0" encoding="utf-8"?>
<svg xmlns="http://www.w3.org/2000/svg" xmlns:xlink="http://www.w3.org/1999/xlink" width="600" height="400" viewBox="0 0 2400 1600">
<defs>
  <clipPath id="clip510">
    <rect x="0" y="0" width="2400" height="1600"/>
  </clipPath>
</defs>
<path clip-path="url(#clip510)" d="M0 1600 L2400 1600 L2400 0 L0 0  Z" fill="#ffffff" fill-rule="evenodd" fill-opacity="1"/>
<defs>
  <clipPath id="clip511">
    <rect x="480" y="0" width="1681" height="1600"/>
  </clipPath>
</defs>
<path clip-path="url(#clip510)" d="M258.519 1410.9 L2352.76 1410.9 L2352.76 47.2441 L258.519 47.2441  Z" fill="#ffffff" fill-rule="evenodd" fill-opacity="1"/>
<defs>
  <clipPath id="clip512">
    <rect x="258" y="47" width="2095" height="1365"/>
  </clipPath>
</defs>
<polyline clip-path="url(#clip512)" style="stroke:#000000; stroke-linecap:round; stroke-linejoin:round; stroke-width:2; stroke-opacity:0.1; fill:none" points="1210.9,1410.9 1210.9,47.2441 "/>
<polyline clip-path="url(#clip512)" style="stroke:#000000; stroke-linecap:round; stroke-linejoin:round; stroke-width:2; stroke-opacity:0.1; fill:none" points="2304.75,1410.9 2304.75,47.2441 "/>
<polyline clip-path="url(#clip512)" style="stroke:#000000; stroke-linecap:round; stroke-linejoin:round; stroke-width:2; stroke-opacity:0.1; fill:none" points="258.519,1205.77 2352.76,1205.77 "/>
<polyline clip-path="url(#clip512)" style="stroke:#000000; stroke-linecap:round; stroke-linejoin:round; stroke-width:2; stroke-opacity:0.1; fill:none" points="258.519,869.631 2352.76,869.631 "/>
<polyline clip-path="url(#clip512)" style="stroke:#000000; stroke-linecap:round; stroke-linejoin:round; stroke-width:2; stroke-opacity:0.1; fill:none" points="258.519,533.489 2352.76,533.489 "/>
<polyline clip-path="url(#clip512)" style="stroke:#000000; stroke-linecap:round; stroke-linejoin:round; stroke-width:2; stroke-opacity:0.1; fill:none" points="258.519,197.346 2352.76,197.346 "/>
<polyline clip-path="url(#clip510)" style="stroke:#000000; stroke-linecap:round; stroke-linejoin:round; stroke-width:4; stroke-opacity:1; fill:none" points="258.519,1410.9 2352.76,1410.9 "/>
<polyline clip-path="url(#clip510)" style="stroke:#000000; stroke-linecap:round; stroke-linejoin:round; stroke-width:4; stroke-opacity:1; fill:none" points="1210.9,1410.9 1210.9,1392 "/>
<polyline clip-path="url(#clip510)" style="stroke:#000000; stroke-linecap:round; stroke-linejoin:round; stroke-width:4; stroke-opacity:1; fill:none" points="2304.75,1410.9 2304.75,1392 "/>
<path clip-path="url(#clip510)" d="M1142.14 1485.02 L1149.78 1485.02 L1149.78 1458.66 L1141.47 1460.32 L1141.47 1456.06 L1149.73 1454.4 L1154.41 1454.4 L1154.41 1485.02 L1162.05 1485.02 L1162.05 1488.96 L1142.14 1488.96 L1142.14 1485.02 Z" fill="#000000" fill-rule="nonzero" fill-opacity="1" /><path clip-path="url(#clip510)" d="M1181.49 1457.48 Q1177.88 1457.48 1176.05 1461.04 Q1174.25 1464.58 1174.25 1471.71 Q1174.25 1478.82 1176.05 1482.38 Q1177.88 1485.92 1181.49 1485.92 Q1185.13 1485.92 1186.93 1482.38 Q1188.76 1478.82 1188.76 1471.71 Q1188.76 1464.58 1186.93 1461.04 Q1185.13 1457.48 1181.49 1457.48 M1181.49 1453.77 Q1187.3 1453.77 1190.36 1458.38 Q1193.44 1462.96 1193.44 1471.71 Q1193.44 1480.44 1190.36 1485.04 Q1187.3 1489.63 1181.49 1489.63 Q1175.68 1489.63 1172.6 1485.04 Q1169.55 1480.44 1169.55 1471.71 Q1169.55 1462.96 1172.6 1458.38 Q1175.68 1453.77 1181.49 1453.77 Z" fill="#000000" fill-rule="nonzero" fill-opacity="1" /><path clip-path="url(#clip510)" d="M1193.44 1447.87 L1217.55 1447.87 L1217.55 1451.07 L1193.44 1451.07 L1193.44 1447.87 Z" fill="#000000" fill-rule="nonzero" fill-opacity="1" /><path clip-path="url(#clip510)" d="M1229.02 1458.35 L1242.28 1458.35 L1242.28 1461.55 L1224.45 1461.55 L1224.45 1458.35 Q1226.61 1456.11 1230.34 1452.35 Q1234.08 1448.57 1235.04 1447.48 Q1236.86 1445.43 1237.58 1444.02 Q1238.31 1442.59 1238.31 1441.22 Q1238.31 1438.98 1236.73 1437.57 Q1235.17 1436.16 1232.65 1436.16 Q1230.86 1436.16 1228.87 1436.78 Q1226.9 1437.4 1224.64 1438.66 L1224.64 1434.82 Q1226.93 1433.9 1228.93 1433.43 Q1230.92 1432.96 1232.58 1432.96 Q1236.94 1432.96 1239.53 1435.14 Q1242.13 1437.32 1242.13 1440.97 Q1242.13 1442.7 1241.47 1444.26 Q1240.83 1445.8 1239.12 1447.91 Q1238.65 1448.46 1236.13 1451.07 Q1233.61 1453.67 1229.02 1458.35 Z" fill="#000000" fill-rule="nonzero" fill-opacity="1" /><path clip-path="url(#clip510)" d="M1250.25 1456.77 L1254.22 1456.77 L1254.22 1461.55 L1250.25 1461.55 L1250.25 1456.77 Z" fill="#000000" fill-rule="nonzero" fill-opacity="1" /><path clip-path="url(#clip510)" d="M1270.62 1435.97 Q1267.69 1435.97 1266.2 1438.86 Q1264.74 1441.74 1264.74 1447.53 Q1264.74 1453.31 1266.2 1456.2 Q1267.69 1459.08 1270.62 1459.08 Q1273.58 1459.08 1275.04 1456.2 Q1276.53 1453.31 1276.53 1447.53 Q1276.53 1441.74 1275.04 1438.86 Q1273.58 1435.97 1270.62 1435.97 M1270.62 1432.96 Q1275.34 1432.96 1277.83 1436.7 Q1280.33 1440.43 1280.33 1447.53 Q1280.33 1454.62 1277.83 1458.37 Q1275.34 1462.09 1270.62 1462.09 Q1265.9 1462.09 1263.4 1458.37 Q1260.92 1454.62 1260.92 1447.53 Q1260.92 1440.43 1263.4 1436.7 Q1265.9 1432.96 1270.62 1432.96 Z" fill="#000000" fill-rule="nonzero" fill-opacity="1" /><path clip-path="url(#clip510)" d="M2236.4 1485.02 L2244.04 1485.02 L2244.04 1458.66 L2235.73 1460.32 L2235.73 1456.06 L2243.99 1454.4 L2248.67 1454.4 L2248.67 1485.02 L2256.31 1485.02 L2256.31 1488.96 L2236.4 1488.96 L2236.4 1485.02 Z" fill="#000000" fill-rule="nonzero" fill-opacity="1" /><path clip-path="url(#clip510)" d="M2275.75 1457.48 Q2272.14 1457.48 2270.31 1461.04 Q2268.5 1464.58 2268.5 1471.71 Q2268.5 1478.82 2270.31 1482.38 Q2272.14 1485.92 2275.75 1485.92 Q2279.38 1485.92 2281.19 1482.38 Q2283.02 1478.82 2283.02 1471.71 Q2283.02 1464.58 2281.19 1461.04 Q2279.38 1457.48 2275.75 1457.48 M2275.75 1453.77 Q2281.56 1453.77 2284.62 1458.38 Q2287.69 1462.96 2287.69 1471.71 Q2287.69 1480.44 2284.62 1485.04 Q2281.56 1489.63 2275.75 1489.63 Q2269.94 1489.63 2266.86 1485.04 Q2263.81 1480.44 2263.81 1471.71 Q2263.81 1462.96 2266.86 1458.38 Q2269.94 1453.77 2275.75 1453.77 Z" fill="#000000" fill-rule="nonzero" fill-opacity="1" /><path clip-path="url(#clip510)" d="M2287.69 1447.87 L2311.81 1447.87 L2311.81 1451.07 L2287.69 1451.07 L2287.69 1447.87 Z" fill="#000000" fill-rule="nonzero" fill-opacity="1" /><path clip-path="url(#clip510)" d="M2320.66 1458.35 L2326.87 1458.35 L2326.87 1436.93 L2320.12 1438.28 L2320.12 1434.82 L2326.83 1433.47 L2330.63 1433.47 L2330.63 1458.35 L2336.84 1458.35 L2336.84 1461.55 L2320.66 1461.55 L2320.66 1458.35 Z" fill="#000000" fill-rule="nonzero" fill-opacity="1" /><path clip-path="url(#clip510)" d="M2344.51 1456.77 L2348.48 1456.77 L2348.48 1461.55 L2344.51 1461.55 L2344.51 1456.77 Z" fill="#000000" fill-rule="nonzero" fill-opacity="1" /><path clip-path="url(#clip510)" d="M2356.79 1433.47 L2371.71 1433.47 L2371.71 1436.66 L2360.27 1436.66 L2360.27 1443.55 Q2361.1 1443.27 2361.93 1443.13 Q2362.76 1442.98 2363.58 1442.98 Q2368.29 1442.98 2371.03 1445.56 Q2373.78 1448.14 2373.78 1452.54 Q2373.78 1457.07 2370.96 1459.59 Q2368.13 1462.09 2363 1462.09 Q2361.23 1462.09 2359.39 1461.79 Q2357.56 1461.49 2355.61 1460.89 L2355.61 1457.07 Q2357.3 1457.99 2359.11 1458.44 Q2360.91 1458.89 2362.92 1458.89 Q2366.18 1458.89 2368.08 1457.18 Q2369.98 1455.47 2369.98 1452.54 Q2369.98 1449.6 2368.08 1447.89 Q2366.18 1446.18 2362.92 1446.18 Q2361.4 1446.18 2359.88 1446.52 Q2358.37 1446.86 2356.79 1447.57 L2356.79 1433.47 Z" fill="#000000" fill-rule="nonzero" fill-opacity="1" /><path clip-path="url(#clip510)" d="M1267.19 1568.04 Q1267.19 1567.79 1268.06 1566.11 Q1268.92 1564.41 1271.98 1558.32 Q1275.04 1552.2 1278.2 1545.79 L1289.57 1522.92 Q1290.37 1521.48 1291.4 1521.48 Q1292.34 1521.48 1292.76 1522.05 Q1293.18 1522.63 1295.11 1526.53 Q1296.11 1528.43 1296.69 1529.66 L1315.33 1566.98 Q1315.66 1567.79 1315.69 1568.04 Q1315.69 1568.69 1314.56 1568.69 L1268.92 1568.69 Q1267.19 1568.69 1267.19 1568.04 M1271.53 1563.66 L1307.02 1563.66 L1289.28 1528.05 L1271.53 1563.66 Z" fill="#000000" fill-rule="nonzero" fill-opacity="1" /><path clip-path="url(#clip510)" d="M1340.77 1540.99 Q1340.77 1541.89 1340.36 1542.12 Q1339.94 1542.31 1338.78 1542.31 L1332.59 1542.31 L1327.7 1561.76 Q1327.31 1563.47 1327.31 1564.92 Q1327.31 1566.53 1327.8 1567.24 Q1328.31 1567.95 1329.37 1567.95 Q1331.47 1567.95 1333.72 1566.05 Q1336.01 1564.15 1337.94 1559.51 Q1338.2 1558.9 1338.33 1558.77 Q1338.49 1558.61 1338.91 1558.61 Q1339.71 1558.61 1339.71 1559.25 Q1339.71 1559.48 1339.26 1560.51 Q1338.84 1561.54 1337.91 1563.05 Q1337.01 1564.57 1335.81 1565.98 Q1334.65 1567.4 1332.88 1568.43 Q1331.11 1569.43 1329.21 1569.43 Q1326.54 1569.43 1324.83 1567.72 Q1323.16 1566.02 1323.16 1563.34 Q1323.16 1562.47 1323.83 1559.7 Q1324.51 1556.9 1328.18 1542.31 L1322.35 1542.31 Q1321.55 1542.31 1321.23 1542.28 Q1320.94 1542.25 1320.71 1542.09 Q1320.52 1541.89 1320.52 1541.51 Q1320.52 1540.9 1320.77 1540.64 Q1321.03 1540.35 1321.35 1540.32 Q1321.71 1540.25 1322.51 1540.25 L1328.7 1540.25 L1331.27 1529.78 Q1331.53 1528.75 1332.18 1528.17 Q1332.85 1527.56 1333.24 1527.5 Q1333.62 1527.4 1333.91 1527.4 Q1334.78 1527.4 1335.3 1527.88 Q1335.81 1528.34 1335.81 1529.17 Q1335.81 1529.62 1333.11 1540.25 L1338.91 1540.25 Q1339.65 1540.25 1339.94 1540.28 Q1340.26 1540.32 1340.52 1540.48 Q1340.77 1540.64 1340.77 1540.99 Z" fill="#000000" fill-rule="nonzero" fill-opacity="1" /><polyline clip-path="url(#clip510)" style="stroke:#000000; stroke-linecap:round; stroke-linejoin:round; stroke-width:4; stroke-opacity:1; fill:none" points="258.519,1410.9 258.519,47.2441 "/>
<polyline clip-path="url(#clip510)" style="stroke:#000000; stroke-linecap:round; stroke-linejoin:round; stroke-width:4; stroke-opacity:1; fill:none" points="258.519,1205.77 277.417,1205.77 "/>
<polyline clip-path="url(#clip510)" style="stroke:#000000; stroke-linecap:round; stroke-linejoin:round; stroke-width:4; stroke-opacity:1; fill:none" points="258.519,869.631 277.417,869.631 "/>
<polyline clip-path="url(#clip510)" style="stroke:#000000; stroke-linecap:round; stroke-linejoin:round; stroke-width:4; stroke-opacity:1; fill:none" points="258.519,533.489 277.417,533.489 "/>
<polyline clip-path="url(#clip510)" style="stroke:#000000; stroke-linecap:round; stroke-linejoin:round; stroke-width:4; stroke-opacity:1; fill:none" points="258.519,197.346 277.417,197.346 "/>
<path clip-path="url(#clip510)" d="M115.063 1225.57 L122.702 1225.57 L122.702 1199.2 L114.392 1200.87 L114.392 1196.61 L122.656 1194.94 L127.332 1194.94 L127.332 1225.57 L134.97 1225.57 L134.97 1229.5 L115.063 1229.5 L115.063 1225.57 Z" fill="#000000" fill-rule="nonzero" fill-opacity="1" /><path clip-path="url(#clip510)" d="M154.415 1198.02 Q150.804 1198.02 148.975 1201.58 Q147.169 1205.13 147.169 1212.26 Q147.169 1219.36 148.975 1222.93 Q150.804 1226.47 154.415 1226.47 Q158.049 1226.47 159.855 1222.93 Q161.683 1219.36 161.683 1212.26 Q161.683 1205.13 159.855 1201.58 Q158.049 1198.02 154.415 1198.02 M154.415 1194.32 Q160.225 1194.32 163.28 1198.92 Q166.359 1203.51 166.359 1212.26 Q166.359 1220.98 163.28 1225.59 Q160.225 1230.17 154.415 1230.17 Q148.605 1230.17 145.526 1225.59 Q142.47 1220.98 142.47 1212.26 Q142.47 1203.51 145.526 1198.92 Q148.605 1194.32 154.415 1194.32 Z" fill="#000000" fill-rule="nonzero" fill-opacity="1" /><path clip-path="url(#clip510)" d="M176.064 1176.51 Q173.13 1176.51 171.644 1179.41 Q170.177 1182.29 170.177 1188.08 Q170.177 1193.85 171.644 1196.75 Q173.13 1199.63 176.064 1199.63 Q179.017 1199.63 180.484 1196.75 Q181.97 1193.85 181.97 1188.08 Q181.97 1182.29 180.484 1179.41 Q179.017 1176.51 176.064 1176.51 M176.064 1173.5 Q180.785 1173.5 183.267 1177.25 Q185.769 1180.97 185.769 1188.08 Q185.769 1195.17 183.267 1198.91 Q180.785 1202.64 176.064 1202.64 Q171.343 1202.64 168.842 1198.91 Q166.359 1195.17 166.359 1188.08 Q166.359 1180.97 168.842 1177.25 Q171.343 1173.5 176.064 1173.5 Z" fill="#000000" fill-rule="nonzero" fill-opacity="1" /><path clip-path="url(#clip510)" d="M192.446 1197.31 L196.414 1197.31 L196.414 1202.09 L192.446 1202.09 L192.446 1197.31 Z" fill="#000000" fill-rule="nonzero" fill-opacity="1" /><path clip-path="url(#clip510)" d="M212.814 1176.51 Q209.88 1176.51 208.394 1179.41 Q206.927 1182.29 206.927 1188.08 Q206.927 1193.85 208.394 1196.75 Q209.88 1199.63 212.814 1199.63 Q215.767 1199.63 217.234 1196.75 Q218.72 1193.85 218.72 1188.08 Q218.72 1182.29 217.234 1179.41 Q215.767 1176.51 212.814 1176.51 M212.814 1173.5 Q217.535 1173.5 220.018 1177.25 Q222.519 1180.97 222.519 1188.08 Q222.519 1195.17 220.018 1198.91 Q217.535 1202.64 212.814 1202.64 Q208.094 1202.64 205.592 1198.91 Q203.11 1195.17 203.11 1188.08 Q203.11 1180.97 205.592 1177.25 Q208.094 1173.5 212.814 1173.5 Z" fill="#000000" fill-rule="nonzero" fill-opacity="1" /><path clip-path="url(#clip510)" d="M115.59 889.424 L123.229 889.424 L123.229 863.058 L114.918 864.725 L114.918 860.465 L123.182 858.799 L127.858 858.799 L127.858 889.424 L135.497 889.424 L135.497 893.359 L115.59 893.359 L115.59 889.424 Z" fill="#000000" fill-rule="nonzero" fill-opacity="1" /><path clip-path="url(#clip510)" d="M154.941 861.878 Q151.33 861.878 149.502 865.442 Q147.696 868.984 147.696 876.114 Q147.696 883.22 149.502 886.785 Q151.33 890.326 154.941 890.326 Q158.576 890.326 160.381 886.785 Q162.21 883.22 162.21 876.114 Q162.21 868.984 160.381 865.442 Q158.576 861.878 154.941 861.878 M154.941 858.174 Q160.752 858.174 163.807 862.78 Q166.886 867.364 166.886 876.114 Q166.886 884.84 163.807 889.447 Q160.752 894.03 154.941 894.03 Q149.131 894.03 146.053 889.447 Q142.997 884.84 142.997 876.114 Q142.997 867.364 146.053 862.78 Q149.131 858.174 154.941 858.174 Z" fill="#000000" fill-rule="nonzero" fill-opacity="1" /><path clip-path="url(#clip510)" d="M176.591 840.37 Q173.657 840.37 172.171 843.266 Q170.704 846.144 170.704 851.937 Q170.704 857.711 172.171 860.607 Q173.657 863.485 176.591 863.485 Q179.543 863.485 181.01 860.607 Q182.496 857.711 182.496 851.937 Q182.496 846.144 181.01 843.266 Q179.543 840.37 176.591 840.37 M176.591 837.361 Q181.311 837.361 183.794 841.103 Q186.295 844.827 186.295 851.937 Q186.295 859.027 183.794 862.77 Q181.311 866.494 176.591 866.494 Q171.87 866.494 169.368 862.77 Q166.886 859.027 166.886 851.937 Q166.886 844.827 169.368 841.103 Q171.87 837.361 176.591 837.361 Z" fill="#000000" fill-rule="nonzero" fill-opacity="1" /><path clip-path="url(#clip510)" d="M192.972 861.171 L196.941 861.171 L196.941 865.948 L192.972 865.948 L192.972 861.171 Z" fill="#000000" fill-rule="nonzero" fill-opacity="1" /><path clip-path="url(#clip510)" d="M216.726 850.808 Q219.453 851.391 220.977 853.234 Q222.519 855.078 222.519 857.786 Q222.519 861.942 219.66 864.218 Q216.802 866.494 211.535 866.494 Q209.767 866.494 207.887 866.137 Q206.025 865.798 204.031 865.102 L204.031 861.435 Q205.611 862.356 207.492 862.826 Q209.372 863.297 211.423 863.297 Q214.996 863.297 216.858 861.886 Q218.739 860.475 218.739 857.786 Q218.739 855.303 216.99 853.911 Q215.259 852.501 212.156 852.501 L208.883 852.501 L208.883 849.379 L212.307 849.379 Q215.109 849.379 216.595 848.269 Q218.08 847.141 218.08 845.034 Q218.08 842.871 216.538 841.724 Q215.015 840.558 212.156 840.558 Q210.595 840.558 208.808 840.896 Q207.022 841.235 204.877 841.95 L204.877 838.564 Q207.04 837.962 208.921 837.662 Q210.821 837.361 212.495 837.361 Q216.82 837.361 219.341 839.335 Q221.861 841.291 221.861 844.639 Q221.861 846.971 220.526 848.589 Q219.19 850.188 216.726 850.808 Z" fill="#000000" fill-rule="nonzero" fill-opacity="1" /><path clip-path="url(#clip510)" d="M114.931 553.281 L122.57 553.281 L122.57 526.916 L114.26 528.582 L114.26 524.323 L122.524 522.656 L127.2 522.656 L127.2 553.281 L134.839 553.281 L134.839 557.216 L114.931 557.216 L114.931 553.281 Z" fill="#000000" fill-rule="nonzero" fill-opacity="1" /><path clip-path="url(#clip510)" d="M154.283 525.735 Q150.672 525.735 148.843 529.3 Q147.038 532.841 147.038 539.971 Q147.038 547.077 148.843 550.642 Q150.672 554.184 154.283 554.184 Q157.917 554.184 159.723 550.642 Q161.552 547.077 161.552 539.971 Q161.552 532.841 159.723 529.3 Q157.917 525.735 154.283 525.735 M154.283 522.031 Q160.093 522.031 163.149 526.638 Q166.227 531.221 166.227 539.971 Q166.227 548.698 163.149 553.304 Q160.093 557.888 154.283 557.888 Q148.473 557.888 145.394 553.304 Q142.339 548.698 142.339 539.971 Q142.339 531.221 145.394 526.638 Q148.473 522.031 154.283 522.031 Z" fill="#000000" fill-rule="nonzero" fill-opacity="1" /><path clip-path="url(#clip510)" d="M175.932 504.227 Q172.998 504.227 171.512 507.124 Q170.045 510.001 170.045 515.794 Q170.045 521.568 171.512 524.465 Q172.998 527.342 175.932 527.342 Q178.885 527.342 180.352 524.465 Q181.838 521.568 181.838 515.794 Q181.838 510.001 180.352 507.124 Q178.885 504.227 175.932 504.227 M175.932 501.218 Q180.653 501.218 183.136 504.961 Q185.637 508.685 185.637 515.794 Q185.637 522.885 183.136 526.627 Q180.653 530.351 175.932 530.351 Q171.212 530.351 168.71 526.627 Q166.227 522.885 166.227 515.794 Q166.227 508.685 168.71 504.961 Q171.212 501.218 175.932 501.218 Z" fill="#000000" fill-rule="nonzero" fill-opacity="1" /><path clip-path="url(#clip510)" d="M192.314 525.029 L196.282 525.029 L196.282 529.806 L192.314 529.806 L192.314 525.029 Z" fill="#000000" fill-rule="nonzero" fill-opacity="1" /><path clip-path="url(#clip510)" d="M213.153 514.252 Q210.595 514.252 209.09 516.001 Q207.605 517.75 207.605 520.797 Q207.605 523.825 209.09 525.593 Q210.595 527.342 213.153 527.342 Q215.711 527.342 217.197 525.593 Q218.701 523.825 218.701 520.797 Q218.701 517.75 217.197 516.001 Q215.711 514.252 213.153 514.252 M220.695 502.347 L220.695 505.807 Q219.265 505.13 217.798 504.773 Q216.35 504.415 214.921 504.415 Q211.159 504.415 209.166 506.954 Q207.191 509.494 206.909 514.628 Q208.018 512.992 209.692 512.127 Q211.366 511.243 213.379 511.243 Q217.61 511.243 220.055 513.819 Q222.519 516.377 222.519 520.797 Q222.519 525.123 219.961 527.737 Q217.403 530.351 213.153 530.351 Q208.282 530.351 205.705 526.627 Q203.128 522.885 203.128 515.794 Q203.128 509.136 206.288 505.187 Q209.448 501.218 214.77 501.218 Q216.2 501.218 217.648 501.5 Q219.115 501.782 220.695 502.347 Z" fill="#000000" fill-rule="nonzero" fill-opacity="1" /><path clip-path="url(#clip510)" d="M115.214 217.139 L122.852 217.139 L122.852 190.773 L114.542 192.44 L114.542 188.18 L122.806 186.514 L127.482 186.514 L127.482 217.139 L135.121 217.139 L135.121 221.074 L115.214 221.074 L115.214 217.139 Z" fill="#000000" fill-rule="nonzero" fill-opacity="1" /><path clip-path="url(#clip510)" d="M154.565 189.592 Q150.954 189.592 149.125 193.157 Q147.32 196.699 147.32 203.829 Q147.32 210.935 149.125 214.5 Q150.954 218.041 154.565 218.041 Q158.199 218.041 160.005 214.5 Q161.834 210.935 161.834 203.829 Q161.834 196.699 160.005 193.157 Q158.199 189.592 154.565 189.592 M154.565 185.889 Q160.375 185.889 163.431 190.495 Q166.51 195.079 166.51 203.829 Q166.51 212.555 163.431 217.162 Q160.375 221.745 154.565 221.745 Q148.755 221.745 145.676 217.162 Q142.621 212.555 142.621 203.829 Q142.621 195.079 145.676 190.495 Q148.755 185.889 154.565 185.889 Z" fill="#000000" fill-rule="nonzero" fill-opacity="1" /><path clip-path="url(#clip510)" d="M176.214 168.085 Q173.28 168.085 171.795 170.981 Q170.328 173.859 170.328 179.652 Q170.328 185.426 171.795 188.322 Q173.28 191.2 176.214 191.2 Q179.167 191.2 180.634 188.322 Q182.12 185.426 182.12 179.652 Q182.12 173.859 180.634 170.981 Q179.167 168.085 176.214 168.085 M176.214 165.076 Q180.935 165.076 183.418 168.818 Q185.919 172.542 185.919 179.652 Q185.919 186.742 183.418 190.485 Q180.935 194.209 176.214 194.209 Q171.494 194.209 168.992 190.485 Q166.51 186.742 166.51 179.652 Q166.51 172.542 168.992 168.818 Q171.494 165.076 176.214 165.076 Z" fill="#000000" fill-rule="nonzero" fill-opacity="1" /><path clip-path="url(#clip510)" d="M192.596 188.886 L196.564 188.886 L196.564 193.663 L192.596 193.663 L192.596 188.886 Z" fill="#000000" fill-rule="nonzero" fill-opacity="1" /><path clip-path="url(#clip510)" d="M204.953 193.08 L204.953 189.62 Q206.382 190.297 207.849 190.654 Q209.316 191.012 210.727 191.012 Q214.488 191.012 216.463 188.491 Q218.457 185.952 218.739 180.799 Q217.648 182.416 215.974 183.282 Q214.3 184.147 212.269 184.147 Q208.056 184.147 205.592 181.608 Q203.147 179.05 203.147 174.63 Q203.147 170.304 205.705 167.69 Q208.263 165.076 212.513 165.076 Q217.385 165.076 219.942 168.818 Q222.519 172.542 222.519 179.652 Q222.519 186.291 219.359 190.259 Q216.219 194.209 210.896 194.209 Q209.467 194.209 208 193.927 Q206.533 193.645 204.953 193.08 M212.513 181.175 Q215.071 181.175 216.557 179.426 Q218.062 177.677 218.062 174.63 Q218.062 171.602 216.557 169.853 Q215.071 168.085 212.513 168.085 Q209.956 168.085 208.451 169.853 Q206.965 171.602 206.965 174.63 Q206.965 177.677 208.451 179.426 Q209.956 181.175 212.513 181.175 Z" fill="#000000" fill-rule="nonzero" fill-opacity="1" /><path clip-path="url(#clip510)" d="M49.4968 798.693 Q43.281 798.693 38.8688 794.699 Q34.4566 790.706 34.4566 784.973 Q34.4566 779.176 38.2247 776.181 Q41.9928 773.154 47.4034 773.154 Q48.4018 773.154 48.595 773.411 Q48.7882 773.669 48.7882 774.796 L48.7882 793.218 Q55.5192 793.218 58.6754 791.221 Q63.0876 788.451 63.0876 783.782 Q63.0876 783.138 62.9588 782.365 Q62.83 781.592 62.2825 780.014 Q61.7028 778.435 60.1891 777.051 Q58.6754 775.666 56.2922 774.861 Q55.3582 774.667 55.3904 774.023 Q55.3904 773.154 56.1634 773.154 Q56.7431 773.154 58.0635 773.798 Q59.3517 774.41 60.8976 775.601 Q62.4435 776.793 63.6029 779.112 Q64.7623 781.398 64.7623 784.168 Q64.7623 789.965 60.3823 794.345 Q55.9701 798.693 49.4968 798.693 M47.4034 793.154 L47.4034 777.502 Q46.0185 777.502 44.4726 777.759 Q42.9268 777.985 40.8012 778.693 Q38.6434 779.369 37.2907 780.98 Q35.9381 782.59 35.9381 784.973 Q35.9381 786.036 36.389 787.195 Q36.8398 788.323 37.9348 789.708 Q39.0298 791.092 41.5097 792.059 Q43.9895 793.025 47.4034 793.154 Z" fill="#000000" fill-rule="nonzero" fill-opacity="1" /><path clip-path="url(#clip510)" d="M64.0216 771.017 L61.9926 771.017 Q61.9926 767.507 61.5739 766.702 Q61.1231 765.864 58.9975 765.864 L41.3165 765.864 Q38.8688 765.864 38.2569 766.734 Q37.645 767.571 37.645 771.017 L35.5838 771.017 L34.8753 761.839 L42.1216 761.839 Q39.2875 760.905 37.0975 758.94 Q34.8753 756.943 34.8753 753.723 Q34.8753 751.597 36.0669 750.244 Q37.2585 748.86 38.901 748.86 Q40.3503 748.86 41.091 749.761 Q41.7996 750.631 41.7996 751.694 Q41.7996 752.885 41.0588 753.723 Q40.2859 754.528 38.9654 754.528 Q38.1603 754.528 37.5484 754.174 Q36.9043 753.787 36.6788 753.497 Q36.4534 753.207 36.389 753.014 Q36.3246 753.143 36.3246 753.723 Q36.3246 757.362 39.9638 759.455 Q43.5709 761.517 48.7238 761.517 L58.8687 761.517 Q60.7688 761.517 61.3807 760.744 Q61.9926 759.938 61.9926 756.492 L61.9926 755.108 L64.0216 755.108 Q63.8284 757.748 63.8284 763.481 Q63.8284 764.286 63.8606 765.542 Q63.8928 766.798 63.9572 768.441 Q64.0216 770.083 64.0216 771.017 Z" fill="#000000" fill-rule="nonzero" fill-opacity="1" /><path clip-path="url(#clip510)" d="M64.0216 744.136 L61.9926 744.136 Q61.9926 740.626 61.5739 739.821 Q61.1231 738.983 58.9975 738.983 L41.3165 738.983 Q38.8688 738.983 38.2569 739.853 Q37.645 740.69 37.645 744.136 L35.5838 744.136 L34.8753 734.958 L42.1216 734.958 Q39.2875 734.024 37.0975 732.059 Q34.8753 730.062 34.8753 726.842 Q34.8753 724.716 36.0669 723.364 Q37.2585 721.979 38.901 721.979 Q40.3503 721.979 41.091 722.881 Q41.7996 723.75 41.7996 724.813 Q41.7996 726.005 41.0588 726.842 Q40.2859 727.647 38.9654 727.647 Q38.1603 727.647 37.5484 727.293 Q36.9043 726.906 36.6788 726.616 Q36.4534 726.327 36.389 726.133 Q36.3246 726.262 36.3246 726.842 Q36.3246 730.481 39.9638 732.575 Q43.5709 734.636 48.7238 734.636 L58.8687 734.636 Q60.7688 734.636 61.3807 733.863 Q61.9926 733.058 61.9926 729.612 L61.9926 728.227 L64.0216 728.227 Q63.8284 730.868 63.8284 736.6 Q63.8284 737.405 63.8606 738.661 Q63.8928 739.917 63.9572 741.56 Q64.0216 743.202 64.0216 744.136 Z" fill="#000000" fill-rule="nonzero" fill-opacity="1" /><path clip-path="url(#clip510)" d="M60.479 711.963 Q56.1634 716.311 49.9154 716.311 Q43.6353 716.311 39.0621 712.059 Q34.4566 707.776 34.4566 701.657 Q34.4566 695.667 39.0298 691.383 Q43.5709 687.068 49.9154 687.068 Q56.1312 687.068 60.4467 691.416 Q64.7623 695.731 64.7623 701.721 Q64.7623 707.583 60.479 711.963 M49.3679 710.836 Q55.7769 710.836 58.6754 709.161 Q63.0876 706.584 63.0876 701.657 Q63.0876 699.209 61.7672 697.18 Q60.4467 695.119 58.2245 693.992 Q55.326 692.543 49.3679 692.543 Q43.0234 692.543 40.2215 694.282 Q35.9381 696.858 35.9381 701.721 Q35.9381 703.847 37.0653 705.94 Q38.1603 708.002 40.3503 709.258 Q43.2488 710.836 49.3679 710.836 Z" fill="#000000" fill-rule="nonzero" fill-opacity="1" /><path clip-path="url(#clip510)" d="M64.0216 684.967 L61.9926 684.967 Q61.9926 681.456 61.5739 680.651 Q61.1231 679.814 58.9975 679.814 L41.3165 679.814 Q38.8688 679.814 38.2569 680.683 Q37.645 681.521 37.645 684.967 L35.5838 684.967 L34.8753 675.788 L42.1216 675.788 Q39.2875 674.854 37.0975 672.889 Q34.8753 670.893 34.8753 667.672 Q34.8753 665.546 36.0669 664.194 Q37.2585 662.809 38.901 662.809 Q40.3503 662.809 41.091 663.711 Q41.7996 664.58 41.7996 665.643 Q41.7996 666.835 41.0588 667.672 Q40.2859 668.477 38.9654 668.477 Q38.1603 668.477 37.5484 668.123 Q36.9043 667.736 36.6788 667.447 Q36.4534 667.157 36.389 666.963 Q36.3246 667.092 36.3246 667.672 Q36.3246 671.311 39.9638 673.405 Q43.5709 675.466 48.7238 675.466 L58.8687 675.466 Q60.7688 675.466 61.3807 674.693 Q61.9926 673.888 61.9926 670.442 L61.9926 669.057 L64.0216 669.057 Q63.8284 671.698 63.8284 677.43 Q63.8284 678.236 63.8606 679.492 Q63.8928 680.748 63.9572 682.39 Q64.0216 684.033 64.0216 684.967 Z" fill="#000000" fill-rule="nonzero" fill-opacity="1" /><polyline clip-path="url(#clip512)" style="stroke:#1f77b4; stroke-linecap:round; stroke-linejoin:round; stroke-width:4; stroke-opacity:1; fill:none" points="2293.49,164.499 1634.92,552.318 976.355,940.138 317.79,1327.96 "/>
<polyline clip-path="url(#clip512)" style="stroke:#000000; stroke-linecap:round; stroke-linejoin:round; stroke-width:4; stroke-opacity:1; fill:none" points="2293.49,201.13 2293.49,85.838 "/>
<polyline clip-path="url(#clip512)" style="stroke:#000000; stroke-linecap:round; stroke-linejoin:round; stroke-width:4; stroke-opacity:1; fill:none" points="1634.92,646.847 1634.92,526.456 "/>
<polyline clip-path="url(#clip512)" style="stroke:#000000; stroke-linecap:round; stroke-linejoin:round; stroke-width:4; stroke-opacity:1; fill:none" points="976.355,1014.82 976.355,896.664 "/>
<polyline clip-path="url(#clip512)" style="stroke:#000000; stroke-linecap:round; stroke-linejoin:round; stroke-width:4; stroke-opacity:1; fill:none" points="317.79,1372.3 317.79,1254.3 "/>
<line clip-path="url(#clip512)" x1="2309.49" y1="201.13" x2="2277.49" y2="201.13" style="stroke:#000000; stroke-width:4; stroke-opacity:1"/>
<line clip-path="url(#clip512)" x1="2309.49" y1="85.838" x2="2277.49" y2="85.838" style="stroke:#000000; stroke-width:4; stroke-opacity:1"/>
<line clip-path="url(#clip512)" x1="1650.92" y1="646.847" x2="1618.92" y2="646.847" style="stroke:#000000; stroke-width:4; stroke-opacity:1"/>
<line clip-path="url(#clip512)" x1="1650.92" y1="526.456" x2="1618.92" y2="526.456" style="stroke:#000000; stroke-width:4; stroke-opacity:1"/>
<line clip-path="url(#clip512)" x1="992.355" y1="1014.82" x2="960.355" y2="1014.82" style="stroke:#000000; stroke-width:4; stroke-opacity:1"/>
<line clip-path="url(#clip512)" x1="992.355" y1="896.664" x2="960.355" y2="896.664" style="stroke:#000000; stroke-width:4; stroke-opacity:1"/>
<line clip-path="url(#clip512)" x1="333.79" y1="1372.3" x2="301.79" y2="1372.3" style="stroke:#000000; stroke-width:4; stroke-opacity:1"/>
<line clip-path="url(#clip512)" x1="333.79" y1="1254.3" x2="301.79" y2="1254.3" style="stroke:#000000; stroke-width:4; stroke-opacity:1"/>
<circle clip-path="url(#clip512)" cx="2293.49" cy="140.077" r="14.4" fill="#ff7e0d" fill-rule="evenodd" fill-opacity="1" stroke="#000000" stroke-opacity="1" stroke-width="3.2"/>
<circle clip-path="url(#clip512)" cx="1634.92" cy="582.938" r="14.4" fill="#ff7e0d" fill-rule="evenodd" fill-opacity="1" stroke="#000000" stroke-opacity="1" stroke-width="3.2"/>
<circle clip-path="url(#clip512)" cx="976.355" cy="952.163" r="14.4" fill="#ff7e0d" fill-rule="evenodd" fill-opacity="1" stroke="#000000" stroke-opacity="1" stroke-width="3.2"/>
<circle clip-path="url(#clip512)" cx="317.79" cy="1309.73" r="14.4" fill="#ff7e0d" fill-rule="evenodd" fill-opacity="1" stroke="#000000" stroke-opacity="1" stroke-width="3.2"/>
<path clip-path="url(#clip510)" d="M328.327 248.219 L1544.82 248.219 L1544.82 92.6992 L328.327 92.6992  Z" fill="#ffffff" fill-rule="evenodd" fill-opacity="1"/>
<polyline clip-path="url(#clip510)" style="stroke:#000000; stroke-linecap:round; stroke-linejoin:round; stroke-width:4; stroke-opacity:1; fill:none" points="328.327,248.219 1544.82,248.219 1544.82,92.6992 328.327,92.6992 328.327,248.219 "/>
<polyline clip-path="url(#clip510)" style="stroke:#1f77b4; stroke-linecap:round; stroke-linejoin:round; stroke-width:4; stroke-opacity:1; fill:none" points="351.596,144.539 491.212,144.539 "/>
<path clip-path="url(#clip510)" d="M548.538 133.915 L545.516 146.142 Q545.305 146.915 545.165 147.008 Q545.048 147.102 544.673 147.102 Q543.947 147.102 543.947 146.61 Q543.947 146.563 544.017 145.954 Q544.087 145.322 544.087 144.174 Q544.087 139.935 542.026 137.428 Q539.988 134.922 536.358 134.922 Q533.219 134.922 530.057 136.515 Q526.919 138.108 524.67 140.708 Q522.984 142.675 521.742 145.158 Q520.524 147.641 519.939 149.913 Q519.377 152.185 519.119 153.894 Q518.861 155.604 518.861 156.846 Q518.861 158.649 519.236 160.172 Q519.634 161.694 520.337 162.772 Q521.04 163.826 521.93 164.645 Q522.843 165.442 523.897 165.91 Q524.975 166.379 526.052 166.613 Q527.13 166.824 528.254 166.824 Q532.774 166.824 537.084 163.31 Q540.504 160.429 541.933 155.721 Q542.05 155.253 542.541 155.253 Q543.127 155.253 543.127 155.721 Q543.127 155.815 543.01 156.283 Q542.893 156.729 542.541 157.642 Q542.19 158.532 541.651 159.539 Q541.113 160.546 540.106 161.811 Q539.098 163.076 537.857 164.177 Q535.749 166.004 533.079 167.152 Q530.409 168.299 527.481 168.299 Q523.827 168.299 520.876 166.683 Q517.924 165.067 516.191 162.045 Q514.481 159.024 514.481 155.159 Q514.481 151.084 516.355 147.078 Q518.229 143.073 521.204 140.099 Q524.178 137.124 528.113 135.274 Q532.048 133.423 535.983 133.423 Q537.482 133.423 538.817 133.821 Q540.152 134.22 540.949 134.711 Q541.769 135.203 542.495 135.929 Q543.221 136.632 543.455 136.96 Q543.713 137.288 543.947 137.686 L547.296 134.009 Q547.882 133.423 548.022 133.423 Q548.303 133.423 548.421 133.587 Q548.538 133.751 548.538 133.915 Z" fill="#000000" fill-rule="nonzero" fill-opacity="1" /><path clip-path="url(#clip510)" d="M552.276 166.777 Q552.276 166.589 552.909 165.371 Q553.541 164.13 555.766 159.703 Q557.992 155.253 560.287 150.592 L568.555 133.962 Q569.141 132.908 569.89 132.908 Q570.569 132.908 570.874 133.329 Q571.178 133.751 572.584 136.585 Q573.31 137.967 573.731 138.857 L587.293 166.004 Q587.527 166.589 587.551 166.777 Q587.551 167.245 586.731 167.245 L553.541 167.245 Q552.276 167.245 552.276 166.777 M555.439 163.591 L581.25 163.591 L568.344 137.686 L555.439 163.591 Z" fill="#000000" fill-rule="nonzero" fill-opacity="1" /><path clip-path="url(#clip510)" d="M606.554 147.102 Q606.554 147.758 606.249 147.922 Q605.945 148.062 605.102 148.062 L600.605 148.062 L597.044 162.209 Q596.763 163.451 596.763 164.505 Q596.763 165.676 597.115 166.191 Q597.489 166.706 598.262 166.706 Q599.785 166.706 601.424 165.325 Q603.087 163.943 604.493 160.57 Q604.68 160.125 604.774 160.031 Q604.891 159.914 605.195 159.914 Q605.781 159.914 605.781 160.382 Q605.781 160.546 605.453 161.296 Q605.149 162.045 604.469 163.146 Q603.813 164.247 602.947 165.278 Q602.104 166.308 600.815 167.058 Q599.527 167.784 598.145 167.784 Q596.201 167.784 594.96 166.543 Q593.742 165.301 593.742 163.357 Q593.742 162.725 594.234 160.71 Q594.726 158.673 597.396 148.062 L593.156 148.062 Q592.571 148.062 592.336 148.039 Q592.126 148.015 591.962 147.898 Q591.821 147.758 591.821 147.477 Q591.821 147.032 592.009 146.844 Q592.196 146.633 592.43 146.61 Q592.688 146.563 593.273 146.563 L597.77 146.563 L599.644 138.951 Q599.832 138.201 600.3 137.78 Q600.792 137.335 601.073 137.288 Q601.354 137.218 601.565 137.218 Q602.197 137.218 602.572 137.569 Q602.947 137.897 602.947 138.506 Q602.947 138.834 600.979 146.563 L605.195 146.563 Q605.734 146.563 605.945 146.587 Q606.179 146.61 606.366 146.727 Q606.554 146.844 606.554 147.102 Z" fill="#000000" fill-rule="nonzero" fill-opacity="1" /><path clip-path="url(#clip510)" d="M629.063 125.999 Q629.063 128.392 627.849 130.704 Q626.653 133.016 624.767 134.442 Q622.882 135.852 620.963 135.852 Q619.816 135.852 619.045 135.229 Q618.291 134.59 617.881 133.688 Q617.569 134.803 616.897 137.476 Q616.225 140.148 616.225 140.41 Q616.225 140.558 616.258 140.624 Q616.29 140.689 616.438 140.771 Q616.586 140.87 616.946 140.902 Q617.307 140.952 617.914 140.952 Q618.225 140.952 618.34 140.952 Q618.471 140.968 618.586 141.05 Q618.717 141.132 618.717 141.312 Q618.717 141.984 618.11 141.984 Q617.569 141.984 616.454 141.935 Q615.339 141.886 614.782 141.886 Q614.307 141.886 613.356 141.935 Q612.405 141.984 611.962 141.984 Q611.519 141.984 611.519 141.591 Q611.519 141.361 611.585 141.214 Q611.634 141.083 611.765 141.017 Q611.896 140.968 612.011 140.952 Q612.11 140.952 612.306 140.952 Q613.06 140.952 613.388 140.82 Q613.716 140.706 613.831 140.46 Q613.962 140.23 614.11 139.574 L617.881 124.621 Q618.11 123.621 618.11 122.916 Q618.11 122.031 617.832 121.703 Q617.553 121.375 617.061 121.375 Q616.208 121.375 615.651 122.392 Q615.094 123.408 614.618 125.376 Q614.471 125.917 614.372 126.031 Q614.29 126.146 614.044 126.146 Q613.634 126.13 613.634 125.802 Q613.634 125.72 613.765 125.195 Q613.897 124.654 614.143 123.867 Q614.405 123.064 614.684 122.556 Q614.848 122.211 614.995 121.982 Q615.143 121.752 615.438 121.391 Q615.749 121.031 616.192 120.834 Q616.635 120.637 617.176 120.637 Q618.225 120.637 619.094 121.26 Q619.963 121.883 620.193 123.146 Q621.127 122.047 622.275 121.342 Q623.423 120.637 624.587 120.637 Q626.521 120.637 627.784 122.146 Q629.063 123.638 629.063 125.999 M626.636 124.523 Q626.636 123.031 626.062 122.211 Q625.505 121.375 624.488 121.375 Q623.226 121.375 621.767 122.654 Q620.324 123.867 620.029 124.998 L618.373 131.573 L618.274 132.114 Q618.274 132.213 618.324 132.508 Q618.389 132.786 618.569 133.246 Q618.766 133.705 619.029 134.115 Q619.307 134.508 619.799 134.803 Q620.307 135.098 620.93 135.098 Q621.931 135.098 623.013 134.213 Q624.111 133.328 624.931 131.655 Q625.439 130.573 626.029 128.245 Q626.636 125.9 626.636 124.523 Z" fill="#000000" fill-rule="nonzero" fill-opacity="1" /><path clip-path="url(#clip510)" d="M666.67 131.227 L666.67 134.769 L662.596 134.769 Q660.304 134.769 659.401 135.694 Q658.522 136.62 658.522 139.028 L658.522 141.319 L665.536 141.319 L665.536 144.63 L658.522 144.63 L658.522 167.245 L654.239 167.245 L654.239 144.63 L650.165 144.63 L650.165 141.319 L654.239 141.319 L654.239 139.514 Q654.239 135.185 656.253 133.218 Q658.267 131.227 662.642 131.227 L666.67 131.227 Z" fill="#000000" fill-rule="nonzero" fill-opacity="1" /><path clip-path="url(#clip510)" d="M670.235 141.319 L674.494 141.319 L674.494 167.245 L670.235 167.245 L670.235 141.319 M670.235 131.227 L674.494 131.227 L674.494 136.62 L670.235 136.62 L670.235 131.227 Z" fill="#000000" fill-rule="nonzero" fill-opacity="1" /><path clip-path="url(#clip510)" d="M687.619 133.958 L687.619 141.319 L696.392 141.319 L696.392 144.63 L687.619 144.63 L687.619 158.704 Q687.619 161.875 688.475 162.778 Q689.355 163.68 692.017 163.68 L696.392 163.68 L696.392 167.245 L692.017 167.245 Q687.086 167.245 685.211 165.417 Q683.336 163.565 683.336 158.704 L683.336 144.63 L680.211 144.63 L680.211 141.319 L683.336 141.319 L683.336 133.958 L687.619 133.958 Z" fill="#000000" fill-rule="nonzero" fill-opacity="1" /><path clip-path="url(#clip510)" d="M714.586 141.319 L718.846 141.319 L724.17 161.551 L729.47 141.319 L734.494 141.319 L739.818 161.551 L745.119 141.319 L749.378 141.319 L742.595 167.245 L737.572 167.245 L731.994 145.995 L726.392 167.245 L721.369 167.245 L714.586 141.319 Z" fill="#000000" fill-rule="nonzero" fill-opacity="1" /><path clip-path="url(#clip510)" d="M755.836 141.319 L760.095 141.319 L760.095 167.245 L755.836 167.245 L755.836 141.319 M755.836 131.227 L760.095 131.227 L760.095 136.62 L755.836 136.62 L755.836 131.227 Z" fill="#000000" fill-rule="nonzero" fill-opacity="1" /><path clip-path="url(#clip510)" d="M773.22 133.958 L773.22 141.319 L781.993 141.319 L781.993 144.63 L773.22 144.63 L773.22 158.704 Q773.22 161.875 774.077 162.778 Q774.956 163.68 777.618 163.68 L781.993 163.68 L781.993 167.245 L777.618 167.245 Q772.688 167.245 770.813 165.417 Q768.938 163.565 768.938 158.704 L768.938 144.63 L765.813 144.63 L765.813 141.319 L768.938 141.319 L768.938 133.958 L773.22 133.958 Z" fill="#000000" fill-rule="nonzero" fill-opacity="1" /><path clip-path="url(#clip510)" d="M809.146 151.597 L809.146 167.245 L804.887 167.245 L804.887 151.736 Q804.887 148.055 803.452 146.227 Q802.016 144.398 799.146 144.398 Q795.697 144.398 793.706 146.597 Q791.716 148.796 791.716 152.592 L791.716 167.245 L787.433 167.245 L787.433 131.227 L791.716 131.227 L791.716 145.347 Q793.243 143.009 795.303 141.852 Q797.387 140.694 800.095 140.694 Q804.563 140.694 806.854 143.472 Q809.146 146.227 809.146 151.597 Z" fill="#000000" fill-rule="nonzero" fill-opacity="1" /><path clip-path="url(#clip510)" d="M836.831 163.356 L836.831 177.106 L832.549 177.106 L832.549 141.319 L836.831 141.319 L836.831 145.255 Q838.174 142.94 840.211 141.829 Q842.271 140.694 845.118 140.694 Q849.84 140.694 852.78 144.444 Q855.743 148.194 855.743 154.305 Q855.743 160.417 852.78 164.167 Q849.84 167.916 845.118 167.916 Q842.271 167.916 840.211 166.805 Q838.174 165.671 836.831 163.356 M851.322 154.305 Q851.322 149.606 849.377 146.944 Q847.456 144.259 844.076 144.259 Q840.697 144.259 838.752 146.944 Q836.831 149.606 836.831 154.305 Q836.831 159.004 838.752 161.69 Q840.697 164.352 844.076 164.352 Q847.456 164.352 849.377 161.69 Q851.322 159.004 851.322 154.305 Z" fill="#000000" fill-rule="nonzero" fill-opacity="1" /><path clip-path="url(#clip510)" d="M878.428 145.718 L908.104 145.718 L908.104 149.606 L878.428 149.606 L878.428 145.718 M878.428 155.162 L908.104 155.162 L908.104 159.097 L878.428 159.097 L878.428 155.162 Z" fill="#000000" fill-rule="nonzero" fill-opacity="1" /><path clip-path="url(#clip510)" d="M934.076 163.31 L941.715 163.31 L941.715 136.944 L933.405 138.611 L933.405 134.352 L941.668 132.685 L946.344 132.685 L946.344 163.31 L953.983 163.31 L953.983 167.245 L934.076 167.245 L934.076 163.31 Z" fill="#000000" fill-rule="nonzero" fill-opacity="1" /><path clip-path="url(#clip510)" d="M963.428 161.366 L968.312 161.366 L968.312 167.245 L963.428 167.245 L963.428 161.366 Z" fill="#000000" fill-rule="nonzero" fill-opacity="1" /><path clip-path="url(#clip510)" d="M979.307 163.31 L986.946 163.31 L986.946 136.944 L978.636 138.611 L978.636 134.352 L986.9 132.685 L991.576 132.685 L991.576 163.31 L999.214 163.31 L999.214 167.245 L979.307 167.245 L979.307 163.31 Z" fill="#000000" fill-rule="nonzero" fill-opacity="1" /><path clip-path="url(#clip510)" d="M1008.71 132.685 L1027.06 132.685 L1027.06 136.62 L1012.99 136.62 L1012.99 145.093 Q1014.01 144.745 1015.02 144.583 Q1016.04 144.398 1017.06 144.398 Q1022.85 144.398 1026.23 147.569 Q1029.61 150.741 1029.61 156.157 Q1029.61 161.736 1026.14 164.838 Q1022.66 167.916 1016.34 167.916 Q1014.17 167.916 1011.9 167.546 Q1009.65 167.176 1007.25 166.435 L1007.25 161.736 Q1009.33 162.87 1011.55 163.426 Q1013.77 163.981 1016.25 163.981 Q1020.26 163.981 1022.59 161.875 Q1024.93 159.768 1024.93 156.157 Q1024.93 152.546 1022.59 150.44 Q1020.26 148.333 1016.25 148.333 Q1014.38 148.333 1012.5 148.75 Q1010.65 149.167 1008.71 150.046 L1008.71 132.685 Z" fill="#000000" fill-rule="nonzero" fill-opacity="1" /><path clip-path="url(#clip510)" d="M1039.31 142.731 L1044.19 142.731 L1044.19 148.611 L1039.31 148.611 L1039.31 142.731 M1039.31 161.366 L1044.19 161.366 L1044.19 165.347 L1040.39 172.754 L1037.41 172.754 L1039.31 165.347 L1039.31 161.366 Z" fill="#000000" fill-rule="nonzero" fill-opacity="1" /><path clip-path="url(#clip510)" d="M1070 166.528 L1070 162.268 Q1071.76 163.102 1073.57 163.542 Q1075.37 163.981 1077.11 163.981 Q1081.74 163.981 1084.17 160.879 Q1086.62 157.755 1086.97 151.412 Q1085.63 153.403 1083.57 154.467 Q1081.51 155.532 1079.01 155.532 Q1073.82 155.532 1070.79 152.407 Q1067.78 149.259 1067.78 143.819 Q1067.78 138.495 1070.93 135.278 Q1074.08 132.06 1079.31 132.06 Q1085.3 132.06 1088.45 136.667 Q1091.62 141.25 1091.62 150 Q1091.62 158.171 1087.73 163.055 Q1083.87 167.916 1077.32 167.916 Q1075.56 167.916 1073.75 167.569 Q1071.95 167.222 1070 166.528 M1079.31 151.875 Q1082.45 151.875 1084.28 149.722 Q1086.14 147.569 1086.14 143.819 Q1086.14 140.093 1084.28 137.94 Q1082.45 135.764 1079.31 135.764 Q1076.16 135.764 1074.31 137.94 Q1072.48 140.093 1072.48 143.819 Q1072.48 147.569 1074.31 149.722 Q1076.16 151.875 1079.31 151.875 Z" fill="#000000" fill-rule="nonzero" fill-opacity="1" /><path clip-path="url(#clip510)" d="M1100.07 132.685 L1118.43 132.685 L1118.43 136.62 L1104.35 136.62 L1104.35 145.093 Q1105.37 144.745 1106.39 144.583 Q1107.41 144.398 1108.43 144.398 Q1114.21 144.398 1117.59 147.569 Q1120.97 150.741 1120.97 156.157 Q1120.97 161.736 1117.5 164.838 Q1114.03 167.916 1107.71 167.916 Q1105.53 167.916 1103.26 167.546 Q1101.02 167.176 1098.61 166.435 L1098.61 161.736 Q1100.7 162.87 1102.92 163.426 Q1105.14 163.981 1107.62 163.981 Q1111.62 163.981 1113.96 161.875 Q1116.3 159.768 1116.3 156.157 Q1116.3 152.546 1113.96 150.44 Q1111.62 148.333 1107.62 148.333 Q1105.74 148.333 1103.87 148.75 Q1102.01 149.167 1100.07 150.046 L1100.07 132.685 Z" fill="#000000" fill-rule="nonzero" fill-opacity="1" /><path clip-path="url(#clip510)" d="M1159.58 152.037 Q1157.57 152.037 1156.41 153.75 Q1155.28 155.463 1155.28 158.518 Q1155.28 161.528 1156.41 163.264 Q1157.57 164.977 1159.58 164.977 Q1161.55 164.977 1162.69 163.264 Q1163.84 161.528 1163.84 158.518 Q1163.84 155.486 1162.69 153.773 Q1161.55 152.037 1159.58 152.037 M1159.58 149.097 Q1163.24 149.097 1165.39 151.643 Q1167.55 154.19 1167.55 158.518 Q1167.55 162.847 1165.37 165.393 Q1163.22 167.916 1159.58 167.916 Q1155.88 167.916 1153.73 165.393 Q1151.57 162.847 1151.57 158.518 Q1151.57 154.167 1153.73 151.643 Q1155.9 149.097 1159.58 149.097 M1135.7 135 Q1133.7 135 1132.55 136.736 Q1131.41 138.449 1131.41 141.458 Q1131.41 144.514 1132.55 146.227 Q1133.68 147.94 1135.7 147.94 Q1137.71 147.94 1138.84 146.227 Q1140 144.514 1140 141.458 Q1140 138.472 1138.84 136.736 Q1137.69 135 1135.7 135 M1156.6 132.06 L1160.3 132.06 L1138.68 167.916 L1134.98 167.916 L1156.6 132.06 M1135.7 132.06 Q1139.35 132.06 1141.53 134.606 Q1143.7 137.13 1143.7 141.458 Q1143.7 145.833 1141.53 148.356 Q1139.38 150.88 1135.7 150.88 Q1132.01 150.88 1129.86 148.356 Q1127.73 145.81 1127.73 141.458 Q1127.73 137.153 1129.89 134.606 Q1132.04 132.06 1135.7 132.06 Z" fill="#000000" fill-rule="nonzero" fill-opacity="1" /><path clip-path="url(#clip510)" d="M1215.76 135.347 L1215.76 140.278 Q1213.4 138.079 1210.72 136.991 Q1208.06 135.903 1205.05 135.903 Q1199.12 135.903 1195.97 139.537 Q1192.82 143.148 1192.82 150 Q1192.82 156.829 1195.97 160.463 Q1199.12 164.074 1205.05 164.074 Q1208.06 164.074 1210.72 162.986 Q1213.4 161.898 1215.76 159.699 L1215.76 164.583 Q1213.31 166.25 1210.56 167.083 Q1207.82 167.916 1204.77 167.916 Q1196.92 167.916 1192.41 163.125 Q1187.89 158.31 1187.89 150 Q1187.89 141.667 1192.41 136.875 Q1196.92 132.06 1204.77 132.06 Q1207.87 132.06 1210.6 132.894 Q1213.36 133.704 1215.76 135.347 Z" fill="#000000" fill-rule="nonzero" fill-opacity="1" /><path clip-path="url(#clip510)" d="M1222.99 132.685 L1227.66 132.685 L1227.66 167.245 L1222.99 167.245 L1222.99 132.685 Z" fill="#000000" fill-rule="nonzero" fill-opacity="1" /><path clip-path="url(#clip510)" d="M1251.46 131.227 L1261.27 131.227 L1261.27 134.537 L1255.72 134.537 L1255.72 170.185 L1261.27 170.185 L1261.27 173.495 L1251.46 173.495 L1251.46 131.227 Z" fill="#000000" fill-rule="nonzero" fill-opacity="1" /><path clip-path="url(#clip510)" d="M1280.95 135.764 Q1277.34 135.764 1275.51 139.329 Q1273.7 142.87 1273.7 150 Q1273.7 157.106 1275.51 160.671 Q1277.34 164.213 1280.95 164.213 Q1284.58 164.213 1286.39 160.671 Q1288.22 157.106 1288.22 150 Q1288.22 142.87 1286.39 139.329 Q1284.58 135.764 1280.95 135.764 M1280.95 132.06 Q1286.76 132.06 1289.81 136.667 Q1292.89 141.25 1292.89 150 Q1292.89 158.727 1289.81 163.333 Q1286.76 167.916 1280.95 167.916 Q1275.14 167.916 1272.06 163.333 Q1269 158.727 1269 150 Q1269 141.25 1272.06 136.667 Q1275.14 132.06 1280.95 132.06 Z" fill="#000000" fill-rule="nonzero" fill-opacity="1" /><path clip-path="url(#clip510)" d="M1301.11 161.366 L1306 161.366 L1306 167.245 L1301.11 167.245 L1301.11 161.366 Z" fill="#000000" fill-rule="nonzero" fill-opacity="1" /><path clip-path="url(#clip510)" d="M1316.32 166.528 L1316.32 162.268 Q1318.08 163.102 1319.88 163.542 Q1321.69 163.981 1323.43 163.981 Q1328.06 163.981 1330.49 160.879 Q1332.94 157.755 1333.29 151.412 Q1331.94 153.403 1329.88 154.467 Q1327.82 155.532 1325.32 155.532 Q1320.14 155.532 1317.11 152.407 Q1314.1 149.259 1314.1 143.819 Q1314.1 138.495 1317.25 135.278 Q1320.39 132.06 1325.62 132.06 Q1331.62 132.06 1334.77 136.667 Q1337.94 141.25 1337.94 150 Q1337.94 158.171 1334.05 163.055 Q1330.18 167.916 1323.63 167.916 Q1321.87 167.916 1320.07 167.569 Q1318.26 167.222 1316.32 166.528 M1325.62 151.875 Q1328.77 151.875 1330.6 149.722 Q1332.45 147.569 1332.45 143.819 Q1332.45 140.093 1330.6 137.94 Q1328.77 135.764 1325.62 135.764 Q1322.48 135.764 1320.62 137.94 Q1318.8 140.093 1318.8 143.819 Q1318.8 147.569 1320.62 149.722 Q1322.48 151.875 1325.62 151.875 Z" fill="#000000" fill-rule="nonzero" fill-opacity="1" /><path clip-path="url(#clip510)" d="M1356.34 150.833 Q1353.01 150.833 1351.09 152.616 Q1349.19 154.398 1349.19 157.523 Q1349.19 160.648 1351.09 162.43 Q1353.01 164.213 1356.34 164.213 Q1359.68 164.213 1361.6 162.43 Q1363.52 160.625 1363.52 157.523 Q1363.52 154.398 1361.6 152.616 Q1359.7 150.833 1356.34 150.833 M1351.67 148.843 Q1348.66 148.102 1346.97 146.042 Q1345.3 143.981 1345.3 141.018 Q1345.3 136.875 1348.24 134.468 Q1351.2 132.06 1356.34 132.06 Q1361.5 132.06 1364.44 134.468 Q1367.38 136.875 1367.38 141.018 Q1367.38 143.981 1365.69 146.042 Q1364.03 148.102 1361.04 148.843 Q1364.42 149.63 1366.3 151.921 Q1368.19 154.213 1368.19 157.523 Q1368.19 162.546 1365.12 165.231 Q1362.06 167.916 1356.34 167.916 Q1350.62 167.916 1347.55 165.231 Q1344.49 162.546 1344.49 157.523 Q1344.49 154.213 1346.39 151.921 Q1348.29 149.63 1351.67 148.843 M1349.95 141.458 Q1349.95 144.143 1351.62 145.648 Q1353.31 147.153 1356.34 147.153 Q1359.35 147.153 1361.04 145.648 Q1362.75 144.143 1362.75 141.458 Q1362.75 138.773 1361.04 137.269 Q1359.35 135.764 1356.34 135.764 Q1353.31 135.764 1351.62 137.269 Q1349.95 138.773 1349.95 141.458 Z" fill="#000000" fill-rule="nonzero" fill-opacity="1" /><path clip-path="url(#clip510)" d="M1376.99 161.366 L1381.87 161.366 L1381.87 165.347 L1378.08 172.754 L1375.09 172.754 L1376.99 165.347 L1376.99 161.366 Z" fill="#000000" fill-rule="nonzero" fill-opacity="1" /><path clip-path="url(#clip510)" d="M1407.45 163.31 L1415.09 163.31 L1415.09 136.944 L1406.78 138.611 L1406.78 134.352 L1415.05 132.685 L1419.72 132.685 L1419.72 163.31 L1427.36 163.31 L1427.36 167.245 L1407.45 167.245 L1407.45 163.31 Z" fill="#000000" fill-rule="nonzero" fill-opacity="1" /><path clip-path="url(#clip510)" d="M1436.8 161.366 L1441.69 161.366 L1441.69 167.245 L1436.8 167.245 L1436.8 161.366 Z" fill="#000000" fill-rule="nonzero" fill-opacity="1" /><path clip-path="url(#clip510)" d="M1466.04 148.611 Q1469.4 149.329 1471.27 151.597 Q1473.17 153.866 1473.17 157.199 Q1473.17 162.315 1469.65 165.116 Q1466.13 167.916 1459.65 167.916 Q1457.48 167.916 1455.16 167.477 Q1452.87 167.06 1450.42 166.204 L1450.42 161.69 Q1452.36 162.824 1454.67 163.403 Q1456.99 163.981 1459.51 163.981 Q1463.91 163.981 1466.2 162.245 Q1468.52 160.509 1468.52 157.199 Q1468.52 154.143 1466.36 152.43 Q1464.24 150.694 1460.42 150.694 L1456.39 150.694 L1456.39 146.852 L1460.6 146.852 Q1464.05 146.852 1465.88 145.486 Q1467.71 144.097 1467.71 141.505 Q1467.71 138.843 1465.81 137.431 Q1463.93 135.995 1460.42 135.995 Q1458.49 135.995 1456.3 136.412 Q1454.1 136.829 1451.46 137.708 L1451.46 133.542 Q1454.12 132.801 1456.43 132.431 Q1458.77 132.06 1460.83 132.06 Q1466.16 132.06 1469.26 134.491 Q1472.36 136.898 1472.36 141.018 Q1472.36 143.889 1470.72 145.88 Q1469.07 147.847 1466.04 148.611 Z" fill="#000000" fill-rule="nonzero" fill-opacity="1" /><path clip-path="url(#clip510)" d="M1486.06 163.31 L1502.38 163.31 L1502.38 167.245 L1480.44 167.245 L1480.44 163.31 Q1483.1 160.555 1487.68 155.926 Q1492.29 151.273 1493.47 149.93 Q1495.72 147.407 1496.6 145.671 Q1497.5 143.912 1497.5 142.222 Q1497.5 139.468 1495.55 137.731 Q1493.63 135.995 1490.53 135.995 Q1488.33 135.995 1485.88 136.759 Q1483.45 137.523 1480.67 139.074 L1480.67 134.352 Q1483.49 133.218 1485.95 132.639 Q1488.4 132.06 1490.44 132.06 Q1495.81 132.06 1499 134.745 Q1502.2 137.431 1502.2 141.921 Q1502.2 144.051 1501.39 145.972 Q1500.6 147.87 1498.49 150.463 Q1497.92 151.134 1494.81 154.352 Q1491.71 157.546 1486.06 163.31 Z" fill="#000000" fill-rule="nonzero" fill-opacity="1" /><path clip-path="url(#clip510)" d="M1521.55 131.227 L1521.55 173.495 L1511.73 173.495 L1511.73 170.185 L1517.27 170.185 L1517.27 134.537 L1511.73 134.537 L1511.73 131.227 L1521.55 131.227 Z" fill="#000000" fill-rule="nonzero" fill-opacity="1" /><circle clip-path="url(#clip510)" cx="421.404" cy="196.379" r="20.48" fill="#ff7e0d" fill-rule="evenodd" fill-opacity="1" stroke="#000000" stroke-opacity="1" stroke-width="4.55111"/>
<path clip-path="url(#clip510)" d="M532.907 188.497 L532.907 192.525 Q531.102 191.599 529.157 191.136 Q527.213 190.673 525.129 190.673 Q521.958 190.673 520.361 191.645 Q518.787 192.618 518.787 194.562 Q518.787 196.044 519.921 196.9 Q521.055 197.733 524.481 198.497 L525.94 198.821 Q530.477 199.794 532.375 201.576 Q534.296 203.335 534.296 206.506 Q534.296 210.118 531.426 212.224 Q528.579 214.33 523.579 214.33 Q521.495 214.33 519.227 213.914 Q516.981 213.52 514.481 212.71 L514.481 208.312 Q516.842 209.539 519.134 210.164 Q521.426 210.766 523.671 210.766 Q526.68 210.766 528.301 209.747 Q529.921 208.706 529.921 206.831 Q529.921 205.094 528.741 204.168 Q527.583 203.243 523.625 202.386 L522.143 202.039 Q518.185 201.206 516.426 199.493 Q514.667 197.756 514.667 194.747 Q514.667 191.09 517.259 189.099 Q519.852 187.108 524.62 187.108 Q526.981 187.108 529.065 187.456 Q531.148 187.803 532.907 188.497 Z" fill="#000000" fill-rule="nonzero" fill-opacity="1" /><path clip-path="url(#clip510)" d="M545.291 180.372 L545.291 187.733 L554.065 187.733 L554.065 191.044 L545.291 191.044 L545.291 205.118 Q545.291 208.289 546.148 209.192 Q547.028 210.094 549.69 210.094 L554.065 210.094 L554.065 213.659 L549.69 213.659 Q544.759 213.659 542.884 211.83 Q541.009 209.979 541.009 205.118 L541.009 191.044 L537.884 191.044 L537.884 187.733 L541.009 187.733 L541.009 180.372 L545.291 180.372 Z" fill="#000000" fill-rule="nonzero" fill-opacity="1" /><path clip-path="url(#clip510)" d="M574.689 191.715 Q573.972 191.298 573.115 191.113 Q572.282 190.905 571.264 190.905 Q567.652 190.905 565.708 193.266 Q563.787 195.604 563.787 200.002 L563.787 213.659 L559.504 213.659 L559.504 187.733 L563.787 187.733 L563.787 191.761 Q565.129 189.4 567.282 188.266 Q569.435 187.108 572.513 187.108 Q572.953 187.108 573.486 187.178 Q574.018 187.224 574.666 187.34 L574.689 191.715 Z" fill="#000000" fill-rule="nonzero" fill-opacity="1" /><path clip-path="url(#clip510)" d="M588.162 190.719 Q584.736 190.719 582.745 193.405 Q580.754 196.067 580.754 200.719 Q580.754 205.372 582.722 208.057 Q584.713 210.719 588.162 210.719 Q591.564 210.719 593.555 208.034 Q595.546 205.349 595.546 200.719 Q595.546 196.113 593.555 193.428 Q591.564 190.719 588.162 190.719 M588.162 187.108 Q593.717 187.108 596.888 190.719 Q600.06 194.331 600.06 200.719 Q600.06 207.085 596.888 210.719 Q593.717 214.33 588.162 214.33 Q582.583 214.33 579.412 210.719 Q576.263 207.085 576.263 200.719 Q576.263 194.331 579.412 190.719 Q582.583 187.108 588.162 187.108 Z" fill="#000000" fill-rule="nonzero" fill-opacity="1" /><path clip-path="url(#clip510)" d="M628.671 198.011 L628.671 213.659 L624.411 213.659 L624.411 198.15 Q624.411 194.469 622.976 192.641 Q621.541 190.812 618.671 190.812 Q615.222 190.812 613.231 193.011 Q611.24 195.21 611.24 199.006 L611.24 213.659 L606.958 213.659 L606.958 187.733 L611.24 187.733 L611.24 191.761 Q612.768 189.423 614.828 188.266 Q616.911 187.108 619.62 187.108 Q624.087 187.108 626.379 189.886 Q628.671 192.641 628.671 198.011 Z" fill="#000000" fill-rule="nonzero" fill-opacity="1" /><path clip-path="url(#clip510)" d="M654.226 200.395 Q654.226 195.766 652.305 193.219 Q650.407 190.673 646.958 190.673 Q643.532 190.673 641.61 193.219 Q639.712 195.766 639.712 200.395 Q639.712 205.002 641.61 207.548 Q643.532 210.094 646.958 210.094 Q650.407 210.094 652.305 207.548 Q654.226 205.002 654.226 200.395 M658.485 210.442 Q658.485 217.062 655.545 220.28 Q652.606 223.52 646.541 223.52 Q644.296 223.52 642.305 223.173 Q640.314 222.849 638.439 222.155 L638.439 218.011 Q640.314 219.03 642.143 219.516 Q643.971 220.002 645.87 220.002 Q650.059 220.002 652.143 217.803 Q654.226 215.627 654.226 211.205 L654.226 209.099 Q652.907 211.391 650.846 212.525 Q648.786 213.659 645.916 213.659 Q641.147 213.659 638.231 210.025 Q635.314 206.391 635.314 200.395 Q635.314 194.377 638.231 190.743 Q641.147 187.108 645.916 187.108 Q648.786 187.108 650.846 188.243 Q652.907 189.377 654.226 191.669 L654.226 187.733 L658.485 187.733 L658.485 210.442 Z" fill="#000000" fill-rule="nonzero" fill-opacity="1" /><path clip-path="url(#clip510)" d="M704.504 199.631 L704.504 201.715 L684.92 201.715 Q685.198 206.113 687.559 208.428 Q689.943 210.719 694.18 210.719 Q696.633 210.719 698.925 210.118 Q701.24 209.516 703.508 208.312 L703.508 212.34 Q701.217 213.312 698.809 213.821 Q696.402 214.33 693.925 214.33 Q687.721 214.33 684.087 210.719 Q680.476 207.108 680.476 200.951 Q680.476 194.585 683.902 190.858 Q687.351 187.108 693.184 187.108 Q698.416 187.108 701.448 190.488 Q704.504 193.844 704.504 199.631 M700.244 198.381 Q700.198 194.886 698.277 192.803 Q696.379 190.719 693.23 190.719 Q689.666 190.719 687.513 192.733 Q685.383 194.747 685.059 198.405 L700.244 198.381 Z" fill="#000000" fill-rule="nonzero" fill-opacity="1" /><path clip-path="url(#clip510)" d="M726.517 191.715 Q725.8 191.298 724.943 191.113 Q724.11 190.905 723.091 190.905 Q719.48 190.905 717.536 193.266 Q715.615 195.604 715.615 200.002 L715.615 213.659 L711.332 213.659 L711.332 187.733 L715.615 187.733 L715.615 191.761 Q716.957 189.4 719.11 188.266 Q721.263 187.108 724.341 187.108 Q724.781 187.108 725.314 187.178 Q725.846 187.224 726.494 187.34 L726.517 191.715 Z" fill="#000000" fill-rule="nonzero" fill-opacity="1" /><path clip-path="url(#clip510)" d="M745.175 191.715 Q744.457 191.298 743.601 191.113 Q742.767 190.905 741.749 190.905 Q738.138 190.905 736.193 193.266 Q734.272 195.604 734.272 200.002 L734.272 213.659 L729.99 213.659 L729.99 187.733 L734.272 187.733 L734.272 191.761 Q735.614 189.4 737.767 188.266 Q739.92 187.108 742.999 187.108 Q743.439 187.108 743.971 187.178 Q744.503 187.224 745.151 187.34 L745.175 191.715 Z" fill="#000000" fill-rule="nonzero" fill-opacity="1" /><path clip-path="url(#clip510)" d="M758.647 190.719 Q755.221 190.719 753.23 193.405 Q751.239 196.067 751.239 200.719 Q751.239 205.372 753.207 208.057 Q755.198 210.719 758.647 210.719 Q762.05 210.719 764.04 208.034 Q766.031 205.349 766.031 200.719 Q766.031 196.113 764.04 193.428 Q762.05 190.719 758.647 190.719 M758.647 187.108 Q764.202 187.108 767.374 190.719 Q770.545 194.331 770.545 200.719 Q770.545 207.085 767.374 210.719 Q764.202 214.33 758.647 214.33 Q753.068 214.33 749.897 210.719 Q746.749 207.085 746.749 200.719 Q746.749 194.331 749.897 190.719 Q753.068 187.108 758.647 187.108 Z" fill="#000000" fill-rule="nonzero" fill-opacity="1" /><path clip-path="url(#clip510)" d="M792.628 191.715 Q791.91 191.298 791.054 191.113 Q790.221 190.905 789.202 190.905 Q785.591 190.905 783.647 193.266 Q781.725 195.604 781.725 200.002 L781.725 213.659 L777.443 213.659 L777.443 187.733 L781.725 187.733 L781.725 191.761 Q783.068 189.4 785.221 188.266 Q787.373 187.108 790.452 187.108 Q790.892 187.108 791.424 187.178 Q791.957 187.224 792.605 187.34 L792.628 191.715 Z" fill="#000000" fill-rule="nonzero" fill-opacity="1" /><path clip-path="url(#clip510)" d="M813.623 188.497 L813.623 192.525 Q811.818 191.599 809.873 191.136 Q807.929 190.673 805.846 190.673 Q802.674 190.673 801.077 191.645 Q799.503 192.618 799.503 194.562 Q799.503 196.044 800.637 196.9 Q801.772 197.733 805.197 198.497 L806.656 198.821 Q811.193 199.794 813.091 201.576 Q815.012 203.335 815.012 206.506 Q815.012 210.118 812.142 212.224 Q809.295 214.33 804.295 214.33 Q802.211 214.33 799.943 213.914 Q797.697 213.52 795.197 212.71 L795.197 208.312 Q797.559 209.539 799.85 210.164 Q802.142 210.766 804.387 210.766 Q807.396 210.766 809.017 209.747 Q810.637 208.706 810.637 206.831 Q810.637 205.094 809.457 204.168 Q808.299 203.243 804.341 202.386 L802.859 202.039 Q798.901 201.206 797.142 199.493 Q795.383 197.756 795.383 194.747 Q795.383 191.09 797.975 189.099 Q800.568 187.108 805.336 187.108 Q807.697 187.108 809.781 187.456 Q811.864 187.803 813.623 188.497 Z" fill="#000000" fill-rule="nonzero" fill-opacity="1" /></svg>
