<?xml version="1.0" encoding="utf-8"?>
<svg xmlns="http://www.w3.org/2000/svg" xmlns:xlink="http://www.w3.org/1999/xlink" width="800" height="400" viewBox="0 0 3200 1600">
<defs>
  <clipPath id="clip240">
    <rect x="0" y="0" width="3200" height="1600"/>
  </clipPath>
</defs>
<path clip-path="url(#clip240)" d="M0 1600 L3200 1600 L3200 0 L0 0  Z" fill="#ffffff" fill-rule="evenodd" fill-opacity="1"/>
<defs>
  <clipPath id="clip241">
    <rect x="640" y="0" width="2241" height="1600"/>
  </clipPath>
</defs>
<path clip-path="url(#clip240)" d="M253.324 1443.7 L3152.76 1443.7 L3152.76 88.9121 L253.324 88.9121  Z" fill="#ffffff" fill-rule="evenodd" fill-opacity="1"/>
<defs>
  <clipPath id="clip242">
    <rect x="253" y="88" width="2900" height="1356"/>
  </clipPath>
</defs>
<polyline clip-path="url(#clip242)" style="stroke:#000000; stroke-linecap:round; stroke-linejoin:round; stroke-width:2; stroke-opacity:0.1; fill:none" points="335.383,1443.7 335.383,88.9121 "/>
<polyline clip-path="url(#clip242)" style="stroke:#000000; stroke-linecap:round; stroke-linejoin:round; stroke-width:2; stroke-opacity:0.1; fill:none" points="1019.21,1443.7 1019.21,88.9121 "/>
<polyline clip-path="url(#clip242)" style="stroke:#000000; stroke-linecap:round; stroke-linejoin:round; stroke-width:2; stroke-opacity:0.1; fill:none" points="1703.04,1443.7 1703.04,88.9121 "/>
<polyline clip-path="url(#clip242)" style="stroke:#000000; stroke-linecap:round; stroke-linejoin:round; stroke-width:2; stroke-opacity:0.1; fill:none" points="2386.87,1443.7 2386.87,88.9121 "/>
<polyline clip-path="url(#clip242)" style="stroke:#000000; stroke-linecap:round; stroke-linejoin:round; stroke-width:2; stroke-opacity:0.1; fill:none" points="3070.7,1443.7 3070.7,88.9121 "/>
<polyline clip-path="url(#clip240)" style="stroke:#000000; stroke-linecap:round; stroke-linejoin:round; stroke-width:4; stroke-opacity:1; fill:none" points="253.324,1443.7 3152.76,1443.7 "/>
<polyline clip-path="url(#clip240)" style="stroke:#000000; stroke-linecap:round; stroke-linejoin:round; stroke-width:4; stroke-opacity:1; fill:none" points="335.383,1443.7 335.383,1424.8 "/>
<polyline clip-path="url(#clip240)" style="stroke:#000000; stroke-linecap:round; stroke-linejoin:round; stroke-width:4; stroke-opacity:1; fill:none" points="1019.21,1443.7 1019.21,1424.8 "/>
<polyline clip-path="url(#clip240)" style="stroke:#000000; stroke-linecap:round; stroke-linejoin:round; stroke-width:4; stroke-opacity:1; fill:none" points="1703.04,1443.7 1703.04,1424.8 "/>
<polyline clip-path="url(#clip240)" style="stroke:#000000; stroke-linecap:round; stroke-linejoin:round; stroke-width:4; stroke-opacity:1; fill:none" points="2386.87,1443.7 2386.87,1424.8 "/>
<polyline clip-path="url(#clip240)" style="stroke:#000000; stroke-linecap:round; stroke-linejoin:round; stroke-width:4; stroke-opacity:1; fill:none" points="3070.7,1443.7 3070.7,1424.8 "/>
<path clip-path="url(#clip240)" d="M312.768 1481.02 Q309.157 1481.02 307.328 1484.58 Q305.522 1488.12 305.522 1495.25 Q305.522 1502.36 307.328 1505.93 Q309.157 1509.47 312.768 1509.47 Q316.402 1509.47 318.208 1505.93 Q320.036 1502.36 320.036 1495.25 Q320.036 1488.12 318.208 1484.58 Q316.402 1481.02 312.768 1481.02 M312.768 1477.31 Q318.578 1477.31 321.633 1481.92 Q324.712 1486.5 324.712 1495.25 Q324.712 1503.98 321.633 1508.59 Q318.578 1513.17 312.768 1513.17 Q306.958 1513.17 303.879 1508.59 Q300.823 1503.98 300.823 1495.25 Q300.823 1486.5 303.879 1481.92 Q306.958 1477.31 312.768 1477.31 Z" fill="#000000" fill-rule="nonzero" fill-opacity="1" /><path clip-path="url(#clip240)" d="M332.93 1506.62 L337.814 1506.62 L337.814 1512.5 L332.93 1512.5 L332.93 1506.62 Z" fill="#000000" fill-rule="nonzero" fill-opacity="1" /><path clip-path="url(#clip240)" d="M357.999 1481.02 Q354.388 1481.02 352.559 1484.58 Q350.754 1488.12 350.754 1495.25 Q350.754 1502.36 352.559 1505.93 Q354.388 1509.47 357.999 1509.47 Q361.633 1509.47 363.439 1505.93 Q365.268 1502.36 365.268 1495.25 Q365.268 1488.12 363.439 1484.58 Q361.633 1481.02 357.999 1481.02 M357.999 1477.31 Q363.809 1477.31 366.865 1481.92 Q369.943 1486.5 369.943 1495.25 Q369.943 1503.98 366.865 1508.59 Q363.809 1513.17 357.999 1513.17 Q352.189 1513.17 349.11 1508.59 Q346.055 1503.98 346.055 1495.25 Q346.055 1486.5 349.11 1481.92 Q352.189 1477.31 357.999 1477.31 Z" fill="#000000" fill-rule="nonzero" fill-opacity="1" /><path clip-path="url(#clip240)" d="M997.094 1481.02 Q993.483 1481.02 991.654 1484.58 Q989.848 1488.12 989.848 1495.25 Q989.848 1502.36 991.654 1505.93 Q993.483 1509.47 997.094 1509.47 Q1000.73 1509.47 1002.53 1505.93 Q1004.36 1502.36 1004.36 1495.25 Q1004.36 1488.12 1002.53 1484.58 Q1000.73 1481.02 997.094 1481.02 M997.094 1477.31 Q1002.9 1477.31 1005.96 1481.92 Q1009.04 1486.5 1009.04 1495.25 Q1009.04 1503.98 1005.96 1508.59 Q1002.9 1513.17 997.094 1513.17 Q991.284 1513.17 988.205 1508.59 Q985.149 1503.98 985.149 1495.25 Q985.149 1486.5 988.205 1481.92 Q991.284 1477.31 997.094 1477.31 Z" fill="#000000" fill-rule="nonzero" fill-opacity="1" /><path clip-path="url(#clip240)" d="M1017.26 1506.62 L1022.14 1506.62 L1022.14 1512.5 L1017.26 1512.5 L1017.26 1506.62 Z" fill="#000000" fill-rule="nonzero" fill-opacity="1" /><path clip-path="url(#clip240)" d="M1032.37 1477.94 L1050.73 1477.94 L1050.73 1481.88 L1036.65 1481.88 L1036.65 1490.35 Q1037.67 1490 1038.69 1489.84 Q1039.71 1489.65 1040.73 1489.65 Q1046.51 1489.65 1049.89 1492.82 Q1053.27 1496 1053.27 1501.41 Q1053.27 1506.99 1049.8 1510.09 Q1046.33 1513.17 1040.01 1513.17 Q1037.83 1513.17 1035.57 1512.8 Q1033.32 1512.43 1030.91 1511.69 L1030.91 1506.99 Q1033 1508.12 1035.22 1508.68 Q1037.44 1509.24 1039.92 1509.24 Q1043.92 1509.24 1046.26 1507.13 Q1048.6 1505.02 1048.6 1501.41 Q1048.6 1497.8 1046.26 1495.69 Q1043.92 1493.59 1039.92 1493.59 Q1038.04 1493.59 1036.17 1494 Q1034.32 1494.42 1032.37 1495.3 L1032.37 1477.94 Z" fill="#000000" fill-rule="nonzero" fill-opacity="1" /><path clip-path="url(#clip240)" d="M1670.19 1508.56 L1677.83 1508.56 L1677.83 1482.2 L1669.52 1483.87 L1669.52 1479.61 L1677.79 1477.94 L1682.46 1477.94 L1682.46 1508.56 L1690.1 1508.56 L1690.1 1512.5 L1670.19 1512.5 L1670.19 1508.56 Z" fill="#000000" fill-rule="nonzero" fill-opacity="1" /><path clip-path="url(#clip240)" d="M1699.54 1506.62 L1704.43 1506.62 L1704.43 1512.5 L1699.54 1512.5 L1699.54 1506.62 Z" fill="#000000" fill-rule="nonzero" fill-opacity="1" /><path clip-path="url(#clip240)" d="M1724.61 1481.02 Q1721 1481.02 1719.17 1484.58 Q1717.37 1488.12 1717.37 1495.25 Q1717.37 1502.36 1719.17 1505.93 Q1721 1509.47 1724.61 1509.47 Q1728.25 1509.47 1730.05 1505.93 Q1731.88 1502.36 1731.88 1495.25 Q1731.88 1488.12 1730.05 1484.58 Q1728.25 1481.02 1724.61 1481.02 M1724.61 1477.31 Q1730.42 1477.31 1733.48 1481.92 Q1736.56 1486.5 1736.56 1495.25 Q1736.56 1503.98 1733.48 1508.59 Q1730.42 1513.17 1724.61 1513.17 Q1718.8 1513.17 1715.73 1508.59 Q1712.67 1503.98 1712.67 1495.25 Q1712.67 1486.5 1715.73 1481.92 Q1718.8 1477.31 1724.61 1477.31 Z" fill="#000000" fill-rule="nonzero" fill-opacity="1" /><path clip-path="url(#clip240)" d="M2354.52 1508.56 L2362.16 1508.56 L2362.16 1482.2 L2353.85 1483.87 L2353.85 1479.61 L2362.11 1477.94 L2366.79 1477.94 L2366.79 1508.56 L2374.43 1508.56 L2374.43 1512.5 L2354.52 1512.5 L2354.52 1508.56 Z" fill="#000000" fill-rule="nonzero" fill-opacity="1" /><path clip-path="url(#clip240)" d="M2383.87 1506.62 L2388.75 1506.62 L2388.75 1512.5 L2383.87 1512.5 L2383.87 1506.62 Z" fill="#000000" fill-rule="nonzero" fill-opacity="1" /><path clip-path="url(#clip240)" d="M2398.99 1477.94 L2417.34 1477.94 L2417.34 1481.88 L2403.27 1481.88 L2403.27 1490.35 Q2404.29 1490 2405.31 1489.84 Q2406.32 1489.65 2407.34 1489.65 Q2413.13 1489.65 2416.51 1492.82 Q2419.89 1496 2419.89 1501.41 Q2419.89 1506.99 2416.42 1510.09 Q2412.94 1513.17 2406.63 1513.17 Q2404.45 1513.17 2402.18 1512.8 Q2399.94 1512.43 2397.53 1511.69 L2397.53 1506.99 Q2399.61 1508.12 2401.83 1508.68 Q2404.06 1509.24 2406.53 1509.24 Q2410.54 1509.24 2412.88 1507.13 Q2415.21 1505.02 2415.21 1501.41 Q2415.21 1497.8 2412.88 1495.69 Q2410.54 1493.59 2406.53 1493.59 Q2404.66 1493.59 2402.78 1494 Q2400.93 1494.42 2398.99 1495.3 L2398.99 1477.94 Z" fill="#000000" fill-rule="nonzero" fill-opacity="1" /><path clip-path="url(#clip240)" d="M3041.94 1508.56 L3058.25 1508.56 L3058.25 1512.5 L3036.31 1512.5 L3036.31 1508.56 Q3038.97 1505.81 3043.56 1501.18 Q3048.16 1496.53 3049.34 1495.19 Q3051.59 1492.66 3052.47 1490.93 Q3053.37 1489.17 3053.37 1487.48 Q3053.37 1484.72 3051.43 1482.99 Q3049.5 1481.25 3046.4 1481.25 Q3044.2 1481.25 3041.75 1482.01 Q3039.32 1482.78 3036.54 1484.33 L3036.54 1479.61 Q3039.37 1478.47 3041.82 1477.89 Q3044.27 1477.31 3046.31 1477.31 Q3051.68 1477.31 3054.87 1480 Q3058.07 1482.69 3058.07 1487.18 Q3058.07 1489.31 3057.26 1491.23 Q3056.47 1493.12 3054.37 1495.72 Q3053.79 1496.39 3050.69 1499.61 Q3047.58 1502.8 3041.94 1508.56 Z" fill="#000000" fill-rule="nonzero" fill-opacity="1" /><path clip-path="url(#clip240)" d="M3068.07 1506.62 L3072.95 1506.62 L3072.95 1512.5 L3068.07 1512.5 L3068.07 1506.62 Z" fill="#000000" fill-rule="nonzero" fill-opacity="1" /><path clip-path="url(#clip240)" d="M3093.14 1481.02 Q3089.53 1481.02 3087.7 1484.58 Q3085.89 1488.12 3085.89 1495.25 Q3085.89 1502.36 3087.7 1505.93 Q3089.53 1509.47 3093.14 1509.47 Q3096.77 1509.47 3098.58 1505.93 Q3100.41 1502.36 3100.41 1495.25 Q3100.41 1488.12 3098.58 1484.58 Q3096.77 1481.02 3093.14 1481.02 M3093.14 1477.31 Q3098.95 1477.31 3102 1481.92 Q3105.08 1486.5 3105.08 1495.25 Q3105.08 1503.98 3102 1508.59 Q3098.95 1513.17 3093.14 1513.17 Q3087.33 1513.17 3084.25 1508.59 Q3081.19 1503.98 3081.19 1495.25 Q3081.19 1486.5 3084.25 1481.92 Q3087.33 1477.31 3093.14 1477.31 Z" fill="#000000" fill-rule="nonzero" fill-opacity="1" /><path clip-path="url(#clip240)" d="M1702.1 1554.79 L1702.1 1564.92 L1714.16 1564.92 L1714.16 1569.47 L1702.1 1569.47 L1702.1 1588.82 Q1702.1 1593.18 1703.28 1594.42 Q1704.49 1595.66 1708.15 1595.66 L1714.16 1595.66 L1714.16 1600.56 L1708.15 1600.56 Q1701.37 1600.56 1698.79 1598.05 Q1696.21 1595.5 1696.21 1588.82 L1696.21 1569.47 L1691.92 1569.47 L1691.92 1564.92 L1696.21 1564.92 L1696.21 1554.79 L1702.1 1554.79 Z" fill="#000000" fill-rule="nonzero" fill-opacity="1" /><polyline clip-path="url(#clip242)" style="stroke:#000000; stroke-linecap:round; stroke-linejoin:round; stroke-width:2; stroke-opacity:0.1; fill:none" points="253.324,1173.13 3152.76,1173.13 "/>
<polyline clip-path="url(#clip242)" style="stroke:#000000; stroke-linecap:round; stroke-linejoin:round; stroke-width:2; stroke-opacity:0.1; fill:none" points="253.324,880.787 3152.76,880.787 "/>
<polyline clip-path="url(#clip242)" style="stroke:#000000; stroke-linecap:round; stroke-linejoin:round; stroke-width:2; stroke-opacity:0.1; fill:none" points="253.324,588.448 3152.76,588.448 "/>
<polyline clip-path="url(#clip242)" style="stroke:#000000; stroke-linecap:round; stroke-linejoin:round; stroke-width:2; stroke-opacity:0.1; fill:none" points="253.324,296.109 3152.76,296.109 "/>
<polyline clip-path="url(#clip240)" style="stroke:#000000; stroke-linecap:round; stroke-linejoin:round; stroke-width:4; stroke-opacity:1; fill:none" points="253.324,1443.7 253.324,88.9121 "/>
<polyline clip-path="url(#clip240)" style="stroke:#000000; stroke-linecap:round; stroke-linejoin:round; stroke-width:4; stroke-opacity:1; fill:none" points="253.324,1173.13 272.222,1173.13 "/>
<polyline clip-path="url(#clip240)" style="stroke:#000000; stroke-linecap:round; stroke-linejoin:round; stroke-width:4; stroke-opacity:1; fill:none" points="253.324,880.787 272.222,880.787 "/>
<polyline clip-path="url(#clip240)" style="stroke:#000000; stroke-linecap:round; stroke-linejoin:round; stroke-width:4; stroke-opacity:1; fill:none" points="253.324,588.448 272.222,588.448 "/>
<polyline clip-path="url(#clip240)" style="stroke:#000000; stroke-linecap:round; stroke-linejoin:round; stroke-width:4; stroke-opacity:1; fill:none" points="253.324,296.109 272.222,296.109 "/>
<path clip-path="url(#clip240)" d="M98.3802 1173.58 L128.056 1173.58 L128.056 1177.51 L98.3802 1177.51 L98.3802 1173.58 Z" fill="#000000" fill-rule="nonzero" fill-opacity="1" /><path clip-path="url(#clip240)" d="M138.959 1186.47 L146.597 1186.47 L146.597 1160.1 L138.287 1161.77 L138.287 1157.51 L146.551 1155.85 L151.227 1155.85 L151.227 1186.47 L158.866 1186.47 L158.866 1190.41 L138.959 1190.41 L138.959 1186.47 Z" fill="#000000" fill-rule="nonzero" fill-opacity="1" /><path clip-path="url(#clip240)" d="M168.31 1184.53 L173.195 1184.53 L173.195 1190.41 L168.31 1190.41 L168.31 1184.53 Z" fill="#000000" fill-rule="nonzero" fill-opacity="1" /><path clip-path="url(#clip240)" d="M193.38 1158.92 Q189.769 1158.92 187.94 1162.49 Q186.134 1166.03 186.134 1173.16 Q186.134 1180.27 187.94 1183.83 Q189.769 1187.37 193.38 1187.37 Q197.014 1187.37 198.819 1183.83 Q200.648 1180.27 200.648 1173.16 Q200.648 1166.03 198.819 1162.49 Q197.014 1158.92 193.38 1158.92 M193.38 1155.22 Q199.19 1155.22 202.245 1159.83 Q205.324 1164.41 205.324 1173.16 Q205.324 1181.89 202.245 1186.49 Q199.19 1191.08 193.38 1191.08 Q187.569 1191.08 184.491 1186.49 Q181.435 1181.89 181.435 1173.16 Q181.435 1164.41 184.491 1159.83 Q187.569 1155.22 193.38 1155.22 Z" fill="#000000" fill-rule="nonzero" fill-opacity="1" /><path clip-path="url(#clip240)" d="M99.3755 881.238 L129.051 881.238 L129.051 885.174 L99.3755 885.174 L99.3755 881.238 Z" fill="#000000" fill-rule="nonzero" fill-opacity="1" /><path clip-path="url(#clip240)" d="M149.144 866.586 Q145.533 866.586 143.704 870.15 Q141.898 873.692 141.898 880.822 Q141.898 887.928 143.704 891.493 Q145.533 895.035 149.144 895.035 Q152.778 895.035 154.584 891.493 Q156.412 887.928 156.412 880.822 Q156.412 873.692 154.584 870.15 Q152.778 866.586 149.144 866.586 M149.144 862.882 Q154.954 862.882 158.009 867.488 Q161.088 872.072 161.088 880.822 Q161.088 889.549 158.009 894.155 Q154.954 898.738 149.144 898.738 Q143.334 898.738 140.255 894.155 Q137.199 889.549 137.199 880.822 Q137.199 872.072 140.255 867.488 Q143.334 862.882 149.144 862.882 Z" fill="#000000" fill-rule="nonzero" fill-opacity="1" /><path clip-path="url(#clip240)" d="M169.306 892.187 L174.19 892.187 L174.19 898.067 L169.306 898.067 L169.306 892.187 Z" fill="#000000" fill-rule="nonzero" fill-opacity="1" /><path clip-path="url(#clip240)" d="M184.421 863.507 L202.778 863.507 L202.778 867.442 L188.704 867.442 L188.704 875.914 Q189.722 875.567 190.741 875.405 Q191.759 875.22 192.778 875.22 Q198.565 875.22 201.944 878.391 Q205.324 881.562 205.324 886.979 Q205.324 892.558 201.852 895.66 Q198.38 898.738 192.06 898.738 Q189.884 898.738 187.616 898.368 Q185.37 897.998 182.963 897.257 L182.963 892.558 Q185.046 893.692 187.269 894.248 Q189.491 894.803 191.968 894.803 Q195.972 894.803 198.31 892.697 Q200.648 890.59 200.648 886.979 Q200.648 883.368 198.31 881.262 Q195.972 879.155 191.968 879.155 Q190.093 879.155 188.218 879.572 Q186.366 879.988 184.421 880.868 L184.421 863.507 Z" fill="#000000" fill-rule="nonzero" fill-opacity="1" /><path clip-path="url(#clip240)" d="M148.148 574.247 Q144.537 574.247 142.709 577.812 Q140.903 581.353 140.903 588.483 Q140.903 595.589 142.709 599.154 Q144.537 602.696 148.148 602.696 Q151.783 602.696 153.588 599.154 Q155.417 595.589 155.417 588.483 Q155.417 581.353 153.588 577.812 Q151.783 574.247 148.148 574.247 M148.148 570.543 Q153.959 570.543 157.014 575.15 Q160.093 579.733 160.093 588.483 Q160.093 597.21 157.014 601.816 Q153.959 606.4 148.148 606.4 Q142.338 606.4 139.26 601.816 Q136.204 597.21 136.204 588.483 Q136.204 579.733 139.26 575.15 Q142.338 570.543 148.148 570.543 Z" fill="#000000" fill-rule="nonzero" fill-opacity="1" /><path clip-path="url(#clip240)" d="M168.31 599.849 L173.195 599.849 L173.195 605.728 L168.31 605.728 L168.31 599.849 Z" fill="#000000" fill-rule="nonzero" fill-opacity="1" /><path clip-path="url(#clip240)" d="M193.38 574.247 Q189.769 574.247 187.94 577.812 Q186.134 581.353 186.134 588.483 Q186.134 595.589 187.94 599.154 Q189.769 602.696 193.38 602.696 Q197.014 602.696 198.819 599.154 Q200.648 595.589 200.648 588.483 Q200.648 581.353 198.819 577.812 Q197.014 574.247 193.38 574.247 M193.38 570.543 Q199.19 570.543 202.245 575.15 Q205.324 579.733 205.324 588.483 Q205.324 597.21 202.245 601.816 Q199.19 606.4 193.38 606.4 Q187.569 606.4 184.491 601.816 Q181.435 597.21 181.435 588.483 Q181.435 579.733 184.491 575.15 Q187.569 570.543 193.38 570.543 Z" fill="#000000" fill-rule="nonzero" fill-opacity="1" /><path clip-path="url(#clip240)" d="M149.144 281.908 Q145.533 281.908 143.704 285.473 Q141.898 289.015 141.898 296.144 Q141.898 303.251 143.704 306.815 Q145.533 310.357 149.144 310.357 Q152.778 310.357 154.584 306.815 Q156.412 303.251 156.412 296.144 Q156.412 289.015 154.584 285.473 Q152.778 281.908 149.144 281.908 M149.144 278.204 Q154.954 278.204 158.009 282.811 Q161.088 287.394 161.088 296.144 Q161.088 304.871 158.009 309.477 Q154.954 314.061 149.144 314.061 Q143.334 314.061 140.255 309.477 Q137.199 304.871 137.199 296.144 Q137.199 287.394 140.255 282.811 Q143.334 278.204 149.144 278.204 Z" fill="#000000" fill-rule="nonzero" fill-opacity="1" /><path clip-path="url(#clip240)" d="M169.306 307.51 L174.19 307.51 L174.19 313.389 L169.306 313.389 L169.306 307.51 Z" fill="#000000" fill-rule="nonzero" fill-opacity="1" /><path clip-path="url(#clip240)" d="M184.421 278.829 L202.778 278.829 L202.778 282.765 L188.704 282.765 L188.704 291.237 Q189.722 290.89 190.741 290.728 Q191.759 290.542 192.778 290.542 Q198.565 290.542 201.944 293.714 Q205.324 296.885 205.324 302.302 Q205.324 307.88 201.852 310.982 Q198.38 314.061 192.06 314.061 Q189.884 314.061 187.616 313.69 Q185.37 313.32 182.963 312.579 L182.963 307.88 Q185.046 309.014 187.269 309.57 Q189.491 310.126 191.968 310.126 Q195.972 310.126 198.31 308.019 Q200.648 305.913 200.648 302.302 Q200.648 298.69 198.31 296.584 Q195.972 294.477 191.968 294.477 Q190.093 294.477 188.218 294.894 Q186.366 295.311 184.421 296.19 L184.421 278.829 Z" fill="#000000" fill-rule="nonzero" fill-opacity="1" /><path clip-path="url(#clip240)" d="M-11.3958 796.384 L-11.3958 789.891 L28.7718 779.897 L-11.3958 769.934 L-11.3958 762.709 L28.7718 752.715 L-11.3958 742.753 L-11.3958 736.228 L36.1242 748.164 L36.1242 756.248 L-5.12562 766.274 L36.1242 776.396 L36.1242 784.48 L-11.3958 796.384 Z" fill="#000000" fill-rule="nonzero" fill-opacity="1" /><path clip-path="url(#clip240)" d="M695.707 8.04625 L695.707 12.6064 Q693.045 11.3333 690.684 10.7083 Q688.323 10.0833 686.124 10.0833 Q682.305 10.0833 680.221 11.5648 Q678.161 13.0462 678.161 15.7777 Q678.161 18.0693 679.527 19.2499 Q680.916 20.4073 684.758 21.1249 L687.582 21.7036 Q692.814 22.699 695.291 25.2221 Q697.791 27.7221 697.791 31.935 Q697.791 36.9581 694.411 39.5507 Q691.055 42.1433 684.55 42.1433 Q682.096 42.1433 679.319 41.5877 Q676.564 41.0322 673.601 39.9442 L673.601 35.1294 Q676.448 36.7267 679.18 37.5368 Q681.911 38.347 684.55 38.347 Q688.555 38.347 690.731 36.773 Q692.906 35.1989 692.906 32.2822 Q692.906 29.736 691.332 28.3008 Q689.782 26.8656 686.217 26.148 L683.37 25.5925 Q678.138 24.5508 675.8 22.3286 Q673.462 20.1064 673.462 16.1481 Q673.462 11.5648 676.68 8.92588 Q679.92 6.287 685.592 6.287 Q688.022 6.287 690.545 6.72682 Q693.069 7.16663 695.707 8.04625 Z" fill="#000000" fill-rule="nonzero" fill-opacity="1" /><path clip-path="url(#clip240)" d="M716.68 28.4397 Q711.518 28.4397 709.527 29.6202 Q707.536 30.8008 707.536 33.648 Q707.536 35.9165 709.018 37.2591 Q710.522 38.5785 713.092 38.5785 Q716.633 38.5785 718.763 36.0785 Q720.916 33.5554 720.916 29.3887 L720.916 28.4397 L716.68 28.4397 M725.175 26.6804 L725.175 41.472 L720.916 41.472 L720.916 37.5368 Q719.457 39.8979 717.281 41.0322 Q715.105 42.1433 711.957 42.1433 Q707.976 42.1433 705.615 39.9211 Q703.277 37.6757 703.277 33.9257 Q703.277 29.5508 706.193 27.3286 Q709.133 25.1063 714.943 25.1063 L720.916 25.1063 L720.916 24.6897 Q720.916 21.7499 718.971 20.1527 Q717.05 18.5323 713.555 18.5323 Q711.332 18.5323 709.226 19.0647 Q707.119 19.5971 705.175 20.6619 L705.175 16.7268 Q707.513 15.824 709.712 15.3842 Q711.911 14.9212 713.994 14.9212 Q719.619 14.9212 722.397 17.8379 Q725.175 20.7545 725.175 26.6804 Z" fill="#000000" fill-rule="nonzero" fill-opacity="1" /><path clip-path="url(#clip240)" d="M754.133 20.523 Q755.73 17.6527 757.952 16.2869 Q760.175 14.9212 763.184 14.9212 Q767.235 14.9212 769.434 17.7684 Q771.633 20.5925 771.633 25.8239 L771.633 41.472 L767.351 41.472 L767.351 25.9628 Q767.351 22.236 766.031 20.4304 Q764.712 18.6249 762.003 18.6249 Q758.693 18.6249 756.772 20.824 Q754.851 23.023 754.851 26.8193 L754.851 41.472 L750.568 41.472 L750.568 25.9628 Q750.568 22.2128 749.249 20.4304 Q747.929 18.6249 745.175 18.6249 Q741.911 18.6249 739.99 20.8471 Q738.068 23.0462 738.068 26.8193 L738.068 41.472 L733.786 41.472 L733.786 15.5462 L738.068 15.5462 L738.068 19.574 Q739.527 17.1897 741.564 16.0555 Q743.601 14.9212 746.402 14.9212 Q749.226 14.9212 751.193 16.3564 Q753.184 17.7916 754.133 20.523 Z" fill="#000000" fill-rule="nonzero" fill-opacity="1" /><path clip-path="url(#clip240)" d="M784.249 37.5831 L784.249 51.3331 L779.966 51.3331 L779.966 15.5462 L784.249 15.5462 L784.249 19.4814 Q785.591 17.1666 787.628 16.0555 Q789.688 14.9212 792.536 14.9212 Q797.258 14.9212 800.198 18.6712 Q803.161 22.4212 803.161 28.5323 Q803.161 34.6433 800.198 38.3933 Q797.258 42.1433 792.536 42.1433 Q789.688 42.1433 787.628 41.0322 Q785.591 39.8979 784.249 37.5831 M798.739 28.5323 Q798.739 23.8332 796.795 21.1712 Q794.874 18.486 791.494 18.486 Q788.114 18.486 786.17 21.1712 Q784.249 23.8332 784.249 28.5323 Q784.249 33.2313 786.17 35.9165 Q788.114 38.5785 791.494 38.5785 Q794.874 38.5785 796.795 35.9165 Q798.739 33.2313 798.739 28.5323 Z" fill="#000000" fill-rule="nonzero" fill-opacity="1" /><path clip-path="url(#clip240)" d="M810.221 5.45367 L814.48 5.45367 L814.48 41.472 L810.221 41.472 L810.221 5.45367 Z" fill="#000000" fill-rule="nonzero" fill-opacity="1" /><path clip-path="url(#clip240)" d="M845.568 27.4443 L845.568 29.5276 L825.984 29.5276 Q826.262 33.9257 828.623 36.2405 Q831.008 38.5322 835.244 38.5322 Q837.697 38.5322 839.989 37.9304 Q842.304 37.3285 844.572 36.1248 L844.572 40.1526 Q842.281 41.1248 839.873 41.634 Q837.466 42.1433 834.989 42.1433 Q828.785 42.1433 825.151 38.5322 Q821.54 34.9211 821.54 28.7637 Q821.54 22.398 824.966 18.6712 Q828.415 14.9212 834.248 14.9212 Q839.48 14.9212 842.512 18.3008 Q845.568 21.6573 845.568 27.4443 M841.308 26.1943 Q841.262 22.699 839.341 20.6156 Q837.443 18.5323 834.295 18.5323 Q830.73 18.5323 828.577 20.5462 Q826.447 22.5601 826.123 26.2175 L841.308 26.1943 Z" fill="#000000" fill-rule="nonzero" fill-opacity="1" /><path clip-path="url(#clip240)" d="M871.748 37.5831 L871.748 51.3331 L867.466 51.3331 L867.466 15.5462 L871.748 15.5462 L871.748 19.4814 Q873.091 17.1666 875.128 16.0555 Q877.188 14.9212 880.035 14.9212 Q884.757 14.9212 887.697 18.6712 Q890.66 22.4212 890.66 28.5323 Q890.66 34.6433 887.697 38.3933 Q884.757 42.1433 880.035 42.1433 Q877.188 42.1433 875.128 41.0322 Q873.091 39.8979 871.748 37.5831 M886.239 28.5323 Q886.239 23.8332 884.294 21.1712 Q882.373 18.486 878.993 18.486 Q875.614 18.486 873.669 21.1712 Q871.748 23.8332 871.748 28.5323 Q871.748 33.2313 873.669 35.9165 Q875.614 38.5785 878.993 38.5785 Q882.373 38.5785 884.294 35.9165 Q886.239 33.2313 886.239 28.5323 Z" fill="#000000" fill-rule="nonzero" fill-opacity="1" /><path clip-path="url(#clip240)" d="M909.503 28.4397 Q904.341 28.4397 902.35 29.6202 Q900.359 30.8008 900.359 33.648 Q900.359 35.9165 901.841 37.2591 Q903.345 38.5785 905.915 38.5785 Q909.456 38.5785 911.586 36.0785 Q913.739 33.5554 913.739 29.3887 L913.739 28.4397 L909.503 28.4397 M917.998 26.6804 L917.998 41.472 L913.739 41.472 L913.739 37.5368 Q912.28 39.8979 910.104 41.0322 Q907.928 42.1433 904.78 42.1433 Q900.799 42.1433 898.438 39.9211 Q896.1 37.6757 896.1 33.9257 Q896.1 29.5508 899.016 27.3286 Q901.956 25.1063 907.766 25.1063 L913.739 25.1063 L913.739 24.6897 Q913.739 21.7499 911.794 20.1527 Q909.873 18.5323 906.378 18.5323 Q904.155 18.5323 902.049 19.0647 Q899.942 19.5971 897.998 20.6619 L897.998 16.7268 Q900.336 15.824 902.535 15.3842 Q904.734 14.9212 906.817 14.9212 Q912.442 14.9212 915.22 17.8379 Q917.998 20.7545 917.998 26.6804 Z" fill="#000000" fill-rule="nonzero" fill-opacity="1" /><path clip-path="url(#clip240)" d="M930.984 8.18514 L930.984 15.5462 L939.757 15.5462 L939.757 18.8564 L930.984 18.8564 L930.984 32.9304 Q930.984 36.1017 931.84 37.0044 Q932.72 37.9072 935.382 37.9072 L939.757 37.9072 L939.757 41.472 L935.382 41.472 Q930.452 41.472 928.577 39.6433 Q926.702 37.7915 926.702 32.9304 L926.702 18.8564 L923.577 18.8564 L923.577 15.5462 L926.702 15.5462 L926.702 8.18514 L930.984 8.18514 Z" fill="#000000" fill-rule="nonzero" fill-opacity="1" /><path clip-path="url(#clip240)" d="M966.91 25.8239 L966.91 41.472 L962.65 41.472 L962.65 25.9628 Q962.65 22.2823 961.215 20.4536 Q959.78 18.6249 956.91 18.6249 Q953.461 18.6249 951.47 20.824 Q949.479 23.023 949.479 26.8193 L949.479 41.472 L945.197 41.472 L945.197 5.45367 L949.479 5.45367 L949.479 19.574 Q951.007 17.236 953.067 16.0786 Q955.15 14.9212 957.859 14.9212 Q962.326 14.9212 964.618 17.699 Q966.91 20.4536 966.91 25.8239 Z" fill="#000000" fill-rule="nonzero" fill-opacity="1" /><path clip-path="url(#clip240)" d="M991.933 16.3101 L991.933 20.3379 Q990.127 19.4119 988.183 18.949 Q986.238 18.486 984.155 18.486 Q980.984 18.486 979.386 19.4582 Q977.812 20.4304 977.812 22.3749 Q977.812 23.8564 978.947 24.7128 Q980.081 25.5462 983.507 26.31 L984.965 26.6341 Q989.502 27.6063 991.4 29.3887 Q993.322 31.148 993.322 34.3193 Q993.322 37.9304 990.451 40.0368 Q987.604 42.1433 982.604 42.1433 Q980.521 42.1433 978.252 41.7266 Q976.007 41.3331 973.507 40.5229 L973.507 36.1248 Q975.868 37.3517 978.16 37.9766 Q980.451 38.5785 982.697 38.5785 Q985.706 38.5785 987.326 37.56 Q988.947 36.5183 988.947 34.6433 Q988.947 32.9072 987.766 31.9813 Q986.609 31.0554 982.65 30.1989 L981.169 29.8517 Q977.211 29.0184 975.451 27.3054 Q973.692 25.5693 973.692 22.5601 Q973.692 18.9027 976.285 16.9119 Q978.877 14.9212 983.646 14.9212 Q986.007 14.9212 988.09 15.2684 Q990.173 15.6157 991.933 16.3101 Z" fill="#000000" fill-rule="nonzero" fill-opacity="1" /><path clip-path="url(#clip240)" d="M1025.22 18.5323 Q1021.79 18.5323 1019.8 21.2175 Q1017.81 23.8795 1017.81 28.5323 Q1017.81 33.185 1019.78 35.8702 Q1021.77 38.5322 1025.22 38.5322 Q1028.62 38.5322 1030.61 35.847 Q1032.6 33.1619 1032.6 28.5323 Q1032.6 23.9258 1030.61 21.2406 Q1028.62 18.5323 1025.22 18.5323 M1025.22 14.9212 Q1030.78 14.9212 1033.95 18.5323 Q1037.12 22.1434 1037.12 28.5323 Q1037.12 34.898 1033.95 38.5322 Q1030.78 42.1433 1025.22 42.1433 Q1019.64 42.1433 1016.47 38.5322 Q1013.32 34.898 1013.32 28.5323 Q1013.32 22.1434 1016.47 18.5323 Q1019.64 14.9212 1025.22 14.9212 Z" fill="#000000" fill-rule="nonzero" fill-opacity="1" /><path clip-path="url(#clip240)" d="M1057.3 5.45367 L1057.3 8.99532 L1053.23 8.99532 Q1050.94 8.99532 1050.03 9.92124 Q1049.15 10.8472 1049.15 13.2546 L1049.15 15.5462 L1056.17 15.5462 L1056.17 18.8564 L1049.15 18.8564 L1049.15 41.472 L1044.87 41.472 L1044.87 18.8564 L1040.8 18.8564 L1040.8 15.5462 L1044.87 15.5462 L1044.87 13.7407 Q1044.87 9.41199 1046.89 7.4444 Q1048.9 5.45367 1053.27 5.45367 L1057.3 5.45367 Z" fill="#000000" fill-rule="nonzero" fill-opacity="1" /><path clip-path="url(#clip240)" d="M1089.06 5.45367 L1089.06 8.99532 L1084.99 8.99532 Q1082.7 8.99532 1081.79 9.92124 Q1080.91 10.8472 1080.91 13.2546 L1080.91 15.5462 L1087.93 15.5462 L1087.93 18.8564 L1080.91 18.8564 L1080.91 41.472 L1076.63 41.472 L1076.63 18.8564 L1072.56 18.8564 L1072.56 15.5462 L1076.63 15.5462 L1076.63 13.7407 Q1076.63 9.41199 1078.65 7.4444 Q1080.66 5.45367 1085.03 5.45367 L1089.06 5.45367 Z" fill="#000000" fill-rule="nonzero" fill-opacity="1" /><path clip-path="url(#clip240)" d="M1107.65 19.5277 Q1106.93 19.111 1106.08 18.9258 Q1105.24 18.7175 1104.22 18.7175 Q1100.61 18.7175 1098.67 21.0786 Q1096.75 23.4165 1096.75 27.8147 L1096.75 41.472 L1092.46 41.472 L1092.46 15.5462 L1096.75 15.5462 L1096.75 19.574 Q1098.09 17.2129 1100.24 16.0786 Q1102.4 14.9212 1105.47 14.9212 Q1105.91 14.9212 1106.45 14.9907 Q1106.98 15.037 1107.63 15.1527 L1107.65 19.5277 Z" fill="#000000" fill-rule="nonzero" fill-opacity="1" /><path clip-path="url(#clip240)" d="M1123.9 28.4397 Q1118.74 28.4397 1116.75 29.6202 Q1114.76 30.8008 1114.76 33.648 Q1114.76 35.9165 1116.24 37.2591 Q1117.74 38.5785 1120.31 38.5785 Q1123.85 38.5785 1125.98 36.0785 Q1128.14 33.5554 1128.14 29.3887 L1128.14 28.4397 L1123.9 28.4397 M1132.39 26.6804 L1132.39 41.472 L1128.14 41.472 L1128.14 37.5368 Q1126.68 39.8979 1124.5 41.0322 Q1122.33 42.1433 1119.18 42.1433 Q1115.2 42.1433 1112.83 39.9211 Q1110.5 37.6757 1110.5 33.9257 Q1110.5 29.5508 1113.41 27.3286 Q1116.35 25.1063 1122.16 25.1063 L1128.14 25.1063 L1128.14 24.6897 Q1128.14 21.7499 1126.19 20.1527 Q1124.27 18.5323 1120.77 18.5323 Q1118.55 18.5323 1116.45 19.0647 Q1114.34 19.5971 1112.39 20.6619 L1112.39 16.7268 Q1114.73 15.824 1116.93 15.3842 Q1119.13 14.9212 1121.21 14.9212 Q1126.84 14.9212 1129.62 17.8379 Q1132.39 20.7545 1132.39 26.6804 Z" fill="#000000" fill-rule="nonzero" fill-opacity="1" /><path clip-path="url(#clip240)" d="M1159.83 16.5416 L1159.83 20.523 Q1158.02 19.5277 1156.19 19.0416 Q1154.39 18.5323 1152.53 18.5323 Q1148.39 18.5323 1146.1 21.1712 Q1143.81 23.7869 1143.81 28.5323 Q1143.81 33.2776 1146.1 35.9165 Q1148.39 38.5322 1152.53 38.5322 Q1154.39 38.5322 1156.19 38.0461 Q1158.02 37.5368 1159.83 36.5415 L1159.83 40.4766 Q1158.04 41.31 1156.12 41.7266 Q1154.22 42.1433 1152.07 42.1433 Q1146.21 42.1433 1142.77 38.4628 Q1139.32 34.7822 1139.32 28.5323 Q1139.32 22.1897 1142.79 18.5555 Q1146.28 14.9212 1152.35 14.9212 Q1154.32 14.9212 1156.19 15.3379 Q1158.07 15.7314 1159.83 16.5416 Z" fill="#000000" fill-rule="nonzero" fill-opacity="1" /><path clip-path="url(#clip240)" d="M1171.45 8.18514 L1171.45 15.5462 L1180.22 15.5462 L1180.22 18.8564 L1171.45 18.8564 L1171.45 32.9304 Q1171.45 36.1017 1172.3 37.0044 Q1173.18 37.9072 1175.84 37.9072 L1180.22 37.9072 L1180.22 41.472 L1175.84 41.472 Q1170.91 41.472 1169.04 39.6433 Q1167.16 37.7915 1167.16 32.9304 L1167.16 18.8564 L1164.04 18.8564 L1164.04 15.5462 L1167.16 15.5462 L1167.16 8.18514 L1171.45 8.18514 Z" fill="#000000" fill-rule="nonzero" fill-opacity="1" /><path clip-path="url(#clip240)" d="M1185.82 15.5462 L1190.08 15.5462 L1190.08 41.472 L1185.82 41.472 L1185.82 15.5462 M1185.82 5.45367 L1190.08 5.45367 L1190.08 10.8472 L1185.82 10.8472 L1185.82 5.45367 Z" fill="#000000" fill-rule="nonzero" fill-opacity="1" /><path clip-path="url(#clip240)" d="M1209.04 18.5323 Q1205.61 18.5323 1203.62 21.2175 Q1201.63 23.8795 1201.63 28.5323 Q1201.63 33.185 1203.6 35.8702 Q1205.59 38.5322 1209.04 38.5322 Q1212.44 38.5322 1214.43 35.847 Q1216.42 33.1619 1216.42 28.5323 Q1216.42 23.9258 1214.43 21.2406 Q1212.44 18.5323 1209.04 18.5323 M1209.04 14.9212 Q1214.59 14.9212 1217.76 18.5323 Q1220.94 22.1434 1220.94 28.5323 Q1220.94 34.898 1217.76 38.5322 Q1214.59 42.1433 1209.04 42.1433 Q1203.46 42.1433 1200.29 38.5322 Q1197.14 34.898 1197.14 28.5323 Q1197.14 22.1434 1200.29 18.5323 Q1203.46 14.9212 1209.04 14.9212 Z" fill="#000000" fill-rule="nonzero" fill-opacity="1" /><path clip-path="url(#clip240)" d="M1249.55 25.8239 L1249.55 41.472 L1245.29 41.472 L1245.29 25.9628 Q1245.29 22.2823 1243.85 20.4536 Q1242.42 18.6249 1239.55 18.6249 Q1236.1 18.6249 1234.11 20.824 Q1232.12 23.023 1232.12 26.8193 L1232.12 41.472 L1227.83 41.472 L1227.83 15.5462 L1232.12 15.5462 L1232.12 19.574 Q1233.64 17.236 1235.7 16.0786 Q1237.79 14.9212 1240.5 14.9212 Q1244.96 14.9212 1247.26 17.699 Q1249.55 20.4536 1249.55 25.8239 Z" fill="#000000" fill-rule="nonzero" fill-opacity="1" /><path clip-path="url(#clip240)" d="M1269.82 28.4397 Q1264.66 28.4397 1262.67 29.6202 Q1260.68 30.8008 1260.68 33.648 Q1260.68 35.9165 1262.16 37.2591 Q1263.67 38.5785 1266.24 38.5785 Q1269.78 38.5785 1271.91 36.0785 Q1274.06 33.5554 1274.06 29.3887 L1274.06 28.4397 L1269.82 28.4397 M1278.32 26.6804 L1278.32 41.472 L1274.06 41.472 L1274.06 37.5368 Q1272.6 39.8979 1270.43 41.0322 Q1268.25 42.1433 1265.1 42.1433 Q1261.12 42.1433 1258.76 39.9211 Q1256.42 37.6757 1256.42 33.9257 Q1256.42 29.5508 1259.34 27.3286 Q1262.28 25.1063 1268.09 25.1063 L1274.06 25.1063 L1274.06 24.6897 Q1274.06 21.7499 1272.12 20.1527 Q1270.2 18.5323 1266.7 18.5323 Q1264.48 18.5323 1262.37 19.0647 Q1260.26 19.5971 1258.32 20.6619 L1258.32 16.7268 Q1260.66 15.824 1262.86 15.3842 Q1265.06 14.9212 1267.14 14.9212 Q1272.76 14.9212 1275.54 17.8379 Q1278.32 20.7545 1278.32 26.6804 Z" fill="#000000" fill-rule="nonzero" fill-opacity="1" /><path clip-path="url(#clip240)" d="M1287.09 5.45367 L1291.35 5.45367 L1291.35 41.472 L1287.09 41.472 L1287.09 5.45367 Z" fill="#000000" fill-rule="nonzero" fill-opacity="1" /><path clip-path="url(#clip240)" d="M1320.19 24.9675 L1320.19 37.6294 L1327.69 37.6294 Q1331.47 37.6294 1333.27 36.0785 Q1335.1 34.5044 1335.1 31.2869 Q1335.1 28.0461 1333.27 26.5184 Q1331.47 24.9675 1327.69 24.9675 L1320.19 24.9675 M1320.19 10.7546 L1320.19 21.1712 L1327.12 21.1712 Q1330.54 21.1712 1332.21 19.898 Q1333.9 18.6018 1333.9 15.9629 Q1333.9 13.3472 1332.21 12.0509 Q1330.54 10.7546 1327.12 10.7546 L1320.19 10.7546 M1315.52 6.912 L1327.46 6.912 Q1332.81 6.912 1335.7 9.13421 Q1338.6 11.3564 1338.6 15.4536 Q1338.6 18.6249 1337.12 20.4999 Q1335.63 22.3749 1332.76 22.8378 Q1336.21 23.5786 1338.11 25.9397 Q1340.03 28.2776 1340.03 31.7961 Q1340.03 36.4257 1336.88 38.9489 Q1333.74 41.472 1327.93 41.472 L1315.52 41.472 L1315.52 6.912 Z" fill="#000000" fill-rule="nonzero" fill-opacity="1" /><path clip-path="url(#clip240)" d="M1362.88 19.5277 Q1362.16 19.111 1361.31 18.9258 Q1360.47 18.7175 1359.45 18.7175 Q1355.84 18.7175 1353.9 21.0786 Q1351.98 23.4165 1351.98 27.8147 L1351.98 41.472 L1347.69 41.472 L1347.69 15.5462 L1351.98 15.5462 L1351.98 19.574 Q1353.32 17.2129 1355.47 16.0786 Q1357.63 14.9212 1360.7 14.9212 Q1361.14 14.9212 1361.68 14.9907 Q1362.21 15.037 1362.86 15.1527 L1362.88 19.5277 Z" fill="#000000" fill-rule="nonzero" fill-opacity="1" /><path clip-path="url(#clip240)" d="M1376.35 18.5323 Q1372.93 18.5323 1370.94 21.2175 Q1368.94 23.8795 1368.94 28.5323 Q1368.94 33.185 1370.91 35.8702 Q1372.9 38.5322 1376.35 38.5322 Q1379.75 38.5322 1381.75 35.847 Q1383.74 33.1619 1383.74 28.5323 Q1383.74 23.9258 1381.75 21.2406 Q1379.75 18.5323 1376.35 18.5323 M1376.35 14.9212 Q1381.91 14.9212 1385.08 18.5323 Q1388.25 22.1434 1388.25 28.5323 Q1388.25 34.898 1385.08 38.5322 Q1381.91 42.1433 1376.35 42.1433 Q1370.77 42.1433 1367.6 38.5322 Q1364.45 34.898 1364.45 28.5323 Q1364.45 22.1434 1367.6 18.5323 Q1370.77 14.9212 1376.35 14.9212 Z" fill="#000000" fill-rule="nonzero" fill-opacity="1" /><path clip-path="url(#clip240)" d="M1392.83 15.5462 L1397.09 15.5462 L1402.42 35.7776 L1407.72 15.5462 L1412.74 15.5462 L1418.06 35.7776 L1423.37 15.5462 L1427.62 15.5462 L1420.84 41.472 L1415.82 41.472 L1410.24 20.2221 L1404.64 41.472 L1399.62 41.472 L1392.83 15.5462 Z" fill="#000000" fill-rule="nonzero" fill-opacity="1" /><path clip-path="url(#clip240)" d="M1455.63 25.8239 L1455.63 41.472 L1451.37 41.472 L1451.37 25.9628 Q1451.37 22.2823 1449.94 20.4536 Q1448.5 18.6249 1445.63 18.6249 Q1442.18 18.6249 1440.19 20.824 Q1438.2 23.023 1438.2 26.8193 L1438.2 41.472 L1433.92 41.472 L1433.92 15.5462 L1438.2 15.5462 L1438.2 19.574 Q1439.73 17.236 1441.79 16.0786 Q1443.87 14.9212 1446.58 14.9212 Q1451.05 14.9212 1453.34 17.699 Q1455.63 20.4536 1455.63 25.8239 Z" fill="#000000" fill-rule="nonzero" fill-opacity="1" /><path clip-path="url(#clip240)" d="M1464.13 15.5462 L1468.39 15.5462 L1468.39 41.472 L1464.13 41.472 L1464.13 15.5462 M1464.13 5.45367 L1468.39 5.45367 L1468.39 10.8472 L1464.13 10.8472 L1464.13 5.45367 Z" fill="#000000" fill-rule="nonzero" fill-opacity="1" /><path clip-path="url(#clip240)" d="M1489.08 28.4397 Q1483.92 28.4397 1481.93 29.6202 Q1479.94 30.8008 1479.94 33.648 Q1479.94 35.9165 1481.42 37.2591 Q1482.93 38.5785 1485.49 38.5785 Q1489.04 38.5785 1491.17 36.0785 Q1493.32 33.5554 1493.32 29.3887 L1493.32 28.4397 L1489.08 28.4397 M1497.58 26.6804 L1497.58 41.472 L1493.32 41.472 L1493.32 37.5368 Q1491.86 39.8979 1489.68 41.0322 Q1487.51 42.1433 1484.36 42.1433 Q1480.38 42.1433 1478.02 39.9211 Q1475.68 37.6757 1475.68 33.9257 Q1475.68 29.5508 1478.6 27.3286 Q1481.54 25.1063 1487.35 25.1063 L1493.32 25.1063 L1493.32 24.6897 Q1493.32 21.7499 1491.37 20.1527 Q1489.45 18.5323 1485.96 18.5323 Q1483.74 18.5323 1481.63 19.0647 Q1479.52 19.5971 1477.58 20.6619 L1477.58 16.7268 Q1479.92 15.824 1482.12 15.3842 Q1484.31 14.9212 1486.4 14.9212 Q1492.02 14.9212 1494.8 17.8379 Q1497.58 20.7545 1497.58 26.6804 Z" fill="#000000" fill-rule="nonzero" fill-opacity="1" /><path clip-path="url(#clip240)" d="M1527.9 25.8239 L1527.9 41.472 L1523.64 41.472 L1523.64 25.9628 Q1523.64 22.2823 1522.21 20.4536 Q1520.77 18.6249 1517.9 18.6249 Q1514.45 18.6249 1512.46 20.824 Q1510.47 23.023 1510.47 26.8193 L1510.47 41.472 L1506.19 41.472 L1506.19 15.5462 L1510.47 15.5462 L1510.47 19.574 Q1512 17.236 1514.06 16.0786 Q1516.14 14.9212 1518.85 14.9212 Q1523.32 14.9212 1525.61 17.699 Q1527.9 20.4536 1527.9 25.8239 Z" fill="#000000" fill-rule="nonzero" fill-opacity="1" /><path clip-path="url(#clip240)" d="M1571.65 20.523 Q1573.25 17.6527 1575.47 16.2869 Q1577.69 14.9212 1580.7 14.9212 Q1584.75 14.9212 1586.95 17.7684 Q1589.15 20.5925 1589.15 25.8239 L1589.15 41.472 L1584.87 41.472 L1584.87 25.9628 Q1584.87 22.236 1583.55 20.4304 Q1582.23 18.6249 1579.52 18.6249 Q1576.21 18.6249 1574.29 20.824 Q1572.37 23.023 1572.37 26.8193 L1572.37 41.472 L1568.09 41.472 L1568.09 25.9628 Q1568.09 22.2128 1566.77 20.4304 Q1565.45 18.6249 1562.69 18.6249 Q1559.43 18.6249 1557.51 20.8471 Q1555.59 23.0462 1555.59 26.8193 L1555.59 41.472 L1551.3 41.472 L1551.3 15.5462 L1555.59 15.5462 L1555.59 19.574 Q1557.05 17.1897 1559.08 16.0555 Q1561.12 14.9212 1563.92 14.9212 Q1566.74 14.9212 1568.71 16.3564 Q1570.7 17.7916 1571.65 20.523 Z" fill="#000000" fill-rule="nonzero" fill-opacity="1" /><path clip-path="url(#clip240)" d="M1607.69 18.5323 Q1604.27 18.5323 1602.28 21.2175 Q1600.29 23.8795 1600.29 28.5323 Q1600.29 33.185 1602.25 35.8702 Q1604.24 38.5322 1607.69 38.5322 Q1611.1 38.5322 1613.09 35.847 Q1615.08 33.1619 1615.08 28.5323 Q1615.08 23.9258 1613.09 21.2406 Q1611.1 18.5323 1607.69 18.5323 M1607.69 14.9212 Q1613.25 14.9212 1616.42 18.5323 Q1619.59 22.1434 1619.59 28.5323 Q1619.59 34.898 1616.42 38.5322 Q1613.25 42.1433 1607.69 42.1433 Q1602.11 42.1433 1598.94 38.5322 Q1595.8 34.898 1595.8 28.5323 Q1595.8 22.1434 1598.94 18.5323 Q1602.11 14.9212 1607.69 14.9212 Z" fill="#000000" fill-rule="nonzero" fill-opacity="1" /><path clip-path="url(#clip240)" d="M1630.86 8.18514 L1630.86 15.5462 L1639.64 15.5462 L1639.64 18.8564 L1630.86 18.8564 L1630.86 32.9304 Q1630.86 36.1017 1631.72 37.0044 Q1632.6 37.9072 1635.26 37.9072 L1639.64 37.9072 L1639.64 41.472 L1635.26 41.472 Q1630.33 41.472 1628.46 39.6433 Q1626.58 37.7915 1626.58 32.9304 L1626.58 18.8564 L1623.46 18.8564 L1623.46 15.5462 L1626.58 15.5462 L1626.58 8.18514 L1630.86 8.18514 Z" fill="#000000" fill-rule="nonzero" fill-opacity="1" /><path clip-path="url(#clip240)" d="M1645.24 15.5462 L1649.5 15.5462 L1649.5 41.472 L1645.24 41.472 L1645.24 15.5462 M1645.24 5.45367 L1649.5 5.45367 L1649.5 10.8472 L1645.24 10.8472 L1645.24 5.45367 Z" fill="#000000" fill-rule="nonzero" fill-opacity="1" /><path clip-path="url(#clip240)" d="M1668.46 18.5323 Q1665.03 18.5323 1663.04 21.2175 Q1661.05 23.8795 1661.05 28.5323 Q1661.05 33.185 1663.02 35.8702 Q1665.01 38.5322 1668.46 38.5322 Q1671.86 38.5322 1673.85 35.847 Q1675.84 33.1619 1675.84 28.5323 Q1675.84 23.9258 1673.85 21.2406 Q1671.86 18.5323 1668.46 18.5323 M1668.46 14.9212 Q1674.01 14.9212 1677.18 18.5323 Q1680.35 22.1434 1680.35 28.5323 Q1680.35 34.898 1677.18 38.5322 Q1674.01 42.1433 1668.46 42.1433 Q1662.88 42.1433 1659.71 38.5322 Q1656.56 34.898 1656.56 28.5323 Q1656.56 22.1434 1659.71 18.5323 Q1662.88 14.9212 1668.46 14.9212 Z" fill="#000000" fill-rule="nonzero" fill-opacity="1" /><path clip-path="url(#clip240)" d="M1708.97 25.8239 L1708.97 41.472 L1704.71 41.472 L1704.71 25.9628 Q1704.71 22.2823 1703.27 20.4536 Q1701.84 18.6249 1698.97 18.6249 Q1695.52 18.6249 1693.53 20.824 Q1691.54 23.023 1691.54 26.8193 L1691.54 41.472 L1687.25 41.472 L1687.25 15.5462 L1691.54 15.5462 L1691.54 19.574 Q1693.06 17.236 1695.12 16.0786 Q1697.21 14.9212 1699.91 14.9212 Q1704.38 14.9212 1706.67 17.699 Q1708.97 20.4536 1708.97 25.8239 Z" fill="#000000" fill-rule="nonzero" fill-opacity="1" /><path clip-path="url(#clip240)" d="M1742.58 18.5323 Q1739.15 18.5323 1737.16 21.2175 Q1735.17 23.8795 1735.17 28.5323 Q1735.17 33.185 1737.14 35.8702 Q1739.13 38.5322 1742.58 38.5322 Q1745.98 38.5322 1747.97 35.847 Q1749.96 33.1619 1749.96 28.5323 Q1749.96 23.9258 1747.97 21.2406 Q1745.98 18.5323 1742.58 18.5323 M1742.58 14.9212 Q1748.13 14.9212 1751.3 18.5323 Q1754.47 22.1434 1754.47 28.5323 Q1754.47 34.898 1751.3 38.5322 Q1748.13 42.1433 1742.58 42.1433 Q1737 42.1433 1733.83 38.5322 Q1730.68 34.898 1730.68 28.5323 Q1730.68 22.1434 1733.83 18.5323 Q1737 14.9212 1742.58 14.9212 Z" fill="#000000" fill-rule="nonzero" fill-opacity="1" /><path clip-path="url(#clip240)" d="M1774.66 5.45367 L1774.66 8.99532 L1770.59 8.99532 Q1768.29 8.99532 1767.39 9.92124 Q1766.51 10.8472 1766.51 13.2546 L1766.51 15.5462 L1773.53 15.5462 L1773.53 18.8564 L1766.51 18.8564 L1766.51 41.472 L1762.23 41.472 L1762.23 18.8564 L1758.16 18.8564 L1758.16 15.5462 L1762.23 15.5462 L1762.23 13.7407 Q1762.23 9.41199 1764.24 7.4444 Q1766.26 5.45367 1770.63 5.45367 L1774.66 5.45367 Z" fill="#000000" fill-rule="nonzero" fill-opacity="1" /><path clip-path="url(#clip240)" d="M1793.29 5.45367 L1797.55 5.45367 L1797.55 41.472 L1793.29 41.472 L1793.29 5.45367 Z" fill="#000000" fill-rule="nonzero" fill-opacity="1" /><path clip-path="url(#clip240)" d="M1828.64 27.4443 L1828.64 29.5276 L1809.06 29.5276 Q1809.34 33.9257 1811.7 36.2405 Q1814.08 38.5322 1818.32 38.5322 Q1820.77 38.5322 1823.06 37.9304 Q1825.38 37.3285 1827.65 36.1248 L1827.65 40.1526 Q1825.35 41.1248 1822.95 41.634 Q1820.54 42.1433 1818.06 42.1433 Q1811.86 42.1433 1808.22 38.5322 Q1804.61 34.9211 1804.61 28.7637 Q1804.61 22.398 1808.04 18.6712 Q1811.49 14.9212 1817.32 14.9212 Q1822.55 14.9212 1825.59 18.3008 Q1828.64 21.6573 1828.64 27.4443 M1824.38 26.1943 Q1824.34 22.699 1822.41 20.6156 Q1820.52 18.5323 1817.37 18.5323 Q1813.8 18.5323 1811.65 20.5462 Q1809.52 22.5601 1809.2 26.2175 L1824.38 26.1943 Z" fill="#000000" fill-rule="nonzero" fill-opacity="1" /><path clip-path="url(#clip240)" d="M1857.18 25.8239 L1857.18 41.472 L1852.92 41.472 L1852.92 25.9628 Q1852.92 22.2823 1851.49 20.4536 Q1850.05 18.6249 1847.18 18.6249 Q1843.73 18.6249 1841.74 20.824 Q1839.75 23.023 1839.75 26.8193 L1839.75 41.472 L1835.47 41.472 L1835.47 15.5462 L1839.75 15.5462 L1839.75 19.574 Q1841.28 17.236 1843.34 16.0786 Q1845.42 14.9212 1848.13 14.9212 Q1852.6 14.9212 1854.89 17.699 Q1857.18 20.4536 1857.18 25.8239 Z" fill="#000000" fill-rule="nonzero" fill-opacity="1" /><path clip-path="url(#clip240)" d="M1882.74 28.2082 Q1882.74 23.5786 1880.82 21.0323 Q1878.92 18.486 1875.47 18.486 Q1872.04 18.486 1870.12 21.0323 Q1868.22 23.5786 1868.22 28.2082 Q1868.22 32.8146 1870.12 35.3609 Q1872.04 37.9072 1875.47 37.9072 Q1878.92 37.9072 1880.82 35.3609 Q1882.74 32.8146 1882.74 28.2082 M1887 38.2544 Q1887 44.8748 1884.06 48.0923 Q1881.12 51.3331 1875.05 51.3331 Q1872.81 51.3331 1870.82 50.9858 Q1868.83 50.6618 1866.95 49.9673 L1866.95 45.8238 Q1868.83 46.8423 1870.65 47.3285 Q1872.48 47.8146 1874.38 47.8146 Q1878.57 47.8146 1880.65 45.6155 Q1882.74 43.4396 1882.74 39.0183 L1882.74 36.9118 Q1881.42 39.2035 1879.36 40.3377 Q1877.3 41.472 1874.43 41.472 Q1869.66 41.472 1866.74 37.8378 Q1863.83 34.2035 1863.83 28.2082 Q1863.83 22.1897 1866.74 18.5555 Q1869.66 14.9212 1874.43 14.9212 Q1877.3 14.9212 1879.36 16.0555 Q1881.42 17.1897 1882.74 19.4814 L1882.74 15.5462 L1887 15.5462 L1887 38.2544 Z" fill="#000000" fill-rule="nonzero" fill-opacity="1" /><path clip-path="url(#clip240)" d="M1899.98 8.18514 L1899.98 15.5462 L1908.76 15.5462 L1908.76 18.8564 L1899.98 18.8564 L1899.98 32.9304 Q1899.98 36.1017 1900.84 37.0044 Q1901.72 37.9072 1904.38 37.9072 L1908.76 37.9072 L1908.76 41.472 L1904.38 41.472 Q1899.45 41.472 1897.58 39.6433 Q1895.7 37.7915 1895.7 32.9304 L1895.7 18.8564 L1892.58 18.8564 L1892.58 15.5462 L1895.7 15.5462 L1895.7 8.18514 L1899.98 8.18514 Z" fill="#000000" fill-rule="nonzero" fill-opacity="1" /><path clip-path="url(#clip240)" d="M1935.91 25.8239 L1935.91 41.472 L1931.65 41.472 L1931.65 25.9628 Q1931.65 22.2823 1930.21 20.4536 Q1928.78 18.6249 1925.91 18.6249 Q1922.46 18.6249 1920.47 20.824 Q1918.48 23.023 1918.48 26.8193 L1918.48 41.472 L1914.2 41.472 L1914.2 5.45367 L1918.48 5.45367 L1918.48 19.574 Q1920.01 17.236 1922.07 16.0786 Q1924.15 14.9212 1926.86 14.9212 Q1931.33 14.9212 1933.62 17.699 Q1935.91 20.4536 1935.91 25.8239 Z" fill="#000000" fill-rule="nonzero" fill-opacity="1" /><path clip-path="url(#clip240)" d="M1960.12 6.912 L1978.48 6.912 L1978.48 10.8472 L1964.4 10.8472 L1964.4 19.3193 Q1965.42 18.9721 1966.44 18.8101 Q1967.46 18.6249 1968.48 18.6249 Q1974.27 18.6249 1977.64 21.7962 Q1981.02 24.9675 1981.02 30.3841 Q1981.02 35.9628 1977.55 39.0646 Q1974.08 42.1433 1967.76 42.1433 Q1965.58 42.1433 1963.32 41.7729 Q1961.07 41.4026 1958.66 40.6618 L1958.66 35.9628 Q1960.75 37.097 1962.97 37.6526 Q1965.19 38.2081 1967.67 38.2081 Q1971.67 38.2081 1974.01 36.1017 Q1976.35 33.9952 1976.35 30.3841 Q1976.35 26.773 1974.01 24.6665 Q1971.67 22.5601 1967.67 22.5601 Q1965.79 22.5601 1963.92 22.9767 Q1962.07 23.3934 1960.12 24.273 L1960.12 6.912 Z" fill="#000000" fill-rule="nonzero" fill-opacity="1" /><path clip-path="url(#clip240)" d="M1991.05 37.5368 L1998.69 37.5368 L1998.69 11.1712 L1990.38 12.8379 L1990.38 8.57866 L1998.64 6.912 L2003.32 6.912 L2003.32 37.5368 L2010.95 37.5368 L2010.95 41.472 L1991.05 41.472 L1991.05 37.5368 Z" fill="#000000" fill-rule="nonzero" fill-opacity="1" /><path clip-path="url(#clip240)" d="M2024.43 37.5368 L2040.75 37.5368 L2040.75 41.472 L2018.8 41.472 L2018.8 37.5368 Q2021.46 34.7822 2026.05 30.1526 Q2030.65 25.4999 2031.83 24.1573 Q2034.08 21.6341 2034.96 19.898 Q2035.86 18.1388 2035.86 16.449 Q2035.86 13.6944 2033.92 11.9583 Q2032 10.2222 2028.89 10.2222 Q2026.7 10.2222 2024.24 10.9861 Q2021.81 11.7499 2019.03 13.3009 L2019.03 8.57866 Q2021.86 7.4444 2024.31 6.8657 Q2026.77 6.287 2028.8 6.287 Q2034.17 6.287 2037.37 8.97217 Q2040.56 11.6573 2040.56 16.1481 Q2040.56 18.2777 2039.75 20.199 Q2038.96 22.0971 2036.86 24.6897 Q2036.28 25.361 2033.18 28.5786 Q2030.08 31.773 2024.43 37.5368 Z" fill="#000000" fill-rule="nonzero" fill-opacity="1" /><path clip-path="url(#clip240)" d="M2062.55 15.5462 L2066.81 15.5462 L2072.14 35.7776 L2077.44 15.5462 L2082.46 15.5462 L2087.78 35.7776 L2093.08 15.5462 L2097.34 15.5462 L2090.56 41.472 L2085.54 41.472 L2079.96 20.2221 L2074.36 41.472 L2069.33 41.472 L2062.55 15.5462 Z" fill="#000000" fill-rule="nonzero" fill-opacity="1" /><path clip-path="url(#clip240)" d="M2103.8 15.5462 L2108.06 15.5462 L2108.06 41.472 L2103.8 41.472 L2103.8 15.5462 M2103.8 5.45367 L2108.06 5.45367 L2108.06 10.8472 L2103.8 10.8472 L2103.8 5.45367 Z" fill="#000000" fill-rule="nonzero" fill-opacity="1" /><path clip-path="url(#clip240)" d="M2121.19 8.18514 L2121.19 15.5462 L2129.96 15.5462 L2129.96 18.8564 L2121.19 18.8564 L2121.19 32.9304 Q2121.19 36.1017 2122.04 37.0044 Q2122.92 37.9072 2125.58 37.9072 L2129.96 37.9072 L2129.96 41.472 L2125.58 41.472 Q2120.65 41.472 2118.78 39.6433 Q2116.9 37.7915 2116.9 32.9304 L2116.9 18.8564 L2113.78 18.8564 L2113.78 15.5462 L2116.9 15.5462 L2116.9 8.18514 L2121.19 8.18514 Z" fill="#000000" fill-rule="nonzero" fill-opacity="1" /><path clip-path="url(#clip240)" d="M2157.11 25.8239 L2157.11 41.472 L2152.85 41.472 L2152.85 25.9628 Q2152.85 22.2823 2151.42 20.4536 Q2149.98 18.6249 2147.11 18.6249 Q2143.66 18.6249 2141.67 20.824 Q2139.68 23.023 2139.68 26.8193 L2139.68 41.472 L2135.4 41.472 L2135.4 5.45367 L2139.68 5.45367 L2139.68 19.574 Q2141.21 17.236 2143.27 16.0786 Q2145.35 14.9212 2148.06 14.9212 Q2152.53 14.9212 2154.82 17.699 Q2157.11 20.4536 2157.11 25.8239 Z" fill="#000000" fill-rule="nonzero" fill-opacity="1" /><path clip-path="url(#clip240)" d="M2180.86 6.912 L2185.54 6.912 L2185.54 21.0786 L2202.53 21.0786 L2202.53 6.912 L2207.2 6.912 L2207.2 41.472 L2202.53 41.472 L2202.53 25.0138 L2185.54 25.0138 L2185.54 41.472 L2180.86 41.472 L2180.86 6.912 Z" fill="#000000" fill-rule="nonzero" fill-opacity="1" /><path clip-path="url(#clip240)" d="M2215.88 31.2406 L2215.88 15.5462 L2220.14 15.5462 L2220.14 31.0785 Q2220.14 34.7591 2221.58 36.6109 Q2223.01 38.4396 2225.88 38.4396 Q2229.33 38.4396 2231.32 36.2405 Q2233.34 34.0415 2233.34 30.2452 L2233.34 15.5462 L2237.6 15.5462 L2237.6 41.472 L2233.34 41.472 L2233.34 37.4905 Q2231.79 39.8516 2229.73 41.009 Q2227.69 42.1433 2224.98 42.1433 Q2220.51 42.1433 2218.2 39.3655 Q2215.88 36.5878 2215.88 31.2406 M2226.6 14.9212 L2226.6 14.9212 Z" fill="#000000" fill-rule="nonzero" fill-opacity="1" /><path clip-path="url(#clip240)" d="M2261.39 19.5277 Q2260.68 19.111 2259.82 18.9258 Q2258.99 18.7175 2257.97 18.7175 Q2254.36 18.7175 2252.41 21.0786 Q2250.49 23.4165 2250.49 27.8147 L2250.49 41.472 L2246.21 41.472 L2246.21 15.5462 L2250.49 15.5462 L2250.49 19.574 Q2251.83 17.2129 2253.99 16.0786 Q2256.14 14.9212 2259.22 14.9212 Q2259.66 14.9212 2260.19 14.9907 Q2260.72 15.037 2261.37 15.1527 L2261.39 19.5277 Z" fill="#000000" fill-rule="nonzero" fill-opacity="1" /><path clip-path="url(#clip240)" d="M2282.39 16.3101 L2282.39 20.3379 Q2280.58 19.4119 2278.64 18.949 Q2276.69 18.486 2274.61 18.486 Q2271.44 18.486 2269.84 19.4582 Q2268.27 20.4304 2268.27 22.3749 Q2268.27 23.8564 2269.4 24.7128 Q2270.54 25.5462 2273.96 26.31 L2275.42 26.6341 Q2279.96 27.6063 2281.86 29.3887 Q2283.78 31.148 2283.78 34.3193 Q2283.78 37.9304 2280.91 40.0368 Q2278.06 42.1433 2273.06 42.1433 Q2270.98 42.1433 2268.71 41.7266 Q2266.46 41.3331 2263.96 40.5229 L2263.96 36.1248 Q2266.32 37.3517 2268.62 37.9766 Q2270.91 38.5785 2273.15 38.5785 Q2276.16 38.5785 2277.78 37.56 Q2279.4 36.5183 2279.4 34.6433 Q2279.4 32.9072 2278.22 31.9813 Q2277.06 31.0554 2273.11 30.1989 L2271.62 29.8517 Q2267.67 29.0184 2265.91 27.3054 Q2264.15 25.5693 2264.15 22.5601 Q2264.15 18.9027 2266.74 16.9119 Q2269.33 14.9212 2274.1 14.9212 Q2276.46 14.9212 2278.55 15.2684 Q2280.63 15.6157 2282.39 16.3101 Z" fill="#000000" fill-rule="nonzero" fill-opacity="1" /><path clip-path="url(#clip240)" d="M2294.77 8.18514 L2294.77 15.5462 L2303.55 15.5462 L2303.55 18.8564 L2294.77 18.8564 L2294.77 32.9304 Q2294.77 36.1017 2295.63 37.0044 Q2296.51 37.9072 2299.17 37.9072 L2303.55 37.9072 L2303.55 41.472 L2299.17 41.472 Q2294.24 41.472 2292.37 39.6433 Q2290.49 37.7915 2290.49 32.9304 L2290.49 18.8564 L2287.37 18.8564 L2287.37 15.5462 L2290.49 15.5462 L2290.49 8.18514 L2294.77 8.18514 Z" fill="#000000" fill-rule="nonzero" fill-opacity="1" /><path clip-path="url(#clip240)" d="M2328.34 37.5831 L2328.34 51.3331 L2324.06 51.3331 L2324.06 15.5462 L2328.34 15.5462 L2328.34 19.4814 Q2329.68 17.1666 2331.72 16.0555 Q2333.78 14.9212 2336.62 14.9212 Q2341.35 14.9212 2344.29 18.6712 Q2347.25 22.4212 2347.25 28.5323 Q2347.25 34.6433 2344.29 38.3933 Q2341.35 42.1433 2336.62 42.1433 Q2333.78 42.1433 2331.72 41.0322 Q2329.68 39.8979 2328.34 37.5831 M2342.83 28.5323 Q2342.83 23.8332 2340.88 21.1712 Q2338.96 18.486 2335.58 18.486 Q2332.2 18.486 2330.26 21.1712 Q2328.34 23.8332 2328.34 28.5323 Q2328.34 33.2313 2330.26 35.9165 Q2332.2 38.5785 2335.58 38.5785 Q2338.96 38.5785 2340.88 35.9165 Q2342.83 33.2313 2342.83 28.5323 Z" fill="#000000" fill-rule="nonzero" fill-opacity="1" /><path clip-path="url(#clip240)" d="M2366.09 28.4397 Q2360.93 28.4397 2358.94 29.6202 Q2356.95 30.8008 2356.95 33.648 Q2356.95 35.9165 2358.43 37.2591 Q2359.93 38.5785 2362.5 38.5785 Q2366.05 38.5785 2368.18 36.0785 Q2370.33 33.5554 2370.33 29.3887 L2370.33 28.4397 L2366.09 28.4397 M2374.59 26.6804 L2374.59 41.472 L2370.33 41.472 L2370.33 37.5368 Q2368.87 39.8979 2366.69 41.0322 Q2364.52 42.1433 2361.37 42.1433 Q2357.39 42.1433 2355.03 39.9211 Q2352.69 37.6757 2352.69 33.9257 Q2352.69 29.5508 2355.61 27.3286 Q2358.55 25.1063 2364.36 25.1063 L2370.33 25.1063 L2370.33 24.6897 Q2370.33 21.7499 2368.38 20.1527 Q2366.46 18.5323 2362.97 18.5323 Q2360.74 18.5323 2358.64 19.0647 Q2356.53 19.5971 2354.59 20.6619 L2354.59 16.7268 Q2356.93 15.824 2359.12 15.3842 Q2361.32 14.9212 2363.41 14.9212 Q2369.03 14.9212 2371.81 17.8379 Q2374.59 20.7545 2374.59 26.6804 Z" fill="#000000" fill-rule="nonzero" fill-opacity="1" /><path clip-path="url(#clip240)" d="M2398.38 19.5277 Q2397.67 19.111 2396.81 18.9258 Q2395.98 18.7175 2394.96 18.7175 Q2391.35 18.7175 2389.4 21.0786 Q2387.48 23.4165 2387.48 27.8147 L2387.48 41.472 L2383.2 41.472 L2383.2 15.5462 L2387.48 15.5462 L2387.48 19.574 Q2388.82 17.2129 2390.98 16.0786 Q2393.13 14.9212 2396.21 14.9212 Q2396.65 14.9212 2397.18 14.9907 Q2397.71 15.037 2398.36 15.1527 L2398.38 19.5277 Z" fill="#000000" fill-rule="nonzero" fill-opacity="1" /><path clip-path="url(#clip240)" d="M2414.63 28.4397 Q2409.47 28.4397 2407.48 29.6202 Q2405.49 30.8008 2405.49 33.648 Q2405.49 35.9165 2406.97 37.2591 Q2408.48 38.5785 2411.05 38.5785 Q2414.59 38.5785 2416.72 36.0785 Q2418.87 33.5554 2418.87 29.3887 L2418.87 28.4397 L2414.63 28.4397 M2423.13 26.6804 L2423.13 41.472 L2418.87 41.472 L2418.87 37.5368 Q2417.41 39.8979 2415.24 41.0322 Q2413.06 42.1433 2409.91 42.1433 Q2405.93 42.1433 2403.57 39.9211 Q2401.23 37.6757 2401.23 33.9257 Q2401.23 29.5508 2404.15 27.3286 Q2407.09 25.1063 2412.9 25.1063 L2418.87 25.1063 L2418.87 24.6897 Q2418.87 21.7499 2416.93 20.1527 Q2415 18.5323 2411.51 18.5323 Q2409.29 18.5323 2407.18 19.0647 Q2405.07 19.5971 2403.13 20.6619 L2403.13 16.7268 Q2405.47 15.824 2407.67 15.3842 Q2409.86 14.9212 2411.95 14.9212 Q2417.57 14.9212 2420.35 17.8379 Q2423.13 20.7545 2423.13 26.6804 Z" fill="#000000" fill-rule="nonzero" fill-opacity="1" /><path clip-path="url(#clip240)" d="M2452.09 20.523 Q2453.68 17.6527 2455.91 16.2869 Q2458.13 14.9212 2461.14 14.9212 Q2465.19 14.9212 2467.39 17.7684 Q2469.59 20.5925 2469.59 25.8239 L2469.59 41.472 L2465.3 41.472 L2465.3 25.9628 Q2465.3 22.236 2463.98 20.4304 Q2462.67 18.6249 2459.96 18.6249 Q2456.65 18.6249 2454.73 20.824 Q2452.8 23.023 2452.8 26.8193 L2452.8 41.472 L2448.52 41.472 L2448.52 25.9628 Q2448.52 22.2128 2447.2 20.4304 Q2445.88 18.6249 2443.13 18.6249 Q2439.86 18.6249 2437.94 20.8471 Q2436.02 23.0462 2436.02 26.8193 L2436.02 41.472 L2431.74 41.472 L2431.74 15.5462 L2436.02 15.5462 L2436.02 19.574 Q2437.48 17.1897 2439.52 16.0555 Q2441.55 14.9212 2444.36 14.9212 Q2447.18 14.9212 2449.15 16.3564 Q2451.14 17.7916 2452.09 20.523 Z" fill="#000000" fill-rule="nonzero" fill-opacity="1" /><path clip-path="url(#clip240)" d="M2500.26 27.4443 L2500.26 29.5276 L2480.67 29.5276 Q2480.95 33.9257 2483.31 36.2405 Q2485.7 38.5322 2489.93 38.5322 Q2492.39 38.5322 2494.68 37.9304 Q2496.99 37.3285 2499.26 36.1248 L2499.26 40.1526 Q2496.97 41.1248 2494.56 41.634 Q2492.16 42.1433 2489.68 42.1433 Q2483.48 42.1433 2479.84 38.5322 Q2476.23 34.9211 2476.23 28.7637 Q2476.23 22.398 2479.66 18.6712 Q2483.11 14.9212 2488.94 14.9212 Q2494.17 14.9212 2497.2 18.3008 Q2500.26 21.6573 2500.26 27.4443 M2496 26.1943 Q2495.95 22.699 2494.03 20.6156 Q2492.13 18.5323 2488.98 18.5323 Q2485.42 18.5323 2483.27 20.5462 Q2481.14 22.5601 2480.81 26.2175 L2496 26.1943 Z" fill="#000000" fill-rule="nonzero" fill-opacity="1" /><path clip-path="url(#clip240)" d="M2511.46 8.18514 L2511.46 15.5462 L2520.23 15.5462 L2520.23 18.8564 L2511.46 18.8564 L2511.46 32.9304 Q2511.46 36.1017 2512.32 37.0044 Q2513.2 37.9072 2515.86 37.9072 L2520.23 37.9072 L2520.23 41.472 L2515.86 41.472 Q2510.93 41.472 2509.05 39.6433 Q2507.18 37.7915 2507.18 32.9304 L2507.18 18.8564 L2504.05 18.8564 L2504.05 15.5462 L2507.18 15.5462 L2507.18 8.18514 L2511.46 8.18514 Z" fill="#000000" fill-rule="nonzero" fill-opacity="1" /><path clip-path="url(#clip240)" d="M2548.01 27.4443 L2548.01 29.5276 L2528.43 29.5276 Q2528.71 33.9257 2531.07 36.2405 Q2533.45 38.5322 2537.69 38.5322 Q2540.14 38.5322 2542.43 37.9304 Q2544.75 37.3285 2547.02 36.1248 L2547.02 40.1526 Q2544.73 41.1248 2542.32 41.634 Q2539.91 42.1433 2537.43 42.1433 Q2531.23 42.1433 2527.6 38.5322 Q2523.98 34.9211 2523.98 28.7637 Q2523.98 22.398 2527.41 18.6712 Q2530.86 14.9212 2536.69 14.9212 Q2541.92 14.9212 2544.96 18.3008 Q2548.01 21.6573 2548.01 27.4443 M2543.75 26.1943 Q2543.71 22.699 2541.79 20.6156 Q2539.89 18.5323 2536.74 18.5323 Q2533.17 18.5323 2531.02 20.5462 Q2528.89 22.5601 2528.57 26.2175 L2543.75 26.1943 Z" fill="#000000" fill-rule="nonzero" fill-opacity="1" /><path clip-path="url(#clip240)" d="M2570.03 19.5277 Q2569.31 19.111 2568.45 18.9258 Q2567.62 18.7175 2566.6 18.7175 Q2562.99 18.7175 2561.04 21.0786 Q2559.12 23.4165 2559.12 27.8147 L2559.12 41.472 L2554.84 41.472 L2554.84 15.5462 L2559.12 15.5462 L2559.12 19.574 Q2560.47 17.2129 2562.62 16.0786 Q2564.77 14.9212 2567.85 14.9212 Q2568.29 14.9212 2568.82 14.9907 Q2569.35 15.037 2570 15.1527 L2570.03 19.5277 Z" fill="#000000" fill-rule="nonzero" fill-opacity="1" /><path clip-path="url(#clip240)" d="M2589.75 6.912 L2594.42 6.912 L2594.42 21.0786 L2611.41 21.0786 L2611.41 6.912 L2616.09 6.912 L2616.09 41.472 L2611.41 41.472 L2611.41 25.0138 L2594.42 25.0138 L2594.42 41.472 L2589.75 41.472 L2589.75 6.912 Z" fill="#000000" fill-rule="nonzero" fill-opacity="1" /><path clip-path="url(#clip240)" d="M2625.77 19.9443 L2655.44 19.9443 L2655.44 23.8332 L2625.77 23.8332 L2625.77 19.9443 M2625.77 29.3887 L2655.44 29.3887 L2655.44 33.3239 L2625.77 33.3239 L2625.77 29.3887 Z" fill="#000000" fill-rule="nonzero" fill-opacity="1" /><path clip-path="url(#clip240)" d="M2675.53 9.99069 Q2671.92 9.99069 2670.09 13.5555 Q2668.29 17.0971 2668.29 24.2267 Q2668.29 31.3332 2670.09 34.898 Q2671.92 38.4396 2675.53 38.4396 Q2679.17 38.4396 2680.97 34.898 Q2682.8 31.3332 2682.8 24.2267 Q2682.8 17.0971 2680.97 13.5555 Q2679.17 9.99069 2675.53 9.99069 M2675.53 6.287 Q2681.34 6.287 2684.4 10.8935 Q2687.48 15.4768 2687.48 24.2267 Q2687.48 32.9535 2684.4 37.56 Q2681.34 42.1433 2675.53 42.1433 Q2669.72 42.1433 2666.65 37.56 Q2663.59 32.9535 2663.59 24.2267 Q2663.59 15.4768 2666.65 10.8935 Q2669.72 6.287 2675.53 6.287 Z" fill="#000000" fill-rule="nonzero" fill-opacity="1" /><path clip-path="url(#clip240)" d="M2695.7 35.5924 L2700.58 35.5924 L2700.58 41.472 L2695.7 41.472 L2695.7 35.5924 Z" fill="#000000" fill-rule="nonzero" fill-opacity="1" /><path clip-path="url(#clip240)" d="M2720.77 25.0601 Q2717.43 25.0601 2715.51 26.8424 Q2713.61 28.6248 2713.61 31.7498 Q2713.61 34.8748 2715.51 36.6572 Q2717.43 38.4396 2720.77 38.4396 Q2724.1 38.4396 2726.02 36.6572 Q2727.94 34.8517 2727.94 31.7498 Q2727.94 28.6248 2726.02 26.8424 Q2724.12 25.0601 2720.77 25.0601 M2716.09 23.0693 Q2713.08 22.3286 2711.39 20.2684 Q2709.72 18.2082 2709.72 15.2453 Q2709.72 11.1018 2712.66 8.6944 Q2715.63 6.287 2720.77 6.287 Q2725.93 6.287 2728.87 8.6944 Q2731.81 11.1018 2731.81 15.2453 Q2731.81 18.2082 2730.12 20.2684 Q2728.45 22.3286 2725.47 23.0693 Q2728.84 23.8564 2730.72 26.148 Q2732.62 28.4397 2732.62 31.7498 Q2732.62 36.773 2729.54 39.4581 Q2726.48 42.1433 2720.77 42.1433 Q2715.05 42.1433 2711.97 39.4581 Q2708.91 36.773 2708.91 31.7498 Q2708.91 28.4397 2710.81 26.148 Q2712.71 23.8564 2716.09 23.0693 M2714.38 15.6851 Q2714.38 18.3703 2716.04 19.8749 Q2717.73 21.3795 2720.77 21.3795 Q2723.78 21.3795 2725.47 19.8749 Q2727.18 18.3703 2727.18 15.6851 Q2727.18 12.9999 2725.47 11.4953 Q2723.78 9.99069 2720.77 9.99069 Q2717.73 9.99069 2716.04 11.4953 Q2714.38 12.9999 2714.38 15.6851 Z" fill="#000000" fill-rule="nonzero" fill-opacity="1" /><polyline clip-path="url(#clip242)" style="stroke:#009af9; stroke-linecap:round; stroke-linejoin:round; stroke-width:4; stroke-opacity:1; fill:none" points="335.383,588.448 340.726,593.66 346.068,595.15 351.411,600.033 356.753,613.458 362.095,618.225 367.438,622.687 372.78,619.174 378.123,618.111 383.465,622.662 388.808,632.813 394.15,631.244 399.492,634.762 404.835,631.922 410.177,634.403 415.52,647.328 420.862,661.621 426.204,678.187 431.547,691.036 436.889,695.806 442.232,700.128 447.574,696.356 452.916,695.064 458.259,706.471 463.601,709.084 468.944,715.797 474.286,711.065 479.628,712.629 484.971,717.676 490.313,715.957 495.656,711.318 500.998,712.109 506.34,708.69 511.683,705.996 517.025,704.29 522.368,715.256 527.71,724.389 533.053,727.721 538.395,731.149 543.737,732.836 549.08,727.792 554.422,728.248 559.765,739.322 565.107,742.064 570.449,737.694 575.792,743.244 581.134,754.713 586.477,759.328 591.819,763.713 597.161,772.069 602.504,778.101 607.846,794.652 613.189,803.45 618.531,807.084 623.873,809.645 629.216,813.133 634.558,815.197 639.901,832.057 645.243,830.246 650.586,837.853 655.928,840.445 661.27,838.073 666.613,839.754 671.955,847.387 677.298,849.048 682.64,853.368 687.982,854.38 693.325,861.067 698.667,854.789 704.01,846.921 709.352,838.882 714.694,835.547 720.037,844.277 725.379,844.559 730.722,848.863 736.064,852.47 741.406,854.982 746.749,843.86 752.091,830.041 757.434,827.942 762.776,821.144 768.119,832.533 773.461,848.443 778.803,853.829 784.146,851.746 789.488,849.387 794.831,851.514 800.173,854.618 805.515,856.67 810.858,861.926 816.2,871.934 821.543,869.719 826.885,872.227 832.227,878.604 837.57,881.498 842.912,870.246 848.255,862.389 853.597,857.791 858.939,852.82 864.282,836.071 869.624,831.186 874.967,838.324 880.309,832.059 885.651,824.912 890.994,816.828 896.336,808.822 901.679,795.101 907.021,790.694 912.364,795.536 917.706,799.514 923.048,788.931 928.391,786.494 933.733,782.163 939.076,779.202 944.418,773.486 949.76,770.539 955.103,756.034 960.445,750.094 965.788,751.984 971.13,755.153 976.472,761.907 981.815,762.393 987.157,768.957 992.5,778.758 997.842,787.801 1003.18,788.88 1008.53,786.833 1013.87,785.708 1019.21,797.474 1024.55,812.45 1029.9,826.797 1035.24,842.037 1040.58,846.914 1045.92,852.264 1051.27,843.895 1056.61,843.256 1061.95,837.426 1067.29,816.838 1072.64,815.012 1077.98,810.886 1083.32,802.425 1088.66,800.871 1094.01,797.654 1099.35,796.818 1104.69,793.01 1110.03,794.923 1115.38,790.219 1120.72,789.453 1126.06,790.598 1131.4,794.676 1136.74,790.644 1142.09,784.132 1147.43,790.813 1152.77,795.652 1158.11,790.698 1163.46,790.756 1168.8,789.705 1174.14,780.535 1179.48,784.451 1184.83,780.311 1190.17,779.17 1195.51,785.887 1200.85,793.835 1206.2,799.197 1211.54,801.952 1216.88,799.608 1222.22,796.225 1227.57,790.273 1232.91,784.215 1238.25,779.482 1243.59,775.805 1248.94,782.369 1254.28,789.52 1259.62,802.02 1264.96,804.699 1270.3,805.446 1275.65,809.079 1280.99,812.809 1286.33,814.178 1291.67,825.313 1297.02,835.834 1302.36,836.686 1307.7,822.587 1313.04,821.025 1318.39,826.152 1323.73,831.605 1329.07,827.694 1334.41,822.142 1339.76,819.396 1345.1,816.043 1350.44,819.799 1355.78,817.839 1361.13,824.279 1366.47,825.982 1371.81,837.796 1377.15,846.422 1382.5,857.854 1387.84,863.868 1393.18,877.968 1398.52,891.544 1403.87,903.977 1409.21,916.11 1414.55,914.154 1419.89,915.645 1425.23,917.721 1430.58,929.195 1435.92,936.932 1441.26,936.261 1446.6,936.668 1451.95,928.208 1457.29,926.921 1462.63,928 1467.97,918 1473.32,918.674 1478.66,922.199 1484,919.704 1489.34,910.942 1494.69,914.396 1500.03,911.64 1505.37,905.485 1510.71,907.225 1516.06,909.152 1521.4,912.548 1526.74,912.291 1532.08,917.294 1537.43,929.542 1542.77,941.189 1548.11,954.142 1553.45,970.288 1558.79,979.875 1564.14,991.047 1569.48,1003.59 1574.82,1019.36 1580.16,1034.4 1585.51,1033.2 1590.85,1034.37 1596.19,1043.47 1601.53,1043.4 1606.88,1048.08 1612.22,1049.03 1617.56,1065.45 1622.9,1076.82 1628.25,1081.09 1633.59,1076.82 1638.93,1072.01 1644.27,1068.12 1649.62,1067.38 1654.96,1065.22 1660.3,1067.64 1665.64,1062.53 1670.99,1063.36 1676.33,1072.23 1681.67,1062.67 1687.01,1073.89 1692.36,1068.66 1697.7,1076.11 1703.04,1082.42 1708.38,1094.87 1713.72,1098.08 1719.07,1106.35 1724.41,1115.93 1729.75,1115.96 1735.09,1120.89 1740.44,1125.83 1745.78,1138.82 1751.12,1149.33 1756.46,1161.67 1761.81,1169.9 1767.15,1187.62 1772.49,1187.8 1777.83,1204.06 1783.18,1213.8 1788.52,1217.72 1793.86,1223.59 1799.2,1236.46 1804.55,1247.41 1809.89,1243.22 1815.23,1241.32 1820.57,1246.75 1825.92,1244.72 1831.26,1254.8 1836.6,1259.86 1841.94,1259.62 1847.28,1263.97 1852.63,1263.18 1857.97,1271.11 1863.31,1284.4 1868.65,1281.24 1874,1280.03 1879.34,1292.53 1884.68,1295.83 1890.02,1290.65 1895.37,1291.87 1900.71,1294.61 1906.05,1299.73 1911.39,1306.09 1916.74,1314.56 1922.08,1314.95 1927.42,1309.86 1932.76,1312.7 1938.11,1313.82 1943.45,1307.89 1948.79,1307.6 1954.13,1313.62 1959.48,1303.47 1964.82,1303.18 1970.16,1321.95 1975.5,1328.45 1980.85,1338.29 1986.19,1335.31 1991.53,1338.78 1996.87,1335.11 2002.21,1340.71 2007.56,1351.82 2012.9,1356.43 2018.24,1359 2023.58,1358.66 2028.93,1360.85 2034.27,1357.47 2039.61,1364.56 2044.95,1368.16 2050.3,1371.34 2055.64,1376.03 2060.98,1373.2 2066.32,1370.69 2071.67,1372.67 2077.01,1366.02 2082.35,1360.61 2087.69,1349.57 2093.04,1342.23 2098.38,1348.64 2103.72,1355.21 2109.06,1356.64 2114.41,1363.81 2119.75,1366.2 2125.09,1368.42 2130.43,1362.47 2135.78,1359.4 2141.12,1358.88 2146.46,1366.81 2151.8,1358.57 2157.14,1357.93 2162.49,1356.29 2167.83,1349.17 2173.17,1338.98 2178.51,1338.57 2183.86,1334.15 2189.2,1337.38 2194.54,1336.13 2199.88,1335 2205.23,1340.18 2210.57,1351.58 2215.91,1352.42 2221.25,1350.77 2226.6,1342.63 2231.94,1350.01 2237.28,1353.57 2242.62,1362.62 2247.97,1371.97 2253.31,1375.99 2258.65,1382.49 2263.99,1387.71 2269.34,1392.16 2274.68,1399.44 2280.02,1405.36 2285.36,1401.97 2290.7,1395.56 2296.05,1387.19 2301.39,1385.95 2306.73,1388.47 2312.07,1385.45 2317.42,1375.8 2322.76,1357.88 2328.1,1357.33 2333.44,1356.39 2338.79,1352.54 2344.13,1355.02 2349.47,1358.07 2354.81,1351.21 2360.16,1345.82 2365.5,1344.14 2370.84,1347.3 2376.18,1341.44 2381.53,1345.53 2386.87,1342.9 2392.21,1347.2 2397.55,1348.11 2402.9,1347.96 2408.24,1343.71 2413.58,1337.21 2418.92,1340.12 2424.27,1334.4 2429.61,1330.29 2434.95,1323.41 2440.29,1313.76 2445.63,1309.51 2450.98,1304.11 2456.32,1308.46 2461.66,1309.74 2467,1314.48 2472.35,1319.96 2477.69,1315.28 2483.03,1322.6 2488.37,1324.49 2493.72,1321.87 2499.06,1324.79 2504.4,1320.42 2509.74,1310.41 2515.09,1306.94 2520.43,1303.37 2525.77,1300.23 2531.11,1297 2536.46,1289.17 2541.8,1289.18 2547.14,1279.48 2552.48,1276.53 2557.83,1281.22 2563.17,1276.13 2568.51,1266.88 2573.85,1264.48 2579.19,1257.13 2584.54,1256.32 2589.88,1261.9 2595.22,1261.54 2600.56,1256.22 2605.91,1251.16 2611.25,1247.27 2616.59,1250.92 2621.93,1252.31 2627.28,1245.24 2632.62,1245.72 2637.96,1232.14 2643.3,1223.97 2648.65,1218.98 2653.99,1213.3 2659.33,1202.41 2664.67,1197.37 2670.02,1200.93 2675.36,1206.12 2680.7,1212.35 2686.04,1221.41 2691.39,1225.71 2696.73,1238.31 2702.07,1246.92 2707.41,1246.7 2712.76,1246.15 2718.1,1243.37 2723.44,1239.88 2728.78,1237.96 2734.12,1240.47 2739.47,1241.31 2744.81,1238.15 2750.15,1247.14 2755.49,1258.5 2760.84,1265.91 2766.18,1274.8 2771.52,1270.85 2776.86,1261.59 2782.21,1250.2 2787.55,1245.3 2792.89,1235.93 2798.23,1237.93 2803.58,1232.88 2808.92,1217.75 2814.26,1219.21 2819.6,1219.79 2824.95,1220 2830.29,1224.47 2835.63,1228.11 2840.97,1226.22 2846.32,1216.21 2851.66,1208.38 2857,1211.13 2862.34,1200.43 2867.68,1198.14 2873.03,1190.17 2878.37,1189.22 2883.71,1176.27 2889.05,1158.49 2894.4,1153.91 2899.74,1155.99 2905.08,1161.48 2910.42,1159.96 2915.77,1156.55 2921.11,1155.12 2926.45,1153.65 2931.79,1154.19 2937.14,1150.14 2942.48,1147.5 2947.82,1149.12 2953.16,1156.64 2958.51,1162.46 2963.85,1161.47 2969.19,1166.04 2974.53,1172.04 2979.88,1166.18 2985.22,1170.99 2990.56,1166.11 2995.9,1169.81 3001.25,1176.03 3006.59,1185.21 3011.93,1183.16 3017.27,1190.31 3022.61,1193.89 3027.96,1191.91 3033.3,1193.3 3038.64,1198.86 3043.98,1194.43 3049.33,1203.46 3054.67,1207.44 3060.01,1209.48 3065.35,1205.83 3070.7,1214.04 "/>
<polyline clip-path="url(#clip242)" style="stroke:#e26f46; stroke-linecap:round; stroke-linejoin:round; stroke-width:4; stroke-opacity:1; fill:none" points="335.383,588.448 340.726,581.649 346.068,581.274 351.411,569.8 356.753,560.185 362.095,540.385 367.438,533.929 372.78,531.191 378.123,525.37 383.465,523.848 388.808,513.86 394.15,505.1 399.492,490.894 404.835,485.429 410.177,485.503 415.52,477.78 420.862,464.819 426.204,453.588 431.547,448.35 436.889,445.121 442.232,439.608 447.574,433.984 452.916,423.848 458.259,416.405 463.601,405.445 468.944,397.54 474.286,386.213 479.628,374.107 484.971,368.117 490.313,358.778 495.656,345.821 500.998,334.021 506.34,320.519 511.683,315.489 517.025,313.478 522.368,299.57 527.71,299.409 533.053,298.737 538.395,294.435 543.737,286.639 549.08,279.595 554.422,273.435 559.765,251.923 565.107,246.794 570.449,237.104 575.792,237.968 581.134,231.483 586.477,226.076 591.819,219.175 597.161,217.478 602.504,217.541 607.846,217.384 613.189,213.717 618.531,213.37 623.873,207.386 629.216,208.287 634.558,197.119 639.901,195.415 645.243,198.573 650.586,202.414 655.928,209.424 661.27,210.55 666.613,219.947 671.955,217.245 677.298,202.637 682.64,191.775 687.982,185.705 693.325,182.308 698.667,170.732 704.01,177.075 709.352,181.626 714.694,182.215 720.037,180.468 725.379,172.038 730.722,160.336 736.064,159.919 741.406,163.312 746.749,160.815 752.091,154.595 757.434,147.074 762.776,139.846 768.119,138.314 773.461,137.559 778.803,136.522 784.146,146.944 789.488,142.581 794.831,133.459 800.173,130.821 805.515,128.519 810.858,128.248 816.2,129.037 821.543,127.255 826.885,133.811 832.227,128.423 837.57,130.229 842.912,133.073 848.255,135.021 853.597,137.779 858.939,145.126 864.282,151.44 869.624,160.434 874.967,176.387 880.309,180.024 885.651,185.763 890.994,198.863 896.336,209.233 901.679,213.321 907.021,215.725 912.364,227.009 917.706,230.563 923.048,236.693 928.391,248.113 933.733,248.752 939.076,254.778 944.418,256.255 949.76,261.053 955.103,276.48 960.445,294.158 965.788,312.539 971.13,314.227 976.472,317.303 981.815,325.476 987.157,338.018 992.5,350.351 997.842,355.286 1003.18,364.018 1008.53,379.303 1013.87,396.202 1019.21,405.76 1024.55,418.928 1029.9,422.507 1035.24,434.381 1040.58,434.467 1045.92,453.734 1051.27,470.122 1056.61,487.566 1061.95,493.504 1067.29,490.799 1072.64,497.017 1077.98,508.403 1083.32,513.37 1088.66,527.46 1094.01,532.412 1099.35,536.886 1104.69,549.114 1110.03,555.133 1115.38,556.657 1120.72,567.698 1126.06,579.211 1131.4,577.791 1136.74,579.416 1142.09,580.342 1147.43,578.93 1152.77,582.964 1158.11,582.069 1163.46,581.854 1168.8,583.171 1174.14,577.044 1179.48,574.226 1184.83,572.238 1190.17,566.398 1195.51,561.49 1200.85,554.355 1206.2,557.39 1211.54,565.715 1216.88,570.178 1222.22,579.905 1227.57,587.804 1232.91,585.125 1238.25,596.713 1243.59,602.369 1248.94,612.775 1254.28,620.179 1259.62,632.381 1264.96,638.889 1270.3,629.456 1275.65,633.168 1280.99,630.754 1286.33,633.264 1291.67,643.853 1297.02,643.316 1302.36,641.92 1307.7,638.884 1313.04,641.939 1318.39,640.996 1323.73,638.857 1329.07,637.351 1334.41,642.303 1339.76,643.424 1345.1,645.943 1350.44,649.489 1355.78,656.806 1361.13,665.605 1366.47,666.343 1371.81,672.544 1377.15,682.55 1382.5,683.202 1387.84,679.986 1393.18,681.134 1398.52,688.714 1403.87,681.073 1409.21,684.647 1414.55,679.77 1419.89,678.205 1425.23,673.692 1430.58,669.58 1435.92,667.076 1441.26,668.023 1446.6,672.683 1451.95,682.004 1457.29,688.055 1462.63,698.665 1467.97,702.483 1473.32,701.786 1478.66,716.428 1484,726.774 1489.34,725.329 1494.69,724.854 1500.03,732.282 1505.37,733.784 1510.71,724.459 1516.06,722.825 1521.4,721.346 1526.74,719.555 1532.08,724.109 1537.43,731.399 1542.77,733.123 1548.11,731.879 1553.45,741.129 1558.79,743.213 1564.14,753.162 1569.48,756.643 1574.82,760.529 1580.16,764.193 1585.51,771.164 1590.85,767.82 1596.19,764.917 1601.53,758.628 1606.88,764.526 1612.22,765.599 1617.56,771.44 1622.9,771.151 1628.25,767.15 1633.59,763.527 1638.93,764.146 1644.27,761.075 1649.62,754.878 1654.96,748.646 1660.3,761.994 1665.64,762.693 1670.99,757.445 1676.33,758.26 1681.67,762.095 1687.01,768.488 1692.36,772.854 1697.7,786.242 1703.04,794.917 1708.38,804.984 1713.72,813.761 1719.07,809.961 1724.41,812.614 1729.75,817.182 1735.09,817.565 1740.44,824.226 1745.78,834.67 1751.12,839.403 1756.46,836.819 1761.81,839.735 1767.15,848.141 1772.49,846.979 1777.83,856.738 1783.18,861.542 1788.52,861.918 1793.86,855.221 1799.2,848.821 1804.55,850.885 1809.89,861.09 1815.23,861.102 1820.57,861.597 1825.92,867.127 1831.26,871.332 1836.6,875.528 1841.94,877.909 1847.28,875.848 1852.63,874.929 1857.97,874.087 1863.31,876.72 1868.65,883.417 1874,875.061 1879.34,874.115 1884.68,872.387 1890.02,869.901 1895.37,876.873 1900.71,873.592 1906.05,887.562 1911.39,895.704 1916.74,899.584 1922.08,907.98 1927.42,914.944 1932.76,915.695 1938.11,910.76 1943.45,917.172 1948.79,914.424 1954.13,908.045 1959.48,908.291 1964.82,913.813 1970.16,910.593 1975.5,911.54 1980.85,909.951 1986.19,908.068 1991.53,897.957 1996.87,892.227 2002.21,883.627 2007.56,884.723 2012.9,891.31 2018.24,891.063 2023.58,894.148 2028.93,887.712 2034.27,879.287 2039.61,873.867 2044.95,870.571 2050.3,872.282 2055.64,875.421 2060.98,878.174 2066.32,880.591 2071.67,882.771 2077.01,880.209 2082.35,876.443 2087.69,870.255 2093.04,871.807 2098.38,872.152 2103.72,875.822 2109.06,868.527 2114.41,869.399 2119.75,856.093 2125.09,841.8 2130.43,837.44 2135.78,829.491 2141.12,817.27 2146.46,814.753 2151.8,809.646 2157.14,803.558 2162.49,795.856 2167.83,789.992 2173.17,785.64 2178.51,787.699 2183.86,789.711 2189.2,791.074 2194.54,797.357 2199.88,786.064 2205.23,780.786 2210.57,775.987 2215.91,763.745 2221.25,754.715 2226.6,744.079 2231.94,731.319 2237.28,725.866 2242.62,717.437 2247.97,715.829 2253.31,714.651 2258.65,706.507 2263.99,702.363 2269.34,700.58 2274.68,698.137 2280.02,696.991 2285.36,695.875 2290.7,705.97 2296.05,714.059 2301.39,717.005 2306.73,723.33 2312.07,729.325 2317.42,730.187 2322.76,740.08 2328.1,749.321 2333.44,745.951 2338.79,753.402 2344.13,757.531 2349.47,766.062 2354.81,765.531 2360.16,774.867 2365.5,779.161 2370.84,779.835 2376.18,778.642 2381.53,779.904 2386.87,782.664 2392.21,793.192 2397.55,813.091 2402.9,829.87 2408.24,829.921 2413.58,831.889 2418.92,836.097 2424.27,837.925 2429.61,845.625 2434.95,843.661 2440.29,844.612 2445.63,846.154 2450.98,847.44 2456.32,849.162 2461.66,847.899 2467,849.083 2472.35,843.365 2477.69,841.039 2483.03,846.991 2488.37,852.508 2493.72,852.883 2499.06,857.238 2504.4,854.745 2509.74,858.008 2515.09,855.395 2520.43,851.87 2525.77,852.335 2531.11,848.645 2536.46,848.095 2541.8,845.298 2547.14,847.444 2552.48,842.978 2557.83,841.144 2563.17,832.88 2568.51,828.285 2573.85,817.95 2579.19,809.907 2584.54,806.168 2589.88,801.428 2595.22,794.795 2600.56,792.973 2605.91,789.721 2611.25,786.299 2616.59,778.485 2621.93,771.502 2627.28,766.324 2632.62,772.835 2637.96,773.224 2643.3,769.033 2648.65,762.886 2653.99,758.766 2659.33,753.426 2664.67,744.502 2670.02,742.27 2675.36,740.331 2680.7,742.98 2686.04,734.255 2691.39,736.604 2696.73,732.534 2702.07,725.63 2707.41,723.136 2712.76,712.958 2718.1,710.44 2723.44,709.96 2728.78,706.385 2734.12,697.548 2739.47,689.207 2744.81,680.354 2750.15,667.698 2755.49,660.829 2760.84,643.12 2766.18,627.757 2771.52,624.448 2776.86,616.1 2782.21,604.959 2787.55,594.805 2792.89,595.853 2798.23,596.972 2803.58,591.508 2808.92,578.516 2814.26,575.099 2819.6,566.573 2824.95,553.835 2830.29,546.515 2835.63,535.887 2840.97,522.428 2846.32,507.923 2851.66,498.638 2857,486.791 2862.34,474.933 2867.68,465.171 2873.03,457.969 2878.37,450.302 2883.71,444.527 2889.05,439.962 2894.4,436.597 2899.74,431.396 2905.08,417.548 2910.42,417.583 2915.77,415.654 2921.11,415.325 2926.45,418.053 2931.79,420.109 2937.14,419.396 2942.48,422.377 2947.82,422.795 2953.16,436.752 2958.51,430.587 2963.85,434.479 2969.19,438.666 2974.53,440.218 2979.88,439.572 2985.22,438.846 2990.56,439.347 2995.9,436.646 3001.25,440.14 3006.59,436.931 3011.93,424.514 3017.27,411.811 3022.61,407.622 3027.96,404.608 3033.3,404.014 3038.64,401.067 3043.98,402.14 3049.33,397.116 3054.67,377.736 3060.01,364.312 3065.35,361.033 3070.7,354.916 "/>
<polyline clip-path="url(#clip242)" style="stroke:#3da44d; stroke-linecap:round; stroke-linejoin:round; stroke-width:4; stroke-opacity:1; fill:none" points="335.383,588.448 340.726,581.349 346.068,579.852 351.411,567.658 356.753,563.931 362.095,555.974 367.438,548.944 372.78,555.216 378.123,556.818 383.465,558.813 388.808,575.951 394.15,586.256 399.492,593.787 404.835,597.222 410.177,603.948 415.52,605.458 420.862,606.346 426.204,612.169 431.547,608.397 436.889,615.003 442.232,625.285 447.574,633.074 452.916,650.213 458.259,660.708 463.601,671.544 468.944,685.925 474.286,694.256 479.628,703.032 484.971,717.911 490.313,733.755 495.656,743.941 500.998,745.19 506.34,751.087 511.683,756.161 517.025,765.004 522.368,759.317 527.71,757.851 533.053,756.859 538.395,760.171 543.737,757.694 549.08,760.356 554.422,764.262 559.765,763.888 565.107,764.015 570.449,756.89 575.792,762.246 581.134,759.287 586.477,761.742 591.819,758.253 597.161,753.387 602.504,761.235 607.846,757.611 613.189,761.665 618.531,762.381 623.873,755.357 629.216,750.428 634.558,744.6 639.901,735.946 645.243,735.486 650.586,728.983 655.928,727.792 661.27,714.823 666.613,716.053 671.955,707.893 677.298,707.464 682.64,703.465 687.982,709.303 693.325,724.671 698.667,734.977 704.01,734.719 709.352,730.688 714.694,731.555 720.037,739.961 725.379,729.797 730.722,719.984 736.064,715.453 741.406,716.219 746.749,719.635 752.091,730.328 757.434,743.608 762.776,749.049 768.119,758.865 773.461,763.502 778.803,774.041 784.146,772.945 789.488,774.774 794.831,774.949 800.173,768.954 805.515,763.406 810.858,758.277 816.2,757.272 821.543,754.005 826.885,753.208 832.227,758.51 837.57,756.012 842.912,758.223 848.255,753.968 853.597,744.94 858.939,732.752 864.282,723.98 869.624,720.689 874.967,718.807 880.309,727.908 885.651,716.547 890.994,709.734 896.336,716.954 901.679,710.043 907.021,704.71 912.364,696.742 917.706,701.592 923.048,696.395 928.391,687.729 933.733,678.956 939.076,666.774 944.418,652.747 949.76,645.54 955.103,654.841 960.445,660.643 965.788,659.817 971.13,659.473 976.472,654.356 981.815,658.096 987.157,651.782 992.5,657.048 997.842,655.808 1003.18,641.088 1008.53,630.469 1013.87,622.147 1019.21,614.87 1024.55,606.342 1029.9,603.249 1035.24,590.312 1040.58,584.593 1045.92,582.472 1051.27,576.835 1056.61,581.369 1061.95,578.18 1067.29,582.696 1072.64,591.95 1077.98,581.762 1083.32,579.559 1088.66,580.778 1094.01,586.953 1099.35,597.706 1104.69,596.655 1110.03,585.584 1115.38,581.979 1120.72,581.237 1126.06,580.362 1131.4,576.569 1136.74,577.413 1142.09,584.679 1147.43,579.332 1152.77,577.357 1158.11,574.686 1163.46,571.673 1168.8,581.291 1174.14,582.278 1179.48,586.551 1184.83,582.261 1190.17,580.572 1195.51,571.363 1200.85,573.233 1206.2,568.492 1211.54,566.695 1216.88,565.74 1222.22,561.984 1227.57,555.142 1232.91,547.73 1238.25,534.799 1243.59,524.212 1248.94,515.909 1254.28,508.916 1259.62,510.049 1264.96,509.895 1270.3,506.656 1275.65,496.78 1280.99,493.727 1286.33,497.615 1291.67,514.124 1297.02,517.595 1302.36,522.213 1307.7,516.375 1313.04,516.707 1318.39,503.169 1323.73,505.827 1329.07,503.811 1334.41,511.657 1339.76,521.798 1345.1,526.023 1350.44,525.12 1355.78,532.212 1361.13,535.812 1366.47,540.535 1371.81,548.121 1377.15,545.311 1382.5,548.894 1387.84,551.521 1393.18,554.402 1398.52,557.555 1403.87,561.116 1409.21,555.979 1414.55,551.827 1419.89,547.371 1425.23,541.664 1430.58,544.454 1435.92,539.351 1441.26,539.919 1446.6,539.07 1451.95,542.174 1457.29,543.681 1462.63,540.302 1467.97,550.283 1473.32,550.887 1478.66,554.572 1484,553.903 1489.34,547.554 1494.69,551.741 1500.03,564.803 1505.37,559.726 1510.71,563.718 1516.06,567.011 1521.4,578.807 1526.74,583.182 1532.08,584.753 1537.43,583.594 1542.77,591.464 1548.11,594.484 1553.45,594.152 1558.79,606.894 1564.14,610.77 1569.48,614.306 1574.82,615.223 1580.16,615.445 1585.51,608.139 1590.85,612.071 1596.19,609.349 1601.53,613.913 1606.88,616.609 1612.22,620.875 1617.56,625.118 1622.9,620.006 1628.25,623.152 1633.59,623.848 1638.93,618.928 1644.27,615.384 1649.62,610.711 1654.96,607.097 1660.3,611.758 1665.64,616.32 1670.99,622.825 1676.33,635.521 1681.67,639.797 1687.01,633.385 1692.36,624.469 1697.7,620.294 1703.04,620.377 1708.38,611.137 1713.72,612.224 1719.07,618.451 1724.41,623.273 1729.75,619.882 1735.09,619.425 1740.44,622.344 1745.78,615.806 1751.12,618.526 1756.46,614.593 1761.81,617.601 1767.15,626.136 1772.49,620.888 1777.83,621.977 1783.18,618.658 1788.52,614.523 1793.86,613.629 1799.2,607.64 1804.55,603.419 1809.89,608.64 1815.23,612.965 1820.57,620.443 1825.92,634.592 1831.26,648.186 1836.6,648.672 1841.94,659.074 1847.28,669.806 1852.63,680.203 1857.97,679.369 1863.31,684.425 1868.65,688.536 1874,688.378 1879.34,695.048 1884.68,704.388 1890.02,706.508 1895.37,707.685 1900.71,714.657 1906.05,717.211 1911.39,721.398 1916.74,726.065 1922.08,725.155 1927.42,735.745 1932.76,744.06 1938.11,759.76 1943.45,769.971 1948.79,783.336 1954.13,793.933 1959.48,799.942 1964.82,809.407 1970.16,818.498 1975.5,827.664 1980.85,822.992 1986.19,826.954 1991.53,825.821 1996.87,830.697 2002.21,833.912 2007.56,835.274 2012.9,841.186 2018.24,843.432 2023.58,852.383 2028.93,857.3 2034.27,852.549 2039.61,858.641 2044.95,866.306 2050.3,872.059 2055.64,893.122 2060.98,899.793 2066.32,904.777 2071.67,912.435 2077.01,925.234 2082.35,922.334 2087.69,915.046 2093.04,915.481 2098.38,914.048 2103.72,905.949 2109.06,904.213 2114.41,899.011 2119.75,903.14 2125.09,902.505 2130.43,901.175 2135.78,900.935 2141.12,891.281 2146.46,888.569 2151.8,887.297 2157.14,890.11 2162.49,889.049 2167.83,896.615 2173.17,901.417 2178.51,905.959 2183.86,917.234 2189.2,920.618 2194.54,921.952 2199.88,920.347 2205.23,929.221 2210.57,938.176 2215.91,949.166 2221.25,968.799 2226.6,990.991 2231.94,1011.87 2237.28,1017.27 2242.62,1024.87 2247.97,1032.2 2253.31,1031.52 2258.65,1035.04 2263.99,1042.03 2269.34,1027.43 2274.68,1021.97 2280.02,1024.61 2285.36,1030.4 2290.7,1035.4 2296.05,1042.41 2301.39,1041.76 2306.73,1044.79 2312.07,1062.08 2317.42,1070.44 2322.76,1080.57 2328.1,1086.38 2333.44,1104.75 2338.79,1106.09 2344.13,1116.94 2349.47,1127.18 2354.81,1133.37 2360.16,1135.63 2365.5,1135.54 2370.84,1146.08 2376.18,1153.91 2381.53,1160.45 2386.87,1163.85 2392.21,1171.7 2397.55,1181.48 2402.9,1191.97 2408.24,1201.55 2413.58,1199.66 2418.92,1207.4 2424.27,1217.9 2429.61,1213 2434.95,1215.72 2440.29,1217.66 2445.63,1217.13 2450.98,1217.88 2456.32,1217.41 2461.66,1211.13 2467,1206.83 2472.35,1210.68 2477.69,1212.99 2483.03,1216.73 2488.37,1215 2493.72,1221.48 2499.06,1224.87 2504.4,1219.77 2509.74,1221.48 2515.09,1223.19 2520.43,1223.05 2525.77,1227.87 2531.11,1232.46 2536.46,1233.79 2541.8,1225.01 2547.14,1226.32 2552.48,1219.65 2557.83,1210.81 2563.17,1220.72 2568.51,1225.57 2573.85,1219.66 2579.19,1222.56 2584.54,1230.58 2589.88,1231.36 2595.22,1242.06 2600.56,1247.68 2605.91,1257.8 2611.25,1271.65 2616.59,1260.89 2621.93,1265.99 2627.28,1272.26 2632.62,1276.82 2637.96,1278.9 2643.3,1269.03 2648.65,1254.42 2653.99,1259.73 2659.33,1254 2664.67,1253.13 2670.02,1255.13 2675.36,1260.58 2680.7,1259.65 2686.04,1262.03 2691.39,1259.75 2696.73,1259.03 2702.07,1261.94 2707.41,1261.86 2712.76,1261.63 2718.1,1266.41 2723.44,1267.97 2728.78,1270.42 2734.12,1280 2739.47,1278.23 2744.81,1277.54 2750.15,1269.26 2755.49,1270.92 2760.84,1268.19 2766.18,1261.82 2771.52,1256.23 2776.86,1244.3 2782.21,1244.74 2787.55,1237.45 2792.89,1238.51 2798.23,1229.85 2803.58,1218.85 2808.92,1224.76 2814.26,1225.69 2819.6,1228.53 2824.95,1226.09 2830.29,1226.64 2835.63,1220.57 2840.97,1225.75 2846.32,1218.78 2851.66,1218.38 2857,1216.12 2862.34,1213.67 2867.68,1216.65 2873.03,1211.21 2878.37,1205.48 2883.71,1208.06 2889.05,1215.94 2894.4,1228.78 2899.74,1232.92 2905.08,1230.54 2910.42,1226.06 2915.77,1222.19 2921.11,1230.05 2926.45,1227.99 2931.79,1226.02 2937.14,1218.97 2942.48,1225.92 2947.82,1223.37 2953.16,1235.99 2958.51,1249.16 2963.85,1260.68 2969.19,1276.97 2974.53,1281.74 2979.88,1285 2985.22,1285.8 2990.56,1287.88 2995.9,1289.33 3001.25,1284.65 3006.59,1290.27 3011.93,1286.15 3017.27,1297.25 3022.61,1311.15 3027.96,1314.23 3033.3,1309.93 3038.64,1312.24 3043.98,1313.91 3049.33,1309.15 3054.67,1305.82 3060.01,1304.4 3065.35,1302.76 3070.7,1296.16 "/>
</svg>
