<?xml version="1.0" encoding="utf-8"?>
<svg xmlns="http://www.w3.org/2000/svg" xmlns:xlink="http://www.w3.org/1999/xlink" width="800" height="400" viewBox="0 0 3200 1600">
<defs>
  <clipPath id="clip360">
    <rect x="0" y="0" width="3200" height="1600"/>
  </clipPath>
</defs>
<path clip-path="url(#clip360)" d="M0 1600 L3200 1600 L3200 0 L0 0  Z" fill="#ffffff" fill-rule="evenodd" fill-opacity="1"/>
<defs>
  <clipPath id="clip361">
    <rect x="640" y="0" width="2241" height="1600"/>
  </clipPath>
</defs>
<path clip-path="url(#clip360)" d="M206.866 1443.7 L3152.76 1443.7 L3152.76 88.9121 L206.866 88.9121  Z" fill="#ffffff" fill-rule="evenodd" fill-opacity="1"/>
<defs>
  <clipPath id="clip362">
    <rect x="206" y="88" width="2947" height="1356"/>
  </clipPath>
</defs>
<polyline clip-path="url(#clip362)" style="stroke:#000000; stroke-linecap:round; stroke-linejoin:round; stroke-width:2; stroke-opacity:0.1; fill:none" points="290.24,1443.7 290.24,88.9121 "/>
<polyline clip-path="url(#clip362)" style="stroke:#000000; stroke-linecap:round; stroke-linejoin:round; stroke-width:2; stroke-opacity:0.1; fill:none" points="985.026,1443.7 985.026,88.9121 "/>
<polyline clip-path="url(#clip362)" style="stroke:#000000; stroke-linecap:round; stroke-linejoin:round; stroke-width:2; stroke-opacity:0.1; fill:none" points="1679.81,1443.7 1679.81,88.9121 "/>
<polyline clip-path="url(#clip362)" style="stroke:#000000; stroke-linecap:round; stroke-linejoin:round; stroke-width:2; stroke-opacity:0.1; fill:none" points="2374.6,1443.7 2374.6,88.9121 "/>
<polyline clip-path="url(#clip362)" style="stroke:#000000; stroke-linecap:round; stroke-linejoin:round; stroke-width:2; stroke-opacity:0.1; fill:none" points="3069.38,1443.7 3069.38,88.9121 "/>
<polyline clip-path="url(#clip360)" style="stroke:#000000; stroke-linecap:round; stroke-linejoin:round; stroke-width:4; stroke-opacity:1; fill:none" points="206.866,1443.7 3152.76,1443.7 "/>
<polyline clip-path="url(#clip360)" style="stroke:#000000; stroke-linecap:round; stroke-linejoin:round; stroke-width:4; stroke-opacity:1; fill:none" points="290.24,1443.7 290.24,1424.8 "/>
<polyline clip-path="url(#clip360)" style="stroke:#000000; stroke-linecap:round; stroke-linejoin:round; stroke-width:4; stroke-opacity:1; fill:none" points="985.026,1443.7 985.026,1424.8 "/>
<polyline clip-path="url(#clip360)" style="stroke:#000000; stroke-linecap:round; stroke-linejoin:round; stroke-width:4; stroke-opacity:1; fill:none" points="1679.81,1443.7 1679.81,1424.8 "/>
<polyline clip-path="url(#clip360)" style="stroke:#000000; stroke-linecap:round; stroke-linejoin:round; stroke-width:4; stroke-opacity:1; fill:none" points="2374.6,1443.7 2374.6,1424.8 "/>
<polyline clip-path="url(#clip360)" style="stroke:#000000; stroke-linecap:round; stroke-linejoin:round; stroke-width:4; stroke-opacity:1; fill:none" points="3069.38,1443.7 3069.38,1424.8 "/>
<path clip-path="url(#clip360)" d="M267.625 1481.02 Q264.013 1481.02 262.185 1484.58 Q260.379 1488.12 260.379 1495.25 Q260.379 1502.36 262.185 1505.93 Q264.013 1509.47 267.625 1509.47 Q271.259 1509.47 273.064 1505.93 Q274.893 1502.36 274.893 1495.25 Q274.893 1488.12 273.064 1484.58 Q271.259 1481.02 267.625 1481.02 M267.625 1477.31 Q273.435 1477.31 276.49 1481.92 Q279.569 1486.5 279.569 1495.25 Q279.569 1503.98 276.49 1508.59 Q273.435 1513.17 267.625 1513.17 Q261.814 1513.17 258.736 1508.59 Q255.68 1503.98 255.68 1495.25 Q255.68 1486.5 258.736 1481.92 Q261.814 1477.31 267.625 1477.31 Z" fill="#000000" fill-rule="nonzero" fill-opacity="1" /><path clip-path="url(#clip360)" d="M287.786 1506.62 L292.671 1506.62 L292.671 1512.5 L287.786 1512.5 L287.786 1506.62 Z" fill="#000000" fill-rule="nonzero" fill-opacity="1" /><path clip-path="url(#clip360)" d="M312.856 1481.02 Q309.245 1481.02 307.416 1484.58 Q305.61 1488.12 305.61 1495.25 Q305.61 1502.36 307.416 1505.93 Q309.245 1509.47 312.856 1509.47 Q316.49 1509.47 318.296 1505.93 Q320.124 1502.36 320.124 1495.25 Q320.124 1488.12 318.296 1484.58 Q316.49 1481.02 312.856 1481.02 M312.856 1477.31 Q318.666 1477.31 321.722 1481.92 Q324.8 1486.5 324.8 1495.25 Q324.8 1503.98 321.722 1508.59 Q318.666 1513.17 312.856 1513.17 Q307.046 1513.17 303.967 1508.59 Q300.911 1503.98 300.911 1495.25 Q300.911 1486.5 303.967 1481.92 Q307.046 1477.31 312.856 1477.31 Z" fill="#000000" fill-rule="nonzero" fill-opacity="1" /><path clip-path="url(#clip360)" d="M962.908 1481.02 Q959.297 1481.02 957.468 1484.58 Q955.662 1488.12 955.662 1495.25 Q955.662 1502.36 957.468 1505.93 Q959.297 1509.47 962.908 1509.47 Q966.542 1509.47 968.347 1505.93 Q970.176 1502.36 970.176 1495.25 Q970.176 1488.12 968.347 1484.58 Q966.542 1481.02 962.908 1481.02 M962.908 1477.31 Q968.718 1477.31 971.773 1481.92 Q974.852 1486.5 974.852 1495.25 Q974.852 1503.98 971.773 1508.59 Q968.718 1513.17 962.908 1513.17 Q957.097 1513.17 954.019 1508.59 Q950.963 1503.98 950.963 1495.25 Q950.963 1486.5 954.019 1481.92 Q957.097 1477.31 962.908 1477.31 Z" fill="#000000" fill-rule="nonzero" fill-opacity="1" /><path clip-path="url(#clip360)" d="M983.07 1506.62 L987.954 1506.62 L987.954 1512.5 L983.07 1512.5 L983.07 1506.62 Z" fill="#000000" fill-rule="nonzero" fill-opacity="1" /><path clip-path="url(#clip360)" d="M998.185 1477.94 L1016.54 1477.94 L1016.54 1481.88 L1002.47 1481.88 L1002.47 1490.35 Q1003.49 1490 1004.5 1489.84 Q1005.52 1489.65 1006.54 1489.65 Q1012.33 1489.65 1015.71 1492.82 Q1019.09 1496 1019.09 1501.41 Q1019.09 1506.99 1015.62 1510.09 Q1012.14 1513.17 1005.82 1513.17 Q1003.65 1513.17 1001.38 1512.8 Q999.134 1512.43 996.727 1511.69 L996.727 1506.99 Q998.81 1508.12 1001.03 1508.68 Q1003.25 1509.24 1005.73 1509.24 Q1009.74 1509.24 1012.07 1507.13 Q1014.41 1505.02 1014.41 1501.41 Q1014.41 1497.8 1012.07 1495.69 Q1009.74 1493.59 1005.73 1493.59 Q1003.86 1493.59 1001.98 1494 Q1000.13 1494.42 998.185 1495.3 L998.185 1477.94 Z" fill="#000000" fill-rule="nonzero" fill-opacity="1" /><path clip-path="url(#clip360)" d="M1646.96 1508.56 L1654.6 1508.56 L1654.6 1482.2 L1646.29 1483.87 L1646.29 1479.61 L1654.56 1477.94 L1659.23 1477.94 L1659.23 1508.56 L1666.87 1508.56 L1666.87 1512.5 L1646.96 1512.5 L1646.96 1508.56 Z" fill="#000000" fill-rule="nonzero" fill-opacity="1" /><path clip-path="url(#clip360)" d="M1676.32 1506.62 L1681.2 1506.62 L1681.2 1512.5 L1676.32 1512.5 L1676.32 1506.62 Z" fill="#000000" fill-rule="nonzero" fill-opacity="1" /><path clip-path="url(#clip360)" d="M1701.38 1481.02 Q1697.77 1481.02 1695.95 1484.58 Q1694.14 1488.12 1694.14 1495.25 Q1694.14 1502.36 1695.95 1505.93 Q1697.77 1509.47 1701.38 1509.47 Q1705.02 1509.47 1706.82 1505.93 Q1708.65 1502.36 1708.65 1495.25 Q1708.65 1488.12 1706.82 1484.58 Q1705.02 1481.02 1701.38 1481.02 M1701.38 1477.31 Q1707.2 1477.31 1710.25 1481.92 Q1713.33 1486.5 1713.33 1495.25 Q1713.33 1503.98 1710.25 1508.59 Q1707.2 1513.17 1701.38 1513.17 Q1695.57 1513.17 1692.5 1508.59 Q1689.44 1503.98 1689.44 1495.25 Q1689.44 1486.5 1692.5 1481.92 Q1695.57 1477.31 1701.38 1477.31 Z" fill="#000000" fill-rule="nonzero" fill-opacity="1" /><path clip-path="url(#clip360)" d="M2342.25 1508.56 L2349.89 1508.56 L2349.89 1482.2 L2341.58 1483.87 L2341.58 1479.61 L2349.84 1477.94 L2354.52 1477.94 L2354.52 1508.56 L2362.15 1508.56 L2362.15 1512.5 L2342.25 1512.5 L2342.25 1508.56 Z" fill="#000000" fill-rule="nonzero" fill-opacity="1" /><path clip-path="url(#clip360)" d="M2371.6 1506.62 L2376.48 1506.62 L2376.48 1512.5 L2371.6 1512.5 L2371.6 1506.62 Z" fill="#000000" fill-rule="nonzero" fill-opacity="1" /><path clip-path="url(#clip360)" d="M2386.71 1477.94 L2405.07 1477.94 L2405.07 1481.88 L2391 1481.88 L2391 1490.35 Q2392.02 1490 2393.03 1489.84 Q2394.05 1489.65 2395.07 1489.65 Q2400.86 1489.65 2404.24 1492.82 Q2407.62 1496 2407.62 1501.41 Q2407.62 1506.99 2404.14 1510.09 Q2400.67 1513.17 2394.35 1513.17 Q2392.18 1513.17 2389.91 1512.8 Q2387.66 1512.43 2385.26 1511.69 L2385.26 1506.99 Q2387.34 1508.12 2389.56 1508.68 Q2391.78 1509.24 2394.26 1509.24 Q2398.27 1509.24 2400.6 1507.13 Q2402.94 1505.02 2402.94 1501.41 Q2402.94 1497.8 2400.6 1495.69 Q2398.27 1493.59 2394.26 1493.59 Q2392.39 1493.59 2390.51 1494 Q2388.66 1494.42 2386.71 1495.3 L2386.71 1477.94 Z" fill="#000000" fill-rule="nonzero" fill-opacity="1" /><path clip-path="url(#clip360)" d="M3040.62 1508.56 L3056.94 1508.56 L3056.94 1512.5 L3035 1512.5 L3035 1508.56 Q3037.66 1505.81 3042.24 1501.18 Q3046.85 1496.53 3048.03 1495.19 Q3050.27 1492.66 3051.15 1490.93 Q3052.06 1489.17 3052.06 1487.48 Q3052.06 1484.72 3050.11 1482.99 Q3048.19 1481.25 3045.09 1481.25 Q3042.89 1481.25 3040.44 1482.01 Q3038 1482.78 3035.23 1484.33 L3035.23 1479.61 Q3038.05 1478.47 3040.5 1477.89 Q3042.96 1477.31 3045 1477.31 Q3050.37 1477.31 3053.56 1480 Q3056.75 1482.69 3056.75 1487.18 Q3056.75 1489.31 3055.94 1491.23 Q3055.16 1493.12 3053.05 1495.72 Q3052.47 1496.39 3049.37 1499.61 Q3046.27 1502.8 3040.62 1508.56 Z" fill="#000000" fill-rule="nonzero" fill-opacity="1" /><path clip-path="url(#clip360)" d="M3066.75 1506.62 L3071.64 1506.62 L3071.64 1512.5 L3066.75 1512.5 L3066.75 1506.62 Z" fill="#000000" fill-rule="nonzero" fill-opacity="1" /><path clip-path="url(#clip360)" d="M3091.82 1481.02 Q3088.21 1481.02 3086.38 1484.58 Q3084.58 1488.12 3084.58 1495.25 Q3084.58 1502.36 3086.38 1505.93 Q3088.21 1509.47 3091.82 1509.47 Q3095.46 1509.47 3097.26 1505.93 Q3099.09 1502.36 3099.09 1495.25 Q3099.09 1488.12 3097.26 1484.58 Q3095.46 1481.02 3091.82 1481.02 M3091.82 1477.31 Q3097.63 1477.31 3100.69 1481.92 Q3103.77 1486.5 3103.77 1495.25 Q3103.77 1503.98 3100.69 1508.59 Q3097.63 1513.17 3091.82 1513.17 Q3086.01 1513.17 3082.93 1508.59 Q3079.88 1503.98 3079.88 1495.25 Q3079.88 1486.5 3082.93 1481.92 Q3086.01 1477.31 3091.82 1477.31 Z" fill="#000000" fill-rule="nonzero" fill-opacity="1" /><path clip-path="url(#clip360)" d="M1678.87 1554.79 L1678.87 1564.92 L1690.93 1564.92 L1690.93 1569.47 L1678.87 1569.47 L1678.87 1588.82 Q1678.87 1593.18 1680.05 1594.42 Q1681.26 1595.66 1684.92 1595.66 L1690.93 1595.66 L1690.93 1600.56 L1684.92 1600.56 Q1678.14 1600.56 1675.56 1598.05 Q1672.98 1595.5 1672.98 1588.82 L1672.98 1569.47 L1668.69 1569.47 L1668.69 1564.92 L1672.98 1564.92 L1672.98 1554.79 L1678.87 1554.79 Z" fill="#000000" fill-rule="nonzero" fill-opacity="1" /><polyline clip-path="url(#clip362)" style="stroke:#000000; stroke-linecap:round; stroke-linejoin:round; stroke-width:2; stroke-opacity:0.1; fill:none" points="206.866,1286.59 3152.76,1286.59 "/>
<polyline clip-path="url(#clip362)" style="stroke:#000000; stroke-linecap:round; stroke-linejoin:round; stroke-width:2; stroke-opacity:0.1; fill:none" points="206.866,966.475 3152.76,966.475 "/>
<polyline clip-path="url(#clip362)" style="stroke:#000000; stroke-linecap:round; stroke-linejoin:round; stroke-width:2; stroke-opacity:0.1; fill:none" points="206.866,646.363 3152.76,646.363 "/>
<polyline clip-path="url(#clip362)" style="stroke:#000000; stroke-linecap:round; stroke-linejoin:round; stroke-width:2; stroke-opacity:0.1; fill:none" points="206.866,326.251 3152.76,326.251 "/>
<polyline clip-path="url(#clip360)" style="stroke:#000000; stroke-linecap:round; stroke-linejoin:round; stroke-width:4; stroke-opacity:1; fill:none" points="206.866,1443.7 206.866,88.9121 "/>
<polyline clip-path="url(#clip360)" style="stroke:#000000; stroke-linecap:round; stroke-linejoin:round; stroke-width:4; stroke-opacity:1; fill:none" points="206.866,1286.59 225.764,1286.59 "/>
<polyline clip-path="url(#clip360)" style="stroke:#000000; stroke-linecap:round; stroke-linejoin:round; stroke-width:4; stroke-opacity:1; fill:none" points="206.866,966.475 225.764,966.475 "/>
<polyline clip-path="url(#clip360)" style="stroke:#000000; stroke-linecap:round; stroke-linejoin:round; stroke-width:4; stroke-opacity:1; fill:none" points="206.866,646.363 225.764,646.363 "/>
<polyline clip-path="url(#clip360)" style="stroke:#000000; stroke-linecap:round; stroke-linejoin:round; stroke-width:4; stroke-opacity:1; fill:none" points="206.866,326.251 225.764,326.251 "/>
<path clip-path="url(#clip360)" d="M98.7505 1287.04 L128.426 1287.04 L128.426 1290.97 L98.7505 1290.97 L98.7505 1287.04 Z" fill="#000000" fill-rule="nonzero" fill-opacity="1" /><path clip-path="url(#clip360)" d="M142.547 1299.93 L158.866 1299.93 L158.866 1303.87 L136.922 1303.87 L136.922 1299.93 Q139.584 1297.18 144.167 1292.55 Q148.773 1287.89 149.954 1286.55 Q152.199 1284.03 153.079 1282.29 Q153.982 1280.53 153.982 1278.84 Q153.982 1276.09 152.037 1274.35 Q150.116 1272.62 147.014 1272.62 Q144.815 1272.62 142.361 1273.38 Q139.931 1274.14 137.153 1275.7 L137.153 1270.97 Q139.977 1269.84 142.431 1269.26 Q144.885 1268.68 146.922 1268.68 Q152.292 1268.68 155.486 1271.37 Q158.681 1274.05 158.681 1278.54 Q158.681 1280.67 157.871 1282.59 Q157.084 1284.49 154.977 1287.08 Q154.398 1287.76 151.297 1290.97 Q148.195 1294.17 142.547 1299.93 Z" fill="#000000" fill-rule="nonzero" fill-opacity="1" /><path clip-path="url(#clip360)" d="M98.3802 966.926 L128.056 966.926 L128.056 970.861 L98.3802 970.861 L98.3802 966.926 Z" fill="#000000" fill-rule="nonzero" fill-opacity="1" /><path clip-path="url(#clip360)" d="M138.959 979.819 L146.597 979.819 L146.597 953.454 L138.287 955.12 L138.287 950.861 L146.551 949.195 L151.227 949.195 L151.227 979.819 L158.866 979.819 L158.866 983.755 L138.959 983.755 L138.959 979.819 Z" fill="#000000" fill-rule="nonzero" fill-opacity="1" /><path clip-path="url(#clip360)" d="M146.922 632.161 Q143.31 632.161 141.482 635.726 Q139.676 639.268 139.676 646.397 Q139.676 653.504 141.482 657.069 Q143.31 660.61 146.922 660.61 Q150.556 660.61 152.361 657.069 Q154.19 653.504 154.19 646.397 Q154.19 639.268 152.361 635.726 Q150.556 632.161 146.922 632.161 M146.922 628.458 Q152.732 628.458 155.787 633.064 Q158.866 637.647 158.866 646.397 Q158.866 655.124 155.787 659.731 Q152.732 664.314 146.922 664.314 Q141.111 664.314 138.033 659.731 Q134.977 655.124 134.977 646.397 Q134.977 637.647 138.033 633.064 Q141.111 628.458 146.922 628.458 Z" fill="#000000" fill-rule="nonzero" fill-opacity="1" /><path clip-path="url(#clip360)" d="M138.959 339.595 L146.597 339.595 L146.597 313.23 L138.287 314.896 L138.287 310.637 L146.551 308.971 L151.227 308.971 L151.227 339.595 L158.866 339.595 L158.866 343.531 L138.959 343.531 L138.959 339.595 Z" fill="#000000" fill-rule="nonzero" fill-opacity="1" /><path clip-path="url(#clip360)" d="M-11.3958 796.384 L-11.3958 789.891 L28.7718 779.897 L-11.3958 769.934 L-11.3958 762.709 L28.7718 752.715 L-11.3958 742.753 L-11.3958 736.228 L36.1242 748.164 L36.1242 756.248 L-5.12562 766.274 L36.1242 776.396 L36.1242 784.48 L-11.3958 796.384 Z" fill="#000000" fill-rule="nonzero" fill-opacity="1" /><path clip-path="url(#clip360)" d="M673.231 8.04625 L673.231 12.6064 Q670.569 11.3333 668.208 10.7083 Q665.846 10.0833 663.647 10.0833 Q659.828 10.0833 657.745 11.5648 Q655.684 13.0462 655.684 15.7777 Q655.684 18.0693 657.05 19.2499 Q658.439 20.4073 662.282 21.1249 L665.106 21.7036 Q670.337 22.699 672.814 25.2221 Q675.314 27.7221 675.314 31.935 Q675.314 36.9581 671.934 39.5507 Q668.578 42.1433 662.073 42.1433 Q659.62 42.1433 656.842 41.5877 Q654.087 41.0322 651.124 39.9442 L651.124 35.1294 Q653.972 36.7267 656.703 37.5368 Q659.434 38.347 662.073 38.347 Q666.078 38.347 668.254 36.773 Q670.43 35.1989 670.43 32.2822 Q670.43 29.736 668.856 28.3008 Q667.305 26.8656 663.74 26.148 L660.893 25.5925 Q655.661 24.5508 653.323 22.3286 Q650.985 20.1064 650.985 16.1481 Q650.985 11.5648 654.203 8.92588 Q657.444 6.287 663.115 6.287 Q665.546 6.287 668.069 6.72682 Q670.592 7.16663 673.231 8.04625 Z" fill="#000000" fill-rule="nonzero" fill-opacity="1" /><path clip-path="url(#clip360)" d="M694.203 28.4397 Q689.041 28.4397 687.05 29.6202 Q685.059 30.8008 685.059 33.648 Q685.059 35.9165 686.541 37.2591 Q688.045 38.5785 690.615 38.5785 Q694.156 38.5785 696.286 36.0785 Q698.439 33.5554 698.439 29.3887 L698.439 28.4397 L694.203 28.4397 M702.698 26.6804 L702.698 41.472 L698.439 41.472 L698.439 37.5368 Q696.981 39.8979 694.805 41.0322 Q692.629 42.1433 689.481 42.1433 Q685.499 42.1433 683.138 39.9211 Q680.8 37.6757 680.8 33.9257 Q680.8 29.5508 683.717 27.3286 Q686.657 25.1063 692.467 25.1063 L698.439 25.1063 L698.439 24.6897 Q698.439 21.7499 696.494 20.1527 Q694.573 18.5323 691.078 18.5323 Q688.856 18.5323 686.749 19.0647 Q684.643 19.5971 682.698 20.6619 L682.698 16.7268 Q685.036 15.824 687.235 15.3842 Q689.434 14.9212 691.518 14.9212 Q697.143 14.9212 699.92 17.8379 Q702.698 20.7545 702.698 26.6804 Z" fill="#000000" fill-rule="nonzero" fill-opacity="1" /><path clip-path="url(#clip360)" d="M731.656 20.523 Q733.253 17.6527 735.476 16.2869 Q737.698 14.9212 740.707 14.9212 Q744.758 14.9212 746.957 17.7684 Q749.156 20.5925 749.156 25.8239 L749.156 41.472 L744.874 41.472 L744.874 25.9628 Q744.874 22.236 743.554 20.4304 Q742.235 18.6249 739.527 18.6249 Q736.216 18.6249 734.295 20.824 Q732.374 23.023 732.374 26.8193 L732.374 41.472 L728.091 41.472 L728.091 25.9628 Q728.091 22.2128 726.772 20.4304 Q725.453 18.6249 722.698 18.6249 Q719.434 18.6249 717.513 20.8471 Q715.592 23.0462 715.592 26.8193 L715.592 41.472 L711.309 41.472 L711.309 15.5462 L715.592 15.5462 L715.592 19.574 Q717.05 17.1897 719.087 16.0555 Q721.124 14.9212 723.925 14.9212 Q726.749 14.9212 728.716 16.3564 Q730.707 17.7916 731.656 20.523 Z" fill="#000000" fill-rule="nonzero" fill-opacity="1" /><path clip-path="url(#clip360)" d="M761.772 37.5831 L761.772 51.3331 L757.489 51.3331 L757.489 15.5462 L761.772 15.5462 L761.772 19.4814 Q763.114 17.1666 765.151 16.0555 Q767.212 14.9212 770.059 14.9212 Q774.781 14.9212 777.721 18.6712 Q780.684 22.4212 780.684 28.5323 Q780.684 34.6433 777.721 38.3933 Q774.781 42.1433 770.059 42.1433 Q767.212 42.1433 765.151 41.0322 Q763.114 39.8979 761.772 37.5831 M776.263 28.5323 Q776.263 23.8332 774.318 21.1712 Q772.397 18.486 769.017 18.486 Q765.638 18.486 763.693 21.1712 Q761.772 23.8332 761.772 28.5323 Q761.772 33.2313 763.693 35.9165 Q765.638 38.5785 769.017 38.5785 Q772.397 38.5785 774.318 35.9165 Q776.263 33.2313 776.263 28.5323 Z" fill="#000000" fill-rule="nonzero" fill-opacity="1" /><path clip-path="url(#clip360)" d="M787.744 5.45367 L792.003 5.45367 L792.003 41.472 L787.744 41.472 L787.744 5.45367 Z" fill="#000000" fill-rule="nonzero" fill-opacity="1" /><path clip-path="url(#clip360)" d="M823.091 27.4443 L823.091 29.5276 L803.508 29.5276 Q803.786 33.9257 806.147 36.2405 Q808.531 38.5322 812.767 38.5322 Q815.221 38.5322 817.512 37.9304 Q819.827 37.3285 822.096 36.1248 L822.096 40.1526 Q819.804 41.1248 817.397 41.634 Q814.989 42.1433 812.512 42.1433 Q806.309 42.1433 802.674 38.5322 Q799.063 34.9211 799.063 28.7637 Q799.063 22.398 802.489 18.6712 Q805.938 14.9212 811.772 14.9212 Q817.003 14.9212 820.035 18.3008 Q823.091 21.6573 823.091 27.4443 M818.832 26.1943 Q818.785 22.699 816.864 20.6156 Q814.966 18.5323 811.818 18.5323 Q808.253 18.5323 806.1 20.5462 Q803.971 22.5601 803.647 26.2175 L818.832 26.1943 Z" fill="#000000" fill-rule="nonzero" fill-opacity="1" /><path clip-path="url(#clip360)" d="M849.271 37.5831 L849.271 51.3331 L844.989 51.3331 L844.989 15.5462 L849.271 15.5462 L849.271 19.4814 Q850.614 17.1666 852.651 16.0555 Q854.711 14.9212 857.558 14.9212 Q862.281 14.9212 865.22 18.6712 Q868.183 22.4212 868.183 28.5323 Q868.183 34.6433 865.22 38.3933 Q862.281 42.1433 857.558 42.1433 Q854.711 42.1433 852.651 41.0322 Q850.614 39.8979 849.271 37.5831 M863.762 28.5323 Q863.762 23.8332 861.818 21.1712 Q859.896 18.486 856.517 18.486 Q853.137 18.486 851.193 21.1712 Q849.271 23.8332 849.271 28.5323 Q849.271 33.2313 851.193 35.9165 Q853.137 38.5785 856.517 38.5785 Q859.896 38.5785 861.818 35.9165 Q863.762 33.2313 863.762 28.5323 Z" fill="#000000" fill-rule="nonzero" fill-opacity="1" /><path clip-path="url(#clip360)" d="M887.026 28.4397 Q881.864 28.4397 879.873 29.6202 Q877.882 30.8008 877.882 33.648 Q877.882 35.9165 879.364 37.2591 Q880.868 38.5785 883.438 38.5785 Q886.98 38.5785 889.109 36.0785 Q891.262 33.5554 891.262 29.3887 L891.262 28.4397 L887.026 28.4397 M895.521 26.6804 L895.521 41.472 L891.262 41.472 L891.262 37.5368 Q889.804 39.8979 887.628 41.0322 Q885.452 42.1433 882.304 42.1433 Q878.322 42.1433 875.961 39.9211 Q873.623 37.6757 873.623 33.9257 Q873.623 29.5508 876.54 27.3286 Q879.48 25.1063 885.29 25.1063 L891.262 25.1063 L891.262 24.6897 Q891.262 21.7499 889.317 20.1527 Q887.396 18.5323 883.901 18.5323 Q881.679 18.5323 879.572 19.0647 Q877.466 19.5971 875.521 20.6619 L875.521 16.7268 Q877.859 15.824 880.058 15.3842 Q882.257 14.9212 884.341 14.9212 Q889.966 14.9212 892.743 17.8379 Q895.521 20.7545 895.521 26.6804 Z" fill="#000000" fill-rule="nonzero" fill-opacity="1" /><path clip-path="url(#clip360)" d="M908.507 8.18514 L908.507 15.5462 L917.28 15.5462 L917.28 18.8564 L908.507 18.8564 L908.507 32.9304 Q908.507 36.1017 909.364 37.0044 Q910.243 37.9072 912.905 37.9072 L917.28 37.9072 L917.28 41.472 L912.905 41.472 Q907.975 41.472 906.1 39.6433 Q904.225 37.7915 904.225 32.9304 L904.225 18.8564 L901.1 18.8564 L901.1 15.5462 L904.225 15.5462 L904.225 8.18514 L908.507 8.18514 Z" fill="#000000" fill-rule="nonzero" fill-opacity="1" /><path clip-path="url(#clip360)" d="M944.433 25.8239 L944.433 41.472 L940.174 41.472 L940.174 25.9628 Q940.174 22.2823 938.739 20.4536 Q937.303 18.6249 934.433 18.6249 Q930.984 18.6249 928.993 20.824 Q927.002 23.023 927.002 26.8193 L927.002 41.472 L922.72 41.472 L922.72 5.45367 L927.002 5.45367 L927.002 19.574 Q928.53 17.236 930.59 16.0786 Q932.674 14.9212 935.382 14.9212 Q939.85 14.9212 942.141 17.699 Q944.433 20.4536 944.433 25.8239 Z" fill="#000000" fill-rule="nonzero" fill-opacity="1" /><path clip-path="url(#clip360)" d="M969.456 16.3101 L969.456 20.3379 Q967.65 19.4119 965.706 18.949 Q963.762 18.486 961.678 18.486 Q958.507 18.486 956.91 19.4582 Q955.336 20.4304 955.336 22.3749 Q955.336 23.8564 956.47 24.7128 Q957.604 25.5462 961.03 26.31 L962.488 26.6341 Q967.025 27.6063 968.924 29.3887 Q970.845 31.148 970.845 34.3193 Q970.845 37.9304 967.974 40.0368 Q965.127 42.1433 960.127 42.1433 Q958.044 42.1433 955.775 41.7266 Q953.53 41.3331 951.03 40.5229 L951.03 36.1248 Q953.391 37.3517 955.683 37.9766 Q957.975 38.5785 960.22 38.5785 Q963.229 38.5785 964.849 37.56 Q966.47 36.5183 966.47 34.6433 Q966.47 32.9072 965.289 31.9813 Q964.132 31.0554 960.174 30.1989 L958.692 29.8517 Q954.734 29.0184 952.975 27.3054 Q951.215 25.5693 951.215 22.5601 Q951.215 18.9027 953.808 16.9119 Q956.4 14.9212 961.169 14.9212 Q963.53 14.9212 965.613 15.2684 Q967.697 15.6157 969.456 16.3101 Z" fill="#000000" fill-rule="nonzero" fill-opacity="1" /><path clip-path="url(#clip360)" d="M1002.74 18.5323 Q999.317 18.5323 997.326 21.2175 Q995.335 23.8795 995.335 28.5323 Q995.335 33.185 997.303 35.8702 Q999.294 38.5322 1002.74 38.5322 Q1006.15 38.5322 1008.14 35.847 Q1010.13 33.1619 1010.13 28.5323 Q1010.13 23.9258 1008.14 21.2406 Q1006.15 18.5323 1002.74 18.5323 M1002.74 14.9212 Q1008.3 14.9212 1011.47 18.5323 Q1014.64 22.1434 1014.64 28.5323 Q1014.64 34.898 1011.47 38.5322 Q1008.3 42.1433 1002.74 42.1433 Q997.164 42.1433 993.993 38.5322 Q990.845 34.898 990.845 28.5323 Q990.845 22.1434 993.993 18.5323 Q997.164 14.9212 1002.74 14.9212 Z" fill="#000000" fill-rule="nonzero" fill-opacity="1" /><path clip-path="url(#clip360)" d="M1034.83 5.45367 L1034.83 8.99532 L1030.75 8.99532 Q1028.46 8.99532 1027.56 9.92124 Q1026.68 10.8472 1026.68 13.2546 L1026.68 15.5462 L1033.69 15.5462 L1033.69 18.8564 L1026.68 18.8564 L1026.68 41.472 L1022.4 41.472 L1022.4 18.8564 L1018.32 18.8564 L1018.32 15.5462 L1022.4 15.5462 L1022.4 13.7407 Q1022.4 9.41199 1024.41 7.4444 Q1026.42 5.45367 1030.8 5.45367 L1034.83 5.45367 Z" fill="#000000" fill-rule="nonzero" fill-opacity="1" /><path clip-path="url(#clip360)" d="M1066.59 5.45367 L1066.59 8.99532 L1062.51 8.99532 Q1060.22 8.99532 1059.32 9.92124 Q1058.44 10.8472 1058.44 13.2546 L1058.44 15.5462 L1065.45 15.5462 L1065.45 18.8564 L1058.44 18.8564 L1058.44 41.472 L1054.15 41.472 L1054.15 18.8564 L1050.08 18.8564 L1050.08 15.5462 L1054.15 15.5462 L1054.15 13.7407 Q1054.15 9.41199 1056.17 7.4444 Q1058.18 5.45367 1062.56 5.45367 L1066.59 5.45367 Z" fill="#000000" fill-rule="nonzero" fill-opacity="1" /><path clip-path="url(#clip360)" d="M1085.17 19.5277 Q1084.46 19.111 1083.6 18.9258 Q1082.77 18.7175 1081.75 18.7175 Q1078.14 18.7175 1076.19 21.0786 Q1074.27 23.4165 1074.27 27.8147 L1074.27 41.472 L1069.99 41.472 L1069.99 15.5462 L1074.27 15.5462 L1074.27 19.574 Q1075.61 17.2129 1077.77 16.0786 Q1079.92 14.9212 1083 14.9212 Q1083.44 14.9212 1083.97 14.9907 Q1084.5 15.037 1085.15 15.1527 L1085.17 19.5277 Z" fill="#000000" fill-rule="nonzero" fill-opacity="1" /><path clip-path="url(#clip360)" d="M1101.42 28.4397 Q1096.26 28.4397 1094.27 29.6202 Q1092.28 30.8008 1092.28 33.648 Q1092.28 35.9165 1093.76 37.2591 Q1095.27 38.5785 1097.83 38.5785 Q1101.38 38.5785 1103.51 36.0785 Q1105.66 33.5554 1105.66 29.3887 L1105.66 28.4397 L1101.42 28.4397 M1109.92 26.6804 L1109.92 41.472 L1105.66 41.472 L1105.66 37.5368 Q1104.2 39.8979 1102.02 41.0322 Q1099.85 42.1433 1096.7 42.1433 Q1092.72 42.1433 1090.36 39.9211 Q1088.02 37.6757 1088.02 33.9257 Q1088.02 29.5508 1090.94 27.3286 Q1093.88 25.1063 1099.69 25.1063 L1105.66 25.1063 L1105.66 24.6897 Q1105.66 21.7499 1103.71 20.1527 Q1101.79 18.5323 1098.3 18.5323 Q1096.08 18.5323 1093.97 19.0647 Q1091.86 19.5971 1089.92 20.6619 L1089.92 16.7268 Q1092.26 15.824 1094.46 15.3842 Q1096.65 14.9212 1098.74 14.9212 Q1104.36 14.9212 1107.14 17.8379 Q1109.92 20.7545 1109.92 26.6804 Z" fill="#000000" fill-rule="nonzero" fill-opacity="1" /><path clip-path="url(#clip360)" d="M1137.35 16.5416 L1137.35 20.523 Q1135.54 19.5277 1133.71 19.0416 Q1131.91 18.5323 1130.06 18.5323 Q1125.91 18.5323 1123.62 21.1712 Q1121.33 23.7869 1121.33 28.5323 Q1121.33 33.2776 1123.62 35.9165 Q1125.91 38.5322 1130.06 38.5322 Q1131.91 38.5322 1133.71 38.0461 Q1135.54 37.5368 1137.35 36.5415 L1137.35 40.4766 Q1135.57 41.31 1133.64 41.7266 Q1131.75 42.1433 1129.59 42.1433 Q1123.74 42.1433 1120.29 38.4628 Q1116.84 34.7822 1116.84 28.5323 Q1116.84 22.1897 1120.31 18.5555 Q1123.81 14.9212 1129.87 14.9212 Q1131.84 14.9212 1133.71 15.3379 Q1135.59 15.7314 1137.35 16.5416 Z" fill="#000000" fill-rule="nonzero" fill-opacity="1" /><path clip-path="url(#clip360)" d="M1148.97 8.18514 L1148.97 15.5462 L1157.74 15.5462 L1157.74 18.8564 L1148.97 18.8564 L1148.97 32.9304 Q1148.97 36.1017 1149.83 37.0044 Q1150.7 37.9072 1153.37 37.9072 L1157.74 37.9072 L1157.74 41.472 L1153.37 41.472 Q1148.44 41.472 1146.56 39.6433 Q1144.69 37.7915 1144.69 32.9304 L1144.69 18.8564 L1141.56 18.8564 L1141.56 15.5462 L1144.69 15.5462 L1144.69 8.18514 L1148.97 8.18514 Z" fill="#000000" fill-rule="nonzero" fill-opacity="1" /><path clip-path="url(#clip360)" d="M1163.34 15.5462 L1167.6 15.5462 L1167.6 41.472 L1163.34 41.472 L1163.34 15.5462 M1163.34 5.45367 L1167.6 5.45367 L1167.6 10.8472 L1163.34 10.8472 L1163.34 5.45367 Z" fill="#000000" fill-rule="nonzero" fill-opacity="1" /><path clip-path="url(#clip360)" d="M1186.56 18.5323 Q1183.14 18.5323 1181.14 21.2175 Q1179.15 23.8795 1179.15 28.5323 Q1179.15 33.185 1181.12 35.8702 Q1183.11 38.5322 1186.56 38.5322 Q1189.96 38.5322 1191.95 35.847 Q1193.95 33.1619 1193.95 28.5323 Q1193.95 23.9258 1191.95 21.2406 Q1189.96 18.5323 1186.56 18.5323 M1186.56 14.9212 Q1192.12 14.9212 1195.29 18.5323 Q1198.46 22.1434 1198.46 28.5323 Q1198.46 34.898 1195.29 38.5322 Q1192.12 42.1433 1186.56 42.1433 Q1180.98 42.1433 1177.81 38.5322 Q1174.66 34.898 1174.66 28.5323 Q1174.66 22.1434 1177.81 18.5323 Q1180.98 14.9212 1186.56 14.9212 Z" fill="#000000" fill-rule="nonzero" fill-opacity="1" /><path clip-path="url(#clip360)" d="M1227.07 25.8239 L1227.07 41.472 L1222.81 41.472 L1222.81 25.9628 Q1222.81 22.2823 1221.38 20.4536 Q1219.94 18.6249 1217.07 18.6249 Q1213.62 18.6249 1211.63 20.824 Q1209.64 23.023 1209.64 26.8193 L1209.64 41.472 L1205.36 41.472 L1205.36 15.5462 L1209.64 15.5462 L1209.64 19.574 Q1211.17 17.236 1213.23 16.0786 Q1215.31 14.9212 1218.02 14.9212 Q1222.49 14.9212 1224.78 17.699 Q1227.07 20.4536 1227.07 25.8239 Z" fill="#000000" fill-rule="nonzero" fill-opacity="1" /><path clip-path="url(#clip360)" d="M1247.35 28.4397 Q1242.19 28.4397 1240.2 29.6202 Q1238.2 30.8008 1238.2 33.648 Q1238.2 35.9165 1239.69 37.2591 Q1241.19 38.5785 1243.76 38.5785 Q1247.3 38.5785 1249.43 36.0785 Q1251.58 33.5554 1251.58 29.3887 L1251.58 28.4397 L1247.35 28.4397 M1255.84 26.6804 L1255.84 41.472 L1251.58 41.472 L1251.58 37.5368 Q1250.13 39.8979 1247.95 41.0322 Q1245.77 42.1433 1242.63 42.1433 Q1238.64 42.1433 1236.28 39.9211 Q1233.95 37.6757 1233.95 33.9257 Q1233.95 29.5508 1236.86 27.3286 Q1239.8 25.1063 1245.61 25.1063 L1251.58 25.1063 L1251.58 24.6897 Q1251.58 21.7499 1249.64 20.1527 Q1247.72 18.5323 1244.22 18.5323 Q1242 18.5323 1239.89 19.0647 Q1237.79 19.5971 1235.84 20.6619 L1235.84 16.7268 Q1238.18 15.824 1240.38 15.3842 Q1242.58 14.9212 1244.66 14.9212 Q1250.29 14.9212 1253.07 17.8379 Q1255.84 20.7545 1255.84 26.6804 Z" fill="#000000" fill-rule="nonzero" fill-opacity="1" /><path clip-path="url(#clip360)" d="M1264.62 5.45367 L1268.88 5.45367 L1268.88 41.472 L1264.62 41.472 L1264.62 5.45367 Z" fill="#000000" fill-rule="nonzero" fill-opacity="1" /><path clip-path="url(#clip360)" d="M1297.72 24.9675 L1297.72 37.6294 L1305.22 37.6294 Q1308.99 37.6294 1310.8 36.0785 Q1312.63 34.5044 1312.63 31.2869 Q1312.63 28.0461 1310.8 26.5184 Q1308.99 24.9675 1305.22 24.9675 L1297.72 24.9675 M1297.72 10.7546 L1297.72 21.1712 L1304.64 21.1712 Q1308.07 21.1712 1309.73 19.898 Q1311.42 18.6018 1311.42 15.9629 Q1311.42 13.3472 1309.73 12.0509 Q1308.07 10.7546 1304.64 10.7546 L1297.72 10.7546 M1293.04 6.912 L1304.99 6.912 Q1310.33 6.912 1313.23 9.13421 Q1316.12 11.3564 1316.12 15.4536 Q1316.12 18.6249 1314.64 20.4999 Q1313.16 22.3749 1310.29 22.8378 Q1313.74 23.5786 1315.63 25.9397 Q1317.56 28.2776 1317.56 31.7961 Q1317.56 36.4257 1314.41 38.9489 Q1311.26 41.472 1305.45 41.472 L1293.04 41.472 L1293.04 6.912 Z" fill="#000000" fill-rule="nonzero" fill-opacity="1" /><path clip-path="url(#clip360)" d="M1340.4 19.5277 Q1339.69 19.111 1338.83 18.9258 Q1338 18.7175 1336.98 18.7175 Q1333.37 18.7175 1331.42 21.0786 Q1329.5 23.4165 1329.5 27.8147 L1329.5 41.472 L1325.22 41.472 L1325.22 15.5462 L1329.5 15.5462 L1329.5 19.574 Q1330.84 17.2129 1333 16.0786 Q1335.15 14.9212 1338.23 14.9212 Q1338.67 14.9212 1339.2 14.9907 Q1339.73 15.037 1340.38 15.1527 L1340.4 19.5277 Z" fill="#000000" fill-rule="nonzero" fill-opacity="1" /><path clip-path="url(#clip360)" d="M1353.88 18.5323 Q1350.45 18.5323 1348.46 21.2175 Q1346.47 23.8795 1346.47 28.5323 Q1346.47 33.185 1348.44 35.8702 Q1350.43 38.5322 1353.88 38.5322 Q1357.28 38.5322 1359.27 35.847 Q1361.26 33.1619 1361.26 28.5323 Q1361.26 23.9258 1359.27 21.2406 Q1357.28 18.5323 1353.88 18.5323 M1353.88 14.9212 Q1359.43 14.9212 1362.6 18.5323 Q1365.77 22.1434 1365.77 28.5323 Q1365.77 34.898 1362.6 38.5322 Q1359.43 42.1433 1353.88 42.1433 Q1348.3 42.1433 1345.13 38.5322 Q1341.98 34.898 1341.98 28.5323 Q1341.98 22.1434 1345.13 18.5323 Q1348.3 14.9212 1353.88 14.9212 Z" fill="#000000" fill-rule="nonzero" fill-opacity="1" /><path clip-path="url(#clip360)" d="M1370.36 15.5462 L1374.62 15.5462 L1379.94 35.7776 L1385.24 15.5462 L1390.26 15.5462 L1395.59 35.7776 L1400.89 15.5462 L1405.15 15.5462 L1398.37 41.472 L1393.34 41.472 L1387.76 20.2221 L1382.16 41.472 L1377.14 41.472 L1370.36 15.5462 Z" fill="#000000" fill-rule="nonzero" fill-opacity="1" /><path clip-path="url(#clip360)" d="M1433.16 25.8239 L1433.16 41.472 L1428.9 41.472 L1428.9 25.9628 Q1428.9 22.2823 1427.46 20.4536 Q1426.03 18.6249 1423.16 18.6249 Q1419.71 18.6249 1417.72 20.824 Q1415.73 23.023 1415.73 26.8193 L1415.73 41.472 L1411.44 41.472 L1411.44 15.5462 L1415.73 15.5462 L1415.73 19.574 Q1417.25 17.236 1419.31 16.0786 Q1421.4 14.9212 1424.11 14.9212 Q1428.57 14.9212 1430.87 17.699 Q1433.16 20.4536 1433.16 25.8239 Z" fill="#000000" fill-rule="nonzero" fill-opacity="1" /><path clip-path="url(#clip360)" d="M1441.65 15.5462 L1445.91 15.5462 L1445.91 41.472 L1441.65 41.472 L1441.65 15.5462 M1441.65 5.45367 L1445.91 5.45367 L1445.91 10.8472 L1441.65 10.8472 L1441.65 5.45367 Z" fill="#000000" fill-rule="nonzero" fill-opacity="1" /><path clip-path="url(#clip360)" d="M1466.61 28.4397 Q1461.44 28.4397 1459.45 29.6202 Q1457.46 30.8008 1457.46 33.648 Q1457.46 35.9165 1458.94 37.2591 Q1460.45 38.5785 1463.02 38.5785 Q1466.56 38.5785 1468.69 36.0785 Q1470.84 33.5554 1470.84 29.3887 L1470.84 28.4397 L1466.61 28.4397 M1475.1 26.6804 L1475.1 41.472 L1470.84 41.472 L1470.84 37.5368 Q1469.38 39.8979 1467.21 41.0322 Q1465.03 42.1433 1461.88 42.1433 Q1457.9 42.1433 1455.54 39.9211 Q1453.2 37.6757 1453.2 33.9257 Q1453.2 29.5508 1456.12 27.3286 Q1459.06 25.1063 1464.87 25.1063 L1470.84 25.1063 L1470.84 24.6897 Q1470.84 21.7499 1468.9 20.1527 Q1466.98 18.5323 1463.48 18.5323 Q1461.26 18.5323 1459.15 19.0647 Q1457.05 19.5971 1455.1 20.6619 L1455.1 16.7268 Q1457.44 15.824 1459.64 15.3842 Q1461.84 14.9212 1463.92 14.9212 Q1469.55 14.9212 1472.32 17.8379 Q1475.1 20.7545 1475.1 26.6804 Z" fill="#000000" fill-rule="nonzero" fill-opacity="1" /><path clip-path="url(#clip360)" d="M1505.43 25.8239 L1505.43 41.472 L1501.17 41.472 L1501.17 25.9628 Q1501.17 22.2823 1499.73 20.4536 Q1498.3 18.6249 1495.43 18.6249 Q1491.98 18.6249 1489.99 20.824 Q1487.99 23.023 1487.99 26.8193 L1487.99 41.472 L1483.71 41.472 L1483.71 15.5462 L1487.99 15.5462 L1487.99 19.574 Q1489.52 17.236 1491.58 16.0786 Q1493.67 14.9212 1496.37 14.9212 Q1500.84 14.9212 1503.13 17.699 Q1505.43 20.4536 1505.43 25.8239 Z" fill="#000000" fill-rule="nonzero" fill-opacity="1" /><path clip-path="url(#clip360)" d="M1549.18 20.523 Q1550.77 17.6527 1552.99 16.2869 Q1555.22 14.9212 1558.23 14.9212 Q1562.28 14.9212 1564.48 17.7684 Q1566.67 20.5925 1566.67 25.8239 L1566.67 41.472 L1562.39 41.472 L1562.39 25.9628 Q1562.39 22.236 1561.07 20.4304 Q1559.75 18.6249 1557.05 18.6249 Q1553.74 18.6249 1551.81 20.824 Q1549.89 23.023 1549.89 26.8193 L1549.89 41.472 L1545.61 41.472 L1545.61 25.9628 Q1545.61 22.2128 1544.29 20.4304 Q1542.97 18.6249 1540.22 18.6249 Q1536.95 18.6249 1535.03 20.8471 Q1533.11 23.0462 1533.11 26.8193 L1533.11 41.472 L1528.83 41.472 L1528.83 15.5462 L1533.11 15.5462 L1533.11 19.574 Q1534.57 17.1897 1536.61 16.0555 Q1538.64 14.9212 1541.44 14.9212 Q1544.27 14.9212 1546.24 16.3564 Q1548.23 17.7916 1549.18 20.523 Z" fill="#000000" fill-rule="nonzero" fill-opacity="1" /><path clip-path="url(#clip360)" d="M1585.22 18.5323 Q1581.79 18.5323 1579.8 21.2175 Q1577.81 23.8795 1577.81 28.5323 Q1577.81 33.185 1579.78 35.8702 Q1581.77 38.5322 1585.22 38.5322 Q1588.62 38.5322 1590.61 35.847 Q1592.6 33.1619 1592.6 28.5323 Q1592.6 23.9258 1590.61 21.2406 Q1588.62 18.5323 1585.22 18.5323 M1585.22 14.9212 Q1590.77 14.9212 1593.94 18.5323 Q1597.11 22.1434 1597.11 28.5323 Q1597.11 34.898 1593.94 38.5322 Q1590.77 42.1433 1585.22 42.1433 Q1579.64 42.1433 1576.47 38.5322 Q1573.32 34.898 1573.32 28.5323 Q1573.32 22.1434 1576.47 18.5323 Q1579.64 14.9212 1585.22 14.9212 Z" fill="#000000" fill-rule="nonzero" fill-opacity="1" /><path clip-path="url(#clip360)" d="M1608.39 8.18514 L1608.39 15.5462 L1617.16 15.5462 L1617.16 18.8564 L1608.39 18.8564 L1608.39 32.9304 Q1608.39 36.1017 1609.24 37.0044 Q1610.12 37.9072 1612.79 37.9072 L1617.16 37.9072 L1617.16 41.472 L1612.79 41.472 Q1607.86 41.472 1605.98 39.6433 Q1604.11 37.7915 1604.11 32.9304 L1604.11 18.8564 L1600.98 18.8564 L1600.98 15.5462 L1604.11 15.5462 L1604.11 8.18514 L1608.39 8.18514 Z" fill="#000000" fill-rule="nonzero" fill-opacity="1" /><path clip-path="url(#clip360)" d="M1622.76 15.5462 L1627.02 15.5462 L1627.02 41.472 L1622.76 41.472 L1622.76 15.5462 M1622.76 5.45367 L1627.02 5.45367 L1627.02 10.8472 L1622.76 10.8472 L1622.76 5.45367 Z" fill="#000000" fill-rule="nonzero" fill-opacity="1" /><path clip-path="url(#clip360)" d="M1645.98 18.5323 Q1642.55 18.5323 1640.56 21.2175 Q1638.57 23.8795 1638.57 28.5323 Q1638.57 33.185 1640.54 35.8702 Q1642.53 38.5322 1645.98 38.5322 Q1649.38 38.5322 1651.37 35.847 Q1653.36 33.1619 1653.36 28.5323 Q1653.36 23.9258 1651.37 21.2406 Q1649.38 18.5323 1645.98 18.5323 M1645.98 14.9212 Q1651.54 14.9212 1654.71 18.5323 Q1657.88 22.1434 1657.88 28.5323 Q1657.88 34.898 1654.71 38.5322 Q1651.54 42.1433 1645.98 42.1433 Q1640.4 42.1433 1637.23 38.5322 Q1634.08 34.898 1634.08 28.5323 Q1634.08 22.1434 1637.23 18.5323 Q1640.4 14.9212 1645.98 14.9212 Z" fill="#000000" fill-rule="nonzero" fill-opacity="1" /><path clip-path="url(#clip360)" d="M1686.49 25.8239 L1686.49 41.472 L1682.23 41.472 L1682.23 25.9628 Q1682.23 22.2823 1680.79 20.4536 Q1679.36 18.6249 1676.49 18.6249 Q1673.04 18.6249 1671.05 20.824 Q1669.06 23.023 1669.06 26.8193 L1669.06 41.472 L1664.78 41.472 L1664.78 15.5462 L1669.06 15.5462 L1669.06 19.574 Q1670.59 17.236 1672.65 16.0786 Q1674.73 14.9212 1677.44 14.9212 Q1681.91 14.9212 1684.2 17.699 Q1686.49 20.4536 1686.49 25.8239 Z" fill="#000000" fill-rule="nonzero" fill-opacity="1" /><path clip-path="url(#clip360)" d="M1720.1 18.5323 Q1716.67 18.5323 1714.68 21.2175 Q1712.69 23.8795 1712.69 28.5323 Q1712.69 33.185 1714.66 35.8702 Q1716.65 38.5322 1720.1 38.5322 Q1723.5 38.5322 1725.49 35.847 Q1727.48 33.1619 1727.48 28.5323 Q1727.48 23.9258 1725.49 21.2406 Q1723.5 18.5323 1720.1 18.5323 M1720.1 14.9212 Q1725.66 14.9212 1728.83 18.5323 Q1732 22.1434 1732 28.5323 Q1732 34.898 1728.83 38.5322 Q1725.66 42.1433 1720.1 42.1433 Q1714.52 42.1433 1711.35 38.5322 Q1708.2 34.898 1708.2 28.5323 Q1708.2 22.1434 1711.35 18.5323 Q1714.52 14.9212 1720.1 14.9212 Z" fill="#000000" fill-rule="nonzero" fill-opacity="1" /><path clip-path="url(#clip360)" d="M1752.18 5.45367 L1752.18 8.99532 L1748.11 8.99532 Q1745.82 8.99532 1744.91 9.92124 Q1744.04 10.8472 1744.04 13.2546 L1744.04 15.5462 L1751.05 15.5462 L1751.05 18.8564 L1744.04 18.8564 L1744.04 41.472 L1739.75 41.472 L1739.75 18.8564 L1735.68 18.8564 L1735.68 15.5462 L1739.75 15.5462 L1739.75 13.7407 Q1739.75 9.41199 1741.77 7.4444 Q1743.78 5.45367 1748.16 5.45367 L1752.18 5.45367 Z" fill="#000000" fill-rule="nonzero" fill-opacity="1" /><path clip-path="url(#clip360)" d="M1770.82 5.45367 L1775.08 5.45367 L1775.08 41.472 L1770.82 41.472 L1770.82 5.45367 Z" fill="#000000" fill-rule="nonzero" fill-opacity="1" /><path clip-path="url(#clip360)" d="M1806.16 27.4443 L1806.16 29.5276 L1786.58 29.5276 Q1786.86 33.9257 1789.22 36.2405 Q1791.6 38.5322 1795.84 38.5322 Q1798.29 38.5322 1800.59 37.9304 Q1802.9 37.3285 1805.17 36.1248 L1805.17 40.1526 Q1802.88 41.1248 1800.47 41.634 Q1798.06 42.1433 1795.59 42.1433 Q1789.38 42.1433 1785.75 38.5322 Q1782.14 34.9211 1782.14 28.7637 Q1782.14 22.398 1785.56 18.6712 Q1789.01 14.9212 1794.85 14.9212 Q1800.08 14.9212 1803.11 18.3008 Q1806.16 21.6573 1806.16 27.4443 M1801.91 26.1943 Q1801.86 22.699 1799.94 20.6156 Q1798.04 18.5323 1794.89 18.5323 Q1791.33 18.5323 1789.17 20.5462 Q1787.04 22.5601 1786.72 26.2175 L1801.91 26.1943 Z" fill="#000000" fill-rule="nonzero" fill-opacity="1" /><path clip-path="url(#clip360)" d="M1834.71 25.8239 L1834.71 41.472 L1830.45 41.472 L1830.45 25.9628 Q1830.45 22.2823 1829.01 20.4536 Q1827.58 18.6249 1824.71 18.6249 Q1821.26 18.6249 1819.27 20.824 Q1817.28 23.023 1817.28 26.8193 L1817.28 41.472 L1812.99 41.472 L1812.99 15.5462 L1817.28 15.5462 L1817.28 19.574 Q1818.8 17.236 1820.86 16.0786 Q1822.95 14.9212 1825.66 14.9212 Q1830.12 14.9212 1832.41 17.699 Q1834.71 20.4536 1834.71 25.8239 Z" fill="#000000" fill-rule="nonzero" fill-opacity="1" /><path clip-path="url(#clip360)" d="M1860.26 28.2082 Q1860.26 23.5786 1858.34 21.0323 Q1856.44 18.486 1852.99 18.486 Q1849.57 18.486 1847.65 21.0323 Q1845.75 23.5786 1845.75 28.2082 Q1845.75 32.8146 1847.65 35.3609 Q1849.57 37.9072 1852.99 37.9072 Q1856.44 37.9072 1858.34 35.3609 Q1860.26 32.8146 1860.26 28.2082 M1864.52 38.2544 Q1864.52 44.8748 1861.58 48.0923 Q1858.64 51.3331 1852.58 51.3331 Q1850.33 51.3331 1848.34 50.9858 Q1846.35 50.6618 1844.47 49.9673 L1844.47 45.8238 Q1846.35 46.8423 1848.18 47.3285 Q1850.01 47.8146 1851.9 47.8146 Q1856.09 47.8146 1858.18 45.6155 Q1860.26 43.4396 1860.26 39.0183 L1860.26 36.9118 Q1858.94 39.2035 1856.88 40.3377 Q1854.82 41.472 1851.95 41.472 Q1847.18 41.472 1844.27 37.8378 Q1841.35 34.2035 1841.35 28.2082 Q1841.35 22.1897 1844.27 18.5555 Q1847.18 14.9212 1851.95 14.9212 Q1854.82 14.9212 1856.88 16.0555 Q1858.94 17.1897 1860.26 19.4814 L1860.26 15.5462 L1864.52 15.5462 L1864.52 38.2544 Z" fill="#000000" fill-rule="nonzero" fill-opacity="1" /><path clip-path="url(#clip360)" d="M1877.51 8.18514 L1877.51 15.5462 L1886.28 15.5462 L1886.28 18.8564 L1877.51 18.8564 L1877.51 32.9304 Q1877.51 36.1017 1878.36 37.0044 Q1879.24 37.9072 1881.9 37.9072 L1886.28 37.9072 L1886.28 41.472 L1881.9 41.472 Q1876.97 41.472 1875.1 39.6433 Q1873.22 37.7915 1873.22 32.9304 L1873.22 18.8564 L1870.1 18.8564 L1870.1 15.5462 L1873.22 15.5462 L1873.22 8.18514 L1877.51 8.18514 Z" fill="#000000" fill-rule="nonzero" fill-opacity="1" /><path clip-path="url(#clip360)" d="M1913.43 25.8239 L1913.43 41.472 L1909.17 41.472 L1909.17 25.9628 Q1909.17 22.2823 1907.74 20.4536 Q1906.3 18.6249 1903.43 18.6249 Q1899.98 18.6249 1897.99 20.824 Q1896 23.023 1896 26.8193 L1896 41.472 L1891.72 41.472 L1891.72 5.45367 L1896 5.45367 L1896 19.574 Q1897.53 17.236 1899.59 16.0786 Q1901.67 14.9212 1904.38 14.9212 Q1908.85 14.9212 1911.14 17.699 Q1913.43 20.4536 1913.43 25.8239 Z" fill="#000000" fill-rule="nonzero" fill-opacity="1" /><path clip-path="url(#clip360)" d="M1937.65 6.912 L1956 6.912 L1956 10.8472 L1941.93 10.8472 L1941.93 19.3193 Q1942.95 18.9721 1943.96 18.8101 Q1944.98 18.6249 1946 18.6249 Q1951.79 18.6249 1955.17 21.7962 Q1958.55 24.9675 1958.55 30.3841 Q1958.55 35.9628 1955.08 39.0646 Q1951.6 42.1433 1945.28 42.1433 Q1943.11 42.1433 1940.84 41.7729 Q1938.59 41.4026 1936.19 40.6618 L1936.19 35.9628 Q1938.27 37.097 1940.49 37.6526 Q1942.71 38.2081 1945.19 38.2081 Q1949.2 38.2081 1951.53 36.1017 Q1953.87 33.9952 1953.87 30.3841 Q1953.87 26.773 1951.53 24.6665 Q1949.2 22.5601 1945.19 22.5601 Q1943.32 22.5601 1941.44 22.9767 Q1939.59 23.3934 1937.65 24.273 L1937.65 6.912 Z" fill="#000000" fill-rule="nonzero" fill-opacity="1" /><path clip-path="url(#clip360)" d="M1968.57 37.5368 L1976.21 37.5368 L1976.21 11.1712 L1967.9 12.8379 L1967.9 8.57866 L1976.16 6.912 L1980.84 6.912 L1980.84 37.5368 L1988.48 37.5368 L1988.48 41.472 L1968.57 41.472 L1968.57 37.5368 Z" fill="#000000" fill-rule="nonzero" fill-opacity="1" /><path clip-path="url(#clip360)" d="M2001.95 37.5368 L2018.27 37.5368 L2018.27 41.472 L1996.33 41.472 L1996.33 37.5368 Q1998.99 34.7822 2003.57 30.1526 Q2008.18 25.4999 2009.36 24.1573 Q2011.6 21.6341 2012.48 19.898 Q2013.39 18.1388 2013.39 16.449 Q2013.39 13.6944 2011.44 11.9583 Q2009.52 10.2222 2006.42 10.2222 Q2004.22 10.2222 2001.77 10.9861 Q1999.33 11.7499 1996.56 13.3009 L1996.56 8.57866 Q1999.38 7.4444 2001.83 6.8657 Q2004.29 6.287 2006.33 6.287 Q2011.7 6.287 2014.89 8.97217 Q2018.08 11.6573 2018.08 16.1481 Q2018.08 18.2777 2017.27 20.199 Q2016.49 22.0971 2014.38 24.6897 Q2013.8 25.361 2010.7 28.5786 Q2007.6 31.773 2001.95 37.5368 Z" fill="#000000" fill-rule="nonzero" fill-opacity="1" /><path clip-path="url(#clip360)" d="M2040.08 15.5462 L2044.33 15.5462 L2049.66 35.7776 L2054.96 15.5462 L2059.98 15.5462 L2065.31 35.7776 L2070.61 15.5462 L2074.87 15.5462 L2068.08 41.472 L2063.06 41.472 L2057.48 20.2221 L2051.88 41.472 L2046.86 41.472 L2040.08 15.5462 Z" fill="#000000" fill-rule="nonzero" fill-opacity="1" /><path clip-path="url(#clip360)" d="M2081.32 15.5462 L2085.58 15.5462 L2085.58 41.472 L2081.32 41.472 L2081.32 15.5462 M2081.32 5.45367 L2085.58 5.45367 L2085.58 10.8472 L2081.32 10.8472 L2081.32 5.45367 Z" fill="#000000" fill-rule="nonzero" fill-opacity="1" /><path clip-path="url(#clip360)" d="M2098.71 8.18514 L2098.71 15.5462 L2107.48 15.5462 L2107.48 18.8564 L2098.71 18.8564 L2098.71 32.9304 Q2098.71 36.1017 2099.57 37.0044 Q2100.45 37.9072 2103.11 37.9072 L2107.48 37.9072 L2107.48 41.472 L2103.11 41.472 Q2098.18 41.472 2096.3 39.6433 Q2094.43 37.7915 2094.43 32.9304 L2094.43 18.8564 L2091.3 18.8564 L2091.3 15.5462 L2094.43 15.5462 L2094.43 8.18514 L2098.71 8.18514 Z" fill="#000000" fill-rule="nonzero" fill-opacity="1" /><path clip-path="url(#clip360)" d="M2134.63 25.8239 L2134.63 41.472 L2130.38 41.472 L2130.38 25.9628 Q2130.38 22.2823 2128.94 20.4536 Q2127.51 18.6249 2124.63 18.6249 Q2121.19 18.6249 2119.2 20.824 Q2117.2 23.023 2117.2 26.8193 L2117.2 41.472 L2112.92 41.472 L2112.92 5.45367 L2117.2 5.45367 L2117.2 19.574 Q2118.73 17.236 2120.79 16.0786 Q2122.88 14.9212 2125.58 14.9212 Q2130.05 14.9212 2132.34 17.699 Q2134.63 20.4536 2134.63 25.8239 Z" fill="#000000" fill-rule="nonzero" fill-opacity="1" /><path clip-path="url(#clip360)" d="M2158.38 6.912 L2163.06 6.912 L2163.06 21.0786 L2180.05 21.0786 L2180.05 6.912 L2184.73 6.912 L2184.73 41.472 L2180.05 41.472 L2180.05 25.0138 L2163.06 25.0138 L2163.06 41.472 L2158.38 41.472 L2158.38 6.912 Z" fill="#000000" fill-rule="nonzero" fill-opacity="1" /><path clip-path="url(#clip360)" d="M2193.41 31.2406 L2193.41 15.5462 L2197.67 15.5462 L2197.67 31.0785 Q2197.67 34.7591 2199.1 36.6109 Q2200.54 38.4396 2203.41 38.4396 Q2206.86 38.4396 2208.85 36.2405 Q2210.86 34.0415 2210.86 30.2452 L2210.86 15.5462 L2215.12 15.5462 L2215.12 41.472 L2210.86 41.472 L2210.86 37.4905 Q2209.31 39.8516 2207.25 41.009 Q2205.21 42.1433 2202.5 42.1433 Q2198.04 42.1433 2195.72 39.3655 Q2193.41 36.5878 2193.41 31.2406 M2204.13 14.9212 L2204.13 14.9212 Z" fill="#000000" fill-rule="nonzero" fill-opacity="1" /><path clip-path="url(#clip360)" d="M2238.92 19.5277 Q2238.2 19.111 2237.34 18.9258 Q2236.51 18.7175 2235.49 18.7175 Q2231.88 18.7175 2229.94 21.0786 Q2228.01 23.4165 2228.01 27.8147 L2228.01 41.472 L2223.73 41.472 L2223.73 15.5462 L2228.01 15.5462 L2228.01 19.574 Q2229.36 17.2129 2231.51 16.0786 Q2233.66 14.9212 2236.74 14.9212 Q2237.18 14.9212 2237.71 14.9907 Q2238.25 15.037 2238.89 15.1527 L2238.92 19.5277 Z" fill="#000000" fill-rule="nonzero" fill-opacity="1" /><path clip-path="url(#clip360)" d="M2259.91 16.3101 L2259.91 20.3379 Q2258.11 19.4119 2256.16 18.949 Q2254.22 18.486 2252.13 18.486 Q2248.96 18.486 2247.37 19.4582 Q2245.79 20.4304 2245.79 22.3749 Q2245.79 23.8564 2246.93 24.7128 Q2248.06 25.5462 2251.49 26.31 L2252.94 26.6341 Q2257.48 27.6063 2259.38 29.3887 Q2261.3 31.148 2261.3 34.3193 Q2261.3 37.9304 2258.43 40.0368 Q2255.58 42.1433 2250.58 42.1433 Q2248.5 42.1433 2246.23 41.7266 Q2243.99 41.3331 2241.49 40.5229 L2241.49 36.1248 Q2243.85 37.3517 2246.14 37.9766 Q2248.43 38.5785 2250.68 38.5785 Q2253.69 38.5785 2255.31 37.56 Q2256.93 36.5183 2256.93 34.6433 Q2256.93 32.9072 2255.75 31.9813 Q2254.59 31.0554 2250.63 30.1989 L2249.15 29.8517 Q2245.19 29.0184 2243.43 27.3054 Q2241.67 25.5693 2241.67 22.5601 Q2241.67 18.9027 2244.26 16.9119 Q2246.86 14.9212 2251.62 14.9212 Q2253.99 14.9212 2256.07 15.2684 Q2258.15 15.6157 2259.91 16.3101 Z" fill="#000000" fill-rule="nonzero" fill-opacity="1" /><path clip-path="url(#clip360)" d="M2272.3 8.18514 L2272.3 15.5462 L2281.07 15.5462 L2281.07 18.8564 L2272.3 18.8564 L2272.3 32.9304 Q2272.3 36.1017 2273.15 37.0044 Q2274.03 37.9072 2276.69 37.9072 L2281.07 37.9072 L2281.07 41.472 L2276.69 41.472 Q2271.76 41.472 2269.89 39.6433 Q2268.01 37.7915 2268.01 32.9304 L2268.01 18.8564 L2264.89 18.8564 L2264.89 15.5462 L2268.01 15.5462 L2268.01 8.18514 L2272.3 8.18514 Z" fill="#000000" fill-rule="nonzero" fill-opacity="1" /><path clip-path="url(#clip360)" d="M2305.86 37.5831 L2305.86 51.3331 L2301.58 51.3331 L2301.58 15.5462 L2305.86 15.5462 L2305.86 19.4814 Q2307.2 17.1666 2309.24 16.0555 Q2311.3 14.9212 2314.15 14.9212 Q2318.87 14.9212 2321.81 18.6712 Q2324.77 22.4212 2324.77 28.5323 Q2324.77 34.6433 2321.81 38.3933 Q2318.87 42.1433 2314.15 42.1433 Q2311.3 42.1433 2309.24 41.0322 Q2307.2 39.8979 2305.86 37.5831 M2320.35 28.5323 Q2320.35 23.8332 2318.41 21.1712 Q2316.49 18.486 2313.11 18.486 Q2309.73 18.486 2307.78 21.1712 Q2305.86 23.8332 2305.86 28.5323 Q2305.86 33.2313 2307.78 35.9165 Q2309.73 38.5785 2313.11 38.5785 Q2316.49 38.5785 2318.41 35.9165 Q2320.35 33.2313 2320.35 28.5323 Z" fill="#000000" fill-rule="nonzero" fill-opacity="1" /><path clip-path="url(#clip360)" d="M2343.62 28.4397 Q2338.45 28.4397 2336.46 29.6202 Q2334.47 30.8008 2334.47 33.648 Q2334.47 35.9165 2335.95 37.2591 Q2337.46 38.5785 2340.03 38.5785 Q2343.57 38.5785 2345.7 36.0785 Q2347.85 33.5554 2347.85 29.3887 L2347.85 28.4397 L2343.62 28.4397 M2352.11 26.6804 L2352.11 41.472 L2347.85 41.472 L2347.85 37.5368 Q2346.39 39.8979 2344.22 41.0322 Q2342.04 42.1433 2338.89 42.1433 Q2334.91 42.1433 2332.55 39.9211 Q2330.21 37.6757 2330.21 33.9257 Q2330.21 29.5508 2333.13 27.3286 Q2336.07 25.1063 2341.88 25.1063 L2347.85 25.1063 L2347.85 24.6897 Q2347.85 21.7499 2345.91 20.1527 Q2343.99 18.5323 2340.49 18.5323 Q2338.27 18.5323 2336.16 19.0647 Q2334.06 19.5971 2332.11 20.6619 L2332.11 16.7268 Q2334.45 15.824 2336.65 15.3842 Q2338.85 14.9212 2340.93 14.9212 Q2346.56 14.9212 2349.33 17.8379 Q2352.11 20.7545 2352.11 26.6804 Z" fill="#000000" fill-rule="nonzero" fill-opacity="1" /><path clip-path="url(#clip360)" d="M2375.91 19.5277 Q2375.19 19.111 2374.33 18.9258 Q2373.5 18.7175 2372.48 18.7175 Q2368.87 18.7175 2366.93 21.0786 Q2365 23.4165 2365 27.8147 L2365 41.472 L2360.72 41.472 L2360.72 15.5462 L2365 15.5462 L2365 19.574 Q2366.35 17.2129 2368.5 16.0786 Q2370.65 14.9212 2373.73 14.9212 Q2374.17 14.9212 2374.7 14.9907 Q2375.24 15.037 2375.88 15.1527 L2375.91 19.5277 Z" fill="#000000" fill-rule="nonzero" fill-opacity="1" /><path clip-path="url(#clip360)" d="M2392.16 28.4397 Q2386.99 28.4397 2385 29.6202 Q2383.01 30.8008 2383.01 33.648 Q2383.01 35.9165 2384.49 37.2591 Q2386 38.5785 2388.57 38.5785 Q2392.11 38.5785 2394.24 36.0785 Q2396.39 33.5554 2396.39 29.3887 L2396.39 28.4397 L2392.16 28.4397 M2400.65 26.6804 L2400.65 41.472 L2396.39 41.472 L2396.39 37.5368 Q2394.93 39.8979 2392.76 41.0322 Q2390.58 42.1433 2387.43 42.1433 Q2383.45 42.1433 2381.09 39.9211 Q2378.75 37.6757 2378.75 33.9257 Q2378.75 29.5508 2381.67 27.3286 Q2384.61 25.1063 2390.42 25.1063 L2396.39 25.1063 L2396.39 24.6897 Q2396.39 21.7499 2394.45 20.1527 Q2392.53 18.5323 2389.03 18.5323 Q2386.81 18.5323 2384.7 19.0647 Q2382.6 19.5971 2380.65 20.6619 L2380.65 16.7268 Q2382.99 15.824 2385.19 15.3842 Q2387.39 14.9212 2389.47 14.9212 Q2395.1 14.9212 2397.87 17.8379 Q2400.65 20.7545 2400.65 26.6804 Z" fill="#000000" fill-rule="nonzero" fill-opacity="1" /><path clip-path="url(#clip360)" d="M2429.61 20.523 Q2431.21 17.6527 2433.43 16.2869 Q2435.65 14.9212 2438.66 14.9212 Q2442.71 14.9212 2444.91 17.7684 Q2447.11 20.5925 2447.11 25.8239 L2447.11 41.472 L2442.83 41.472 L2442.83 25.9628 Q2442.83 22.236 2441.51 20.4304 Q2440.19 18.6249 2437.48 18.6249 Q2434.17 18.6249 2432.25 20.824 Q2430.33 23.023 2430.33 26.8193 L2430.33 41.472 L2426.05 41.472 L2426.05 25.9628 Q2426.05 22.2128 2424.73 20.4304 Q2423.41 18.6249 2420.65 18.6249 Q2417.39 18.6249 2415.47 20.8471 Q2413.55 23.0462 2413.55 26.8193 L2413.55 41.472 L2409.26 41.472 L2409.26 15.5462 L2413.55 15.5462 L2413.55 19.574 Q2415 17.1897 2417.04 16.0555 Q2419.08 14.9212 2421.88 14.9212 Q2424.7 14.9212 2426.67 16.3564 Q2428.66 17.7916 2429.61 20.523 Z" fill="#000000" fill-rule="nonzero" fill-opacity="1" /><path clip-path="url(#clip360)" d="M2477.78 27.4443 L2477.78 29.5276 L2458.2 29.5276 Q2458.48 33.9257 2460.84 36.2405 Q2463.22 38.5322 2467.46 38.5322 Q2469.91 38.5322 2472.2 37.9304 Q2474.52 37.3285 2476.79 36.1248 L2476.79 40.1526 Q2474.49 41.1248 2472.09 41.634 Q2469.68 42.1433 2467.2 42.1433 Q2461 42.1433 2457.36 38.5322 Q2453.75 34.9211 2453.75 28.7637 Q2453.75 22.398 2457.18 18.6712 Q2460.63 14.9212 2466.46 14.9212 Q2471.69 14.9212 2474.73 18.3008 Q2477.78 21.6573 2477.78 27.4443 M2473.52 26.1943 Q2473.48 22.699 2471.55 20.6156 Q2469.66 18.5323 2466.51 18.5323 Q2462.94 18.5323 2460.79 20.5462 Q2458.66 22.5601 2458.34 26.2175 L2473.52 26.1943 Z" fill="#000000" fill-rule="nonzero" fill-opacity="1" /><path clip-path="url(#clip360)" d="M2488.98 8.18514 L2488.98 15.5462 L2497.76 15.5462 L2497.76 18.8564 L2488.98 18.8564 L2488.98 32.9304 Q2488.98 36.1017 2489.84 37.0044 Q2490.72 37.9072 2493.38 37.9072 L2497.76 37.9072 L2497.76 41.472 L2493.38 41.472 Q2488.45 41.472 2486.58 39.6433 Q2484.7 37.7915 2484.7 32.9304 L2484.7 18.8564 L2481.58 18.8564 L2481.58 15.5462 L2484.7 15.5462 L2484.7 8.18514 L2488.98 8.18514 Z" fill="#000000" fill-rule="nonzero" fill-opacity="1" /><path clip-path="url(#clip360)" d="M2525.54 27.4443 L2525.54 29.5276 L2505.95 29.5276 Q2506.23 33.9257 2508.59 36.2405 Q2510.98 38.5322 2515.21 38.5322 Q2517.67 38.5322 2519.96 37.9304 Q2522.27 37.3285 2524.54 36.1248 L2524.54 40.1526 Q2522.25 41.1248 2519.84 41.634 Q2517.43 42.1433 2514.96 42.1433 Q2508.75 42.1433 2505.12 38.5322 Q2501.51 34.9211 2501.51 28.7637 Q2501.51 22.398 2504.93 18.6712 Q2508.38 14.9212 2514.22 14.9212 Q2519.45 14.9212 2522.48 18.3008 Q2525.54 21.6573 2525.54 27.4443 M2521.28 26.1943 Q2521.23 22.699 2519.31 20.6156 Q2517.41 18.5323 2514.26 18.5323 Q2510.7 18.5323 2508.54 20.5462 Q2506.42 22.5601 2506.09 26.2175 L2521.28 26.1943 Z" fill="#000000" fill-rule="nonzero" fill-opacity="1" /><path clip-path="url(#clip360)" d="M2547.55 19.5277 Q2546.83 19.111 2545.98 18.9258 Q2545.14 18.7175 2544.12 18.7175 Q2540.51 18.7175 2538.57 21.0786 Q2536.65 23.4165 2536.65 27.8147 L2536.65 41.472 L2532.36 41.472 L2532.36 15.5462 L2536.65 15.5462 L2536.65 19.574 Q2537.99 17.2129 2540.14 16.0786 Q2542.29 14.9212 2545.37 14.9212 Q2545.81 14.9212 2546.35 14.9907 Q2546.88 15.037 2547.53 15.1527 L2547.55 19.5277 Z" fill="#000000" fill-rule="nonzero" fill-opacity="1" /><path clip-path="url(#clip360)" d="M2567.27 6.912 L2571.95 6.912 L2571.95 21.0786 L2588.94 21.0786 L2588.94 6.912 L2593.61 6.912 L2593.61 41.472 L2588.94 41.472 L2588.94 25.0138 L2571.95 25.0138 L2571.95 41.472 L2567.27 41.472 L2567.27 6.912 Z" fill="#000000" fill-rule="nonzero" fill-opacity="1" /><path clip-path="url(#clip360)" d="M2603.29 19.9443 L2632.97 19.9443 L2632.97 23.8332 L2603.29 23.8332 L2603.29 19.9443 M2603.29 29.3887 L2632.97 29.3887 L2632.97 33.3239 L2603.29 33.3239 L2603.29 29.3887 Z" fill="#000000" fill-rule="nonzero" fill-opacity="1" /><path clip-path="url(#clip360)" d="M2653.06 9.99069 Q2649.45 9.99069 2647.62 13.5555 Q2645.81 17.0971 2645.81 24.2267 Q2645.81 31.3332 2647.62 34.898 Q2649.45 38.4396 2653.06 38.4396 Q2656.69 38.4396 2658.5 34.898 Q2660.33 31.3332 2660.33 24.2267 Q2660.33 17.0971 2658.5 13.5555 Q2656.69 9.99069 2653.06 9.99069 M2653.06 6.287 Q2658.87 6.287 2661.92 10.8935 Q2665 15.4768 2665 24.2267 Q2665 32.9535 2661.92 37.56 Q2658.87 42.1433 2653.06 42.1433 Q2647.25 42.1433 2644.17 37.56 Q2641.11 32.9535 2641.11 24.2267 Q2641.11 15.4768 2644.17 10.8935 Q2647.25 6.287 2653.06 6.287 Z" fill="#000000" fill-rule="nonzero" fill-opacity="1" /><path clip-path="url(#clip360)" d="M2673.22 35.5924 L2678.1 35.5924 L2678.1 41.472 L2673.22 41.472 L2673.22 35.5924 Z" fill="#000000" fill-rule="nonzero" fill-opacity="1" /><path clip-path="url(#clip360)" d="M2692.32 37.5368 L2708.64 37.5368 L2708.64 41.472 L2686.69 41.472 L2686.69 37.5368 Q2689.35 34.7822 2693.94 30.1526 Q2698.54 25.4999 2699.72 24.1573 Q2701.97 21.6341 2702.85 19.898 Q2703.75 18.1388 2703.75 16.449 Q2703.75 13.6944 2701.81 11.9583 Q2699.89 10.2222 2696.78 10.2222 Q2694.59 10.2222 2692.13 10.9861 Q2689.7 11.7499 2686.92 13.3009 L2686.92 8.57866 Q2689.75 7.4444 2692.2 6.8657 Q2694.66 6.287 2696.69 6.287 Q2702.06 6.287 2705.26 8.97217 Q2708.45 11.6573 2708.45 16.1481 Q2708.45 18.2777 2707.64 20.199 Q2706.85 22.0971 2704.75 24.6897 Q2704.17 25.361 2701.07 28.5786 Q2697.97 31.773 2692.32 37.5368 Z" fill="#000000" fill-rule="nonzero" fill-opacity="1" /><polyline clip-path="url(#clip362)" style="stroke:#009af9; stroke-linecap:round; stroke-linejoin:round; stroke-width:4; stroke-opacity:1; fill:none" points="290.24,646.363 295.668,564.792 301.096,657.475 306.524,556.073 311.952,464.269 317.38,537.025 322.808,433.061 328.236,599.792 333.664,615.795 339.092,687.083 344.52,558.187 349.948,586.408 355.376,633.29 360.804,491.558 366.232,570.636 371.66,649.191 377.088,603.024 382.516,637.134 387.944,669.037 393.372,629.796 398.8,693.853 404.228,639.542 409.656,594.915 415.084,593.489 420.512,742.87 425.94,713.191 431.368,603.554 436.796,516.336 442.224,436.663 447.652,424.583 453.081,510.693 458.509,426.04 463.937,590.073 469.365,360.197 474.793,536.628 480.221,605.73 485.649,623.084 491.077,522.754 496.505,667.516 501.933,636.584 507.361,780.78 512.789,564.541 518.217,518.403 523.645,368.705 529.073,494.451 534.501,509.359 539.929,569.842 545.357,621.616 550.785,684.769 556.213,423.578 561.641,416.348 567.069,351.335 572.497,438.053 577.925,385.38 583.353,389.391 588.781,375.942 594.209,584.748 599.637,552.558 605.065,619.174 610.493,740.985 615.921,567.482 621.349,560.602 626.777,354.966 632.205,549.939 637.633,545.694 643.061,355.482 648.489,428.357 653.917,516.837 659.345,363.992 664.773,523.326 670.201,554.924 675.629,447.201 681.057,545.736 686.485,547.457 691.913,642.194 697.341,678.61 702.769,510.455 708.197,617.565 713.625,477.079 719.053,539.61 724.481,443.752 729.909,341.628 735.337,406.705 740.765,601.983 746.193,590.623 751.621,554.603 757.049,597.656 762.477,538.165 767.905,466.446 773.333,493.739 778.761,565.067 784.189,436.171 789.617,338.577 795.045,500.125 800.473,617.02 805.901,638.998 811.329,488.03 816.757,505.528 822.185,622.894 827.613,524.238 833.041,661.668 838.469,707.093 843.897,745.353 849.325,838.168 854.753,877.8 860.181,854.812 865.609,844.236 871.037,794.989 876.465,734.263 881.893,611.427 887.321,506.48 892.749,800.655 898.177,811.744 903.605,843.513 909.033,683.98 914.461,698.155 919.889,797.226 925.317,760.365 930.745,850.811 936.173,796.083 941.601,577.482 947.029,818.582 952.457,622.774 957.886,725.439 963.314,677.46 968.742,669.657 974.17,631.483 979.598,550.653 985.026,654.724 990.454,523.979 995.882,688.954 1001.31,495.067 1006.74,682.598 1012.17,516.241 1017.59,555.656 1023.02,546.272 1028.45,520.475 1033.88,498.213 1039.31,592.45 1044.73,734.174 1050.16,537.298 1055.59,459.915 1061.02,865.865 1066.45,705.717 1071.87,666.879 1077.3,824.626 1082.73,749.09 1088.16,718.285 1093.59,566.381 1099.01,720.089 1104.44,957.854 1109.87,778.781 1115.3,702.054 1120.73,800.185 1126.15,628.828 1131.58,712.101 1137.01,716.138 1142.44,688.94 1147.87,713.078 1153.29,677.383 1158.72,724.646 1164.15,716.936 1169.58,648.65 1175.01,647.619 1180.43,659.32 1185.86,783.775 1191.29,623.081 1196.72,660.418 1202.15,570.68 1207.57,611.463 1213,604.202 1218.43,654.262 1223.86,552.982 1229.29,564.019 1234.71,512.198 1240.14,588.352 1245.57,461.886 1251,321.481 1256.43,293.602 1261.85,508.335 1267.28,508.509 1272.71,514.374 1278.14,461.074 1283.57,631.703 1288.99,483.91 1294.42,483.745 1299.85,574.054 1305.28,564.595 1310.71,690.783 1316.13,461.908 1321.56,520.435 1326.99,437.314 1332.42,410.182 1337.85,337.318 1343.27,388.63 1348.7,393.804 1354.13,418.851 1359.56,327.564 1364.99,390.518 1370.41,391.805 1375.84,342.415 1381.27,467.021 1386.7,648.189 1392.13,520.325 1397.55,589.816 1402.98,546.582 1408.41,644.47 1413.84,803.757 1419.27,686.95 1424.69,757.991 1430.12,722.883 1435.55,617.078 1440.98,574.609 1446.41,481.677 1451.83,581.142 1457.26,515.471 1462.69,553.277 1468.12,609.375 1473.55,473.167 1478.97,540.077 1484.4,547.492 1489.83,637.413 1495.26,640.118 1500.69,701.07 1506.11,670.799 1511.54,768.101 1516.97,584.088 1522.4,660.192 1527.83,640.273 1533.25,603.166 1538.68,551.206 1544.11,471.572 1549.54,666.775 1554.97,578.912 1560.39,628.747 1565.82,650.018 1571.25,624.151 1576.68,634.679 1582.11,514.64 1587.53,506.537 1592.96,717.187 1598.39,481.411 1603.82,527.958 1609.25,724.359 1614.67,673.699 1620.1,667.176 1625.53,757.743 1630.96,864.588 1636.39,798.109 1641.81,744.086 1647.24,677.938 1652.67,724.98 1658.1,672.801 1663.53,858.611 1668.95,685.048 1674.38,474.021 1679.81,549.897 1685.24,526.854 1690.67,652.879 1696.09,740.102 1701.52,738.691 1706.95,955.054 1712.38,788.659 1717.81,886.634 1723.24,847.997 1728.66,980.195 1734.09,849.725 1739.52,895.624 1744.95,922.871 1750.38,816.426 1755.8,987.305 1761.23,844.949 1766.66,769.655 1772.09,900.464 1777.52,961.569 1782.94,807.978 1788.37,801.659 1793.8,759.865 1799.23,873.65 1804.66,705.188 1810.08,758.394 1815.51,793.629 1820.94,821.488 1826.37,915.671 1831.8,928.075 1837.22,871.165 1842.65,767.675 1848.08,740.291 1853.51,873.258 1858.94,691.512 1864.36,698.232 1869.79,775.198 1875.22,896.833 1880.65,778.541 1886.08,799.981 1891.5,867.242 1896.93,1098.37 1902.36,1050.83 1907.79,1015.98 1913.22,995.135 1918.64,921.184 1924.07,833.175 1929.5,758.174 1934.93,828.895 1940.36,921.602 1945.78,1015.92 1951.21,806.879 1956.64,794.384 1962.07,881.501 1967.5,947.129 1972.92,867.571 1978.35,922.721 1983.78,968.057 1989.21,907.131 1994.64,900.206 2000.06,934.822 2005.49,741.632 2010.92,594.986 2016.35,696.171 2021.78,780.597 2027.2,737.419 2032.63,732.648 2038.06,714.059 2043.49,714.33 2048.92,805.651 2054.34,763.828 2059.77,738.225 2065.2,676.185 2070.63,716.598 2076.06,793.708 2081.48,732.287 2086.91,938.699 2092.34,721.349 2097.77,958.317 2103.2,959.045 2108.62,911.85 2114.05,951.008 2119.48,778.554 2124.91,803.084 2130.34,820.952 2135.76,682.793 2141.19,791.376 2146.62,670.633 2152.05,757.968 2157.48,757.393 2162.9,842.083 2168.33,728.562 2173.76,977.798 2179.19,786.309 2184.62,828.566 2190.04,879.878 2195.47,700.904 2200.9,812.228 2206.33,659.381 2211.76,702.721 2217.18,740.939 2222.61,976.983 2228.04,996.138 2233.47,868.553 2238.9,784.055 2244.32,908.798 2249.75,934.059 2255.18,936.887 2260.61,894.486 2266.04,873.068 2271.46,893.545 2276.89,952.979 2282.32,1005.72 2287.75,939.719 2293.18,890.689 2298.6,995.893 2304.03,862.511 2309.46,722.047 2314.89,816.565 2320.32,698.355 2325.74,826.409 2331.17,944.556 2336.6,895.001 2342.03,845.353 2347.46,986.937 2352.88,780.193 2358.31,922.424 2363.74,786.463 2369.17,788.784 2374.6,763.209 2380.02,782.38 2385.45,916.957 2390.88,824.107 2396.31,828.458 2401.74,963.673 2407.16,927.129 2412.59,827.183 2418.02,792.237 2423.45,870.248 2428.88,841.365 2434.3,927.813 2439.73,805.893 2445.16,816.016 2450.59,834.019 2456.02,731.165 2461.44,765.362 2466.87,861.188 2472.3,802.781 2477.73,798.025 2483.16,817.803 2488.58,951.106 2494.01,869.536 2499.44,777.59 2504.87,768.575 2510.3,846.455 2515.72,837.101 2521.15,846.207 2526.58,845.485 2532.01,773.567 2537.44,894.611 2542.86,872.5 2548.29,935.17 2553.72,934.227 2559.15,847.306 2564.58,1036.56 2570,850.005 2575.43,894.367 2580.86,798.731 2586.29,825.242 2591.72,988.661 2597.14,860.465 2602.57,807.766 2608,686.625 2613.43,809.321 2618.86,846.961 2624.28,721.985 2629.71,933.253 2635.14,797.814 2640.57,856.782 2646,805.207 2651.42,880.253 2656.85,756.397 2662.28,767.979 2667.71,703.194 2673.14,780.607 2678.56,688.821 2683.99,743.532 2689.42,800.657 2694.85,795.801 2700.28,858.222 2705.7,880.626 2711.13,718.44 2716.56,739.662 2721.99,830.882 2727.42,867.572 2732.84,892.126 2738.27,582.366 2743.7,817.642 2749.13,650.3 2754.56,732.133 2759.99,836.235 2765.41,836.86 2770.84,937.766 2776.27,777.339 2781.7,900.259 2787.13,840.277 2792.55,885.81 2797.98,947.851 2803.41,1041.88 2808.84,1066.55 2814.27,1077.96 2819.69,965.846 2825.12,939.079 2830.55,1092.61 2835.98,918.026 2841.41,1017.37 2846.83,1020.41 2852.26,969.616 2857.69,1142.04 2863.12,1039.79 2868.55,1270.03 2873.97,1124.84 2879.4,1175.59 2884.83,1200.85 2890.26,1184.18 2895.69,1187.58 2901.11,1110.29 2906.54,1151.51 2911.97,1095.76 2917.4,1200.44 2922.83,1278.14 2928.25,1284.04 2933.68,1274.25 2939.11,1068.12 2944.54,1140.27 2949.97,1085.13 2955.39,1142.91 2960.82,1253.58 2966.25,1089.15 2971.68,1134.28 2977.11,1097.36 2982.53,907.138 2987.96,1190.41 2993.39,1158.78 2998.82,928.979 3004.25,911.638 3009.67,975.885 3015.1,997.212 3020.53,899.666 3025.96,763.128 3031.39,702.377 3036.81,879.939 3042.24,699.198 3047.67,857.608 3053.1,796.249 3058.53,923.594 3063.95,809.956 3069.38,768.563 "/>
<polyline clip-path="url(#clip362)" style="stroke:#e26f46; stroke-linecap:round; stroke-linejoin:round; stroke-width:4; stroke-opacity:1; fill:none" points="290.24,646.363 295.668,705.096 301.096,640.536 306.524,615.666 311.952,645.743 317.38,776.206 322.808,686.523 328.236,710.972 333.664,723.67 339.092,773.955 344.52,768.815 349.948,664.647 355.376,475.998 360.804,657.031 366.232,610.779 371.66,561.231 377.088,653.447 382.516,419.433 387.944,399.908 393.372,365.073 398.8,417.244 404.228,511.663 409.656,326.515 415.084,549.834 420.512,499.586 425.94,481.166 431.368,605.16 436.796,650.724 442.224,433.079 447.652,498.099 453.081,675.07 458.509,561.272 463.937,554.41 469.365,533.113 474.793,566.973 480.221,454.786 485.649,565.702 491.077,561.456 496.505,549.249 501.933,422.398 507.361,419.857 512.789,455.034 518.217,292.899 523.645,572.539 529.073,520.266 534.501,573.185 539.929,653.173 545.357,410.693 550.785,609.198 556.213,577.292 561.641,623.451 567.069,626.594 572.497,856.019 577.925,763.863 583.353,658.636 588.781,588.684 594.209,564.562 599.637,527.812 605.065,427.394 610.493,413.877 615.921,425.336 621.349,475.597 626.777,427.992 632.205,658.593 637.633,497.358 643.061,520.6 648.489,442.37 653.917,548.023 659.345,499.715 664.773,450.682 670.201,463.792 675.629,643.613 681.057,617.937 686.485,706.112 691.913,499.451 697.341,612.763 702.769,691.252 708.197,574.717 713.625,520.734 719.053,686.948 724.481,521.73 729.909,575.685 735.337,657.352 740.765,622.629 746.193,536.77 751.621,652.479 757.049,759.171 762.477,734.836 767.905,663.212 773.333,763.732 778.761,621.612 784.189,750.012 789.617,503.899 795.045,534.661 800.473,691.77 805.901,517.181 811.329,599.518 816.757,532.903 822.185,386.281 827.613,630.287 833.041,468.135 838.469,488.907 843.897,479.268 849.325,382.189 854.753,425.659 860.181,446.467 865.609,353.125 871.037,459.241 876.465,396.596 881.893,439.938 887.321,403.534 892.749,368.557 898.177,350.371 903.605,285.325 909.033,317.547 914.461,287.433 919.889,352.359 925.317,127.255 930.745,322.639 936.173,361.122 941.601,346.39 947.029,241.936 952.457,220.801 957.886,312.71 963.314,222.351 968.742,311.518 974.17,374.632 979.598,568.235 985.026,554.897 990.454,634.544 995.882,566.185 1001.31,430.325 1006.74,396.098 1012.17,460.713 1017.59,412.723 1023.02,529.292 1028.45,487.55 1033.88,594.445 1039.31,494.152 1044.73,447.541 1050.16,530.763 1055.59,446.744 1061.02,541.279 1066.45,335.158 1071.87,458.966 1077.3,482.674 1082.73,383.793 1088.16,457.408 1093.59,493.343 1099.01,627.019 1104.44,552.989 1109.87,580.247 1115.3,561.331 1120.73,431.626 1126.15,367.262 1131.58,478.088 1137.01,440.933 1142.44,740.473 1147.87,618.814 1153.29,299.273 1158.72,609.65 1164.15,385.609 1169.58,498.138 1175.01,566.685 1180.43,489.294 1185.86,530.543 1191.29,363.924 1196.72,483.926 1202.15,413.837 1207.57,395.667 1213,394.016 1218.43,609.528 1223.86,411.809 1229.29,382.492 1234.71,316.224 1240.14,321.284 1245.57,236.676 1251,436.35 1256.43,302.034 1261.85,319.234 1267.28,410.382 1272.71,489.184 1278.14,254.838 1283.57,156.777 1288.99,346.185 1294.42,554.059 1299.85,333 1305.28,437.425 1310.71,548.502 1316.13,506.25 1321.56,542.013 1326.99,448.179 1332.42,303.349 1337.85,459.495 1343.27,433.033 1348.7,517.077 1354.13,287.265 1359.56,294.691 1364.99,373.352 1370.41,369.41 1375.84,362.845 1381.27,223.511 1386.7,141.387 1392.13,322.381 1397.55,530.479 1402.98,347.801 1408.41,546.505 1413.84,482.098 1419.27,426.51 1424.69,474.466 1430.12,263.067 1435.55,375.502 1440.98,452.944 1446.41,547.954 1451.83,485.682 1457.26,518.805 1462.69,453.414 1468.12,336.709 1473.55,388.995 1478.97,390.261 1484.4,421.228 1489.83,532.801 1495.26,307.755 1500.69,513.216 1506.11,405.213 1511.54,342.059 1516.97,353.373 1522.4,251.399 1527.83,347.31 1533.25,245.206 1538.68,296.696 1544.11,254.628 1549.54,391.519 1554.97,222.374 1560.39,310.115 1565.82,383.057 1571.25,420.595 1576.68,391.775 1582.11,284.044 1587.53,575.738 1592.96,496.783 1598.39,513.524 1603.82,507.95 1609.25,484.106 1614.67,412.803 1620.1,599.74 1625.53,412.063 1630.96,318.937 1636.39,358.455 1641.81,471.053 1647.24,409.803 1652.67,457.062 1658.1,573.802 1663.53,453.096 1668.95,513.851 1674.38,577.875 1679.81,611.334 1685.24,574.638 1690.67,669.323 1696.09,643.481 1701.52,509.843 1706.95,559.376 1712.38,597.034 1717.81,726.416 1723.24,583.966 1728.66,522.316 1734.09,408.559 1739.52,490.813 1744.95,696.75 1750.38,691.001 1755.8,456.56 1761.23,456.27 1766.66,578.282 1772.09,710.505 1777.52,677.806 1782.94,638.189 1788.37,557.239 1793.8,462.804 1799.23,677.297 1804.66,779.08 1810.08,780.864 1815.51,707.445 1820.94,591.409 1826.37,639.376 1831.8,710.739 1837.22,741.318 1842.65,711.305 1848.08,546.475 1853.51,608.205 1858.94,680.993 1864.36,640.172 1869.79,786.07 1875.22,703.356 1880.65,658.209 1886.08,764.716 1891.5,568.449 1896.93,805.701 1902.36,739.946 1907.79,692.143 1913.22,702.095 1918.64,641.089 1924.07,575.037 1929.5,707.908 1934.93,676.709 1940.36,720.913 1945.78,664.805 1951.21,596.275 1956.64,672.108 1962.07,692.587 1967.5,738.995 1972.92,694.931 1978.35,650.328 1983.78,707.633 1989.21,666.189 1994.64,722.186 2000.06,497.907 2005.49,507.566 2010.92,670.991 2016.35,659.874 2021.78,640.21 2027.2,707.722 2032.63,614.425 2038.06,594.781 2043.49,558.553 2048.92,525.611 2054.34,654.819 2059.77,599.592 2065.2,393.87 2070.63,611.283 2076.06,467.857 2081.48,372.383 2086.91,379.081 2092.34,544.679 2097.77,527.307 2103.2,532.949 2108.62,647.744 2114.05,520.499 2119.48,600.977 2124.91,592.816 2130.34,724.322 2135.76,511.835 2141.19,716.005 2146.62,647.466 2152.05,554.843 2157.48,647.965 2162.9,708.664 2168.33,654.892 2173.76,509.096 2179.19,616.927 2184.62,399.208 2190.04,554.352 2195.47,397.336 2200.9,315.768 2206.33,342.755 2211.76,253.672 2217.18,283.345 2222.61,337.12 2228.04,458.265 2233.47,459.38 2238.9,467.24 2244.32,574.782 2249.75,516.651 2255.18,584.557 2260.61,682.029 2266.04,530.797 2271.46,801.065 2276.89,789.803 2282.32,760.079 2287.75,730.625 2293.18,698.561 2298.6,715.942 2304.03,642.534 2309.46,700.054 2314.89,784.328 2320.32,893.622 2325.74,859.422 2331.17,772.803 2336.6,833.01 2342.03,786.011 2347.46,768.48 2352.88,612.683 2358.31,816.439 2363.74,782.638 2369.17,773.215 2374.6,836.209 2380.02,874.673 2385.45,558.287 2390.88,661.991 2396.31,771.398 2401.74,766.081 2407.16,763.518 2412.59,643.612 2418.02,764.157 2423.45,683.075 2428.88,676.455 2434.3,654.815 2439.73,581.913 2445.16,747.986 2450.59,712.951 2456.02,640.127 2461.44,754.37 2466.87,931.324 2472.3,825.645 2477.73,688.119 2483.16,786.74 2488.58,586.769 2494.01,626.051 2499.44,655.405 2504.87,877.224 2510.3,845.834 2515.72,748.18 2521.15,804.95 2526.58,743.636 2532.01,618.523 2537.44,644.924 2542.86,693.228 2548.29,701.746 2553.72,651.444 2559.15,576.918 2564.58,491.335 2570,538.155 2575.43,560.945 2580.86,564.409 2586.29,424.026 2591.72,321.782 2597.14,400.134 2602.57,415.457 2608,388.548 2613.43,466.742 2618.86,447.481 2624.28,470.183 2629.71,506.413 2635.14,551.452 2640.57,401.425 2646,401.44 2651.42,316.199 2656.85,252.629 2662.28,322.725 2667.71,556.379 2673.14,462.705 2678.56,319.183 2683.99,523.565 2689.42,526.079 2694.85,500.799 2700.28,303.974 2705.7,371.662 2711.13,477.517 2716.56,530.444 2721.99,382.101 2727.42,506.581 2732.84,691.48 2738.27,614.247 2743.7,610.535 2749.13,694.938 2754.56,707.432 2759.99,713.1 2765.41,714.602 2770.84,591.532 2776.27,709.287 2781.7,758.184 2787.13,1042.89 2792.55,930.841 2797.98,787.417 2803.41,894.932 2808.84,825.032 2814.27,782.339 2819.69,708.565 2825.12,561.573 2830.55,580.295 2835.98,357.255 2841.41,521.615 2846.83,600.701 2852.26,742.248 2857.69,719.127 2863.12,715.784 2868.55,725.507 2873.97,628.202 2879.4,574.103 2884.83,702.205 2890.26,689.429 2895.69,793.527 2901.11,671.113 2906.54,703.358 2911.97,754.964 2917.4,689.931 2922.83,851.789 2928.25,900.927 2933.68,952.39 2939.11,849.921 2944.54,838.915 2949.97,832.194 2955.39,690.579 2960.82,715.448 2966.25,744.784 2971.68,588.311 2977.11,751.893 2982.53,854.259 2987.96,771.139 2993.39,610.915 2998.82,743.558 3004.25,712.056 3009.67,629.929 3015.1,467.36 3020.53,602.586 3025.96,685.932 3031.39,621.731 3036.81,571.222 3042.24,415.683 3047.67,444.585 3053.1,519.428 3058.53,551.405 3063.95,534.044 3069.38,565.471 "/>
<polyline clip-path="url(#clip362)" style="stroke:#3da44d; stroke-linecap:round; stroke-linejoin:round; stroke-width:4; stroke-opacity:1; fill:none" points="290.24,646.363 295.668,539.967 301.096,391.389 306.524,478.011 311.952,572.034 317.38,509.898 322.808,600.875 328.236,429.863 333.664,351.19 339.092,405.081 344.52,498.971 349.948,579.783 355.376,567.956 360.804,576.114 366.232,547.267 371.66,442.325 377.088,475.822 382.516,624.947 387.944,545.842 393.372,577.906 398.8,676.558 404.228,670.438 409.656,687.885 415.084,526.432 420.512,499.27 425.94,602.492 431.368,801.672 436.796,827.468 442.224,573.319 447.652,696.227 453.081,859.661 458.509,715.937 463.937,648.182 469.365,749.247 474.793,598.974 480.221,611.744 485.649,465.789 491.077,495.019 496.505,528.189 501.933,570.926 507.361,580.896 512.789,596.61 518.217,677.762 523.645,747.866 529.073,629.875 534.501,713.233 539.929,701.136 545.357,795.651 550.785,838.781 556.213,718.833 561.641,801.61 567.069,723.917 572.497,630.219 577.925,660.256 583.353,710.842 588.781,816.806 594.209,617.269 599.637,714.577 605.065,740.655 610.493,695.68 615.921,548.064 621.349,553.616 626.777,773.405 632.205,801.613 637.633,829.111 643.061,759.675 648.489,718.894 653.917,765.985 659.345,830.672 664.773,893.037 670.201,806.404 675.629,842.06 681.057,847.935 686.485,842.542 691.913,940.432 697.341,743.204 702.769,738.143 708.197,681.333 713.625,765.169 719.053,969.082 724.481,955.268 729.909,633.89 735.337,784.574 740.765,876.783 746.193,952.515 751.621,859.547 757.049,906.36 762.477,901.857 767.905,955.366 773.333,890.111 778.761,751.572 784.189,848.494 789.617,930.19 795.045,979.023 800.473,1076.08 805.901,915.058 811.329,1110.25 816.757,996.259 822.185,1083.85 827.613,880.87 833.041,871.223 838.469,956.791 843.897,1188.77 849.325,1084.48 854.753,1063.35 860.181,1204.53 865.609,1396.46 871.037,1076.09 876.465,1254.77 881.893,1272.72 887.321,1079.2 892.749,1194.82 898.177,1115.05 903.605,1184.07 909.033,1145.39 914.461,1035.24 919.889,1258.94 925.317,1050.48 930.745,1251.44 936.173,1237 941.601,1249.24 947.029,1084.57 952.457,1171.91 957.886,1160.81 963.314,1208.47 968.742,1132.2 974.17,1165.98 979.598,1343.77 985.026,1367.34 990.454,1285.65 995.882,1133.96 1001.31,1061.36 1006.74,1009.75 1012.17,1043.08 1017.59,1129.68 1023.02,1100.53 1028.45,1134.89 1033.88,1177.56 1039.31,1177.48 1044.73,1142.27 1050.16,1081.56 1055.59,1232.01 1061.02,1333.52 1066.45,1391.09 1071.87,1348.78 1077.3,1270.55 1082.73,1183.07 1088.16,1310.84 1093.59,1235.17 1099.01,1271.65 1104.44,1184.72 1109.87,1324.39 1115.3,1309.91 1120.73,1256.85 1126.15,1072.21 1131.58,1258.75 1137.01,1295.99 1142.44,1176.96 1147.87,1247.48 1153.29,1303.44 1158.72,1164.87 1164.15,1393.54 1169.58,1168.26 1175.01,1052.76 1180.43,1204.07 1185.86,1056.85 1191.29,1042.75 1196.72,894.286 1202.15,1029.95 1207.57,1074.77 1213,1118.09 1218.43,1043.18 1223.86,876.89 1229.29,891.87 1234.71,865.49 1240.14,880.286 1245.57,751.384 1251,988.023 1256.43,926.097 1261.85,756.91 1267.28,724.333 1272.71,517.97 1278.14,558.717 1283.57,499.146 1288.99,534.54 1294.42,649.7 1299.85,742.437 1305.28,562.042 1310.71,492.079 1316.13,642.725 1321.56,696.165 1326.99,697.409 1332.42,799.902 1337.85,857.189 1343.27,866.496 1348.7,947.15 1354.13,953.572 1359.56,793.93 1364.99,734.115 1370.41,889.729 1375.84,854.296 1381.27,1075.46 1386.7,1136.97 1392.13,1132.05 1397.55,1089.82 1402.98,1060.51 1408.41,1056.37 1413.84,1158.57 1419.27,1182.4 1424.69,1210.69 1430.12,1226.93 1435.55,1210.32 1440.98,1259.16 1446.41,1385.55 1451.83,1184.23 1457.26,1278.36 1462.69,1384.45 1468.12,1325.61 1473.55,1401.72 1478.97,1391.11 1484.4,1247.96 1489.83,1227.95 1495.26,1352.41 1500.69,1346.99 1506.11,1294.29 1511.54,1107.83 1516.97,1058.37 1522.4,1102.4 1527.83,1105.53 1533.25,1176.67 1538.68,1130.53 1544.11,1112.96 1549.54,1129.48 1554.97,1034.12 1560.39,1198.75 1565.82,1353.71 1571.25,1375.58 1576.68,1217.75 1582.11,1302.16 1587.53,1288.91 1592.96,1262.2 1598.39,1213.46 1603.82,1307.81 1609.25,1125.34 1614.67,1315.45 1620.1,1233.18 1625.53,1203.3 1630.96,1309.45 1636.39,1295.93 1641.81,1193.3 1647.24,1405.36 1652.67,1260.44 1658.1,1157.04 1663.53,1127.47 1668.95,1216.2 1674.38,1366.79 1679.81,1279.77 1685.24,1182.53 1690.67,1207.47 1696.09,1080.13 1701.52,1145.27 1706.95,977.906 1712.38,1063.1 1717.81,1011.61 1723.24,1058.6 1728.66,1092.92 1734.09,1179.92 1739.52,1152.57 1744.95,1088.89 1750.38,1165.92 1755.8,1169.13 1761.23,1179.2 1766.66,1096.52 1772.09,1101.04 1777.52,889.724 1782.94,1204.52 1788.37,1158.36 1793.8,1143.83 1799.23,1101.99 1804.66,999.434 1810.08,1077.86 1815.51,1052.72 1820.94,1190.18 1826.37,1293.46 1831.8,1197.27 1837.22,1261.13 1842.65,1150 1848.08,1179.46 1853.51,1162.11 1858.94,1210.29 1864.36,1194.95 1869.79,1104.54 1875.22,997.467 1880.65,1081.01 1886.08,1131.45 1891.5,1024.07 1896.93,885.21 1902.36,1016.39 1907.79,959.499 1913.22,958.92 1918.64,1032.55 1924.07,884.873 1929.5,1088.97 1934.93,909.755 1940.36,1229.92 1945.78,1077.25 1951.21,1063.15 1956.64,1190.75 1962.07,1141.69 1967.5,1200.01 1972.92,1243.93 1978.35,1081.16 1983.78,1119.58 1989.21,1182.72 1994.64,1276.27 2000.06,1370.14 2005.49,1175.04 2010.92,1176.92 2016.35,1216.61 2021.78,1250.16 2027.2,1147.12 2032.63,1185.93 2038.06,1220.05 2043.49,1172.72 2048.92,1105.21 2054.34,1128.61 2059.77,1052.46 2065.2,1043.46 2070.63,1091.87 2076.06,1141.61 2081.48,1144.89 2086.91,1037.77 2092.34,1054.48 2097.77,1150.79 2103.2,1227.05 2108.62,1215.56 2114.05,1087.47 2119.48,1164.16 2124.91,1029.24 2130.34,1044.28 2135.76,1085.45 2141.19,993.771 2146.62,1004.79 2152.05,1111.58 2157.48,1085.6 2162.9,995.623 2168.33,978.719 2173.76,908.697 2179.19,1045.92 2184.62,997.627 2190.04,1055.92 2195.47,1045.62 2200.9,997.79 2206.33,1046.54 2211.76,1151.25 2217.18,1083.59 2222.61,1018 2228.04,1051.73 2233.47,1066.64 2238.9,1094.27 2244.32,998.42 2249.75,782.475 2255.18,770.329 2260.61,773.297 2266.04,878.09 2271.46,962.675 2276.89,1024.92 2282.32,899.992 2287.75,871.263 2293.18,723.816 2298.6,764.607 2304.03,723.682 2309.46,956.872 2314.89,739.075 2320.32,613.676 2325.74,795.583 2331.17,721.536 2336.6,894.789 2342.03,776.401 2347.46,767.169 2352.88,653.591 2358.31,769.836 2363.74,564.023 2369.17,580.817 2374.6,604.544 2380.02,638.429 2385.45,554.807 2390.88,333.55 2396.31,450.617 2401.74,546.949 2407.16,535.013 2412.59,503.482 2418.02,247.6 2423.45,639.115 2428.88,660.36 2434.3,784.292 2439.73,624.938 2445.16,621.304 2450.59,496.275 2456.02,702.716 2461.44,768.614 2466.87,754.222 2472.3,695.083 2477.73,796.831 2483.16,622.316 2488.58,810.092 2494.01,955.116 2499.44,830.946 2504.87,835.054 2510.3,789.194 2515.72,872.677 2521.15,827.171 2526.58,608.177 2532.01,728.644 2537.44,847.465 2542.86,822.909 2548.29,570.917 2553.72,639.311 2559.15,624.374 2564.58,614.265 2570,625.234 2575.43,703.727 2580.86,522.527 2586.29,710.507 2591.72,683.264 2597.14,722.683 2602.57,652.795 2608,662.437 2613.43,628.567 2618.86,570.354 2624.28,576.752 2629.71,784.97 2635.14,585.613 2640.57,707.716 2646,789.484 2651.42,653.759 2656.85,623.089 2662.28,622.188 2667.71,857.998 2673.14,633.792 2678.56,465.242 2683.99,540.492 2689.42,450.97 2694.85,539.793 2700.28,615.18 2705.7,661.477 2711.13,616.692 2716.56,563.913 2721.99,531.975 2727.42,529.125 2732.84,425.311 2738.27,461.199 2743.7,465.772 2749.13,554.018 2754.56,651.455 2759.99,583.692 2765.41,710.182 2770.84,779.732 2776.27,747.629 2781.7,559.898 2787.13,484.766 2792.55,488.121 2797.98,573.716 2803.41,754.04 2808.84,600 2814.27,837.085 2819.69,803.831 2825.12,751.444 2830.55,644.012 2835.98,912.945 2841.41,828.765 2846.83,743.927 2852.26,759.696 2857.69,725.416 2863.12,689.924 2868.55,866.395 2873.97,798.388 2879.4,972.81 2884.83,898.761 2890.26,834.959 2895.69,913.398 2901.11,944.961 2906.54,928.371 2911.97,807.408 2917.4,888.279 2922.83,976.325 2928.25,972.031 2933.68,876.971 2939.11,821.406 2944.54,888.894 2949.97,763.29 2955.39,981.46 2960.82,1028.45 2966.25,982.479 2971.68,920.544 2977.11,1037.45 2982.53,977.73 2987.96,953.902 2993.39,1055.5 2998.82,971.873 3004.25,1098.71 3009.67,993.425 3015.1,939.725 3020.53,827.629 3025.96,974.422 3031.39,881.014 3036.81,985.791 3042.24,1078.16 3047.67,893.308 3053.1,921.527 3058.53,985.146 3063.95,1055.11 3069.38,936.725 "/>
</svg>
