<?xml version="1.0" encoding="utf-8"?>
<svg xmlns="http://www.w3.org/2000/svg" xmlns:xlink="http://www.w3.org/1999/xlink" width="600" height="400" viewBox="0 0 2400 1600">
<defs>
  <clipPath id="clip290">
    <rect x="0" y="0" width="2400" height="1600"/>
  </clipPath>
</defs>
<path clip-path="url(#clip290)" d="M0 1600 L2400 1600 L2400 0 L0 0  Z" fill="#ffffff" fill-rule="evenodd" fill-opacity="1"/>
<defs>
  <clipPath id="clip291">
    <rect x="480" y="0" width="1681" height="1600"/>
  </clipPath>
</defs>
<path clip-path="url(#clip290)" d="M170.857 1423.18 L2352.76 1423.18 L2352.76 149.392 L170.857 149.392  Z" fill="#ffffff" fill-rule="evenodd" fill-opacity="1"/>
<defs>
  <clipPath id="clip292">
    <rect x="170" y="149" width="2183" height="1275"/>
  </clipPath>
</defs>
<polyline clip-path="url(#clip292)" style="stroke:#000000; stroke-linecap:round; stroke-linejoin:round; stroke-width:2; stroke-opacity:0.1; fill:none" points="533.601,1423.18 533.601,149.392 "/>
<polyline clip-path="url(#clip292)" style="stroke:#000000; stroke-linecap:round; stroke-linejoin:round; stroke-width:2; stroke-opacity:0.1; fill:none" points="938.16,1423.18 938.16,149.392 "/>
<polyline clip-path="url(#clip292)" style="stroke:#000000; stroke-linecap:round; stroke-linejoin:round; stroke-width:2; stroke-opacity:0.1; fill:none" points="1342.72,1423.18 1342.72,149.392 "/>
<polyline clip-path="url(#clip292)" style="stroke:#000000; stroke-linecap:round; stroke-linejoin:round; stroke-width:2; stroke-opacity:0.1; fill:none" points="1747.28,1423.18 1747.28,149.392 "/>
<polyline clip-path="url(#clip292)" style="stroke:#000000; stroke-linecap:round; stroke-linejoin:round; stroke-width:2; stroke-opacity:0.1; fill:none" points="2151.84,1423.18 2151.84,149.392 "/>
<polyline clip-path="url(#clip292)" style="stroke:#000000; stroke-linecap:round; stroke-linejoin:round; stroke-width:2; stroke-opacity:0.1; fill:none" points="170.857,1423.18 2352.76,1423.18 "/>
<polyline clip-path="url(#clip292)" style="stroke:#000000; stroke-linecap:round; stroke-linejoin:round; stroke-width:2; stroke-opacity:0.1; fill:none" points="170.857,1064.37 2352.76,1064.37 "/>
<polyline clip-path="url(#clip292)" style="stroke:#000000; stroke-linecap:round; stroke-linejoin:round; stroke-width:2; stroke-opacity:0.1; fill:none" points="170.857,705.553 2352.76,705.553 "/>
<polyline clip-path="url(#clip292)" style="stroke:#000000; stroke-linecap:round; stroke-linejoin:round; stroke-width:2; stroke-opacity:0.1; fill:none" points="170.857,346.74 2352.76,346.74 "/>
<polyline clip-path="url(#clip290)" style="stroke:#000000; stroke-linecap:round; stroke-linejoin:round; stroke-width:4; stroke-opacity:1; fill:none" points="170.857,1423.18 2352.76,1423.18 "/>
<polyline clip-path="url(#clip290)" style="stroke:#000000; stroke-linecap:round; stroke-linejoin:round; stroke-width:4; stroke-opacity:1; fill:none" points="533.601,1423.18 533.601,1404.28 "/>
<polyline clip-path="url(#clip290)" style="stroke:#000000; stroke-linecap:round; stroke-linejoin:round; stroke-width:4; stroke-opacity:1; fill:none" points="938.16,1423.18 938.16,1404.28 "/>
<polyline clip-path="url(#clip290)" style="stroke:#000000; stroke-linecap:round; stroke-linejoin:round; stroke-width:4; stroke-opacity:1; fill:none" points="1342.72,1423.18 1342.72,1404.28 "/>
<polyline clip-path="url(#clip290)" style="stroke:#000000; stroke-linecap:round; stroke-linejoin:round; stroke-width:4; stroke-opacity:1; fill:none" points="1747.28,1423.18 1747.28,1404.28 "/>
<polyline clip-path="url(#clip290)" style="stroke:#000000; stroke-linecap:round; stroke-linejoin:round; stroke-width:4; stroke-opacity:1; fill:none" points="2151.84,1423.18 2151.84,1404.28 "/>
<path clip-path="url(#clip290)" d="M511.032 1454.1 Q507.421 1454.1 505.592 1457.66 Q503.786 1461.2 503.786 1468.33 Q503.786 1475.44 505.592 1479.01 Q507.421 1482.55 511.032 1482.55 Q514.666 1482.55 516.471 1479.01 Q518.3 1475.44 518.3 1468.33 Q518.3 1461.2 516.471 1457.66 Q514.666 1454.1 511.032 1454.1 M511.032 1450.39 Q516.842 1450.39 519.897 1455 Q522.976 1459.58 522.976 1468.33 Q522.976 1477.06 519.897 1481.67 Q516.842 1486.25 511.032 1486.25 Q505.221 1486.25 502.143 1481.67 Q499.087 1477.06 499.087 1468.33 Q499.087 1459.58 502.143 1455 Q505.221 1450.39 511.032 1450.39 Z" fill="#000000" fill-rule="nonzero" fill-opacity="1" /><path clip-path="url(#clip290)" d="M531.194 1479.7 L536.078 1479.7 L536.078 1485.58 L531.194 1485.58 L531.194 1479.7 Z" fill="#000000" fill-rule="nonzero" fill-opacity="1" /><path clip-path="url(#clip290)" d="M556.263 1469.17 Q552.93 1469.17 551.008 1470.95 Q549.11 1472.73 549.11 1475.86 Q549.11 1478.98 551.008 1480.77 Q552.93 1482.55 556.263 1482.55 Q559.596 1482.55 561.517 1480.77 Q563.439 1478.96 563.439 1475.86 Q563.439 1472.73 561.517 1470.95 Q559.619 1469.17 556.263 1469.17 M551.587 1467.18 Q548.578 1466.44 546.888 1464.38 Q545.221 1462.32 545.221 1459.35 Q545.221 1455.21 548.161 1452.8 Q551.124 1450.39 556.263 1450.39 Q561.425 1450.39 564.365 1452.8 Q567.304 1455.21 567.304 1459.35 Q567.304 1462.32 565.615 1464.38 Q563.948 1466.44 560.962 1467.18 Q564.342 1467.96 566.217 1470.26 Q568.115 1472.55 568.115 1475.86 Q568.115 1480.88 565.036 1483.57 Q561.98 1486.25 556.263 1486.25 Q550.545 1486.25 547.467 1483.57 Q544.411 1480.88 544.411 1475.86 Q544.411 1472.55 546.309 1470.26 Q548.207 1467.96 551.587 1467.18 M549.874 1459.79 Q549.874 1462.48 551.541 1463.98 Q553.23 1465.49 556.263 1465.49 Q559.272 1465.49 560.962 1463.98 Q562.675 1462.48 562.675 1459.79 Q562.675 1457.11 560.962 1455.6 Q559.272 1454.1 556.263 1454.1 Q553.23 1454.1 551.541 1455.6 Q549.874 1457.11 549.874 1459.79 Z" fill="#000000" fill-rule="nonzero" fill-opacity="1" /><path clip-path="url(#clip290)" d="M915.637 1454.1 Q912.026 1454.1 910.197 1457.66 Q908.391 1461.2 908.391 1468.33 Q908.391 1475.44 910.197 1479.01 Q912.026 1482.55 915.637 1482.55 Q919.271 1482.55 921.076 1479.01 Q922.905 1475.44 922.905 1468.33 Q922.905 1461.2 921.076 1457.66 Q919.271 1454.1 915.637 1454.1 M915.637 1450.39 Q921.447 1450.39 924.502 1455 Q927.581 1459.58 927.581 1468.33 Q927.581 1477.06 924.502 1481.67 Q921.447 1486.25 915.637 1486.25 Q909.826 1486.25 906.748 1481.67 Q903.692 1477.06 903.692 1468.33 Q903.692 1459.58 906.748 1455 Q909.826 1450.39 915.637 1450.39 Z" fill="#000000" fill-rule="nonzero" fill-opacity="1" /><path clip-path="url(#clip290)" d="M935.799 1479.7 L940.683 1479.7 L940.683 1485.58 L935.799 1485.58 L935.799 1479.7 Z" fill="#000000" fill-rule="nonzero" fill-opacity="1" /><path clip-path="url(#clip290)" d="M951.007 1484.86 L951.007 1480.6 Q952.766 1481.44 954.572 1481.88 Q956.377 1482.32 958.113 1482.32 Q962.743 1482.32 965.173 1479.21 Q967.627 1476.09 967.974 1469.75 Q966.632 1471.74 964.572 1472.8 Q962.511 1473.87 960.011 1473.87 Q954.826 1473.87 951.794 1470.74 Q948.785 1467.59 948.785 1462.15 Q948.785 1456.83 951.933 1453.61 Q955.081 1450.39 960.312 1450.39 Q966.308 1450.39 969.456 1455 Q972.627 1459.58 972.627 1468.33 Q972.627 1476.51 968.738 1481.39 Q964.873 1486.25 958.322 1486.25 Q956.562 1486.25 954.757 1485.9 Q952.951 1485.56 951.007 1484.86 M960.312 1470.21 Q963.46 1470.21 965.289 1468.06 Q967.141 1465.9 967.141 1462.15 Q967.141 1458.43 965.289 1456.27 Q963.46 1454.1 960.312 1454.1 Q957.164 1454.1 955.312 1456.27 Q953.484 1458.43 953.484 1462.15 Q953.484 1465.9 955.312 1468.06 Q957.164 1470.21 960.312 1470.21 Z" fill="#000000" fill-rule="nonzero" fill-opacity="1" /><path clip-path="url(#clip290)" d="M1309.87 1481.64 L1317.51 1481.64 L1317.51 1455.28 L1309.2 1456.95 L1309.2 1452.69 L1317.46 1451.02 L1322.14 1451.02 L1322.14 1481.64 L1329.78 1481.64 L1329.78 1485.58 L1309.87 1485.58 L1309.87 1481.64 Z" fill="#000000" fill-rule="nonzero" fill-opacity="1" /><path clip-path="url(#clip290)" d="M1339.22 1479.7 L1344.11 1479.7 L1344.11 1485.58 L1339.22 1485.58 L1339.22 1479.7 Z" fill="#000000" fill-rule="nonzero" fill-opacity="1" /><path clip-path="url(#clip290)" d="M1364.29 1454.1 Q1360.68 1454.1 1358.85 1457.66 Q1357.05 1461.2 1357.05 1468.33 Q1357.05 1475.44 1358.85 1479.01 Q1360.68 1482.55 1364.29 1482.55 Q1367.93 1482.55 1369.73 1479.01 Q1371.56 1475.44 1371.56 1468.33 Q1371.56 1461.2 1369.73 1457.66 Q1367.93 1454.1 1364.29 1454.1 M1364.29 1450.39 Q1370.1 1450.39 1373.16 1455 Q1376.24 1459.58 1376.24 1468.33 Q1376.24 1477.06 1373.16 1481.67 Q1370.1 1486.25 1364.29 1486.25 Q1358.48 1486.25 1355.4 1481.67 Q1352.35 1477.06 1352.35 1468.33 Q1352.35 1459.58 1355.4 1455 Q1358.48 1450.39 1364.29 1450.39 Z" fill="#000000" fill-rule="nonzero" fill-opacity="1" /><path clip-path="url(#clip290)" d="M1715.04 1481.64 L1722.68 1481.64 L1722.68 1455.28 L1714.37 1456.95 L1714.37 1452.69 L1722.64 1451.02 L1727.31 1451.02 L1727.31 1481.64 L1734.95 1481.64 L1734.95 1485.58 L1715.04 1485.58 L1715.04 1481.64 Z" fill="#000000" fill-rule="nonzero" fill-opacity="1" /><path clip-path="url(#clip290)" d="M1744.4 1479.7 L1749.28 1479.7 L1749.28 1485.58 L1744.4 1485.58 L1744.4 1479.7 Z" fill="#000000" fill-rule="nonzero" fill-opacity="1" /><path clip-path="url(#clip290)" d="M1760.27 1481.64 L1767.91 1481.64 L1767.91 1455.28 L1759.6 1456.95 L1759.6 1452.69 L1767.87 1451.02 L1772.54 1451.02 L1772.54 1481.64 L1780.18 1481.64 L1780.18 1485.58 L1760.27 1485.58 L1760.27 1481.64 Z" fill="#000000" fill-rule="nonzero" fill-opacity="1" /><path clip-path="url(#clip290)" d="M2119.79 1481.64 L2127.43 1481.64 L2127.43 1455.28 L2119.12 1456.95 L2119.12 1452.69 L2127.38 1451.02 L2132.06 1451.02 L2132.06 1481.64 L2139.69 1481.64 L2139.69 1485.58 L2119.79 1485.58 L2119.79 1481.64 Z" fill="#000000" fill-rule="nonzero" fill-opacity="1" /><path clip-path="url(#clip290)" d="M2149.14 1479.7 L2154.02 1479.7 L2154.02 1485.58 L2149.14 1485.58 L2149.14 1479.7 Z" fill="#000000" fill-rule="nonzero" fill-opacity="1" /><path clip-path="url(#clip290)" d="M2168.24 1481.64 L2184.56 1481.64 L2184.56 1485.58 L2162.61 1485.58 L2162.61 1481.64 Q2165.27 1478.89 2169.86 1474.26 Q2174.46 1469.61 2175.64 1468.27 Q2177.89 1465.74 2178.77 1464.01 Q2179.67 1462.25 2179.67 1460.56 Q2179.67 1457.8 2177.73 1456.07 Q2175.81 1454.33 2172.7 1454.33 Q2170.5 1454.33 2168.05 1455.09 Q2165.62 1455.86 2162.84 1457.41 L2162.84 1452.69 Q2165.67 1451.55 2168.12 1450.97 Q2170.57 1450.39 2172.61 1450.39 Q2177.98 1450.39 2181.18 1453.08 Q2184.37 1455.77 2184.37 1460.26 Q2184.37 1462.39 2183.56 1464.31 Q2182.77 1466.2 2180.67 1468.8 Q2180.09 1469.47 2176.99 1472.69 Q2173.88 1475.88 2168.24 1481.64 Z" fill="#000000" fill-rule="nonzero" fill-opacity="1" /><path clip-path="url(#clip290)" d="M1259.99 1538.06 Q1258.81 1537.65 1257.64 1537.33 Q1254.49 1536.5 1251.11 1536.5 Q1245.29 1536.5 1242.04 1539.65 Q1239.02 1542.58 1238.44 1547.96 L1259.99 1547.96 L1259.99 1552.54 L1238.44 1552.54 Q1239.02 1557.92 1242.04 1560.85 Q1245.29 1564 1251.11 1564 Q1255.19 1564 1257.64 1563.17 L1259.99 1562.38 L1259.99 1567.69 L1257.48 1568.27 Q1254.17 1568.97 1250.76 1568.97 Q1242.23 1568.97 1237.27 1564 Q1232.27 1559.04 1232.27 1550.25 Q1232.27 1541.47 1237.27 1536.5 Q1242.23 1531.54 1250.76 1531.54 Q1253.98 1531.54 1257.48 1532.24 Q1258.75 1532.49 1259.99 1532.87 L1259.99 1538.06 Z" fill="#000000" fill-rule="nonzero" fill-opacity="1" /><path clip-path="url(#clip290)" d="M1273.74 1564.54 L1280.24 1564.54 L1280.24 1545.1 L1273.14 1546.4 L1273.14 1542.71 L1280.46 1541.47 L1284.82 1541.47 L1284.82 1564.54 L1291.34 1564.54 L1291.34 1568.04 L1273.74 1568.04 L1273.74 1564.54 Z" fill="#000000" fill-rule="nonzero" fill-opacity="1" /><polyline clip-path="url(#clip290)" style="stroke:#000000; stroke-linecap:round; stroke-linejoin:round; stroke-width:4; stroke-opacity:1; fill:none" points="170.857,1423.18 170.857,149.392 "/>
<polyline clip-path="url(#clip290)" style="stroke:#000000; stroke-linecap:round; stroke-linejoin:round; stroke-width:4; stroke-opacity:1; fill:none" points="170.857,1423.18 189.755,1423.18 "/>
<polyline clip-path="url(#clip290)" style="stroke:#000000; stroke-linecap:round; stroke-linejoin:round; stroke-width:4; stroke-opacity:1; fill:none" points="170.857,1064.37 189.755,1064.37 "/>
<polyline clip-path="url(#clip290)" style="stroke:#000000; stroke-linecap:round; stroke-linejoin:round; stroke-width:4; stroke-opacity:1; fill:none" points="170.857,705.553 189.755,705.553 "/>
<polyline clip-path="url(#clip290)" style="stroke:#000000; stroke-linecap:round; stroke-linejoin:round; stroke-width:4; stroke-opacity:1; fill:none" points="170.857,346.74 189.755,346.74 "/>
<path clip-path="url(#clip290)" d="M122.913 1408.98 Q119.302 1408.98 117.473 1412.54 Q115.668 1416.08 115.668 1423.21 Q115.668 1430.32 117.473 1433.89 Q119.302 1437.43 122.913 1437.43 Q126.547 1437.43 128.353 1433.89 Q130.182 1430.32 130.182 1423.21 Q130.182 1416.08 128.353 1412.54 Q126.547 1408.98 122.913 1408.98 M122.913 1405.27 Q128.723 1405.27 131.779 1409.88 Q134.857 1414.46 134.857 1423.21 Q134.857 1431.94 131.779 1436.55 Q128.723 1441.13 122.913 1441.13 Q117.103 1441.13 114.024 1436.55 Q110.969 1431.94 110.969 1423.21 Q110.969 1414.46 114.024 1409.88 Q117.103 1405.27 122.913 1405.27 Z" fill="#000000" fill-rule="nonzero" fill-opacity="1" /><path clip-path="url(#clip290)" d="M53.3995 1077.71 L61.0384 1077.71 L61.0384 1051.35 L52.7282 1053.01 L52.7282 1048.75 L60.9921 1047.09 L65.668 1047.09 L65.668 1077.71 L73.3068 1077.71 L73.3068 1081.65 L53.3995 1081.65 L53.3995 1077.71 Z" fill="#000000" fill-rule="nonzero" fill-opacity="1" /><path clip-path="url(#clip290)" d="M92.7512 1050.17 Q89.1401 1050.17 87.3114 1053.73 Q85.5058 1057.27 85.5058 1064.4 Q85.5058 1071.51 87.3114 1075.07 Q89.1401 1078.61 92.7512 1078.61 Q96.3854 1078.61 98.1909 1075.07 Q100.02 1071.51 100.02 1064.4 Q100.02 1057.27 98.1909 1053.73 Q96.3854 1050.17 92.7512 1050.17 M92.7512 1046.46 Q98.5613 1046.46 101.617 1051.07 Q104.696 1055.65 104.696 1064.4 Q104.696 1073.13 101.617 1077.73 Q98.5613 1082.32 92.7512 1082.32 Q86.941 1082.32 83.8623 1077.73 Q80.8068 1073.13 80.8068 1064.4 Q80.8068 1055.65 83.8623 1051.07 Q86.941 1046.46 92.7512 1046.46 Z" fill="#000000" fill-rule="nonzero" fill-opacity="1" /><path clip-path="url(#clip290)" d="M122.913 1050.17 Q119.302 1050.17 117.473 1053.73 Q115.668 1057.27 115.668 1064.4 Q115.668 1071.51 117.473 1075.07 Q119.302 1078.61 122.913 1078.61 Q126.547 1078.61 128.353 1075.07 Q130.182 1071.51 130.182 1064.4 Q130.182 1057.27 128.353 1053.73 Q126.547 1050.17 122.913 1050.17 M122.913 1046.46 Q128.723 1046.46 131.779 1051.07 Q134.857 1055.65 134.857 1064.4 Q134.857 1073.13 131.779 1077.73 Q128.723 1082.32 122.913 1082.32 Q117.103 1082.32 114.024 1077.73 Q110.969 1073.13 110.969 1064.4 Q110.969 1055.65 114.024 1051.07 Q117.103 1046.46 122.913 1046.46 Z" fill="#000000" fill-rule="nonzero" fill-opacity="1" /><path clip-path="url(#clip290)" d="M56.6171 718.898 L72.9365 718.898 L72.9365 722.833 L50.9921 722.833 L50.9921 718.898 Q53.6541 716.143 58.2375 711.514 Q62.8439 706.861 64.0245 705.518 Q66.2698 702.995 67.1494 701.259 Q68.0522 699.5 68.0522 697.81 Q68.0522 695.055 66.1078 693.319 Q64.1865 691.583 61.0847 691.583 Q58.8856 691.583 56.4319 692.347 Q54.0014 693.111 51.2236 694.662 L51.2236 689.94 Q54.0477 688.805 56.5014 688.227 Q58.955 687.648 60.9921 687.648 Q66.3624 687.648 69.5568 690.333 Q72.7513 693.018 72.7513 697.509 Q72.7513 699.639 71.9411 701.56 Q71.1541 703.458 69.0476 706.051 Q68.4689 706.722 65.367 709.94 Q62.2652 713.134 56.6171 718.898 Z" fill="#000000" fill-rule="nonzero" fill-opacity="1" /><path clip-path="url(#clip290)" d="M92.7512 691.352 Q89.1401 691.352 87.3114 694.916 Q85.5058 698.458 85.5058 705.588 Q85.5058 712.694 87.3114 716.259 Q89.1401 719.801 92.7512 719.801 Q96.3854 719.801 98.1909 716.259 Q100.02 712.694 100.02 705.588 Q100.02 698.458 98.1909 694.916 Q96.3854 691.352 92.7512 691.352 M92.7512 687.648 Q98.5613 687.648 101.617 692.254 Q104.696 696.838 104.696 705.588 Q104.696 714.314 101.617 718.921 Q98.5613 723.504 92.7512 723.504 Q86.941 723.504 83.8623 718.921 Q80.8068 714.314 80.8068 705.588 Q80.8068 696.838 83.8623 692.254 Q86.941 687.648 92.7512 687.648 Z" fill="#000000" fill-rule="nonzero" fill-opacity="1" /><path clip-path="url(#clip290)" d="M122.913 691.352 Q119.302 691.352 117.473 694.916 Q115.668 698.458 115.668 705.588 Q115.668 712.694 117.473 716.259 Q119.302 719.801 122.913 719.801 Q126.547 719.801 128.353 716.259 Q130.182 712.694 130.182 705.588 Q130.182 698.458 128.353 694.916 Q126.547 691.352 122.913 691.352 M122.913 687.648 Q128.723 687.648 131.779 692.254 Q134.857 696.838 134.857 705.588 Q134.857 714.314 131.779 718.921 Q128.723 723.504 122.913 723.504 Q117.103 723.504 114.024 718.921 Q110.969 714.314 110.969 705.588 Q110.969 696.838 114.024 692.254 Q117.103 687.648 122.913 687.648 Z" fill="#000000" fill-rule="nonzero" fill-opacity="1" /><path clip-path="url(#clip290)" d="M66.7559 345.385 Q70.1124 346.103 71.9874 348.371 Q73.8855 350.64 73.8855 353.973 Q73.8855 359.089 70.367 361.89 Q66.8485 364.691 60.3671 364.691 Q58.1912 364.691 55.8764 364.251 Q53.5847 363.834 51.131 362.978 L51.131 358.464 Q53.0754 359.598 55.3903 360.177 Q57.7051 360.756 60.2282 360.756 Q64.6263 360.756 66.918 359.02 Q69.2328 357.283 69.2328 353.973 Q69.2328 350.918 67.08 349.205 Q64.9504 347.469 61.131 347.469 L57.1032 347.469 L57.1032 343.626 L61.3161 343.626 Q64.7652 343.626 66.5939 342.26 Q68.4226 340.871 68.4226 338.279 Q68.4226 335.617 66.5245 334.205 Q64.6495 332.77 61.131 332.77 Q59.2097 332.77 57.0106 333.186 Q54.8115 333.603 52.1727 334.483 L52.1727 330.316 Q54.8347 329.575 57.1495 329.205 Q59.4875 328.835 61.5476 328.835 Q66.8717 328.835 69.9735 331.265 Q73.0753 333.672 73.0753 337.793 Q73.0753 340.663 71.4318 342.654 Q69.7883 344.621 66.7559 345.385 Z" fill="#000000" fill-rule="nonzero" fill-opacity="1" /><path clip-path="url(#clip290)" d="M92.7512 332.538 Q89.1401 332.538 87.3114 336.103 Q85.5058 339.645 85.5058 346.774 Q85.5058 353.881 87.3114 357.445 Q89.1401 360.987 92.7512 360.987 Q96.3854 360.987 98.1909 357.445 Q100.02 353.881 100.02 346.774 Q100.02 339.645 98.1909 336.103 Q96.3854 332.538 92.7512 332.538 M92.7512 328.835 Q98.5613 328.835 101.617 333.441 Q104.696 338.024 104.696 346.774 Q104.696 355.501 101.617 360.108 Q98.5613 364.691 92.7512 364.691 Q86.941 364.691 83.8623 360.108 Q80.8068 355.501 80.8068 346.774 Q80.8068 338.024 83.8623 333.441 Q86.941 328.835 92.7512 328.835 Z" fill="#000000" fill-rule="nonzero" fill-opacity="1" /><path clip-path="url(#clip290)" d="M122.913 332.538 Q119.302 332.538 117.473 336.103 Q115.668 339.645 115.668 346.774 Q115.668 353.881 117.473 357.445 Q119.302 360.987 122.913 360.987 Q126.547 360.987 128.353 357.445 Q130.182 353.881 130.182 346.774 Q130.182 339.645 128.353 336.103 Q126.547 332.538 122.913 332.538 M122.913 328.835 Q128.723 328.835 131.779 333.441 Q134.857 338.024 134.857 346.774 Q134.857 355.501 131.779 360.108 Q128.723 364.691 122.913 364.691 Q117.103 364.691 114.024 360.108 Q110.969 355.501 110.969 346.774 Q110.969 338.024 114.024 333.441 Q117.103 328.835 122.913 328.835 Z" fill="#000000" fill-rule="nonzero" fill-opacity="1" /><path clip-path="url(#clip290)" d="M718.754 23.76 L724.599 23.76 L724.599 41.4682 L745.837 41.4682 L745.837 23.76 L751.682 23.76 L751.682 66.96 L745.837 66.96 L745.837 46.3872 L724.599 46.3872 L724.599 66.96 L718.754 66.96 L718.754 23.76 Z" fill="#000000" fill-rule="nonzero" fill-opacity="1" /><path clip-path="url(#clip290)" d="M763.082 34.5528 L768.407 34.5528 L768.407 66.96 L763.082 66.96 L763.082 34.5528 M763.082 21.9371 L768.407 21.9371 L768.407 28.679 L763.082 28.679 L763.082 21.9371 Z" fill="#000000" fill-rule="nonzero" fill-opacity="1" /><path clip-path="url(#clip290)" d="M800.206 35.5076 L800.206 40.5423 Q797.949 39.3849 795.519 38.8062 Q793.088 38.2275 790.484 38.2275 Q786.52 38.2275 784.523 39.4428 Q782.556 40.6581 782.556 43.0886 Q782.556 44.9404 783.974 46.011 Q785.391 47.0527 789.674 48.0076 L791.497 48.4126 Q797.168 49.6279 799.541 51.8559 Q801.942 54.055 801.942 58.0191 Q801.942 62.5329 798.354 65.166 Q794.795 67.7991 788.545 67.7991 Q785.941 67.7991 783.106 67.2783 Q780.299 66.7864 777.174 65.7737 L777.174 60.276 Q780.125 61.8096 782.99 62.5908 Q785.854 63.3431 788.661 63.3431 Q792.423 63.3431 794.448 62.07 Q796.474 60.7679 796.474 58.4242 Q796.474 56.254 794.998 55.0966 Q793.551 53.9392 788.603 52.8686 L786.751 52.4346 Q781.803 51.393 779.604 49.2518 Q777.405 47.0816 777.405 43.3201 Q777.405 38.7483 780.646 36.2599 Q783.887 33.7715 789.847 33.7715 Q792.799 33.7715 795.403 34.2055 Q798.007 34.6396 800.206 35.5076 Z" fill="#000000" fill-rule="nonzero" fill-opacity="1" /><path clip-path="url(#clip290)" d="M815.686 25.3514 L815.686 34.5528 L826.653 34.5528 L826.653 38.6905 L815.686 38.6905 L815.686 56.283 Q815.686 60.2471 816.757 61.3755 Q817.856 62.504 821.184 62.504 L826.653 62.504 L826.653 66.96 L821.184 66.96 Q815.021 66.96 812.677 64.6741 Q810.333 62.3593 810.333 56.283 L810.333 38.6905 L806.427 38.6905 L806.427 34.5528 L810.333 34.5528 L810.333 25.3514 L815.686 25.3514 Z" fill="#000000" fill-rule="nonzero" fill-opacity="1" /><path clip-path="url(#clip290)" d="M846.213 38.2854 Q841.93 38.2854 839.442 41.6418 Q836.954 44.9694 836.954 50.7853 Q836.954 56.6013 839.413 59.9577 Q841.902 63.2853 846.213 63.2853 Q850.466 63.2853 852.955 59.9288 Q855.443 56.5723 855.443 50.7853 Q855.443 45.0272 852.955 41.6708 Q850.466 38.2854 846.213 38.2854 M846.213 33.7715 Q853.157 33.7715 857.121 38.2854 Q861.085 42.7992 861.085 50.7853 Q861.085 58.7425 857.121 63.2853 Q853.157 67.7991 846.213 67.7991 Q839.239 67.7991 835.275 63.2853 Q831.34 58.7425 831.34 50.7853 Q831.34 42.7992 835.275 38.2854 Q839.239 33.7715 846.213 33.7715 Z" fill="#000000" fill-rule="nonzero" fill-opacity="1" /><path clip-path="url(#clip290)" d="M891.236 50.3802 Q891.236 44.5932 888.834 41.4104 Q886.461 38.2275 882.15 38.2275 Q877.868 38.2275 875.466 41.4104 Q873.093 44.5932 873.093 50.3802 Q873.093 56.1383 875.466 59.3212 Q877.868 62.504 882.15 62.504 Q886.461 62.504 888.834 59.3212 Q891.236 56.1383 891.236 50.3802 M896.56 62.938 Q896.56 71.2134 892.885 75.2354 Q889.21 79.2863 881.629 79.2863 Q878.823 79.2863 876.334 78.8523 Q873.846 78.4472 871.502 77.5792 L871.502 72.3998 Q873.846 73.6729 876.132 74.2806 Q878.418 74.8882 880.79 74.8882 Q886.027 74.8882 888.632 72.1394 Q891.236 69.4195 891.236 63.8929 L891.236 61.2598 Q889.586 64.1244 887.011 65.5422 Q884.436 66.96 880.848 66.96 Q874.887 66.96 871.242 62.4172 Q867.596 57.8744 867.596 50.3802 Q867.596 42.8571 871.242 38.3143 Q874.887 33.7715 880.848 33.7715 Q884.436 33.7715 887.011 35.1893 Q889.586 36.6072 891.236 39.4717 L891.236 34.5528 L896.56 34.5528 L896.56 62.938 Z" fill="#000000" fill-rule="nonzero" fill-opacity="1" /><path clip-path="url(#clip290)" d="M926.305 39.5296 Q925.408 39.0088 924.337 38.7773 Q923.296 38.5169 922.023 38.5169 Q917.509 38.5169 915.078 41.4682 Q912.677 44.3907 912.677 49.8883 L912.677 66.96 L907.324 66.96 L907.324 34.5528 L912.677 34.5528 L912.677 39.5875 Q914.355 36.6361 917.046 35.2183 Q919.737 33.7715 923.585 33.7715 Q924.135 33.7715 924.8 33.8583 Q925.466 33.9162 926.276 34.0609 L926.305 39.5296 Z" fill="#000000" fill-rule="nonzero" fill-opacity="1" /><path clip-path="url(#clip290)" d="M946.617 50.6696 Q940.165 50.6696 937.676 52.1453 Q935.188 53.621 935.188 57.18 Q935.188 60.0156 937.04 61.6938 Q938.921 63.3431 942.132 63.3431 Q946.56 63.3431 949.222 60.2181 Q951.912 57.0642 951.912 51.8559 L951.912 50.6696 L946.617 50.6696 M957.237 48.4705 L957.237 66.96 L951.912 66.96 L951.912 62.041 Q950.09 64.9924 947.37 66.4102 Q944.65 67.7991 940.715 67.7991 Q935.738 67.7991 932.786 65.0214 Q929.864 62.2147 929.864 57.5272 Q929.864 52.0585 933.51 49.2807 Q937.185 46.5029 944.447 46.5029 L951.912 46.5029 L951.912 45.9821 Q951.912 42.3074 949.482 40.3108 Q947.08 38.2854 942.711 38.2854 Q939.933 38.2854 937.3 38.9509 Q934.667 39.6164 932.237 40.9474 L932.237 36.0285 Q935.159 34.9 937.908 34.3502 Q940.657 33.7715 943.261 33.7715 Q950.292 33.7715 953.764 37.4173 Q957.237 41.0631 957.237 48.4705 Z" fill="#000000" fill-rule="nonzero" fill-opacity="1" /><path clip-path="url(#clip290)" d="M993.434 40.7738 Q995.431 37.1859 998.209 35.4787 Q1000.99 33.7715 1004.75 33.7715 Q1009.81 33.7715 1012.56 37.3305 Q1015.31 40.8606 1015.31 47.3999 L1015.31 66.96 L1009.96 66.96 L1009.96 47.5735 Q1009.96 42.915 1008.31 40.6581 Q1006.66 38.4011 1003.27 38.4011 Q999.134 38.4011 996.733 41.15 Q994.331 43.8988 994.331 48.6441 L994.331 66.96 L988.978 66.96 L988.978 47.5735 Q988.978 42.8861 987.329 40.6581 Q985.68 38.4011 982.236 38.4011 Q978.157 38.4011 975.755 41.1789 Q973.353 43.9277 973.353 48.6441 L973.353 66.96 L968 66.96 L968 34.5528 L973.353 34.5528 L973.353 39.5875 Q975.176 36.6072 977.723 35.1893 Q980.269 33.7715 983.77 33.7715 Q987.3 33.7715 989.76 35.5655 Q992.248 37.3595 993.434 40.7738 Z" fill="#000000" fill-rule="nonzero" fill-opacity="1" /><path clip-path="url(#clip290)" d="M1057.32 38.2854 Q1053.04 38.2854 1050.55 41.6418 Q1048.06 44.9694 1048.06 50.7853 Q1048.06 56.6013 1050.52 59.9577 Q1053.01 63.2853 1057.32 63.2853 Q1061.58 63.2853 1064.06 59.9288 Q1066.55 56.5723 1066.55 50.7853 Q1066.55 45.0272 1064.06 41.6708 Q1061.58 38.2854 1057.32 38.2854 M1057.32 33.7715 Q1064.27 33.7715 1068.23 38.2854 Q1072.2 42.7992 1072.2 50.7853 Q1072.2 58.7425 1068.23 63.2853 Q1064.27 67.7991 1057.32 67.7991 Q1050.35 67.7991 1046.39 63.2853 Q1042.45 58.7425 1042.45 50.7853 Q1042.45 42.7992 1046.39 38.2854 Q1050.35 33.7715 1057.32 33.7715 Z" fill="#000000" fill-rule="nonzero" fill-opacity="1" /><path clip-path="url(#clip290)" d="M1097.43 21.9371 L1097.43 26.3642 L1092.33 26.3642 Q1089.47 26.3642 1088.34 27.5216 Q1087.24 28.679 1087.24 31.6882 L1087.24 34.5528 L1096.01 34.5528 L1096.01 38.6905 L1087.24 38.6905 L1087.24 66.96 L1081.89 66.96 L1081.89 38.6905 L1076.8 38.6905 L1076.8 34.5528 L1081.89 34.5528 L1081.89 32.2958 Q1081.89 26.885 1084.41 24.4255 Q1086.92 21.9371 1092.39 21.9371 L1097.43 21.9371 Z" fill="#000000" fill-rule="nonzero" fill-opacity="1" /><path clip-path="url(#clip290)" d="M1125.87 62.0989 L1125.87 79.2863 L1120.52 79.2863 L1120.52 34.5528 L1125.87 34.5528 L1125.87 39.4717 Q1127.55 36.5782 1130.09 35.1893 Q1132.67 33.7715 1136.23 33.7715 Q1142.13 33.7715 1145.81 38.459 Q1149.51 43.1465 1149.51 50.7853 Q1149.51 58.4242 1145.81 63.1116 Q1142.13 67.7991 1136.23 67.7991 Q1132.67 67.7991 1130.09 66.4102 Q1127.55 64.9924 1125.87 62.0989 M1143.98 50.7853 Q1143.98 44.9115 1141.55 41.584 Q1139.15 38.2275 1134.93 38.2275 Q1130.7 38.2275 1128.27 41.584 Q1125.87 44.9115 1125.87 50.7853 Q1125.87 56.6591 1128.27 60.0156 Q1130.7 63.3431 1134.93 63.3431 Q1139.15 63.3431 1141.55 60.0156 Q1143.98 56.6591 1143.98 50.7853 Z" fill="#000000" fill-rule="nonzero" fill-opacity="1" /><path clip-path="url(#clip290)" d="M1189.96 21.995 Q1186.08 28.65 1184.2 35.1604 Q1182.32 41.6708 1182.32 48.3548 Q1182.32 55.0388 1184.2 61.607 Q1186.11 68.1463 1189.96 74.7725 L1185.33 74.7725 Q1180.99 67.9727 1178.82 61.4045 Q1176.68 54.8362 1176.68 48.3548 Q1176.68 41.9023 1178.82 35.3629 Q1180.96 28.8236 1185.33 21.995 L1189.96 21.995 Z" fill="#000000" fill-rule="nonzero" fill-opacity="1" /><path clip-path="url(#clip290)" d="M1225.52 40.7738 Q1227.52 37.1859 1230.3 35.4787 Q1233.07 33.7715 1236.84 33.7715 Q1241.9 33.7715 1244.65 37.3305 Q1247.4 40.8606 1247.4 47.3999 L1247.4 66.96 L1242.04 66.96 L1242.04 47.5735 Q1242.04 42.915 1240.39 40.6581 Q1238.75 38.4011 1235.36 38.4011 Q1231.22 38.4011 1228.82 41.15 Q1226.42 43.8988 1226.42 48.6441 L1226.42 66.96 L1221.07 66.96 L1221.07 47.5735 Q1221.07 42.8861 1219.42 40.6581 Q1217.77 38.4011 1214.32 38.4011 Q1210.24 38.4011 1207.84 41.1789 Q1205.44 43.9277 1205.44 48.6441 L1205.44 66.96 L1200.09 66.96 L1200.09 34.5528 L1205.44 34.5528 L1205.44 39.5875 Q1207.26 36.6072 1209.81 35.1893 Q1212.36 33.7715 1215.86 33.7715 Q1219.39 33.7715 1221.85 35.5655 Q1224.34 37.3595 1225.52 40.7738 Z" fill="#000000" fill-rule="nonzero" fill-opacity="1" /><path clip-path="url(#clip290)" d="M1258.71 40.0504 L1295.81 40.0504 L1295.81 44.9115 L1258.71 44.9115 L1258.71 40.0504 M1258.71 51.8559 L1295.81 51.8559 L1295.81 56.7749 L1258.71 56.7749 L1258.71 51.8559 Z" fill="#000000" fill-rule="nonzero" fill-opacity="1" /><path clip-path="url(#clip290)" d="M1313.46 62.041 L1333.85 62.041 L1333.85 66.96 L1306.42 66.96 L1306.42 62.041 Q1309.75 58.5978 1315.48 52.8108 Q1321.24 46.9948 1322.71 45.3166 Q1325.52 42.1627 1326.62 39.9926 Q1327.75 37.7935 1327.75 35.6812 Q1327.75 32.238 1325.32 30.0678 Q1322.92 27.8977 1319.04 27.8977 Q1316.29 27.8977 1313.22 28.8526 Q1310.19 29.8074 1306.71 31.7461 L1306.71 25.8433 Q1310.24 24.4255 1313.31 23.7021 Q1316.38 22.9788 1318.92 22.9788 Q1325.64 22.9788 1329.63 26.3352 Q1333.62 29.6917 1333.62 35.3051 Q1333.62 37.9671 1332.61 40.3687 Q1331.63 42.7414 1328.99 45.9821 Q1328.27 46.8212 1324.39 50.8432 Q1320.52 54.8362 1313.46 62.041 Z" fill="#000000" fill-rule="nonzero" fill-opacity="1" /><path clip-path="url(#clip290)" d="M1358.62 27.6084 Q1354.11 27.6084 1351.82 32.0644 Q1349.57 36.4914 1349.57 45.4034 Q1349.57 54.2865 1351.82 58.7425 Q1354.11 63.1695 1358.62 63.1695 Q1363.17 63.1695 1365.42 58.7425 Q1367.71 54.2865 1367.71 45.4034 Q1367.71 36.4914 1365.42 32.0644 Q1363.17 27.6084 1358.62 27.6084 M1358.62 22.9788 Q1365.89 22.9788 1369.71 28.7368 Q1373.55 34.466 1373.55 45.4034 Q1373.55 56.3119 1369.71 62.07 Q1365.89 67.7991 1358.62 67.7991 Q1351.36 67.7991 1347.51 62.07 Q1343.69 56.3119 1343.69 45.4034 Q1343.69 34.466 1347.51 28.7368 Q1351.36 22.9788 1358.62 22.9788 Z" fill="#000000" fill-rule="nonzero" fill-opacity="1" /><path clip-path="url(#clip290)" d="M1396.33 27.6084 Q1391.81 27.6084 1389.53 32.0644 Q1387.27 36.4914 1387.27 45.4034 Q1387.27 54.2865 1389.53 58.7425 Q1391.81 63.1695 1396.33 63.1695 Q1400.87 63.1695 1403.13 58.7425 Q1405.41 54.2865 1405.41 45.4034 Q1405.41 36.4914 1403.13 32.0644 Q1400.87 27.6084 1396.33 27.6084 M1396.33 22.9788 Q1403.59 22.9788 1407.41 28.7368 Q1411.26 34.466 1411.26 45.4034 Q1411.26 56.3119 1407.41 62.07 Q1403.59 67.7991 1396.33 67.7991 Q1389.06 67.7991 1385.21 62.07 Q1381.4 56.3119 1381.4 45.4034 Q1381.4 34.466 1385.21 28.7368 Q1389.06 22.9788 1396.33 22.9788 Z" fill="#000000" fill-rule="nonzero" fill-opacity="1" /><path clip-path="url(#clip290)" d="M1434.03 27.6084 Q1429.51 27.6084 1427.23 32.0644 Q1424.97 36.4914 1424.97 45.4034 Q1424.97 54.2865 1427.23 58.7425 Q1429.51 63.1695 1434.03 63.1695 Q1438.57 63.1695 1440.83 58.7425 Q1443.11 54.2865 1443.11 45.4034 Q1443.11 36.4914 1440.83 32.0644 Q1438.57 27.6084 1434.03 27.6084 M1434.03 22.9788 Q1441.29 22.9788 1445.11 28.7368 Q1448.96 34.466 1448.96 45.4034 Q1448.96 56.3119 1445.11 62.07 Q1441.29 67.7991 1434.03 67.7991 Q1426.77 67.7991 1422.92 62.07 Q1419.1 56.3119 1419.1 45.4034 Q1419.1 34.466 1422.92 28.7368 Q1426.77 22.9788 1434.03 22.9788 Z" fill="#000000" fill-rule="nonzero" fill-opacity="1" /><path clip-path="url(#clip290)" d="M1459.84 59.6105 L1465.94 59.6105 L1465.94 64.5873 L1461.2 73.8465 L1457.47 73.8465 L1459.84 64.5873 L1459.84 59.6105 Z" fill="#000000" fill-rule="nonzero" fill-opacity="1" /><path clip-path="url(#clip290)" d="M1523.09 47.3999 L1523.09 66.96 L1517.77 66.96 L1517.77 47.5735 Q1517.77 42.9729 1515.97 40.687 Q1514.18 38.4011 1510.59 38.4011 Q1506.28 38.4011 1503.79 41.15 Q1501.3 43.8988 1501.3 48.6441 L1501.3 66.96 L1495.95 66.96 L1495.95 34.5528 L1501.3 34.5528 L1501.3 39.5875 Q1503.21 36.665 1505.79 35.2183 Q1508.39 33.7715 1511.78 33.7715 Q1517.36 33.7715 1520.23 37.2437 Q1523.09 40.687 1523.09 47.3999 Z" fill="#000000" fill-rule="nonzero" fill-opacity="1" /><path clip-path="url(#clip290)" d="M1533.51 21.9371 L1538.86 21.9371 L1538.86 48.5284 L1554.74 34.5528 L1561.54 34.5528 L1544.36 49.7147 L1562.27 66.96 L1555.32 66.96 L1538.86 51.1325 L1538.86 66.96 L1533.51 66.96 L1533.51 21.9371 Z" fill="#000000" fill-rule="nonzero" fill-opacity="1" /><path clip-path="url(#clip290)" d="M1568.72 40.0504 L1605.82 40.0504 L1605.82 44.9115 L1568.72 44.9115 L1568.72 40.0504 M1568.72 51.8559 L1605.82 51.8559 L1605.82 56.7749 L1568.72 56.7749 L1568.72 51.8559 Z" fill="#000000" fill-rule="nonzero" fill-opacity="1" /><path clip-path="url(#clip290)" d="M1623.47 62.041 L1643.86 62.041 L1643.86 66.96 L1616.43 66.96 L1616.43 62.041 Q1619.76 58.5978 1625.49 52.8108 Q1631.25 46.9948 1632.72 45.3166 Q1635.53 42.1627 1636.63 39.9926 Q1637.76 37.7935 1637.76 35.6812 Q1637.76 32.238 1635.33 30.0678 Q1632.93 27.8977 1629.05 27.8977 Q1626.3 27.8977 1623.23 28.8526 Q1620.2 29.8074 1616.72 31.7461 L1616.72 25.8433 Q1620.25 24.4255 1623.32 23.7021 Q1626.39 22.9788 1628.93 22.9788 Q1635.65 22.9788 1639.64 26.3352 Q1643.63 29.6917 1643.63 35.3051 Q1643.63 37.9671 1642.62 40.3687 Q1641.64 42.7414 1639 45.9821 Q1638.28 46.8212 1634.4 50.8432 Q1630.53 54.8362 1623.47 62.041 Z" fill="#000000" fill-rule="nonzero" fill-opacity="1" /><path clip-path="url(#clip290)" d="M1668.63 27.6084 Q1664.12 27.6084 1661.83 32.0644 Q1659.58 36.4914 1659.58 45.4034 Q1659.58 54.2865 1661.83 58.7425 Q1664.12 63.1695 1668.63 63.1695 Q1673.18 63.1695 1675.43 58.7425 Q1677.72 54.2865 1677.72 45.4034 Q1677.72 36.4914 1675.43 32.0644 Q1673.18 27.6084 1668.63 27.6084 M1668.63 22.9788 Q1675.9 22.9788 1679.72 28.7368 Q1683.56 34.466 1683.56 45.4034 Q1683.56 56.3119 1679.72 62.07 Q1675.9 67.7991 1668.63 67.7991 Q1661.37 67.7991 1657.52 62.07 Q1653.7 56.3119 1653.7 45.4034 Q1653.7 34.466 1657.52 28.7368 Q1661.37 22.9788 1668.63 22.9788 Z" fill="#000000" fill-rule="nonzero" fill-opacity="1" /><path clip-path="url(#clip290)" d="M1706.34 27.6084 Q1701.82 27.6084 1699.54 32.0644 Q1697.28 36.4914 1697.28 45.4034 Q1697.28 54.2865 1699.54 58.7425 Q1701.82 63.1695 1706.34 63.1695 Q1710.88 63.1695 1713.14 58.7425 Q1715.42 54.2865 1715.42 45.4034 Q1715.42 36.4914 1713.14 32.0644 Q1710.88 27.6084 1706.34 27.6084 M1706.34 22.9788 Q1713.6 22.9788 1717.42 28.7368 Q1721.27 34.466 1721.27 45.4034 Q1721.27 56.3119 1717.42 62.07 Q1713.6 67.7991 1706.34 67.7991 Q1699.07 67.7991 1695.22 62.07 Q1691.41 56.3119 1691.41 45.4034 Q1691.41 34.466 1695.22 28.7368 Q1699.07 22.9788 1706.34 22.9788 Z" fill="#000000" fill-rule="nonzero" fill-opacity="1" /><path clip-path="url(#clip290)" d="M1744.04 27.6084 Q1739.52 27.6084 1737.24 32.0644 Q1734.98 36.4914 1734.98 45.4034 Q1734.98 54.2865 1737.24 58.7425 Q1739.52 63.1695 1744.04 63.1695 Q1748.58 63.1695 1750.84 58.7425 Q1753.12 54.2865 1753.12 45.4034 Q1753.12 36.4914 1750.84 32.0644 Q1748.58 27.6084 1744.04 27.6084 M1744.04 22.9788 Q1751.3 22.9788 1755.12 28.7368 Q1758.97 34.466 1758.97 45.4034 Q1758.97 56.3119 1755.12 62.07 Q1751.3 67.7991 1744.04 67.7991 Q1736.78 67.7991 1732.93 62.07 Q1729.11 56.3119 1729.11 45.4034 Q1729.11 34.466 1732.93 28.7368 Q1736.78 22.9788 1744.04 22.9788 Z" fill="#000000" fill-rule="nonzero" fill-opacity="1" /><path clip-path="url(#clip290)" d="M1767.65 21.995 L1772.28 21.995 Q1776.62 28.8236 1778.76 35.3629 Q1780.93 41.9023 1780.93 48.3548 Q1780.93 54.8362 1778.76 61.4045 Q1776.62 67.9727 1772.28 74.7725 L1767.65 74.7725 Q1771.5 68.1463 1773.38 61.607 Q1775.29 55.0388 1775.29 48.3548 Q1775.29 41.6708 1773.38 35.1604 Q1771.5 28.65 1767.65 21.995 Z" fill="#000000" fill-rule="nonzero" fill-opacity="1" /><path clip-path="url(#clip290)" d="M1099.63 86.795 Q1095.75 93.45 1093.87 99.9604 Q1091.99 106.471 1091.99 113.155 Q1091.99 119.839 1093.87 126.407 Q1095.78 132.946 1099.63 139.572 L1095 139.572 Q1090.66 132.773 1088.49 126.204 Q1086.34 119.636 1086.34 113.155 Q1086.34 106.702 1088.49 100.163 Q1090.63 93.6236 1095 86.795 L1099.63 86.795 Z" fill="#000000" fill-rule="nonzero" fill-opacity="1" /><path clip-path="url(#clip290)" d="M1110.88 130.863 L1110.88 125.539 Q1113.08 126.581 1115.34 127.13 Q1117.59 127.68 1119.76 127.68 Q1125.55 127.68 1128.59 123.803 Q1131.66 119.897 1132.09 111.968 Q1130.41 114.457 1127.84 115.788 Q1125.26 117.119 1122.14 117.119 Q1115.66 117.119 1111.87 113.213 Q1108.1 109.277 1108.1 102.478 Q1108.1 95.8227 1112.04 91.8007 Q1115.97 87.7788 1122.51 87.7788 Q1130.01 87.7788 1133.94 93.5368 Q1137.91 99.266 1137.91 110.203 Q1137.91 120.417 1133.05 126.523 Q1128.21 132.599 1120.03 132.599 Q1117.83 132.599 1115.57 132.165 Q1113.31 131.731 1110.88 130.863 M1122.51 112.547 Q1126.45 112.547 1128.73 109.856 Q1131.05 107.165 1131.05 102.478 Q1131.05 97.8192 1128.73 95.1283 Q1126.45 92.4084 1122.51 92.4084 Q1118.58 92.4084 1116.26 95.1283 Q1113.98 97.8192 1113.98 102.478 Q1113.98 107.165 1116.26 109.856 Q1118.58 112.547 1122.51 112.547 Z" fill="#000000" fill-rule="nonzero" fill-opacity="1" /><path clip-path="url(#clip290)" d="M1148.58 130.863 L1148.58 125.539 Q1150.78 126.581 1153.04 127.13 Q1155.3 127.68 1157.47 127.68 Q1163.25 127.68 1166.29 123.803 Q1169.36 119.897 1169.79 111.968 Q1168.12 114.457 1165.54 115.788 Q1162.96 117.119 1159.84 117.119 Q1153.36 117.119 1149.57 113.213 Q1145.81 109.277 1145.81 102.478 Q1145.81 95.8227 1149.74 91.8007 Q1153.68 87.7788 1160.22 87.7788 Q1167.71 87.7788 1171.65 93.5368 Q1175.61 99.266 1175.61 110.203 Q1175.61 120.417 1170.75 126.523 Q1165.92 132.599 1157.73 132.599 Q1155.53 132.599 1153.27 132.165 Q1151.01 131.731 1148.58 130.863 M1160.22 112.547 Q1164.15 112.547 1166.44 109.856 Q1168.75 107.165 1168.75 102.478 Q1168.75 97.8192 1166.44 95.1283 Q1164.15 92.4084 1160.22 92.4084 Q1156.28 92.4084 1153.97 95.1283 Q1151.68 97.8192 1151.68 102.478 Q1151.68 107.165 1153.97 109.856 Q1156.28 112.547 1160.22 112.547 Z" fill="#000000" fill-rule="nonzero" fill-opacity="1" /><path clip-path="url(#clip290)" d="M1186.11 124.411 L1192.22 124.411 L1192.22 131.76 L1186.11 131.76 L1186.11 124.411 Z" fill="#000000" fill-rule="nonzero" fill-opacity="1" /><path clip-path="url(#clip290)" d="M1217.45 111.245 Q1213.28 111.245 1210.88 113.473 Q1208.51 115.701 1208.51 119.607 Q1208.51 123.514 1210.88 125.742 Q1213.28 127.97 1217.45 127.97 Q1221.62 127.97 1224.02 125.742 Q1226.42 123.485 1226.42 119.607 Q1226.42 115.701 1224.02 113.473 Q1221.64 111.245 1217.45 111.245 M1211.6 108.757 Q1207.84 107.831 1205.73 105.256 Q1203.65 102.68 1203.65 98.9766 Q1203.65 93.7972 1207.32 90.788 Q1211.03 87.7788 1217.45 87.7788 Q1223.9 87.7788 1227.58 90.788 Q1231.25 93.7972 1231.25 98.9766 Q1231.25 102.68 1229.14 105.256 Q1227.06 107.831 1223.32 108.757 Q1227.55 109.74 1229.89 112.605 Q1232.26 115.47 1232.26 119.607 Q1232.26 125.886 1228.42 129.243 Q1224.6 132.599 1217.45 132.599 Q1210.3 132.599 1206.45 129.243 Q1202.63 125.886 1202.63 119.607 Q1202.63 115.47 1205.01 112.605 Q1207.38 109.74 1211.6 108.757 M1209.46 99.5264 Q1209.46 102.883 1211.55 104.764 Q1213.66 106.644 1217.45 106.644 Q1221.21 106.644 1223.32 104.764 Q1225.46 102.883 1225.46 99.5264 Q1225.46 96.1699 1223.32 94.2891 Q1221.21 92.4084 1217.45 92.4084 Q1213.66 92.4084 1211.55 94.2891 Q1209.46 96.1699 1209.46 99.5264 Z" fill="#000000" fill-rule="nonzero" fill-opacity="1" /><path clip-path="url(#clip290)" d="M1279.4 112.75 Q1276.88 112.75 1275.44 114.891 Q1274.02 117.032 1274.02 120.851 Q1274.02 124.613 1275.44 126.783 Q1276.88 128.924 1279.4 128.924 Q1281.86 128.924 1283.28 126.783 Q1284.72 124.613 1284.72 120.851 Q1284.72 117.061 1283.28 114.92 Q1281.86 112.75 1279.4 112.75 M1279.4 109.075 Q1283.97 109.075 1286.66 112.258 Q1289.35 115.441 1289.35 120.851 Q1289.35 126.262 1286.63 129.445 Q1283.94 132.599 1279.4 132.599 Q1274.77 132.599 1272.08 129.445 Q1269.39 126.262 1269.39 120.851 Q1269.39 115.412 1272.08 112.258 Q1274.8 109.075 1279.4 109.075 M1249.54 91.4535 Q1247.05 91.4535 1245.6 93.6236 Q1244.19 95.7648 1244.19 99.5264 Q1244.19 103.346 1245.6 105.487 Q1247.02 107.628 1249.54 107.628 Q1252.06 107.628 1253.47 105.487 Q1254.92 103.346 1254.92 99.5264 Q1254.92 95.7938 1253.47 93.6236 Q1252.03 91.4535 1249.54 91.4535 M1275.67 87.7788 L1280.3 87.7788 L1253.27 132.599 L1248.64 132.599 L1275.67 87.7788 M1249.54 87.7788 Q1254.11 87.7788 1256.83 90.9616 Q1259.55 94.1155 1259.55 99.5264 Q1259.55 104.995 1256.83 108.149 Q1254.14 111.303 1249.54 111.303 Q1244.94 111.303 1242.25 108.149 Q1239.58 104.966 1239.58 99.5264 Q1239.58 94.1445 1242.28 90.9616 Q1244.97 87.7788 1249.54 87.7788 Z" fill="#000000" fill-rule="nonzero" fill-opacity="1" /><path clip-path="url(#clip290)" d="M1317.04 99.3528 L1322.37 99.3528 L1322.37 131.76 L1317.04 131.76 L1317.04 99.3528 M1317.04 86.7371 L1322.37 86.7371 L1322.37 93.479 L1317.04 93.479 L1317.04 86.7371 Z" fill="#000000" fill-rule="nonzero" fill-opacity="1" /><path clip-path="url(#clip290)" d="M1360.45 112.2 L1360.45 131.76 L1355.12 131.76 L1355.12 112.374 Q1355.12 107.773 1353.33 105.487 Q1351.53 103.201 1347.95 103.201 Q1343.63 103.201 1341.15 105.95 Q1338.66 108.699 1338.66 113.444 L1338.66 131.76 L1333.31 131.76 L1333.31 99.3528 L1338.66 99.3528 L1338.66 104.387 Q1340.57 101.465 1343.14 100.018 Q1345.75 98.5715 1349.13 98.5715 Q1354.72 98.5715 1357.58 102.044 Q1360.45 105.487 1360.45 112.2 Z" fill="#000000" fill-rule="nonzero" fill-opacity="1" /><path clip-path="url(#clip290)" d="M1422.48 91.8875 L1422.48 98.0507 Q1419.53 95.3019 1416.18 93.9419 Q1412.85 92.582 1409.09 92.582 Q1401.68 92.582 1397.74 97.1248 Q1393.81 101.639 1393.81 110.203 Q1393.81 118.739 1397.74 123.282 Q1401.68 127.796 1409.09 127.796 Q1412.85 127.796 1416.18 126.436 Q1419.53 125.076 1422.48 122.327 L1422.48 128.432 Q1419.42 130.516 1415.97 131.557 Q1412.56 132.599 1408.74 132.599 Q1398.93 132.599 1393.29 126.61 Q1387.65 120.591 1387.65 110.203 Q1387.65 99.7868 1393.29 93.7972 Q1398.93 87.7788 1408.74 87.7788 Q1412.62 87.7788 1416.03 88.8204 Q1419.47 89.8331 1422.48 91.8875 Z" fill="#000000" fill-rule="nonzero" fill-opacity="1" /><path clip-path="url(#clip290)" d="M1431.51 88.56 L1437.36 88.56 L1437.36 131.76 L1431.51 131.76 L1431.51 88.56 Z" fill="#000000" fill-rule="nonzero" fill-opacity="1" /><path clip-path="url(#clip290)" d="M1447.92 86.795 L1452.55 86.795 Q1456.89 93.6236 1459.03 100.163 Q1461.2 106.702 1461.2 113.155 Q1461.2 119.636 1459.03 126.204 Q1456.89 132.773 1452.55 139.572 L1447.92 139.572 Q1451.77 132.946 1453.65 126.407 Q1455.56 119.839 1455.56 113.155 Q1455.56 106.471 1453.65 99.9604 Q1451.77 93.45 1447.92 86.795 Z" fill="#000000" fill-rule="nonzero" fill-opacity="1" /><path clip-path="url(#clip292)" d="M290.866 1419.59 L290.866 1423.18 L371.777 1423.18 L371.777 1419.59 L290.866 1419.59 L290.866 1419.59  Z" fill="#009af9" fill-rule="evenodd" fill-opacity="1"/>
<polyline clip-path="url(#clip292)" style="stroke:#000000; stroke-linecap:round; stroke-linejoin:round; stroke-width:4; stroke-opacity:1; fill:none" points="290.866,1419.59 290.866,1423.18 371.777,1423.18 371.777,1419.59 290.866,1419.59 "/>
<path clip-path="url(#clip292)" d="M371.777 1423.18 L371.777 1423.18 L452.689 1423.18 L452.689 1423.18 L371.777 1423.18 L371.777 1423.18  Z" fill="#009af9" fill-rule="evenodd" fill-opacity="1"/>
<polyline clip-path="url(#clip292)" style="stroke:#000000; stroke-linecap:round; stroke-linejoin:round; stroke-width:4; stroke-opacity:1; fill:none" points="371.777,1423.18 371.777,1423.18 452.689,1423.18 371.777,1423.18 "/>
<path clip-path="url(#clip292)" d="M452.689 1398.06 L452.689 1423.18 L533.601 1423.18 L533.601 1398.06 L452.689 1398.06 L452.689 1398.06  Z" fill="#009af9" fill-rule="evenodd" fill-opacity="1"/>
<polyline clip-path="url(#clip292)" style="stroke:#000000; stroke-linecap:round; stroke-linejoin:round; stroke-width:4; stroke-opacity:1; fill:none" points="452.689,1398.06 452.689,1423.18 533.601,1423.18 533.601,1398.06 452.689,1398.06 "/>
<path clip-path="url(#clip292)" d="M533.601 1369.36 L533.601 1423.18 L614.513 1423.18 L614.513 1369.36 L533.601 1369.36 L533.601 1369.36  Z" fill="#009af9" fill-rule="evenodd" fill-opacity="1"/>
<polyline clip-path="url(#clip292)" style="stroke:#000000; stroke-linecap:round; stroke-linejoin:round; stroke-width:4; stroke-opacity:1; fill:none" points="533.601,1369.36 533.601,1423.18 614.513,1423.18 614.513,1369.36 533.601,1369.36 "/>
<path clip-path="url(#clip292)" d="M614.513 1319.12 L614.513 1423.18 L695.424 1423.18 L695.424 1319.12 L614.513 1319.12 L614.513 1319.12  Z" fill="#009af9" fill-rule="evenodd" fill-opacity="1"/>
<polyline clip-path="url(#clip292)" style="stroke:#000000; stroke-linecap:round; stroke-linejoin:round; stroke-width:4; stroke-opacity:1; fill:none" points="614.513,1319.12 614.513,1423.18 695.424,1423.18 695.424,1319.12 614.513,1319.12 "/>
<path clip-path="url(#clip292)" d="M695.424 1222.24 L695.424 1423.18 L776.336 1423.18 L776.336 1222.24 L695.424 1222.24 L695.424 1222.24  Z" fill="#009af9" fill-rule="evenodd" fill-opacity="1"/>
<polyline clip-path="url(#clip292)" style="stroke:#000000; stroke-linecap:round; stroke-linejoin:round; stroke-width:4; stroke-opacity:1; fill:none" points="695.424,1222.24 695.424,1423.18 776.336,1423.18 776.336,1222.24 695.424,1222.24 "/>
<path clip-path="url(#clip292)" d="M776.336 1143.31 L776.336 1423.18 L857.248 1423.18 L857.248 1143.31 L776.336 1143.31 L776.336 1143.31  Z" fill="#009af9" fill-rule="evenodd" fill-opacity="1"/>
<polyline clip-path="url(#clip292)" style="stroke:#000000; stroke-linecap:round; stroke-linejoin:round; stroke-width:4; stroke-opacity:1; fill:none" points="776.336,1143.31 776.336,1423.18 857.248,1423.18 857.248,1143.31 776.336,1143.31 "/>
<path clip-path="url(#clip292)" d="M857.248 963.899 L857.248 1423.18 L938.16 1423.18 L938.16 963.899 L857.248 963.899 L857.248 963.899  Z" fill="#009af9" fill-rule="evenodd" fill-opacity="1"/>
<polyline clip-path="url(#clip292)" style="stroke:#000000; stroke-linecap:round; stroke-linejoin:round; stroke-width:4; stroke-opacity:1; fill:none" points="857.248,963.899 857.248,1423.18 938.16,1423.18 938.16,963.899 857.248,963.899 "/>
<path clip-path="url(#clip292)" d="M938.16 755.787 L938.16 1423.18 L1019.07 1423.18 L1019.07 755.787 L938.16 755.787 L938.16 755.787  Z" fill="#009af9" fill-rule="evenodd" fill-opacity="1"/>
<polyline clip-path="url(#clip292)" style="stroke:#000000; stroke-linecap:round; stroke-linejoin:round; stroke-width:4; stroke-opacity:1; fill:none" points="938.16,755.787 938.16,1423.18 1019.07,1423.18 1019.07,755.787 938.16,755.787 "/>
<path clip-path="url(#clip292)" d="M1019.07 583.556 L1019.07 1423.18 L1099.98 1423.18 L1099.98 583.556 L1019.07 583.556 L1019.07 583.556  Z" fill="#009af9" fill-rule="evenodd" fill-opacity="1"/>
<polyline clip-path="url(#clip292)" style="stroke:#000000; stroke-linecap:round; stroke-linejoin:round; stroke-width:4; stroke-opacity:1; fill:none" points="1019.07,583.556 1019.07,1423.18 1099.98,1423.18 1099.98,583.556 1019.07,583.556 "/>
<path clip-path="url(#clip292)" d="M1099.98 515.382 L1099.98 1423.18 L1180.89 1423.18 L1180.89 515.382 L1099.98 515.382 L1099.98 515.382  Z" fill="#009af9" fill-rule="evenodd" fill-opacity="1"/>
<polyline clip-path="url(#clip292)" style="stroke:#000000; stroke-linecap:round; stroke-linejoin:round; stroke-width:4; stroke-opacity:1; fill:none" points="1099.98,515.382 1099.98,1423.18 1180.89,1423.18 1180.89,515.382 1099.98,515.382 "/>
<path clip-path="url(#clip292)" d="M1180.89 533.323 L1180.89 1423.18 L1261.81 1423.18 L1261.81 533.323 L1180.89 533.323 L1180.89 533.323  Z" fill="#009af9" fill-rule="evenodd" fill-opacity="1"/>
<polyline clip-path="url(#clip292)" style="stroke:#000000; stroke-linecap:round; stroke-linejoin:round; stroke-width:4; stroke-opacity:1; fill:none" points="1180.89,533.323 1180.89,1423.18 1261.81,1423.18 1261.81,533.323 1180.89,533.323 "/>
<path clip-path="url(#clip292)" d="M1261.81 640.967 L1261.81 1423.18 L1342.72 1423.18 L1342.72 640.967 L1261.81 640.967 L1261.81 640.967  Z" fill="#009af9" fill-rule="evenodd" fill-opacity="1"/>
<polyline clip-path="url(#clip292)" style="stroke:#000000; stroke-linecap:round; stroke-linejoin:round; stroke-width:4; stroke-opacity:1; fill:none" points="1261.81,640.967 1261.81,1423.18 1342.72,1423.18 1342.72,640.967 1261.81,640.967 "/>
<path clip-path="url(#clip292)" d="M1342.72 780.904 L1342.72 1423.18 L1423.63 1423.18 L1423.63 780.904 L1342.72 780.904 L1342.72 780.904  Z" fill="#009af9" fill-rule="evenodd" fill-opacity="1"/>
<polyline clip-path="url(#clip292)" style="stroke:#000000; stroke-linecap:round; stroke-linejoin:round; stroke-width:4; stroke-opacity:1; fill:none" points="1342.72,780.904 1342.72,1423.18 1423.63,1423.18 1423.63,780.904 1342.72,780.904 "/>
<path clip-path="url(#clip292)" d="M1423.63 906.488 L1423.63 1423.18 L1504.54 1423.18 L1504.54 906.488 L1423.63 906.488 L1423.63 906.488  Z" fill="#009af9" fill-rule="evenodd" fill-opacity="1"/>
<polyline clip-path="url(#clip292)" style="stroke:#000000; stroke-linecap:round; stroke-linejoin:round; stroke-width:4; stroke-opacity:1; fill:none" points="1423.63,906.488 1423.63,1423.18 1504.54,1423.18 1504.54,906.488 1423.63,906.488 "/>
<path clip-path="url(#clip292)" d="M1504.54 1042.84 L1504.54 1423.18 L1585.45 1423.18 L1585.45 1042.84 L1504.54 1042.84 L1504.54 1042.84  Z" fill="#009af9" fill-rule="evenodd" fill-opacity="1"/>
<polyline clip-path="url(#clip292)" style="stroke:#000000; stroke-linecap:round; stroke-linejoin:round; stroke-width:4; stroke-opacity:1; fill:none" points="1504.54,1042.84 1504.54,1423.18 1585.45,1423.18 1585.45,1042.84 1504.54,1042.84 "/>
<path clip-path="url(#clip292)" d="M1585.45 1200.72 L1585.45 1423.18 L1666.37 1423.18 L1666.37 1200.72 L1585.45 1200.72 L1585.45 1200.72  Z" fill="#009af9" fill-rule="evenodd" fill-opacity="1"/>
<polyline clip-path="url(#clip292)" style="stroke:#000000; stroke-linecap:round; stroke-linejoin:round; stroke-width:4; stroke-opacity:1; fill:none" points="1585.45,1200.72 1585.45,1423.18 1666.37,1423.18 1666.37,1200.72 1585.45,1200.72 "/>
<path clip-path="url(#clip292)" d="M1666.37 1297.6 L1666.37 1423.18 L1747.28 1423.18 L1747.28 1297.6 L1666.37 1297.6 L1666.37 1297.6  Z" fill="#009af9" fill-rule="evenodd" fill-opacity="1"/>
<polyline clip-path="url(#clip292)" style="stroke:#000000; stroke-linecap:round; stroke-linejoin:round; stroke-width:4; stroke-opacity:1; fill:none" points="1666.37,1297.6 1666.37,1423.18 1747.28,1423.18 1747.28,1297.6 1666.37,1297.6 "/>
<path clip-path="url(#clip292)" d="M1747.28 1387.3 L1747.28 1423.18 L1828.19 1423.18 L1828.19 1387.3 L1747.28 1387.3 L1747.28 1387.3  Z" fill="#009af9" fill-rule="evenodd" fill-opacity="1"/>
<polyline clip-path="url(#clip292)" style="stroke:#000000; stroke-linecap:round; stroke-linejoin:round; stroke-width:4; stroke-opacity:1; fill:none" points="1747.28,1387.3 1747.28,1423.18 1828.19,1423.18 1828.19,1387.3 1747.28,1387.3 "/>
<path clip-path="url(#clip292)" d="M1828.19 1401.65 L1828.19 1423.18 L1909.1 1423.18 L1909.1 1401.65 L1828.19 1401.65 L1828.19 1401.65  Z" fill="#009af9" fill-rule="evenodd" fill-opacity="1"/>
<polyline clip-path="url(#clip292)" style="stroke:#000000; stroke-linecap:round; stroke-linejoin:round; stroke-width:4; stroke-opacity:1; fill:none" points="1828.19,1401.65 1828.19,1423.18 1909.1,1423.18 1909.1,1401.65 1828.19,1401.65 "/>
<path clip-path="url(#clip292)" d="M1909.1 1408.83 L1909.1 1423.18 L1990.01 1423.18 L1990.01 1408.83 L1909.1 1408.83 L1909.1 1408.83  Z" fill="#009af9" fill-rule="evenodd" fill-opacity="1"/>
<polyline clip-path="url(#clip292)" style="stroke:#000000; stroke-linecap:round; stroke-linejoin:round; stroke-width:4; stroke-opacity:1; fill:none" points="1909.1,1408.83 1909.1,1423.18 1990.01,1423.18 1990.01,1408.83 1909.1,1408.83 "/>
<path clip-path="url(#clip292)" d="M1990.01 1423.18 L1990.01 1423.18 L2070.92 1423.18 L2070.92 1423.18 L1990.01 1423.18 L1990.01 1423.18  Z" fill="#009af9" fill-rule="evenodd" fill-opacity="1"/>
<polyline clip-path="url(#clip292)" style="stroke:#000000; stroke-linecap:round; stroke-linejoin:round; stroke-width:4; stroke-opacity:1; fill:none" points="1990.01,1423.18 1990.01,1423.18 2070.92,1423.18 1990.01,1423.18 "/>
<path clip-path="url(#clip292)" d="M2070.92 1423.18 L2070.92 1423.18 L2151.84 1423.18 L2151.84 1423.18 L2070.92 1423.18 L2070.92 1423.18  Z" fill="#009af9" fill-rule="evenodd" fill-opacity="1"/>
<polyline clip-path="url(#clip292)" style="stroke:#000000; stroke-linecap:round; stroke-linejoin:round; stroke-width:4; stroke-opacity:1; fill:none" points="2070.92,1423.18 2070.92,1423.18 2151.84,1423.18 2070.92,1423.18 "/>
<path clip-path="url(#clip292)" d="M2151.84 1419.59 L2151.84 1423.18 L2232.75 1423.18 L2232.75 1419.59 L2151.84 1419.59 L2151.84 1419.59  Z" fill="#009af9" fill-rule="evenodd" fill-opacity="1"/>
<polyline clip-path="url(#clip292)" style="stroke:#000000; stroke-linecap:round; stroke-linejoin:round; stroke-width:4; stroke-opacity:1; fill:none" points="2151.84,1419.59 2151.84,1423.18 2232.75,1423.18 2232.75,1419.59 2151.84,1419.59 "/>
<circle clip-path="url(#clip292)" style="fill:#009af9; stroke:none; fill-opacity:0" cx="331.322" cy="1419.59" r="2"/>
<circle clip-path="url(#clip292)" style="fill:#009af9; stroke:none; fill-opacity:0" cx="412.233" cy="1423.18" r="2"/>
<circle clip-path="url(#clip292)" style="fill:#009af9; stroke:none; fill-opacity:0" cx="493.145" cy="1398.06" r="2"/>
<circle clip-path="url(#clip292)" style="fill:#009af9; stroke:none; fill-opacity:0" cx="574.057" cy="1369.36" r="2"/>
<circle clip-path="url(#clip292)" style="fill:#009af9; stroke:none; fill-opacity:0" cx="654.969" cy="1319.12" r="2"/>
<circle clip-path="url(#clip292)" style="fill:#009af9; stroke:none; fill-opacity:0" cx="735.88" cy="1222.24" r="2"/>
<circle clip-path="url(#clip292)" style="fill:#009af9; stroke:none; fill-opacity:0" cx="816.792" cy="1143.31" r="2"/>
<circle clip-path="url(#clip292)" style="fill:#009af9; stroke:none; fill-opacity:0" cx="897.704" cy="963.899" r="2"/>
<circle clip-path="url(#clip292)" style="fill:#009af9; stroke:none; fill-opacity:0" cx="978.616" cy="755.787" r="2"/>
<circle clip-path="url(#clip292)" style="fill:#009af9; stroke:none; fill-opacity:0" cx="1059.53" cy="583.556" r="2"/>
<circle clip-path="url(#clip292)" style="fill:#009af9; stroke:none; fill-opacity:0" cx="1140.44" cy="515.382" r="2"/>
<circle clip-path="url(#clip292)" style="fill:#009af9; stroke:none; fill-opacity:0" cx="1221.35" cy="533.323" r="2"/>
<circle clip-path="url(#clip292)" style="fill:#009af9; stroke:none; fill-opacity:0" cx="1302.26" cy="640.967" r="2"/>
<circle clip-path="url(#clip292)" style="fill:#009af9; stroke:none; fill-opacity:0" cx="1383.17" cy="780.904" r="2"/>
<circle clip-path="url(#clip292)" style="fill:#009af9; stroke:none; fill-opacity:0" cx="1464.09" cy="906.488" r="2"/>
<circle clip-path="url(#clip292)" style="fill:#009af9; stroke:none; fill-opacity:0" cx="1545" cy="1042.84" r="2"/>
<circle clip-path="url(#clip292)" style="fill:#009af9; stroke:none; fill-opacity:0" cx="1625.91" cy="1200.72" r="2"/>
<circle clip-path="url(#clip292)" style="fill:#009af9; stroke:none; fill-opacity:0" cx="1706.82" cy="1297.6" r="2"/>
<circle clip-path="url(#clip292)" style="fill:#009af9; stroke:none; fill-opacity:0" cx="1787.73" cy="1387.3" r="2"/>
<circle clip-path="url(#clip292)" style="fill:#009af9; stroke:none; fill-opacity:0" cx="1868.64" cy="1401.65" r="2"/>
<circle clip-path="url(#clip292)" style="fill:#009af9; stroke:none; fill-opacity:0" cx="1949.56" cy="1408.83" r="2"/>
<circle clip-path="url(#clip292)" style="fill:#009af9; stroke:none; fill-opacity:0" cx="2030.47" cy="1423.18" r="2"/>
<circle clip-path="url(#clip292)" style="fill:#009af9; stroke:none; fill-opacity:0" cx="2111.38" cy="1423.18" r="2"/>
<circle clip-path="url(#clip292)" style="fill:#009af9; stroke:none; fill-opacity:0" cx="2192.29" cy="1419.59" r="2"/>
<path clip-path="url(#clip292)" d="M1019.07 1419.59 L1019.07 1423.18 L1039.3 1423.18 L1039.3 1419.59 L1019.07 1419.59 L1019.07 1419.59  Z" fill="#e26f46" fill-rule="evenodd" fill-opacity="1"/>
<polyline clip-path="url(#clip292)" style="stroke:#000000; stroke-linecap:round; stroke-linejoin:round; stroke-width:4; stroke-opacity:1; fill:none" points="1019.07,1419.59 1019.07,1423.18 1039.3,1423.18 1039.3,1419.59 1019.07,1419.59 "/>
<path clip-path="url(#clip292)" d="M1039.3 1408.83 L1039.3 1423.18 L1059.53 1423.18 L1059.53 1408.83 L1039.3 1408.83 L1039.3 1408.83  Z" fill="#e26f46" fill-rule="evenodd" fill-opacity="1"/>
<polyline clip-path="url(#clip292)" style="stroke:#000000; stroke-linecap:round; stroke-linejoin:round; stroke-width:4; stroke-opacity:1; fill:none" points="1039.3,1408.83 1039.3,1423.18 1059.53,1423.18 1059.53,1408.83 1039.3,1408.83 "/>
<path clip-path="url(#clip292)" d="M1059.53 1383.71 L1059.53 1423.18 L1079.76 1423.18 L1079.76 1383.71 L1059.53 1383.71 L1059.53 1383.71  Z" fill="#e26f46" fill-rule="evenodd" fill-opacity="1"/>
<polyline clip-path="url(#clip292)" style="stroke:#000000; stroke-linecap:round; stroke-linejoin:round; stroke-width:4; stroke-opacity:1; fill:none" points="1059.53,1383.71 1059.53,1423.18 1079.76,1423.18 1079.76,1383.71 1059.53,1383.71 "/>
<path clip-path="url(#clip292)" d="M1079.76 1272.48 L1079.76 1423.18 L1099.98 1423.18 L1099.98 1272.48 L1079.76 1272.48 L1079.76 1272.48  Z" fill="#e26f46" fill-rule="evenodd" fill-opacity="1"/>
<polyline clip-path="url(#clip292)" style="stroke:#000000; stroke-linecap:round; stroke-linejoin:round; stroke-width:4; stroke-opacity:1; fill:none" points="1079.76,1272.48 1079.76,1423.18 1099.98,1423.18 1099.98,1272.48 1079.76,1272.48 "/>
<path clip-path="url(#clip292)" d="M1099.98 1204.3 L1099.98 1423.18 L1120.21 1423.18 L1120.21 1204.3 L1099.98 1204.3 L1099.98 1204.3  Z" fill="#e26f46" fill-rule="evenodd" fill-opacity="1"/>
<polyline clip-path="url(#clip292)" style="stroke:#000000; stroke-linecap:round; stroke-linejoin:round; stroke-width:4; stroke-opacity:1; fill:none" points="1099.98,1204.3 1099.98,1423.18 1120.21,1423.18 1120.21,1204.3 1099.98,1204.3 "/>
<path clip-path="url(#clip292)" d="M1120.21 798.844 L1120.21 1423.18 L1140.44 1423.18 L1140.44 798.844 L1120.21 798.844 L1120.21 798.844  Z" fill="#e26f46" fill-rule="evenodd" fill-opacity="1"/>
<polyline clip-path="url(#clip292)" style="stroke:#000000; stroke-linecap:round; stroke-linejoin:round; stroke-width:4; stroke-opacity:1; fill:none" points="1120.21,798.844 1120.21,1423.18 1140.44,1423.18 1140.44,798.844 1120.21,798.844 "/>
<path clip-path="url(#clip292)" d="M1140.44 572.792 L1140.44 1423.18 L1160.67 1423.18 L1160.67 572.792 L1140.44 572.792 L1140.44 572.792  Z" fill="#e26f46" fill-rule="evenodd" fill-opacity="1"/>
<polyline clip-path="url(#clip292)" style="stroke:#000000; stroke-linecap:round; stroke-linejoin:round; stroke-width:4; stroke-opacity:1; fill:none" points="1140.44,572.792 1140.44,1423.18 1160.67,1423.18 1160.67,572.792 1140.44,572.792 "/>
<path clip-path="url(#clip292)" d="M1160.67 149.392 L1160.67 1423.18 L1180.89 1423.18 L1180.89 149.392 L1160.67 149.392 L1160.67 149.392  Z" fill="#e26f46" fill-rule="evenodd" fill-opacity="1"/>
<polyline clip-path="url(#clip292)" style="stroke:#000000; stroke-linecap:round; stroke-linejoin:round; stroke-width:4; stroke-opacity:1; fill:none" points="1160.67,149.392 1160.67,1423.18 1180.89,1423.18 1180.89,149.392 1160.67,149.392 "/>
<path clip-path="url(#clip292)" d="M1180.89 221.155 L1180.89 1423.18 L1201.12 1423.18 L1201.12 221.155 L1180.89 221.155 L1180.89 221.155  Z" fill="#e26f46" fill-rule="evenodd" fill-opacity="1"/>
<polyline clip-path="url(#clip292)" style="stroke:#000000; stroke-linecap:round; stroke-linejoin:round; stroke-width:4; stroke-opacity:1; fill:none" points="1180.89,221.155 1180.89,1423.18 1201.12,1423.18 1201.12,221.155 1180.89,221.155 "/>
<path clip-path="url(#clip292)" d="M1201.12 285.741 L1201.12 1423.18 L1221.35 1423.18 L1221.35 285.741 L1201.12 285.741 L1201.12 285.741  Z" fill="#e26f46" fill-rule="evenodd" fill-opacity="1"/>
<polyline clip-path="url(#clip292)" style="stroke:#000000; stroke-linecap:round; stroke-linejoin:round; stroke-width:4; stroke-opacity:1; fill:none" points="1201.12,285.741 1201.12,1423.18 1221.35,1423.18 1221.35,285.741 1201.12,285.741 "/>
<path clip-path="url(#clip292)" d="M1221.35 637.378 L1221.35 1423.18 L1241.58 1423.18 L1241.58 637.378 L1221.35 637.378 L1221.35 637.378  Z" fill="#e26f46" fill-rule="evenodd" fill-opacity="1"/>
<polyline clip-path="url(#clip292)" style="stroke:#000000; stroke-linecap:round; stroke-linejoin:round; stroke-width:4; stroke-opacity:1; fill:none" points="1221.35,637.378 1221.35,1423.18 1241.58,1423.18 1241.58,637.378 1221.35,637.378 "/>
<path clip-path="url(#clip292)" d="M1241.58 949.546 L1241.58 1423.18 L1261.81 1423.18 L1261.81 949.546 L1241.58 949.546 L1241.58 949.546  Z" fill="#e26f46" fill-rule="evenodd" fill-opacity="1"/>
<polyline clip-path="url(#clip292)" style="stroke:#000000; stroke-linecap:round; stroke-linejoin:round; stroke-width:4; stroke-opacity:1; fill:none" points="1241.58,949.546 1241.58,1423.18 1261.81,1423.18 1261.81,949.546 1241.58,949.546 "/>
<path clip-path="url(#clip292)" d="M1261.81 1161.25 L1261.81 1423.18 L1282.03 1423.18 L1282.03 1161.25 L1261.81 1161.25 L1261.81 1161.25  Z" fill="#e26f46" fill-rule="evenodd" fill-opacity="1"/>
<polyline clip-path="url(#clip292)" style="stroke:#000000; stroke-linecap:round; stroke-linejoin:round; stroke-width:4; stroke-opacity:1; fill:none" points="1261.81,1161.25 1261.81,1423.18 1282.03,1423.18 1282.03,1161.25 1261.81,1161.25 "/>
<path clip-path="url(#clip292)" d="M1282.03 1315.54 L1282.03 1423.18 L1302.26 1423.18 L1302.26 1315.54 L1282.03 1315.54 L1282.03 1315.54  Z" fill="#e26f46" fill-rule="evenodd" fill-opacity="1"/>
<polyline clip-path="url(#clip292)" style="stroke:#000000; stroke-linecap:round; stroke-linejoin:round; stroke-width:4; stroke-opacity:1; fill:none" points="1282.03,1315.54 1282.03,1423.18 1302.26,1423.18 1302.26,1315.54 1282.03,1315.54 "/>
<path clip-path="url(#clip292)" d="M1302.26 1401.65 L1302.26 1423.18 L1322.49 1423.18 L1322.49 1401.65 L1302.26 1401.65 L1302.26 1401.65  Z" fill="#e26f46" fill-rule="evenodd" fill-opacity="1"/>
<polyline clip-path="url(#clip292)" style="stroke:#000000; stroke-linecap:round; stroke-linejoin:round; stroke-width:4; stroke-opacity:1; fill:none" points="1302.26,1401.65 1302.26,1423.18 1322.49,1423.18 1322.49,1401.65 1302.26,1401.65 "/>
<path clip-path="url(#clip292)" d="M1322.49 1412.42 L1322.49 1423.18 L1342.72 1423.18 L1342.72 1412.42 L1322.49 1412.42 L1322.49 1412.42  Z" fill="#e26f46" fill-rule="evenodd" fill-opacity="1"/>
<polyline clip-path="url(#clip292)" style="stroke:#000000; stroke-linecap:round; stroke-linejoin:round; stroke-width:4; stroke-opacity:1; fill:none" points="1322.49,1412.42 1322.49,1423.18 1342.72,1423.18 1342.72,1412.42 1322.49,1412.42 "/>
<circle clip-path="url(#clip292)" style="fill:#e26f46; stroke:none; fill-opacity:0" cx="1029.19" cy="1419.59" r="2"/>
<circle clip-path="url(#clip292)" style="fill:#e26f46; stroke:none; fill-opacity:0" cx="1049.41" cy="1408.83" r="2"/>
<circle clip-path="url(#clip292)" style="fill:#e26f46; stroke:none; fill-opacity:0" cx="1069.64" cy="1383.71" r="2"/>
<circle clip-path="url(#clip292)" style="fill:#e26f46; stroke:none; fill-opacity:0" cx="1089.87" cy="1272.48" r="2"/>
<circle clip-path="url(#clip292)" style="fill:#e26f46; stroke:none; fill-opacity:0" cx="1110.1" cy="1204.3" r="2"/>
<circle clip-path="url(#clip292)" style="fill:#e26f46; stroke:none; fill-opacity:0" cx="1130.33" cy="798.844" r="2"/>
<circle clip-path="url(#clip292)" style="fill:#e26f46; stroke:none; fill-opacity:0" cx="1150.55" cy="572.792" r="2"/>
<circle clip-path="url(#clip292)" style="fill:#e26f46; stroke:none; fill-opacity:0" cx="1170.78" cy="149.392" r="2"/>
<circle clip-path="url(#clip292)" style="fill:#e26f46; stroke:none; fill-opacity:0" cx="1191.01" cy="221.155" r="2"/>
<circle clip-path="url(#clip292)" style="fill:#e26f46; stroke:none; fill-opacity:0" cx="1211.24" cy="285.741" r="2"/>
<circle clip-path="url(#clip292)" style="fill:#e26f46; stroke:none; fill-opacity:0" cx="1231.46" cy="637.378" r="2"/>
<circle clip-path="url(#clip292)" style="fill:#e26f46; stroke:none; fill-opacity:0" cx="1251.69" cy="949.546" r="2"/>
<circle clip-path="url(#clip292)" style="fill:#e26f46; stroke:none; fill-opacity:0" cx="1271.92" cy="1161.25" r="2"/>
<circle clip-path="url(#clip292)" style="fill:#e26f46; stroke:none; fill-opacity:0" cx="1292.15" cy="1315.54" r="2"/>
<circle clip-path="url(#clip292)" style="fill:#e26f46; stroke:none; fill-opacity:0" cx="1312.38" cy="1401.65" r="2"/>
<circle clip-path="url(#clip292)" style="fill:#e26f46; stroke:none; fill-opacity:0" cx="1332.6" cy="1412.42" r="2"/>
<polyline clip-path="url(#clip292)" style="stroke:#3da44d; stroke-linecap:round; stroke-linejoin:round; stroke-width:16; stroke-opacity:1; fill:none" points="1188.53,2696.97 1188.53,-1124.4 "/>
<polyline clip-path="url(#clip292)" style="stroke:#c271d2; stroke-linecap:round; stroke-linejoin:round; stroke-width:4; stroke-opacity:1; fill:none" points="536.118,2696.97 536.118,-1124.4 "/>
<polyline clip-path="url(#clip292)" style="stroke:#c271d2; stroke-linecap:round; stroke-linejoin:round; stroke-width:4; stroke-opacity:1; fill:none" points="1940.47,2696.97 1940.47,-1124.4 "/>
<polyline clip-path="url(#clip292)" style="stroke:#ac8d18; stroke-linecap:round; stroke-linejoin:round; stroke-width:4; stroke-opacity:1; fill:none" points="1236.54,2696.97 1236.54,-1124.4 "/>
<path clip-path="url(#clip290)" d="M1465.71 502.892 L2280.03 502.892 L2280.03 191.852 L1465.71 191.852  Z" fill="#ffffff" fill-rule="evenodd" fill-opacity="1"/>
<polyline clip-path="url(#clip290)" style="stroke:#000000; stroke-linecap:round; stroke-linejoin:round; stroke-width:4; stroke-opacity:1; fill:none" points="1465.71,502.892 2280.03,502.892 2280.03,191.852 1465.71,191.852 1465.71,502.892 "/>
<path clip-path="url(#clip290)" d="M1489.95 264.428 L1635.41 264.428 L1635.41 222.956 L1489.95 222.956 L1489.95 264.428  Z" fill="#009af9" fill-rule="evenodd" fill-opacity="1"/>
<polyline clip-path="url(#clip290)" style="stroke:#000000; stroke-linecap:round; stroke-linejoin:round; stroke-width:4; stroke-opacity:1; fill:none" points="1489.95,264.428 1635.41,264.428 1635.41,222.956 1489.95,222.956 1489.95,264.428 "/>
<path clip-path="url(#clip290)" d="M1663.93 257.083 L1663.93 270.833 L1659.65 270.833 L1659.65 235.046 L1663.93 235.046 L1663.93 238.981 Q1665.28 236.666 1667.31 235.555 Q1669.37 234.421 1672.22 234.421 Q1676.94 234.421 1679.88 238.171 Q1682.85 241.921 1682.85 248.032 Q1682.85 254.143 1679.88 257.893 Q1676.94 261.643 1672.22 261.643 Q1669.37 261.643 1667.31 260.532 Q1665.28 259.398 1663.93 257.083 M1678.42 248.032 Q1678.42 243.333 1676.48 240.671 Q1674.56 237.986 1671.18 237.986 Q1667.8 237.986 1665.86 240.671 Q1663.93 243.333 1663.93 248.032 Q1663.93 252.731 1665.86 255.416 Q1667.8 258.078 1671.18 258.078 Q1674.56 258.078 1676.48 255.416 Q1678.42 252.731 1678.42 248.032 Z" fill="#000000" fill-rule="nonzero" fill-opacity="1" /><path clip-path="url(#clip290)" d="M1722.04 238.981 L1722.04 224.953 L1726.29 224.953 L1726.29 260.972 L1722.04 260.972 L1722.04 257.083 Q1720.69 259.398 1718.63 260.532 Q1716.6 261.643 1713.73 261.643 Q1709.03 261.643 1706.06 257.893 Q1703.12 254.143 1703.12 248.032 Q1703.12 241.921 1706.06 238.171 Q1709.03 234.421 1713.73 234.421 Q1716.6 234.421 1718.63 235.555 Q1720.69 236.666 1722.04 238.981 M1707.52 248.032 Q1707.52 252.731 1709.44 255.416 Q1711.39 258.078 1714.77 258.078 Q1718.15 258.078 1720.09 255.416 Q1722.04 252.731 1722.04 248.032 Q1722.04 243.333 1720.09 240.671 Q1718.15 237.986 1714.77 237.986 Q1711.39 237.986 1709.44 240.671 Q1707.52 243.333 1707.52 248.032 Z" fill="#000000" fill-rule="nonzero" fill-opacity="1" /><path clip-path="url(#clip290)" d="M1757.24 246.944 L1757.24 249.027 L1737.66 249.027 Q1737.94 253.425 1740.3 255.74 Q1742.68 258.032 1746.92 258.032 Q1749.37 258.032 1751.66 257.43 Q1753.98 256.828 1756.25 255.625 L1756.25 259.652 Q1753.96 260.624 1751.55 261.134 Q1749.14 261.643 1746.66 261.643 Q1740.46 261.643 1736.83 258.032 Q1733.22 254.421 1733.22 248.263 Q1733.22 241.898 1736.64 238.171 Q1740.09 234.421 1745.92 234.421 Q1751.16 234.421 1754.19 237.801 Q1757.24 241.157 1757.24 246.944 M1752.98 245.694 Q1752.94 242.199 1751.02 240.115 Q1749.12 238.032 1745.97 238.032 Q1742.41 238.032 1740.25 240.046 Q1738.12 242.06 1737.8 245.717 L1752.98 245.694 Z" fill="#000000" fill-rule="nonzero" fill-opacity="1" /><path clip-path="url(#clip290)" d="M1776.02 247.939 Q1770.85 247.939 1768.86 249.12 Q1766.87 250.3 1766.87 253.148 Q1766.87 255.416 1768.35 256.759 Q1769.86 258.078 1772.43 258.078 Q1775.97 258.078 1778.1 255.578 Q1780.25 253.055 1780.25 248.888 L1780.25 247.939 L1776.02 247.939 M1784.51 246.18 L1784.51 260.972 L1780.25 260.972 L1780.25 257.037 Q1778.79 259.398 1776.62 260.532 Q1774.44 261.643 1771.29 261.643 Q1767.31 261.643 1764.95 259.421 Q1762.61 257.175 1762.61 253.425 Q1762.61 249.05 1765.53 246.828 Q1768.47 244.606 1774.28 244.606 L1780.25 244.606 L1780.25 244.189 Q1780.25 241.25 1778.31 239.652 Q1776.39 238.032 1772.89 238.032 Q1770.67 238.032 1768.56 238.564 Q1766.46 239.097 1764.51 240.162 L1764.51 236.226 Q1766.85 235.324 1769.05 234.884 Q1771.25 234.421 1773.33 234.421 Q1778.96 234.421 1781.73 237.338 Q1784.51 240.254 1784.51 246.18 Z" fill="#000000" fill-rule="nonzero" fill-opacity="1" /><path clip-path="url(#clip290)" d="M1793.29 224.953 L1797.54 224.953 L1797.54 260.972 L1793.29 260.972 L1793.29 224.953 Z" fill="#000000" fill-rule="nonzero" fill-opacity="1" /><path clip-path="url(#clip290)" d="M1806.46 235.046 L1810.72 235.046 L1810.72 260.972 L1806.46 260.972 L1806.46 235.046 M1806.46 224.953 L1810.72 224.953 L1810.72 230.347 L1806.46 230.347 L1806.46 224.953 Z" fill="#000000" fill-rule="nonzero" fill-opacity="1" /><path clip-path="url(#clip290)" d="M1836.69 247.708 Q1836.69 243.078 1834.77 240.532 Q1832.87 237.986 1829.42 237.986 Q1825.99 237.986 1824.07 240.532 Q1822.17 243.078 1822.17 247.708 Q1822.17 252.314 1824.07 254.861 Q1825.99 257.407 1829.42 257.407 Q1832.87 257.407 1834.77 254.861 Q1836.69 252.314 1836.69 247.708 M1840.95 257.754 Q1840.95 264.374 1838.01 267.592 Q1835.07 270.833 1829 270.833 Q1826.76 270.833 1824.77 270.486 Q1822.78 270.161 1820.9 269.467 L1820.9 265.324 Q1822.78 266.342 1824.6 266.828 Q1826.43 267.314 1828.33 267.314 Q1832.52 267.314 1834.6 265.115 Q1836.69 262.939 1836.69 258.518 L1836.69 256.412 Q1835.37 258.703 1833.31 259.837 Q1831.25 260.972 1828.38 260.972 Q1823.61 260.972 1820.69 257.337 Q1817.78 253.703 1817.78 247.708 Q1817.78 241.689 1820.69 238.055 Q1823.61 234.421 1828.38 234.421 Q1831.25 234.421 1833.31 235.555 Q1835.37 236.689 1836.69 238.981 L1836.69 235.046 L1840.95 235.046 L1840.95 257.754 Z" fill="#000000" fill-rule="nonzero" fill-opacity="1" /><path clip-path="url(#clip290)" d="M1871.27 245.324 L1871.27 260.972 L1867.01 260.972 L1867.01 245.463 Q1867.01 241.782 1865.58 239.953 Q1864.14 238.125 1861.27 238.125 Q1857.82 238.125 1855.83 240.324 Q1853.84 242.523 1853.84 246.319 L1853.84 260.972 L1849.56 260.972 L1849.56 235.046 L1853.84 235.046 L1853.84 239.074 Q1855.37 236.736 1857.43 235.578 Q1859.51 234.421 1862.22 234.421 Q1866.69 234.421 1868.98 237.199 Q1871.27 239.953 1871.27 245.324 Z" fill="#000000" fill-rule="nonzero" fill-opacity="1" /><path clip-path="url(#clip290)" d="M1901.94 246.944 L1901.94 249.027 L1882.36 249.027 Q1882.64 253.425 1885 255.74 Q1887.38 258.032 1891.62 258.032 Q1894.07 258.032 1896.36 257.43 Q1898.68 256.828 1900.95 255.625 L1900.95 259.652 Q1898.65 260.624 1896.25 261.134 Q1893.84 261.643 1891.36 261.643 Q1885.16 261.643 1881.53 258.032 Q1877.91 254.421 1877.91 248.263 Q1877.91 241.898 1881.34 238.171 Q1884.79 234.421 1890.62 234.421 Q1895.85 234.421 1898.89 237.801 Q1901.94 241.157 1901.94 246.944 M1897.68 245.694 Q1897.64 242.199 1895.72 240.115 Q1893.82 238.032 1890.67 238.032 Q1887.1 238.032 1884.95 240.046 Q1882.82 242.06 1882.5 245.717 L1897.68 245.694 Z" fill="#000000" fill-rule="nonzero" fill-opacity="1" /><path clip-path="url(#clip290)" d="M1925.99 238.981 L1925.99 224.953 L1930.25 224.953 L1930.25 260.972 L1925.99 260.972 L1925.99 257.083 Q1924.65 259.398 1922.59 260.532 Q1920.55 261.643 1917.68 261.643 Q1912.98 261.643 1910.02 257.893 Q1907.08 254.143 1907.08 248.032 Q1907.08 241.921 1910.02 238.171 Q1912.98 234.421 1917.68 234.421 Q1920.55 234.421 1922.59 235.555 Q1924.65 236.666 1925.99 238.981 M1911.48 248.032 Q1911.48 252.731 1913.4 255.416 Q1915.34 258.078 1918.72 258.078 Q1922.1 258.078 1924.05 255.416 Q1925.99 252.731 1925.99 248.032 Q1925.99 243.333 1924.05 240.671 Q1922.1 237.986 1918.72 237.986 Q1915.34 237.986 1913.4 240.671 Q1911.48 243.333 1911.48 248.032 Z" fill="#000000" fill-rule="nonzero" fill-opacity="1" /><path clip-path="url(#clip290)" d="M1489.95 316.268 L1635.41 316.268 L1635.41 274.796 L1489.95 274.796 L1489.95 316.268  Z" fill="#e26f46" fill-rule="evenodd" fill-opacity="1"/>
<polyline clip-path="url(#clip290)" style="stroke:#000000; stroke-linecap:round; stroke-linejoin:round; stroke-width:4; stroke-opacity:1; fill:none" points="1489.95,316.268 1635.41,316.268 1635.41,274.796 1489.95,274.796 1489.95,316.268 "/>
<path clip-path="url(#clip290)" d="M1663.93 308.923 L1663.93 322.673 L1659.65 322.673 L1659.65 286.886 L1663.93 286.886 L1663.93 290.821 Q1665.28 288.506 1667.31 287.395 Q1669.37 286.261 1672.22 286.261 Q1676.94 286.261 1679.88 290.011 Q1682.85 293.761 1682.85 299.872 Q1682.85 305.983 1679.88 309.733 Q1676.94 313.483 1672.22 313.483 Q1669.37 313.483 1667.31 312.372 Q1665.28 311.238 1663.93 308.923 M1678.42 299.872 Q1678.42 295.173 1676.48 292.511 Q1674.56 289.826 1671.18 289.826 Q1667.8 289.826 1665.86 292.511 Q1663.93 295.173 1663.93 299.872 Q1663.93 304.571 1665.86 307.256 Q1667.8 309.918 1671.18 309.918 Q1674.56 309.918 1676.48 307.256 Q1678.42 304.571 1678.42 299.872 Z" fill="#000000" fill-rule="nonzero" fill-opacity="1" /><polyline clip-path="url(#clip290)" style="stroke:#3da44d; stroke-linecap:round; stroke-linejoin:round; stroke-width:16; stroke-opacity:1; fill:none" points="1489.95,347.372 1635.41,347.372 "/>
<path clip-path="url(#clip290)" d="M1663.93 360.763 L1663.93 374.513 L1659.65 374.513 L1659.65 338.726 L1663.93 338.726 L1663.93 342.661 Q1665.28 340.346 1667.31 339.235 Q1669.37 338.101 1672.22 338.101 Q1676.94 338.101 1679.88 341.851 Q1682.85 345.601 1682.85 351.712 Q1682.85 357.823 1679.88 361.573 Q1676.94 365.323 1672.22 365.323 Q1669.37 365.323 1667.31 364.212 Q1665.28 363.078 1663.93 360.763 M1678.42 351.712 Q1678.42 347.013 1676.48 344.351 Q1674.56 341.666 1671.18 341.666 Q1667.8 341.666 1665.86 344.351 Q1663.93 347.013 1663.93 351.712 Q1663.93 356.411 1665.86 359.096 Q1667.8 361.758 1671.18 361.758 Q1674.56 361.758 1676.48 359.096 Q1678.42 356.411 1678.42 351.712 Z" fill="#000000" fill-rule="nonzero" fill-opacity="1" /><path clip-path="url(#clip290)" d="M1725.16 343.703 Q1726.76 340.832 1728.98 339.467 Q1731.2 338.101 1734.21 338.101 Q1738.26 338.101 1740.46 340.948 Q1742.66 343.772 1742.66 349.004 L1742.66 364.652 L1738.38 364.652 L1738.38 349.143 Q1738.38 345.416 1737.06 343.61 Q1735.74 341.805 1733.03 341.805 Q1729.72 341.805 1727.8 344.004 Q1725.88 346.203 1725.88 349.999 L1725.88 364.652 L1721.6 364.652 L1721.6 349.143 Q1721.6 345.393 1720.28 343.61 Q1718.96 341.805 1716.2 341.805 Q1712.94 341.805 1711.02 344.027 Q1709.1 346.226 1709.1 349.999 L1709.1 364.652 L1704.81 364.652 L1704.81 338.726 L1709.1 338.726 L1709.1 342.754 Q1710.55 340.369 1712.59 339.235 Q1714.63 338.101 1717.43 338.101 Q1720.25 338.101 1722.22 339.536 Q1724.21 340.971 1725.16 343.703 Z" fill="#000000" fill-rule="nonzero" fill-opacity="1" /><path clip-path="url(#clip290)" d="M1773.33 350.624 L1773.33 352.707 L1753.75 352.707 Q1754.03 357.105 1756.39 359.42 Q1758.77 361.712 1763.01 361.712 Q1765.46 361.712 1767.75 361.11 Q1770.07 360.508 1772.34 359.305 L1772.34 363.332 Q1770.04 364.304 1767.64 364.814 Q1765.23 365.323 1762.75 365.323 Q1756.55 365.323 1752.91 361.712 Q1749.3 358.101 1749.3 351.943 Q1749.3 345.578 1752.73 341.851 Q1756.18 338.101 1762.01 338.101 Q1767.24 338.101 1770.28 341.481 Q1773.33 344.837 1773.33 350.624 M1769.07 349.374 Q1769.03 345.879 1767.1 343.795 Q1765.21 341.712 1762.06 341.712 Q1758.49 341.712 1756.34 343.726 Q1754.21 345.74 1753.89 349.397 L1769.07 349.374 Z" fill="#000000" fill-rule="nonzero" fill-opacity="1" /><path clip-path="url(#clip290)" d="M1792.1 351.619 Q1786.94 351.619 1784.95 352.8 Q1782.96 353.98 1782.96 356.828 Q1782.96 359.096 1784.44 360.439 Q1785.95 361.758 1788.52 361.758 Q1792.06 361.758 1794.19 359.258 Q1796.34 356.735 1796.34 352.568 L1796.34 351.619 L1792.1 351.619 M1800.6 349.86 L1800.6 364.652 L1796.34 364.652 L1796.34 360.717 Q1794.88 363.078 1792.71 364.212 Q1790.53 365.323 1787.38 365.323 Q1783.4 365.323 1781.04 363.101 Q1778.7 360.855 1778.7 357.105 Q1778.7 352.73 1781.62 350.508 Q1784.56 348.286 1790.37 348.286 L1796.34 348.286 L1796.34 347.869 Q1796.34 344.93 1794.4 343.332 Q1792.47 341.712 1788.98 341.712 Q1786.76 341.712 1784.65 342.244 Q1782.54 342.777 1780.6 343.842 L1780.6 339.906 Q1782.94 339.004 1785.14 338.564 Q1787.34 338.101 1789.42 338.101 Q1795.04 338.101 1797.82 341.018 Q1800.6 343.934 1800.6 349.86 Z" fill="#000000" fill-rule="nonzero" fill-opacity="1" /><path clip-path="url(#clip290)" d="M1830.92 349.004 L1830.92 364.652 L1826.66 364.652 L1826.66 349.143 Q1826.66 345.462 1825.23 343.633 Q1823.79 341.805 1820.92 341.805 Q1817.47 341.805 1815.48 344.004 Q1813.49 346.203 1813.49 349.999 L1813.49 364.652 L1809.21 364.652 L1809.21 338.726 L1813.49 338.726 L1813.49 342.754 Q1815.02 340.416 1817.08 339.258 Q1819.16 338.101 1821.87 338.101 Q1826.34 338.101 1828.63 340.879 Q1830.92 343.633 1830.92 349.004 Z" fill="#000000" fill-rule="nonzero" fill-opacity="1" /><polyline clip-path="url(#clip290)" style="stroke:#c271d2; stroke-linecap:round; stroke-linejoin:round; stroke-width:4; stroke-opacity:1; fill:none" points="1489.95,399.212 1635.41,399.212 "/>
<path clip-path="url(#clip290)" d="M1678.08 391.33 L1678.08 395.358 Q1676.27 394.432 1674.33 393.969 Q1672.38 393.506 1670.3 393.506 Q1667.13 393.506 1665.53 394.478 Q1663.96 395.45 1663.96 397.395 Q1663.96 398.876 1665.09 399.733 Q1666.23 400.566 1669.65 401.33 L1671.11 401.654 Q1675.65 402.626 1677.54 404.408 Q1679.47 406.168 1679.47 409.339 Q1679.47 412.95 1676.6 415.057 Q1673.75 417.163 1668.75 417.163 Q1666.67 417.163 1664.4 416.746 Q1662.15 416.353 1659.65 415.543 L1659.65 411.145 Q1662.01 412.371 1664.3 412.996 Q1666.6 413.598 1668.84 413.598 Q1671.85 413.598 1673.47 412.58 Q1675.09 411.538 1675.09 409.663 Q1675.09 407.927 1673.91 407.001 Q1672.75 406.075 1668.8 405.219 L1667.31 404.871 Q1663.36 404.038 1661.6 402.325 Q1659.84 400.589 1659.84 397.58 Q1659.84 393.922 1662.43 391.932 Q1665.02 389.941 1669.79 389.941 Q1672.15 389.941 1674.23 390.288 Q1676.32 390.635 1678.08 391.33 Z" fill="#000000" fill-rule="nonzero" fill-opacity="1" /><path clip-path="url(#clip290)" d="M1698.03 403.459 Q1692.87 403.459 1690.88 404.64 Q1688.89 405.82 1688.89 408.668 Q1688.89 410.936 1690.37 412.279 Q1691.87 413.598 1694.44 413.598 Q1697.98 413.598 1700.11 411.098 Q1702.27 408.575 1702.27 404.408 L1702.27 403.459 L1698.03 403.459 M1706.53 401.7 L1706.53 416.492 L1702.27 416.492 L1702.27 412.557 Q1700.81 414.918 1698.63 416.052 Q1696.46 417.163 1693.31 417.163 Q1689.33 417.163 1686.97 414.941 Q1684.63 412.695 1684.63 408.945 Q1684.63 404.57 1687.54 402.348 Q1690.48 400.126 1696.29 400.126 L1702.27 400.126 L1702.27 399.709 Q1702.27 396.77 1700.32 395.172 Q1698.4 393.552 1694.91 393.552 Q1692.68 393.552 1690.58 394.084 Q1688.47 394.617 1686.53 395.682 L1686.53 391.746 Q1688.86 390.844 1691.06 390.404 Q1693.26 389.941 1695.35 389.941 Q1700.97 389.941 1703.75 392.858 Q1706.53 395.774 1706.53 401.7 Z" fill="#000000" fill-rule="nonzero" fill-opacity="1" /><path clip-path="url(#clip290)" d="M1735.48 395.543 Q1737.08 392.672 1739.3 391.307 Q1741.53 389.941 1744.54 389.941 Q1748.59 389.941 1750.79 392.788 Q1752.98 395.612 1752.98 400.844 L1752.98 416.492 L1748.7 416.492 L1748.7 400.983 Q1748.7 397.256 1747.38 395.45 Q1746.06 393.645 1743.35 393.645 Q1740.04 393.645 1738.12 395.844 Q1736.2 398.043 1736.2 401.839 L1736.2 416.492 L1731.92 416.492 L1731.92 400.983 Q1731.92 397.233 1730.6 395.45 Q1729.28 393.645 1726.53 393.645 Q1723.26 393.645 1721.34 395.867 Q1719.42 398.066 1719.42 401.839 L1719.42 416.492 L1715.14 416.492 L1715.14 390.566 L1719.42 390.566 L1719.42 394.594 Q1720.88 392.209 1722.92 391.075 Q1724.95 389.941 1727.75 389.941 Q1730.58 389.941 1732.54 391.376 Q1734.54 392.811 1735.48 395.543 Z" fill="#000000" fill-rule="nonzero" fill-opacity="1" /><path clip-path="url(#clip290)" d="M1765.6 412.603 L1765.6 426.353 L1761.32 426.353 L1761.32 390.566 L1765.6 390.566 L1765.6 394.501 Q1766.94 392.186 1768.98 391.075 Q1771.04 389.941 1773.89 389.941 Q1778.61 389.941 1781.55 393.691 Q1784.51 397.441 1784.51 403.552 Q1784.51 409.663 1781.55 413.413 Q1778.61 417.163 1773.89 417.163 Q1771.04 417.163 1768.98 416.052 Q1766.94 414.918 1765.6 412.603 M1780.09 403.552 Q1780.09 398.853 1778.15 396.191 Q1776.23 393.506 1772.85 393.506 Q1769.47 393.506 1767.52 396.191 Q1765.6 398.853 1765.6 403.552 Q1765.6 408.251 1767.52 410.936 Q1769.47 413.598 1772.85 413.598 Q1776.23 413.598 1778.15 410.936 Q1780.09 408.251 1780.09 403.552 Z" fill="#000000" fill-rule="nonzero" fill-opacity="1" /><path clip-path="url(#clip290)" d="M1791.57 380.473 L1795.83 380.473 L1795.83 416.492 L1791.57 416.492 L1791.57 380.473 Z" fill="#000000" fill-rule="nonzero" fill-opacity="1" /><path clip-path="url(#clip290)" d="M1826.92 402.464 L1826.92 404.547 L1807.34 404.547 Q1807.61 408.945 1809.97 411.26 Q1812.36 413.552 1816.6 413.552 Q1819.05 413.552 1821.34 412.95 Q1823.66 412.348 1825.92 411.145 L1825.92 415.172 Q1823.63 416.144 1821.22 416.654 Q1818.82 417.163 1816.34 417.163 Q1810.14 417.163 1806.5 413.552 Q1802.89 409.941 1802.89 403.783 Q1802.89 397.418 1806.32 393.691 Q1809.77 389.941 1815.6 389.941 Q1820.83 389.941 1823.86 393.321 Q1826.92 396.677 1826.92 402.464 M1822.66 401.214 Q1822.61 397.719 1820.69 395.635 Q1818.79 393.552 1815.65 393.552 Q1812.08 393.552 1809.93 395.566 Q1807.8 397.58 1807.47 401.237 L1822.66 401.214 Z" fill="#000000" fill-rule="nonzero" fill-opacity="1" /><path clip-path="url(#clip290)" d="M1853.1 412.603 L1853.1 426.353 L1848.82 426.353 L1848.82 390.566 L1853.1 390.566 L1853.1 394.501 Q1854.44 392.186 1856.48 391.075 Q1858.54 389.941 1861.39 389.941 Q1866.11 389.941 1869.05 393.691 Q1872.01 397.441 1872.01 403.552 Q1872.01 409.663 1869.05 413.413 Q1866.11 417.163 1861.39 417.163 Q1858.54 417.163 1856.48 416.052 Q1854.44 414.918 1853.1 412.603 M1867.59 403.552 Q1867.59 398.853 1865.65 396.191 Q1863.72 393.506 1860.34 393.506 Q1856.97 393.506 1855.02 396.191 Q1853.1 398.853 1853.1 403.552 Q1853.1 408.251 1855.02 410.936 Q1856.97 413.598 1860.34 413.598 Q1863.72 413.598 1865.65 410.936 Q1867.59 408.251 1867.59 403.552 Z" fill="#000000" fill-rule="nonzero" fill-opacity="1" /><path clip-path="url(#clip290)" d="M1920.21 384.594 L1920.21 389.524 Q1917.84 387.325 1915.16 386.237 Q1912.5 385.149 1909.49 385.149 Q1903.56 385.149 1900.41 388.784 Q1897.27 392.395 1897.27 399.246 Q1897.27 406.075 1900.41 409.709 Q1903.56 413.32 1909.49 413.32 Q1912.5 413.32 1915.16 412.232 Q1917.84 411.145 1920.21 408.945 L1920.21 413.83 Q1917.75 415.496 1915 416.33 Q1912.27 417.163 1909.21 417.163 Q1901.36 417.163 1896.85 412.371 Q1892.34 407.557 1892.34 399.246 Q1892.34 390.913 1896.85 386.122 Q1901.36 381.307 1909.21 381.307 Q1912.31 381.307 1915.04 382.14 Q1917.8 382.95 1920.21 384.594 Z" fill="#000000" fill-rule="nonzero" fill-opacity="1" /><path clip-path="url(#clip290)" d="M1927.43 381.932 L1932.1 381.932 L1932.1 416.492 L1927.43 416.492 L1927.43 381.932 Z" fill="#000000" fill-rule="nonzero" fill-opacity="1" /><path clip-path="url(#clip290)" d="M1966.52 380.52 Q1963.42 385.844 1961.92 391.052 Q1960.41 396.26 1960.41 401.608 Q1960.41 406.955 1961.92 412.209 Q1963.45 417.441 1966.52 422.742 L1962.82 422.742 Q1959.35 417.302 1957.61 412.047 Q1955.9 406.793 1955.9 401.608 Q1955.9 396.446 1957.61 391.214 Q1959.33 385.983 1962.82 380.52 L1966.52 380.52 Z" fill="#000000" fill-rule="nonzero" fill-opacity="1" /><path clip-path="url(#clip290)" d="M1975.53 415.774 L1975.53 411.515 Q1977.29 412.348 1979.09 412.788 Q1980.9 413.228 1982.64 413.228 Q1987.27 413.228 1989.7 410.126 Q1992.15 407.001 1992.5 400.658 Q1991.15 402.649 1989.09 403.714 Q1987.03 404.779 1984.53 404.779 Q1979.35 404.779 1976.32 401.654 Q1973.31 398.506 1973.31 393.066 Q1973.31 387.742 1976.46 384.524 Q1979.6 381.307 1984.84 381.307 Q1990.83 381.307 1993.98 385.913 Q1997.15 390.496 1997.15 399.246 Q1997.15 407.418 1993.26 412.302 Q1989.4 417.163 1982.84 417.163 Q1981.09 417.163 1979.28 416.816 Q1977.47 416.469 1975.53 415.774 M1984.84 401.121 Q1987.98 401.121 1989.81 398.969 Q1991.66 396.816 1991.66 393.066 Q1991.66 389.339 1989.81 387.186 Q1987.98 385.01 1984.84 385.01 Q1981.69 385.01 1979.84 387.186 Q1978.01 389.339 1978.01 393.066 Q1978.01 396.816 1979.84 398.969 Q1981.69 401.121 1984.84 401.121 Z" fill="#000000" fill-rule="nonzero" fill-opacity="1" /><path clip-path="url(#clip290)" d="M2005.69 415.774 L2005.69 411.515 Q2007.45 412.348 2009.26 412.788 Q2011.06 413.228 2012.8 413.228 Q2017.43 413.228 2019.86 410.126 Q2022.31 407.001 2022.66 400.658 Q2021.32 402.649 2019.26 403.714 Q2017.2 404.779 2014.7 404.779 Q2009.51 404.779 2006.48 401.654 Q2003.47 398.506 2003.47 393.066 Q2003.47 387.742 2006.62 384.524 Q2009.77 381.307 2015 381.307 Q2020.99 381.307 2024.14 385.913 Q2027.31 390.496 2027.31 399.246 Q2027.31 407.418 2023.42 412.302 Q2019.56 417.163 2013.01 417.163 Q2011.25 417.163 2009.44 416.816 Q2007.64 416.469 2005.69 415.774 M2015 401.121 Q2018.15 401.121 2019.97 398.969 Q2021.83 396.816 2021.83 393.066 Q2021.83 389.339 2019.97 387.186 Q2018.15 385.01 2015 385.01 Q2011.85 385.01 2010 387.186 Q2008.17 389.339 2008.17 393.066 Q2008.17 396.816 2010 398.969 Q2011.85 401.121 2015 401.121 Z" fill="#000000" fill-rule="nonzero" fill-opacity="1" /><path clip-path="url(#clip290)" d="M2035.71 410.612 L2040.6 410.612 L2040.6 416.492 L2035.71 416.492 L2035.71 410.612 Z" fill="#000000" fill-rule="nonzero" fill-opacity="1" /><path clip-path="url(#clip290)" d="M2060.78 400.08 Q2057.45 400.08 2055.53 401.862 Q2053.63 403.645 2053.63 406.77 Q2053.63 409.895 2055.53 411.677 Q2057.45 413.459 2060.78 413.459 Q2064.12 413.459 2066.04 411.677 Q2067.96 409.871 2067.96 406.77 Q2067.96 403.645 2066.04 401.862 Q2064.14 400.08 2060.78 400.08 M2056.11 398.089 Q2053.1 397.348 2051.41 395.288 Q2049.74 393.228 2049.74 390.265 Q2049.74 386.122 2052.68 383.714 Q2055.64 381.307 2060.78 381.307 Q2065.95 381.307 2068.89 383.714 Q2071.83 386.122 2071.83 390.265 Q2071.83 393.228 2070.14 395.288 Q2068.47 397.348 2065.48 398.089 Q2068.86 398.876 2070.74 401.168 Q2072.64 403.459 2072.64 406.77 Q2072.64 411.793 2069.56 414.478 Q2066.5 417.163 2060.78 417.163 Q2055.07 417.163 2051.99 414.478 Q2048.93 411.793 2048.93 406.77 Q2048.93 403.459 2050.83 401.168 Q2052.73 398.876 2056.11 398.089 M2054.39 390.705 Q2054.39 393.39 2056.06 394.895 Q2057.75 396.399 2060.78 396.399 Q2063.79 396.399 2065.48 394.895 Q2067.2 393.39 2067.2 390.705 Q2067.2 388.02 2065.48 386.515 Q2063.79 385.01 2060.78 385.01 Q2057.75 385.01 2056.06 386.515 Q2054.39 388.02 2054.39 390.705 Z" fill="#000000" fill-rule="nonzero" fill-opacity="1" /><path clip-path="url(#clip290)" d="M2110.34 401.283 Q2108.33 401.283 2107.17 402.996 Q2106.04 404.709 2106.04 407.765 Q2106.04 410.774 2107.17 412.51 Q2108.33 414.223 2110.34 414.223 Q2112.31 414.223 2113.45 412.51 Q2114.6 410.774 2114.6 407.765 Q2114.6 404.733 2113.45 403.02 Q2112.31 401.283 2110.34 401.283 M2110.34 398.344 Q2114 398.344 2116.15 400.89 Q2118.31 403.436 2118.31 407.765 Q2118.31 412.094 2116.13 414.64 Q2113.98 417.163 2110.34 417.163 Q2106.64 417.163 2104.49 414.64 Q2102.33 412.094 2102.33 407.765 Q2102.33 403.413 2104.49 400.89 Q2106.66 398.344 2110.34 398.344 M2086.45 384.247 Q2084.46 384.247 2083.31 385.983 Q2082.17 387.696 2082.17 390.705 Q2082.17 393.76 2083.31 395.473 Q2084.44 397.186 2086.45 397.186 Q2088.47 397.186 2089.6 395.473 Q2090.76 393.76 2090.76 390.705 Q2090.76 387.719 2089.6 385.983 Q2088.45 384.247 2086.45 384.247 M2107.36 381.307 L2111.06 381.307 L2089.44 417.163 L2085.74 417.163 L2107.36 381.307 M2086.45 381.307 Q2090.11 381.307 2092.29 383.853 Q2094.46 386.376 2094.46 390.705 Q2094.46 395.08 2092.29 397.603 Q2090.14 400.126 2086.45 400.126 Q2082.77 400.126 2080.62 397.603 Q2078.49 395.057 2078.49 390.705 Q2078.49 386.399 2080.64 383.853 Q2082.8 381.307 2086.45 381.307 Z" fill="#000000" fill-rule="nonzero" fill-opacity="1" /><path clip-path="url(#clip290)" d="M2140.46 390.566 L2144.72 390.566 L2144.72 416.492 L2140.46 416.492 L2140.46 390.566 M2140.46 380.473 L2144.72 380.473 L2144.72 385.867 L2140.46 385.867 L2140.46 380.473 Z" fill="#000000" fill-rule="nonzero" fill-opacity="1" /><path clip-path="url(#clip290)" d="M2175.18 400.844 L2175.18 416.492 L2170.92 416.492 L2170.92 400.983 Q2170.92 397.302 2169.49 395.473 Q2168.05 393.645 2165.18 393.645 Q2161.73 393.645 2159.74 395.844 Q2157.75 398.043 2157.75 401.839 L2157.75 416.492 L2153.47 416.492 L2153.47 390.566 L2157.75 390.566 L2157.75 394.594 Q2159.28 392.256 2161.34 391.098 Q2163.42 389.941 2166.13 389.941 Q2170.6 389.941 2172.89 392.719 Q2175.18 395.473 2175.18 400.844 Z" fill="#000000" fill-rule="nonzero" fill-opacity="1" /><path clip-path="url(#clip290)" d="M2224.81 384.594 L2224.81 389.524 Q2222.45 387.325 2219.76 386.237 Q2217.1 385.149 2214.09 385.149 Q2208.17 385.149 2205.02 388.784 Q2201.87 392.395 2201.87 399.246 Q2201.87 406.075 2205.02 409.709 Q2208.17 413.32 2214.09 413.32 Q2217.1 413.32 2219.76 412.232 Q2222.45 411.145 2224.81 408.945 L2224.81 413.83 Q2222.36 415.496 2219.6 416.33 Q2216.87 417.163 2213.82 417.163 Q2205.97 417.163 2201.45 412.371 Q2196.94 407.557 2196.94 399.246 Q2196.94 390.913 2201.45 386.122 Q2205.97 381.307 2213.82 381.307 Q2216.92 381.307 2219.65 382.14 Q2222.4 382.95 2224.81 384.594 Z" fill="#000000" fill-rule="nonzero" fill-opacity="1" /><path clip-path="url(#clip290)" d="M2232.03 381.932 L2236.71 381.932 L2236.71 416.492 L2232.03 416.492 L2232.03 381.932 Z" fill="#000000" fill-rule="nonzero" fill-opacity="1" /><path clip-path="url(#clip290)" d="M2245.16 380.52 L2248.86 380.52 Q2252.33 385.983 2254.05 391.214 Q2255.78 396.446 2255.78 401.608 Q2255.78 406.793 2254.05 412.047 Q2252.33 417.302 2248.86 422.742 L2245.16 422.742 Q2248.24 417.441 2249.74 412.209 Q2251.27 406.955 2251.27 401.608 Q2251.27 396.26 2249.74 391.052 Q2248.24 385.844 2245.16 380.52 Z" fill="#000000" fill-rule="nonzero" fill-opacity="1" /><polyline clip-path="url(#clip290)" style="stroke:#ac8d18; stroke-linecap:round; stroke-linejoin:round; stroke-width:4; stroke-opacity:1; fill:none" points="1489.95,451.052 1635.41,451.052 "/>
<path clip-path="url(#clip290)" d="M1678.08 443.17 L1678.08 447.198 Q1676.27 446.272 1674.33 445.809 Q1672.38 445.346 1670.3 445.346 Q1667.13 445.346 1665.53 446.318 Q1663.96 447.29 1663.96 449.235 Q1663.96 450.716 1665.09 451.573 Q1666.23 452.406 1669.65 453.17 L1671.11 453.494 Q1675.65 454.466 1677.54 456.248 Q1679.47 458.008 1679.47 461.179 Q1679.47 464.79 1676.6 466.897 Q1673.75 469.003 1668.75 469.003 Q1666.67 469.003 1664.4 468.586 Q1662.15 468.193 1659.65 467.383 L1659.65 462.985 Q1662.01 464.211 1664.3 464.836 Q1666.6 465.438 1668.84 465.438 Q1671.85 465.438 1673.47 464.42 Q1675.09 463.378 1675.09 461.503 Q1675.09 459.767 1673.91 458.841 Q1672.75 457.915 1668.8 457.059 L1667.31 456.711 Q1663.36 455.878 1661.6 454.165 Q1659.84 452.429 1659.84 449.42 Q1659.84 445.762 1662.43 443.772 Q1665.02 441.781 1669.79 441.781 Q1672.15 441.781 1674.23 442.128 Q1676.32 442.475 1678.08 443.17 Z" fill="#000000" fill-rule="nonzero" fill-opacity="1" /><path clip-path="url(#clip290)" d="M1698.03 455.299 Q1692.87 455.299 1690.88 456.48 Q1688.89 457.66 1688.89 460.508 Q1688.89 462.776 1690.37 464.119 Q1691.87 465.438 1694.44 465.438 Q1697.98 465.438 1700.11 462.938 Q1702.27 460.415 1702.27 456.248 L1702.27 455.299 L1698.03 455.299 M1706.53 453.54 L1706.53 468.332 L1702.27 468.332 L1702.27 464.397 Q1700.81 466.758 1698.63 467.892 Q1696.46 469.003 1693.31 469.003 Q1689.33 469.003 1686.97 466.781 Q1684.63 464.535 1684.63 460.785 Q1684.63 456.41 1687.54 454.188 Q1690.48 451.966 1696.29 451.966 L1702.27 451.966 L1702.27 451.549 Q1702.27 448.61 1700.32 447.012 Q1698.4 445.392 1694.91 445.392 Q1692.68 445.392 1690.58 445.924 Q1688.47 446.457 1686.53 447.522 L1686.53 443.586 Q1688.86 442.684 1691.06 442.244 Q1693.26 441.781 1695.35 441.781 Q1700.97 441.781 1703.75 444.698 Q1706.53 447.614 1706.53 453.54 Z" fill="#000000" fill-rule="nonzero" fill-opacity="1" /><path clip-path="url(#clip290)" d="M1735.48 447.383 Q1737.08 444.512 1739.3 443.147 Q1741.53 441.781 1744.54 441.781 Q1748.59 441.781 1750.79 444.628 Q1752.98 447.452 1752.98 452.684 L1752.98 468.332 L1748.7 468.332 L1748.7 452.823 Q1748.7 449.096 1747.38 447.29 Q1746.06 445.485 1743.35 445.485 Q1740.04 445.485 1738.12 447.684 Q1736.2 449.883 1736.2 453.679 L1736.2 468.332 L1731.92 468.332 L1731.92 452.823 Q1731.92 449.073 1730.6 447.29 Q1729.28 445.485 1726.53 445.485 Q1723.26 445.485 1721.34 447.707 Q1719.42 449.906 1719.42 453.679 L1719.42 468.332 L1715.14 468.332 L1715.14 442.406 L1719.42 442.406 L1719.42 446.434 Q1720.88 444.049 1722.92 442.915 Q1724.95 441.781 1727.75 441.781 Q1730.58 441.781 1732.54 443.216 Q1734.54 444.651 1735.48 447.383 Z" fill="#000000" fill-rule="nonzero" fill-opacity="1" /><path clip-path="url(#clip290)" d="M1765.6 464.443 L1765.6 478.193 L1761.32 478.193 L1761.32 442.406 L1765.6 442.406 L1765.6 446.341 Q1766.94 444.026 1768.98 442.915 Q1771.04 441.781 1773.89 441.781 Q1778.61 441.781 1781.55 445.531 Q1784.51 449.281 1784.51 455.392 Q1784.51 461.503 1781.55 465.253 Q1778.61 469.003 1773.89 469.003 Q1771.04 469.003 1768.98 467.892 Q1766.94 466.758 1765.6 464.443 M1780.09 455.392 Q1780.09 450.693 1778.15 448.031 Q1776.23 445.346 1772.85 445.346 Q1769.47 445.346 1767.52 448.031 Q1765.6 450.693 1765.6 455.392 Q1765.6 460.091 1767.52 462.776 Q1769.47 465.438 1772.85 465.438 Q1776.23 465.438 1778.15 462.776 Q1780.09 460.091 1780.09 455.392 Z" fill="#000000" fill-rule="nonzero" fill-opacity="1" /><path clip-path="url(#clip290)" d="M1791.57 432.313 L1795.83 432.313 L1795.83 468.332 L1791.57 468.332 L1791.57 432.313 Z" fill="#000000" fill-rule="nonzero" fill-opacity="1" /><path clip-path="url(#clip290)" d="M1826.92 454.304 L1826.92 456.387 L1807.34 456.387 Q1807.61 460.785 1809.97 463.1 Q1812.36 465.392 1816.6 465.392 Q1819.05 465.392 1821.34 464.79 Q1823.66 464.188 1825.92 462.985 L1825.92 467.012 Q1823.63 467.984 1821.22 468.494 Q1818.82 469.003 1816.34 469.003 Q1810.14 469.003 1806.5 465.392 Q1802.89 461.781 1802.89 455.623 Q1802.89 449.258 1806.32 445.531 Q1809.77 441.781 1815.6 441.781 Q1820.83 441.781 1823.86 445.161 Q1826.92 448.517 1826.92 454.304 M1822.66 453.054 Q1822.61 449.559 1820.69 447.475 Q1818.79 445.392 1815.65 445.392 Q1812.08 445.392 1809.93 447.406 Q1807.8 449.42 1807.47 453.077 L1822.66 453.054 Z" fill="#000000" fill-rule="nonzero" fill-opacity="1" /><path clip-path="url(#clip290)" d="M1853.1 464.443 L1853.1 478.193 L1848.82 478.193 L1848.82 442.406 L1853.1 442.406 L1853.1 446.341 Q1854.44 444.026 1856.48 442.915 Q1858.54 441.781 1861.39 441.781 Q1866.11 441.781 1869.05 445.531 Q1872.01 449.281 1872.01 455.392 Q1872.01 461.503 1869.05 465.253 Q1866.11 469.003 1861.39 469.003 Q1858.54 469.003 1856.48 467.892 Q1854.44 466.758 1853.1 464.443 M1867.59 455.392 Q1867.59 450.693 1865.65 448.031 Q1863.72 445.346 1860.34 445.346 Q1856.97 445.346 1855.02 448.031 Q1853.1 450.693 1853.1 455.392 Q1853.1 460.091 1855.02 462.776 Q1856.97 465.438 1860.34 465.438 Q1863.72 465.438 1865.65 462.776 Q1867.59 460.091 1867.59 455.392 Z" fill="#000000" fill-rule="nonzero" fill-opacity="1" /></svg>
