<?xml version="1.0" encoding="utf-8"?>
<svg xmlns="http://www.w3.org/2000/svg" xmlns:xlink="http://www.w3.org/1999/xlink" width="600" height="400" viewBox="0 0 2400 1600">
<defs>
  <clipPath id="clip700">
    <rect x="0" y="0" width="2400" height="1600"/>
  </clipPath>
</defs>
<path clip-path="url(#clip700)" d="M0 1600 L2400 1600 L2400 0 L0 0  Z" fill="#ffffff" fill-rule="evenodd" fill-opacity="1"/>
<defs>
  <clipPath id="clip701">
    <rect x="480" y="0" width="1681" height="1600"/>
  </clipPath>
</defs>
<path clip-path="url(#clip700)" d="M256.209 1423.18 L2352.76 1423.18 L2352.76 47.2441 L256.209 47.2441  Z" fill="#ffffff" fill-rule="evenodd" fill-opacity="1"/>
<defs>
  <clipPath id="clip702">
    <rect x="256" y="47" width="2098" height="1377"/>
  </clipPath>
</defs>
<polyline clip-path="url(#clip702)" style="stroke:#000000; stroke-linecap:round; stroke-linejoin:round; stroke-width:2; stroke-opacity:0.1; fill:none" points="315.545,1423.18 315.545,47.2441 "/>
<polyline clip-path="url(#clip702)" style="stroke:#000000; stroke-linecap:round; stroke-linejoin:round; stroke-width:2; stroke-opacity:0.1; fill:none" points="974.836,1423.18 974.836,47.2441 "/>
<polyline clip-path="url(#clip702)" style="stroke:#000000; stroke-linecap:round; stroke-linejoin:round; stroke-width:2; stroke-opacity:0.1; fill:none" points="1634.13,1423.18 1634.13,47.2441 "/>
<polyline clip-path="url(#clip702)" style="stroke:#000000; stroke-linecap:round; stroke-linejoin:round; stroke-width:2; stroke-opacity:0.1; fill:none" points="2293.42,1423.18 2293.42,47.2441 "/>
<polyline clip-path="url(#clip702)" style="stroke:#000000; stroke-linecap:round; stroke-linejoin:round; stroke-width:2; stroke-opacity:0.1; fill:none" points="256.209,1282.83 2352.76,1282.83 "/>
<polyline clip-path="url(#clip702)" style="stroke:#000000; stroke-linecap:round; stroke-linejoin:round; stroke-width:2; stroke-opacity:0.1; fill:none" points="256.209,1081.75 2352.76,1081.75 "/>
<polyline clip-path="url(#clip702)" style="stroke:#000000; stroke-linecap:round; stroke-linejoin:round; stroke-width:2; stroke-opacity:0.1; fill:none" points="256.209,880.666 2352.76,880.666 "/>
<polyline clip-path="url(#clip702)" style="stroke:#000000; stroke-linecap:round; stroke-linejoin:round; stroke-width:2; stroke-opacity:0.1; fill:none" points="256.209,679.582 2352.76,679.582 "/>
<polyline clip-path="url(#clip702)" style="stroke:#000000; stroke-linecap:round; stroke-linejoin:round; stroke-width:2; stroke-opacity:0.1; fill:none" points="256.209,478.498 2352.76,478.498 "/>
<polyline clip-path="url(#clip702)" style="stroke:#000000; stroke-linecap:round; stroke-linejoin:round; stroke-width:2; stroke-opacity:0.1; fill:none" points="256.209,277.414 2352.76,277.414 "/>
<polyline clip-path="url(#clip702)" style="stroke:#000000; stroke-linecap:round; stroke-linejoin:round; stroke-width:2; stroke-opacity:0.1; fill:none" points="256.209,76.3306 2352.76,76.3306 "/>
<polyline clip-path="url(#clip700)" style="stroke:#000000; stroke-linecap:round; stroke-linejoin:round; stroke-width:4; stroke-opacity:1; fill:none" points="256.209,1423.18 2352.76,1423.18 "/>
<polyline clip-path="url(#clip700)" style="stroke:#000000; stroke-linecap:round; stroke-linejoin:round; stroke-width:4; stroke-opacity:1; fill:none" points="315.545,1423.18 315.545,1404.28 "/>
<polyline clip-path="url(#clip700)" style="stroke:#000000; stroke-linecap:round; stroke-linejoin:round; stroke-width:4; stroke-opacity:1; fill:none" points="974.836,1423.18 974.836,1404.28 "/>
<polyline clip-path="url(#clip700)" style="stroke:#000000; stroke-linecap:round; stroke-linejoin:round; stroke-width:4; stroke-opacity:1; fill:none" points="1634.13,1423.18 1634.13,1404.28 "/>
<polyline clip-path="url(#clip700)" style="stroke:#000000; stroke-linecap:round; stroke-linejoin:round; stroke-width:4; stroke-opacity:1; fill:none" points="2293.42,1423.18 2293.42,1404.28 "/>
<path clip-path="url(#clip700)" d="M315.545 1454.1 Q311.934 1454.1 310.105 1457.66 Q308.3 1461.2 308.3 1468.33 Q308.3 1475.44 310.105 1479.01 Q311.934 1482.55 315.545 1482.55 Q319.179 1482.55 320.985 1479.01 Q322.813 1475.44 322.813 1468.33 Q322.813 1461.2 320.985 1457.66 Q319.179 1454.1 315.545 1454.1 M315.545 1450.39 Q321.355 1450.39 324.411 1455 Q327.489 1459.58 327.489 1468.33 Q327.489 1477.06 324.411 1481.67 Q321.355 1486.25 315.545 1486.25 Q309.735 1486.25 306.656 1481.67 Q303.601 1477.06 303.601 1468.33 Q303.601 1459.58 306.656 1455 Q309.735 1450.39 315.545 1450.39 Z" fill="#000000" fill-rule="nonzero" fill-opacity="1" /><path clip-path="url(#clip700)" d="M965.218 1481.64 L972.857 1481.64 L972.857 1455.28 L964.547 1456.95 L964.547 1452.69 L972.811 1451.02 L977.487 1451.02 L977.487 1481.64 L985.126 1481.64 L985.126 1485.58 L965.218 1485.58 L965.218 1481.64 Z" fill="#000000" fill-rule="nonzero" fill-opacity="1" /><path clip-path="url(#clip700)" d="M1628.78 1481.64 L1645.1 1481.64 L1645.1 1485.58 L1623.16 1485.58 L1623.16 1481.64 Q1625.82 1478.89 1630.4 1474.26 Q1635.01 1469.61 1636.19 1468.27 Q1638.43 1465.74 1639.31 1464.01 Q1640.22 1462.25 1640.22 1460.56 Q1640.22 1457.8 1638.27 1456.07 Q1636.35 1454.33 1633.25 1454.33 Q1631.05 1454.33 1628.6 1455.09 Q1626.17 1455.86 1623.39 1457.41 L1623.39 1452.69 Q1626.21 1451.55 1628.67 1450.97 Q1631.12 1450.39 1633.16 1450.39 Q1638.53 1450.39 1641.72 1453.08 Q1644.92 1455.77 1644.92 1460.26 Q1644.92 1462.39 1644.1 1464.31 Q1643.32 1466.2 1641.21 1468.8 Q1640.63 1469.47 1637.53 1472.69 Q1634.43 1475.88 1628.78 1481.64 Z" fill="#000000" fill-rule="nonzero" fill-opacity="1" /><path clip-path="url(#clip700)" d="M2297.67 1466.95 Q2301.02 1467.66 2302.9 1469.93 Q2304.8 1472.2 2304.8 1475.53 Q2304.8 1480.65 2301.28 1483.45 Q2297.76 1486.25 2291.28 1486.25 Q2289.1 1486.25 2286.79 1485.81 Q2284.5 1485.39 2282.04 1484.54 L2282.04 1480.02 Q2283.99 1481.16 2286.3 1481.74 Q2288.62 1482.32 2291.14 1482.32 Q2295.54 1482.32 2297.83 1480.58 Q2300.14 1478.84 2300.14 1475.53 Q2300.14 1472.48 2297.99 1470.77 Q2295.86 1469.03 2292.04 1469.03 L2288.01 1469.03 L2288.01 1465.19 L2292.23 1465.19 Q2295.68 1465.19 2297.51 1463.82 Q2299.33 1462.43 2299.33 1459.84 Q2299.33 1457.18 2297.44 1455.77 Q2295.56 1454.33 2292.04 1454.33 Q2290.12 1454.33 2287.92 1454.75 Q2285.72 1455.16 2283.08 1456.04 L2283.08 1451.88 Q2285.75 1451.14 2288.06 1450.77 Q2290.4 1450.39 2292.46 1450.39 Q2297.78 1450.39 2300.88 1452.83 Q2303.99 1455.23 2303.99 1459.35 Q2303.99 1462.22 2302.34 1464.21 Q2300.7 1466.18 2297.67 1466.95 Z" fill="#000000" fill-rule="nonzero" fill-opacity="1" /><path clip-path="url(#clip700)" d="M1312.95 1531.91 Q1312.95 1532.81 1312.53 1533.04 Q1312.12 1533.23 1310.96 1533.23 L1304.77 1533.23 L1299.88 1552.69 Q1299.49 1554.39 1299.49 1555.84 Q1299.49 1557.45 1299.97 1558.16 Q1300.49 1558.87 1301.55 1558.87 Q1303.65 1558.87 1305.9 1556.97 Q1308.19 1555.07 1310.12 1550.43 Q1310.38 1549.82 1310.51 1549.69 Q1310.67 1549.53 1311.09 1549.53 Q1311.89 1549.53 1311.89 1550.17 Q1311.89 1550.4 1311.44 1551.43 Q1311.02 1552.46 1310.09 1553.97 Q1309.19 1555.49 1307.99 1556.9 Q1306.83 1558.32 1305.06 1559.35 Q1303.29 1560.35 1301.39 1560.35 Q1298.72 1560.35 1297.01 1558.64 Q1295.34 1556.94 1295.34 1554.26 Q1295.34 1553.39 1296.01 1550.62 Q1296.69 1547.82 1300.36 1533.23 L1294.53 1533.23 Q1293.73 1533.23 1293.4 1533.2 Q1293.11 1533.17 1292.89 1533.01 Q1292.7 1532.81 1292.7 1532.43 Q1292.7 1531.82 1292.95 1531.56 Q1293.21 1531.27 1293.53 1531.24 Q1293.89 1531.17 1294.69 1531.17 L1300.88 1531.17 L1303.45 1520.71 Q1303.71 1519.67 1304.35 1519.09 Q1305.03 1518.48 1305.42 1518.42 Q1305.8 1518.32 1306.09 1518.32 Q1306.96 1518.32 1307.48 1518.81 Q1307.99 1519.26 1307.99 1520.09 Q1307.99 1520.54 1305.29 1531.17 L1311.09 1531.17 Q1311.83 1531.17 1312.12 1531.2 Q1312.44 1531.24 1312.7 1531.4 Q1312.95 1531.56 1312.95 1531.91 Z" fill="#000000" fill-rule="nonzero" fill-opacity="1" /><polyline clip-path="url(#clip700)" style="stroke:#000000; stroke-linecap:round; stroke-linejoin:round; stroke-width:4; stroke-opacity:1; fill:none" points="256.209,1423.18 256.209,47.2441 "/>
<polyline clip-path="url(#clip700)" style="stroke:#000000; stroke-linecap:round; stroke-linejoin:round; stroke-width:4; stroke-opacity:1; fill:none" points="256.209,1282.83 275.106,1282.83 "/>
<polyline clip-path="url(#clip700)" style="stroke:#000000; stroke-linecap:round; stroke-linejoin:round; stroke-width:4; stroke-opacity:1; fill:none" points="256.209,1081.75 275.106,1081.75 "/>
<polyline clip-path="url(#clip700)" style="stroke:#000000; stroke-linecap:round; stroke-linejoin:round; stroke-width:4; stroke-opacity:1; fill:none" points="256.209,880.666 275.106,880.666 "/>
<polyline clip-path="url(#clip700)" style="stroke:#000000; stroke-linecap:round; stroke-linejoin:round; stroke-width:4; stroke-opacity:1; fill:none" points="256.209,679.582 275.106,679.582 "/>
<polyline clip-path="url(#clip700)" style="stroke:#000000; stroke-linecap:round; stroke-linejoin:round; stroke-width:4; stroke-opacity:1; fill:none" points="256.209,478.498 275.106,478.498 "/>
<polyline clip-path="url(#clip700)" style="stroke:#000000; stroke-linecap:round; stroke-linejoin:round; stroke-width:4; stroke-opacity:1; fill:none" points="256.209,277.414 275.106,277.414 "/>
<polyline clip-path="url(#clip700)" style="stroke:#000000; stroke-linecap:round; stroke-linejoin:round; stroke-width:4; stroke-opacity:1; fill:none" points="256.209,76.3306 275.106,76.3306 "/>
<path clip-path="url(#clip700)" d="M114.26 1283.28 L143.936 1283.28 L143.936 1287.22 L114.26 1287.22 L114.26 1283.28 Z" fill="#000000" fill-rule="nonzero" fill-opacity="1" /><path clip-path="url(#clip700)" d="M164.028 1268.63 Q160.417 1268.63 158.589 1272.2 Q156.783 1275.74 156.783 1282.87 Q156.783 1289.97 158.589 1293.54 Q160.417 1297.08 164.028 1297.08 Q167.663 1297.08 169.468 1293.54 Q171.297 1289.97 171.297 1282.87 Q171.297 1275.74 169.468 1272.2 Q167.663 1268.63 164.028 1268.63 M164.028 1264.93 Q169.839 1264.93 172.894 1269.53 Q175.973 1274.12 175.973 1282.87 Q175.973 1291.59 172.894 1296.2 Q169.839 1300.78 164.028 1300.78 Q158.218 1300.78 155.14 1296.2 Q152.084 1291.59 152.084 1282.87 Q152.084 1274.12 155.14 1269.53 Q158.218 1264.93 164.028 1264.93 Z" fill="#000000" fill-rule="nonzero" fill-opacity="1" /><path clip-path="url(#clip700)" d="M184.19 1294.23 L189.075 1294.23 L189.075 1300.11 L184.19 1300.11 L184.19 1294.23 Z" fill="#000000" fill-rule="nonzero" fill-opacity="1" /><path clip-path="url(#clip700)" d="M199.306 1265.55 L217.662 1265.55 L217.662 1269.49 L203.588 1269.49 L203.588 1277.96 Q204.607 1277.61 205.625 1277.45 Q206.644 1277.27 207.662 1277.27 Q213.449 1277.27 216.829 1280.44 Q220.209 1283.61 220.209 1289.03 Q220.209 1294.6 216.736 1297.71 Q213.264 1300.78 206.945 1300.78 Q204.769 1300.78 202.5 1300.41 Q200.255 1300.04 197.848 1299.3 L197.848 1294.6 Q199.931 1295.74 202.153 1296.29 Q204.375 1296.85 206.852 1296.85 Q210.857 1296.85 213.195 1294.74 Q215.533 1292.64 215.533 1289.03 Q215.533 1285.41 213.195 1283.31 Q210.857 1281.2 206.852 1281.2 Q204.977 1281.2 203.102 1281.62 Q201.25 1282.03 199.306 1282.91 L199.306 1265.55 Z" fill="#000000" fill-rule="nonzero" fill-opacity="1" /><path clip-path="url(#clip700)" d="M163.033 1067.55 Q159.422 1067.55 157.593 1071.11 Q155.788 1074.65 155.788 1081.78 Q155.788 1088.89 157.593 1092.46 Q159.422 1096 163.033 1096 Q166.667 1096 168.473 1092.46 Q170.302 1088.89 170.302 1081.78 Q170.302 1074.65 168.473 1071.11 Q166.667 1067.55 163.033 1067.55 M163.033 1063.84 Q168.843 1063.84 171.899 1068.45 Q174.977 1073.03 174.977 1081.78 Q174.977 1090.51 171.899 1095.12 Q168.843 1099.7 163.033 1099.7 Q157.223 1099.7 154.144 1095.12 Q151.089 1090.51 151.089 1081.78 Q151.089 1073.03 154.144 1068.45 Q157.223 1063.84 163.033 1063.84 Z" fill="#000000" fill-rule="nonzero" fill-opacity="1" /><path clip-path="url(#clip700)" d="M183.195 1093.15 L188.079 1093.15 L188.079 1099.03 L183.195 1099.03 L183.195 1093.15 Z" fill="#000000" fill-rule="nonzero" fill-opacity="1" /><path clip-path="url(#clip700)" d="M208.264 1067.55 Q204.653 1067.55 202.824 1071.11 Q201.019 1074.65 201.019 1081.78 Q201.019 1088.89 202.824 1092.46 Q204.653 1096 208.264 1096 Q211.899 1096 213.704 1092.46 Q215.533 1088.89 215.533 1081.78 Q215.533 1074.65 213.704 1071.11 Q211.899 1067.55 208.264 1067.55 M208.264 1063.84 Q214.074 1063.84 217.13 1068.45 Q220.209 1073.03 220.209 1081.78 Q220.209 1090.51 217.13 1095.12 Q214.074 1099.7 208.264 1099.7 Q202.454 1099.7 199.375 1095.12 Q196.32 1090.51 196.32 1081.78 Q196.32 1073.03 199.375 1068.45 Q202.454 1063.84 208.264 1063.84 Z" fill="#000000" fill-rule="nonzero" fill-opacity="1" /><path clip-path="url(#clip700)" d="M164.028 866.465 Q160.417 866.465 158.589 870.029 Q156.783 873.571 156.783 880.701 Q156.783 887.807 158.589 891.372 Q160.417 894.913 164.028 894.913 Q167.663 894.913 169.468 891.372 Q171.297 887.807 171.297 880.701 Q171.297 873.571 169.468 870.029 Q167.663 866.465 164.028 866.465 M164.028 862.761 Q169.839 862.761 172.894 867.367 Q175.973 871.951 175.973 880.701 Q175.973 889.427 172.894 894.034 Q169.839 898.617 164.028 898.617 Q158.218 898.617 155.14 894.034 Q152.084 889.427 152.084 880.701 Q152.084 871.951 155.14 867.367 Q158.218 862.761 164.028 862.761 Z" fill="#000000" fill-rule="nonzero" fill-opacity="1" /><path clip-path="url(#clip700)" d="M184.19 892.066 L189.075 892.066 L189.075 897.946 L184.19 897.946 L184.19 892.066 Z" fill="#000000" fill-rule="nonzero" fill-opacity="1" /><path clip-path="url(#clip700)" d="M199.306 863.386 L217.662 863.386 L217.662 867.321 L203.588 867.321 L203.588 875.793 Q204.607 875.446 205.625 875.284 Q206.644 875.099 207.662 875.099 Q213.449 875.099 216.829 878.27 Q220.209 881.441 220.209 886.858 Q220.209 892.437 216.736 895.538 Q213.264 898.617 206.945 898.617 Q204.769 898.617 202.5 898.247 Q200.255 897.876 197.848 897.136 L197.848 892.437 Q199.931 893.571 202.153 894.126 Q204.375 894.682 206.852 894.682 Q210.857 894.682 213.195 892.576 Q215.533 890.469 215.533 886.858 Q215.533 883.247 213.195 881.14 Q210.857 879.034 206.852 879.034 Q204.977 879.034 203.102 879.451 Q201.25 879.867 199.306 880.747 L199.306 863.386 Z" fill="#000000" fill-rule="nonzero" fill-opacity="1" /><path clip-path="url(#clip700)" d="M153.843 692.927 L161.482 692.927 L161.482 666.561 L153.172 668.228 L153.172 663.969 L161.436 662.302 L166.112 662.302 L166.112 692.927 L173.751 692.927 L173.751 696.862 L153.843 696.862 L153.843 692.927 Z" fill="#000000" fill-rule="nonzero" fill-opacity="1" /><path clip-path="url(#clip700)" d="M183.195 690.982 L188.079 690.982 L188.079 696.862 L183.195 696.862 L183.195 690.982 Z" fill="#000000" fill-rule="nonzero" fill-opacity="1" /><path clip-path="url(#clip700)" d="M208.264 665.381 Q204.653 665.381 202.824 668.946 Q201.019 672.487 201.019 679.617 Q201.019 686.723 202.824 690.288 Q204.653 693.83 208.264 693.83 Q211.899 693.83 213.704 690.288 Q215.533 686.723 215.533 679.617 Q215.533 672.487 213.704 668.946 Q211.899 665.381 208.264 665.381 M208.264 661.677 Q214.074 661.677 217.13 666.284 Q220.209 670.867 220.209 679.617 Q220.209 688.344 217.13 692.95 Q214.074 697.533 208.264 697.533 Q202.454 697.533 199.375 692.95 Q196.32 688.344 196.32 679.617 Q196.32 670.867 199.375 666.284 Q202.454 661.677 208.264 661.677 Z" fill="#000000" fill-rule="nonzero" fill-opacity="1" /><path clip-path="url(#clip700)" d="M154.839 491.843 L162.477 491.843 L162.477 465.477 L154.167 467.144 L154.167 462.885 L162.431 461.218 L167.107 461.218 L167.107 491.843 L174.746 491.843 L174.746 495.778 L154.839 495.778 L154.839 491.843 Z" fill="#000000" fill-rule="nonzero" fill-opacity="1" /><path clip-path="url(#clip700)" d="M184.19 489.899 L189.075 489.899 L189.075 495.778 L184.19 495.778 L184.19 489.899 Z" fill="#000000" fill-rule="nonzero" fill-opacity="1" /><path clip-path="url(#clip700)" d="M199.306 461.218 L217.662 461.218 L217.662 465.153 L203.588 465.153 L203.588 473.626 Q204.607 473.278 205.625 473.116 Q206.644 472.931 207.662 472.931 Q213.449 472.931 216.829 476.102 Q220.209 479.274 220.209 484.69 Q220.209 490.269 216.736 493.371 Q213.264 496.45 206.945 496.45 Q204.769 496.45 202.5 496.079 Q200.255 495.709 197.848 494.968 L197.848 490.269 Q199.931 491.403 202.153 491.959 Q204.375 492.514 206.852 492.514 Q210.857 492.514 213.195 490.408 Q215.533 488.301 215.533 484.69 Q215.533 481.079 213.195 478.973 Q210.857 476.866 206.852 476.866 Q204.977 476.866 203.102 477.283 Q201.25 477.7 199.306 478.579 L199.306 461.218 Z" fill="#000000" fill-rule="nonzero" fill-opacity="1" /><path clip-path="url(#clip700)" d="M157.061 290.759 L173.38 290.759 L173.38 294.694 L151.436 294.694 L151.436 290.759 Q154.098 288.005 158.681 283.375 Q163.288 278.722 164.468 277.38 Q166.714 274.857 167.593 273.12 Q168.496 271.361 168.496 269.671 Q168.496 266.917 166.552 265.181 Q164.63 263.445 161.528 263.445 Q159.329 263.445 156.876 264.208 Q154.445 264.972 151.667 266.523 L151.667 261.801 Q154.491 260.667 156.945 260.088 Q159.399 259.509 161.436 259.509 Q166.806 259.509 170.001 262.195 Q173.195 264.88 173.195 269.371 Q173.195 271.5 172.385 273.421 Q171.598 275.32 169.491 277.912 Q168.913 278.583 165.811 281.801 Q162.709 284.995 157.061 290.759 Z" fill="#000000" fill-rule="nonzero" fill-opacity="1" /><path clip-path="url(#clip700)" d="M183.195 288.815 L188.079 288.815 L188.079 294.694 L183.195 294.694 L183.195 288.815 Z" fill="#000000" fill-rule="nonzero" fill-opacity="1" /><path clip-path="url(#clip700)" d="M208.264 263.213 Q204.653 263.213 202.824 266.778 Q201.019 270.32 201.019 277.449 Q201.019 284.556 202.824 288.12 Q204.653 291.662 208.264 291.662 Q211.899 291.662 213.704 288.12 Q215.533 284.556 215.533 277.449 Q215.533 270.32 213.704 266.778 Q211.899 263.213 208.264 263.213 M208.264 259.509 Q214.074 259.509 217.13 264.116 Q220.209 268.699 220.209 277.449 Q220.209 286.176 217.13 290.782 Q214.074 295.366 208.264 295.366 Q202.454 295.366 199.375 290.782 Q196.32 286.176 196.32 277.449 Q196.32 268.699 199.375 264.116 Q202.454 259.509 208.264 259.509 Z" fill="#000000" fill-rule="nonzero" fill-opacity="1" /><path clip-path="url(#clip700)" d="M158.056 89.6755 L174.376 89.6755 L174.376 93.6106 L152.431 93.6106 L152.431 89.6755 Q155.093 86.9209 159.677 82.2913 Q164.283 77.6385 165.464 76.2959 Q167.709 73.7728 168.589 72.0367 Q169.491 70.2774 169.491 68.5876 Q169.491 65.833 167.547 64.0969 Q165.626 62.3608 162.524 62.3608 Q160.325 62.3608 157.871 63.1247 Q155.44 63.8886 152.663 65.4395 L152.663 60.7173 Q155.487 59.583 157.94 59.0043 Q160.394 58.4256 162.431 58.4256 Q167.802 58.4256 170.996 61.1108 Q174.19 63.796 174.19 68.2867 Q174.19 70.4163 173.38 72.3376 Q172.593 74.2357 170.487 76.8283 Q169.908 77.4996 166.806 80.7172 Q163.704 83.9116 158.056 89.6755 Z" fill="#000000" fill-rule="nonzero" fill-opacity="1" /><path clip-path="url(#clip700)" d="M184.19 87.731 L189.075 87.731 L189.075 93.6106 L184.19 93.6106 L184.19 87.731 Z" fill="#000000" fill-rule="nonzero" fill-opacity="1" /><path clip-path="url(#clip700)" d="M199.306 59.0506 L217.662 59.0506 L217.662 62.9858 L203.588 62.9858 L203.588 71.458 Q204.607 71.1108 205.625 70.9487 Q206.644 70.7635 207.662 70.7635 Q213.449 70.7635 216.829 73.9348 Q220.209 77.1061 220.209 82.5227 Q220.209 88.1014 216.736 91.2032 Q213.264 94.2819 206.945 94.2819 Q204.769 94.2819 202.5 93.9116 Q200.255 93.5412 197.848 92.8005 L197.848 88.1014 Q199.931 89.2357 202.153 89.7912 Q204.375 90.3468 206.852 90.3468 Q210.857 90.3468 213.195 88.2403 Q215.533 86.1338 215.533 82.5227 Q215.533 78.9116 213.195 76.8052 Q210.857 74.6987 206.852 74.6987 Q204.977 74.6987 203.102 75.1154 Q201.25 75.532 199.306 76.4117 L199.306 59.0506 Z" fill="#000000" fill-rule="nonzero" fill-opacity="1" /><path clip-path="url(#clip700)" d="M30.8561 720.775 Q31.307 720.775 32.3698 721.064 L57.5548 727.377 Q63.1586 728.762 67.0877 733.27 Q71.0168 737.747 71.0168 742.836 Q71.0168 745.895 69.3743 747.86 Q67.764 749.824 65.2842 749.824 Q63.0942 749.824 62.0314 748.665 Q61.0008 747.505 61.0008 746.121 Q61.0008 745.67 61.1296 745.187 Q61.2584 744.703 61.8059 744.188 Q62.3534 743.673 63.2874 743.673 Q64.8011 743.673 65.9927 744.993 Q66.5402 745.637 66.669 746.249 Q66.7978 746.829 66.7978 747.827 Q67.6996 747.441 68.3115 746.732 Q68.9234 746.024 69.1489 745.219 Q69.4065 744.414 69.4709 743.898 Q69.5675 743.351 69.5675 742.836 Q69.5675 738.713 65.413 735.557 Q64.157 734.623 62.9009 733.947 Q61.6771 733.238 60.1634 732.723 Q58.682 732.208 57.8768 731.982 Q57.0717 731.725 55.2359 731.274 Q58.2311 734.269 58.2311 737.94 Q58.2311 739.486 57.8124 740.871 Q57.3937 742.224 56.5242 743.415 Q55.6224 744.607 54.0443 745.315 Q52.4662 745.992 50.3728 745.992 Q48.1506 745.992 45.1233 745.122 Q42.0959 744.253 36.5243 742.159 Q33.4004 741.032 31.8867 741.032 Q31.146 741.032 30.6951 741.193 Q30.212 741.354 30.051 741.676 Q29.8577 741.998 29.8255 742.191 Q29.7933 742.352 29.7933 742.675 Q29.7933 744.575 31.7257 746.346 Q33.658 748.117 37.9736 749.341 Q38.7787 749.599 38.972 749.76 Q39.1652 749.921 39.1652 750.404 Q39.133 751.209 38.4889 751.209 Q38.2312 751.209 37.2329 750.919 Q36.2023 750.629 34.6886 749.953 Q33.1427 749.245 31.7579 748.278 Q30.3408 747.312 29.3424 745.798 Q28.344 744.253 28.344 742.481 Q28.344 740.066 29.9221 738.584 Q31.468 737.071 33.7546 737.071 Q34.6886 737.071 35.5259 737.328 Q36.3311 737.554 38.4889 738.391 Q47.1845 741.773 51.4356 741.773 Q52.4662 741.773 53.3358 741.612 Q54.1731 741.418 55.0105 741 Q55.8156 740.581 56.2987 739.744 Q56.7496 738.874 56.7496 737.683 Q56.7496 736.169 56.0411 734.752 Q55.3003 733.303 54.302 732.401 Q53.3036 731.467 52.4662 730.919 Q51.5967 730.34 51.1458 730.211 L39.294 727.248 L34.0123 725.927 Q31.146 725.316 30.4374 725.026 Q29.7611 724.639 29.4068 723.963 Q29.0526 723.287 29.0526 722.707 Q29.0526 721.902 29.5357 721.354 Q30.0187 720.775 30.8561 720.775 Z" fill="#000000" fill-rule="nonzero" fill-opacity="1" /><polyline clip-path="url(#clip702)" style="stroke:#1f77b4; stroke-linecap:round; stroke-linejoin:round; stroke-width:8; stroke-opacity:1; fill:none" stroke-dasharray="32, 20" points="315.545,1081.75 319.408,1077.23 323.271,1091.84 327.134,1075.59 330.997,1023.43 334.86,1008.41 338.723,1038.39 342.586,999.875 346.449,987.212 350.312,970.975 354.175,960.565 358.038,945.282 361.901,971.804 365.764,997.266 369.627,1021.16 373.49,998.439 377.353,1011.91 381.217,1016.55 385.08,1026.73 388.943,1063.86 392.806,1064.65 396.669,1087.39 400.532,1102.16 404.395,1092.16 408.258,1076.27 412.121,1089.8 415.984,1108.39 419.847,1098.23 423.71,1082.21 427.573,1073.13 431.436,1072.03 435.299,1099.74 439.162,1136.61 443.025,1115.56 446.888,1089.82 450.751,1103.32 454.614,1117.8 458.477,1114.02 462.34,1169.56 466.203,1153.88 470.066,1150.6 473.929,1157.58 477.792,1148.81 481.655,1143.99 485.519,1156.06 489.382,1131.02 493.245,1135.05 497.108,1135.96 500.971,1128.14 504.834,1115.23 508.697,1119.31 512.56,1088.49 516.423,1114.03 520.286,1141 524.149,1165.56 528.012,1150.68 531.875,1125.49 535.738,1137.91 539.601,1152.32 543.464,1167.98 547.327,1156.09 551.19,1160.04 555.053,1174.45 558.916,1173.7 562.779,1153.37 566.642,1149.89 570.505,1173.03 574.368,1168.12 578.231,1164.52 582.094,1159.57 585.957,1147.54 589.821,1160.54 593.684,1168.44 597.547,1167.67 601.41,1193.7 605.273,1154.54 609.136,1134.93 612.999,1128.44 616.862,1083.86 620.725,1098.96 624.588,1108.09 628.451,1102.93 632.314,1088.25 636.177,1050.46 640.04,1037.85 643.903,1035.98 647.766,1034.68 651.629,1002.84 655.492,1010.68 659.355,1008.73 663.218,1059.91 667.081,1078.43 670.944,1105.29 674.807,1065.16 678.67,1060.8 682.533,1071.77 686.396,1081.94 690.259,1108.72 694.122,1108.71 697.986,1114.63 701.849,1146.48 705.712,1124.14 709.575,1128.45 713.438,1093.21 717.301,1074.53 721.164,1136.32 725.027,1154.67 728.89,1136.37 732.753,1164.21 736.616,1161.09 740.479,1083.76 744.342,1072.24 748.205,1042.88 752.068,1075.86 755.931,1098.75 759.794,1113.37 763.657,1148.63 767.52,1152.95 771.383,1189.93 775.246,1213.47 779.109,1215.27 782.972,1191.1 786.835,1228.12 790.698,1299.05 794.561,1280.36 798.424,1299.01 802.288,1302.06 806.151,1280.15 810.014,1236.54 813.877,1206.77 817.74,1186.19 821.603,1187.95 825.466,1188.69 829.329,1166.8 833.192,1140.07 837.055,1163 840.918,1177.99 844.781,1216.57 848.644,1224.27 852.507,1225.09 856.37,1219.03 860.233,1207.5 864.096,1197.97 867.959,1195.98 871.822,1227.25 875.685,1282.31 879.548,1299.82 883.411,1303.81 887.274,1297.1 891.137,1250.12 895,1205.46 898.863,1193.24 902.726,1157.38 906.59,1121.86 910.453,1093.6 914.316,1127.66 918.179,1112.09 922.042,1100.11 925.905,1128.95 929.768,1179.93 933.631,1213.59 937.494,1225.46 941.357,1232.88 945.22,1240.99 949.083,1232.32 952.946,1227.92 956.809,1227.61 960.672,1223.67 964.535,1209.25 968.398,1141.63 972.261,1137.96 976.124,1111.81 979.987,1101.47 983.85,1101.28 987.713,1080.97 991.576,1058.72 995.439,1021.95 999.302,1007.94 1003.17,1028.98 1007.03,1014.76 1010.89,1019.14 1014.75,975.641 1018.62,986.557 1022.48,1001.96 1026.34,1042.19 1030.21,1033.11 1034.07,1005.35 1037.93,991.239 1041.8,965.312 1045.66,995.221 1049.52,1004.4 1053.38,1007.2 1057.25,947.302 1061.11,931.892 1064.97,920.653 1068.84,931.149 1072.7,922.553 1076.56,918.389 1080.43,911.708 1084.29,925.136 1088.15,937.433 1092.02,928.574 1095.88,946.496 1099.74,957.123 1103.6,945.995 1107.47,951.972 1111.33,960.773 1115.19,972.304 1119.06,938.922 1122.92,1016.35 1126.78,1023.2 1130.65,997.408 1134.51,997.71 1138.37,976.931 1142.23,982.163 1146.1,993.408 1149.96,969.099 1153.82,982.844 1157.69,963.166 1161.55,1002.19 1165.41,981.4 1169.28,952.71 1173.14,922.301 1177,907.658 1180.87,927.189 1184.73,916.34 1188.59,926.624 1192.45,934.211 1196.32,1000.16 1200.18,1003.63 1204.04,969 1207.91,984.404 1211.77,1002.93 1215.63,1010.33 1219.5,1000.37 1223.36,1026.94 1227.22,1028.54 1231.08,1013.36 1234.95,1034.3 1238.81,1051.77 1242.67,1040.32 1246.54,1013.14 1250.4,985.739 1254.26,1014.55 1258.13,1019.21 1261.99,996.499 1265.85,1026.62 1269.71,1053.46 1273.58,1073.59 1277.44,1069.42 1281.3,1085.45 1285.17,1122.31 1289.03,1161.14 1292.89,1105.4 1296.76,1077.6 1300.62,1099 1304.48,1137.83 1308.35,1155.79 1312.21,1138.85 1316.07,1124.08 1319.93,1135.85 1323.8,1133.06 1327.66,1116.23 1331.52,1123.7 1335.39,1085.85 1339.25,1115.36 1343.11,1115.1 1346.98,1122.05 1350.84,1122 1354.7,1155.29 1358.56,1130.73 1362.43,1125.01 1366.29,1142.36 1370.15,1115.44 1374.02,1124.67 1377.88,1162.37 1381.74,1169.57 1385.61,1179.16 1389.47,1138.24 1393.33,1171.64 1397.2,1157.91 1401.06,1190.83 1404.92,1205.13 1408.78,1229.16 1412.65,1243.01 1416.51,1270.8 1420.37,1279.17 1424.24,1296.7 1428.1,1331.42 1431.96,1307.45 1435.83,1267.77 1439.69,1312.12 1443.55,1273.54 1447.41,1259.64 1451.28,1276.85 1455.14,1307.31 1459,1305.88 1462.87,1231.94 1466.73,1174.54 1470.59,1148.62 1474.46,1169.46 1478.32,1192.27 1482.18,1217.11 1486.05,1223.84 1489.91,1221.23 1493.77,1190.72 1497.63,1182.21 1501.5,1172.55 1505.36,1147.2 1509.22,1139.15 1513.09,1104.5 1516.95,1116.08 1520.81,1123.57 1524.68,1139.4 1528.54,1177.25 1532.4,1174.12 1536.26,1147.49 1540.13,1180.17 1543.99,1184.2 1547.85,1197.9 1551.72,1205.76 1555.58,1204.11 1559.44,1157.83 1563.31,1138.54 1567.17,1119.57 1571.03,1129.03 1574.89,1188.56 1578.76,1163.68 1582.62,1153.53 1586.48,1125.78 1590.35,1142.57 1594.21,1135.98 1598.07,1107.01 1601.94,1109.97 1605.8,1117.06 1609.66,1092.22 1613.53,1095.74 1617.39,1071.53 1621.25,1073.11 1625.11,1084.86 1628.98,1098.74 1632.84,1060.19 1636.7,1057.15 1640.57,1045.63 1644.43,1078.34 1648.29,1050.41 1652.16,1029.45 1656.02,1074.33 1659.88,1086.36 1663.74,1104.25 1667.61,1094 1671.47,1121.89 1675.33,1087.71 1679.2,1068.02 1683.06,1076.92 1686.92,1073.79 1690.79,1049.85 1694.65,1036.3 1698.51,1033.24 1702.38,1071.56 1706.24,1090.04 1710.1,1094.42 1713.96,1096.15 1717.83,1091.44 1721.69,1053.29 1725.55,1096.77 1729.42,1105.06 1733.28,1101.94 1737.14,1122.15 1741.01,1116.61 1744.87,1092.79 1748.73,1066.91 1752.59,1020.93 1756.46,1023.76 1760.32,1033.13 1764.18,1005.63 1768.05,1006.1 1771.91,1013.15 1775.77,962.901 1779.64,966.621 1783.5,989.621 1787.36,990.782 1791.22,994.9 1795.09,997.554 1798.95,1016.31 1802.81,991.563 1806.68,995.761 1810.54,998.954 1814.4,1022.24 1818.27,1031.46 1822.13,1041.24 1825.99,1043.13 1829.86,1051.38 1833.72,1031.2 1837.58,1031.27 1841.44,978.305 1845.31,985.289 1849.17,1009.44 1853.03,1073.84 1856.9,1051.38 1860.76,1027.99 1864.62,1066.43 1868.49,1060.88 1872.35,1077.13 1876.21,1069.97 1880.07,1093.05 1883.94,1104.17 1887.8,1093.09 1891.66,1117.49 1895.53,1121.04 1899.39,1125.49 1903.25,1153.89 1907.12,1145.55 1910.98,1159.29 1914.84,1179.1 1918.71,1169 1922.57,1153.82 1926.43,1113.31 1930.29,1136.88 1934.16,1115.74 1938.02,1162.48 1941.88,1130.38 1945.75,1085.99 1949.61,1123.39 1953.47,1121.64 1957.34,1154.2 1961.2,1156.03 1965.06,1141.37 1968.92,1177.88 1972.79,1190.84 1976.65,1194.79 1980.51,1234.04 1984.38,1245.74 1988.24,1246.49 1992.1,1235.61 1995.97,1233.49 1999.83,1216.59 2003.69,1193.79 2007.55,1196.84 2011.42,1195.95 2015.28,1179.6 2019.14,1210.59 2023.01,1157.83 2026.87,1195.25 2030.73,1160.07 2034.6,1160.5 2038.46,1208.23 2042.32,1226.27 2046.19,1192.61 2050.05,1149.14 2053.91,1124.15 2057.77,1134.91 2061.64,1134.27 2065.5,1153.09 2069.36,1189.55 2073.23,1184.65 2077.09,1225.77 2080.95,1236.3 2084.82,1243.95 2088.68,1230.64 2092.54,1242.06 2096.4,1211.59 2100.27,1181.85 2104.13,1197.63 2107.99,1218.85 2111.86,1248.47 2115.72,1250.17 2119.58,1290.56 2123.45,1349.33 2127.31,1334.25 2131.17,1316.4 2135.04,1321.45 2138.9,1343.65 2142.76,1349.66 2146.62,1359.65 2150.49,1381.43 2154.35,1384.24 2158.21,1354.27 2162.08,1343.95 2165.94,1330.89 2169.8,1303.06 2173.67,1262.03 2177.53,1262.59 2181.39,1252.15 2185.25,1235.2 2189.12,1230.06 2192.98,1272.7 2196.84,1289.03 2200.71,1257.85 2204.57,1262.5 2208.43,1256.97 2212.3,1254.98 2216.16,1272.31 2220.02,1276.89 2223.89,1275.83 2227.75,1324.57 2231.61,1342.93 2235.47,1379 2239.34,1330.93 2243.2,1342.77 2247.06,1317.73 2250.93,1291.93 2254.79,1296.25 2258.65,1283.6 2262.52,1286.08 2266.38,1263.51 2270.24,1252.82 2274.1,1220.58 2277.97,1229.68 2281.83,1224.45 2285.69,1204.47 2289.56,1198.22 2293.42,1150.68 "/>
<polyline clip-path="url(#clip702)" style="stroke:#ff7e0d; stroke-linecap:round; stroke-linejoin:round; stroke-width:8; stroke-opacity:1; fill:none" stroke-dasharray="32, 16, 4, 16" points="315.545,1001.32 319.408,1000.65 323.271,1000.27 327.134,1003.31 330.997,1001.23 334.86,1002.08 338.723,999.891 342.586,995.172 346.449,994.731 350.312,996.057 354.175,997.006 358.038,994.282 361.901,990.166 365.764,991.63 369.627,993.468 373.49,991.874 377.353,991.142 381.217,995.685 385.08,993.269 388.943,993.932 392.806,994.534 396.669,994.754 400.532,995.474 404.395,994.052 408.258,993.52 412.121,990.633 415.984,984.929 419.847,987.448 423.71,990.168 427.573,993.128 431.436,993.54 435.299,998.673 439.162,998.588 443.025,1001.09 446.888,1006.03 450.751,1007.42 454.614,1009.91 458.477,1011.13 462.34,1011.6 466.203,1010.54 470.066,1012.52 473.929,1011.4 477.792,1011.55 481.655,1011.13 485.519,1014.56 489.382,1012.45 493.245,1011.23 497.108,1009.92 500.971,1009.98 504.834,1007.63 508.697,1003.53 512.56,1002.11 516.423,1001.53 520.286,1001.06 524.149,1003.72 528.012,1000.38 531.875,996.517 535.738,992.505 539.601,988.076 543.464,989.276 547.327,989.002 551.19,988.499 555.053,988.691 558.916,989.641 562.779,987.982 566.642,993.971 570.505,991.518 574.368,984.751 578.231,986.737 582.094,985.765 585.957,988.117 589.821,989.903 593.684,993.806 597.547,994.678 601.41,992.808 605.273,991.653 609.136,991.406 612.999,995.566 616.862,998.966 620.725,1004.53 624.588,1007.13 628.451,1006.8 632.314,1006.79 636.177,1003.35 640.04,1004.75 643.903,1005.34 647.766,1003.25 651.629,1007.13 655.492,1007.99 659.355,1005.42 663.218,1003.88 667.081,1000.05 670.944,995.11 674.807,992.384 678.67,998.583 682.533,994.608 686.396,996.082 690.259,996.586 694.122,997.245 697.986,1000.84 701.849,1002.78 705.712,1004.54 709.575,1003.8 713.438,1001.99 717.301,998.071 721.164,996.934 725.027,996.851 728.89,996.332 732.753,997.485 736.616,997.948 740.479,995.988 744.342,992.999 748.205,995.26 752.068,996.362 755.931,993.536 759.794,995.165 763.657,998.074 767.52,1002.78 771.383,997.603 775.246,994.974 779.109,993.823 782.972,994.668 786.835,995.977 790.698,997.092 794.561,995.861 798.424,1001.26 802.288,996.351 806.151,995.111 810.014,993.015 813.877,995.512 817.74,992.538 821.603,988.958 825.466,988.467 829.329,984.918 833.192,986.269 837.055,985.345 840.918,989.099 844.781,986.114 848.644,987.287 852.507,983.111 856.37,985.173 860.233,985.975 864.096,985.123 867.959,983.664 871.822,982.03 875.685,984.676 879.548,981.307 883.411,985.513 887.274,981.386 891.137,984.877 895,984.538 898.863,986.158 902.726,986.219 906.59,986.065 910.453,988.752 914.316,989.61 918.179,989.596 922.042,989.701 925.905,986.419 929.768,988.027 933.631,986.722 937.494,980.774 941.357,988.178 945.22,986.095 949.083,988.875 952.946,984.753 956.809,985.466 960.672,984.543 964.535,982.975 968.398,982.096 972.261,984.169 976.124,980.1 979.987,976.71 983.85,975.189 987.713,975.667 991.576,972.18 995.439,972.25 999.302,973.055 1003.17,972.491 1007.03,964.533 1010.89,968.425 1014.75,974.894 1018.62,974.395 1022.48,971.397 1026.34,965.269 1030.21,963.364 1034.07,960.183 1037.93,960.815 1041.8,958.622 1045.66,956.989 1049.52,958.942 1053.38,958.586 1057.25,959.702 1061.11,955.428 1064.97,961.504 1068.84,961.199 1072.7,959.856 1076.56,957.073 1080.43,962.909 1084.29,955.75 1088.15,961.416 1092.02,955.331 1095.88,955.399 1099.74,958.045 1103.6,961.588 1107.47,959.989 1111.33,961.975 1115.19,966.055 1119.06,969.274 1122.92,967.541 1126.78,962.204 1130.65,962.284 1134.51,962.754 1138.37,960.551 1142.23,958.788 1146.1,953.51 1149.96,952.667 1153.82,943.614 1157.69,942.641 1161.55,938.277 1165.41,932.73 1169.28,922.093 1173.14,929.501 1177,926.179 1180.87,930.87 1184.73,940.396 1188.59,944.399 1192.45,940.481 1196.32,941.521 1200.18,937.456 1204.04,937.206 1207.91,936.095 1211.77,934.511 1215.63,936.195 1219.5,931.974 1223.36,932.752 1227.22,931.443 1231.08,925.865 1234.95,926.902 1238.81,929.036 1242.67,924.455 1246.54,924.026 1250.4,926.356 1254.26,919.047 1258.13,911.145 1261.99,903.837 1265.85,900.511 1269.71,903.061 1273.58,904.181 1277.44,908.475 1281.3,908.22 1285.17,918.184 1289.03,925.912 1292.89,925.329 1296.76,927.268 1300.62,928.755 1304.48,925.068 1308.35,924.312 1312.21,922.572 1316.07,926.548 1319.93,932.591 1323.8,938.894 1327.66,940.774 1331.52,937.035 1335.39,936.453 1339.25,936.936 1343.11,937.988 1346.98,942.884 1350.84,946.691 1354.7,954.465 1358.56,960.545 1362.43,963.626 1366.29,961.761 1370.15,962.868 1374.02,960.839 1377.88,964.224 1381.74,965.716 1385.61,969.364 1389.47,969.669 1393.33,972.469 1397.2,971.66 1401.06,971.492 1404.92,970.112 1408.78,978.207 1412.65,979.523 1416.51,981.906 1420.37,980.813 1424.24,984.579 1428.1,987.097 1431.96,989.011 1435.83,988.732 1439.69,991.693 1443.55,994.597 1447.41,991.126 1451.28,989.604 1455.14,991.355 1459,991.16 1462.87,986.114 1466.73,990.715 1470.59,991.187 1474.46,988.436 1478.32,990.74 1482.18,990.743 1486.05,989.864 1489.91,987.144 1493.77,987.125 1497.63,983.876 1501.5,986.84 1505.36,988.125 1509.22,987.514 1513.09,983.919 1516.95,981.704 1520.81,979.792 1524.68,982.709 1528.54,982.722 1532.4,982.404 1536.26,985.955 1540.13,988.878 1543.99,987.983 1547.85,983.892 1551.72,980.478 1555.58,978.715 1559.44,977.884 1563.31,973.953 1567.17,975.803 1571.03,973.037 1574.89,972.762 1578.76,970.424 1582.62,971.884 1586.48,970.909 1590.35,965.72 1594.21,965.105 1598.07,964.535 1601.94,958.47 1605.8,956.44 1609.66,952.33 1613.53,949.818 1617.39,949.431 1621.25,956.541 1625.11,957.395 1628.98,954.736 1632.84,949.474 1636.7,950.325 1640.57,947.418 1644.43,957.96 1648.29,954.275 1652.16,953.024 1656.02,949.007 1659.88,948.07 1663.74,943.048 1667.61,935.435 1671.47,944.424 1675.33,943.945 1679.2,947.133 1683.06,947.066 1686.92,951.42 1690.79,958.605 1694.65,954.814 1698.51,952.1 1702.38,945.617 1706.24,931.852 1710.1,933.998 1713.96,927.617 1717.83,927.795 1721.69,927.9 1725.55,921.768 1729.42,926.854 1733.28,924.126 1737.14,932.768 1741.01,933.7 1744.87,929.776 1748.73,932.678 1752.59,928.417 1756.46,932.522 1760.32,939.525 1764.18,938.653 1768.05,934.914 1771.91,931.524 1775.77,929.726 1779.64,927.568 1783.5,921.302 1787.36,919.228 1791.22,919.05 1795.09,920.984 1798.95,926.531 1802.81,925.964 1806.68,920.305 1810.54,921.796 1814.4,913.4 1818.27,909.134 1822.13,907.263 1825.99,911.168 1829.86,913.04 1833.72,908.875 1837.58,898.226 1841.44,896 1845.31,898.219 1849.17,884.39 1853.03,888.449 1856.9,892.195 1860.76,888.787 1864.62,897.337 1868.49,889.781 1872.35,901.299 1876.21,900.991 1880.07,899.804 1883.94,889.82 1887.8,886.064 1891.66,893.13 1895.53,884.55 1899.39,864.715 1903.25,862.414 1907.12,862.158 1910.98,868.329 1914.84,869.571 1918.71,868.903 1922.57,872.486 1926.43,864.903 1930.29,863.785 1934.16,862.364 1938.02,855.567 1941.88,861.944 1945.75,864.13 1949.61,864.758 1953.47,863.515 1957.34,876.994 1961.2,876.27 1965.06,861.45 1968.92,858.54 1972.79,850.306 1976.65,854.444 1980.51,848.673 1984.38,841.954 1988.24,858.96 1992.1,854.181 1995.97,856.247 1999.83,863.503 2003.69,856 2007.55,849.858 2011.42,848.069 2015.28,846.889 2019.14,847.726 2023.01,850.451 2026.87,845.087 2030.73,847.6 2034.6,840.927 2038.46,834.665 2042.32,838.615 2046.19,844.156 2050.05,840.329 2053.91,848.919 2057.77,855.361 2061.64,849.464 2065.5,849.388 2069.36,841.245 2073.23,844.3 2077.09,843.049 2080.95,836.619 2084.82,836.576 2088.68,842.735 2092.54,836.852 2096.4,842.146 2100.27,842.071 2104.13,854.745 2107.99,863.172 2111.86,864.001 2115.72,866.095 2119.58,865.207 2123.45,861.122 2127.31,863.871 2131.17,859.971 2135.04,851.355 2138.9,856.449 2142.76,853.781 2146.62,857.515 2150.49,862.407 2154.35,861.395 2158.21,858.802 2162.08,860.594 2165.94,864.598 2169.8,861.018 2173.67,862.361 2177.53,850.454 2181.39,832.832 2185.25,844.703 2189.12,849.196 2192.98,856.365 2196.84,853.802 2200.71,850.276 2204.57,850.384 2208.43,853.617 2212.3,864.444 2216.16,868.848 2220.02,860.205 2223.89,856.088 2227.75,854.182 2231.61,851.516 2235.47,852.891 2239.34,861.875 2243.2,868.791 2247.06,869.04 2250.93,868.657 2254.79,874.698 2258.65,881.987 2262.52,881.985 2266.38,883.084 2270.24,883.78 2274.1,894.39 2277.97,884.987 2281.83,876.367 2285.69,868.591 2289.56,873.126 2293.42,870.009 "/>
<polyline clip-path="url(#clip702)" style="stroke:#2ba02b; stroke-linecap:round; stroke-linejoin:round; stroke-width:8; stroke-opacity:1; fill:none" stroke-dasharray="32, 16, 4, 16, 4, 16" points="315.545,1081.75 319.408,1081.75 323.271,1081.75 327.134,1081.75 330.997,1081.75 334.86,1081.75 338.723,1081.75 342.586,1081.75 346.449,1081.75 350.312,1081.75 354.175,1081.75 358.038,1081.75 361.901,1081.75 365.764,1081.75 369.627,1081.75 373.49,1081.75 377.353,1081.75 381.217,1081.75 385.08,1081.75 388.943,1081.75 392.806,1081.75 396.669,1081.75 400.532,1081.75 404.395,1081.75 408.258,1081.75 412.121,1081.75 415.984,1081.75 419.847,1081.75 423.71,1081.75 427.573,1081.75 431.436,1081.75 435.299,1081.75 439.162,1081.75 443.025,1081.75 446.888,1081.75 450.751,1081.75 454.614,1081.75 458.477,1081.75 462.34,1081.75 466.203,1081.75 470.066,1081.75 473.929,1081.75 477.792,1081.75 481.655,1081.75 485.519,1081.75 489.382,1081.75 493.245,1081.75 497.108,1081.75 500.971,1081.75 504.834,1081.75 508.697,1081.75 512.56,1081.75 516.423,1081.75 520.286,1081.75 524.149,1081.75 528.012,1081.75 531.875,1081.75 535.738,1006.03 539.601,959.175 543.464,959.175 547.327,959.175 551.19,959.175 555.053,959.175 558.916,959.175 562.779,959.175 566.642,959.175 570.505,959.175 574.368,959.175 578.231,959.175 582.094,959.175 585.957,959.175 589.821,959.175 593.684,959.175 597.547,959.175 601.41,959.175 605.273,959.175 609.136,959.175 612.999,959.175 616.862,959.175 620.725,959.175 624.588,959.175 628.451,959.175 632.314,959.175 636.177,959.175 640.04,959.175 643.903,959.175 647.766,959.175 651.629,959.175 655.492,959.175 659.355,959.175 663.218,959.175 667.081,959.175 670.944,959.175 674.807,959.175 678.67,959.175 682.533,959.175 686.396,959.175 690.259,959.175 694.122,959.175 697.986,959.175 701.849,959.175 705.712,959.175 709.575,932.274 713.438,932.274 717.301,932.274 721.164,864.61 725.027,864.61 728.89,864.61 732.753,864.61 736.616,864.61 740.479,864.61 744.342,864.61 748.205,864.61 752.068,795.629 755.931,795.629 759.794,795.629 763.657,795.629 767.52,795.629 771.383,795.629 775.246,795.629 779.109,795.629 782.972,795.629 786.835,795.629 790.698,795.629 794.561,795.629 798.424,795.629 802.288,795.629 806.151,795.629 810.014,795.629 813.877,795.629 817.74,795.629 821.603,795.629 825.466,795.629 829.329,795.629 833.192,795.629 837.055,795.629 840.918,795.629 844.781,795.629 848.644,743.859 852.507,743.859 856.37,743.859 860.233,743.859 864.096,743.859 867.959,743.859 871.822,743.859 875.685,743.859 879.548,743.859 883.411,743.859 887.274,743.859 891.137,743.859 895,743.859 898.863,743.859 902.726,743.859 906.59,743.859 910.453,743.859 914.316,743.859 918.179,743.859 922.042,743.859 925.905,743.859 929.768,743.859 933.631,743.859 937.494,743.859 941.357,743.859 945.22,743.859 949.083,743.859 952.946,743.859 956.809,743.859 960.672,743.859 964.535,743.859 968.398,743.859 972.261,743.859 976.124,743.859 979.987,743.859 983.85,743.859 987.713,743.859 991.576,743.859 995.439,743.859 999.302,743.859 1003.17,743.859 1007.03,743.859 1010.89,743.859 1014.75,716.189 1018.62,716.189 1022.48,716.189 1026.34,716.189 1030.21,716.189 1034.07,695.112 1037.93,695.112 1041.8,695.112 1045.66,695.112 1049.52,695.112 1053.38,695.112 1057.25,695.112 1061.11,695.112 1064.97,695.112 1068.84,695.112 1072.7,695.112 1076.56,695.112 1080.43,695.112 1084.29,695.112 1088.15,615.87 1092.02,591.633 1095.88,591.633 1099.74,591.633 1103.6,591.633 1107.47,591.633 1111.33,591.633 1115.19,591.633 1119.06,591.633 1122.92,591.633 1126.78,591.633 1130.65,591.633 1134.51,591.633 1138.37,591.633 1142.23,591.633 1146.1,591.633 1149.96,591.633 1153.82,591.633 1157.69,591.633 1161.55,582.926 1165.41,582.926 1169.28,582.926 1173.14,582.926 1177,582.926 1180.87,582.926 1184.73,582.926 1188.59,582.926 1192.45,582.926 1196.32,582.926 1200.18,582.926 1204.04,582.926 1207.91,582.926 1211.77,582.926 1215.63,582.926 1219.5,582.926 1223.36,582.926 1227.22,582.926 1231.08,582.926 1234.95,582.926 1238.81,582.926 1242.67,582.926 1246.54,582.926 1250.4,582.926 1254.26,504.335 1258.13,504.335 1261.99,504.335 1265.85,504.335 1269.71,504.335 1273.58,504.335 1277.44,504.335 1281.3,504.335 1285.17,504.335 1289.03,504.335 1292.89,504.335 1296.76,504.335 1300.62,504.335 1304.48,504.335 1308.35,504.335 1312.21,504.335 1316.07,504.335 1319.93,504.335 1323.8,504.335 1327.66,504.335 1331.52,504.335 1335.39,504.335 1339.25,504.335 1343.11,504.335 1346.98,491.266 1350.84,491.266 1354.7,491.266 1358.56,491.266 1362.43,491.266 1366.29,491.266 1370.15,491.266 1374.02,470.954 1377.88,470.954 1381.74,470.954 1385.61,470.954 1389.47,470.954 1393.33,470.954 1397.2,470.954 1401.06,470.954 1404.92,470.954 1408.78,470.954 1412.65,470.954 1416.51,470.954 1420.37,470.954 1424.24,470.954 1428.1,470.954 1431.96,470.954 1435.83,470.954 1439.69,470.954 1443.55,470.954 1447.41,470.954 1451.28,470.954 1455.14,470.954 1459,470.954 1462.87,391.686 1466.73,391.686 1470.59,391.686 1474.46,391.686 1478.32,391.686 1482.18,391.686 1486.05,391.686 1489.91,391.686 1493.77,391.686 1497.63,391.686 1501.5,391.686 1505.36,391.686 1509.22,391.686 1513.09,391.686 1516.95,391.686 1520.81,391.686 1524.68,391.686 1528.54,391.686 1532.4,391.686 1536.26,391.686 1540.13,391.686 1543.99,391.686 1547.85,391.686 1551.72,391.686 1555.58,391.686 1559.44,391.686 1563.31,391.686 1567.17,391.686 1571.03,391.686 1574.89,391.686 1578.76,391.686 1582.62,391.686 1586.48,391.686 1590.35,391.686 1594.21,391.686 1598.07,391.686 1601.94,391.686 1605.8,391.686 1609.66,328.246 1613.53,328.246 1617.39,328.246 1621.25,328.246 1625.11,328.246 1628.98,328.246 1632.84,328.246 1636.7,328.246 1640.57,328.246 1644.43,328.246 1648.29,328.246 1652.16,328.246 1656.02,328.246 1659.88,316.376 1663.74,316.376 1667.61,316.376 1671.47,316.376 1675.33,316.376 1679.2,316.376 1683.06,316.376 1686.92,316.376 1690.79,316.376 1694.65,316.376 1698.51,316.376 1702.38,316.376 1706.24,316.376 1710.1,316.376 1713.96,316.376 1717.83,316.376 1721.69,316.376 1725.55,316.376 1729.42,316.376 1733.28,316.376 1737.14,316.376 1741.01,316.376 1744.87,316.376 1748.73,316.376 1752.59,316.376 1756.46,316.376 1760.32,316.376 1764.18,316.376 1768.05,316.376 1771.91,316.376 1775.77,316.376 1779.64,316.376 1783.5,316.376 1787.36,316.376 1791.22,316.376 1795.09,316.376 1798.95,316.376 1802.81,316.376 1806.68,316.376 1810.54,316.376 1814.4,316.376 1818.27,316.376 1822.13,316.376 1825.99,316.376 1829.86,316.376 1833.72,316.376 1837.58,316.376 1841.44,316.376 1845.31,242.809 1849.17,242.809 1853.03,242.809 1856.9,242.809 1860.76,242.809 1864.62,242.809 1868.49,242.809 1872.35,242.809 1876.21,242.809 1880.07,242.809 1883.94,242.809 1887.8,242.809 1891.66,242.809 1895.53,242.809 1899.39,242.809 1903.25,242.809 1907.12,242.809 1910.98,242.809 1914.84,242.809 1918.71,242.809 1922.57,242.809 1926.43,242.809 1930.29,242.809 1934.16,242.809 1938.02,242.809 1941.88,242.809 1945.75,242.809 1949.61,242.809 1953.47,242.809 1957.34,242.809 1961.2,242.809 1965.06,242.809 1968.92,215.111 1972.79,215.111 1976.65,215.111 1980.51,215.111 1984.38,215.111 1988.24,215.111 1992.1,215.111 1995.97,215.111 1999.83,215.111 2003.69,215.111 2007.55,215.111 2011.42,215.111 2015.28,215.111 2019.14,215.111 2023.01,215.111 2026.87,215.111 2030.73,215.111 2034.6,215.111 2038.46,215.111 2042.32,215.111 2046.19,215.111 2050.05,215.111 2053.91,215.111 2057.77,215.111 2061.64,215.111 2065.5,215.111 2069.36,215.111 2073.23,215.111 2077.09,215.111 2080.95,215.111 2084.82,215.111 2088.68,215.111 2092.54,215.111 2096.4,215.111 2100.27,215.111 2104.13,215.111 2107.99,158.811 2111.86,158.811 2115.72,158.811 2119.58,158.811 2123.45,158.811 2127.31,158.811 2131.17,158.811 2135.04,158.811 2138.9,158.811 2142.76,158.811 2146.62,158.811 2150.49,158.811 2154.35,158.811 2158.21,158.811 2162.08,158.811 2165.94,158.811 2169.8,158.811 2173.67,158.811 2177.53,158.811 2181.39,158.811 2185.25,158.811 2189.12,158.811 2192.98,158.811 2196.84,158.811 2200.71,93.526 2204.57,93.526 2208.43,93.526 2212.3,93.526 2216.16,93.526 2220.02,93.526 2223.89,93.526 2227.75,86.1857 2231.61,86.1857 2235.47,86.1857 2239.34,86.1857 2243.2,86.1857 2247.06,86.1857 2250.93,86.1857 2254.79,86.1857 2258.65,86.1857 2262.52,86.1857 2266.38,86.1857 2270.24,86.1857 2274.1,86.1857 2277.97,86.1857 2281.83,86.1857 2285.69,86.1857 2289.56,86.1857 2293.42,86.1857 "/>
<path clip-path="url(#clip700)" d="M326.094 300.469 L590.099 300.469 L590.099 93.1086 L326.094 93.1086  Z" fill="#ffffff" fill-rule="evenodd" fill-opacity="1"/>
<polyline clip-path="url(#clip700)" style="stroke:#000000; stroke-linecap:round; stroke-linejoin:round; stroke-width:4; stroke-opacity:1; fill:none" points="326.094,300.469 590.099,300.469 590.099,93.1086 326.094,93.1086 326.094,300.469 "/>
<polyline clip-path="url(#clip700)" style="stroke:#1f77b4; stroke-linecap:round; stroke-linejoin:round; stroke-width:8; stroke-opacity:1; fill:none" stroke-dasharray="32, 20" points="349.389,144.949 489.158,144.949 "/>
<path clip-path="url(#clip700)" d="M545.62 133.821 Q545.62 137.17 544.425 140.496 Q543.254 143.799 541.193 146.516 Q539.131 149.233 536.508 151.341 Q533.885 153.449 530.817 154.62 Q527.748 155.791 524.75 155.791 Q519.433 155.791 515.943 152.301 Q512.453 148.811 512.453 142.979 Q512.453 138.904 514.28 134.852 Q516.107 130.776 519.012 127.755 Q521.916 124.71 525.734 122.812 Q529.575 120.915 533.37 120.915 Q538.757 120.915 542.176 124.499 Q545.62 128.059 545.62 133.821 M541.333 131.947 Q541.333 129.371 540.607 127.427 Q539.881 125.459 538.663 124.335 Q537.468 123.211 536.04 122.672 Q534.634 122.11 533.089 122.11 Q530.09 122.11 526.882 124.054 Q523.673 125.998 521.284 129.605 Q519.995 131.572 519.058 133.938 Q518.122 136.28 517.7 138.365 Q517.278 140.426 517.091 141.878 Q516.927 143.33 516.927 144.338 Q516.927 149.022 519.176 151.786 Q521.424 154.55 525.031 154.55 Q527.865 154.55 530.629 152.887 Q533.393 151.2 535.29 148.788 Q536.977 146.703 538.218 144.197 Q539.483 141.691 540.115 139.396 Q540.748 137.1 541.029 135.25 Q541.333 133.399 541.333 131.947 Z" fill="#000000" fill-rule="nonzero" fill-opacity="1" /><path clip-path="url(#clip700)" d="M560.714 154.172 Q560.714 154.631 560.501 154.746 Q560.288 154.844 559.698 154.844 L556.55 154.844 L554.058 164.747 Q553.861 165.616 553.861 166.354 Q553.861 167.174 554.107 167.535 Q554.369 167.895 554.91 167.895 Q555.976 167.895 557.124 166.928 Q558.288 165.961 559.272 163.6 Q559.403 163.288 559.468 163.223 Q559.55 163.141 559.763 163.141 Q560.173 163.141 560.173 163.469 Q560.173 163.583 559.944 164.108 Q559.731 164.633 559.255 165.403 Q558.796 166.174 558.189 166.895 Q557.599 167.617 556.697 168.141 Q555.796 168.65 554.828 168.65 Q553.467 168.65 552.598 167.781 Q551.746 166.912 551.746 165.551 Q551.746 165.108 552.09 163.698 Q552.435 162.272 554.304 154.844 L551.336 154.844 Q550.926 154.844 550.762 154.828 Q550.615 154.812 550.5 154.73 Q550.401 154.631 550.401 154.435 Q550.401 154.123 550.533 153.992 Q550.664 153.844 550.828 153.828 Q551.008 153.795 551.418 153.795 L554.566 153.795 L555.878 148.467 Q556.009 147.942 556.337 147.647 Q556.681 147.335 556.878 147.302 Q557.075 147.253 557.222 147.253 Q557.665 147.253 557.927 147.499 Q558.189 147.729 558.189 148.155 Q558.189 148.385 556.812 153.795 L559.763 153.795 Q560.141 153.795 560.288 153.812 Q560.452 153.828 560.583 153.91 Q560.714 153.992 560.714 154.172 Z" fill="#000000" fill-rule="nonzero" fill-opacity="1" /><polyline clip-path="url(#clip700)" style="stroke:#ff7e0d; stroke-linecap:round; stroke-linejoin:round; stroke-width:8; stroke-opacity:1; fill:none" stroke-dasharray="32, 16, 4, 16" points="349.389,196.789 489.158,196.789 "/>
<path clip-path="url(#clip700)" d="M541.474 179.524 Q541.474 178.751 541.263 178.119 Q541.076 177.463 540.771 177.018 Q540.49 176.549 539.951 176.198 Q539.413 175.823 538.968 175.589 Q538.523 175.355 537.773 175.214 Q537.023 175.05 536.532 174.98 Q536.04 174.886 535.197 174.839 Q534.353 174.793 533.932 174.793 Q533.534 174.793 532.737 174.793 Q530.231 174.793 529.809 174.839 Q529.177 174.933 528.943 175.308 Q528.709 175.659 528.474 176.62 L525.359 189.127 L530.723 189.127 Q533.651 189.127 535.665 188.307 Q537.679 187.488 538.827 186.34 Q540.092 185.075 540.771 183.037 Q541.474 181 541.474 179.524 M546.697 201.611 Q546.697 201.869 546.486 202.455 Q546.299 203.04 545.83 203.86 Q545.362 204.656 544.729 205.382 Q544.097 206.108 543.09 206.6 Q542.083 207.116 540.935 207.116 Q540.654 207.116 540.373 207.092 Q540.092 207.092 539.389 206.975 Q538.71 206.881 538.148 206.694 Q537.586 206.53 536.883 206.132 Q536.18 205.757 535.688 205.242 Q535.22 204.703 534.892 203.86 Q534.564 202.993 534.564 201.939 Q534.564 201.002 535.337 197.864 Q536.016 195.194 536.016 194.538 Q536.016 193.812 535.782 193.132 Q535.571 192.453 535.033 191.75 Q534.517 191.048 533.416 190.626 Q532.316 190.181 530.77 190.181 L525.078 190.181 L521.893 202.9 Q521.893 202.923 521.822 203.251 Q521.752 203.555 521.752 203.719 Q521.752 204.024 521.939 204.211 Q522.15 204.399 522.666 204.492 Q523.181 204.563 523.579 204.586 Q524.001 204.586 524.867 204.586 Q525.945 204.586 526.132 204.773 Q526.226 204.89 526.226 205.101 Q526.226 205.429 526.132 205.663 Q526.062 205.874 525.874 205.944 Q525.71 206.015 525.593 206.038 Q525.476 206.062 525.265 206.062 L519.176 205.921 L513.133 206.062 Q512.453 206.062 512.453 205.523 Q512.453 205.054 512.617 204.867 Q512.781 204.656 512.992 204.633 Q513.203 204.586 513.742 204.586 Q514.913 204.586 515.615 204.516 Q516.318 204.445 516.763 204.352 Q517.232 204.235 517.466 203.907 Q517.723 203.579 517.84 203.298 Q517.958 202.993 518.122 202.314 L524.539 176.549 Q524.727 175.776 524.727 175.659 Q524.727 175.214 524.446 175.097 Q524.188 174.957 523.438 174.886 L521.612 174.793 Q521.049 174.793 520.815 174.769 Q520.604 174.746 520.44 174.629 Q520.276 174.512 520.276 174.254 Q520.276 173.598 520.557 173.458 Q520.839 173.294 521.658 173.294 L535.337 173.294 Q539.998 173.294 542.949 175.331 Q545.924 177.369 545.924 180.484 Q545.924 181.89 545.292 183.201 Q544.659 184.513 543.605 185.544 Q542.575 186.574 541.193 187.441 Q539.811 188.284 538.335 188.87 Q536.883 189.432 535.384 189.76 Q536.04 189.994 536.649 190.345 Q537.281 190.696 538.077 191.352 Q538.897 192.008 539.389 193.062 Q539.881 194.116 539.881 195.404 Q539.881 196.318 539.694 197.676 Q539.225 201.541 539.225 203.134 Q539.225 204.656 539.623 205.359 Q540.022 206.062 541.146 206.062 Q542.247 206.062 543.465 205.078 Q544.706 204.071 545.502 201.705 Q545.69 201.026 546.135 201.026 Q546.158 201.026 546.182 201.026 Q546.228 201.026 546.322 201.073 Q546.416 201.096 546.486 201.166 Q546.58 201.213 546.627 201.33 Q546.697 201.447 546.697 201.611 Z" fill="#000000" fill-rule="nonzero" fill-opacity="1" /><path clip-path="url(#clip700)" d="M561.792 205.497 Q561.792 205.956 561.579 206.07 Q561.366 206.169 560.776 206.169 L557.628 206.169 L555.136 216.072 Q554.939 216.941 554.939 217.679 Q554.939 218.498 555.185 218.859 Q555.447 219.22 555.988 219.22 Q557.054 219.22 558.202 218.252 Q559.366 217.285 560.35 214.924 Q560.481 214.613 560.546 214.547 Q560.628 214.465 560.842 214.465 Q561.251 214.465 561.251 214.793 Q561.251 214.908 561.022 215.432 Q560.809 215.957 560.333 216.728 Q559.874 217.498 559.268 218.22 Q558.677 218.941 557.776 219.466 Q556.874 219.974 555.906 219.974 Q554.546 219.974 553.677 219.105 Q552.824 218.236 552.824 216.875 Q552.824 216.433 553.168 215.022 Q553.513 213.596 555.382 206.169 L552.414 206.169 Q552.004 206.169 551.84 206.152 Q551.693 206.136 551.578 206.054 Q551.48 205.956 551.48 205.759 Q551.48 205.447 551.611 205.316 Q551.742 205.169 551.906 205.152 Q552.086 205.119 552.496 205.119 L555.644 205.119 L556.956 199.791 Q557.087 199.266 557.415 198.971 Q557.759 198.66 557.956 198.627 Q558.153 198.578 558.3 198.578 Q558.743 198.578 559.005 198.824 Q559.268 199.053 559.268 199.479 Q559.268 199.709 557.89 205.119 L560.842 205.119 Q561.219 205.119 561.366 205.136 Q561.53 205.152 561.661 205.234 Q561.792 205.316 561.792 205.497 Z" fill="#000000" fill-rule="nonzero" fill-opacity="1" /><polyline clip-path="url(#clip700)" style="stroke:#2ba02b; stroke-linecap:round; stroke-linejoin:round; stroke-width:8; stroke-opacity:1; fill:none" stroke-dasharray="32, 16, 4, 16, 4, 16" points="349.389,248.629 489.158,248.629 "/>
<path clip-path="url(#clip700)" d="M546.51 225.087 L543.488 237.314 Q543.277 238.087 543.137 238.18 Q543.02 238.274 542.645 238.274 Q541.919 238.274 541.919 237.782 Q541.919 237.735 541.989 237.126 Q542.059 236.494 542.059 235.346 Q542.059 231.107 539.998 228.6 Q537.96 226.094 534.33 226.094 Q531.191 226.094 528.029 227.687 Q524.891 229.28 522.642 231.88 Q520.956 233.847 519.714 236.33 Q518.496 238.813 517.911 241.085 Q517.349 243.357 517.091 245.066 Q516.833 246.776 516.833 248.018 Q516.833 249.821 517.208 251.344 Q517.606 252.866 518.309 253.944 Q519.012 254.998 519.902 255.817 Q520.815 256.614 521.869 257.082 Q522.947 257.551 524.024 257.785 Q525.101 257.996 526.226 257.996 Q530.746 257.996 535.056 254.482 Q538.476 251.601 539.904 246.893 Q540.022 246.425 540.513 246.425 Q541.099 246.425 541.099 246.893 Q541.099 246.987 540.982 247.456 Q540.865 247.901 540.513 248.814 Q540.162 249.704 539.623 250.711 Q539.085 251.718 538.077 252.983 Q537.07 254.248 535.829 255.349 Q533.721 257.176 531.051 258.324 Q528.381 259.471 525.453 259.471 Q521.799 259.471 518.848 257.855 Q515.896 256.239 514.163 253.217 Q512.453 250.196 512.453 246.331 Q512.453 242.256 514.327 238.25 Q516.201 234.245 519.176 231.271 Q522.15 228.296 526.085 226.446 Q530.02 224.595 533.955 224.595 Q535.454 224.595 536.789 224.993 Q538.124 225.392 538.921 225.883 Q539.74 226.375 540.467 227.101 Q541.193 227.804 541.427 228.132 Q541.685 228.46 541.919 228.858 L545.268 225.181 Q545.854 224.595 545.994 224.595 Q546.275 224.595 546.392 224.759 Q546.51 224.923 546.51 225.087 Z" fill="#000000" fill-rule="nonzero" fill-opacity="1" /><path clip-path="url(#clip700)" d="M561.605 257.852 Q561.605 258.311 561.392 258.426 Q561.179 258.524 560.588 258.524 L557.44 258.524 L554.948 268.427 Q554.752 269.296 554.752 270.034 Q554.752 270.854 554.998 271.215 Q555.26 271.575 555.801 271.575 Q556.867 271.575 558.014 270.608 Q559.178 269.641 560.162 267.28 Q560.293 266.968 560.359 266.903 Q560.441 266.821 560.654 266.821 Q561.064 266.821 561.064 267.149 Q561.064 267.263 560.834 267.788 Q560.621 268.313 560.146 269.083 Q559.687 269.854 559.08 270.575 Q558.49 271.297 557.588 271.821 Q556.686 272.33 555.719 272.33 Q554.358 272.33 553.489 271.461 Q552.637 270.592 552.637 269.231 Q552.637 268.788 552.981 267.378 Q553.325 265.952 555.194 258.524 L552.227 258.524 Q551.817 258.524 551.653 258.508 Q551.505 258.492 551.39 258.41 Q551.292 258.311 551.292 258.115 Q551.292 257.803 551.423 257.672 Q551.554 257.524 551.718 257.508 Q551.899 257.475 552.309 257.475 L555.457 257.475 L556.768 252.147 Q556.899 251.622 557.227 251.327 Q557.572 251.015 557.768 250.982 Q557.965 250.933 558.113 250.933 Q558.555 250.933 558.818 251.179 Q559.08 251.409 559.08 251.835 Q559.08 252.065 557.703 257.475 L560.654 257.475 Q561.031 257.475 561.179 257.492 Q561.343 257.508 561.474 257.59 Q561.605 257.672 561.605 257.852 Z" fill="#000000" fill-rule="nonzero" fill-opacity="1" /></svg>
