<?xml version="1.0" encoding="utf-8"?>
<svg xmlns="http://www.w3.org/2000/svg" xmlns:xlink="http://www.w3.org/1999/xlink" width="600" height="400" viewBox="0 0 2400 1600">
<defs>
  <clipPath id="clip520">
    <rect x="0" y="0" width="2400" height="1600"/>
  </clipPath>
</defs>
<path clip-path="url(#clip520)" d="M0 1600 L2400 1600 L2400 0 L0 0  Z" fill="#ffffff" fill-rule="evenodd" fill-opacity="1"/>
<defs>
  <clipPath id="clip521">
    <rect x="480" y="0" width="1681" height="1600"/>
  </clipPath>
</defs>
<path clip-path="url(#clip520)" d="M289.119 1410.9 L2352.76 1410.9 L2352.76 47.2441 L289.119 47.2441  Z" fill="#ffffff" fill-rule="evenodd" fill-opacity="1"/>
<defs>
  <clipPath id="clip522">
    <rect x="289" y="47" width="2065" height="1365"/>
  </clipPath>
</defs>
<polyline clip-path="url(#clip522)" style="stroke:#000000; stroke-linecap:round; stroke-linejoin:round; stroke-width:2; stroke-opacity:0.1; fill:none" points="847.976,1410.9 847.976,47.2441 "/>
<polyline clip-path="url(#clip522)" style="stroke:#000000; stroke-linecap:round; stroke-linejoin:round; stroke-width:2; stroke-opacity:0.1; fill:none" points="1925.85,1410.9 1925.85,47.2441 "/>
<polyline clip-path="url(#clip522)" style="stroke:#000000; stroke-linecap:round; stroke-linejoin:round; stroke-width:2; stroke-opacity:0.1; fill:none" points="289.119,1252.48 2352.76,1252.48 "/>
<polyline clip-path="url(#clip522)" style="stroke:#000000; stroke-linecap:round; stroke-linejoin:round; stroke-width:2; stroke-opacity:0.1; fill:none" points="289.119,610.565 2352.76,610.565 "/>
<polyline clip-path="url(#clip520)" style="stroke:#000000; stroke-linecap:round; stroke-linejoin:round; stroke-width:4; stroke-opacity:1; fill:none" points="289.119,1410.9 2352.76,1410.9 "/>
<polyline clip-path="url(#clip520)" style="stroke:#000000; stroke-linecap:round; stroke-linejoin:round; stroke-width:4; stroke-opacity:1; fill:none" points="847.976,1410.9 847.976,1392 "/>
<polyline clip-path="url(#clip520)" style="stroke:#000000; stroke-linecap:round; stroke-linejoin:round; stroke-width:4; stroke-opacity:1; fill:none" points="1925.85,1410.9 1925.85,1392 "/>
<path clip-path="url(#clip520)" d="M779.218 1485.02 L786.857 1485.02 L786.857 1458.66 L778.547 1460.32 L778.547 1456.06 L786.811 1454.4 L791.486 1454.4 L791.486 1485.02 L799.125 1485.02 L799.125 1488.96 L779.218 1488.96 L779.218 1485.02 Z" fill="#000000" fill-rule="nonzero" fill-opacity="1" /><path clip-path="url(#clip520)" d="M818.57 1457.48 Q814.959 1457.48 813.13 1461.04 Q811.324 1464.58 811.324 1471.71 Q811.324 1478.82 813.13 1482.38 Q814.959 1485.92 818.57 1485.92 Q822.204 1485.92 824.009 1482.38 Q825.838 1478.82 825.838 1471.71 Q825.838 1464.58 824.009 1461.04 Q822.204 1457.48 818.57 1457.48 M818.57 1453.77 Q824.38 1453.77 827.435 1458.38 Q830.514 1462.96 830.514 1471.71 Q830.514 1480.44 827.435 1485.04 Q824.38 1489.63 818.57 1489.63 Q812.76 1489.63 809.681 1485.04 Q806.625 1480.44 806.625 1471.71 Q806.625 1462.96 809.681 1458.38 Q812.76 1453.77 818.57 1453.77 Z" fill="#000000" fill-rule="nonzero" fill-opacity="1" /><path clip-path="url(#clip520)" d="M830.514 1447.87 L854.626 1447.87 L854.626 1451.07 L830.514 1451.07 L830.514 1447.87 Z" fill="#000000" fill-rule="nonzero" fill-opacity="1" /><path clip-path="url(#clip520)" d="M866.098 1458.35 L879.358 1458.35 L879.358 1461.55 L861.528 1461.55 L861.528 1458.35 Q863.691 1456.11 867.415 1452.35 Q871.158 1448.57 872.117 1447.48 Q873.941 1445.43 874.656 1444.02 Q875.389 1442.59 875.389 1441.22 Q875.389 1438.98 873.81 1437.57 Q872.249 1436.16 869.728 1436.16 Q867.942 1436.16 865.948 1436.78 Q863.973 1437.4 861.716 1438.66 L861.716 1434.82 Q864.011 1433.9 866.004 1433.43 Q867.998 1432.96 869.653 1432.96 Q874.016 1432.96 876.612 1435.14 Q879.207 1437.32 879.207 1440.97 Q879.207 1442.7 878.549 1444.26 Q877.91 1445.8 876.198 1447.91 Q875.728 1448.46 873.208 1451.07 Q870.687 1453.67 866.098 1458.35 Z" fill="#000000" fill-rule="nonzero" fill-opacity="1" /><path clip-path="url(#clip520)" d="M887.332 1456.77 L891.301 1456.77 L891.301 1461.55 L887.332 1461.55 L887.332 1456.77 Z" fill="#000000" fill-rule="nonzero" fill-opacity="1" /><path clip-path="url(#clip520)" d="M907.701 1435.97 Q904.767 1435.97 903.281 1438.86 Q901.814 1441.74 901.814 1447.53 Q901.814 1453.31 903.281 1456.2 Q904.767 1459.08 907.701 1459.08 Q910.654 1459.08 912.121 1456.2 Q913.607 1453.31 913.607 1447.53 Q913.607 1441.74 912.121 1438.86 Q910.654 1435.97 907.701 1435.97 M907.701 1432.96 Q912.422 1432.96 914.905 1436.7 Q917.406 1440.43 917.406 1447.53 Q917.406 1454.62 914.905 1458.37 Q912.422 1462.09 907.701 1462.09 Q902.98 1462.09 900.479 1458.37 Q897.996 1454.62 897.996 1447.53 Q897.996 1440.43 900.479 1436.7 Q902.98 1432.96 907.701 1432.96 Z" fill="#000000" fill-rule="nonzero" fill-opacity="1" /><path clip-path="url(#clip520)" d="M1857.49 1485.02 L1865.13 1485.02 L1865.13 1458.66 L1856.82 1460.32 L1856.82 1456.06 L1865.08 1454.4 L1869.76 1454.4 L1869.76 1485.02 L1877.4 1485.02 L1877.4 1488.96 L1857.49 1488.96 L1857.49 1485.02 Z" fill="#000000" fill-rule="nonzero" fill-opacity="1" /><path clip-path="url(#clip520)" d="M1896.84 1457.48 Q1893.23 1457.48 1891.4 1461.04 Q1889.6 1464.58 1889.6 1471.71 Q1889.6 1478.82 1891.4 1482.38 Q1893.23 1485.92 1896.84 1485.92 Q1900.48 1485.92 1902.28 1482.38 Q1904.11 1478.82 1904.11 1471.71 Q1904.11 1464.58 1902.28 1461.04 Q1900.48 1457.48 1896.84 1457.48 M1896.84 1453.77 Q1902.65 1453.77 1905.71 1458.38 Q1908.79 1462.96 1908.79 1471.71 Q1908.79 1480.44 1905.71 1485.04 Q1902.65 1489.63 1896.84 1489.63 Q1891.03 1489.63 1887.96 1485.04 Q1884.9 1480.44 1884.9 1471.71 Q1884.9 1462.96 1887.96 1458.38 Q1891.03 1453.77 1896.84 1453.77 Z" fill="#000000" fill-rule="nonzero" fill-opacity="1" /><path clip-path="url(#clip520)" d="M1908.79 1447.87 L1932.9 1447.87 L1932.9 1451.07 L1908.79 1451.07 L1908.79 1447.87 Z" fill="#000000" fill-rule="nonzero" fill-opacity="1" /><path clip-path="url(#clip520)" d="M1941.76 1458.35 L1947.96 1458.35 L1947.96 1436.93 L1941.21 1438.28 L1941.21 1434.82 L1947.93 1433.47 L1951.73 1433.47 L1951.73 1458.35 L1957.93 1458.35 L1957.93 1461.55 L1941.76 1461.55 L1941.76 1458.35 Z" fill="#000000" fill-rule="nonzero" fill-opacity="1" /><path clip-path="url(#clip520)" d="M1965.61 1456.77 L1969.57 1456.77 L1969.57 1461.55 L1965.61 1461.55 L1965.61 1456.77 Z" fill="#000000" fill-rule="nonzero" fill-opacity="1" /><path clip-path="url(#clip520)" d="M1977.89 1433.47 L1992.8 1433.47 L1992.8 1436.66 L1981.37 1436.66 L1981.37 1443.55 Q1982.19 1443.27 1983.02 1443.13 Q1983.85 1442.98 1984.68 1442.98 Q1989.38 1442.98 1992.13 1445.56 Q1994.87 1448.14 1994.87 1452.54 Q1994.87 1457.07 1992.05 1459.59 Q1989.23 1462.09 1984.09 1462.09 Q1982.33 1462.09 1980.48 1461.79 Q1978.66 1461.49 1976.7 1460.89 L1976.7 1457.07 Q1978.4 1457.99 1980.2 1458.44 Q1982.01 1458.89 1984.02 1458.89 Q1987.27 1458.89 1989.17 1457.18 Q1991.07 1455.47 1991.07 1452.54 Q1991.07 1449.6 1989.17 1447.89 Q1987.27 1446.18 1984.02 1446.18 Q1982.5 1446.18 1980.97 1446.52 Q1979.47 1446.86 1977.89 1447.57 L1977.89 1433.47 Z" fill="#000000" fill-rule="nonzero" fill-opacity="1" /><path clip-path="url(#clip520)" d="M1282.49 1568.04 Q1282.49 1567.79 1283.36 1566.11 Q1284.22 1564.41 1287.28 1558.32 Q1290.34 1552.2 1293.5 1545.79 L1304.87 1522.92 Q1305.67 1521.48 1306.7 1521.48 Q1307.64 1521.48 1308.06 1522.05 Q1308.48 1522.63 1310.41 1526.53 Q1311.41 1528.43 1311.99 1529.66 L1330.63 1566.98 Q1330.96 1567.79 1330.99 1568.04 Q1330.99 1568.69 1329.86 1568.69 L1284.22 1568.69 Q1282.49 1568.69 1282.49 1568.04 M1286.83 1563.66 L1322.32 1563.66 L1304.58 1528.05 L1286.83 1563.66 Z" fill="#000000" fill-rule="nonzero" fill-opacity="1" /><path clip-path="url(#clip520)" d="M1356.07 1540.99 Q1356.07 1541.89 1355.66 1542.12 Q1355.24 1542.31 1354.08 1542.31 L1347.89 1542.31 L1343 1561.76 Q1342.61 1563.47 1342.61 1564.92 Q1342.61 1566.53 1343.1 1567.24 Q1343.61 1567.95 1344.67 1567.95 Q1346.77 1567.95 1349.02 1566.05 Q1351.31 1564.15 1353.24 1559.51 Q1353.5 1558.9 1353.63 1558.77 Q1353.79 1558.61 1354.21 1558.61 Q1355.01 1558.61 1355.01 1559.25 Q1355.01 1559.48 1354.56 1560.51 Q1354.14 1561.54 1353.21 1563.05 Q1352.31 1564.57 1351.11 1565.98 Q1349.95 1567.4 1348.18 1568.43 Q1346.41 1569.43 1344.51 1569.43 Q1341.84 1569.43 1340.13 1567.72 Q1338.46 1566.02 1338.46 1563.34 Q1338.46 1562.47 1339.13 1559.7 Q1339.81 1556.9 1343.48 1542.31 L1337.65 1542.31 Q1336.85 1542.31 1336.53 1542.28 Q1336.24 1542.25 1336.01 1542.09 Q1335.82 1541.89 1335.82 1541.51 Q1335.82 1540.9 1336.07 1540.64 Q1336.33 1540.35 1336.65 1540.32 Q1337.01 1540.25 1337.81 1540.25 L1344 1540.25 L1346.57 1529.78 Q1346.83 1528.75 1347.48 1528.17 Q1348.15 1527.56 1348.54 1527.5 Q1348.92 1527.4 1349.21 1527.4 Q1350.08 1527.4 1350.6 1527.88 Q1351.11 1528.34 1351.11 1529.17 Q1351.11 1529.62 1348.41 1540.25 L1354.21 1540.25 Q1354.95 1540.25 1355.24 1540.28 Q1355.56 1540.32 1355.82 1540.48 Q1356.07 1540.64 1356.07 1540.99 Z" fill="#000000" fill-rule="nonzero" fill-opacity="1" /><polyline clip-path="url(#clip520)" style="stroke:#000000; stroke-linecap:round; stroke-linejoin:round; stroke-width:4; stroke-opacity:1; fill:none" points="289.119,1410.9 289.119,47.2441 "/>
<polyline clip-path="url(#clip520)" style="stroke:#000000; stroke-linecap:round; stroke-linejoin:round; stroke-width:4; stroke-opacity:1; fill:none" points="289.119,1252.48 308.017,1252.48 "/>
<polyline clip-path="url(#clip520)" style="stroke:#000000; stroke-linecap:round; stroke-linejoin:round; stroke-width:4; stroke-opacity:1; fill:none" points="289.119,610.565 308.017,610.565 "/>
<path clip-path="url(#clip520)" d="M115.74 1272.28 L123.379 1272.28 L123.379 1245.91 L115.069 1247.58 L115.069 1243.32 L123.333 1241.65 L128.009 1241.65 L128.009 1272.28 L135.647 1272.28 L135.647 1276.21 L115.74 1276.21 L115.74 1272.28 Z" fill="#000000" fill-rule="nonzero" fill-opacity="1" /><path clip-path="url(#clip520)" d="M155.092 1244.73 Q151.481 1244.73 149.652 1248.3 Q147.846 1251.84 147.846 1258.97 Q147.846 1266.07 149.652 1269.64 Q151.481 1273.18 155.092 1273.18 Q158.726 1273.18 160.532 1269.64 Q162.36 1266.07 162.36 1258.97 Q162.36 1251.84 160.532 1248.3 Q158.726 1244.73 155.092 1244.73 M155.092 1241.03 Q160.902 1241.03 163.958 1245.63 Q167.036 1250.22 167.036 1258.97 Q167.036 1267.69 163.958 1272.3 Q160.902 1276.88 155.092 1276.88 Q149.282 1276.88 146.203 1272.3 Q143.147 1267.69 143.147 1258.97 Q143.147 1250.22 146.203 1245.63 Q149.282 1241.03 155.092 1241.03 Z" fill="#000000" fill-rule="nonzero" fill-opacity="1" /><path clip-path="url(#clip520)" d="M167.036 1235.13 L191.148 1235.13 L191.148 1238.33 L167.036 1238.33 L167.036 1235.13 Z" fill="#000000" fill-rule="nonzero" fill-opacity="1" /><path clip-path="url(#clip520)" d="M200.006 1245.6 L206.213 1245.6 L206.213 1224.18 L199.461 1225.54 L199.461 1222.08 L206.175 1220.72 L209.974 1220.72 L209.974 1245.6 L216.181 1245.6 L216.181 1248.8 L200.006 1248.8 L200.006 1245.6 Z" fill="#000000" fill-rule="nonzero" fill-opacity="1" /><path clip-path="url(#clip520)" d="M223.854 1244.02 L227.823 1244.02 L227.823 1248.8 L223.854 1248.8 L223.854 1244.02 Z" fill="#000000" fill-rule="nonzero" fill-opacity="1" /><path clip-path="url(#clip520)" d="M236.136 1220.72 L251.051 1220.72 L251.051 1223.92 L239.615 1223.92 L239.615 1230.8 Q240.443 1230.52 241.27 1230.39 Q242.098 1230.24 242.926 1230.24 Q247.627 1230.24 250.373 1232.81 Q253.119 1235.39 253.119 1239.79 Q253.119 1244.33 250.298 1246.85 Q247.477 1249.35 242.343 1249.35 Q240.575 1249.35 238.731 1249.05 Q236.907 1248.75 234.951 1248.14 L234.951 1244.33 Q236.644 1245.25 238.449 1245.7 Q240.255 1246.15 242.267 1246.15 Q245.521 1246.15 247.421 1244.44 Q249.32 1242.73 249.32 1239.79 Q249.32 1236.86 247.421 1235.15 Q245.521 1233.44 242.267 1233.44 Q240.744 1233.44 239.22 1233.77 Q237.716 1234.11 236.136 1234.83 L236.136 1220.72 Z" fill="#000000" fill-rule="nonzero" fill-opacity="1" /><path clip-path="url(#clip520)" d="M114.931 630.357 L122.57 630.357 L122.57 603.991 L114.26 605.658 L114.26 601.399 L122.524 599.732 L127.2 599.732 L127.2 630.357 L134.839 630.357 L134.839 634.292 L114.931 634.292 L114.931 630.357 Z" fill="#000000" fill-rule="nonzero" fill-opacity="1" /><path clip-path="url(#clip520)" d="M154.283 602.811 Q150.672 602.811 148.843 606.376 Q147.038 609.917 147.038 617.047 Q147.038 624.153 148.843 627.718 Q150.672 631.26 154.283 631.26 Q157.917 631.26 159.723 627.718 Q161.552 624.153 161.552 617.047 Q161.552 609.917 159.723 606.376 Q157.917 602.811 154.283 602.811 M154.283 599.107 Q160.093 599.107 163.149 603.714 Q166.227 608.297 166.227 617.047 Q166.227 625.774 163.149 630.38 Q160.093 634.964 154.283 634.964 Q148.473 634.964 145.394 630.38 Q142.339 625.774 142.339 617.047 Q142.339 608.297 145.394 603.714 Q148.473 599.107 154.283 599.107 Z" fill="#000000" fill-rule="nonzero" fill-opacity="1" /><path clip-path="url(#clip520)" d="M166.227 593.209 L190.339 593.209 L190.339 596.406 L166.227 596.406 L166.227 593.209 Z" fill="#000000" fill-rule="nonzero" fill-opacity="1" /><path clip-path="url(#clip520)" d="M199.197 603.684 L205.404 603.684 L205.404 582.262 L198.652 583.617 L198.652 580.156 L205.366 578.802 L209.166 578.802 L209.166 603.684 L215.372 603.684 L215.372 606.882 L199.197 606.882 L199.197 603.684 Z" fill="#000000" fill-rule="nonzero" fill-opacity="1" /><path clip-path="url(#clip520)" d="M223.046 602.105 L227.014 602.105 L227.014 606.882 L223.046 606.882 L223.046 602.105 Z" fill="#000000" fill-rule="nonzero" fill-opacity="1" /><path clip-path="url(#clip520)" d="M243.415 581.303 Q240.481 581.303 238.995 584.2 Q237.528 587.077 237.528 592.87 Q237.528 598.644 238.995 601.54 Q240.481 604.418 243.415 604.418 Q246.367 604.418 247.834 601.54 Q249.32 598.644 249.32 592.87 Q249.32 587.077 247.834 584.2 Q246.367 581.303 243.415 581.303 M243.415 578.294 Q248.135 578.294 250.618 582.037 Q253.119 585.761 253.119 592.87 Q253.119 599.961 250.618 603.703 Q248.135 607.427 243.415 607.427 Q238.694 607.427 236.192 603.703 Q233.71 599.961 233.71 592.87 Q233.71 585.761 236.192 582.037 Q238.694 578.294 243.415 578.294 Z" fill="#000000" fill-rule="nonzero" fill-opacity="1" /><path clip-path="url(#clip520)" d="M49.4968 798.693 Q43.281 798.693 38.8688 794.699 Q34.4566 790.706 34.4566 784.973 Q34.4566 779.176 38.2247 776.181 Q41.9928 773.154 47.4034 773.154 Q48.4018 773.154 48.595 773.411 Q48.7882 773.669 48.7882 774.796 L48.7882 793.218 Q55.5192 793.218 58.6754 791.221 Q63.0876 788.451 63.0876 783.782 Q63.0876 783.138 62.9588 782.365 Q62.83 781.592 62.2825 780.014 Q61.7028 778.435 60.1891 777.051 Q58.6754 775.666 56.2922 774.861 Q55.3582 774.667 55.3904 774.023 Q55.3904 773.154 56.1634 773.154 Q56.7431 773.154 58.0635 773.798 Q59.3517 774.41 60.8976 775.601 Q62.4435 776.793 63.6029 779.112 Q64.7623 781.398 64.7623 784.168 Q64.7623 789.965 60.3823 794.345 Q55.9701 798.693 49.4968 798.693 M47.4034 793.154 L47.4034 777.502 Q46.0185 777.502 44.4726 777.759 Q42.9268 777.985 40.8012 778.693 Q38.6434 779.369 37.2907 780.98 Q35.9381 782.59 35.9381 784.973 Q35.9381 786.036 36.389 787.195 Q36.8398 788.323 37.9348 789.708 Q39.0298 791.092 41.5097 792.059 Q43.9895 793.025 47.4034 793.154 Z" fill="#000000" fill-rule="nonzero" fill-opacity="1" /><path clip-path="url(#clip520)" d="M64.0216 771.017 L61.9926 771.017 Q61.9926 767.507 61.5739 766.702 Q61.1231 765.864 58.9975 765.864 L41.3165 765.864 Q38.8688 765.864 38.2569 766.734 Q37.645 767.571 37.645 771.017 L35.5838 771.017 L34.8753 761.839 L42.1216 761.839 Q39.2875 760.905 37.0975 758.94 Q34.8753 756.943 34.8753 753.723 Q34.8753 751.597 36.0669 750.244 Q37.2585 748.86 38.901 748.86 Q40.3503 748.86 41.091 749.761 Q41.7996 750.631 41.7996 751.694 Q41.7996 752.885 41.0588 753.723 Q40.2859 754.528 38.9654 754.528 Q38.1603 754.528 37.5484 754.174 Q36.9043 753.787 36.6788 753.497 Q36.4534 753.207 36.389 753.014 Q36.3246 753.143 36.3246 753.723 Q36.3246 757.362 39.9638 759.455 Q43.5709 761.517 48.7238 761.517 L58.8687 761.517 Q60.7688 761.517 61.3807 760.744 Q61.9926 759.938 61.9926 756.492 L61.9926 755.108 L64.0216 755.108 Q63.8284 757.748 63.8284 763.481 Q63.8284 764.286 63.8606 765.542 Q63.8928 766.798 63.9572 768.441 Q64.0216 770.083 64.0216 771.017 Z" fill="#000000" fill-rule="nonzero" fill-opacity="1" /><path clip-path="url(#clip520)" d="M64.0216 744.136 L61.9926 744.136 Q61.9926 740.626 61.5739 739.821 Q61.1231 738.983 58.9975 738.983 L41.3165 738.983 Q38.8688 738.983 38.2569 739.853 Q37.645 740.69 37.645 744.136 L35.5838 744.136 L34.8753 734.958 L42.1216 734.958 Q39.2875 734.024 37.0975 732.059 Q34.8753 730.062 34.8753 726.842 Q34.8753 724.716 36.0669 723.364 Q37.2585 721.979 38.901 721.979 Q40.3503 721.979 41.091 722.881 Q41.7996 723.75 41.7996 724.813 Q41.7996 726.005 41.0588 726.842 Q40.2859 727.647 38.9654 727.647 Q38.1603 727.647 37.5484 727.293 Q36.9043 726.906 36.6788 726.616 Q36.4534 726.327 36.389 726.133 Q36.3246 726.262 36.3246 726.842 Q36.3246 730.481 39.9638 732.575 Q43.5709 734.636 48.7238 734.636 L58.8687 734.636 Q60.7688 734.636 61.3807 733.863 Q61.9926 733.058 61.9926 729.612 L61.9926 728.227 L64.0216 728.227 Q63.8284 730.868 63.8284 736.6 Q63.8284 737.405 63.8606 738.661 Q63.8928 739.917 63.9572 741.56 Q64.0216 743.202 64.0216 744.136 Z" fill="#000000" fill-rule="nonzero" fill-opacity="1" /><path clip-path="url(#clip520)" d="M60.479 711.963 Q56.1634 716.311 49.9154 716.311 Q43.6353 716.311 39.0621 712.059 Q34.4566 707.776 34.4566 701.657 Q34.4566 695.667 39.0298 691.383 Q43.5709 687.068 49.9154 687.068 Q56.1312 687.068 60.4467 691.416 Q64.7623 695.731 64.7623 701.721 Q64.7623 707.583 60.479 711.963 M49.3679 710.836 Q55.7769 710.836 58.6754 709.161 Q63.0876 706.584 63.0876 701.657 Q63.0876 699.209 61.7672 697.18 Q60.4467 695.119 58.2245 693.992 Q55.326 692.543 49.3679 692.543 Q43.0234 692.543 40.2215 694.282 Q35.9381 696.858 35.9381 701.721 Q35.9381 703.847 37.0653 705.94 Q38.1603 708.002 40.3503 709.258 Q43.2488 710.836 49.3679 710.836 Z" fill="#000000" fill-rule="nonzero" fill-opacity="1" /><path clip-path="url(#clip520)" d="M64.0216 684.967 L61.9926 684.967 Q61.9926 681.456 61.5739 680.651 Q61.1231 679.814 58.9975 679.814 L41.3165 679.814 Q38.8688 679.814 38.2569 680.683 Q37.645 681.521 37.645 684.967 L35.5838 684.967 L34.8753 675.788 L42.1216 675.788 Q39.2875 674.854 37.0975 672.889 Q34.8753 670.893 34.8753 667.672 Q34.8753 665.546 36.0669 664.194 Q37.2585 662.809 38.901 662.809 Q40.3503 662.809 41.091 663.711 Q41.7996 664.58 41.7996 665.643 Q41.7996 666.835 41.0588 667.672 Q40.2859 668.477 38.9654 668.477 Q38.1603 668.477 37.5484 668.123 Q36.9043 667.736 36.6788 667.447 Q36.4534 667.157 36.389 666.963 Q36.3246 667.092 36.3246 667.672 Q36.3246 671.311 39.9638 673.405 Q43.5709 675.466 48.7238 675.466 L58.8687 675.466 Q60.7688 675.466 61.3807 674.693 Q61.9926 673.888 61.9926 670.442 L61.9926 669.057 L64.0216 669.057 Q63.8284 671.698 63.8284 677.43 Q63.8284 678.236 63.8606 679.492 Q63.8928 680.748 63.9572 682.39 Q64.0216 684.033 64.0216 684.967 Z" fill="#000000" fill-rule="nonzero" fill-opacity="1" /><polyline clip-path="url(#clip522)" style="stroke:#1f77b4; stroke-linecap:round; stroke-linejoin:round; stroke-width:4; stroke-opacity:1; fill:none" points="2294.35,168.258 1645.41,545.597 996.466,922.937 347.524,1300.28 "/>
<polyline clip-path="url(#clip522)" style="stroke:#000000; stroke-linecap:round; stroke-linejoin:round; stroke-width:4; stroke-opacity:1; fill:none" points="2294.35,250.583 2294.35,85.838 "/>
<polyline clip-path="url(#clip522)" style="stroke:#000000; stroke-linecap:round; stroke-linejoin:round; stroke-width:4; stroke-opacity:1; fill:none" points="1645.41,640.647 1645.41,470.229 "/>
<polyline clip-path="url(#clip522)" style="stroke:#000000; stroke-linecap:round; stroke-linejoin:round; stroke-width:4; stroke-opacity:1; fill:none" points="996.466,1019.99 996.466,860.487 "/>
<polyline clip-path="url(#clip522)" style="stroke:#000000; stroke-linecap:round; stroke-linejoin:round; stroke-width:4; stroke-opacity:1; fill:none" points="347.524,1372.3 347.524,1220.78 "/>
<line clip-path="url(#clip522)" x1="2310.35" y1="250.583" x2="2278.35" y2="250.583" style="stroke:#000000; stroke-width:4; stroke-opacity:1"/>
<line clip-path="url(#clip522)" x1="2310.35" y1="85.838" x2="2278.35" y2="85.838" style="stroke:#000000; stroke-width:4; stroke-opacity:1"/>
<line clip-path="url(#clip522)" x1="1661.41" y1="640.647" x2="1629.41" y2="640.647" style="stroke:#000000; stroke-width:4; stroke-opacity:1"/>
<line clip-path="url(#clip522)" x1="1661.41" y1="470.229" x2="1629.41" y2="470.229" style="stroke:#000000; stroke-width:4; stroke-opacity:1"/>
<line clip-path="url(#clip522)" x1="1012.47" y1="1019.99" x2="980.466" y2="1019.99" style="stroke:#000000; stroke-width:4; stroke-opacity:1"/>
<line clip-path="url(#clip522)" x1="1012.47" y1="860.487" x2="980.466" y2="860.487" style="stroke:#000000; stroke-width:4; stroke-opacity:1"/>
<line clip-path="url(#clip522)" x1="363.524" y1="1372.3" x2="331.524" y2="1372.3" style="stroke:#000000; stroke-width:4; stroke-opacity:1"/>
<line clip-path="url(#clip522)" x1="363.524" y1="1220.78" x2="331.524" y2="1220.78" style="stroke:#000000; stroke-width:4; stroke-opacity:1"/>
<circle clip-path="url(#clip522)" cx="2294.35" cy="162.148" r="14.4" fill="#ff7e0d" fill-rule="evenodd" fill-opacity="1" stroke="#000000" stroke-opacity="1" stroke-width="3.2"/>
<circle clip-path="url(#clip522)" cx="1645.41" cy="548.952" r="14.4" fill="#ff7e0d" fill-rule="evenodd" fill-opacity="1" stroke="#000000" stroke-opacity="1" stroke-width="3.2"/>
<circle clip-path="url(#clip522)" cx="996.466" cy="934.555" r="14.4" fill="#ff7e0d" fill-rule="evenodd" fill-opacity="1" stroke="#000000" stroke-opacity="1" stroke-width="3.2"/>
<circle clip-path="url(#clip522)" cx="347.524" cy="1291.41" r="14.4" fill="#ff7e0d" fill-rule="evenodd" fill-opacity="1" stroke="#000000" stroke-opacity="1" stroke-width="3.2"/>
<path clip-path="url(#clip520)" d="M357.907 248.219 L1571.34 248.219 L1571.34 92.6992 L357.907 92.6992  Z" fill="#ffffff" fill-rule="evenodd" fill-opacity="1"/>
<polyline clip-path="url(#clip520)" style="stroke:#000000; stroke-linecap:round; stroke-linejoin:round; stroke-width:4; stroke-opacity:1; fill:none" points="357.907,248.219 1571.34,248.219 1571.34,92.6992 357.907,92.6992 357.907,248.219 "/>
<polyline clip-path="url(#clip520)" style="stroke:#1f77b4; stroke-linecap:round; stroke-linejoin:round; stroke-width:4; stroke-opacity:1; fill:none" points="380.837,144.539 518.412,144.539 "/>
<path clip-path="url(#clip520)" d="M575.398 133.915 L572.376 146.142 Q572.166 146.915 572.025 147.008 Q571.908 147.102 571.533 147.102 Q570.807 147.102 570.807 146.61 Q570.807 146.563 570.877 145.954 Q570.948 145.322 570.948 144.174 Q570.948 139.935 568.886 137.428 Q566.849 134.922 563.218 134.922 Q560.08 134.922 556.918 136.515 Q553.779 138.108 551.53 140.708 Q549.844 142.675 548.603 145.158 Q547.385 147.641 546.799 149.913 Q546.237 152.185 545.979 153.894 Q545.722 155.604 545.722 156.846 Q545.722 158.649 546.096 160.172 Q546.495 161.694 547.197 162.772 Q547.9 163.826 548.79 164.645 Q549.703 165.442 550.757 165.91 Q551.835 166.379 552.912 166.613 Q553.99 166.824 555.114 166.824 Q559.635 166.824 563.944 163.31 Q567.364 160.429 568.793 155.721 Q568.91 155.253 569.402 155.253 Q569.987 155.253 569.987 155.721 Q569.987 155.815 569.87 156.283 Q569.753 156.729 569.402 157.642 Q569.05 158.532 568.512 159.539 Q567.973 160.546 566.966 161.811 Q565.959 163.076 564.717 164.177 Q562.609 166.004 559.939 167.152 Q557.269 168.299 554.341 168.299 Q550.687 168.299 547.736 166.683 Q544.785 165.067 543.051 162.045 Q541.342 159.024 541.342 155.159 Q541.342 151.084 543.215 147.078 Q545.089 143.073 548.064 140.099 Q551.039 137.124 554.973 135.274 Q558.908 133.423 562.843 133.423 Q564.342 133.423 565.678 133.821 Q567.013 134.22 567.809 134.711 Q568.629 135.203 569.355 135.929 Q570.081 136.632 570.315 136.96 Q570.573 137.288 570.807 137.686 L574.156 134.009 Q574.742 133.423 574.883 133.423 Q575.164 133.423 575.281 133.587 Q575.398 133.751 575.398 133.915 Z" fill="#000000" fill-rule="nonzero" fill-opacity="1" /><path clip-path="url(#clip520)" d="M579.137 166.777 Q579.137 166.589 579.769 165.371 Q580.402 164.13 582.627 159.703 Q584.852 155.253 587.147 150.592 L595.415 133.962 Q596.001 132.908 596.75 132.908 Q597.43 132.908 597.734 133.329 Q598.039 133.751 599.444 136.585 Q600.17 137.967 600.592 138.857 L614.153 166.004 Q614.387 166.589 614.411 166.777 Q614.411 167.245 613.591 167.245 L580.402 167.245 Q579.137 167.245 579.137 166.777 M582.299 163.591 L608.11 163.591 L595.204 137.686 L582.299 163.591 Z" fill="#000000" fill-rule="nonzero" fill-opacity="1" /><path clip-path="url(#clip520)" d="M633.414 147.102 Q633.414 147.758 633.11 147.922 Q632.805 148.062 631.962 148.062 L627.465 148.062 L623.905 162.209 Q623.624 163.451 623.624 164.505 Q623.624 165.676 623.975 166.191 Q624.35 166.706 625.123 166.706 Q626.645 166.706 628.285 165.325 Q629.948 163.943 631.353 160.57 Q631.54 160.125 631.634 160.031 Q631.751 159.914 632.056 159.914 Q632.641 159.914 632.641 160.382 Q632.641 160.546 632.313 161.296 Q632.009 162.045 631.329 163.146 Q630.674 164.247 629.807 165.278 Q628.964 166.308 627.676 167.058 Q626.387 167.784 625.005 167.784 Q623.061 167.784 621.82 166.543 Q620.602 165.301 620.602 163.357 Q620.602 162.725 621.094 160.71 Q621.586 158.673 624.256 148.062 L620.016 148.062 Q619.431 148.062 619.197 148.039 Q618.986 148.015 618.822 147.898 Q618.681 147.758 618.681 147.477 Q618.681 147.032 618.869 146.844 Q619.056 146.633 619.29 146.61 Q619.548 146.563 620.134 146.563 L624.631 146.563 L626.504 138.951 Q626.692 138.201 627.16 137.78 Q627.652 137.335 627.933 137.288 Q628.214 137.218 628.425 137.218 Q629.058 137.218 629.432 137.569 Q629.807 137.897 629.807 138.506 Q629.807 138.834 627.84 146.563 L632.056 146.563 Q632.594 146.563 632.805 146.587 Q633.039 146.61 633.227 146.727 Q633.414 146.844 633.414 147.102 Z" fill="#000000" fill-rule="nonzero" fill-opacity="1" /><path clip-path="url(#clip520)" d="M655.923 125.999 Q655.923 128.392 654.71 130.704 Q653.513 133.016 651.627 134.442 Q649.742 135.852 647.823 135.852 Q646.676 135.852 645.905 135.229 Q645.151 134.59 644.741 133.688 Q644.43 134.803 643.757 137.476 Q643.085 140.148 643.085 140.41 Q643.085 140.558 643.118 140.624 Q643.151 140.689 643.298 140.771 Q643.446 140.87 643.806 140.902 Q644.167 140.952 644.774 140.952 Q645.085 140.952 645.2 140.952 Q645.331 140.968 645.446 141.05 Q645.577 141.132 645.577 141.312 Q645.577 141.984 644.971 141.984 Q644.43 141.984 643.315 141.935 Q642.2 141.886 641.642 141.886 Q641.167 141.886 640.216 141.935 Q639.265 141.984 638.822 141.984 Q638.379 141.984 638.379 141.591 Q638.379 141.361 638.445 141.214 Q638.494 141.083 638.625 141.017 Q638.757 140.968 638.871 140.952 Q638.97 140.952 639.166 140.952 Q639.921 140.952 640.249 140.82 Q640.577 140.706 640.691 140.46 Q640.822 140.23 640.97 139.574 L644.741 124.621 Q644.971 123.621 644.971 122.916 Q644.971 122.031 644.692 121.703 Q644.413 121.375 643.921 121.375 Q643.069 121.375 642.511 122.392 Q641.954 123.408 641.478 125.376 Q641.331 125.917 641.232 126.031 Q641.15 126.146 640.904 126.146 Q640.495 126.13 640.495 125.802 Q640.495 125.72 640.626 125.195 Q640.757 124.654 641.003 123.867 Q641.265 123.064 641.544 122.556 Q641.708 122.211 641.855 121.982 Q642.003 121.752 642.298 121.391 Q642.61 121.031 643.052 120.834 Q643.495 120.637 644.036 120.637 Q645.085 120.637 645.954 121.26 Q646.823 121.883 647.053 123.146 Q647.987 122.047 649.135 121.342 Q650.283 120.637 651.447 120.637 Q653.382 120.637 654.644 122.146 Q655.923 123.638 655.923 125.999 M653.496 124.523 Q653.496 123.031 652.922 122.211 Q652.365 121.375 651.348 121.375 Q650.086 121.375 648.627 122.654 Q647.184 123.867 646.889 124.998 L645.233 131.573 L645.135 132.114 Q645.135 132.213 645.184 132.508 Q645.249 132.786 645.43 133.246 Q645.626 133.705 645.889 134.115 Q646.167 134.508 646.659 134.803 Q647.168 135.098 647.791 135.098 Q648.791 135.098 649.873 134.213 Q650.971 133.328 651.791 131.655 Q652.299 130.573 652.89 128.245 Q653.496 125.9 653.496 124.523 Z" fill="#000000" fill-rule="nonzero" fill-opacity="1" /><path clip-path="url(#clip520)" d="M693.53 131.227 L693.53 134.769 L689.456 134.769 Q687.164 134.769 686.262 135.694 Q685.382 136.62 685.382 139.028 L685.382 141.319 L692.396 141.319 L692.396 144.63 L685.382 144.63 L685.382 167.245 L681.1 167.245 L681.1 144.63 L677.026 144.63 L677.026 141.319 L681.1 141.319 L681.1 139.514 Q681.1 135.185 683.113 133.218 Q685.127 131.227 689.502 131.227 L693.53 131.227 Z" fill="#000000" fill-rule="nonzero" fill-opacity="1" /><path clip-path="url(#clip520)" d="M697.095 141.319 L701.354 141.319 L701.354 167.245 L697.095 167.245 L697.095 141.319 M697.095 131.227 L701.354 131.227 L701.354 136.62 L697.095 136.62 L697.095 131.227 Z" fill="#000000" fill-rule="nonzero" fill-opacity="1" /><path clip-path="url(#clip520)" d="M714.479 133.958 L714.479 141.319 L723.252 141.319 L723.252 144.63 L714.479 144.63 L714.479 158.704 Q714.479 161.875 715.336 162.778 Q716.215 163.68 718.877 163.68 L723.252 163.68 L723.252 167.245 L718.877 167.245 Q713.947 167.245 712.072 165.417 Q710.197 163.565 710.197 158.704 L710.197 144.63 L707.072 144.63 L707.072 141.319 L710.197 141.319 L710.197 133.958 L714.479 133.958 Z" fill="#000000" fill-rule="nonzero" fill-opacity="1" /><path clip-path="url(#clip520)" d="M741.447 141.319 L745.706 141.319 L751.03 161.551 L756.331 141.319 L761.354 141.319 L766.678 161.551 L771.979 141.319 L776.238 141.319 L769.456 167.245 L764.433 167.245 L758.854 145.995 L753.252 167.245 L748.229 167.245 L741.447 141.319 Z" fill="#000000" fill-rule="nonzero" fill-opacity="1" /><path clip-path="url(#clip520)" d="M782.696 141.319 L786.956 141.319 L786.956 167.245 L782.696 167.245 L782.696 141.319 M782.696 131.227 L786.956 131.227 L786.956 136.62 L782.696 136.62 L782.696 131.227 Z" fill="#000000" fill-rule="nonzero" fill-opacity="1" /><path clip-path="url(#clip520)" d="M800.08 133.958 L800.08 141.319 L808.854 141.319 L808.854 144.63 L800.08 144.63 L800.08 158.704 Q800.08 161.875 800.937 162.778 Q801.817 163.68 804.479 163.68 L808.854 163.68 L808.854 167.245 L804.479 167.245 Q799.548 167.245 797.673 165.417 Q795.798 163.565 795.798 158.704 L795.798 144.63 L792.673 144.63 L792.673 141.319 L795.798 141.319 L795.798 133.958 L800.08 133.958 Z" fill="#000000" fill-rule="nonzero" fill-opacity="1" /><path clip-path="url(#clip520)" d="M836.006 151.597 L836.006 167.245 L831.747 167.245 L831.747 151.736 Q831.747 148.055 830.312 146.227 Q828.877 144.398 826.006 144.398 Q822.557 144.398 820.566 146.597 Q818.576 148.796 818.576 152.592 L818.576 167.245 L814.293 167.245 L814.293 131.227 L818.576 131.227 L818.576 145.347 Q820.104 143.009 822.164 141.852 Q824.247 140.694 826.955 140.694 Q831.423 140.694 833.715 143.472 Q836.006 146.227 836.006 151.597 Z" fill="#000000" fill-rule="nonzero" fill-opacity="1" /><path clip-path="url(#clip520)" d="M863.691 163.356 L863.691 177.106 L859.409 177.106 L859.409 141.319 L863.691 141.319 L863.691 145.255 Q865.034 142.94 867.071 141.829 Q869.131 140.694 871.978 140.694 Q876.7 140.694 879.64 144.444 Q882.603 148.194 882.603 154.305 Q882.603 160.417 879.64 164.167 Q876.7 167.916 871.978 167.916 Q869.131 167.916 867.071 166.805 Q865.034 165.671 863.691 163.356 M878.182 154.305 Q878.182 149.606 876.237 146.944 Q874.316 144.259 870.937 144.259 Q867.557 144.259 865.613 146.944 Q863.691 149.606 863.691 154.305 Q863.691 159.004 865.613 161.69 Q867.557 164.352 870.937 164.352 Q874.316 164.352 876.237 161.69 Q878.182 159.004 878.182 154.305 Z" fill="#000000" fill-rule="nonzero" fill-opacity="1" /><path clip-path="url(#clip520)" d="M905.288 145.718 L934.964 145.718 L934.964 149.606 L905.288 149.606 L905.288 145.718 M905.288 155.162 L934.964 155.162 L934.964 159.097 L905.288 159.097 L905.288 155.162 Z" fill="#000000" fill-rule="nonzero" fill-opacity="1" /><path clip-path="url(#clip520)" d="M970.126 135.764 Q966.515 135.764 964.686 139.329 Q962.881 142.87 962.881 150 Q962.881 157.106 964.686 160.671 Q966.515 164.213 970.126 164.213 Q973.76 164.213 975.566 160.671 Q977.394 157.106 977.394 150 Q977.394 142.87 975.566 139.329 Q973.76 135.764 970.126 135.764 M970.126 132.06 Q975.936 132.06 978.992 136.667 Q982.07 141.25 982.07 150 Q982.07 158.727 978.992 163.333 Q975.936 167.916 970.126 167.916 Q964.316 167.916 961.237 163.333 Q958.181 158.727 958.181 150 Q958.181 141.25 961.237 136.667 Q964.316 132.06 970.126 132.06 Z" fill="#000000" fill-rule="nonzero" fill-opacity="1" /><path clip-path="url(#clip520)" d="M990.288 161.366 L995.172 161.366 L995.172 167.245 L990.288 167.245 L990.288 161.366 Z" fill="#000000" fill-rule="nonzero" fill-opacity="1" /><path clip-path="url(#clip520)" d="M1005.5 166.528 L1005.5 162.268 Q1007.26 163.102 1009.06 163.542 Q1010.87 163.981 1012.6 163.981 Q1017.23 163.981 1019.66 160.879 Q1022.12 157.755 1022.46 151.412 Q1021.12 153.403 1019.06 154.467 Q1017 155.532 1014.5 155.532 Q1009.32 155.532 1006.28 152.407 Q1003.27 149.259 1003.27 143.819 Q1003.27 138.495 1006.42 135.278 Q1009.57 132.06 1014.8 132.06 Q1020.8 132.06 1023.95 136.667 Q1027.12 141.25 1027.12 150 Q1027.12 158.171 1023.23 163.055 Q1019.36 167.916 1012.81 167.916 Q1011.05 167.916 1009.25 167.569 Q1007.44 167.222 1005.5 166.528 M1014.8 151.875 Q1017.95 151.875 1019.78 149.722 Q1021.63 147.569 1021.63 143.819 Q1021.63 140.093 1019.78 137.94 Q1017.95 135.764 1014.8 135.764 Q1011.65 135.764 1009.8 137.94 Q1007.97 140.093 1007.97 143.819 Q1007.97 147.569 1009.8 149.722 Q1011.65 151.875 1014.8 151.875 Z" fill="#000000" fill-rule="nonzero" fill-opacity="1" /><path clip-path="url(#clip520)" d="M1045.52 150.833 Q1042.19 150.833 1040.26 152.616 Q1038.37 154.398 1038.37 157.523 Q1038.37 160.648 1040.26 162.43 Q1042.19 164.213 1045.52 164.213 Q1048.85 164.213 1050.77 162.43 Q1052.69 160.625 1052.69 157.523 Q1052.69 154.398 1050.77 152.616 Q1048.88 150.833 1045.52 150.833 M1040.84 148.843 Q1037.83 148.102 1036.14 146.042 Q1034.48 143.981 1034.48 141.018 Q1034.48 136.875 1037.42 134.468 Q1040.38 132.06 1045.52 132.06 Q1050.68 132.06 1053.62 134.468 Q1056.56 136.875 1056.56 141.018 Q1056.56 143.981 1054.87 146.042 Q1053.2 148.102 1050.22 148.843 Q1053.6 149.63 1055.47 151.921 Q1057.37 154.213 1057.37 157.523 Q1057.37 162.546 1054.29 165.231 Q1051.24 167.916 1045.52 167.916 Q1039.8 167.916 1036.72 165.231 Q1033.67 162.546 1033.67 157.523 Q1033.67 154.213 1035.57 151.921 Q1037.46 149.63 1040.84 148.843 M1039.13 141.458 Q1039.13 144.143 1040.8 145.648 Q1042.49 147.153 1045.52 147.153 Q1048.53 147.153 1050.22 145.648 Q1051.93 144.143 1051.93 141.458 Q1051.93 138.773 1050.22 137.269 Q1048.53 135.764 1045.52 135.764 Q1042.49 135.764 1040.8 137.269 Q1039.13 138.773 1039.13 141.458 Z" fill="#000000" fill-rule="nonzero" fill-opacity="1" /><path clip-path="url(#clip520)" d="M1066.17 142.731 L1071.05 142.731 L1071.05 148.611 L1066.17 148.611 L1066.17 142.731 M1066.17 161.366 L1071.05 161.366 L1071.05 165.347 L1067.25 172.754 L1064.27 172.754 L1066.17 165.347 L1066.17 161.366 Z" fill="#000000" fill-rule="nonzero" fill-opacity="1" /><path clip-path="url(#clip520)" d="M1096.86 166.528 L1096.86 162.268 Q1098.62 163.102 1100.43 163.542 Q1102.23 163.981 1103.97 163.981 Q1108.6 163.981 1111.03 160.879 Q1113.48 157.755 1113.83 151.412 Q1112.49 153.403 1110.43 154.467 Q1108.37 155.532 1105.87 155.532 Q1100.68 155.532 1097.65 152.407 Q1094.64 149.259 1094.64 143.819 Q1094.64 138.495 1097.79 135.278 Q1100.94 132.06 1106.17 132.06 Q1112.16 132.06 1115.31 136.667 Q1118.48 141.25 1118.48 150 Q1118.48 158.171 1114.59 163.055 Q1110.73 167.916 1104.18 167.916 Q1102.42 167.916 1100.61 167.569 Q1098.81 167.222 1096.86 166.528 M1106.17 151.875 Q1109.31 151.875 1111.14 149.722 Q1113 147.569 1113 143.819 Q1113 140.093 1111.14 137.94 Q1109.31 135.764 1106.17 135.764 Q1103.02 135.764 1101.17 137.94 Q1099.34 140.093 1099.34 143.819 Q1099.34 147.569 1101.17 149.722 Q1103.02 151.875 1106.17 151.875 Z" fill="#000000" fill-rule="nonzero" fill-opacity="1" /><path clip-path="url(#clip520)" d="M1126.93 132.685 L1145.29 132.685 L1145.29 136.62 L1131.21 136.62 L1131.21 145.093 Q1132.23 144.745 1133.25 144.583 Q1134.27 144.398 1135.29 144.398 Q1141.07 144.398 1144.45 147.569 Q1147.83 150.741 1147.83 156.157 Q1147.83 161.736 1144.36 164.838 Q1140.89 167.916 1134.57 167.916 Q1132.39 167.916 1130.12 167.546 Q1127.88 167.176 1125.47 166.435 L1125.47 161.736 Q1127.56 162.87 1129.78 163.426 Q1132 163.981 1134.48 163.981 Q1138.48 163.981 1140.82 161.875 Q1143.16 159.768 1143.16 156.157 Q1143.16 152.546 1140.82 150.44 Q1138.48 148.333 1134.48 148.333 Q1132.6 148.333 1130.73 148.75 Q1128.87 149.167 1126.93 150.046 L1126.93 132.685 Z" fill="#000000" fill-rule="nonzero" fill-opacity="1" /><path clip-path="url(#clip520)" d="M1186.44 152.037 Q1184.43 152.037 1183.27 153.75 Q1182.14 155.463 1182.14 158.518 Q1182.14 161.528 1183.27 163.264 Q1184.43 164.977 1186.44 164.977 Q1188.41 164.977 1189.55 163.264 Q1190.7 161.528 1190.7 158.518 Q1190.7 155.486 1189.55 153.773 Q1188.41 152.037 1186.44 152.037 M1186.44 149.097 Q1190.1 149.097 1192.25 151.643 Q1194.41 154.19 1194.41 158.518 Q1194.41 162.847 1192.23 165.393 Q1190.08 167.916 1186.44 167.916 Q1182.74 167.916 1180.59 165.393 Q1178.43 162.847 1178.43 158.518 Q1178.43 154.167 1180.59 151.643 Q1182.76 149.097 1186.44 149.097 M1162.56 135 Q1160.56 135 1159.41 136.736 Q1158.27 138.449 1158.27 141.458 Q1158.27 144.514 1159.41 146.227 Q1160.54 147.94 1162.56 147.94 Q1164.57 147.94 1165.7 146.227 Q1166.86 144.514 1166.86 141.458 Q1166.86 138.472 1165.7 136.736 Q1164.55 135 1162.56 135 M1183.46 132.06 L1187.16 132.06 L1165.54 167.916 L1161.84 167.916 L1183.46 132.06 M1162.56 132.06 Q1166.21 132.06 1168.39 134.606 Q1170.56 137.13 1170.56 141.458 Q1170.56 145.833 1168.39 148.356 Q1166.24 150.88 1162.56 150.88 Q1158.87 150.88 1156.72 148.356 Q1154.59 145.81 1154.59 141.458 Q1154.59 137.153 1156.75 134.606 Q1158.9 132.06 1162.56 132.06 Z" fill="#000000" fill-rule="nonzero" fill-opacity="1" /><path clip-path="url(#clip520)" d="M1242.62 135.347 L1242.62 140.278 Q1240.26 138.079 1237.58 136.991 Q1234.92 135.903 1231.91 135.903 Q1225.98 135.903 1222.83 139.537 Q1219.68 143.148 1219.68 150 Q1219.68 156.829 1222.83 160.463 Q1225.98 164.074 1231.91 164.074 Q1234.92 164.074 1237.58 162.986 Q1240.26 161.898 1242.62 159.699 L1242.62 164.583 Q1240.17 166.25 1237.42 167.083 Q1234.68 167.916 1231.63 167.916 Q1223.78 167.916 1219.27 163.125 Q1214.75 158.31 1214.75 150 Q1214.75 141.667 1219.27 136.875 Q1223.78 132.06 1231.63 132.06 Q1234.73 132.06 1237.46 132.894 Q1240.22 133.704 1242.62 135.347 Z" fill="#000000" fill-rule="nonzero" fill-opacity="1" /><path clip-path="url(#clip520)" d="M1249.85 132.685 L1254.52 132.685 L1254.52 167.245 L1249.85 167.245 L1249.85 132.685 Z" fill="#000000" fill-rule="nonzero" fill-opacity="1" /><path clip-path="url(#clip520)" d="M1278.32 131.227 L1288.13 131.227 L1288.13 134.537 L1282.58 134.537 L1282.58 170.185 L1288.13 170.185 L1288.13 173.495 L1278.32 173.495 L1278.32 131.227 Z" fill="#000000" fill-rule="nonzero" fill-opacity="1" /><path clip-path="url(#clip520)" d="M1307.81 135.764 Q1304.2 135.764 1302.37 139.329 Q1300.56 142.87 1300.56 150 Q1300.56 157.106 1302.37 160.671 Q1304.2 164.213 1307.81 164.213 Q1311.44 164.213 1313.25 160.671 Q1315.08 157.106 1315.08 150 Q1315.08 142.87 1313.25 139.329 Q1311.44 135.764 1307.81 135.764 M1307.81 132.06 Q1313.62 132.06 1316.67 136.667 Q1319.75 141.25 1319.75 150 Q1319.75 158.727 1316.67 163.333 Q1313.62 167.916 1307.81 167.916 Q1302 167.916 1298.92 163.333 Q1295.86 158.727 1295.86 150 Q1295.86 141.25 1298.92 136.667 Q1302 132.06 1307.81 132.06 Z" fill="#000000" fill-rule="nonzero" fill-opacity="1" /><path clip-path="url(#clip520)" d="M1327.97 161.366 L1332.86 161.366 L1332.86 167.245 L1327.97 167.245 L1327.97 161.366 Z" fill="#000000" fill-rule="nonzero" fill-opacity="1" /><path clip-path="url(#clip520)" d="M1353.04 150.833 Q1349.71 150.833 1347.79 152.616 Q1345.89 154.398 1345.89 157.523 Q1345.89 160.648 1347.79 162.43 Q1349.71 164.213 1353.04 164.213 Q1356.37 164.213 1358.3 162.43 Q1360.22 160.625 1360.22 157.523 Q1360.22 154.398 1358.3 152.616 Q1356.4 150.833 1353.04 150.833 M1348.36 148.843 Q1345.36 148.102 1343.67 146.042 Q1342 143.981 1342 141.018 Q1342 136.875 1344.94 134.468 Q1347.9 132.06 1353.04 132.06 Q1358.2 132.06 1361.14 134.468 Q1364.08 136.875 1364.08 141.018 Q1364.08 143.981 1362.39 146.042 Q1360.73 148.102 1357.74 148.843 Q1361.12 149.63 1362.99 151.921 Q1364.89 154.213 1364.89 157.523 Q1364.89 162.546 1361.81 165.231 Q1358.76 167.916 1353.04 167.916 Q1347.32 167.916 1344.24 165.231 Q1341.19 162.546 1341.19 157.523 Q1341.19 154.213 1343.09 151.921 Q1344.98 149.63 1348.36 148.843 M1346.65 141.458 Q1346.65 144.143 1348.32 145.648 Q1350.01 147.153 1353.04 147.153 Q1356.05 147.153 1357.74 145.648 Q1359.45 144.143 1359.45 141.458 Q1359.45 138.773 1357.74 137.269 Q1356.05 135.764 1353.04 135.764 Q1350.01 135.764 1348.32 137.269 Q1346.65 138.773 1346.65 141.458 Z" fill="#000000" fill-rule="nonzero" fill-opacity="1" /><path clip-path="url(#clip520)" d="M1373.34 166.528 L1373.34 162.268 Q1375.1 163.102 1376.91 163.542 Q1378.71 163.981 1380.45 163.981 Q1385.08 163.981 1387.51 160.879 Q1389.96 157.755 1390.31 151.412 Q1388.97 153.403 1386.91 154.467 Q1384.85 155.532 1382.35 155.532 Q1377.16 155.532 1374.13 152.407 Q1371.12 149.259 1371.12 143.819 Q1371.12 138.495 1374.27 135.278 Q1377.42 132.06 1382.65 132.06 Q1388.64 132.06 1391.79 136.667 Q1394.96 141.25 1394.96 150 Q1394.96 158.171 1391.07 163.055 Q1387.21 167.916 1380.66 167.916 Q1378.9 167.916 1377.09 167.569 Q1375.29 167.222 1373.34 166.528 M1382.65 151.875 Q1385.79 151.875 1387.62 149.722 Q1389.48 147.569 1389.48 143.819 Q1389.48 140.093 1387.62 137.94 Q1385.79 135.764 1382.65 135.764 Q1379.5 135.764 1377.65 137.94 Q1375.82 140.093 1375.82 143.819 Q1375.82 147.569 1377.65 149.722 Q1379.5 151.875 1382.65 151.875 Z" fill="#000000" fill-rule="nonzero" fill-opacity="1" /><path clip-path="url(#clip520)" d="M1403.85 161.366 L1408.73 161.366 L1408.73 165.347 L1404.94 172.754 L1401.95 172.754 L1403.85 165.347 L1403.85 161.366 Z" fill="#000000" fill-rule="nonzero" fill-opacity="1" /><path clip-path="url(#clip520)" d="M1434.31 163.31 L1441.95 163.31 L1441.95 136.944 L1433.64 138.611 L1433.64 134.352 L1441.91 132.685 L1446.58 132.685 L1446.58 163.31 L1454.22 163.31 L1454.22 167.245 L1434.31 167.245 L1434.31 163.31 Z" fill="#000000" fill-rule="nonzero" fill-opacity="1" /><path clip-path="url(#clip520)" d="M1463.66 161.366 L1468.55 161.366 L1468.55 167.245 L1463.66 167.245 L1463.66 161.366 Z" fill="#000000" fill-rule="nonzero" fill-opacity="1" /><path clip-path="url(#clip520)" d="M1488.73 135.764 Q1485.12 135.764 1483.29 139.329 Q1481.49 142.87 1481.49 150 Q1481.49 157.106 1483.29 160.671 Q1485.12 164.213 1488.73 164.213 Q1492.37 164.213 1494.17 160.671 Q1496 157.106 1496 150 Q1496 142.87 1494.17 139.329 Q1492.37 135.764 1488.73 135.764 M1488.73 132.06 Q1494.54 132.06 1497.6 136.667 Q1500.68 141.25 1500.68 150 Q1500.68 158.727 1497.6 163.333 Q1494.54 167.916 1488.73 167.916 Q1482.92 167.916 1479.85 163.333 Q1476.79 158.727 1476.79 150 Q1476.79 141.25 1479.85 136.667 Q1482.92 132.06 1488.73 132.06 Z" fill="#000000" fill-rule="nonzero" fill-opacity="1" /><path clip-path="url(#clip520)" d="M1519.47 148.102 Q1516.33 148.102 1514.47 150.255 Q1512.65 152.407 1512.65 156.157 Q1512.65 159.884 1514.47 162.06 Q1516.33 164.213 1519.47 164.213 Q1522.62 164.213 1524.45 162.06 Q1526.3 159.884 1526.3 156.157 Q1526.3 152.407 1524.45 150.255 Q1522.62 148.102 1519.47 148.102 M1528.76 133.449 L1528.76 137.708 Q1527 136.875 1525.19 136.435 Q1523.41 135.995 1521.65 135.995 Q1517.02 135.995 1514.57 139.12 Q1512.14 142.245 1511.79 148.565 Q1513.16 146.551 1515.22 145.486 Q1517.28 144.398 1519.75 144.398 Q1524.96 144.398 1527.97 147.569 Q1531 150.718 1531 156.157 Q1531 161.481 1527.85 164.699 Q1524.71 167.916 1519.47 167.916 Q1513.48 167.916 1510.31 163.333 Q1507.14 158.727 1507.14 150 Q1507.14 141.806 1511.03 136.944 Q1514.91 132.06 1521.47 132.06 Q1523.22 132.06 1525.01 132.407 Q1526.81 132.755 1528.76 133.449 Z" fill="#000000" fill-rule="nonzero" fill-opacity="1" /><path clip-path="url(#clip520)" d="M1548.41 131.227 L1548.41 173.495 L1538.6 173.495 L1538.6 170.185 L1544.13 170.185 L1544.13 134.537 L1538.6 134.537 L1538.6 131.227 L1548.41 131.227 Z" fill="#000000" fill-rule="nonzero" fill-opacity="1" /><circle clip-path="url(#clip520)" cx="449.624" cy="196.379" r="20.48" fill="#ff7e0d" fill-rule="evenodd" fill-opacity="1" stroke="#000000" stroke-opacity="1" stroke-width="4.55111"/>
<path clip-path="url(#clip520)" d="M559.767 188.497 L559.767 192.525 Q557.962 191.599 556.017 191.136 Q554.073 190.673 551.99 190.673 Q548.818 190.673 547.221 191.645 Q545.647 192.618 545.647 194.562 Q545.647 196.044 546.781 196.9 Q547.916 197.733 551.342 198.497 L552.8 198.821 Q557.337 199.794 559.235 201.576 Q561.156 203.335 561.156 206.506 Q561.156 210.118 558.286 212.224 Q555.439 214.33 550.439 214.33 Q548.355 214.33 546.087 213.914 Q543.842 213.52 541.342 212.71 L541.342 208.312 Q543.703 209.539 545.994 210.164 Q548.286 210.766 550.531 210.766 Q553.541 210.766 555.161 209.747 Q556.781 208.706 556.781 206.831 Q556.781 205.094 555.601 204.168 Q554.443 203.243 550.485 202.386 L549.004 202.039 Q545.045 201.206 543.286 199.493 Q541.527 197.756 541.527 194.747 Q541.527 191.09 544.119 189.099 Q546.712 187.108 551.48 187.108 Q553.842 187.108 555.925 187.456 Q558.008 187.803 559.767 188.497 Z" fill="#000000" fill-rule="nonzero" fill-opacity="1" /><path clip-path="url(#clip520)" d="M572.152 180.372 L572.152 187.733 L580.925 187.733 L580.925 191.044 L572.152 191.044 L572.152 205.118 Q572.152 208.289 573.008 209.192 Q573.888 210.094 576.55 210.094 L580.925 210.094 L580.925 213.659 L576.55 213.659 Q571.619 213.659 569.744 211.83 Q567.869 209.979 567.869 205.118 L567.869 191.044 L564.744 191.044 L564.744 187.733 L567.869 187.733 L567.869 180.372 L572.152 180.372 Z" fill="#000000" fill-rule="nonzero" fill-opacity="1" /><path clip-path="url(#clip520)" d="M601.55 191.715 Q600.832 191.298 599.976 191.113 Q599.142 190.905 598.124 190.905 Q594.513 190.905 592.568 193.266 Q590.647 195.604 590.647 200.002 L590.647 213.659 L586.365 213.659 L586.365 187.733 L590.647 187.733 L590.647 191.761 Q591.989 189.4 594.142 188.266 Q596.295 187.108 599.374 187.108 Q599.814 187.108 600.346 187.178 Q600.878 187.224 601.526 187.34 L601.55 191.715 Z" fill="#000000" fill-rule="nonzero" fill-opacity="1" /><path clip-path="url(#clip520)" d="M615.022 190.719 Q611.596 190.719 609.605 193.405 Q607.614 196.067 607.614 200.719 Q607.614 205.372 609.582 208.057 Q611.573 210.719 615.022 210.719 Q618.425 210.719 620.415 208.034 Q622.406 205.349 622.406 200.719 Q622.406 196.113 620.415 193.428 Q618.425 190.719 615.022 190.719 M615.022 187.108 Q620.577 187.108 623.749 190.719 Q626.92 194.331 626.92 200.719 Q626.92 207.085 623.749 210.719 Q620.577 214.33 615.022 214.33 Q609.443 214.33 606.272 210.719 Q603.124 207.085 603.124 200.719 Q603.124 194.331 606.272 190.719 Q609.443 187.108 615.022 187.108 Z" fill="#000000" fill-rule="nonzero" fill-opacity="1" /><path clip-path="url(#clip520)" d="M655.531 198.011 L655.531 213.659 L651.272 213.659 L651.272 198.15 Q651.272 194.469 649.836 192.641 Q648.401 190.812 645.531 190.812 Q642.082 190.812 640.091 193.011 Q638.1 195.21 638.1 199.006 L638.1 213.659 L633.818 213.659 L633.818 187.733 L638.1 187.733 L638.1 191.761 Q639.628 189.423 641.688 188.266 Q643.772 187.108 646.48 187.108 Q650.948 187.108 653.239 189.886 Q655.531 192.641 655.531 198.011 Z" fill="#000000" fill-rule="nonzero" fill-opacity="1" /><path clip-path="url(#clip520)" d="M681.086 200.395 Q681.086 195.766 679.165 193.219 Q677.267 190.673 673.818 190.673 Q670.392 190.673 668.471 193.219 Q666.572 195.766 666.572 200.395 Q666.572 205.002 668.471 207.548 Q670.392 210.094 673.818 210.094 Q677.267 210.094 679.165 207.548 Q681.086 205.002 681.086 200.395 M685.345 210.442 Q685.345 217.062 682.406 220.28 Q679.466 223.52 673.401 223.52 Q671.156 223.52 669.165 223.173 Q667.174 222.849 665.299 222.155 L665.299 218.011 Q667.174 219.03 669.003 219.516 Q670.832 220.002 672.73 220.002 Q676.92 220.002 679.003 217.803 Q681.086 215.627 681.086 211.205 L681.086 209.099 Q679.767 211.391 677.707 212.525 Q675.646 213.659 672.776 213.659 Q668.008 213.659 665.091 210.025 Q662.174 206.391 662.174 200.395 Q662.174 194.377 665.091 190.743 Q668.008 187.108 672.776 187.108 Q675.646 187.108 677.707 188.243 Q679.767 189.377 681.086 191.669 L681.086 187.733 L685.345 187.733 L685.345 210.442 Z" fill="#000000" fill-rule="nonzero" fill-opacity="1" /><path clip-path="url(#clip520)" d="M731.364 199.631 L731.364 201.715 L711.781 201.715 Q712.058 206.113 714.419 208.428 Q716.804 210.719 721.04 210.719 Q723.493 210.719 725.785 210.118 Q728.1 209.516 730.368 208.312 L730.368 212.34 Q728.077 213.312 725.669 213.821 Q723.262 214.33 720.785 214.33 Q714.581 214.33 710.947 210.719 Q707.336 207.108 707.336 200.951 Q707.336 194.585 710.762 190.858 Q714.211 187.108 720.044 187.108 Q725.276 187.108 728.308 190.488 Q731.364 193.844 731.364 199.631 M727.105 198.381 Q727.058 194.886 725.137 192.803 Q723.239 190.719 720.091 190.719 Q716.526 190.719 714.373 192.733 Q712.243 194.747 711.919 198.405 L727.105 198.381 Z" fill="#000000" fill-rule="nonzero" fill-opacity="1" /><path clip-path="url(#clip520)" d="M753.378 191.715 Q752.66 191.298 751.803 191.113 Q750.97 190.905 749.952 190.905 Q746.341 190.905 744.396 193.266 Q742.475 195.604 742.475 200.002 L742.475 213.659 L738.192 213.659 L738.192 187.733 L742.475 187.733 L742.475 191.761 Q743.817 189.4 745.97 188.266 Q748.123 187.108 751.202 187.108 Q751.641 187.108 752.174 187.178 Q752.706 187.224 753.354 187.34 L753.378 191.715 Z" fill="#000000" fill-rule="nonzero" fill-opacity="1" /><path clip-path="url(#clip520)" d="M772.035 191.715 Q771.317 191.298 770.461 191.113 Q769.627 190.905 768.609 190.905 Q764.998 190.905 763.053 193.266 Q761.132 195.604 761.132 200.002 L761.132 213.659 L756.85 213.659 L756.85 187.733 L761.132 187.733 L761.132 191.761 Q762.475 189.4 764.627 188.266 Q766.78 187.108 769.859 187.108 Q770.299 187.108 770.831 187.178 Q771.364 187.224 772.012 187.34 L772.035 191.715 Z" fill="#000000" fill-rule="nonzero" fill-opacity="1" /><path clip-path="url(#clip520)" d="M785.507 190.719 Q782.081 190.719 780.09 193.405 Q778.1 196.067 778.1 200.719 Q778.1 205.372 780.067 208.057 Q782.058 210.719 785.507 210.719 Q788.91 210.719 790.9 208.034 Q792.891 205.349 792.891 200.719 Q792.891 196.113 790.9 193.428 Q788.91 190.719 785.507 190.719 M785.507 187.108 Q791.062 187.108 794.234 190.719 Q797.405 194.331 797.405 200.719 Q797.405 207.085 794.234 210.719 Q791.062 214.33 785.507 214.33 Q779.928 214.33 776.757 210.719 Q773.609 207.085 773.609 200.719 Q773.609 194.331 776.757 190.719 Q779.928 187.108 785.507 187.108 Z" fill="#000000" fill-rule="nonzero" fill-opacity="1" /><path clip-path="url(#clip520)" d="M819.488 191.715 Q818.771 191.298 817.914 191.113 Q817.081 190.905 816.062 190.905 Q812.451 190.905 810.507 193.266 Q808.586 195.604 808.586 200.002 L808.586 213.659 L804.303 213.659 L804.303 187.733 L808.586 187.733 L808.586 191.761 Q809.928 189.4 812.081 188.266 Q814.234 187.108 817.312 187.108 Q817.752 187.108 818.285 187.178 Q818.817 187.224 819.465 187.34 L819.488 191.715 Z" fill="#000000" fill-rule="nonzero" fill-opacity="1" /><path clip-path="url(#clip520)" d="M840.484 188.497 L840.484 192.525 Q838.678 191.599 836.734 191.136 Q834.789 190.673 832.706 190.673 Q829.535 190.673 827.937 191.645 Q826.363 192.618 826.363 194.562 Q826.363 196.044 827.497 196.9 Q828.632 197.733 832.058 198.497 L833.516 198.821 Q838.053 199.794 839.951 201.576 Q841.872 203.335 841.872 206.506 Q841.872 210.118 839.002 212.224 Q836.155 214.33 831.155 214.33 Q829.072 214.33 826.803 213.914 Q824.558 213.52 822.058 212.71 L822.058 208.312 Q824.419 209.539 826.71 210.164 Q829.002 210.766 831.247 210.766 Q834.257 210.766 835.877 209.747 Q837.497 208.706 837.497 206.831 Q837.497 205.094 836.317 204.168 Q835.159 203.243 831.201 202.386 L829.72 202.039 Q825.761 201.206 824.002 199.493 Q822.243 197.756 822.243 194.747 Q822.243 191.09 824.835 189.099 Q827.428 187.108 832.197 187.108 Q834.558 187.108 836.641 187.456 Q838.724 187.803 840.484 188.497 Z" fill="#000000" fill-rule="nonzero" fill-opacity="1" /></svg>
