<?xml version="1.0" encoding="utf-8"?>
<svg xmlns="http://www.w3.org/2000/svg" xmlns:xlink="http://www.w3.org/1999/xlink" width="600" height="400" viewBox="0 0 2400 1600">
<defs>
  <clipPath id="clip580">
    <rect x="0" y="0" width="2400" height="1600"/>
  </clipPath>
</defs>
<path clip-path="url(#clip580)" d="M0 1600 L2400 1600 L2400 0 L0 0  Z" fill="#ffffff" fill-rule="evenodd" fill-opacity="1"/>
<defs>
  <clipPath id="clip581">
    <rect x="480" y="0" width="1681" height="1600"/>
  </clipPath>
</defs>
<path clip-path="url(#clip580)" d="M175.445 1423.18 L2352.76 1423.18 L2352.76 47.2441 L175.445 47.2441  Z" fill="#ffffff" fill-rule="evenodd" fill-opacity="1"/>
<defs>
  <clipPath id="clip582">
    <rect x="175" y="47" width="2178" height="1377"/>
  </clipPath>
</defs>
<polyline clip-path="url(#clip582)" style="stroke:#000000; stroke-linecap:round; stroke-linejoin:round; stroke-width:2; stroke-opacity:0.1; fill:none" points="237.067,1423.18 237.067,47.2441 "/>
<polyline clip-path="url(#clip582)" style="stroke:#000000; stroke-linecap:round; stroke-linejoin:round; stroke-width:2; stroke-opacity:0.1; fill:none" points="921.756,1423.18 921.756,47.2441 "/>
<polyline clip-path="url(#clip582)" style="stroke:#000000; stroke-linecap:round; stroke-linejoin:round; stroke-width:2; stroke-opacity:0.1; fill:none" points="1606.45,1423.18 1606.45,47.2441 "/>
<polyline clip-path="url(#clip582)" style="stroke:#000000; stroke-linecap:round; stroke-linejoin:round; stroke-width:2; stroke-opacity:0.1; fill:none" points="2291.13,1423.18 2291.13,47.2441 "/>
<polyline clip-path="url(#clip582)" style="stroke:#000000; stroke-linecap:round; stroke-linejoin:round; stroke-width:2; stroke-opacity:0.1; fill:none" points="175.445,1202.99 2352.76,1202.99 "/>
<polyline clip-path="url(#clip582)" style="stroke:#000000; stroke-linecap:round; stroke-linejoin:round; stroke-width:2; stroke-opacity:0.1; fill:none" points="175.445,840.487 2352.76,840.487 "/>
<polyline clip-path="url(#clip582)" style="stroke:#000000; stroke-linecap:round; stroke-linejoin:round; stroke-width:2; stroke-opacity:0.1; fill:none" points="175.445,477.987 2352.76,477.987 "/>
<polyline clip-path="url(#clip582)" style="stroke:#000000; stroke-linecap:round; stroke-linejoin:round; stroke-width:2; stroke-opacity:0.1; fill:none" points="175.445,115.486 2352.76,115.486 "/>
<polyline clip-path="url(#clip580)" style="stroke:#000000; stroke-linecap:round; stroke-linejoin:round; stroke-width:4; stroke-opacity:1; fill:none" points="175.445,1423.18 2352.76,1423.18 "/>
<polyline clip-path="url(#clip580)" style="stroke:#000000; stroke-linecap:round; stroke-linejoin:round; stroke-width:4; stroke-opacity:1; fill:none" points="237.067,1423.18 237.067,1404.28 "/>
<polyline clip-path="url(#clip580)" style="stroke:#000000; stroke-linecap:round; stroke-linejoin:round; stroke-width:4; stroke-opacity:1; fill:none" points="921.756,1423.18 921.756,1404.28 "/>
<polyline clip-path="url(#clip580)" style="stroke:#000000; stroke-linecap:round; stroke-linejoin:round; stroke-width:4; stroke-opacity:1; fill:none" points="1606.45,1423.18 1606.45,1404.28 "/>
<polyline clip-path="url(#clip580)" style="stroke:#000000; stroke-linecap:round; stroke-linejoin:round; stroke-width:4; stroke-opacity:1; fill:none" points="2291.13,1423.18 2291.13,1404.28 "/>
<path clip-path="url(#clip580)" d="M237.067 1454.1 Q233.456 1454.1 231.627 1457.66 Q229.822 1461.2 229.822 1468.33 Q229.822 1475.44 231.627 1479.01 Q233.456 1482.55 237.067 1482.55 Q240.701 1482.55 242.507 1479.01 Q244.336 1475.44 244.336 1468.33 Q244.336 1461.2 242.507 1457.66 Q240.701 1454.1 237.067 1454.1 M237.067 1450.39 Q242.877 1450.39 245.933 1455 Q249.012 1459.58 249.012 1468.33 Q249.012 1477.06 245.933 1481.67 Q242.877 1486.25 237.067 1486.25 Q231.257 1486.25 228.178 1481.67 Q225.123 1477.06 225.123 1468.33 Q225.123 1459.58 228.178 1455 Q231.257 1450.39 237.067 1450.39 Z" fill="#000000" fill-rule="nonzero" fill-opacity="1" /><path clip-path="url(#clip580)" d="M912.138 1481.64 L919.777 1481.64 L919.777 1455.28 L911.467 1456.95 L911.467 1452.69 L919.731 1451.02 L924.407 1451.02 L924.407 1481.64 L932.045 1481.64 L932.045 1485.58 L912.138 1485.58 L912.138 1481.64 Z" fill="#000000" fill-rule="nonzero" fill-opacity="1" /><path clip-path="url(#clip580)" d="M1601.1 1481.64 L1617.42 1481.64 L1617.42 1485.58 L1595.47 1485.58 L1595.47 1481.64 Q1598.13 1478.89 1602.72 1474.26 Q1607.32 1469.61 1608.51 1468.27 Q1610.75 1465.74 1611.63 1464.01 Q1612.53 1462.25 1612.53 1460.56 Q1612.53 1457.8 1610.59 1456.07 Q1608.67 1454.33 1605.57 1454.33 Q1603.37 1454.33 1600.91 1455.09 Q1598.48 1455.86 1595.7 1457.41 L1595.7 1452.69 Q1598.53 1451.55 1600.98 1450.97 Q1603.44 1450.39 1605.47 1450.39 Q1610.84 1450.39 1614.04 1453.08 Q1617.23 1455.77 1617.23 1460.26 Q1617.23 1462.39 1616.42 1464.31 Q1615.63 1466.2 1613.53 1468.8 Q1612.95 1469.47 1609.85 1472.69 Q1606.75 1475.88 1601.1 1481.64 Z" fill="#000000" fill-rule="nonzero" fill-opacity="1" /><path clip-path="url(#clip580)" d="M2295.38 1466.95 Q2298.74 1467.66 2300.61 1469.93 Q2302.51 1472.2 2302.51 1475.53 Q2302.51 1480.65 2298.99 1483.45 Q2295.47 1486.25 2288.99 1486.25 Q2286.82 1486.25 2284.5 1485.81 Q2282.21 1485.39 2279.76 1484.54 L2279.76 1480.02 Q2281.7 1481.16 2284.02 1481.74 Q2286.33 1482.32 2288.85 1482.32 Q2293.25 1482.32 2295.54 1480.58 Q2297.86 1478.84 2297.86 1475.53 Q2297.86 1472.48 2295.71 1470.77 Q2293.58 1469.03 2289.76 1469.03 L2285.73 1469.03 L2285.73 1465.19 L2289.94 1465.19 Q2293.39 1465.19 2295.22 1463.82 Q2297.05 1462.43 2297.05 1459.84 Q2297.05 1457.18 2295.15 1455.77 Q2293.28 1454.33 2289.76 1454.33 Q2287.84 1454.33 2285.64 1454.75 Q2283.44 1455.16 2280.8 1456.04 L2280.8 1451.88 Q2283.46 1451.14 2285.78 1450.77 Q2288.11 1450.39 2290.17 1450.39 Q2295.5 1450.39 2298.6 1452.83 Q2301.7 1455.23 2301.7 1459.35 Q2301.7 1462.22 2300.06 1464.21 Q2298.41 1466.18 2295.38 1466.95 Z" fill="#000000" fill-rule="nonzero" fill-opacity="1" /><path clip-path="url(#clip580)" d="M1272.57 1531.91 Q1272.57 1532.81 1272.15 1533.04 Q1271.73 1533.23 1270.57 1533.23 L1264.39 1533.23 L1259.5 1552.69 Q1259.11 1554.39 1259.11 1555.84 Q1259.11 1557.45 1259.59 1558.16 Q1260.11 1558.87 1261.17 1558.87 Q1263.26 1558.87 1265.52 1556.97 Q1267.81 1555.07 1269.74 1550.43 Q1270 1549.82 1270.12 1549.69 Q1270.28 1549.53 1270.7 1549.53 Q1271.51 1549.53 1271.51 1550.17 Q1271.51 1550.4 1271.06 1551.43 Q1270.64 1552.46 1269.71 1553.97 Q1268.8 1555.49 1267.61 1556.9 Q1266.45 1558.32 1264.68 1559.35 Q1262.91 1560.35 1261.01 1560.35 Q1258.34 1560.35 1256.63 1558.64 Q1254.95 1556.94 1254.95 1554.26 Q1254.95 1553.39 1255.63 1550.62 Q1256.31 1547.82 1259.98 1533.23 L1254.15 1533.23 Q1253.34 1533.23 1253.02 1533.2 Q1252.73 1533.17 1252.51 1533.01 Q1252.31 1532.81 1252.31 1532.43 Q1252.31 1531.82 1252.57 1531.56 Q1252.83 1531.27 1253.15 1531.24 Q1253.51 1531.17 1254.31 1531.17 L1260.49 1531.17 L1263.07 1520.71 Q1263.33 1519.67 1263.97 1519.09 Q1264.65 1518.48 1265.04 1518.42 Q1265.42 1518.32 1265.71 1518.32 Q1266.58 1518.32 1267.1 1518.81 Q1267.61 1519.26 1267.61 1520.09 Q1267.61 1520.54 1264.91 1531.17 L1270.7 1531.17 Q1271.44 1531.17 1271.73 1531.2 Q1272.06 1531.24 1272.31 1531.4 Q1272.57 1531.56 1272.57 1531.91 Z" fill="#000000" fill-rule="nonzero" fill-opacity="1" /><polyline clip-path="url(#clip580)" style="stroke:#000000; stroke-linecap:round; stroke-linejoin:round; stroke-width:4; stroke-opacity:1; fill:none" points="175.445,1423.18 175.445,47.2441 "/>
<polyline clip-path="url(#clip580)" style="stroke:#000000; stroke-linecap:round; stroke-linejoin:round; stroke-width:4; stroke-opacity:1; fill:none" points="175.445,1202.99 194.343,1202.99 "/>
<polyline clip-path="url(#clip580)" style="stroke:#000000; stroke-linecap:round; stroke-linejoin:round; stroke-width:4; stroke-opacity:1; fill:none" points="175.445,840.487 194.343,840.487 "/>
<polyline clip-path="url(#clip580)" style="stroke:#000000; stroke-linecap:round; stroke-linejoin:round; stroke-width:4; stroke-opacity:1; fill:none" points="175.445,477.987 194.343,477.987 "/>
<polyline clip-path="url(#clip580)" style="stroke:#000000; stroke-linecap:round; stroke-linejoin:round; stroke-width:4; stroke-opacity:1; fill:none" points="175.445,115.486 194.343,115.486 "/>
<path clip-path="url(#clip580)" d="M123.126 1216.33 L139.445 1216.33 L139.445 1220.27 L117.501 1220.27 L117.501 1216.33 Q120.163 1213.58 124.746 1208.95 Q129.353 1204.3 130.533 1202.95 Q132.779 1200.43 133.658 1198.69 Q134.561 1196.93 134.561 1195.24 Q134.561 1192.49 132.617 1190.75 Q130.695 1189.02 127.593 1189.02 Q125.394 1189.02 122.941 1189.78 Q120.51 1190.55 117.732 1192.1 L117.732 1187.37 Q120.556 1186.24 123.01 1185.66 Q125.464 1185.08 127.501 1185.08 Q132.871 1185.08 136.066 1187.77 Q139.26 1190.45 139.26 1194.94 Q139.26 1197.07 138.45 1198.99 Q137.663 1200.89 135.556 1203.49 Q134.978 1204.16 131.876 1207.37 Q128.774 1210.57 123.126 1216.33 Z" fill="#000000" fill-rule="nonzero" fill-opacity="1" /><path clip-path="url(#clip580)" d="M129.862 827.281 L118.056 845.73 L129.862 845.73 L129.862 827.281 M128.635 823.207 L134.515 823.207 L134.515 845.73 L139.445 845.73 L139.445 849.619 L134.515 849.619 L134.515 857.767 L129.862 857.767 L129.862 849.619 L114.26 849.619 L114.26 845.105 L128.635 823.207 Z" fill="#000000" fill-rule="nonzero" fill-opacity="1" /><path clip-path="url(#clip580)" d="M127.917 476.123 Q124.769 476.123 122.918 478.276 Q121.089 480.429 121.089 484.179 Q121.089 487.906 122.918 490.082 Q124.769 492.234 127.917 492.234 Q131.066 492.234 132.894 490.082 Q134.746 487.906 134.746 484.179 Q134.746 480.429 132.894 478.276 Q131.066 476.123 127.917 476.123 M137.2 461.471 L137.2 465.73 Q135.441 464.897 133.635 464.457 Q131.853 464.017 130.093 464.017 Q125.464 464.017 123.01 467.142 Q120.58 470.267 120.232 476.586 Q121.598 474.573 123.658 473.508 Q125.718 472.42 128.195 472.42 Q133.404 472.42 136.413 475.591 Q139.445 478.739 139.445 484.179 Q139.445 489.503 136.297 492.721 Q133.149 495.938 127.917 495.938 Q121.922 495.938 118.751 491.355 Q115.58 486.748 115.58 478.022 Q115.58 469.827 119.468 464.966 Q123.357 460.082 129.908 460.082 Q131.667 460.082 133.45 460.429 Q135.255 460.776 137.2 461.471 Z" fill="#000000" fill-rule="nonzero" fill-opacity="1" /><path clip-path="url(#clip580)" d="M127.593 116.354 Q124.26 116.354 122.339 118.137 Q120.441 119.919 120.441 123.044 Q120.441 126.169 122.339 127.951 Q124.26 129.734 127.593 129.734 Q130.927 129.734 132.848 127.951 Q134.769 126.146 134.769 123.044 Q134.769 119.919 132.848 118.137 Q130.95 116.354 127.593 116.354 M122.918 114.364 Q119.908 113.623 118.218 111.563 Q116.552 109.503 116.552 106.54 Q116.552 102.396 119.492 99.9887 Q122.455 97.5813 127.593 97.5813 Q132.755 97.5813 135.695 99.9887 Q138.635 102.396 138.635 106.54 Q138.635 109.503 136.945 111.563 Q135.279 113.623 132.292 114.364 Q135.672 115.151 137.547 117.442 Q139.445 119.734 139.445 123.044 Q139.445 128.067 136.367 130.752 Q133.311 133.438 127.593 133.438 Q121.876 133.438 118.797 130.752 Q115.742 128.067 115.742 123.044 Q115.742 119.734 117.64 117.442 Q119.538 115.151 122.918 114.364 M121.205 106.979 Q121.205 109.665 122.871 111.169 Q124.561 112.674 127.593 112.674 Q130.603 112.674 132.292 111.169 Q134.005 109.665 134.005 106.979 Q134.005 104.294 132.292 102.79 Q130.603 101.285 127.593 101.285 Q124.561 101.285 122.871 102.79 Q121.205 104.294 121.205 106.979 Z" fill="#000000" fill-rule="nonzero" fill-opacity="1" /><path clip-path="url(#clip580)" d="M39.02 721.039 Q40.8235 721.039 41.8541 722.166 Q42.8525 723.293 42.8525 724.581 Q42.8525 725.805 42.1439 726.449 Q41.4354 727.093 40.5336 727.093 Q39.3098 727.093 38.247 726.191 Q37.1842 725.29 36.9588 723.937 Q36.1214 725.258 36.1214 727.222 Q36.1214 728.51 36.7978 729.638 Q37.4741 730.733 38.3436 731.409 Q39.2132 732.053 40.4692 732.633 Q41.693 733.18 42.4338 733.406 Q43.1423 733.599 43.9152 733.76 L52.9329 736.014 Q57.2163 737.109 58.7299 737.109 Q60.5979 737.109 61.8539 736.208 Q63.0777 735.306 63.0777 733.502 Q63.0777 732.794 62.8845 731.989 Q62.6591 731.183 62.0794 730.153 Q61.4674 729.09 60.5657 728.156 Q59.6317 727.19 58.0536 726.256 Q56.4755 725.322 54.4466 724.71 Q53.738 724.517 53.738 723.873 Q53.738 723.068 54.3822 723.068 Q54.9297 723.068 56.0891 723.518 Q57.2163 723.937 58.6977 724.871 Q60.147 725.773 61.4674 726.964 Q62.7557 728.156 63.6574 729.927 Q64.5592 731.699 64.5592 733.631 Q64.5592 736.401 63.0777 738.236 Q61.5963 740.072 59.5351 740.749 Q59.8249 740.91 60.2114 741.135 Q60.5979 741.36 61.4674 742.037 Q62.3048 742.681 62.9489 743.422 Q63.5608 744.162 64.0439 745.322 Q64.5592 746.449 64.5592 747.673 Q64.5592 749.219 64.1083 750.604 Q63.6574 751.956 62.6269 752.922 Q61.5963 753.889 60.1792 753.889 Q58.6011 753.889 57.5061 752.826 Q56.3789 751.731 56.3789 750.249 Q56.3789 749.315 56.9264 748.575 Q57.4739 747.802 58.6655 747.802 Q59.986 747.802 60.9844 748.703 Q61.9827 749.605 62.2404 750.893 Q63.0777 749.573 63.0777 747.608 Q63.0777 745.483 61.2098 743.808 Q59.3419 742.133 56.2179 741.328 Q48.7139 739.331 45.3645 738.559 Q41.9829 737.786 40.5336 737.786 Q39.181 737.786 38.247 738.14 Q37.313 738.494 36.8944 739.106 Q36.4435 739.686 36.2825 740.233 Q36.1214 740.749 36.1214 741.328 Q36.1214 742.294 36.5079 743.389 Q36.8944 744.452 37.7961 745.74 Q38.6657 746.996 40.4692 748.188 Q42.2727 749.38 44.7526 750.185 Q45.4933 750.346 45.4933 751.054 Q45.4611 751.827 44.817 751.827 Q44.2695 751.827 43.1423 751.409 Q41.9829 750.958 40.5336 750.056 Q39.0844 749.122 37.7961 747.93 Q36.4757 746.707 35.5739 744.935 Q34.6722 743.132 34.6722 741.199 Q34.6722 740.33 34.8654 739.493 Q35.0264 738.623 35.5095 737.592 Q35.9926 736.53 37.0554 735.596 Q38.1182 734.662 39.6641 734.082 Q38.9233 733.695 38.2148 733.18 Q37.5063 732.633 36.6367 731.795 Q35.735 730.926 35.2197 729.734 Q34.6722 728.51 34.6722 727.158 Q34.6722 725.837 35.0264 724.549 Q35.3485 723.261 36.4113 722.166 Q37.4419 721.039 39.02 721.039 Z" fill="#000000" fill-rule="nonzero" fill-opacity="1" /><polyline clip-path="url(#clip582)" style="stroke:#1f77b4; stroke-linecap:round; stroke-linejoin:round; stroke-width:8; stroke-opacity:1; fill:none" points="237.067,1384.24 241.079,1382.98 245.091,1381.75 249.103,1380.51 253.115,1378.91 257.126,1376.72 261.138,1374.63 265.15,1372.54 269.162,1370.06 273.174,1367.32 277.186,1364.31 281.198,1361.36 285.209,1358.15 289.221,1355.38 293.233,1353.02 297.245,1350.69 301.257,1348.24 305.269,1345.97 309.28,1344 313.292,1342.15 317.304,1340.56 321.316,1339.15 325.328,1337.77 329.34,1336.81 333.352,1335.43 337.363,1334.23 341.375,1332.93 345.387,1331.81 349.399,1330.58 353.411,1329.16 357.423,1327.64 361.435,1326.26 365.446,1325.51 369.458,1324.78 373.47,1323.58 377.482,1322.46 381.494,1321.46 385.506,1320.56 389.517,1320.11 393.529,1319.89 397.541,1319.47 401.553,1319.09 405.565,1318.72 409.577,1318.31 413.589,1317.79 417.6,1317.27 421.612,1316.67 425.624,1316.19 429.636,1315.58 433.648,1314.64 437.66,1313.9 441.672,1312.81 445.683,1311.9 449.695,1311.11 453.707,1310.68 457.719,1310.2 461.731,1309.62 465.743,1308.81 469.754,1308.03 473.766,1307.73 477.778,1307.35 481.79,1306.94 485.802,1306.63 489.814,1306.54 493.826,1306.17 497.837,1305.72 501.849,1305.49 505.861,1305.32 509.873,1305.11 513.885,1304.7 517.897,1304.23 521.908,1303.77 525.92,1303.38 529.932,1303.07 533.944,1303.05 537.956,1302.86 541.968,1302.31 545.98,1301.5 549.991,1300.25 554.003,1299.15 558.015,1297.96 562.027,1296.99 566.039,1295.84 570.051,1294.32 574.063,1292.4 578.074,1290.36 582.086,1288.23 586.098,1285.89 590.11,1283.51 594.122,1280.94 598.134,1278.77 602.145,1277.13 606.157,1275.78 610.169,1274.3 614.181,1272.52 618.193,1270.76 622.205,1269.33 626.217,1267.94 630.228,1266.68 634.24,1265.51 638.252,1264.76 642.264,1263.92 646.276,1262.97 650.288,1261.83 654.3,1260.43 658.311,1259.18 662.323,1258.59 666.335,1257.74 670.347,1257.13 674.359,1256.83 678.371,1255.73 682.382,1254.06 686.394,1252.16 690.406,1250.38 694.418,1248.84 698.43,1247.69 702.442,1246.72 706.454,1245.9 710.465,1245.52 714.477,1245.7 718.489,1245.83 722.501,1245.85 726.513,1245.71 730.525,1246.47 734.536,1247.69 738.548,1248.98 742.56,1250.2 746.572,1251.6 750.584,1252.37 754.596,1252.59 758.608,1252.31 762.619,1252.13 766.631,1251.96 770.643,1251.63 774.655,1250.86 778.667,1250.01 782.679,1249.53 786.691,1249.53 790.702,1249.84 794.714,1250.25 798.726,1250.46 802.738,1250.82 806.75,1250.85 810.762,1250.67 814.773,1250.7 818.785,1251.26 822.797,1252.51 826.809,1253.8 830.821,1255.17 834.833,1256.12 838.845,1256.59 842.856,1256.45 846.868,1256.02 850.88,1255.16 854.892,1253.84 858.904,1252.59 862.916,1251.4 866.928,1250.14 870.939,1248.79 874.951,1248.05 878.963,1247.99 882.975,1248.04 886.987,1248.45 890.999,1248.87 895.01,1249.39 899.022,1249.52 903.034,1249.67 907.046,1249.95 911.058,1250.15 915.07,1249.75 919.082,1248.77 923.093,1247.68 927.105,1246.15 931.117,1244.55 935.129,1242.83 939.141,1240.85 943.153,1238.38 947.164,1235.65 951.176,1232.99 955.188,1230.3 959.2,1227.64 963.212,1224.71 967.224,1221.51 971.236,1218.41 975.247,1215.7 979.259,1213.17 983.271,1210.34 987.283,1207.1 991.295,1203.69 995.307,1200.16 999.319,1196.93 1003.33,1193.74 1007.34,1190.13 1011.35,1186.11 1015.37,1182 1019.38,1177.66 1023.39,1173.36 1027.4,1169.01 1031.41,1164.59 1035.43,1160.29 1039.44,1155.91 1043.45,1151.6 1047.46,1147.45 1051.47,1143.49 1055.48,1139.65 1059.5,1135.54 1063.51,1131.65 1067.52,1127.76 1071.53,1123.83 1075.54,1120.2 1079.56,1117.05 1083.57,1113.7 1087.58,1110.22 1091.59,1106.78 1095.6,1103.21 1099.61,1099.66 1103.63,1095.92 1107.64,1091.99 1111.65,1087.96 1115.66,1083.98 1119.67,1080.14 1123.69,1075.98 1127.7,1071.27 1131.71,1066.36 1135.72,1061.25 1139.73,1056.5 1143.75,1051.68 1147.76,1046.96 1151.77,1042.87 1155.78,1039.06 1159.79,1034.91 1163.8,1030.85 1167.82,1026.99 1171.83,1023.32 1175.84,1019.55 1179.85,1015.75 1183.86,1012.2 1187.88,1008.48 1191.89,1004.92 1195.9,1001.49 1199.91,998.299 1203.92,994.67 1207.93,990.662 1211.95,986.56 1215.96,982.325 1219.97,978.162 1223.98,974.01 1227.99,970.05 1232.01,966.435 1236.02,963.086 1240.03,959.694 1244.04,956.85 1248.05,954.477 1252.07,952.23 1256.08,949.413 1260.09,946.428 1264.1,943.956 1268.11,942.035 1272.12,939.9 1276.14,937.551 1280.15,935.342 1284.16,933.1 1288.17,930.873 1292.18,928.541 1296.2,925.909 1300.21,923.269 1304.22,920.657 1308.23,918.386 1312.24,916.035 1316.25,914.083 1320.27,912.169 1324.28,910.236 1328.29,908.623 1332.3,906.509 1336.31,904.35 1340.33,902.638 1344.34,901.181 1348.35,899.899 1352.36,898.366 1356.37,896.74 1360.38,895.157 1364.4,893.846 1368.41,892.72 1372.42,891.957 1376.43,891.621 1380.44,891.482 1384.46,891.927 1388.47,892.236 1392.48,893.066 1396.49,894.15 1400.5,894.716 1404.52,895.27 1408.53,895.91 1412.54,896.193 1416.55,896.475 1420.56,896.96 1424.57,897.717 1428.59,897.795 1432.6,896.96 1436.61,895.636 1440.62,894.202 1444.63,893.129 1448.65,892.48 1452.66,891.921 1456.67,891.516 1460.68,890.824 1464.69,889.968 1468.7,888.829 1472.72,887.574 1476.73,886.164 1480.74,884.495 1484.75,882.501 1488.76,880.659 1492.78,878.922 1496.79,877.6 1500.8,876.344 1504.81,874.97 1508.82,873.649 1512.84,872.534 1516.85,871.787 1520.86,870.971 1524.87,870.071 1528.88,868.999 1532.89,867.161 1536.91,865.143 1540.92,862.969 1544.93,861.397 1548.94,859.923 1552.95,858.13 1556.97,856.293 1560.98,854.135 1564.99,852.212 1569,849.946 1573.01,847.402 1577.02,844.943 1581.04,842.443 1585.05,839.565 1589.06,836.378 1593.07,833.181 1597.08,830.17 1601.1,827.247 1605.11,824.033 1609.12,820.713 1613.13,817.288 1617.14,813.775 1621.16,810.688 1625.17,807.125 1629.18,803.599 1633.19,800.431 1637.2,797.526 1641.21,794.462 1645.23,791.427 1649.24,788.516 1653.25,785.169 1657.26,781.536 1661.27,778.406 1665.29,775.035 1669.3,771.412 1673.31,767.463 1677.32,763.662 1681.33,760.205 1685.34,756.8 1689.36,753.529 1693.37,750.095 1697.38,746.233 1701.39,742.345 1705.4,738.941 1709.42,735.491 1713.43,732.298 1717.44,729.088 1721.45,725.762 1725.46,722.172 1729.48,717.954 1733.49,713.386 1737.5,708.98 1741.51,704.387 1745.52,699.83 1749.53,695.055 1753.55,689.892 1757.56,684.543 1761.57,679.176 1765.58,673.702 1769.59,668.483 1773.61,663.213 1777.62,658.175 1781.63,653.089 1785.64,648.081 1789.65,642.915 1793.66,637.685 1797.68,632.677 1801.69,627.917 1805.7,623.157 1809.71,618.294 1813.72,613.572 1817.74,608.495 1821.75,602.9 1825.76,596.866 1829.77,590.77 1833.78,585.379 1837.79,580.288 1841.81,574.854 1845.82,569.765 1849.83,564.799 1853.84,559.936 1857.85,555.093 1861.87,550.261 1865.88,545.61 1869.89,540.968 1873.9,536.468 1877.91,532.133 1881.93,527.31 1885.94,522.523 1889.95,518.015 1893.96,513.476 1897.97,509.364 1901.98,505.216 1906,501.015 1910.01,496.119 1914.02,491.192 1918.03,486.25 1922.04,481.457 1926.06,476.66 1930.07,471.427 1934.08,465.839 1938.09,460.797 1942.1,455.956 1946.11,451.34 1950.13,446.475 1954.14,441.674 1958.15,437.122 1962.16,432.361 1966.17,428.297 1970.19,424.179 1974.2,420.51 1978.21,416.751 1982.22,412.959 1986.23,408.936 1990.25,404.643 1994.26,400.133 1998.27,395.686 2002.28,390.909 2006.29,386.327 2010.3,381.342 2014.32,376.187 2018.33,371.091 2022.34,365.5 2026.35,360.369 2030.36,355.879 2034.38,351.23 2038.39,345.889 2042.4,340.052 2046.41,334.29 2050.42,328.64 2054.43,323.067 2058.45,317.815 2062.46,312.661 2066.47,307.624 2070.48,302.918 2074.49,298.45 2078.51,293.994 2082.52,289.386 2086.53,284.541 2090.54,279.388 2094.55,274.096 2098.57,269.272 2102.58,265.16 2106.59,261.126 2110.6,257.367 2114.61,254.284 2118.62,251.311 2122.64,248.319 2126.65,245.094 2130.66,241.81 2134.67,238.967 2138.68,236.066 2142.7,233.642 2146.71,231.208 2150.72,228.677 2154.73,225.871 2158.74,223.004 2162.75,219.668 2166.77,215.927 2170.78,211.583 2174.79,206.68 2178.8,201.796 2182.81,196.899 2186.83,192.474 2190.84,188.468 2194.85,184.097 2198.86,179.533 2202.87,174.926 2206.89,170.303 2210.9,165.903 2214.91,161.659 2218.92,157.352 2222.93,153.267 2226.94,149.905 2230.96,146.702 2234.97,143.663 2238.98,140.348 2242.99,137.077 2247,133.491 2251.02,129.666 2255.03,126.094 2259.04,122.654 2263.05,118.875 2267.06,114.879 2271.07,110.729 2275.09,106.54 2279.1,101.925 2283.11,97.0581 2287.12,91.8423 2291.13,86.1857 "/>
<path clip-path="url(#clip580)" d="M248.022 196.789 L525.339 196.789 L525.339 93.1086 L248.022 93.1086  Z" fill="#ffffff" fill-rule="evenodd" fill-opacity="1"/>
<polyline clip-path="url(#clip580)" style="stroke:#000000; stroke-linecap:round; stroke-linejoin:round; stroke-width:4; stroke-opacity:1; fill:none" points="248.022,196.789 525.339,196.789 525.339,93.1086 248.022,93.1086 248.022,196.789 "/>
<polyline clip-path="url(#clip580)" style="stroke:#1f77b4; stroke-linecap:round; stroke-linejoin:round; stroke-width:8; stroke-opacity:1; fill:none" points="272.215,144.949 417.369,144.949 "/>
<path clip-path="url(#clip580)" d="M481.098 122.516 Q481.098 122.937 480.934 123.172 Q480.794 123.382 480.63 123.429 Q480.466 123.453 480.044 123.476 Q476.695 123.64 473.954 125.912 Q473.275 126.498 471.565 128.325 Q469.879 130.151 467.63 132.587 Q465.405 135.023 464.117 136.335 L470.3 151.138 Q470.558 151.724 470.652 151.981 Q470.769 152.215 471.003 152.52 Q471.261 152.824 471.448 152.918 Q471.659 153.012 472.104 153.129 Q472.572 153.223 473.041 153.246 Q473.533 153.246 474.423 153.269 Q474.704 153.269 474.821 153.293 Q474.961 153.293 475.125 153.433 Q475.289 153.55 475.289 153.832 Q475.289 154.253 475.102 154.487 Q474.938 154.698 474.774 154.722 Q474.633 154.745 474.376 154.745 Q473.767 154.745 471.706 154.675 Q469.644 154.604 469.059 154.604 L463.016 154.745 Q462.29 154.745 462.29 154.159 Q462.29 153.855 462.337 153.691 Q462.407 153.504 462.571 153.433 Q462.735 153.34 462.852 153.316 Q462.969 153.293 463.25 153.269 Q464.117 153.176 464.773 152.918 Q465.452 152.637 465.733 152.356 Q466.037 152.075 466.037 151.864 L465.803 151.185 L460.955 139.731 L456.622 144.439 L451.726 149.616 Q450.438 150.997 450.438 151.77 Q450.438 153.059 452.359 153.269 Q452.944 153.316 452.944 153.785 Q452.944 154.23 452.757 154.464 Q452.593 154.675 452.429 154.722 Q452.288 154.745 452.078 154.745 Q451.211 154.745 449.384 154.675 Q447.581 154.604 446.69 154.604 Q445.941 154.604 444.418 154.675 Q442.896 154.745 442.193 154.745 Q441.912 154.745 441.748 154.604 Q441.584 154.464 441.584 154.323 L441.561 154.206 Q441.561 153.878 441.608 153.691 Q441.678 153.504 441.865 153.41 Q442.076 153.316 442.17 153.316 Q442.264 153.293 442.615 153.269 Q444.606 153.152 446.292 152.379 Q448.002 151.606 449.665 149.803 Q449.806 149.686 449.97 149.545 Q450.157 149.405 450.298 149.288 L460.416 138.396 L454.748 124.999 Q454.49 124.39 454.256 124.132 Q454.022 123.851 453.296 123.663 Q452.57 123.476 451.164 123.476 Q450.766 123.476 450.579 123.453 Q450.391 123.429 450.227 123.312 Q450.063 123.195 450.063 122.937 Q450.063 122.492 450.227 122.282 Q450.415 122.047 450.555 122.024 Q450.719 121.977 450.93 121.977 Q451.515 121.977 453.6 122.047 Q455.685 122.118 456.294 122.118 Q457.301 122.118 459.315 122.047 Q461.353 121.977 462.337 121.977 Q463.063 121.977 463.063 122.563 Q463.063 122.937 462.899 123.148 Q462.735 123.359 462.571 123.406 Q462.407 123.453 462.102 123.476 Q461.189 123.57 460.486 123.874 Q459.807 124.155 459.526 124.436 Q459.268 124.694 459.268 124.858 L459.503 125.49 L463.531 135.023 L471.307 126.685 Q472.221 125.654 472.221 124.952 Q472.221 123.687 470.3 123.476 Q469.715 123.382 469.715 122.937 Q469.715 122.492 469.902 122.282 Q470.089 122.047 470.23 122.024 Q470.394 121.977 470.628 121.977 Q471.495 121.977 473.275 122.047 Q475.078 122.118 475.969 122.118 Q476.718 122.118 478.241 122.047 Q479.763 121.977 480.466 121.977 Q480.747 121.977 480.911 122.118 Q481.075 122.235 481.075 122.375 L481.098 122.516 Z" fill="#000000" fill-rule="nonzero" fill-opacity="1" /><path clip-path="url(#clip580)" d="M496.134 153.133 Q496.134 153.592 495.921 153.707 Q495.708 153.805 495.118 153.805 L491.97 153.805 L489.478 163.708 Q489.281 164.577 489.281 165.315 Q489.281 166.135 489.527 166.496 Q489.789 166.856 490.33 166.856 Q491.396 166.856 492.544 165.889 Q493.708 164.922 494.692 162.561 Q494.823 162.249 494.888 162.184 Q494.97 162.102 495.184 162.102 Q495.593 162.102 495.593 162.43 Q495.593 162.544 495.364 163.069 Q495.151 163.594 494.675 164.364 Q494.216 165.135 493.61 165.856 Q493.019 166.578 492.118 167.102 Q491.216 167.611 490.248 167.611 Q488.888 167.611 488.019 166.742 Q487.166 165.873 487.166 164.512 Q487.166 164.069 487.51 162.659 Q487.855 161.233 489.724 153.805 L486.756 153.805 Q486.346 153.805 486.182 153.789 Q486.035 153.773 485.92 153.691 Q485.822 153.592 485.822 153.395 Q485.822 153.084 485.953 152.953 Q486.084 152.805 486.248 152.789 Q486.428 152.756 486.838 152.756 L489.986 152.756 L491.298 147.427 Q491.429 146.903 491.757 146.608 Q492.101 146.296 492.298 146.263 Q492.495 146.214 492.642 146.214 Q493.085 146.214 493.347 146.46 Q493.61 146.69 493.61 147.116 Q493.61 147.345 492.232 152.756 L495.184 152.756 Q495.561 152.756 495.708 152.772 Q495.872 152.789 496.003 152.871 Q496.134 152.953 496.134 153.133 Z" fill="#000000" fill-rule="nonzero" fill-opacity="1" /></svg>
